<?xml version="1.0" standalone="no"?>
<!DOCTYPE svg PUBLIC "-//W3C//DTD SVG 20010904//EN"
 "http://www.w3.org/TR/2001/REC-SVG-20010904/DTD/svg10.dtd">
<svg version="1.0" xmlns="http://www.w3.org/2000/svg"
 width="101.000000pt" height="86.000000pt" viewBox="0 0 101.000000 86.000000"
 preserveAspectRatio="xMidYMid meet">
<metadata>
Created by potrace 1.16, written by Peter Selinger 2001-2019
</metadata>
<g transform="translate(0.000000,86.000000) scale(0.100000,-0.100000)"
fill="#000000" stroke="none">
<path d="M378 789 c-31 -12 -62 -71 -83 -162 -14 -61 -49 -107 -83 -107 -16 0
-96 -53 -134 -88 -23 -21 -28 -34 -28 -72 0 -95 47 -122 218 -126 68 -1 125
-4 127 -6 2 -2 14 -32 28 -68 55 -147 174 -158 192 -16 4 28 16 79 27 114 18
55 26 66 65 89 30 17 52 24 71 20 52 -11 110 4 128 31 24 37 34 89 22 123 -15
44 -102 81 -203 87 -44 2 -86 9 -93 15 -13 11 -65 104 -60 109 2 2 -5 13 -14
26 -25 37 -120 53 -180 31z m129 -44 c12 -9 30 -43 43 -81 30 -93 35 -97 134
-95 73 2 89 -2 137 -27 63 -33 83 -63 66 -99 -15 -34 -57 -53 -114 -53 -26 0
-67 -9 -91 -20 -35 -16 -47 -29 -67 -72 -13 -29 -25 -73 -26 -98 -3 -49 -19
-89 -44 -110 -24 -20 -62 1 -70 42 -14 62 -47 116 -79 130 -20 8 -68 11 -137
9 -105 -2 -143 5 -161 33 -14 21 -8 87 10 104 27 28 93 67 145 87 26 10 47 23
47 30 0 6 9 20 20 30 12 11 20 31 20 51 0 36 26 121 42 142 14 17 99 15 125
-3z"/>
<path d="M460 603 c0 -10 5 -45 10 -78 11 -70 11 -70 -73 -80 -34 -3 -77 -13
-97 -22 -34 -15 -34 -15 -12 -26 16 -7 29 -7 45 1 12 6 50 13 84 17 l61 6 0
-38 c0 -42 12 -113 18 -113 2 0 13 5 23 11 16 11 17 17 5 73 -7 33 -10 64 -8
68 3 4 23 8 44 8 34 0 134 13 208 26 12 3 22 12 22 20 0 13 -7 15 -37 9 -47
-9 -172 -21 -209 -20 -23 0 -29 6 -40 45 -8 25 -14 60 -14 78 0 22 -5 32 -15
32 -8 0 -15 -8 -15 -17z"/>
</g>
</svg>
