<?xml version="1.0" standalone="no"?>
<!DOCTYPE svg PUBLIC "-//W3C//DTD SVG 20010904//EN"
 "http://www.w3.org/TR/2001/REC-SVG-20010904/DTD/svg10.dtd">
<svg version="1.0" xmlns="http://www.w3.org/2000/svg"
 width="87.000000pt" height="84.000000pt" viewBox="0 0 87.000000 84.000000"
 preserveAspectRatio="xMidYMid meet">
<metadata>
Created by potrace 1.16, written by Peter Selinger 2001-2019
</metadata>
<g transform="translate(0.000000,84.000000) scale(0.100000,-0.100000)"
fill="#000000" stroke="none">
<path d="M560 780 c0 -12 22 -26 62 -39 20 -7 55 -30 76 -53 38 -39 40 -43 51
-143 11 -95 10 -109 -10 -181 -12 -47 -31 -89 -45 -105 -13 -14 -24 -29 -24
-35 -1 -18 -110 -96 -147 -106 -118 -30 -127 -31 -178 -18 -27 7 -66 22 -85
33 -51 30 -126 110 -153 165 -31 61 -36 165 -11 222 10 22 20 40 23 40 3 0 24
16 46 35 69 61 132 85 225 85 66 0 89 -4 130 -25 153 -77 186 -315 60 -429
-48 -43 -74 -50 -149 -43 -73 8 -149 40 -178 75 -41 49 -73 120 -73 161 0 48
43 134 79 158 47 31 167 23 241 -17 23 -12 80 -99 80 -121 0 -9 -10 -43 -22
-74 -24 -64 -74 -105 -128 -105 -41 0 -120 79 -119 118 1 40 13 65 34 68 10 2
28 5 40 8 29 7 49 -25 30 -50 -11 -15 -16 -17 -26 -6 -17 16 -29 15 -29 -3 0
-9 11 -21 25 -27 21 -9 28 -8 45 7 11 10 20 28 20 40 0 30 -34 71 -65 79 -53
14 -124 -58 -110 -112 18 -74 109 -152 176 -152 65 1 149 105 149 184 0 41
-22 97 -50 129 -47 54 -107 78 -199 79 -70 1 -83 -2 -109 -23 -39 -31 -82
-125 -82 -178 0 -55 25 -116 71 -171 72 -88 226 -116 330 -62 47 24 58 36 86
92 29 58 33 74 33 150 0 98 -17 145 -74 207 -29 32 -50 44 -111 62 -41 13
-105 23 -143 24 -59 1 -75 -3 -127 -32 -64 -35 -119 -90 -161 -159 -24 -39
-26 -48 -19 -109 12 -116 96 -250 199 -318 126 -82 297 -55 412 67 59 63 83
104 113 204 19 64 21 80 12 151 -5 43 -15 91 -20 107 -16 41 -59 93 -95 115
-36 22 -106 43 -106 31z"/>
</g>
</svg>
