<?xml version="1.0" standalone="no"?>
<!DOCTYPE svg PUBLIC "-//W3C//DTD SVG 20010904//EN"
 "http://www.w3.org/TR/2001/REC-SVG-20010904/DTD/svg10.dtd">
<svg version="1.0" xmlns="http://www.w3.org/2000/svg"
 width="290.000000pt" height="234.000000pt" viewBox="0 0 290.000000 234.000000"
 preserveAspectRatio="xMidYMid meet">
<metadata>
Created by potrace 1.16, written by Peter Selinger 2001-2019
</metadata>
<g transform="translate(0.000000,234.000000) scale(0.100000,-0.100000)"
fill="#000000" stroke="none">
<path d="M2070 2244 c-133 -31 -215 -73 -282 -142 -73 -76 -94 -118 -132 -258
-27 -101 -36 -121 -57 -131 -31 -15 -219 -30 -220 -17 -5 58 -27 140 -54 205
-14 32 -25 65 -25 73 0 8 -13 25 -30 38 -16 13 -44 36 -62 51 -39 33 -153 102
-206 124 -70 30 -165 43 -287 42 l-120 -2 -111 -53 c-103 -49 -116 -58 -173
-126 -78 -93 -138 -216 -144 -295 -8 -91 9 -199 43 -271 36 -77 136 -232 163
-251 18 -13 16 -17 -45 -80 -67 -69 -147 -181 -191 -266 -29 -56 -50 -184 -41
-248 18 -131 64 -281 104 -337 27 -38 157 -135 206 -154 101 -39 204 -56 328
-56 185 0 233 28 335 195 27 44 58 94 69 112 11 17 25 48 32 70 7 21 16 43 20
48 4 6 15 35 24 66 l16 56 62 13 c72 14 308 23 323 12 17 -11 65 -99 65 -117
0 -20 86 -151 104 -158 6 -3 25 -24 41 -48 52 -76 77 -93 210 -137 118 -39
144 -42 262 -32 149 13 289 68 347 136 72 86 126 271 126 432 0 85 -23 245
-42 289 -15 35 -67 103 -126 165 l-45 47 42 55 c23 31 44 64 48 73 3 10 16 41
28 68 34 76 46 146 52 302 l6 142 -35 73 c-26 54 -55 94 -111 151 -42 42 -79
77 -82 77 -4 0 -22 12 -40 26 -77 59 -243 75 -395 38z m190 -169 c88 -12 203
-96 272 -199 47 -70 58 -121 50 -230 -4 -71 -10 -91 -50 -166 -25 -47 -60
-105 -77 -130 -18 -25 -40 -65 -49 -90 -18 -44 -18 -45 6 -63 45 -35 130 -123
150 -155 28 -46 76 -235 84 -330 4 -62 2 -89 -15 -139 -21 -66 -81 -155 -128
-189 -71 -53 -204 -72 -360 -52 -76 9 -93 15 -130 44 -23 19 -56 60 -74 92
-18 31 -45 75 -60 98 -15 22 -35 64 -44 92 -10 29 -21 55 -26 58 -5 3 -9 13
-9 22 -1 9 -13 32 -29 50 -40 46 -95 54 -371 48 -178 -3 -235 -7 -245 -17 -7
-8 -25 -45 -40 -84 -15 -38 -33 -83 -40 -100 -7 -16 -23 -55 -35 -85 -64 -169
-138 -266 -221 -293 -28 -9 -65 -17 -83 -17 -76 1 -249 57 -301 98 -33 26
-113 146 -136 205 -12 31 -19 72 -19 118 0 61 5 79 41 152 57 112 135 242 181
301 22 27 46 65 54 84 14 35 14 37 -22 96 -21 34 -50 78 -66 98 -16 20 -49 74
-75 120 -44 80 -46 86 -47 168 -1 112 14 158 73 222 38 42 71 64 152 103 101
49 107 50 194 50 79 0 97 -4 150 -29 67 -32 228 -185 239 -227 7 -24 30 -82
69 -171 11 -26 33 -60 49 -75 l29 -28 223 0 c167 0 227 3 238 13 15 12 24 46
48 183 10 56 82 197 120 238 51 52 135 110 176 120 38 8 63 8 154 -4z"/>
<path d="M2107 1954 c-51 -16 -91 -59 -128 -139 -26 -56 -26 -194 1 -252 28
-64 93 -71 147 -17 23 23 24 30 17 72 -12 70 -8 139 10 167 13 20 25 25 59 25
24 0 50 -6 59 -12 34 -26 50 -164 27 -225 -26 -69 -123 -134 -197 -132 -20 1
-89 -4 -154 -10 -81 -9 -284 -11 -668 -7 l-552 4 -40 39 c-46 44 -70 88 -88
160 -16 62 -3 122 35 157 30 28 110 56 161 56 71 0 174 -87 174 -148 0 -11 -8
-30 -19 -43 -16 -20 -22 -22 -42 -11 -13 6 -36 21 -50 33 -15 12 -47 24 -72
26 -39 5 -49 2 -71 -20 -53 -53 -22 -142 61 -178 25 -11 77 -25 114 -31 95
-17 130 0 167 80 22 47 26 71 27 142 0 92 -8 112 -79 188 -56 61 -99 77 -206
77 -117 0 -160 -18 -242 -99 -101 -100 -126 -224 -68 -334 71 -135 131 -199
218 -234 54 -21 71 -22 342 -23 167 0 337 -6 410 -14 123 -13 234 -12 525 8
89 6 147 16 223 39 111 34 157 63 214 135 70 88 81 130 63 242 -23 142 -72
217 -178 270 -59 29 -125 32 -200 9z"/>
<path d="M1917 1124 c-4 -4 -184 -9 -400 -10 -510 -4 -610 -9 -722 -39 -147
-39 -222 -78 -306 -157 -63 -59 -98 -155 -99 -269 0 -69 15 -108 70 -176 68
-87 95 -98 230 -98 138 0 159 9 222 99 37 52 43 69 46 123 4 56 1 68 -23 102
-36 52 -103 81 -188 81 -111 0 -187 -42 -187 -105 0 -74 70 -100 136 -50 59
45 123 26 109 -32 -8 -37 -34 -67 -79 -92 -42 -24 -69 -26 -117 -9 -54 18 -79
40 -100 86 -21 47 -26 141 -9 172 12 22 111 100 155 122 41 21 172 65 218 73
21 4 278 9 570 10 293 1 588 6 657 10 119 7 127 7 165 -15 124 -71 172 -174
130 -277 -20 -48 -56 -74 -110 -81 -58 -6 -108 12 -145 54 -37 42 -37 54 -4
93 31 38 50 39 98 6 42 -29 72 -32 104 -9 71 49 -53 193 -168 194 -82 0 -202
-113 -215 -204 -10 -62 2 -124 32 -171 28 -43 71 -84 90 -85 6 0 28 -10 48
-21 25 -15 59 -23 118 -26 80 -5 84 -4 167 36 93 46 117 72 139 153 9 33 11
75 7 132 -6 73 -12 93 -53 170 -93 174 -139 195 -453 211 -69 3 -129 3 -133
-1z"/>
</g>
</svg>
