<?xml version="1.0" standalone="no"?>
<!DOCTYPE svg PUBLIC "-//W3C//DTD SVG 20010904//EN"
 "http://www.w3.org/TR/2001/REC-SVG-20010904/DTD/svg10.dtd">
<svg version="1.0" xmlns="http://www.w3.org/2000/svg"
 width="98.000000pt" height="159.000000pt" viewBox="0 0 98.000000 159.000000"
 preserveAspectRatio="xMidYMid meet">
<metadata>
Created by potrace 1.16, written by Peter Selinger 2001-2019
</metadata>
<g transform="translate(0.000000,159.000000) scale(0.100000,-0.100000)"
fill="#000000" stroke="none">
<path d="M238 1483 c-54 -8 -57 -26 -39 -288 13 -197 7 -388 -15 -477 -8 -32
-16 -89 -18 -128 -3 -74 -10 -88 -70 -141 -34 -29 -36 -56 -15 -161 10 -51 10
-80 2 -120 -7 -38 -7 -57 1 -70 14 -24 33 -23 41 1 11 37 6 158 -9 218 -9 34
-13 69 -10 78 13 32 81 45 128 23 34 -15 62 -92 73 -199 7 -75 10 -84 28 -84
23 0 23 0 8 146 -11 107 -25 135 -92 188 -34 27 -39 36 -44 89 -4 35 -1 81 8
117 27 117 36 285 25 473 -5 97 -13 198 -16 223 -11 80 -10 80 254 73 125 -3
254 -9 287 -12 l60 -7 2 -220 c2 -121 7 -263 13 -315 5 -52 10 -178 11 -280 1
-151 -1 -192 -14 -216 -20 -39 -29 -356 -10 -375 24 -24 33 3 33 96 0 52 5
117 11 146 9 40 8 57 -2 75 -10 20 -10 27 4 42 15 16 17 47 16 233 0 118 -5
234 -10 259 -5 25 -11 166 -12 313 -2 216 -5 270 -16 277 -8 4 -43 9 -78 9
-35 0 -67 2 -71 5 -10 6 -429 14 -464 9z"/>
<path d="M305 1354 c-9 -9 -15 -28 -14 -43 1 -14 -1 -51 -5 -82 -12 -83 -2
-94 91 -109 179 -29 347 -38 359 -19 3 6 1 60 -7 121 -14 121 -25 138 -88 140
-61 2 -72 -32 -49 -146 13 -67 7 -76 -53 -76 -45 0 -49 9 -49 99 0 86 -15 108
-78 116 -26 3 -57 8 -69 11 -12 2 -29 -3 -38 -12z m96 -24 c14 0 33 -6 43 -13
28 -21 6 -92 -36 -113 -29 -15 -32 -15 -57 4 -20 14 -27 29 -29 62 -4 58 3 74
31 66 12 -3 34 -6 48 -6z m277 -6 c29 -20 32 -102 4 -128 -18 -15 -21 -15 -45
5 -23 17 -27 28 -27 73 0 29 3 56 7 59 11 12 37 8 61 -9z"/>
<path d="M280 984 c0 -18 56 -76 154 -159 97 -83 152 -118 168 -109 53 31 178
168 178 195 0 29 -13 23 -34 -16 -22 -41 -138 -155 -158 -155 -7 0 -42 25 -78
55 -36 31 -92 78 -125 104 -34 27 -67 61 -75 75 -15 29 -30 34 -30 10z"/>
</g>
</svg>
