<?xml version="1.0" standalone="no"?>
<!DOCTYPE svg PUBLIC "-//W3C//DTD SVG 20010904//EN"
 "http://www.w3.org/TR/2001/REC-SVG-20010904/DTD/svg10.dtd">
<svg version="1.0" xmlns="http://www.w3.org/2000/svg"
 width="202.000000pt" height="235.000000pt" viewBox="0 0 202.000000 235.000000"
 preserveAspectRatio="xMidYMid meet">
<metadata>
Created by potrace 1.16, written by Peter Selinger 2001-2019
</metadata>
<g transform="translate(0.000000,235.000000) scale(0.100000,-0.100000)"
fill="#000000" stroke="none">
<path d="M120 2299 c0 -17 3 -19 13 -10 11 8 18 0 35 -38 12 -27 26 -52 31
-55 5 -4 19 8 32 25 15 21 27 29 40 26 12 -3 19 0 19 9 0 24 -27 16 -53 -16
-14 -16 -28 -30 -31 -30 -2 0 -17 25 -32 55 -29 56 -54 72 -54 34z"/>
<path d="M130 2260 c0 -8 6 -27 14 -42 11 -20 11 -28 3 -32 -7 -2 -4 -5 6 -5
21 -1 21 -2 -3 50 -11 24 -20 37 -20 29z"/>
<path d="M246 2205 c-9 -13 -16 -43 -16 -66 0 -37 7 -51 52 -103 71 -84 72
-85 54 -49 -8 17 -19 33 -23 35 -20 9 -64 67 -68 90 -3 14 1 46 9 72 8 25 13
46 11 46 -1 0 -10 -11 -19 -25z"/>
<path d="M42 2183 c2 -12 13 -19 33 -20 22 -1 24 0 7 4 -15 3 -22 10 -18 19 3
8 -1 14 -10 14 -9 0 -14 -7 -12 -17z"/>
<path d="M134 2144 c35 -20 71 -59 92 -101 16 -33 39 -47 28 -18 -4 8 -10 15
-15 15 -5 0 -9 5 -9 11 0 29 -87 110 -117 109 -4 -1 5 -8 21 -16z"/>
<path d="M728 2043 c-18 -5 -63 -74 -73 -114 -3 -14 1 -39 10 -59 9 -19 14
-25 11 -12 -2 14 2 26 12 32 16 9 16 9 0 10 -24 0 -34 21 -14 32 9 5 16 18 16
29 0 11 16 36 36 55 36 33 36 36 2 27z"/>
<path d="M797 2003 c11 -32 15 -35 24 -22 6 10 9 3 10 -21 0 -19 5 -44 10 -55
6 -14 8 -4 5 33 -3 37 -10 58 -23 67 -25 19 -34 18 -26 -2z"/>
<path d="M270 1981 c0 -6 4 -13 10 -16 6 -3 7 1 4 9 -7 18 -14 21 -14 7z"/>
<path d="M1243 1972 c-6 -4 36 -8 93 -9 89 -2 110 -6 155 -28 62 -32 58 -43
-8 -19 -86 30 -177 30 -263 1 -41 -15 -67 -26 -58 -27 10 0 41 9 70 20 30 11
77 20 109 20 69 0 181 -33 224 -66 34 -26 142 -67 160 -60 5 2 -18 12 -52 21
-33 10 -74 28 -90 41 -26 22 -24 21 45 -6 40 -16 85 -31 100 -32 25 -3 27 0
30 37 5 59 22 69 22 12 0 -38 3 -47 18 -47 12 0 13 3 4 8 -7 5 -11 26 -10 50
1 23 -2 45 -5 48 -12 12 -35 -17 -42 -53 -6 -34 -8 -35 -43 -30 -21 2 -60 16
-87 30 -187 96 -189 97 -277 97 -46 0 -88 -4 -95 -8z"/>
<path d="M720 1960 c0 -5 5 -10 11 -10 5 0 7 5 4 10 -3 6 -8 10 -11 10 -2 0
-4 -4 -4 -10z"/>
<path d="M309 1926 c14 -14 26 -24 29 -22 7 8 -8 25 -31 37 -21 11 -21 10 2
-15z"/>
<path d="M755 1940 c-3 -5 -2 -10 4 -10 5 0 13 5 16 10 3 6 2 10 -4 10 -5 0
-13 -4 -16 -10z"/>
<path d="M1155 1940 c-3 -5 -2 -10 4 -10 5 0 13 5 16 10 3 6 2 10 -4 10 -5 0
-13 -4 -16 -10z"/>
<path d="M360 1925 c0 -8 65 -87 103 -126 49 -49 175 -139 195 -139 11 0 35
10 53 23 19 13 40 22 47 19 7 -2 12 3 12 11 0 8 7 18 16 21 8 3 12 10 9 16 -3
6 -17 -1 -33 -15 -33 -31 -44 -32 -41 -2 1 12 -1 30 -5 40 -3 9 -8 25 -11 34
-4 12 -9 13 -17 5 -9 -9 -8 -16 4 -29 17 -20 13 -83 -6 -95 -25 -17 -62 -6
-107 32 -26 22 -52 40 -57 40 -9 0 -26 18 -124 130 -21 23 -38 39 -38 35z"/>
<path d="M777 1910 c-10 -10 -14 -20 -9 -23 7 -5 42 26 42 38 0 10 -16 3 -33
-15z"/>
<path d="M1105 1910 c-3 -6 1 -7 9 -4 18 7 21 14 7 14 -6 0 -13 -4 -16 -10z"/>
<path d="M1020 1868 c-50 -28 -60 -40 -23 -28 17 6 39 20 49 31 21 23 18 23
-26 -3z"/>
<path d="M1074 1855 c-27 -19 -67 -44 -89 -54 -74 -35 -171 -171 -121 -171 17
0 20 -9 16 -47 -1 -22 8 -28 38 -24 6 1 12 -3 12 -9 0 -6 5 -8 10 -5 16 10 12
22 -9 28 -17 4 -61 76 -61 100 0 6 9 19 20 31 64 69 83 85 110 91 16 3 35 14
42 22 7 9 33 29 57 45 25 15 40 28 34 28 -6 0 -33 -16 -59 -35z"/>
<path d="M837 1873 c-4 -3 -7 -19 -7 -35 0 -15 -4 -28 -10 -28 -5 0 -10 -7
-10 -15 0 -8 6 -15 13 -15 8 0 17 21 23 50 10 46 7 60 -9 43z"/>
<path d="M780 1860 c0 -7 -7 -22 -17 -32 -9 -10 -12 -18 -6 -18 5 0 18 9 28
20 14 16 16 23 7 32 -9 9 -12 9 -12 -2z"/>
<path d="M382 1845 c37 -57 66 -88 93 -101 l30 -14 -25 17 c-13 10 -31 27 -40
37 -30 38 -71 80 -58 61z"/>
<path d="M1830 1823 c8 -3 19 -11 23 -17 6 -7 7 -6 4 4 -2 8 -12 16 -23 17
-13 2 -15 1 -4 -4z"/>
<path d="M918 1789 l-33 -31 38 27 c20 15 37 29 37 31 0 10 -12 2 -42 -27z"/>
<path d="M1748 1760 c2 -21 11 -45 20 -52 14 -11 15 -10 7 7 -4 11 -9 31 -10
45 -4 38 -4 40 -13 40 -4 0 -6 -18 -4 -40z"/>
<path d="M1790 1788 c0 -7 -3 -24 -7 -38 -9 -36 6 -19 17 19 5 19 5 31 -1 31
-5 0 -9 -6 -9 -12z"/>
<path d="M730 1780 c0 -5 5 -10 10 -10 6 0 10 5 10 10 0 6 -4 10 -10 10 -5 0
-10 -4 -10 -10z"/>
<path d="M830 1756 c0 -9 5 -16 10 -16 6 0 10 4 10 9 0 6 -4 13 -10 16 -5 3
-10 -1 -10 -9z"/>
<path d="M846 1735 c-11 -8 -18 -17 -15 -19 7 -7 49 13 49 24 0 14 -11 12 -34
-5z"/>
<path d="M525 1697 c9 -15 21 -27 25 -27 5 0 16 -7 25 -16 9 -9 18 -14 20 -12
3 2 -16 21 -41 43 -39 32 -44 34 -29 12z"/>
<path d="M767 1674 c-4 -4 -7 -14 -7 -23 0 -11 3 -12 11 -4 6 6 10 16 7 23 -2
6 -7 8 -11 4z"/>
<path d="M707 1656 c-4 -10 -5 -21 -2 -24 9 -9 17 6 13 25 -3 17 -4 17 -11 -1z"/>
<path d="M650 1616 c0 -9 5 -16 10 -16 6 0 10 4 10 9 0 6 -4 13 -10 16 -5 3
-10 -1 -10 -9z"/>
<path d="M601 1604 c9 -11 8 -25 -5 -63 -19 -59 -20 -89 -1 -46 7 17 17 30 21
30 4 0 9 19 10 42 1 33 -2 42 -18 46 -16 4 -17 3 -7 -9z"/>
<path d="M702 1585 c-14 -31 -15 -35 -3 -35 8 0 23 51 17 58 -2 1 -8 -9 -14
-23z"/>
<path d="M822 1590 c0 -14 2 -19 5 -12 2 6 2 18 0 25 -3 6 -5 1 -5 -13z"/>
<path d="M770 1574 c0 -8 5 -12 10 -9 6 3 10 10 10 16 0 5 -4 9 -10 9 -5 0
-10 -7 -10 -16z"/>
<path d="M736 1524 c-4 -9 -4 -19 -1 -22 2 -3 7 3 11 12 4 9 4 19 1 22 -2 3
-7 -3 -11 -12z"/>
<path d="M686 1521 c-4 -7 -5 -15 -2 -18 9 -9 19 4 14 18 -4 11 -6 11 -12 0z"/>
<path d="M990 1495 c13 -14 26 -25 28 -25 3 0 -5 11 -18 25 -13 14 -26 25 -28
25 -3 0 5 -11 18 -25z"/>
<path d="M770 1500 c0 -5 5 -10 10 -10 6 0 10 5 10 10 0 6 -4 10 -10 10 -5 0
-10 -4 -10 -10z"/>
<path d="M840 1478 c0 -36 12 -31 16 7 1 14 -2 25 -7 25 -5 0 -9 -14 -9 -32z"/>
<path d="M932 1491 c4 -13 18 -16 19 -4 0 4 -5 9 -11 12 -7 2 -11 -2 -8 -8z"/>
<path d="M644 1469 c-3 -6 -1 -16 5 -22 8 -8 11 -5 11 11 0 24 -5 28 -16 11z"/>
<path d="M595 1460 c-7 -12 2 -30 16 -30 5 0 9 9 9 20 0 21 -15 27 -25 10z"/>
<path d="M707 1459 c8 -8 16 -8 30 0 16 9 14 10 -11 11 -22 0 -27 -3 -19 -11z"/>
<path d="M885 1450 c-3 -5 -1 -10 4 -10 6 0 11 5 11 10 0 6 -2 10 -4 10 -3 0
-8 -4 -11 -10z"/>
<path d="M553 1411 c-7 -19 -13 -44 -13 -55 0 -12 -5 -27 -11 -33 -14 -14 -15
-199 0 -216 5 -7 13 -31 17 -54 8 -49 18 -68 33 -59 17 11 13 36 -4 30 -10 -4
-15 1 -16 15 -1 12 -2 27 -3 34 -1 6 6 11 16 9 12 -2 15 3 11 19 -4 14 -12 19
-24 16 -18 -5 -29 17 -29 61 0 24 17 30 22 7 2 -12 7 -12 27 -2 14 6 26 18 29
25 3 11 1 11 -17 0 -18 -11 -24 -10 -43 11 -13 13 -18 25 -12 27 6 3 8 18 6
36 -3 22 0 35 12 44 13 9 16 24 14 66 l-3 53 -12 -34z"/>
<path d="M810 1420 c0 -5 5 -10 11 -10 5 0 7 5 4 10 -3 6 -8 10 -11 10 -2 0
-4 -4 -4 -10z"/>
<path d="M985 1410 c3 -5 11 -10 16 -10 6 0 7 5 4 10 -3 6 -11 10 -16 10 -6 0
-7 -4 -4 -10z"/>
<path d="M1050 1411 c0 -6 4 -13 10 -16 6 -3 7 1 4 9 -7 18 -14 21 -14 7z"/>
<path d="M650 1400 c0 -5 5 -10 10 -10 6 0 10 5 10 10 0 6 -4 10 -10 10 -5 0
-10 -4 -10 -10z"/>
<path d="M725 1390 c-8 -13 9 -20 24 -11 10 6 9 10 -3 14 -8 3 -18 2 -21 -3z"/>
<path d="M865 1390 c-3 -5 -1 -10 4 -10 6 0 11 5 11 10 0 6 -2 10 -4 10 -3 0
-8 -4 -11 -10z"/>
<path d="M900 1381 c0 -12 5 -21 10 -21 6 0 10 6 10 14 0 8 -4 18 -10 21 -5 3
-10 -3 -10 -14z"/>
<path d="M795 1380 c-3 -5 1 -10 9 -10 9 0 16 5 16 10 0 6 -4 10 -9 10 -6 0
-13 -4 -16 -10z"/>
<path d="M971 1374 c0 -11 3 -14 6 -6 3 7 2 16 -1 19 -3 4 -6 -2 -5 -13z"/>
<path d="M1076 1350 c4 -19 12 -66 19 -105 10 -53 13 -61 14 -33 1 39 -15 117
-30 153 -6 14 -7 9 -3 -15z"/>
<path d="M600 1360 c0 -5 7 -10 16 -10 8 0 12 5 9 10 -3 6 -10 10 -16 10 -5 0
-9 -4 -9 -10z"/>
<path d="M645 1360 c4 -6 11 -8 16 -5 14 9 11 15 -7 15 -8 0 -12 -5 -9 -10z"/>
<path d="M866 1335 c-3 -8 -1 -15 4 -15 6 0 10 7 10 15 0 8 -2 15 -4 15 -2 0
-6 -7 -10 -15z"/>
<path d="M730 1330 c0 -5 5 -10 10 -10 6 0 10 5 10 10 0 6 -4 10 -10 10 -5 0
-10 -4 -10 -10z"/>
<path d="M1018 1333 c7 -3 16 -2 19 1 4 3 -2 6 -13 5 -11 0 -14 -3 -6 -6z"/>
<path d="M581 1293 c0 -25 1 -26 9 -8 12 27 12 35 0 35 -5 0 -10 -12 -9 -27z"/>
<path d="M830 1299 c0 -5 5 -7 10 -4 6 3 10 8 10 11 0 2 -4 4 -10 4 -5 0 -10
-5 -10 -11z"/>
<path d="M680 1285 c0 -8 5 -15 10 -15 6 0 10 7 10 15 0 8 -4 15 -10 15 -5 0
-10 -7 -10 -15z"/>
<path d="M860 1290 c0 -5 5 -10 10 -10 6 0 10 5 10 10 0 6 -4 10 -10 10 -5 0
-10 -4 -10 -10z"/>
<path d="M625 1281 c-3 -5 -1 -12 5 -16 5 -3 10 1 10 9 0 18 -6 21 -15 7z"/>
<path d="M767 1283 c-4 -3 -7 -11 -7 -17 0 -6 5 -5 12 2 6 6 9 14 7 17 -3 3
-9 2 -12 -2z"/>
<path d="M957 1283 c-10 -9 -9 -41 1 -47 5 -3 9 8 9 24 0 33 -1 33 -10 23z"/>
<path d="M1005 1277 c-4 -10 -5 -21 -1 -24 10 -10 18 4 13 24 -4 17 -4 17 -12
0z"/>
<path d="M1040 1280 c0 -5 5 -10 11 -10 5 0 7 5 4 10 -3 6 -8 10 -11 10 -2 0
-4 -4 -4 -10z"/>
<path d="M720 1264 c0 -8 5 -12 10 -9 6 3 10 10 10 16 0 5 -4 9 -10 9 -5 0
-10 -7 -10 -16z"/>
<path d="M1055 1240 c4 -6 11 -8 16 -5 14 9 11 15 -7 15 -8 0 -12 -5 -9 -10z"/>
<path d="M645 1230 c-3 -5 -1 -10 4 -10 6 0 11 5 11 10 0 6 -2 10 -4 10 -3 0
-8 -4 -11 -10z"/>
<path d="M840 1230 c0 -5 5 -10 10 -10 6 0 10 5 10 10 0 6 -4 10 -10 10 -5 0
-10 -4 -10 -10z"/>
<path d="M905 1230 c-3 -5 -1 -10 4 -10 6 0 11 5 11 10 0 6 -2 10 -4 10 -3 0
-8 -4 -11 -10z"/>
<path d="M770 1210 c0 -5 5 -10 10 -10 6 0 10 5 10 10 0 6 -4 10 -10 10 -5 0
-10 -4 -10 -10z"/>
<path d="M680 1185 c0 -8 5 -15 10 -15 6 0 10 7 10 15 0 8 -4 15 -10 15 -5 0
-10 -7 -10 -15z"/>
<path d="M1052 1166 c1 -10 8 -17 13 -17 15 1 12 24 -3 29 -9 3 -13 -2 -10
-12z"/>
<path d="M885 1160 c-3 -5 -1 -10 4 -10 6 0 11 5 11 10 0 6 -2 10 -4 10 -3 0
-8 -4 -11 -10z"/>
<path d="M1100 1160 c0 -5 5 -10 11 -10 5 0 7 5 4 10 -3 6 -8 10 -11 10 -2 0
-4 -4 -4 -10z"/>
<path d="M835 1150 c-3 -5 1 -10 9 -10 9 0 16 5 16 10 0 6 -4 10 -9 10 -6 0
-13 -4 -16 -10z"/>
<path d="M981 1143 c-1 -12 4 -25 9 -28 12 -7 12 2 0 30 -8 19 -9 19 -9 -2z"/>
<path d="M630 1134 c0 -8 5 -12 10 -9 6 3 10 10 10 16 0 5 -4 9 -10 9 -5 0
-10 -7 -10 -16z"/>
<path d="M725 1121 c-3 -5 -1 -12 5 -16 5 -3 10 1 10 9 0 18 -6 21 -15 7z"/>
<path d="M1050 1120 c0 -5 5 -10 10 -10 6 0 10 5 10 10 0 6 -4 10 -10 10 -5 0
-10 -4 -10 -10z"/>
<path d="M1102 1100 c-1 -14 -9 -37 -16 -52 -14 -26 -13 -28 4 -28 10 0 27 -3
37 -6 17 -6 17 -6 1 7 -10 8 -19 32 -21 59 -2 25 -4 34 -5 20z"/>
<path d="M905 1097 c-4 -10 -5 -21 -1 -24 10 -10 18 4 13 24 -4 17 -4 17 -12
0z"/>
<path d="M632 1070 c0 -19 2 -27 5 -17 2 9 2 25 0 35 -3 9 -5 1 -5 -18z"/>
<path d="M1055 1091 c-6 -11 9 -23 19 -14 9 9 7 23 -3 23 -6 0 -12 -4 -16 -9z"/>
<path d="M705 1080 c-3 -5 -1 -10 4 -10 6 0 11 5 11 10 0 6 -2 10 -4 10 -3 0
-8 -4 -11 -10z"/>
<path d="M790 1079 c0 -5 5 -7 10 -4 6 3 10 8 10 11 0 2 -4 4 -10 4 -5 0 -10
-5 -10 -11z"/>
<path d="M940 1045 c-8 -9 -8 -15 -2 -15 12 0 26 19 19 26 -2 2 -10 -2 -17
-11z"/>
<path d="M670 1025 c0 -8 5 -15 10 -15 6 0 10 7 10 15 0 8 -4 15 -10 15 -5 0
-10 -7 -10 -15z"/>
<path d="M720 1024 c0 -8 5 -12 10 -9 6 4 8 11 5 16 -9 14 -15 11 -15 -7z"/>
<path d="M770 1025 c0 -8 5 -15 10 -15 6 0 10 7 10 15 0 8 -4 15 -10 15 -5 0
-10 -7 -10 -15z"/>
<path d="M867 1033 c-10 -9 -9 -23 2 -23 5 0 11 7 15 15 5 15 -5 20 -17 8z"/>
<path d="M1151 1006 c2 -2 28 -14 57 -25 65 -26 149 -83 176 -121 68 -93 191
-228 256 -281 25 -20 77 -67 115 -103 l70 -67 63 5 c50 5 62 3 62 -9 0 -10
-16 -16 -52 -21 l-51 -7 34 -28 c37 -31 35 -36 -6 -17 -14 6 -28 9 -31 5 -6
-5 24 -57 39 -68 5 -4 4 -9 -1 -13 -14 -9 -38 28 -51 81 -13 46 -55 103 -76
103 -8 0 -28 17 -45 39 -17 21 -53 53 -80 70 -51 33 -263 251 -268 277 -2 7
-8 14 -14 14 -14 0 16 -46 66 -99 91 -99 207 -211 217 -211 9 0 54 -43 97 -93
4 -5 22 -17 39 -27 19 -12 35 -31 39 -47 12 -48 56 -134 67 -130 6 2 15 11 21
20 8 12 5 22 -12 40 -30 32 -28 40 8 22 25 -13 30 -13 30 -2 0 8 -9 22 -21 33
-20 18 -20 18 18 29 28 8 38 16 38 30 0 18 -9 21 -71 25 -77 5 -63 -3 -192
121 -20 19 -52 44 -69 54 -18 11 -33 23 -33 28 0 4 -19 27 -42 50 -24 23 -56
60 -73 82 -100 130 -165 186 -265 225 -49 19 -68 24 -59 16z"/>
<path d="M1010 979 c-52 -44 -109 -70 -154 -72 -62 -2 -76 -27 -53 -98 10 -28
17 -64 17 -80 0 -15 4 -31 10 -34 12 -7 5 38 -17 113 -14 46 -14 55 -2 63 11
6 15 1 17 -26 2 -19 8 -35 13 -35 6 0 8 17 5 40 -4 37 -3 40 19 40 29 0 126
49 143 72 8 10 26 18 43 18 18 0 28 4 24 10 -10 16 -38 11 -65 -11z"/>
<path d="M720 975 c0 -8 5 -15 10 -15 6 0 10 7 10 15 0 8 -4 15 -10 15 -5 0
-10 -7 -10 -15z"/>
<path d="M930 976 c0 -9 5 -16 10 -16 6 0 10 4 10 9 0 6 -4 13 -10 16 -5 3
-10 -1 -10 -9z"/>
<path d="M820 971 c0 -6 5 -13 10 -16 6 -3 10 1 10 9 0 9 -4 16 -10 16 -5 0
-10 -4 -10 -9z"/>
<path d="M1120 969 c0 -5 14 -12 30 -15 17 -4 30 -10 30 -15 0 -5 3 -8 8 -7
13 4 92 -32 92 -42 0 -5 14 -16 30 -25 48 -25 34 -1 -20 34 -59 38 -170 84
-170 70z"/>
<path d="M563 922 c-28 -29 -88 -131 -80 -138 2 -2 19 24 38 59 21 37 45 67
62 75 15 7 27 17 27 23 0 17 -18 9 -47 -19z"/>
<path d="M498 905 c-17 -34 -17 -35 2 -23 11 7 20 23 20 35 0 30 -2 29 -22
-12z"/>
<path d="M610 918 c0 -4 10 -9 23 -9 60 -4 84 -8 110 -18 37 -14 41 -14 25 2
-22 22 -158 44 -158 25z"/>
<path d="M467 853 c-4 -3 -7 -13 -7 -22 1 -13 3 -13 11 2 11 19 8 33 -4 20z"/>
<path d="M430 790 c0 -5 5 -10 10 -10 6 0 10 5 10 10 0 6 -4 10 -10 10 -5 0
-10 -4 -10 -10z"/>
<path d="M844 747 c8 -65 13 -71 42 -52 28 18 31 10 7 -17 -9 -10 -11 -18 -5
-18 14 0 47 48 38 57 -3 3 -18 1 -32 -6 -32 -14 -32 -14 -37 32 -2 20 -7 40
-12 44 -4 5 -5 -14 -1 -40z"/>
<path d="M425 759 c-4 -6 -5 -12 -2 -15 2 -3 7 2 10 11 7 17 1 20 -8 4z"/>
<path d="M461 752 c-17 -31 -13 -40 5 -14 9 13 14 26 11 29 -3 2 -10 -4 -16
-15z"/>
<path d="M394 693 c-10 -21 -28 -51 -40 -68 -11 -16 -21 -46 -22 -65 l-1 -35
12 42 c7 23 19 50 28 60 9 10 20 29 24 43 4 14 12 31 18 38 5 7 8 15 5 17 -3
3 -13 -12 -24 -32z"/>
<path d="M784 709 c-4 -7 7 -22 25 -36 36 -28 40 -43 11 -43 -17 0 -40 -32
-40 -56 0 -9 49 -3 55 6 4 7 -3 8 -22 4 l-28 -7 19 22 c11 11 25 21 32 21 28
0 25 23 -4 47 -19 14 -29 29 -25 38 6 17 -13 20 -23 4z"/>
<path d="M431 684 c-6 -15 -9 -29 -7 -32 3 -2 10 8 16 23 14 36 7 43 -9 9z"/>
<path d="M864 608 c-5 -8 -2 -9 10 -5 10 4 24 -1 36 -13 25 -25 53 -26 48 -3
-2 9 -9 18 -17 21 -8 3 -11 0 -7 -7 11 -16 -10 -13 -24 4 -15 18 -36 19 -46 3z"/>
<path d="M387 603 c-2 -5 -12 -33 -22 -63 -29 -93 -67 -172 -112 -234 -47 -64
-52 -89 -25 -120 10 -12 3 -9 -17 7 -31 26 -35 27 -57 12 -30 -20 -32 -19 -27
8 4 18 -2 25 -32 36 -20 7 -38 11 -40 9 -3 -2 12 -10 31 -17 31 -11 35 -16 30
-37 -7 -27 4 -30 34 -12 16 10 24 10 38 0 57 -41 92 -40 53 2 -27 29 -23 48
24 110 32 43 62 101 92 181 31 84 48 149 30 118z"/>
<path d="M311 490 c-7 -17 -11 -34 -8 -36 8 -8 29 35 25 52 -2 9 -8 3 -17 -16z"/>
<path d="M276 429 c-2 -8 -10 -31 -16 -52 -7 -21 -23 -45 -36 -54 -13 -8 -24
-21 -24 -28 0 -14 -45 -29 -60 -20 -6 4 -10 1 -10 -4 0 -6 13 -11 29 -11 22 0
37 10 64 44 37 45 74 122 63 133 -3 3 -8 0 -10 -8z"/>
<path d="M30 273 c0 -14 2 -15 9 -4 6 10 20 12 47 7 28 -5 35 -4 24 3 -8 6
-30 11 -47 11 -25 0 -33 -4 -33 -17z"/>
</g>
</svg>
