<?xml version="1.0" standalone="no"?>
<!DOCTYPE svg PUBLIC "-//W3C//DTD SVG 20010904//EN"
 "http://www.w3.org/TR/2001/REC-SVG-20010904/DTD/svg10.dtd">
<svg version="1.0" xmlns="http://www.w3.org/2000/svg"
 width="96.000000pt" height="175.000000pt" viewBox="0 0 96.000000 175.000000"
 preserveAspectRatio="xMidYMid meet">
<metadata>
Created by potrace 1.16, written by Peter Selinger 2001-2019
</metadata>
<g transform="translate(0.000000,175.000000) scale(0.100000,-0.100000)"
fill="#000000" stroke="none">
<path d="M84 1613 c3 -27 10 -122 17 -213 6 -93 17 -179 25 -199 8 -18 14 -48
14 -65 0 -17 12 -53 26 -81 27 -53 58 -180 75 -305 11 -83 23 -128 47 -180 11
-25 17 -73 19 -170 2 -80 10 -160 20 -198 l16 -63 76 4 76 4 8 83 c11 106 31
136 96 146 25 4 55 10 67 14 31 12 40 1 53 -68 7 -34 19 -81 27 -104 8 -22 14
-64 14 -93 l0 -52 54 2 c29 1 58 5 64 9 6 3 9 25 7 49 -3 23 -7 87 -11 142 -3
55 -8 103 -11 107 -2 5 -6 40 -9 80 -3 39 -7 76 -11 81 -3 5 -7 28 -9 51 -15
186 -15 186 -40 186 -11 0 -13 6 -9 20 4 12 2 26 -3 33 -6 7 -13 30 -17 52 -4
22 -12 45 -17 52 -5 7 -7 17 -3 22 3 6 1 20 -6 32 -6 12 -12 33 -14 46 -1 14
-8 29 -15 33 -9 6 -9 9 -1 15 8 4 9 11 3 18 -5 7 -13 48 -17 92 -4 44 -11 87
-16 96 -4 9 -13 77 -19 150 -12 151 -23 204 -45 213 -8 3 -49 -12 -91 -34 -82
-43 -97 -43 -165 -9 -23 12 -62 19 -105 20 -38 1 -87 8 -109 15 -63 22 -66 20
-61 -33z m261 -37 c22 -1 57 -5 78 -10 22 -5 42 -4 50 2 6 5 42 12 79 14 l66
6 4 -107 c2 -63 -1 -113 -7 -122 -5 -9 -39 -38 -74 -65 -36 -28 -66 -55 -69
-62 -6 -18 20 -14 48 8 14 11 37 20 52 20 15 0 30 5 33 10 3 6 1 10 -5 10 -6
0 -8 5 -4 12 6 9 9 9 12 0 2 -7 9 -12 17 -12 13 0 28 -29 44 -87 10 -34 16
-28 -80 -78 -10 -5 -19 -17 -19 -26 0 -9 -7 -22 -15 -29 -21 -17 -9 -30 27
-30 59 0 108 -21 114 -49 3 -14 10 -37 14 -51 10 -26 26 -116 35 -186 6 -51
-12 -72 -44 -53 -19 13 -38 90 -56 236 -7 52 -25 84 -25 44 0 -33 -16 -25 -34
17 l-16 37 5 -55 c3 -30 8 -70 11 -87 8 -42 -6 -42 -27 0 -9 18 -25 33 -37 35
-18 3 -23 -4 -34 -58 -13 -65 -26 -60 -27 13 -1 20 -5 37 -11 37 -13 0 -13
-41 1 -134 9 -57 18 -82 39 -108 37 -43 48 -31 15 17 -29 44 -33 71 -6 38 21
-25 50 -30 69 -11 21 21 14 -17 -8 -42 -24 -28 -20 -36 10 -20 32 17 41 55 42
170 l0 105 14 -65 c7 -36 13 -87 14 -114 0 -46 -3 -53 -46 -93 -25 -25 -44
-47 -41 -50 7 -6 59 27 70 44 11 18 27 16 27 -2 0 -8 -16 -25 -35 -37 -19 -13
-35 -29 -35 -35 0 -17 11 -16 38 3 17 12 35 14 75 9 l53 -7 22 -81 c12 -45 22
-98 22 -117 0 -19 4 -51 9 -70 5 -19 11 -72 14 -117 5 -77 4 -83 -14 -83 -15
0 -19 7 -19 33 0 17 -11 77 -25 132 -13 55 -25 115 -25 133 0 38 -11 40 -105
17 -33 -8 -91 -15 -128 -15 -52 0 -69 -4 -74 -16 -3 -8 -1 -59 5 -112 9 -79 9
-99 -2 -111 -20 -19 -56 -5 -57 22 0 12 -2 38 -5 57 -3 19 -7 51 -9 70 -6 48
-24 157 -35 205 -5 22 -5 44 -1 48 5 5 47 9 95 9 47 1 86 5 86 10 0 4 -6 8
-12 8 -17 1 -52 31 -66 56 -6 11 -16 79 -22 150 -13 135 -15 144 -32 144 -8 0
-9 -48 -5 -163 5 -157 5 -164 -15 -176 -13 -8 -24 -9 -30 -3 -12 12 -48 163
-42 174 2 3 0 9 -6 13 -5 3 -10 19 -10 35 0 16 -4 40 -10 54 -8 22 -7 26 10
26 10 0 25 6 32 13 21 21 70 44 112 53 86 19 69 62 -44 109 -36 15 -73 31 -83
37 -24 12 -32 4 -32 -30 0 -39 -40 -43 -57 -7 -10 23 -9 29 16 51 30 28 74 44
121 44 17 0 36 5 43 12 8 8 -1 17 -39 35 -28 12 -57 23 -64 23 -7 0 -15 7 -19
15 -3 8 -16 15 -28 15 -56 1 -72 39 -74 180 -1 75 3 118 10 123 6 4 43 5 81 1
39 -4 88 -7 110 -8z m305 -516 c-8 -5 -19 -10 -25 -10 -5 0 -3 5 5 10 8 5 20
10 25 10 6 0 3 -5 -5 -10z m-300 -50 c0 -12 -28 -25 -36 -17 -9 9 6 27 22 27
8 0 14 -5 14 -10z m-90 -80 c0 -5 -5 -10 -11 -10 -5 0 -7 5 -4 10 3 6 8 10 11
10 2 0 4 -4 4 -10z m300 -141 c0 -59 -11 -79 -34 -60 -18 15 -28 119 -14 145
11 20 11 20 29 -3 14 -17 19 -40 19 -82z"/>
<path d="M243 1492 c-7 -4 -14 -19 -15 -32 -3 -28 40 -55 72 -45 23 7 28 53 8
73 -14 14 -47 16 -65 4z m46 -21 c17 -11 7 -41 -13 -41 -19 0 -29 17 -22 35 6
17 15 18 35 6z"/>
<path d="M470 1450 c-8 -15 -8 -27 2 -48 19 -38 66 -38 88 0 20 37 5 62 -43
66 -28 2 -38 -1 -47 -18z m68 -9 c10 -6 9 -13 -6 -31 -20 -25 -42 -20 -42 9 0
30 21 40 48 22z"/>
<path d="M365 1413 c3 -10 9 -30 12 -46 7 -36 23 -45 23 -13 0 34 -17 76 -31
76 -7 0 -8 -7 -4 -17z"/>
<path d="M420 1390 c0 -26 5 -40 13 -40 9 0 11 12 9 40 -2 22 -8 40 -13 40 -5
0 -9 -18 -9 -40z"/>
<path d="M606 301 c-17 -10 -33 -29 -38 -46 -9 -34 -14 -123 -7 -130 3 -2 24
1 48 7 33 8 48 8 62 0 29 -19 39 -14 39 18 0 64 -21 129 -48 148 -25 18 -29
18 -56 3z m44 -103 c0 -14 -6 -19 -22 -16 -24 3 -34 28 -24 55 6 14 9 14 26
-2 11 -10 20 -27 20 -37z"/>
</g>
</svg>
