<?xml version="1.0" encoding="UTF-8" standalone="no"?>
<svg
   version="1.0"
   width="269.62387pt"
   height="64.873207pt"
   viewBox="0 0 269.62387 64.873207"
   preserveAspectRatio="xMidYMid meet"
   id="svg34"
   sodipodi:docname="simbolo_27.svg"
   inkscape:version="1.1.2 (0a00cf5339, 2022-02-04)"
   xmlns:inkscape="http://www.inkscape.org/namespaces/inkscape"
   xmlns:sodipodi="http://sodipodi.sourceforge.net/DTD/sodipodi-0.dtd"
   xmlns="http://www.w3.org/2000/svg"
   xmlns:svg="http://www.w3.org/2000/svg">
  <defs
     id="defs38" />
  <sodipodi:namedview
     id="namedview36"
     pagecolor="#ffffff"
     bordercolor="#666666"
     borderopacity="1.0"
     inkscape:pageshadow="2"
     inkscape:pageopacity="0.0"
     inkscape:pagecheckerboard="0"
     inkscape:document-units="pt"
     showgrid="false"
     fit-margin-top="0"
     fit-margin-left="0"
     fit-margin-right="0"
     fit-margin-bottom="0"
     inkscape:zoom="1.4372822"
     inkscape:cx="142.97818"
     inkscape:cy="45.224242"
     inkscape:window-width="1366"
     inkscape:window-height="719"
     inkscape:window-x="0"
     inkscape:window-y="25"
     inkscape:window-maximized="1"
     inkscape:current-layer="svg34" />
  <metadata
     id="metadata2">
Created by potrace 1.16, written by Peter Selinger 2001-2019
</metadata>
  <g
     transform="matrix(0,0.1,0.1,0,-10.376114,-3.4717005)"
     fill="#000000"
     stroke="none"
     id="g32">
    <path
       d="m 448,2786 c -8,-8 -26,-11 -46,-8 -43,6 -88,-6 -75,-19 7,-7 17,-8 29,-1 48,25 114,-13 114,-65 0,-22 -4,-23 -77,-23 -43,0 -88,-3 -100,-6 -22,-6 -23,-4 -23,49 0,45 3,56 18,60 16,4 16,4 -1,12 -36,16 -49,-1 -42,-55 9,-64 2,-75 -35,-54 -46,28 -92,-8 -56,-44 14,-14 21,-14 52,-3 19,7 39,10 42,6 4,-4 7,-29 6,-56 0,-49 0,-49 32,-49 38,0 55,17 22,22 -20,3 -23,10 -26,49 -3,46 -3,47 33,53 20,4 61,4 91,0 41,-5 54,-10 54,-23 0,-44 -60,-72 -99,-45 -28,20 -44,8 -16,-12 12,-9 44,-14 85,-14 36,0 78,-1 93,-1 41,-2 66,28 73,87 6,47 4,53 -26,88 -31,35 -77,66 -99,66 -5,0 -16,-6 -23,-14 z m 88,-43 c 40,-44 40,-67 1,-71 -24,-3 -30,2 -49,45 -12,26 -24,51 -26,56 -2,4 6,7 18,7 12,0 36,-17 56,-37 z m 42,-110 c 2,-14 -7,-28 -26,-42 -33,-23 -73,-28 -71,-8 3,42 17,62 44,68 41,9 50,6 53,-18 z"
       id="path4" />
    <path
       d="m 365,2373 c -40,-4 -41,-5 -42,-45 -1,-23 -6,-45 -12,-51 -18,-18 -40,1 -43,39 -3,32 -7,39 -33,46 -17,4 -34,3 -39,-2 -7,-7 -1,-10 16,-10 28,0 35,-10 34,-50 -1,-23 -5,-24 -48,-24 -26,1 -54,4 -64,8 -37,14 -57,-32 -30,-70 14,-19 15,-19 40,5 24,22 103,46 110,32 1,-3 1,-25 -2,-48 -4,-40 -6,-43 -33,-43 -16,0 -29,-4 -29,-10 0,-11 24,-13 56,-4 16,4 23,18 30,57 7,42 13,52 29,52 14,0 21,-9 26,-33 8,-37 17,-49 39,-52 34,-5 70,1 70,11 0,5 -5,7 -11,4 -17,-11 -67,15 -73,38 -9,33 -7,37 11,37 15,0 15,1 -1,13 -12,9 -17,23 -14,47 3,32 6,35 41,38 20,2 37,7 37,13 0,5 -6,8 -12,7 -7,-1 -31,-3 -53,-5 z"
       id="path6" />
    <path
       d="m 427,2295 c -4,-8 -14,-15 -24,-15 -16,-1 -16,-2 2,-12 11,-6 24,-17 28,-25 15,-25 28,-13 25,24 -3,38 -21,55 -31,28 z"
       id="path8" />
    <path
       d="m 425,2089 c -11,-4 -32,-10 -48,-14 -26,-5 -27,-8 -25,-58 l 3,-52 -57,-3 -58,-3 v 30 c 0,16 -7,37 -16,45 -17,18 -99,23 -89,6 3,-5 22,-10 41,-10 32,0 34,-2 34,-34 0,-37 -5,-41 -73,-51 -28,-4 -47,-3 -51,4 -12,19 -43,12 -50,-11 -4,-17 1,-29 20,-45 27,-25 44,-29 44,-12 0,25 49,55 90,54 19,0 25,-7 31,-32 7,-34 -4,-53 -32,-53 -9,0 -22,-7 -29,-15 -18,-21 9,-20 56,2 34,17 36,20 31,59 l -4,42 65,6 c 77,8 86,2 87,-56 1,-34 5,-43 18,-42 9,0 33,1 52,2 49,3 44,22 -5,22 -37,0 -40,2 -41,30 -1,17 -2,36 -3,42 -2,20 34,21 54,3 18,-16 20,-16 40,3 l 21,20 -26,6 c -15,4 -47,4 -71,0 -47,-7 -48,-6 -58,53 -5,30 -4,32 34,38 39,7 58,19 43,28 -5,3 -17,1 -28,-4 z"
       id="path10" />
    <path
       d="m 433,1680 c 2,-33 7,-63 10,-67 4,-3 7,-18 7,-32 0,-34 10,-48 43,-60 40,-15 45,-14 45,14 0,21 -5,25 -29,25 -24,0 -29,4 -29,25 0,14 3,25 8,25 31,0 127,22 138,31 23,19 17,48 -11,55 -16,4 -34,-1 -54,-15 -16,-12 -40,-21 -54,-21 -14,0 -27,-6 -30,-12 -7,-19 -14,-7 -22,35 -7,36 -7,37 24,37 17,0 31,5 31,10 0,6 -18,10 -41,10 h -41 z m 177,-10 c 0,-5 -4,-10 -10,-10 -5,0 -10,5 -10,10 0,6 5,10 10,10 6,0 10,-4 10,-10 z"
       id="path12" />
    <path
       d="m 167,1721 c -17,-6 -16,-8 7,-19 37,-17 37,-69 0,-78 -14,-4 -36,-2 -49,4 -22,10 -45,0 -45,-20 0,-15 41,-30 53,-19 15,12 61,18 65,9 1,-5 2,-19 2,-33 0,-19 -7,-26 -32,-33 -17,-4 -34,-14 -36,-22 -3,-9 0,-11 14,-5 11,4 33,10 49,14 17,4 31,13 31,21 1,8 2,27 3,43 1,24 5,27 39,28 61,1 83,15 23,16 -59,0 -71,10 -71,59 0,20 -6,34 -16,38 -9,3 -16,6 -17,5 -1,0 -10,-4 -20,-8 z"
       id="path14" />
    <path
       d="m 375,1620 c -3,-5 3,-10 15,-10 12,0 18,5 15,10 -3,6 -10,10 -15,10 -5,0 -12,-4 -15,-10 z"
       id="path16" />
    <path
       d="m 427,1433 -28,-4 6,-64 7,-63 -58,-6 c -33,-4 -76,-9 -96,-11 l -38,-5 v 37 c 0,74 -7,83 -59,81 -36,-1 -39,-2 -14,-5 37,-5 56,-30 51,-71 -3,-27 -4,-27 -70,-24 l -68,2 v -39 c 0,-22 4,-42 9,-45 4,-3 25,4 47,14 59,31 82,27 90,-15 9,-47 0,-65 -32,-65 -15,0 -25,-3 -21,-6 3,-3 24,-3 47,1 45,8 45,5 25,86 -8,31 -1,33 117,45 76,7 75,8 81,-70 3,-26 11,-52 18,-57 19,-12 76,-11 84,1 4,6 -8,10 -30,10 -29,0 -37,5 -45,26 -6,14 -10,38 -10,53 0,25 5,29 51,39 28,7 64,12 80,12 16,0 29,4 29,9 0,12 27,21 44,15 8,-3 18,-19 21,-35 9,-39 23,-37 17,2 -3,17 -15,37 -29,46 -22,15 -26,15 -53,-6 -23,-16 -43,-21 -94,-21 -36,0 -67,3 -69,8 -3,4 -8,26 -12,50 -7,41 -6,43 24,53 17,6 31,15 31,20 0,9 -3,9 -53,2 z"
       id="path18" />
    <path
       d="m 417,986 c 3,-18 1,-42 -5,-53 -7,-13 -7,-34 0,-66 10,-47 10,-47 51,-47 31,0 38,3 27,10 -8,5 -25,10 -37,10 -20,0 -23,5 -23,35 0,24 5,35 15,35 8,0 15,5 15,10 0,6 -4,10 -9,10 -5,0 -11,16 -13,35 -3,29 -1,35 14,35 10,0 18,5 18,10 0,6 -13,10 -29,10 -28,0 -29,-2 -24,-34 z"
       id="path20" />
    <path
       d="m 233,1003 38,-4 -3,-47 c -3,-47 -3,-47 -42,-50 -23,-2 -42,2 -46,9 -4,6 -13,8 -19,5 -13,-8 -14,-45 -2,-64 6,-11 9,-9 14,6 3,14 16,23 40,27 47,9 57,1 57,-45 0,-30 -4,-40 -21,-45 -26,-8 -10,-29 17,-23 16,3 19,13 19,57 0,52 1,54 35,68 l 35,13 -32,-5 -32,-4 -3,52 -3,52 -45,1 c -40,1 -40,1 -7,-3 z"
       id="path22" />
    <path
       d="m 541,936 c -9,-11 -6,-15 14,-18 27,-6 41,5 30,22 -9,14 -31,12 -44,-4 z"
       id="path24" />
    <path
       d="m 498,923 c 7,-3 16,-2 19,1 4,3 -2,6 -13,5 -11,0 -14,-3 -6,-6 z"
       id="path26" />
    <path
       d="m 405,690 c -4,-6 -5,-27 -3,-48 l 3,-37 -62,-3 c -58,-3 -63,-1 -63,18 0,11 1,22 3,23 8,12 -27,34 -48,29 -30,-5 -33,-22 -5,-22 11,0 20,-4 20,-9 0,-5 3,-17 6,-26 6,-15 0,-17 -47,-14 -63,4 -79,-3 -79,-36 0,-31 35,-52 56,-34 8,6 14,18 14,25 0,9 11,14 30,14 24,0 33,-6 40,-26 14,-37 13,-41 -15,-48 -38,-10 -31,-29 8,-21 45,10 52,19 37,54 -20,50 -9,61 60,61 40,0 60,-4 60,-12 0,-7 7,-32 16,-55 17,-43 17,-43 63,-41 41,1 42,2 10,5 -29,3 -37,9 -47,37 -18,50 -15,74 11,79 l 22,4 -22,2 c -25,1 -48,35 -39,57 3,8 16,19 28,24 20,8 19,9 -14,9 -20,1 -40,-4 -43,-9 z"
       id="path28" />
    <path
       d="m 170,362 c 0,-5 8,-12 19,-15 12,-3 20,-17 25,-46 3,-23 4,-46 1,-50 -6,-11 -80,-20 -105,-14 -11,3 -20,14 -20,25 0,27 -23,17 -34,-15 -12,-32 3,-82 24,-82 8,0 17,11 20,25 5,23 11,25 60,25 48,0 55,-3 58,-21 2,-12 -9,-35 -24,-53 -32,-39 -27,-48 15,-24 30,18 59,73 47,92 -12,19 22,29 109,32 l 89,4 3,-49 c 2,-28 6,-52 8,-54 11,-11 105,-14 105,-3 0,6 -18,11 -45,11 h -45 v 44 c 0,25 4,47 8,50 5,3 48,6 95,7 76,1 87,4 87,19 0,10 -9,28 -21,41 l -20,24 5,-27 c 5,-23 3,-28 -13,-28 -11,0 -23,5 -27,11 -5,8 -10,6 -16,-5 -6,-11 -23,-16 -53,-16 -42,0 -45,2 -53,33 -9,34 0,49 25,40 7,-3 13,0 13,6 0,6 -11,11 -25,11 -25,0 -31,-10 -37,-70 -3,-20 -10,-26 -43,-32 -22,-4 -66,-7 -97,-7 -64,-1 -72,8 -66,77 3,36 2,37 -34,40 -21,2 -38,-1 -38,-6 z"
       id="path30" />
  </g>
</svg>
