<?xml version="1.0" standalone="no"?>
<!DOCTYPE svg PUBLIC "-//W3C//DTD SVG 20010904//EN"
 "http://www.w3.org/TR/2001/REC-SVG-20010904/DTD/svg10.dtd">
<svg version="1.0" xmlns="http://www.w3.org/2000/svg"
 width="276.000000pt" height="203.000000pt" viewBox="0 0 276.000000 203.000000"
 preserveAspectRatio="xMidYMid meet">
<metadata>
Created by potrace 1.16, written by Peter Selinger 2001-2019
</metadata>
<g transform="translate(0.000000,203.000000) scale(0.100000,-0.100000)"
fill="#000000" stroke="none">
<path d="M1560 1940 c-28 -16 -175 -50 -245 -58 -38 -4 -150 -6 -249 -4 l-179
3 6 -38 c3 -21 11 -81 17 -133 19 -146 53 -253 106 -333 39 -58 131 -147 153
-147 3 0 19 -11 34 -25 20 -19 25 -30 18 -43 -4 -9 -12 -39 -15 -67 -4 -27
-23 -89 -42 -137 -57 -144 -61 -210 -15 -269 10 -13 33 -52 51 -87 18 -35 49
-82 69 -105 20 -23 58 -76 85 -117 27 -41 65 -91 84 -112 l34 -36 -28 -18
c-16 -9 -71 -45 -121 -78 -86 -56 -108 -76 -83 -76 20 0 192 92 224 120 l33
29 54 -35 c30 -19 65 -37 79 -41 14 -3 35 -12 48 -19 19 -13 22 -12 22 0 0 8
-25 30 -56 48 -30 18 -69 44 -85 57 l-30 23 58 66 c147 167 288 343 310 387
11 22 26 64 34 93 12 48 11 56 -5 87 -11 19 -77 89 -148 156 -70 66 -133 130
-139 141 -9 17 -6 25 25 50 20 17 51 60 72 101 20 40 44 81 55 93 10 11 19 24
19 29 0 9 58 169 73 203 18 38 13 171 -8 232 -11 30 -21 57 -23 60 -6 8 -277
9 -292 0z m285 -53 c9 -22 13 -69 12 -147 -2 -102 -5 -122 -30 -175 -15 -33
-34 -66 -41 -75 -8 -8 -17 -26 -21 -40 -14 -48 -98 -181 -137 -215 -34 -32
-37 -38 -27 -58 7 -12 72 -83 144 -157 73 -74 137 -145 144 -157 18 -36 13
-101 -14 -156 -24 -51 -106 -151 -174 -212 -18 -16 -46 -49 -63 -73 -46 -67
-134 -152 -157 -152 -21 0 -66 54 -136 166 -21 32 -45 66 -54 75 -17 16 -42
55 -114 176 -54 89 -49 139 29 310 8 17 14 36 14 43 0 6 10 40 22 75 26 74 24
79 -58 131 -56 36 -114 90 -114 106 0 5 -13 23 -29 38 -16 16 -32 42 -36 57
-3 15 -15 45 -25 68 -23 52 -37 128 -44 245 l-6 95 222 1 c230 1 350 16 394
49 14 11 52 14 152 14 l134 -1 13 -31z"/>
<path d="M1480 1771 c-41 -4 -109 -17 -150 -29 -41 -11 -117 -24 -169 -28 -72
-5 -98 -11 -113 -26 -23 -23 -15 -40 59 -122 29 -33 53 -67 53 -77 0 -28 21
-68 39 -74 9 -3 25 -18 36 -35 12 -16 39 -43 60 -60 39 -31 42 -32 131 -28 81
3 95 6 132 32 25 17 54 51 73 85 17 31 37 63 44 71 8 8 21 35 30 60 74 202 22
255 -225 231z m153 -33 c10 0 15 -4 11 -10 -10 -15 18 -59 34 -53 9 3 12 -1 9
-13 -3 -9 -8 -34 -12 -54 -3 -21 -10 -38 -15 -38 -6 0 -10 -9 -10 -20 0 -11
-5 -20 -11 -20 -7 0 -9 -10 -4 -27 6 -24 4 -25 -10 -13 -13 11 -19 11 -32 -3
-15 -15 -15 -17 0 -23 21 -8 22 -37 2 -54 -10 -9 -15 -9 -15 -1 0 6 4 11 10
11 5 0 7 7 3 15 -9 26 -41 -9 -36 -39 5 -23 3 -24 -39 -19 -34 4 -49 1 -63
-13 -11 -11 -14 -19 -6 -22 16 -5 14 -22 -4 -22 -8 0 -15 5 -15 11 0 6 -9 8
-22 3 -20 -6 -21 -5 -10 9 11 13 10 16 -10 22 -47 13 -86 39 -103 68 -17 28
-19 29 -31 12 -13 -18 -14 -18 -14 1 0 12 3 24 7 28 4 4 8 17 8 29 0 26 -17
49 -26 35 -3 -5 -12 -2 -19 7 -8 10 -9 15 -1 15 6 0 11 6 11 14 0 9 -7 12 -20
9 -13 -3 -20 0 -20 8 0 28 -19 42 -59 44 -47 3 -62 12 -41 25 11 7 16 5 18 -5
5 -22 29 -18 35 6 5 17 8 18 25 8 14 -9 27 -9 51 -1 41 14 89 5 102 -20 11
-20 20 -64 23 -105 1 -17 11 -24 46 -34 25 -7 47 -14 49 -15 2 -2 -8 -13 -22
-25 -32 -24 -34 -40 -8 -63 14 -13 28 -15 61 -10 53 9 60 27 24 65 -15 16 -24
29 -18 29 19 1 61 48 67 76 3 16 4 23 1 17 -12 -28 -19 -10 -20 51 -1 63 0 65
29 77 17 7 25 15 18 17 -11 4 -10 6 0 13 8 5 23 6 34 2 11 -4 28 -6 38 -5z
m-208 -6 c11 -8 35 -112 35 -153 0 -30 -37 -52 -63 -38 -20 12 -37 69 -37 126
0 56 33 88 65 65z m275 -12 c0 -5 -4 -10 -10 -10 -5 0 -10 5 -10 10 0 6 5 10
10 10 6 0 10 -4 10 -10z"/>
<path d="M1602 1694 c10 -10 20 -15 24 -12 3 4 -5 12 -18 18 -22 12 -22 12 -6
-6z"/>
<path d="M1554 1645 c-3 -14 -4 -29 -1 -32 3 -3 18 -2 32 1 34 9 32 49 -2 54
-17 3 -24 -3 -29 -23z"/>
<path d="M1226 1644 c-3 -9 -6 -20 -6 -24 0 -15 40 -31 60 -25 29 9 24 38 -7
53 -35 16 -40 15 -47 -4z"/>
<path d="M1420 1224 c0 -3 8 -16 19 -29 l18 -24 -1 29 c-1 21 -6 30 -18 30
-10 0 -18 -3 -18 -6z"/>
<path d="M1472 1199 c2 -7 10 -15 17 -17 8 -3 12 1 9 9 -2 7 -10 15 -17 17 -8
3 -12 -1 -9 -9z"/>
<path d="M1316 1156 c-4 -18 -10 -75 -15 -126 -8 -85 -11 -96 -51 -153 l-42
-62 12 -50 c15 -59 30 -91 60 -125 12 -14 33 -41 45 -60 13 -19 49 -64 82 -99
l58 -63 55 42 c30 24 69 57 86 74 17 17 63 60 102 95 57 51 76 74 92 119 13
35 19 66 15 83 -4 16 -51 78 -107 141 -55 62 -109 130 -119 151 -11 20 -24 37
-30 37 -18 0 50 -105 107 -165 102 -107 134 -151 134 -182 0 -41 -33 -117 -58
-134 -11 -8 -65 -57 -121 -108 -56 -52 -113 -103 -128 -113 -26 -16 -28 -16
-46 0 -10 9 -46 54 -80 99 -34 46 -65 83 -69 83 -13 0 -57 96 -64 138 -5 34
-1 46 30 92 40 59 40 56 56 194 7 54 14 105 17 113 3 7 1 13 -5 13 -5 0 -13
-15 -16 -34z"/>
<path d="M1407 1153 c-7 -11 -22 -112 -32 -212 -2 -20 -12 -60 -23 -88 -11
-29 -16 -53 -12 -53 17 0 48 108 55 190 3 47 11 100 16 118 11 35 8 65 -4 45z"/>
<path d="M1450 1115 c0 -8 5 -15 10 -15 6 0 10 7 10 15 0 8 -4 15 -10 15 -5 0
-10 -7 -10 -15z"/>
<path d="M1504 1115 c6 -16 41 -66 121 -171 28 -37 56 -77 63 -91 23 -41 7
-88 -51 -152 -29 -31 -73 -81 -99 -110 -31 -35 -52 -51 -62 -48 -8 3 -28 25
-43 49 -27 42 -80 103 -72 83 14 -36 104 -155 116 -155 16 0 48 31 148 144 67
76 73 85 85 127 12 41 3 60 -72 159 -35 47 -77 106 -93 132 -29 45 -54 65 -41
33z"/>
<path d="M2560 1746 c-19 -43 -22 -45 -53 -39 -17 3 -47 17 -65 30 -18 14 -36
22 -39 19 -10 -10 26 -79 49 -94 11 -8 26 -29 34 -47 11 -27 11 -39 -1 -80 -8
-26 -18 -90 -21 -142 l-7 -95 -46 -34 c-38 -29 -53 -34 -86 -31 -67 6 -476
-12 -537 -24 -34 -7 -58 -17 -58 -24 0 -14 27 -28 39 -20 5 2 145 6 313 9 360
4 352 2 391 98 28 67 47 131 72 243 16 73 36 100 126 167 36 27 55 63 39 73
-16 10 -75 -22 -89 -48 -19 -35 -46 -46 -36 -15 27 85 8 126 -25 54z"/>
<path d="M180 1666 c0 -2 11 -23 24 -47 14 -24 34 -70 46 -103 19 -48 20 -60
9 -67 -8 -5 -19 -9 -26 -9 -14 0 -68 44 -107 88 -16 18 -38 38 -50 44 -34 17
102 -123 141 -146 9 -5 25 -4 39 2 21 10 28 6 74 -46 27 -31 56 -70 63 -86 42
-103 61 -129 121 -160 55 -28 68 -31 155 -31 169 1 406 14 409 23 5 15 -46 20
-137 14 -199 -13 -386 -2 -435 26 -19 11 -44 47 -75 107 -25 49 -63 107 -84
128 l-37 37 24 10 c14 5 29 17 34 27 14 28 24 133 12 133 -5 0 -10 -20 -10
-45 0 -56 -17 -94 -46 -101 -31 -8 -40 0 -55 44 -19 60 -70 162 -80 162 -5 0
-9 -2 -9 -4z"/>
</g>
</svg>
