<?xml version="1.0" standalone="no"?>
<!DOCTYPE svg PUBLIC "-//W3C//DTD SVG 20010904//EN"
 "http://www.w3.org/TR/2001/REC-SVG-20010904/DTD/svg10.dtd">
<svg version="1.0" xmlns="http://www.w3.org/2000/svg"
 width="141.000000pt" height="207.000000pt" viewBox="0 0 141.000000 207.000000"
 preserveAspectRatio="xMidYMid meet">
<metadata>
Created by potrace 1.16, written by Peter Selinger 2001-2019
</metadata>
<g transform="translate(0.000000,207.000000) scale(0.100000,-0.100000)"
fill="#000000" stroke="none">
<path d="M1166 1972 c-7 -21 6 -105 29 -187 22 -77 39 -191 31 -211 -7 -17
-52 -15 -49 2 2 10 -12 116 -22 173 -2 13 -11 31 -19 40 -9 10 -19 32 -22 49
-4 22 -12 32 -24 32 -25 0 -33 -42 -16 -87 20 -55 39 -146 34 -169 -5 -30 -43
-25 -44 6 0 14 -4 36 -9 50 -4 14 -9 32 -10 40 -1 8 -4 22 -7 30 -4 8 -12 43
-19 78 -13 61 -26 75 -47 49 -12 -13 -1 -121 16 -168 10 -26 9 -136 -1 -145
-3 -4 -13 -4 -22 -1 -13 5 -15 31 -15 162 l0 157 -32 -7 c-37 -8 -51 -23 -42
-45 26 -61 33 -220 10 -220 -9 0 -15 22 -19 83 -6 90 -9 103 -30 162 -17 48
-43 54 -41 10 1 -16 7 -59 13 -95 13 -81 14 -167 2 -175 -18 -10 -29 29 -34
118 -4 89 -21 128 -46 113 -14 -9 -14 -105 0 -162 12 -48 0 -78 -30 -72 -11 2
-16 18 -18 58 -1 30 -4 71 -7 90 -3 19 -5 41 -5 48 -1 8 -10 12 -23 10 -22 -3
-23 -8 -23 -78 1 -41 3 -91 5 -110 4 -26 1 -35 -9 -35 -10 0 -19 22 -28 69 -7
39 -12 79 -12 90 2 33 -10 159 -16 164 -2 2 -12 2 -21 -2 -13 -5 -15 -19 -13
-83 3 -53 0 -78 -8 -80 -8 -3 -13 13 -15 49 -2 39 -7 53 -18 53 -24 0 -34 -78
-15 -114 20 -40 21 -141 0 -141 -17 0 -17 2 -15 81 1 32 -6 73 -14 94 -9 21
-16 57 -16 80 l0 43 -52 -2 -53 -2 0 -137 c0 -95 -4 -140 -13 -149 -7 -7 -55
-14 -125 -18 l-112 -5 -3 -38 c-3 -29 1 -39 15 -44 10 -3 27 -14 38 -24 11
-11 35 -31 53 -45 43 -35 97 -119 134 -211 32 -81 33 -136 4 -194 -8 -16 -13
-35 -11 -42 2 -7 6 -25 10 -41 l6 -29 67 7 c247 25 275 21 293 -48 17 -61 15
-117 -5 -132 -10 -6 -46 -18 -82 -25 -55 -11 -71 -19 -100 -51 -21 -24 -34
-48 -34 -66 0 -17 -8 -32 -20 -40 -18 -11 -25 -10 -50 8 -17 12 -30 19 -30 15
0 -3 -9 -1 -21 5 -16 9 -28 8 -55 -5 -41 -19 -54 -41 -54 -93 0 -42 13 -60 98
-133 l42 -36 0 -87 c0 -74 3 -87 17 -92 10 -4 32 -12 50 -20 54 -24 71 -19 84
26 l12 40 79 0 c45 0 100 -7 128 -16 27 -9 57 -14 67 -12 25 5 28 57 7 121
-11 31 -18 88 -20 142 -2 88 -2 90 -27 93 -33 4 -55 28 -39 44 16 16 82 38
114 38 32 0 73 -45 83 -92 10 -45 21 -56 66 -68 57 -16 87 -4 119 47 26 41 27
46 13 73 -20 41 -55 66 -116 84 -78 23 -103 51 -118 135 -8 47 -9 81 -3 103
l10 33 104 7 c64 5 138 3 190 -4 56 -7 99 -8 125 -2 l40 10 7 64 c17 154 18
235 2 310 -9 41 -20 93 -24 115 -4 22 -12 58 -18 80 -18 65 -33 151 -37 207
-3 29 -16 85 -30 123 -14 38 -25 85 -25 103 0 63 -50 121 -64 74z m-756 -262
c1 -8 2 -41 1 -72 -2 -91 -21 -69 -21 24 0 50 4 78 9 73 5 -6 10 -17 11 -25z
m150 -122 c0 -29 -19 -40 -21 -13 -2 20 -2 53 0 63 3 17 21 -25 21 -50z m68
-158 c18 -5 49 -26 68 -46 31 -35 34 -43 34 -101 0 -75 -20 -114 -76 -148 -27
-16 -44 -20 -58 -15 -12 5 -33 11 -47 14 -38 8 -105 60 -123 97 -32 64 -14
123 54 174 48 37 86 43 148 25z m409 -55 c54 -22 83 -69 83 -133 0 -28 -5 -63
-12 -77 -13 -29 -104 -89 -119 -79 -6 3 -29 6 -52 6 -29 -1 -49 6 -70 24 -15
13 -32 24 -36 24 -27 0 -41 113 -21 165 29 76 133 108 227 70z"/>
<path d="M553 1328 c-23 -11 -27 -22 -23 -68 4 -56 78 -83 121 -44 29 26 25
78 -7 103 -29 23 -57 26 -91 9z"/>
<path d="M919 1311 c-45 -37 -14 -129 41 -116 31 7 60 40 60 70 0 44 -65 75
-101 46z"/>
</g>
</svg>
