<?xml version="1.0" standalone="no"?>
<!DOCTYPE svg PUBLIC "-//W3C//DTD SVG 20010904//EN"
 "http://www.w3.org/TR/2001/REC-SVG-20010904/DTD/svg10.dtd">
<svg version="1.0" xmlns="http://www.w3.org/2000/svg"
 width="83.000000pt" height="106.000000pt" viewBox="0 0 83.000000 106.000000"
 preserveAspectRatio="xMidYMid meet">
<metadata>
Created by potrace 1.16, written by Peter Selinger 2001-2019
</metadata>
<g transform="translate(0.000000,106.000000) scale(0.100000,-0.100000)"
fill="#000000" stroke="none">
<path d="M628 999 c-3 -8 -1 -29 3 -47 7 -32 7 -33 -26 -30 -41 4 -46 -14 -7
-24 32 -9 54 -56 56 -123 l1 -38 -104 -29 c-57 -16 -110 -27 -118 -24 -18 7
-17 70 2 86 21 17 19 44 -5 65 -17 15 -24 16 -45 7 -30 -14 -32 -45 -5 -72 26
-26 27 -85 3 -99 -20 -10 -155 -33 -161 -27 -2 2 -10 30 -17 63 l-14 58 28 25
c15 14 31 33 34 43 10 28 -16 20 -46 -15 -19 -21 -26 -26 -21 -13 4 11 9 35
12 54 7 49 -15 31 -29 -25 -13 -49 -21 -53 -46 -24 -18 21 -43 27 -43 10 0
-12 22 -35 67 -70 25 -19 34 -36 40 -75 8 -48 10 -50 43 -53 19 -2 66 1 103 8
38 7 70 10 73 7 3 -2 9 -42 14 -88 5 -46 12 -108 16 -136 l7 -53 -36 0 c-53 0
-117 -28 -128 -57 -5 -13 -9 -43 -9 -66 -1 -23 -7 -58 -14 -77 -29 -76 -29
-76 -3 -46 23 27 25 27 31 9 4 -11 4 -28 0 -37 -3 -9 -1 -16 5 -16 6 0 11 11
11 24 0 41 10 58 26 45 8 -6 22 -8 31 -4 16 6 14 8 -9 21 -37 19 -48 43 -48
103 0 50 0 50 38 60 20 5 51 11 67 13 28 3 30 1 27 -30 -4 -35 11 -62 34 -62
16 0 19 46 4 55 -5 3 -10 16 -10 29 0 19 8 24 51 34 28 7 57 12 65 12 22 0 19
-107 -5 -153 -19 -37 -14 -50 9 -22 18 22 30 18 30 -10 0 -14 5 -25 11 -25 8
0 10 12 6 35 -7 45 6 52 32 19 30 -38 39 -21 10 18 -36 48 -48 78 -51 123 l-3
40 -40 -3 c-22 -2 -55 -7 -74 -12 -19 -5 -36 -8 -38 -7 -11 11 -33 269 -24
278 3 4 47 17 96 29 50 13 103 30 118 37 l28 14 -6 77 c-6 68 -5 81 14 114 13
22 18 39 12 42 -6 4 -15 -3 -21 -14 -13 -25 -30 -17 -30 13 0 30 -16 55 -22
36z"/>
<path d="M727 793 c-3 -15 -5 -41 -6 -58 -1 -16 -5 -33 -10 -38 -5 -5 -52 -21
-106 -37 -128 -37 -131 -41 -115 -123 l12 -64 36 2 c21 1 74 6 120 10 l83 7
-3 -111 c-2 -84 0 -111 10 -111 8 0 12 16 13 48 0 26 4 68 8 94 9 55 -13 126
-33 109 -7 -6 -49 -12 -94 -14 -104 -5 -124 6 -120 66 2 23 8 42 13 43 6 0 23
6 38 12 16 7 33 12 38 12 5 0 9 5 9 12 0 9 3 9 11 1 8 -8 24 -4 59 14 46 24
48 26 54 80 7 58 -8 99 -17 46z"/>
<path d="M76 689 c-4 -9 -6 -41 -4 -70 l3 -54 105 -5 105 -5 3 -82 c3 -92 1
-95 -76 -108 -28 -4 -46 -14 -54 -28 -15 -28 -14 -157 1 -186 16 -28 26 -19
27 22 0 18 1 59 2 92 l2 61 48 12 c79 22 77 19 80 123 1 52 -2 101 -7 109 -8
11 -34 15 -108 16 l-98 1 -11 59 c-7 39 -13 54 -18 43z"/>
</g>
</svg>
