<?xml version="1.0" standalone="no"?>
<!DOCTYPE svg PUBLIC "-//W3C//DTD SVG 20010904//EN"
 "http://www.w3.org/TR/2001/REC-SVG-20010904/DTD/svg10.dtd">
<svg version="1.0" xmlns="http://www.w3.org/2000/svg"
 width="358.000000pt" height="117.000000pt" viewBox="0 0 358.000000 117.000000"
 preserveAspectRatio="xMidYMid meet">
<metadata>
Created by potrace 1.16, written by Peter Selinger 2001-2019
</metadata>
<g transform="translate(0.000000,117.000000) scale(0.100000,-0.100000)"
fill="#000000" stroke="none">
<path d="M1540 1085 c-8 -2 -75 -9 -147 -15 -73 -7 -133 -16 -133 -20 0 -4 16
-28 35 -53 l35 -45 -60 30 c-38 20 -80 33 -116 36 -65 5 -65 13 -9 -115 l34
-78 82 -3 c45 -2 86 1 91 6 5 5 -8 30 -29 57 l-37 49 37 -28 c21 -16 42 -37
48 -48 16 -29 71 -24 96 10 11 15 52 62 92 106 58 64 84 104 69 106 -32 5 -76
7 -88 5z m-20 -75 c0 -17 -86 -100 -104 -100 -16 0 -76 27 -76 34 0 2 18 -2
40 -8 49 -13 75 0 75 35 0 21 -5 24 -37 27 -24 2 -38 -1 -38 -8 0 -7 8 -9 20
-5 11 4 20 2 20 -4 0 -18 -36 -12 -54 8 -17 19 -17 20 11 24 57 8 143 7 143
-3z m-241 -70 c2 0 -2 -7 -9 -15 -7 -8 -10 -22 -6 -30 4 -11 -1 -15 -19 -15
-17 0 -25 6 -25 18 0 9 -3 27 -6 39 -6 21 -4 22 27 13 19 -6 36 -10 38 -10z"/>
<path d="M1850 1017 c0 -8 22 -29 48 -45 46 -28 85 -70 125 -135 16 -24 22
-27 53 -21 28 5 33 4 28 -9 -3 -9 1 -17 13 -21 43 -13 217 -45 223 -41 4 3 10
35 14 72 4 37 9 84 12 104 5 32 3 37 -17 42 -18 5 -31 -1 -55 -24 -38 -37
-120 -69 -178 -69 -42 0 -82 21 -113 60 -20 24 -15 30 25 29 32 0 34 -1 15 -9
-30 -12 -29 -24 3 -49 50 -39 138 -23 202 37 57 53 49 57 -120 71 -84 6 -181
15 -215 18 -53 5 -63 3 -63 -10z m305 -76 c10 -17 -34 -23 -51 -7 -14 15 -13
16 15 16 16 0 32 -4 36 -9z m155 -83 c0 -9 -17 -14 -48 -15 l-47 -1 40 13 c53
17 55 17 55 3z m-103 -24 c-3 -3 -12 -4 -19 -1 -8 3 -5 6 6 6 11 1 17 -2 13
-5z m-54 -11 c-7 -2 -19 -2 -25 0 -7 3 -2 5 12 5 14 0 19 -2 13 -5z m150 -13
c-4 -15 -14 -20 -37 -20 l-31 1 35 18 c19 11 36 19 37 20 0 1 -1 -8 -4 -19z"/>
<path d="M840 984 c-125 -37 -360 -158 -341 -177 7 -7 26 -3 60 12 29 12 71
21 100 21 63 0 152 -33 197 -72 l34 -30 50 17 c35 12 62 30 94 66 48 54 66 56
66 8 0 -20 -5 -29 -16 -29 -13 0 -15 6 -9 28 6 26 5 26 -34 -13 -53 -51 -54
-70 -3 -61 73 14 113 27 118 40 8 21 -69 211 -85 211 -8 0 -19 -22 -27 -53
-18 -70 -56 -119 -105 -133 -35 -11 -45 -9 -104 17 -35 16 -65 32 -65 36 0 8
123 48 147 48 8 0 13 -7 11 -17 -2 -13 -13 -18 -40 -18 -47 0 -65 -16 -43 -39
18 -18 76 -21 105 -6 32 17 60 74 60 124 l0 46 -42 -1 c-24 0 -81 -11 -128
-25z"/>
<path d="M1632 984 c-29 -14 -68 -44 -87 -67 -38 -44 -47 -82 -17 -73 9 2 59
8 110 11 99 8 113 16 93 54 -18 33 -50 46 -69 27 -14 -14 -13 -16 8 -24 16 -6
20 -11 11 -16 -19 -12 -41 1 -41 24 0 31 52 49 120 42 44 -4 50 -7 32 -13 -20
-8 -23 -15 -20 -51 l3 -43 85 -5 c100 -7 110 -5 110 22 0 32 -69 93 -133 116
-78 30 -140 28 -205 -4z m223 -50 c39 -26 40 -44 0 -44 -36 0 -49 16 -18 22
15 3 15 4 -1 21 -22 21 -13 22 19 1z"/>
<path d="M2402 913 c-23 -66 -43 -154 -37 -163 6 -9 126 -50 147 -50 12 0 0
66 -19 103 -16 32 -53 38 -53 7 0 -10 8 -23 17 -29 21 -11 11 -26 -12 -18 -17
7 -21 73 -5 97 14 20 35 -5 102 -120 45 -78 54 -87 90 -97 38 -10 45 -9 89 18
26 17 76 44 110 62 34 18 62 37 63 42 2 24 -228 118 -345 142 l-31 6 38 -73
c52 -97 85 -132 121 -128 22 2 28 8 28 28 0 22 -4 25 -30 23 -28 -2 -49 13
-39 28 5 9 124 -30 124 -40 0 -16 -48 -51 -78 -57 -37 -8 -43 -2 -168 159 -41
53 -81 97 -87 97 -7 0 -18 -17 -25 -37z"/>
<path d="M1628 823 c-70 -3 -98 -7 -98 -16 0 -20 80 -92 130 -118 33 -17 62
-23 110 -23 76 0 120 18 168 72 51 58 46 66 -60 80 -120 16 -118 16 -118 -12
0 -30 24 -56 51 -56 16 0 19 4 14 21 -6 17 -3 20 16 17 37 -5 35 -34 -3 -58
-25 -16 -45 -20 -79 -17 -88 7 -177 77 -100 77 17 0 31 -4 31 -10 0 -5 -7 -10
-15 -10 -24 0 -17 -19 9 -26 36 -9 60 -1 64 19 5 24 -6 68 -16 65 -4 -1 -51
-4 -104 -5z"/>
<path d="M1373 783 c-15 -20 -44 -52 -63 -71 l-35 -33 -12 28 c-16 38 -16 53
2 53 8 0 15 -9 15 -19 0 -23 11 -33 26 -23 16 11 57 82 51 88 -6 7 -178 -13
-186 -21 -10 -11 59 -195 73 -195 5 0 49 37 98 81 l89 82 50 -49 c62 -61 63
-74 3 -74 -27 0 -43 4 -39 10 3 6 18 10 32 10 40 0 11 27 -39 35 -38 7 -43 5
-89 -41 -61 -60 -64 -78 -11 -71 61 10 262 27 341 29 49 2 76 7 79 16 2 7 -5
12 -20 12 -60 0 -198 90 -239 156 -18 29 -26 34 -59 34 -33 0 -43 -6 -67 -37z"/>
<path d="M545 792 c-80 -37 -143 -147 -132 -228 8 -58 20 -62 79 -24 29 18 65
40 80 49 16 9 28 22 28 29 0 19 -31 70 -46 76 -16 6 -64 -31 -64 -49 0 -18 23
-32 28 -17 5 17 32 15 32 -3 0 -19 -46 -38 -71 -30 -28 9 -23 45 12 88 51 62
148 96 219 77 46 -12 49 -22 15 -44 -30 -20 -41 -21 -26 -2 29 35 -58 46 -103
13 -15 -11 -14 -15 11 -55 15 -23 31 -42 35 -42 14 0 188 103 188 111 0 5 -19
21 -42 36 -35 24 -54 28 -122 31 -63 2 -90 -2 -121 -16z m135 -92 c0 -5 -7
-10 -15 -10 -8 0 -15 5 -15 10 0 6 7 10 15 10 8 0 15 -4 15 -10z"/>
<path d="M348 751 c-63 -37 -216 -158 -247 -195 -21 -25 -5 -32 85 -40 83 -8
110 1 124 40 16 42 12 63 -14 70 -29 7 -66 -11 -66 -31 0 -20 16 -19 24 2 5
12 10 13 17 6 17 -17 1 -33 -32 -33 -18 0 -29 5 -29 14 0 15 65 77 99 96 20
10 21 9 21 -59 0 -53 -4 -74 -19 -92 -18 -23 -26 -24 -126 -24 l-107 0 -25
-32 -24 -32 66 -63 c96 -91 90 -90 153 -24 33 34 51 61 46 66 -10 10 -121 17
-129 8 -9 -9 9 -43 23 -43 18 0 18 -19 0 -23 -15 -3 -58 53 -58 77 0 7 28 11
83 11 76 0 87 3 120 28 31 23 36 33 37 67 0 54 26 152 51 193 18 31 18 52 1
52 -4 0 -37 -18 -74 -39z"/>
<path d="M1988 743 c-29 -25 -81 -59 -116 -75 -56 -25 -83 -50 -70 -63 5 -5
307 -45 338 -45 11 0 20 6 20 13 0 17 -89 137 -102 137 -5 0 -30 -15 -55 -32
l-45 -33 32 -13 c39 -16 65 -9 56 16 -3 9 6 4 21 -13 l27 -30 -25 -3 c-24 -3
-137 22 -147 33 -3 3 -1 9 4 14 18 17 123 71 137 71 8 0 55 -43 105 -95 57
-59 96 -93 105 -89 11 4 57 139 57 166 0 9 -160 51 -168 44 -11 -12 77 -86 93
-79 9 3 15 -1 15 -11 0 -33 -38 -14 -117 59 -45 41 -88 75 -97 75 -8 0 -39
-21 -68 -47z"/>
<path d="M1085 750 c-16 -4 -43 -11 -58 -14 -24 -6 -27 -9 -16 -22 15 -18 63
-44 81 -44 9 0 9 3 0 12 -16 16 -15 38 2 38 13 0 36 -47 36 -73 0 -16 -49 2
-101 37 -37 25 -56 31 -83 28 -33 -4 -36 -7 -51 -60 -23 -76 -71 -170 -107
-208 -30 -33 -25 -54 9 -34 10 5 77 30 148 54 164 55 185 64 185 74 0 11 -149
94 -158 88 -14 -8 -56 -106 -49 -113 4 -4 20 -2 35 3 20 7 26 15 24 32 -4 27
16 36 52 22 39 -15 28 -31 -39 -57 -68 -26 -93 -29 -101 -10 -7 20 33 121 56
142 18 17 23 15 120 -43 86 -51 105 -59 126 -52 13 5 24 11 24 12 0 9 -41 110
-61 151 -24 49 -26 50 -74 37z"/>
<path d="M2964 719 c-4 -7 0 -16 9 -21 46 -25 102 -77 119 -110 11 -20 22 -68
25 -108 5 -61 10 -74 32 -91 21 -17 35 -20 73 -15 64 9 178 -3 178 -19 0 -6
-11 -18 -25 -25 -23 -12 -27 -12 -40 8 -13 17 -22 20 -53 15 -20 -3 -41 -9
-45 -13 -14 -12 112 -83 136 -76 29 8 137 94 137 110 0 7 -10 22 -22 33 -20
18 -41 21 -153 27 -151 7 -165 15 -165 92 0 53 9 55 81 19 51 -26 57 -45 13
-45 -17 0 -24 6 -24 19 0 19 -18 31 -46 31 -19 0 -18 -36 3 -71 15 -26 23 -29
63 -28 220 4 200 40 -109 196 -90 46 -167 83 -172 83 -4 0 -11 -5 -15 -11z"/>
<path d="M2340 655 c-7 -27 -14 -67 -14 -89 -1 -49 0 -49 121 -4 45 17 88 28
96 25 14 -5 33 -74 24 -84 -3 -2 -15 1 -27 7 -15 8 -19 15 -11 19 6 4 9 15 5
25 -7 19 -22 16 -99 -19 l-50 -22 30 -13 c60 -24 220 -67 227 -61 4 3 -4 47
-17 96 -14 50 -25 93 -25 97 0 4 -9 12 -19 17 -15 8 -36 4 -91 -19 -83 -34
-115 -38 -106 -14 3 9 6 18 6 20 0 2 5 4 11 4 5 0 8 -4 4 -9 -18 -30 68 -9 94
23 11 13 9 17 -14 26 -14 5 -50 13 -79 16 l-53 6 -13 -47z"/>
<path d="M751 650 c-41 -16 -79 -34 -83 -38 -12 -12 16 -80 35 -88 21 -8 67
13 67 31 0 9 -9 15 -25 15 -30 0 -33 15 -5 30 27 14 40 5 40 -29 0 -64 -86
-121 -182 -121 -66 0 -94 21 -62 45 22 16 54 20 54 6 0 -6 -4 -13 -10 -16 -5
-3 -10 -11 -10 -17 0 -12 77 -5 91 9 11 11 -27 103 -43 103 -30 0 -188 -94
-188 -112 0 -5 24 -20 53 -33 61 -29 176 -34 230 -11 65 27 123 119 141 224 7
41 -4 41 -103 2z"/>
<path d="M2776 660 c-63 -25 -102 -59 -84 -75 17 -15 164 -49 182 -42 19 7 26
55 10 68 -17 14 -54 2 -54 -17 0 -15 -26 -19 -34 -5 -28 44 85 59 144 19 36
-25 77 -74 68 -83 -3 -3 -18 0 -34 6 -16 6 -23 13 -16 16 19 7 14 31 -9 44
-27 14 -40 1 -42 -41 -2 -30 3 -34 81 -77 46 -24 89 -42 97 -39 39 15 -9 144
-70 191 -77 58 -152 69 -239 35z"/>
<path d="M2674 559 c-3 -6 0 -32 6 -59 15 -61 62 -112 126 -134 55 -19 164
-20 214 -3 57 20 50 41 -29 92 -38 25 -76 45 -83 45 -36 0 -51 -56 -23 -80 13
-10 19 -10 35 5 18 16 20 17 26 1 4 -9 4 -20 0 -23 -12 -13 -92 -6 -123 11
-40 20 -70 63 -56 77 13 13 43 1 37 -16 -3 -8 4 -16 17 -20 24 -8 39 7 39 42
0 19 -9 25 -52 37 -114 32 -128 34 -134 25z"/>
<path d="M357 430 c-25 -20 -27 -28 -27 -90 0 -83 -12 -120 -39 -120 -24 0
-55 40 -41 54 6 6 15 5 24 -3 8 -7 20 -10 26 -6 12 7 14 105 2 105 -4 0 -32
-25 -61 -54 l-54 -55 29 -37 c16 -20 39 -52 52 -71 29 -43 48 -50 72 -28 16
14 20 31 20 75 0 93 12 181 25 187 15 5 83 -12 105 -27 13 -9 11 -13 -10 -30
-14 -11 -31 -20 -37 -20 -22 0 -14 27 10 34 18 5 20 8 7 16 -8 5 -27 10 -42
10 -25 0 -28 -4 -28 -32 0 -18 -3 -63 -7 -100 -4 -47 -2 -68 5 -68 6 0 30 18
54 40 24 22 68 57 98 78 79 54 120 85 120 91 0 3 -28 7 -63 7 -56 1 -104 16
-203 60 -6 3 -22 -5 -37 -16z"/>
<path d="M2707 373 c-4 -3 -7 -10 -7 -14 0 -11 247 -173 318 -208 l62 -31 10
25 c13 33 13 112 1 119 -5 4 -37 9 -70 12 -57 6 -61 6 -61 -14 0 -30 30 -45
52 -25 20 18 38 10 38 -18 0 -12 -7 -19 -18 -19 -21 0 -125 61 -126 74 -1 5
26 11 59 13 33 2 73 8 89 13 17 6 33 7 37 3 4 -5 16 -50 27 -102 26 -132 36
-135 124 -41 38 40 67 77 65 83 -5 17 -116 91 -123 84 -11 -11 9 -100 24 -105
6 -2 12 3 12 12 0 9 5 16 10 16 17 0 11 -24 -14 -55 l-24 -30 -11 28 c-6 16
-11 35 -11 43 0 8 -5 35 -11 60 -15 60 -51 81 -103 59 -53 -22 -189 -20 -261
5 -62 21 -78 24 -88 13z"/>
</g>
</svg>
