<?xml version="1.0" standalone="no"?>
<!DOCTYPE svg PUBLIC "-//W3C//DTD SVG 20010904//EN"
 "http://www.w3.org/TR/2001/REC-SVG-20010904/DTD/svg10.dtd">
<svg version="1.0" xmlns="http://www.w3.org/2000/svg"
 width="111.000000pt" height="103.000000pt" viewBox="0 0 111.000000 103.000000"
 preserveAspectRatio="xMidYMid meet">
<metadata>
Created by potrace 1.16, written by Peter Selinger 2001-2019
</metadata>
<g transform="translate(0.000000,103.000000) scale(0.100000,-0.100000)"
fill="#000000" stroke="none">
<path d="M503 905 c-28 -5 -55 -13 -59 -17 -4 -5 -16 -8 -27 -8 -24 0 -17 -24
9 -28 30 -4 104 -76 104 -101 0 -14 -8 -22 -27 -26 -16 -4 -46 -10 -68 -16
-107 -25 -206 -37 -240 -28 -41 12 -67 35 -63 58 4 22 44 21 40 -1 -1 -9 2
-19 8 -23 14 -9 50 13 50 31 0 16 -56 44 -88 44 -20 0 -62 -35 -62 -52 0 -21
79 -87 113 -93 35 -7 184 12 202 25 6 4 29 10 52 14 23 3 48 8 56 12 11 4 17
-13 26 -84 14 -110 14 -239 1 -247 -6 -4 -51 -9 -100 -12 -84 -6 -112 -15 -96
-31 4 -3 40 -5 82 -3 109 3 114 0 114 -62 l0 -52 -49 -23 c-56 -26 -96 -65
-88 -85 6 -15 70 -27 147 -27 48 0 101 28 99 53 0 7 -19 26 -42 42 -45 33 -55
64 -42 132 l6 34 52 -5 c72 -9 189 5 195 23 4 11 -3 12 -33 7 -46 -9 -169 -9
-196 -1 -18 6 -19 17 -19 138 0 196 11 233 60 207 10 -5 74 -10 143 -11 100
-1 133 3 162 16 40 20 65 59 65 104 0 24 -5 32 -25 37 -30 8 -63 0 -90 -21
-20 -15 -20 -15 -1 -30 11 -8 35 -15 54 -15 39 0 39 -14 -2 -44 -25 -19 -42
-21 -161 -21 -160 0 -175 7 -155 71 7 22 26 53 42 70 23 25 27 34 16 40 -23
15 -112 20 -165 9z m465 -97 c2 -13 -1 -16 -12 -13 -9 3 -23 7 -32 10 -22 7
-6 27 19 23 12 -2 23 -11 25 -20z m-416 -641 c7 -8 23 -19 36 -26 30 -16 28
-26 -8 -41 -38 -16 -150 -4 -150 16 0 7 21 25 48 38 56 30 57 30 74 13z"/>
</g>
</svg>
