<?xml version="1.0" standalone="no"?>
<!DOCTYPE svg PUBLIC "-//W3C//DTD SVG 20010904//EN"
 "http://www.w3.org/TR/2001/REC-SVG-20010904/DTD/svg10.dtd">
<svg version="1.0" xmlns="http://www.w3.org/2000/svg"
 width="74.000000pt" height="112.000000pt" viewBox="0 0 74.000000 112.000000"
 preserveAspectRatio="xMidYMid meet">
<metadata>
Created by potrace 1.16, written by Peter Selinger 2001-2019
</metadata>
<g transform="translate(0.000000,112.000000) scale(0.100000,-0.100000)"
fill="#000000" stroke="none">
<path d="M281 1023 c-74 -3 -89 -7 -127 -34 -73 -50 -78 -64 -70 -185 4 -58
13 -125 21 -147 8 -23 15 -56 15 -73 0 -17 6 -53 14 -80 16 -57 29 -161 31
-254 4 -134 2 -128 45 -155 22 -14 44 -25 50 -25 20 0 9 20 -18 34 -41 21 -50
49 -57 192 -4 71 -13 154 -20 186 -13 51 -12 61 5 110 20 58 32 64 116 67 54
1 79 20 70 54 -12 48 -31 58 -102 51 -86 -9 -114 8 -114 69 0 24 7 67 15 95
17 57 7 52 158 72 43 5 81 10 83 10 3 0 2 5 -1 10 -3 6 -12 9 -18 8 -7 -1 -50
-4 -96 -5z"/>
<path d="M324 859 c3 -17 6 -40 6 -50 0 -11 7 -19 16 -19 13 0 15 7 9 43 -8
49 -12 57 -27 57 -6 0 -8 -12 -4 -31z"/>
<path d="M520 865 c0 -9 5 -15 11 -13 6 2 11 8 11 13 0 5 -5 11 -11 13 -6 2
-11 -4 -11 -13z"/>
<path d="M625 850 c-4 -6 -4 -22 -1 -35 6 -25 -18 -60 -35 -49 -5 3 -39 2 -74
-1 -55 -6 -65 -10 -65 -27 0 -49 15 -58 105 -58 55 0 86 4 91 12 10 16 5 151
-5 161 -5 5 -12 4 -16 -3z"/>
<path d="M220 840 c0 -5 5 -10 10 -10 6 0 10 5 10 10 0 6 -4 10 -10 10 -5 0
-10 -4 -10 -10z"/>
</g>
</svg>
