<?xml version="1.0" standalone="no"?>
<!DOCTYPE svg PUBLIC "-//W3C//DTD SVG 20010904//EN"
 "http://www.w3.org/TR/2001/REC-SVG-20010904/DTD/svg10.dtd">
<svg version="1.0" xmlns="http://www.w3.org/2000/svg"
 width="210.000000pt" height="202.000000pt" viewBox="0 0 210.000000 202.000000"
 preserveAspectRatio="xMidYMid meet">
<metadata>
Created by potrace 1.16, written by Peter Selinger 2001-2019
</metadata>
<g transform="translate(0.000000,202.000000) scale(0.100000,-0.100000)"
fill="#000000" stroke="none">
<path d="M1016 1860 c-85 -11 -123 -26 -132 -54 -9 -26 -8 -214 1 -318 l7 -76
-139 3 c-76 1 -150 3 -164 4 -26 1 -27 4 -34 74 -4 39 -7 90 -6 112 2 53 -8
115 -20 115 -9 0 -2 -209 9 -275 7 -39 8 -40 57 -47 28 -3 106 -7 175 -7 98
-1 142 4 205 21 63 17 111 21 228 22 107 1 152 -2 159 -11 7 -9 7 -60 0 -160
-12 -163 -10 -267 9 -514 20 -249 20 -244 -16 -244 -17 -1 -35 -4 -42 -8 -20
-12 -325 13 -350 29 -16 10 -34 11 -68 5 -30 -6 -110 -4 -218 5 -95 7 -175 14
-179 14 -13 0 -9 30 3 30 8 0 8 4 -1 14 -12 15 -15 146 -5 221 3 22 10 126 16
230 5 105 11 203 12 218 l2 29 189 2 188 2 -6 -81 c-7 -83 -16 -132 -47 -251
-20 -72 -25 -145 -11 -129 5 6 14 30 21 55 7 25 16 52 21 60 12 24 58 239 63
294 4 43 2 52 -21 72 -27 26 -52 30 -84 13 -22 -12 -221 -14 -294 -3 -41 6
-42 6 -48 56 -4 28 -13 69 -21 92 -8 23 -16 62 -19 87 -14 150 -19 187 -28
217 -5 17 -14 32 -19 32 -15 0 -22 -29 -11 -43 10 -12 29 -113 24 -130 -3 -11
37 -203 49 -234 5 -14 9 -36 9 -50 0 -25 -1 -25 -62 -19 -131 13 -265 3 -319
-25 -24 -12 -26 -72 -10 -239 13 -134 14 -286 2 -328 -6 -18 -7 -64 -4 -102 5
-63 8 -71 29 -76 13 -3 95 -2 181 3 87 6 161 7 165 4 4 -3 8 -88 10 -188 2
-129 6 -183 14 -183 9 0 12 39 12 133 0 72 0 145 1 161 l1 29 108 -7 c59 -4
161 -8 227 -9 66 -1 127 -6 135 -12 22 -14 319 -34 358 -23 43 12 55 3 48 -36
-3 -17 0 -60 8 -95 7 -36 11 -101 9 -153 -3 -70 -1 -89 9 -86 20 7 33 181 19
239 -7 27 -9 67 -5 97 5 41 11 51 29 56 44 11 311 27 345 21 41 -8 50 -19 50
-60 0 -16 7 -59 15 -95 13 -57 45 -220 45 -228 0 -2 5 0 11 4 10 6 9 26 -7
119 -16 95 -22 172 -17 249 7 120 7 121 -6 194 -14 78 -16 206 -7 428 l8 172
-23 16 c-13 9 -38 16 -56 16 -18 0 -33 3 -33 7 0 3 22 32 48 62 52 59 75 98
86 144 10 43 -8 31 -32 -20 -12 -27 -33 -61 -48 -78 -14 -16 -34 -39 -43 -51
-21 -27 -96 -54 -141 -52 -19 1 -77 -4 -129 -10 -52 -7 -97 -9 -101 -5 -4 4
-10 25 -13 46 l-6 37 57 1 c149 3 155 6 176 92 10 44 -11 31 -30 -18 -16 -44
-18 -45 -59 -45 -23 0 -62 -3 -86 -6 l-44 -6 -1 183 c0 101 -3 196 -7 210 -7
26 -8 26 -129 33 -68 4 -136 9 -153 11 -16 1 -61 -1 -99 -5z m277 -31 c27 -5
53 -7 57 -4 20 13 30 -43 33 -184 2 -123 -1 -153 -13 -165 -12 -12 -48 -16
-175 -19 -104 -3 -180 -9 -217 -20 -39 -10 -60 -12 -64 -5 -8 13 -13 289 -7
341 3 22 13 41 24 47 10 6 62 13 116 16 54 3 100 8 102 10 6 5 73 -3 144 -17z
m-824 -519 c30 -7 46 -31 38 -54 -6 -15 -9 -15 -29 -2 -14 8 -36 12 -55 9 -37
-6 -51 -32 -58 -112 -3 -30 -6 -56 -8 -57 -2 -2 -16 0 -33 5 -24 6 -29 13 -29
37 0 16 4 32 10 36 6 5 6 11 -2 19 -7 7 -9 24 -6 40 5 27 -1 34 -28 31 -120
-14 -136 -23 -120 -66 6 -14 31 -48 56 -75 l46 -49 -29 -49 c-59 -100 -76
-201 -54 -315 11 -57 30 -104 38 -95 3 2 -3 26 -13 53 -11 31 -17 80 -17 134
0 71 4 96 27 149 34 81 63 114 88 101 10 -6 40 -10 68 -10 45 0 53 3 74 33 14
17 30 49 36 69 30 94 32 31 10 -344 l-13 -208 -115 -1 c-64 0 -143 -2 -176 -3
l-60 -3 3 156 c2 94 -3 220 -12 316 -18 179 -14 230 18 247 42 23 270 28 345
8z m1327 4 c59 -9 63 -22 59 -195 -2 -89 -8 -166 -14 -177 -10 -20 3 -190 24
-300 11 -55 -12 -78 -94 -92 -47 -9 -81 -10 -108 -3 -39 9 -194 2 -225 -11
-28 -12 -32 17 -49 309 -9 151 -9 211 2 290 7 55 12 115 11 133 -2 24 2 32 16
33 37 2 99 9 147 17 48 8 165 6 231 -4z"/>
<path d="M1016 1745 c-58 -15 -65 -22 -40 -39 21 -16 60 -14 104 6 36 16 37
20 6 34 -17 8 -36 7 -70 -1z"/>
<path d="M1192 1733 c-11 -10 -23 -31 -27 -47 -6 -26 -5 -28 10 -16 9 7 14 18
12 24 -3 8 7 10 29 8 19 -2 34 -8 34 -13 0 -4 13 0 30 9 16 9 30 22 30 28 0
28 -88 33 -118 7z"/>
<path d="M1070 1620 c0 -5 5 -10 10 -10 6 0 10 5 10 10 0 6 -4 10 -10 10 -5 0
-10 -4 -10 -10z"/>
<path d="M1074 1559 c-9 -15 15 -29 53 -29 47 0 66 9 52 26 -14 17 -95 19
-105 3z"/>
<path d="M396 945 c3 -33 6 -78 8 -100 3 -53 -14 -187 -25 -200 -11 -12 -12
-25 0 -25 5 0 14 14 21 30 16 40 18 284 2 325 -11 26 -11 23 -6 -30z"/>
<path d="M276 965 c-37 -57 -54 -277 -24 -325 6 -10 7 5 2 40 -4 30 -6 71 -6
90 3 54 29 169 42 185 7 8 10 20 8 26 -2 6 -12 -1 -22 -16z"/>
<path d="M315 958 c-25 -72 -42 -268 -26 -294 10 -16 11 -11 8 26 -5 51 19
233 33 261 12 22 12 29 1 29 -5 0 -12 -10 -16 -22z"/>
<path d="M355 950 c-3 -11 -2 -28 4 -37 8 -15 10 -11 11 20 0 41 -5 47 -15 17z"/>
<path d="M357 872 c-5 -7 -6 -21 -2 -32 5 -17 2 -45 -21 -175 -4 -22 -2 -26 5
-16 5 8 15 51 21 96 12 87 11 149 -3 127z"/>
<path d="M1499 1274 c-3 -20 4 -50 13 -61 6 -7 7 -13 4 -13 -4 0 -2 -10 5 -21
9 -18 8 -24 -5 -31 -9 -5 -16 -14 -16 -20 0 -6 11 1 25 16 13 14 25 26 27 26
2 0 4 -18 6 -41 2 -26 -1 -38 -8 -34 -5 3 -10 1 -10 -5 0 -7 6 -10 13 -7 8 3
20 1 28 -3 10 -7 8 -11 -11 -19 -18 -7 -20 -10 -7 -10 15 -1 22 -12 18 -33 0
-5 4 -8 9 -8 6 0 10 7 10 15 0 18 16 20 26 4 3 -6 0 -16 -7 -21 -10 -6 -6 -7
11 -2 34 9 36 12 15 28 -24 18 -10 38 21 30 18 -5 30 0 44 16 26 30 25 32 -6
24 -21 -5 -25 -3 -22 11 2 10 12 28 23 41 17 20 22 21 36 8 8 -8 20 -11 24 -7
5 5 4 0 -4 -9 -7 -9 -19 -14 -27 -11 -19 7 -18 -11 1 -27 12 -10 15 -10 15 1
0 8 12 22 28 31 17 11 21 18 11 18 -9 0 -27 9 -40 21 -22 19 -22 21 -4 19 39
-4 46 0 43 23 -8 57 -96 15 -124 -60 -18 -49 -41 -83 -56 -83 -4 0 -7 37 -6
82 3 79 2 83 -22 94 -37 18 -80 27 -81 18z m61 -86 c0 -11 -28 -10 -35 1 -3 6
4 9 15 8 11 -1 20 -5 20 -9z"/>
<path d="M1514 1069 c-3 -6 -1 -16 5 -22 8 -8 11 -5 11 11 0 24 -5 28 -16 11z"/>
<path d="M1700 966 c0 -2 13 -30 29 -62 41 -83 54 -139 46 -198 -4 -38 -2 -56
9 -71 14 -18 15 -12 16 70 0 104 -25 195 -69 248 -13 15 -31 23 -31 13z"/>
<path d="M1516 938 c-2 -7 -9 -33 -16 -58 -6 -25 -19 -56 -27 -69 -10 -15 -12
-26 -5 -33 15 -15 41 30 57 99 8 32 14 61 15 66 0 12 -20 8 -24 -5z"/>
<path d="M1599 946 c-2 -2 -2 -35 1 -73 3 -37 2 -102 -1 -143 -7 -79 -5 -90
12 -73 14 14 17 268 3 283 -6 5 -12 8 -15 6z"/>
</g>
</svg>
