<?xml version="1.0" standalone="no"?>
<!DOCTYPE svg PUBLIC "-//W3C//DTD SVG 20010904//EN"
 "http://www.w3.org/TR/2001/REC-SVG-20010904/DTD/svg10.dtd">
<svg version="1.0" xmlns="http://www.w3.org/2000/svg"
 width="290.000000pt" height="315.000000pt" viewBox="0 0 290.000000 315.000000"
 preserveAspectRatio="xMidYMid meet">
<metadata>
Created by potrace 1.16, written by Peter Selinger 2001-2019
</metadata>
<g transform="translate(0.000000,315.000000) scale(0.100000,-0.100000)"
fill="#000000" stroke="none">
<path d="M1434 3044 c-6 -3 -40 -11 -75 -19 -35 -7 -53 -14 -39 -14 14 0 57 8
95 18 39 11 61 19 50 19 -11 0 -25 -2 -31 -4z"/>
<path d="M1498 3043 c6 -2 18 -2 25 0 6 3 1 5 -13 5 -14 0 -19 -2 -12 -5z"/>
<path d="M1558 3033 c12 -2 30 -2 40 0 9 3 -1 5 -23 4 -22 0 -30 -2 -17 -4z"/>
<path d="M1650 3023 c56 -9 91 -26 110 -53 11 -15 41 -41 67 -58 l48 -31 70
15 c38 8 72 20 76 26 5 7 32 9 82 5 45 -3 79 -1 85 5 16 16 82 -9 82 -31 0
-26 46 -61 80 -61 24 0 33 -7 49 -39 13 -25 30 -41 46 -45 15 -4 31 -18 37
-34 7 -15 19 -36 29 -47 45 -55 89 -130 89 -155 0 -15 10 -40 22 -55 12 -16
25 -47 29 -69 l6 -41 2 39 c1 27 -5 46 -19 61 -11 12 -24 42 -28 67 -6 30 -24
66 -54 104 -25 33 -53 74 -62 91 -9 18 -30 40 -47 48 -16 9 -37 31 -46 50 -14
29 -22 35 -48 35 -32 0 -66 27 -78 62 -8 22 -82 45 -99 30 -8 -6 -38 -8 -80
-3 -47 5 -72 3 -80 -5 -7 -6 -42 -19 -78 -28 -74 -18 -78 -16 -160 60 -50 47
-87 65 -128 63 -27 -2 -27 -2 -2 -6z"/>
<path d="M1210 2987 c-44 -17 -77 -22 -166 -22 -67 0 -116 -4 -125 -11 -8 -7
-53 -30 -102 -53 -48 -22 -90 -48 -93 -56 -4 -8 -14 -15 -23 -16 -11 0 -12 -2
-3 -6 8 -3 26 6 40 20 26 24 128 77 149 77 5 0 18 9 29 21 17 19 25 20 101 14
53 -5 100 -3 133 5 58 14 152 49 130 49 -8 -1 -40 -10 -70 -22z"/>
<path d="M1435 2971 c-16 -4 29 -5 101 -3 l131 5 70 -65 c104 -95 161 -107
312 -64 l84 24 71 -26 c50 -19 83 -40 114 -72 44 -43 242 -332 242 -351 0 -5
11 -26 24 -47 14 -20 30 -57 36 -82 7 -25 18 -52 25 -60 8 -9 23 -36 34 -60
11 -25 21 -39 21 -32 0 15 -27 71 -45 92 -7 8 -19 35 -25 60 -14 54 -63 145
-139 259 -31 46 -71 106 -89 133 -56 84 -120 140 -195 170 l-67 28 -78 -22
c-162 -46 -219 -35 -323 62 l-64 60 -105 -1 c-58 -1 -118 -4 -135 -8z"/>
<path d="M1285 2950 c-61 -22 -48 -25 21 -6 27 8 60 17 74 19 18 3 15 4 -10 4
-19 0 -57 -8 -85 -17z"/>
<path d="M930 2899 c-30 -16 -71 -45 -90 -63 -22 -21 -60 -42 -101 -55 -37
-12 -75 -31 -85 -43 -11 -11 -47 -40 -81 -65 -35 -25 -63 -49 -63 -54 0 -4
-25 -24 -55 -43 -51 -33 -79 -75 -61 -93 3 -4 6 3 6 14 0 12 15 33 36 50 19
15 51 42 69 59 18 17 51 43 72 59 21 15 52 40 68 55 17 15 59 37 95 50 38 14
83 39 107 61 22 21 64 49 92 64 28 14 51 28 51 30 0 7 0 7 -60 -26z"/>
<path d="M1198 2923 c6 -2 18 -2 25 0 6 3 1 5 -13 5 -14 0 -19 -2 -12 -5z"/>
<path d="M1009 2907 c4 -4 43 -3 87 2 l79 9 -87 -1 c-48 -1 -83 -6 -79 -10z"/>
<path d="M629 2802 c-43 -29 -137 -113 -215 -192 -64 -65 -73 -80 -74 -111 0
-44 -20 -104 -62 -184 -17 -33 -39 -92 -48 -131 -10 -39 -23 -80 -29 -92 -6
-11 -11 -24 -11 -29 1 -22 34 57 51 125 11 42 31 95 43 117 34 59 66 151 66
190 0 27 11 46 58 97 31 35 64 67 71 72 8 5 44 36 78 68 35 33 78 66 96 73 18
8 25 14 17 15 -8 0 -27 -8 -41 -18z"/>
<path d="M1121 2618 c-18 -5 -43 -15 -55 -22 -11 -8 -34 -16 -51 -20 -16 -3
-52 -17 -80 -31 -27 -13 -67 -27 -88 -30 -27 -4 -54 -21 -100 -64 -34 -32 -83
-68 -108 -80 -26 -12 -73 -48 -106 -79 -54 -52 -62 -66 -96 -161 -20 -57 -36
-106 -34 -107 4 -5 53 121 63 159 10 43 111 147 169 173 27 13 70 43 95 67 56
55 107 87 140 87 14 0 45 11 70 24 25 13 61 27 80 31 19 4 49 15 65 25 49 29
80 32 106 12 31 -26 18 -39 -47 -48 -37 -4 -93 -25 -163 -59 -58 -29 -131 -60
-161 -68 -69 -20 -82 -30 -123 -92 -19 -29 -53 -63 -82 -82 -99 -63 -105 -71
-151 -203 -24 -68 -42 -126 -40 -128 3 -3 43 102 77 203 18 53 35 73 90 100
43 22 81 59 142 138 22 29 41 40 100 58 39 11 109 41 154 65 58 32 103 48 155
57 81 13 95 30 59 66 -23 23 -30 24 -80 9z"/>
<path d="M1735 2550 c-44 -9 -114 -33 -155 -52 -41 -20 -111 -46 -154 -58 -44
-11 -91 -29 -105 -39 -14 -10 -48 -25 -75 -34 -27 -9 -72 -34 -100 -56 -28
-21 -95 -67 -148 -102 -54 -35 -138 -91 -188 -123 -50 -33 -88 -61 -86 -64 3
-2 44 23 93 55 48 33 140 94 203 135 63 42 132 90 153 106 21 17 52 34 70 37
18 4 55 20 83 36 28 16 88 38 133 49 44 11 106 34 137 52 65 35 214 68 310 68
66 0 172 -31 190 -56 7 -8 32 -29 57 -47 155 -110 296 -313 297 -427 0 -14 16
-69 35 -124 38 -110 51 -240 25 -271 -13 -15 -26 -100 -34 -220 l-4 -60 8 55
c5 30 13 87 17 125 5 39 16 84 25 100 24 46 10 178 -30 284 -18 47 -32 96 -32
109 0 40 -30 129 -55 164 -13 18 -37 56 -54 83 -49 82 -235 241 -321 275 -63
25 -179 25 -295 0z"/>
<path d="M1647 2460 c-26 -17 -71 -40 -99 -51 -28 -11 -65 -30 -82 -42 -16
-11 -50 -27 -75 -33 -29 -8 -37 -13 -22 -13 24 -1 251 105 303 141 24 17 40
18 165 12 76 -3 163 -12 194 -19 58 -14 141 -59 197 -107 34 -28 80 -120 113
-223 11 -33 33 -78 49 -99 27 -35 30 -47 30 -108 0 -39 7 -85 16 -107 14 -35
14 -53 4 -138 -7 -54 -13 -138 -14 -188 -2 -88 -28 -198 -63 -268 -8 -16 -19
-70 -24 -120 -8 -71 -22 -121 -62 -222 -45 -115 -57 -136 -107 -186 -70 -70
-101 -87 -209 -109 -51 -10 -118 -33 -161 -55 -120 -60 -145 -67 -310 -77
-215 -13 -282 -14 -380 -7 -64 5 -75 5 -45 -3 54 -13 235 -13 430 -1 171 11
214 22 322 84 33 19 89 38 147 49 107 22 139 38 212 110 42 42 60 70 94 153
23 56 48 116 56 134 8 18 18 74 23 126 5 52 16 108 24 123 37 74 68 206 66
277 -1 40 4 118 11 174 11 90 10 107 -4 149 -9 26 -16 74 -16 106 0 51 -5 68
-39 124 -22 36 -43 80 -47 97 -3 18 -19 60 -35 94 -16 34 -29 67 -29 72 0 14
-87 82 -153 120 -68 39 -119 48 -292 56 l-140 5 -48 -30z"/>
<path d="M358 2401 c-37 -90 -35 -103 3 -18 17 37 29 72 27 77 -2 5 -15 -22
-30 -59z"/>
<path d="M2660 2340 c0 -5 13 -18 29 -29 20 -15 32 -35 40 -68 l10 -48 -4 44
c-3 36 -11 51 -39 77 -20 18 -36 29 -36 24z"/>
<path d="M1255 2297 c-80 -47 -180 -114 -195 -132 -8 -10 -46 -33 -85 -51 -38
-18 -84 -43 -101 -56 -200 -148 -182 -126 -213 -262 -7 -27 -27 -70 -45 -95
-32 -44 -33 -51 -39 -161 -6 -102 -3 -131 22 -257 16 -79 36 -154 44 -167 9
-13 39 -44 67 -68 54 -45 105 -131 141 -236 25 -72 50 -105 94 -121 21 -7 65
-31 97 -52 99 -63 167 -64 381 -5 131 36 301 115 377 175 47 38 78 52 198 91
120 39 134 54 158 172 10 47 33 106 65 165 43 81 49 99 49 151 0 33 -9 89 -20
124 -11 35 -20 91 -20 128 0 46 -6 78 -20 105 -12 22 -27 63 -36 92 -12 43
-32 69 -113 153 l-98 101 -60 -6 c-42 -5 -82 -2 -133 9 -79 18 -183 14 -252
-10 -56 -19 -154 -89 -228 -162 l-65 -64 -58 6 c-55 6 -59 5 -98 -31 -22 -20
-52 -60 -66 -87 -14 -28 -36 -65 -49 -82 -13 -17 -30 -49 -39 -73 -8 -23 -23
-55 -34 -70 -28 -39 -75 -207 -75 -271 -1 -46 4 -63 30 -100 17 -25 59 -102
94 -173 40 -79 79 -141 103 -165 l38 -37 107 -3 c90 -2 119 1 182 21 78 25
215 112 295 187 22 21 47 40 55 42 8 3 49 -6 90 -18 41 -13 83 -24 92 -24 10
0 31 18 46 39 28 38 43 79 75 206 9 33 20 78 26 100 6 22 9 49 7 60 -21 107
-32 153 -56 230 -15 50 -38 125 -51 167 -13 44 -32 87 -45 99 -13 12 -54 28
-103 38 -70 15 -90 16 -146 6 -36 -7 -75 -19 -87 -27 -69 -46 -232 -209 -319
-318 -54 -69 -123 -153 -153 -187 -74 -85 -96 -168 -58 -224 9 -14 31 -47 49
-74 18 -26 37 -72 43 -101 9 -44 16 -55 36 -60 41 -10 86 4 172 54 107 62 182
128 220 194 38 67 91 120 159 159 54 31 83 70 83 111 0 16 -28 48 -91 107
l-91 84 -33 -16 c-26 -12 -35 -24 -40 -50 -5 -24 -26 -53 -70 -97 -63 -62 -64
-65 -58 -106 4 -34 2 -45 -16 -63 -37 -37 -62 -24 -84 42 -22 68 -14 87 39 87
24 0 38 7 51 26 10 15 46 57 79 93 34 37 67 84 75 104 15 43 41 48 104 21 95
-39 172 -139 182 -233 4 -43 1 -51 -45 -112 -49 -65 -229 -234 -317 -298 -26
-19 -58 -49 -71 -67 -32 -41 -100 -86 -144 -95 -33 -6 -34 -7 -6 -8 40 -1 106
39 158 97 23 27 61 62 83 78 70 50 265 235 311 295 51 67 55 98 24 183 -34 91
-154 185 -236 186 -34 0 -48 -12 -57 -50 -4 -14 -19 -38 -34 -55 -14 -16 -45
-50 -68 -75 -23 -25 -44 -52 -46 -59 -3 -7 -19 -15 -37 -17 -45 -5 -72 -21
-72 -43 0 -26 32 -115 44 -123 21 -15 53 -8 76 17 19 20 22 32 18 69 -5 45 -5
45 63 109 52 48 69 70 69 90 0 36 40 63 69 47 12 -6 21 -14 21 -19 0 -5 32
-35 70 -67 101 -84 96 -117 -28 -197 -70 -45 -108 -87 -156 -170 -50 -88 -273
-232 -347 -225 -28 2 -35 8 -43 33 -24 82 -40 117 -76 165 -43 58 -49 91 -28
151 11 33 64 108 98 139 23 21 191 232 197 246 5 14 197 183 233 207 14 9 52
22 86 30 55 13 69 13 145 -4 99 -21 107 -29 138 -131 13 -40 33 -107 46 -148
34 -106 55 -204 55 -253 -1 -57 -53 -267 -82 -323 -33 -67 -50 -72 -145 -40
-43 14 -82 26 -86 26 -4 0 -26 -17 -50 -39 -83 -76 -221 -164 -300 -193 -66
-23 -94 -28 -176 -28 -148 0 -157 9 -284 265 -16 33 -45 86 -64 117 -31 50
-35 63 -30 101 10 73 54 212 86 272 17 32 31 63 31 70 0 7 15 32 33 56 18 24
40 60 49 80 9 20 31 53 48 73 31 35 34 36 104 36 l72 0 54 56 c64 65 138 122
198 153 57 29 199 47 247 31 60 -20 146 -28 187 -17 l38 9 88 -92 c92 -98 94
-101 142 -223 21 -55 30 -96 30 -137 0 -32 9 -87 20 -122 33 -105 28 -153 -30
-267 -27 -54 -56 -129 -64 -165 -29 -125 -29 -124 -206 -185 -60 -21 -115 -49
-151 -75 -100 -75 -250 -143 -402 -181 -193 -49 -253 -46 -349 18 -29 19 -69
41 -89 50 -39 16 -79 60 -79 87 0 9 -22 61 -49 116 -40 82 -59 108 -108 151
-33 28 -65 64 -71 80 -5 15 -22 89 -35 163 -22 113 -25 153 -20 244 6 105 8
112 39 153 33 44 54 98 54 141 0 36 29 89 58 108 15 9 59 41 97 70 39 29 104
69 145 90 41 20 94 53 116 73 51 44 190 128 224 134 l25 4 -25 2 c-14 0 -43
-10 -65 -22z"/>
<path d="M310 2268 c-7 -23 -23 -79 -35 -123 -34 -115 -47 -166 -42 -171 2 -2
14 33 27 78 50 180 68 253 65 256 -2 2 -9 -16 -15 -40z"/>
<path d="M1570 2165 c-58 -28 -46 -27 33 1 47 16 52 16 134 -4 47 -12 89 -19
94 -17 22 14 154 -18 227 -55 66 -33 85 -48 110 -87 39 -62 129 -251 135 -283
l4 -25 2 24 c1 31 -88 223 -139 298 -41 61 -162 120 -269 133 -47 6 -111 16
-141 21 -112 21 -132 21 -190 -6z"/>
<path d="M2742 2160 c-1 -51 23 -179 37 -193 7 -7 11 -7 11 -1 0 6 -3 14 -7
18 -5 4 -15 53 -24 109 -9 56 -17 86 -17 67z"/>
<path d="M1478 2133 c6 -2 18 -2 25 0 6 3 1 5 -13 5 -14 0 -19 -2 -12 -5z"/>
<path d="M1409 2115 c-14 -8 -38 -29 -52 -48 -15 -19 -54 -54 -88 -77 -61 -42
-63 -42 -126 -36 l-63 7 -20 -33 c-11 -18 -25 -50 -31 -71 -5 -20 -24 -52 -42
-70 -18 -17 -48 -54 -66 -82 -19 -27 -45 -62 -58 -76 -13 -14 -32 -52 -44 -84
-11 -32 -32 -81 -46 -109 -38 -75 -44 -174 -13 -228 13 -23 29 -60 36 -82 7
-23 13 -32 13 -21 1 11 -13 49 -30 85 -27 58 -30 70 -24 130 12 123 113 319
239 461 23 25 47 66 54 90 22 71 34 79 109 72 59 -5 66 -4 91 19 15 14 41 33
59 42 17 8 41 31 52 50 12 19 41 44 64 55 23 12 35 21 27 21 -8 -1 -27 -7 -41
-15z"/>
<path d="M2707 2090 c6 -38 31 -111 32 -95 0 6 -8 37 -19 70 -11 33 -17 44
-13 25z"/>
<path d="M176 1984 c-4 -36 -13 -91 -21 -122 -8 -31 -15 -65 -14 -77 2 -33 37
124 45 198 3 37 4 67 2 67 -3 0 -8 -30 -12 -66z"/>
<path d="M665 2001 c-16 -10 -41 -30 -55 -45 -23 -25 -25 -35 -25 -126 -1 -54
-6 -104 -12 -112 -22 -28 -56 -136 -59 -188 l-2 -55 8 55 c5 30 18 80 30 110
49 123 52 133 45 191 -9 77 10 120 71 159 27 16 44 30 38 30 -5 0 -22 -8 -39
-19z"/>
<path d="M1720 1994 c-101 -25 -125 -32 -188 -56 -85 -32 -118 -61 -187 -163
-32 -48 -79 -104 -104 -124 -43 -34 -112 -107 -182 -193 -45 -55 -119 -206
-119 -242 0 -22 15 -52 49 -98 28 -40 51 -82 55 -105 18 -112 52 -163 108
-162 18 0 42 4 53 9 13 5 2 7 -30 3 -44 -4 -53 -2 -72 19 -13 14 -31 57 -42
102 -11 43 -32 96 -48 118 -15 22 -36 52 -46 67 -22 32 -18 88 10 128 11 15
26 44 33 63 24 60 171 234 242 285 26 19 54 48 63 66 29 55 106 153 139 176
43 31 123 61 226 85 103 24 137 24 187 1 31 -15 46 -33 82 -103 52 -100 101
-238 101 -285 0 -19 11 -65 25 -103 28 -79 31 -115 11 -169 -22 -61 -36 -155
-30 -195 6 -34 2 -41 -46 -92 -31 -33 -64 -57 -82 -61 -16 -4 -27 -9 -24 -12
12 -13 58 10 99 50 57 56 70 81 63 121 -6 30 14 149 34 201 16 41 12 78 -15
159 -14 41 -25 90 -25 109 0 64 -100 308 -148 359 -42 46 -114 61 -192 42z"/>
<path d="M357 1917 c-15 -33 -25 -62 -22 -65 6 -6 57 107 53 118 -2 4 -15 -20
-31 -53z"/>
<path d="M2743 1915 c0 -38 2 -53 4 -32 2 20 2 52 0 70 -2 17 -4 1 -4 -38z"/>
<path d="M222 1940 c0 -14 2 -19 5 -12 2 6 2 18 0 25 -3 6 -5 1 -5 -13z"/>
<path d="M2796 1909 c5 -35 1 -55 -15 -87 -11 -23 -21 -47 -21 -54 0 -7 11 11
25 40 26 56 32 106 15 132 -7 10 -8 1 -4 -31z"/>
<path d="M211 1894 c0 -11 3 -14 6 -6 3 7 2 16 -1 19 -3 4 -6 -2 -5 -13z"/>
<path d="M411 1894 c0 -11 3 -14 6 -6 3 7 2 16 -1 19 -3 4 -6 -2 -5 -13z"/>
<path d="M199 1840 c-3 -19 -9 -44 -13 -55 -4 -11 0 -7 9 8 9 15 15 40 13 55
-3 25 -4 24 -9 -8z"/>
<path d="M401 1847 c0 -16 -15 -68 -33 -115 -27 -76 -31 -100 -32 -192 0 -74
5 -122 17 -164 23 -73 31 -70 10 4 -9 32 -16 97 -16 155 -1 88 3 111 32 193
18 51 30 105 28 120 l-4 27 -2 -28z"/>
<path d="M297 1767 c-24 -63 -27 -85 -27 -182 1 -74 7 -133 20 -180 10 -38 19
-61 19 -50 1 11 -6 45 -14 75 -8 31 -15 99 -15 157 0 84 4 114 26 173 14 40
24 73 22 75 -2 2 -16 -28 -31 -68z"/>
<path d="M2730 1830 c0 -8 -12 -37 -25 -65 -13 -27 -23 -51 -21 -53 7 -7 57
109 52 121 -3 8 -5 6 -6 -3z"/>
<path d="M132 1730 c0 -19 2 -27 5 -17 2 9 2 25 0 35 -3 9 -5 1 -5 -18z"/>
<path d="M165 1698 c-20 -199 -3 -396 40 -448 21 -26 45 -78 66 -146 11 -36
22 -64 25 -62 2 3 -3 24 -11 48 -8 23 -15 48 -15 55 0 7 -18 45 -41 85 -36 62
-43 83 -53 168 -6 58 -8 149 -5 227 7 141 5 174 -6 73z"/>
<path d="M2763 1715 c0 -22 2 -30 4 -17 2 12 2 30 0 40 -3 9 -5 -1 -4 -23z"/>
<path d="M121 1674 c0 -11 3 -14 6 -6 3 7 2 16 -1 19 -3 4 -6 -2 -5 -13z"/>
<path d="M2292 1660 c0 -14 2 -19 5 -12 2 6 2 18 0 25 -3 6 -5 1 -5 -13z"/>
<path d="M2657 1596 c-4 -44 -5 -81 -3 -83 6 -7 19 121 14 143 -2 10 -7 -17
-11 -60z"/>
<path d="M2756 1613 c-3 -27 -15 -97 -26 -158 -10 -60 -22 -132 -24 -160 l-5
-50 9 45 c36 166 67 370 56 370 -3 0 -7 -21 -10 -47z"/>
<path d="M113 1600 c0 -30 2 -43 4 -27 2 15 2 39 0 55 -2 15 -4 2 -4 -28z"/>
<path d="M2305 1590 c17 -146 3 -324 -31 -400 -11 -25 -31 -86 -43 -137 -21
-82 -28 -96 -69 -138 -25 -25 -64 -56 -86 -67 -23 -11 -43 -24 -46 -29 -3 -4
-30 -19 -60 -33 -30 -14 -48 -26 -40 -25 25 0 132 61 205 116 63 47 83 81 109
185 12 51 31 109 41 128 35 67 54 324 30 400 l-15 45 5 -45z"/>
<path d="M122 1515 c0 -16 2 -22 5 -12 2 9 2 23 0 30 -3 6 -5 -1 -5 -18z"/>
<path d="M112 1460 c-1 -14 3 -43 7 -65 6 -26 9 -31 9 -15 1 14 -3 43 -7 65
-6 26 -9 31 -9 15z"/>
<path d="M505 1418 c2 -38 12 -72 29 -101 18 -30 26 -58 26 -91 0 -58 33 -129
91 -195 23 -25 53 -66 67 -91 14 -25 36 -57 48 -72 12 -15 42 -63 65 -105 57
-105 83 -137 137 -173 38 -25 54 -30 101 -28 l56 1 -60 6 c-97 10 -143 49
-223 192 -61 108 -142 229 -191 284 -48 55 -81 131 -81 188 0 33 -7 59 -24 86
-14 21 -29 65 -35 97 l-10 59 4 -57z"/>
<path d="M2641 1358 c-7 -57 -18 -127 -26 -155 -35 -125 -51 -169 -74 -202
-29 -43 -42 -92 -29 -114 5 -10 3 -32 -7 -59 -9 -24 -20 -56 -25 -71 -5 -15
-22 -44 -38 -65 -16 -20 -37 -53 -45 -74 -19 -44 -43 -72 -177 -205 -57 -58
-134 -124 -170 -148 l-66 -44 -159 -4 c-88 -3 -173 -10 -190 -16 l-30 -11 35
6 c19 4 105 8 191 10 l156 4 74 49 c95 64 314 287 341 349 11 24 35 65 54 89
19 25 34 50 34 57 0 8 9 34 21 60 13 31 18 54 13 69 -11 33 -7 50 37 134 21
43 41 93 45 113 3 19 12 51 19 70 14 35 40 248 32 257 -3 2 -10 -42 -16 -99z"/>
<path d="M135 1335 c4 -11 9 -38 12 -60 4 -39 43 -139 50 -131 2 2 -3 19 -11
37 -8 19 -20 59 -26 89 -6 30 -15 62 -21 70 -9 12 -10 11 -4 -5z"/>
<path d="M2462 1320 c0 -19 2 -27 5 -17 2 9 2 25 0 35 -3 9 -5 1 -5 -18z"/>
<path d="M311 1324 c2 -5 23 -43 46 -85 23 -41 60 -120 82 -175 62 -156 106
-247 131 -269 12 -11 37 -49 54 -85 48 -97 99 -171 144 -212 37 -33 200 -118
226 -118 6 0 -29 19 -79 42 -146 67 -179 100 -266 266 -22 41 -55 93 -74 116
-35 43 -49 71 -120 246 -50 125 -120 266 -136 276 -6 4 -10 3 -8 -2z"/>
<path d="M394 1275 c11 -30 96 -185 102 -185 5 0 -94 190 -104 200 -3 3 -2 -4
2 -15z"/>
<path d="M2427 1177 c-15 -56 -27 -112 -27 -123 0 -12 -11 -46 -24 -75 -13
-30 -41 -99 -62 -154 -33 -87 -46 -108 -103 -168 -43 -45 -76 -70 -100 -77
-20 -5 -53 -21 -73 -35 -20 -14 -40 -25 -44 -25 -4 0 -42 -18 -84 -40 -43 -21
-105 -44 -137 -49 -32 -5 -71 -15 -88 -22 -16 -6 -64 -15 -105 -19 l-75 -7 66
-1 c43 -1 86 5 124 18 32 11 71 20 86 20 25 0 175 67 294 131 22 12 56 30 75
39 65 32 133 126 179 246 23 60 50 128 61 152 11 23 20 53 20 67 0 13 12 65
26 114 14 50 24 95 22 101 -1 5 -15 -36 -31 -93z"/>
<path d="M2691 1225 c-1 -11 -4 -31 -6 -45 l-6 -25 11 25 c6 13 9 33 7 45 -4
19 -4 19 -6 0z"/>
<path d="M2665 1124 c-10 -46 -20 -66 -59 -117 l-36 -47 10 -68 9 -67 -4 67
c-4 65 -3 68 35 116 34 42 67 128 55 140 -2 3 -7 -9 -10 -24z"/>
<path d="M206 1110 c3 -14 11 -32 16 -40 6 -10 7 -7 2 10 -3 14 -11 32 -16 40
-6 10 -7 7 -2 -10z"/>
<path d="M507 1070 c16 -29 66 -100 70 -100 7 0 -26 52 -54 85 -14 17 -21 23
-16 15z"/>
<path d="M810 1076 c0 -4 22 -45 49 -90 26 -44 64 -115 84 -157 23 -49 48 -85
69 -100 31 -23 41 -24 149 -23 104 1 120 3 148 23 23 17 40 22 61 17 23 -4 39
2 77 32 97 76 139 100 196 111 31 6 69 17 84 25 16 7 48 19 72 26 23 6 41 13
39 15 -6 6 -99 -20 -133 -37 -16 -8 -49 -18 -73 -21 -43 -5 -113 -46 -191
-111 -34 -28 -48 -34 -71 -30 -20 5 -40 0 -64 -16 -36 -22 -55 -24 -157 -20
-30 2 -65 0 -76 -4 -36 -11 -85 43 -142 156 -52 105 -120 220 -121 204z"/>
<path d="M235 1028 c12 -41 61 -142 101 -208 22 -36 62 -110 88 -165 27 -55
59 -116 72 -135 13 -19 24 -43 24 -53 0 -11 15 -33 33 -51 18 -17 45 -52 60
-77 31 -54 98 -106 193 -149 86 -39 107 -39 29 0 -33 16 -65 30 -71 30 -13 0
-104 67 -121 90 -7 8 -18 26 -24 40 -7 14 -26 40 -43 57 -16 18 -41 55 -55 83
-14 28 -52 101 -83 163 -31 61 -79 149 -106 193 -27 45 -59 109 -72 143 -22
59 -38 84 -25 39z"/>
<path d="M300 1028 c0 -3 23 -57 51 -119 28 -63 60 -136 71 -163 10 -27 32
-67 47 -90 16 -23 34 -59 42 -81 7 -22 25 -55 39 -74 14 -19 36 -54 50 -79 18
-33 42 -55 90 -84 36 -22 96 -62 134 -90 l70 -50 86 6 c81 7 91 5 163 -23 43
-17 88 -31 100 -30 14 1 9 4 -14 10 -20 4 -63 20 -95 34 -54 24 -66 26 -149
20 l-90 -6 -90 64 c-50 35 -109 74 -132 87 -25 13 -47 35 -54 53 -7 17 -28 51
-47 75 -18 24 -40 63 -48 86 -8 22 -26 58 -40 79 -23 36 -124 250 -154 327
-12 33 -30 61 -30 48z"/>
<path d="M591 940 c14 -31 19 -36 19 -24 0 6 -7 19 -16 30 -14 18 -14 18 -3
-6z"/>
<path d="M625 860 c4 -14 14 -32 22 -40 12 -12 11 -7 -2 20 -22 45 -29 52 -20
20z"/>
<path d="M2572 800 c0 -14 2 -19 5 -12 2 6 2 18 0 25 -3 6 -5 1 -5 -13z"/>
<path d="M685 725 c20 -55 37 -80 78 -118 29 -26 69 -63 90 -83 36 -33 85 -59
94 -50 3 2 -6 7 -19 11 -13 4 -44 26 -69 49 -26 22 -67 58 -92 79 -34 29 -50
53 -67 100 -12 34 -26 66 -32 72 -5 5 3 -22 17 -60z"/>
<path d="M2531 702 c-19 -37 -42 -76 -52 -87 -10 -11 -25 -38 -35 -60 -22 -54
-41 -74 -90 -95 -23 -10 -54 -35 -70 -57 -15 -21 -49 -61 -75 -89 -26 -27 -54
-64 -63 -81 -8 -17 -29 -41 -46 -53 -28 -20 -37 -21 -148 -14 -64 3 -115 4
-112 1 3 -4 58 -9 122 -12 l116 -6 36 32 c21 17 44 46 53 62 8 17 37 54 63 81
26 28 53 61 59 74 6 12 33 33 59 46 54 28 76 50 114 114 45 80 109 204 105
208 -2 2 -18 -27 -36 -64z"/>
<path d="M1843 753 c15 -2 37 -2 50 0 12 2 0 4 -28 4 -27 0 -38 -2 -22 -4z"/>
<path d="M1715 699 c-38 -27 -86 -56 -105 -64 -19 -9 -44 -21 -55 -27 -71 -41
-80 -43 -255 -48 l-175 -6 167 -2 167 -2 105 50 c58 28 108 55 111 60 7 11 70
53 115 77 14 7 18 13 10 12 -8 0 -46 -22 -85 -50z"/>
<path d="M1068 383 c7 -3 16 -2 19 1 4 3 -2 6 -13 5 -11 0 -14 -3 -6 -6z"/>
<path d="M1028 373 c7 -3 16 -2 19 1 4 3 -2 6 -13 5 -11 0 -14 -3 -6 -6z"/>
<path d="M1102 375 c8 -8 118 -8 125 -1 4 3 -24 6 -62 6 -38 0 -66 -2 -63 -5z"/>
<path d="M1435 370 c-27 -7 -27 -8 -5 -8 14 0 36 4 50 8 20 6 21 8 5 8 -11 0
-33 -4 -50 -8z"/>
<path d="M1253 358 c6 -4 44 -7 82 -7 81 1 69 6 -27 11 -37 2 -62 0 -55 -4z"/>
<path d="M1540 190 c8 -5 26 -10 39 -10 32 0 24 6 -19 14 -25 4 -31 3 -20 -4z"/>
<path d="M1498 183 c7 -3 16 -2 19 1 4 3 -2 6 -13 5 -11 0 -14 -3 -6 -6z"/>
<path d="M1422 160 c-18 -11 -42 -21 -55 -21 -17 -1 -18 -2 -4 -6 9 -2 41 7
69 21 29 14 45 26 37 26 -7 0 -29 -9 -47 -20z"/>
<path d="M1768 173 c12 -2 32 -2 45 0 12 2 2 4 -23 4 -25 0 -35 -2 -22 -4z"/>
<path d="M1640 138 c-41 -17 -88 -34 -105 -38 -25 -7 -26 -8 -7 -9 13 -1 54
12 90 28 37 16 81 33 97 39 17 6 23 11 15 11 -8 0 -49 -14 -90 -31z"/>
<path d="M928 153 c12 -2 30 -2 40 0 9 3 -1 5 -23 4 -22 0 -30 -2 -17 -4z"/>
<path d="M1041 140 c26 -4 55 -12 65 -18 11 -5 37 -12 59 -15 l40 -6 -35 11
c-19 5 -52 16 -73 24 -20 8 -52 13 -70 13 -27 -1 -24 -3 14 -9z"/>
<path d="M1283 143 c9 -2 25 -2 35 0 9 3 1 5 -18 5 -19 0 -27 -2 -17 -5z"/>
<path d="M1290 100 l-85 -6 75 -1 c41 -1 100 2 130 7 54 7 54 7 10 7 -25 -1
-83 -4 -130 -7z"/>
<path d="M1478 93 c7 -3 16 -2 19 1 4 3 -2 6 -13 5 -11 0 -14 -3 -6 -6z"/>
</g>
</svg>
