<?xml version="1.0" standalone="no"?>
<!DOCTYPE svg PUBLIC "-//W3C//DTD SVG 20010904//EN"
 "http://www.w3.org/TR/2001/REC-SVG-20010904/DTD/svg10.dtd">
<svg version="1.0" xmlns="http://www.w3.org/2000/svg"
 width="472.000000pt" height="196.000000pt" viewBox="0 0 472.000000 196.000000"
 preserveAspectRatio="xMidYMid meet">
<metadata>
Created by potrace 1.16, written by Peter Selinger 2001-2019
</metadata>
<g transform="translate(0.000000,196.000000) scale(0.100000,-0.100000)"
fill="#000000" stroke="none">
<path d="M955 1870 c-8 -13 33 -65 114 -145 34 -33 61 -66 61 -73 0 -22 25 -7
28 17 3 16 -19 46 -84 114 -88 93 -107 107 -119 87z"/>
<path d="M860 1853 c-296 -51 -452 -122 -583 -263 -77 -83 -171 -216 -162
-230 14 -23 36 -7 71 53 21 34 79 103 129 153 74 74 105 98 175 132 89 43 209
80 351 110 60 12 84 22 84 32 0 16 -23 21 -65 13z"/>
<path d="M820 1787 c-85 -30 -110 -45 -110 -62 0 -7 41 -56 90 -107 l91 -93
60 64 61 64 -50 50 -51 50 -45 -17 c-25 -10 -46 -21 -46 -25 0 -4 10 -17 23
-28 17 -16 27 -19 46 -12 18 7 21 12 12 23 -24 29 7 24 35 -5 l28 -29 -31 -32
-31 -31 -30 21 c-33 24 -92 88 -92 101 0 10 41 29 96 46 l41 13 53 -53 c50
-51 70 -60 70 -32 0 7 -22 36 -49 65 -56 61 -72 64 -171 29z"/>
<path d="M3845 1789 c-9 -13 -15 -10 90 -49 124 -45 170 -70 245 -130 77 -62
160 -152 269 -293 98 -127 102 -131 125 -114 16 12 12 20 -49 103 -105 138
-242 289 -304 332 -72 51 -187 108 -275 138 -78 27 -92 29 -101 13z"/>
<path d="M3736 1691 c-43 -44 -57 -64 -52 -77 6 -15 19 -6 76 51 39 38 70 73
70 77 0 24 -43 1 -94 -51z"/>
<path d="M585 1711 c-70 -25 -115 -50 -115 -62 0 -17 70 -109 83 -110 25 -3
41 3 78 28 45 30 48 41 16 71 -20 19 -26 20 -42 9 -12 -10 -14 -16 -7 -21 19
-11 14 -22 -15 -35 -25 -12 -30 -10 -51 15 -29 34 -19 47 52 66 l48 13 34 -40
c19 -22 34 -43 34 -47 0 -9 -102 -79 -156 -106 l-42 -21 -60 54 c-33 30 -65
55 -71 55 -14 0 -14 -37 -1 -45 6 -4 8 -10 5 -15 -3 -5 10 -27 30 -48 19 -22
35 -42 35 -45 0 -9 -161 -167 -170 -167 -12 0 -70 76 -70 92 0 7 20 36 44 63
43 50 44 50 65 31 11 -11 21 -27 21 -38 0 -19 -15 -24 -25 -8 -12 20 -35 10
-35 -15 0 -49 73 -60 99 -14 19 34 8 71 -33 117 l-34 37 -22 -20 c-13 -11 -47
-56 -76 -99 -42 -63 -51 -83 -43 -97 17 -34 205 -234 221 -237 18 -4 158 123
158 143 0 17 -67 75 -86 75 -17 0 -84 -48 -84 -60 0 -4 11 -19 24 -33 34 -37
59 -27 50 19 -7 39 11 47 39 16 16 -17 14 -21 -34 -68 l-51 -49 -34 39 c-19
22 -34 48 -34 58 0 10 33 53 74 95 l73 77 63 -57 c60 -53 92 -69 104 -48 3 4
-19 35 -49 69 -30 33 -55 65 -55 70 0 27 181 138 204 125 15 -9 66 -68 66 -76
0 -4 -20 -20 -45 -37 -52 -36 -85 -34 -85 5 0 32 16 40 45 21 14 -9 26 -12 30
-6 8 14 -32 50 -56 50 -22 0 -79 -51 -79 -70 0 -18 75 -90 93 -90 20 0 130 94
147 125 12 23 10 28 -36 78 -27 29 -75 83 -107 120 -32 37 -64 67 -70 67 -7
-1 -34 -9 -62 -19z"/>
<path d="M3781 1646 l-73 -73 30 -65 29 -64 101 -17 c56 -9 113 -17 128 -17
l27 0 -6 77 c-7 88 -23 118 -81 147 -46 23 -79 15 -109 -26 -28 -38 -15 -77
35 -101 52 -25 80 -15 76 26 -3 30 -5 32 -40 30 -40 -3 -48 7 -23 27 39 32 95
-37 95 -116 0 -31 -3 -35 -17 -29 -10 4 -58 21 -106 38 -133 47 -137 76 -20
169 58 46 71 68 40 68 -7 0 -45 -33 -86 -74z"/>
<path d="M3930 1690 c-9 -6 -3 -13 19 -25 36 -18 45 -16 36 8 -8 18 -38 28
-55 17z"/>
<path d="M1016 1603 c-79 -97 -244 -260 -334 -331 -47 -37 -111 -89 -141 -117
-31 -27 -71 -62 -90 -78 -32 -26 -37 -57 -10 -57 16 0 95 60 239 179 152 127
265 235 292 280 11 20 46 62 76 93 47 49 53 59 42 72 -7 9 -16 16 -20 16 -4 0
-29 -26 -54 -57z"/>
<path d="M4024 1643 c3 -10 10 -61 16 -113 17 -150 5 -135 112 -132 51 1 113
5 137 8 43 6 43 6 25 24 -17 17 -27 18 -112 8 -78 -9 -96 -9 -108 4 -15 14
-33 148 -20 148 4 0 25 -9 47 -21 44 -22 50 -52 12 -57 -15 -2 -19 -8 -16 -23
11 -41 93 -12 93 33 0 30 -141 138 -180 138 -6 0 -9 -8 -6 -17z"/>
<path d="M407 1624 c-11 -11 3 -24 18 -18 8 4 12 10 9 15 -6 11 -18 12 -27 3z"/>
<path d="M435 1590 c-3 -5 1 -10 9 -10 9 0 16 5 16 10 0 6 -4 10 -9 10 -6 0
-13 -4 -16 -10z"/>
<path d="M3636 1591 c-7 -11 65 -230 113 -341 99 -229 207 -351 398 -449 52
-26 63 -26 63 -1 0 11 -6 20 -14 20 -28 0 -163 99 -222 163 -71 77 -154 231
-234 432 -73 183 -86 205 -104 176z"/>
<path d="M455 1561 c-7 -12 12 -24 25 -16 11 7 4 25 -10 25 -5 0 -11 -4 -15
-9z"/>
<path d="M3771 1556 c-9 -11 -7 -15 9 -19 13 -3 20 0 20 8 0 21 -16 27 -29 11z"/>
<path d="M492 1531 c-10 -6 -10 -10 2 -20 10 -9 16 -9 21 -1 10 16 -7 31 -23
21z"/>
<path d="M1203 1523 c-27 -10 -8 -30 84 -89 78 -50 100 -60 122 -55 39 11 33
35 -9 36 -40 2 -170 78 -170 101 0 14 -6 16 -27 7z"/>
<path d="M730 1510 c0 -5 5 -10 10 -10 6 0 10 5 10 10 0 6 -4 10 -10 10 -5 0
-10 -4 -10 -10z"/>
<path d="M4220 1511 c0 -5 -3 -16 -6 -25 -5 -13 1 -16 25 -16 29 0 30 2 19 20
-14 21 -38 35 -38 21z"/>
<path d="M3397 1460 c-32 -27 -85 -70 -117 -96 -35 -27 -60 -55 -60 -65 0 -25
12 -24 36 2 10 11 64 54 121 96 89 66 101 78 92 94 -5 11 -11 19 -12 19 -1 0
-28 -22 -60 -50z"/>
<path d="M760 1490 c0 -5 5 -10 10 -10 6 0 10 5 10 10 0 6 -4 10 -10 10 -5 0
-10 -4 -10 -10z"/>
<path d="M1120 1483 c-142 -96 -300 -226 -357 -292 -97 -114 -187 -314 -147
-328 5 -2 25 29 42 69 47 106 122 217 192 286 33 33 119 101 191 152 84 60
129 98 127 108 -4 23 -20 24 -48 5z"/>
<path d="M290 1431 c0 -5 5 -13 10 -16 6 -3 10 -2 10 4 0 5 -4 13 -10 16 -5 3
-10 2 -10 -4z"/>
<path d="M705 1430 c3 -5 10 -10 16 -10 5 0 9 5 9 10 0 6 -7 10 -16 10 -8 0
-12 -4 -9 -10z"/>
<path d="M1125 1394 c-91 -69 -101 -81 -113 -137 -17 -83 -25 -157 -15 -157
13 0 141 77 184 111 43 34 49 53 20 69 -28 15 -57 12 -72 -6 -11 -14 -10 -18
6 -30 17 -13 18 -16 5 -25 -37 -24 -92 -50 -98 -45 -9 9 26 108 47 133 25 30
131 103 150 103 11 0 10 3 -5 15 -29 22 -44 18 -109 -31z"/>
<path d="M3492 1431 c-27 -17 39 -127 151 -254 41 -45 85 -100 98 -122 49 -79
96 -202 124 -320 35 -153 36 -157 54 -146 18 11 6 87 -35 228 -49 171 -101
260 -241 422 -35 39 -74 93 -87 119 -34 67 -49 83 -64 73z"/>
<path d="M1237 1380 c-32 -25 -43 -56 -27 -75 14 -17 48 -19 70 -5 12 8 12 11
-3 28 -20 22 -12 35 14 21 13 -7 19 -21 19 -46 0 -54 -71 -118 -202 -184 -107
-54 -238 -143 -346 -237 l-63 -55 20 -20 20 -20 73 68 c133 124 200 172 298
215 122 53 192 94 207 119 19 30 53 123 53 143 0 11 -19 27 -50 43 -27 14 -51
25 -53 25 -3 0 -16 -9 -30 -20z"/>
<path d="M3385 1371 c-73 -42 -77 -48 -65 -111 5 -29 10 -83 10 -121 0 -37 4
-70 9 -73 8 -5 155 50 214 80 15 8 27 20 27 27 0 23 -85 137 -102 137 -10 0
-33 -8 -53 -17 -33 -16 -35 -19 -29 -52 9 -56 12 -61 37 -61 34 0 39 10 21 38
-17 26 -12 52 10 52 12 0 56 -65 56 -83 0 -7 -141 -69 -145 -65 -3 2 -8 50
-11 106 l-7 101 56 27 c31 15 54 31 51 36 -9 14 -27 9 -79 -21z"/>
<path d="M3786 1392 c-4 -8 50 -133 81 -185 13 -22 30 -37 41 -37 44 0 69 72
36 104 -20 21 -40 20 -49 -1 -6 -17 -7 -17 -21 1 -8 11 -14 28 -14 38 0 15 8
18 53 18 82 0 81 2 87 -175 l6 -155 32 -32 c17 -18 34 -29 37 -26 3 3 1 27 -5
54 -7 27 -17 120 -24 207 -7 86 -15 160 -18 162 -4 4 -83 16 -195 28 -24 3
-45 2 -47 -1z"/>
<path d="M1432 1362 c-7 -5 -23 -49 -37 -99 -51 -192 -161 -377 -362 -609 -56
-65 -62 -78 -39 -87 9 -4 37 18 75 58 235 252 364 480 378 673 3 39 4 72 2 72
-2 0 -10 -4 -17 -8z"/>
<path d="M4126 1359 c-27 -4 -53 -12 -58 -17 -9 -9 5 -191 23 -297 20 -116 37
-153 83 -180 24 -14 46 -25 49 -25 4 0 -18 71 -48 157 -53 151 -66 215 -45
228 29 18 152 -86 166 -140 8 -34 -2 -57 -23 -53 -13 2 -19 14 -21 40 -4 47
-24 65 -46 43 -46 -46 13 -135 89 -135 72 0 185 121 185 199 0 86 -88 143
-140 91 -27 -27 -25 -58 5 -72 20 -9 28 -8 43 5 24 22 32 21 32 -1 0 -22 -30
-52 -52 -52 -9 0 -45 24 -82 54 -36 30 -83 60 -103 66 -52 17 -59 26 -32 40
16 9 57 11 141 7 l117 -5 -21 29 c-22 29 -23 29 -117 28 -53 -1 -118 -5 -145
-10z"/>
<path d="M226 1345 c-3 -8 -2 -15 3 -15 5 0 14 7 21 15 10 12 10 15 -3 15 -8
0 -17 -7 -21 -15z"/>
<path d="M1176 1351 c-4 -7 -5 -15 -2 -18 9 -9 19 4 14 18 -4 11 -6 11 -12 0z"/>
<path d="M253 1324 c-3 -8 -1 -20 6 -27 8 -8 11 -4 11 16 0 30 -7 35 -17 11z"/>
<path d="M1146 1321 c-3 -5 3 -11 15 -14 16 -4 18 -3 8 9 -13 16 -16 17 -23 5z"/>
<path d="M1650 1294 c0 -17 111 -72 198 -97 49 -15 52 -15 52 2 0 12 -13 22
-42 30 -24 7 -76 28 -117 47 -84 39 -91 40 -91 18z"/>
<path d="M59 1279 c-10 -19 -1 -30 93 -119 57 -54 123 -123 147 -154 42 -54
45 -56 62 -40 24 22 24 30 -1 61 -63 80 -261 273 -281 273 -4 0 -13 -9 -20
-21z"/>
<path d="M948 1252 c-20 -21 -27 -42 -33 -96 -7 -67 -9 -72 -63 -128 -30 -32
-61 -58 -69 -58 -18 0 -16 26 4 61 13 22 23 29 37 25 25 -6 46 10 46 36 0 29
-26 32 -65 8 -27 -17 -45 -43 -79 -113 -48 -101 -61 -141 -43 -131 7 4 71 51
143 106 l131 98 10 108 c6 59 10 108 9 109 -2 2 -14 -10 -28 -25z"/>
<path d="M1240 1254 c0 -14 3 -14 15 -4 8 7 15 14 15 16 0 2 -7 4 -15 4 -8 0
-15 -7 -15 -16z"/>
<path d="M3254 1258 c-14 -22 -2 -154 31 -353 43 -256 74 -342 178 -492 30
-44 56 -73 67 -73 36 0 30 31 -19 103 -94 140 -134 241 -165 417 -31 175 -66
389 -66 399 0 15 -17 14 -26 -1z"/>
<path d="M1085 1249 c-10 -15 3 -25 16 -12 7 7 7 13 1 17 -6 3 -14 1 -17 -5z"/>
<path d="M1591 1221 c-196 -247 -307 -431 -341 -567 -24 -94 -27 -194 -5 -194
9 0 16 14 19 38 18 121 39 203 71 270 37 78 143 238 252 381 57 73 63 85 50
98 -12 13 -18 9 -46 -26z"/>
<path d="M2753 1252 c-25 -2 -33 -8 -33 -23 0 -14 7 -19 25 -19 14 0 41 -15
64 -35 44 -40 46 -40 155 -19 92 18 126 36 126 64 0 28 -33 26 -45 -2 -7 -17
-27 -28 -70 -40 -87 -24 -92 -23 -143 30 -40 41 -52 47 -79 44z"/>
<path d="M455 1220 c3 -5 11 -10 16 -10 6 0 7 5 4 10 -3 6 -11 10 -16 10 -6 0
-7 -4 -4 -10z"/>
<path d="M1650 1178 c-29 -40 -30 -43 -30 -165 0 -124 0 -124 23 -117 43 13
132 62 151 83 26 29 33 102 11 124 -21 22 -69 22 -90 1 -23 -23 -13 -39 24
-38 35 2 38 -6 16 -40 -16 -24 -93 -82 -99 -75 -6 7 14 169 24 194 12 30 33
31 100 6 39 -15 50 -16 50 -6 0 17 -2 18 -83 49 l-67 25 -30 -41z"/>
<path d="M2127 1173 c-16 -16 -5 -33 21 -33 15 0 32 -4 38 -10 14 -14 142 -22
194 -13 29 6 45 14 45 23 0 12 -13 14 -65 12 -56 -3 -159 8 -211 24 -8 2 -18
1 -22 -3z"/>
<path d="M3955 1157 c-5 -11 -1 -39 8 -65 l15 -47 0 45 c0 25 -3 54 -8 65 -7
19 -8 19 -15 2z"/>
<path d="M4570 1144 c-125 -88 -354 -360 -328 -391 32 -38 44 -34 81 26 53 85
181 222 269 288 l78 57 -22 23 c-27 28 -34 28 -78 -3z"/>
<path d="M2706 1148 c-2 -7 -20 -74 -41 -148 -72 -260 -60 -375 73 -667 48
-106 58 -123 79 -123 28 0 28 0 -2 59 -46 91 -104 258 -121 347 -21 115 -15
215 24 364 41 158 43 174 14 178 -12 2 -24 -2 -26 -10z"/>
<path d="M1864 998 c0 -84 -6 -182 -12 -218 -23 -115 -73 -262 -127 -372 -50
-101 -52 -108 -34 -113 25 -8 20 -13 57 61 119 237 155 391 150 639 -2 123 -6
150 -18 153 -13 2 -15 -20 -16 -150z"/>
<path d="M3111 1136 c-11 -12 -8 -26 12 -78 85 -211 101 -300 95 -530 l-3
-168 27 0 28 0 0 144 c0 83 -6 180 -15 232 -27 157 -86 354 -118 398 -12 16
-14 16 -26 2z"/>
<path d="M2786 1132 c-2 -4 -11 -42 -21 -84 l-18 -77 62 -70 c64 -73 126 -131
139 -131 4 0 35 48 70 107 42 73 62 118 62 140 l0 33 -62 0 c-71 0 -102 -13
-132 -53 -19 -26 -19 -30 -5 -55 17 -32 56 -36 73 -9 9 15 7 21 -9 33 -20 15
-20 15 4 35 28 23 59 25 67 4 7 -16 -64 -147 -81 -151 -5 -1 -43 34 -83 77
-62 68 -71 83 -62 99 7 14 21 20 43 20 55 1 212 55 215 75 4 20 1 20 -111 -11
-69 -19 -69 -19 -108 3 -21 12 -41 18 -43 15z"/>
<path d="M3481 1079 l-124 -60 7 -71 c9 -94 23 -122 62 -126 56 -5 97 74 58
112 -27 27 -44 20 -44 -20 0 -28 -3 -35 -17 -32 -14 2 -19 15 -21 51 -2 27 2
54 8 62 16 20 57 24 80 8 27 -19 77 -180 61 -197 -7 -6 -39 -22 -73 -36 -67
-27 -75 -37 -55 -64 12 -17 15 -16 65 3 83 33 88 31 127 -51 19 -40 40 -94 46
-119 11 -43 11 -49 -10 -78 -17 -24 -29 -31 -49 -29 -55 7 -93 120 -46 138 15
6 29 3 44 -7 20 -14 21 -17 6 -25 -20 -11 -21 -44 -2 -51 8 -3 22 0 32 7 22
16 14 53 -22 95 -31 37 -53 39 -105 9 -31 -17 -38 -26 -33 -42 11 -36 62 -120
94 -154 l30 -34 68 59 c37 33 97 81 135 107 45 32 67 54 67 68 0 45 -46 198
-59 198 -16 0 -88 -44 -103 -63 -21 -26 -23 -76 -5 -101 12 -16 14 -16 40 4
18 14 27 30 25 43 -4 27 24 34 46 12 16 -17 21 -60 10 -90 -9 -22 -57 -45 -94
-45 -28 0 -33 5 -56 56 -14 31 -30 79 -36 105 -14 59 -8 67 73 111 58 30 69
47 50 77 -7 11 -22 7 -76 -23 -36 -21 -68 -36 -71 -33 -7 7 -64 180 -64 194 0
8 15 20 33 28 28 12 34 11 51 -3 10 -9 25 -30 33 -46 13 -26 13 -30 -1 -45
-15 -15 -17 -14 -22 7 -6 20 -33 30 -46 16 -8 -8 39 -108 52 -112 21 -7 90 47
90 70 0 42 -96 179 -124 178 -6 -1 -67 -28 -135 -61z"/>
<path d="M3909 1123 c5 -10 17 -27 26 -38 15 -18 16 -18 11 -2 -3 10 -6 27 -6
38 0 12 -7 19 -20 19 -17 0 -19 -3 -11 -17z"/>
<path d="M1172 1056 l-104 -51 7 -100 c8 -106 11 -119 26 -110 5 4 9 48 9 99
l0 93 57 26 c32 14 59 24 61 22 2 -1 -7 -23 -19 -47 -12 -23 -24 -37 -26 -30
-8 23 -33 13 -33 -13 0 -31 24 -42 47 -24 14 12 93 168 93 184 0 9 -14 3 -118
-49z"/>
<path d="M2092 1093 c-36 -68 -126 -294 -143 -359 -39 -150 -32 -509 11 -509
12 0 14 31 15 195 1 120 6 216 14 250 13 58 20 76 100 288 28 74 49 138 45
143 -9 15 -33 10 -42 -8z"/>
<path d="M2154 1045 c-14 -30 -22 -60 -18 -66 4 -8 26 -10 66 -5 69 7 94 18
101 45 10 40 -43 57 -65 21 -13 -20 -48 -28 -48 -12 0 5 9 17 20 27 15 14 31
17 75 13 36 -3 59 0 65 7 13 16 -29 25 -112 25 l-59 0 -25 -55z"/>
<path d="M2390 1098 c0 -2 9 -28 21 -58 36 -96 87 -293 100 -391 11 -86 10
-106 -10 -214 -11 -66 -25 -146 -30 -178 l-8 -57 28 0 c31 0 29 -5 54 150 9
52 18 147 21 210 5 110 4 121 -30 245 -20 72 -50 167 -67 213 -28 71 -35 82
-55 82 -13 0 -24 -1 -24 -2z"/>
<path d="M1560 1050 c-13 -24 -15 -85 -4 -122 3 -11 -4 -23 -21 -34 -30 -20
-44 -11 -27 16 12 20 7 50 -9 50 -4 0 -22 -20 -38 -44 l-31 -44 25 -16 c31
-20 34 -20 89 4 l46 19 -1 78 c0 43 -4 87 -8 98 -7 19 -9 18 -21 -5z"/>
<path d="M2358 1062 c-10 -2 -18 -8 -18 -13 0 -13 27 -11 35 2 9 13 4 16 -17
11z"/>
<path d="M3610 1044 c0 -8 5 -12 10 -9 6 4 8 11 5 16 -9 14 -15 11 -15 -7z"/>
<path d="M1690 1036 c0 -8 -3 -23 -6 -33 -4 -14 -1 -13 15 6 12 12 18 27 15
32 -8 14 -24 11 -24 -5z"/>
<path d="M3580 1035 c0 -8 5 -15 10 -15 6 0 10 7 10 15 0 8 -4 15 -10 15 -5 0
-10 -7 -10 -15z"/>
<path d="M2336 1021 c-3 -5 1 -11 9 -15 15 -6 29 7 18 18 -9 9 -21 8 -27 -3z"/>
<path d="M2826 1012 c-2 -4 4 -13 14 -20 15 -9 19 -8 24 4 3 9 6 18 6 20 0 7
-39 4 -44 -4z"/>
<path d="M2310 990 c0 -5 7 -10 15 -10 8 0 15 5 15 10 0 6 -7 10 -15 10 -8 0
-15 -4 -15 -10z"/>
<path d="M2366 992 c-3 -6 -1 -14 5 -17 15 -10 25 3 12 16 -7 7 -13 7 -17 1z"/>
<path d="M3443 993 c-22 -8 -14 -30 13 -36 21 -4 25 -1 22 16 -3 22 -15 29
-35 20z"/>
<path d="M3097 976 c-6 -16 1 -26 19 -26 7 0 10 8 7 20 -6 23 -19 26 -26 6z"/>
<path d="M945 921 c-77 -62 -135 -126 -135 -150 0 -35 48 -81 83 -81 38 0 50
7 66 37 15 29 14 58 -3 72 -20 17 -57 -19 -49 -48 6 -23 3 -24 -21 -15 -9 4
-16 18 -16 34 0 36 107 140 121 118 15 -22 -2 -130 -28 -180 -13 -27 -19 -48
-13 -48 21 0 70 31 81 51 14 28 1 259 -15 259 -6 -1 -38 -22 -71 -49z"/>
<path d="M1718 910 c-31 -16 -60 -34 -64 -41 -9 -15 133 -152 147 -143 20 12
6 42 -36 77 -51 43 -56 59 -20 75 39 18 46 15 39 -14 -4 -17 -2 -29 7 -34 22
-14 29 -1 29 56 0 50 -2 54 -22 53 -13 -1 -48 -14 -80 -29z"/>
<path d="M2148 933 c-14 -2 -31 -10 -36 -16 -17 -21 -64 -177 -58 -192 4 -11
21 -15 56 -15 50 0 51 1 48 28 -2 21 -9 28 -30 30 -33 4 -34 15 -8 76 19 46
32 51 68 23 13 -11 17 -203 4 -224 -5 -7 -39 -13 -87 -15 -78 -3 -80 -4 -83
-29 -3 -25 -1 -27 60 -33 84 -10 104 -24 117 -86 13 -62 15 -207 2 -214 -5 -4
-37 -9 -71 -13 -73 -7 -80 -1 -80 68 0 65 10 109 25 109 17 0 65 -57 65 -76 0
-11 -4 -12 -18 -5 -33 18 -58 -29 -30 -57 19 -19 56 -14 79 9 31 31 23 119
-14 156 -25 25 -29 26 -84 17 l-58 -9 2 -80 c2 -44 5 -104 9 -133 l6 -53 66 1
c37 1 124 -1 193 -5 l127 -8 21 91 c27 114 45 252 34 263 -9 8 -41 12 -85 10
-15 -1 -43 -15 -63 -32 -27 -24 -35 -39 -35 -64 0 -39 22 -65 54 -65 38 0 51
24 30 55 -15 22 -15 28 -3 40 8 7 27 17 43 21 29 7 29 7 24 -32 -3 -21 -20
-85 -37 -141 -32 -100 -32 -101 -59 -94 -37 10 -66 66 -86 165 -18 91 -21 152
-7 161 8 4 197 34 224 35 4 0 7 16 7 36 l0 37 -57 -7 c-32 -4 -84 -9 -115 -13
l-58 -6 1 99 c1 145 3 148 71 152 64 3 65 2 75 -90 5 -52 4 -58 -13 -58 -10 0
-29 -3 -41 -6 -20 -5 -23 -2 -23 20 0 19 5 26 20 26 13 0 20 7 20 20 0 15 -7
20 -27 20 -45 0 -55 -12 -51 -61 l3 -44 73 1 c41 1 78 6 82 10 9 10 -15 157
-31 186 -9 16 -23 18 -122 17 -62 -1 -124 -4 -139 -6z"/>
<path d="M4250 922 c0 -34 15 -44 34 -23 17 19 16 23 -16 34 -13 5 -18 1 -18
-11z"/>
<path d="M3067 911 c-8 -9 -32 -50 -52 -91 -44 -87 -50 -75 84 -140 l81 -39 0
29 c0 24 -5 31 -27 36 -33 7 -113 52 -113 62 0 11 59 110 69 116 5 4 12 -7 16
-24 9 -41 8 -44 -18 -45 -15 0 -22 -6 -22 -20 0 -16 8 -21 38 -23 48 -4 54 11
30 84 -15 47 -23 59 -45 65 -19 5 -31 2 -41 -10z"/>
<path d="M2725 900 c-8 -26 -2 -35 18 -23 13 7 13 11 2 26 -13 18 -14 17 -20
-3z"/>
<path d="M1140 858 c0 -12 1 -19 3 -17 1 2 9 12 16 22 12 14 11 17 -3 17 -10
0 -16 -8 -16 -22z"/>
<path d="M2287 863 c-12 -11 -8 -23 8 -23 8 0 15 7 15 15 0 16 -12 20 -23 8z"/>
<path d="M1570 845 c-45 -16 -123 -54 -181 -88 -48 -28 -63 -51 -75 -113 l-7
-38 59 51 c32 28 86 70 119 93 53 36 60 39 63 23 3 -22 -91 -238 -116 -266
-17 -19 -53 -20 -59 -1 -2 6 8 25 22 43 15 17 25 39 23 48 -5 26 -50 28 -79 4
-19 -15 -24 -29 -24 -66 0 -40 5 -51 33 -76 22 -20 43 -29 67 -29 27 0 42 -8
71 -40 31 -33 44 -40 75 -40 20 0 45 3 54 6 27 11 58 84 59 138 0 41 -5 53
-28 72 -33 29 -40 30 -66 4 -27 -27 -27 -86 -1 -93 16 -4 21 1 23 22 4 33 20
34 32 0 13 -37 0 -78 -29 -91 -22 -10 -29 -8 -51 13 -24 22 -26 29 -22 89 6
82 74 266 93 250 6 -5 36 -58 66 -116 l54 -106 16 53 c9 30 14 59 10 64 -32
45 -141 183 -152 192 -10 8 -23 7 -49 -2z"/>
<path d="M1394 824 c-23 -34 -13 -39 31 -17 l36 19 -25 12 c-23 10 -28 9 -42
-14z"/>
<path d="M2150 840 c0 -5 4 -10 9 -10 6 0 13 5 16 10 3 6 -1 10 -9 10 -9 0
-16 -4 -16 -10z"/>
<path d="M2723 824 c-8 -22 5 -161 17 -184 24 -44 90 -9 90 47 0 23 -23 32
-35 13 -3 -5 -13 -10 -21 -10 -16 0 -20 75 -4 100 8 12 19 6 61 -37 l52 -51
-45 -69 c-69 -104 -81 -130 -70 -161 8 -24 14 -16 80 108 40 74 72 139 72 145
0 6 -27 34 -59 63 -48 42 -66 52 -96 52 -23 0 -38 -5 -42 -16z"/>
<path d="M3739 810 c-67 -35 -84 -53 -71 -76 9 -16 10 -16 20 3 6 11 34 35 62
53 27 18 50 36 50 41 0 11 4 13 -61 -21z"/>
<path d="M566 814 c-10 -27 -7 -31 42 -60 66 -38 227 -158 284 -212 l49 -46
22 22 22 22 -54 48 c-108 95 -320 242 -350 242 -5 0 -12 -7 -15 -16z"/>
<path d="M2135 811 c-6 -11 9 -23 19 -14 9 9 7 23 -3 23 -6 0 -12 -4 -16 -9z"/>
<path d="M3396 786 c7 -18 13 -20 34 -6 9 6 10 10 3 10 -6 0 -19 3 -27 6 -12
5 -15 2 -10 -10z"/>
<path d="M3163 763 c-18 -7 -16 -23 2 -23 8 0 15 7 15 15 0 8 -1 15 -2 14 -2
0 -9 -3 -15 -6z"/>
<path d="M1457 702 c-10 -10 -17 -22 -17 -26 0 -12 37 13 44 29 8 21 -7 19
-27 -3z"/>
<path d="M2430 710 c-8 -5 -11 -12 -8 -16 10 -9 38 3 38 16 0 12 -10 13 -30 0z"/>
<path d="M2373 703 c-18 -7 -16 -23 2 -23 8 0 15 7 15 15 0 8 -1 15 -2 14 -2
0 -9 -3 -15 -6z"/>
<path d="M3498 679 c-32 -16 -58 -32 -58 -35 0 -3 5 -15 11 -27 l12 -21 8 22
c5 12 29 32 54 44 25 12 45 28 45 35 0 18 -7 16 -72 -18z"/>
<path d="M2320 690 c0 -5 7 -10 16 -10 8 0 12 5 9 10 -3 6 -10 10 -16 10 -5 0
-9 -4 -9 -10z"/>
<path d="M2927 668 c-14 -18 -51 -84 -82 -147 -55 -111 -57 -116 -45 -154 l12
-40 41 104 c46 114 78 174 93 174 14 0 44 -132 47 -207 2 -70 -3 -81 -41 -93
-35 -10 -41 22 -8 51 30 29 32 37 10 58 -32 32 -88 8 -99 -44 -8 -38 18 -93
51 -109 63 -28 154 0 218 69 51 54 66 103 46 151 -11 24 -53 59 -74 59 -14 0
-36 -35 -36 -56 0 -20 5 -24 29 -24 35 0 48 -15 31 -35 -19 -22 -58 -18 -74 8
-14 22 -29 84 -41 165 -9 60 4 57 121 -30 28 -21 54 -38 57 -38 18 0 5 56 -15
70 -79 50 -176 100 -195 100 -13 0 -32 -13 -46 -32z"/>
<path d="M1610 674 c0 -8 5 -12 10 -9 6 3 10 10 10 16 0 5 -4 9 -10 9 -5 0
-10 -7 -10 -16z"/>
<path d="M2036 675 c-3 -9 0 -15 9 -15 8 0 15 7 15 15 0 8 -4 15 -9 15 -5 0
-11 -7 -15 -15z"/>
<path d="M2077 683 c-12 -11 -8 -23 8 -23 8 0 15 7 15 15 0 16 -12 20 -23 8z"/>
<path d="M2120 675 c0 -8 7 -15 15 -15 8 0 15 7 15 15 0 8 -7 15 -15 15 -8 0
-15 -7 -15 -15z"/>
<path d="M2285 680 c3 -5 8 -10 11 -10 2 0 4 5 4 10 0 6 -5 10 -11 10 -5 0 -7
-4 -4 -10z"/>
<path d="M1437 653 c-4 -3 -7 -11 -7 -17 0 -6 5 -5 12 2 6 6 9 14 7 17 -3 3
-9 2 -12 -2z"/>
<path d="M3527 644 c-36 -19 -33 -22 21 -16 27 3 42 9 42 18 0 18 -28 17 -63
-2z"/>
<path d="M1630 630 c0 -11 5 -20 10 -20 6 0 10 9 10 20 0 11 -4 20 -10 20 -5
0 -10 -9 -10 -20z"/>
<path d="M3797 643 c-10 -9 -9 -23 2 -23 5 0 11 7 15 15 5 15 -5 20 -17 8z"/>
<path d="M1596 624 c-4 -9 -4 -19 -1 -22 2 -3 7 3 11 12 4 9 4 19 1 22 -2 3
-7 -3 -11 -12z"/>
<path d="M3760 618 c0 -21 18 -43 27 -34 4 5 3 11 -4 13 -7 2 -9 11 -6 19 3 8
0 14 -6 14 -6 0 -11 -6 -11 -12z"/>
<path d="M3730 600 c0 -5 5 -10 10 -10 6 0 10 5 10 10 0 6 -4 10 -10 10 -5 0
-10 -4 -10 -10z"/>
<path d="M2746 563 c9 -39 10 -39 29 -4 15 31 15 31 -10 31 -23 0 -25 -3 -19
-27z"/>
<path d="M3855 518 c-98 -61 -208 -150 -242 -195 -25 -32 -25 -34 -8 -53 18
-20 19 -19 79 38 86 82 142 125 216 169 63 36 65 39 56 66 -5 15 -12 27 -15
26 -3 0 -42 -23 -86 -51z"/>
<path d="M2288 553 c-10 -2 -18 -13 -18 -24 0 -25 4 -24 24 6 9 14 15 24 14
24 -2 -1 -11 -3 -20 -6z"/>
<path d="M3560 531 c0 -6 5 -13 10 -16 6 -3 10 1 10 9 0 9 -4 16 -10 16 -5 0
-10 -4 -10 -9z"/>
<path d="M2010 510 c0 -22 1 -23 24 -14 23 9 20 34 -4 34 -13 0 -20 -7 -20
-20z"/>
<path d="M2070 515 c0 -8 7 -15 15 -15 8 0 15 7 15 15 0 8 -7 15 -15 15 -8 0
-15 -7 -15 -15z"/>
<path d="M2130 510 c0 -5 5 -10 10 -10 6 0 10 5 10 10 0 6 -4 10 -10 10 -5 0
-10 -4 -10 -10z"/>
<path d="M1572 449 c2 -7 10 -15 17 -17 8 -3 12 1 9 9 -2 7 -10 15 -17 17 -8
3 -12 -1 -9 -9z"/>
<path d="M1230 382 c0 -28 4 -32 38 -37 98 -17 271 -76 352 -121 l44 -25 18
23 c9 13 14 26 10 30 -41 38 -317 142 -409 154 l-53 7 0 -31z"/>
<path d="M2310 330 c0 -5 7 -10 16 -10 8 0 12 5 9 10 -3 6 -10 10 -16 10 -5 0
-9 -4 -9 -10z"/>
<path d="M2347 288 c-4 -12 -4 -24 -1 -27 6 -7 24 20 24 37 0 21 -17 13 -23
-10z"/>
<path d="M3145 269 c-49 -10 -106 -24 -125 -30 -51 -16 -180 -80 -180 -88 0
-5 8 -15 18 -24 17 -15 23 -14 84 18 83 42 177 72 257 81 59 6 61 8 61 35 0
34 3 34 -115 8z"/>
<path d="M2095 164 c-114 -7 -125 -11 -125 -46 0 -30 1 -30 38 -23 56 11 360
7 421 -5 59 -11 68 -8 73 30 3 23 -1 25 -52 32 -76 9 -282 16 -355 12z"/>
</g>
</svg>
