<?xml version="1.0" standalone="no"?>
<!DOCTYPE svg PUBLIC "-//W3C//DTD SVG 20010904//EN"
 "http://www.w3.org/TR/2001/REC-SVG-20010904/DTD/svg10.dtd">
<svg version="1.0" xmlns="http://www.w3.org/2000/svg"
 width="109.000000pt" height="129.000000pt" viewBox="0 0 109.000000 129.000000"
 preserveAspectRatio="xMidYMid meet">
<metadata>
Created by potrace 1.16, written by Peter Selinger 2001-2019
</metadata>
<g transform="translate(0.000000,129.000000) scale(0.100000,-0.100000)"
fill="#000000" stroke="none">
<path d="M510 1193 c-19 -9 -45 -15 -57 -14 -29 3 -168 -17 -209 -30 -17 -5
-41 -21 -54 -34 -20 -21 -22 -28 -12 -50 15 -32 40 -32 51 -1 15 39 78 58 158
46 73 -10 83 -18 83 -70 0 -19 7 -75 15 -125 8 -49 15 -95 15 -101 0 -6 -24
-15 -52 -18 -29 -4 -62 -13 -74 -21 -12 -7 -49 -15 -84 -17 -59 -3 -64 -1 -84
26 -53 73 -48 70 -107 60 -44 -7 -54 -13 -54 -29 0 -16 8 -21 40 -23 34 -2 47
-11 85 -52 l45 -50 100 11 c55 5 110 17 122 25 27 17 63 18 63 2 1 -7 3 -51 6
-98 l5 -86 -97 -29 c-88 -27 -98 -33 -111 -62 -7 -18 -13 -52 -13 -76 0 -43
-21 -77 -47 -77 -19 0 -37 -30 -26 -41 17 -17 89 8 112 38 16 19 21 40 21 84
0 51 3 59 19 59 10 0 38 9 62 20 24 11 56 20 70 20 30 0 27 10 55 -175 9 -60
21 -120 26 -132 13 -27 6 -38 -37 -59 -28 -13 -40 -14 -70 -4 -43 14 -44 29
-5 73 46 53 35 81 -20 52 -45 -23 -62 -56 -58 -111 3 -44 5 -48 38 -60 21 -8
90 -13 175 -13 l141 -1 54 41 c67 50 70 55 73 121 2 52 1 53 -37 71 -49 23
-91 20 -91 -8 0 -15 10 -22 38 -29 32 -8 37 -14 37 -37 0 -25 -21 -58 -38 -60
-4 0 -35 -2 -69 -3 -72 -4 -75 1 -94 111 -6 38 -17 102 -24 143 -8 48 -10 79
-4 85 6 6 54 10 107 11 l97 1 37 -35 c44 -41 122 -60 148 -36 19 19 2 36 -52
49 -34 8 -46 17 -63 50 l-20 40 -133 2 c-74 0 -137 4 -140 8 -4 4 -9 44 -10
90 l-4 84 34 5 c103 18 168 26 205 26 31 0 43 4 46 18 30 109 30 110 60 116
35 7 57 23 57 41 0 23 -29 25 -82 7 -46 -15 -53 -21 -62 -54 -17 -58 -43 -70
-157 -75 -57 -2 -100 0 -103 6 -4 5 -11 47 -16 93 -23 200 -26 174 22 199 34
17 52 20 95 15 59 -7 74 5 53 43 -9 19 -20 21 -88 21 -49 -1 -90 -7 -112 -17z"/>
</g>
</svg>
