<?xml version="1.0" standalone="no"?>
<!DOCTYPE svg PUBLIC "-//W3C//DTD SVG 20010904//EN"
 "http://www.w3.org/TR/2001/REC-SVG-20010904/DTD/svg10.dtd">
<svg version="1.0" xmlns="http://www.w3.org/2000/svg"
 width="162.000000pt" height="144.000000pt" viewBox="0 0 162.000000 144.000000"
 preserveAspectRatio="xMidYMid meet">
<metadata>
Created by potrace 1.16, written by Peter Selinger 2001-2019
</metadata>
<g transform="translate(0.000000,144.000000) scale(0.100000,-0.100000)"
fill="#000000" stroke="none">
<path d="M570 1384 c-6 -14 -10 -30 -10 -35 0 -17 -18 -9 -47 21 -15 17 -31
30 -35 30 -18 0 -6 -38 23 -67 l30 -33 -41 0 c-63 0 -46 -25 17 -26 45 -1 57
-7 102 -45 30 -26 51 -52 51 -64 -1 -38 -32 -63 -95 -75 -121 -23 -175 -68
-175 -146 0 -50 35 -121 76 -153 13 -10 24 -21 24 -23 0 -3 -21 -28 -48 -56
l-47 -52 -52 15 c-29 9 -69 26 -88 38 -34 21 -35 24 -31 67 4 47 -8 85 -25 75
-5 -4 -9 -28 -9 -56 0 -27 -3 -49 -7 -49 -14 0 -60 35 -81 60 -16 20 -23 22
-33 13 -10 -10 -4 -20 27 -50 22 -21 48 -43 59 -49 18 -10 17 -13 -22 -32 -83
-43 -63 -63 22 -23 l59 28 70 -33 c106 -51 121 -48 191 39 20 26 45 47 54 47
9 0 50 -20 90 -45 40 -25 77 -45 82 -45 4 0 23 -12 41 -28 18 -15 50 -35 71
-45 21 -10 37 -24 38 -34 0 -10 2 -54 3 -99 3 -81 9 -104 28 -104 7 0 9 41 6
123 -5 113 -3 125 18 167 13 25 41 87 63 139 38 90 98 191 113 191 4 0 18 10
32 23 14 13 43 29 64 35 42 13 150 16 198 6 l29 -6 0 -91 c0 -112 17 -128 26
-23 4 40 9 79 13 85 5 7 23 4 59 -9 62 -24 67 -24 67 -6 0 8 -10 18 -22 21
-13 4 -45 17 -72 28 l-49 21 43 38 c58 49 44 61 -16 14 -46 -35 -50 -36 -130
-36 -107 0 -171 -14 -227 -50 -52 -33 -60 -32 -191 20 -39 15 -101 33 -137 40
-84 15 -94 21 -80 48 23 43 13 67 -48 120 -58 51 -59 52 -50 89 11 51 11 73
-1 73 -6 0 -15 -12 -20 -26z m70 -318 c0 -9 -54 -132 -64 -146 -6 -8 -20 -32
-30 -52 -28 -56 -69 -51 -109 14 -34 55 -17 116 43 148 46 24 160 50 160 36z
m144 -22 c34 -9 79 -25 102 -35 22 -11 48 -19 58 -19 24 0 76 -28 76 -41 0 -6
-9 -22 -20 -36 -11 -14 -20 -32 -20 -40 0 -8 -11 -33 -24 -56 -14 -23 -34 -71
-46 -107 -22 -67 -44 -100 -65 -100 -7 0 -24 9 -38 21 -31 24 -236 139 -248
139 -21 0 -16 22 15 74 18 30 48 92 66 136 38 91 40 92 144 64z"/>
<path d="M904 238 c24 -61 29 -91 18 -121 -9 -23 -9 -34 -1 -42 8 -7 13 -7 16
1 2 6 10 20 18 30 15 18 17 17 49 -19 45 -50 68 -40 26 11 -16 20 -30 40 -30
45 0 5 28 7 62 5 41 -2 63 1 65 9 5 14 -69 27 -126 21 -38 -3 -40 -2 -55 34
-8 23 -21 38 -31 38 -9 0 -14 -5 -11 -12z"/>
</g>
</svg>
