<?xml version="1.0" standalone="no"?>
<!DOCTYPE svg PUBLIC "-//W3C//DTD SVG 20010904//EN"
 "http://www.w3.org/TR/2001/REC-SVG-20010904/DTD/svg10.dtd">
<svg version="1.0" xmlns="http://www.w3.org/2000/svg"
 width="24.000000pt" height="47.000000pt" viewBox="0 0 24.000000 47.000000"
 preserveAspectRatio="xMidYMid meet">
<metadata>
Created by potrace 1.16, written by Peter Selinger 2001-2019
</metadata>
<g transform="translate(0.000000,47.000000) scale(0.100000,-0.100000)"
fill="#000000" stroke="none">
<path d="M115 436 c-8 -19 -24 -37 -34 -41 -11 -3 -32 -20 -46 -36 -31 -37
-33 -89 -5 -133 l19 -32 -24 -88 c-13 -49 -22 -93 -19 -97 11 -19 24 -7 35 34
7 23 13 43 14 45 1 1 16 -3 33 -9 21 -7 42 -7 66 -1 32 9 36 8 36 -8 0 -10 5
-31 10 -46 8 -20 14 -24 22 -16 8 8 7 34 -5 97 -15 83 -15 88 4 118 35 58 21
130 -31 160 -19 11 -30 28 -34 52 -9 44 -23 45 -41 1z m72 -92 c21 -21 24 -32
20 -61 -9 -53 -32 -73 -84 -73 -38 0 -46 4 -63 33 -26 43 -25 73 5 102 33 34
87 34 122 -1z m-12 -193 c7 -28 -7 -41 -47 -41 -41 0 -58 10 -58 34 0 30 1 31
54 31 39 0 46 -3 51 -24z"/>
<path d="M104 299 c-3 -6 0 -17 7 -25 18 -17 44 -2 36 20 -7 18 -33 21 -43 5z"/>
</g>
</svg>
