<?xml version="1.0" standalone="no"?>
<!DOCTYPE svg PUBLIC "-//W3C//DTD SVG 20010904//EN"
 "http://www.w3.org/TR/2001/REC-SVG-20010904/DTD/svg10.dtd">
<svg version="1.0" xmlns="http://www.w3.org/2000/svg"
 width="32.000000pt" height="47.000000pt" viewBox="0 0 32.000000 47.000000"
 preserveAspectRatio="xMidYMid meet">
<metadata>
Created by potrace 1.16, written by Peter Selinger 2001-2019
</metadata>
<g transform="translate(0.000000,47.000000) scale(0.100000,-0.100000)"
fill="#000000" stroke="none">
<path d="M123 459 c-90 -26 -98 -160 -13 -204 17 -9 30 -17 30 -19 0 -2 -18
-15 -40 -30 -22 -14 -42 -37 -46 -50 -3 -14 -14 -26 -25 -28 -26 -4 -26 -22 0
-26 10 -2 24 -16 31 -32 20 -48 47 -65 101 -65 40 0 54 5 76 28 24 23 28 36
28 81 0 44 -5 59 -24 80 -14 14 -33 26 -43 26 -28 0 -21 16 18 39 20 12 41 35
47 51 6 16 20 30 31 32 29 4 32 28 4 28 -17 0 -27 8 -35 29 -19 51 -81 78
-140 60z m95 -45 c26 -17 31 -77 7 -111 -40 -57 -145 -23 -145 47 0 44 10 61
44 76 33 14 57 11 94 -12z m-25 -225 c27 -12 47 -47 47 -83 0 -60 -88 -98
-129 -57 -45 45 -39 109 11 134 40 20 41 20 71 6z"/>
<path d="M142 358 c2 -12 10 -23 18 -23 22 0 19 39 -3 43 -15 3 -18 -1 -15
-20z"/>
</g>
</svg>
