<?xml version="1.0" standalone="no"?>
<!DOCTYPE svg PUBLIC "-//W3C//DTD SVG 20010904//EN"
 "http://www.w3.org/TR/2001/REC-SVG-20010904/DTD/svg10.dtd">
<svg version="1.0" xmlns="http://www.w3.org/2000/svg"
 width="42.000000pt" height="47.000000pt" viewBox="0 0 42.000000 47.000000"
 preserveAspectRatio="xMidYMid meet">
<metadata>
Created by potrace 1.16, written by Peter Selinger 2001-2019
</metadata>
<g transform="translate(0.000000,47.000000) scale(0.100000,-0.100000)"
fill="#000000" stroke="none">
<path d="M137 456 c-124 -45 -164 -165 -103 -310 19 -46 77 -93 125 -101 31
-5 41 -11 41 -26 0 -10 7 -19 15 -19 10 0 15 10 15 34 0 33 -2 35 -42 41 -109
18 -171 114 -147 227 25 113 137 168 245 119 32 -15 47 -30 68 -72 32 -65 33
-79 3 -79 -16 0 -31 12 -48 37 -33 51 -66 68 -114 59 -80 -15 -116 -87 -78
-159 23 -45 41 -56 91 -57 51 0 86 20 102 60 11 27 17 30 56 30 43 0 44 1 44
33 0 38 -39 125 -66 149 -52 46 -136 59 -207 34z m128 -141 c51 -50 17 -135
-54 -135 -79 0 -111 107 -43 144 40 22 70 19 97 -9z"/>
<path d="M190 261 c0 -26 17 -36 35 -21 18 15 8 40 -16 40 -12 0 -19 -7 -19
-19z"/>
</g>
</svg>
