<?xml version="1.0" standalone="no"?>
<!DOCTYPE svg PUBLIC "-//W3C//DTD SVG 20010904//EN"
 "http://www.w3.org/TR/2001/REC-SVG-20010904/DTD/svg10.dtd">
<svg version="1.0" xmlns="http://www.w3.org/2000/svg"
 width="36.000000pt" height="47.000000pt" viewBox="0 0 36.000000 47.000000"
 preserveAspectRatio="xMidYMid meet">
<metadata>
Created by potrace 1.16, written by Peter Selinger 2001-2019
</metadata>
<g transform="translate(0.000000,47.000000) scale(0.100000,-0.100000)"
fill="#000000" stroke="none">
<path d="M118 464 c-5 -4 -8 -29 -8 -56 0 -35 -4 -48 -14 -48 -25 0 -74 -50
-82 -83 -19 -81 3 -126 72 -153 42 -16 50 -16 87 -3 97 34 102 196 7 232 -25
10 -30 17 -30 45 0 33 1 33 33 27 48 -10 89 -37 115 -76 21 -30 23 -43 20
-116 -3 -80 -4 -83 -42 -122 -40 -41 -62 -53 -134 -71 -51 -13 -52 -36 -1 -32
58 4 157 59 185 102 31 46 42 134 25 196 -15 56 -61 117 -104 137 -41 20 -119
32 -129 21z m59 -153 c37 -23 47 -50 39 -97 -8 -39 -45 -64 -96 -64 -69 0
-108 101 -57 147 41 37 69 41 114 14z"/>
<path d="M106 251 c-9 -14 4 -41 19 -41 17 0 38 27 30 40 -8 12 -42 13 -49 1z"/>
</g>
</svg>
