<?xml version="1.0" standalone="no"?>
<!DOCTYPE svg PUBLIC "-//W3C//DTD SVG 20010904//EN"
 "http://www.w3.org/TR/2001/REC-SVG-20010904/DTD/svg10.dtd">
<svg version="1.0" xmlns="http://www.w3.org/2000/svg"
 width="40.000000pt" height="47.000000pt" viewBox="0 0 40.000000 47.000000"
 preserveAspectRatio="xMidYMid meet">
<metadata>
Created by potrace 1.16, written by Peter Selinger 2001-2019
</metadata>
<g transform="translate(0.000000,47.000000) scale(0.100000,-0.100000)"
fill="#000000" stroke="none">
<path d="M265 455 c-43 -15 -85 -56 -85 -83 0 -9 -19 -28 -41 -41 -25 -13 -46
-35 -52 -52 -9 -24 -17 -29 -44 -29 -23 0 -33 -5 -33 -15 0 -10 10 -15 33 -15
28 0 34 -4 42 -32 6 -20 25 -42 48 -58 20 -14 46 -40 57 -58 23 -37 88 -71
138 -72 54 0 40 27 -22 40 -71 15 -131 70 -76 70 26 0 68 41 81 80 9 24 17 29
47 32 47 4 56 28 10 28 -27 0 -40 9 -76 50 -24 28 -52 50 -63 50 -56 0 18 74
84 84 31 5 47 12 47 22 0 18 -42 18 -95 -1z m-30 -149 c42 -18 59 -48 51 -91
-13 -70 -98 -95 -151 -45 -23 21 -26 31 -22 65 4 26 15 48 32 62 31 27 44 28
90 9z"/>
<path d="M174 239 c-3 -6 1 -18 10 -27 15 -15 17 -15 32 0 9 9 13 21 10 27 -9
14 -43 14 -52 0z"/>
</g>
</svg>
