<?xml version="1.0" standalone="no"?>
<!DOCTYPE svg PUBLIC "-//W3C//DTD SVG 20010904//EN"
 "http://www.w3.org/TR/2001/REC-SVG-20010904/DTD/svg10.dtd">
<svg version="1.0" xmlns="http://www.w3.org/2000/svg"
 width="41.000000pt" height="47.000000pt" viewBox="0 0 41.000000 47.000000"
 preserveAspectRatio="xMidYMid meet">
<metadata>
Created by potrace 1.16, written by Peter Selinger 2001-2019
</metadata>
<g transform="translate(0.000000,47.000000) scale(0.100000,-0.100000)"
fill="#000000" stroke="none">
<path d="M72 454 c-70 -36 -87 -114 -39 -177 15 -20 39 -40 52 -43 24 -6 25
-10 25 -77 0 -59 -4 -75 -25 -103 -38 -49 -29 -77 10 -34 23 25 33 25 62 -2
35 -33 51 -10 20 28 -13 16 -26 44 -29 61 -5 33 -4 33 39 33 37 0 44 3 41 18
-2 12 -14 18 -41 20 -20 2 -37 7 -37 12 0 5 -3 15 -6 23 -4 11 5 18 30 27 19
6 36 16 39 23 2 8 18 2 46 -16 40 -27 44 -28 61 -12 26 23 94 124 89 130 -3 2
-42 7 -87 11 -64 5 -83 10 -87 24 -18 56 -103 84 -163 54z m116 -47 c14 -13
22 -32 22 -53 0 -46 -9 -63 -41 -79 -44 -23 -74 -19 -103 16 -74 88 36 193
122 116z m162 -75 c0 -4 -12 -22 -27 -40 l-28 -32 -29 24 c-42 35 -30 56 34
56 27 0 50 -4 50 -8z"/>
<path d="M103 354 c-6 -17 14 -36 32 -31 6 2 11 13 13 25 3 17 -2 22 -18 22
-11 0 -23 -7 -27 -16z"/>
</g>
</svg>
