<?xml version="1.0" standalone="no"?>
<!DOCTYPE svg PUBLIC "-//W3C//DTD SVG 20010904//EN"
 "http://www.w3.org/TR/2001/REC-SVG-20010904/DTD/svg10.dtd">
<svg version="1.0" xmlns="http://www.w3.org/2000/svg"
 width="25.000000pt" height="47.000000pt" viewBox="0 0 25.000000 47.000000"
 preserveAspectRatio="xMidYMid meet">
<metadata>
Created by potrace 1.16, written by Peter Selinger 2001-2019
</metadata>
<g transform="translate(0.000000,47.000000) scale(0.100000,-0.100000)"
fill="#000000" stroke="none">
<path d="M44 456 c-44 -19 -48 -30 -25 -73 17 -34 17 -42 5 -63 -23 -43 -17
-88 17 -122 l30 -31 -23 -24 c-19 -20 -20 -26 -8 -34 65 -43 180 -109 189
-109 35 0 1 29 -122 104 -34 21 -28 32 32 58 25 10 54 26 63 35 24 22 32 75
18 115 -11 29 -10 39 4 65 9 18 13 39 10 48 -16 41 -125 59 -190 31z m143 -29
c19 -11 21 -15 10 -36 -7 -13 -16 -23 -22 -22 -5 1 -21 5 -34 8 -14 3 -37 1
-52 -4 -24 -9 -28 -8 -38 14 -6 13 -11 28 -11 33 0 20 114 25 147 7z m-32 -91
c60 -26 61 -104 1 -133 -47 -22 -83 -11 -103 32 -14 29 -14 38 -3 65 11 28 36
47 63 49 4 1 23 -5 42 -13z"/>
<path d="M100 270 c0 -13 7 -20 20 -20 13 0 20 7 20 20 0 13 -7 20 -20 20 -13
0 -20 -7 -20 -20z"/>
</g>
</svg>
