<?xml version="1.0" standalone="no"?>
<!DOCTYPE svg PUBLIC "-//W3C//DTD SVG 20010904//EN"
 "http://www.w3.org/TR/2001/REC-SVG-20010904/DTD/svg10.dtd">
<svg version="1.0" xmlns="http://www.w3.org/2000/svg"
 width="48.000000pt" height="47.000000pt" viewBox="0 0 48.000000 47.000000"
 preserveAspectRatio="xMidYMid meet">
<metadata>
Created by potrace 1.16, written by Peter Selinger 2001-2019
</metadata>
<g transform="translate(0.000000,47.000000) scale(0.100000,-0.100000)"
fill="#000000" stroke="none">
<path d="M280 457 c0 -8 19 -26 43 -40 54 -32 92 -73 111 -118 18 -43 14 -49
-31 -49 -26 0 -33 4 -33 19 0 53 -91 107 -153 90 -49 -13 -84 -44 -92 -79 -6
-26 -11 -30 -41 -30 -28 0 -34 4 -34 20 0 12 7 34 15 49 15 29 101 111 116
111 5 0 9 7 9 15 0 23 -21 18 -76 -19 -87 -59 -128 -180 -93 -273 21 -57 136
-153 184 -153 28 0 15 26 -21 44 -78 37 -119 79 -138 144 -7 20 -4 22 32 22
35 0 42 -5 65 -39 33 -49 79 -67 136 -51 36 10 91 58 91 81 0 5 16 9 35 9 39
0 44 -13 21 -59 -15 -28 -72 -83 -115 -112 -15 -9 -21 -20 -17 -27 17 -28 137
67 167 133 45 98 8 220 -85 280 -64 41 -96 52 -96 32z m39 -163 c46 -54 3
-144 -69 -144 -46 0 -77 22 -88 63 -26 96 91 156 157 81z"/>
<path d="M230 255 c-15 -18 -6 -45 13 -45 8 0 20 6 26 14 9 11 8 18 -4 30 -20
20 -20 20 -35 1z"/>
</g>
</svg>
