<?xml version="1.0" standalone="no"?>
<!DOCTYPE svg PUBLIC "-//W3C//DTD SVG 20010904//EN"
 "http://www.w3.org/TR/2001/REC-SVG-20010904/DTD/svg10.dtd">
<svg version="1.0" xmlns="http://www.w3.org/2000/svg"
 width="23.000000pt" height="47.000000pt" viewBox="0 0 23.000000 47.000000"
 preserveAspectRatio="xMidYMid meet">
<metadata>
Created by potrace 1.16, written by Peter Selinger 2001-2019
</metadata>
<g transform="translate(0.000000,47.000000) scale(0.100000,-0.100000)"
fill="#000000" stroke="none">
<path d="M100 405 c0 -56 -2 -65 -18 -65 -25 0 -60 -39 -72 -79 -14 -51 17
-113 67 -132 20 -8 23 -15 23 -69 0 -47 3 -60 15 -60 12 0 15 14 15 65 0 56 2
65 18 65 45 0 90 86 72 136 -15 39 -49 74 -72 74 -16 0 -18 9 -18 65 0 51 -3
65 -15 65 -12 0 -15 -14 -15 -65z m83 -137 c23 -47 10 -84 -37 -103 -64 -27
-110 10 -104 83 2 30 9 40 36 53 46 24 83 12 105 -33z"/>
<path d="M94 245 c-4 -9 -2 -21 4 -27 15 -15 44 -1 40 19 -4 23 -36 29 -44 8z"/>
</g>
</svg>
