<?xml version="1.0" standalone="no"?>
<!DOCTYPE svg PUBLIC "-//W3C//DTD SVG 20010904//EN"
 "http://www.w3.org/TR/2001/REC-SVG-20010904/DTD/svg10.dtd">
<svg version="1.0" xmlns="http://www.w3.org/2000/svg"
 width="31.000000pt" height="47.000000pt" viewBox="0 0 31.000000 47.000000"
 preserveAspectRatio="xMidYMid meet">
<metadata>
Created by potrace 1.16, written by Peter Selinger 2001-2019
</metadata>
<g transform="translate(0.000000,47.000000) scale(0.100000,-0.100000)"
fill="#000000" stroke="none">
<path d="M252 446 c-19 -24 -20 -24 -63 -9 -40 14 -47 14 -81 0 -97 -41 -104
-174 -11 -224 l34 -18 -3 -75 c-3 -63 -6 -75 -21 -78 -36 -7 -67 7 -67 31 0
33 -16 55 -30 41 -17 -17 2 -75 33 -98 22 -16 33 -18 64 -10 48 12 63 40 63
124 0 65 0 65 38 85 22 12 44 35 55 57 15 31 16 43 6 83 -11 44 -10 47 15 74
14 15 23 30 19 34 -13 13 -32 7 -51 -17z m-57 -42 c22 -9 45 -56 45 -93 0 -51
-76 -95 -126 -72 -24 11 -54 64 -54 96 0 9 13 30 29 46 29 29 68 37 106 23z"/>
<path d="M130 334 c-11 -12 -10 -18 3 -32 16 -15 18 -15 34 0 13 14 14 20 3
32 -7 9 -16 16 -20 16 -4 0 -13 -7 -20 -16z"/>
</g>
</svg>
