<?xml version="1.0" standalone="no"?>
<!DOCTYPE svg PUBLIC "-//W3C//DTD SVG 20010904//EN"
 "http://www.w3.org/TR/2001/REC-SVG-20010904/DTD/svg10.dtd">
<svg version="1.0" xmlns="http://www.w3.org/2000/svg"
 width="33.000000pt" height="47.000000pt" viewBox="0 0 33.000000 47.000000"
 preserveAspectRatio="xMidYMid meet">
<metadata>
Created by potrace 1.16, written by Peter Selinger 2001-2019
</metadata>
<g transform="translate(0.000000,47.000000) scale(0.100000,-0.100000)"
fill="#000000" stroke="none">
<path d="M107 463 c-4 -3 -7 -32 -7 -64 0 -52 -2 -57 -25 -63 -31 -8 -65 -60
-65 -101 0 -40 34 -93 64 -101 23 -5 25 -11 28 -67 2 -37 8 -62 16 -65 9 -3
12 14 12 62 0 59 2 66 20 66 10 0 31 15 47 34 l27 35 37 -30 c36 -28 59 -37
59 -22 0 4 -19 27 -42 50 l-42 43 44 45 c43 44 49 66 13 47 -10 -6 -28 -21
-41 -35 l-23 -24 -33 33 c-19 19 -41 34 -50 34 -13 0 -16 12 -16 65 0 60 -6
75 -23 58z m70 -175 c7 -6 13 -30 13 -54 0 -50 -25 -74 -77 -74 -81 0 -104
114 -29 145 30 13 65 7 93 -17z"/>
<path d="M102 247 c-15 -17 1 -42 23 -33 18 6 17 37 -1 43 -6 2 -16 -2 -22
-10z"/>
</g>
</svg>
