<?xml version="1.0" standalone="no"?>
<!DOCTYPE svg PUBLIC "-//W3C//DTD SVG 20010904//EN"
 "http://www.w3.org/TR/2001/REC-SVG-20010904/DTD/svg10.dtd">
<svg version="1.0" xmlns="http://www.w3.org/2000/svg"
 width="37.000000pt" height="47.000000pt" viewBox="0 0 37.000000 47.000000"
 preserveAspectRatio="xMidYMid meet">
<metadata>
Created by potrace 1.16, written by Peter Selinger 2001-2019
</metadata>
<g transform="translate(0.000000,47.000000) scale(0.100000,-0.100000)"
fill="#000000" stroke="none">
<path d="M6 462 c-3 -5 10 -24 29 -42 33 -32 33 -33 18 -65 -22 -46 -10 -100
32 -142 18 -18 40 -33 49 -33 13 0 16 -13 16 -73 0 -101 10 -109 121 -105 82
3 84 4 87 29 4 38 -30 64 -84 63 -27 -1 -52 -8 -64 -19 -20 -18 -20 -17 -20
42 0 56 2 61 24 67 34 8 86 71 86 104 0 43 -19 98 -40 117 -27 24 -77 33 -128
22 -40 -8 -46 -7 -71 17 -28 27 -46 32 -55 18z m209 -68 c22 -9 45 -57 45 -97
0 -42 -33 -76 -83 -84 -31 -5 -40 -1 -67 25 -74 75 5 194 105 156z m100 -344
c4 -6 -12 -10 -42 -10 -35 0 -44 3 -33 10 20 13 67 13 75 0z"/>
<path d="M144 315 c-4 -9 -2 -21 4 -27 16 -16 47 -5 47 17 0 26 -42 34 -51 10z"/>
</g>
</svg>
