<?xml version="1.0" standalone="no"?>
<!DOCTYPE svg PUBLIC "-//W3C//DTD SVG 20010904//EN"
 "http://www.w3.org/TR/2001/REC-SVG-20010904/DTD/svg10.dtd">
<svg version="1.0" xmlns="http://www.w3.org/2000/svg"
 width="59.000000pt" height="47.000000pt" viewBox="0 0 59.000000 47.000000"
 preserveAspectRatio="xMidYMid meet">
<metadata>
Created by potrace 1.16, written by Peter Selinger 2001-2019
</metadata>
<g transform="translate(0.000000,47.000000) scale(0.100000,-0.100000)"
fill="#000000" stroke="none">
<path d="M207 455 c-21 -8 -51 -23 -66 -35 -36 -25 -43 -25 -66 0 -19 21 -40
26 -49 12 -3 -5 6 -24 19 -43 l25 -34 -31 -60 c-28 -55 -30 -66 -26 -130 6
-80 26 -144 50 -159 28 -18 31 2 8 69 -11 36 -21 82 -21 103 0 79 80 199 155
233 67 31 75 27 75 -34 l0 -54 -39 -12 c-46 -13 -75 -49 -92 -112 -11 -39 -9
-50 9 -92 38 -85 141 -110 228 -56 91 56 83 187 -17 249 -48 29 -49 30 -49 81
l0 51 38 -6 c99 -18 177 -125 177 -245 0 -50 -5 -75 -22 -104 -44 -74 -15 -95
33 -25 27 38 29 49 29 128 0 74 -4 93 -27 137 -23 45 -25 53 -12 64 26 21 37
50 25 62 -8 8 -18 4 -37 -14 l-26 -26 -55 30 c-67 36 -173 46 -236 22z m145
-186 c11 -6 28 -30 39 -53 32 -74 -1 -136 -81 -152 -85 -17 -153 85 -110 166
22 41 107 63 152 39z"/>
<path d="M275 191 c-14 -17 -15 -23 -5 -36 16 -19 34 -19 50 1 11 12 10 18 -6
35 -20 20 -20 20 -39 0z"/>
</g>
</svg>
