<?xml version="1.0" standalone="no"?>
<!DOCTYPE svg PUBLIC "-//W3C//DTD SVG 20010904//EN"
 "http://www.w3.org/TR/2001/REC-SVG-20010904/DTD/svg10.dtd">
<svg version="1.0" xmlns="http://www.w3.org/2000/svg"
 width="53.000000pt" height="47.000000pt" viewBox="0 0 53.000000 47.000000"
 preserveAspectRatio="xMidYMid meet">
<metadata>
Created by potrace 1.16, written by Peter Selinger 2001-2019
</metadata>
<g transform="translate(0.000000,47.000000) scale(0.100000,-0.100000)"
fill="#000000" stroke="none">
<path d="M495 458 c-4 -11 -45 -329 -45 -350 0 -5 -16 3 -35 17 -33 26 -34 28
-20 55 21 40 19 84 -5 130 -35 68 -121 91 -188 50 l-33 -21 -46 41 c-75 65
-72 71 -98 -170 -19 -175 -19 -210 0 -210 8 0 15 2 15 5 0 13 42 350 44 352 1
1 16 -9 33 -23 28 -21 31 -28 23 -54 -30 -105 74 -203 178 -167 39 13 39 13
88 -30 78 -68 75 -73 98 157 22 210 22 223 8 228 -6 2 -14 -2 -17 -10z m-145
-153 c19 -20 22 -32 17 -72 -9 -79 -69 -113 -137 -78 -81 42 -79 139 4 176 45
20 80 12 116 -26z"/>
<path d="M246 254 c-9 -22 17 -49 39 -40 10 3 15 15 13 28 -4 29 -42 37 -52
12z"/>
</g>
</svg>
