<?xml version="1.0" standalone="no"?>
<!DOCTYPE svg PUBLIC "-//W3C//DTD SVG 20010904//EN"
 "http://www.w3.org/TR/2001/REC-SVG-20010904/DTD/svg10.dtd">
<svg version="1.0" xmlns="http://www.w3.org/2000/svg"
 width="48.000000pt" height="47.000000pt" viewBox="0 0 48.000000 47.000000"
 preserveAspectRatio="xMidYMid meet">
<metadata>
Created by potrace 1.16, written by Peter Selinger 2001-2019
</metadata>
<g transform="translate(0.000000,47.000000) scale(0.100000,-0.100000)"
fill="#000000" stroke="none">
<path d="M184 459 c-56 -16 -127 -71 -151 -118 -63 -120 8 -291 136 -330 58
-17 111 -13 166 13 157 73 189 253 67 375 -65 64 -136 84 -218 60z m147 -50
c80 -40 117 -112 106 -205 -7 -69 -74 -143 -144 -163 l-33 -10 0 38 c0 34 4
40 31 51 41 18 69 65 69 118 0 59 -14 80 -67 104 -58 25 -103 18 -137 -23 -56
-66 -34 -171 42 -200 17 -7 22 -16 22 -44 0 -41 -13 -44 -68 -16 -67 35 -112
104 -112 173 0 75 75 180 138 194 15 3 32 7 37 9 18 6 80 -7 116 -26z m-19
-119 c20 -25 23 -71 7 -102 -6 -11 -27 -26 -46 -35 -46 -19 -86 -4 -107 42
-23 48 -20 70 16 100 27 23 39 26 72 22 25 -4 48 -14 58 -27z"/>
<path d="M222 248 c-15 -18 1 -41 24 -36 23 4 26 41 3 46 -9 1 -21 -3 -27 -10z"/>
</g>
</svg>
