<?xml version="1.0" standalone="no"?>
<!DOCTYPE svg PUBLIC "-//W3C//DTD SVG 20010904//EN"
 "http://www.w3.org/TR/2001/REC-SVG-20010904/DTD/svg10.dtd">
<svg version="1.0" xmlns="http://www.w3.org/2000/svg"
 width="30.000000pt" height="47.000000pt" viewBox="0 0 30.000000 47.000000"
 preserveAspectRatio="xMidYMid meet">
<metadata>
Created by potrace 1.16, written by Peter Selinger 2001-2019
</metadata>
<g transform="translate(0.000000,47.000000) scale(0.100000,-0.100000)"
fill="#000000" stroke="none">
<path d="M4 459 c-3 -6 8 -26 26 -44 30 -31 32 -36 21 -62 -8 -19 -11 -83 -9
-188 3 -143 5 -160 21 -163 15 -3 17 7 17 97 0 56 2 101 5 101 4 0 19 -7 36
-15 79 -41 193 47 173 133 -23 93 -99 137 -178 101 -22 -10 -29 -8 -61 20 -40
35 -41 35 -51 20z m211 -75 c20 -8 45 -56 45 -87 0 -55 -72 -100 -129 -82 -56
17 -72 113 -26 152 26 23 75 30 110 17z"/>
<path d="M153 323 c-17 -6 -16 -28 0 -42 10 -8 19 -7 32 3 16 12 17 16 6 30
-14 17 -18 18 -38 9z"/>
</g>
</svg>
