<?xml version="1.0" standalone="no"?>
<!DOCTYPE svg PUBLIC "-//W3C//DTD SVG 20010904//EN"
 "http://www.w3.org/TR/2001/REC-SVG-20010904/DTD/svg10.dtd">
<svg version="1.0" xmlns="http://www.w3.org/2000/svg"
 width="48.000000pt" height="47.000000pt" viewBox="0 0 48.000000 47.000000"
 preserveAspectRatio="xMidYMid meet">
<metadata>
Created by potrace 1.16, written by Peter Selinger 2001-2019
</metadata>
<g transform="translate(0.000000,47.000000) scale(0.100000,-0.100000)"
fill="#000000" stroke="none">
<path d="M105 455 c-113 -40 -140 -188 -48 -264 51 -42 105 -54 160 -35 l45
15 88 -85 c83 -80 120 -103 120 -74 0 6 -12 27 -26 45 l-26 35 26 27 c48 50
23 81 -27 33 l-32 -30 -43 37 -43 38 17 52 c30 92 5 157 -76 199 -51 25 -79
27 -135 7z m127 -47 c47 -24 63 -126 28 -171 -42 -54 -141 -60 -179 -11 -42
53 -36 127 12 172 33 31 91 35 139 10z"/>
<path d="M141 326 c-26 -31 14 -71 45 -45 8 7 14 22 12 33 -4 26 -40 33 -57
12z"/>
</g>
</svg>
