<?xml version="1.0" standalone="no"?>
<!DOCTYPE svg PUBLIC "-//W3C//DTD SVG 20010904//EN"
 "http://www.w3.org/TR/2001/REC-SVG-20010904/DTD/svg10.dtd">
<svg version="1.0" xmlns="http://www.w3.org/2000/svg"
 width="33.000000pt" height="47.000000pt" viewBox="0 0 33.000000 47.000000"
 preserveAspectRatio="xMidYMid meet">
<metadata>
Created by potrace 1.16, written by Peter Selinger 2001-2019
</metadata>
<g transform="translate(0.000000,47.000000) scale(0.100000,-0.100000)"
fill="#000000" stroke="none">
<path d="M150 451 c0 -15 -15 -28 -57 -50 -32 -16 -67 -39 -78 -51 l-20 -22
34 -28 c26 -23 34 -37 35 -68 5 -98 94 -141 169 -82 20 16 27 17 42 6 20 -15
16 -18 -78 -77 -37 -22 -48 -34 -45 -51 4 -27 28 -36 28 -11 0 11 19 29 48 46
104 63 121 91 68 115 -18 8 -24 21 -28 57 -10 84 -76 123 -148 87 -28 -13 -43
-16 -59 -8 -12 5 -20 13 -19 18 2 4 32 25 68 46 51 30 65 43 65 61 0 14 -6 26
-12 29 -8 2 -13 -5 -13 -17z m65 -166 c30 -30 34 -84 7 -108 -31 -28 -77 -32
-101 -8 -55 55 -25 138 52 140 10 1 29 -10 42 -24z"/>
<path d="M145 240 c-4 -7 -3 -16 3 -22 14 -14 45 -2 40 15 -6 16 -34 21 -43 7z"/>
</g>
</svg>
