<?xml version="1.0" standalone="no"?>
<!DOCTYPE svg PUBLIC "-//W3C//DTD SVG 20010904//EN"
 "http://www.w3.org/TR/2001/REC-SVG-20010904/DTD/svg10.dtd">
<svg version="1.0" xmlns="http://www.w3.org/2000/svg"
 width="38.000000pt" height="48.000000pt" viewBox="0 0 38.000000 48.000000"
 preserveAspectRatio="xMidYMid meet">
<metadata>
Created by potrace 1.16, written by Peter Selinger 2001-2019
</metadata>
<g transform="translate(0.000000,48.000000) scale(0.100000,-0.100000)"
fill="#000000" stroke="none">
<path d="M5 460 c-14 -22 10 -30 86 -30 l79 0 0 -68 0 -68 -38 -17 c-51 -22
-82 -78 -82 -147 0 -43 5 -56 28 -80 16 -15 47 -34 70 -41 53 -16 113 0 154
41 25 25 28 35 28 93 0 59 -3 68 -30 95 -16 17 -43 33 -60 37 l-30 7 0 74 0
74 85 0 c78 0 85 2 85 20 0 19 -7 20 -184 20 -113 0 -187 -4 -191 -10z m241
-225 c12 -8 29 -30 38 -50 14 -29 15 -42 7 -68 -19 -54 -49 -77 -99 -77 -61 0
-102 40 -102 100 0 53 14 78 53 95 42 18 78 18 103 0z"/>
<path d="M165 160 c-9 -14 4 -50 18 -50 22 0 39 17 35 36 -4 21 -42 31 -53 14z"/>
</g>
</svg>
