<?xml version="1.0" standalone="no"?>
<!DOCTYPE svg PUBLIC "-//W3C//DTD SVG 20010904//EN"
 "http://www.w3.org/TR/2001/REC-SVG-20010904/DTD/svg10.dtd">
<svg version="1.0" xmlns="http://www.w3.org/2000/svg"
 width="64.000000pt" height="47.000000pt" viewBox="0 0 64.000000 47.000000"
 preserveAspectRatio="xMidYMid meet">
<metadata>
Created by potrace 1.16, written by Peter Selinger 2001-2019
</metadata>
<g transform="translate(0.000000,47.000000) scale(0.100000,-0.100000)"
fill="#000000" stroke="none">
<path d="M243 454 c-23 -11 -41 -33 -59 -70 -26 -54 -27 -76 -9 -140 5 -15 -2
-32 -25 -58 -18 -20 -36 -36 -41 -36 -14 0 -47 72 -54 121 -8 54 -19 74 -34
65 -21 -13 -12 -89 18 -151 59 -125 144 -180 276 -179 67 0 89 5 132 27 111
57 171 136 180 236 4 39 2 61 -6 66 -17 10 -19 6 -36 -59 -16 -62 -51 -136
-64 -136 -4 0 -25 15 -46 33 l-38 33 18 34 c36 69 11 164 -54 207 -41 28 -110
30 -158 7z m127 -39 c16 -9 36 -29 45 -45 57 -110 -75 -223 -166 -142 -26 23
-32 38 -37 80 -5 59 9 84 63 108 39 17 60 17 95 -1z m-97 -247 c25 -9 27 -14
27 -63 0 -30 -4 -56 -9 -59 -13 -8 -70 13 -114 42 l-38 25 38 39 c24 25 43 36
53 32 8 -3 27 -11 43 -16z m169 -25 c21 -20 38 -40 38 -44 0 -10 -95 -49 -119
-49 -19 0 -21 6 -21 54 0 50 2 55 28 64 15 6 29 11 32 11 2 1 21 -16 42 -36z"/>
<path d="M291 332 c-11 -21 3 -52 23 -52 21 0 38 27 31 50 -8 25 -41 26 -54 2z"/>
</g>
</svg>
