<?xml version="1.0" standalone="no"?>
<!DOCTYPE svg PUBLIC "-//W3C//DTD SVG 20010904//EN"
 "http://www.w3.org/TR/2001/REC-SVG-20010904/DTD/svg10.dtd">
<svg version="1.0" xmlns="http://www.w3.org/2000/svg"
 width="36.000000pt" height="47.000000pt" viewBox="0 0 36.000000 47.000000"
 preserveAspectRatio="xMidYMid meet">
<metadata>
Created by potrace 1.16, written by Peter Selinger 2001-2019
</metadata>
<g transform="translate(0.000000,47.000000) scale(0.100000,-0.100000)"
fill="#000000" stroke="none">
<path d="M309 445 c-25 -25 -25 -25 -65 -9 -52 22 -143 21 -190 -2 -68 -34
-69 -64 -8 -155 28 -42 33 -57 25 -69 -37 -50 -44 -79 -33 -119 25 -80 99
-112 172 -72 64 33 79 110 36 174 l-24 35 24 23 c32 30 67 105 61 130 -4 13 2
25 19 35 13 9 24 25 24 35 0 26 -11 24 -41 -6z m-87 -37 c62 -18 63 -51 6
-126 -29 -37 -37 -42 -74 -42 -39 0 -44 3 -77 53 -49 71 -50 88 -7 109 41 21
96 23 152 6z m-10 -224 c23 -21 33 -76 19 -103 -7 -11 -25 -28 -41 -36 -24
-12 -35 -13 -66 -2 -97 32 -60 180 40 162 16 -3 38 -13 48 -21z"/>
<path d="M137 143 c-15 -14 -7 -43 12 -43 26 0 36 17 21 35 -14 16 -23 19 -33
8z"/>
</g>
</svg>
