<?xml version="1.0" standalone="no"?>
<!DOCTYPE svg PUBLIC "-//W3C//DTD SVG 20010904//EN"
 "http://www.w3.org/TR/2001/REC-SVG-20010904/DTD/svg10.dtd">
<svg version="1.0" xmlns="http://www.w3.org/2000/svg"
 width="49.000000pt" height="47.000000pt" viewBox="0 0 49.000000 47.000000"
 preserveAspectRatio="xMidYMid meet">
<metadata>
Created by potrace 1.16, written by Peter Selinger 2001-2019
</metadata>
<g transform="translate(0.000000,47.000000) scale(0.100000,-0.100000)"
fill="#000000" stroke="none">
<path d="M230 375 l0 -95 -32 -14 c-18 -8 -45 -23 -60 -33 -27 -17 -28 -17
-57 11 -19 18 -31 42 -35 69 -8 50 -20 72 -35 63 -36 -23 12 -151 66 -176 28
-13 33 -20 33 -53 0 -89 44 -139 128 -145 51 -4 62 -1 89 22 35 29 68 104 59
133 -3 13 4 24 27 38 39 25 67 80 70 137 2 32 -2 43 -13 43 -9 0 -17 -15 -22
-44 -8 -50 -29 -85 -58 -101 -16 -9 -26 -6 -53 13 -17 14 -42 28 -54 32 -22 6
-23 12 -23 101 0 77 -3 94 -15 94 -12 0 -15 -17 -15 -95z m93 -175 c31 -35 34
-58 10 -107 -23 -48 -70 -69 -115 -50 -54 23 -70 48 -66 103 3 43 7 51 38 72
46 31 94 25 133 -18z"/>
<path d="M224 155 c-8 -21 2 -45 19 -45 8 0 20 7 27 15 10 12 10 18 0 30 -7 8
-19 15 -27 15 -7 0 -16 -7 -19 -15z"/>
</g>
</svg>
