<?xml version="1.0" standalone="no"?>
<!DOCTYPE svg PUBLIC "-//W3C//DTD SVG 20010904//EN"
 "http://www.w3.org/TR/2001/REC-SVG-20010904/DTD/svg10.dtd">
<svg version="1.0" xmlns="http://www.w3.org/2000/svg"
 width="47.000000pt" height="48.000000pt" viewBox="0 0 47.000000 48.000000"
 preserveAspectRatio="xMidYMid meet">
<metadata>
Created by potrace 1.16, written by Peter Selinger 2001-2019
</metadata>
<g transform="translate(0.000000,48.000000) scale(0.100000,-0.100000)"
fill="#000000" stroke="none">
<path d="M0 468 c0 -7 23 -36 52 -65 l51 -52 -11 -39 c-15 -49 -15 -90 -1
-131 11 -30 9 -34 -40 -86 -50 -52 -64 -85 -38 -85 7 0 38 22 69 50 l56 50 48
-17 c47 -16 78 -13 135 11 11 5 32 -8 66 -39 28 -25 56 -45 61 -45 29 0 19 27
-27 74 -51 52 -52 53 -36 82 19 37 19 85 0 130 l-15 36 50 57 c28 32 50 61 50
64 0 4 -10 7 -22 7 -13 0 -41 -19 -68 -45 l-45 -44 -46 13 c-45 14 -65 12
-134 -9 -15 -4 -32 6 -70 45 -47 47 -85 65 -85 38z m293 -125 c46 -23 56 -41
57 -96 0 -61 -13 -85 -55 -103 -58 -24 -103 -18 -136 17 -39 42 -46 86 -21
136 32 61 91 79 155 46z"/>
<path d="M211 258 c-11 -29 5 -50 33 -46 13 2 22 12 24 27 6 41 -43 57 -57 19z"/>
</g>
</svg>
