<?xml version="1.0" standalone="no"?>
<!DOCTYPE svg PUBLIC "-//W3C//DTD SVG 20010904//EN"
 "http://www.w3.org/TR/2001/REC-SVG-20010904/DTD/svg10.dtd">
<svg version="1.0" xmlns="http://www.w3.org/2000/svg"
 width="32.000000pt" height="48.000000pt" viewBox="0 0 32.000000 48.000000"
 preserveAspectRatio="xMidYMid meet">
<metadata>
Created by potrace 1.16, written by Peter Selinger 2001-2019
</metadata>
<g transform="translate(0.000000,48.000000) scale(0.100000,-0.100000)"
fill="#000000" stroke="none">
<path d="M6 472 c-3 -4 10 -24 29 -45 32 -35 33 -37 20 -73 -21 -61 11 -137
66 -157 27 -11 29 -15 29 -64 0 -49 -2 -54 -35 -75 -57 -37 -44 -63 16 -32 28
14 32 14 49 -1 10 -9 28 -15 41 -13 28 4 38 28 11 28 -34 0 -52 32 -52 91 0
54 1 54 40 71 62 26 89 108 55 168 -13 23 -11 27 17 57 41 42 27 65 -16 26
-29 -27 -36 -29 -109 -28 -69 1 -83 5 -112 28 -37 29 -41 31 -49 19z m205 -82
c29 -16 51 -67 44 -101 -8 -33 -55 -69 -92 -69 -34 0 -73 40 -80 82 -5 32 -1
41 25 68 32 31 68 38 103 20z"/>
<path d="M150 325 c-15 -18 -5 -35 20 -35 10 0 22 5 25 10 7 11 -12 40 -25 40
-4 0 -13 -7 -20 -15z"/>
</g>
</svg>
