<?xml version="1.0" standalone="no"?>
<!DOCTYPE svg PUBLIC "-//W3C//DTD SVG 20010904//EN"
 "http://www.w3.org/TR/2001/REC-SVG-20010904/DTD/svg10.dtd">
<svg version="1.0" xmlns="http://www.w3.org/2000/svg"
 width="26.000000pt" height="48.000000pt" viewBox="0 0 26.000000 48.000000"
 preserveAspectRatio="xMidYMid meet">
<metadata>
Created by potrace 1.16, written by Peter Selinger 2001-2019
</metadata>
<g transform="translate(0.000000,48.000000) scale(0.100000,-0.100000)"
fill="#000000" stroke="none">
<path d="M7 473 c-13 -13 -7 -22 22 -28 16 -3 46 -21 66 -39 l38 -32 -40 -12
c-62 -18 -88 -53 -88 -117 0 -49 3 -57 51 -111 70 -81 130 -126 163 -122 31 4
35 31 4 33 -24 2 -93 50 -93 66 0 5 11 9 24 9 33 0 82 43 96 85 17 52 -1 93
-75 173 -75 81 -144 120 -168 95z m163 -153 c43 -22 57 -52 45 -98 -16 -65
-81 -92 -135 -55 -35 24 -40 33 -40 79 0 48 31 81 88 93 1 1 21 -8 42 -19z"/>
<path d="M106 253 c-4 -9 0 -23 9 -32 13 -14 17 -14 32 1 13 14 14 20 3 32
-16 21 -36 20 -44 -1z"/>
</g>
</svg>
