<?xml version="1.0" standalone="no"?>
<!DOCTYPE svg PUBLIC "-//W3C//DTD SVG 20010904//EN"
 "http://www.w3.org/TR/2001/REC-SVG-20010904/DTD/svg10.dtd">
<svg version="1.0" xmlns="http://www.w3.org/2000/svg"
 width="512.000000pt" height="512.000000pt" viewBox="0 0 512.000000 512.000000"
 preserveAspectRatio="xMidYMid meet">
<metadata>
Created by potrace 1.16, written by Peter Selinger 2001-2019
</metadata>
<g transform="translate(0.000000,512.000000) scale(0.100000,-0.100000)"
fill="#000000" stroke="none">
<path d="M3515 5095 c-24 -23 -25 -30 -25 -150 0 -112 2 -127 20 -145 11 -11
33 -20 50 -20 17 0 39 9 50 20 18 18 20 33 20 149 0 128 0 130 -26 150 -35 27
-59 26 -89 -4z"/>
<path d="M2773 4910 c-24 -10 -43 -39 -43 -65 0 -19 104 -208 123 -224 46 -37
117 -6 117 51 0 29 -93 202 -122 225 -21 17 -51 22 -75 13z"/>
<path d="M4293 4910 c-35 -14 -143 -197 -143 -243 0 -28 41 -67 71 -67 10 0
29 10 43 23 32 29 126 195 126 223 0 46 -54 81 -97 64z"/>
<path d="M3493 4480 c-26 -16 -51 -55 -124 -202 -50 -101 -92 -184 -93 -185
-2 -2 -83 -14 -182 -28 -222 -31 -246 -38 -278 -76 -30 -35 -35 -102 -12 -147
8 -15 77 -86 153 -159 l140 -132 -36 -206 -35 -207 19 -36 c28 -49 64 -73 112
-74 39 0 138 44 350 159 l52 28 178 -92 c176 -90 192 -96 245 -94 39 1 96 55
104 96 4 21 -7 110 -27 229 l-33 195 151 148 c130 127 152 153 158 186 4 27 1
49 -12 74 -32 65 -52 72 -269 104 -109 16 -200 32 -203 35 -3 3 -46 85 -96
182 -71 140 -97 182 -124 200 -42 27 -95 28 -138 2z m159 -325 c53 -105 97
-180 110 -188 13 -8 108 -27 213 -42 104 -14 191 -28 192 -29 1 -1 -63 -67
-142 -146 -129 -129 -145 -148 -145 -178 0 -19 14 -113 31 -209 16 -96 29
-176 27 -178 -2 -1 -79 37 -173 86 -93 49 -180 92 -192 95 -16 4 -76 -22 -208
-90 -102 -53 -185 -95 -185 -94 0 2 16 92 35 202 27 155 32 203 23 219 -6 12
-73 82 -150 155 -76 74 -137 136 -136 138 2 1 89 14 193 29 105 15 200 34 213
41 13 9 57 84 110 189 48 96 89 175 92 175 3 0 44 -79 92 -175z"/>
<path d="M2230 4363 c-43 -16 -65 -74 -42 -109 15 -25 205 -127 235 -127 56 0
87 68 50 111 -19 22 -177 116 -210 125 -10 3 -25 3 -33 0z"/>
<path d="M4796 4331 c-154 -82 -175 -102 -162 -157 9 -33 60 -56 95 -42 14 5
65 32 113 59 61 36 89 58 96 77 14 42 -5 79 -51 95 -10 4 -46 -9 -91 -32z"/>
<path d="M2038 3574 c-59 -32 -58 -17 -58 -679 l0 -605 -89 0 -88 0 -7 50 c-8
61 -47 104 -103 113 -21 4 -98 7 -171 7 l-132 0 -6 30 c-9 42 -45 77 -93 90
-29 7 -169 10 -444 8 -437 -3 -432 -3 -467 -61 -18 -29 -20 -52 -20 -280 l0
-248 25 -24 c29 -30 68 -32 95 -5 19 19 20 33 20 245 l0 225 370 0 370 0 0
-386 0 -385 -47 8 c-88 15 -312 8 -383 -11 -77 -21 -220 -86 -266 -121 -17
-13 -34 -21 -38 -18 -3 4 -6 45 -6 93 0 71 -3 90 -18 103 -25 23 -78 21 -102
-3 -18 -18 -20 -33 -20 -181 l0 -161 -44 -67 c-97 -145 -139 -290 -138 -471 2
-386 257 -710 637 -811 113 -30 307 -30 419 0 349 93 607 396 634 744 l7 92
72 3 72 3 21 -41 c29 -57 138 -169 203 -208 30 -18 88 -45 129 -60 69 -24 88
-26 323 -32 223 -6 256 -9 308 -29 57 -21 68 -22 450 -19 l392 3 58 29 c64 31
126 99 149 163 7 22 13 79 13 138 -1 83 -4 108 -23 144 -12 25 -21 45 -19 47
1 1 20 11 43 22 56 28 102 77 133 142 23 48 26 68 26 155 0 101 -8 127 -55
201 -12 19 -9 25 30 64 60 60 83 117 88 221 6 127 -13 186 -87 260 -39 38 -72
61 -100 70 -46 14 -45 11 -17 84 20 52 20 177 1 242 -18 61 -88 144 -149 176
-35 18 -61 22 -174 25 -151 4 -172 -3 -172 -63 0 -62 15 -69 147 -75 103 -4
122 -8 151 -28 50 -36 67 -76 66 -157 0 -89 -22 -131 -84 -163 -45 -22 -47
-23 -417 -20 -357 3 -373 4 -399 24 -54 40 -68 70 -72 149 -4 62 -1 80 18 113
38 67 78 82 217 82 112 0 121 1 141 23 28 29 28 71 1 98 -19 19 -30 20 -167
17 -128 -3 -153 -6 -193 -25 -41 -21 -60 -23 -197 -23 l-151 0 -3 358 -3 357
-33 67 c-39 80 -102 139 -178 168 -47 17 -78 20 -212 20 -119 -1 -164 -4 -184
-16z m340 -140 c39 -16 86 -56 105 -89 8 -14 14 -143 17 -423 l5 -404 24 -19
c20 -17 40 -19 173 -19 l149 0 -8 -37 c-11 -57 -8 -163 6 -214 21 -74 77 -139
153 -178 l67 -34 -17 -31 c-11 -21 -17 -64 -20 -133 -4 -107 4 -152 43 -212
l21 -34 -44 -44 c-69 -70 -87 -119 -87 -243 0 -89 4 -112 23 -149 12 -25 21
-45 19 -46 -1 -1 -19 -10 -39 -19 -54 -26 -107 -82 -136 -145 -21 -45 -26 -72
-26 -136 -1 -44 2 -95 6 -112 l8 -33 -171 0 c-145 0 -178 3 -231 21 -119 40
-206 114 -267 228 -17 32 -37 63 -44 69 -7 7 -65 13 -131 14 l-118 3 -26 80
c-20 65 -26 109 -31 231 -5 130 -9 155 -25 173 -19 21 -70 28 -92 13 -17 -11
-34 -48 -34 -72 0 -19 -10 -13 -63 36 -35 33 -93 76 -130 98 l-67 39 0 348 0
349 130 0 130 0 0 -265 0 -266 25 -24 c29 -30 64 -32 96 -6 23 19 24 24 27
204 l3 186 141 3 c133 3 141 4 159 27 18 22 19 48 19 652 l0 629 110 0 c77 0
122 -5 148 -16z m1682 -1436 c57 -29 81 -72 87 -151 4 -51 0 -70 -19 -106 -46
-89 -28 -86 -462 -89 l-382 -3 -34 23 c-18 13 -42 35 -53 50 -22 30 -34 115
-23 173 9 45 59 102 100 114 17 5 191 10 386 10 350 1 356 1 400 -21z m-2906
-462 c316 -61 550 -324 573 -645 21 -307 -182 -605 -482 -707 -114 -39 -268
-45 -386 -15 -246 62 -436 239 -509 476 -30 96 -37 247 -16 345 57 273 296
503 571 549 79 14 167 12 249 -3z m2854 -56 c53 -33 72 -74 72 -160 0 -86 -19
-127 -72 -160 -31 -19 -51 -20 -413 -20 -362 0 -382 1 -413 20 -53 32 -72 74
-72 158 0 83 14 118 62 156 l33 26 385 0 c367 0 387 -1 418 -20z m-160 -510
c53 -33 72 -74 72 -160 0 -86 -19 -127 -72 -160 -31 -19 -51 -20 -413 -20
-362 0 -382 1 -413 20 -52 32 -72 74 -72 155 0 83 20 129 69 162 34 23 35 23
415 23 363 0 383 -1 414 -20z"/>
<path d="M1118 933 l-188 -187 -98 97 c-109 107 -133 117 -177 72 -26 -26 -31
-46 -16 -73 13 -25 248 -255 271 -266 12 -5 30 -4 48 3 16 7 124 108 240 225
196 196 212 215 212 247 0 45 -25 69 -70 69 -30 0 -53 -19 -222 -187z"/>
</g>
</svg>
