<?xml version="1.0" standalone="no"?>
<!DOCTYPE svg PUBLIC "-//W3C//DTD SVG 20010904//EN"
 "http://www.w3.org/TR/2001/REC-SVG-20010904/DTD/svg10.dtd">
<svg version="1.0" xmlns="http://www.w3.org/2000/svg"
 width="200.000000pt" height="200.000000pt" viewBox="0 0 200.000000 200.000000"
 preserveAspectRatio="xMidYMid meet">
<metadata>
Created by potrace 1.16, written by Peter Selinger 2001-2019
</metadata>
<g transform="translate(0.000000,200.000000) scale(0.100000,-0.100000)"
fill="#000000" stroke="none">
<path d="M960 1889 c-40 -16 -69 -50 -80 -91 l-11 -38 -56 0 c-69 0 -126 -29
-148 -77 l-16 -33 -97 0 c-142 -1 -205 -36 -233 -129 -7 -24 -9 -247 -7 -667
l3 -630 25 -37 c13 -20 43 -46 65 -59 l40 -23 555 0 555 0 40 23 c22 13 52 39
65 59 l25 37 3 630 c2 420 0 643 -7 667 -28 94 -91 128 -234 129 -92 0 -98 1
-106 23 -21 53 -81 87 -155 87 l-55 0 -11 38 c-11 43 -41 75 -83 91 -34 13
-44 13 -77 0z m87 -75 c18 -19 24 -32 20 -52 -10 -52 5 -62 92 -62 92 0 131
-21 131 -70 0 -83 -21 -90 -290 -90 -269 0 -290 7 -290 90 0 49 39 70 131 70
87 0 102 10 92 62 -6 32 34 78 67 78 12 0 32 -12 47 -26z m-382 -254 c9 -17
30 -40 48 -50 30 -18 52 -20 287 -20 235 0 257 2 287 20 18 10 39 33 48 50
l16 30 95 0 c65 0 104 -5 124 -15 62 -32 60 -13 60 -703 0 -623 0 -630 -21
-656 -45 -57 -32 -56 -609 -56 -577 0 -564 -1 -609 56 -21 26 -21 33 -21 656
0 687 -1 670 58 702 18 10 58 15 124 16 l97 0 16 -30z"/>
<path d="M688 1253 l-58 -58 -29 35 c-25 30 -31 33 -45 21 -22 -18 -21 -26 14
-77 47 -67 71 -62 155 31 66 74 77 105 38 105 -10 0 -44 -26 -75 -57z"/>
<path d="M887 1183 c-13 -12 -7 -41 9 -47 9 -3 134 -6 279 -6 220 0 265 2 275
15 7 8 10 22 6 30 -5 13 -45 15 -284 15 -153 0 -282 -3 -285 -7z"/>
<path d="M688 953 l-58 -58 -29 35 c-25 30 -31 33 -45 21 -22 -18 -21 -26 14
-77 47 -67 71 -62 155 31 66 74 77 105 38 105 -10 0 -44 -26 -75 -57z"/>
<path d="M887 883 c-13 -12 -7 -41 9 -47 9 -3 134 -6 279 -6 220 0 265 2 275
15 7 8 10 22 6 30 -5 13 -45 15 -284 15 -153 0 -282 -3 -285 -7z"/>
<path d="M693 640 c-31 -33 -59 -60 -62 -60 -4 0 -15 14 -25 31 -19 33 -58 38
-64 8 -4 -21 58 -103 81 -107 17 -4 140 105 159 141 10 19 -5 47 -24 47 -6 0
-35 -27 -65 -60z"/>
<path d="M892 571 c-8 -5 -12 -17 -10 -27 3 -18 18 -19 286 -22 246 -2 283 0
288 13 4 8 1 22 -6 30 -10 13 -55 15 -279 15 -146 0 -272 -4 -279 -9z"/>
</g>
</svg>
