<?xml version="1.0" encoding="UTF-8" standalone="no"?>
<!-- Created with Inkscape (http://www.inkscape.org/) -->

<svg
   width="65.761215mm"
   height="86.49044mm"
   viewBox="0 0 65.761215 86.49044"
   version="1.1"
   id="svg824"
   inkscape:version="1.1.1 (3bf5ae0d25, 2021-09-20)"
   sodipodi:docname="character_wizard.svg"
   xmlns:inkscape="http://www.inkscape.org/namespaces/inkscape"
   xmlns:sodipodi="http://sodipodi.sourceforge.net/DTD/sodipodi-0.dtd"
   xmlns="http://www.w3.org/2000/svg"
   xmlns:svg="http://www.w3.org/2000/svg">
  <sodipodi:namedview
     id="namedview826"
     pagecolor="#ffffff"
     bordercolor="#666666"
     borderopacity="1.0"
     inkscape:pageshadow="2"
     inkscape:pageopacity="0.0"
     inkscape:pagecheckerboard="0"
     inkscape:document-units="mm"
     showgrid="false"
     fit-margin-top="0"
     fit-margin-left="0"
     fit-margin-right="0"
     fit-margin-bottom="0"
     inkscape:zoom="0.48996914"
     inkscape:cx="285.73228"
     inkscape:cy="146.94803"
     inkscape:window-width="1366"
     inkscape:window-height="719"
     inkscape:window-x="0"
     inkscape:window-y="25"
     inkscape:window-maximized="1"
     inkscape:current-layer="layer1" />
  <defs
     id="defs821" />
  <g
     inkscape:label="Capa 1"
     inkscape:groupmode="layer"
     id="layer1"
     transform="translate(-28.981737,-109.82983)">
    <g
       id="g719"
       transform="matrix(0.92072623,0,0,0.84054062,-462.68607,-191.97534)">
      <path
         d="m 538.7,360.8 c -2.2,2.4 -2.2,7.1 -0.1,7.9 1.2,0.4 1.3,0.8 0.3,1.3 -0.6,0.5 -0.9,1.5 -0.6,2.5 1.1,2.6 7.7,1.7 8.8,-1.3 0.5,-1.3 0.4,-2.2 -0.1,-2.2 -0.6,0 -1,0.6 -1,1.4 0,1.4 -2.1,2.6 -4.6,2.6 -0.8,0 -1.4,-0.5 -1.4,-1 0,-0.6 1.1,-1 2.5,-1 1.6,0 2.5,-0.6 2.5,-1.5 0,-0.8 0.7,-1.5 1.5,-1.5 2.2,0 1.9,-4.6 -0.5,-7 -2.5,-2.5 -5.2,-2.6 -7.3,-0.2 z m 2.3,4.2 c 0,0.5 -0.7,1 -1.5,1 -0.8,0 -1.5,-0.5 -1.5,-1 0,-0.6 0.7,-1 1.5,-1 0.8,0 1.5,0.4 1.5,1 z m 5,0 c 0,0.5 -0.4,1 -0.9,1 -0.6,0 -1.3,-0.5 -1.6,-1 -0.3,-0.6 0.1,-1 0.9,-1 0.9,0 1.6,0.4 1.6,1 z"
         id="path342"
         style="fill:#000000;stroke:none;stroke-width:0.1" />
      <path
         d="m 566.7,368.8 c -2.4,2.6 -5.5,10.1 -6.3,15.2 -0.5,3.2 -1.6,5.1 -4.1,7.3 -4.9,4.3 -4.3,5.3 2.8,4.9 l 6.1,-0.4 -0.6,-4.1 c -1.1,-6.4 -0.7,-10 1.3,-12.7 2.6,-3.6 6.4,-3.8 9.1,-0.3 2,2.5 2.1,3.5 1.6,10 l -0.7,7.2 5.8,0.4 5.8,0.3 -5.7,0.2 c -5.1,0.2 -5.8,0.5 -5.8,2.2 0,1.1 -1.3,3.4 -2.8,5.1 l -2.8,3.1 -2.7,-3.2 c -1.5,-1.7 -2.7,-4 -2.7,-5.1 0,-1.6 -0.7,-1.9 -5.4,-1.9 -3.7,0 -6,0.5 -7.1,1.6 -1.5,1.5 -1.8,1.5 -3.7,-0.2 l -2.1,-1.9 0.5,4.9 c 0.6,5.2 3.4,9.1 5.9,8.1 0.8,-0.3 2.1,-2.4 2.9,-4.7 0.8,-2.3 2.1,-4.3 2.8,-4.6 0.9,-0.3 1.2,5.9 1.2,28.8 0,18.2 0.4,29.9 1,31.1 1.3,2.3 5.3,2.5 7.4,0.3 1.3,-1.3 1.6,-4.7 1.8,-19.2 l 0.2,-17.7 0.6,18 c 0.3,9.9 0.9,18.6 1.3,19.3 1.1,1.7 5.2,1.5 7.1,-0.4 1.4,-1.3 1.6,-5.6 1.6,-31 0,-16.2 0.3,-29.4 0.8,-29.4 0.4,0 0.6,13.3 0.4,29.5 l -0.3,29.5 h 3.5 c 4.6,0 14.9,-3.3 18.1,-5.8 2.4,-1.9 2.5,-2.1 0.6,-2.7 -5.7,-1.8 -12.4,-15 -17.5,-34.5 -2,-7.4 -3.4,-13.6 -3.1,-13.8 0.5,-0.5 2.5,4.2 2.5,5.8 0,0.4 0.8,1.1 1.7,1.5 1.3,0.4 3,-0.6 6.1,-3.9 2.4,-2.5 4.7,-4.6 5.2,-4.6 0.5,0 0.7,-0.6 0.4,-1.4 -0.3,-0.8 -0.1,-1.7 0.5,-2.1 1.9,-1.1 1.3,-6.3 -0.8,-7.5 -2.9,-1.5 -5.5,1.3 -4,4.2 0.6,1.1 0.7,1.8 0.2,1.5 -0.5,-0.3 -1.5,-0.2 -2.2,0.2 -1,0.7 -0.8,1.3 1,3 1.2,1.1 1.8,2.1 1.2,2.1 -0.6,0 -1.6,-0.7 -2.3,-1.5 -1.4,-1.7 -3.5,-2.1 -2.5,-0.5 0.3,0.5 0.1,1 -0.5,1 -0.6,0 -1.3,-1.4 -1.7,-3 -0.3,-1.7 -2,-4.3 -3.8,-5.8 -2.3,-2.1 -3.4,-4.1 -3.9,-7.2 -0.8,-5.1 -3.9,-12.6 -6.3,-15.2 -0.9,-1 -2.6,-1.8 -3.8,-1.8 -1.2,0 -2.9,0.8 -3.8,1.8 z"
         id="path344"
         style="fill:#000000;stroke:none;stroke-width:0.1" />
      <path
         d="m 543,376.7 c 0,1.3 0.5,2.3 1,2.3 1.3,0 1.3,-1.1 0,-3 -0.8,-1.2 -1,-1.1 -1,0.7 z"
         id="path352"
         style="fill:#000000;stroke:none;stroke-width:0.1" />
      <path
         d="m 546.3,376.4 c 0.4,1 0.7,2.7 0.7,3.9 0,1.8 0.2,1.9 1,0.7 0.8,-1.2 1,-1 1,0.8 0,1.5 -0.4,2.1 -1.2,1.6 -0.7,-0.4 -0.8,-0.3 -0.4,0.4 0.4,0.7 1.4,1.2 2.2,1.2 0.8,0 1.4,1 1.4,2.5 0,3.1 -0.8,3.2 -2,0.2 -0.6,-1.6 -0.9,-1.7 -0.9,-0.5 -0.1,0.9 0.9,2.4 2.1,3.2 2.8,2 3.5,2 3.5,0.1 0,-0.8 -0.4,-1.2 -0.9,-0.9 -0.4,0.3 -0.8,-0.6 -0.8,-2 0,-1.4 0.6,-2.6 1.3,-2.6 0.6,-0.1 0.1,-0.7 -1.3,-1.5 -1.4,-0.8 -2.2,-1.4 -1.7,-1.5 1,0 -1.9,-5.7 -3.5,-6.6 -0.8,-0.5 -0.9,-0.2 -0.5,1 z"
         id="path354"
         style="fill:#000000;stroke:none;stroke-width:0.1" />
      <path
         d="m 537.5,378.4 c -0.8,1.3 -1.3,3 -1,3.8 0.3,0.8 -0.1,2.1 -1,2.8 -0.8,0.7 -1.5,1.7 -1.5,2.3 0,0.6 0.7,0.2 1.6,-0.9 1.4,-1.8 1.5,-1.8 1,-0.1 -2.2,7 -2.1,7.3 1.4,3.3 2.7,-3 3.1,-4.1 2.3,-5.5 -0.6,-0.9 -0.8,-3.1 -0.5,-4.9 0.5,-3.8 -0.2,-4.1 -2.3,-0.8 z m 2.5,7 c 0,0.8 -0.8,2 -1.7,2.7 -1.5,1.2 -1.6,1.2 -1,-0.4 0.4,-1 0.7,-2.5 0.7,-3.3 0,-0.9 0.5,-1.2 1,-0.9 0.6,0.3 1,1.2 1,1.9 z"
         id="path356"
         style="fill:#000000;stroke:none;stroke-width:0.1" />
      <path
         d="m 566.5,380 c -1.7,3.3 -2,8.6 -0.5,9.5 0.6,0.3 1,0.2 1,-0.4 0,-0.6 0.9,-1.5 2,-2.1 1.5,-0.8 2.4,-0.6 3.9,0.9 2.3,2.3 3.1,1.8 3.1,-2.1 0,-7.8 -6.4,-11.7 -9.5,-5.8 z m 2.5,4 c 0,0.5 -0.4,1 -1,1 -0.5,0 -1,-0.5 -1,-1 0,-0.6 0.5,-1 1,-1 0.6,0 1,0.4 1,1 z m 5,0 c 0,0.5 -0.4,1 -1,1 -0.5,0 -1,-0.5 -1,-1 0,-0.6 0.5,-1 1,-1 0.6,0 1,0.4 1,1 z"
         id="path358"
         style="fill:#000000;stroke:none;stroke-width:0.1" />
      <path
         d="m 543,381 c 0,0.5 0.5,1 1,1 0.6,0 1,-0.5 1,-1 0,-0.6 -0.4,-1 -1,-1 -0.5,0 -1,0.4 -1,1 z"
         id="path366"
         style="fill:#000000;stroke:none;stroke-width:0.1" />
      <path
         d="m 543,386.9 c 0,0.6 0.5,1.3 1,1.6 0.6,0.3 1,-0.1 1,-0.9 0,-0.9 -0.4,-1.6 -1,-1.6 -0.5,0 -1,0.4 -1,0.9 z"
         id="path368"
         style="fill:#000000;stroke:none;stroke-width:0.1" />
      <path
         d="m 568.7,388.6 c -1.4,1.4 -0.6,2.4 1.9,2.4 1.6,0 2.4,-0.5 2.2,-1.3 -0.5,-1.4 -3.1,-2.1 -4.1,-1.1 z"
         id="path370"
         style="fill:#000000;stroke:none;stroke-width:0.1" />
      <path
         d="m 540.7,390.7 c -1.4,1.4 -0.6,5.8 1.7,9.2 2.1,3.2 2.5,5.4 3.5,21 l 1.2,17.4 -2.8,4.6 c -1.6,2.5 -4.3,5.5 -6,6.6 l -3.1,2.1 3.2,2.1 c 1.7,1.1 4.8,2.6 6.9,3.3 2,0.6 3.7,1.8 3.7,2.6 0,0.8 0.4,1.4 0.9,1.4 0.6,0 0.8,-1.5 0.5,-3.2 -0.3,-2.9 -4.6,-59.8 -4.6,-62.3 -0.1,-0.6 0.1,-1.5 0.2,-2 0.6,-2.4 -0.2,-3.5 -2.3,-3.5 -1.3,0 -2.7,0.3 -3,0.7 z"
         id="path372"
         style="fill:#000000;stroke:none;stroke-width:0.1" />
      <path
         d="m 557,406.2 c -0.6,2.4 -2.3,8.3 -3.7,13.3 -3.2,11 -3.6,15.1 -2.6,28.5 l 0.8,10.5 3.8,0.3 3.7,0.3 v -28.5 c 0,-15.7 -0.2,-28.6 -0.5,-28.6 -0.2,0 -0.9,1.9 -1.5,4.2 z"
         id="path384"
         style="fill:#000000;stroke:none;stroke-width:0.1" />
    </g>
  </g>
</svg>
