<?xml version="1.0" standalone="no"?>
<!DOCTYPE svg PUBLIC "-//W3C//DTD SVG 20010904//EN"
 "http://www.w3.org/TR/2001/REC-SVG-20010904/DTD/svg10.dtd">
<svg version="1.0" xmlns="http://www.w3.org/2000/svg"
 width="750.000000pt" height="500.000000pt" viewBox="0 0 750.000000 500.000000"
 preserveAspectRatio="xMidYMid meet">
<metadata>
Created by potrace 1.16, written by Peter Selinger 2001-2019
</metadata>
<g transform="translate(0.000000,500.000000) scale(0.100000,-0.100000)"
fill="#000000" stroke="none">
<path d="M1885 4830 c3 -10 1 -28 -5 -40 -14 -26 -50 -26 -57 0 -3 11 -10 20
-15 20 -6 0 -8 -6 -5 -14 3 -8 9 -31 13 -50 3 -20 11 -36 18 -36 6 0 4 -5 -6
-10 -12 -8 -15 -19 -11 -50 5 -35 1 -45 -31 -84 -67 -82 -88 -179 -45 -209 19
-14 20 -19 9 -76 -6 -34 -8 -65 -5 -70 3 -5 -9 -21 -27 -35 -27 -21 -31 -27
-19 -38 11 -11 14 -10 19 2 3 8 39 50 80 93 85 87 87 105 2 25 l-55 -53 49 52
c28 29 48 54 45 56 -2 2 -20 9 -39 15 l-35 11 35 -7 c19 -3 55 -7 80 -7 36 0
45 4 48 19 5 23 -13 35 -53 37 -17 1 -22 3 -12 6 12 3 17 15 17 42 0 30 4 37
20 37 16 0 20 -7 20 -36 0 -61 12 -64 59 -16 28 29 59 48 87 56 50 14 54 25
19 59 -30 28 -55 22 -55 -14 0 -18 -16 -43 -51 -78 l-52 -52 46 52 c55 65 62
100 28 144 -19 25 -24 42 -22 74 l2 43 -63 -3 c-35 -1 -49 -1 -33 1 90 12 92
13 98 47 3 17 8 40 12 50 4 10 3 17 -4 17 -6 0 -11 -6 -11 -14 0 -8 -10 -18
-22 -22 -25 -8 -48 17 -48 53 0 14 -6 23 -16 23 -11 0 -13 -6 -9 -20z m42
-199 c9 -11 20 -18 25 -15 16 10 7 -43 -17 -94 -14 -31 -30 -52 -37 -50 -15 4
-53 79 -62 121 -5 20 -3 27 4 22 7 -4 20 2 31 14 24 26 35 26 56 2z m-131
-193 c-1 -26 4 -33 24 -39 14 -4 18 -7 8 -8 -42 -3 -58 21 -42 63 9 24 12 19
10 -16z"/>
<path d="M1880 4615 c0 -8 9 -15 20 -15 11 0 20 7 20 15 0 8 -9 15 -20 15 -11
0 -20 -7 -20 -15z"/>
<path d="M3726 4799 c-26 -21 -56 -68 -56 -89 0 -8 6 -8 20 0 11 6 44 9 73 7
l52 -3 -55 -2 c-31 -1 -61 -7 -68 -14 -33 -33 12 -101 68 -101 39 0 80 38 80
74 0 15 -3 29 -7 32 -5 2 -2 2 5 1 16 -4 15 11 -3 46 -14 27 -60 70 -75 70 -4
0 -19 -9 -34 -21z"/>
<path d="M4686 4799 c-45 -35 -76 -110 -37 -89 11 5 43 10 71 10 28 0 60 -5
71 -10 24 -13 25 -1 4 40 -14 27 -60 70 -75 70 -4 0 -19 -9 -34 -21z"/>
<path d="M5181 4803 c14 -21 151 -134 215 -176 39 -25 44 -33 44 -65 0 -23 12
-56 30 -87 62 -105 94 -120 123 -60 16 34 16 35 -6 47 -12 7 -28 12 -35 13 -7
0 -23 16 -35 35 l-22 35 37 -27 c57 -44 55 -33 -6 27 -30 30 -60 55 -65 55 -5
0 -33 22 -63 48 -73 67 -207 172 -219 172 -5 0 -4 -8 2 -17z"/>
<path d="M5706 4799 c-45 -35 -76 -110 -37 -89 23 12 120 13 138 2 7 -4 -17
-6 -52 -4 -71 5 -95 -6 -95 -42 0 -32 44 -69 80 -69 64 0 107 90 74 154 -13
26 -59 69 -74 69 -4 0 -19 -9 -34 -21z"/>
<path d="M2860 4746 c0 -12 -5 -16 -15 -12 -8 3 -15 0 -15 -6 0 -6 -8 -17 -17
-25 -17 -13 -16 -14 7 -9 14 3 37 6 53 6 21 0 27 5 27 21 0 11 -4 18 -9 14 -6
-3 -14 3 -20 12 -10 17 -10 17 -11 -1z"/>
<path d="M2910 4700 c0 -5 5 -10 11 -10 5 0 7 5 4 10 -3 6 -8 10 -11 10 -2 0
-4 -4 -4 -10z"/>
<path d="M4510 4698 c1 -17 28 -53 35 -46 8 8 -13 58 -25 58 -5 0 -10 -6 -10
-12z"/>
<path d="M4652 4698 c-7 -7 -12 -22 -12 -34 0 -13 -4 -26 -10 -29 -18 -11 -10
-35 12 -35 17 0 19 3 10 12 -22 22 -12 32 11 11 33 -30 54 -34 91 -19 42 17
63 67 40 91 -19 18 -124 21 -142 3z"/>
<path d="M2854 4684 c-5 -1 -21 -5 -36 -8 -52 -12 -27 -88 32 -101 53 -12 111
45 89 86 -7 15 -60 29 -85 23z"/>
<path d="M3660 4620 c0 -13 7 -20 20 -20 18 0 19 2 8 20 -7 11 -16 20 -20 20
-5 0 -8 -9 -8 -20z"/>
<path d="M3832 4620 c-11 -18 -10 -20 8 -20 13 0 20 7 20 20 0 11 -3 20 -8 20
-4 0 -13 -9 -20 -20z"/>
<path d="M4520 4626 c0 -14 31 -46 44 -46 5 0 5 7 2 16 -4 10 -2 13 7 9 6 -4
4 0 -5 8 -10 8 -16 16 -13 18 2 3 -5 5 -15 6 -11 1 -20 -4 -20 -11z"/>
<path d="M4792 4620 c-11 -18 -10 -20 8 -20 13 0 20 7 20 20 0 11 -3 20 -8 20
-4 0 -13 -9 -20 -20z"/>
<path d="M5640 4620 c0 -13 7 -20 20 -20 18 0 19 2 8 20 -7 11 -16 20 -20 20
-5 0 -8 -9 -8 -20z"/>
<path d="M5812 4620 c-11 -18 -10 -20 8 -20 13 0 20 7 20 20 0 11 -3 20 -8 20
-4 0 -13 -9 -20 -20z"/>
<path d="M4570 4575 c-9 -11 -10 -19 -3 -26 7 -7 5 -26 -8 -60 -20 -53 -36
-201 -25 -242 6 -27 26 -39 44 -28 7 4 13 47 16 107 6 133 24 183 25 67 l1
-83 38 0 c20 0 44 4 52 10 9 5 19 5 25 0 17 -14 67 -15 93 -1 22 11 22 11 22
-44 0 -35 -4 -54 -10 -50 -5 3 -10 19 -10 34 0 15 -3 31 -7 34 -7 7 -54 -18
-168 -91 l-70 -45 40 -13 c22 -8 29 -12 16 -9 -14 2 -31 0 -37 -6 -7 -6 -30
-9 -51 -7 -38 3 -37 3 99 88 95 59 131 86 117 88 -11 2 -27 -2 -35 -8 -11 -10
-17 -10 -28 -1 -20 17 -85 10 -90 -9 -3 -8 -8 -32 -12 -53 -5 -32 -15 -43 -60
-72 -30 -19 -61 -35 -69 -35 -7 0 -16 -3 -18 -7 -3 -5 34 -7 81 -6 75 1 134
12 192 37 11 4 16 1 17 -11 13 -226 14 -233 38 -249 19 -12 28 -13 46 -4 21
12 22 15 15 133 -4 77 -11 124 -19 129 -8 5 -7 8 6 8 17 0 23 20 10 33 -3 4
-21 -3 -40 -14 -19 -12 -36 -19 -39 -16 -5 5 90 57 106 57 13 0 128 114 163
161 15 19 34 55 42 80 9 24 23 50 32 57 9 6 13 12 8 12 -5 0 -20 -11 -34 -24
-38 -34 -168 -115 -175 -109 -3 4 -6 20 -6 37 0 38 -30 105 -58 129 -23 21
-43 15 -76 -22 -24 -26 -70 -27 -88 -2 -11 15 -80 61 -92 61 -2 0 -9 -7 -16
-15z m89 -80 c28 -36 50 -66 49 -68 -2 -1 17 -20 42 -42 25 -22 47 -43 48 -47
2 -5 8 -8 13 -8 5 0 9 33 9 73 1 79 13 75 25 -8 6 -47 5 -52 -19 -64 -23 -13
-29 -11 -62 14 -62 47 -187 215 -160 215 2 0 27 -29 55 -65z m401 -49 c0 -21
-84 -130 -119 -156 l-32 -22 3 53 3 52 70 44 c38 23 71 43 72 43 2 0 3 -6 3
-14z m-257 -313 c-7 -2 -21 -2 -30 0 -10 3 -4 5 12 5 17 0 24 -2 18 -5z"/>
<path d="M2090 4549 c0 -10 7 -19 15 -19 8 0 15 5 15 10 0 6 1 13 3 17 1 3 -6
7 -15 9 -12 1 -18 -4 -18 -17z"/>
<path d="M3626 4540 c-30 -36 -43 -78 -52 -175 -4 -39 -13 -74 -21 -80 -10 -8
-7 -16 17 -42 17 -18 30 -37 30 -43 0 -6 8 -10 18 -8 12 2 16 -3 15 -18 -2
-18 5 -23 33 -29 20 -3 38 -4 40 -2 2 2 -14 17 -36 32 -43 30 -46 35 -29 52 8
8 42 -11 122 -67 109 -76 112 -78 115 -53 3 17 -4 30 -20 41 -39 27 -78 73
-85 101 -3 14 -13 32 -22 38 -20 16 -92 13 -98 -4 -3 -7 -10 -13 -16 -13 -12
0 -3 143 12 180 8 20 10 7 10 -57 l1 -83 38 0 c48 0 58 7 70 52 16 57 47 94
103 121 l50 24 -26 31 c-33 40 -46 40 -82 2 -16 -18 -38 -30 -53 -30 -15 0
-37 12 -53 30 -36 38 -49 38 -81 0z m221 -406 c-3 -3 -12 -4 -19 -1 -8 3 -5 6
6 6 11 1 17 -2 13 -5z"/>
<path d="M3722 4550 c14 -23 33 -31 51 -24 7 2 18 13 25 24 12 19 10 20 -38
20 -48 0 -50 -1 -38 -20z"/>
<path d="M4691 4545 c28 -28 52 -26 70 6 9 17 6 19 -43 19 l-53 0 26 -25z"/>
<path d="M5610 4544 c-29 -25 -30 -27 -14 -45 9 -11 23 -19 31 -19 7 0 13 -4
13 -9 0 -5 37 -38 82 -75 77 -63 82 -65 100 -50 14 13 18 32 18 83 l1 66 19
-24 c29 -34 25 -57 -20 -114 -44 -54 -50 -92 -15 -92 12 0 39 25 72 68 43 56
52 74 47 95 -11 49 -40 97 -73 119 -36 25 -62 19 -89 -19 -20 -28 -63 -23 -95
12 -16 17 -32 30 -37 30 -5 0 -23 -12 -40 -26z"/>
<path d="M5702 4550 c23 -36 59 -35 79 1 9 17 6 19 -41 19 -48 0 -50 -1 -38
-20z"/>
<path d="M2836 4551 c-8 -13 20 -33 41 -29 10 2 19 11 21 21 3 13 -3 17 -27
17 -16 0 -32 -4 -35 -9z"/>
<path d="M2776 4529 c-14 -11 -26 -24 -26 -29 0 -4 37 -13 83 -18 l82 -11 -79
5 c-44 3 -84 6 -89 7 -6 1 -18 -17 -27 -41 -9 -23 -30 -57 -48 -75 l-32 -32
-26 27 c-18 17 -27 38 -28 59 -1 31 -3 33 -38 34 -36 2 -59 -17 -37 -31 7 -4
6 -10 0 -18 -11 -14 -5 -26 13 -26 6 0 4 5 -4 10 -12 8 -10 10 8 10 13 0 20
-4 17 -10 -3 -5 -1 -10 4 -10 23 0 27 -2 49 -22 12 -12 22 -32 22 -45 0 -17 6
-23 23 -23 28 0 71 -42 58 -56 -5 -5 -12 -64 -16 -131 -7 -116 -6 -123 11
-122 12 0 14 3 6 6 -10 4 -11 28 -6 106 11 164 7 161 91 74 53 -54 74 -70 78
-59 4 11 9 12 17 4 8 -8 8 -15 -1 -26 -14 -16 -41 -11 -41 8 0 13 -77 93 -83
85 -2 -2 -8 -45 -14 -95 -6 -51 -18 -105 -27 -122 -15 -30 -15 -30 16 -41 40
-14 226 -14 267 0 31 11 39 23 22 33 -15 9 -29 92 -41 236 -14 162 -26 205
-58 206 -32 2 -41 14 -9 14 17 0 31 8 38 22 12 22 13 21 26 -16 7 -21 18 -45
24 -52 11 -14 39 -244 39 -326 0 -28 -5 -48 -12 -51 -7 -3 -5 -6 6 -6 18 -1
19 5 13 117 -4 64 -10 144 -13 177 l-7 60 25 -22 c28 -26 58 -30 58 -8 0 8
-18 31 -39 51 -22 19 -45 52 -52 72 -15 49 -24 57 -62 56 -27 -1 -28 0 -4 3
36 6 34 29 -4 49 -30 15 -32 15 -46 -5 -18 -27 -59 -27 -75 -1 -16 25 -19 25
-52 -1z m-216 -95 c0 9 5 14 10 11 18 -11 11 -31 -12 -32 -26 -2 -50 15 -42
29 3 5 14 2 25 -8 18 -16 19 -16 19 0z m261 -24 c18 0 20 -3 10 -9 -8 -5 -19
-7 -26 -5 -17 7 -36 -43 -43 -109 l-5 -58 54 -57 c30 -31 10 -14 -43 37 -54
52 -96 95 -95 96 1 0 10 7 20 15 17 12 18 11 11 -15 -5 -20 -4 -26 5 -21 6 4
11 17 11 29 0 13 9 40 20 62 11 22 20 46 20 54 0 11 3 11 18 -2 10 -10 29 -17
43 -17z"/>
<path d="M3870 4468 c-137 -69 -127 -259 16 -314 100 -38 214 26 231 129 13
82 -25 154 -102 188 -53 25 -92 24 -145 -3z m146 -32 c19 -14 19 -15 -5 -40
-31 -33 -19 -47 14 -16 30 28 43 20 55 -34 9 -39 -3 -101 -21 -112 -6 -3 -21
4 -35 17 -32 30 -44 16 -13 -17 24 -25 24 -26 5 -40 -33 -24 -156 -12 -156 16
0 14 59 62 69 55 17 -10 50 4 62 26 21 40 -19 87 -61 74 -29 -9 -42 -39 -30
-69 7 -20 6 -26 -4 -26 -7 0 -21 -9 -31 -20 -10 -11 -21 -20 -25 -20 -12 0
-30 50 -30 85 0 35 18 85 30 85 4 0 17 -11 30 -25 12 -13 27 -22 32 -19 5 4
-3 19 -18 35 -15 16 -26 30 -23 32 34 29 123 36 155 13z m-48 -119 c4 -20 -25
-34 -40 -19 -15 15 -1 44 19 40 10 -2 19 -11 21 -21z"/>
<path d="M5609 4458 c32 -29 34 -34 32 -89 l-2 -59 40 0 c22 0 42 4 45 8 6 10
36 9 54 -2 12 -7 31 -1 21 7 -2 2 -50 40 -106 85 -101 81 -150 111 -84 50z
m126 -103 c17 -14 21 -21 10 -16 -11 6 -38 27 -60 46 -45 41 -2 15 50 -30z"/>
<path d="M2000 4414 c-63 -59 -80 -93 -80 -161 0 -46 -2 -53 -20 -53 -17 0
-20 7 -20 47 l0 48 -75 -75 -74 -75 -11 -109 c-5 -60 -7 -112 -4 -115 10 -10
297 -13 334 -4 34 9 34 9 31 64 -1 29 -11 123 -22 208 -11 85 -17 156 -15 158
3 3 8 -17 12 -44 12 -81 21 -95 29 -43 8 58 -6 192 -22 197 -7 3 -35 -17 -63
-43z"/>
<path d="M1890 4429 c0 -5 5 -7 10 -4 6 3 10 8 10 11 0 2 -4 4 -10 4 -5 0 -10
-5 -10 -11z"/>
<path d="M5636 4290 c-2 -3 -7 -27 -10 -55 -4 -27 -9 -57 -12 -66 -4 -13 6
-19 43 -28 46 -10 46 -10 7 -6 l-41 5 -7 -92 c-10 -143 -9 -156 15 -168 16 -9
26 -8 44 4 23 15 28 41 38 213 2 28 6 33 27 33 17 0 26 -6 27 -17 11 -191 15
-214 38 -229 19 -12 28 -13 46 -4 21 12 22 15 15 133 -5 75 -12 125 -19 129
-8 5 -6 8 6 8 15 0 17 6 12 38 -10 56 -13 62 -34 62 -11 0 -28 12 -39 27 -17
23 -22 25 -36 14 -12 -10 -19 -11 -30 -2 -14 11 -84 12 -90 1z m187 -157 c-7
-2 -21 -2 -30 0 -10 3 -4 5 12 5 17 0 24 -2 18 -5z"/>
<path d="M1890 4279 c0 -5 5 -7 10 -4 6 3 10 8 10 11 0 2 -4 4 -10 4 -5 0 -10
-5 -10 -11z"/>
<path d="M5860 4262 c0 -4 53 -51 117 -103 172 -137 204 -161 209 -156 3 2
-62 58 -143 123 -178 144 -183 147 -183 136z"/>
<path d="M1890 4229 c0 -5 5 -7 10 -4 6 3 10 8 10 11 0 2 -4 4 -10 4 -5 0 -10
-5 -10 -11z"/>
<path d="M3636 4056 c-10 -140 -8 -164 15 -176 16 -9 26 -8 44 4 21 14 24 26
30 113 4 54 8 106 8 116 2 15 -7 19 -44 21 l-46 4 -7 -82z"/>
<path d="M3766 4103 c18 -16 23 -36 29 -112 6 -81 10 -94 30 -107 18 -12 28
-13 44 -4 18 9 21 20 21 80 0 51 4 69 14 72 13 3 13 6 0 28 -14 23 -14 23 -9
3 10 -36 -23 -29 -91 18 -32 22 -49 32 -38 22z"/>
<path d="M4644 4108 l-41 -10 -7 -61 c-11 -111 -8 -145 15 -157 16 -9 26 -8
44 4 20 13 24 26 30 103 3 48 8 98 11 111 2 12 1 21 -3 21 -5 -1 -27 -6 -49
-11z"/>
<path d="M2866 4093 c-6 -14 -5 -15 5 -6 7 7 10 15 7 18 -3 3 -9 -2 -12 -12z"/>
<path d="M1810 3891 c0 -13 27 -21 46 -14 13 5 13 7 2 14 -17 11 -48 11 -48 0z"/>
<path d="M1936 3891 c-18 -7 -18 -8 -2 -14 16 -6 56 7 56 18 0 7 -32 5 -54 -4z"/>
<path d="M2790 3892 c0 -15 30 -23 48 -12 16 9 16 9 0 10 -9 0 -23 3 -32 6 -9
3 -16 2 -16 -4z"/>
<path d="M2900 3891 c-21 -6 -22 -8 -7 -14 19 -7 47 1 47 14 0 10 -4 10 -40 0z"/>
<path d="M1794 3735 c-8 -37 -8 -45 3 -45 8 0 11 5 8 10 -3 6 -3 15 1 21 4 8
13 4 26 -12 l18 -24 -9 27 c-8 21 -7 31 6 43 8 9 13 19 9 22 -3 3 -15 -5 -27
-18 l-21 -24 5 23 c3 12 2 22 -2 22 -3 0 -11 -20 -17 -45z"/>
<path d="M2712 3768 c-19 -19 -14 -46 10 -59 18 -10 24 -8 35 7 29 40 -11 86
-45 52z m44 -13 c8 -20 -13 -45 -32 -38 -14 5 -19 34 -7 46 11 12 33 7 39 -8z"/>
<path d="M3753 3773 c-18 -7 -16 -34 4 -48 9 -7 13 -17 9 -24 -6 -9 -11 -9
-22 0 -9 7 -14 8 -14 1 0 -16 16 -23 34 -16 21 8 21 40 0 52 -10 5 -14 15 -10
21 6 9 12 9 24 -1 13 -11 14 -11 11 1 -6 17 -18 22 -36 14z"/>
<path d="M3876 3741 c-4 -24 -5 -46 -2 -48 7 -7 19 63 14 79 -3 7 -8 -7 -12
-31z"/>
<path d="M3950 3767 c0 -7 -10 -17 -22 -22 -22 -10 -38 -54 -21 -56 4 0 18 -2
31 -3 19 -2 22 2 22 30 0 18 3 39 6 48 3 9 1 16 -5 16 -6 0 -11 -6 -11 -13z
m0 -41 c0 -18 -26 -40 -34 -27 -9 14 4 41 20 41 8 0 14 -6 14 -14z"/>
<path d="M4740 3758 c0 -13 -2 -34 -5 -48 -4 -24 -4 -24 7 3 15 35 41 37 32 2
-3 -14 -2 -25 3 -25 5 0 10 14 11 30 2 25 -1 30 -19 30 -15 0 -19 5 -15 15 3
8 1 15 -4 15 -6 0 -10 -10 -10 -22z"/>
<path d="M5621 3760 c-1 -14 -4 -36 -7 -50 -4 -19 -3 -22 5 -10 9 13 12 12 26
-5 16 -20 16 -20 10 2 -3 12 -1 24 5 28 17 10 11 25 -9 25 -11 0 -22 8 -24 18
-3 11 -5 9 -6 -8z m34 -30 c-3 -5 -10 -10 -16 -10 -5 0 -9 5 -9 10 0 6 7 10
16 10 8 0 12 -4 9 -10z"/>
<path d="M3460 3746 c0 -13 -3 -31 -6 -40 -3 -9 -1 -16 6 -16 6 0 8 5 5 10 -3
6 4 14 17 19 17 7 19 10 6 10 -29 1 -21 29 10 34 25 4 25 4 -5 6 -29 1 -33 -2
-33 -23z"/>
<path d="M4543 3730 c-12 -22 -17 -40 -12 -40 5 0 9 5 9 10 0 6 9 10 20 10 11
0 20 -4 20 -10 0 -5 4 -10 10 -10 5 0 8 6 6 13 -3 6 -7 24 -10 40 -8 37 -17
34 -43 -13z m37 -1 c0 -5 -7 -9 -15 -9 -9 0 -12 6 -9 15 6 15 24 11 24 -6z"/>
<path d="M5510 3753 c0 -10 -3 -28 -6 -40 -4 -14 -2 -23 5 -23 6 0 10 5 9 10
-2 6 8 16 22 23 33 17 32 41 -2 45 -22 3 -28 -1 -28 -15z m44 -8 c-4 -8 -12
-15 -20 -15 -8 0 -14 7 -14 15 0 8 9 15 20 15 13 0 18 -5 14 -15z"/>
<path d="M1949 3722 c5 -34 6 -35 9 -8 2 16 0 32 -5 37 -5 5 -7 -7 -4 -29z"/>
<path d="M1993 3748 c-6 -7 -11 -30 -11 -50 0 -31 4 -38 19 -38 18 0 26 18 32
70 2 27 -23 39 -40 18z m27 -29 c-12 -21 -30 -17 -30 6 0 14 20 25 33 18 4 -2
2 -13 -3 -24z m-5 -39 c-3 -5 -10 -10 -16 -10 -5 0 -9 5 -9 10 0 6 7 10 16 10
8 0 12 -4 9 -10z"/>
<path d="M2786 3735 c-8 -33 -1 -45 27 -45 18 0 22 6 24 38 l1 37 -10 -32
c-14 -43 -40 -45 -31 -3 7 36 -2 40 -11 5z"/>
<path d="M2860 3740 c-15 -29 -6 -50 22 -49 23 0 23 0 -2 11 l-25 11 25 6 c28
8 34 34 8 39 -9 2 -22 -6 -28 -18z m35 0 c-3 -5 -11 -10 -16 -10 -6 0 -7 5 -4
10 3 6 11 10 16 10 6 0 7 -4 4 -10z"/>
<path d="M2933 3753 c-7 -2 -13 -18 -13 -34 0 -24 4 -29 23 -28 16 1 18 2 5 6
-24 6 -23 19 3 26 12 3 19 11 17 18 -5 15 -18 19 -35 12z m27 -13 c0 -5 -7
-10 -16 -10 -8 0 -12 5 -9 10 3 6 10 10 16 10 5 0 9 -4 9 -10z"/>
<path d="M2990 3746 c0 -6 -3 -22 -5 -36 -4 -20 -2 -18 10 8 19 41 39 43 30 2
-4 -17 -2 -30 3 -30 5 0 9 15 8 33 -1 26 -5 32 -23 33 -13 1 -23 -4 -23 -10z"/>
<path d="M3658 3725 c-2 -20 1 -36 7 -39 7 -2 10 7 7 25 -3 18 0 29 7 29 7 0
9 5 6 10 -12 19 -23 10 -27 -25z"/>
<path d="M1876 3728 c-8 -30 -7 -38 2 -38 4 0 8 14 9 30 3 36 -2 39 -11 8z"/>
<path d="M1910 3718 c0 -36 4 -35 14 5 4 16 2 27 -4 27 -5 0 -10 -14 -10 -32z"/>
<path d="M3515 3730 c-4 -12 -1 -27 5 -35 17 -21 50 -1 50 30 0 20 -5 25 -24
25 -16 0 -27 -7 -31 -20z m45 -4 c0 -18 -26 -40 -34 -27 -9 14 4 41 20 41 8 0
14 -6 14 -14z"/>
<path d="M3585 3730 c-4 -12 -1 -27 5 -35 17 -21 50 -1 50 30 0 20 -5 25 -24
25 -16 0 -27 -7 -31 -20z m45 -4 c0 -18 -26 -40 -34 -27 -9 14 4 41 20 41 8 0
14 -6 14 -14z"/>
<path d="M3804 3736 c-3 -8 -4 -23 -2 -32 7 -37 46 -24 50 16 2 19 -2 26 -20
28 -13 2 -24 -3 -28 -12z m36 -15 c0 -23 -16 -36 -25 -21 -9 14 1 40 15 40 5
0 10 -9 10 -19z"/>
<path d="M3982 3713 c-3 -44 3 -42 11 5 4 17 3 32 -1 32 -4 0 -9 -17 -10 -37z"/>
<path d="M4016 3735 c-3 -9 -6 -23 -6 -30 0 -16 27 -27 35 -14 4 5 3 9 -2 8
-23 -4 -25 3 -4 14 30 15 32 31 5 35 -13 2 -24 -4 -28 -13z m34 1 c0 -3 -4 -8
-10 -11 -5 -3 -10 -1 -10 4 0 6 5 11 10 11 6 0 10 -2 10 -4z"/>
<path d="M4081 3718 c1 -29 2 -30 8 -9 3 13 15 28 26 32 17 6 16 8 -7 8 -25 1
-28 -2 -27 -31z"/>
<path d="M4618 3720 c-3 -16 -1 -30 3 -30 4 0 9 10 11 23 2 12 9 21 16 20 6
-2 12 2 12 7 0 6 -8 10 -19 10 -13 0 -20 -9 -23 -30z"/>
<path d="M4677 3743 c-4 -3 -7 -16 -7 -29 0 -23 25 -40 35 -23 4 5 1 8 -7 7
-7 -2 -13 6 -13 17 0 13 6 20 18 19 9 -1 17 2 17 7 0 10 -34 12 -43 2z"/>
<path d="M4809 3729 c-9 -17 -8 -25 5 -37 13 -13 18 -14 28 -3 11 10 10 11 -4
6 -10 -4 -18 -3 -18 3 0 6 9 14 20 17 11 3 20 13 20 21 0 22 -38 17 -51 -7z
m36 1 c-3 -5 -10 -10 -16 -10 -5 0 -9 5 -9 10 0 6 7 10 16 10 8 0 12 -4 9 -10z"/>
<path d="M4873 3717 l-1 -32 10 28 c6 18 15 26 24 23 8 -3 14 -1 14 4 0 6 -10
10 -22 10 -19 0 -23 -6 -25 -33z"/>
<path d="M5580 3720 c0 -16 2 -30 4 -30 2 0 6 14 8 30 3 17 1 30 -4 30 -4 0
-8 -13 -8 -30z"/>
<path d="M5687 3743 c-11 -10 -8 -51 4 -59 6 -3 16 -1 22 6 9 10 9 11 0 6 -6
-3 -14 -2 -17 3 -4 5 3 12 14 16 25 8 26 35 2 35 -10 0 -22 -3 -25 -7z m28
-13 c-3 -5 -10 -10 -16 -10 -5 0 -9 5 -9 10 0 6 7 10 16 10 8 0 12 -4 9 -10z"/>
<path d="M5750 3736 c0 -8 -3 -22 -7 -32 -4 -12 -3 -15 5 -10 7 4 12 16 12 27
0 10 7 19 15 19 11 0 14 -7 10 -27 l-5 -28 12 28 c7 15 17 27 24 27 7 0 10
-11 7 -27 -3 -24 -2 -25 6 -8 18 38 13 45 -34 45 -32 0 -45 -4 -45 -14z"/>
<path d="M5862 3738 c-24 -24 -5 -59 29 -51 26 7 27 63 1 63 -10 0 -23 -5 -30
-12z m38 -12 c0 -18 -26 -40 -34 -27 -9 14 4 41 20 41 8 0 14 -6 14 -14z"/>
<path d="M5933 3718 c-1 -28 0 -30 6 -9 11 38 31 38 32 -1 l1 -33 7 30 c9 38
5 45 -22 45 -19 0 -23 -6 -24 -32z"/>
<path d="M2715 3690 c3 -5 16 -10 28 -9 21 0 21 1 2 9 -28 12 -37 12 -30 0z"/>
<path d="M4610 3399 c0 -18 -9 -47 -21 -65 l-21 -34 57 0 56 0 -20 29 c-12 16
-21 45 -21 65 0 25 -4 36 -15 36 -10 0 -15 -10 -15 -31z"/>
<path d="M4582 3378 c-6 -6 -12 -20 -12 -29 0 -10 -6 -19 -12 -22 -16 -5 -15
-176 0 -204 6 -10 29 -25 53 -33 78 -28 78 -28 68 -334 -5 -148 -6 -272 -3
-275 9 -10 238 -13 251 -3 10 6 9 55 -7 233 -25 287 -26 272 6 231 25 -31 28
-32 75 -26 49 7 49 6 61 -27 l12 -34 7 30 c9 41 10 110 2 118 -3 4 -12 2 -20
-5 -10 -8 -20 -8 -39 1 -14 6 -30 9 -35 5 -5 -3 -22 24 -38 60 -31 68 -51 86
-100 86 -34 0 -36 -6 -46 -96 -7 -60 -19 -94 -30 -83 -3 4 -10 35 -16 70 -19
114 -22 124 -49 127 -14 1 -40 5 -59 8 l-33 5 4 55 c5 53 4 54 -22 54 -39 0
-42 9 -19 47 22 35 23 63 1 41z"/>
<path d="M2499 3334 c-10 -25 -19 -49 -19 -53 0 -7 197 -101 210 -101 3 0 6
17 6 38 1 20 3 45 5 56 3 15 -14 27 -89 62 l-93 43 -20 -45z"/>
<path d="M4778 3338 c-13 -13 -31 -27 -42 -33 -11 -5 -21 -17 -23 -25 -3 -10
-1 -9 7 3 15 23 40 22 40 -3 0 -14 -7 -20 -21 -20 -14 0 -19 -5 -17 -17 2 -13
11 -17 29 -15 27 3 59 -20 59 -41 0 -7 -9 -1 -19 12 -12 16 -24 22 -35 18 -22
-9 -20 -21 7 -36 43 -23 117 11 117 54 0 20 -33 24 -53 6 -17 -15 -20 -14 -39
9 l-20 24 22 10 c15 7 27 6 38 -2 40 -29 67 -27 42 3 -7 8 -10 21 -7 29 4 9
-2 17 -15 22 -16 5 -18 8 -7 15 10 6 6 9 -13 9 -16 0 -38 -10 -50 -22z"/>
<path d="M3751 3340 c-18 -4 -42 -17 -53 -27 -16 -17 -17 -23 -7 -46 10 -22
15 -24 31 -16 10 6 29 8 41 6 20 -4 19 -4 -3 -6 -53 -2 -66 -46 -25 -86 43
-44 112 -31 135 25 15 35 1 60 -34 60 -11 0 -28 5 -36 10 -11 7 -5 8 20 4 19
-4 39 -11 45 -15 15 -14 21 -11 34 18 12 25 10 30 -14 50 -14 13 -34 23 -43
23 -9 0 -26 2 -37 4 -11 3 -35 1 -54 -4z"/>
<path d="M5684 3340 c-12 -4 -31 -21 -44 -37 -20 -25 -22 -36 -17 -115 3 -59
1 -86 -6 -81 -6 3 -7 1 -3 -6 12 -19 23 -4 28 42 6 53 26 96 54 114 18 12 24
11 46 -6 25 -20 48 -79 48 -124 0 -29 15 -44 26 -26 4 7 3 10 -2 6 -5 -3 -9
34 -9 89 0 87 -2 95 -25 118 -29 29 -66 39 -96 26z"/>
<path d="M5457 3308 c6 -7 13 -39 17 -71 6 -58 28 -124 54 -165 27 -42 23 -16
-9 51 -19 42 -29 78 -27 98 l3 32 50 -61 c28 -34 54 -61 59 -61 5 -1 -12 23
-38 52 -26 28 -59 71 -74 94 -15 23 -31 43 -36 43 -5 0 -4 -6 1 -12z"/>
<path d="M1833 3295 c-18 -8 -33 -17 -33 -20 0 -3 30 -5 67 -5 58 0 65 2 53
14 -24 22 -53 26 -87 11z"/>
<path d="M2729 3280 l-24 -19 73 -1 c72 0 90 10 53 30 -31 16 -77 12 -102 -10z"/>
<path d="M5934 3289 c-19 -23 -41 -83 -36 -98 3 -8 0 -11 -7 -7 -7 5 -9 1 -5
-9 6 -14 10 -13 30 6 28 26 30 39 7 39 -14 0 -13 4 6 24 13 13 21 32 19 42 -2
14 -5 15 -14 3z"/>
<path d="M4792 3263 c2 -10 10 -18 18 -18 8 0 16 8 18 18 2 12 -3 17 -18 17
-15 0 -20 -5 -18 -17z"/>
<path d="M1818 3253 c-31 -5 -41 -24 -29 -56 12 -32 41 -55 76 -60 23 -3 21
-4 -7 -3 -21 1 -38 -1 -38 -5 0 -4 -15 -10 -33 -13 -18 -3 -42 -13 -54 -21
-24 -17 -75 -103 -65 -109 9 -5 152 -25 217 -30 28 -2 9 -2 -42 -1 l-92 2 -4
-26 -4 -26 -2 27 c-1 26 -34 48 -49 33 -4 -4 -9 -49 -10 -101 -3 -81 -2 -95
13 -100 10 -4 21 -1 27 7 9 14 3 -164 -9 -243 -5 -33 -3 -38 28 -55 46 -24
198 -25 250 -2 l35 16 -13 159 c-7 88 -12 173 -10 189 2 17 5 6 5 -22 2 -45 5
-53 21 -53 25 0 35 56 26 145 -7 60 -9 66 -29 63 -17 -2 -22 -12 -27 -53 l-6
-50 -1 47 c-2 40 -5 47 -24 50 -13 2 5 8 40 12 36 5 62 13 62 19 0 7 -14 33
-30 59 -24 38 -38 49 -72 59 -54 14 -62 26 -37 57 25 32 26 82 2 82 -10 0 -34
2 -53 4 -19 2 -47 2 -62 -1z m70 -183 c14 0 14 -1 0 -12 -9 -7 -19 -26 -21
-43 -4 -27 -4 -26 -6 8 0 20 -6 37 -11 37 -6 0 -5 6 2 14 7 8 15 10 16 5 2 -5
11 -9 20 -9z m-151 -252 c-2 -18 -4 -6 -4 27 0 33 2 48 4 33 2 -15 2 -42 0
-60z"/>
<path d="M5702 3253 c-15 -6 -42 -55 -42 -78 0 -34 94 -42 107 -9 7 19 -16 73
-36 83 -9 5 -22 6 -29 4z"/>
<path d="M2700 3215 c0 -38 42 -75 83 -75 44 0 75 26 83 68 l7 32 -87 0 c-85
0 -86 0 -86 -25z"/>
<path d="M2871 3186 c-5 -13 -21 -32 -36 -42 l-26 -20 172 -77 c94 -43 173
-77 174 -75 16 18 45 92 38 98 -9 8 -299 140 -308 140 -3 0 -10 -11 -14 -24z"/>
<path d="M5846 3148 c-14 -20 -14 -24 1 -40 16 -18 17 -17 34 9 13 20 15 31 7
40 -15 18 -25 16 -42 -9z"/>
<path d="M3084 3135 c21 -16 32 -13 21 4 -3 6 -14 11 -23 11 -15 -1 -15 -2 2
-15z"/>
<path d="M3710 3131 c-6 -12 -17 -21 -25 -21 -11 0 -15 -12 -16 -42 -1 -38 -2
-40 -8 -13 l-6 29 -17 -39 c-9 -22 -20 -50 -23 -62 -4 -13 -13 -23 -21 -23 -8
0 -14 -9 -14 -20 0 -18 -7 -20 -55 -20 -43 0 -55 -3 -55 -15 0 -24 25 -28 98
-15 94 18 100 22 105 78 3 40 4 38 5 -18 1 -36 -2 -92 -8 -124 -11 -68 -3 -85
39 -87 23 -2 24 -2 4 -6 -23 -4 -23 -7 -23 -139 0 -75 5 -144 10 -155 7 -12
21 -19 41 -19 43 0 51 31 47 182 l-3 128 25 -1 c17 -1 19 -3 8 -6 -16 -4 -18
-19 -18 -134 0 -72 5 -139 10 -150 7 -12 21 -19 41 -19 42 0 49 27 49 181 0
127 0 129 -22 130 -18 0 -15 3 12 12 26 10 34 17 32 32 -2 11 -5 79 -6 150 -2
72 -1 100 1 63 4 -74 21 -95 69 -85 13 2 24 4 24 3 0 -1 -4 -15 -9 -33 -9 -30
-8 -32 31 -48 22 -9 42 -15 43 -13 23 29 75 110 75 118 0 6 -7 13 -15 16 -22
9 -18 33 11 71 14 19 24 36 23 37 -9 8 -49 26 -56 26 -4 0 -9 -13 -10 -30 -3
-41 -21 -71 -41 -69 -36 3 -42 -2 -43 -33 0 -30 -1 -31 -9 -10 -5 12 -16 22
-25 22 -8 0 -15 9 -15 20 0 27 -30 100 -41 100 -5 0 -9 7 -9 15 0 8 -6 15 -14
15 -7 0 -20 10 -28 21 -12 19 -17 20 -37 9 -23 -12 -70 -10 -103 4 -11 5 -20
1 -28 -13z m100 -75 c0 -2 -7 -6 -15 -10 -8 -3 -15 -1 -15 4 0 6 7 10 15 10 8
0 15 -2 15 -4z m0 -96 c0 -5 -7 -10 -15 -10 -8 0 -15 5 -15 10 0 6 7 10 15 10
8 0 15 -4 15 -10z m240 6 c0 -3 -4 -8 -10 -11 -5 -3 -10 -1 -10 4 0 6 5 11 10
11 6 0 10 -2 10 -4z m87 -48 c-3 -8 -6 -5 -6 6 -1 11 2 17 5 13 3 -3 4 -12 1
-19z m-327 -48 c0 -5 -7 -10 -15 -10 -8 0 -15 5 -15 10 0 6 7 10 15 10 8 0 15
-4 15 -10z"/>
<path d="M5662 3124 c-6 -7 -12 -20 -12 -29 0 -8 -6 -15 -12 -15 -7 -1 5 -18
28 -38 22 -20 43 -44 47 -52 4 -11 6 -12 6 -1 1 7 20 31 44 52 23 21 36 38 30
39 -7 0 -13 7 -13 16 0 8 -6 21 -12 28 -18 16 -90 16 -106 0z"/>
<path d="M3446 3111 c-4 -5 -2 -12 3 -15 5 -4 12 -2 15 3 4 5 2 12 -3 15 -5 4
-12 2 -15 -3z"/>
<path d="M2667 3099 c-40 -23 -60 -88 -65 -206 -4 -95 -8 -115 -24 -130 -16
-14 -23 -15 -39 -5 -18 11 -19 9 -19 -25 0 -31 5 -40 25 -49 30 -14 55 6 37
29 -8 10 -5 16 11 27 12 8 28 15 35 16 20 3 42 25 42 40 0 8 4 14 9 14 6 0 8
9 6 20 -4 23 -1 24 26 10 20 -11 25 -45 10 -69 -6 -10 -13 -10 -28 -3 -18 10
-20 4 -32 -154 -13 -178 -10 -194 34 -194 31 0 42 16 50 73 7 45 9 47 40 47
32 0 33 -1 37 -52 6 -56 25 -79 59 -71 35 9 38 33 24 193 -8 100 -9 159 -3
167 6 8 6 29 -2 60 -12 53 -19 193 -9 193 4 0 22 -7 41 -15 29 -11 39 -12 53
-1 15 11 6 17 -74 54 -79 36 -101 42 -159 42 -37 0 -75 -5 -85 -11z m4 -240
c-8 -20 -10 -15 -10 32 -1 31 2 72 7 90 6 29 7 25 10 -32 2 -36 -2 -76 -7 -90z
m203 -23 c-18 -14 -18 -15 -1 -21 33 -13 15 -55 -24 -55 -17 0 -10 68 9 79 26
16 39 13 16 -3z m-44 -39 c0 -19 3 -82 7 -140 l6 -107 -59 0 -59 0 7 112 c3
62 7 125 7 141 1 25 4 27 46 27 44 0 45 0 45 -33z"/>
<path d="M2753 2760 c0 -30 2 -43 4 -27 2 15 2 39 0 55 -2 15 -4 2 -4 -28z"/>
<path d="M2743 2620 c0 -25 2 -35 4 -22 2 12 2 32 0 45 -2 12 -4 2 -4 -23z"/>
<path d="M5091 3093 c12 -15 12 -16 -5 -10 -12 5 -34 -2 -62 -18 -24 -14 -44
-21 -44 -16 0 6 14 17 30 26 42 22 38 28 -5 8 -43 -21 -42 -38 5 -65 l35 -20
53 32 c53 34 61 44 40 56 -6 4 -8 3 -4 -4 10 -16 -14 -26 -27 -12 -9 10 -9 11
3 5 10 -6 8 -1 -4 13 -22 26 -35 30 -15 5z"/>
<path d="M5561 3048 c-10 -24 -22 -60 -25 -80 -7 -37 -6 -38 22 -38 31 0 41
13 44 53 0 12 4 3 7 -21 l6 -42 38 26 c20 15 37 32 37 38 0 13 -91 106 -103
106 -5 0 -16 -19 -26 -42z"/>
<path d="M5782 3037 l-53 -53 40 -32 c22 -18 42 -32 45 -32 3 0 6 21 7 48 l1
47 10 -42 c8 -39 12 -43 39 -43 29 0 30 1 23 38 -8 46 -40 122 -51 122 -5 0
-32 -24 -61 -53z"/>
<path d="M3385 3069 c-4 -6 -3 -15 3 -21 6 -6 11 -4 15 6 7 18 -9 31 -18 15z"/>
<path d="M5106 3025 c-23 -17 -13 -34 11 -19 19 12 29 34 16 34 -4 0 -17 -7
-27 -15z"/>
<path d="M3415 3000 c-3 -5 -1 -10 4 -10 6 0 11 5 11 10 0 6 -2 10 -4 10 -3 0
-8 -4 -11 -10z"/>
<path d="M3455 2975 c-3 -8 -7 -22 -10 -30 -4 -12 7 -15 60 -15 36 0 65 2 65
4 0 3 -4 16 -10 30 -8 23 -15 26 -55 26 -32 0 -47 -5 -50 -15z"/>
<path d="M5666 2934 c-25 -19 -46 -37 -46 -39 0 -3 44 -5 98 -5 l97 1 -35 30
c-60 52 -63 52 -114 13z"/>
<path d="M5532 2843 c3 -68 6 -78 22 -81 31 -6 41 19 38 91 -4 67 -4 67 -33
67 l-30 0 3 -77z"/>
<path d="M5842 2843 l3 -77 48 -12 c26 -7 54 -18 62 -24 8 -7 15 -9 14 -4 0
13 -59 57 -59 45 0 -6 -4 -11 -8 -11 -4 0 -6 24 -3 53 10 88 4 107 -30 107
l-30 0 3 -77z"/>
<path d="M5605 2759 c-4 -60 -6 -111 -4 -113 2 -2 23 -6 45 -9 l42 -5 7 89 c4
62 10 89 19 89 13 0 26 -68 26 -141 l0 -37 48 6 c26 2 47 5 47 6 0 0 -4 52 -8
114 l-9 112 -103 0 -103 0 -7 -111z"/>
<path d="M5586 2598 c-17 -114 -16 -139 8 -163 26 -26 61 -24 75 4 5 9 12 51
16 95 8 89 4 96 -57 96 -34 0 -37 -3 -42 -32z m24 -28 c0 -5 -5 -10 -11 -10
-5 0 -7 5 -4 10 3 6 8 10 11 10 2 0 4 -4 4 -10z"/>
<path d="M5752 2621 c-17 -10 -6 -161 13 -187 13 -19 61 -22 78 -5 12 12 12
146 1 184 -6 18 -67 24 -92 8z m83 -51 c3 -5 1 -10 -4 -10 -6 0 -11 5 -11 10
0 6 2 10 4 10 3 0 8 -4 11 -10z"/>
<path d="M4720 2440 c13 -24 55 -27 64 -4 9 24 9 24 -34 24 -38 0 -40 -2 -30
-20z"/>
<path d="M4822 2443 c4 -22 47 -30 59 -11 15 23 10 28 -27 28 -28 0 -35 -3
-32 -17z"/>
<path d="M1770 2440 c0 -17 43 -29 63 -18 23 12 21 14 -25 22 -25 5 -38 3 -38
-4z"/>
<path d="M1918 2443 c-33 -5 -37 -18 -8 -26 12 -3 30 3 43 14 23 19 20 20 -35
12z"/>
<path d="M5513 2305 c-6 -25 -6 -45 -2 -45 5 0 9 7 9 15 0 19 20 19 34 0 9
-12 11 -8 13 22 2 36 -9 53 -33 53 -6 0 -15 -20 -21 -45z m42 15 c0 -7 -6 -15
-12 -17 -8 -3 -13 4 -13 17 0 13 5 20 13 18 6 -3 12 -11 12 -18z"/>
<path d="M2775 2295 c-4 -25 -5 -48 -2 -51 2 -3 8 16 12 41 3 26 4 49 2 52 -3
3 -9 -16 -12 -42z"/>
<path d="M2850 2327 c0 -7 -10 -17 -22 -22 -33 -15 -32 -59 2 -61 23 -2 25 1
28 47 2 27 1 49 -2 49 -4 0 -6 -6 -6 -13z m-9 -49 c-10 -28 -31 -35 -31 -10 0
22 8 32 26 32 10 0 11 -6 5 -22z"/>
<path d="M2590 2301 c0 -16 -3 -36 -6 -45 -4 -11 0 -16 12 -16 31 0 42 13 46
50 3 32 0 35 -24 38 -25 3 -28 0 -28 -27z m36 -13 c-1 -17 -7 -33 -13 -35 -8
-3 -12 8 -11 31 1 21 6 36 13 36 8 0 12 -13 11 -32z"/>
<path d="M3534 2285 c-6 -25 -7 -45 -3 -45 4 0 11 15 15 33 4 18 9 25 11 17
13 -44 14 -44 34 -15 l21 30 -4 -32 c-3 -18 -1 -33 3 -33 4 0 9 20 11 45 4 53
-5 57 -28 13 l-17 -33 -9 33 c-12 44 -22 40 -34 -13z"/>
<path d="M3825 2290 c-4 -23 -5 -44 -2 -46 3 -3 8 13 12 36 4 23 5 44 2 46 -3
3 -8 -13 -12 -36z"/>
<path d="M4047 2313 c-2 -5 -4 -23 -5 -40 -2 -26 2 -33 15 -33 13 0 15 2 5 8
-9 7 -10 15 -3 35 9 23 -1 50 -12 30z"/>
<path d="M4512 2275 c-12 -25 -18 -45 -13 -45 5 0 11 7 15 15 7 20 26 19 42
-2 12 -17 13 -17 9 2 -18 91 -21 93 -53 30z m38 5 c0 -5 -4 -10 -10 -10 -5 0
-10 5 -10 10 0 6 5 10 10 10 6 0 10 -4 10 -10z"/>
<path d="M4596 2305 c-3 -9 -6 -31 -5 -48 1 -28 2 -26 10 12 9 46 6 65 -5 36z"/>
<path d="M4690 2309 c0 -9 -2 -32 -6 -50 l-5 -34 15 33 c18 38 36 36 28 -3 -2
-14 0 -25 4 -25 5 0 10 14 11 30 2 21 -3 33 -15 37 -9 4 -20 11 -24 17 -5 7
-8 5 -8 -5z"/>
<path d="M5592 2303 c-13 -26 -4 -43 24 -43 21 0 24 4 23 33 -2 30 -2 30 -6 5
-2 -16 -11 -28 -19 -28 -17 0 -19 36 -1 43 9 4 9 6 0 6 -7 1 -16 -7 -21 -16z"/>
<path d="M5666 2294 c-10 -38 0 -41 12 -5 6 17 7 31 3 31 -5 0 -12 -12 -15
-26z"/>
<path d="M5703 2290 c-1 -17 1 -30 5 -30 4 0 9 14 10 30 1 17 -1 30 -5 30 -5
0 -9 -14 -10 -30z"/>
<path d="M5740 2305 c-10 -12 -10 -19 -2 -27 8 -8 9 -15 1 -25 -9 -9 -7 -14 6
-19 23 -9 35 6 40 52 3 27 2 32 -3 15 -11 -35 -36 -41 -30 -7 6 30 5 31 -12
11z m30 -55 c0 -5 -7 -10 -16 -10 -8 0 -12 5 -9 10 3 6 10 10 16 10 5 0 9 -4
9 -10z"/>
<path d="M5812 2308 c-25 -25 0 -66 28 -48 12 8 11 10 -5 10 -19 1 -19 2 3 17
23 16 29 33 11 33 -5 0 -7 -4 -4 -10 3 -5 -1 -10 -10 -10 -9 0 -13 5 -10 10 8
14 2 13 -13 -2z"/>
<path d="M5873 2288 l-2 -33 11 28 c6 18 15 26 24 23 8 -3 14 -1 14 4 0 6 -10
10 -23 10 -19 0 -23 -6 -24 -32z"/>
<path d="M1713 2265 c-8 -36 -8 -45 3 -45 8 0 11 6 8 15 -4 9 0 15 9 15 22 0
47 28 41 45 -4 8 -16 15 -28 15 -19 0 -25 -8 -33 -45z m45 18 c-5 -25 -28 -28
-28 -4 0 12 6 21 16 21 9 0 14 -7 12 -17z"/>
<path d="M2662 2278 c2 -26 8 -33 26 -34 15 -1 22 4 22 17 0 9 3 26 6 36 5 12
4 15 -4 8 -5 -5 -12 -19 -14 -29 -1 -11 -9 -21 -17 -24 -11 -4 -13 2 -8 27 4
19 2 31 -4 31 -6 0 -9 -15 -7 -32z"/>
<path d="M2740 2298 c0 -7 -3 -23 -6 -35 -4 -13 -2 -23 2 -23 5 0 10 16 11 35
2 19 1 35 -2 35 -3 0 -5 -6 -5 -12z"/>
<path d="M2880 2290 c-14 -27 -6 -50 17 -50 15 0 15 1 -2 14 -17 12 -17 13 9
20 15 4 26 12 23 19 -7 21 -35 19 -47 -3z m35 0 c-3 -5 -10 -10 -16 -10 -5 0
-9 5 -9 10 0 6 7 10 16 10 8 0 12 -4 9 -10z"/>
<path d="M2943 2273 c-1 -36 -1 -36 6 -8 4 20 12 30 24 29 9 -1 17 2 17 7 0 5
-10 9 -23 9 -20 0 -23 -5 -24 -37z"/>
<path d="M3652 2298 c-7 -7 -12 -22 -12 -35 0 -18 5 -23 23 -22 16 1 18 2 5 6
-24 6 -23 19 3 26 12 3 19 11 17 18 -6 18 -22 21 -36 7z m28 -8 c0 -5 -7 -10
-16 -10 -8 0 -12 5 -9 10 3 6 10 10 16 10 5 0 9 -4 9 -10z"/>
<path d="M3710 2289 c0 -10 -2 -26 -5 -36 -3 -10 2 -3 10 15 9 18 20 30 25 27
6 -3 10 -2 10 4 0 5 -9 9 -20 8 -12 -1 -20 -8 -20 -18z"/>
<path d="M3773 2303 c-7 -2 -13 -18 -13 -34 0 -24 4 -29 23 -28 17 1 18 2 4 6
-24 6 -19 49 5 47 10 -1 15 2 12 7 -6 10 -12 10 -31 2z"/>
<path d="M3859 2273 l4 -38 8 29 c8 29 5 46 -10 46 -4 0 -5 -17 -2 -37z"/>
<path d="M3905 2294 c-22 -23 -15 -48 16 -52 22 -3 25 1 27 33 3 39 -15 47
-43 19z m35 -6 c0 -7 -5 -20 -10 -28 -7 -12 -12 -12 -21 -3 -9 9 -9 16 1 28
15 18 30 20 30 3z"/>
<path d="M3971 2275 c1 -40 1 -40 10 -10 5 18 5 33 -1 39 -7 7 -10 -4 -9 -29z"/>
<path d="M4008 2275 c2 -19 6 -35 8 -35 2 0 4 16 4 35 0 19 -4 35 -8 35 -4 0
-6 -16 -4 -35z"/>
<path d="M2006 2293 c-3 -3 -6 -21 -6 -40 0 -25 4 -33 18 -32 10 0 12 3 5 6
-16 6 -17 35 -2 50 6 6 7 13 1 17 -5 3 -12 3 -16 -1z"/>
<path d="M4632 2288 c-7 -7 -12 -22 -12 -35 0 -18 5 -23 23 -22 17 1 18 2 4 6
-24 6 -19 49 6 47 9 -1 17 2 17 7 0 13 -24 11 -38 -3z"/>
<path d="M4766 2284 c-23 -23 -16 -49 14 -51 15 -1 18 0 8 3 -24 7 -23 20 3
27 12 3 19 11 17 18 -7 20 -24 21 -42 3z m34 -4 c0 -5 -7 -10 -16 -10 -8 0
-12 5 -9 10 3 6 10 10 16 10 5 0 9 -4 9 -10z"/>
<path d="M4825 2270 c-4 -17 -5 -34 -2 -36 3 -3 8 9 12 26 4 17 5 34 2 36 -3
3 -8 -9 -12 -26z"/>
<path d="M4859 2261 l4 -36 9 33 c5 17 13 32 18 32 5 0 11 -15 13 -32 l4 -33
1 37 c2 34 0 37 -26 36 -26 -1 -27 -3 -23 -37z"/>
<path d="M4940 2288 c0 -7 -3 -23 -6 -35 -4 -13 -2 -23 2 -23 5 0 10 16 11 35
2 19 1 35 -2 35 -3 0 -5 -6 -5 -12z"/>
<path d="M4973 2285 c-3 -9 3 -23 13 -31 18 -15 18 -15 -3 -11 -13 3 -23 1
-23 -4 0 -13 38 -11 46 3 4 6 0 16 -9 23 -21 15 -22 29 -2 21 8 -3 15 -1 15 4
0 16 -30 11 -37 -5z"/>
<path d="M5030 2275 c0 -14 0 -28 -1 -32 0 -4 4 -9 9 -11 5 -1 7 9 4 24 -3 16
1 29 9 35 11 7 10 9 -3 9 -13 0 -18 -8 -18 -25z"/>
<path d="M1791 2255 c1 -29 1 -29 8 -5 4 14 13 24 19 23 7 -2 12 1 12 6 0 6
-9 9 -20 8 -16 -1 -20 -8 -19 -32z"/>
<path d="M1850 2271 c0 -11 -3 -26 -6 -35 -3 -9 -2 -16 3 -16 5 0 10 16 11 35
2 19 0 35 -3 35 -3 0 -5 -9 -5 -19z"/>
<path d="M1893 2282 c-11 -7 -16 -26 -14 -49 0 -7 11 -12 24 -12 16 1 18 2 5
6 -24 6 -23 19 2 26 11 3 20 12 20 21 0 17 -17 21 -37 8z m27 -12 c0 -5 -7
-10 -16 -10 -8 0 -12 5 -9 10 3 6 10 10 16 10 5 0 9 -4 9 -10z"/>
<path d="M1944 2278 c-4 -6 0 -16 9 -23 21 -15 22 -29 2 -21 -8 3 -15 1 -15
-4 0 -13 27 -13 35 1 4 5 -1 20 -12 31 -18 20 -18 21 5 14 13 -5 22 -3 22 3 0
15 -37 14 -46 -1z"/>
<path d="M4477 1951 c-15 -50 -27 -109 -27 -133 -1 -24 -5 -62 -9 -85 -5 -25
-5 -43 1 -43 5 0 10 6 12 13 1 6 12 41 24 77 18 57 42 260 30 260 -2 0 -16
-40 -31 -89z"/>
<path d="M4188 1675 c-16 -9 -28 -17 -28 -19 0 -3 -7 -40 -15 -83 -8 -43 -15
-79 -15 -79 0 -1 17 -4 38 -7 20 -3 56 -10 80 -17 23 -7 45 -11 47 -9 2 3 7
28 11 56 l6 52 -36 6 c-20 4 -36 11 -36 17 0 5 15 6 35 2 32 -6 35 -4 35 19 0
57 -69 92 -122 62z"/>
<path d="M4423 1645 c-8 -22 6 -33 17 -15 13 20 12 30 0 30 -6 0 -13 -7 -17
-15z"/>
<path d="M4416 1582 c-12 -21 -35 -177 -27 -185 6 -6 12 5 16 29 4 22 13 67
19 102 11 54 7 79 -8 54z"/>
<path d="M4086 1464 l-28 -16 33 -29 c19 -16 27 -26 18 -23 -20 7 -29 -31 -29
-128 0 -84 7 -99 59 -123 48 -21 55 -18 41 20 -14 37 -19 85 -10 85 13 0 22
32 27 89 3 51 2 53 -19 47 -13 -3 -26 -6 -30 -6 -13 0 -20 -100 -8 -115 8 -10
9 -15 2 -15 -20 0 -24 21 -17 81 5 41 11 59 21 59 8 0 33 9 55 21 l41 20 -23
25 c-27 29 -87 32 -133 8z"/>
<path d="M4710 1411 c0 -4 5 -12 12 -19 17 -17 3 -26 -20 -13 -12 6 -35 11
-53 11 -31 0 -32 -1 -13 -15 18 -13 17 -14 -19 -15 -21 0 -54 -7 -75 -16 -36
-16 -36 -17 -12 -23 20 -6 22 -9 10 -17 -19 -12 -45 -83 -34 -94 22 -19 249
-110 252 -101 2 6 10 11 19 11 16 0 71 -35 89 -57 17 -21 81 -28 110 -13 l24
13 -42 24 c-24 14 -54 34 -66 46 -24 22 -62 88 -62 107 0 6 20 19 45 30 50 21
50 22 33 50 -10 15 -9 23 6 39 19 21 19 21 -8 21 -15 0 -35 -4 -45 -10 -14 -7
-23 -4 -37 11 -13 14 -19 16 -25 7 -6 -9 -12 -9 -26 3 -20 18 -63 31 -63 20z"/>
<path d="M4216 1398 c-3 -7 -7 -29 -10 -48 -5 -33 -5 -34 9 -16 8 11 15 25 15
32 0 7 3 19 6 28 3 9 1 16 -5 16 -7 0 -13 -6 -15 -12z"/>
<path d="M4262 1398 c-17 -21 -82 -169 -82 -187 0 -31 52 -173 66 -178 8 -3
51 10 96 29 l83 34 38 79 c57 118 58 127 6 164 -38 28 -150 71 -184 71 -7 0
-17 -6 -23 -12z m101 -24 c9 -3 17 -9 17 -13 0 -7 -39 -102 -45 -109 -1 -1
-25 7 -53 19 l-51 21 15 36 c27 65 36 68 117 46z m97 -52 l34 -29 -18 -46
c-10 -26 -21 -47 -26 -47 -5 0 -29 9 -55 20 -38 16 -44 23 -37 37 6 10 17 35
25 56 19 44 32 46 77 9z m-141 -89 c2 -2 -13 -42 -34 -89 l-39 -87 -23 69
c-26 77 -28 93 -12 128 l12 25 46 -22 c25 -12 48 -23 50 -24z m76 -33 c40 -17
46 -23 40 -42 -10 -34 -23 -44 -98 -77 -63 -29 -68 -29 -62 -11 10 32 65 150
69 150 3 0 25 -9 51 -20z"/>
<path d="M4301 1341 c-9 -6 -10 -14 -5 -24 6 -10 14 -13 23 -8 9 6 10 14 5 24
-6 10 -14 13 -23 8z"/>
<path d="M4413 1284 c-17 -7 -4 -34 13 -27 8 3 14 11 14 19 0 14 -6 16 -27 8z"/>
<path d="M4243 1222 c-17 -11 1 -36 21 -29 9 4 13 13 10 22 -7 17 -13 18 -31
7z"/>
<path d="M4363 1173 c-14 -5 -17 -29 -5 -37 4 -2 14 -1 21 3 16 11 2 40 -16
34z"/>
<path d="M5387 1392 c-22 -24 -22 -71 -1 -79 12 -4 13 -8 3 -13 -6 -5 -9 -15
-6 -25 11 -26 77 -17 88 13 5 13 4 22 -1 22 -6 0 -10 -6 -10 -14 0 -14 -21
-26 -46 -26 -8 0 -14 5 -14 10 0 6 11 10 25 10 16 0 25 6 25 15 0 8 7 15 15
15 22 0 19 46 -5 70 -25 25 -52 26 -73 2z m23 -42 c0 -5 -7 -10 -15 -10 -8 0
-15 5 -15 10 0 6 7 10 15 10 8 0 15 -4 15 -10z m50 0 c0 -5 -4 -10 -9 -10 -6
0 -13 5 -16 10 -3 6 1 10 9 10 9 0 16 -4 16 -10z"/>
<path d="M5667 1312 c-24 -26 -55 -101 -63 -152 -5 -32 -16 -51 -41 -73 -49
-43 -43 -53 28 -49 l61 4 -6 41 c-11 64 -7 100 13 127 26 36 64 38 91 3 20
-25 21 -35 16 -100 l-7 -72 58 -4 58 -3 -57 -2 c-51 -2 -58 -5 -58 -22 0 -11
-13 -34 -28 -51 l-28 -31 -27 32 c-15 17 -27 40 -27 51 0 16 -7 19 -54 19 -37
0 -60 -5 -71 -16 -15 -15 -18 -15 -37 2 l-21 19 5 -49 c6 -52 34 -91 59 -81 8
3 21 24 29 47 8 23 21 43 28 46 9 3 12 -59 12 -288 0 -182 4 -299 10 -311 13
-23 53 -25 74 -3 13 13 16 47 18 192 l2 177 6 -180 c3 -99 9 -186 13 -193 11
-17 52 -15 71 4 14 13 16 56 16 310 0 162 3 294 8 294 4 0 6 -133 4 -295 l-3
-295 35 0 c46 0 149 33 181 58 24 19 25 21 6 27 -57 18 -124 150 -175 345 -20
74 -34 136 -31 138 5 5 25 -42 25 -58 0 -4 8 -11 17 -15 13 -4 30 6 61 39 24
25 47 46 52 46 5 0 7 6 4 14 -3 8 -1 17 5 21 19 11 13 63 -8 75 -29 15 -55
-13 -40 -42 6 -11 7 -18 2 -15 -5 3 -15 2 -22 -2 -10 -7 -8 -13 10 -30 12 -11
18 -21 12 -21 -6 0 -16 7 -23 15 -14 17 -35 21 -25 5 3 -5 1 -10 -5 -10 -6 0
-13 14 -17 30 -3 17 -20 43 -38 58 -23 21 -34 41 -39 72 -8 51 -39 126 -63
152 -9 10 -26 18 -38 18 -12 0 -29 -8 -38 -18z"/>
<path d="M2825 1290 c-13 -14 -21 -17 -26 -9 -4 7 -13 -2 -23 -21 -9 -18 -16
-34 -16 -35 0 -2 118 2 131 4 9 1 -2 50 -12 57 -5 3 -9 0 -9 -5 0 -6 -4 -11
-9 -11 -5 0 -7 9 -4 20 7 26 -9 26 -32 0z"/>
<path d="M1865 1248 c-14 -13 -32 -41 -39 -63 -14 -39 -15 -40 -65 -43 -28 -2
-58 1 -68 6 -11 6 -27 5 -50 -4 -31 -13 -33 -13 -33 6 0 11 -7 20 -15 20 -11
0 -15 -12 -15 -50 0 -38 4 -50 15 -50 8 0 15 9 15 20 0 11 7 20 15 20 12 0 15
-14 15 -64 0 -36 5 -68 10 -71 13 -8 110 16 110 26 0 4 -13 16 -30 26 -24 14
-30 24 -30 50 l0 33 55 0 c67 0 75 -21 15 -39 -22 -6 -40 -16 -40 -21 0 -5 33
-32 72 -60 l73 -51 21 26 20 26 14 -27 c13 -23 18 -25 55 -20 65 11 105 26
105 43 0 8 -18 33 -39 55 -40 39 -45 68 -12 68 22 0 41 -19 41 -41 0 -21 32
-26 125 -18 l70 5 -92 2 c-74 2 -93 5 -93 17 0 11 20 15 93 18 l92 3 -92 2
c-85 2 -93 4 -93 22 0 17 8 20 93 23 l92 3 -92 2 c-85 2 -93 4 -93 22 0 17 8
20 88 23 l87 3 -90 0 c-80 -1 -90 -3 -93 -20 -2 -10 -9 -24 -15 -31 -14 -15
-57 -7 -57 12 0 7 -9 31 -20 53 -32 63 -79 77 -125 38z m88 -55 c28 -31 30
-66 7 -96 -26 -32 -62 -35 -90 -7 -26 26 -25 60 1 94 24 30 59 34 82 9z"/>
<path d="M1880 1180 c-24 -24 -25 -48 -4 -78 17 -24 53 -29 72 -10 18 18 14
73 -6 91 -24 22 -38 21 -62 -3z"/>
<path d="M5430 1233 c0 -13 5 -23 10 -23 13 0 13 11 0 30 -8 12 -10 11 -10 -7z"/>
<path d="M5463 1236 c4 -10 7 -27 7 -39 0 -18 2 -19 10 -7 8 12 10 10 10 -8 0
-15 -4 -21 -12 -16 -7 4 -8 3 -4 -4 4 -7 14 -12 22 -12 8 0 14 -10 14 -25 0
-31 -8 -32 -20 -2 -6 16 -9 17 -9 5 -1 -9 9 -24 21 -32 28 -20 35 -20 35 -1 0
8 -4 12 -9 9 -4 -3 -8 6 -8 20 0 14 6 26 13 26 6 1 1 7 -13 15 -14 8 -22 14
-17 15 10 0 -19 57 -35 66 -8 5 -9 2 -5 -10z"/>
<path d="M5375 1216 c-8 -13 -13 -30 -10 -38 3 -8 -1 -21 -10 -28 -8 -7 -15
-17 -15 -23 0 -6 7 -2 16 9 14 18 15 18 10 1 -22 -70 -21 -73 14 -33 27 30 31
41 23 55 -6 9 -8 31 -5 49 5 38 -2 41 -23 8z m25 -70 c0 -8 -8 -20 -17 -27
-15 -12 -16 -12 -10 4 4 10 7 25 7 33 0 9 5 12 10 9 6 -3 10 -12 10 -19z"/>
<path d="M5665 1200 c-17 -33 -20 -86 -5 -95 6 -3 10 -2 10 4 0 6 9 15 20 21
15 8 24 6 39 -9 23 -23 31 -18 31 21 0 78 -64 117 -95 58z m25 -40 c0 -5 -4
-10 -10 -10 -5 0 -10 5 -10 10 0 6 5 10 10 10 6 0 10 -4 10 -10z m50 0 c0 -5
-4 -10 -10 -10 -5 0 -10 5 -10 10 0 6 5 10 10 10 6 0 10 -4 10 -10z"/>
<path d="M4900 1205 c0 -8 7 -15 15 -15 8 0 15 4 15 9 0 5 -7 11 -15 15 -9 3
-15 0 -15 -9z"/>
<path d="M2744 1188 c-4 -13 9 -52 34 -100 2 -5 -6 -8 -18 -8 -13 0 -40 -18
-64 -42 l-41 -41 35 -15 c26 -10 39 -11 52 -3 23 15 25 14 31 -8 6 -24 62 -38
83 -20 8 6 31 13 51 15 20 2 40 10 45 18 5 8 16 12 29 9 19 -5 20 -4 10 14
-16 31 -70 73 -92 73 -23 0 -24 8 -4 34 8 11 15 36 15 56 l0 36 -80 0 c-66 -1
-81 -4 -86 -18z m156 -45 c0 -7 -12 -15 -27 -19 -47 -10 -49 -11 -25 -21 23
-9 23 -9 4 -26 -18 -17 -21 -16 -51 12 -38 36 -39 41 -3 42 26 1 26 1 -5 10
-18 5 -33 11 -33 12 0 2 32 3 70 3 50 0 70 -4 70 -13z"/>
<path d="M3740 1188 c-48 -14 -190 -159 -223 -230 -20 -42 -26 -75 -32 -163
-6 -105 -14 -159 -30 -197 -13 -31 34 -21 69 15 32 32 33 34 40 152 5 87 14
141 32 197 14 43 29 80 34 83 4 3 5 -23 3 -58 -5 -52 -1 -74 22 -130 l27 -68
-41 -38 c-23 -21 -41 -40 -41 -42 0 -3 -15 -78 -34 -167 l-34 -162 64 0 c35 0
64 2 64 5 0 3 -11 17 -26 30 l-25 23 28 108 c27 103 30 110 68 136 58 40 65
37 65 -25 0 -44 5 -60 33 -97 17 -24 44 -73 58 -109 l27 -66 51 -3 c45 -3 51
-1 51 17 0 11 -7 26 -16 33 -51 40 -85 84 -104 134 l-21 57 37 111 c20 61 38
113 40 115 2 2 45 -15 96 -37 127 -55 157 -62 276 -62 123 0 120 7 61 -147
l-40 -107 21 -47 c13 -26 19 -52 16 -58 -5 -8 11 -11 49 -11 60 0 70 14 25 37
-49 25 -52 59 -10 165 37 98 68 158 80 158 5 0 54 -39 110 -86 85 -73 101 -93
110 -128 6 -22 18 -65 27 -93 l17 -53 44 0 c40 0 43 2 36 23 -4 12 -21 39 -39
60 -22 25 -35 54 -40 83 -4 31 -25 74 -66 137 -33 50 -58 95 -56 101 3 6 12
52 22 101 10 54 29 111 47 144 16 29 26 57 21 61 -12 11 -224 100 -238 100 -6
0 -22 -22 -35 -49 -17 -37 -32 -53 -61 -67 -25 -11 -39 -24 -39 -36 0 -28 -78
-188 -95 -195 -48 -18 -98 35 -78 80 10 22 7 25 -53 51 -121 53 -156 116 -98
177 l26 27 -38 11 c-48 13 -236 13 -284 -1z"/>
<path d="M5430 1190 c0 -5 5 -10 10 -10 6 0 10 5 10 10 0 6 -4 10 -10 10 -5 0
-10 -4 -10 -10z"/>
<path d="M5430 1131 c0 -6 5 -13 10 -16 6 -3 10 1 10 9 0 9 -4 16 -10 16 -5 0
-10 -4 -10 -9z"/>
<path d="M5687 1114 c-14 -14 -6 -24 19 -24 16 0 24 5 22 13 -5 14 -31 21 -41
11z"/>
<path d="M5407 1093 c-14 -14 -6 -58 17 -92 21 -32 25 -54 35 -210 l12 -174
-28 -46 c-16 -25 -43 -55 -60 -66 l-31 -21 32 -21 c17 -11 48 -26 69 -33 20
-6 37 -18 37 -26 0 -8 4 -14 9 -14 6 0 8 15 5 32 -3 29 -46 598 -46 623 -1 6
1 15 2 20 6 24 -2 35 -23 35 -13 0 -27 -3 -30 -7z"/>
<path d="M4977 1029 c-45 -37 -37 -60 12 -35 22 12 31 24 31 41 0 14 -1 25 -3
25 -1 0 -20 -14 -40 -31z"/>
<path d="M4285 1030 c-47 -17 -51 -22 -72 -76 -21 -53 -21 -60 -8 -81 28 -42
70 -23 92 42 6 17 20 54 32 83 11 28 17 51 13 51 -4 -1 -29 -10 -57 -19z"/>
<path d="M4910 1020 c0 -5 7 -10 15 -10 8 0 15 5 15 10 0 6 -7 10 -15 10 -8 0
-15 -4 -15 -10z"/>
<path d="M2655 962 c-4 -9 -9 -63 -12 -119 -4 -71 -9 -100 -17 -96 -6 3 0 -6
13 -20 24 -27 37 -36 27 -18 -3 5 3 11 14 14 11 3 20 14 20 25 0 11 7 25 16
33 14 12 14 14 -2 26 -16 11 -17 21 -8 83 l10 70 -27 9 c-22 8 -29 6 -34 -7z"/>
<path d="M2953 969 c-6 -6 -6 -32 -1 -67 4 -31 7 -80 6 -108 -1 -55 5 -74 27
-74 28 0 38 41 31 129 -3 47 -9 95 -12 106 -6 22 -35 30 -51 14z"/>
<path d="M5570 938 c-6 -24 -23 -83 -37 -133 -32 -110 -36 -151 -26 -285 l8
-105 38 -3 37 -3 0 285 c0 157 -2 286 -5 286 -2 0 -9 -19 -15 -42z"/>
<path d="M1806 938 c-3 -18 -10 -71 -16 -118 -6 -47 -13 -102 -16 -122 -6 -37
-6 -38 51 -63 73 -32 111 -32 179 2 45 22 55 31 51 47 -2 12 -9 62 -15 111
-17 149 -15 144 -59 138 -32 -4 -41 -1 -54 17 l-15 22 -11 -21 c-14 -26 -25
-26 -61 -1 l-29 21 -5 -33z"/>
<path d="M2737 963 c-10 -9 -9 -153 1 -154 10 -1 164 -1 180 0 8 1 12 23 12
75 l0 74 -37 -10 c-55 -16 -115 -13 -129 6 -12 18 -17 19 -27 9z"/>
<path d="M2058 948 c-24 -8 -25 -12 -17 -42 5 -19 13 -67 17 -107 7 -70 8 -74
32 -74 22 0 25 5 28 39 4 41 -14 164 -26 182 -5 7 -16 8 -34 2z"/>
<path d="M2809 792 c-90 -3 -86 2 -95 -139 -6 -86 -5 -93 12 -93 11 0 30 -3
43 -7 22 -6 23 -4 19 35 -4 44 7 54 54 45 20 -4 24 -11 26 -41 2 -20 8 -40 15
-44 9 -6 9 -8 0 -8 -17 0 -17 -97 0 -130 14 -28 51 -38 73 -20 17 15 19 50 2
50 -9 0 -8 4 2 10 13 9 13 11 0 20 -13 9 -13 10 0 10 12 0 12 2 1 9 -9 6 -10
11 -2 15 18 12 -6 44 -36 49 l-28 4 28 2 c25 1 27 4 27 41 0 40 0 40 -35 35
-29 -3 -33 -2 -22 9 7 8 16 10 22 6 6 -5 17 -5 24 -1 11 7 12 20 1 74 -14 75
-11 74 -131 69z m-46 -145 c3 -7 -3 -13 -14 -13 -13 0 -15 3 -7 13 6 7 12 13
13 13 2 0 5 -6 8 -13z"/>
<path d="M2598 702 c-39 -43 -81 -102 -76 -107 3 -3 33 21 68 53 53 48 60 59
48 69 -12 10 -19 8 -40 -15z"/>
<path d="M4226 574 c-25 -136 -28 -179 -12 -163 3 2 18 75 34 162 19 103 25
157 18 157 -7 0 -23 -67 -40 -156z"/>
<path d="M1795 618 c-2 -7 -6 -57 -10 -111 -7 -107 0 -127 40 -127 33 0 44 19
50 86 3 32 8 75 10 95 5 35 3 38 -35 53 -49 19 -50 19 -55 4z"/>
<path d="M1971 612 c-32 -16 -33 -18 -27 -61 3 -24 6 -65 6 -92 0 -53 18 -79
55 -79 38 0 44 25 35 135 -5 55 -9 103 -10 108 0 11 -22 7 -59 -11z"/>
<path d="M2700 535 c-10 -12 -10 -18 0 -30 10 -12 10 -15 -1 -15 -12 0 -12 -2
0 -9 11 -7 11 -10 0 -15 -11 -5 -12 -7 -1 -12 10 -5 10 -9 -3 -18 -14 -10 -14
-13 0 -34 18 -25 57 -29 74 -8 6 7 14 43 18 78 5 62 5 65 -18 71 -38 10 -56 8
-69 -8z"/>
<path d="M4260 261 c0 -10 -3 -33 -6 -50 -4 -17 -3 -31 2 -31 5 0 10 23 12 50
2 28 1 50 -2 50 -4 0 -6 -8 -6 -19z"/>
<path d="M1703 230 c-8 -32 -8 -40 3 -40 8 0 11 6 8 15 -4 10 0 15 14 15 23 0
46 25 37 40 -11 18 -23 11 -18 -10 4 -14 0 -20 -12 -20 -12 0 -16 6 -12 20 3
11 2 20 -2 20 -4 0 -12 -18 -18 -40z"/>
<path d="M2920 258 c0 -7 -10 -18 -22 -23 -34 -15 -32 -59 2 -63 23 -3 26 1
28 34 2 21 5 41 8 45 2 4 0 10 -6 14 -5 3 -10 0 -10 -7z m0 -37 c0 -21 -13
-41 -26 -41 -15 0 -17 10 -8 34 7 17 34 22 34 7z"/>
<path d="M3971 256 c-18 -22 -10 -70 13 -74 10 -2 22 0 27 5 6 6 1 9 -13 9
-19 -1 -23 4 -23 29 0 26 4 30 27 30 14 -1 24 3 22 7 -8 13 -41 9 -53 -6z"/>
<path d="M5320 256 c0 -7 -2 -29 -5 -47 l-5 -34 13 34 13 34 14 -32 c15 -37
25 -31 34 22 5 24 3 37 -4 37 -6 0 -9 -4 -6 -9 4 -5 2 -19 -2 -31 -8 -22 -9
-22 -21 9 -14 32 -31 42 -31 17z"/>
<path d="M1923 253 c-18 -7 -16 -30 3 -37 21 -8 8 -27 -14 -20 -14 5 -14 4 -3
-4 17 -12 41 -5 41 13 0 7 -7 16 -16 19 -8 3 -12 10 -9 16 4 6 11 7 17 4 7 -4
8 -2 4 4 -4 7 -8 12 -9 11 -1 0 -8 -3 -14 -6z"/>
<path d="M2119 258 c0 -2 -2 -18 -5 -35 -3 -27 0 -33 14 -32 9 0 12 3 5 5 -9
4 -9 13 -2 30 5 14 9 27 9 30 0 4 -19 6 -21 2z"/>
<path d="M2653 218 c-10 -47 -5 -53 32 -44 20 5 24 11 22 44 -2 29 -7 38 -24
40 -18 3 -23 -4 -30 -40z m45 20 c-6 -18 -28 -21 -28 -4 0 9 7 16 16 16 9 0
14 -5 12 -12z m0 -40 c-7 -19 -38 -22 -38 -4 0 10 9 16 21 16 12 0 19 -5 17
-12z"/>
<path d="M1774 224 c-7 -27 11 -48 30 -37 5 4 2 9 -8 13 -15 5 -14 8 9 18 14
7 23 17 20 23 -5 6 -12 4 -22 -8 -13 -17 -14 -17 -9 0 3 9 1 17 -4 17 -5 0
-13 -12 -16 -26z"/>
<path d="M1840 229 c-14 -26 2 -49 30 -42 28 8 28 63 0 63 -10 0 -24 -9 -30
-21z m40 -3 c0 -7 -7 -19 -15 -26 -13 -11 -15 -8 -15 14 0 16 5 26 15 26 8 0
15 -6 15 -14z"/>
<path d="M1972 238 c-24 -24 -5 -59 29 -51 26 7 27 63 1 63 -10 0 -23 -5 -30
-12z m38 -12 c0 -18 -26 -40 -34 -27 -9 14 4 41 20 41 8 0 14 -6 14 -14z"/>
<path d="M2043 218 c-1 -28 0 -30 6 -9 10 36 31 38 32 4 l1 -28 7 25 c10 32 5
40 -22 40 -19 0 -23 -6 -24 -32z"/>
<path d="M2989 225 c-1 -14 -2 -30 -3 -37 -1 -6 5 -12 12 -14 7 -1 8 0 3 2
-10 6 -2 46 11 55 6 3 3 9 -6 12 -12 5 -16 0 -17 -18z"/>
<path d="M4040 235 c-18 -22 -8 -50 21 -53 22 -3 25 1 27 33 2 29 -1 35 -16
35 -11 0 -25 -7 -32 -15z m40 -4 c0 -21 -13 -41 -26 -41 -17 0 -18 22 -2 38
14 14 28 16 28 3z"/>
<path d="M4112 218 c-2 -31 1 -38 17 -38 21 0 32 20 30 53 -1 17 -3 15 -8 -7
-9 -42 -29 -44 -34 -4 l-4 33 -1 -37z"/>
<path d="M4193 242 c-11 -7 -16 -26 -14 -49 0 -7 12 -13 26 -13 22 0 25 4 25
35 0 34 -12 43 -37 27z m25 -24 c-4 -27 -28 -36 -28 -10 0 20 8 32 22 32 5 0
8 -10 6 -22z"/>
<path d="M4293 215 c0 -22 2 -30 4 -17 2 12 2 30 0 40 -3 9 -5 -1 -4 -23z"/>
<path d="M4330 235 c-17 -20 -8 -49 15 -52 16 -1 16 -1 3 3 -24 7 -23 20 2 27
22 6 28 37 6 37 -7 0 -19 -7 -26 -15z m30 -5 c0 -5 -7 -10 -16 -10 -8 0 -12 5
-9 10 3 6 10 10 16 10 5 0 9 -4 9 -10z"/>
<path d="M4388 213 c-4 -34 7 -33 14 2 2 11 10 19 16 18 7 -2 12 1 12 6 0 6
-9 9 -19 8 -14 -1 -20 -10 -23 -34z"/>
<path d="M5410 235 c-17 -20 -8 -49 15 -52 16 -1 16 -1 3 3 -24 7 -23 20 2 27
22 6 28 37 6 37 -7 0 -19 -7 -26 -15z m30 -5 c0 -5 -7 -10 -16 -10 -8 0 -12 5
-9 10 3 6 10 10 16 10 5 0 9 -4 9 -10z"/>
<path d="M5470 235 c-17 -20 -9 -49 15 -53 20 -4 20 -3 1 11 -22 17 -15 53 9
43 8 -3 15 -1 15 4 0 15 -26 12 -40 -5z"/>
<path d="M5528 220 c-3 -16 -1 -30 3 -30 4 0 9 10 11 23 2 12 9 21 16 20 6 -2
12 2 12 7 0 6 -8 10 -19 10 -13 0 -20 -9 -23 -30z"/>
<path d="M5584 226 c-7 -29 1 -46 21 -46 19 0 37 34 29 54 -10 25 -43 19 -50
-8z m34 -8 c-4 -27 -28 -36 -28 -10 0 20 8 32 22 32 5 0 8 -10 6 -22z"/>
<path d="M5653 212 l-1 -37 9 33 c5 17 14 32 19 32 6 0 10 -15 11 -32 l1 -33
9 33 c5 17 14 32 19 32 5 0 11 -15 13 -32 l4 -33 1 36 c2 36 2 36 -40 37 -43
1 -43 1 -45 -36z"/>
<path d="M5770 235 c-18 -22 -8 -49 20 -51 22 -2 25 2 27 32 3 27 -1 34 -16
34 -10 0 -24 -7 -31 -15z m40 -1 c0 -13 -21 -44 -30 -44 -11 0 -14 33 -3 43 8
8 33 9 33 1z"/>
<path d="M5841 218 c1 -30 2 -30 8 -9 10 37 29 37 34 -1 l4 -33 1 38 c2 33 0
37 -23 37 -22 0 -25 -4 -24 -32z"/>
<path d="M5914 236 c-9 -23 0 -51 16 -52 10 -1 11 1 2 3 -20 7 -10 48 11 47 9
-1 17 2 17 7 0 15 -40 10 -46 -5z"/>
<path d="M5980 235 c-17 -20 -8 -49 15 -52 16 -1 16 -1 3 3 -24 7 -23 20 2 27
22 6 28 37 6 37 -7 0 -19 -7 -26 -15z m30 -5 c0 -5 -7 -10 -16 -10 -8 0 -12 5
-9 10 3 6 10 10 16 10 5 0 9 -4 9 -10z"/>
<path d="M6041 218 c1 -31 1 -31 8 -8 4 14 13 24 19 23 7 -2 12 2 12 7 0 6 -9
10 -20 10 -16 0 -20 -6 -19 -32z"/>
<path d="M2730 219 c-15 -28 -6 -49 23 -49 19 0 23 6 25 35 2 29 -1 35 -17 35
-11 0 -25 -9 -31 -21z m40 -1 c0 -22 -17 -41 -29 -34 -8 5 -8 13 -1 27 12 21
30 26 30 7z"/>
<path d="M2801 203 l1 -38 9 33 c5 17 14 32 19 32 6 0 11 -15 11 -32 l1 -33 7
30 c9 38 6 45 -25 45 -21 0 -24 -4 -23 -37z"/>
<path d="M2950 206 c0 -20 2 -36 4 -36 8 0 12 61 4 66 -4 3 -8 -11 -8 -30z"/>
</g>
</svg>
