<?xml version="1.0" standalone="no"?>
<!DOCTYPE svg PUBLIC "-//W3C//DTD SVG 20010904//EN"
 "http://www.w3.org/TR/2001/REC-SVG-20010904/DTD/svg10.dtd">
<svg version="1.0" xmlns="http://www.w3.org/2000/svg"
 width="1024.000000pt" height="1024.000000pt" viewBox="0 0 1024.000000 1024.000000"
 preserveAspectRatio="xMidYMid meet">
<metadata>
Created by potrace 1.16, written by Peter Selinger 2001-2019
</metadata>
<g transform="translate(0.000000,1024.000000) scale(0.100000,-0.100000)"
fill="#000000" stroke="none">
<path d="M2930 9179 c-288 -24 -568 -183 -792 -449 -143 -170 -303 -433 -367
-604 l-21 -57 48 -77 c27 -42 147 -230 266 -417 701 -1093 856 -1337 856
-1345 0 -3 -9 -23 -20 -45 -11 -22 -20 -47 -20 -57 0 -14 -8 -18 -37 -18 -42
0 -97 -28 -129 -67 l-21 -25 -63 32 c-99 50 -198 72 -330 73 -187 2 -327 -48
-420 -150 -49 -53 -90 -140 -90 -188 0 -14 -2 -25 -5 -25 -2 0 -38 11 -79 25
-180 61 -319 15 -412 -136 -26 -42 -43 -59 -58 -59 -12 0 -49 -14 -84 -30 -66
-33 -79 -34 -182 -24 -87 8 -138 -7 -205 -61 -30 -25 -58 -45 -63 -45 -4 0
-14 -38 -21 -85 -16 -105 -4 -166 45 -231 19 -24 34 -50 34 -57 0 -8 22 -128
50 -268 27 -140 50 -278 50 -307 0 -30 11 -85 24 -125 14 -40 99 -454 190
-922 91 -467 195 -1003 231 -1190 37 -187 77 -393 89 -458 13 -64 25 -119 27
-122 3 -2 216 -23 475 -45 258 -22 701 -61 984 -85 1274 -111 1932 -168 2320
-200 168 -14 375 -32 460 -40 418 -40 1214 -105 1226 -101 11 4 551 376 1234
849 80 55 204 141 275 190 72 50 133 93 136 96 4 3 28 146 54 316 34 221 56
336 77 400 27 78 32 111 39 250 4 88 17 219 29 290 12 72 32 200 44 285 13 85
78 508 145 940 l121 785 51 130 c324 822 424 1440 318 1965 -103 515 -467 961
-864 1059 -44 11 -159 26 -255 35 -96 9 -362 34 -590 56 -779 75 -1630 150
-2670 235 -573 47 -1266 91 -1660 105 -302 11 -303 11 -440 -1z m575 -94 c548
-18 1951 -127 3725 -290 206 -19 399 -37 429 -41 l54 -6 -49 -27 c-81 -44
-143 -91 -221 -164 l-73 -70 -348 27 c-380 30 -761 59 -1355 106 l-388 31 -87
44 c-303 152 -658 180 -936 73 l-78 -30 -212 16 c-193 14 -523 40 -1051 82
-110 9 -201 17 -203 19 -6 5 139 100 198 130 135 69 296 116 375 109 28 -2
127 -6 220 -9z m-653 -35 c-237 -129 -409 -299 -548 -538 -61 -107 -138 -296
-121 -299 6 -1 203 -16 437 -33 234 -17 515 -37 625 -45 110 -9 234 -18 275
-20 41 -3 131 -10 200 -15 226 -17 469 -35 2250 -164 564 -41 1044 -76 1067
-78 l43 -2 46 94 c114 235 247 424 402 571 112 106 195 160 295 190 59 19 80
20 155 13 l87 -9 -88 -42 c-129 -62 -225 -133 -333 -246 -155 -161 -298 -399
-379 -632 -16 -44 -29 -81 -31 -83 -1 -2 -107 4 -235 12 -129 9 -511 34 -849
56 -338 22 -887 58 -1220 80 -333 22 -949 62 -1370 90 -421 28 -968 64 -1217
80 -248 17 -461 30 -472 30 -12 0 -21 6 -21 13 0 28 151 316 219 417 211 317
479 525 756 585 99 22 104 17 27 -25z m532 -310 c352 -28 652 -50 668 -50 37
0 36 -11 -3 -34 -106 -63 -308 -304 -366 -438 -14 -31 7 -30 -268 -8 -66 6
-343 26 -615 46 -272 20 -497 38 -499 40 -8 7 83 182 137 264 31 47 90 120
131 163 l75 78 50 -6 c28 -3 339 -28 690 -55z m1343 -1 c309 -34 568 -164 718
-359 73 -95 155 -265 155 -323 0 -8 -29 -7 -190 9 l-56 5 -12 75 c-35 222
-194 373 -464 441 -192 48 -391 32 -541 -43 -130 -66 -249 -176 -330 -306
l-42 -67 -95 6 c-52 3 -97 8 -100 10 -8 7 48 102 106 179 177 236 435 373 717
383 21 0 81 -4 134 -10z m3887 -112 c135 -65 236 -136 341 -242 111 -112 181
-212 250 -358 221 -467 206 -1083 -44 -1847 -65 -199 -154 -437 -169 -452 -5
-5 -63 55 -143 149 -219 258 -660 776 -688 808 -14 17 -118 138 -231 270 -112
132 -292 343 -399 468 -108 126 -200 235 -204 243 -14 24 37 163 120 329 162
324 396 549 660 634 122 40 192 50 314 48 91 -2 100 -5 193 -50z m-2674 -87
c278 -22 683 -53 900 -70 217 -17 414 -33 438 -36 l43 -5 -32 -42 c-67 -88
-172 -256 -217 -346 l-47 -93 -90 6 c-142 10 -903 65 -1079 79 l-159 12 -27
86 c-47 150 -139 299 -248 402 l-51 47 32 0 c18 0 259 -18 537 -40z m-1061
-45 c52 -14 121 -40 154 -58 119 -63 210 -187 224 -306 l6 -51 -34 0 c-19 0
-277 18 -574 40 -297 22 -550 40 -562 40 -31 0 -29 13 9 68 107 156 265 259
446 292 76 14 227 3 331 -25z m-2589 -550 c146 -9 275 -18 286 -20 14 -3 39
-34 72 -87 27 -46 126 -210 220 -365 l171 -282 -52 -24 c-46 -21 -58 -34 -109
-115 -32 -51 -58 -101 -58 -112 0 -31 174 -184 320 -281 l24 -16 -31 -49 c-41
-65 -62 -130 -70 -219 -6 -72 -7 -74 -35 -81 -17 -3 -34 -2 -38 2 -4 5 -119
185 -255 399 -136 215 -267 422 -292 460 -298 467 -513 808 -513 812 0 3 21 2
48 -1 26 -3 166 -13 312 -21z m805 -53 l260 -17 17 -35 c9 -19 88 -178 175
-352 l157 -318 -12 -46 c-17 -63 -103 -284 -111 -284 -3 0 -6 26 -6 57 0 32
-1 110 -3 173 l-2 115 -119 29 c-139 33 -213 36 -295 12 -32 -9 -59 -16 -61
-14 -2 3 -116 190 -232 383 -17 28 -62 102 -101 165 -38 63 -75 125 -81 138
l-12 23 83 -6 c46 -4 200 -14 343 -23z m570 -37 c175 -9 185 -12 185 -45 0
-72 -96 -540 -115 -559 -5 -4 -305 600 -305 614 0 4 28 5 63 1 34 -3 112 -8
172 -11z m745 -50 c486 -31 973 -63 2370 -155 399 -27 467 -33 482 -48 52 -53
166 -197 158 -200 -5 -2 -89 4 -187 12 -98 9 -446 38 -773 66 -327 28 -696 59
-820 70 -314 27 -1384 118 -1562 132 l-148 12 0 26 c0 15 3 47 6 72 l6 45 42
-3 c22 -2 214 -15 426 -29z m-360 -180 c146 -12 1303 -110 2190 -185 520 -44
1006 -85 1080 -91 74 -6 144 -12 155 -14 11 -3 52 -42 91 -87 58 -68 314 -372
373 -442 16 -18 13 -19 -89 -12 l-104 7 -46 43 c-26 24 -61 47 -79 51 -55 12
-136 -11 -174 -49 -13 -13 -32 -14 -138 -4 -68 6 -126 12 -128 14 -1 1 7 13
19 26 29 30 60 96 60 128 0 36 -36 110 -72 147 -60 62 -146 67 -231 13 -90
-57 -126 -174 -78 -255 11 -19 18 -35 15 -35 -20 0 -475 41 -500 45 -25 4 -34
13 -48 48 -9 24 -12 43 -7 45 29 10 79 53 106 91 42 60 42 128 0 197 -41 66
-85 94 -147 94 -158 0 -268 -165 -195 -295 16 -29 37 -48 80 -69 52 -26 57
-31 57 -62 0 -22 -5 -34 -13 -34 -46 0 -561 52 -602 61 -27 6 -126 14 -220 19
-93 5 -296 20 -450 34 -154 14 -475 43 -713 65 -239 22 -435 41 -437 43 -3 2
3 26 11 53 23 77 81 315 89 365 10 59 11 61 48 56 18 -3 61 -8 97 -11z m2280
-301 c48 -19 70 -55 70 -114 0 -161 -168 -207 -232 -64 -15 36 -17 51 -9 81
14 52 38 82 75 99 40 17 48 17 96 -2z m-3017 -141 c18 -9 56 -24 86 -32 l54
-17 -39 -28 c-22 -16 -55 -43 -74 -61 -27 -24 -62 -39 -153 -64 -109 -31 -125
-33 -205 -27 -48 4 -88 9 -90 10 -1 2 11 31 27 66 34 70 25 65 236 135 119 40
117 39 158 18z m3807 -58 c86 -44 75 -207 -16 -250 -46 -22 -78 -13 -125 34
-49 49 -58 95 -30 153 34 72 104 97 171 63z m-3605 -35 c-8 -27 -8 -239 0
-272 7 -27 6 -28 -33 -28 l-40 0 -27 68 c-15 37 -33 82 -41 101 -8 18 -14 34
-12 35 2 2 36 28 77 59 40 31 75 57 78 57 2 0 2 -9 -2 -20z m955 -50 c366 -33
669 -62 673 -63 5 -1 -21 -15 -58 -30 -76 -31 -147 -77 -186 -120 -26 -28 -27
-28 -57 -13 -52 27 -152 46 -242 46 -266 0 -499 -135 -561 -325 l-16 -50 -27
53 c-52 102 -163 195 -274 229 -31 9 -58 18 -60 19 -1 0 22 64 51 140 30 76
57 147 60 157 4 9 12 17 19 17 8 0 313 -27 678 -60z m-1128 -158 c15 -42 29
-84 33 -93 5 -13 -7 -23 -51 -43 -68 -31 -63 -33 -147 79 l-59 80 33 8 c19 5
59 17 89 26 30 10 60 19 65 20 6 0 22 -34 37 -77z m2308 28 c41 -12 89 -29
105 -37 52 -27 124 -86 151 -125 l26 -37 -32 -28 c-46 -38 -60 -53 -60 -63 0
-11 18 -5 105 35 73 34 225 49 225 23 0 -29 -126 -265 -209 -391 l-84 -128
-46 8 c-71 12 -152 7 -196 -13 l-40 -18 85 -8 c70 -6 99 -14 167 -48 163 -81
277 -218 344 -415 l27 -80 12 44 c6 24 10 69 8 100 l-3 55 95 29 c78 24 118
30 225 34 142 5 143 5 434 -81 68 -20 126 -34 129 -32 8 8 -51 54 -110 86 -32
17 -58 33 -58 36 0 2 18 41 41 87 85 169 182 312 206 302 60 -22 190 -134 220
-188 13 -24 18 -97 6 -97 -59 0 -253 -48 -253 -62 0 -2 100 -3 222 -3 238 -1
310 -11 401 -56 84 -42 149 -128 163 -217 l6 -39 -69 -6 c-73 -7 -197 -43
-261 -76 -32 -17 -168 -112 -182 -128 -3 -4 4 -3 15 2 118 45 356 120 415 131
101 17 187 5 291 -43 44 -20 76 -39 72 -43 -7 -7 -424 -151 -1103 -382 l-175
-59 -145 10 c-121 9 -147 13 -155 28 -44 78 -134 123 -207 105 -35 -9 -44 -7
-74 13 -110 74 -253 50 -322 -55 l-22 -35 -368 27 c-202 15 -388 27 -414 27
-46 1 -48 2 -57 39 -11 41 -68 101 -114 120 -35 15 -84 15 -125 1 -25 -8 -37
-7 -71 10 -98 50 -223 5 -261 -93 l-11 -29 -77 6 c-42 3 -78 10 -80 15 -1 5
-16 29 -31 54 -52 82 -158 111 -249 67 l-43 -21 -32 30 c-69 67 -177 85 -271
47 -64 -26 -87 -43 -125 -95 l-26 -36 -922 66 -922 66 -43 47 c-88 94 -205
116 -330 62 -13 -5 -20 -1 -27 17 -11 28 -67 85 -93 94 -22 7 -22 16 -4 52 23
43 87 99 141 122 81 35 145 26 294 -43 69 -31 127 -55 129 -52 3 3 -14 21 -37
41 -25 22 -41 45 -41 59 0 45 69 162 125 214 87 79 142 96 305 96 129 -1 140
-3 247 -39 61 -21 156 -62 209 -92 54 -30 102 -54 107 -54 12 0 -39 68 -72 96
l-25 21 44 32 c30 21 54 31 80 31 33 0 40 -5 69 -51 18 -27 36 -48 39 -45 2 3
-1 33 -8 66 -13 62 -9 135 11 171 9 18 97 67 103 57 1 -1 10 -28 19 -58 9 -30
28 -67 42 -83 l26 -27 -21 -27 c-11 -14 -19 -27 -17 -29 2 -2 23 6 47 18 110
55 262 22 430 -91 86 -59 95 -33 16 44 -53 51 -180 125 -215 125 -22 0 -82 45
-98 73 -7 12 -12 37 -13 55 0 37 8 39 90 21 l50 -11 0 -54 c0 -46 3 -54 19
-54 12 0 21 9 25 26 4 15 21 56 39 91 39 82 105 142 182 168 l57 20 43 -48
c45 -52 91 -137 101 -186 5 -24 0 -37 -20 -62 -29 -34 -59 -89 -71 -129 -6
-22 -2 -21 36 16 123 115 291 192 429 195 l45 1 -30 13 c-19 9 -67 14 -127 15
l-98 0 0 63 c0 35 3 66 6 69 3 4 21 0 39 -8 55 -23 61 -16 22 24 -20 21 -37
44 -37 51 0 23 71 120 123 167 54 48 139 96 216 121 77 24 254 27 336 6 l70
-18 -3 -75 c-1 -41 2 -82 7 -90 10 -13 11 -13 11 0 0 8 13 42 29 75 66 138
221 237 429 275 84 16 269 5 352 -20z m681 -92 c18 -80 20 -115 16 -248 -6
-162 -27 -271 -68 -352 -20 -40 -18 -58 6 -58 17 0 115 102 246 255 51 60 127
142 169 181 90 86 199 178 205 173 2 -3 -46 -105 -106 -229 -121 -247 -149
-317 -156 -402 -7 -76 7 -76 95 0 89 76 262 201 337 243 69 39 175 90 175 84
0 -4 -136 -194 -223 -310 -66 -88 -147 -233 -147 -262 0 -11 -6 -14 -22 -9
-214 58 -454 44 -610 -35 l-38 -19 -21 42 c-37 74 -97 146 -165 197 -36 27
-71 52 -77 54 -7 2 11 31 40 68 97 122 180 269 239 426 26 68 64 242 64 295 1
52 17 14 41 -94z m-3323 82 l57 0 43 -70 c24 -38 59 -86 78 -106 40 -43 37
-60 -4 -22 -15 14 -80 64 -144 111 -111 82 -139 107 -102 93 9 -3 41 -6 72 -6z
m3065 -4 c82 -8 150 -16 152 -18 2 -2 -2 -26 -9 -53 l-12 -50 -68 -7 c-37 -3
-81 -11 -98 -17 -17 -6 -32 -11 -33 -11 -1 0 -19 25 -40 55 -20 30 -56 69 -78
85 l-41 30 40 0 c21 0 106 -7 187 -14z m692 -63 l90 -8 -55 -40 c-30 -22 -78
-61 -106 -87 l-51 -48 -54 30 c-30 16 -82 39 -115 50 -58 20 -62 23 -69 58 -3
20 -9 46 -11 58 -6 22 -42 24 371 -13z m865 -18 c64 -33 79 -137 29 -209 -46
-68 -111 -71 -171 -8 -60 62 -59 139 0 194 44 41 92 49 142 23z m-383 -26
l132 -12 -6 -67 c-3 -41 -1 -74 6 -88 10 -20 8 -22 -31 -32 -63 -17 -191 -79
-288 -140 -76 -47 -90 -53 -135 -51 -27 1 -65 5 -83 9 l-33 7 74 150 c41 83
80 168 87 190 19 59 18 58 84 52 33 -4 120 -12 193 -18z m-3543 -65 c138 -49
256 -194 286 -353 18 -94 14 -118 -20 -136 -29 -15 -30 -15 -36 12 -14 64 -28
96 -64 151 -44 65 -91 107 -170 148 -50 26 -64 29 -155 29 -89 0 -106 -3 -157
-28 -41 -20 -65 -41 -87 -73 -58 -89 -85 -210 -67 -310 6 -37 5 -42 -13 -47
-17 -4 -26 4 -46 36 -32 56 -44 115 -45 218 0 139 34 207 141 278 52 35 171
82 239 95 39 7 149 -4 194 -20z m4267 0 c45 -6 47 -8 220 -211 95 -113 215
-253 265 -311 51 -59 88 -108 83 -110 -5 -2 -264 20 -575 48 l-567 53 -81 54
c-45 31 -83 57 -85 59 -4 4 77 101 158 190 l47 51 38 -20 c56 -29 133 -27 190
7 58 34 101 103 101 164 l0 44 80 -6 c44 -4 100 -9 126 -12z m-1467 -94 c36
-11 68 -25 72 -31 3 -5 -16 -33 -43 -62 -26 -29 -63 -70 -81 -92 l-32 -40 0
123 c0 67 4 122 9 122 5 0 38 -9 75 -20z m-3127 -202 c-36 -63 -60 -88 -73
-75 -11 11 11 51 52 96 53 59 61 50 21 -21z m230 48 c1 -1 -21 -19 -50 -40
-29 -21 -67 -58 -83 -82 -19 -27 -34 -40 -42 -35 -9 5 0 30 33 88 l46 80 47
-5 c26 -2 48 -5 49 -6z m3246 -135 c28 -6 28 -6 -35 -51 -34 -25 -66 -46 -69
-48 -4 -2 2 22 13 52 22 59 27 62 91 47z m1224 -270 c348 -32 527 -52 537 -60
27 -22 279 -322 274 -326 -2 -2 -204 10 -448 26 l-444 31 -59 63 c-90 99 -226
154 -379 155 l-58 0 0 38 c0 21 -11 56 -25 81 -14 23 -25 45 -25 47 0 2 24 2
53 -2 28 -3 287 -27 574 -53z m397 -451 c153 -10 280 -21 282 -23 4 -4 -404
-147 -420 -147 -4 0 -24 14 -44 31 -44 39 -119 75 -189 90 -38 9 -53 17 -57
33 -13 47 -11 48 72 42 42 -4 202 -15 356 -26z m470 -77 c-2 -10 -36 -225 -74
-478 -39 -253 -93 -604 -121 -780 -27 -176 -54 -350 -59 -387 -5 -37 -19 -123
-30 -192 -11 -69 -20 -129 -20 -133 0 -4 -15 18 -33 48 -18 30 -39 63 -46 74
-11 17 -5 67 33 310 117 748 208 1347 204 1350 -2 2 -181 -63 -398 -146 -393
-149 -727 -276 -870 -330 -41 -15 -127 -48 -190 -72 l-115 -44 -61 -1464 c-34
-805 -64 -1506 -66 -1556 -2 -51 -2 -93 0 -93 2 0 288 196 636 435 l632 434
13 89 12 89 66 52 c63 50 65 51 59 24 -3 -15 -17 -107 -32 -203 -18 -119 -32
-180 -43 -192 -9 -9 -144 -106 -301 -216 -918 -642 -1192 -832 -1200 -832 -6
0 -8 50 -4 123 2 67 11 428 19 802 9 374 22 964 30 1310 8 347 17 781 20 965
4 184 8 345 11 356 2 12 14 24 26 27 13 2 183 60 378 127 195 67 524 179 730
250 206 71 465 160 575 198 110 38 205 70 212 71 6 1 9 -7 7 -16z m-7624 -28
c46 -24 84 -80 76 -111 -7 -27 -8 -27 -74 -20 -37 3 -83 6 -102 6 -29 1 -39 7
-58 37 -27 42 -24 56 20 83 39 24 98 26 138 5z m-285 -54 c80 -36 120 -111
113 -212 -3 -47 -10 -66 -35 -96 -68 -85 -161 -113 -249 -74 -27 12 -57 29
-68 39 -30 26 -66 113 -66 157 1 74 52 154 123 189 43 21 132 20 182 -3z m626
-46 c41 -15 97 -52 88 -59 -2 -2 -68 1 -147 7 -124 9 -141 12 -129 24 18 18
84 42 118 43 14 0 45 -7 70 -15z m2324 -116 c136 -34 200 -206 119 -321 -70
-99 -192 -122 -292 -54 -150 101 -110 323 68 377 36 11 56 10 105 -2z m-1550
-84 c649 -47 1190 -85 1203 -85 19 0 22 -5 22 -39 0 -22 4 -50 9 -63 8 -23 8
-23 -63 -23 -53 -1 -80 -6 -106 -22 l-35 -20 -235 18 c-313 26 -997 80 -1575
125 -259 20 -471 37 -473 39 -1 1 5 18 13 38 8 20 15 55 15 77 0 35 3 40 23
40 12 0 553 -38 1202 -85z m1920 4 c53 -47 47 -58 -27 -53 -129 10 -148 14
-148 34 0 29 39 50 92 50 39 0 54 -6 83 -31z m523 -10 c27 -17 52 -67 52 -106
-1 -91 -107 -151 -191 -107 -39 20 -73 92 -64 135 8 37 65 96 97 101 30 5 78
-5 106 -23z m3812 5 c0 -11 -100 -657 -105 -679 -3 -15 -33 -34 -107 -67 -99
-44 -248 -113 -898 -411 -162 -75 -296 -134 -298 -132 -7 6 29 770 36 776 4 4
266 105 582 224 316 120 620 235 675 256 105 40 115 43 115 33z m-3579 -43
c61 -61 52 -69 -67 -55 -48 6 -52 9 -62 42 -6 19 -9 39 -6 44 3 4 26 8 51 8
39 0 50 -5 84 -39z m1208 -65 c42 -22 88 -79 95 -120 18 -97 -65 -196 -164
-196 -122 0 -203 126 -150 234 39 81 144 120 219 82z m-1869 -37 c91 -6 168
-13 171 -15 4 -2 9 -13 12 -24 4 -16 -1 -21 -21 -26 -45 -11 -90 -43 -113 -81
l-22 -36 -111 7 c-61 3 -139 9 -174 13 -57 5 -61 7 -48 22 23 26 56 103 56
134 0 27 1 28 43 23 23 -3 116 -11 207 -17z m2119 -26 c41 -32 35 -38 -35 -35
-56 3 -66 7 -73 25 -5 12 -6 26 -4 31 9 13 84 -1 112 -21z m-4699 -43 c349
-28 725 -57 835 -65 262 -19 305 -24 305 -36 0 -6 16 -52 35 -104 l36 -94 -28
-53 c-20 -38 -28 -69 -29 -117 l-3 -65 -56 3 c-99 4 -194 -65 -211 -154 l-6
-33 -45 20 c-36 16 -61 19 -117 16 -80 -4 -128 -24 -177 -72 l-34 -34 -393 34
-393 33 -34 30 c-35 31 -89 51 -137 51 l-26 0 5 78 c6 90 -10 141 -67 206 -33
37 -96 76 -124 76 -25 0 -26 15 -6 56 24 46 26 120 5 171 -9 20 -34 54 -58 76
l-42 39 65 -6 c36 -4 351 -29 700 -56z m3629 -5 c267 -19 493 -35 502 -35 13
0 20 -11 25 -37 3 -21 17 -57 31 -80 23 -42 23 -43 4 -43 -11 0 -39 -7 -61
-16 -37 -15 -71 -14 -594 27 -553 43 -555 43 -565 67 -16 35 -14 39 23 52 19
6 52 31 73 55 21 24 47 44 58 44 11 1 238 -15 504 -34z m-4411 -5 c128 -78 78
-270 -71 -270 -85 0 -138 49 -145 134 -3 41 1 58 20 86 45 66 132 89 196 50z
m2580 -54 c74 -38 103 -125 67 -199 -50 -105 -210 -105 -260 0 -22 45 -16 124
11 155 49 55 125 74 182 44z m1053 -1 c64 -34 89 -128 50 -191 -21 -35 -75
-64 -118 -64 -34 0 -86 30 -107 62 -73 113 55 254 175 193z m1970 -25 c73 -5
158 -13 186 -16 l53 -5 -6 -122 c-2 -67 -18 -729 -35 -1472 -40 -1830 -45
-2004 -50 -2009 -2 -3 -207 13 -454 34 -248 22 -511 44 -585 50 -74 6 -153 13
-175 15 -39 4 -430 38 -1665 145 -322 28 -790 68 -1040 90 -1068 93 -1384 120
-1405 120 -18 0 -24 7 -29 38 -11 59 -265 1373 -408 2110 -33 172 -59 315 -57
317 3 2 22 0 44 -5 22 -5 59 -10 83 -10 23 0 42 -3 42 -7 -1 -20 433 -2289
439 -2295 3 -3 123 -16 266 -27 143 -12 483 -39 755 -61 272 -22 608 -49 745
-60 138 -11 417 -34 620 -50 204 -17 593 -48 865 -70 697 -56 811 -66 1290
-105 233 -19 427 -35 431 -35 8 0 17 250 24 700 8 508 24 1393 36 1989 5 293
8 535 6 538 -3 2 -78 10 -168 18 -90 8 -166 15 -169 15 -3 1 12 10 33 21 42
22 93 86 102 130 8 34 13 35 226 19z m-3468 -16 l75 -7 16 -41 c9 -23 16 -45
16 -49 0 -4 -23 -7 -50 -7 -28 0 -67 -7 -87 -15 -19 -8 -37 -15 -38 -15 -3 0
-41 89 -50 118 -7 25 -4 26 118 16z m624 -55 c15 -6 73 -11 128 -11 55 1 187
-7 293 -16 l194 -17 13 -39 c8 -21 30 -55 50 -76 l35 -36 -28 -40 c-68 -94
-158 -149 -291 -180 -96 -23 -334 -15 -414 14 -83 30 -165 76 -217 122 l-45
39 45 1 c106 1 190 82 198 190 2 33 6 60 8 60 1 0 15 -5 31 -11z m1093 -95 c0
-12 -34 -89 -45 -101 -1 -2 -26 5 -55 15 -33 11 -49 21 -42 26 7 4 21 24 31
44 18 36 21 37 65 34 32 -3 46 -8 46 -18z m573 -30 c361 -28 368 -29 361 -49
-5 -11 -8 -54 -9 -95 0 -65 4 -81 27 -116 l26 -41 -35 -12 c-82 -30 -143 -115
-143 -201 l0 -50 -58 0 c-97 0 -161 -40 -218 -138 -1 -2 -19 8 -39 22 -54 37
-111 50 -166 39 l-47 -9 -5 52 c-3 28 -12 65 -20 81 -35 67 -119 122 -186 123
-30 0 -33 2 -26 23 29 95 28 128 -1 197 -15 34 -14 38 27 124 l41 89 52 -6
c28 -3 217 -18 419 -33z m-2101 -20 c117 -82 117 -253 1 -341 -138 -103 -333
1 -333 179 0 46 45 133 83 160 72 52 177 53 249 2z m2768 16 c36 -26 70 -90
70 -135 0 -45 -34 -109 -71 -136 -27 -19 -47 -24 -96 -24 -69 0 -101 17 -141
76 -20 29 -23 44 -20 96 3 53 9 68 33 94 17 17 44 38 60 45 44 21 125 13 165
-16z m-5230 -50 c0 -5 -4 -10 -10 -10 -5 0 -10 5 -10 10 0 6 5 10 10 10 6 0
10 -4 10 -10z m302 -25 c62 -45 90 -104 86 -185 -4 -83 -40 -138 -112 -175
-85 -42 -174 -28 -241 40 -80 80 -85 198 -12 282 47 53 99 74 174 70 50 -2 71
-9 105 -32z m5276 -2 l53 -5 -7 -377 c-4 -207 -9 -379 -13 -382 -3 -3 -150 7
-326 22 -176 15 -323 28 -327 28 -5 1 -8 12 -8 26 0 24 3 25 59 25 76 0 118
18 168 73 56 61 72 130 49 209 -9 30 -23 61 -31 68 -24 20 -18 37 15 44 18 3
51 26 79 54 55 55 78 122 66 193 l-7 42 88 -7 c49 -4 113 -9 142 -13z m-1673
-46 c83 -46 106 -154 52 -236 -99 -149 -341 -43 -297 131 29 111 145 161 245
105z m-1187 -173 c35 -20 98 -48 140 -62 70 -24 92 -26 247 -27 132 0 184 4
233 17 81 23 158 59 215 103 l45 35 0 -44 c0 -23 7 -59 15 -79 l16 -36 -62
-29 c-221 -104 -513 -129 -762 -66 -61 16 -238 94 -248 110 -3 5 9 39 26 76
30 63 33 66 52 53 11 -8 49 -31 83 -51z m4899 -1 c-2 -16 -24 -156 -48 -313
-23 -157 -45 -288 -49 -293 -4 -4 -17 2 -31 14 -13 11 -43 32 -66 46 -35 20
-43 30 -43 54 0 71 -53 136 -133 163 -155 52 -402 -34 -438 -153 -8 -27 -21
-43 -46 -56 -54 -29 -135 -124 -180 -211 -66 -127 -123 -328 -123 -437 l0 -42
-80 -42 c-44 -23 -81 -38 -83 -35 -5 11 27 740 33 745 3 2 136 64 295 137 324
148 716 328 875 401 58 27 109 49 114 49 5 0 6 -12 3 -27z m-5537 -18 c65 -34
91 -136 50 -203 -79 -129 -270 -72 -270 80 0 43 5 53 43 93 41 42 47 45 96 45
28 0 65 -7 81 -15z m2982 -47 c52 -15 105 -77 113 -132 17 -113 -94 -216 -203
-187 -88 24 -144 118 -122 202 14 50 46 88 94 110 48 22 65 23 118 7z m-4522
-66 c79 -39 105 -140 54 -213 -59 -85 -190 -83 -245 4 -26 42 -23 135 7 168
52 58 120 74 184 41z m1758 -24 c43 -9 64 -8 116 6 l64 18 78 -46 c290 -168
722 -177 1047 -23 l92 43 40 -18 c22 -9 55 -18 72 -18 l33 0 -16 -41 c-12 -28
-15 -58 -12 -103 l6 -64 -37 4 c-20 3 -362 31 -761 64 -399 33 -750 62 -782
66 l-56 6 14 34 c8 18 14 47 14 65 0 26 3 30 18 24 9 -3 41 -11 70 -17z m-548
-21 c57 -28 101 -96 108 -166 10 -104 -72 -208 -178 -226 -121 -20 -240 81
-240 205 0 84 39 153 105 188 70 36 129 36 205 -1z m2370 1 c49 -34 72 -71 77
-125 12 -131 -129 -225 -241 -160 -56 32 -79 67 -84 131 -8 102 60 175 164
176 37 0 60 -6 84 -22z m-3390 -48 c-44 -24 -47 -24 -53 0 -5 18 0 20 41 20
l47 -1 -35 -19z m513 -21 l147 -12 -6 -51 c-4 -28 -8 -52 -9 -54 -1 -1 -19 5
-41 14 -57 24 -143 15 -191 -19 l-38 -27 -18 38 c-23 44 -61 87 -102 114 l-30
20 70 -6 c39 -3 136 -11 218 -17z m-303 -39 c71 -36 110 -104 110 -190 0 -88
-55 -165 -139 -195 -62 -22 -100 -19 -162 13 -70 35 -108 89 -116 163 -17 168
155 285 307 209z m1432 -55 c95 -8 229 -19 298 -25 69 -5 365 -30 658 -54
l533 -45 37 -30 c51 -41 117 -58 176 -44 l46 10 0 -41 c0 -63 43 -140 98 -179
44 -30 53 -32 128 -32 71 0 85 3 123 28 35 24 73 68 84 101 1 4 20 -3 41 -18
76 -51 156 -57 235 -16 42 21 96 77 106 111 6 19 12 21 59 16 28 -3 178 -16
334 -29 l282 -22 -1 -266 c-1 -146 -4 -321 -8 -390 l-6 -125 -255 17 c-140 10
-669 47 -1175 83 -506 36 -1208 85 -1560 110 -352 25 -728 52 -835 60 -107 8
-438 31 -735 51 -297 21 -544 41 -549 45 -4 4 -30 121 -57 261 -27 139 -52
268 -55 287 -6 31 -5 33 12 26 31 -14 122 -18 154 -6 29 9 30 9 30 -18 0 -92
70 -200 158 -242 97 -47 225 -24 303 55 l36 36 26 -39 c84 -127 299 -99 353
47 10 26 19 49 20 51 2 2 15 -6 31 -16 48 -33 94 -47 158 -46 140 1 265 127
265 265 0 25 2 27 26 18 35 -14 92 -12 134 4 48 18 90 18 292 1z m2439 -8 c18
-12 44 -38 57 -57 20 -29 23 -44 20 -93 -3 -36 -12 -67 -24 -85 -25 -34 -98
-72 -139 -72 -47 0 -117 40 -139 80 -28 48 -28 139 0 177 55 74 155 97 225 50z
m2439 -56 c78 -36 87 -142 17 -195 -61 -47 -122 -67 -200 -68 -82 0 -129 16
-169 56 -93 95 4 200 212 229 40 6 102 -4 140 -22z m-5927 -6 c99 -47 103
-205 6 -257 -98 -52 -219 18 -219 127 0 106 116 177 213 130z m3093 -4 c54
-25 82 -66 90 -133 7 -63 -7 -101 -56 -141 -77 -65 -180 -50 -244 37 -16 21
-21 42 -21 89 0 74 27 119 90 148 51 23 89 23 141 0z m2411 -283 c-67 -89 -97
-207 -97 -375 0 -190 30 -299 105 -381 95 -106 270 -129 408 -54 78 42 170
148 221 254 24 51 49 114 55 140 39 167 -25 348 -160 447 -36 27 -36 27 -18
50 l19 23 58 -48 c184 -156 242 -271 242 -482 0 -297 -129 -496 -390 -600
-100 -39 -187 -54 -300 -50 -95 3 -112 6 -171 35 -218 108 -322 413 -244 719
40 156 109 289 203 386 l46 47 23 -39 24 -40 -24 -32z m476 -41 l48 -42 -266
-135 c-146 -74 -270 -136 -275 -138 -33 -12 10 203 57 291 30 56 35 57 108 38
59 -16 143 -12 205 9 30 10 60 18 65 19 6 0 32 -18 58 -42z m119 -144 c19 -41
23 -63 23 -149 0 -96 -2 -103 -38 -178 -105 -211 -328 -335 -452 -250 -52 35
-71 59 -106 129 -28 59 -54 161 -47 190 3 14 560 303 585 304 6 1 22 -20 35
-46z m-6142 -262 c178 -13 263 -19 1415 -101 1021 -72 1196 -84 2150 -151 407
-29 744 -55 748 -59 4 -4 5 -167 1 -363 -7 -343 -8 -357 -26 -357 -40 0 -4942
411 -4946 415 -5 5 -130 659 -126 665 1 3 143 -4 316 -17 172 -12 383 -26 468
-32z m5183 -210 c8 -71 50 -185 90 -245 60 -91 165 -182 237 -208 17 -5 30
-13 30 -17 0 -11 -551 -364 -557 -357 -3 3 2 178 11 388 9 211 16 389 16 395
0 11 140 91 161 93 3 0 9 -22 12 -49z m873 -474 c-4 -12 -21 -31 -39 -43 -17
-11 -169 -115 -337 -230 -168 -116 -350 -241 -405 -279 -55 -38 -149 -102
-209 -144 l-109 -75 6 94 c4 51 7 126 7 166 l0 72 68 43 c37 23 103 66 147 94
44 29 161 103 260 166 l180 115 90 -4 c103 -4 208 14 288 51 56 25 66 20 53
-26z m-5608 -87 c3338 -278 3846 -321 3850 -325 6 -6 2 -588 -4 -594 -5 -5
-207 10 -684 49 -292 24 -1114 91 -2090 170 -410 33 -880 71 -1045 84 -165 14
-455 37 -645 52 -190 15 -348 30 -352 34 -8 6 -32 123 -88 420 -17 91 -34 173
-36 183 -3 9 0 17 6 17 6 0 496 -40 1088 -90z"/>
<path d="M8190 8499 c-231 -60 -429 -238 -564 -508 -37 -72 -116 -291 -116
-321 0 -9 48 -72 108 -140 59 -69 260 -303 447 -520 187 -217 448 -521 580
-674 132 -153 251 -292 266 -309 21 -26 28 -28 46 -19 57 31 148 205 198 377
138 478 141 1087 8 1490 -99 300 -276 507 -508 594 -145 54 -328 66 -465 30z
m215 -238 c61 -73 121 -147 135 -164 13 -18 74 -93 134 -167 61 -74 199 -244
308 -378 l198 -243 -4 -172 c-5 -169 -30 -429 -45 -456 -6 -9 -34 17 -97 89
-49 57 -138 160 -199 229 -60 70 -135 155 -165 191 -30 35 -73 85 -96 110 -22
25 -114 131 -204 235 -90 105 -184 213 -209 240 -26 28 -69 78 -97 110 -28 33
-90 105 -137 160 -48 55 -87 105 -87 112 0 6 36 45 81 87 87 80 198 145 290
170 49 13 55 13 69 -3 8 -9 65 -77 125 -150z m136 150 c254 -65 433 -253 539
-567 42 -124 99 -419 79 -412 -4 2 -96 113 -205 247 -110 134 -224 274 -254
311 -30 37 -117 145 -194 239 -76 94 -142 174 -147 177 -47 29 75 32 182 5z
m-729 -320 c2 -5 87 -105 189 -223 214 -244 804 -923 988 -1137 l124 -144 -12
-60 c-28 -134 -101 -327 -145 -382 -16 -19 -16 -19 -35 0 -10 11 -222 259
-472 550 -501 586 -580 678 -589 685 -3 3 -28 32 -55 65 -28 33 -83 98 -122
144 -40 47 -73 93 -73 102 0 51 92 266 154 362 30 47 41 55 48 38z"/>
<path d="M4510 8388 c-80 -22 -75 -53 15 -87 113 -43 309 -51 391 -16 47 19
44 40 -11 68 -78 40 -307 60 -395 35z"/>
<path d="M5305 6562 c-65 -23 -142 -76 -166 -115 -10 -18 -19 -35 -19 -40 0
-4 27 6 60 23 95 48 201 73 290 68 68 -4 87 -10 199 -66 68 -34 127 -59 132
-56 20 12 6 34 -43 72 -146 111 -329 157 -453 114z"/>
<path d="M4600 6344 c-49 -9 -128 -46 -149 -68 -17 -18 -23 -40 -27 -93 -7
-86 7 -124 72 -193 99 -106 262 -166 428 -158 145 7 173 32 198 178 19 117
-15 183 -125 244 -118 65 -305 107 -397 90z m156 -55 c84 -15 232 -87 271
-132 76 -87 50 -137 -72 -137 -124 0 -283 48 -395 121 -75 48 -87 81 -45 115
52 41 134 53 241 33z m-123 -249 c121 -56 241 -83 348 -78 l87 4 -15 -32 c-18
-37 -49 -44 -187 -44 -149 0 -243 38 -348 140 -43 41 -58 63 -58 83 l0 28 46
-32 c25 -17 82 -48 127 -69z"/>
<path d="M4530 6244 c-17 -20 -6 -40 39 -71 87 -59 367 -133 371 -98 1 5 -23
16 -52 23 -167 41 -331 111 -326 139 4 22 -16 27 -32 7z"/>
<path d="M3721 5870 c-93 -20 -223 -73 -272 -112 -27 -22 -59 -81 -59 -110 0
-30 -14 -37 -24 -13 -9 24 -128 76 -189 82 -79 8 -154 -17 -214 -71 -26 -24
-45 -47 -42 -50 3 -3 43 8 90 24 158 56 211 40 357 -106 100 -101 125 -114
220 -114 69 0 192 26 266 56 33 13 61 22 63 20 3 -2 0 -13 -6 -24 -6 -12 -11
-33 -11 -48 0 -26 2 -26 28 17 96 151 348 281 627 323 l90 13 -40 18 c-124 54
-370 10 -502 -91 -31 -24 -55 -31 -51 -16 6 25 -18 108 -38 131 -49 58 -191
92 -293 71z m181 -56 c25 -8 54 -24 64 -35 17 -18 17 -23 4 -46 -18 -32 -131
-96 -220 -124 -83 -26 -245 -36 -280 -17 -34 18 -36 52 -6 98 19 29 45 48 103
76 132 63 244 79 335 48z m118 -170 c0 -56 -153 -152 -288 -179 -69 -14 -96
-15 -164 -6 -45 6 -85 11 -89 11 -9 0 -43 60 -37 65 2 1 26 -2 55 -8 105 -22
341 42 456 123 53 37 67 36 67 -6z"/>
<path d="M3910 5775 c0 -8 -15 -24 -32 -35 -37 -23 -192 -75 -253 -85 -59 -10
-75 -15 -75 -26 0 -41 307 42 373 101 27 24 29 30 18 44 -17 20 -31 21 -31 1z"/>
<path d="M2210 5804 c-62 -12 -148 -47 -179 -73 -40 -33 -56 -100 -39 -169 26
-108 205 -171 451 -159 210 9 264 47 253 176 -3 35 -14 80 -24 99 -23 45 -99
88 -188 107 -74 15 -234 26 -274 19z m245 -60 c117 -24 197 -87 168 -132 -13
-22 -75 -39 -170 -47 -136 -12 -367 39 -397 88 -16 25 1 48 57 76 84 42 187
46 342 15z m-230 -209 c108 -23 313 -24 374 -1 24 9 46 14 48 12 2 -2 1 -15
-2 -29 -5 -20 -18 -29 -53 -41 -185 -59 -399 -42 -524 40 -29 19 -38 31 -38
53 l0 29 58 -23 c31 -13 93 -31 137 -40z"/>
<path d="M2090 5695 c-7 -8 -10 -21 -7 -29 12 -31 189 -65 340 -66 71 0 87 3
87 15 0 12 -15 15 -77 15 -138 0 -332 37 -318 61 10 15 -13 19 -25 4z"/>
<path d="M5566 5730 c-77 -14 -167 -63 -222 -123 -27 -29 -53 -61 -59 -70 -9
-17 -13 -17 -51 -4 -92 33 -310 51 -302 25 3 -7 13 -14 24 -16 83 -14 302 -76
354 -101 86 -40 177 -124 240 -219 l52 -77 -6 66 -5 66 102 27 c200 51 264 56
402 30 44 -8 95 -17 113 -21 17 -3 32 -1 32 4 0 15 -80 49 -160 68 -41 10 -80
19 -86 21 -6 1 -13 29 -16 61 -10 111 -61 172 -193 233 -68 32 -147 43 -219
30z m157 -64 c18 -7 45 -28 60 -45 31 -37 34 -79 15 -172 -12 -57 -12 -58 -57
-69 -25 -6 -77 -23 -115 -37 -39 -15 -71 -22 -75 -16 -20 30 -41 52 -78 85
l-41 37 33 47 c41 57 53 65 124 79 65 13 74 28 31 50 -29 15 -35 15 -79 0 -51
-17 -108 -68 -135 -122 -19 -38 -23 -39 -56 -13 l-25 19 35 36 c105 110 264
163 363 121z m187 -142 c6 -29 10 -68 8 -86 -3 -29 -7 -33 -37 -36 -29 -3 -33
-1 -26 15 5 10 10 53 13 95 5 92 24 97 42 12z"/>
<path d="M6790 5626 c-76 -17 -98 -33 -126 -94 -36 -82 -39 -112 -13 -171 28
-66 99 -129 204 -181 151 -75 314 -99 380 -56 21 14 47 74 77 179 23 82 -32
161 -166 240 -135 79 -251 106 -356 83z m209 -65 c70 -26 206 -116 232 -153
29 -39 36 -100 15 -117 -29 -25 -141 -12 -246 28 -117 45 -270 163 -270 210 0
60 149 78 269 32z m-261 -138 c106 -102 323 -203 433 -203 51 0 52 -1 43 -37
-6 -21 -12 -23 -83 -23 -153 0 -287 55 -393 161 -48 47 -68 74 -68 92 0 25 9
57 15 57 2 0 26 -21 53 -47z"/>
<path d="M6771 5546 c-20 -23 3 -53 78 -101 113 -73 273 -137 294 -116 8 8 2
14 -23 24 -65 23 -232 108 -276 139 -33 23 -43 36 -38 50 7 22 -18 25 -35 4z"/>
</g>
</svg>
