<?xml version="1.0" standalone="no"?>
<!DOCTYPE svg PUBLIC "-//W3C//DTD SVG 20010904//EN"
 "http://www.w3.org/TR/2001/REC-SVG-20010904/DTD/svg10.dtd">
<svg version="1.0" xmlns="http://www.w3.org/2000/svg"
 width="200.000000pt" height="200.000000pt" viewBox="0 0 200.000000 200.000000"
 preserveAspectRatio="xMidYMid meet">
<metadata>
Created by potrace 1.16, written by Peter Selinger 2001-2019
</metadata>
<g transform="translate(0.000000,200.000000) scale(0.100000,-0.100000)"
fill="#000000" stroke="none">
<path d="M1532 1904 c-160 -80 -201 -281 -87 -430 14 -18 53 -46 86 -63 141
-70 304 -17 373 121 52 104 28 247 -55 325 -82 77 -217 97 -317 47z m225 -52
c205 -106 128 -416 -102 -414 -125 1 -217 94 -218 218 0 165 173 271 320 196z"/>
<path d="M1630 1827 c0 -7 -16 -19 -36 -26 -50 -18 -70 -66 -50 -115 18 -43
42 -56 104 -56 56 0 83 -20 65 -48 -14 -23 -95 -29 -113 -7 -7 8 -25 15 -41
15 -23 0 -27 -3 -22 -17 10 -29 43 -61 69 -67 13 -4 24 -13 24 -21 0 -9 10
-15 25 -15 15 0 25 6 25 15 0 8 11 17 25 21 32 8 75 59 75 89 0 13 -12 37 -26
54 -23 28 -32 31 -79 31 -68 0 -103 28 -73 58 18 18 107 16 114 -3 5 -13 64
-23 64 -10 0 22 -31 60 -62 76 -21 11 -38 24 -38 29 0 6 -11 10 -25 10 -14 0
-25 -6 -25 -13z"/>
<path d="M855 1796 c-144 -29 -262 -84 -368 -172 -157 -129 -256 -306 -288
-514 l-12 -79 -56 -3 c-45 -2 -56 -7 -59 -21 -3 -17 105 -194 132 -217 9 -6
18 -6 28 3 29 22 139 198 136 215 -2 13 -16 18 -61 20 l-57 3 0 33 c0 52 37
185 74 261 123 259 388 425 675 425 53 0 114 -5 136 -10 46 -10 42 -12 50 21
6 23 3 27 -22 33 -65 14 -240 15 -308 2z m-575 -832 c0 -11 -54 -94 -61 -94
-4 0 -14 11 -23 25 -9 14 -23 36 -32 50 l-16 25 66 0 c36 0 66 -3 66 -6z"/>
<path d="M920 1459 c-187 -30 -349 -197 -380 -391 -47 -302 226 -574 528 -528
251 39 431 280 392 528 -32 199 -193 361 -390 392 -73 11 -74 11 -150 -1z
m195 -65 c19 -8 19 -8 -5 -15 -33 -9 -189 -9 -220 1 l-25 7 30 7 c17 4 35 10
40 12 16 6 158 -3 180 -12z m-317 -63 c11 -6 10 -16 -4 -52 -9 -24 -20 -47
-23 -51 -7 -9 -91 11 -91 22 0 10 87 90 97 90 5 0 14 -4 21 -9z m477 -32 c25
-23 45 -45 45 -49 0 -11 -84 -31 -91 -22 -3 4 -14 27 -23 51 -14 36 -15 46 -4
52 21 14 26 11 73 -32z m-307 -43 l3 -59 -67 6 c-37 4 -69 8 -71 10 -4 5 26
78 40 95 6 8 26 12 51 10 l41 -3 3 -59z m180 10 c13 -26 21 -50 19 -52 -2 -3
-34 -7 -71 -11 l-66 -6 0 55 c0 30 3 58 7 62 4 4 25 6 48 4 37 -3 42 -7 63
-52z m-394 -146 c-11 -96 -6 -90 -90 -90 l-75 0 7 38 c3 20 15 58 26 83 l19
45 59 -15 59 -15 -5 -46z m650 -52 l7 -38 -75 0 c-84 0 -79 -6 -90 91 l-5 45
57 15 57 15 21 -46 c12 -25 25 -62 28 -82z m-465 76 c30 -6 31 -8 31 -60 l0
-54 -86 0 -87 0 7 46 c3 26 6 53 6 60 0 15 71 19 129 8z m255 -40 c10 -78 15
-74 -79 -74 l-85 0 0 54 c0 62 0 62 101 65 l56 1 7 -46z m-450 -151 c2 -10 6
-40 8 -67 l3 -48 -57 -18 -57 -17 -19 46 c-11 25 -23 63 -26 84 l-7 37 75 0
c63 0 75 -3 80 -17z m226 -37 l0 -53 -37 -7 c-21 -3 -57 -6 -79 -6 l-41 0 -7
46 c-10 78 -15 74 79 74 l85 0 0 -54z m226 17 c-3 -21 -6 -48 -6 -60 0 -20 -5
-23 -42 -23 -24 0 -60 3 -80 6 l-38 7 0 53 0 54 86 0 87 0 -7 -37z m210 20
c-2 -10 -8 -34 -12 -53 -3 -19 -13 -49 -22 -66 l-14 -31 -57 16 -56 17 4 60
c1 32 5 62 8 67 2 4 38 7 79 7 67 0 75 -2 70 -17z m-436 -208 c0 -49 -2 -55
-24 -61 -48 -12 -70 -1 -93 46 -12 25 -22 48 -23 52 0 8 38 14 98 17 l42 1 0
-55z m197 41 c2 -2 -6 -26 -19 -52 -24 -51 -45 -62 -94 -50 -22 6 -24 12 -24
63 l0 56 66 -6 c37 -4 69 -8 71 -11z m-375 -61 c15 -39 16 -50 6 -56 -7 -5
-16 -9 -21 -9 -10 0 -97 80 -97 90 0 8 68 29 84 26 5 -1 17 -24 28 -51z m501
39 c15 -3 27 -10 27 -14 0 -10 -87 -90 -97 -90 -24 1 -33 18 -23 43 5 15 15
39 20 53 7 18 15 24 28 20 9 -3 29 -8 45 -12z m-183 -143 c23 -6 20 -8 -22
-19 -26 -7 -65 -12 -88 -12 -23 0 -62 5 -88 12 -42 11 -45 13 -22 19 14 4 63
7 110 7 47 0 96 -3 110 -7z"/>
<path d="M1747 1188 c-63 -85 -118 -178 -115 -195 3 -15 14 -19 62 -21 l58 -3
-6 -60 c-42 -371 -369 -660 -745 -659 -53 0 -114 5 -136 10 -46 10 -42 12 -50
-21 -7 -27 -6 -27 67 -39 85 -15 225 -8 312 15 154 41 259 100 371 210 130
127 209 284 235 463 l12 81 57 3 c47 3 56 6 59 23 3 21 -124 216 -145 222 -6
2 -22 -11 -36 -29z m57 -83 c9 -14 23 -36 32 -50 l16 -25 -71 0 -71 0 32 50
c18 27 36 50 39 50 4 0 14 -11 23 -25z"/>
<path d="M266 604 c-9 -8 -16 -21 -16 -29 0 -22 -43 -42 -82 -37 -35 4 -39 2
-68 -44 -32 -52 -39 -101 -15 -110 20 -8 20 -61 0 -80 -23 -23 -18 -64 13
-109 23 -33 34 -40 63 -41 56 -1 78 -13 94 -50 l14 -34 76 0 c73 0 76 1 87 28
19 43 46 60 89 55 36 -5 39 -3 68 43 36 56 39 84 11 109 -11 10 -20 28 -20 39
0 12 9 29 20 39 28 23 25 54 -11 111 -29 45 -32 48 -67 44 -45 -6 -82 9 -82
32 0 9 -8 24 -18 33 -25 23 -134 24 -156 1z m116 -61 c17 -35 85 -74 120 -68
20 3 30 -2 43 -21 15 -23 15 -27 1 -43 -23 -25 -22 -127 1 -139 16 -9 16 -12
0 -35 -12 -19 -25 -25 -49 -24 -42 0 -106 -38 -114 -69 -5 -19 -13 -24 -39
-24 -27 0 -34 5 -39 25 -8 31 -90 75 -127 68 -19 -3 -28 1 -39 21 -12 23 -11
28 3 44 22 24 23 109 2 132 -13 14 -14 22 -4 44 11 22 17 26 40 21 37 -8 117
37 125 71 9 35 58 34 76 -3z"/>
<path d="M291 436 c-58 -32 -69 -119 -22 -167 49 -48 142 -34 169 26 22 47 15
84 -22 121 -37 37 -81 44 -125 20z m87 -58 c34 -34 -14 -102 -56 -79 -28 15
-35 40 -17 67 17 26 53 32 73 12z"/>
</g>
</svg>
