<?xml version="1.0" standalone="no"?>
<!DOCTYPE svg PUBLIC "-//W3C//DTD SVG 20010904//EN"
 "http://www.w3.org/TR/2001/REC-SVG-20010904/DTD/svg10.dtd">
<svg version="1.0" xmlns="http://www.w3.org/2000/svg"
 width="381.000000pt" height="512.000000pt" viewBox="0 0 381.000000 512.000000"
 preserveAspectRatio="xMidYMid meet">
<metadata>
Created by potrace 1.16, written by Peter Selinger 2001-2019
</metadata>
<g transform="translate(0.000000,512.000000) scale(0.100000,-0.100000)"
fill="#000000" stroke="none">
<path d="M1788 5110 c-79 -13 -188 -52 -256 -92 -77 -45 -201 -170 -245 -245
-66 -113 -89 -194 -95 -325 -7 -188 33 -319 147 -476 98 -135 152 -282 155
-422 1 -100 -19 -140 -93 -188 -31 -19 -86 -55 -123 -78 -134 -87 -272 -239
-348 -386 l-34 -66 -231 -4 c-224 -3 -231 -4 -286 -29 -110 -52 -179 -141
-197 -254 -23 -140 39 -273 162 -349 61 -38 85 -40 539 -46 l449 -5 -74 -51
c-141 -99 -296 -284 -368 -440 -81 -175 -110 -307 -110 -496 0 -318 112 -590
335 -813 169 -169 371 -277 604 -321 101 -20 307 -22 401 -5 424 77 770 374
904 776 112 334 57 719 -145 1016 -58 86 -184 214 -272 277 l-79 57 408 5
c413 6 439 8 500 46 123 76 185 209 162 349 -18 113 -87 202 -197 254 -55 25
-62 26 -286 29 l-231 4 -34 66 c-76 147 -214 299 -348 386 -37 23 -92 59 -123
78 -74 48 -94 88 -93 188 3 147 46 268 149 415 127 182 161 292 152 484 -9
196 -65 321 -207 462 -130 130 -269 192 -453 203 -45 3 -108 1 -139 -4z m269
-185 c96 -33 165 -77 231 -150 145 -158 182 -382 95 -580 -9 -22 -49 -87 -88
-145 -120 -178 -168 -319 -169 -505 -1 -105 1 -114 31 -175 39 -79 63 -103
173 -170 47 -29 109 -71 139 -93 62 -48 175 -176 209 -236 l23 -41 -811 0
-811 0 15 28 c25 49 103 146 158 198 56 53 136 110 230 163 68 38 112 86 147
161 23 49 26 67 25 165 -1 187 -48 324 -178 519 -102 152 -121 209 -120 356 1
98 5 124 27 177 69 168 205 293 368 337 89 24 218 20 306 -9z m1290 -2277
c129 -71 122 -259 -12 -319 -38 -18 -103 -19 -1445 -19 -1342 0 -1407 1 -1445
19 -51 23 -92 71 -101 117 -19 103 34 191 131 215 17 4 662 6 1435 6 1317 -2
1407 -3 1437 -19z m-1329 -708 c2 -179 0 -209 -15 -239 -32 -62 -108 -67 -143
-8 -18 29 -20 51 -20 238 0 113 3 209 7 213 4 4 43 5 88 4 l80 -3 3 -205z
m-340 85 l-3 -86 -75 -32 c-239 -104 -418 -325 -471 -581 -106 -513 279 -986
801 -986 312 0 590 171 730 450 154 306 104 666 -128 920 -79 87 -169 152
-270 196 l-77 33 -3 87 -3 87 31 -6 c55 -12 180 -69 253 -117 156 -101 277
-238 357 -405 73 -152 95 -248 95 -430 0 -125 -4 -164 -23 -234 -123 -454
-504 -751 -962 -751 -483 0 -885 336 -976 817 -22 116 -15 295 16 413 80 312
311 569 614 686 98 37 97 38 94 -61z m5 -314 c25 -207 273 -294 425 -148 35
34 72 120 72 167 0 17 3 30 6 30 21 0 133 -71 183 -117 344 -311 265 -866
-154 -1074 -325 -161 -716 -24 -875 306 -50 106 -65 170 -63 285 2 185 60 326
188 455 47 47 105 93 140 112 33 18 63 33 66 33 3 0 9 -22 12 -49z"/>
<path d="M1844 4825 c-34 -14 -44 -31 -44 -76 0 -38 30 -67 77 -74 81 -12 129
-27 163 -53 47 -35 57 -48 87 -111 35 -73 29 -155 -16 -234 -17 -30 -31 -68
-31 -84 0 -68 85 -99 136 -48 14 14 39 56 57 92 40 87 49 210 22 294 -47 144
-158 254 -290 287 -74 18 -129 21 -161 7z"/>
</g>
</svg>
