<?xml version="1.0" standalone="no"?>
<!DOCTYPE svg PUBLIC "-//W3C//DTD SVG 20010904//EN"
 "http://www.w3.org/TR/2001/REC-SVG-20010904/DTD/svg10.dtd">
<svg version="1.0" xmlns="http://www.w3.org/2000/svg"
 width="789.000000pt" height="720.000000pt" viewBox="0 0 789.000000 720.000000"
 preserveAspectRatio="xMidYMid meet">
<metadata>
Created by potrace 1.16, written by Peter Selinger 2001-2019
</metadata>
<g transform="translate(0.000000,720.000000) scale(0.100000,-0.100000)"
fill="#000000" stroke="none">
<path d="M2624 7060 c-270 -37 -505 -219 -738 -570 -220 -331 -394 -867 -457
-1405 -10 -92 -15 -106 -56 -170 -176 -276 -353 -800 -417 -1235 -22 -150 -31
-424 -17 -544 13 -117 60 -309 102 -416 96 -250 383 -513 654 -599 50 -16 125
-37 168 -46 77 -17 79 -18 73 -44 -46 -217 -51 -265 -51 -536 l0 -270 32 -125
c68 -268 141 -406 296 -562 170 -171 371 -272 637 -320 162 -29 479 -31 595
-4 269 63 535 202 678 354 160 172 278 477 318 825 7 59 16 104 19 100 4 -5
17 -33 30 -63 55 -134 196 -310 329 -411 36 -27 120 -77 186 -109 197 -97 378
-133 670 -134 189 0 246 8 409 61 210 68 363 154 496 279 168 159 280 405 341
751 27 150 31 420 10 588 -36 292 -143 693 -249 943 -41 96 -150 295 -218 400
-63 97 -213 256 -299 317 -33 24 -86 56 -117 71 -56 27 -58 29 -58 69 0 57
-93 509 -134 653 -70 242 -153 432 -288 658 -144 243 -322 411 -516 490 -138
55 -398 69 -532 29 -129 -40 -264 -127 -383 -248 -66 -67 -175 -198 -196 -235
-5 -9 -12 -14 -16 -11 -3 4 -21 65 -40 135 -94 362 -252 714 -422 941 -67 90
-222 237 -297 282 -148 89 -370 134 -542 111z m276 -50 c39 -6 98 -27 148 -51
76 -37 82 -42 82 -70 0 -39 22 -82 75 -144 32 -38 44 -62 49 -100 11 -73 47
-129 105 -160 26 -15 65 -47 85 -71 24 -28 62 -57 106 -79 38 -19 77 -46 85
-59 59 -90 183 -450 226 -660 18 -87 18 -93 2 -123 -10 -18 -21 -33 -24 -33
-15 0 -67 76 -79 115 -19 60 -32 68 -24 15 9 -57 18 -77 60 -120 23 -25 31
-39 24 -49 -7 -12 -11 -13 -25 -1 -28 24 -64 94 -76 150 -16 74 -44 127 -77
143 -15 8 -57 24 -94 36 -78 26 -123 69 -133 128 -15 83 -36 165 -49 191 -24
46 -98 107 -156 128 -78 27 -115 69 -140 156 -45 155 -53 173 -94 215 -34 33
-51 42 -91 48 -71 9 -134 34 -150 58 -8 12 -25 66 -39 120 -14 54 -30 105 -35
115 -16 30 -58 63 -98 77 l-38 13 30 7 c17 4 35 8 40 10 23 8 245 4 305 -5z
m-347 -78 c36 -21 72 -91 81 -157 17 -118 61 -164 206 -210 111 -37 113 -38
167 -210 38 -123 69 -160 171 -211 45 -22 95 -53 111 -68 28 -27 51 -83 51
-127 0 -49 33 -139 66 -177 35 -42 97 -76 156 -87 52 -10 71 -37 106 -151 26
-83 39 -109 73 -143 l40 -42 -30 -65 -30 -64 -59 0 c-33 0 -79 -3 -104 -6 -40
-6 -45 -4 -55 19 -7 14 -17 54 -23 89 -18 102 -66 155 -197 222 -66 33 -81 56
-105 159 -24 108 -33 129 -71 164 -37 35 -63 50 -167 96 -112 50 -132 74 -159
185 -15 58 -34 107 -52 132 -32 43 -101 83 -164 94 -99 17 -116 36 -151 168
-30 110 -77 184 -150 237 l-54 39 54 40 c29 23 82 56 116 75 55 31 66 34 102
25 23 -5 55 -17 71 -26z m743 -149 c30 -29 78 -85 108 -125 62 -83 187 -280
181 -286 -10 -10 -63 34 -95 78 -24 34 -54 60 -93 81 -61 32 -87 69 -87 124 0
43 -28 96 -80 151 -97 103 -39 83 66 -23z m-1070 -46 c64 -44 100 -103 131
-218 42 -155 52 -166 192 -201 100 -25 136 -53 157 -126 38 -129 48 -158 62
-180 21 -33 87 -76 157 -101 87 -32 143 -68 160 -101 8 -16 26 -69 39 -118 39
-144 63 -176 182 -234 94 -46 113 -70 123 -159 5 -41 12 -81 15 -90 6 -12 -6
-21 -52 -37 -71 -26 -166 -86 -245 -154 -32 -28 -59 -49 -60 -47 -1 2 -33 51
-72 108 -136 205 -318 355 -502 415 -31 10 -62 29 -77 47 -26 31 -28 34 -46
116 -17 75 -67 124 -156 153 -38 13 -79 30 -91 38 -40 25 -63 76 -74 162 -16
132 -50 189 -134 232 -56 28 -85 57 -85 85 0 45 287 443 319 443 5 0 31 -15
57 -33z m-332 -537 c77 -35 98 -71 125 -208 30 -153 56 -189 154 -212 61 -15
107 -36 124 -59 7 -9 24 -50 37 -91 13 -41 27 -82 30 -90 6 -14 -3 -15 -66 -9
-40 4 -109 3 -153 -3 -78 -9 -80 -9 -100 15 -11 14 -39 34 -63 46 -51 26 -67
58 -52 110 31 111 -28 208 -158 261 -67 27 -70 92 -11 221 40 86 43 88 57 68
8 -12 42 -34 76 -49z m3062 -153 c150 -42 331 -176 450 -333 208 -277 368
-630 448 -985 27 -122 81 -478 73 -486 -3 -2 -34 1 -68 8 -94 18 -290 16 -369
-4 -81 -21 -209 -84 -277 -136 -50 -39 -53 -39 -53 -18 0 13 -6 31 -13 42 -12
15 -12 23 0 46 26 51 -8 109 -63 109 -28 0 -33 4 -39 30 -13 59 -85 87 -145
57 -17 -9 -28 -26 -36 -56 -6 -28 -17 -47 -30 -51 -27 -11 -54 -43 -68 -84
l-12 -35 -45 114 c-39 99 -43 116 -31 129 8 8 17 34 19 59 5 41 2 49 -26 77
-24 25 -38 31 -63 28 -30 -3 -33 1 -86 92 -58 102 -136 209 -201 278 -22 23
-36 42 -30 42 19 0 49 65 49 108 0 35 -6 49 -30 74 -23 22 -30 39 -30 67 0 54
-38 91 -94 91 -23 0 -47 -5 -54 -12 -9 -9 -16 -8 -30 5 -21 19 -64 22 -93 7
-27 -15 -52 -68 -47 -101 3 -16 2 -29 -1 -29 -3 1 -33 7 -66 15 -33 8 -75 15
-92 15 -18 0 -33 4 -33 9 0 15 164 294 220 374 73 106 186 234 260 294 99 81
266 161 365 177 56 8 290 -3 341 -17z m-3256 -112 c7 -8 39 -29 72 -47 32 -17
71 -45 85 -62 22 -26 24 -35 18 -76 -21 -126 -8 -166 64 -196 20 -8 43 -22 53
-31 17 -15 14 -19 -61 -54 -93 -44 -158 -86 -223 -147 l-47 -43 -12 23 c-6 13
-31 41 -55 64 -36 33 -44 47 -44 77 0 50 118 507 131 507 4 0 12 -7 19 -15z
m647 -451 l61 -7 -14 -33 c-17 -40 -17 -66 -3 -117 21 -76 111 -146 188 -147
50 0 119 37 151 81 l28 39 74 -79 c42 -43 107 -126 146 -185 l71 -108 -60 -70
c-33 -38 -83 -101 -110 -139 l-50 -69 -21 20 c-49 46 -172 53 -226 13 -48 -35
-77 -100 -77 -173 0 -85 23 -126 90 -160 28 -14 52 -26 54 -27 2 -1 -10 -35
-27 -75 -74 -177 -182 -552 -213 -739 l-13 -77 -76 -4 c-90 -5 -147 -32 -183
-87 -81 -123 -53 -278 64 -357 l46 -30 -37 -75 c-20 -41 -52 -110 -70 -155
-33 -81 -33 -81 -80 -93 -79 -20 -150 -112 -150 -194 0 -47 26 -129 51 -161
19 -24 20 -31 9 -79 -22 -96 -17 -90 -68 -82 -78 12 -202 55 -293 101 l-87 45
-4 92 c-4 75 -9 102 -31 144 -49 94 -143 141 -252 123 -31 -5 -59 -11 -64 -14
-14 -9 -91 171 -116 269 -33 130 -65 367 -65 481 0 133 23 327 60 509 36 180
38 185 54 185 36 0 121 35 153 63 79 70 95 176 42 287 -17 36 -41 77 -55 91
l-25 26 35 81 c44 104 87 182 188 334 184 279 341 426 541 509 104 44 223 57
364 43z m263 -84 c101 -61 106 -66 89 -87 -22 -28 -41 -43 -78 -59 -44 -20
-107 -4 -147 37 -31 32 -43 105 -25 151 l10 27 43 -15 c24 -8 72 -33 108 -54z
m-1034 -94 c39 -39 44 -74 13 -102 -12 -10 -40 -41 -62 -69 l-40 -50 7 65 c11
104 29 190 39 190 5 0 24 -15 43 -34z m2510 -71 c17 -41 30 -44 46 -10 15 33
53 43 78 20 21 -19 27 -60 10 -70 -20 -12 -9 -34 27 -52 51 -25 61 -45 40 -77
-30 -45 -93 -28 -80 22 3 12 0 36 -7 52 -22 52 -69 65 -112 30 -25 -19 -25
-19 -46 3 -30 32 -38 79 -17 100 25 26 45 20 61 -18z m-221 -76 c148 -28 359
-180 485 -349 181 -244 294 -479 405 -840 l8 -25 -28 28 c-37 37 -86 37 -114
1 -12 -15 -21 -34 -21 -44 0 -28 43 -84 73 -94 35 -13 79 18 88 60 5 29 5 29
17 -11 7 -22 20 -79 29 -126 l16 -86 -35 -59 c-43 -71 -116 -217 -148 -296
-16 -38 -29 -58 -40 -58 -10 0 -29 -12 -44 -26 -30 -30 -36 -87 -12 -113 13
-14 10 -33 -25 -146 -21 -71 -49 -174 -61 -228 -18 -80 -25 -96 -38 -90 -53
24 -110 -9 -110 -64 0 -37 39 -83 70 -83 26 0 27 -5 14 -82 -7 -40 -13 -95
-14 -122 0 -27 -2 -47 -5 -44 -3 2 -23 67 -44 144 -22 76 -56 186 -76 244 -69
199 -231 508 -342 652 l-56 72 37 29 c48 39 46 63 -10 130 -26 30 -59 77 -73
104 -37 67 -56 64 -103 -17 -21 -36 -41 -65 -46 -65 -4 0 -50 22 -102 47 -56
28 -123 53 -164 60 -55 11 -72 18 -88 40 -23 33 -49 35 -86 8 -19 -13 -56 -22
-122 -29 -53 -6 -122 -20 -154 -31 -33 -11 -64 -20 -69 -20 -6 0 -8 31 -4 83
7 84 0 107 -30 107 -7 0 -35 -20 -62 -44 -27 -24 -72 -56 -100 -71 -60 -33
-67 -49 -47 -107 40 -120 30 -143 -63 -143 -52 0 -56 -2 -79 -35 -13 -20 -22
-44 -19 -57 2 -13 0 -20 -6 -16 -7 4 -8 -7 -4 -32 6 -37 6 -38 -10 -16 -14 21
-14 32 6 140 49 260 146 638 205 793 77 205 259 491 431 675 121 131 318 243
462 262 73 10 226 5 308 -10z m293 -68 c4 -23 4 -23 -21 -5 -27 20 -26 37 1
32 10 -2 19 -14 20 -27z m-1382 -456 c13 -8 24 -19 24 -24 0 -4 -22 -46 -48
-92 -26 -46 -54 -98 -61 -116 -12 -30 -14 -31 -44 -21 -88 29 -118 125 -70
220 31 63 129 79 199 33z m1863 -139 c7 -8 11 -27 9 -43 -3 -28 -4 -27 -26 15
-17 32 -19 42 -8 42 7 0 19 -6 25 -14z m-3384 -139 c33 -111 7 -192 -77 -235
-77 -39 -80 -33 -46 88 16 58 38 136 50 175 l20 69 19 -23 c10 -13 26 -46 34
-74z m3739 -38 c9 -14 12 -33 9 -55 -6 -36 2 -41 42 -25 46 19 75 -33 34 -60
l-21 -14 26 -28 c45 -48 28 -90 -34 -85 -29 3 -33 -1 -43 -32 -10 -27 -18 -36
-40 -38 -35 -4 -77 22 -77 48 0 11 -12 26 -28 34 -41 21 -54 41 -54 81 0 44
26 75 62 75 14 0 34 6 43 13 15 10 16 17 5 44 -9 25 -9 35 1 47 19 23 57 20
75 -5z m851 -109 c170 -25 363 -160 523 -367 l33 -42 -42 -11 c-71 -19 -144
-28 -414 -51 -321 -26 -610 -23 -830 11 -77 12 -143 25 -148 29 -12 12 151
200 230 262 83 66 234 145 314 164 65 16 238 18 334 5z m-999 -208 c3 -12 19
-33 35 -46 57 -48 125 -42 157 14 9 16 23 30 30 30 8 0 -17 -35 -55 -78 -38
-43 -84 -99 -103 -125 -35 -50 -50 -58 -50 -29 0 17 -62 249 -76 287 -7 18 -5
17 24 -5 17 -14 34 -35 38 -48z m-142 -61 c21 -24 17 -54 -7 -59 -26 -5 -47
16 -47 49 0 35 27 40 54 10z m-1881 -263 c-2 -76 -4 -83 -26 -95 -23 -12 -25
-11 -31 17 -3 17 -10 30 -16 30 -12 0 -13 -12 -1 -44 7 -17 6 -27 -2 -34 -28
-24 -39 -16 -56 39 l-18 56 42 22 c24 12 57 38 76 57 18 19 33 34 34 34 0 0
-1 -37 -2 -82z m3651 5 c65 -102 118 -201 109 -206 -4 -3 -45 -16 -89 -30 -84
-27 -181 -46 -370 -73 -147 -21 -624 -30 -824 -15 -135 10 -549 59 -558 66 -8
7 170 305 182 305 1 0 43 -9 93 -20 98 -21 241 -35 473 -45 173 -8 582 23 780
60 69 12 133 23 143 24 11 1 33 -22 61 -66z m-3041 -73 c93 -29 256 -139 344
-234 91 -97 196 -250 188 -274 -3 -9 -14 -28 -25 -42 l-19 -25 -18 25 c-36 51
-96 110 -112 110 -9 -1 -45 -46 -84 -105 -38 -57 -74 -109 -81 -114 -8 -7 -27
7 -65 52 -118 137 -171 188 -194 185 -15 -2 -43 -35 -92 -110 -38 -59 -72
-108 -75 -108 -3 0 -14 14 -24 30 -35 60 -139 181 -168 196 l-29 15 -106 -111
c-59 -61 -115 -116 -125 -121 -15 -8 -26 8 -88 131 -39 78 -77 143 -85 146 -9
4 -42 -17 -82 -52 -65 -56 -67 -57 -39 -19 182 250 367 393 571 441 88 21 318
12 408 -16z m337 -2 c0 -6 23 -43 51 -82 l52 -70 -29 -22 c-33 -27 -39 -24
-60 24 -9 20 -18 31 -21 24 -3 -8 -13 -6 -32 10 l-28 23 26 53 c24 49 41 66
41 40z m2955 -463 c25 -77 48 -154 51 -171 l6 -31 -102 -36 c-222 -80 -464
-125 -829 -152 -453 -34 -965 -8 -1236 63 -59 16 -69 22 -67 38 8 47 107 377
134 447 26 68 32 76 51 72 36 -8 131 -23 322 -52 169 -26 199 -27 500 -26 176
1 381 6 455 13 148 12 438 69 534 104 l61 22 37 -75 c21 -42 58 -139 83 -216z
m-4171 234 c-23 -24 -30 -27 -32 -14 -5 22 16 45 41 45 19 0 18 -2 -9 -31z
m-168 -31 c-3 -13 -10 -65 -17 -116 -10 -82 -16 -102 -51 -158 -22 -35 -44
-64 -48 -64 -17 0 -92 63 -110 93 -25 40 -25 100 -1 154 34 74 96 111 189 112
39 1 42 -1 38 -21z m64 -82 c0 -8 -4 -18 -10 -21 -5 -3 -10 3 -10 14 0 12 5
21 10 21 6 0 10 -6 10 -14z m120 -97 c0 -13 97 -186 127 -226 39 -53 56 -46
177 79 l108 113 46 -50 c25 -28 67 -78 95 -112 28 -36 57 -63 67 -63 22 0 71
56 137 154 l48 71 113 -120 c63 -66 119 -121 126 -123 22 -5 65 38 122 123 31
47 58 85 60 85 3 0 30 -27 61 -60 30 -33 64 -60 74 -60 11 0 32 18 48 40 l29
40 35 -62 c108 -195 208 -464 262 -703 45 -203 45 -200 -14 -274 l-51 -63 -61
63 c-33 35 -67 76 -75 91 -19 36 -54 47 -72 22 -7 -11 -47 -82 -89 -159 -41
-77 -78 -143 -82 -147 -8 -9 -124 153 -156 216 -11 22 -26 42 -33 44 -13 4
-18 -1 -111 -118 -33 -41 -75 -92 -93 -114 l-34 -38 -29 43 c-15 24 -56 76
-91 115 -34 39 -65 81 -69 93 -3 11 -15 26 -26 32 -16 8 -23 5 -42 -17 -12
-15 -74 -81 -137 -147 -95 -98 -117 -116 -125 -102 -5 8 -57 82 -115 163 -69
95 -113 148 -126 150 -15 2 -45 -24 -112 -100 -50 -57 -107 -115 -126 -131
l-35 -27 -38 67 c-21 38 -52 109 -71 158 -49 136 -49 135 -75 135 -17 0 -48
-28 -116 -105 -51 -58 -95 -105 -98 -105 -17 0 122 518 183 678 13 36 48 110
76 165 49 93 59 105 143 172 49 40 104 86 120 102 29 28 45 33 45 12z m4249
-386 c41 -231 40 -223 22 -232 -164 -84 -891 -201 -1248 -201 -178 0 -584 25
-736 45 -105 14 -388 63 -393 68 -2 2 48 253 61 303 l5 21 92 -19 c349 -72
678 -98 982 -79 590 38 850 80 1099 180 40 16 77 29 83 30 7 1 20 -45 33 -116z
m-2421 -179 c10 -18 5 -54 -8 -54 -13 0 -40 30 -40 44 0 29 34 36 48 10z
m-2359 -164 c-34 -109 -44 -129 -52 -114 -6 11 -11 48 -11 84 -1 51 4 73 22
103 21 32 71 71 80 62 2 -2 -16 -62 -39 -135z m-672 111 c59 -27 94 -91 101
-184 l5 -72 -39 29 c-121 91 -242 215 -229 236 11 17 117 11 162 -9z m5510
-148 c8 -102 7 -398 -3 -445 -4 -22 -17 -31 -72 -52 -260 -98 -734 -166 -1167
-166 -169 0 -492 22 -665 45 -154 21 -510 101 -528 119 -12 13 -14 262 -2 372
6 65 13 120 14 122 2 1 106 -13 232 -33 126 -19 279 -39 339 -44 196 -18 578
-33 650 -27 67 7 253 25 455 47 153 16 506 86 620 123 58 19 108 34 112 35 3
1 10 -43 15 -96z m-4648 -273 c43 -143 129 -290 169 -290 28 1 125 81 196 163
37 42 71 77 76 77 5 0 14 -9 20 -21 16 -29 168 -240 193 -266 44 -48 71 -30
244 162 39 44 73 78 75 75 2 -3 47 -60 101 -126 93 -117 111 -134 143 -134 21
0 85 62 154 150 l63 79 74 -105 c82 -117 111 -141 142 -125 11 6 54 78 97 161
42 83 79 150 83 150 3 0 16 -16 29 -34 13 -19 45 -57 72 -85 37 -39 56 -51 78
-51 34 0 76 30 103 74 10 17 19 24 19 16 0 -8 7 -73 16 -145 29 -227 10 -534
-47 -778 l-21 -88 -63 60 c-35 34 -70 61 -78 61 -8 0 -61 -48 -117 -108 l-103
-107 -85 83 c-48 45 -94 82 -105 82 -10 0 -41 -17 -70 -38 -29 -21 -84 -61
-124 -89 l-71 -52 -101 105 c-56 57 -106 104 -111 104 -5 0 -51 -38 -102 -84
l-93 -84 -35 29 c-109 92 -214 169 -230 169 -16 0 -73 -33 -244 -140 -26 -16
-52 -30 -55 -30 -4 0 -22 20 -39 44 -17 24 -59 77 -93 117 -34 41 -73 91 -86
111 -14 20 -32 39 -40 43 -19 7 -96 -42 -201 -128 -40 -32 -74 -58 -76 -56 -5
6 -35 203 -47 309 -6 53 -8 135 -5 185 9 116 34 328 42 352 7 18 223 243 235
243 3 0 11 -18 18 -40z m4631 -280 c0 -19 -41 -216 -56 -267 -8 -29 -60 -49
-205 -78 -377 -77 -802 -102 -1289 -75 -370 20 -769 78 -796 115 -15 20 -71
295 -61 295 3 0 62 -14 131 -30 244 -58 525 -100 751 -112 246 -12 618 -5 795
16 227 27 596 103 680 140 46 20 50 20 50 -4z m-106 -382 c-29 -97 -136 -253
-223 -326 -61 -52 -152 -80 -356 -111 -356 -54 -647 -53 -1154 6 l-144 16 -88
74 c-48 40 -109 101 -135 136 -42 56 -118 196 -111 204 2 2 71 -10 153 -27
287 -56 931 -85 1339 -60 133 8 679 91 693 105 3 3 12 5 19 5 10 0 12 -7 7
-22z m-4367 -444 c56 -67 107 -125 113 -129 20 -12 55 3 190 84 l133 80 86
-73 c47 -40 105 -85 128 -99 l41 -26 44 30 c23 16 70 51 102 77 l60 48 90 -93
c61 -62 98 -93 113 -93 12 0 79 38 148 84 l127 85 78 -80 c43 -43 87 -79 97
-79 10 0 63 45 118 100 55 55 104 100 110 100 6 0 34 -24 63 -53 l52 -52 -30
-72 c-61 -150 -184 -294 -340 -398 -140 -93 -399 -191 -572 -216 -101 -15
-358 -7 -478 15 -231 42 -441 156 -625 341 -109 109 -157 187 -211 339 l-28
79 23 15 c12 9 66 50 119 93 l97 78 25 -32 c14 -17 71 -86 127 -153z m3892
-49 c-55 -30 -236 -97 -327 -121 -174 -46 -467 -43 -674 8 -48 11 -127 40
-175 64 -78 39 -84 43 -48 39 89 -11 279 -25 435 -31 130 -5 218 -2 415 16
138 12 275 25 305 30 88 12 100 12 69 -5z"/>
<path d="M2693 6904 c3 -11 11 -46 17 -79 7 -33 18 -72 26 -87 17 -33 63 -66
102 -74 38 -8 53 13 15 22 -61 15 -91 49 -118 139 -14 46 -31 87 -37 91 -6 4
-8 -1 -5 -12z"/>
<path d="M2770 6811 c0 -32 6 -44 31 -65 31 -26 69 -35 69 -16 0 6 -4 10 -9
10 -21 0 -71 53 -71 75 0 13 -4 27 -10 30 -6 4 -10 -10 -10 -34z"/>
<path d="M3095 6445 c4 -11 10 -43 15 -72 5 -28 16 -63 25 -77 20 -31 108 -61
134 -46 18 10 16 11 -57 30 -49 12 -68 37 -78 98 -4 24 -16 53 -26 65 -18 20
-19 21 -13 2z"/>
<path d="M3186 6388 c-13 -29 -2 -62 26 -77 37 -21 48 -5 16 22 -15 12 -29 33
-31 47 -3 20 -5 22 -11 8z"/>
<path d="M3420 6024 c0 -3 5 -15 12 -27 6 -12 15 -46 19 -76 4 -30 16 -66 27
-80 22 -30 79 -52 111 -44 33 9 24 23 -15 23 -51 0 -89 40 -98 105 -8 50 -33
105 -48 105 -4 0 -8 -3 -8 -6z"/>
<path d="M3510 5942 c0 -50 14 -83 40 -97 39 -20 44 -7 10 25 -18 17 -30 38
-30 53 0 14 -4 29 -10 32 -5 3 -10 -3 -10 -13z"/>
<path d="M3790 5569 c0 -19 34 -69 47 -69 19 0 16 14 -7 35 -11 10 -20 24 -20
32 0 7 -4 13 -10 13 -5 0 -10 -5 -10 -11z"/>
<path d="M2195 6671 c37 -22 71 -87 86 -163 5 -32 15 -61 21 -64 15 -10 1 108
-19 157 -18 46 -65 89 -96 89 -19 0 -18 -2 8 -19z"/>
<path d="M2170 6632 c0 -6 4 -14 10 -17 5 -3 19 -37 30 -75 12 -39 25 -70 30
-70 13 0 13 4 -6 71 -14 50 -64 121 -64 91z"/>
<path d="M2473 6276 c2 -6 21 -15 43 -19 72 -15 87 -22 106 -48 11 -14 23 -50
26 -79 4 -32 13 -55 21 -58 11 -4 13 6 8 51 -6 63 -28 111 -60 131 -29 19
-149 37 -144 22z"/>
<path d="M2540 6190 c-12 -8 -11 -10 8 -10 17 0 27 -10 38 -36 11 -25 19 -33
26 -26 12 12 3 46 -18 67 -18 17 -33 19 -54 5z"/>
<path d="M2088 6137 c7 -8 19 -56 27 -106 7 -49 19 -102 27 -118 19 -41 138
-96 138 -64 0 5 -20 17 -45 26 -62 24 -74 42 -91 136 -17 93 -31 130 -54 137
-13 4 -13 3 -2 -11z"/>
<path d="M2188 6054 c-5 -4 -8 -25 -8 -46 0 -30 7 -46 29 -69 16 -16 39 -29
50 -29 31 0 26 13 -14 34 -34 19 -37 26 -48 104 -1 8 -5 10 -9 6z"/>
<path d="M2820 5889 c0 -4 22 -15 49 -23 27 -8 63 -21 80 -30 37 -19 78 -78
87 -124 7 -35 19 -48 29 -32 19 31 -47 150 -99 177 -38 20 -146 44 -146 32z"/>
<path d="M2885 5800 c-3 -6 4 -10 18 -10 28 0 53 -24 68 -68 11 -33 29 -43 29
-18 0 24 -17 60 -39 84 -22 23 -65 30 -76 12z"/>
<path d="M2433 5633 c8 -45 56 -116 82 -122 17 -3 15 1 -9 33 -15 20 -36 57
-47 81 -24 55 -34 58 -26 8z"/>
<path d="M2506 5621 c-9 -14 33 -91 51 -91 15 0 17 16 3 25 -6 3 -18 22 -29
42 -11 22 -21 32 -25 24z"/>
<path d="M3140 5482 c0 -16 35 -39 111 -74 46 -22 83 -46 96 -64 20 -29 25
-41 37 -97 10 -45 29 -21 22 27 -11 69 -47 111 -123 146 -37 17 -85 40 -105
51 -21 11 -38 16 -38 11z"/>
<path d="M3210 5366 c0 -4 20 -15 45 -26 37 -16 49 -28 64 -62 15 -33 20 -39
26 -26 8 21 -18 79 -44 95 -22 14 -91 28 -91 19z"/>
<path d="M4795 6002 c-59 -12 -86 -91 -45 -132 53 -53 123 -26 128 50 5 60
-29 93 -83 82z m43 -80 c-2 -20 -9 -28 -27 -30 -38 -6 -54 33 -25 62 23 24 56
3 52 -32z"/>
<path d="M4363 5875 c-36 -16 -53 -42 -53 -83 0 -24 -5 -31 -26 -36 -44 -12
-74 -50 -74 -97 0 -54 27 -110 60 -122 21 -8 27 -17 28 -39 2 -69 71 -117 142
-98 22 6 46 21 55 33 12 17 25 22 62 22 42 0 49 3 70 34 27 39 31 105 8 137
-11 17 -12 27 -3 51 15 39 3 79 -33 116 -26 26 -35 29 -70 24 -36 -5 -41 -3
-54 24 -25 48 -57 58 -112 34z m65 -47 c7 -7 12 -29 12 -49 0 -44 14 -57 38
-36 33 29 60 30 87 3 32 -32 32 -49 0 -79 l-25 -23 30 -29 c29 -28 38 -63 24
-99 -7 -18 -59 -22 -69 -6 -11 18 -40 11 -50 -12 -6 -12 -22 -30 -36 -40 -22
-16 -29 -17 -52 -7 -29 13 -39 36 -35 83 3 24 -1 29 -21 31 -32 3 -71 49 -71
85 0 37 32 60 82 60 42 0 44 6 26 56 -10 29 -9 36 7 54 21 23 36 25 53 8z"/>
<path d="M4392 5667 c-12 -13 -22 -33 -22 -44 0 -32 47 -83 76 -83 30 0 74 41
74 70 0 24 -18 61 -34 72 -23 16 -73 8 -94 -15z m76 -49 c-4 -28 -21 -33 -42
-13 -20 21 -12 35 20 35 20 0 25 -4 22 -22z"/>
<path d="M4535 5850 c-3 -6 4 -10 17 -10 36 0 88 -37 104 -75 11 -26 12 -45 5
-77 -11 -49 -6 -61 15 -34 34 48 7 152 -51 190 -27 18 -80 21 -90 6z"/>
<path d="M5154 5775 c-12 -8 -27 -27 -33 -44 -10 -22 -22 -31 -56 -40 -25 -6
-51 -21 -59 -33 -20 -28 -21 -98 -2 -123 10 -13 10 -25 3 -45 -23 -61 23 -124
86 -118 28 3 38 0 43 -14 8 -27 54 -58 86 -58 36 0 78 40 78 75 0 21 5 25 28
25 42 0 65 31 69 93 5 62 -9 93 -57 125 -19 13 -34 30 -32 38 2 7 -2 32 -8 54
-18 66 -96 101 -146 65z m91 -55 c12 -14 16 -27 11 -47 -15 -59 -12 -67 29
-88 52 -27 73 -64 59 -102 -8 -25 -15 -28 -58 -31 l-48 -3 6 -33 c9 -45 -1
-66 -30 -66 -25 0 -37 18 -48 73 -7 30 -27 35 -46 11 -8 -8 -25 -14 -39 -12
-40 5 -40 42 -1 78 35 32 32 50 -6 50 -28 0 -39 19 -30 55 8 31 51 54 68 37 7
-7 20 -12 30 -12 15 0 18 8 18 45 0 31 5 47 18 54 26 16 47 13 67 -9z"/>
<path d="M5150 5580 c-59 -59 26 -154 87 -96 7 6 15 25 19 42 12 60 -63 97
-106 54z m60 -50 c0 -11 -7 -20 -15 -20 -8 0 -15 9 -15 20 0 11 7 20 15 20 8
0 15 -9 15 -20z"/>
<path d="M4670 5573 c0 -87 -34 -143 -87 -143 -13 0 -23 -4 -23 -10 0 -13 56
-13 81 0 10 6 26 24 34 40 17 33 20 135 5 145 -6 4 -10 -9 -10 -32z"/>
<path d="M3981 5549 c-21 -8 -41 -45 -41 -75 0 -8 11 -26 25 -39 34 -35 86
-34 114 1 28 35 26 60 -4 88 -29 27 -63 36 -94 25z m57 -51 c25 -25 2 -55 -33
-42 -18 7 -20 40 -2 47 19 8 22 8 35 -5z"/>
<path d="M5428 5534 c-3 -2 -3 -24 -1 -47 4 -33 0 -48 -17 -69 -12 -16 -28
-28 -36 -28 -8 0 -14 -4 -14 -10 0 -15 33 -12 57 5 28 19 46 77 38 115 -7 30
-18 44 -27 34z"/>
<path d="M5554 5388 c8 -18 37 -82 64 -143 27 -60 71 -177 97 -260 27 -82 52
-154 58 -160 18 -19 -4 88 -44 210 -40 124 -162 385 -179 385 -6 0 -4 -14 4
-32z"/>
<path d="M4144 5345 c-18 -14 -16 -15 27 -9 77 10 129 -28 129 -95 0 -38 17
-50 26 -17 9 39 -14 95 -50 117 -37 23 -105 25 -132 4z"/>
<path d="M5306 5327 c-14 -35 -58 -67 -92 -67 -10 0 -37 20 -61 45 -33 35 -43
41 -43 27 0 -26 35 -69 71 -87 31 -17 68 -12 108 14 29 19 57 79 42 94 -6 6
-15 -2 -25 -26z"/>
<path d="M4509 5282 c-63 -56 -33 -154 49 -160 57 -4 92 29 92 88 0 43 -33 90
-64 90 -8 0 -21 3 -29 6 -9 3 -29 -7 -48 -24z m76 -52 c29 -32 -6 -78 -40 -50
-18 15 -20 56 -2 63 20 9 23 8 42 -13z"/>
<path d="M5571 5218 c22 -51 56 -142 76 -203 38 -118 53 -146 53 -101 0 67
-127 383 -158 394 -6 2 7 -39 29 -90z"/>
<path d="M5515 5205 c4 -11 24 -71 44 -132 41 -125 57 -151 48 -82 -8 59 -52
177 -78 209 -17 20 -20 21 -14 5z"/>
<path d="M4320 5175 c0 -2 11 -15 25 -29 32 -32 35 -105 5 -154 -24 -39 -24
-42 -6 -42 8 0 24 19 35 43 33 68 25 141 -18 174 -16 12 -41 17 -41 8z"/>
<path d="M5247 5159 c-11 -6 -25 -26 -33 -45 -43 -103 105 -184 173 -95 21 27
16 87 -10 116 -26 30 -99 44 -130 24z m91 -51 c7 -7 12 -21 12 -33 0 -12 -5
-26 -12 -33 -7 -7 -21 -12 -33 -12 -12 0 -26 5 -33 12 -7 7 -12 21 -12 33 0
12 5 26 12 33 7 7 21 12 33 12 12 0 26 -5 33 -12z"/>
<path d="M4835 5130 c-3 -5 -5 -10 -3 -11 2 0 14 -2 28 -5 24 -4 41 -19 67
-60 11 -18 12 -17 12 7 2 50 -82 105 -104 69z"/>
<path d="M4740 5073 c-33 -23 -49 -44 -50 -65 0 -12 -8 -18 -24 -18 -27 0 -76
-42 -77 -67 -2 -31 3 -57 14 -78 6 -11 9 -38 8 -61 -2 -33 3 -46 27 -72 26
-27 37 -32 79 -32 26 0 57 -7 67 -15 11 -8 37 -15 58 -15 48 0 88 35 88 78 0
20 9 35 30 50 32 24 47 73 36 118 -8 31 -50 72 -78 76 -15 2 -22 12 -24 33 -7
67 -97 107 -154 68z m84 -46 c18 -13 19 -35 5 -87 -3 -11 8 -16 44 -20 52 -6
67 -20 67 -60 0 -32 -17 -50 -47 -50 -24 0 -25 -2 -27 -59 -1 -20 -8 -38 -18
-45 -15 -9 -23 -6 -43 16 -22 24 -27 25 -54 15 -22 -8 -36 -8 -55 1 -32 14
-46 60 -22 77 22 17 20 30 -9 49 -45 30 -25 79 32 74 40 -3 54 8 47 38 -4 17
-1 31 11 44 21 23 44 25 69 7z"/>
<path d="M4725 4895 c-33 -32 -31 -60 4 -96 16 -16 39 -29 51 -29 29 0 70 44
70 75 0 14 -11 37 -25 50 -13 14 -36 25 -50 25 -14 0 -37 -11 -50 -25z m73
-53 c3 -20 0 -23 -20 -20 -15 2 -24 11 -26 26 -3 20 0 23 20 20 15 -2 24 -11
26 -26z"/>
<path d="M4954 4997 c38 -23 55 -46 66 -86 12 -46 30 -55 30 -16 0 54 -51 116
-95 114 -19 0 -19 0 -1 -12z"/>
<path d="M5503 4870 c-13 -5 -31 -22 -40 -37 -11 -17 -25 -27 -35 -25 -26 5
-76 -26 -93 -58 -20 -38 -19 -90 1 -119 13 -18 14 -28 5 -47 -21 -47 -14 -80
25 -114 32 -28 42 -31 88 -29 39 2 59 -2 86 -19 75 -47 136 -15 133 70 -2 32
3 44 30 68 28 25 32 34 30 75 -2 55 -25 94 -64 108 -24 9 -29 17 -29 44 0 63
-76 109 -137 83z m77 -54 c6 -8 10 -34 8 -57 -3 -40 -1 -43 29 -51 57 -15 84
-88 41 -109 -46 -23 -53 -28 -48 -41 2 -7 4 -33 5 -58 0 -35 -4 -45 -18 -48
-27 -5 -57 27 -57 60 0 35 -13 35 -52 3 -35 -30 -69 -32 -92 -6 -19 21 -16 47
10 88 13 21 12 25 -11 45 -29 25 -33 68 -9 92 18 19 55 21 71 5 22 -22 44 -2
41 36 -2 39 12 55 48 55 12 0 27 -6 34 -14z"/>
<path d="M5472 4703 c-37 -15 -31 -102 8 -123 47 -25 100 6 100 60 0 52 -55
84 -108 63z m58 -43 c11 -7 12 -14 4 -27 -15 -24 -33 -28 -40 -9 -7 18 1 46
13 46 4 0 15 -5 23 -10z"/>
<path d="M5280 4731 c-13 -25 -13 -82 0 -115 17 -46 25 -28 25 54 0 81 -6 96
-25 61z"/>
<path d="M5297 4544 c-12 -12 -8 -64 8 -94 24 -46 95 -75 95 -39 0 5 -6 9 -14
9 -27 0 -58 37 -70 83 -7 26 -15 44 -19 41z"/>
<path d="M5140 4490 c-45 -45 -6 -130 60 -130 32 0 70 30 70 55 0 9 -7 29 -15
45 -27 52 -80 65 -115 30z m80 -66 c0 -17 -21 -23 -42 -12 -21 10 -23 29 -6
46 9 9 16 8 30 -5 10 -9 18 -22 18 -29z"/>
<path d="M5770 4408 c-26 -28 -26 -68 1 -102 23 -29 47 -33 88 -11 48 24 55
72 16 110 -31 32 -77 33 -105 3z m70 -48 c0 -27 -21 -36 -36 -15 -10 13 -11
22 -3 31 14 17 39 6 39 -16z"/>
<path d="M4980 4412 c0 -6 14 -13 31 -17 21 -5 35 -17 46 -41 9 -19 20 -34 25
-34 16 0 7 40 -14 64 -24 27 -88 47 -88 28z"/>
<path d="M5100 4310 c0 -5 11 -10 25 -10 33 0 48 -32 43 -91 -6 -59 17 -70 28
-14 7 41 -2 83 -23 108 -17 18 -73 24 -73 7z"/>
<path d="M1724 5857 c44 -27 106 -91 106 -109 0 -10 -7 -33 -16 -49 -14 -29
-14 -31 3 -27 11 2 24 20 32 45 14 40 14 42 -13 78 -32 42 -82 75 -111 74 -20
0 -20 0 -1 -12z"/>
<path d="M1730 5795 c0 -3 9 -14 20 -25 11 -11 20 -29 20 -40 0 -21 15 -27 25
-10 10 16 -18 62 -42 71 -13 5 -23 6 -23 4z"/>
<path d="M2160 5450 c-126 -23 -281 -97 -370 -177 -69 -62 -46 -68 31 -8 107
84 269 153 402 170 26 3 47 10 47 16 0 11 -46 10 -110 -1z"/>
<path d="M2073 5366 c-72 -27 -147 -73 -188 -116 -36 -38 -20 -39 31 -2 67 49
129 82 210 112 68 25 74 29 44 29 -19 0 -63 -10 -97 -23z"/>
<path d="M2086 5293 c-48 -14 -128 -62 -141 -84 -16 -25 8 -18 64 18 32 22 80
46 105 54 25 7 46 17 46 21 0 11 -17 9 -74 -9z"/>
<path d="M2721 5205 c-18 -13 -55 -29 -82 -35 -46 -11 -57 -19 -43 -33 18 -18
174 54 174 81 0 17 -10 15 -49 -13z"/>
<path d="M2746 5161 c-3 -5 -30 -17 -59 -26 -57 -19 -74 -30 -59 -39 25 -15
148 51 130 70 -3 3 -9 1 -12 -5z"/>
<path d="M1686 5120 c-84 -42 -124 -112 -112 -196 13 -95 72 -148 167 -149
100 0 155 66 153 185 -3 144 -96 216 -208 160z m131 -79 c17 -25 23 -48 23
-88 0 -49 -4 -59 -34 -89 -72 -72 -176 -24 -176 82 0 75 57 136 125 131 32 -2
43 -8 62 -36z"/>
<path d="M1540 4873 c0 -43 81 -143 114 -143 18 0 16 5 -16 36 -21 19 -49 55
-64 80 -28 48 -34 53 -34 27z"/>
<path d="M1530 4800 c0 -32 56 -100 82 -100 17 0 6 18 -37 63 -25 26 -45 43
-45 37z"/>
<path d="M2497 4644 c-29 -59 -49 -138 -40 -161 8 -21 23 -5 23 25 0 15 13 64
29 110 16 45 26 82 22 82 -4 0 -19 -25 -34 -56z"/>
<path d="M2425 4595 c-17 -59 -17 -86 1 -92 7 -2 13 17 16 54 3 32 9 66 13 76
4 10 3 17 -4 17 -6 0 -18 -25 -26 -55z"/>
<path d="M1925 4232 c-147 -80 -119 -296 44 -351 79 -26 139 -2 181 71 20 34
25 57 24 108 -1 77 -16 112 -73 163 -52 47 -102 50 -176 9z m117 -32 c60 -17
96 -94 79 -171 -19 -86 -89 -119 -168 -80 -95 46 -96 175 -3 239 38 25 41 26
92 12z"/>
<path d="M1348 4203 c-10 -27 -33 -67 -53 -90 -19 -23 -35 -44 -35 -47 0 -13
19 -4 45 21 38 39 67 99 63 135 -3 28 -4 27 -20 -19z"/>
<path d="M1384 4164 c-4 -10 -21 -38 -37 -62 -16 -24 -26 -46 -22 -50 11 -10
63 57 71 90 7 34 -2 50 -12 22z"/>
<path d="M2207 4051 c-3 -33 -12 -74 -21 -92 -18 -36 -21 -59 -7 -59 29 0 68
177 44 201 -7 7 -12 -11 -16 -50z"/>
<path d="M2241 3984 c-25 -81 -23 -102 5 -59 15 23 34 135 23 135 -3 0 -15
-34 -28 -76z"/>
<path d="M1340 3498 c-148 -75 -145 -311 5 -379 81 -37 165 -14 215 58 22 32
25 47 25 129 0 88 -1 94 -31 131 -33 42 -104 83 -144 83 -14 0 -46 -10 -70
-22z m125 -58 c43 -27 64 -60 71 -114 13 -91 -41 -166 -118 -166 -32 0 -46 6
-70 33 -60 63 -73 135 -37 193 45 73 95 90 154 54z"/>
<path d="M2140 3494 c-44 -37 -76 -104 -50 -104 5 0 19 18 30 39 10 22 31 48
45 59 14 11 25 23 25 26 0 13 -20 5 -50 -20z"/>
<path d="M1038 3484 c-5 -4 -8 -52 -8 -107 0 -178 47 -420 109 -568 34 -79 46
-97 58 -86 4 4 -4 31 -16 60 -74 165 -125 414 -134 650 -1 33 -5 55 -9 51z"/>
<path d="M2224 3476 c-45 -20 -115 -85 -131 -123 -16 -40 -16 -43 0 -43 6 0
22 19 35 43 20 37 40 55 137 122 27 19 1 19 -41 1z"/>
<path d="M1625 3328 c0 -35 -4 -85 -9 -113 -8 -47 -7 -49 9 -34 19 19 31 117
21 173 -11 56 -22 42 -21 -26z"/>
<path d="M1677 3277 c-3 -34 -8 -70 -12 -79 -4 -11 -3 -18 4 -18 17 0 31 45
31 100 0 72 -16 70 -23 -3z"/>
<path d="M1100 3273 c0 -58 37 -271 60 -345 18 -58 59 -129 60 -104 0 5 -13
50 -29 100 -27 85 -71 309 -71 362 0 13 -4 24 -10 24 -5 0 -10 -17 -10 -37z"/>
<path d="M1189 3156 c-19 -19 35 -206 60 -206 10 0 8 9 -22 100 -8 25 -19 60
-23 78 -5 19 -12 31 -15 28z"/>
<path d="M1912 2596 c-48 -55 -67 -156 -42 -222 16 -42 25 -19 21 59 -2 64 1
78 28 131 17 32 30 61 28 63 -3 2 -18 -12 -35 -31z"/>
<path d="M1853 2598 c-37 -47 -55 -176 -26 -185 8 -3 11 13 11 49 0 29 7 73
16 97 17 46 16 61 -1 39z"/>
<path d="M1480 2584 c0 -6 15 -37 34 -69 19 -31 38 -70 41 -86 4 -16 11 -29
16 -29 15 0 10 42 -10 85 -21 44 -80 117 -81 99z"/>
<path d="M1540 2575 c0 -2 9 -24 19 -47 11 -24 22 -51 25 -60 3 -10 11 -18 17
-18 17 0 3 58 -24 97 -19 29 -37 42 -37 28z"/>
<path d="M1551 5250 c20 -38 39 -45 39 -15 0 15 -38 55 -52 55 -4 0 2 -18 13
-40z"/>
<path d="M1532 5221 c2 -14 9 -26 16 -29 17 -5 15 10 -3 34 -15 18 -15 18 -13
-5z"/>
<path d="M3922 5108 c-6 -7 -22 -39 -36 -71 -14 -32 -37 -72 -51 -89 -35 -41
-32 -68 16 -119 23 -24 48 -60 56 -79 19 -44 52 -80 74 -80 16 0 26 19 49 92
7 23 29 53 56 77 27 23 44 47 44 60 0 13 -27 52 -67 95 -38 41 -76 85 -86 100
-19 28 -39 33 -55 14z m113 -167 l40 -43 -23 -18 c-12 -10 -37 -41 -56 -70
l-34 -51 -26 45 c-14 24 -37 54 -52 65 l-25 20 25 38 c13 21 32 58 42 81 l17
44 26 -34 c14 -18 44 -53 66 -77z"/>
<path d="M3959 4898 c9 -25 31 -36 31 -16 0 15 -19 38 -32 38 -4 0 -4 -10 1
-22z"/>
<path d="M3920 4901 c0 -17 22 -71 29 -71 18 0 19 14 4 46 -16 32 -33 45 -33
25z"/>
<path d="M3361 5045 c-29 -36 -59 -65 -66 -65 -19 0 -65 -40 -65 -56 0 -8 15
-37 34 -64 31 -45 58 -105 81 -178 7 -23 6 -23 -18 -8 -29 20 -67 9 -91 -26
-21 -30 -20 -56 4 -95 16 -27 26 -33 53 -33 58 0 105 68 78 112 -11 18 -10 19
9 13 17 -5 36 9 103 77 46 45 95 91 111 102 23 15 26 23 21 45 -3 14 -17 37
-31 51 -13 14 -43 62 -66 105 -38 71 -46 80 -73 82 -26 2 -37 -7 -84 -62z
m138 -83 c34 -51 61 -96 61 -100 0 -4 -19 -19 -43 -34 -23 -15 -58 -47 -77
-72 -19 -25 -38 -45 -41 -46 -4 0 -17 24 -29 53 -12 28 -35 73 -51 99 l-30 46
73 74 c40 40 74 73 75 73 1 0 29 -42 62 -93z m-174 -338 c14 -14 14 -19 2 -38
-20 -29 -43 -32 -57 -6 -25 46 18 80 55 44z"/>
<path d="M3350 4896 c0 -13 40 -95 49 -100 18 -12 12 24 -11 65 -18 33 -38 51
-38 35z"/>
<path d="M3405 4875 c3 -16 13 -37 21 -45 23 -24 18 20 -7 50 l-21 25 7 -30z"/>
<path d="M3031 4721 c-60 -28 -63 -100 -5 -137 25 -17 28 -17 62 2 49 26 64
73 36 111 -28 37 -53 44 -93 24z m54 -66 c0 -25 -4 -30 -25 -30 -16 0 -26 6
-28 18 -6 30 6 49 30 45 18 -2 23 -9 23 -33z"/>
<path d="M4280 4670 c-28 -28 -26 -75 5 -105 50 -51 134 -17 121 48 -14 68
-83 100 -126 57z m68 -32 c30 -30 -1 -74 -33 -48 -22 18 -19 60 3 60 10 0 23
-5 30 -12z"/>
<path d="M4023 4643 c-48 -42 -52 -75 -14 -114 28 -27 37 -31 69 -26 47 8 82
47 82 91 0 40 -25 65 -71 72 -27 4 -41 -1 -66 -23z m92 -33 c11 -18 -6 -51
-33 -61 -22 -9 -30 -7 -44 11 -26 32 -8 60 37 60 18 0 37 -5 40 -10z"/>
<path d="M3496 4618 c-24 -34 -20 -85 9 -113 70 -71 173 37 105 110 -31 33
-92 35 -114 3z m84 -33 c20 -25 8 -50 -25 -50 -31 0 -43 20 -31 51 7 18 40 18
56 -1z"/>
<path d="M3762 4624 c-48 -34 -10 -136 51 -136 76 0 105 77 46 126 -35 30 -65
33 -97 10z m73 -44 c20 -23 14 -50 -13 -50 -25 0 -42 19 -42 47 0 29 30 31 55
3z"/>
<path d="M2957 4613 c-8 -12 24 -76 41 -81 8 -2 10 2 5 15 -13 36 -41 75 -46
66z"/>
<path d="M2930 4580 c0 -18 30 -70 40 -70 13 0 13 4 -7 45 -16 34 -33 46 -33
25z"/>
<path d="M4412 4565 c-14 -31 -16 -58 -3 -51 5 4 11 0 14 -6 2 -7 12 2 21 20
18 34 13 59 -5 32 -8 -12 -10 -10 -6 8 7 30 -7 28 -21 -3z"/>
<path d="M3200 4536 c0 -27 39 -82 40 -55 0 16 -28 79 -36 79 -2 0 -4 -11 -4
-24z"/>
<path d="M3170 4519 c0 -9 9 -27 20 -40 26 -32 27 -3 0 31 -15 19 -20 21 -20
9z"/>
<path d="M3455 4520 c-8 -12 20 -60 35 -60 6 0 3 15 -6 33 -21 41 -21 40 -29
27z"/>
<path d="M3720 4511 c0 -22 35 -69 45 -60 5 6 -32 79 -41 79 -2 0 -4 -9 -4
-19z"/>
<path d="M3420 4508 c0 -4 5 -18 11 -32 12 -25 39 -43 39 -26 0 11 -49 68 -50
58z"/>
<path d="M4000 4499 c0 -19 37 -55 47 -45 4 3 -5 19 -20 34 -20 19 -27 22 -27
11z"/>
<path d="M3695 4473 c7 -31 31 -60 41 -50 6 6 -33 77 -43 77 -3 0 -2 -12 2
-27z"/>
<path d="M3995 4450 c9 -16 22 -30 31 -30 16 0 12 12 -14 43 -24 27 -34 20
-17 -13z"/>
<path d="M2953 4414 c-21 -25 -61 -61 -89 -79 -29 -19 -54 -42 -58 -50 -5 -14
17 -81 60 -182 17 -40 42 -42 74 -8 13 14 43 37 68 51 51 30 62 53 51 108 -5
23 -8 69 -9 104 0 113 -34 132 -97 56z m60 -181 c3 -5 -16 -27 -43 -47 -28
-21 -50 -42 -50 -48 0 -5 -4 -6 -10 -3 -5 3 -10 13 -10 21 0 8 -11 36 -24 63
l-24 50 38 25 c21 14 53 43 71 65 l34 40 6 -78 c3 -43 9 -83 12 -88z"/>
<path d="M2928 4264 c-9 -8 12 -64 23 -64 5 0 9 6 9 13 -1 19 -25 58 -32 51z"/>
<path d="M2890 4244 c0 -23 20 -55 30 -49 6 4 4 18 -5 36 -17 32 -25 37 -25
13z"/>
<path d="M4306 4452 c-3 -5 -8 -33 -12 -63 -4 -30 -15 -76 -25 -102 -24 -61
-24 -80 2 -103 12 -10 37 -43 55 -71 45 -71 68 -71 89 -2 8 29 29 74 46 100
33 52 32 59 -13 98 -16 13 -35 36 -44 52 -17 34 -73 99 -84 99 -5 0 -11 -4
-14 -8z m100 -168 c27 -29 29 -34 16 -51 -8 -10 -22 -35 -31 -55 l-17 -37 -35
47 c-33 44 -35 49 -23 77 7 17 14 48 14 70 l1 40 22 -30 c12 -16 36 -44 53
-61z"/>
<path d="M4366 4238 c6 -20 5 -21 -10 -9 -13 11 -16 11 -16 0 0 -16 17 -46 22
-39 25 39 28 70 6 70 -5 0 -6 -10 -2 -22z"/>
<path d="M3921 4416 c-6 -7 -22 -39 -36 -71 -15 -32 -39 -74 -56 -94 -16 -19
-29 -43 -29 -52 0 -9 20 -39 44 -65 24 -27 52 -67 64 -89 25 -49 56 -79 76
-72 8 3 22 32 31 64 13 46 27 67 67 105 62 57 60 76 -10 140 -26 23 -62 64
-80 89 -35 51 -55 64 -71 45z m42 -93 c12 -16 41 -49 64 -74 l43 -46 -31 -29
c-17 -16 -40 -46 -52 -66 -11 -21 -23 -38 -27 -38 -3 0 -14 14 -24 31 -10 17
-31 45 -46 63 l-28 32 36 76 c20 42 39 77 41 77 2 1 13 -11 24 -26z"/>
<path d="M3950 4217 c0 -7 7 -22 15 -33 12 -16 14 -17 15 -2 0 23 -11 48 -21
48 -5 0 -9 -6 -9 -13z"/>
<path d="M3910 4215 c0 -17 31 -75 39 -75 15 0 14 16 -4 50 -13 26 -35 41 -35
25z"/>
<path d="M3368 4359 c-29 -33 -70 -69 -90 -80 -61 -31 -64 -48 -18 -115 22
-33 47 -81 56 -109 44 -132 60 -135 164 -27 41 42 88 85 103 95 37 25 35 56
-10 109 -20 23 -47 68 -61 98 -50 110 -70 114 -144 29z m129 -97 c56 -87 61
-98 45 -107 -9 -5 -47 -40 -84 -77 l-68 -67 -34 75 c-19 41 -44 87 -55 102
l-19 28 47 39 c27 22 59 55 72 72 13 18 26 32 29 32 3 0 33 -44 67 -97z"/>
<path d="M3350 4196 c0 -20 28 -84 40 -91 17 -10 11 23 -10 65 -21 42 -30 49
-30 26z"/>
<path d="M3397 4203 c-8 -13 22 -75 33 -68 6 4 4 18 -6 38 -20 40 -21 40 -27
30z"/>
<path d="M2645 4045 c-19 -18 -25 -35 -25 -70 0 -88 81 -127 134 -64 53 63 20
159 -54 159 -19 0 -40 -9 -55 -25z m79 -38 c17 -27 -4 -72 -34 -72 -22 0 -25
4 -23 33 2 55 33 77 57 39z"/>
<path d="M2925 3988 c-30 -17 -44 -40 -45 -71 0 -39 15 -64 50 -82 40 -21 54
-19 89 11 43 36 42 75 -3 120 -36 36 -58 41 -91 22z m67 -55 c22 -20 23 -36 3
-53 -22 -18 -64 -4 -71 25 -3 13 -3 29 1 34 10 16 46 13 67 -6z"/>
<path d="M3179 3911 c-16 -16 -29 -37 -29 -46 0 -25 28 -73 49 -85 58 -30 131
9 131 70 0 43 -47 90 -90 90 -22 0 -41 -9 -61 -29z m92 -30 c21 -16 22 -22 11
-45 -12 -28 -31 -32 -63 -16 -21 12 -25 50 -7 68 17 17 32 15 59 -7z"/>
<path d="M4361 3921 c-33 -33 -28 -86 10 -122 57 -53 129 -27 129 45 0 73 -92
124 -139 77z m77 -43 c16 -16 15 -55 -2 -61 -19 -7 -60 38 -53 57 7 19 38 21
55 4z"/>
<path d="M2610 3895 c0 -25 23 -65 37 -65 17 0 17 3 -8 44 -23 39 -29 44 -29
21z"/>
<path d="M3476 3889 c-35 -28 -37 -95 -3 -127 50 -47 137 -14 137 52 0 82 -73
123 -134 75z m83 -53 c29 -34 -16 -71 -49 -41 -22 20 -26 45 -8 63 12 12 36 3
57 -22z"/>
<path d="M4065 3885 c-52 -51 -18 -145 51 -145 48 0 70 14 83 52 14 39 -1 93
-29 108 -33 18 -79 11 -105 -15z m93 -53 c4 -26 -13 -52 -34 -52 -18 0 -39 44
-30 65 10 26 60 16 64 -13z"/>
<path d="M3760 3860 c-26 -26 -26 -80 1 -114 37 -47 110 -27 132 36 9 24 -11
76 -33 88 -31 16 -79 11 -100 -10z m90 -61 c0 -24 -15 -32 -39 -20 -22 12 -33
45 -18 60 14 14 57 -16 57 -40z"/>
<path d="M2590 3854 c0 -24 25 -62 35 -52 4 4 -2 22 -14 40 -17 27 -21 29 -21
12z"/>
<path d="M3046 3826 c-30 -39 -31 -46 -13 -46 15 0 55 66 45 75 -3 3 -17 -10
-32 -29z"/>
<path d="M4511 3814 c-12 -27 -7 -45 8 -28 14 14 23 54 13 54 -5 0 -14 -12
-21 -26z"/>
<path d="M4740 3819 c-13 -24 -4 -41 10 -19 10 16 13 40 5 40 -2 0 -9 -9 -15
-21z"/>
<path d="M4546 3814 c-11 -28 -6 -39 9 -20 8 11 15 23 15 28 0 14 -18 9 -24
-8z"/>
<path d="M3079 3803 c-27 -31 -31 -43 -15 -43 17 0 39 35 34 51 -2 6 -11 2
-19 -8z"/>
<path d="M3354 3798 c-4 -7 -14 -23 -22 -35 -13 -20 -12 -23 1 -23 8 0 20 14
27 30 13 31 8 52 -6 28z"/>
<path d="M4216 3772 c-11 -23 -17 -45 -13 -48 10 -10 39 44 35 68 -3 19 -6 16
-22 -20z"/>
<path d="M4761 3796 c-8 -9 -11 -19 -7 -23 9 -9 29 13 24 27 -2 8 -8 7 -17 -4z"/>
<path d="M3627 3767 c-19 -29 -22 -47 -7 -47 13 0 32 38 28 58 -2 12 -7 10
-21 -11z"/>
<path d="M4252 3763 c-6 -12 -12 -30 -12 -39 0 -17 1 -17 16 -2 9 8 14 26 12
39 l-3 24 -13 -22z"/>
<path d="M3382 3758 c-6 -6 -12 -19 -12 -27 0 -13 2 -13 16 1 9 9 15 21 13 27
-3 9 -8 8 -17 -1z"/>
<path d="M3911 3746 c-8 -13 -11 -30 -9 -38 3 -8 11 -1 21 19 19 36 20 43 9
43 -5 0 -14 -11 -21 -24z"/>
<path d="M4512 3758 c-7 -7 -12 -30 -12 -52 -1 -23 -9 -66 -20 -96 -24 -67
-25 -94 -5 -110 9 -7 32 -39 52 -72 49 -79 67 -76 104 15 15 38 35 77 43 86
25 28 19 55 -21 93 -21 19 -51 56 -66 82 -33 53 -58 71 -75 54z m99 -161 c20
-20 32 -40 27 -43 -6 -4 -20 -28 -32 -55 l-23 -48 -37 45 -38 45 16 40 c9 22
16 54 17 72 l0 32 17 -25 c9 -14 33 -42 53 -63z"/>
<path d="M4570 3557 c0 -19 16 -31 24 -18 3 5 -1 14 -9 21 -12 10 -15 10 -15
-3z"/>
<path d="M4540 3542 c0 -15 28 -47 35 -40 8 8 -13 48 -25 48 -6 0 -10 -4 -10
-8z"/>
<path d="M3651 3734 c-12 -27 -7 -45 8 -28 14 14 23 54 13 54 -5 0 -14 -12
-21 -26z"/>
<path d="M3942 3728 c-14 -14 -16 -38 -3 -38 10 0 26 39 19 46 -2 2 -10 -2
-16 -8z"/>
<path d="M4124 3653 c-17 -79 -28 -112 -50 -154 l-23 -47 25 -38 c14 -21 36
-58 48 -83 31 -66 57 -67 84 -3 12 27 37 68 57 92 19 23 35 46 35 50 0 5 -18
30 -40 55 -22 25 -40 52 -40 59 0 21 -59 96 -75 96 -8 0 -17 -12 -21 -27z m61
-102 c10 -22 28 -50 40 -61 l23 -22 -21 -24 c-12 -14 -29 -38 -38 -54 l-16
-30 -32 51 -31 50 20 39 c11 22 20 51 20 65 0 37 14 31 35 -14z"/>
<path d="M4170 3467 c0 -19 16 -31 24 -18 3 5 -1 14 -9 21 -12 10 -15 10 -15
-3z"/>
<path d="M4140 3454 c0 -15 22 -44 31 -39 11 7 -7 45 -21 45 -6 0 -10 -3 -10
-6z"/>
<path d="M4352 3223 c-11 -10 -23 -32 -27 -49 -5 -27 -1 -35 25 -58 17 -14 37
-26 43 -26 33 1 59 15 73 42 26 51 -6 108 -61 108 -18 0 -42 -8 -53 -17z m68
-48 c16 -20 1 -39 -26 -33 -27 5 -32 48 -6 48 11 0 25 -7 32 -15z"/>
<path d="M4090 3200 c-13 -13 -20 -33 -20 -57 0 -44 6 -56 37 -72 32 -16 57
-14 87 10 36 28 35 72 -3 110 -35 34 -72 38 -101 9z m61 -40 c23 -13 25 -38 4
-46 -20 -8 -45 13 -45 37 0 21 12 24 41 9z"/>
<path d="M4221 3085 c-26 -45 -27 -64 -2 -41 19 17 36 64 28 73 -3 2 -14 -12
-26 -32z"/>
<path d="M4453 3078 c-12 -18 -20 -34 -18 -37 8 -7 43 29 48 50 8 28 -5 23
-30 -13z"/>
<path d="M4247 3067 c-20 -31 -24 -58 -5 -39 7 7 15 12 18 12 10 0 -8 -102
-25 -143 -22 -53 -19 -75 18 -117 17 -21 41 -53 52 -72 30 -50 54 -44 76 19 9
28 29 69 43 90 33 49 33 69 -3 99 -17 14 -40 42 -52 62 -29 48 -69 92 -85 92
-7 0 -14 5 -16 11 -2 7 -12 0 -21 -14z m129 -172 l30 -30 -28 -39 c-15 -21
-28 -45 -28 -52 0 -24 -14 -15 -47 31 -32 42 -32 45 -18 79 8 19 15 50 16 68
l0 33 22 -30 c12 -16 36 -44 53 -60z"/>
<path d="M4332 2858 c2 -6 10 -14 16 -16 7 -2 10 2 6 12 -7 18 -28 22 -22 4z"/>
<path d="M4307 2830 c7 -25 19 -34 28 -20 7 11 -11 40 -25 40 -5 0 -6 -9 -3
-20z"/>
<path d="M4493 3078 c-21 -28 -24 -38 -9 -38 8 0 18 9 21 21 8 25 2 34 -12 17z"/>
<path d="M4320 2517 c0 -17 20 -37 37 -37 21 0 15 16 -12 34 -19 13 -25 13
-25 3z"/>
<path d="M4320 2476 c0 -3 7 -12 16 -20 23 -23 40 -19 19 4 -16 18 -35 26 -35
16z"/>
<path d="M4911 4181 c-27 -27 -28 -82 -3 -104 25 -23 64 -21 89 3 30 27 36 55
21 87 -18 37 -77 44 -107 14z m66 -37 c8 -21 -13 -42 -28 -27 -13 13 -5 43 11
43 6 0 13 -7 17 -16z"/>
<path d="M6105 3910 c-4 -6 21 -10 69 -10 41 0 78 5 81 10 4 6 -21 10 -69 10
-41 0 -78 -4 -81 -10z"/>
<path d="M5080 3890 c0 -13 29 -20 83 -19 36 0 46 3 32 8 -29 12 -115 20 -115
11z"/>
<path d="M6155 3879 c-38 -5 -81 -13 -95 -18 -21 -8 -18 -10 22 -10 62 -1 201
18 213 30 11 11 -41 10 -140 -2z"/>
<path d="M5050 3843 c0 -12 97 -33 152 -33 56 0 46 17 -14 25 -29 3 -72 9 -95
12 -25 3 -43 1 -43 -4z"/>
<path d="M6159 3830 c-87 -10 -177 -23 -200 -28 -42 -9 -40 -10 36 -11 112 -1
335 32 335 50 0 5 -3 8 -7 8 -5 -1 -78 -10 -164 -19z"/>
<path d="M5005 3802 c19 -20 244 -54 307 -47 32 4 58 11 58 15 0 4 -8 6 -18 3
-10 -2 -75 3 -143 12 -202 27 -215 29 -204 17z"/>
<path d="M2706 3603 c9 -37 14 -44 24 -38 11 7 -8 65 -21 65 -5 0 -6 -12 -3
-27z"/>
<path d="M6400 3633 c-14 -3 -29 -9 -34 -14 -17 -15 69 -10 90 6 18 14 18 14
-6 13 -14 0 -36 -3 -50 -5z"/>
<path d="M6396 3584 c-85 -16 -94 -24 -30 -24 54 0 120 16 129 30 8 13 -13 11
-99 -6z"/>
<path d="M4856 3551 c12 -12 106 -31 149 -31 62 0 37 16 -42 28 -94 15 -120
15 -107 3z"/>
<path d="M6415 3535 c-27 -7 -76 -16 -108 -20 -31 -3 -55 -11 -52 -16 15 -23
169 1 233 36 l27 14 -25 0 c-14 -1 -47 -7 -75 -14z"/>
<path d="M6445 3495 c-79 -24 -156 -38 -267 -50 -32 -4 -58 -11 -58 -16 0 -12
76 -11 165 1 80 12 255 67 255 81 0 12 -2 12 -95 -16z"/>
<path d="M4820 3502 c0 -13 142 -42 230 -49 117 -9 74 11 -77 36 -149 24 -153
24 -153 13z"/>
<path d="M4796 3451 c17 -16 268 -53 394 -58 144 -5 148 11 5 21 -49 4 -148
16 -219 27 -142 21 -195 24 -180 10z"/>
<path d="M2730 3273 c0 -15 40 -73 50 -73 11 0 3 24 -20 58 -15 22 -30 29 -30
15z"/>
<path d="M2675 3150 c51 -98 75 -131 75 -100 0 13 -55 122 -86 172 -50 79 -43
34 11 -72z"/>
<path d="M2680 3254 c0 -14 62 -114 71 -114 14 0 11 11 -21 68 -26 45 -50 67
-50 46z"/>
<path d="M3170 3233 c0 -11 44 -73 52 -73 9 0 -1 27 -22 58 -14 21 -30 29 -30
15z"/>
<path d="M3130 3220 c0 -17 27 -65 44 -79 26 -21 20 8 -9 52 -26 38 -35 45
-35 27z"/>
<path d="M3080 3184 c86 -141 110 -171 110 -140 0 20 -101 168 -119 174 -10 3
-7 -8 9 -34z"/>
<path d="M3880 3182 c0 -15 28 -47 35 -40 8 8 -13 48 -25 48 -6 0 -10 -4 -10
-8z"/>
<path d="M3550 3170 c0 -18 57 -90 71 -90 13 0 -2 26 -40 70 -19 22 -30 29
-31 20z"/>
<path d="M3840 3177 c0 -11 57 -94 70 -102 6 -3 10 1 10 10 0 16 -79 107 -80
92z"/>
<path d="M3476 3158 c19 -31 115 -157 124 -163 37 -23 -21 75 -88 148 -26 27
-49 37 -36 15z"/>
<path d="M3600 3163 c0 -6 9 -21 20 -34 15 -18 19 -20 20 -8 0 9 -9 24 -20 34
-11 10 -20 13 -20 8z"/>
<path d="M6595 3065 c-38 -13 -80 -24 -92 -24 -13 -1 -23 -5 -23 -11 0 -15 88
0 158 27 102 41 71 46 -43 8z"/>
<path d="M6680 3038 c-13 -5 -72 -21 -130 -35 -116 -28 -152 -42 -108 -43 60
0 251 51 264 71 9 16 1 18 -26 7z"/>
<path d="M4630 2991 c0 -13 128 -41 186 -41 26 0 45 3 42 6 -4 4 -208 44 -225
44 -2 0 -3 -4 -3 -9z"/>
<path d="M6656 2964 c-38 -13 -120 -35 -183 -49 -119 -27 -163 -40 -163 -50 0
-26 374 70 414 106 20 18 -1 16 -68 -7z"/>
<path d="M4600 2931 c0 -12 16 -17 124 -36 97 -16 216 -20 216 -6 0 5 -35 12
-77 15 -78 7 -184 22 -235 32 -16 3 -28 1 -28 -5z"/>
<path d="M4570 2872 c0 -24 211 -59 408 -69 97 -4 132 -3 132 5 0 7 -8 12 -17
12 -58 0 -361 32 -428 45 -93 18 -95 18 -95 7z"/>
<path d="M2448 3065 c-53 -36 -99 -73 -102 -81 -10 -25 16 -12 120 64 86 61
107 82 86 82 -4 0 -51 -29 -104 -65z"/>
<path d="M2503 3044 c-35 -25 -63 -52 -63 -61 0 -16 14 -7 107 66 31 25 42 41
26 41 -5 0 -36 -21 -70 -46z"/>
<path d="M2892 2997 c-46 -46 -83 -89 -81 -96 2 -6 47 32 99 84 52 52 88 95
81 95 -8 0 -52 -38 -99 -83z"/>
<path d="M3308 2995 c-68 -84 -81 -109 -53 -99 16 6 135 160 135 175 0 21 -19
4 -82 -76z"/>
<path d="M3735 2988 c-69 -99 -68 -98 -50 -98 14 0 115 143 115 163 0 19 -19
0 -65 -65z"/>
<path d="M2534 3005 c-25 -22 -33 -34 -23 -35 9 0 33 16 55 35 25 22 33 34 23
35 -9 0 -33 -16 -55 -35z"/>
<path d="M2955 2980 c-77 -78 -52 -78 28 0 36 34 55 60 47 60 -9 0 -42 -27
-75 -60z"/>
<path d="M3370 2988 c-57 -64 -65 -78 -47 -78 13 0 107 110 107 124 0 15 -19
1 -60 -46z"/>
<path d="M3792 2981 c-22 -27 -28 -42 -20 -47 12 -7 29 12 54 59 21 40 2 33
-34 -12z"/>
<path d="M3010 2955 c-24 -25 -39 -45 -32 -45 14 0 92 68 92 81 0 18 -17 8
-60 -36z"/>
<path d="M3411 2965 c-33 -38 -40 -58 -17 -49 15 6 66 67 66 78 0 15 -21 3
-49 -29z"/>
<path d="M3842 2980 c-19 -31 -13 -47 8 -21 11 13 20 27 20 32 0 16 -15 10
-28 -11z"/>
<path d="M2310 2202 c0 -23 71 -231 80 -237 19 -12 10 35 -25 132 -34 92 -55
133 -55 105z"/>
<path d="M2380 2174 c0 -20 42 -144 50 -149 6 -3 10 0 10 7 0 23 -43 148 -52
148 -4 0 -8 -3 -8 -6z"/>
<path d="M2444 2131 c2 -24 9 -48 15 -54 16 -16 13 32 -5 68 l-14 30 4 -44z"/>
<path d="M4120 2144 c0 -9 77 -119 94 -133 36 -30 11 19 -56 109 -20 27 -38
39 -38 24z"/>
<path d="M4200 2126 c0 -17 50 -79 58 -72 5 6 -44 86 -53 86 -3 0 -5 -6 -5
-14z"/>
<path d="M4260 2132 c0 -19 19 -52 30 -52 16 0 12 16 -10 41 -11 14 -19 18
-20 11z"/>
<path d="M2830 2023 c57 -108 77 -139 86 -131 11 12 -109 228 -127 228 -6 0
13 -44 41 -97z"/>
<path d="M2870 2092 c0 -21 49 -122 59 -122 14 0 -23 98 -44 119 -10 10 -15
11 -15 3z"/>
<path d="M2934 2075 c11 -42 24 -73 35 -80 17 -10 13 23 -9 65 -23 45 -35 52
-26 15z"/>
<path d="M3290 2087 c0 -11 117 -171 140 -192 21 -19 21 -19 11 8 -19 49 -151
210 -151 184z"/>
<path d="M3390 2080 c0 -23 35 -93 53 -109 29 -23 20 8 -18 69 -19 30 -35 48
-35 40z"/>
<path d="M3450 2061 c0 -20 31 -81 41 -81 5 0 2 17 -6 38 -18 42 -35 63 -35
43z"/>
<path d="M3740 2064 c0 -4 18 -38 40 -76 22 -39 40 -74 40 -78 0 -5 5 -12 10
-15 25 -15 6 47 -32 108 -38 59 -58 80 -58 61z"/>
<path d="M3870 2062 c0 -17 32 -72 41 -72 11 0 0 33 -21 60 -11 14 -20 19 -20
12z"/>
<path d="M3820 2052 c0 -19 39 -92 50 -92 12 0 -6 49 -30 80 -11 14 -20 19
-20 12z"/>
<path d="M6700 2719 c-63 -22 -85 -39 -51 -39 28 0 121 39 121 51 0 12 -6 11
-70 -12z"/>
<path d="M6760 2688 c-14 -5 -59 -18 -100 -30 -94 -25 -116 -43 -42 -34 76 10
187 55 171 70 -2 2 -15 -1 -29 -6z"/>
<path d="M6726 2624 c-39 -13 -101 -30 -139 -38 -92 -19 -98 -30 -12 -23 71 5
235 60 235 78 0 12 -4 11 -84 -17z"/>
<path d="M4533 2613 c12 -19 203 -58 212 -43 4 7 -97 34 -174 46 -29 5 -42 4
-38 -3z"/>
<path d="M6716 2564 c-54 -18 -138 -41 -185 -50 -100 -19 -125 -34 -59 -34 86
0 332 76 352 109 10 15 4 14 -108 -25z"/>
<path d="M4520 2562 c0 -11 16 -16 135 -45 80 -20 185 -30 185 -19 0 5 -62 21
-137 36 -76 14 -148 29 -160 32 -14 4 -23 2 -23 -4z"/>
<path d="M4496 2500 c22 -22 296 -70 398 -70 55 0 97 2 94 5 -3 3 -63 12 -134
20 -71 8 -175 24 -232 35 -118 23 -141 25 -126 10z"/>
<path d="M6795 2170 c-11 -5 -53 -19 -92 -31 -40 -12 -73 -26 -73 -31 0 -8 15
-6 95 14 41 10 115 45 115 53 0 7 -22 5 -45 -5z"/>
<path d="M6775 2104 c-22 -8 -78 -24 -125 -36 -95 -23 -122 -38 -69 -38 58 0
259 63 259 81 0 12 -18 10 -65 -7z"/>
<path d="M4466 2061 c18 -16 109 -42 169 -47 79 -7 56 7 -57 35 -93 23 -128
26 -112 12z"/>
<path d="M6786 2044 c-21 -8 -96 -28 -165 -45 -128 -31 -170 -49 -115 -49 68
0 334 81 334 101 0 12 -7 11 -54 -7z"/>
<path d="M4473 1997 c6 -20 219 -77 290 -77 57 0 14 18 -109 44 -67 15 -136
31 -154 36 -23 7 -30 6 -27 -3z"/>
<path d="M6782 1990 c-73 -33 -192 -67 -314 -90 -65 -12 -118 -26 -118 -31 0
-41 446 74 476 122 11 19 -1 18 -44 -1z"/>
<path d="M4466 1931 c13 -14 269 -78 339 -86 33 -3 75 -8 93 -11 17 -3 32 -1
32 4 0 9 -21 14 -200 48 -47 8 -119 24 -162 35 -85 21 -117 24 -102 10z"/>
<path d="M2105 2020 c-79 -81 -103 -117 -62 -93 36 20 172 183 154 183 -2 0
-43 -41 -92 -90z"/>
<path d="M2156 1990 c-47 -50 -65 -90 -24 -54 35 31 87 88 88 97 0 17 -20 4
-64 -43z"/>
<path d="M2572 1930 c-90 -98 -115 -138 -69 -108 24 16 153 161 168 190 22 41
-13 12 -99 -82z"/>
<path d="M4002 1938 c-43 -77 -65 -128 -58 -135 6 -7 41 47 80 124 39 78 40
83 28 83 -5 0 -27 -33 -50 -72z"/>
<path d="M2201 1959 c-43 -42 -49 -59 -13 -40 22 12 67 69 60 76 -2 3 -23 -14
-47 -36z"/>
<path d="M2640 1915 c-69 -69 -77 -105 -9 -39 45 43 83 93 77 99 -2 3 -33 -25
-68 -60z"/>
<path d="M3108 1888 c-74 -84 -84 -98 -68 -98 12 0 77 65 131 133 21 25 26 37
16 37 -8 0 -44 -33 -79 -72z"/>
<path d="M4052 1915 c-24 -50 -27 -65 -12 -65 9 0 29 39 44 88 13 39 -10 23
-32 -23z"/>
<path d="M2700 1895 c-18 -19 -31 -37 -28 -40 7 -7 56 32 68 56 17 30 -3 22
-40 -16z"/>
<path d="M3582 1855 c-68 -85 -87 -139 -24 -69 52 58 95 121 90 134 -2 6 -31
-23 -66 -65z"/>
<path d="M4097 1900 c-19 -27 -22 -50 -7 -50 12 0 32 48 27 63 -2 6 -11 0 -20
-13z"/>
<path d="M3171 1863 c-41 -49 -49 -63 -32 -63 9 0 69 69 85 98 17 30 -16 8
-53 -35z"/>
<path d="M3220 1834 c-12 -19 -20 -37 -17 -40 5 -5 57 58 57 69 0 18 -21 3
-40 -29z"/>
<path d="M3632 1826 c-18 -25 -28 -47 -23 -50 9 -6 36 27 60 72 20 38 -4 24
-37 -22z"/>
<path d="M3678 1813 c-23 -28 -30 -43 -19 -43 12 0 46 48 39 55 -3 3 -12 -3
-20 -12z"/>
<path d="M2356 1208 c5 -7 28 -38 53 -69 26 -31 58 -72 72 -90 37 -47 48 -29
14 23 -33 50 -124 148 -137 148 -5 0 -6 -6 -2 -12z"/>
<path d="M2440 1212 c0 -15 59 -92 70 -92 17 0 11 17 -22 58 -32 40 -48 51
-48 34z"/>
<path d="M2490 1212 c0 -14 40 -62 52 -62 5 0 1 15 -11 32 -20 33 -41 48 -41
30z"/>
<path d="M3030 1146 c0 -14 41 -76 51 -76 5 0 9 4 9 10 0 12 -59 78 -60 66z"/>
<path d="M2900 1128 c0 -17 142 -158 160 -158 15 0 -18 46 -67 90 -84 77 -93
84 -93 68z"/>
<path d="M2980 1132 c0 -12 59 -66 65 -60 7 7 -43 68 -56 68 -5 0 -9 -4 -9 -8z"/>
<path d="M4260 1132 c0 -5 7 -15 15 -22 8 -7 15 -8 15 -2 0 5 -7 15 -15 22 -8
7 -15 8 -15 2z"/>
<path d="M4220 1113 c1 -9 38 -52 63 -72 29 -23 20 5 -14 44 -29 33 -49 44
-49 28z"/>
<path d="M3410 1102 c0 -14 77 -98 84 -91 8 8 -41 77 -64 89 -11 6 -20 7 -20
2z"/>
<path d="M3460 1105 c0 -12 33 -55 41 -55 15 0 10 26 -9 43 -19 17 -32 22 -32
12z"/>
<path d="M3340 1092 c0 -5 10 -17 21 -28 12 -10 49 -52 82 -93 34 -41 63 -69
65 -63 6 18 -18 53 -77 115 -56 59 -91 85 -91 69z"/>
<path d="M3870 1093 c0 -15 48 -68 55 -61 8 8 -32 68 -46 68 -5 0 -9 -3 -9 -7z"/>
<path d="M3920 1094 c0 -15 27 -50 34 -43 4 3 -2 17 -13 30 -11 13 -20 19 -21
13z"/>
<path d="M3810 1083 c0 -15 117 -153 130 -153 6 0 10 5 10 10 0 15 -139 157
-140 143z"/>
<path d="M6720 1733 c-63 -17 -87 -33 -49 -33 34 0 119 29 119 41 0 11 -1 11
-70 -8z"/>
<path d="M4535 1686 c38 -19 130 -39 153 -33 22 5 -72 34 -135 41 -48 6 -48 6
-18 -8z"/>
<path d="M6725 1690 c-16 -5 -56 -14 -87 -20 -56 -11 -79 -30 -37 -30 37 0
156 31 175 45 18 14 18 14 -1 14 -11 -1 -33 -5 -50 -9z"/>
<path d="M4510 1641 c0 -17 155 -61 233 -66 69 -5 71 -4 42 9 -16 9 -39 15
-50 16 -18 0 -165 33 -207 46 -10 3 -18 1 -18 -5z"/>
<path d="M6744 1640 c-11 -4 -61 -16 -110 -25 -117 -22 -142 -38 -49 -31 80 6
186 35 193 54 4 14 -4 14 -34 2z"/>
<path d="M6695 1581 c-33 -10 -120 -28 -193 -41 -72 -13 -132 -27 -132 -31 0
-13 42 -11 150 6 103 17 250 61 250 76 0 11 -3 11 -75 -10z"/>
<path d="M4534 1568 c48 -28 196 -60 301 -65 61 -3 107 -3 104 1 -3 3 -57 13
-120 22 -63 8 -148 24 -191 35 -42 10 -85 19 -95 19 -17 -1 -17 -1 1 -12z"/>
<path d="M6525 1289 c-80 -18 -125 -32 -125 -39 0 -13 186 26 196 41 6 11 -17
10 -71 -2z"/>
<path d="M4710 1261 c28 -16 183 -51 224 -51 62 1 27 15 -93 39 -111 23 -157
27 -131 12z"/>
<path d="M6416 1215 c-59 -13 -111 -27 -114 -30 -24 -24 235 21 263 46 15 14
-32 9 -149 -16z"/>
<path d="M4784 1191 c8 -13 167 -49 251 -57 118 -11 63 11 -97 40 -167 30
-161 29 -154 17z"/>
<path d="M6405 1160 c-49 -10 -135 -26 -190 -34 -55 -9 -104 -21 -109 -26 -32
-32 356 32 400 65 25 19 14 18 -101 -5z"/>
<path d="M4867 1109 c16 -16 218 -48 298 -48 99 2 153 16 65 18 -36 1 -128 10
-205 21 -164 23 -173 24 -158 9z"/>
<path d="M2132 1087 c-73 -62 -103 -97 -83 -97 10 0 181 148 181 156 0 16 -36
-6 -98 -59z"/>
<path d="M2200 1056 c-54 -47 -88 -86 -72 -86 11 0 124 97 135 116 16 27 -12
14 -63 -30z"/>
<path d="M2239 1010 c-30 -27 -48 -49 -41 -50 8 0 37 22 65 50 68 64 47 65
-24 0z"/>
<path d="M2722 956 c-46 -29 -96 -65 -110 -80 l-27 -27 29 11 c27 10 216 138
216 147 0 12 -36 -5 -108 -51z"/>
<path d="M3230 944 c-25 -20 -57 -46 -72 -60 -15 -13 -33 -24 -40 -24 -9 0 -9
-3 -1 -11 9 -9 19 -7 40 6 41 27 133 108 133 117 0 14 -14 8 -60 -28z"/>
<path d="M4073 911 c-40 -37 -73 -71 -73 -74 0 -22 34 2 100 68 93 93 71 98
-27 6z"/>
<path d="M2810 941 c-47 -29 -80 -61 -63 -61 13 0 98 57 113 75 19 23 0 18
-50 -14z"/>
<path d="M3648 887 c-102 -67 -132 -96 -89 -84 24 6 211 138 211 149 0 15 -13
8 -122 -65z"/>
<path d="M3270 910 c-52 -38 -72 -60 -53 -60 16 0 123 82 123 94 0 12 -17 4
-70 -34z"/>
<path d="M4144 911 c-51 -43 -73 -71 -54 -71 16 0 116 97 109 105 -3 3 -28
-12 -55 -34z"/>
<path d="M2858 910 c-50 -31 -67 -50 -46 -50 17 0 98 58 98 71 0 12 1 13 -52
-21z"/>
<path d="M3725 881 c-33 -21 -69 -48 -80 -60 l-19 -22 26 10 c32 12 147 93
148 104 0 13 -14 7 -75 -32z"/>
<path d="M4173 885 c-34 -34 -40 -56 -10 -38 24 13 70 73 57 73 -7 0 -28 -16
-47 -35z"/>
<path d="M3322 881 c-42 -31 -57 -49 -49 -58 7 -7 84 55 91 73 7 19 5 18 -42
-15z"/>
<path d="M3762 850 c-39 -28 -54 -50 -34 -50 12 0 92 63 92 72 0 15 -17 8 -58
-22z"/>
<path d="M5430 911 c-24 -7 -23 -8 12 -14 20 -4 56 -4 80 0 38 6 40 8 18 14
-32 9 -78 9 -110 0z"/>
<path d="M5909 895 c-3 -2 -124 -6 -269 -9 -146 -3 -272 -6 -280 -6 -11 -1 -9
-4 5 -13 14 -9 82 -11 244 -10 216 2 331 14 331 34 0 9 -23 13 -31 4z"/>
</g>
</svg>
