<?xml version="1.0" standalone="no"?>
<!DOCTYPE svg PUBLIC "-//W3C//DTD SVG 20010904//EN"
 "http://www.w3.org/TR/2001/REC-SVG-20010904/DTD/svg10.dtd">
<svg version="1.0" xmlns="http://www.w3.org/2000/svg"
 width="1134.000000pt" height="850.000000pt" viewBox="0 0 1134.000000 850.000000"
 preserveAspectRatio="xMidYMid meet">
<metadata>
Created by potrace 1.16, written by Peter Selinger 2001-2019
</metadata>
<g transform="translate(0.000000,850.000000) scale(0.100000,-0.100000)"
fill="#000000" stroke="none">
<path d="M7870 7450 l0 -450 -442 -2 -443 -3 -3 -431 c-2 -333 -5 -433 -15
-437 -6 -2 -603 -2 -1324 1 l-1313 5 0 428 c0 337 -3 429 -12 429 -7 0 -208 0
-445 0 l-433 0 0 435 0 435 -480 0 -480 0 0 -435 0 -435 475 0 475 0 0 -435 0
-435 -480 0 -480 0 0 -475 0 -475 -445 0 -445 0 0 -445 0 -445 -455 0 -455 0
0 -1370 0 -1370 478 0 477 0 -2 885 -3 885 415 0 415 0 2 -886 3 -886 457 1
c269 1 459 -2 462 -7 3 -5 6 -217 6 -471 l1 -461 949 0 950 0 0 485 0 485
-925 0 -925 0 0 420 0 420 2220 0 2220 0 0 -410 0 -410 -890 0 -890 0 2 -493
3 -492 920 0 920 0 3 473 2 472 480 0 480 0 0 880 0 880 400 0 400 0 0 -890 0
-890 485 0 485 0 0 1400 0 1400 -455 0 -455 0 0 430 0 430 -447 2 -448 3 -3
457 -2 458 -483 0 -482 0 -3 435 -2 435 495 0 495 0 0 460 0 460 -505 0 -505
0 0 -450z m-3580 -2740 l0 -450 -445 0 -445 0 0 450 0 450 445 0 445 0 0 -450z
m3590 5 l0 -445 -410 -1 c-225 -1 -417 -1 -425 -1 -60 0 -55 -44 -55 440 0
241 3 442 7 445 3 4 204 7 445 7 l438 0 0 -445z"/>
</g>
</svg>
