<?xml version="1.0" encoding="UTF-8" standalone="no"?>
<svg
   version="1.0"
   width="383.05542pt"
   height="383.36169pt"
   viewBox="0 0 383.05542 383.36169"
   preserveAspectRatio="xMidYMid meet"
   id="svg128"
   sodipodi:docname="goods.svg"
   inkscape:version="1.1.1 (3bf5ae0d25, 2021-09-20)"
   xmlns:inkscape="http://www.inkscape.org/namespaces/inkscape"
   xmlns:sodipodi="http://sodipodi.sourceforge.net/DTD/sodipodi-0.dtd"
   xmlns="http://www.w3.org/2000/svg"
   xmlns:svg="http://www.w3.org/2000/svg">
  <defs
     id="defs132" />
  <sodipodi:namedview
     id="namedview130"
     pagecolor="#ffffff"
     bordercolor="#666666"
     borderopacity="1.0"
     inkscape:pageshadow="2"
     inkscape:pageopacity="0.0"
     inkscape:pagecheckerboard="0"
     inkscape:document-units="pt"
     showgrid="false"
     fit-margin-top="0"
     fit-margin-left="0"
     fit-margin-right="0"
     fit-margin-bottom="0"
     inkscape:zoom="0.42091837"
     inkscape:cx="565.4303"
     inkscape:cy="441.89091"
     inkscape:window-width="1366"
     inkscape:window-height="719"
     inkscape:window-x="0"
     inkscape:window-y="25"
     inkscape:window-maximized="1"
     inkscape:current-layer="svg128" />
  <metadata
     id="metadata2">
Created by potrace 1.16, written by Peter Selinger 2001-2019
</metadata>
  <g
     id="g1048"
     transform="translate(-66.695919,-65.390983)">
    <path
       d="m 146,65.6 c -32.7,6.2 -56.1,23.5 -70,51.8 -7.7,15.5 -9.4,23 -9.3,41.6 0,17.8 1.5,25.3 8.2,39.5 5,10.6 8.7,16 17.5,25.3 11.9,12.5 25.2,20.6 42.3,25.9 8,2.4 10.2,2.7 25.3,2.7 15.1,0 17.2,-0.3 25.5,-2.8 29.6,-9 51.8,-29.2 62.4,-56.6 4.9,-12.7 6.4,-22.4 5.8,-37.9 -0.4,-10.7 -1,-15.5 -3.1,-22.4 -9.4,-31.5 -33.6,-55.4 -65.7,-64.8 -5.7,-1.6 -10.7,-2.2 -21.9,-2.4 -8,-0.2 -15.6,-0.1 -17,0.1 z m 36.5,6.4 c 30.8,7.9 54.6,31.2 64.2,62.7 2.3,7.8 2.6,10.4 2.7,23.8 0,17.1 -1.7,25.3 -7.9,38.4 -16.4,34.6 -54.2,55.8 -91.2,51.2 C 129.1,245.5 112.3,237.3 97,222 84,209 76.6,195.9 72.4,178.4 c -2.1,-8.6 -2.3,-28.6 -0.5,-36.9 7,-31.6 29.7,-57.4 59.4,-67.6 4.5,-1.5 11.1,-3.3 14.7,-3.8 9.6,-1.5 27.1,-0.6 36.5,1.9 z"
       id="path4"
       style="fill:#000000;stroke:none;stroke-width:0.1" />
    <path
       d="m 109.5,109 c -1,1.6 0.6,9.8 3.1,16.2 3,7.6 9.4,16.4 18.9,25.7 4.1,4.1 7.5,7.8 7.5,8.2 0,1.4 -2.5,2.4 -6.4,2.5 -2.6,0 -4.3,0.7 -5.2,1.9 -1.9,2.6 -1.8,7.4 0.3,9.7 1.5,1.7 1.1,2.3 -7.1,10.5 -10.7,10.6 -11.6,11.9 -11.6,16.1 0,4.6 5.5,10.2 10,10.2 4.7,0 6.7,-1.4 16.3,-11.2 8,-8.3 8.9,-8.9 10.5,-7.5 5.5,4.8 13.9,-0.4 11.7,-7.2 -0.3,-1 0.1,-2.4 1,-3.1 2.3,-1.9 4.5,0.5 4.5,4.9 0,4.4 0.8,5.7 4.2,7 2,0.8 3.4,0.6 6.1,-0.8 l 3.5,-1.8 9.3,9.3 c 10.1,10.1 13.3,11.7 19,9.4 3.9,-1.6 5.9,-4.6 5.9,-8.8 0,-4.8 -1.2,-6.7 -10.8,-16.4 l -8.6,-8.7 1.9,-3.5 c 1.6,-2.9 1.7,-3.9 0.7,-6.1 -1.3,-2.9 -5.5,-4.9 -8.5,-3.9 -1.5,0.5 -4,-1.5 -11.8,-9.2 -5.5,-5.4 -9.9,-10.4 -9.9,-11 0,-1.6 17.9,-18.7 23.1,-22 4.4,-2.8 17.8,-7.6 19.1,-6.8 0.7,0.5 -1.3,8.3 -3.5,13.7 -2.1,4.8 -9,13.7 -16.1,20.7 -5.8,5.7 -6.9,8 -3.7,8 3,0 19.1,-17.6 22.5,-24.5 3.3,-6.9 5.6,-14.6 5.6,-19.3 0,-3 -0.2,-3.2 -3.4,-3.2 -4.8,0 -15.1,3.4 -21.6,7.1 -3,1.8 -10,7.7 -15.7,13.2 l -10.3,10 -11.3,-10.9 C 137,116 130.9,112.1 120.9,109.5 c -6.3,-1.7 -10.5,-1.9 -11.4,-0.5 z m 19.5,8.2 c 5.6,2.6 9.7,6.2 29,25.4 19.1,18.9 22.3,22.6 21.4,24.1 -3.1,5 -3.3,4.9 -25.8,-17.6 -19.5,-19.5 -23.6,-22.8 -23.6,-18.8 0,0.7 9.5,10.7 21.2,22.4 l 21.2,21.2 -2.4,2.6 c -1.3,1.4 -2.7,2.4 -3.2,2.3 -0.4,-0.2 -10.7,-10.2 -22.8,-22.2 -19.6,-19.5 -22.4,-22.7 -25.5,-29 -1.9,-3.9 -3.7,-9 -4.1,-11.3 l -0.6,-4.1 4.3,0.9 c 2.4,0.6 7.3,2.4 10.9,4.1 z m 26.5,60.7 c -1.4,1.4 -2.3,0.8 -8.7,-5.6 -6.3,-6.3 -7,-7.4 -5.8,-8.8 1.2,-1.4 2.1,-0.8 8.7,5.7 6.5,6.4 7.1,7.4 5.8,8.7 z m -12.1,-2 c 6.9,6.9 9.7,10.4 9.3,11.5 -0.9,2.2 -3,2 -5.2,-0.4 -1,-1.1 -2.5,-2 -3.4,-2 -0.8,0 -6.3,4.7 -12.1,10.5 -5.9,5.8 -11.3,10.5 -12.1,10.5 -2.1,0 -5.6,-2.7 -6.1,-4.7 -0.8,-3.1 0.4,-4.9 9.6,-14.3 l 8.9,-9.1 2.7,2.6 c 1.4,1.4 3.1,2.5 3.8,2.5 2.6,0 0.9,-3.7 -3.9,-8.6 -3.4,-3.5 -5,-5.8 -4.6,-6.8 0.4,-0.9 1.2,-1.6 1.9,-1.6 0.8,0 5.8,4.5 11.2,9.9 z m 46.6,-8.1 c 0,1 -2.2,4 -5,6.7 -2.7,2.7 -5,5.5 -5,6.2 0,2.5 3,2.6 5.5,0.3 2.9,-2.7 2.2,-3.2 14.2,8.8 8.7,8.6 9.5,12 3.6,15.1 -3.4,1.7 -5.9,0.1 -16.3,-10.3 -5.2,-5.3 -10.2,-9.6 -11.1,-9.6 -0.9,0 -2.4,0.9 -3.4,2 -2.2,2.4 -4.3,2.6 -5.2,0.4 -0.4,-1.1 2.4,-4.6 9.3,-11.5 9.5,-9.6 13.4,-11.9 13.4,-8.1 z"
       id="path6"
       style="fill:#000000;stroke:none;stroke-width:0.1" />
  </g>
  <g
     id="g1012"
     transform="translate(-310.2952,-65.11988)">
    <path
       d="m 578.9,67 c -33.8,7.6 -60.7,33.3 -70.4,67.1 -3.3,11.4 -3.8,32.5 -1.2,44.6 7.8,34.9 32.8,61.1 68.3,71.4 10.6,3 29.8,3.7 41,1.4 43.2,-8.7 74.2,-44.1 76.6,-87.3 2.7,-47.8 -31.2,-90.6 -77.7,-98.1 -10,-1.6 -27.3,-1.2 -36.6,0.9 z m 43,5 c 26.1,7 48.1,25.4 59,49.2 15.4,33.8 8.9,72.5 -16.7,99.5 -24.5,25.8 -61.1,34.6 -94.9,22.8 -27.4,-9.6 -48.6,-32.7 -57,-62.1 -2.9,-10.3 -3.2,-32.1 -0.5,-42.7 9,-35.9 38.2,-63.1 74,-68.8 8.6,-1.3 27.3,-0.3 36.1,2.1 z"
       id="path22"
       style="fill:#000000;stroke:none;stroke-width:0.1" />
    <path
       d="m 598.2,95.7 c -0.4,0.3 -0.7,3.9 -0.7,7.9 v 7.4 l -9,5.2 -9,5.3 v 5.2 c 0,2.8 0.5,5.5 1,5.8 1.5,1 1.2,5.2 -0.5,5.9 -0.9,0.3 -1.5,1.8 -1.5,3.6 0,4.2 -2.8,4 -3.2,-0.3 l -0.3,-3.2 -6.7,-0.3 -6.7,-0.3 -0.3,3.2 c -0.3,3.6 -2.8,5.3 -2.8,2.1 0,-4.6 -0.9,-5.2 -7.6,-5.2 -7.6,0 -7.7,0.2 -7.2,12.5 l 0.3,7.9 4,2.7 c 2.2,1.5 4,3.6 4.1,4.6 0.1,1 0.2,10.5 0.3,21.1 0.1,19.1 0.1,19.3 2.6,21.7 l 2.4,2.5 h 42.1 42.1 l 2.4,-2.5 c 2.5,-2.4 2.5,-2.4 2.5,-23.4 V 164 l 4,-2.6 4.1,-2.7 -0.3,-10.1 -0.3,-10.1 h -6.5 -6.5 l -0.3,3.2 c -0.2,2 -0.9,3.3 -1.7,3.3 -0.8,0 -1.5,-1.3 -1.7,-3.3 l -0.3,-3.2 h -6.5 -6.5 l -0.3,3.2 c -0.4,4.3 -3.2,4.5 -3.2,0.3 0,-1.8 -0.6,-3.3 -1.5,-3.6 -1.7,-0.7 -2,-4.9 -0.5,-5.9 0.6,-0.3 1,-3 1,-5.8 v -5.2 l -8.7,-5 c -4.7,-2.8 -8.8,-5.5 -9,-6 -0.2,-0.6 2.2,-2.3 5.2,-3.8 3,-1.5 5.5,-3.4 5.5,-4.2 0,-0.8 -2.7,-2.8 -6,-4.5 -6.2,-3.1 -7.2,-3.4 -8.3,-2.3 z m 5.8,5.9 c 1.3,0.5 1.4,0.8 0.3,1.5 -1.9,1.3 -2.8,1.1 -2.8,-0.6 0,-1.7 0.2,-1.8 2.5,-0.9 z m 3.6,18.1 c 6.4,3.7 7.9,5 7.7,6.7 -0.3,2 -0.8,2.1 -15.8,2.1 -15.1,0 -15.5,-0.1 -15.8,-2.1 -0.2,-1.7 1.2,-3 7.5,-6.7 4.3,-2.5 7.9,-4.6 8.1,-4.7 0.1,0 3.9,2.1 8.3,4.7 z m 5.9,15.7 c 0,2.1 -0.6,2.5 -3.2,2.8 l -3.3,0.3 -0.3,10.2 -0.3,10.2 4.1,2.3 4,2.3 v 21.7 21.8 h -3 -3 v -8.6 c 0,-8.1 -0.1,-8.7 -2.9,-11.5 -4.1,-4.1 -9,-4 -12.5,0.2 -2.3,2.8 -2.6,3.9 -2.6,11.5 v 8.4 h -3 -3 v -21.8 -21.8 l 4,-2.3 4.1,-2.3 -0.3,-10.1 -0.3,-10.2 -3.2,-0.3 c -2.7,-0.3 -3.3,-0.7 -3.3,-2.8 V 133 h 14 14 z m -60,8.4 c 0,2.3 3.6,6.2 5.6,6.2 2.8,0 5.2,-1.9 6.2,-5 1.4,-4 4.4,-4 5.9,0 1.6,4.1 5.4,5.8 8.7,3.7 1.3,-0.9 2.6,-2.7 2.8,-3.9 0.2,-1.7 1,-2.3 2.8,-2.3 2.4,0 2.5,0.3 2.8,6.7 0.3,6.2 0.1,6.8 -2.3,8.4 -1.4,0.9 -4,2 -5.8,2.3 -3.7,0.8 -4.8,3.6 -1.7,4.4 2,0.5 2,1 1.8,21.4 l -0.3,20.8 -10.4,0.3 c -6.7,0.2 -10.8,-0.1 -11.7,-0.9 -1.1,-0.9 -1.4,-5.3 -1.4,-21.5 v -20.3 l 5.3,-0.3 c 3.8,-0.2 5.2,-0.7 5.2,-1.8 0,-1.1 -1.5,-1.6 -6,-1.8 -3.3,-0.1 -7.5,-1 -9.2,-1.9 -3.3,-1.7 -3.3,-1.8 -3.3,-9 0,-7.1 0.1,-7.3 2.5,-7.3 1.7,0 2.5,0.5 2.5,1.8 z m 62.8,1 c 0.2,1.2 1.5,3 2.9,3.9 2.2,1.5 2.8,1.5 5.1,0.2 1.4,-0.8 2.9,-2.5 3.2,-3.9 0.4,-1.6 1.4,-2.6 2.8,-2.8 1.6,-0.3 2.5,0.5 3.6,3.1 1.7,4.3 4.8,5.5 8.1,3.3 1.4,-0.9 2.6,-2.1 2.6,-2.6 0.1,-0.6 0.2,-1.6 0.3,-2.3 0,-0.6 1.3,-1.3 2.9,-1.5 l 2.7,-0.3 v 7.4 7.4 l -3.7,1.6 c -2.1,0.9 -4.7,1.7 -5.8,1.9 -2.7,0.4 -3.1,3.4 -0.5,4.1 1.9,0.5 2,1.2 2,20 0,16.4 -0.3,19.8 -1.6,21.1 -1.2,1.3 -3.8,1.6 -12,1.6 h -10.4 l 0.2,-21.3 0.3,-21.2 5.3,-0.3 c 4.4,-0.3 5.3,-0.6 5,-2 -0.2,-1.3 -1.8,-1.8 -6.9,-2.2 -3.8,-0.3 -7.6,-1.2 -9.2,-2.3 -2.5,-1.6 -2.7,-2.3 -2.7,-8.1 0,-3.4 0.3,-6.6 0.7,-7 1.5,-1.5 4.8,-0.1 5.1,2.2 z M 603,190.4 c 1.2,1.7 1.5,4.3 1.3,9.2 l -0.3,6.9 h -4.5 -4.5 l -0.3,-6.9 c -0.3,-7.5 1.4,-11.6 4.8,-11.6 1.1,0 2.7,1.1 3.5,2.4 z"
       id="path24"
       style="fill:#000000;stroke:none;stroke-width:0.1" />
    <path
       d="m 592,171.9 c -0.9,3 0.4,6.3 2.3,5.9 1.2,-0.2 1.7,-1.4 1.7,-3.8 0,-4 -2.9,-5.5 -4,-2.1 z"
       id="path26"
       style="fill:#000000;stroke:none;stroke-width:0.1" />
    <path
       d="m 602.9,171.4 c -1,2.5 0,6.1 1.9,6.4 1.4,0.3 1.7,-0.4 1.7,-3.7 0,-3 -0.4,-4.1 -1.5,-4.1 -0.9,0 -1.8,0.6 -2.1,1.4 z"
       id="path28"
       style="fill:#000000;stroke:none;stroke-width:0.1" />
    <path
       d="m 560.9,171.4 c -1.1,2.8 0,6.1 2.1,6.1 1.6,0 2,-0.7 2,-3.5 0,-2.5 -0.5,-3.6 -1.8,-3.8 -0.9,-0.2 -2,0.3 -2.3,1.2 z"
       id="path30"
       style="fill:#000000;stroke:none;stroke-width:0.1" />
    <path
       d="m 571.5,174 c 0,3.3 0.3,4 2,4 1.7,0 2,-0.7 2,-4 0,-3.3 -0.3,-4 -2,-4 -1.7,0 -2,0.7 -2,4 z"
       id="path32"
       style="fill:#000000;stroke:none;stroke-width:0.1" />
    <path
       d="m 623.5,173.9 c 0,3.5 0.3,4.1 2.1,4.1 1.7,0 2,-0.5 1.7,-3.7 -0.2,-2.7 -0.8,-3.9 -2,-4.1 -1.5,-0.3 -1.8,0.4 -1.8,3.7 z"
       id="path34"
       style="fill:#000000;stroke:none;stroke-width:0.1" />
    <path
       d="m 634.2,170.7 c -1.4,1.3 -0.7,6.4 0.9,7 2.1,0.8 3.1,-1.1 2.6,-4.7 -0.4,-2.8 -2,-3.9 -3.5,-2.3 z"
       id="path36"
       style="fill:#000000;stroke:none;stroke-width:0.1" />
  </g>
  <g
     id="g1044"
     transform="translate(-66.193749,-93.504175)">
    <path
       d="m 141,290.5 c -44.7,8.9 -76.9,50.6 -74.7,96.5 0.7,13.6 3.1,23.9 8.6,35.5 5,10.6 8.7,16 17.5,25.3 16.9,17.7 38.2,27.6 62.6,28.9 13,0.7 23.6,-0.8 35.4,-4.8 32.2,-11.1 55.4,-37.6 62.1,-70.8 2.6,-12.5 1.7,-32.5 -1.9,-44.6 -10.3,-34.4 -39.1,-60.3 -74,-66.4 -8,-1.5 -27.6,-1.2 -35.6,0.4 z m 34.5,3.9 c 24,4.3 45.1,17.9 59.2,38.2 4,5.7 9.3,17.3 12,26.1 2.3,7.8 2.6,10.5 2.7,23.8 0.1,12.7 -0.3,16.2 -2.2,22.8 -15.9,55.1 -74.6,82.7 -125,58.7 -10.4,-5 -16.1,-8.8 -24.1,-16.4 -36.5,-34.8 -37,-92.7 -1,-128.4 20.9,-20.8 49.8,-29.9 78.4,-24.8 z"
       id="path38"
       style="fill:#000000;stroke:none;stroke-width:0.1" />
    <path
       d="m 145.9,333.2 c -16.8,8.2 -23,13.8 -28.5,25.3 -4.7,9.8 -5.4,14.8 -5.4,38.9 v 21.1 l 17.6,7.8 c 9.8,4.3 18.4,7.7 19.3,7.5 1.9,-0.4 2.8,-8.3 3.3,-28.8 l 0.3,-13.5 -8.7,-0.9 -8.8,-0.9 v -4.9 -4.8 h 8 8 v 2.8 c 0,3 6.4,10.2 9,10.2 0.8,0 3.3,-1.5 5.5,-3.4 2.8,-2.4 4,-4.2 4,-6.2 l 0.2,-2.9 7.6,-0.3 7.7,-0.3 v 5 4.9 l -7.8,0.7 c -4.3,0.4 -8.4,1 -9.1,1.5 -1.1,0.6 -1.1,4 -0.2,17.1 1.6,22.8 1.9,24.9 3.8,24.9 0.9,0 9.5,-3.5 19,-7.7 l 17.3,-7.7 v -23.1 c 0,-25.7 -0.6,-29.4 -6.5,-40 -3.3,-5.9 -9.2,-12.2 -15,-16.2 -1.6,-1.2 -8.3,-4.6 -14.7,-7.6 l -11.7,-5.5 z m 26.5,3.7 c 9.9,4.7 13.7,7.1 18,11.4 4.6,4.6 10.6,13.9 10.6,16.4 0,0.5 -6.5,0.9 -14.5,1 -8,0.2 -15.4,0.7 -16.5,1.3 -3,1.6 -5,6.4 -5,12.2 -0.1,4.5 -0.4,5.6 -2.6,7.2 -2.5,1.8 -2.6,1.8 -5,-0.5 -2,-1.9 -2.4,-3.2 -2.4,-8.2 0,-5.1 -0.4,-6.2 -2.9,-8.8 -1.6,-1.6 -3.8,-2.9 -4.8,-2.9 -13.7,-0.1 -27.3,-0.7 -27.9,-1.2 -1.2,-1.2 6.6,-12.6 12,-17.5 3.3,-3.1 9.7,-7 16.7,-10.5 6.3,-3.1 11.5,-5.7 11.6,-5.7 0.1,-0.1 5.8,2.6 12.7,5.8 z m -23,35.3 c 0.9,1.2 1.6,2.6 1.6,3 0,0.5 -4.5,0.8 -10,0.8 h -10.1 l 0.3,8.7 0.3,8.8 8.5,1 8.5,1 -0.4,10 c -0.1,5.5 -0.6,10.4 -1,10.8 -0.4,0.4 -7.6,-2.2 -15.9,-5.9 L 116,403.7 v -12.2 c 0,-6.7 0.3,-14.3 0.6,-16.9 l 0.7,-4.6 h 15.3 c 14.7,0 15.3,0.1 16.8,2.2 z m 54,0.9 c 0.3,1.7 0.6,9.3 0.6,16.9 v 13.7 l -15.1,6.7 c -8.3,3.7 -15.3,6.5 -15.6,6.3 -0.7,-0.7 -2,-20.8 -1.3,-21.2 0.3,-0.1 3.9,-0.6 8,-1 4.1,-0.4 8.1,-1.2 8.8,-1.7 1.2,-1.1 1.7,-12.3 0.6,-15.2 -0.5,-1.3 -2.4,-1.6 -10,-1.6 -9.9,0 -11.4,-0.9 -7.8,-4.4 1.3,-1.3 4.2,-1.6 16.3,-1.6 h 14.9 z M 132,415.5 c 11.3,5 14.6,6.9 14.8,8.6 0.8,5.1 -0.3,5 -14.5,-1.4 -7.6,-3.4 -14.4,-6.6 -15,-7 -1.4,-0.9 -1.8,-6.7 -0.5,-6.7 0.4,0 7.2,2.9 15.2,6.5 z m 72,-3.2 c 0,3.3 0,3.4 -14.7,9.9 l -14.8,6.5 -0.7,-2.6 c -0.9,-3.1 -0.4,-5.1 1.4,-5.1 0.7,-0.1 7.2,-2.7 14.3,-6 7.2,-3.2 13.3,-5.9 13.8,-5.9 0.4,-0.1 0.7,1.4 0.7,3.2 z"
       id="path40"
       style="fill:#000000;stroke:none;stroke-width:0.1" />
    <path
       d="m 157.3,347.6 c -0.4,1.1 0.1,2.2 1.2,3.1 1.6,1.1 2.1,1.1 3.3,-0.1 0.8,-0.8 1.2,-2.2 0.9,-3 -0.8,-2.1 -4.6,-2.1 -5.4,0 z"
       id="path42"
       style="fill:#000000;stroke:none;stroke-width:0.1" />
    <path
       d="m 157.4,361.5 c -0.4,0.9 -0.2,2.1 0.4,2.7 1.6,1.6 4.7,0.5 4.7,-1.7 0,-2.6 -4.2,-3.4 -5.1,-1 z"
       id="path44"
       style="fill:#000000;stroke:none;stroke-width:0.1" />
  </g>
  <g
     id="g1002"
     transform="translate(-310.65351,-93.491625)">
    <path
       d="m 580.5,290.4 c -29.6,6.6 -54.1,26.1 -66.6,53.1 -6.3,13.8 -7.8,21.1 -7.9,39 0,18.9 1.8,27.4 9,42 12.9,26.3 37,44.6 66.5,50.7 12,2.5 29.5,2 41.3,-1.1 39.8,-10.5 68.2,-45.1 70.4,-85.9 2.6,-46.9 -29.1,-88.2 -74.9,-97.6 -9.1,-1.9 -29.7,-2 -37.8,-0.2 z m 43.3,6 c 31.6,9.4 55,33.7 63,65.6 2.7,10.8 2.9,30.1 0.4,40.4 -6.7,27.4 -23.9,48.8 -49.1,61.1 -13.4,6.6 -23.4,8.9 -38.6,8.8 -18.1,0 -34.1,-4.5 -48,-13.5 -9.2,-5.9 -23.8,-20.8 -28.9,-29.5 -26.6,-45.1 -10.9,-101.5 35.1,-125.7 15.1,-8 26.8,-10.7 44.8,-10.1 9.7,0.2 14.4,0.9 21.3,2.9 z"
       id="path62"
       style="fill:#000000;stroke:none;stroke-width:0.1" />
    <path
       d="m 562.8,352.2 c -9.9,11.7 -20.7,24.9 -21.7,26.6 -0.5,0.8 3.2,5.7 10.1,13.5 30.5,34.8 47.5,53.7 48.2,53.7 0.4,0 7.2,-7.3 15.1,-16.3 8,-8.9 21,-23.6 29,-32.5 8,-9 14.6,-16.7 14.8,-17.1 0.1,-0.5 -6.5,-9 -14.8,-19 l -15,-18.1 h -28.9 -28.9 z m 59,-0.7 -1.7,3.5 h -20.6 -20.6 l -1.7,-2.9 c -0.9,-1.6 -1.7,-3.2 -1.7,-3.5 0,-0.3 10.8,-0.6 24,-0.6 h 24 z m -48.5,2.4 2.3,4 -2.7,10.3 c -1.4,5.8 -2.9,11 -3.3,11.6 -0.6,1 -3.1,0.9 -11.1,-0.3 -5.7,-0.9 -10.5,-1.7 -10.7,-1.8 -0.3,-0.4 22,-27.6 22.8,-27.6 0.3,-0.1 1.5,1.7 2.7,3.8 z m 66.8,9.9 c 6.1,7.5 11.1,13.8 11,13.9 -0.7,0.8 -21.1,3.2 -21.6,2.6 -0.4,-0.5 -2,-5.8 -3.5,-11.8 l -2.8,-11 2.3,-3.8 c 1.2,-2 2.5,-3.7 2.8,-3.6 0.4,0 5.7,6.2 11.8,13.7 z m -18.8,3.9 c 1.2,4.3 2.4,9 2.8,10.5 l 0.6,2.8 h -25.1 c -17.5,0 -25.1,-0.3 -25.1,-1.1 0,-0.6 0.7,-3.4 1.4,-6.2 0.8,-2.9 2,-7.1 2.6,-9.5 l 1.1,-4.2 h 19.8 19.9 z m -60.5,16.5 9,1.2 6.2,13.1 c 3.4,7.1 8.1,16.9 10.4,21.6 2.2,4.7 4.1,8.9 4.1,9.3 0,0.3 -5.5,-5.6 -12.2,-13.2 -6.7,-7.5 -14.4,-16.2 -17.2,-19.2 -8,-8.7 -11.6,-12.9 -11.6,-13.5 0,-0.7 1.1,-0.7 11.3,0.7 z m 87.5,0.5 c -10.3,12.1 -39.2,44.3 -39.5,44 -0.2,-0.2 4.3,-10.1 10.1,-21.9 l 10.4,-21.6 7.3,-1 c 4.1,-0.5 8.7,-1 10.3,-1.1 2.7,-0.1 2.8,0 1.4,1.6 z m -25.3,2.1 c 0,1.4 -22.9,49.2 -23.6,49.2 -0.3,0 -2.5,-4.2 -4.9,-9.3 -2.4,-5 -7.7,-15.9 -11.7,-24.1 -4,-8.3 -7.3,-15.5 -7.3,-16 0,-0.8 7.7,-1 23.7,-0.9 13.1,0.2 23.8,0.6 23.8,1.1 z"
       id="path64"
       style="fill:#000000;stroke:none;stroke-width:0.1" />
  </g>
</svg>
