<?xml version="1.0" standalone="no"?>
<!DOCTYPE svg PUBLIC "-//W3C//DTD SVG 20010904//EN"
 "http://www.w3.org/TR/2001/REC-SVG-20010904/DTD/svg10.dtd">
<svg version="1.0" xmlns="http://www.w3.org/2000/svg"
 width="512.000000pt" height="512.000000pt" viewBox="0 0 512.000000 512.000000"
 preserveAspectRatio="xMidYMid meet">
<metadata>
Created by potrace 1.16, written by Peter Selinger 2001-2019
</metadata>
<g transform="translate(0.000000,512.000000) scale(0.100000,-0.100000)"
fill="#000000" stroke="none">
<path d="M2516 5099 c-14 -11 -26 -28 -26 -38 0 -15 -18 -19 -132 -29 -461
-42 -905 -227 -1242 -516 -62 -53 -94 -75 -105 -70 -38 16 -58 14 -84 -6 -28
-22 -38 -75 -17 -96 7 -7 -5 -28 -39 -66 -174 -199 -334 -468 -422 -708 -67
-184 -129 -484 -129 -625 0 -31 -5 -59 -12 -65 -7 -5 -25 -19 -40 -31 -39 -29
-39 -79 0 -108 15 -12 32 -25 38 -30 6 -5 14 -53 17 -108 30 -449 234 -932
545 -1287 39 -44 49 -62 41 -72 -19 -23 -6 -75 24 -98 24 -18 31 -19 60 -8 27
10 35 10 54 -5 12 -10 58 -48 103 -86 46 -37 90 -71 98 -76 14 -8 0 -50 -101
-303 -142 -357 -157 -400 -157 -450 0 -87 69 -178 154 -203 43 -13 243 -15
1413 -15 962 0 1377 3 1408 11 55 14 122 70 146 123 38 85 31 110 -160 589
-50 125 -91 229 -91 231 0 3 72 63 213 179 19 15 27 15 54 5 29 -11 36 -10 60
8 30 23 43 75 24 98 -8 10 2 28 41 72 311 354 515 836 545 1288 3 54 11 102
17 107 6 5 24 19 39 30 23 18 28 28 25 58 -2 28 -10 40 -35 56 -38 23 -38 22
-52 185 -39 435 -239 890 -542 1238 -34 38 -46 59 -39 66 21 21 11 74 -17 96
-26 20 -46 22 -84 6 -11 -5 -43 17 -105 70 -101 87 -269 201 -394 267 -256
137 -588 232 -887 253 -80 6 -93 9 -93 25 0 21 -45 59 -70 59 -10 0 -29 -9
-44 -21z m-28 -996 l2 -790 -56 -12 c-30 -7 -87 -29 -125 -49 l-70 -36 -555
555 c-305 304 -554 557 -554 561 0 13 161 140 272 214 219 147 481 256 741
309 108 22 304 46 332 40 7 -1 11 -275 13 -792z m282 782 c295 -20 668 -152
940 -332 100 -67 280 -209 280 -222 0 -3 -249 -256 -554 -560 l-555 -555 -70
36 c-38 20 -95 42 -125 49 l-56 12 0 787 c0 433 3 790 6 793 4 4 16 5 28 2 12
-2 59 -6 106 -10z m-658 -1826 c-17 -30 -43 -84 -57 -121 l-27 -68 -167 0
-166 0 -17 48 c-105 294 -541 294 -646 0 l-17 -48 -277 0 -278 0 0 39 c0 73
29 265 60 389 74 304 219 590 426 841 l77 93 559 -559 560 -560 -30 -54z
m2139 981 c211 -284 362 -662 397 -997 l8 -82 -53 59 c-72 79 -140 112 -242
118 -61 3 -87 0 -132 -17 -106 -40 -181 -115 -211 -210 -19 -59 -48 -57 -70 7
-82 230 -388 297 -566 123 -40 -39 -92 -128 -92 -158 0 -10 -27 -13 -99 -13
l-99 0 -27 68 c-14 37 -40 91 -57 121 l-30 54 559 559 558 559 42 -48 c24 -26
75 -91 114 -143z m-1533 -904 c43 -20 79 -47 116 -87 l53 -57 552 -1380 c432
-1079 550 -1386 545 -1406 -15 -60 77 -56 -1422 -56 -949 0 -1379 3 -1393 11
-28 15 -42 57 -30 88 5 14 253 637 551 1384 536 1342 542 1358 592 1413 83 90
166 125 288 121 69 -2 97 -8 148 -31z m-1304 -148 c40 -12 126 -86 126 -108 0
-6 -65 -10 -185 -10 -120 0 -185 4 -185 10 0 20 85 96 120 107 48 15 75 15
124 1z m2270 0 c40 -12 126 -86 126 -108 0 -6 -65 -10 -185 -10 -120 0 -185 4
-185 10 0 20 85 96 120 107 48 15 75 15 124 1z m717 1 c47 -16 96 -54 114 -90
l16 -29 -186 0 c-121 0 -185 4 -185 10 0 22 76 91 115 105 49 17 82 18 126 4z
m-3381 -281 c0 -31 52 -120 92 -159 24 -23 68 -54 98 -68 47 -22 69 -26 145
-26 76 0 98 4 145 26 30 14 74 45 98 68 40 39 92 128 92 159 0 9 35 12 139 12
l140 0 -50 -122 c-27 -66 -51 -123 -53 -125 -2 -3 -31 5 -65 17 -213 78 -446
-75 -459 -301 -6 -96 17 -165 82 -254 15 -20 14 -20 -67 -17 -113 5 -182 -21
-258 -97 -77 -78 -102 -145 -97 -261 3 -63 10 -96 27 -129 20 -38 21 -45 8
-58 -13 -13 -24 -4 -93 78 -275 331 -448 755 -480 1179 l-7 90 282 0 c218 0
281 -3 281 -12z m520 2 c0 -6 -19 -30 -42 -53 -40 -39 -99 -67 -143 -67 -44 0
-103 28 -142 67 -24 23 -43 47 -43 53 0 6 65 10 185 10 120 0 185 -4 185 -10z
m1750 -2 c0 -31 52 -120 92 -159 24 -23 68 -54 98 -68 47 -22 69 -26 145 -26
76 0 98 4 145 26 30 14 74 45 98 68 40 39 92 128 92 159 0 6 10 12 23 12 17 0
25 -9 35 -41 59 -188 294 -284 476 -195 34 17 76 49 109 86 l53 59 -8 -82
c-32 -301 -162 -655 -341 -922 -48 -71 -166 -222 -194 -248 -31 -27 -46 -3
-32 49 7 21 9 67 5 102 -11 121 -78 221 -188 279 -49 26 -62 28 -166 29 -111
0 -113 1 -142 30 l-29 29 32 65 c29 58 32 73 32 155 0 76 -4 98 -26 145 -53
111 -161 187 -284 199 l-60 6 -52 128 -52 127 70 0 c48 0 69 -4 69 -12z m520
2 c0 -6 -19 -30 -42 -53 -40 -39 -99 -67 -143 -67 -44 0 -103 28 -142 67 -24
23 -43 47 -43 53 0 6 65 10 185 10 120 0 185 -4 185 -10z m706 -18 c-19 -37
-43 -57 -96 -81 -51 -24 -79 -25 -135 -10 -40 11 -125 85 -125 108 0 8 54 11
185 11 l186 0 -15 -28z m-2771 -335 c72 -28 71 -18 5 -182 -38 -95 -71 -160
-89 -179 l-29 -28 -36 17 c-75 36 -126 133 -111 212 22 122 153 202 260 160z
m1652 -76 c51 -37 81 -86 89 -142 6 -51 -16 -124 -37 -124 -9 0 -36 54 -71
140 -32 77 -57 143 -58 148 0 16 40 5 77 -22z m-1980 -515 c4 -4 -52 -66 -125
-138 -72 -73 -134 -129 -138 -125 -4 4 -9 31 -12 60 -3 43 1 61 25 107 23 44
39 60 83 83 46 24 64 28 107 25 29 -3 56 -8 60 -12z m2427 -95 c41 -23 84 -80
92 -121 6 -34 5 -34 -80 50 -47 46 -86 88 -86 93 0 10 36 0 74 -22z m-2358
-156 c-31 -79 -50 -114 -67 -122 -30 -16 -135 -17 -145 -2 -4 7 48 66 122 140
93 94 130 125 132 112 1 -10 -17 -67 -42 -128z m2266 -12 c76 -76 138 -141
138 -145 0 -4 -20 -19 -44 -33 -33 -19 -56 -25 -86 -23 l-42 3 -64 160 c-35
88 -64 163 -64 167 0 25 39 -6 162 -129z m-2549 -243 c25 -11 73 -23 106 -26
34 -4 61 -8 61 -9 0 -1 -7 -20 -16 -41 -9 -22 -20 -49 -25 -62 l-9 -23 -42 30
c-81 59 -152 127 -144 139 10 16 16 15 69 -8z m2699 -83 c-6 -7 -32 -28 -57
-46 l-45 -32 -9 23 c-6 15 -5 25 3 28 29 12 102 37 110 39 5 0 4 -5 -2 -12z"/>
<path d="M3858 3777 c-89 -38 -151 -97 -191 -184 -33 -73 -32 -208 4 -283 33
-70 99 -136 169 -169 46 -22 69 -26 145 -26 76 0 99 4 146 26 72 34 134 96
168 168 22 47 26 70 26 146 0 76 -4 99 -26 146 -57 121 -165 191 -304 197 -66
2 -90 -2 -137 -21z m229 -148 c78 -48 116 -142 93 -228 -16 -59 -81 -123 -144
-141 -146 -40 -286 100 -246 246 16 57 81 128 132 143 47 15 124 5 165 -20z"/>
<path d="M2498 3008 c-20 -5 -55 -26 -78 -46 -140 -119 -89 -332 92 -382 l63
-17 195 -487 c162 -406 192 -490 182 -504 -72 -102 -70 -151 9 -352 69 -173
93 -211 149 -240 85 -44 173 -34 240 26 92 83 93 151 9 362 -34 84 -71 167
-83 184 -25 38 -71 66 -132 82 l-46 12 -194 484 c-107 267 -194 490 -194 496
0 6 7 18 17 25 50 42 67 161 34 235 -24 53 -91 109 -146 123 -51 13 -66 13
-117 -1z m113 -157 c52 -42 17 -131 -51 -131 -44 0 -74 31 -74 75 0 44 30 75
74 75 15 0 38 -8 51 -19z m542 -1378 c17 -20 127 -289 127 -313 0 -9 -7 -26
-16 -38 -19 -27 -74 -30 -97 -4 -18 21 -127 289 -127 314 0 48 80 77 113 41z"/>
<path d="M838 2497 c-143 -61 -223 -186 -216 -337 6 -133 80 -243 198 -299 46
-22 69 -26 145 -26 76 0 99 4 145 26 70 33 136 99 169 169 22 46 26 69 26 145
0 76 -4 99 -26 146 -57 121 -165 191 -304 197 -66 2 -90 -2 -137 -21z m228
-148 c46 -28 80 -75 95 -130 37 -137 -103 -277 -240 -240 -115 31 -181 140
-151 250 14 51 83 125 132 140 47 15 124 5 164 -20z"/>
<path d="M3895 2507 c-97 -32 -172 -98 -214 -187 -22 -46 -26 -69 -26 -145 0
-76 4 -99 26 -145 33 -70 99 -136 169 -169 46 -22 69 -26 145 -26 76 0 99 4
146 26 72 34 134 96 168 168 22 47 26 70 26 146 0 76 -4 99 -26 146 -56 120
-166 191 -299 196 -42 2 -92 -3 -115 -10z m202 -158 c115 -71 134 -219 40
-313 -116 -116 -295 -65 -338 96 -24 90 40 205 131 235 48 17 124 8 167 -18z"/>
</g>
</svg>
