<?xml version="1.0" standalone="no"?>
<!DOCTYPE svg PUBLIC "-//W3C//DTD SVG 20010904//EN"
 "http://www.w3.org/TR/2001/REC-SVG-20010904/DTD/svg10.dtd">
<svg version="1.0" xmlns="http://www.w3.org/2000/svg"
 width="139.000000pt" height="172.000000pt" viewBox="0 0 139.000000 172.000000"
 preserveAspectRatio="xMidYMid meet">
<metadata>
Created by potrace 1.16, written by Peter Selinger 2001-2019
</metadata>
<g transform="translate(0.000000,172.000000) scale(0.100000,-0.100000)"
fill="#000000" stroke="none">
<path d="M594 1615 c-198 -43 -351 -206 -386 -412 -21 -128 18 -271 104 -384
l36 -46 -129 -292 c-71 -161 -129 -299 -129 -306 0 -23 19 -18 136 35 60 27
114 50 120 50 6 0 31 -46 54 -102 47 -115 61 -136 77 -116 5 7 57 120 114 250
57 131 107 238 110 238 3 0 55 -111 115 -247 60 -135 114 -248 120 -250 7 -2
33 47 60 111 27 64 54 116 60 116 6 0 60 -22 120 -50 118 -54 149 -61 140 -33
-3 10 -64 149 -135 308 -104 235 -127 293 -117 306 72 103 89 133 107 189 25
82 27 206 4 287 -52 180 -212 323 -395 352 -81 13 -109 13 -186 -4z m239 -45
c134 -41 246 -146 298 -278 19 -46 23 -77 23 -162 0 -124 -20 -187 -87 -275
-85 -111 -201 -173 -343 -182 -189 -13 -358 88 -441 264 -33 68 -38 89 -41
170 -4 73 0 106 17 161 44 146 182 277 328 311 69 16 177 12 246 -9z m-404
-854 c27 -19 56 -36 62 -38 8 -3 -13 -65 -66 -190 l-79 -187 -100 -44 c-56
-25 -102 -44 -104 -42 -2 2 231 534 234 535 1 0 25 -15 53 -34z m714 -230 c64
-145 117 -266 117 -269 0 -8 -182 73 -197 87 -17 16 -165 370 -155 374 4 1 30
17 57 36 28 19 52 34 55 35 3 1 59 -118 123 -263z m-531 157 c39 -5 49 -10 58
-33 10 -24 1 -49 -85 -245 -53 -121 -102 -230 -109 -243 -12 -23 -15 -19 -54
72 l-42 97 78 185 c59 143 80 183 92 178 8 -3 36 -8 62 -11z m333 -165 l77
-182 -23 -56 c-12 -30 -32 -75 -42 -100 l-20 -45 -14 30 c-7 17 -60 136 -117
265 l-104 235 27 7 c33 8 112 25 128 27 6 0 46 -81 88 -181z"/>
<path d="M655 1490 c-20 -14 -44 -20 -72 -18 -44 2 -77 -18 -88 -53 -3 -10
-23 -23 -43 -29 -45 -15 -62 -35 -62 -74 0 -20 -10 -41 -32 -63 -31 -32 -32
-34 -20 -78 9 -35 9 -55 0 -90 -12 -44 -11 -46 20 -78 22 -22 32 -43 32 -63 0
-39 17 -59 60 -73 21 -7 43 -25 55 -44 18 -29 26 -32 74 -35 36 -2 65 -11 84
-24 l30 -21 41 21 c25 14 59 22 88 22 44 0 50 3 70 35 13 20 37 39 55 46 39
13 63 43 63 80 0 17 12 39 31 59 26 25 30 35 24 58 -9 34 -9 89 0 123 5 21 1
33 -24 61 -17 20 -31 45 -31 56 0 44 -18 68 -59 81 -23 6 -41 16 -41 20 0 5
-13 23 -28 39 -25 27 -33 30 -70 25 -31 -4 -47 -1 -70 16 -37 26 -49 26 -87 1z
m87 -40 c24 -14 42 -18 70 -14 35 6 39 4 59 -30 15 -25 32 -39 60 -47 35 -11
39 -15 39 -45 0 -23 10 -44 31 -69 30 -34 31 -38 20 -75 -9 -31 -9 -49 0 -80
11 -37 10 -41 -20 -75 -21 -25 -31 -46 -31 -69 0 -30 -4 -34 -39 -45 -28 -8
-46 -22 -62 -47 -21 -34 -24 -36 -61 -30 -29 5 -47 1 -77 -16 l-38 -22 -32 23
c-25 18 -39 21 -71 16 -38 -6 -41 -5 -61 29 -15 25 -32 39 -60 47 -35 11 -39
16 -45 55 -4 28 -16 51 -34 69 -28 27 -29 28 -13 66 14 35 14 43 0 78 -16 38
-15 39 13 66 18 18 30 41 34 69 6 40 10 44 47 55 30 9 44 21 57 48 16 33 19
35 57 29 30 -4 49 0 71 14 38 24 47 24 86 0z"/>
<path d="M650 1291 l-30 -60 -60 -7 c-88 -10 -95 -29 -34 -94 l46 -49 -10 -58
c-15 -89 7 -103 86 -57 l45 26 57 -27 c83 -39 94 -32 86 53 l-7 67 41 40 c42
41 52 80 23 89 -10 3 -40 8 -66 12 -46 6 -49 8 -78 65 -39 79 -59 79 -99 0z
m80 -41 c23 -49 23 -49 82 -56 32 -4 58 -9 58 -12 0 -4 -18 -25 -41 -48 l-40
-41 9 -54 c6 -30 9 -55 7 -57 -2 -2 -27 9 -55 23 l-53 27 -49 -27 c-27 -15
-51 -25 -54 -23 -2 3 0 29 6 58 l10 54 -40 41 c-22 22 -40 43 -40 46 0 4 23 9
51 12 61 7 70 14 94 67 10 22 21 40 25 40 4 0 17 -22 30 -50z"/>
</g>
</svg>
