<?xml version="1.0" standalone="no"?>
<!DOCTYPE svg PUBLIC "-//W3C//DTD SVG 20010904//EN"
 "http://www.w3.org/TR/2001/REC-SVG-20010904/DTD/svg10.dtd">
<svg version="1.0" xmlns="http://www.w3.org/2000/svg"
 width="321.000000pt" height="399.000000pt" viewBox="0 0 321.000000 399.000000"
 preserveAspectRatio="xMidYMid meet">
<metadata>
Created by potrace 1.16, written by Peter Selinger 2001-2019
</metadata>
<g transform="translate(0.000000,399.000000) scale(0.100000,-0.100000)"
fill="#000000" stroke="none">
<path d="M1399 3900 c-286 -45 -539 -175 -725 -372 -107 -114 -201 -282 -241
-433 -24 -89 -27 -119 -27 -270 0 -150 2 -180 23 -250 72 -246 232 -439 467
-562 51 -27 53 -29 69 -93 28 -112 103 -218 200 -285 31 -21 54 -42 53 -45 -2
-4 -50 -47 -108 -96 -58 -50 -151 -140 -208 -201 -101 -108 -104 -111 -163
-122 -139 -28 -206 -83 -170 -140 5 -8 5 -26 -1 -43 -6 -16 -7 -44 -4 -63 6
-29 15 -39 55 -59 47 -24 50 -24 116 -11 66 14 68 14 103 -10 20 -14 44 -25
54 -25 26 0 48 40 48 87 0 23 4 45 10 48 6 3 9 -26 8 -77 0 -61 5 -99 21 -143
11 -32 21 -62 21 -66 0 -3 -24 -22 -53 -42 -133 -87 -217 -209 -217 -312 0
-106 33 -158 125 -201 42 -20 66 -24 150 -24 123 0 192 17 311 75 107 52 167
107 202 185 35 77 48 90 94 90 21 0 38 -3 39 -7 7 -115 30 -173 90 -233 78
-78 185 -110 371 -110 127 0 195 16 265 63 71 48 107 113 111 203 4 62 0 81
-23 131 -42 93 -112 154 -227 198 -38 14 -62 29 -61 37 1 7 9 38 18 68 18 64
20 187 4 262 -9 39 -9 53 0 56 6 2 18 11 27 20 21 21 14 50 -41 170 l-45 100
65 133 c36 74 72 157 82 184 25 78 42 96 123 132 80 37 123 70 147 117 16 31
10 76 -10 76 -6 0 -17 4 -24 8 -19 12 5 81 42 122 191 209 266 481 221 798
-65 466 -365 793 -837 913 -69 18 -120 22 -289 24 -113 2 -230 0 -261 -5z
m476 -94 c322 -66 593 -259 726 -519 l44 -86 -32 -33 c-46 -49 -88 -141 -122
-269 -60 -223 -50 -428 30 -625 11 -28 10 -36 -4 -58 -15 -23 -20 -24 -43 -14
-18 9 -33 9 -54 1 -26 -10 -28 -9 -34 18 -3 16 -13 32 -22 36 -26 10 -82 -23
-111 -66 -35 -50 -51 -57 -83 -33 -21 16 -27 33 -37 98 -7 43 -10 80 -8 83 3
2 11 -2 20 -9 26 -22 18 13 -14 57 -66 91 -202 172 -359 215 -108 29 -335 36
-454 14 -98 -18 -207 -61 -271 -105 -84 -58 -152 -158 -72 -105 31 20 33 8 9
-57 -8 -24 -22 -93 -30 -153 -8 -60 -16 -112 -19 -114 -2 -3 -30 10 -61 29
-67 40 -196 164 -243 232 l-33 48 25 32 c33 44 72 153 99 272 17 81 22 134 22
280 1 192 -8 255 -50 359 -28 70 -30 67 72 170 150 151 365 259 600 300 49 9
100 18 114 20 48 9 326 -4 395 -18z m-163 -1267 c143 -29 340 -119 353 -159
11 -36 25 -206 20 -248 -16 -140 -29 -219 -39 -239 -6 -12 -55 -71 -109 -131
-111 -124 -128 -133 -294 -154 -197 -25 -377 25 -489 136 -144 144 -183 356
-111 606 l33 115 45 23 c143 71 391 93 591 51z m638 -349 c0 -11 -7 -38 -16
-60 l-16 -41 38 -34 c45 -40 58 -43 49 -14 -5 16 1 30 26 55 56 58 77 39 39
-36 -27 -53 -26 -60 14 -53 111 18 -12 -101 -140 -136 -39 -10 -43 -16 -79
-93 -64 -141 -135 -282 -154 -307 -15 -20 -24 -23 -53 -17 -50 9 -112 57 -144
111 -22 38 -25 50 -16 70 6 13 72 86 146 162 l134 138 -24 70 c-28 83 -30 105
-8 105 9 0 29 -8 46 -17 34 -20 30 -23 95 71 34 48 63 60 63 26z m100 -28 c0
-10 -17 -34 -37 -54 -34 -33 -40 -35 -57 -23 -22 17 -16 28 36 66 47 34 58 36
58 11z m-578 -596 c34 -71 143 -166 190 -166 18 0 49 -56 64 -116 l6 -24 -155
0 -156 0 -30 98 c-44 143 -53 184 -44 192 4 4 25 13 45 20 21 6 40 16 43 21
11 16 21 10 37 -25z m-582 -37 c-38 -52 -90 -176 -124 -296 l-34 -118 -43 -11
c-103 -26 -111 -26 -107 -2 2 16 16 26 53 38 49 16 50 17 72 85 30 92 114 261
153 308 36 43 61 40 30 -4z m233 -3 c43 -2 80 -6 83 -9 7 -6 43 -171 39 -175
-1 -2 -45 -5 -96 -8 -82 -4 -192 -20 -281 -40 -16 -4 -28 -2 -28 2 0 26 78
201 103 232 7 9 24 12 56 7 25 -3 81 -7 124 -9z m222 -107 c19 -63 40 -131 47
-149 l14 -34 161 -1 c169 0 193 -6 193 -47 0 -18 -5 -20 -31 -14 -17 3 -110 6
-205 6 l-174 0 -11 28 c-18 46 -78 316 -72 325 3 4 14 7 25 5 16 -2 26 -24 53
-119z m-553 55 c-40 -70 -62 -117 -97 -214 -25 -70 -35 -86 -57 -94 -15 -5
-30 -7 -34 -3 -11 11 113 252 161 310 26 32 49 56 52 54 2 -3 -9 -26 -25 -53z
m-224 -255 c-22 -51 -43 -113 -45 -135 -5 -37 -3 -43 18 -49 l23 -8 -27 -19
c-24 -17 -27 -27 -27 -74 0 -72 -21 -83 -63 -32 l-29 36 -73 -27 c-62 -22 -76
-24 -87 -13 -11 11 -7 19 22 43 23 19 29 29 18 29 -9 0 -31 -12 -48 -26 -20
-17 -35 -23 -41 -17 -14 14 -3 35 34 62 29 21 25 22 -19 4 -14 -5 -15 -3 -5
16 7 12 19 25 27 28 23 9 16 23 -11 23 -14 0 -25 4 -25 10 0 16 50 36 141 58
l86 20 83 86 c46 47 84 85 86 83 2 -2 -15 -46 -38 -98z m690 49 c5 -7 16 -39
23 -71 7 -31 17 -62 24 -67 6 -5 101 -11 211 -12 l199 -3 14 -40 c30 -89 10
-305 -33 -348 -8 -8 -41 -17 -73 -21 -129 -15 -215 -55 -296 -139 l-59 -61
-86 -4 c-102 -5 -245 17 -327 50 -90 36 -164 102 -205 182 -34 66 -35 73 -35
177 0 127 2 131 90 148 33 6 65 18 71 26 6 8 17 42 24 75 7 33 18 64 24 69 10
9 133 36 201 44 78 10 223 6 233 -5z"/>
<path d="M1505 3745 c-182 -40 -321 -163 -377 -333 -40 -122 -17 -290 54 -392
75 -108 149 -167 261 -208 63 -23 87 -26 187 -26 136 1 193 18 299 88 82 55
130 111 174 203 30 65 32 74 32 188 0 119 0 121 -38 199 -106 217 -354 334
-592 281z"/>
<path d="M1283 2394 c-12 -19 -19 -52 -21 -104 -4 -67 -1 -77 18 -95 16 -14
25 -17 38 -9 45 28 68 147 39 204 -18 36 -52 38 -74 4z m63 -28 c7 -31 -12
-68 -34 -64 -19 4 -26 29 -18 64 8 32 44 32 52 0z"/>
<path d="M1740 2338 c-32 -70 -23 -177 15 -192 44 -16 79 48 78 141 -2 65 -16
93 -49 93 -20 0 -29 -9 -44 -42z m68 -18 c2 -14 -4 -34 -11 -45 -13 -16 -17
-17 -31 -6 -19 16 -20 34 -5 62 14 27 43 20 47 -11z"/>
<path d="M1298 2003 c-15 -19 39 -139 84 -184 79 -81 231 -77 297 7 80 104 85
137 23 153 -99 27 -387 44 -404 24z m260 -74 c57 -12 116 -56 107 -80 -7 -19
-69 -54 -112 -64 -17 -3 -50 -1 -72 5 -44 12 -111 63 -111 86 0 17 41 44 83
54 46 11 51 11 105 -1z"/>
</g>
</svg>
