<?xml version="1.0" standalone="no"?>
<!DOCTYPE svg PUBLIC "-//W3C//DTD SVG 20010904//EN"
 "http://www.w3.org/TR/2001/REC-SVG-20010904/DTD/svg10.dtd">
<svg version="1.0" xmlns="http://www.w3.org/2000/svg"
 width="200.000000pt" height="200.000000pt" viewBox="0 0 200.000000 200.000000"
 preserveAspectRatio="xMidYMid meet">
<metadata>
Created by potrace 1.16, written by Peter Selinger 2001-2019
</metadata>
<g transform="translate(0.000000,200.000000) scale(0.100000,-0.100000)"
fill="#000000" stroke="none">
<path d="M691 1709 c-168 -71 -306 -131 -308 -132 -10 -11 -44 -173 -54 -262
-9 -81 -9 -133 0 -220 29 -287 127 -514 303 -700 92 -98 189 -166 294 -207
l73 -28 58 21 c156 58 338 212 436 370 137 221 204 507 178 758 -10 92 -43
256 -54 268 -4 3 -595 253 -612 258 -5 1 -147 -55 -314 -126z m382 -383 c39
-16 82 -61 96 -99 6 -16 11 -64 11 -108 l0 -79 30 0 30 0 0 -160 0 -160 -240
0 -240 0 0 160 0 160 30 0 30 0 0 79 c0 90 10 124 48 165 51 54 136 72 205 42z"/>
<path d="M956 1290 c-67 -21 -96 -77 -96 -187 l0 -63 141 0 142 0 -5 84 c-5
88 -19 123 -61 150 -30 20 -86 27 -121 16z"/>
</g>
</svg>
