<?xml version="1.0" standalone="no"?>
<!DOCTYPE svg PUBLIC "-//W3C//DTD SVG 20010904//EN"
 "http://www.w3.org/TR/2001/REC-SVG-20010904/DTD/svg10.dtd">
<svg version="1.0" xmlns="http://www.w3.org/2000/svg"
 width="200.000000pt" height="200.000000pt" viewBox="0 0 200.000000 200.000000"
 preserveAspectRatio="xMidYMid meet">
<metadata>
Created by potrace 1.16, written by Peter Selinger 2001-2019
</metadata>
<g transform="translate(0.000000,200.000000) scale(0.100000,-0.100000)"
fill="#000000" stroke="none">
<path d="M956 1860 c-96 -30 -125 -150 -60 -243 60 -85 153 -83 210 2 84 128
-13 284 -150 241z"/>
<path d="M1288 1539 c-11 -6 -18 -22 -18 -39 0 -24 8 -33 57 -60 75 -42 175
-139 221 -214 21 -32 51 -95 67 -139 32 -86 53 -109 82 -91 28 17 26 66 -5
147 -59 151 -191 306 -320 375 -68 36 -61 35 -84 21z"/>
<path d="M610 1508 c-70 -39 -205 -176 -249 -250 -42 -73 -94 -222 -86 -248 8
-26 52 -37 70 -19 7 8 23 46 35 84 47 150 152 283 286 361 51 30 63 57 38 85
-23 25 -29 24 -94 -13z"/>
<path d="M830 1518 c-59 -30 -80 -72 -80 -158 0 -38 5 -71 12 -78 17 -17 459
-17 476 0 18 18 15 134 -5 175 -19 41 -60 69 -116 78 -36 7 -42 4 -78 -31
l-39 -38 -38 37 c-44 43 -70 46 -132 15z"/>
<path d="M750 1097 c-13 -7 -35 -28 -47 -46 -21 -31 -23 -45 -23 -178 0 -194
15 -225 118 -248 30 -6 32 -10 32 -46 0 -47 15 -79 36 -79 9 0 45 26 81 59
l65 59 112 4 c180 7 196 27 196 250 0 159 -10 192 -69 223 -39 20 -461 22
-501 2z m130 -206 c16 -31 12 -49 -15 -67 -23 -15 -27 -15 -50 0 -14 9 -25 25
-25 36 0 45 69 69 90 31z m160 0 c16 -31 12 -49 -15 -67 -23 -15 -27 -15 -50
0 -43 28 -26 86 25 86 19 0 33 -7 40 -19z m160 0 c16 -31 12 -49 -15 -67 -23
-15 -27 -15 -50 0 -43 28 -26 86 25 86 19 0 33 -7 40 -19z"/>
<path d="M302 920 c-72 -33 -99 -125 -59 -205 17 -36 69 -84 97 -90 65 -14
138 49 160 137 11 42 10 52 -10 92 -16 33 -32 50 -64 65 -52 26 -69 26 -124 1z"/>
<path d="M1573 921 c-56 -26 -76 -67 -71 -142 7 -94 80 -168 153 -155 44 9 98
69 114 129 35 122 -81 221 -196 168z"/>
<path d="M216 600 c-69 -21 -106 -86 -106 -187 0 -42 4 -54 19 -63 12 -6 107
-10 240 -10 264 0 256 -3 248 103 -7 98 -50 150 -134 163 -39 6 -45 4 -79 -30
-20 -20 -39 -36 -42 -36 -3 0 -20 16 -38 35 -33 36 -53 41 -108 25z"/>
<path d="M1485 599 c-66 -19 -104 -88 -105 -186 0 -72 2 -73 254 -73 169 0
227 3 240 13 16 11 18 25 14 85 -5 101 -49 155 -135 168 -40 6 -45 4 -76 -30
-18 -20 -36 -36 -39 -36 -3 0 -22 16 -41 35 -36 36 -57 41 -112 24z"/>
<path d="M626 307 c-35 -25 -17 -59 51 -95 93 -49 197 -72 322 -72 122 0 207
18 303 62 68 31 83 47 73 79 -10 31 -43 33 -104 5 -89 -40 -167 -56 -271 -56
-108 0 -185 17 -279 60 -73 34 -71 34 -95 17z"/>
</g>
</svg>
