<?xml version="1.0" standalone="no"?>
<!DOCTYPE svg PUBLIC "-//W3C//DTD SVG 20010904//EN"
 "http://www.w3.org/TR/2001/REC-SVG-20010904/DTD/svg10.dtd">
<svg version="1.0" xmlns="http://www.w3.org/2000/svg"
 width="200.000000pt" height="200.000000pt" viewBox="0 0 200.000000 200.000000"
 preserveAspectRatio="xMidYMid meet">
<metadata>
Created by potrace 1.16, written by Peter Selinger 2001-2019
</metadata>
<g transform="translate(0.000000,200.000000) scale(0.100000,-0.100000)"
fill="#000000" stroke="none">
<path d="M348 1984 c-15 -8 -32 -23 -38 -34 -14 -26 -14 -1874 0 -1901 27 -49
25 -49 690 -49 665 0 663 0 690 49 14 27 14 1875 0 1902 -27 49 -25 49 -692
49 -530 -1 -627 -3 -650 -16z m1273 -54 c19 -10 19 -31 19 -930 0 -899 0 -920
-19 -930 -27 -14 -1215 -14 -1242 0 -19 10 -19 31 -19 930 0 865 1 920 18 929
24 14 1216 15 1243 1z"/>
<path d="M730 1491 l0 -351 381 0 c343 0 381 2 375 16 -3 9 -6 162 -6 340 l0
324 -100 0 -100 0 0 -330 0 -330 -35 0 -35 0 0 265 0 265 -100 0 -100 0 0
-265 0 -265 -35 0 -35 0 0 165 0 165 -95 0 -95 0 0 169 c0 103 -4 172 -10 176
-7 4 -10 -113 -10 -344z m690 -1 l0 -280 -40 0 -40 0 0 280 0 280 40 0 40 0 0
-280z m-232 -67 l2 -243 -80 0 -80 0 0 245 0 246 78 -3 77 -3 3 -242z m-270
-100 l3 -143 -81 0 -80 0 0 138 c0 76 3 142 7 146 4 4 39 5 78 4 l70 -3 3
-142z"/>
<path d="M875 1041 c-255 -63 -298 -413 -64 -530 104 -52 213 -42 305 28 139
105 146 316 14 434 -72 65 -166 89 -255 68z m133 -46 c28 -9 53 -19 56 -24 3
-5 -28 -52 -70 -105 -46 -58 -74 -103 -70 -111 4 -12 30 -15 132 -15 l127 0
-7 -32 c-11 -55 -58 -120 -110 -153 -44 -27 -58 -30 -126 -30 -68 0 -82 3
-126 30 -70 44 -107 108 -112 196 -3 54 0 77 17 111 29 61 81 108 143 129 65
23 81 23 146 4z m152 -129 c11 -23 20 -52 20 -64 0 -21 -4 -22 -95 -22 -52 0
-95 2 -95 5 0 3 26 39 57 80 54 69 59 73 75 58 10 -9 27 -34 38 -57z"/>
<path d="M503 364 c-3 -8 -1 -20 4 -25 5 -5 160 -8 389 -7 371 3 379 3 379 23
0 20 -8 20 -383 23 -341 2 -383 1 -389 -14z"/>
<path d="M511 301 c-7 -5 -10 -14 -7 -20 5 -8 83 -11 251 -11 168 0 246 3 251
11 3 6 0 15 -7 20 -18 11 -470 11 -488 0z"/>
</g>
</svg>
