<?xml version="1.0" standalone="no"?>
<!DOCTYPE svg PUBLIC "-//W3C//DTD SVG 20010904//EN"
 "http://www.w3.org/TR/2001/REC-SVG-20010904/DTD/svg10.dtd">
<svg version="1.0" xmlns="http://www.w3.org/2000/svg"
 width="738.000000pt" height="674.000000pt" viewBox="0 0 738.000000 674.000000"
 preserveAspectRatio="xMidYMid meet">
<metadata>
Created by potrace 1.16, written by Peter Selinger 2001-2019
</metadata>
<g transform="translate(0.000000,674.000000) scale(0.100000,-0.100000)"
fill="#000000" stroke="none">
<path d="M3610 6576 c-355 -79 -446 -546 -147 -752 208 -143 501 -66 613 162
120 244 -34 543 -305 594 -66 12 -91 12 -161 -4z"/>
<path d="M2530 6557 c-71 -36 -91 -145 -46 -243 24 -51 323 -456 644 -872
l164 -213 -2 -1152 c-2 -1035 -1 -1157 14 -1202 35 -110 88 -153 172 -140 47
7 83 35 110 86 42 83 44 105 44 767 l0 632 70 0 70 0 0 -639 c0 -613 1 -642
20 -705 27 -87 69 -132 132 -141 72 -11 115 15 153 90 l30 60 3 1175 3 1175
70 90 c210 266 727 966 742 1003 9 23 17 66 17 95 0 151 -152 197 -277 83 -24
-23 -171 -210 -327 -416 l-283 -375 -354 0 -354 0 -280 372 c-154 205 -293
386 -310 404 -61 64 -167 95 -225 66z"/>
<path d="M1343 5746 c-104 -34 -194 -114 -241 -214 -24 -50 -27 -70 -27 -157
0 -93 2 -105 32 -166 39 -80 111 -150 191 -187 50 -24 69 -27 157 -27 88 0
107 3 157 27 80 37 152 108 191 187 29 61 32 74 32 166 0 92 -3 105 -32 166
-39 80 -111 150 -191 187 -69 31 -201 40 -269 18z"/>
<path d="M394 5739 c-16 -5 -41 -20 -55 -35 -21 -22 -24 -35 -24 -97 1 -49 6
-83 18 -105 19 -34 457 -622 633 -849 l103 -133 3 -1087 c3 -941 5 -1093 18
-1123 33 -78 63 -100 139 -100 61 0 103 32 135 100 20 44 21 62 26 655 l5 610
60 0 60 0 5 -605 c6 -675 5 -667 76 -730 30 -26 43 -30 90 -30 50 0 59 4 85
31 60 64 63 88 67 586 3 417 4 452 20 451 46 -3 92 15 120 46 58 66 57 57 57
726 l0 615 -23 57 c-31 76 -105 156 -179 193 l-58 30 -321 3 -322 3 -253 337
c-140 185 -269 354 -288 375 -57 63 -136 94 -197 76z"/>
<path d="M5845 5340 c-263 -88 -350 -415 -165 -623 35 -38 72 -67 118 -89 62
-31 74 -33 167 -33 93 0 105 2 166 32 80 39 150 111 187 191 24 50 27 69 27
157 0 88 -3 107 -27 157 -38 81 -108 152 -186 189 -87 42 -198 49 -287 19z"/>
<path d="M6951 5340 c-73 -17 -111 -59 -387 -425 l-271 -360 -324 -5 -324 -5
-63 -34 c-77 -42 -125 -94 -166 -180 l-31 -66 -3 -590 c-3 -531 -1 -596 14
-654 23 -87 59 -126 129 -142 l54 -12 3 -446 c4 -491 7 -516 67 -580 26 -28
35 -31 89 -31 70 0 100 21 135 98 22 46 22 56 27 656 l5 610 45 -1 c25 0 53
-1 63 -2 16 -1 17 -36 17 -585 0 -557 1 -587 20 -649 29 -93 69 -127 151 -127
51 0 64 4 85 25 62 62 59 -6 64 1195 l5 1095 120 155 c257 332 596 790 615
832 22 49 26 131 7 167 -25 50 -85 75 -146 61z"/>
<path d="M2530 2360 l0 -260 -1110 0 -1110 0 0 -960 0 -960 3390 0 3390 0 0
755 0 755 -1110 0 -1110 0 0 465 0 465 -1170 0 -1170 0 0 -260z m2220 -960 l0
-1100 -1050 0 -1050 0 0 1100 0 1100 1050 0 1050 0 0 -1100z m-2220 -260 l0
-840 -1052 0 -1053 0 2 827 c2 456 3 834 3 841 0 9 217 12 1050 12 l1050 0 0
-840z m4448 -202 l2 -638 -1055 0 -1055 0 0 633 c0 349 3 637 7 641 4 4 478 6
1053 4 l1045 -3 3 -637z"/>
<path d="M3628 1942 l-188 -66 0 -78 0 -78 28 6 c15 4 60 17 100 30 l72 22 0
-329 0 -329 105 0 105 0 0 445 c0 418 -1 445 -17 444 -10 -1 -102 -31 -205
-67z"/>
<path d="M1370 1661 c-116 -36 -206 -138 -212 -243 l-3 -43 98 -3 c73 -2 98 1
101 10 3 7 7 25 10 40 3 14 18 40 32 57 21 26 33 31 67 31 64 -1 97 -36 97
-105 0 -67 -51 -141 -225 -325 l-165 -175 0 -67 0 -68 310 0 310 0 0 80 0 80
-170 0 c-93 0 -170 3 -170 8 0 4 46 57 102 117 204 221 242 302 206 442 -16
67 -86 136 -157 157 -56 17 -186 20 -231 7z"/>
<path d="M5810 1381 c-90 -28 -164 -94 -185 -165 -8 -27 -15 -53 -15 -58 0 -4
47 -8 104 -8 102 0 104 0 110 25 12 48 115 73 163 40 31 -22 45 -78 30 -123
-16 -49 -62 -72 -144 -72 l-63 0 0 -75 0 -75 68 0 c111 0 162 -38 162 -123 0
-31 -7 -46 -34 -73 -28 -28 -41 -34 -77 -34 -58 0 -108 30 -116 70 l-5 30
-104 0 -104 0 0 -27 c0 -45 44 -127 86 -162 116 -95 358 -93 472 5 126 108
113 302 -25 373 l-35 17 39 27 c66 46 88 90 88 171 0 117 -61 196 -177 231
-54 16 -194 19 -238 6z"/>
</g>
</svg>
