<?xml version="1.0" standalone="no"?>
<!DOCTYPE svg PUBLIC "-//W3C//DTD SVG 20010904//EN"
 "http://www.w3.org/TR/2001/REC-SVG-20010904/DTD/svg10.dtd">
<svg version="1.0" xmlns="http://www.w3.org/2000/svg"
 width="860.000000pt" height="736.000000pt" viewBox="0 0 860.000000 736.000000"
 preserveAspectRatio="xMidYMid meet">
<metadata>
Created by potrace 1.16, written by Peter Selinger 2001-2019
</metadata>
<g transform="translate(0.000000,736.000000) scale(0.100000,-0.100000)"
fill="#000000" stroke="none">
<path d="M601 7064 c-173 -46 -324 -203 -360 -374 -9 -42 -11 -760 -9 -2945
l3 -2890 27 -75 c67 -184 204 -316 405 -393 l58 -22 2705 -3 c1488 -1 2715 0
2727 3 40 9 88 61 163 175 l74 112 36 -106 c20 -58 48 -118 61 -132 52 -56 31
-54 665 -54 659 0 656 0 795 71 145 75 260 209 310 360 l24 74 0 2525 0 2525
-26 72 c-57 155 -170 283 -314 354 -139 68 -142 69 -865 69 l-646 0 -44 -22
c-114 -58 -120 -223 -10 -291 35 -22 36 -22 700 -27 l665 -5 51 -27 c59 -31
108 -84 138 -147 l21 -46 0 -2460 0 -2460 -24 -52 c-27 -61 -93 -126 -159
-156 -46 -22 -56 -22 -542 -22 l-495 0 -72 214 c-40 118 -80 223 -90 233 -27
30 -88 58 -125 58 -19 0 -54 -10 -78 -23 -40 -19 -62 -47 -193 -242 -81 -121
-155 -226 -164 -233 -14 -10 -295 -12 -1370 -12 -744 0 -1360 3 -1368 6 -13 5
-15 52 -15 349 0 339 0 342 -23 376 -29 43 -92 79 -137 79 -50 0 -113 -32
-141 -71 -24 -34 -24 -34 -29 -384 l-5 -350 -1065 0 -1065 0 -47 22 c-66 30
-132 95 -159 156 -19 43 -23 74 -27 182 l-4 131 38 33 c67 60 173 97 361 127
72 12 217 18 538 24 242 4 469 13 504 19 35 6 86 23 115 38 71 38 175 146 209
215 60 126 57 -13 57 2306 l0 2122 190 0 190 0 0 -272 0 -271 26 -45 c75 -127
263 -99 304 46 5 21 10 147 10 290 l0 252 199 0 199 0 142 -212 c78 -117 155
-225 171 -240 53 -50 140 -58 206 -18 18 11 88 105 181 243 l152 226 328 3
c323 3 327 3 365 27 109 68 99 239 -17 292 -38 17 -72 19 -418 19 -243 0 -387
-4 -405 -11 -45 -17 -70 -45 -174 -201 -55 -82 -103 -148 -107 -148 -4 0 -52
68 -107 151 -55 83 -115 163 -134 178 l-34 26 -634 3 -633 2 0 108 c0 60 -7
135 -15 171 -43 182 -187 329 -370 377 -76 21 -1317 19 -1394 -2z m1346 -337
c36 -19 69 -55 82 -90 15 -40 15 -4784 0 -4824 -14 -38 -46 -71 -91 -94 -34
-18 -62 -19 -363 -19 l-325 0 0 333 c0 301 -2 336 -19 372 -48 105 -174 135
-258 62 -62 -55 -63 -60 -63 -440 l0 -344 -107 -22 c-60 -12 -134 -31 -165
-42 -32 -10 -62 -19 -68 -19 -7 0 -9 779 -8 2513 l3 2513 27 41 c47 71 59 73
377 73 l281 0 0 -357 0 -356 25 -42 c57 -99 211 -105 278 -11 22 31 22 37 25
398 2 336 4 367 20 372 9 3 85 3 169 1 107 -2 159 -8 180 -18z"/>
<path d="M5554 6391 c-86 -39 -120 -147 -73 -231 75 -133 275 -106 309 43 17
77 -17 147 -90 185 -53 27 -92 28 -146 3z"/>
<path d="M6303 5410 c-95 -22 -149 -114 -123 -210 9 -33 33 -65 107 -141 l96
-99 -95 -98 c-104 -106 -124 -144 -113 -213 13 -73 91 -139 165 -139 55 0 101
29 194 120 l92 90 74 -76 c95 -96 152 -134 202 -134 116 0 202 111 167 217 -8
25 -44 71 -107 135 l-95 98 95 98 c121 124 138 171 99 259 -27 58 -83 94 -149
95 -67 0 -92 -15 -197 -121 l-89 -91 -101 99 c-94 93 -109 103 -175 116 -8 1
-30 -1 -47 -5z"/>
<path d="M4367 3706 c-75 -28 -107 -76 -107 -159 0 -39 6 -63 23 -88 26 -39
97 -79 142 -79 50 0 117 40 142 85 77 137 -55 295 -200 241z"/>
<path d="M5012 3619 c-113 -56 -123 -215 -18 -287 95 -65 226 -15 256 98 27
100 -57 210 -162 210 -18 0 -52 -10 -76 -21z"/>
<path d="M7440 3478 c-74 -38 -110 -114 -89 -190 21 -78 108 -137 184 -125
161 26 198 239 56 314 -55 29 -95 29 -151 1z"/>
<path d="M3755 3438 c-98 -53 -128 -155 -73 -245 41 -68 144 -96 216 -59 122
63 121 242 -1 300 -40 18 -112 21 -142 4z"/>
<path d="M5652 3377 c-18 -5 -48 -27 -66 -47 -107 -119 2 -305 161 -275 50 9
119 78 128 128 16 81 -22 153 -100 188 -44 21 -74 22 -123 6z"/>
<path d="M6880 3107 c-106 -56 -119 -193 -27 -274 119 -104 308 14 267 167
-30 110 -141 160 -240 107z"/>
<path d="M6244 3071 c-100 -46 -131 -169 -62 -256 26 -33 91 -64 134 -65 51 0
115 40 141 90 38 72 28 138 -30 198 -50 52 -115 64 -183 33z"/>
<path d="M2550 3027 c-51 -27 -90 -90 -90 -147 0 -96 89 -177 184 -166 89 10
148 77 148 167 -1 76 -33 124 -105 154 -50 21 -86 19 -137 -8z"/>
<path d="M3246 3040 c-39 -12 -93 -66 -107 -108 -18 -55 -3 -117 39 -161 74
-77 177 -77 246 0 116 127 -11 319 -178 269z"/>
<path d="M4699 2866 c-284 -60 -507 -272 -585 -557 -27 -97 -25 -281 4 -383
39 -136 94 -229 197 -331 103 -103 168 -145 292 -188 122 -42 287 -49 417 -18
337 81 577 382 577 726 0 149 -22 240 -87 365 -92 177 -274 322 -469 375 -83
22 -263 28 -346 11z m334 -369 c255 -126 313 -454 116 -662 -183 -193 -500
-166 -648 56 -107 160 -90 373 41 515 90 97 184 136 324 131 83 -3 99 -7 167
-40z"/>
</g>
</svg>
