<?xml version="1.0" encoding="UTF-8" standalone="no"?>
<!-- Created with Inkscape (http://www.inkscape.org/) -->

<svg
   width="121.02455mm"
   height="148.69583mm"
   viewBox="0 0 121.02455 148.69583"
   version="1.1"
   id="svg448"
   inkscape:version="1.1.1 (3bf5ae0d25, 2021-09-20)"
   sodipodi:docname="tier_demon.svg"
   xmlns:inkscape="http://www.inkscape.org/namespaces/inkscape"
   xmlns:sodipodi="http://sodipodi.sourceforge.net/DTD/sodipodi-0.dtd"
   xmlns="http://www.w3.org/2000/svg"
   xmlns:svg="http://www.w3.org/2000/svg">
  <sodipodi:namedview
     id="namedview450"
     pagecolor="#ffffff"
     bordercolor="#666666"
     borderopacity="1.0"
     inkscape:pageshadow="2"
     inkscape:pageopacity="0.0"
     inkscape:pagecheckerboard="0"
     inkscape:document-units="mm"
     showgrid="false"
     fit-margin-top="0"
     fit-margin-left="0"
     fit-margin-right="0"
     fit-margin-bottom="0"
     inkscape:zoom="0.48996914"
     inkscape:cx="385.73858"
     inkscape:cy="289.81417"
     inkscape:window-width="1366"
     inkscape:window-height="719"
     inkscape:window-x="0"
     inkscape:window-y="25"
     inkscape:window-maximized="1"
     inkscape:current-layer="layer1" />
  <defs
     id="defs445" />
  <g
     inkscape:label="Capa 1"
     inkscape:groupmode="layer"
     id="layer1"
     transform="translate(-2.4429769,-2.8555764)">
    <path
       d="m 72.473555,3.526937 c 0,2.6175618 3.793322,4.9666559 13.787268,8.590973 5.325242,1.879276 11.088179,4.094138 12.693047,4.832422 4.44986,2.147744 9.7751,7.047284 11.16112,10.403135 2.48025,5.973411 -0.65653,14.698618 -7.87844,22.014369 -3.355629,3.355849 -4.303966,3.892787 -7.148957,4.161254 -1.823711,0.201351 -4.012167,0.805403 -4.88755,1.476573 -7.732542,5.637827 -10.066895,7.047283 -13.714321,8.255389 -6.638314,2.147743 -12.547144,0.604052 -16.778158,-4.295486 l -1.823714,-2.147744 0.437692,4.899538 c 0.510639,5.772061 -0.291794,7.38287 -5.033449,9.664847 -5.689985,2.684675 -10.066895,1.946399 -20.060843,-3.624318 -3.428579,-1.879274 -5.106395,-2.416211 -6.638314,-2.147743 -1.823714,0.335585 -2.5532,-0.134223 -6.346521,-4.094136 -7.659594,-7.919805 -9.045617,-12.01394 -5.90883,-17.786001 1.531919,-2.88603 2.115507,-3.221614 12.182402,-7.785569 8.097286,-3.624318 10.942277,-5.302242 12.25535,-6.980167 2.188457,-3.020265 2.042559,-3.959903 -0.437689,-1.812159 -1.896661,1.677925 -3.866272,2.617563 -20.133793,9.262144 -11.1611214,4.563955 -15.7568781,9.12791 -15.7568781,15.504024 0.072953,4.765305 2.4072998,8.389622 9.9209971,15.101321 3.793324,3.422966 6.85716,6.376105 6.85716,6.510347 0,0.201345 -0.656536,0.402708 -1.458969,0.536932 -1.386022,0.201364 -1.313073,0.335587 0.510639,2.214867 4.9605,4.966646 9.702153,11.208539 9.702153,12.752231 0,0.738276 -3.42858,0.268466 -6.34652,-1.00676 -1.750766,-0.671174 -4.668706,-2.214867 -6.492419,-3.422973 -2.844991,-1.745038 -3.209734,-1.879261 -2.553197,-0.671155 0.510639,0.738276 1.167176,1.40945 1.531919,1.40945 1.094227,0 0.875382,2.080624 -0.364743,3.355852 -1.02128,1.006742 -0.875383,1.40945 1.386021,4.094127 3.282684,4.027026 6.638315,6.241897 13.422529,9.060789 5.544086,2.3491 9.629203,5.16802 9.629203,6.64458 0,0.40271 -0.802433,1.47658 -1.823712,2.3491 -0.948331,0.80541 -1.604868,1.81215 -1.386022,2.08064 0.218844,0.33557 -0.145907,1.27521 -0.802434,2.21485 -1.094228,1.54369 -1.094228,1.81216 0.291794,4.29549 2.553198,4.56395 5.471139,6.24187 12.474195,7.04729 0.729486,0.13413 1.167177,1.07386 1.313073,3.02026 0.145907,1.87926 0.58359,2.81891 1.313074,2.81891 0.58359,0 1.02128,0.67116 1.02128,1.47656 0.07295,2.01353 3.136787,5.23514 5.033448,5.23514 0.802434,0 2.115508,0.8054 2.99089,1.81216 1.313073,1.61081 1.531918,2.34908 1.094228,5.57072 -0.364743,3.02026 -0.218847,3.95988 0.729484,4.69818 0.94833,0.73829 1.458971,0.60405 3.209736,-0.93965 1.823712,-1.61081 2.334351,-1.74503 3.647424,-1.14098 1.313073,0.67117 1.53192,0.60405 1.53192,-0.60405 0,-3.22162 2.042558,-6.04053 5.39819,-7.38288 2.115508,-0.8054 3.720375,-2.0135 4.449861,-3.28873 0.583588,-1.14098 2.91794,-3.28873 5.033446,-4.69818 5.106398,-3.4901 7.148954,-6.17478 6.857161,-8.92657 -0.145906,-1.87926 0.07295,-2.28197 1.458971,-2.41621 0.875382,-0.13413 1.604866,-0.40269 1.604866,-0.67116 0,-0.26846 -1.823713,-2.34911 -4.085117,-4.63107 l -4.012167,-4.22838 2.4073,-3.82566 c 2.334353,-3.75855 2.699096,-3.9599 7.513699,-5.43647 2.844991,-0.80542 7.003052,-2.28199 9.337412,-3.288732 3.79332,-1.61082 4.23101,-2.013521 4.59576,-4.362614 0.29179,-1.409451 1.09422,-3.221609 1.8237,-3.959904 0.94834,-1.073864 1.38603,-2.550435 1.38603,-4.966646 0,-1.879281 0.51064,-4.966667 1.09423,-6.778825 1.53192,-4.765301 1.45897,-4.832423 -1.96961,-0.805397 -3.93922,4.563957 -4.37691,4.899525 -9.921,7.315737 -5.617042,2.416211 -7.440748,2.147745 -7.440748,-1.073864 0,-1.87928 0.437685,-2.483332 2.042553,-3.28873 1.167184,-0.536932 2.917941,-2.147746 3.939225,-3.557196 6.12768,-8.590981 14.44381,-21.611674 18.82072,-29.732829 4.88755,-8.926561 5.47113,-13.154931 2.48024,-18.658523 C 117.55574,22.11834 108.80192,17.084567 89.251712,11.111157 79.914303,8.2251251 78.309435,7.5539548 75.61034,5.0035104 72.984194,2.5872989 72.473555,2.3859486 72.473555,3.526937 Z m -6.638316,74.499849 c 4.085116,4.496837 -0.656536,9.799088 -7.805491,8.792328 -2.917941,-0.335587 -5.981779,-2.953143 -5.981779,-4.966666 0,-1.946382 1.823712,-4.496836 3.939219,-5.302233 2.844993,-1.073863 8.243184,-0.335587 9.848051,1.476571 z m 19.039563,15.235565 c 0,3.221612 -4.814603,5.503581 -11.452916,5.503581 -4.085119,0 -4.9605,-0.805401 -2.990891,-2.483319 3.136786,-2.617573 7.294853,-4.027023 12.109455,-4.161266 1.750763,-0.06715 2.334352,0.201364 2.334352,1.141004 z m -36.839003,2.751798 c 4.376913,2.281966 1.458972,4.362591 -4.085115,2.818899 -3.501531,-1.006741 -4.814604,-2.349085 -3.574478,-3.758539 1.094226,-1.275226 4.231015,-0.872518 7.659593,0.93964 z"
       id="path20"
       style="fill:#000000;stroke:none;stroke-width:0.0699721" />
  </g>
</svg>
