<?xml version="1.0" encoding="UTF-8" standalone="no"?>
<!-- Created with Inkscape (http://www.inkscape.org/) -->

<svg
   width="199.76105mm"
   height="141.64268mm"
   viewBox="0 0 199.76105 141.64268"
   version="1.1"
   id="svg276"
   sodipodi:docname="tier_dragon.svg"
   inkscape:version="1.1.1 (3bf5ae0d25, 2021-09-20)"
   xmlns:inkscape="http://www.inkscape.org/namespaces/inkscape"
   xmlns:sodipodi="http://sodipodi.sourceforge.net/DTD/sodipodi-0.dtd"
   xmlns="http://www.w3.org/2000/svg"
   xmlns:svg="http://www.w3.org/2000/svg">
  <sodipodi:namedview
     id="namedview278"
     pagecolor="#ffffff"
     bordercolor="#666666"
     borderopacity="1.0"
     inkscape:pageshadow="2"
     inkscape:pageopacity="0.0"
     inkscape:pagecheckerboard="0"
     inkscape:document-units="mm"
     showgrid="false"
     inkscape:zoom="0.48996914"
     inkscape:cx="377.5748"
     inkscape:cy="148.98898"
     inkscape:window-width="1366"
     inkscape:window-height="719"
     inkscape:window-x="0"
     inkscape:window-y="25"
     inkscape:window-maximized="1"
     inkscape:current-layer="layer1"
     fit-margin-top="0"
     fit-margin-left="0"
     fit-margin-right="0"
     fit-margin-bottom="0" />
  <defs
     id="defs273" />
  <g
     inkscape:label="Capa 1"
     inkscape:groupmode="layer"
     id="layer1"
     transform="translate(-4.8274228,-4.2436975)">
    <path
       d="M 139.05036,8.5507243 C 135.12042,10.876532 128.08789,15.95885 123.3306,19.749063 l -8.48041,6.977422 -0.72393,-4.134785 c -0.41368,-2.239661 -1.24104,-5.513015 -1.96497,-7.149695 l -1.24104,-2.928796 -0.62052,4.22091 c -1.34445,8.01112 -3.61968,12.145881 -8.58381,15.505373 -2.482075,1.722831 -5.584659,4.737761 -6.722276,6.719007 -2.792327,4.565469 -5.998332,7.494277 -8.170141,7.494277 -1.241036,0 -1.654714,1.033684 -1.861552,4.307054 -0.103426,2.325807 0,4.307053 0.310258,4.307053 1.758131,0 5.791495,-2.239685 6.205173,-3.531784 0.930776,-2.411954 3.412842,-3.617931 8.583818,-4.220907 2.68891,-0.344586 5.68808,-0.947562 6.72227,-1.292124 1.55129,-0.516854 1.75813,-0.08619 1.75813,2.928784 0,5.599177 -4.13678,10.767646 -7.34278,9.044815 -0.5171,-0.258415 -0.93078,0.344562 -0.93078,1.292124 0,1.033684 1.13761,2.239661 2.99917,3.01493 3.206,1.464392 4.2402,1.11983 4.2402,-1.37827 0,-1.981222 6.92911,-9.30323 8.68724,-9.30323 2.06839,0 5.37781,-3.617907 7.34279,-8.011107 1.24103,-2.756515 2.37864,-4.048614 3.7231,-4.048614 2.27523,0 5.06756,3.187199 5.06756,5.685299 0,2.498076 -6.20518,6.977423 -13.03087,9.475499 -5.99833,2.239685 -8.68724,4.737761 -8.68724,8.269546 0,1.292123 -1.24103,5.340737 -2.68891,9.044815 -3.61968,8.872522 -4.2402,17.22819 -2.06838,25.325443 0.93077,3.531788 2.37865,7.494278 3.30942,8.958668 1.55129,2.41195 1.44787,2.67036 -0.82736,4.13478 -3.82652,2.67037 -13.341116,6.28827 -19.236028,7.49425 -5.377817,1.03371 -18.822355,0.77527 -23.579651,-0.43071 -1.964972,-0.51683 -2.37865,-0.0862 -3.412846,3.44564 -0.620518,2.15354 -2.999168,6.46059 -5.274397,9.56167 -3.309425,4.56547 -3.723103,5.51303 -2.171809,5.51303 2.068392,0 14.478734,-4.04864 16.443706,-5.34076 0.723936,-0.60298 1.241034,-0.60298 1.241034,-0.0862 0,1.20595 -8.89408,5.6853 -14.995833,7.5804 -4.447038,1.46439 -5.998332,1.55054 -15.719768,0.60298 -21.718101,-1.98122 -32.5771525,-9.82006 -32.6805698,-23.43035 -0.103426,-7.75269 2.9991648,-13.00729 9.8248528,-16.711348 2.275233,-1.205977 3.412847,-1.292123 6.825692,-0.602976 4.653879,1.119831 6.51543,0.689123 11.272726,-2.239685 1.861552,-1.119831 5.377818,-2.756516 7.756467,-3.617907 l 4.447038,-1.636685 -5.170976,-0.603 c -2.792328,-0.430684 -8.170142,-0.689123 -11.789825,-0.77527 -5.791495,-0.0862 -6.72227,0.172391 -8.89408,2.239686 -1.241036,1.205977 -3.723104,2.842637 -5.377818,3.617906 -3.92994,1.636685 -9.4111747,6.891299 -11.4795666,10.767649 -1.8615515,3.79019 -2.068389,13.00727 -0.4136778,17.9173 1.8615515,5.16847 7.2393654,11.37062 13.1342804,15.07468 10.96247,6.97742 30.715602,9.13096 44.987496,4.9962 15.719768,-4.47935 35.576316,-14.12714 45.194333,-21.79369 l 3.30942,-2.58424 5.58466,4.30705 c 8.79066,6.8913 12.82402,8.26955 25.64804,8.70025 12.82402,0.43071 21.92494,-1.11983 28.33695,-4.8239 5.48124,-3.1872 7.75647,-7.06355 7.75647,-13.61029 0,-4.2209 -0.5171,-5.85756 -2.89575,-9.04478 -9.41118,-12.318158 -28.85405,-16.366797 -42.19517,-8.87252 l -3.61968,2.067368 0.72393,-1.8951 c 2.17182,-5.168444 -0.51709,-10.336914 -6.41201,-12.404306 -5.89491,-2.067369 -7.23936,-6.80513 -2.48206,-8.958669 1.75813,-0.775269 2.58548,-0.51683 5.27439,1.636685 2.68891,2.239661 3.20601,2.411954 3.7231,1.11983 0.31027,-0.775269 1.24104,-2.067368 1.86156,-2.756515 0.72393,-0.689123 1.55129,-2.670369 1.96497,-4.307029 0.31026,-1.722832 1.34445,-3.962493 2.27523,-5.082323 l 1.75813,-1.981246 1.96497,2.670368 c 1.13762,1.464392 2.37865,4.479323 2.68891,6.719008 0.72394,3.7902 1.03419,4.134761 4.13678,4.651615 4.55046,0.775269 9.30776,4.651591 10.75563,8.70023 0.93078,2.584222 1.55129,3.187223 2.79233,2.756515 6.10175,-2.239661 13.54796,0.0862 16.44371,5.082323 1.1376,1.895099 1.6547,2.153514 3.3094,1.464392 3.51628,-1.550539 8.79069,-1.033684 11.78984,1.292123 3.10258,2.41193 6.51543,8.527961 7.44621,13.524131 1.13762,5.6853 2.48207,2.41195 3.206,-7.58042 1.5513,-23.602633 -7.13593,-46.688416 -24.51042,-64.950315 l -3.51628,-3.617931 -3.30941,5.599178 c -5.68808,9.389376 -13.2377,13.007283 -26.9925,13.093429 -7.03253,0 -8.89408,0.344561 -11.58299,1.8951 -3.82652,2.411954 -4.65387,2.4981 -3.206,0.17239 2.17181,-3.273369 7.13594,-4.996176 14.16847,-4.910054 5.37782,0.0862 7.03253,-0.258415 9.92828,-2.153515 3.61968,-2.239661 6.51543,-8.011106 5.37781,-10.853768 -0.93077,-2.498101 4.7573,-10.595354 9.61802,-13.610284 l 4.44704,-2.842662 -2.89575,-0.947537 c -8.17014,-2.756514 -18.82235,-1.636681 -26.26856,2.756515 -1.55129,0.861416 -3.10258,1.636685 -3.51626,1.636685 -1.75813,0 0.5171,-11.284483 3.10259,-15.4192531 1.44787,-2.4119467 2.27522,-4.3931904 1.86155,-4.3931904 -0.5171,0.086146 -4.03337,1.9812437 -8.06673,4.3070512 z M 99.544103,39.5615 c -0.310258,0.947538 -1.241033,1.722807 -1.964969,1.722807 -1.758134,0 -1.861551,-1.033684 -0.206852,-2.411954 1.861552,-1.550539 2.792328,-1.292099 2.171809,0.689147 z m 60.603847,66.84542 c 3.61968,2.49809 5.06755,6.97741 3.206,9.82007 -1.65471,2.49808 -8.79066,5.16845 -14.27189,5.16845 -8.06673,0 -15.30609,-3.7902 -19.23603,-10.25077 -1.5513,-2.41195 -1.5513,-2.67037 0.31025,-3.53179 4.03337,-1.80894 13.13428,-3.35948 19.95997,-3.35948 5.89492,-0.0862 7.34279,0.25842 10.0317,2.15352 z"
       id="path4"
       style="fill:#000000;stroke:none;stroke-width:0.0943858" />
  </g>
</svg>
