<?xml version="1.0" encoding="UTF-8" standalone="no"?>
<!-- Created with Inkscape (http://www.inkscape.org/) -->

<svg
   width="175.24097mm"
   height="153.58598mm"
   viewBox="0 0 175.24097 153.58598"
   version="1.1"
   id="svg583"
   inkscape:version="1.1.1 (3bf5ae0d25, 2021-09-20)"
   sodipodi:docname="tier_tiger.svg"
   xmlns:inkscape="http://www.inkscape.org/namespaces/inkscape"
   xmlns:sodipodi="http://sodipodi.sourceforge.net/DTD/sodipodi-0.dtd"
   xmlns="http://www.w3.org/2000/svg"
   xmlns:svg="http://www.w3.org/2000/svg">
  <sodipodi:namedview
     id="namedview585"
     pagecolor="#ffffff"
     bordercolor="#666666"
     borderopacity="1.0"
     inkscape:pageshadow="2"
     inkscape:pageopacity="0.0"
     inkscape:pagecheckerboard="0"
     inkscape:document-units="mm"
     showgrid="false"
     fit-margin-top="0"
     fit-margin-left="0"
     fit-margin-right="0"
     fit-margin-bottom="0"
     inkscape:zoom="0.48996914"
     inkscape:cx="381.65669"
     inkscape:cy="420.43465"
     inkscape:window-width="1366"
     inkscape:window-height="719"
     inkscape:window-x="0"
     inkscape:window-y="25"
     inkscape:window-maximized="1"
     inkscape:current-layer="layer1" />
  <defs
     id="defs580" />
  <g
     inkscape:label="Capa 1"
     inkscape:groupmode="layer"
     id="layer1"
     transform="translate(-3.9908635,-37.090872)">
    <path
       d="m 32.751008,40.761215 c -4.221274,10.437536 -5.36216,17.090031 -4.107188,23.627843 1.369065,6.767164 0.684532,8.25827 -3.536745,8.25827 -2.852211,0 -1.254972,4.129134 2.966305,7.570069 l 3.536745,2.867441 -5.133985,4.587924 c -2.852215,2.523389 -7.529845,5.734913 -10.496147,7.111313 -3.080391,1.376367 -5.476249,3.096851 -5.476249,3.899724 0,0.6882 1.59724,2.638061 3.536744,4.358541 l 3.650834,2.98215 -2.966301,5.3908 c -2.966305,5.50553 -8.8989082,20.98979 -10.382059,26.83937 -0.6845324,3.09686 -0.5704431,3.09686 2.1676832,1.83519 1.59724,-0.6882 3.0803908,-1.03228 3.4226554,-0.8029 0.2281914,0.34411 -0.5704431,4.35854 -1.7113293,9.06117 -2.5099478,9.51994 -2.9663016,21.10447 -1.026797,26.03648 l 1.2549755,3.21155 2.8522122,-6.079 c 1.483151,-3.21155 3.19448,-5.96432 3.764923,-5.96432 0.456354,0 1.483151,2.40868 2.281773,5.39083 1.369061,5.73491 7.758017,18.69581 9.127082,18.69581 0.342265,0 2.16768,-1.60578 4.107188,-3.55564 2.966301,-3.09685 8.328461,-6.76719 10.15388,-6.76719 0.342265,0 0.570443,0.57349 0.570443,1.37636 0,0.6882 0.798619,2.17928 1.825416,3.32626 1.711329,1.83516 2.053593,1.72046 6.160781,-2.40868 2.509948,-2.52336 7.07349,-5.3908 10.952502,-6.88187 7.301665,-2.63806 6.9594,-2.86747 10.838409,4.35851 1.369065,2.40869 4.449456,4.58793 10.724327,7.57011 4.791717,2.29394 9.355259,4.12913 10.039791,4.01443 0.798618,0 5.133985,-1.94987 9.811613,-4.24384 6.61714,-3.32627 8.89891,-5.16142 10.9525,-8.83177 2.96631,-5.3908 4.56354,-5.5055 13.9188,-1.14699 3.87902,1.72049 6.84532,4.01446 8.10031,6.1937 2.39585,4.35855 3.08039,4.35855 5.59033,0.34412 1.0268,-1.72048 2.0536,-3.32626 2.16766,-3.55564 0.57045,-0.6882 7.87212,4.24381 10.61026,7.22599 2.16769,2.29394 3.08039,2.63803 4.33534,1.60574 2.28179,-1.83515 5.36218,-8.37294 7.87212,-16.17242 1.1409,-3.55564 2.39585,-6.53782 2.8522,-6.53782 0.45639,0 2.0536,2.75277 3.65084,5.96432 l 2.85223,6.079 1.25496,-3.21155 c 1.9395,-4.93201 1.48315,-15.48426 -1.0268,-25.46298 -1.25495,-4.93204 -2.05359,-9.29056 -1.71131,-9.51997 0.34226,-0.34408 1.9395,0 3.53675,0.80291 2.50994,1.14696 2.96629,1.03228 2.39585,-0.34412 -0.34226,-0.91758 -1.25499,-3.89972 -1.9395,-6.65249 -0.79864,-2.75277 -3.65084,-9.97875 -6.50304,-16.05775 l -5.24808,-11.12571 3.65084,-2.98215 c 1.9395,-1.72048 3.53674,-3.670341 3.53674,-4.358541 0,-0.802873 -2.39588,-2.523357 -5.36218,-3.899724 -3.08039,-1.3764 -7.75802,-4.587924 -10.61022,-6.996608 l -5.13399,-4.473218 3.76494,-3.555641 c 4.44944,-4.129135 4.6776,-6.652491 0.7986,-7.570102 -2.73813,-0.688168 -2.8522,-1.032284 -2.05359,-5.046713 1.48315,-6.767188 0.7986,-14.107873 -1.8254,-20.875063 -4.10719,-10.666934 -3.0804,-10.437536 -16.88514,-3.670343 l -12.32155,6.079004 -10.61023,-4.129135 -10.61024,-4.129135 -5.019893,3.096851 -5.133985,2.982152 -5.019898,-2.982152 -5.133985,-2.982152 -10.724323,4.014436 -10.724324,4.014436 -11.865206,-5.73491 c -6.503049,-3.096851 -12.321563,-5.73491 -12.77792,-5.73491 -0.456354,0 -1.597237,1.720474 -2.509948,3.670343 z m 31.944794,55.284522 c 3.536745,1.491073 7.187579,5.849623 5.932604,7.225983 -1.140883,1.03229 -7.415754,-0.91758 -9.012994,-2.86744 -2.281773,-2.638059 -3.422656,-5.964321 -1.939505,-5.964321 0.570443,0 2.852212,0.6882 5.019895,1.605778 z m 58.527428,1.3764 c -1.93951,4.129133 -11.18068,8.487653 -11.18068,5.161423 0,-2.06457 4.67763,-6.881907 7.18758,-7.340696 5.36216,-1.032284 5.36216,-1.032284 3.9931,2.179273 z"
       id="path44"
       style="fill:#000000;stroke:none;stroke-width:0.114393" />
  </g>
</svg>
