<?xml version="1.0" standalone="no"?>
<!DOCTYPE svg PUBLIC "-//W3C//DTD SVG 20010904//EN"
 "http://www.w3.org/TR/2001/REC-SVG-20010904/DTD/svg10.dtd">
<svg version="1.0" xmlns="http://www.w3.org/2000/svg"
 width="639.000000pt" height="766.000000pt" viewBox="0 0 639.000000 766.000000"
 preserveAspectRatio="xMidYMid meet">
<metadata>
Created by potrace 1.16, written by Peter Selinger 2001-2019
</metadata>
<g transform="translate(0.000000,766.000000) scale(0.100000,-0.100000)"
fill="#000000" stroke="none">
<path d="M5615 7150 c-38 -27 -106 -86 -152 -130 l-82 -81 -7 48 c-4 26 -12
64 -19 83 l-12 34 -6 -49 c-13 -93 -35 -141 -83 -180 -24 -20 -54 -55 -65 -78
-27 -53 -58 -87 -79 -87 -12 0 -16 -12 -18 -50 -1 -27 0 -50 3 -50 17 0 56 26
60 41 9 28 33 42 83 49 26 4 55 11 65 15 15 6 17 1 17 -34 0 -65 -40 -125 -71
-105 -5 3 -9 -4 -9 -15 0 -12 11 -26 29 -35 31 -17 41 -13 41 16 0 23 67 108
84 108 20 0 52 42 71 93 12 32 23 47 36 47 22 0 49 -37 49 -66 0 -29 -60 -81
-126 -110 -58 -26 -84 -55 -84 -96 0 -15 -12 -62 -26 -105 -35 -103 -41 -200
-20 -294 9 -41 23 -87 32 -104 15 -28 14 -31 -8 -48 -37 -31 -129 -73 -186
-87 -52 -12 -182 -9 -228 5 -19 6 -23 1 -33 -40 -6 -25 -29 -75 -51 -111 -32
-53 -36 -64 -21 -64 20 0 140 47 159 62 7 7 12 7 12 1 0 -14 -86 -66 -145 -88
-43 -17 -58 -18 -152 -7 -210 23 -315 114 -316 272 -1 90 29 151 95 194 22 14
33 15 66 7 45 -13 63 -8 109 26 18 13 52 32 75 42 l43 19 -50 7 c-27 5 -79 8
-114 9 -56 1 -65 -2 -86 -26 -12 -14 -36 -33 -52 -42 -38 -19 -91 -80 -111
-125 -18 -44 -20 -151 -4 -208 18 -60 70 -132 127 -175 106 -81 297 -106 435
-58 152 52 344 164 437 253 l32 30 54 -50 c85 -80 124 -96 248 -101 124 -5
212 13 274 56 53 37 75 82 75 158 0 49 -5 68 -28 105 -91 143 -279 190 -408
103 l-35 -24 7 22 c21 60 -5 120 -62 144 -57 24 -70 79 -24 104 17 9 25 6 51
-19 26 -26 31 -28 36 -13 3 9 12 24 18 32 7 8 15 31 19 50 3 20 13 46 22 59
l17 23 19 -31 c11 -17 23 -52 26 -78 7 -44 10 -48 40 -54 44 -9 90 -54 104
-101 9 -30 15 -37 27 -32 59 26 131 -1 159 -59 11 -22 16 -25 32 -17 34 18 85
12 114 -15 30 -28 63 -99 72 -157 11 -66 24 -28 31 88 15 274 -69 542 -237
754 l-34 42 -32 -65 c-55 -109 -128 -151 -261 -152 -68 0 -86 -4 -112 -22 -37
-28 -45 -29 -31 -2 21 38 69 58 137 57 52 -1 68 3 96 25 35 26 63 93 52 126
-9 29 46 123 93 158 l43 33 -28 11 c-79 32 -182 19 -254 -32 -15 -10 -30 -19
-34 -19 -17 0 5 131 30 179 14 28 22 51 18 51 -5 -1 -39 -23 -78 -50z m-382
-360 c-3 -11 -12 -20 -19 -20 -17 0 -18 12 -2 28 18 18 27 15 21 -8z m586
-776 c35 -29 49 -81 31 -114 -16 -29 -85 -60 -138 -60 -78 0 -148 44 -186 119
-15 28 -15 31 3 41 39 21 127 39 193 39 57 1 71 -3 97 -25z"/>
<path d="M230 6920 c0 -73 2 -80 20 -80 20 0 20 -7 20 -345 l0 -345 250 0 250
0 0 425 0 425 -270 0 -270 0 0 -80z m320 -340 c0 -143 0 -263 0 -267 0 -5 -12
-8 -27 -8 l-28 0 -3 268 -2 267 30 0 30 0 0 -260z"/>
<path d="M900 6575 l0 -425 110 0 110 0 0 350 0 350 30 0 30 0 0 -100 c0 -88
-3 -105 -22 -131 l-22 -30 22 -42 c20 -39 22 -55 22 -219 l0 -178 110 0 110 0
0 174 c0 152 -3 180 -20 221 -20 46 -20 46 0 90 17 38 20 65 20 204 l0 161
-250 0 -250 0 0 -425z"/>
<path d="M1540 6575 l0 -425 110 0 110 0 -3 80 -3 81 30 -3 31 -3 3 -77 3 -78
104 0 105 0 0 425 0 425 -245 0 -245 0 0 -425z m280 80 l0 -185 -32 0 -33 0 2
172 c1 95 3 179 3 186 0 7 13 12 30 12 l30 0 0 -185z"/>
<path d="M2170 6575 l0 -425 250 0 250 0 0 275 0 275 -110 0 -110 0 0 -195 0
-195 -30 0 -30 0 0 270 0 270 29 0 c28 0 30 -3 33 -42 l3 -43 108 -3 107 -3 0
121 0 120 -250 0 -250 0 0 -425z"/>
<path d="M2800 6575 l0 -425 244 0 243 0 7 60 c8 67 7 741 -1 770 -5 19 -16
20 -249 20 l-244 0 0 -425z m280 1 c0 -249 -1 -265 -19 -271 -10 -3 -26 -3
-35 1 -16 6 -17 28 -15 239 3 294 3 295 40 295 l29 0 0 -264z"/>
<path d="M3430 6575 l0 -425 110 0 110 0 1 133 c1 144 5 140 35 -30 l18 -103
113 0 113 0 0 425 0 425 -110 0 -110 0 -1 -147 c-1 -82 -3 -140 -6 -131 -2 10
-14 75 -26 145 l-22 128 -113 3 -112 3 0 -426z"/>
<path d="M240 5200 l0 -60 2940 0 2940 0 0 60 0 60 -2940 0 -2940 0 0 -60z"/>
<path d="M5410 4919 c0 -39 52 -74 189 -128 73 -28 152 -61 174 -72 61 -32
134 -105 153 -155 34 -89 -9 -219 -108 -328 -46 -50 -59 -58 -98 -62 -25 -3
-55 -12 -67 -22 -106 -84 -138 -105 -188 -123 -91 -32 -172 -9 -230 64 l-25
32 6 -73 c7 -86 -4 -110 -69 -144 -78 -40 -138 -29 -275 54 -47 28 -70 36 -91
32 -25 -5 -35 2 -87 61 -105 118 -124 179 -81 265 21 43 29 48 167 116 111 54
150 79 168 104 30 45 28 59 -6 27 -26 -25 -53 -39 -276 -138 -153 -68 -216
-136 -216 -231 1 -71 33 -125 136 -225 52 -51 94 -95 94 -97 0 -3 -9 -6 -20
-8 -19 -3 -18 -5 7 -33 68 -74 133 -167 133 -190 0 -11 -47 -4 -87 15 -24 10
-64 33 -89 51 -39 26 -44 28 -35 10 7 -11 16 -21 21 -21 15 0 12 -31 -5 -50
-14 -15 -12 -21 19 -61 45 -60 91 -93 184 -135 76 -35 132 -77 132 -99 0 -6
-11 -22 -25 -35 -13 -12 -22 -27 -19 -31 3 -5 -2 -19 -11 -33 -15 -23 -15 -27
4 -64 35 -68 75 -93 171 -105 10 -2 16 -16 18 -45 2 -28 8 -42 18 -42 8 0 14
-10 14 -22 1 -30 43 -78 69 -78 11 0 29 -12 41 -27 18 -24 21 -35 15 -83 -5
-45 -3 -59 10 -70 13 -11 20 -9 44 14 25 24 32 26 50 17 18 -10 21 -9 21 9 0
48 28 90 74 110 29 12 51 30 61 49 8 17 40 49 69 70 70 52 98 92 94 133 -2 28
1 34 20 36 12 2 22 6 22 10 0 4 -25 35 -56 69 l-55 63 33 57 c32 56 37 59 103
81 39 12 96 34 128 49 52 24 58 30 63 65 4 21 15 48 25 59 13 16 19 38 19 74
0 28 7 74 15 101 21 71 20 72 -27 12 -54 -68 -60 -73 -136 -109 -77 -36 -102
-32 -102 16 0 28 6 37 28 49 16 8 40 32 54 53 84 128 198 322 258 443 67 133
75 196 34 278 -56 114 -176 189 -444 278 -128 43 -150 53 -187 91 -36 36 -43
39 -43 22z m-91 -1110 c56 -67 -9 -146 -107 -131 -40 5 -82 44 -82 74 0 29 25
67 54 79 39 16 113 5 135 -22z m261 -227 c0 -48 -66 -82 -157 -82 -56 0 -68
12 -41 37 43 39 100 60 166 62 24 1 32 -3 32 -17z m-505 -41 c60 -34 20 -65
-56 -42 -48 15 -66 35 -49 56 15 19 58 13 105 -14z"/>
<path d="M310 4540 c0 -73 2 -80 20 -80 20 0 20 -7 20 -345 l0 -345 250 0 250
0 -2 423 -3 422 -267 3 -268 2 0 -80z m320 -350 l0 -270 -30 0 -30 0 0 270 0
270 30 0 30 0 0 -270z"/>
<path d="M980 4460 c0 -144 2 -164 22 -205 l22 -45 -22 -45 c-20 -42 -22 -61
-22 -220 l0 -175 248 2 247 3 3 175 c2 96 1 184 -3 197 -5 22 -9 23 -110 23
l-105 0 0 -120 0 -120 -30 0 -30 0 0 101 c0 85 3 106 22 138 l22 38 -22 28
c-19 24 -22 40 -22 131 l0 104 30 0 29 0 3 -117 3 -118 105 0 105 0 0 190 0
190 -247 3 -248 2 0 -160z"/>
<path d="M1620 4608 c0 -7 -1 -199 -3 -425 l-2 -413 108 0 107 0 0 145 c0 80
4 145 9 145 5 0 15 -32 22 -70 18 -105 26 -103 49 13 6 31 16 57 21 57 5 0 9
-62 9 -145 l0 -145 105 0 105 0 0 425 0 425 -105 0 c-124 0 -112 13 -140 -153
-10 -59 -21 -104 -24 -101 -3 3 -15 60 -26 127 l-20 122 -107 3 c-83 2 -108 0
-108 -10z"/>
<path d="M2290 4195 l0 -425 245 0 245 0 0 425 0 425 -245 0 -245 0 0 -425z
m275 -5 l0 -265 -32 -3 -33 -3 0 271 0 271 33 -3 32 -3 0 -265z"/>
<path d="M2920 4195 l0 -426 108 3 107 3 5 135 5 135 24 -137 25 -138 113 0
113 0 -2 423 -3 422 -107 3 -108 3 0 -147 c0 -81 -2 -145 -5 -142 -4 4 -55
268 -55 285 0 2 -49 3 -110 3 l-110 0 0 -425z"/>
<path d="M240 2500 l0 -60 2940 0 2940 0 0 60 0 60 -2940 0 -2940 0 0 -60z"/>
<path d="M268 2011 c-5 -92 -6 -91 68 -91 l64 0 0 -350 0 -350 130 0 130 0 0
75 c0 68 -2 75 -20 75 -20 0 -20 7 -20 275 l0 275 70 0 70 0 0 75 0 75 -244 0
-244 0 -4 -59z"/>
<path d="M900 1645 l0 -425 105 0 105 0 0 425 0 425 -105 0 -105 0 0 -425z"/>
<path d="M1250 1645 l0 -425 248 2 247 3 3 250 c2 137 1 259 -3 272 -5 22 -9
23 -110 23 l-105 0 0 -195 0 -195 -30 0 -29 0 -3 243 c-4 305 -5 297 33 297
27 0 29 -2 29 -40 l0 -40 104 0 c79 0 105 3 109 14 3 7 5 58 4 112 l-2 99
-247 3 -248 2 0 -425z"/>
<path d="M1880 1911 c0 -137 3 -166 20 -206 20 -46 20 -46 0 -85 -18 -35 -20
-59 -20 -220 l0 -180 245 0 245 0 0 200 0 200 -105 0 -104 0 -3 -117 -3 -118
-30 0 -30 0 -3 97 c-3 91 -1 100 24 137 l26 40 -26 31 c-24 29 -26 38 -26 131
l0 99 35 0 35 0 0 -115 0 -115 105 0 105 0 0 190 0 190 -245 0 -245 0 0 -159z"/>
<path d="M2510 1645 l0 -425 105 0 105 0 0 350 0 350 35 0 35 0 0 -98 c0 -88
-2 -101 -25 -131 l-24 -34 24 -36 c24 -35 25 -41 25 -218 l0 -183 110 0 110 0
0 168 c-1 153 -3 172 -24 222 l-24 55 24 47 c22 44 24 58 24 203 l0 155 -250
0 -250 0 0 -425z"/>
<path d="M4765 1908 c-37 -91 -47 -149 -36 -206 12 -59 6 -72 -31 -72 -25 0
-11 -36 26 -66 l31 -25 -45 -40 c-25 -22 -66 -50 -92 -62 -27 -12 -48 -27 -48
-34 0 -6 14 -23 31 -38 l32 -26 -26 -47 c-26 -48 -78 -183 -91 -234 -6 -27 -5
-27 19 -16 14 6 27 9 30 7 2 -3 -5 -38 -15 -79 -22 -83 -26 -184 -9 -227 l11
-28 25 53 c13 28 28 52 33 52 4 0 13 -21 20 -47 12 -50 68 -163 80 -163 3 0
19 14 36 31 26 27 73 59 89 59 3 0 5 -5 5 -12 0 -6 7 -19 16 -29 15 -16 18
-15 54 21 22 22 62 47 96 60 64 23 61 25 95 -38 12 -21 39 -40 94 -66 42 -20
82 -36 88 -35 7 0 45 17 86 37 58 29 78 45 96 77 26 47 40 48 122 10 34 -15
60 -35 71 -54 21 -38 27 -38 49 -3 9 15 18 29 19 31 5 6 69 -37 93 -63 19 -20
27 -23 38 -14 20 16 47 73 69 141 10 31 21 57 25 57 4 0 18 -24 32 -52 l25
-53 11 28 c17 43 13 135 -9 222 -11 43 -18 81 -15 83 3 3 17 0 31 -7 22 -10
26 -9 21 3 -3 8 -11 34 -17 58 -7 24 -32 87 -57 140 l-46 97 32 26 c17 15 31
32 31 38 0 7 -21 22 -47 34 -27 12 -68 40 -93 61 l-45 39 33 31 c39 36 41 58
7 66 -24 6 -25 9 -18 44 13 59 7 123 -16 182 -36 93 -27 91 -148 32 l-108 -53
-93 36 -93 36 -44 -27 -45 -26 -44 26 -45 26 -94 -35 -94 -35 -104 50 c-57 27
-108 50 -112 50 -4 0 -14 -15 -22 -32z m280 -482 c31 -13 63 -51 52 -63 -10
-9 -65 8 -79 25 -20 23 -30 52 -17 52 5 0 25 -6 44 -14z m513 -12 c-17 -36
-98 -74 -98 -45 0 18 41 60 63 64 47 9 47 9 35 -19z"/>
</g>
</svg>
