<?xml version="1.0" standalone="no"?>
<!DOCTYPE svg PUBLIC "-//W3C//DTD SVG 20010904//EN"
 "http://www.w3.org/TR/2001/REC-SVG-20010904/DTD/svg10.dtd">
<svg version="1.0" xmlns="http://www.w3.org/2000/svg"
 width="200.000000pt" height="200.000000pt" viewBox="0 0 200.000000 200.000000"
 preserveAspectRatio="xMidYMid meet">
<metadata>
Created by potrace 1.16, written by Peter Selinger 2001-2019
</metadata>
<g transform="translate(0.000000,200.000000) scale(0.100000,-0.100000)"
fill="#000000" stroke="none">
<path d="M899 1952 c-71 -37 -111 -99 -117 -183 -6 -81 31 -160 94 -198 24
-14 44 -32 44 -38 0 -7 7 -13 15 -13 9 0 15 -9 15 -23 0 -20 -8 -24 -86 -40
-104 -22 -194 -61 -279 -121 -59 -43 -63 -44 -79 -28 -14 16 -14 20 -1 33 13
13 10 20 -28 57 l-43 42 -56 -58 -57 -57 40 -43 c33 -35 43 -41 55 -31 11 9
17 9 29 -1 21 -18 19 -24 -20 -75 -84 -110 -135 -270 -135 -422 0 -124 22
-217 77 -332 38 -79 58 -107 131 -180 96 -95 165 -140 269 -176 374 -130 783
76 910 460 23 70 27 97 27 215 1 100 -4 152 -17 198 -21 78 -75 188 -122 250
-31 40 -34 47 -21 60 13 13 18 13 31 2 14 -11 22 -7 61 31 l44 43 -57 58 -57
58 -43 -42 c-38 -38 -41 -43 -28 -58 14 -15 13 -19 -3 -33 -17 -16 -21 -14
-73 25 -29 22 -81 54 -114 69 -59 28 -200 69 -237 69 -30 0 -21 34 18 66 20
16 50 40 67 54 41 33 70 102 69 166 -1 173 -171 276 -323 196z m177 -13 c38
-12 88 -63 108 -111 31 -73 13 -154 -46 -215 -45 -47 -58 -43 -58 17 0 47 2
50 25 50 23 0 25 4 25 40 l0 40 -125 0 -125 0 0 -40 c0 -33 3 -40 20 -40 17 0
20 -7 20 -50 0 -27 -4 -50 -9 -50 -18 0 -63 44 -82 82 -48 94 -12 220 76 266
60 31 97 33 171 11z m114 -578 c251 -80 425 -310 438 -577 11 -238 -91 -444
-283 -573 -309 -206 -730 -97 -902 235 -53 102 -73 183 -73 304 0 296 189 544
474 621 93 25 251 21 346 -10z"/>
<path d="M970 1260 c0 -57 1 -60 25 -60 24 0 25 3 25 60 0 57 -1 60 -25 60
-24 0 -25 -3 -25 -60z"/>
<path d="M783 1278 c-20 -10 -20 -12 -6 -47 9 -20 19 -46 24 -59 7 -19 12 -21
29 -12 25 13 24 23 -3 81 -20 42 -24 46 -44 37z"/>
<path d="M1166 1257 c-26 -64 -29 -79 -15 -88 23 -15 29 -10 49 37 25 57 25
61 0 74 -17 9 -21 6 -34 -23z"/>
<path d="M612 1158 c-19 -19 -15 -31 28 -73 38 -37 41 -38 57 -22 17 16 15 20
-28 62 -35 36 -47 43 -57 33z"/>
<path d="M1318 1126 c-35 -41 -36 -45 -19 -60 16 -15 20 -13 59 27 41 42 42
44 24 60 -10 9 -21 17 -23 17 -3 0 -21 -20 -41 -44z"/>
<path d="M1137 935 c-82 -88 -89 -94 -114 -84 -38 14 -90 -6 -114 -45 -56 -92
29 -202 124 -162 48 20 71 65 63 125 l-6 46 76 75 c88 88 100 105 83 126 -6 8
-14 14 -18 14 -3 0 -46 -43 -94 -95z"/>
<path d="M496 973 c-10 -26 -7 -32 34 -53 48 -24 66 -25 74 -3 8 21 2 27 -56
52 -40 17 -47 18 -52 4z"/>
<path d="M1427 967 c-39 -17 -46 -24 -41 -41 9 -31 9 -31 68 -6 48 19 54 24
47 43 -11 28 -18 28 -74 4z"/>
<path d="M450 745 c0 -24 3 -25 60 -25 57 0 60 1 60 25 0 24 -3 25 -60 25 -57
0 -60 -1 -60 -25z"/>
<path d="M1420 745 c0 -24 3 -25 60 -25 57 0 60 1 60 25 0 24 -3 25 -60 25
-57 0 -60 -1 -60 -25z"/>
<path d="M1391 574 c-10 -23 -8 -26 42 -48 54 -24 63 -23 69 8 2 14 -10 24
-48 41 l-52 23 -11 -24z"/>
<path d="M533 569 c-43 -20 -50 -32 -35 -57 7 -10 20 -8 60 9 53 22 56 26 46
53 -8 20 -18 19 -71 -5z"/>
<path d="M637 402 c-41 -42 -44 -53 -22 -72 17 -14 41 2 77 53 16 22 17 31 8
42 -17 21 -21 20 -63 -23z"/>
<path d="M1297 422 c-16 -17 -14 -21 26 -60 42 -41 44 -42 60 -24 16 17 14 21
-26 60 -42 41 -44 42 -60 24z"/>
<path d="M791 282 c-19 -53 -20 -58 -4 -69 9 -7 19 -13 22 -13 3 0 16 27 27
59 l22 59 -23 10 c-21 10 -24 7 -44 -46z"/>
<path d="M1161 329 c-17 -7 -21 -14 -16 -27 4 -9 14 -36 22 -59 13 -39 16 -41
38 -31 l24 11 -18 46 c-10 25 -20 51 -22 57 -3 8 -12 9 -28 3z"/>
<path d="M970 230 c0 -57 1 -60 25 -60 24 0 25 3 25 60 0 57 -1 60 -25 60 -24
0 -25 -3 -25 -60z"/>
</g>
</svg>
