<?xml version="1.0" encoding="UTF-8" standalone="no"?>
<svg
   version="1.0"
   width="755.58063pt"
   height="150pt"
   viewBox="0 0 755.58063 150"
   preserveAspectRatio="xMidYMid meet"
   id="svg8"
   sodipodi:docname="CALINA.svg"
   inkscape:version="1.1.1 (3bf5ae0d25, 2021-09-20)"
   inkscape:export-filename="/home/jrbustosm/Documentos/MAESTRIA/TESIS/img/CALINA/CALINA.png"
   inkscape:export-xdpi="96"
   inkscape:export-ydpi="96"
   xmlns:inkscape="http://www.inkscape.org/namespaces/inkscape"
   xmlns:sodipodi="http://sodipodi.sourceforge.net/DTD/sodipodi-0.dtd"
   xmlns="http://www.w3.org/2000/svg"
   xmlns:svg="http://www.w3.org/2000/svg">
  <defs
     id="defs12">
    <rect
       x="13.486542"
       y="6.1407108"
       width="1114.9989"
       height="346.44052"
       id="rect20971" />
    <rect
       x="17.825338"
       y="22.841722"
       width="344.52756"
       height="182.19109"
       id="rect16703" />
    <rect
       x="14.698477"
       y="7.9118738"
       width="370.55618"
       height="205.30132"
       id="rect4021" />
    <rect
       x="13.486542"
       y="6.1407108"
       width="1114.9989"
       height="346.44052"
       id="rect20971-4" />
    <rect
       x="13.486542"
       y="6.1407108"
       width="1114.9989"
       height="346.44052"
       id="rect20971-7" />
  </defs>
  <sodipodi:namedview
     id="namedview10"
     pagecolor="#ffffff"
     bordercolor="#666666"
     borderopacity="1.0"
     inkscape:pageshadow="2"
     inkscape:pageopacity="0.0"
     inkscape:pagecheckerboard="0"
     inkscape:document-units="pt"
     showgrid="false"
     width="800pt"
     showguides="false"
     inkscape:guide-bbox="true"
     fit-margin-top="0"
     fit-margin-left="0"
     fit-margin-right="0"
     fit-margin-bottom="0"
     inkscape:zoom="0.43664902"
     inkscape:cx="633.2317"
     inkscape:cy="98.477262"
     inkscape:window-width="1366"
     inkscape:window-height="719"
     inkscape:window-x="0"
     inkscape:window-y="25"
     inkscape:window-maximized="1"
     inkscape:current-layer="svg8">
    <sodipodi:guide
       position="-259.23822,390.37959"
       orientation="1,0"
       id="guide16985" />
  </sodipodi:namedview>
  <metadata
     id="metadata2">
Created by potrace 1.16, written by Peter Selinger 2001-2019
</metadata>
  <text
     xml:space="preserve"
     transform="matrix(0.75,0,0,0.75,-19.714758,-45.405614)"
     id="text20969"
     style="font-style:normal;font-weight:normal;font-size:266.667px;line-height:1.25;font-family:sans-serif;white-space:pre;shape-inside:url(#rect20971);fill:#000000;fill-opacity:1;stroke:none"><tspan
       x="13.486328"
       y="252.80759"
       id="tspan859"><tspan
         style="font-family:UnShinmun;-inkscape-font-specification:UnShinmun"
         id="tspan857">CAL </tspan></tspan></text>
  <text
     xml:space="preserve"
     transform="matrix(0.75,0,0,0.75,459.46576,-45.405614)"
     id="text20969-0"
     style="font-style:normal;font-weight:normal;font-size:266.667px;line-height:1.25;font-family:sans-serif;white-space:pre;shape-inside:url(#rect20971-7);fill:#000000;fill-opacity:1;stroke:none"><tspan
       x="13.486328"
       y="252.80759"
       id="tspan863"><tspan
         style="font-family:UnShinmun;-inkscape-font-specification:UnShinmun"
         id="tspan861">NA </tspan></tspan></text>
  <g
     transform="matrix(0.1,0,0,-0.0965535,366.43364,156.06833)"
     fill="#000000"
     stroke="none"
     id="g6">
    <path
       d="m 225,1614 c -93,-9 -101,-20 -109,-136 -3,-40 -10,-140 -17,-223 -14,-197 -7,-224 66,-243 51,-13 190,-7 216,8 21,14 29,126 13,208 -17,90 -25,106 -64,122 -33,14 -38,31 -14,51 20,16 115,16 157,0 l 29,-11 -6,-268 C 490,868 478,654 460,455 453,370 450,364 419,338 379,304 327,286 294,294 c -32,8 -31,22 4,29 42,9 89,43 106,75 12,24 14,51 7,157 C 400,727 401,726 235,723 167,722 102,716 91,710 39,683 25,586 40,359 51,190 65,114 87,88 111,61 175,57 377,70 c 103,7 265,13 358,14 198,3 242,13 298,66 l 41,38 4,171 c 8,313 -43,413 -200,396 -99,-11 -171,-34 -204,-66 -26,-25 -34,-44 -43,-102 -21,-121 -19,-191 5,-224 11,-15 34,-32 51,-38 40,-13 44,-27 11,-39 -34,-12 -71,6 -101,49 -25,34 -25,52 -7,550 11,312 24,476 41,507 10,19 17,20 77,14 36,-4 69,-9 74,-12 17,-11 6,-34 -46,-98 -30,-36 -60,-83 -67,-103 -27,-79 -10,-195 33,-230 21,-17 178,-25 218,-10 78,28 115,154 115,397 0,194 -6,224 -48,247 -29,16 -70,18 -377,19 -190,1 -363,0 -385,-2 z m 273,-69 c 17,-6 15,-22 -5,-30 -10,-4 -63,-11 -118,-15 -114,-9 -124,-16 -150,-103 -11,-37 -14,-70 -9,-116 l 7,-63 43,5 c 48,5 64,-5 64,-43 -1,-36 -32,-72 -63,-72 -32,0 -84,35 -93,64 -14,45 11,346 31,366 15,15 251,20 293,7 z m 428,-28 c 41,-36 40,-77 -12,-396 -3,-18 -16,-44 -30,-58 -20,-20 -32,-24 -70,-21 -56,4 -81,35 -70,90 5,28 18,43 71,81 56,41 66,52 79,98 9,29 16,76 16,105 0,71 -12,77 -154,76 -83,-1 -116,2 -133,14 -13,8 -21,19 -18,24 4,6 69,10 150,10 136,0 145,-1 171,-23 z M 313,636 c 7,-8 22,-35 32,-61 17,-46 17,-49 -1,-93 -24,-56 -62,-87 -98,-78 -21,5 -26,13 -26,36 0,24 5,29 28,32 23,3 28,8 30,37 7,71 -44,106 -86,61 -16,-17 -20,-43 -26,-159 -9,-192 -2,-205 104,-213 114,-9 562,7 591,21 33,16 46,44 60,129 10,62 9,72 -11,120 -18,41 -27,52 -46,52 -21,0 -54,-23 -54,-38 0,-4 7,-20 15,-36 18,-34 14,-41 -18,-32 -25,6 -40,34 -52,93 -14,70 47,133 130,133 85,0 108,-45 109,-215 0,-67 -5,-138 -12,-161 -11,-37 -18,-44 -75,-70 -60,-27 -68,-28 -292,-35 -126,-4 -284,-11 -350,-15 -103,-6 -122,-5 -133,9 -9,11 -16,68 -21,179 -9,189 -6,235 18,266 32,43 153,68 184,38 z"
       id="path4" />
  </g>
  <text
     xml:space="preserve"
     transform="matrix(0.75,0,0,0.75,-11.89997,-8.5000035)"
     id="text4019"
     style="font-style:normal;font-weight:normal;font-size:133.333px;line-height:1.25;font-family:sans-serif;white-space:pre;shape-inside:url(#rect4021);fill:#000000;fill-opacity:1;stroke:none" />
  <text
     xml:space="preserve"
     transform="matrix(0.75,0,0,0.75,-11.89997,-8.5000035)"
     id="text16701"
     style="font-style:normal;font-weight:normal;font-size:40px;line-height:1.25;font-family:sans-serif;white-space:pre;shape-inside:url(#rect16703);fill:#000000;fill-opacity:1;stroke:none" />
</svg>
