<?xml version="1.0" encoding="UTF-8" standalone="no"?>
<svg
   version="1.0"
   width="314.97751pt"
   height="338.84515pt"
   viewBox="0 0 314.97751 338.84515"
   preserveAspectRatio="xMidYMid meet"
   id="svg26"
   sodipodi:docname="icon.svg"
   inkscape:version="1.1.2 (0a00cf5339, 2022-02-04)"
   inkscape:export-filename="/home/jrbustosm/Documentos/MAESTRIA/TESIS/img/CALINA/icon_calina.png"
   inkscape:export-xdpi="180"
   inkscape:export-ydpi="180"
   xmlns:inkscape="http://www.inkscape.org/namespaces/inkscape"
   xmlns:sodipodi="http://sodipodi.sourceforge.net/DTD/sodipodi-0.dtd"
   xmlns="http://www.w3.org/2000/svg"
   xmlns:svg="http://www.w3.org/2000/svg">
  <defs
     id="defs30" />
  <sodipodi:namedview
     id="namedview28"
     pagecolor="#ffffff"
     bordercolor="#666666"
     borderopacity="1.0"
     inkscape:pageshadow="2"
     inkscape:pageopacity="0.0"
     inkscape:pagecheckerboard="0"
     inkscape:document-units="pt"
     showgrid="false"
     fit-margin-top="0"
     fit-margin-left="0"
     fit-margin-right="0"
     fit-margin-bottom="0"
     inkscape:zoom="1.171875"
     inkscape:cx="200.53333"
     inkscape:cy="262.82667"
     inkscape:window-width="1366"
     inkscape:window-height="719"
     inkscape:window-x="0"
     inkscape:window-y="25"
     inkscape:window-maximized="1"
     inkscape:current-layer="svg26" />
  <metadata
     id="metadata2">
Created by potrace 1.16, written by Peter Selinger 2001-2019
</metadata>
  <g
     transform="matrix(0.1,0,0,-0.1,-9,344)"
     fill="#000000"
     stroke="none"
     id="g24">
    <path
       d="m 90,3424 c 0,-8 39,-79 87,-157 139,-229 134,-217 143,-320 6,-69 5,-94 -4,-102 -7,-5 -21,-43 -30,-82 -10,-41 -35,-101 -57,-137 -21,-36 -39,-69 -39,-74 0,-4 16,-27 36,-51 34,-39 36,-46 30,-88 -7,-53 -20,-73 -48,-73 -47,0 -59,-17 -57,-83 4,-77 -18,-274 -33,-304 -7,-15 -8,-42 -3,-80 5,-32 7,-92 5,-133 -9,-178 -2,-438 13,-525 9,-49 18,-164 20,-255 4,-149 15,-301 33,-462 13,-125 58,-115 69,16 9,100 24,117 77,88 44,-24 131,-43 166,-36 16,3 48,1 71,-6 42,-11 43,-12 37,-46 -8,-38 7,-74 29,-74 14,0 20,22 16,61 -3,25 20,37 79,42 59,4 137,19 240,44 36,8 87,19 113,23 26,3 55,14 64,22 27,28 -11,37 -92,23 -38,-7 -86,-16 -105,-19 -19,-4 -77,-18 -128,-33 -51,-14 -94,-24 -97,-22 -2,3 0,45 5,94 6,50 14,141 20,203 15,171 36,203 124,189 102,-16 49,69 -60,97 l -49,12 -3,48 c -2,33 3,59 17,87 12,22 21,48 21,59 0,10 4,21 9,24 9,6 25,130 23,181 -1,17 -7,50 -13,74 -15,53 -25,43 144,142 132,77 168,85 206,45 l 22,-24 -19,-98 c -11,-55 -27,-125 -36,-157 -9,-32 -20,-111 -25,-176 -5,-65 -14,-128 -21,-141 -14,-25 1,-64 27,-75 27,-10 33,5 33,76 0,39 5,79 10,89 6,11 12,62 15,115 3,69 13,119 34,183 16,48 34,121 41,162 21,134 45,186 119,259 52,51 97,122 93,146 -28,158 -29,191 -8,274 11,44 16,107 16,213 v 150 l 76,75 c 124,125 254,290 254,325 0,36 -28,16 -81,-54 -66,-89 -218,-259 -263,-293 l -33,-25 -184,30 c -101,16 -222,37 -269,46 -47,8 -152,17 -235,19 -107,3 -173,9 -230,24 -140,35 -138,34 -164,82 -13,24 -52,91 -86,149 -35,58 -72,122 -84,143 -37,67 -53,87 -67,87 -8,0 -14,-7 -14,-16 z m 336,-513 c 16,-5 56,-14 89,-21 33,-7 74,-16 90,-22 49,-16 343,-48 440,-48 50,0 113,-6 141,-13 33,-9 76,-11 129,-6 112,9 115,7 117,-99 3,-131 2,-154 -10,-187 -5,-16 -20,-64 -32,-105 -13,-41 -29,-90 -36,-108 l -14,-32 -83,5 c -46,2 -159,7 -251,10 -178,6 -207,12 -199,44 3,11 -2,42 -12,70 -13,39 -16,83 -14,211 1,104 -2,165 -9,172 -5,5 -48,14 -94,19 -45,5 -116,20 -155,34 -40,14 -83,25 -95,25 -41,0 -68,12 -68,29 0,32 16,37 66,22 z m 96,-151 c 78,0 113,-49 83,-114 -24,-50 -67,-69 -136,-60 -57,8 -99,36 -99,67 0,38 21,98 41,118 18,18 22,18 49,4 16,-8 44,-15 62,-15 z m 243,-479 c 48,-25 61,-26 315,-37 146,-7 266,-12 268,-13 1,0 2,-9 2,-19 0,-15 -12,-20 -62,-28 -75,-11 -93,-31 -60,-67 12,-13 22,-30 22,-38 0,-31 -158,-156 -220,-174 -33,-10 -93,-49 -158,-102 -30,-23 -67,-51 -83,-60 -29,-17 -29,-18 -29,-110 v -92 l -42,-3 c -40,-3 -44,-6 -56,-43 -10,-29 -12,-72 -8,-160 3,-66 2,-125 -2,-131 -10,-14 -154,-64 -187,-64 -29,0 -216,89 -254,121 -28,23 -39,77 -41,199 0,41 -4,92 -9,113 -7,30 -5,48 9,80 10,23 21,67 25,97 3,30 9,68 12,84 l 5,28 77,-6 c 42,-3 94,-5 117,-5 29,0 46,-6 60,-22 25,-28 67,-49 99,-49 37,0 31,26 -8,39 -19,7 -47,25 -62,41 -25,26 -36,30 -79,30 -28,-1 -75,2 -104,6 -49,5 -57,10 -85,50 -51,72 -56,100 -41,205 8,50 11,95 8,100 -3,5 -2,19 1,30 7,20 13,21 69,17 33,-3 90,-2 126,2 36,4 124,7 195,7 120,0 134,-2 180,-26 z M 244,1192 c 3,-5 47,-30 99,-55 94,-47 95,-47 174,-41 60,4 90,2 117,-10 33,-14 36,-18 36,-58 0,-30 -8,-55 -26,-82 -36,-53 -44,-86 -49,-205 -5,-141 -4,-141 -136,-98 -57,19 -126,40 -154,48 l -50,15 -5,69 c -3,39 -13,84 -22,101 -13,24 -19,69 -24,178 -7,144 -7,146 14,146 11,0 23,-4 26,-8 z"
       id="path4" />
    <path
       d="m 960,2770 c -12,-12 -20,-33 -20,-52 0,-18 -3,-56 -6,-84 -6,-48 -4,-54 28,-90 19,-22 40,-54 47,-72 16,-40 40,-47 131,-39 116,10 158,47 145,128 -4,20 -1,56 5,79 10,39 9,44 -11,66 -18,19 -30,23 -50,19 -15,-4 -52,3 -87,14 -34,12 -70,21 -80,21 -10,0 -27,7 -38,15 -26,20 -40,19 -64,-5 z m 286,-215 c 8,-43 -5,-61 -55,-75 -63,-17 -88,-13 -95,16 -9,36 16,71 67,94 51,23 74,13 83,-35 z"
       id="path6" />
    <path
       d="m 2645,2990 c -38,-5 -106,-13 -150,-18 -44,-6 -165,-13 -270,-17 -274,-9 -334,-18 -362,-52 -21,-25 -23,-39 -23,-143 0,-67 -7,-142 -16,-180 -31,-134 -46,-217 -49,-269 -2,-40 -8,-58 -23,-70 -16,-13 -23,-36 -32,-111 -12,-103 -24,-169 -47,-269 -8,-35 -21,-91 -28,-125 -8,-33 -23,-97 -34,-141 -36,-148 -45,-210 -71,-525 -5,-63 -17,-151 -26,-194 -24,-119 -17,-186 34,-289 23,-47 42,-100 42,-116 0,-21 5,-31 15,-31 23,0 29,48 17,140 -21,152 -18,253 14,417 4,21 91,73 123,73 9,0 43,13 76,30 33,16 105,48 160,70 158,66 165,69 172,86 11,30 -12,34 -61,9 -27,-14 -64,-25 -83,-25 -18,0 -65,-15 -105,-34 -84,-40 -235,-89 -248,-81 -5,3 -7,47 -5,98 l 3,92 44,25 c 45,27 120,50 223,70 157,30 267,77 299,125 26,40 -5,45 -44,7 -34,-34 -109,-61 -276,-97 -114,-25 -219,-59 -229,-76 -4,-5 -15,-9 -26,-9 -18,0 -20,4 -13,48 3,26 12,53 19,60 6,7 63,31 125,53 179,62 299,130 367,209 l 22,25 20,-20 c 19,-19 63,-132 80,-205 12,-52 78,-178 100,-189 14,-8 22,-7 31,4 6,8 22,17 33,21 12,3 75,33 140,65 66,33 127,59 138,59 21,0 20,7 24,-215 3,-163 22,-581 30,-650 5,-42 2,-79 -10,-125 -9,-36 -19,-77 -22,-93 -3,-15 -9,-30 -14,-33 -5,-3 -9,-16 -9,-29 0,-13 -4,-27 -10,-30 -5,-3 -10,-15 -10,-26 0,-14 7,-19 28,-19 37,0 52,17 52,57 0,18 14,60 32,93 28,55 30,63 20,98 -7,20 -14,135 -16,257 -3,121 -10,330 -16,465 -6,135 -15,342 -20,460 -5,118 -7,216 -5,219 5,4 33,-4 112,-33 23,-8 63,-14 90,-13 45,2 48,4 48,29 1,29 21,58 40,58 6,0 20,-9 30,-20 23,-26 27,-25 74,8 48,33 61,75 32,106 -11,12 -22,39 -26,61 -4,22 -9,47 -11,55 -2,8 9,29 24,45 56,63 68,105 29,105 -13,0 -34,11 -47,25 -26,27 -25,39 10,160 17,62 17,70 -4,70 -16,0 -24,-15 -41,-70 -27,-92 -45,-93 -88,-5 -24,47 -38,66 -55,68 -32,5 -28,-18 13,-93 20,-35 32,-66 26,-69 -13,-8 -111,12 -128,26 -10,8 -17,8 -25,0 -26,-26 48,-69 139,-80 l 58,-7 3,-39 c 2,-21 -1,-43 -7,-49 -6,-6 -11,-19 -11,-29 0,-13 8,-18 29,-18 30,0 40,-17 41,-70 1,-14 7,-42 14,-63 13,-35 12,-38 -8,-50 -29,-17 -236,-13 -306,6 l -55,14 3,94 c 1,52 4,146 5,209 2,63 6,122 9,130 21,62 25,92 27,211 1,74 7,149 12,167 15,47 -4,87 -56,117 -23,14 -46,24 -51,24 -5,-1 -40,-5 -79,-9 z m 102,-134 c 22,-26 23,-34 21,-159 -1,-87 -6,-139 -15,-152 -7,-12 -16,-45 -20,-74 l -8,-54 -55,-14 c -30,-8 -64,-12 -75,-9 -23,5 -171,-17 -182,-27 -20,-21 22,-26 145,-19 73,4 140,4 148,-1 18,-10 18,-58 0,-101 -14,-34 -14,-34 -101,-41 -48,-4 -131,-5 -184,-1 -53,4 -154,11 -226,16 -71,4 -148,14 -170,20 -22,7 -67,17 -100,22 -33,6 -66,12 -72,14 -17,5 -16,41 3,97 19,57 30,58 138,22 82,-27 140,-33 134,-12 -3,6 -43,32 -91,56 -65,33 -98,44 -132,44 -50,0 -55,11 -33,64 7,16 12,76 12,138 l 1,110 55,6 c 30,3 71,11 90,17 19,6 109,15 200,21 198,14 234,18 325,36 102,20 163,14 192,-19 z m -712,-754 c 0,-88 -9,-94 -147,-103 -140,-10 -142,-8 -127,81 6,36 12,71 15,78 3,10 32,12 131,9 l 128,-4 z m 178,49 c 12,-5 86,-4 167,1 152,10 194,7 226,-16 18,-14 18,-15 -1,-36 -11,-12 -47,-38 -80,-57 -49,-29 -75,-37 -145,-45 -47,-5 -97,-13 -111,-19 -23,-9 -196,4 -208,16 -2,3 2,25 9,50 7,24 10,58 7,73 -3,16 -1,34 5,40 12,12 93,7 131,-7 z m 475,-76 c 19,-42 15,-112 -8,-135 -26,-26 -107,-66 -205,-102 -44,-17 -109,-41 -145,-54 -74,-28 -100,-25 -124,11 -15,23 -15,29 0,75 9,27 21,53 28,58 16,13 60,23 152,32 96,10 152,34 219,95 28,24 55,44 61,45 6,0 16,-11 22,-25 z m -689,-115 c 10,-5 30,-25 45,-45 22,-28 25,-39 16,-50 -18,-22 -159,-86 -234,-106 -121,-33 -124,-30 -92,91 14,51 28,95 31,99 4,3 50,9 103,12 53,3 101,6 105,7 5,1 16,-2 26,-8 z m 725,-112 c 3,-18 5,-95 5,-171 l -1,-139 -36,-15 c -20,-8 -88,-39 -150,-69 -62,-30 -117,-52 -122,-49 -6,4 -19,24 -31,46 -11,22 -31,44 -44,49 -60,23 -8,62 150,115 63,21 91,35 93,48 4,22 -14,22 -87,1 -57,-17 -74,-22 -124,-43 -60,-24 -80,-8 -94,74 -4,29 -3,31 69,56 141,51 253,95 283,112 17,9 42,16 56,17 22,0 28,-5 33,-32 z m -608,-41 c 17,-15 25,-30 21,-40 -10,-27 -118,-107 -192,-143 -100,-49 -262,-103 -273,-92 -5,5 -4,26 3,51 27,99 35,111 81,120 115,25 166,42 239,81 44,24 83,44 87,45 4,0 19,-10 34,-22 z"
       id="path8" />
    <path
       d="m 2016,2745 c -12,-33 -6,-93 13,-116 16,-20 22,-21 52,-13 39,11 72,67 67,113 -3,25 -6,26 -64,29 -49,2 -63,0 -68,-13 z m 82,-40 c 1,-11 -4,-29 -12,-40 -12,-16 -18,-18 -33,-9 -20,12 -28,37 -19,60 9,23 60,14 64,-11 z"
       id="path10" />
    <path
       d="m 2549,2699 c -21,-29 -21,-34 -8,-58 11,-20 24,-27 53,-29 47,-4 66,11 66,53 0,67 -72,89 -111,34 z m 84,-19 c 11,-44 -42,-67 -66,-28 -8,12 -7,21 2,32 19,23 58,20 64,-4 z"
       id="path12" />
    <path
       d="m 2295,2698 c -14,-46 -26,-119 -20,-128 13,-20 23,-9 29,33 3,23 9,57 12,75 4,21 2,32 -5,32 -6,0 -13,-6 -16,-12 z"
       id="path14" />
    <path
       d="m 2397,2598 c 6,-67 18,-93 29,-64 9,24 -8,119 -23,123 -8,3 -10,-14 -6,-59 z"
       id="path16" />
    <path
       d="m 2350,950 c -17,-18 -30,-40 -30,-49 0,-10 -3,-21 -7,-25 -10,-10 -31,-75 -38,-120 -10,-62 -46,-189 -57,-203 -16,-20 -37,-3 -44,35 -3,21 -11,53 -19,72 -7,19 -16,90 -20,158 -6,107 -9,122 -25,122 -25,0 -30,-27 -30,-164 0,-121 18,-224 46,-256 7,-8 18,-35 24,-60 6,-25 15,-61 20,-80 5,-19 13,-85 18,-145 10,-115 32,-190 54,-183 18,6 21,57 8,120 -6,29 -17,100 -25,157 -8,58 -19,118 -25,134 -5,17 -10,32 -10,33 0,8 73,34 79,29 3,-4 6,-52 7,-108 1,-95 22,-215 45,-259 14,-26 38,-22 51,7 8,19 9,38 0,75 -13,58 -36,442 -30,503 3,23 17,73 31,112 42,111 32,154 -23,95 z"
       id="path18" />
    <path
       d="m 1770,333 c -41,-20 -86,-35 -100,-35 -21,2 -28,-4 -37,-30 -16,-47 -3,-173 17,-173 12,0 16,15 18,67 3,66 4,69 40,93 20,14 42,25 49,25 7,0 14,-23 18,-57 9,-84 19,-118 35,-118 12,0 15,19 15,104 0,87 3,105 17,115 28,17 56,-20 69,-89 24,-129 35,-169 47,-173 11,-3 13,9 7,64 -15,164 -35,215 -87,233 -17,6 -31,11 -32,11 -1,-1 -35,-17 -76,-37 z"
       id="path20" />
    <path
       d="m 2504,338 c -68,-53 -114,-123 -94,-142 9,-8 18,-2 38,24 15,19 42,51 61,70 32,33 34,34 42,15 4,-11 8,-39 8,-63 1,-39 3,-43 23,-40 17,2 25,14 34,53 13,48 12,51 -13,77 -32,34 -61,35 -99,6 z"
       id="path22" />
  </g>
</svg>
