<?xml version="1.0" encoding="UTF-8" standalone="no"?>
<svg
   version="1.0"
   width="700pt"
   height="700pt"
   viewBox="0 0 700 700"
   preserveAspectRatio="xMidYMid meet"
   id="svg26"
   sodipodi:docname="icon_gold.svg"
   inkscape:version="1.1.1 (3bf5ae0d25, 2021-09-20)"
   inkscape:export-filename="/home/jrbustosm/Documentos/MAESTRIA/TESIS/img/CALINA/icon_gold.png"
   inkscape:export-xdpi="96"
   inkscape:export-ydpi="96"
   xmlns:inkscape="http://www.inkscape.org/namespaces/inkscape"
   xmlns:sodipodi="http://sodipodi.sourceforge.net/DTD/sodipodi-0.dtd"
   xmlns:xlink="http://www.w3.org/1999/xlink"
   xmlns="http://www.w3.org/2000/svg"
   xmlns:svg="http://www.w3.org/2000/svg">
  <defs
     id="defs30">
    <linearGradient
       inkscape:collect="always"
       id="linearGradient865">
      <stop
         style="stop-color:#772118;stop-opacity:1;"
         offset="0"
         id="stop861" />
      <stop
         style="stop-color:#772118;stop-opacity:0;"
         offset="1"
         id="stop863" />
    </linearGradient>
    <linearGradient
       inkscape:collect="always"
       xlink:href="#linearGradient865"
       id="linearGradient867"
       x1="182.66191"
       y1="126.25286"
       x2="1011.3563"
       y2="36.796467"
       gradientUnits="userSpaceOnUse" />
  </defs>
  <sodipodi:namedview
     id="namedview28"
     pagecolor="#ffffff"
     bordercolor="#666666"
     borderopacity="1.0"
     inkscape:pageshadow="2"
     inkscape:pageopacity="0.0"
     inkscape:pagecheckerboard="0"
     inkscape:document-units="pt"
     showgrid="false"
     inkscape:zoom="1.171875"
     inkscape:cx="277.76"
     inkscape:cy="438.61333"
     inkscape:window-width="1366"
     inkscape:window-height="719"
     inkscape:window-x="0"
     inkscape:window-y="25"
     inkscape:window-maximized="1"
     inkscape:current-layer="g867"
     width="700pt" />
  <metadata
     id="metadata2">
Created by potrace 1.16, written by Peter Selinger 2001-2019
</metadata>
  <g
     inkscape:groupmode="layer"
     id="layer2"
     inkscape:label="Fondo"
     style="display:none">
    <rect
       style="fill:url(#linearGradient867);fill-opacity:1;stroke-width:0.992122;stroke-linejoin:round"
       id="rect994"
       width="332.2692"
       height="352.13141"
       x="-0.92997068"
       y="-0.17686523" />
  </g>
  <g
     inkscape:groupmode="layer"
     id="layer1"
     inkscape:label="amigos"
     style="display:inline">
    <g
       id="g867"
       style="fill:#f1ce00;fill-opacity:1">
      <g
         id="g871"
         transform="translate(91.52946,105.73082)">
        <path
           d="m 101.00678,76.471602 c 0,0.8 3.9,7.9 8.7,15.7 13.9,22.899998 13.4,21.699998 14.3,31.999998 0.6,6.9 0.5,9.4 -0.4,10.2 -0.7,0.5 -2.1,4.3 -3,8.2 -1,4.1 -3.5,10.1 -5.7,13.7 -2.1,3.6 -3.9,6.9 -3.9,7.4 0,0.4 1.6,2.7 3.6,5.1 3.4,3.9 3.6,4.6 3,8.8 -0.7,5.3 -2,7.3 -4.8,7.3 -4.7,0 -5.9,1.7 -5.7,8.3 0.4,7.7 -1.8,27.4 -3.3,30.4 -0.7,1.5 -0.8,4.2 -0.3,8 0.5,3.2 0.7,9.2 0.5,13.3 -0.9,17.8 -0.2,43.8 1.3,52.5 0.9,4.9 1.8,16.4 2,25.5 0.4,14.9 1.5,30.1 3.3,46.2 1.3,12.5 5.8,11.5 6.9,-1.6 0.9,-10 2.4,-11.7 7.7,-8.8 4.4,2.4 13.1,4.3 16.6,3.6 1.6,-0.3 4.8,-0.1 7.1,0.6 4.2,1.1 4.3,1.2 3.7,4.6 -0.8,3.8 0.7,7.4 2.9,7.4 1.4,0 2,-2.2 1.6,-6.1 -0.3,-2.5 2,-3.7 7.9,-4.2 5.9,-0.4 13.7,-1.9 24,-4.4 3.6,-0.8 8.7,-1.9 11.3,-2.3 2.6,-0.3 5.5,-1.4 6.4,-2.2 2.7,-2.8 -1.1,-3.7 -9.2,-2.3 -3.8,0.7 -8.6,1.6 -10.5,1.9 -1.9,0.4 -7.7,1.8 -12.8,3.3 -5.1,1.4 -9.4,2.4 -9.7,2.2 -0.2,-0.3 0,-4.5 0.5,-9.4 0.6,-5 1.4,-14.1 2,-20.3 1.5,-17.1 3.6,-20.3 12.4,-18.9 10.2,1.6 4.9,-6.9 -6,-9.7 l -4.9,-1.2 -0.3,-4.8 c -0.2,-3.3 0.3,-5.9 1.7,-8.7 1.2,-2.2 2.1,-4.8 2.1,-5.9 0,-1 0.4,-2.1 0.9,-2.4 0.9,-0.6 2.5,-13 2.3,-18.1 -0.1,-1.7 -0.7,-5 -1.3,-7.4 -1.5,-5.3 -2.5,-4.3 14.4,-14.2 13.2,-7.7 16.8,-8.5 20.6,-4.5 l 2.2,2.4 -1.9,9.8 c -1.1,5.5 -2.7,12.5 -3.6,15.7 -0.9,3.2 -2,11.1 -2.5,17.6 -0.5,6.5 -1.4,12.8 -2.1,14.1 -1.4,2.5 0.1,6.4 2.7,7.5 2.7,1 3.3,-0.5 3.3,-7.6 0,-3.9 0.5,-7.9 1,-8.9 0.6,-1.1 1.2,-6.2 1.5,-11.5 0.3,-6.9 1.3,-11.9 3.4,-18.3 1.6,-4.8 3.4,-12.1 4.1,-16.2 2.1,-13.4 4.5,-18.6 11.9,-25.9 5.2,-5.1 9.7,-12.2 9.3,-14.6 -2.8,-15.8 -2.9,-19.1 -0.8,-27.4 1.1,-4.4 1.6,-10.7 1.6,-21.3 v -15 l 7.6,-7.5 c 12.4,-12.5 25.4,-28.999998 25.4,-32.499998 0,-3.6 -2.8,-1.6 -8.1,5.399998 -6.6,8.9 -21.8,25.9 -26.3,29.3 l -3.3,2.5 -18.4,-3 c -10.1,-1.6 -22.2,-3.7 -26.9,-4.6 -4.7,-0.8 -15.2,-1.7 -23.5,-1.9 -10.7,-0.3 -17.3,-0.9 -23,-2.4 -14,-3.5 -13.8,-3.4 -16.4,-8.2 -1.3,-2.4 -5.2,-9.1 -8.6,-14.899998 -3.5,-5.8 -7.2,-12.2 -8.4,-14.3 -3.7,-6.7 -5.3,-8.7 -6.7,-8.7 -0.8,0 -1.4,0.7 -1.4,1.6 z m 33.6,51.299998 c 1.6,0.5 5.6,1.4 8.9,2.1 3.3,0.7 7.4,1.6 9,2.2 4.9,1.6 34.3,4.8 44,4.8 5,0 11.3,0.6 14.1,1.3 3.3,0.9 7.6,1.1 12.9,0.6 11.2,-0.9 11.5,-0.7 11.7,9.9 0.3,13.1 0.2,15.4 -1,18.7 -0.5,1.6 -2,6.4 -3.2,10.5 -1.3,4.1 -2.9,9 -3.6,10.8 l -1.4,3.2 -8.3,-0.5 c -4.6,-0.2 -15.9,-0.7 -25.1,-1 -17.8,-0.6 -20.7,-1.2 -19.9,-4.4 0.3,-1.1 -0.2,-4.2 -1.2,-7 -1.3,-3.9 -1.6,-8.3 -1.4,-21.1 0.1,-10.4 -0.2,-16.5 -0.9,-17.2 -0.5,-0.5 -4.8,-1.4 -9.4,-1.9 -4.5,-0.5 -11.6,-2 -15.5,-3.4 -4,-1.4 -8.3,-2.5 -9.5,-2.5 -4.1,0 -6.8,-1.2 -6.8,-2.9 0,-3.2 1.6,-3.7 6.6,-2.2 z m 9.6,15.1 c 7.8,0 11.3,4.9 8.3,11.4 -2.4,5 -6.7,6.9 -13.6,6 -5.7,-0.8 -9.9,-3.6 -9.9,-6.7 0,-3.8 2.1,-9.8 4.1,-11.8 1.8,-1.8 2.2,-1.8 4.9,-0.4 1.6,0.8 4.4,1.5 6.2,1.5 z m 24.3,47.9 c 4.8,2.5 6.1,2.6 31.5,3.7 14.6,0.7 26.6,1.2 26.8,1.3 0.1,0 0.2,0.9 0.2,1.9 0,1.5 -1.2,2 -6.2,2.8 -7.5,1.1 -9.3,3.1 -6,6.7 1.2,1.3 2.2,3 2.2,3.8 0,3.1 -15.8,15.6 -22,17.4 -3.3,1 -9.3,4.9 -15.8,10.2 -3,2.3 -6.7,5.1 -8.3,6 -2.9,1.7 -2.9,1.8 -2.9,11 v 9.2 l -4.2,0.3 c -4,0.3 -4.4,0.6 -5.6,4.3 -1,2.9 -1.2,7.2 -0.8,16 0.3,6.6 0.2,12.5 -0.2,13.1 -1,1.4 -15.4,6.4 -18.7,6.4 -2.9,0 -21.6,-8.9 -25.4,-12.1 -2.8,-2.3 -3.9,-7.7 -4.1,-19.9 0,-4.1 -0.4,-9.2 -0.9,-11.3 -0.7,-3 -0.5,-4.8 0.9,-8 1,-2.3 2.1,-6.7 2.5,-9.7 0.3,-3 0.9,-6.8 1.2,-8.4 l 0.5,-2.8 7.7,0.6 c 4.2,0.3 9.4,0.5 11.7,0.5 2.9,0 4.6,0.6 6,2.2 2.5,2.8 6.7,4.9 9.9,4.9 3.7,0 3.1,-2.6 -0.8,-3.9 -1.9,-0.7 -4.7,-2.5 -6.2,-4.1 -2.5,-2.6 -3.6,-3 -7.9,-3 -2.8,0.1 -7.5,-0.2 -10.4,-0.6 -4.9,-0.5 -5.7,-1 -8.5,-5 -5.1,-7.2 -5.6,-10 -4.1,-20.5 0.8,-5 1.1,-9.5 0.8,-10 -0.3,-0.5 -0.2,-1.9 0.1,-3 0.7,-2 1.3,-2.1 6.9,-1.7 3.3,0.3 9,0.2 12.6,-0.2 3.6,-0.4 12.4,-0.7 19.5,-0.7 12,0 13.4,0.2 18,2.6 z m -52.1,108.9 c 0.3,0.5 4.7,3 9.9,5.5 9.4,4.7 9.5,4.7 17.4,4.1 6,-0.4 9,-0.2 11.7,1 3.3,1.4 3.6,1.8 3.6,5.8 0,3 -0.8,5.5 -2.6,8.2 -3.6,5.3 -4.4,8.6 -4.9,20.5 -0.5,14.1 -0.4,14.1 -13.6,9.8 -5.7,-1.9 -12.6,-4 -15.4,-4.8 l -5,-1.5 -0.5,-6.9 c -0.3,-3.9 -1.3,-8.4 -2.2,-10.1 -1.3,-2.4 -1.9,-6.9 -2.4,-17.8 -0.7,-14.4 -0.7,-14.6 1.4,-14.6 1.1,0 2.3,0.4 2.6,0.8 z"
           id="path4"
           style="fill:#f1ce00;fill-opacity:1;stroke:#ff0000;stroke-width:0.1" />
        <path
           d="m 188.00678,141.8716 c -1.2,1.2 -2,3.3 -2,5.2 0,1.8 -0.3,5.6 -0.6,8.4 -0.6,4.8 -0.4,5.4 2.8,9 1.9,2.2 4,5.4 4.7,7.2 1.6,4 4,4.7 13.1,3.9 11.6,-1 15.8,-4.7 14.5,-12.8 -0.4,-2 -0.1,-5.6 0.5,-7.9 1,-3.9 0.9,-4.4 -1.1,-6.6 -1.8,-1.9 -3,-2.3 -5,-1.9 -1.5,0.4 -5.2,-0.3 -8.7,-1.4 -3.4,-1.2 -7,-2.1 -8,-2.1 -1,0 -2.7,-0.7 -3.8,-1.5 -2.6,-2 -4,-1.9 -6.4,0.5 z m 28.6,21.5 c 0.8,4.3 -0.5,6.1 -5.5,7.5 -6.3,1.7 -8.8,1.3 -9.5,-1.6 -0.9,-3.6 1.6,-7.1 6.7,-9.4 5.1,-2.3 7.4,-1.3 8.3,3.5 z"
           id="path6"
           style="fill:#f1ce00;fill-opacity:1;stroke:none;stroke-width:0.1" />
        <path
           d="m 356.50678,119.8716 c -3.8,0.5 -10.6,1.3 -15,1.8 -4.4,0.6 -16.5,1.3 -27,1.7 -27.4,0.9 -33.4,1.8 -36.2,5.2 -2.1,2.5 -2.3,3.9 -2.3,14.3 0,6.7 -0.7,14.2 -1.6,18 -3.1,13.4 -4.6,21.7 -4.9,26.9 -0.2,4 -0.8,5.8 -2.3,7 -1.6,1.3 -2.3,3.6 -3.2,11.1 -1.2,10.3 -2.4,16.9 -4.7,26.9 -0.8,3.5 -2.1,9.1 -2.8,12.5 -0.8,3.3 -2.3,9.7 -3.4,14.1 -3.6,14.8 -4.5,21 -7.1,52.5 -0.5,6.3 -1.7,15.1 -2.6,19.4 -2.4,11.9 -1.7,18.6 3.4,28.9 2.3,4.7 4.2,10 4.2,11.6 0,2.1 0.5,3.1 1.5,3.1 2.3,0 2.9,-4.8 1.7,-14 -2.1,-15.2 -1.8,-25.3 1.4,-41.7 0.4,-2.1 9.1,-7.3 12.3,-7.3 0.9,0 4.3,-1.3 7.6,-3 3.3,-1.6 10.5,-4.8 16,-7 15.8,-6.6 16.5,-6.9 17.2,-8.6 1.1,-3 -1.2,-3.4 -6.1,-0.9 -2.7,1.4 -6.4,2.5 -8.3,2.5 -1.8,0 -6.5,1.5 -10.5,3.4 -8.4,4 -23.5,8.9 -24.8,8.1 -0.5,-0.3 -0.7,-4.7 -0.5,-9.8 l 0.3,-9.2 4.4,-2.5 c 4.5,-2.7 12,-5 22.3,-7 15.7,-3 26.7,-7.7 29.9,-12.5 2.6,-4 -0.5,-4.5 -4.4,-0.7 -3.4,3.4 -10.9,6.1 -27.6,9.7 -11.4,2.5 -21.9,5.9 -22.9,7.6 -0.4,0.5 -1.5,0.9 -2.6,0.9 -1.8,0 -2,-0.4 -1.3,-4.8 0.3,-2.6 1.2,-5.3 1.9,-6 0.6,-0.7 6.3,-3.1 12.5,-5.3 17.9,-6.2 29.9,-13 36.7,-20.9 l 2.2,-2.5 2,2 c 1.9,1.9 6.3,13.2 8,20.5 1.2,5.2 7.8,17.8 10,18.9 1.4,0.8 2.2,0.7 3.1,-0.4 0.6,-0.8 2.2,-1.7 3.3,-2.1 1.2,-0.3 7.5,-3.3 14,-6.5 6.6,-3.3 12.7,-5.9 13.8,-5.9 2.1,0 2,-0.7 2.4,21.5 0.3,16.3 2.2,58.1 3,65 0.5,4.2 0.2,7.9 -1,12.5 -0.9,3.6 -1.9,7.7 -2.2,9.3 -0.3,1.5 -0.9,3 -1.4,3.3 -0.5,0.3 -0.9,1.6 -0.9,2.9 0,1.3 -0.4,2.7 -1,3 -0.5,0.3 -1,1.5 -1,2.6 0,1.4 0.7,1.9 2.8,1.9 3.7,0 5.2,-1.7 5.2,-5.7 0,-1.8 1.4,-6 3.2,-9.3 2.8,-5.5 3,-6.3 2,-9.8 -0.7,-2 -1.4,-13.5 -1.6,-25.7 -0.3,-12.1 -1,-33 -1.6,-46.5 -0.6,-13.5 -1.5,-34.2 -2,-46 -0.5,-11.8 -0.7,-21.6 -0.5,-21.9 0.5,-0.4 3.3,0.4 11.2,3.3 2.3,0.8 6.3,1.4 9,1.3 4.5,-0.2 4.8,-0.4 4.8,-2.9 0.1,-2.9 2.1,-5.8 4,-5.8 0.6,0 2,0.9 3,2 2.3,2.6 2.7,2.5 7.4,-0.8 4.8,-3.3 6.1,-7.5 3.2,-10.6 -1.1,-1.2 -2.2,-3.9 -2.6,-6.1 -0.4,-2.2 -0.9,-4.7 -1.1,-5.5 -0.2,-0.8 0.9,-2.9 2.4,-4.5 5.6,-6.3 6.8,-10.5 2.9,-10.5 -1.3,0 -3.4,-1.1 -4.7,-2.5 -2.6,-2.7 -2.5,-3.9 1,-16 1.7,-6.2 1.7,-7 -0.4,-7 -1.6,0 -2.4,1.5 -4.1,7 -2.7,9.2 -4.5,9.3 -8.8,0.5 -2.4,-4.7 -3.8,-6.6 -5.5,-6.8 -3.2,-0.5 -2.8,1.8 1.3,9.3 2,3.5 3.2,6.6 2.6,6.9 -1.3,0.8 -11.1,-1.2 -12.8,-2.6 -1,-0.8 -1.7,-0.8 -2.5,0 -2.6,2.6 4.8,6.9 13.9,8 l 5.8,0.7 0.3,3.9 c 0.2,2.1 -0.1,4.3 -0.7,4.9 -0.6,0.6 -1.1,1.9 -1.1,2.9 0,1.3 0.8,1.8 2.9,1.8 3,0 4,1.7 4.1,7 0.1,1.4 0.7,4.2 1.4,6.3 1.3,3.5 1.2,3.8 -0.8,5 -2.9,1.7 -23.6,1.3 -30.6,-0.6 l -5.5,-1.4 0.3,-9.4 c 0.1,-5.2 0.4,-14.6 0.5,-20.9 0.2,-6.3 0.6,-12.2 0.9,-13 2.1,-6.2 2.5,-9.2 2.7,-21.1 0.1,-7.4 0.7,-14.9 1.2,-16.7 1.5,-4.7 -0.4,-8.7 -5.6,-11.7 -2.3,-1.4 -4.6,-2.4 -5.1,-2.4 -0.5,0.1 -4,0.5 -7.9,0.9 z m 10.2,13.4 c 2.2,2.6 2.3,3.4 2.1,15.9 -0.1,8.7 -0.6,13.9 -1.5,15.2 -0.7,1.2 -1.6,4.5 -2,7.4 l -0.8,5.4 -5.5,1.4 c -3,0.8 -6.4,1.2 -7.5,0.9 -2.3,-0.5 -17.1,1.7 -18.2,2.7 -2,2.1 2.2,2.6 14.5,1.9 7.3,-0.4 14,-0.4 14.8,0.1 1.8,1 1.8,5.8 0,10.1 -1.4,3.4 -1.4,3.4 -10.1,4.1 -4.8,0.4 -13.1,0.5 -18.4,0.1 -5.3,-0.4 -15.4,-1.1 -22.6,-1.6 -7.1,-0.4 -14.8,-1.4 -17,-2 -2.2,-0.7 -6.7,-1.7 -10,-2.2 -3.3,-0.6 -6.6,-1.2 -7.2,-1.4 -1.7,-0.5 -1.6,-4.1 0.3,-9.7 1.9,-5.7 3,-5.8 13.8,-2.2 8.2,2.7 14,3.3 13.4,1.2 -0.3,-0.6 -4.3,-3.2 -9.1,-5.6 -6.5,-3.3 -9.8,-4.4 -13.2,-4.4 -5,0 -5.5,-1.1 -3.3,-6.4 0.7,-1.6 1.2,-7.6 1.2,-13.8 l 0.1,-11 5.5,-0.6 c 3,-0.3 7.1,-1.1 9,-1.7 1.9,-0.6 10.9,-1.5 20,-2.1 19.8,-1.4 23.4,-1.8 32.5,-3.6 10.2,-2 16.3,-1.4 19.2,1.9 z m -71.2,75.4 c 0,8.8 -0.9,9.4 -14.7,10.3 -14,1 -14.2,0.8 -12.7,-8.1 0.6,-3.6 1.2,-7.1 1.5,-7.8 0.3,-1 3.2,-1.2 13.1,-0.9 l 12.8,0.4 z m 17.8,-4.9 c 1.2,0.5 8.6,0.4 16.7,-0.1 15.2,-1 19.4,-0.7 22.6,1.6 1.8,1.4 1.8,1.5 -0.1,3.6 -1.1,1.2 -4.7,3.8 -8,5.7 -4.9,2.9 -7.5,3.7 -14.5,4.5 -4.7,0.5 -9.7,1.3 -11.1,1.9 -2.3,0.9 -19.6,-0.4 -20.8,-1.6 -0.2,-0.3 0.2,-2.5 0.9,-5 0.7,-2.4 1,-5.8 0.7,-7.3 -0.3,-1.6 -0.1,-3.4 0.5,-4 1.2,-1.2 9.3,-0.7 13.1,0.7 z m 47.5,7.6 c 1.9,4.2 1.5,11.2 -0.8,13.5 -2.6,2.6 -10.7,6.6 -20.5,10.2 -4.4,1.7 -10.9,4.1 -14.5,5.4 -7.4,2.8 -10,2.5 -12.4,-1.1 -1.5,-2.3 -1.5,-2.9 0,-7.5 0.9,-2.7 2.1,-5.3 2.8,-5.8 1.6,-1.3 6,-2.3 15.2,-3.2 9.6,-1 15.2,-3.4 21.9,-9.5 2.8,-2.4 5.5,-4.4 6.1,-4.5 0.6,0 1.6,1.1 2.2,2.5 z m -68.9,11.5 c 1,0.5 3,2.5 4.5,4.5 2.2,2.8 2.5,3.9 1.6,5 -1.8,2.2 -15.9,8.6 -23.4,10.6 -12.1,3.3 -12.4,3 -9.2,-9.1 1.4,-5.1 2.8,-9.5 3.1,-9.9 0.4,-0.3 5,-0.9 10.3,-1.2 5.3,-0.3 10.1,-0.6 10.5,-0.7 0.5,-0.1 1.6,0.2 2.6,0.8 z m 72.5,11.2 c 0.3,1.8 0.5,9.5 0.5,17.1 l -0.1,13.9 -3.6,1.5 c -2,0.8 -8.8,3.9 -15,6.9 -6.2,3 -11.7,5.2 -12.2,4.9 -0.6,-0.4 -1.9,-2.4 -3.1,-4.6 -1.1,-2.2 -3.1,-4.4 -4.4,-4.9 -6,-2.3 -0.8,-6.2 15,-11.5 6.3,-2.1 9.1,-3.5 9.3,-4.8 0.4,-2.2 -1.4,-2.2 -8.7,-0.1 -5.7,1.7 -7.4,2.2 -12.4,4.3 -6,2.4 -8,0.8 -9.4,-7.4 -0.4,-2.9 -0.3,-3.1 6.9,-5.6 14.1,-5.1 25.3,-9.5 28.3,-11.2 1.7,-0.9 4.2,-1.6 5.6,-1.7 2.2,0 2.8,0.5 3.3,3.2 z m -60.8,4.1 c 1.7,1.5 2.5,3 2.1,4 -1,2.7 -11.8,10.7 -19.2,14.3 -10,4.9 -26.2,10.3 -27.3,9.2 -0.5,-0.5 -0.4,-2.6 0.3,-5.1 2.7,-9.9 3.5,-11.1 8.1,-12 11.5,-2.5 16.6,-4.2 23.9,-8.1 4.4,-2.4 8.3,-4.4 8.7,-4.5 0.4,0 1.9,1 3.4,2.2 z"
           id="path8"
           style="fill:#f1ce00;fill-opacity:1;stroke:none;stroke-width:0.1" />
        <path
           d="m 293.60678,144.3716 c -1.2,3.3 -0.6,9.3 1.3,11.6 1.6,2 2.2,2.1 5.2,1.3 3.9,-1.1 7.2,-6.7 6.7,-11.3 -0.3,-2.5 -0.6,-2.6 -6.4,-2.9 -4.9,-0.2 -6.3,0 -6.8,1.3 z m 8.2,4 c 0.1,1.1 -0.4,2.9 -1.2,4 -1.2,1.6 -1.8,1.8 -3.3,0.9 -2,-1.2 -2.8,-3.7 -1.9,-6 0.9,-2.3 6,-1.4 6.4,1.1 z"
           id="path10"
           style="fill:#f1ce00;fill-opacity:1;stroke:none;stroke-width:0.1" />
        <path
           d="m 346.90678,148.9716 c -2.1,2.9 -2.1,3.4 -0.8,5.8 1.1,2 2.4,2.7 5.3,2.9 4.7,0.4 6.6,-1.1 6.6,-5.3 0,-6.7 -7.2,-8.9 -11.1,-3.4 z m 8.4,1.9 c 1.1,4.4 -4.2,6.7 -6.6,2.8 -0.8,-1.2 -0.7,-2.1 0.2,-3.2 1.9,-2.3 5.8,-2 6.4,0.4 z"
           id="path12"
           style="fill:#f1ce00;fill-opacity:1;stroke:none;stroke-width:0.1" />
        <path
           d="m 321.50678,149.0716 c -1.4,4.6 -2.6,11.9 -2,12.8 1.3,2 2.3,0.9 2.9,-3.3 0.3,-2.3 0.9,-5.7 1.2,-7.5 0.4,-2.1 0.2,-3.2 -0.5,-3.2 -0.6,0 -1.3,0.6 -1.6,1.2 z"
           id="path14"
           style="fill:#f1ce00;fill-opacity:1;stroke:none;stroke-width:0.1" />
        <path
           d="m 331.70678,159.0716 c 0.6,6.7 1.8,9.3 2.9,6.4 0.9,-2.4 -0.8,-11.9 -2.3,-12.3 -0.8,-0.3 -1,1.4 -0.6,5.9 z"
           id="path16"
           style="fill:#f1ce00;fill-opacity:1;stroke:none;stroke-width:0.1" />
        <path
           d="m 327.00678,323.8716 c -1.7,1.8 -3,4 -3,4.9 0,1 -0.3,2.1 -0.7,2.5 -1,1 -3.1,7.5 -3.8,12 -1,6.2 -4.6,18.9 -5.7,20.3 -1.6,2 -3.7,0.3 -4.4,-3.5 -0.3,-2.1 -1.1,-5.3 -1.9,-7.2 -0.7,-1.9 -1.6,-9 -2,-15.8 -0.6,-10.7 -0.9,-12.2 -2.5,-12.2 -2.5,0 -3,2.7 -3,16.4 0,12.1 1.8,22.4 4.6,25.6 0.7,0.8 1.8,3.5 2.4,6 0.6,2.5 1.5,6.1 2,8 0.5,1.9 1.3,8.5 1.8,14.5 1,11.5 3.2,19 5.4,18.3 1.8,-0.6 2.1,-5.7 0.8,-12 -0.6,-2.9 -1.7,-10 -2.5,-15.7 -0.8,-5.8 -1.9,-11.8 -2.5,-13.4 -0.5,-1.7 -1,-3.2 -1,-3.3 0,-0.8 7.3,-3.4 7.9,-2.9 0.3,0.4 0.6,5.2 0.7,10.8 0.1,9.5 2.2,21.5 4.5,25.9 1.4,2.6 3.8,2.2 5.1,-0.7 0.8,-1.9 0.9,-3.8 0,-7.5 -1.3,-5.8 -3.6,-44.2 -3,-50.3 0.3,-2.3 1.7,-7.3 3.1,-11.2 4.2,-11.1 3.2,-15.4 -2.3,-9.5 z"
           id="path18"
           style="fill:#f1ce00;fill-opacity:1;stroke:none;stroke-width:0.1" />
        <path
           d="m 269.00678,385.5716 c -4.1,2 -8.6,3.5 -10,3.5 -2.1,-0.2 -2.8,0.4 -3.7,3 -1.6,4.7 -0.3,17.3 1.7,17.3 1.2,0 1.6,-1.5 1.8,-6.7 0.3,-6.6 0.4,-6.9 4,-9.3 2,-1.4 4.2,-2.5 4.9,-2.5 0.7,0 1.4,2.3 1.8,5.7 0.9,8.4 1.9,11.8 3.5,11.8 1.2,0 1.5,-1.9 1.5,-10.4 0,-8.7 0.3,-10.5 1.7,-11.5 2.8,-1.7 5.6,2 6.9,8.9 2.4,12.9 3.5,16.9 4.7,17.3 1.1,0.3 1.3,-0.9 0.7,-6.4 -1.5,-16.4 -3.5,-21.5 -8.7,-23.3 -1.7,-0.6 -3.1,-1.1 -3.2,-1.1 -0.1,0.1 -3.5,1.7 -7.6,3.7 z"
           id="path20"
           style="fill:#f1ce00;fill-opacity:1;stroke:none;stroke-width:0.1" />
        <path
           d="m 342.40678,385.0716 c -6.8,5.3 -11.4,12.3 -9.4,14.2 0.9,0.8 1.8,0.2 3.8,-2.4 1.5,-1.9 4.2,-5.1 6.1,-7 3.2,-3.3 3.4,-3.4 4.2,-1.5 0.4,1.1 0.8,3.9 0.8,6.3 0.1,3.9 0.3,4.3 2.3,4 1.7,-0.2 2.5,-1.4 3.4,-5.3 1.3,-4.8 1.2,-5.1 -1.3,-7.7 -3.2,-3.4 -6.1,-3.5 -9.9,-0.6 z"
           id="path22"
           style="fill:#f1ce00;fill-opacity:1;stroke:none;stroke-width:0.1" />
      </g>
    </g>
  </g>
</svg>
