<?xml version="1.0" standalone="no"?>
<!DOCTYPE svg PUBLIC "-//W3C//DTD SVG 20010904//EN"
 "http://www.w3.org/TR/2001/REC-SVG-20010904/DTD/svg10.dtd">
<svg version="1.0" xmlns="http://www.w3.org/2000/svg"
 width="131.000000pt" height="172.000000pt" viewBox="0 0 131.000000 172.000000"
 preserveAspectRatio="xMidYMid meet">
<metadata>
Created by potrace 1.16, written by Peter Selinger 2001-2019
</metadata>
<g transform="translate(0.000000,172.000000) scale(0.100000,-0.100000)"
fill="#000000" stroke="none">
<path d="M861 1651 c-9 -6 -16 -37 -20 -86 -6 -71 -9 -78 -39 -101 -20 -16
-32 -34 -32 -49 0 -29 13 -38 51 -37 36 1 59 -29 59 -76 0 -63 -19 -77 -130
-96 l-35 -6 3 45 c11 136 -180 187 -243 64 -16 -30 -16 -55 0 -106 7 -21 4
-23 -29 -23 -35 0 -36 1 -51 58 -9 31 -21 72 -26 89 -13 41 -8 49 36 57 33 7
35 9 35 46 0 45 -9 53 -70 60 -39 4 -45 9 -48 30 -5 36 -20 50 -52 50 -39 0
-52 -20 -44 -69 7 -41 6 -42 -35 -58 -33 -13 -41 -21 -41 -42 0 -56 10 -71 46
-71 31 0 34 -3 44 -42 22 -85 69 -189 103 -225 16 -18 32 -23 68 -23 27 0 51
-6 58 -14 16 -19 43 -300 35 -369 -4 -32 -13 -64 -20 -72 -8 -8 -49 -16 -101
-19 -150 -11 -169 -15 -194 -42 -23 -24 -24 -32 -22 -132 2 -59 4 -123 5 -142
3 -29 -1 -35 -19 -38 -38 -6 -47 -27 -37 -90 l9 -57 55 3 c61 4 121 20 194 51
42 18 47 24 42 44 -4 12 -11 49 -16 82 -5 33 -11 74 -15 91 -6 29 -5 31 37 43
23 7 56 17 72 22 16 5 41 9 56 9 15 0 46 7 69 15 23 8 81 17 130 21 86 6 88 6
108 -19 20 -26 66 -159 78 -227 11 -66 23 -73 107 -61 40 6 97 18 126 27 46
13 52 18 52 42 0 43 -20 106 -38 120 -9 6 -25 12 -36 12 -12 0 -37 5 -57 10
l-36 10 -18 103 c-16 91 -22 106 -52 136 -34 34 -34 34 -101 26 -129 -15 -116
-25 -124 95 -8 102 -25 259 -35 311 -6 30 13 39 165 86 51 15 102 36 112 46
24 22 25 58 5 152 -21 100 -20 111 15 127 34 15 38 33 14 66 -11 16 -24 22
-42 20 -25 -3 -28 0 -38 55 -7 32 -14 60 -16 63 -10 10 -64 14 -77 5z m53 -17
c9 -3 16 -12 16 -20 0 -7 5 -36 11 -63 10 -50 11 -50 47 -48 32 2 37 -1 40
-20 3 -17 -3 -26 -23 -33 -37 -14 -40 -31 -21 -123 29 -146 24 -155 -87 -188
-40 -11 -101 -30 -135 -42 l-64 -21 5 -41 c2 -22 10 -98 16 -170 7 -71 16
-161 19 -200 l7 -70 35 1 c19 0 60 4 90 8 48 7 59 5 90 -16 37 -25 44 -43 60
-163 6 -42 16 -75 25 -81 9 -7 40 -15 71 -19 46 -5 56 -11 69 -35 17 -33 20
-86 5 -95 -11 -7 -90 -22 -166 -31 -58 -7 -60 -5 -74 58 -31 147 -61 221 -96
237 -14 6 -42 11 -62 11 -44 0 -248 -36 -314 -56 -26 -8 -58 -14 -72 -14 -26
0 -56 -23 -56 -43 0 -7 9 -39 19 -72 10 -33 21 -76 25 -95 6 -35 5 -37 -40
-58 -47 -23 -201 -59 -211 -49 -3 3 -8 26 -10 51 -5 44 -5 45 32 60 37 16 37
16 32 64 -3 26 -11 79 -18 117 -24 134 -6 151 182 170 102 10 136 17 145 30
19 26 27 108 20 204 -20 257 -22 268 -72 277 -18 3 -41 3 -49 0 -33 -12 -100
98 -147 242 -19 61 -21 63 -52 60 -28 -3 -31 0 -34 27 -2 27 2 32 38 47 41 17
41 17 38 65 -3 46 -2 48 24 51 23 3 28 -1 33 -25 11 -49 19 -56 66 -57 42 -1
44 -2 44 -31 0 -25 -4 -30 -28 -33 -15 -2 -31 -11 -36 -20 -10 -21 10 -124 37
-184 l19 -43 104 1 c94 1 194 15 317 46 64 16 79 44 64 117 -13 61 -31 81 -74
81 -36 0 -38 31 -4 50 32 17 38 32 42 108 4 83 12 93 58 76z m-254 -303 c28
-20 42 -73 29 -108 -11 -28 -48 -44 -112 -48 -43 -3 -49 0 -72 29 -36 47 -31
80 18 134 18 19 27 22 67 16 25 -3 56 -14 70 -23z"/>
</g>
</svg>
