<?xml version="1.0" standalone="no"?>
<!DOCTYPE svg PUBLIC "-//W3C//DTD SVG 20010904//EN"
 "http://www.w3.org/TR/2001/REC-SVG-20010904/DTD/svg10.dtd">
<svg version="1.0" xmlns="http://www.w3.org/2000/svg"
 width="183.000000pt" height="76.000000pt" viewBox="0 0 183.000000 76.000000"
 preserveAspectRatio="xMidYMid meet">
<metadata>
Created by potrace 1.16, written by Peter Selinger 2001-2019
</metadata>
<g transform="translate(0.000000,76.000000) scale(0.100000,-0.100000)"
fill="#000000" stroke="none">
<path d="M1270 694 c-19 -9 -54 -24 -77 -35 -45 -20 -53 -33 -28 -43 18 -7 39
0 88 31 22 14 40 23 41 21 8 -11 26 -116 26 -151 0 -37 6 -47 59 -98 38 -37
74 -62 100 -70 l41 -12 -1 -82 -1 -82 -107 -6 c-120 -7 -125 -5 -136 64 -7 43
5 69 34 69 25 0 83 39 75 51 -4 7 -20 8 -41 4 -29 -5 -38 -2 -50 14 -10 15
-25 21 -51 21 -21 0 -66 14 -104 33 -66 31 -68 33 -68 70 0 85 -52 104 -118
42 -37 -35 -27 -51 14 -20 10 8 24 15 30 15 17 0 23 -59 12 -115 -10 -49 -10
-50 20 -74 16 -13 49 -32 73 -40 l44 -16 3 -68 c3 -58 1 -67 -15 -69 -10 -1
-31 -3 -48 -4 -16 -2 -59 -6 -95 -9 -36 -4 -74 -6 -85 -6 -11 1 -53 1 -94 0
-85 -1 -91 4 -91 72 0 35 6 52 25 73 30 32 30 43 5 124 -11 35 -20 70 -20 78
0 25 30 28 55 4 26 -24 68 -24 73 1 3 19 -73 59 -127 66 -42 6 -74 -18 -53
-39 20 -20 14 -32 -54 -112 -46 -53 -75 -79 -95 -83 -16 -3 -32 -10 -35 -14
-3 -5 -16 -9 -30 -9 -21 0 -25 -4 -22 -22 3 -23 34 -43 82 -53 28 -6 29 -7 23
-57 -4 -28 -8 -52 -9 -53 -2 -2 -37 -5 -78 -7 l-75 -3 -6 75 c-3 41 -3 85 2
96 4 12 30 35 59 53 28 17 54 41 59 54 16 41 22 122 12 149 -18 48 13 90 45
58 12 -12 76 -16 92 -6 19 12 14 34 -10 42 -43 13 -143 21 -160 12 -15 -7 -18
-23 -18 -92 l0 -84 -79 -26 c-43 -14 -84 -26 -91 -26 -8 0 -24 -10 -36 -21
-18 -16 -40 -23 -94 -27 -60 -4 -70 -7 -70 -23 0 -12 10 -21 28 -25 15 -4 43
-15 63 -25 34 -17 37 -22 48 -89 6 -39 9 -75 6 -81 -4 -5 -32 -9 -64 -9 -87 0
-121 -9 -121 -32 0 -19 6 -19 177 -13 98 3 228 10 288 15 155 14 405 28 725
40 445 17 477 22 432 59 -21 18 -22 24 -16 106 l7 87 48 29 c41 26 87 75 77
84 -2 1 -13 6 -25 9 -18 6 -25 1 -38 -25 -16 -31 -18 -31 -68 -25 -53 6 -238
92 -277 128 -15 14 -20 32 -20 67 0 34 -5 53 -18 64 -23 21 -28 21 -72 1z
m352 -371 c3 -10 3 -46 0 -80 -4 -57 -6 -63 -27 -63 -31 0 -48 24 -47 68 0 57
17 92 46 92 14 0 25 -7 28 -17z m-377 -105 c21 -56 15 -68 -31 -68 l-34 0 0
55 c0 41 4 56 18 64 21 12 25 8 47 -51z m-927 40 c5 -7 12 -35 15 -63 3 -27 8
-63 12 -78 8 -28 7 -28 -36 -25 l-44 3 2 79 c1 53 6 82 15 87 18 12 24 11 36
-3z m356 -83 c4 -25 4 -49 1 -55 -3 -5 -24 -10 -46 -10 l-39 0 0 48 c0 57 3
62 46 62 30 0 32 -2 38 -45z"/>
</g>
</svg>
