<?xml version="1.0" standalone="no"?>
<!DOCTYPE svg PUBLIC "-//W3C//DTD SVG 20010904//EN"
 "http://www.w3.org/TR/2001/REC-SVG-20010904/DTD/svg10.dtd">
<svg version="1.0" xmlns="http://www.w3.org/2000/svg"
 width="118.000000pt" height="192.000000pt" viewBox="0 0 118.000000 192.000000"
 preserveAspectRatio="xMidYMid meet">
<metadata>
Created by potrace 1.16, written by Peter Selinger 2001-2019
</metadata>
<g transform="translate(0.000000,192.000000) scale(0.100000,-0.100000)"
fill="#000000" stroke="none">
<path d="M552 1815 c-24 -7 -69 -16 -100 -20 -31 -4 -61 -9 -67 -13 -20 -14
-101 -31 -143 -32 -24 0 -69 -7 -99 -16 l-56 -16 6 -115 c3 -63 10 -120 15
-126 5 -7 12 -23 15 -37 9 -38 91 -122 111 -114 9 4 16 1 16 -6 0 -8 -12 -11
-35 -8 -31 4 -34 2 -29 -18 4 -15 -1 -26 -16 -37 -18 -12 -20 -19 -11 -35 6
-12 11 -30 11 -41 0 -12 7 -21 15 -21 12 0 13 -4 5 -19 -13 -26 -13 -32 3 -29
8 2 11 -7 10 -26 -1 -16 2 -37 7 -47 7 -11 7 -20 0 -24 -16 -10 -11 -25 6 -18
14 5 15 3 4 -17 -13 -24 -2 -40 29 -40 10 0 11 -3 2 -14 -6 -8 -11 -18 -10
-22 3 -21 -2 -26 -16 -14 -13 11 -14 6 -9 -36 3 -27 12 -73 20 -103 7 -30 11
-58 8 -63 -3 -4 -1 -8 4 -8 13 0 32 -94 32 -159 0 -31 7 -81 15 -111 8 -30 19
-77 24 -105 5 -27 14 -61 20 -75 10 -23 11 -22 6 10 -3 19 -10 69 -16 110 -5
41 -13 89 -18 107 -8 27 -6 35 7 43 15 8 15 11 3 19 -15 10 -25 91 -11 91 13
0 18 48 7 59 -17 17 15 13 41 -5 12 -8 22 -22 22 -30 0 -8 7 -14 16 -14 8 0
12 -5 9 -10 -4 -6 -1 -17 5 -25 7 -9 9 -26 6 -41 -5 -17 -3 -23 4 -19 5 3 10
1 10 -4 0 -6 -4 -11 -10 -11 -5 0 -10 -7 -10 -16 0 -10 6 -14 14 -11 9 4 12 0
9 -12 -2 -9 5 -25 16 -35 13 -12 21 -31 21 -52 0 -32 -20 -58 -28 -36 -2 7
-17 12 -33 12 -25 0 -29 4 -31 28 0 15 -1 34 -2 42 -1 8 -8 15 -16 15 -18 0
-16 -30 5 -81 12 -30 19 -35 42 -33 59 4 71 -1 90 -38 11 -22 33 -44 50 -52
l30 -13 -24 -25 c-20 -19 -28 -22 -39 -12 -8 7 -17 9 -21 6 -8 -9 17 -38 28
-31 12 7 63 -24 78 -48 10 -17 10 -19 -6 -17 -26 3 -53 -11 -53 -27 0 -8 -9
-14 -20 -14 -11 0 -20 -4 -20 -10 0 -18 39 -10 60 13 16 16 19 17 15 4 -4 -10
-2 -17 4 -17 6 0 11 5 11 10 0 6 7 10 15 10 9 0 18 7 21 15 5 11 10 12 24 2
15 -9 27 -8 53 1 18 7 43 12 54 12 11 0 38 13 61 30 22 16 42 25 44 20 2 -5
26 1 53 14 28 13 76 31 108 40 50 15 57 20 57 42 0 13 -7 27 -15 30 -8 4 -15
10 -15 15 0 4 6 6 14 3 7 -3 16 1 19 9 9 25 -30 181 -64 254 -42 90 -69 170
-69 205 0 15 -4 36 -9 46 -15 27 -49 141 -66 222 -33 151 -57 241 -71 268 -7
15 -14 36 -14 46 0 11 -11 42 -24 70 -14 32 -23 66 -22 91 2 22 -5 63 -15 91
-9 27 -20 84 -24 125 -4 40 -11 82 -16 92 -12 21 -73 22 -137 2z m97 -45 c4 0
8 -6 9 -12 4 -50 23 -139 36 -170 9 -21 16 -48 16 -61 0 -24 -47 -93 -96 -142
-14 -14 -22 -30 -19 -35 3 -6 37 -10 74 -10 52 0 72 -4 84 -17 21 -25 64 -142
72 -200 4 -26 15 -79 25 -118 23 -87 33 -167 23 -181 -5 -6 -18 -16 -29 -22
-20 -11 -23 -8 -38 28 -9 22 -16 52 -16 66 0 29 -35 184 -51 229 -6 17 -17 50
-24 75 l-13 45 -58 -3 c-58 -3 -92 -20 -80 -40 3 -6 34 -26 69 -46 60 -33 78
-53 92 -104 6 -22 4 -21 -37 10 -24 18 -60 42 -81 53 l-37 20 -46 -25 c-26
-14 -60 -43 -76 -65 -29 -39 -30 -41 -23 -130 4 -49 12 -103 19 -120 19 -45
86 -111 129 -126 33 -12 41 -11 72 5 28 15 37 17 50 6 12 -10 25 -10 57 -1 41
10 44 9 65 -17 41 -49 34 -56 -60 -67 -82 -9 -62 -20 29 -16 64 2 78 0 90 -16
26 -33 52 -97 79 -192 23 -83 24 -96 11 -109 -8 -8 -21 -12 -29 -9 -12 5 -47
119 -47 157 0 8 -5 32 -11 52 -7 29 -15 38 -31 38 -26 0 -58 -36 -65 -73 -8
-39 -19 -42 -54 -13 -32 27 -76 34 -110 16 -27 -15 -24 -33 21 -117 31 -59 40
-87 42 -135 4 -76 -14 -86 -31 -18 -7 27 -30 71 -50 97 -56 71 -83 132 -79
178 3 35 7 41 53 63 28 14 53 30 57 36 14 21 -4 25 -40 10 -66 -28 -95 -34
-109 -23 -27 23 -14 53 37 87 51 33 63 52 34 52 -35 0 -144 97 -144 128 0 11
-7 37 -16 58 -9 22 -18 81 -22 136 l-5 98 68 65 c37 36 65 68 62 71 -5 5 -186
-15 -195 -22 -2 -1 8 -42 23 -92 14 -50 25 -104 25 -120 0 -16 9 -65 19 -108
37 -154 38 -144 -2 -144 l-35 0 -16 69 c-9 38 -23 116 -31 173 -8 57 -27 142
-42 191 -19 61 -24 90 -16 98 5 5 43 18 84 27 61 15 74 21 74 37 0 17 -10 21
-69 28 -90 10 -128 34 -161 101 -21 42 -27 73 -31 150 -6 114 -10 110 127 121
46 4 92 12 102 17 10 5 72 15 139 23 67 8 126 19 132 25 8 8 12 7 14 -4 2 -9
7 -16 11 -16z m110 -392 c1 -10 -6 -18 -15 -18 -11 0 -14 5 -10 17 4 9 1 20
-6 25 -10 6 -10 10 2 18 16 10 28 -7 29 -42z m-44 -7 c-3 -6 -11 -11 -17 -11
-6 0 -6 6 2 15 14 17 26 13 15 -4z m-35 -1 c0 -5 -5 -10 -11 -10 -5 0 -7 5 -4
10 3 6 8 10 11 10 2 0 4 -4 4 -10z m-45 -297 c79 -54 90 -77 93 -203 2 -51 -3
-73 -20 -104 -53 -91 -115 -102 -185 -34 -73 71 -89 116 -18 50 22 -20 56 -44
75 -53 31 -14 40 -15 62 -3 42 22 58 70 58 178 0 122 -11 136 -108 136 -59 0
-66 -2 -95 -33 -18 -18 -37 -41 -44 -52 -11 -18 -12 -18 -12 10 -1 37 24 77
69 109 46 32 77 32 125 -1z m27 -70 c12 -11 18 -29 17 -57 0 -36 -2 -38 -11
-20 -5 12 -27 30 -48 39 -35 16 -40 16 -69 1 -40 -21 -65 -59 -56 -86 8 -26
62 -76 98 -91 23 -10 31 -9 47 6 11 10 20 28 21 39 0 12 5 30 10 41 7 15 8 6
6 -31 -4 -52 -31 -103 -55 -104 -24 0 -89 39 -115 70 -49 57 -48 131 3 181 24
25 36 29 81 29 35 0 59 -6 71 -17z m-28 -69 c28 -28 12 -124 -21 -124 -22 0
-81 43 -92 67 -23 49 73 97 113 57z m140 -84 c5 -35 2 -52 -14 -77 -26 -44
-43 -42 -24 2 7 19 14 65 15 102 1 72 10 61 23 -27z m-524 6 c0 -3 -4 -8 -10
-11 -5 -3 -10 -1 -10 4 0 6 5 11 10 11 6 0 10 -2 10 -4z m10 -63 c0 -10 3 -29
6 -43 5 -17 3 -22 -3 -15 -15 14 -25 75 -13 75 6 0 10 -8 10 -17z m653 -15 c2
-7 -2 -21 -11 -30 -14 -16 -13 -18 1 -18 22 0 21 -9 0 -32 -10 -11 -13 -19 -8
-18 35 7 45 -1 45 -36 0 -21 4 -33 10 -29 6 3 10 1 10 -5 0 -6 -7 -13 -15 -16
-11 -5 -13 -10 -5 -19 8 -10 8 -15 0 -20 -7 -4 -24 7 -40 26 -32 38 -35 45
-19 54 7 5 3 14 -10 26 -21 20 -28 49 -13 49 5 0 9 7 9 15 0 21 -14 19 -34 -5
-21 -24 -43 -26 -43 -3 0 14 -2 14 -20 -2 -11 -10 -20 -13 -20 -7 0 16 41 42
66 42 11 0 31 9 44 20 26 23 46 26 53 8z m-505 -106 c2 -7 -3 -12 -12 -12 -9
0 -16 7 -16 16 0 17 22 14 28 -4z m-113 -2 c3 -5 1 -10 -4 -10 -6 0 -11 5 -11
10 0 6 2 10 4 10 3 0 8 -4 11 -10z m165 -18 c0 -13 -12 -22 -22 -16 -10 6 -1
24 13 24 5 0 9 -4 9 -8z m544 -134 c8 -18 26 -69 40 -112 24 -74 25 -80 8 -92
-9 -7 -21 -14 -25 -14 -5 0 -5 -4 -2 -10 3 -6 1 -10 -4 -10 -6 0 -11 11 -11
25 0 14 -5 25 -11 25 -6 0 -9 6 -6 14 5 12 -10 67 -30 116 -3 8 -5 19 -4 24 1
4 -3 14 -10 22 -15 19 -4 44 20 44 13 0 25 -12 35 -32z m-157 -158 c-2 -9 3
-22 13 -28 10 -6 21 -28 24 -49 4 -21 14 -48 22 -60 8 -13 10 -23 4 -23 -5 0
-10 5 -10 10 0 15 -20 12 -20 -2 -1 -15 -69 -50 -82 -42 -4 3 -8 10 -8 15 0 6
4 8 9 5 5 -3 11 1 15 9 6 17 -3 19 -37 6 -25 -10 -25 -9 -16 21 11 38 4 48
-15 22 -8 -10 -18 -15 -23 -11 -4 5 0 13 10 18 26 15 21 32 -8 27 -13 -3 -22
-1 -19 3 3 5 -2 9 -10 9 -9 0 -16 5 -16 10 0 6 4 10 10 10 5 0 19 10 30 22 18
19 22 21 31 8 8 -13 11 -12 24 4 8 11 18 17 21 13 4 -4 14 2 21 13 16 23 37
16 30 -10z m-77 -194 c0 -3 -4 -8 -10 -11 -5 -3 -10 -1 -10 4 0 6 5 11 10 11
6 0 10 -2 10 -4z"/>
<path d="M549 1559 c-12 -8 -12 -10 1 -19 19 -13 50 -13 50 0 0 16 -35 29 -51
19z"/>
<path d="M227 1533 c-16 -15 -5 -24 25 -21 41 4 50 28 11 28 -17 0 -33 -3 -36
-7z"/>
<path d="M446 1391 c-3 -5 8 -11 26 -15 34 -7 44 -3 33 13 -8 13 -52 15 -59 2z"/>
<path d="M551 907 c-8 -11 -6 -18 9 -32 24 -21 53 -14 43 12 -12 32 -34 41
-52 20z"/>
<path d="M897 627 c-3 -8 -2 -19 3 -26 5 -10 9 -8 14 4 3 9 6 21 6 26 0 14
-17 11 -23 -4z"/>
<path d="M116 1295 c-4 -12 -1 -16 14 -13 24 3 28 22 7 26 -8 2 -17 -4 -21
-13z"/>
<path d="M208 933 c-21 -5 -24 -23 -4 -23 8 0 16 7 20 15 3 8 4 14 3 14 -1 -1
-10 -3 -19 -6z"/>
<path d="M320 590 c0 -5 5 -10 10 -10 6 0 10 5 10 10 0 6 -4 10 -10 10 -5 0
-10 -4 -10 -10z"/>
<path d="M380 485 c0 -8 4 -15 10 -15 5 0 7 7 4 15 -4 8 -8 15 -10 15 -2 0 -4
-7 -4 -15z"/>
<path d="M330 481 c0 -5 9 -11 21 -14 16 -4 18 -3 8 9 -13 16 -29 19 -29 5z"/>
<path d="M395 439 c-6 -19 0 -38 9 -28 10 12 16 49 7 49 -5 0 -13 -9 -16 -21z"/>
<path d="M354 111 c5 -52 4 -81 -3 -86 -16 -9 -13 -25 3 -25 21 0 27 177 7
185 -11 4 -12 -9 -7 -74z"/>
<path d="M395 144 c-15 -12 -16 -18 -7 -21 7 -3 21 -13 30 -23 9 -10 28 -21
42 -24 l25 -7 -25 21 c-13 12 -25 31 -25 42 0 27 -15 31 -40 12z"/>
<path d="M420 40 c0 -5 13 -8 30 -7 39 3 39 17 0 17 -16 0 -30 -4 -30 -10z"/>
</g>
</svg>
