<?xml version="1.0" standalone="no"?>
<!DOCTYPE svg PUBLIC "-//W3C//DTD SVG 20010904//EN"
 "http://www.w3.org/TR/2001/REC-SVG-20010904/DTD/svg10.dtd">
<svg version="1.0" xmlns="http://www.w3.org/2000/svg"
 width="130.000000pt" height="153.000000pt" viewBox="0 0 130.000000 153.000000"
 preserveAspectRatio="xMidYMid meet">
<metadata>
Created by potrace 1.16, written by Peter Selinger 2001-2019
</metadata>
<g transform="translate(0.000000,153.000000) scale(0.100000,-0.100000)"
fill="#000000" stroke="none">
<path d="M268 1444 c-24 -28 -50 -140 -68 -294 -6 -52 -19 -129 -29 -170 -11
-41 -22 -111 -25 -155 -3 -44 -11 -96 -17 -115 -7 -20 -13 -123 -14 -235 -2
-110 -8 -237 -15 -283 -11 -73 -11 -85 3 -99 23 -24 39 -7 32 36 -3 20 0 61 7
91 7 32 13 140 14 255 1 152 5 214 18 258 9 32 14 63 10 68 -3 5 -3 23 1 39 7
32 25 37 67 21 13 -5 41 -14 63 -21 22 -7 102 -36 177 -66 100 -39 160 -56
227 -65 103 -13 129 -7 298 73 82 39 87 40 100 23 9 -13 14 -55 15 -129 1 -61
3 -149 4 -196 1 -47 -3 -103 -8 -125 -14 -53 -14 -213 -1 -226 18 -18 27 10
29 91 1 41 7 120 13 175 16 153 -16 736 -44 818 -8 23 -15 49 -15 57 0 18 -84
83 -132 104 -18 8 -78 28 -133 45 l-100 32 -144 -9 c-79 -5 -165 -5 -190 -1
-125 22 -125 22 -143 3z m65 -45 c3 -11 2 -55 -2 -97 -11 -110 1 -308 20 -327
23 -24 118 -55 184 -61 33 -3 76 -11 95 -17 42 -13 305 -10 331 3 27 15 30 35
31 230 0 110 4 180 10 180 27 0 68 -44 82 -88 16 -49 36 -228 36 -318 0 -51
-1 -52 -32 -57 -18 -3 -85 -28 -149 -56 -63 -28 -126 -51 -140 -52 -50 -1
-169 21 -211 40 -24 11 -54 23 -68 27 -14 4 -52 19 -85 34 -53 24 -123 45
-207 64 -33 7 -35 24 -14 100 8 28 20 94 26 146 12 97 35 224 46 254 9 23 41
20 47 -5z m390 -168 c-1 -76 -7 -147 -14 -163 -13 -31 -53 -48 -71 -30 -16 16
-15 158 2 212 7 25 17 62 22 83 8 34 12 38 36 35 l27 -3 -2 -134z m-179 26
l21 -29 -30 -24 c-37 -29 -68 -31 -95 -4 -26 26 -25 38 2 67 30 32 74 28 102
-10z m346 8 c16 -8 32 -24 35 -35 16 -51 -63 -97 -112 -65 -31 21 -32 77 -1
99 28 20 41 20 78 1z"/>
<path d="M252 738 c-6 -7 -15 -40 -21 -73 -15 -80 -6 -426 11 -456 16 -27 241
-139 279 -139 20 0 49 18 101 62 40 34 77 68 81 75 13 21 35 15 75 -17 69 -56
194 -141 200 -135 8 8 -38 54 -83 82 -67 42 -135 96 -135 108 0 5 30 44 68 86
37 42 90 103 117 137 28 34 53 62 58 62 4 0 7 -20 7 -44 0 -41 -5 -49 -70
-117 -42 -44 -70 -83 -70 -95 0 -24 55 -78 120 -119 22 -14 40 -30 40 -35 0
-6 5 -10 12 -10 8 0 9 43 3 168 -10 216 -10 210 -1 258 7 39 5 43 -22 63 -29
20 -63 27 -347 66 -55 7 -127 21 -160 30 -33 10 -81 21 -106 25 -26 5 -64 13
-85 19 -50 14 -59 14 -72 -1z m58 -28 c0 -5 -7 -10 -15 -10 -8 0 -15 5 -15 10
0 6 7 10 15 10 8 0 15 -4 15 -10z m132 -20 c13 -5 42 -14 66 -20 37 -9 46 -18
73 -64 30 -55 117 -145 141 -147 62 -5 121 28 168 96 26 38 36 45 65 45 37 0
51 -12 38 -34 -30 -53 -251 -296 -269 -296 -18 0 -51 42 -124 160 -63 100
-152 204 -215 248 l-30 21 32 1 c18 0 42 -4 55 -10z m-75 -34 c49 -25 129
-116 200 -224 80 -122 80 -123 19 -156 -43 -23 -73 -17 -120 24 -38 34 -136
199 -136 229 0 25 -16 36 -24 16 -17 -46 111 -253 181 -293 34 -18 91 -15 124
9 33 23 67 22 83 -4 9 -15 1 -27 -59 -81 -105 -97 -97 -95 -206 -45 -157 72
-165 79 -172 141 -12 99 -8 383 6 397 13 14 66 7 104 -13z m388 -26 c55 -7
106 -14 113 -16 24 -7 11 -41 -33 -84 -38 -38 -52 -45 -85 -45 -44 0 -84 31
-126 97 -33 51 -32 71 4 64 15 -2 72 -10 127 -16z m259 -257 c3 -10 6 -56 8
-103 3 -102 -5 -108 -75 -55 -60 46 -60 66 0 127 52 53 59 56 67 31z"/>
</g>
</svg>
