<?xml version="1.0" standalone="no"?>
<!DOCTYPE svg PUBLIC "-//W3C//DTD SVG 20010904//EN"
 "http://www.w3.org/TR/2001/REC-SVG-20010904/DTD/svg10.dtd">
<svg version="1.0" xmlns="http://www.w3.org/2000/svg"
 width="154.000000pt" height="56.000000pt" viewBox="0 0 154.000000 56.000000"
 preserveAspectRatio="xMidYMid meet">
<metadata>
Created by potrace 1.16, written by Peter Selinger 2001-2019
</metadata>
<g transform="translate(0.000000,56.000000) scale(0.100000,-0.100000)"
fill="#000000" stroke="none">
<path d="M803 473 c-35 -7 -27 -21 9 -19 l33 1 9 -74 c6 -52 5 -80 -3 -93 -9
-14 -8 -18 3 -18 10 0 14 -18 15 -70 l1 -70 -40 -6 c-22 -4 -40 -10 -40 -15 0
-12 23 -11 70 4 36 10 40 15 35 37 -8 42 -9 115 -1 128 4 7 2 12 -3 12 -6 0
-11 19 -12 43 0 23 -6 64 -13 92 -11 51 -19 57 -63 48z"/>
<path d="M1321 431 c-29 -8 -44 -50 -35 -97 6 -31 5 -31 -42 -38 -26 -3 -71
-6 -100 -6 -54 0 -54 0 -54 31 0 49 16 69 55 69 20 0 35 5 35 11 0 12 -80 6
-101 -7 -5 -3 -9 -27 -9 -55 l0 -49 -82 -2 -83 -2 85 -5 85 -6 1 -60 c0 -81 1
-82 27 -89 27 -7 157 4 157 14 0 4 -36 5 -80 2 l-80 -5 0 67 0 66 38 0 c20 0
61 3 90 6 65 7 74 0 82 -64 l5 -47 45 -3 c25 -2 57 1 70 7 21 8 16 10 -31 10
l-56 1 -6 37 c-8 46 -3 53 34 53 18 0 28 4 24 10 -3 6 -19 10 -35 10 -25 0
-32 6 -44 35 -19 45 -7 82 29 91 13 3 22 10 19 15 -6 10 -8 10 -43 0z"/>
<path d="M530 420 c0 -5 18 -10 41 -10 38 0 41 -2 35 -23 -3 -12 1 -40 8 -62
9 -26 11 -44 5 -52 -7 -7 -6 -14 1 -18 24 -15 3 -95 -25 -95 -8 0 -15 -5 -15
-11 0 -6 19 -9 48 -7 36 2 46 6 42 18 -2 8 -5 33 -6 56 -1 22 -7 51 -14 63 -6
13 -12 44 -12 70 0 77 -3 81 -59 81 -27 0 -49 -4 -49 -10z"/>
<path d="M405 380 c3 -5 15 -10 25 -10 28 0 44 -66 41 -167 -1 -41 -3 -43 -31
-43 -16 0 -30 -4 -30 -8 0 -5 18 -8 40 -8 45 0 56 16 45 67 -4 17 -2 35 5 44
6 8 7 16 2 19 -5 3 -13 26 -17 51 -5 37 -12 48 -31 56 -33 12 -57 12 -49 -1z"/>
<path d="M255 263 c7 -89 10 -101 21 -90 11 11 23 92 14 97 -5 3 -8 21 -7 40
2 26 -2 35 -16 38 -17 3 -18 -3 -12 -85z"/>
<path d="M73 278 c-11 -13 -23 -29 -27 -36 -8 -13 29 -82 44 -82 14 0 28 24
32 55 2 24 8 31 31 33 32 4 26 22 -8 22 -12 0 -25 7 -29 15 -8 21 -19 19 -43
-7z"/>
<path d="M760 283 c-58 -6 -81 -13 -75 -23 4 -7 13 -6 25 0 10 5 41 10 69 10
28 0 51 5 51 10 0 6 -8 9 -17 8 -10 0 -34 -3 -53 -5z"/>
<path d="M340 270 c0 -5 9 -10 20 -10 11 0 20 5 20 10 0 6 -9 10 -20 10 -11 0
-20 -4 -20 -10z"/>
<path d="M410 270 c0 -5 7 -10 15 -10 8 0 15 5 15 10 0 6 -7 10 -15 10 -8 0
-15 -4 -15 -10z"/>
<path d="M205 260 c3 -5 8 -10 11 -10 2 0 4 5 4 10 0 6 -5 10 -11 10 -5 0 -7
-4 -4 -10z"/>
</g>
</svg>
