<?xml version="1.0" standalone="no"?>
<!DOCTYPE svg PUBLIC "-//W3C//DTD SVG 20010904//EN"
 "http://www.w3.org/TR/2001/REC-SVG-20010904/DTD/svg10.dtd">
<svg version="1.0" xmlns="http://www.w3.org/2000/svg"
 width="114.000000pt" height="167.000000pt" viewBox="0 0 114.000000 167.000000"
 preserveAspectRatio="xMidYMid meet">
<metadata>
Created by potrace 1.16, written by Peter Selinger 2001-2019
</metadata>
<g transform="translate(0.000000,167.000000) scale(0.100000,-0.100000)"
fill="#000000" stroke="none">
<path d="M225 1614 c-93 -9 -101 -20 -109 -136 -3 -40 -10 -140 -17 -223 -14
-197 -7 -224 66 -243 51 -13 190 -7 216 8 21 14 29 126 13 208 -17 90 -25 106
-64 122 -33 14 -38 31 -14 51 20 16 115 16 157 0 l29 -11 -6 -268 c-6 -254
-18 -468 -36 -667 -7 -85 -10 -91 -41 -117 -40 -34 -92 -52 -125 -44 -32 8
-31 22 4 29 42 9 89 43 106 75 12 24 14 51 7 157 -11 172 -10 171 -176 168
-68 -1 -133 -7 -144 -13 -52 -27 -66 -124 -51 -351 11 -169 25 -245 47 -271
24 -27 88 -31 290 -18 103 7 265 13 358 14 198 3 242 13 298 66 l41 38 4 171
c8 313 -43 413 -200 396 -99 -11 -171 -34 -204 -66 -26 -25 -34 -44 -43 -102
-21 -121 -19 -191 5 -224 11 -15 34 -32 51 -38 40 -13 44 -27 11 -39 -34 -12
-71 6 -101 49 -25 34 -25 52 -7 550 11 312 24 476 41 507 10 19 17 20 77 14
36 -4 69 -9 74 -12 17 -11 6 -34 -46 -98 -30 -36 -60 -83 -67 -103 -27 -79
-10 -195 33 -230 21 -17 178 -25 218 -10 78 28 115 154 115 397 0 194 -6 224
-48 247 -29 16 -70 18 -377 19 -190 1 -363 0 -385 -2z m273 -69 c17 -6 15 -22
-5 -30 -10 -4 -63 -11 -118 -15 -114 -9 -124 -16 -150 -103 -11 -37 -14 -70
-9 -116 l7 -63 43 5 c48 5 64 -5 64 -43 -1 -36 -32 -72 -63 -72 -32 0 -84 35
-93 64 -14 45 11 346 31 366 15 15 251 20 293 7z m428 -28 c41 -36 40 -77 -12
-396 -3 -18 -16 -44 -30 -58 -20 -20 -32 -24 -70 -21 -56 4 -81 35 -70 90 5
28 18 43 71 81 56 41 66 52 79 98 9 29 16 76 16 105 0 71 -12 77 -154 76 -83
-1 -116 2 -133 14 -13 8 -21 19 -18 24 4 6 69 10 150 10 136 0 145 -1 171 -23z
m-613 -881 c7 -8 22 -35 32 -61 17 -46 17 -49 -1 -93 -24 -56 -62 -87 -98 -78
-21 5 -26 13 -26 36 0 24 5 29 28 32 23 3 28 8 30 37 7 71 -44 106 -86 61 -16
-17 -20 -43 -26 -159 -9 -192 -2 -205 104 -213 114 -9 562 7 591 21 33 16 46
44 60 129 10 62 9 72 -11 120 -18 41 -27 52 -46 52 -21 0 -54 -23 -54 -38 0
-4 7 -20 15 -36 18 -34 14 -41 -18 -32 -25 6 -40 34 -52 93 -14 70 47 133 130
133 85 0 108 -45 109 -215 0 -67 -5 -138 -12 -161 -11 -37 -18 -44 -75 -70
-60 -27 -68 -28 -292 -35 -126 -4 -284 -11 -350 -15 -103 -6 -122 -5 -133 9
-9 11 -16 68 -21 179 -9 189 -6 235 18 266 32 43 153 68 184 38z"/>
</g>
</svg>
