<?xml version="1.0" standalone="no"?>
<!DOCTYPE svg PUBLIC "-//W3C//DTD SVG 20010904//EN"
 "http://www.w3.org/TR/2001/REC-SVG-20010904/DTD/svg10.dtd">
<svg version="1.0" xmlns="http://www.w3.org/2000/svg"
 width="194.000000pt" height="232.000000pt" viewBox="0 0 194.000000 232.000000"
 preserveAspectRatio="xMidYMid meet">
<metadata>
Created by potrace 1.16, written by Peter Selinger 2001-2019
</metadata>
<g transform="translate(0.000000,232.000000) scale(0.100000,-0.100000)"
fill="#000000" stroke="none">
<path d="M370 2229 c-44 -17 -80 -80 -90 -161 -14 -104 -27 -183 -34 -206 -4
-10 -2 -31 3 -45 7 -18 7 -36 -1 -58 -8 -23 -8 -45 0 -78 5 -25 15 -73 22
-106 19 -96 22 -99 128 -138 82 -30 115 -36 212 -42 143 -8 191 4 201 54 4 19
24 48 52 74 38 36 46 50 52 93 9 72 -11 110 -76 137 -42 18 -49 25 -49 49 0
18 -9 33 -26 45 -14 10 -40 30 -57 44 -39 31 -87 49 -119 43 -13 -2 -41 -7
-63 -10 -22 -4 -51 -14 -64 -22 -21 -14 -23 -20 -16 -66 4 -28 10 -75 14 -104
6 -42 13 -58 37 -77 32 -27 46 -30 73 -15 26 14 31 33 20 75 -12 44 -5 85 16
85 20 0 86 -41 113 -70 12 -14 34 -49 48 -79 23 -51 24 -55 8 -72 -9 -11 -22
-19 -29 -19 -6 0 -17 -11 -23 -25 -9 -19 -19 -24 -44 -24 -18 0 -53 -2 -77 -4
-24 -3 -63 2 -87 10 -43 14 -135 88 -154 122 -5 10 -3 47 6 96 7 44 14 99 14
122 0 23 5 54 11 70 6 15 11 42 11 58 0 38 43 75 96 82 33 4 42 0 72 -28 32
-30 113 -67 198 -89 19 -4 41 -15 50 -23 9 -8 37 -25 60 -38 56 -31 97 -95 83
-132 -10 -25 -13 -85 -11 -217 0 -41 -4 -95 -9 -120 -22 -100 -34 -201 -38
-320 -2 -69 -6 -192 -9 -275 -3 -82 -5 -170 -5 -195 0 -63 -33 -190 -67 -255
-26 -50 -47 -70 -135 -135 -17 -12 -49 -14 -160 -12 -160 3 -201 15 -210 62
-5 21 -15 31 -41 40 -21 7 -38 20 -42 33 -10 30 -6 97 6 112 5 6 15 35 21 64
23 110 129 178 282 182 62 1 100 -48 116 -150 5 -34 12 -65 15 -70 9 -13 -41
-61 -63 -61 -11 0 -23 -5 -26 -10 -4 -6 -11 -8 -16 -4 -5 3 -21 8 -36 10 -58
11 -72 54 -26 76 30 14 38 36 29 74 -5 18 -13 24 -33 24 -15 0 -42 5 -60 12
-39 14 -61 5 -79 -33 -27 -55 -25 -64 18 -113 23 -26 56 -68 72 -94 21 -31 39
-48 56 -51 14 -1 37 -12 51 -22 38 -27 50 -24 94 21 21 22 47 40 56 40 15 0
72 39 58 40 -20 1 -98 -43 -123 -69 -35 -36 -49 -38 -94 -11 -18 11 -39 20
-47 20 -9 0 -31 24 -49 52 -19 29 -49 68 -66 87 -27 29 -31 39 -25 68 8 42 45
69 74 54 11 -6 30 -11 43 -11 53 0 66 -55 18 -73 -25 -9 -30 -17 -30 -44 0
-23 7 -37 23 -47 30 -19 94 -29 102 -16 3 5 15 10 25 10 10 0 31 11 46 25 25
23 27 29 17 58 -6 18 -14 55 -18 82 -14 103 -69 152 -159 140 -94 -12 -144
-36 -200 -95 -41 -43 -54 -65 -60 -99 -3 -24 -13 -53 -21 -64 -34 -48 -11
-135 42 -163 20 -10 37 -27 39 -37 6 -46 63 -59 254 -61 l125 -1 40 38 c22 20
48 40 57 43 43 13 117 226 119 337 0 29 4 74 8 102 5 29 4 74 -2 111 -9 50 -7
74 6 129 10 41 13 73 8 83 -11 22 2 189 28 343 14 84 20 155 17 219 -2 52 2
110 8 128 15 48 -21 114 -83 149 -25 15 -53 32 -61 39 -8 6 -31 17 -50 23
-102 30 -168 60 -199 89 -26 26 -41 32 -75 32 -62 0 -114 -40 -121 -92 -21
-178 -26 -219 -34 -258 -18 -80 -15 -90 42 -145 77 -74 114 -90 222 -90 l90
-1 53 54 c50 50 53 55 38 71 -9 10 -16 23 -16 29 0 16 -42 81 -66 105 -29 27
-93 67 -108 67 -29 0 -39 -29 -33 -90 5 -46 3 -62 -9 -74 -20 -21 -24 -20 -58
10 -23 20 -29 35 -32 77 -3 29 -9 64 -14 79 -17 53 -1 73 70 86 78 14 129 6
160 -23 16 -15 39 -33 51 -39 13 -6 27 -27 33 -50 10 -34 17 -41 61 -57 60
-22 76 -52 65 -123 -6 -40 -16 -55 -59 -97 -37 -35 -51 -56 -48 -69 8 -30 -45
-45 -148 -43 -111 3 -170 14 -261 48 -79 30 -86 38 -103 130 -7 33 -15 76 -19
96 -5 19 -4 48 0 65 5 16 6 49 3 74 -3 25 -1 72 5 105 6 33 14 93 20 134 7 53
16 82 35 107 32 42 47 50 107 59 55 8 163 -24 185 -55 23 -32 117 -80 159 -80
22 0 57 -5 79 -11 22 -6 78 -15 125 -19 47 -5 132 -18 188 -28 80 -16 111 -18
135 -9 18 5 93 12 167 14 74 2 146 4 160 4 33 2 69 -7 87 -23 8 -7 36 -15 62
-18 45 -5 46 -6 68 -61 20 -49 21 -62 12 -120 -6 -35 -12 -88 -15 -117 -5 -62
-37 -111 -140 -218 l-66 -69 -88 -3 c-78 -4 -93 -1 -119 17 -16 12 -34 21 -40
21 -28 0 -91 74 -108 126 -16 51 -16 57 2 129 20 78 40 104 89 110 11 1 33 9
48 17 23 13 39 13 96 3 77 -13 92 -20 92 -41 0 -8 7 -38 17 -66 16 -49 15 -51
-3 -65 -26 -19 -48 -12 -52 16 -5 34 -31 71 -58 81 -27 11 -111 -19 -131 -46
-22 -31 -16 -98 12 -132 30 -36 93 -68 150 -76 47 -7 100 19 114 57 5 12 30
48 55 80 86 104 100 178 43 221 -19 15 -42 26 -52 26 -10 0 -23 7 -30 16 -12
17 -99 37 -150 35 -16 0 -73 -3 -125 -6 -52 -2 -137 -6 -188 -7 -89 -3 -95 -4
-119 -32 -13 -16 -22 -36 -19 -45 27 -87 34 -126 25 -143 -10 -19 -3 -233 8
-251 3 -4 -1 -15 -8 -24 -14 -16 -15 -25 -23 -241 -4 -95 -13 -166 -26 -215
-11 -39 -19 -92 -18 -117 0 -25 -3 -70 -7 -101 -4 -31 -4 -145 0 -254 l7 -197
27 7 c30 7 37 7 106 -1 28 -3 54 -10 60 -15 16 -16 124 -10 151 8 23 14 33 15
83 5 92 -19 116 -16 145 19 14 17 26 39 26 50 0 11 6 32 14 47 7 15 17 53 21
86 6 55 5 60 -26 100 -18 22 -39 45 -46 49 -7 4 -13 15 -13 23 0 8 -4 20 -10
27 -5 7 -21 26 -35 44 -18 22 -43 37 -83 49 -69 20 -63 21 -142 -7 -73 -26
-80 -32 -80 -72 0 -16 -5 -38 -11 -50 -21 -38 -39 -121 -33 -152 l5 -31 85 -3
c47 -1 98 0 114 4 41 9 43 43 7 99 l-30 45 -28 -16 c-34 -21 -55 -7 -46 29 7
25 54 58 84 58 21 -1 81 -78 94 -122 10 -35 3 -75 -17 -98 -7 -8 -17 -27 -22
-41 -9 -22 -17 -26 -53 -27 -23 -1 -48 -7 -55 -13 -14 -11 -23 -10 -99 11 -22
6 -44 12 -50 13 -37 9 -44 24 -49 103 -3 44 -10 105 -16 134 -15 77 -13 92 18
139 22 34 31 41 51 38 15 -3 35 3 52 15 15 12 40 20 56 20 62 -2 136 -13 152
-22 10 -5 29 -11 43 -14 33 -6 94 -45 143 -90 21 -20 44 -36 51 -36 7 0 15 -8
18 -18 8 -24 56 -89 56 -75 0 6 -8 21 -19 34 -10 13 -21 34 -25 47 -4 12 -14
22 -22 22 -8 0 -31 15 -50 33 -62 58 -123 97 -152 97 -10 0 -26 6 -37 13 -37
25 -198 27 -225 2 -10 -9 -27 -14 -37 -11 -24 7 -35 -1 -67 -48 -29 -43 -33
-84 -16 -163 6 -26 11 -83 13 -125 2 -64 6 -80 22 -92 11 -9 28 -16 37 -16 10
0 38 -7 64 -16 40 -14 57 -14 108 -4 91 18 96 20 96 37 0 8 12 29 26 46 22 27
26 38 22 82 -3 41 -13 62 -46 106 -40 53 -44 56 -76 50 -45 -8 -86 -44 -86
-75 0 -56 21 -69 65 -40 21 14 25 14 25 2 0 -8 9 -23 20 -33 22 -20 26 -50 8
-61 -16 -10 -116 -15 -162 -8 l-39 6 6 57 c3 31 12 70 21 86 9 17 16 44 16 60
0 43 7 49 83 73 65 21 70 22 123 6 41 -12 61 -24 82 -52 15 -20 30 -38 35 -40
4 -2 7 -10 7 -17 0 -8 10 -24 23 -37 12 -13 33 -37 45 -55 26 -37 24 -76 -10
-181 -26 -78 -56 -106 -108 -97 -109 17 -141 18 -158 3 -20 -18 -113 -23 -122
-7 -10 14 -146 29 -180 18 -18 -5 -26 104 -23 316 3 240 12 333 36 363 6 7 12
77 14 155 5 196 9 245 23 262 9 11 10 34 5 78 -14 128 -15 172 -4 194 9 17 9
35 0 75 -24 104 -24 102 -1 123 19 17 37 20 114 20 50 0 96 4 102 7 5 4 37 3
69 -1 36 -5 71 -4 88 1 38 14 168 -5 179 -26 5 -9 19 -16 31 -16 28 -1 73 -38
80 -68 8 -33 -10 -88 -41 -125 -28 -32 -41 -50 -87 -119 -29 -44 -51 -52 -120
-43 -97 12 -162 95 -134 172 9 24 66 53 105 53 25 0 52 -32 59 -71 4 -21 30
-49 44 -49 17 1 52 38 52 55 0 44 -28 129 -47 141 -11 8 -53 18 -93 24 -62 9
-78 8 -97 -5 -13 -8 -31 -15 -40 -15 -35 0 -74 -34 -85 -75 -5 -22 -15 -53
-21 -69 -32 -82 29 -213 115 -246 17 -8 39 -19 48 -27 10 -8 48 -16 93 -18 94
-5 136 11 171 64 14 21 37 44 51 51 13 8 34 30 46 49 12 20 30 46 42 59 13 14
21 40 23 70 2 26 8 81 13 122 10 79 9 92 -17 152 -12 30 -24 40 -52 48 -20 5
-44 10 -53 10 -10 0 -18 4 -18 9 0 18 -66 25 -224 23 -98 -1 -171 -6 -188 -13
-23 -9 -52 -9 -131 0 -56 7 -106 17 -111 22 -6 5 -38 9 -73 9 -34 0 -88 7
-120 15 -32 9 -79 17 -105 20 -50 4 -129 44 -152 76 -31 45 -187 74 -256 48z"/>
<path d="M436 876 c-15 -13 -45 -29 -65 -35 -20 -6 -65 -25 -100 -43 -62 -31
-66 -36 -88 -93 -12 -33 -36 -87 -52 -120 -46 -95 -53 -127 -46 -218 9 -115
19 -135 79 -163 28 -13 59 -24 68 -24 10 0 32 -25 53 -59 20 -33 46 -61 57
-64 23 -7 65 8 90 30 12 11 28 14 55 9 79 -13 163 -9 182 8 10 9 27 16 38 16
11 0 52 12 89 26 86 33 167 34 199 4 31 -29 82 -35 135 -15 184 67 177 65 327
64 84 0 150 4 162 10 32 17 51 13 88 -19 38 -33 51 -36 78 -16 15 11 17 20 11
52 -4 21 -7 55 -7 75 1 19 -5 48 -13 64 -10 19 -15 58 -15 118 0 49 -2 92 -5
95 -4 3 -6 -38 -6 -92 0 -67 5 -106 15 -126 8 -16 15 -44 14 -62 -1 -18 2 -51
6 -74 7 -38 5 -42 -16 -47 -19 -5 -32 2 -62 30 -36 36 -38 37 -70 23 -20 -9
-91 -16 -197 -20 -148 -6 -172 -9 -235 -34 -82 -32 -142 -46 -164 -38 -9 3
-30 16 -47 29 -42 32 -101 30 -194 -7 -41 -17 -84 -30 -96 -30 -11 0 -29 -7
-40 -15 -22 -17 -112 -20 -163 -5 -30 8 -41 6 -77 -15 -57 -33 -87 -32 -113 4
-12 16 -21 34 -21 40 0 6 -4 11 -10 11 -5 0 -10 6 -10 14 0 8 -22 22 -52 32
-103 34 -115 54 -117 188 -2 87 19 175 50 214 10 14 19 31 19 38 0 8 4 22 10
32 5 9 16 34 24 55 11 28 25 42 53 53 21 9 80 36 131 61 l93 45 72 -15 c138
-30 141 -31 165 -67 17 -25 22 -44 19 -66 -3 -18 2 -48 14 -73 14 -33 16 -47
8 -62 -12 -23 -1 -179 12 -179 12 0 11 63 -1 95 -7 19 -7 39 2 66 9 33 9 45
-5 75 -9 19 -17 54 -17 77 0 24 -8 56 -20 74 -19 32 -57 59 -67 49 -3 -3 -15
0 -27 6 -11 7 -41 15 -66 19 -25 4 -58 9 -75 13 -23 5 -37 1 -59 -18z"/>
</g>
</svg>
