<?xml version="1.0" standalone="no"?>
<!DOCTYPE svg PUBLIC "-//W3C//DTD SVG 20010904//EN"
 "http://www.w3.org/TR/2001/REC-SVG-20010904/DTD/svg10.dtd">
<svg version="1.0" xmlns="http://www.w3.org/2000/svg"
 width="313.000000pt" height="318.000000pt" viewBox="0 0 313.000000 318.000000"
 preserveAspectRatio="xMidYMid meet">
<metadata>
Created by potrace 1.16, written by Peter Selinger 2001-2019
</metadata>
<g transform="translate(0.000000,318.000000) scale(0.100000,-0.100000)"
fill="#000000" stroke="none">
<path d="M1596 3061 c-9 -14 4 -255 16 -306 5 -22 14 -83 18 -135 5 -52 14
-118 20 -147 6 -29 9 -98 8 -155 -3 -100 -4 -103 -28 -109 -63 -18 -291 -40
-580 -55 -248 -14 -318 -20 -327 -32 -7 -8 -12 -46 -12 -88 0 -41 -2 -77 -4
-82 -10 -15 22 -409 36 -452 35 -107 57 -198 57 -233 0 -21 6 -50 14 -65 11
-21 14 -89 14 -307 0 -220 4 -297 17 -360 9 -44 21 -119 28 -167 7 -59 15 -88
24 -88 7 0 13 4 13 8 0 5 30 33 68 62 37 30 72 59 77 64 44 47 143 117 194
136 56 21 68 22 129 12 37 -6 103 -20 147 -32 99 -26 290 -53 317 -44 24 7 38
-10 38 -49 0 -15 11 -83 25 -150 13 -67 26 -135 27 -152 2 -19 9 -30 18 -30
25 0 18 71 -31 320 -5 28 -14 95 -19 150 -11 122 -27 245 -41 305 -6 25 -14
90 -19 145 -5 55 -14 116 -19 136 -6 19 -13 109 -15 200 -2 114 -9 184 -21
229 -39 147 -53 212 -48 230 3 10 42 41 88 69 l84 51 122 0 c128 0 192 8 319
41 41 10 100 21 130 24 30 3 72 11 93 17 31 9 44 8 72 -5 58 -28 61 -40 78
-307 14 -209 20 -262 46 -360 17 -63 31 -127 31 -141 0 -34 -127 -205 -208
-281 -55 -51 -185 -148 -199 -148 -8 0 -116 94 -222 192 -88 83 -121 104 -121
76 0 -14 194 -200 268 -257 23 -18 42 -37 42 -42 0 -6 -30 -45 -68 -88 -94
-109 -196 -251 -196 -275 -1 -34 21 -24 54 24 92 137 224 300 244 300 6 0 46
-46 88 -102 128 -175 198 -242 198 -192 0 8 -22 39 -48 67 -27 29 -83 98 -125
154 l-76 102 20 25 c11 15 29 26 40 26 28 0 172 -124 231 -198 22 -28 38 -28
38 -1 0 20 -87 112 -178 190 -23 19 -42 40 -42 45 0 5 27 31 60 58 50 40 157
167 190 225 4 8 14 12 22 8 17 -6 54 -151 69 -272 10 -78 17 -110 45 -188 10
-26 14 -91 14 -215 0 -168 6 -212 27 -199 12 8 8 402 -6 502 -17 129 -39 256
-56 320 -37 142 -49 182 -68 215 -47 83 -70 219 -87 508 -14 249 -14 249 -57
263 -66 22 -203 8 -368 -37 -84 -22 -125 -27 -258 -31 -167 -3 -185 -8 -255
-60 -18 -14 -40 -22 -48 -19 -21 8 -44 68 -44 114 0 22 -5 64 -11 93 -6 30
-10 119 -9 199 1 109 -3 156 -14 189 -9 24 -16 68 -16 98 0 29 -6 86 -14 126
-8 40 -17 128 -21 197 -4 84 -10 129 -19 138 -9 10 -16 11 -20 3z m65 -917 c7
-9 16 -54 19 -103 4 -47 14 -103 23 -123 15 -33 15 -40 2 -73 -14 -33 -14 -42
4 -113 45 -171 61 -266 61 -355 0 -51 5 -132 11 -182 6 -49 14 -124 19 -165 4
-41 12 -102 18 -135 42 -244 52 -382 27 -378 -5 0 -55 6 -110 13 -104 12 -184
29 -270 55 -86 27 -158 29 -211 6 -25 -12 -54 -21 -63 -21 -9 0 -74 -50 -144
-110 -70 -61 -132 -108 -136 -105 -5 3 -11 22 -14 42 -2 21 -9 52 -15 68 -6
17 -16 65 -22 109 -14 94 -15 92 105 158 44 24 118 73 165 108 100 74 170 109
237 116 40 5 59 1 118 -27 107 -50 255 -91 255 -70 0 16 -38 37 -95 54 -27 8
-90 31 -139 51 -103 41 -122 43 -204 17 -67 -22 -113 -48 -217 -126 -38 -28
-92 -64 -120 -80 -27 -15 -59 -34 -70 -41 -38 -27 -46 -18 -43 43 l3 58 90 55
c50 30 140 91 199 134 91 67 114 79 145 78 54 -2 116 -17 210 -51 46 -16 109
-36 140 -44 31 -8 64 -18 73 -22 21 -9 38 23 18 35 -7 4 -51 17 -99 30 -47 12
-120 35 -161 51 -47 18 -103 31 -150 35 -83 6 -83 7 -225 -100 -92 -69 -224
-148 -235 -141 -26 16 -6 48 66 107 43 35 107 88 143 119 66 56 220 166 247
176 8 3 31 -6 52 -19 20 -14 66 -37 102 -52 68 -29 146 -66 214 -103 23 -12
47 -22 54 -22 24 -1 8 31 -23 48 -17 9 -50 28 -75 42 -25 15 -81 41 -125 58
-44 18 -103 46 -131 62 -28 16 -58 29 -65 29 -20 0 -185 -118 -327 -233 -67
-54 -126 -96 -131 -93 -5 4 -9 42 -9 85 0 44 -5 88 -11 100 -6 11 -11 34 -11
51 0 38 -19 121 -31 135 -5 5 -9 20 -9 33 0 14 -9 55 -19 91 -22 73 -49 397
-34 412 13 13 619 49 656 38 54 -15 105 -10 157 16 28 14 50 30 50 35 0 21
-29 21 -66 1 -42 -23 -90 -26 -143 -11 -23 6 -108 5 -265 -5 -127 -8 -267 -16
-310 -17 -78 -3 -80 -2 -86 22 -3 14 -2 41 4 61 l9 36 206 12 c322 18 503 32
541 41 65 15 156 12 171 -6z"/>
<path d="M957 1823 c-11 -11 -8 -88 5 -101 21 -21 87 31 88 70 0 28 -72 53
-93 31z"/>
<path d="M1235 1791 c-36 -25 -40 -31 -39 -69 1 -61 51 -102 124 -102 31 0 80
48 80 79 0 36 -74 121 -104 121 -12 -1 -39 -13 -61 -29z"/>
<path d="M93 2095 c-3 -9 -2 -37 2 -63 8 -45 12 -112 14 -198 1 -51 35 -103
81 -126 31 -15 58 -16 230 -11 216 7 243 11 249 38 3 16 -2 17 -45 12 -27 -3
-128 -9 -224 -12 -165 -6 -177 -5 -207 14 -18 11 -34 31 -37 43 -13 67 -26
219 -21 240 12 46 -26 103 -42 63z"/>
<path d="M1980 1851 c-73 -14 -76 -30 -20 -89 53 -55 88 -57 126 -7 24 32 26
38 14 60 -11 20 -60 48 -79 44 -3 -1 -22 -4 -41 -8z"/>
<path d="M2418 1847 c-34 -13 -37 -48 -8 -77 26 -26 46 -25 75 5 31 30 32 49
3 69 -25 18 -32 18 -70 3z"/>
<path d="M2204 1641 c-58 -36 -50 -71 20 -91 40 -11 49 -10 78 7 39 23 42 49
8 74 -40 29 -71 32 -106 10z"/>
<path d="M2605 1455 c-108 -37 -121 -38 -351 -39 -213 -1 -234 -3 -253 -20
-12 -11 -21 -24 -21 -31 0 -13 60 -95 112 -153 80 -88 279 -232 321 -232 8 0
29 24 47 53 18 28 70 108 115 177 101 153 117 184 113 218 -3 23 -8 27 -38 29
-19 1 -39 0 -45 -2z m35 -52 c0 -21 -33 -78 -142 -240 -49 -73 -94 -133 -99
-133 -44 0 -249 166 -324 261 -71 90 -65 92 187 86 184 -4 201 -3 275 19 95
28 103 29 103 7z"/>
</g>
</svg>
