<?xml version="1.0" standalone="no"?>
<!DOCTYPE svg PUBLIC "-//W3C//DTD SVG 20010904//EN"
 "http://www.w3.org/TR/2001/REC-SVG-20010904/DTD/svg10.dtd">
<svg version="1.0" xmlns="http://www.w3.org/2000/svg"
 width="86.000000pt" height="99.000000pt" viewBox="0 0 86.000000 99.000000"
 preserveAspectRatio="xMidYMid meet">
<metadata>
Created by potrace 1.16, written by Peter Selinger 2001-2019
</metadata>
<g transform="translate(0.000000,99.000000) scale(0.100000,-0.100000)"
fill="#000000" stroke="none">
<path d="M331 904 c-22 -18 -31 -35 -31 -56 0 -23 -4 -29 -16 -24 -9 3 -19 6
-23 6 -5 0 -25 13 -45 30 -42 33 -79 32 -128 -2 -39 -27 -39 -84 -1 -122 22
-23 34 -26 71 -24 35 2 49 9 65 29 16 22 17 30 7 48 -15 30 -53 43 -86 31 -20
-8 -25 -16 -22 -38 3 -23 8 -27 41 -30 20 -2 37 1 37 6 0 6 -9 8 -20 5 -28 -7
-54 15 -39 33 24 29 79 10 79 -26 0 -23 -32 -50 -59 -50 -36 0 -62 19 -78 57
-14 34 -13 37 9 58 37 36 82 39 114 10 15 -14 45 -30 66 -37 22 -6 43 -19 47
-27 5 -9 11 -74 14 -146 4 -77 12 -148 22 -174 8 -24 15 -56 15 -70 0 -15 5
-32 12 -39 17 -17 -33 -16 -105 3 -92 24 -133 20 -169 -16 -28 -28 -30 -34
-25 -81 7 -60 27 -85 74 -94 44 -8 78 7 103 48 43 71 19 118 -60 118 -38 0
-52 -5 -63 -21 -17 -24 -9 -67 14 -82 42 -26 103 31 64 59 -18 13 -45 9 -45
-8 0 -5 8 -8 18 -6 10 2 17 -3 17 -12 0 -10 -10 -15 -30 -15 -24 0 -31 5 -33
23 -5 33 15 52 54 52 43 0 78 -32 68 -63 -12 -43 -55 -77 -95 -77 -46 0 -61
17 -67 80 -8 87 30 109 152 86 45 -9 92 -17 106 -18 19 -2 26 -11 32 -41 4
-21 15 -52 24 -68 9 -17 22 -56 30 -87 23 -88 54 -112 54 -41 0 22 5 84 11
137 13 110 20 121 108 179 45 29 61 34 90 29 44 -7 60 -23 67 -67 8 -48 -14
-69 -70 -69 -62 0 -100 52 -64 88 18 18 78 16 78 -3 0 -9 -9 -15 -22 -15 -16
0 -19 -3 -11 -11 14 -14 41 -5 50 17 16 43 -75 54 -109 13 -24 -29 -23 -42 9
-79 25 -30 30 -32 76 -27 64 8 77 20 77 72 0 59 -24 86 -81 92 -38 4 -53 1
-90 -23 -24 -15 -56 -39 -71 -53 -15 -13 -31 -22 -34 -18 -9 9 -9 119 0 218
11 104 3 149 -30 189 -25 29 -25 31 -9 56 18 28 90 63 146 71 46 7 97 -19 105
-53 15 -58 -37 -99 -95 -74 -46 19 -51 62 -10 75 26 9 41 -3 33 -27 -4 -15 -2
-19 7 -16 26 8 22 47 -5 59 -36 17 -76 -10 -76 -50 0 -23 8 -34 34 -50 42 -27
66 -26 100 0 23 18 27 27 24 68 -3 44 -5 47 -50 71 l-47 25 -71 -25 c-39 -14
-76 -30 -82 -37 -14 -18 -28 -16 -28 3 0 21 -57 74 -80 74 -10 0 -32 -12 -49
-26z m59 -29 c0 -8 -4 -15 -10 -15 -5 0 -10 7 -10 15 0 8 5 15 10 15 6 0 10
-7 10 -15z m-40 -25 c0 -5 -2 -10 -4 -10 -3 0 -8 5 -11 10 -3 6 -1 10 4 10 6
0 11 -4 11 -10z m100 -82 c0 -5 -22 -8 -49 -8 -28 0 -52 3 -54 8 -3 4 19 7 49
7 30 0 54 -3 54 -7z"/>
</g>
</svg>
