<?xml version="1.0" standalone="no"?>
<!DOCTYPE svg PUBLIC "-//W3C//DTD SVG 20010904//EN"
 "http://www.w3.org/TR/2001/REC-SVG-20010904/DTD/svg10.dtd">
<svg version="1.0" xmlns="http://www.w3.org/2000/svg"
 width="107.000000pt" height="112.000000pt" viewBox="0 0 107.000000 112.000000"
 preserveAspectRatio="xMidYMid meet">
<metadata>
Created by potrace 1.16, written by Peter Selinger 2001-2019
</metadata>
<g transform="translate(0.000000,112.000000) scale(0.100000,-0.100000)"
fill="#000000" stroke="none">
<path d="M622 973 c-3 -65 -4 -70 -47 -113 -25 -25 -45 -55 -45 -67 0 -12 23
-44 55 -77 59 -59 65 -76 36 -97 -10 -8 -55 -42 -99 -76 -45 -35 -85 -63 -90
-63 -5 0 -33 27 -63 60 -29 33 -58 60 -64 60 -5 -1 -41 -23 -80 -50 -38 -27
-89 -59 -112 -70 -46 -22 -59 -35 -44 -44 5 -4 12 -2 16 4 3 5 13 10 21 10 11
0 12 -4 4 -19 -5 -11 -10 -28 -10 -38 0 -15 4 -14 20 7 l20 25 1 -32 c2 -52 3
-56 14 -60 6 -2 9 23 7 65 l-3 68 40 28 c23 16 41 32 41 36 0 4 13 13 30 20
27 11 32 9 80 -31 27 -23 50 -47 50 -54 0 -6 -11 -22 -25 -35 -24 -23 -33 -50
-17 -50 5 0 19 11 32 25 30 32 42 31 71 -1 13 -15 34 -38 47 -51 l23 -25 -23
-26 c-56 -63 -77 -82 -93 -82 -30 0 -85 -29 -85 -44 0 -20 5 -20 34 0 15 9 26
11 30 5 4 -5 -2 -15 -12 -20 -19 -10 -37 -51 -23 -51 5 0 21 11 37 25 l29 25
3 -50 c4 -72 22 -62 22 13 l0 62 70 74 c69 74 69 75 47 90 -42 29 -107 94
-107 106 0 7 17 24 38 38 20 14 66 50 101 80 60 51 65 54 89 41 14 -7 28 -17
31 -21 3 -5 20 -19 38 -31 37 -26 47 -23 114 41 22 20 49 37 59 37 11 0 20 5
20 10 0 6 16 10 35 10 28 0 35 4 35 20 0 15 -7 20 -29 20 l-29 0 24 45 c25 47
20 59 -11 25 -18 -20 -41 -28 -31 -11 9 14 -4 41 -20 41 -10 0 -14 -15 -14
-56 0 -55 -1 -57 -59 -117 l-59 -61 -34 30 c-54 45 -61 61 -43 87 21 30 19 44
-3 24 -10 -10 -26 -17 -36 -17 -19 0 -116 87 -116 104 0 7 22 37 49 66 l48 55
67 0 c57 0 66 2 66 18 0 15 -7 18 -37 17 -54 -3 -58 -1 -45 12 7 7 12 21 12
32 0 17 -5 15 -36 -15 l-37 -34 7 28 c6 26 -7 67 -22 67 -4 0 -8 -30 -10 -67z"/>
</g>
</svg>
