<?xml version="1.0" standalone="no"?>
<!DOCTYPE svg PUBLIC "-//W3C//DTD SVG 20010904//EN"
 "http://www.w3.org/TR/2001/REC-SVG-20010904/DTD/svg10.dtd">
<svg version="1.0" xmlns="http://www.w3.org/2000/svg"
 width="78.000000pt" height="53.000000pt" viewBox="0 0 78.000000 53.000000"
 preserveAspectRatio="xMidYMid meet">
<metadata>
Created by potrace 1.16, written by Peter Selinger 2001-2019
</metadata>
<g transform="translate(0.000000,53.000000) scale(0.100000,-0.100000)"
fill="#000000" stroke="none">
<path d="M104 458 c5 -23 3 -28 -13 -28 -11 0 -23 -4 -26 -10 -3 -5 3 -10 15
-10 19 0 21 -4 15 -32 l-7 -33 23 21 c13 11 33 18 45 17 18 -4 20 -11 20 -66
0 -34 3 -73 6 -87 6 -20 2 -29 -14 -39 -19 -12 -23 -11 -38 9 -22 29 -34 12
-19 -26 8 -23 7 -31 -5 -40 -24 -17 -19 -27 10 -21 23 4 25 2 19 -24 -4 -18
-2 -29 4 -29 6 0 13 22 17 48 8 64 27 75 120 73 50 -1 91 5 133 19 75 25 91
20 91 -31 0 -29 6 -42 23 -53 28 -19 139 -41 160 -33 34 13 15 25 -58 36 -84
14 -91 22 -79 96 3 25 8 45 10 45 2 0 15 -5 29 -12 38 -17 75 3 75 41 0 16 -6
33 -12 38 -20 16 -66 24 -73 13 -10 -17 -35 -11 -35 8 0 9 5 34 11 55 l10 37
72 0 c71 0 109 11 93 27 -8 8 -159 6 -188 -3 -12 -3 -18 -15 -18 -33 0 -43
-16 -52 -64 -34 -61 22 -168 21 -234 -2 -20 -7 -66 20 -97 57 l-28 33 7 -27z
m291 -95 c0 -12 3 -25 8 -29 4 -4 7 2 7 14 0 11 4 23 8 26 14 9 35 -12 29 -28
-5 -13 -2 -15 17 -10 14 3 27 0 35 -10 17 -21 10 -52 -12 -48 -10 2 -17 -4
-17 -14 0 -10 -5 -14 -15 -10 -9 3 -24 -3 -34 -13 -10 -10 -28 -20 -40 -24
-18 -4 -21 -2 -16 13 5 15 2 17 -15 13 -13 -3 -19 -11 -16 -19 4 -11 -6 -14
-39 -14 -25 0 -45 5 -45 10 0 6 7 10 15 10 18 0 19 12 3 28 -10 10 -10 15 2
22 8 5 11 12 7 16 -4 4 -15 0 -25 -9 -10 -10 -24 -17 -30 -17 -14 0 -16 -16
-3 -24 5 -4 11 0 14 6 8 23 19 0 12 -23 l-8 -23 -18 23 c-22 26 -25 61 -7 79
9 9 9 12 0 12 -7 0 -12 7 -12 15 0 8 7 15 15 15 8 0 15 -7 15 -15 0 -8 4 -15
9 -15 5 0 7 8 4 18 -7 28 21 47 40 27 9 -8 23 -15 31 -15 9 0 16 -8 16 -17 0
-15 2 -15 9 -4 13 20 2 41 -21 41 -11 0 -16 5 -13 11 4 6 26 9 48 7 35 -3 42
-7 42 -25z"/>
<path d="M363 312 c-7 -4 -9 -13 -4 -21 6 -10 10 -9 15 5 8 20 4 25 -11 16z"/>
<path d="M450 305 c-7 -9 -10 -19 -6 -22 4 -4 11 -1 15 6 5 7 13 11 19 7 6 -3
13 -2 16 3 3 5 -1 12 -10 15 -21 8 -20 8 -34 -9z"/>
<path d="M296 271 c-8 -12 3 -41 15 -41 5 0 9 11 9 25 0 25 -14 34 -24 16z"/>
<path d="M380 270 c0 -5 5 -10 10 -10 6 0 10 5 10 10 0 6 -4 10 -10 10 -5 0
-10 -4 -10 -10z"/>
</g>
</svg>
