<?xml version="1.0" standalone="no"?>
<!DOCTYPE svg PUBLIC "-//W3C//DTD SVG 20010904//EN"
 "http://www.w3.org/TR/2001/REC-SVG-20010904/DTD/svg10.dtd">
<svg version="1.0" xmlns="http://www.w3.org/2000/svg"
 width="62.000000pt" height="93.000000pt" viewBox="0 0 62.000000 93.000000"
 preserveAspectRatio="xMidYMid meet">
<metadata>
Created by potrace 1.16, written by Peter Selinger 2001-2019
</metadata>
<g transform="translate(0.000000,93.000000) scale(0.100000,-0.100000)"
fill="#000000" stroke="none">
<path d="M208 846 c-64 -12 -120 -24 -124 -29 -12 -12 -4 -110 11 -127 9 -11
13 -61 13 -193 0 -141 3 -184 16 -211 8 -18 23 -64 31 -102 24 -107 34 -120
96 -130 47 -8 54 16 24 88 -45 107 -46 104 26 111 105 11 97 17 105 -73 l7
-80 33 0 c32 0 33 1 27 34 -9 56 25 57 45 1 8 -22 11 -25 11 -10 1 12 -9 48
-20 80 -15 42 -22 87 -23 150 -1 70 -9 112 -33 190 -24 75 -33 124 -36 197 -2
58 -9 104 -17 113 -16 19 -45 18 -192 -9z m175 -11 c-1 -5 -35 -13 -75 -17
-40 -4 -83 -12 -96 -18 -33 -15 -105 -13 -100 2 3 7 43 18 98 25 52 7 99 15
104 17 19 8 71 1 69 -9z m10 -40 c-1 -5 -24 -12 -50 -15 -45 -5 -48 -7 -58
-42 -5 -20 -14 -40 -18 -44 -11 -11 -27 15 -27 44 0 16 -6 22 -21 22 -37 0
-14 24 31 32 23 4 45 10 49 13 9 10 96 1 94 -10z m5 -52 c5 -34 -12 -57 -64
-82 -64 -32 -113 -31 -166 5 -45 29 -68 52 -68 66 0 12 28 10 50 -4 16 -10 24
-10 40 0 26 16 40 8 40 -23 0 -27 16 -36 48 -24 14 5 22 17 22 31 0 32 11 45
40 51 41 8 55 3 58 -20z m12 -143 c0 -19 -7 -28 -30 -37 -16 -6 -30 -16 -30
-22 0 -13 47 -34 72 -33 10 0 23 -8 28 -18 12 -22 17 -366 6 -377 -14 -15 -27
17 -34 88 l-7 74 -90 0 c-100 0 -169 11 -185 30 -11 13 -17 331 -7 341 6 6 75
-15 94 -29 13 -9 86 12 133 38 23 12 26 12 37 -8 7 -12 12 -33 13 -47z m-204
-340 c8 0 14 -9 14 -19 0 -10 11 -43 25 -73 38 -82 32 -112 -20 -92 -22 9 -51
77 -60 144 -7 47 -6 52 10 47 9 -4 23 -7 31 -7z"/>
<path d="M315 569 c-30 -20 -56 -21 -140 -4 -22 5 -15 -1 23 -20 35 -17 60
-24 75 -19 28 9 87 47 87 57 0 11 -12 7 -45 -14z"/>
<path d="M170 445 c0 -69 2 -76 25 -91 21 -13 41 -16 104 -11 102 7 121 17
121 64 l0 37 -40 -42 c-35 -36 -47 -42 -81 -42 -33 0 -47 6 -75 34 -29 29 -34
41 -34 80 0 25 -4 46 -10 46 -6 0 -10 -32 -10 -75z"/>
<path d="M230 471 c0 -54 47 -76 105 -49 30 13 31 25 6 56 -15 17 -30 22 -65
22 -44 0 -46 -1 -46 -29z m88 -4 c16 -19 -1 -39 -29 -35 -16 2 -25 11 -27 26
-3 18 1 22 21 22 14 0 29 -6 35 -13z"/>
</g>
</svg>
