<?xml version="1.0" standalone="no"?>
<!DOCTYPE svg PUBLIC "-//W3C//DTD SVG 20010904//EN"
 "http://www.w3.org/TR/2001/REC-SVG-20010904/DTD/svg10.dtd">
<svg version="1.0" xmlns="http://www.w3.org/2000/svg"
 width="217.000000pt" height="146.000000pt" viewBox="0 0 217.000000 146.000000"
 preserveAspectRatio="xMidYMid meet">
<metadata>
Created by potrace 1.16, written by Peter Selinger 2001-2019
</metadata>
<g transform="translate(0.000000,146.000000) scale(0.100000,-0.100000)"
fill="#000000" stroke="none">
<path d="M322 1337 c-18 -25 -32 -48 -32 -52 0 -3 -11 -21 -24 -38 -14 -18
-36 -66 -49 -107 -14 -41 -37 -106 -52 -145 -15 -38 -38 -108 -50 -155 -13
-47 -31 -105 -39 -129 -21 -57 -20 -74 4 -121 23 -46 63 -67 180 -98 163 -44
260 -56 445 -56 232 -1 257 6 279 78 9 28 16 69 17 91 2 22 9 47 16 56 8 9 18
44 24 78 5 35 19 86 29 114 11 29 20 64 20 78 0 14 11 59 25 99 30 89 34 184
7 216 -9 12 -30 29 -47 37 -57 28 -414 80 -640 94 l-81 4 -32 -44z m283 -7
c272 -26 485 -70 485 -99 0 -8 -95 -79 -180 -134 -19 -13 -83 -48 -142 -80
l-108 -56 -51 82 c-82 131 -91 145 -146 215 -66 84 -67 96 -10 88 23 -3 92
-11 152 -16z m-180 -85 c48 -57 197 -283 199 -301 1 -16 -81 -73 -184 -127
-47 -25 -112 -61 -144 -81 -33 -20 -64 -36 -69 -36 -5 0 -35 -16 -68 -35 -71
-41 -82 -32 -50 41 12 25 21 56 21 68 0 21 16 70 103 323 31 90 66 155 116
216 14 17 15 17 25 0 5 -10 28 -40 51 -68z m685 -93 c0 -22 -6 -60 -14 -85 -7
-25 -11 -49 -7 -52 3 -4 -2 -11 -12 -16 -12 -7 -17 -23 -17 -54 0 -25 -10 -65
-25 -97 -14 -29 -25 -68 -25 -86 0 -44 -20 -122 -31 -122 -5 0 -9 -10 -9 -23
0 -13 -6 -31 -13 -41 -11 -15 -15 -13 -37 24 -14 23 -45 67 -70 98 -63 79
-159 225 -154 233 2 4 42 28 88 53 102 55 171 99 251 160 33 25 63 46 68 46 4
0 7 -17 7 -38z m-424 -284 c9 -18 29 -49 44 -68 15 -19 38 -54 51 -78 13 -24
39 -60 57 -80 19 -20 47 -56 64 -80 29 -42 29 -44 12 -63 -30 -33 -88 -42
-244 -36 -135 6 -202 15 -370 53 -69 15 -190 67 -189 81 0 4 37 26 82 47 45
22 105 54 132 72 28 17 91 52 140 78 50 25 106 59 125 76 47 39 75 39 96 -2z"/>
<path d="M340 1103 c-28 -10 -69 -56 -75 -82 -3 -15 1 -44 8 -66 11 -33 21
-42 53 -53 68 -23 127 5 144 68 12 43 0 79 -36 111 -21 19 -71 30 -94 22z m71
-34 c11 -5 17 -14 14 -18 -3 -5 2 -11 10 -15 26 -10 18 -64 -14 -97 -45 -44
-108 -33 -131 22 -31 73 51 146 121 108z"/>
<path d="M334 1016 c-13 -10 -14 -17 -6 -33 23 -43 78 -31 66 14 -7 26 -37 35
-60 19z"/>
<path d="M868 983 c-29 -18 -38 -40 -38 -93 0 -47 27 -79 75 -90 68 -15 126
32 128 106 2 75 -95 120 -165 77z m92 -8 c57 -29 69 -99 24 -134 -58 -45 -134
-11 -134 59 0 42 30 77 78 89 2 1 16 -6 32 -14z"/>
<path d="M895 930 c-3 -6 -3 -19 0 -30 7 -23 43 -27 51 -5 12 29 -35 61 -51
35z"/>
<path d="M1362 908 c-5 -7 -26 -65 -46 -128 -19 -63 -54 -172 -76 -242 -48
-154 -54 -242 -17 -269 60 -44 454 -147 598 -156 l76 -6 32 62 c17 34 41 92
53 129 11 37 26 79 34 94 18 36 76 235 79 275 4 37 -26 63 -72 63 -16 0 -58 9
-93 19 -147 44 -419 131 -472 150 -67 24 -82 26 -96 9z m75 -103 c14 -27 38
-66 53 -85 48 -62 133 -221 124 -230 -28 -26 -345 -170 -376 -170 -22 0 5 150
41 235 17 39 30 81 36 118 3 20 10 37 15 37 6 0 10 10 10 22 0 12 10 53 22 90
25 78 27 78 75 -17z m127 24 c55 -17 170 -53 255 -80 84 -27 163 -49 175 -49
29 0 66 -11 66 -19 0 -7 -242 -111 -259 -111 -6 0 -35 -11 -65 -25 -74 -34
-88 -32 -108 13 -10 20 -28 51 -40 69 -53 74 -137 213 -138 226 0 10 3 10 114
-24z m470 -266 c-13 -38 -24 -78 -24 -91 0 -13 -7 -36 -15 -51 -8 -16 -24 -57
-36 -92 -24 -71 -78 -179 -89 -179 -15 0 -72 66 -92 105 -11 22 -33 58 -49 80
-15 22 -37 64 -48 93 l-21 53 48 20 c81 36 92 39 92 29 0 -6 -5 -10 -11 -10
-5 0 -17 -16 -25 -36 -27 -65 14 -134 83 -136 65 -2 103 33 105 97 1 40 -39
91 -76 97 -15 3 3 16 64 46 120 59 124 58 94 -25z m-127 -65 c16 -15 23 -33
23 -58 0 -47 -27 -70 -84 -70 -40 0 -45 3 -60 34 -21 45 -20 59 7 90 29 33 81
35 114 4z m-251 -89 c6 -20 40 -82 73 -137 34 -56 61 -106 61 -111 0 -12 -72
-4 -124 15 -23 7 -50 14 -61 14 -55 0 -352 88 -338 99 4 4 44 22 88 39 44 17
118 51 165 76 47 25 94 44 104 43 12 -1 24 -15 32 -38z"/>
<path d="M1378 660 c-9 -5 -24 -29 -33 -53 -17 -46 -11 -83 22 -119 24 -27 75
-33 112 -13 94 48 67 181 -39 191 -25 3 -53 0 -62 -6z m115 -42 c27 -31 22
-84 -10 -114 -19 -17 -34 -23 -48 -19 -11 4 -29 9 -40 12 -20 4 -45 44 -45 70
0 71 97 106 143 51z"/>
<path d="M1406 584 c-22 -22 -11 -34 30 -34 38 0 47 22 15 40 -25 13 -27 13
-45 -6z"/>
<path d="M1824 455 c-10 -24 12 -42 34 -29 24 16 21 38 -6 42 -13 2 -25 -3
-28 -13z"/>
</g>
</svg>
