<?xml version="1.0" standalone="no"?>
<!DOCTYPE svg PUBLIC "-//W3C//DTD SVG 20010904//EN"
 "http://www.w3.org/TR/2001/REC-SVG-20010904/DTD/svg10.dtd">
<svg version="1.0" xmlns="http://www.w3.org/2000/svg"
 width="71.000000pt" height="120.000000pt" viewBox="0 0 71.000000 120.000000"
 preserveAspectRatio="xMidYMid meet">
<metadata>
Created by potrace 1.16, written by Peter Selinger 2001-2019
</metadata>
<g transform="translate(0.000000,120.000000) scale(0.100000,-0.100000)"
fill="#000000" stroke="none">
<path d="M193 1088 c-26 -30 -35 -56 -22 -64 13 -8 4 -112 -16 -194 -20 -81
-35 -181 -35 -232 0 -24 -4 -69 -9 -99 -5 -30 -13 -103 -16 -164 l-7 -110 30
45 c30 47 90 106 139 136 15 10 38 26 50 37 l22 19 47 -73 c83 -132 116 -179
126 -179 5 0 8 3 6 8 -4 9 -90 142 -129 200 -16 23 -29 49 -29 56 0 8 39 47
86 87 88 76 113 94 120 87 6 -7 -15 -315 -30 -426 -7 -57 -10 -118 -6 -135 6
-29 8 -26 14 28 19 174 27 265 37 410 6 88 17 194 25 235 26 138 14 288 -24
309 -17 9 -270 41 -327 41 -20 0 -39 -8 -52 -22z m317 -22 c76 -17 82 -31 76
-181 -7 -181 -9 -189 -71 -235 -29 -21 -80 -64 -113 -94 -60 -56 -82 -68 -82
-42 0 7 -10 24 -23 37 -12 13 -35 42 -51 64 -16 22 -44 56 -62 75 -25 26 -32
41 -28 58 8 30 14 28 52 -20 18 -22 55 -65 82 -95 l50 -54 57 30 c40 21 74 51
108 94 28 34 53 64 58 65 28 13 -14 20 -154 25 -164 7 -229 20 -229 45 0 11 8
13 33 8 17 -4 68 -13 112 -21 118 -21 264 -18 250 5 -3 5 -14 6 -24 3 -18 -4
-19 -2 -10 34 5 21 9 66 9 100 0 85 -11 92 -171 99 -157 8 -157 8 -174 -112
-7 -49 -14 -84 -15 -79 -1 6 -2 13 -2 16 1 3 2 44 3 90 1 46 6 90 13 98 8 11
34 12 131 7 66 -4 145 -13 175 -20z m5 -36 c15 -12 17 -27 13 -96 -2 -47 -10
-89 -17 -98 -17 -20 -66 -20 -140 -2 -31 8 -77 17 -103 21 l-48 6 0 52 c1 47
2 50 15 34 7 -10 30 -22 50 -27 34 -8 37 -6 62 31 30 46 40 49 49 12 10 -40
23 -53 55 -53 23 0 30 6 35 27 9 36 -7 58 -42 57 -16 -1 -45 3 -64 9 -60 18
-111 13 -131 -14 l-19 -24 0 31 c0 51 12 56 146 52 88 -2 126 -7 139 -18z
m-201 -36 c19 -7 21 -35 4 -52 -15 -15 -30 -15 -51 1 -16 11 -16 14 -2 35 17
23 24 26 49 16z m154 -38 c5 -24 -10 -38 -31 -30 -17 6 -23 35 -10 48 12 12
38 1 41 -18z m-253 -170 c23 -25 157 -136 165 -136 4 0 33 27 63 60 29 33 61
60 70 60 10 0 17 -3 17 -6 0 -20 -99 -118 -140 -139 l-47 -24 -84 95 c-46 53
-86 100 -87 105 -5 12 30 0 43 -15z m197 -12 l57 -7 -42 -48 c-23 -27 -45 -49
-49 -49 -10 0 -122 100 -127 113 -2 6 17 7 50 3 30 -3 80 -9 111 -12z m-151
-205 c52 -64 63 -87 48 -105 -17 -21 -29 -17 -29 9 0 28 -95 158 -121 164 -19
5 -26 33 -12 47 8 7 40 -26 114 -115z m-47 -15 c21 -31 42 -71 46 -90 7 -31 5
-36 -18 -48 -15 -8 -47 -35 -72 -60 -24 -25 -48 -46 -53 -46 -5 0 -6 21 -3 48
3 26 8 80 12 120 3 39 10 72 14 72 5 0 6 -31 3 -69 -3 -38 -3 -77 1 -87 6 -15
11 -13 40 15 30 29 32 36 26 69 -9 45 -30 92 -42 92 -4 0 -8 9 -8 20 0 32 12
24 54 -36z m-26 -91 c-5 -58 -28 -54 -28 5 0 27 3 52 7 56 12 12 24 -23 21
-61z"/>
<path d="M355 940 c-7 -12 3 -50 14 -50 4 0 6 14 3 30 -5 32 -7 36 -17 20z"/>
<path d="M340 869 c0 -5 5 -7 10 -4 6 3 10 8 10 11 0 2 -4 4 -10 4 -5 0 -10
-5 -10 -11z"/>
<path d="M447 539 c-32 -23 -61 -47 -64 -55 -3 -8 13 -38 35 -67 22 -28 48
-69 58 -89 10 -21 21 -38 24 -38 6 0 30 216 30 268 0 31 -16 27 -83 -19z m63
2 c0 -4 -18 -20 -40 -35 -26 -17 -40 -34 -40 -49 -1 -21 -1 -22 -15 -3 -21 28
-20 30 33 65 49 32 62 37 62 22z m-6 -95 l-7 -57 -23 22 c-32 30 -30 60 4 80
15 9 28 15 30 14 1 -1 0 -28 -4 -59z m-16 -92 c-4 -3 -12 5 -18 18 -12 22 -12
22 6 6 10 -10 15 -20 12 -24z"/>
<path d="M296 368 c5 -8 2 -9 -10 -5 -24 10 -66 -37 -58 -65 3 -15 2 -19 -7
-14 -6 4 -9 12 -6 17 11 17 -10 8 -37 -16 -33 -29 -34 -30 -8 -32 11 -1 20 3
20 9 0 6 3 8 7 5 3 -4 17 0 30 8 16 11 23 12 23 3 0 -9 3 -9 12 0 8 8 8 15 -1
26 -10 12 -9 14 9 9 16 -4 23 0 27 16 7 26 23 18 23 -13 0 -12 5 -27 12 -34
14 -14 38 -16 38 -2 0 5 -7 7 -15 4 -8 -4 -15 -2 -15 4 0 6 5 12 11 14 12 4
-8 57 -26 70 -16 12 -37 9 -29 -4z"/>
<path d="M280 280 c0 -5 5 -10 10 -10 6 0 10 5 10 10 0 6 -4 10 -10 10 -5 0
-10 -4 -10 -10z"/>
<path d="M380 251 c0 -5 7 -14 15 -21 12 -10 15 -10 15 3 0 8 -7 17 -15 21 -8
3 -15 2 -15 -3z"/>
<path d="M426 179 c6 -11 31 -12 37 -1 3 4 -6 8 -19 8 -13 1 -21 -2 -18 -7z"/>
</g>
</svg>
