<?xml version="1.0" standalone="no"?>
<!DOCTYPE svg PUBLIC "-//W3C//DTD SVG 20010904//EN"
 "http://www.w3.org/TR/2001/REC-SVG-20010904/DTD/svg10.dtd">
<svg version="1.0" xmlns="http://www.w3.org/2000/svg"
 width="261.000000pt" height="218.000000pt" viewBox="0 0 261.000000 218.000000"
 preserveAspectRatio="xMidYMid meet">
<metadata>
Created by potrace 1.16, written by Peter Selinger 2001-2019
</metadata>
<g transform="translate(0.000000,218.000000) scale(0.100000,-0.100000)"
fill="#000000" stroke="none">
<path d="M1578 2073 c-27 -27 -40 -34 -50 -26 -13 10 -201 9 -273 -3 l-40 -6
3 -107 c3 -81 0 -116 -12 -144 -14 -34 -18 -37 -36 -27 -28 15 -29 19 -33 133
-4 95 -3 98 22 117 20 14 23 22 15 30 -9 9 -20 8 -45 -3 -30 -13 -107 -25
-258 -41 -24 -2 -56 -13 -70 -24 -28 -21 -28 -20 -12 -152 21 -162 34 -347 27
-373 -3 -15 -15 -36 -26 -47 -34 -34 -46 -32 -439 61 -68 16 -126 31 -128 33
-3 2 -6 48 -8 103 -3 93 -2 101 28 156 23 45 28 60 18 70 -9 9 -17 5 -35 -17
-24 -31 -52 -28 -43 5 6 23 -16 55 -31 45 -7 -4 -9 -23 -5 -51 l6 -44 -41 2
c-23 1 -42 -2 -43 -8 -2 -10 3 -13 65 -39 33 -14 37 -20 30 -39 -4 -12 -6 -67
-5 -122 2 -98 3 -101 34 -133 56 -56 146 -81 311 -87 127 -4 269 -25 285 -41
8 -8 9 -34 9 -309 0 -212 -1 -271 -6 -311 -3 -15 -90 -74 -110 -74 -27 0 -154
-31 -192 -47 -19 -9 -58 -24 -87 -33 -28 -10 -66 -31 -83 -47 l-33 -28 6 -156
c6 -154 21 -239 44 -239 17 0 22 21 11 49 -5 14 -13 90 -17 170 -11 190 -19
180 171 205 103 14 163 27 216 48 71 29 105 31 100 6 -1 -7 1 -29 5 -48 4 -20
3 -68 -2 -107 -7 -58 -6 -86 8 -140 17 -66 18 -68 50 -71 19 -2 55 4 81 12 62
20 302 33 333 18 46 -22 240 -46 435 -53 33 -1 60 27 94 96 27 57 37 111 53
294 1 19 10 40 19 47 22 16 137 26 292 25 106 0 132 -3 167 -21 91 -45 117
-93 117 -216 0 -59 3 -74 15 -74 36 0 63 163 31 189 -7 6 -16 24 -19 39 -3 15
-24 47 -46 72 -23 24 -44 52 -47 62 -6 21 -90 48 -150 48 -24 0 -90 -10 -146
-22 -57 -12 -134 -22 -171 -23 -61 0 -70 3 -88 25 -18 22 -19 35 -14 120 4 75
1 115 -16 190 -49 223 -52 245 -39 305 15 70 37 95 88 95 54 0 249 61 287 90
6 4 37 15 70 25 111 34 205 93 205 129 0 10 8 25 18 32 14 11 15 16 5 33 -8
13 -13 56 -13 109 l0 88 -52 11 c-60 13 -77 5 -61 -29 17 -36 33 -125 33 -184
0 -45 -4 -56 -23 -68 -40 -27 -241 -99 -297 -107 -109 -16 -198 -22 -242 -15
l-46 7 5 107 c5 109 -8 199 -41 287 -8 22 -15 64 -16 93 0 112 -53 144 -122
75z m76 -19 c3 -9 6 -39 6 -67 0 -29 9 -70 19 -92 37 -81 54 -238 36 -335 -9
-55 -16 -63 -67 -90 -22 -11 -47 -27 -55 -35 -8 -8 -29 -15 -47 -15 -23 0 -41
-9 -66 -35 -32 -33 -51 -41 -118 -50 -18 -2 -39 -9 -47 -15 -7 -6 -70 -13
-143 -16 -109 -4 -132 -3 -145 10 -10 10 -34 16 -64 16 -53 0 -99 29 -89 56 3
7 1 16 -4 19 -6 4 -10 39 -10 80 0 40 -5 108 -11 151 -6 43 -14 116 -19 163
-5 47 -11 98 -15 112 -6 22 -2 28 24 39 50 20 58 10 64 -77 3 -43 8 -89 11
-103 4 -14 9 -47 12 -75 13 -125 54 -195 113 -195 52 0 174 21 210 37 19 8 46
11 61 8 16 -3 31 -2 34 3 3 6 45 11 94 12 128 2 164 10 181 42 18 31 16 39
-51 293 l-24 90 40 43 c44 45 60 51 70 26z m-174 -340 c11 -12 11 -18 -2 -30
-20 -20 -58 -3 -58 26 0 25 41 28 60 4z m-382 -46 c17 -17 15 -42 -7 -69 l-19
-24 -28 21 c-37 27 -39 39 -15 63 24 24 51 27 69 9z m657 -279 c4 -5 -1 -19
-10 -29 -10 -11 -15 -28 -12 -40 6 -25 -18 -27 -32 -3 -17 31 -26 4 -26 -78 0
-80 2 -88 22 -68 8 8 13 8 17 0 4 -6 2 -11 -3 -11 -6 0 -12 -19 -12 -42 -1
-24 -3 -35 -6 -25 -2 9 -9 17 -14 17 -14 0 -11 -28 4 -37 26 -17 49 -67 50
-113 2 -52 13 -73 23 -46 9 24 21 20 37 -14 17 -33 13 -60 -15 -105 -12 -20
-16 -40 -12 -61 4 -20 1 -34 -9 -42 -12 -10 -13 -8 -9 13 7 39 -24 32 -44 -10
-9 -19 -23 -35 -32 -35 -23 0 -82 -23 -82 -32 0 -4 -22 -5 -49 -2 -28 2 -52 0
-56 -6 -3 -5 -18 -10 -32 -10 -22 0 -25 -3 -20 -27 4 -21 -1 -33 -19 -50 -26
-24 -58 -30 -68 -14 -3 5 -15 7 -26 4 -32 -8 -35 23 -7 79 l26 52 10 -28 c15
-38 14 -56 -4 -56 -23 0 -18 -16 10 -34 31 -20 45 -14 45 22 0 15 7 36 15 46
22 30 19 82 -7 108 -22 22 -23 22 -27 3 -2 -10 2 -21 8 -23 14 -5 14 -52 0
-52 -6 0 -13 9 -16 19 -6 24 -34 36 -44 19 -24 -38 -37 -52 -71 -69 -21 -11
-38 -23 -38 -27 1 -23 28 -91 43 -106 9 -10 17 -26 17 -36 0 -17 -3 -17 -26 5
-15 14 -30 22 -35 19 -5 -3 -9 6 -9 20 0 14 -5 28 -11 32 -6 4 -8 20 -4 40 3
19 3 34 0 34 -18 0 -47 -24 -55 -46 -8 -21 -13 -23 -30 -14 -23 12 -27 30 -6
30 22 0 27 15 16 45 -6 17 -16 25 -24 22 -8 -3 -17 0 -19 8 -3 7 3 15 15 18
11 3 17 10 13 16 -8 14 -56 -19 -51 -34 2 -5 7 -18 11 -28 4 -10 3 -17 -4 -17
-19 0 -61 31 -61 45 0 18 -41 27 -58 12 -12 -10 -14 -7 -8 20 6 24 3 34 -10
41 -13 7 -14 13 -5 31 10 18 8 26 -12 51 -24 28 -30 71 -13 99 4 6 6 24 5 39
-2 15 0 32 4 39 4 7 0 16 -9 21 -17 10 -15 21 8 54 10 13 9 22 -1 42 -9 16
-12 41 -8 71 4 25 3 45 -2 45 -13 0 -21 53 -10 66 6 8 25 6 64 -8 31 -10 60
-16 64 -14 4 3 75 8 157 12 99 4 160 11 181 21 17 8 41 12 51 9 13 -4 22 -1
26 9 3 8 13 15 23 15 9 0 26 8 37 19 35 31 63 35 76 11 11 -21 12 -21 31 -4
34 31 62 41 81 30 14 -9 21 -6 33 12 17 24 40 29 50 11z m-775 -789 c0 -5 -4
-10 -10 -10 -5 0 -10 5 -10 10 0 6 5 10 10 10 6 0 10 -4 10 -10z m552 -22
c-12 -12 -24 -19 -28 -16 -3 4 4 16 16 28 12 12 24 19 28 16 3 -4 -4 -16 -16
-28z m68 -8 c0 -5 -2 -10 -4 -10 -3 0 -8 5 -11 10 -3 6 -1 10 4 10 6 0 11 -4
11 -10z m-40 -105 c8 0 15 9 15 20 0 11 8 21 18 23 13 3 17 -3 17 -25 0 -16 4
-33 9 -38 6 -6 3 -24 -8 -46 -11 -22 -16 -49 -13 -72 4 -32 1 -37 -16 -37 -12
0 -24 5 -27 10 -3 6 -15 10 -26 10 -12 0 -19 7 -19 20 0 14 9 21 35 26 33 6
40 19 12 19 -7 0 -11 12 -9 28 4 41 -26 35 -44 -9 -11 -27 -18 -34 -27 -25 -6
6 -20 11 -31 11 -16 0 -17 -3 -8 -12 14 -14 16 -48 2 -48 -5 0 -15 10 -21 23
-17 31 -31 38 -49 23 -8 -7 -27 -16 -43 -20 -23 -5 -29 -2 -39 20 -11 23 -10
28 7 40 10 8 26 12 35 9 11 -4 19 4 25 27 8 26 16 34 39 36 27 3 28 2 16 -13
-12 -14 -12 -18 1 -26 22 -14 39 -11 33 6 -4 9 0 15 9 15 8 0 17 -7 21 -15 10
-27 26 -16 26 19 0 40 20 52 35 22 6 -12 17 -21 25 -21z m-404 -2 c-10 -10
-19 5 -10 18 6 11 8 11 12 0 2 -7 1 -15 -2 -18z m44 -13 c0 -5 -7 -10 -16 -10
-8 0 -12 5 -9 10 3 6 10 10 16 10 5 0 9 -4 9 -10z m-210 -10 c0 -5 -4 -10 -10
-10 -5 0 -10 5 -10 10 0 6 5 10 10 10 6 0 10 -4 10 -10z m450 -156 c0 -8 -7
-14 -15 -14 -15 0 -21 21 -9 33 10 9 24 -2 24 -19z m268 -12 c2 -15 -2 -22
-12 -22 -11 0 -16 9 -16 26 0 31 23 28 28 -4z m62 -40 c0 -15 -32 -52 -45 -52
-24 0 -26 19 -5 40 20 20 50 27 50 12z"/>
<path d="M1456 1201 c-4 -7 -5 -15 -2 -18 9 -9 19 4 14 18 -4 11 -6 11 -12 0z"/>
<path d="M1310 1180 c0 -5 5 -10 10 -10 6 0 10 5 10 10 0 6 -4 10 -10 10 -5 0
-10 -4 -10 -10z"/>
<path d="M1270 1132 c0 -5 11 -15 25 -22 28 -15 32 -28 10 -36 -8 -4 -15 -17
-15 -30 0 -17 -6 -24 -20 -24 -11 0 -20 6 -20 14 0 11 -7 12 -27 7 -19 -5 -27
-14 -26 -26 2 -24 -14 -65 -26 -65 -5 0 -11 9 -14 20 -3 11 -12 20 -21 20 -25
0 -19 -15 19 -51 19 -19 35 -39 35 -46 0 -17 10 -16 31 3 16 14 19 14 34 -10
20 -30 9 -59 -11 -31 -12 16 -14 16 -20 2 -3 -9 -3 -20 0 -26 8 -12 46 -11 63
2 7 5 17 6 23 2 6 -4 18 -1 26 6 12 10 17 9 28 -6 13 -18 14 -18 26 4 8 17 9
26 1 34 -15 15 -14 27 2 21 10 -3 13 3 9 24 -3 24 -8 28 -27 24 -14 -2 -28
-16 -35 -33 -7 -16 -18 -29 -25 -29 -14 0 -45 32 -45 48 0 6 -9 14 -20 17 -11
4 -20 15 -20 26 0 17 3 18 23 8 12 -7 26 -18 30 -25 4 -8 19 -14 32 -14 32 0
33 27 4 64 -11 14 -16 26 -10 26 6 0 18 11 27 24 15 24 14 26 -18 55 -34 31
-48 38 -48 23z"/>
<path d="M1260 1080 c0 -5 5 -10 10 -10 6 0 10 5 10 10 0 6 -4 10 -10 10 -5 0
-10 -4 -10 -10z"/>
<path d="M1362 979 c2 -6 8 -10 13 -10 5 0 11 4 13 10 2 6 -4 11 -13 11 -9 0
-15 -5 -13 -11z"/>
<path d="M984 948 c3 -13 6 -27 6 -33 0 -5 6 1 14 15 15 28 12 40 -11 40 -11
0 -14 -6 -9 -22z"/>
<path d="M927 903 c-14 -13 -6 -33 13 -33 22 0 23 1 14 24 -7 17 -16 20 -27 9z"/>
<path d="M1160 860 c0 -5 5 -10 10 -10 6 0 10 5 10 10 0 6 -4 10 -10 10 -5 0
-10 -4 -10 -10z"/>
<path d="M1412 858 c3 -7 13 -15 24 -17 16 -3 17 -1 5 13 -16 19 -34 21 -29 4z"/>
<path d="M1403 786 c-27 -13 -29 -24 -8 -33 9 -3 25 3 35 12 36 33 20 45 -27
21z"/>
<path d="M1506 691 c-3 -5 1 -11 9 -15 8 -3 15 -1 15 4 0 13 -18 22 -24 11z"/>
<path d="M1224 666 c-8 -22 3 -33 18 -18 9 9 9 15 0 24 -9 9 -13 7 -18 -6z"/>
<path d="M2445 1930 c-3 -5 -1 -10 4 -10 6 0 11 5 11 10 0 6 -2 10 -4 10 -3 0
-8 -4 -11 -10z"/>
</g>
</svg>
