<?xml version="1.0" encoding="UTF-8" standalone="no"?>
<!-- Created with Inkscape (http://www.inkscape.org/) -->

<svg
   xmlns:dc="http://purl.org/dc/elements/1.1/"
   xmlns:cc="http://creativecommons.org/ns#"
   xmlns:rdf="http://www.w3.org/1999/02/22-rdf-syntax-ns#"
   xmlns:svg="http://www.w3.org/2000/svg"
   xmlns="http://www.w3.org/2000/svg"
   xmlns:xlink="http://www.w3.org/1999/xlink"
   xmlns:sodipodi="http://sodipodi.sourceforge.net/DTD/sodipodi-0.dtd"
   xmlns:inkscape="http://www.inkscape.org/namespaces/inkscape"
   id="svg2"
   xml:space="preserve"
   viewBox="0 0 1100 1170"
   version="1.1"
   inkscape:version="0.91 r13725"
   sodipodi:docname="greengoo-cauldron.svg"
   width="1100"
   height="1170"><sodipodi:namedview
     pagecolor="#ffffff"
     bordercolor="#666666"
     borderopacity="1"
     objecttolerance="10"
     gridtolerance="10"
     guidetolerance="10"
     inkscape:pageopacity="0"
     inkscape:pageshadow="2"
     inkscape:window-width="1916"
     inkscape:window-height="1035"
     id="namedview471"
     showgrid="false"
     inkscape:zoom="0.60106677"
     inkscape:cx="509.95729"
     inkscape:cy="535.83701"
     inkscape:window-x="6"
     inkscape:window-y="5"
     inkscape:window-maximized="0"
     inkscape:current-layer="g12"
     fit-margin-top="0"
     fit-margin-left="0"
     fit-margin-right="0"
     fit-margin-bottom="0" /><defs
     id="defs6"><linearGradient
       inkscape:collect="always"
       id="linearGradient4640"><stop
         style="stop-color:#46474b;stop-opacity:1;"
         offset="0"
         id="stop4642" /><stop
         style="stop-color:#46474b;stop-opacity:0;"
         offset="1"
         id="stop4644" /></linearGradient><radialGradient
       id="radialGradient24"
       gradientUnits="userSpaceOnUse"
       cy="-18.002001"
       cx="-71.889999"
       gradientTransform="matrix(-0.46896,0.64816,-0.52784,-0.4812,-21.683,83.577)"
       r="4.0731001"><stop
         id="stop26"
         style="stop-color:#46464a"
         offset="0" /><stop
         id="stop28"
         style="stop-color:#202124"
         offset="1" /></radialGradient><radialGradient
       id="radialGradient42"
       gradientUnits="userSpaceOnUse"
       cy="60.999001"
       cx="18.669001"
       gradientTransform="matrix(0.77432,0.20104,-0.20104,0.77432,23.057,7.5405)"
       r="35.166"><stop
         id="stop44"
         style="stop-color:#46464a"
         offset="0" /><stop
         id="stop46"
         style="stop-color:#202124"
         offset="1" /></radialGradient><radialGradient
       id="radialGradient60"
       gradientUnits="userSpaceOnUse"
       cy="-20.775"
       cx="-68.518997"
       gradientTransform="matrix(-0.46944,0.64776,-0.52888,-0.48136,-24.826,80.748)"
       r="1.6827"><stop
         id="stop62"
         style="stop-color:#46464a"
         offset="0" /><stop
         id="stop64"
         style="stop-color:#202124"
         offset="1" /></radialGradient><radialGradient
       id="radialGradient78"
       gradientUnits="userSpaceOnUse"
       cy="-24.697001"
       cx="-71.532997"
       gradientTransform="matrix(-0.46776,0.64904,-0.52936,-0.48584,-29.202,76.553)"
       r="2.7579999"><stop
         id="stop80"
         style="stop-color:#46464a"
         offset="0" /><stop
         id="stop82"
         style="stop-color:#202124"
         offset="1" /></radialGradient><radialGradient
       id="radialGradient96"
       gradientUnits="userSpaceOnUse"
       cy="-7.2813001"
       cx="-77.457001"
       gradientTransform="matrix(-0.46632,0.65,-0.52288,-0.48048,-9.5978,94.535)"
       r="1.4153"><stop
         id="stop98"
         style="stop-color:#46464a"
         offset="0" /><stop
         id="stop100"
         style="stop-color:#202124"
         offset="1" /></radialGradient><linearGradient
       id="linearGradient114"
       y2="74.496002"
       gradientUnits="userSpaceOnUse"
       x2="40.610001"
       gradientTransform="matrix(0.76752,0.22568,0.22568,-0.76752,-1.4699,102)"
       y1="74.496002"
       x1="-10.699"><stop
         id="stop116"
         style="stop-color:#151617"
         offset="0" /><stop
         id="stop118"
         style="stop-color:#2e2e30"
         offset="1" /></linearGradient><linearGradient
       id="linearGradient132"
       y2="77.280998"
       gradientUnits="userSpaceOnUse"
       x2="46.439999"
       gradientTransform="matrix(0.76752,0.2256,0.2256,-0.76752,-1.4699,102)"
       y1="77.280998"
       x1="-14.22"><stop
         id="stop134"
         style="stop-color:#424347"
         offset="0" /><stop
         id="stop136"
         style="stop-color:#323336"
         offset=".0627" /><stop
         id="stop138"
         style="stop-color:#4d4e52"
         offset=".1608" /><stop
         id="stop140"
         style="stop-color:#64656b"
         offset=".3608" /><stop
         id="stop142"
         style="stop-color:#4d4e52"
         offset=".47840" /><stop
         id="stop144"
         style="stop-color:#323336"
         offset=".90980" /><stop
         id="stop146"
         style="stop-color:#4a4b4f"
         offset="1" /></linearGradient><radialGradient
       id="radialGradient160"
       gradientUnits="userSpaceOnUse"
       cy="89.847"
       cx="18.742001"
       gradientTransform="matrix(0.78712,0.14296,-0.14104,0.7764,24.05,-38.467)"
       r="34.147999"><stop
         id="stop162"
         style="stop-color:#5e5e63"
         offset="0" /><stop
         id="stop164"
         style="stop-color:#242529"
         offset="1" /></radialGradient><radialGradient
       id="radialGradient178"
       gradientUnits="userSpaceOnUse"
       cy="87.463997"
       cx="17.973"
       gradientTransform="matrix(0.78712,0.1428,-0.1428,0.78712,23.515,-35.691)"
       r="34.936001"><stop
         id="stop180"
         style="stop-color:#46464a"
         offset="0" /><stop
         id="stop182"
         style="stop-color:#202124"
         offset="1" /></radialGradient><radialGradient
       id="radialGradient196"
       gradientUnits="userSpaceOnUse"
       cy="40.127998"
       cx="85.829002"
       gradientTransform="matrix(0.59312,-0.53688,0.53688,0.59312,-44.559,54.405)"
       r="34.700001"><stop
         id="stop198"
         style="stop-color:#606066"
         offset="0" /><stop
         id="stop200"
         style="stop-color:#48484d"
         offset=".20390" /><stop
         id="stop202"
         style="stop-color:#2e2f33"
         offset=".81570" /><stop
         id="stop204"
         style="stop-color:#292a2e"
         offset="1" /></radialGradient><radialGradient
       id="radialGradient218"
       gradientUnits="userSpaceOnUse"
       cy="-30.435247"
       cx="85.643875"
       gradientTransform="matrix(0.0597679,-0.80184945,1.1773216,0.1508033,59.434808,110.07344)"
       r="31.139999"
       fx="85.643875"
       fy="-30.435247"><stop
         id="stop220"
         style="stop-color:#606066"
         offset="0" /><stop
         id="stop222"
         style="stop-color:#46464a"
         offset=".20390" /><stop
         id="stop224"
         style="stop-color:#202124"
         offset=".81570" /><stop
         id="stop226"
         style="stop-color:#292a2e"
         offset="1" /></radialGradient><radialGradient
       id="radialGradient242"
       gradientUnits="userSpaceOnUse"
       cy="40.130001"
       cx="85.828003"
       gradientTransform="matrix(0.59312,-0.53688,0.53688,0.59312,-44.559,54.402)"
       r="34.681999"><stop
         id="stop244"
         style="stop-color:#606066"
         offset="0" /><stop
         id="stop246"
         style="stop-color:#48484d"
         offset=".20390" /><stop
         id="stop248"
         style="stop-color:#2e2f33"
         offset=".81570" /><stop
         id="stop250"
         style="stop-color:#292a2e"
         offset="1" /></radialGradient><radialGradient
       id="radialGradient264"
       gradientUnits="userSpaceOnUse"
       cy="40.070999"
       cx="85.876999"
       gradientTransform="matrix(0.59296,-0.53704,0.53704,0.59296,-44.51,54.485)"
       r="34.708"><stop
         id="stop266"
         style="stop-color:#606066"
         offset="0" /><stop
         id="stop268"
         style="stop-color:#48484d"
         offset=".20390" /><stop
         id="stop270"
         style="stop-color:#2e2f33"
         offset=".81570" /><stop
         id="stop272"
         style="stop-color:#292a2e"
         offset="1" /></radialGradient><radialGradient
       id="radialGradient286"
       gradientUnits="userSpaceOnUse"
       cy="-12.498"
       cx="-83.633003"
       gradientTransform="matrix(-0.46752,0.6492,-0.52808,-0.4776,-15.531,89.286)"
       r="2.9730999"><stop
         id="stop288"
         style="stop-color:#46464a"
         offset="0" /><stop
         id="stop290"
         style="stop-color:#202124"
         offset="1" /></radialGradient><radialGradient
       id="radialGradient304"
       gradientUnits="userSpaceOnUse"
       cy="82.929001"
       cx="14.903"
       gradientTransform="matrix(0.98820872,0.15332664,0.14360549,-1.1631611,7.834418,114.54041)"
       r="30.82"><stop
         id="stop306"
         style="stop-color:#adadb8"
         offset="0" /><stop
         id="stop308"
         style="stop-color:#44454d"
         offset="1" /></radialGradient><radialGradient
       id="radialGradient322"
       gradientUnits="userSpaceOnUse"
       cy="-24.709999"
       cx="-82.504997"
       gradientTransform="matrix(-0.46784,0.64888,-0.52904,-0.4808,-29.264,76.742)"
       r="8.5065002"><stop
         id="stop324"
         style="stop-color:#46464a"
         offset="0" /><stop
         id="stop326"
         style="stop-color:#202124"
         offset="1" /></radialGradient><linearGradient
       id="linearGradient340"
       y2="94.439003"
       gradientUnits="userSpaceOnUse"
       x2="53.776001"
       gradientTransform="matrix(0.79936,0.03136,0.03136,-0.79936,-1.4694,102)"
       y1="94.439003"
       x1="12.97"><stop
         id="stop342"
         style="stop-color:#424347"
         offset="0" /><stop
         id="stop344"
         style="stop-color:#323336"
         offset=".0627" /><stop
         id="stop346"
         style="stop-color:#4d4e52"
         offset=".1608" /><stop
         id="stop348"
         style="stop-color:#64656b"
         offset=".3608" /><stop
         id="stop350"
         style="stop-color:#4d4e52"
         offset=".47840" /><stop
         id="stop352"
         style="stop-color:#323336"
         offset=".90980" /><stop
         id="stop354"
         style="stop-color:#4a4b4f"
         offset="1" /></linearGradient><radialGradient
       id="radialGradient368"
       gradientUnits="userSpaceOnUse"
       cy="8.8690996"
       cx="-86.096001"
       gradientTransform="matrix(-0.46616,0.65016,-0.5316,-0.4784,8.551,111.02)"
       r="2.4456"><stop
         id="stop370"
         style="stop-color:#46464a"
         offset="0" /><stop
         id="stop372"
         style="stop-color:#202124"
         offset="1" /></radialGradient><radialGradient
       id="radialGradient386"
       gradientUnits="userSpaceOnUse"
       cy="-8.6093998"
       cx="-84.041"
       gradientTransform="matrix(-0.46984,0.64752,-0.52512,-0.47776,-11.117,93.228)"
       r="2.533"><stop
         id="stop388"
         style="stop-color:#46464a"
         offset="0" /><stop
         id="stop390"
         style="stop-color:#202124"
         offset="1" /></radialGradient><radialGradient
       id="radialGradient404"
       gradientUnits="userSpaceOnUse"
       cy="40.105"
       cx="85.839996"
       gradientTransform="matrix(0.59296,-0.53704,0.53704,0.59296,-44.547,54.445)"
       r="34.708"><stop
         id="stop406"
         style="stop-color:#606066"
         offset="0" /><stop
         id="stop408"
         style="stop-color:#48484d"
         offset=".20390" /><stop
         id="stop410"
         style="stop-color:#2e2f33"
         offset=".81570" /><stop
         id="stop412"
         style="stop-color:#292a2e"
         offset="1" /></radialGradient><radialGradient
       id="radialGradient426"
       gradientUnits="userSpaceOnUse"
       cy="40.076"
       cx="85.875"
       gradientTransform="matrix(0.59296,-0.53704,0.53704,0.59296,-44.512,54.477)"
       r="34.673"><stop
         id="stop428"
         style="stop-color:#606066"
         offset="0" /><stop
         id="stop430"
         style="stop-color:#48484d"
         offset=".20390" /><stop
         id="stop432"
         style="stop-color:#2e2f33"
         offset=".81570" /><stop
         id="stop434"
         style="stop-color:#292a2e"
         offset="1" /></radialGradient><radialGradient
       id="radialGradient448"
       gradientUnits="userSpaceOnUse"
       cy="40.091"
       cx="85.795998"
       gradientTransform="matrix(0.59312,-0.53688,0.53688,0.59312,-44.519,54.449)"
       r="34.700001"><stop
         id="stop450"
         style="stop-color:#606066"
         offset="0" /><stop
         id="stop452"
         style="stop-color:#48484d"
         offset=".20390" /><stop
         id="stop454"
         style="stop-color:#2e2f33"
         offset=".81570" /><stop
         id="stop456"
         style="stop-color:#292a2e"
         offset="1" /></radialGradient><radialGradient
       id="radialGradient470"
       gradientUnits="userSpaceOnUse"
       cy="40.058998"
       cx="85.832001"
       gradientTransform="matrix(0.59312,-0.53688,0.53688,0.59312,-44.483,54.486)"
       r="34.681999"><stop
         id="stop472"
         style="stop-color:#606066"
         offset="0" /><stop
         id="stop474"
         style="stop-color:#48484d"
         offset=".20390" /><stop
         id="stop476"
         style="stop-color:#2e2f33"
         offset=".81570" /><stop
         id="stop478"
         style="stop-color:#292a2e"
         offset="1" /></radialGradient><radialGradient
       id="radialGradient492"
       gradientUnits="userSpaceOnUse"
       cy="26.664"
       cx="93.251999"
       gradientTransform="matrix(0.50512,-0.6204,0.6204,0.50512,-34.553,75.069)"
       r="32.528"><stop
         id="stop494"
         style="stop-color:#606066"
         offset="0" /><stop
         id="stop496"
         style="stop-color:#46464a"
         offset=".20390" /><stop
         id="stop498"
         style="stop-color:#2d2a29"
         offset=".81570" /><stop
         id="stop500"
         style="stop-color:#39342d"
         offset="1" /></radialGradient><radialGradient
       id="radialGradient514"
       gradientUnits="userSpaceOnUse"
       cy="26.687"
       cx="93.246002"
       gradientTransform="matrix(0.50528,-0.62024,0.62024,0.50528,-34.575,75.038)"
       r="32.519001"><stop
         id="stop516"
         style="stop-color:#606066"
         offset="0" /><stop
         id="stop518"
         style="stop-color:#46464a"
         offset=".20390" /><stop
         id="stop520"
         style="stop-color:#2d2a29"
         offset=".81570" /><stop
         id="stop522"
         style="stop-color:#39342d"
         offset="1" /></radialGradient><radialGradient
       id="radialGradient536"
       gradientUnits="userSpaceOnUse"
       cy="99"
       cx="72.800003"
       gradientTransform="matrix(-0.6564,-0.45736,-0.9316,1.337,196.78,-76.267)"
       r="5.8985"><stop
         id="stop538"
         style="stop-color:#46464a"
         offset="0" /><stop
         id="stop540"
         style="stop-color:#202124"
         offset=".81570" /><stop
         id="stop542"
         style="stop-color:#292a2e"
         offset="1" /></radialGradient><radialGradient
       id="radialGradient556"
       gradientUnits="userSpaceOnUse"
       cy="110.75"
       cx="66.75"
       gradientTransform="matrix(-0.71264,-0.36352,-0.74216,1.4551,181.7,-123.48)"
       r="5.8811002"><stop
         id="stop558"
         style="stop-color:#606066"
         offset="0" /><stop
         id="stop560"
         style="stop-color:#46464a"
         offset=".20390" /><stop
         id="stop562"
         style="stop-color:#202124"
         offset=".81570" /><stop
         id="stop564"
         style="stop-color:#292a2e"
         offset="1" /></radialGradient><radialGradient
       id="radialGradient578"
       gradientUnits="userSpaceOnUse"
       cy="40.044998"
       cx="85.817001"
       gradientTransform="matrix(0.5928,-0.5372,0.5372,0.5928,-44.495,54.528)"
       r="34.716999"><stop
         id="stop580"
         style="stop-color:#606066"
         offset="0" /><stop
         id="stop582"
         style="stop-color:#48484d"
         offset=".20390" /><stop
         id="stop584"
         style="stop-color:#2e2f33"
         offset=".81570" /><stop
         id="stop586"
         style="stop-color:#292a2e"
         offset="1" /></radialGradient><radialGradient
       id="radialGradient600"
       gradientUnits="userSpaceOnUse"
       cy="40.109001"
       cx="85.837997"
       gradientTransform="matrix(0.59296,-0.53704,0.53704,0.59296,-44.548,54.438)"
       r="34.673"><stop
         id="stop602"
         style="stop-color:#606066"
         offset="0" /><stop
         id="stop604"
         style="stop-color:#48484d"
         offset=".20390" /><stop
         id="stop606"
         style="stop-color:#2e2f33"
         offset=".81570" /><stop
         id="stop608"
         style="stop-color:#292a2e"
         offset="1" /></radialGradient><radialGradient
       id="radialGradient622"
       gradientUnits="userSpaceOnUse"
       cy="26.646"
       cx="93.258003"
       gradientTransform="matrix(0.50496,-0.62048,0.62048,0.50496,-34.536,75.093)"
       r="32.556"><stop
         id="stop624"
         style="stop-color:#606066"
         offset="0" /><stop
         id="stop626"
         style="stop-color:#46464a"
         offset=".20390" /><stop
         id="stop628"
         style="stop-color:#2d2a29"
         offset=".81570" /><stop
         id="stop630"
         style="stop-color:#39342d"
         offset="1" /></radialGradient><radialGradient
       id="radialGradient644"
       gradientUnits="userSpaceOnUse"
       cy="40.094002"
       cx="85.865997"
       gradientTransform="matrix(0.59312,-0.53688,0.53688,0.59312,-44.523,54.445)"
       r="34.700001"><stop
         id="stop646"
         style="stop-color:#606066"
         offset="0" /><stop
         id="stop648"
         style="stop-color:#48484d"
         offset=".20390" /><stop
         id="stop650"
         style="stop-color:#2e2f33"
         offset=".81570" /><stop
         id="stop652"
         style="stop-color:#292a2e"
         offset="1" /></radialGradient><radialGradient
       id="radialGradient666"
       gradientUnits="userSpaceOnUse"
       cy="26.725"
       cx="93.214996"
       gradientTransform="matrix(0.50528,-0.62024,0.62024,0.50528,-34.623,74.999)"
       r="32.519001"><stop
         id="stop668"
         style="stop-color:#606066"
         offset="0" /><stop
         id="stop670"
         style="stop-color:#46464a"
         offset=".20390" /><stop
         id="stop672"
         style="stop-color:#2d2a29"
         offset=".81570" /><stop
         id="stop674"
         style="stop-color:#39342d"
         offset="1" /></radialGradient><radialGradient
       id="radialGradient688"
       gradientUnits="userSpaceOnUse"
       cy="26.669001"
       cx="93.250999"
       gradientTransform="matrix(0.50512,-0.62032,0.62032,0.50512,-34.559,75.061)"
       r="32.546001"><stop
         id="stop690"
         style="stop-color:#606066"
         offset="0" /><stop
         id="stop692"
         style="stop-color:#46464a"
         offset=".20390" /><stop
         id="stop694"
         style="stop-color:#2d2a29"
         offset=".81570" /><stop
         id="stop696"
         style="stop-color:#39342d"
         offset="1" /></radialGradient><linearGradient
       id="linearGradient710"
       y2="-28.938"
       gradientUnits="userSpaceOnUse"
       x2="-103.43"
       gradientTransform="matrix(-0.30728,0.73864,0.73864,0.30728,-1.4697,102)"
       y1="-28.938"
       x1="-109.87"><stop
         id="stop712"
         style="stop-color:#4a4a4f"
         offset="0" /><stop
         id="stop714"
         style="stop-color:#303033"
         offset=".99220" /><stop
         id="stop716"
         style="stop-color:#3c3d42"
         offset="1" /></linearGradient><radialGradient
       id="radialGradient732"
       gradientUnits="userSpaceOnUse"
       cy="-7.9463"
       cx="107.67"
       gradientTransform="matrix(0.006,-0.8,1.5182,0.05184,16.949,102.63)"
       r="5.0125999"><stop
         id="stop734"
         style="stop-color:#606066"
         offset="0" /><stop
         id="stop736"
         style="stop-color:#46464a"
         offset=".20390" /><stop
         id="stop738"
         style="stop-color:#202124"
         offset=".81570" /><stop
         id="stop740"
         style="stop-color:#292a2e"
         offset="1" /></radialGradient><linearGradient
       id="linearGradient754"
       y2="120.33"
       gradientUnits="userSpaceOnUse"
       x2="62.441002"
       gradientTransform="matrix(0.79928,0.03328,0.03328,-0.79928,-1.4697,102)"
       y1="120.33"
       x1="58.841999"><stop
         id="stop756"
         style="stop-color:#46464a"
         offset="0" /><stop
         id="stop758"
         style="stop-color:#202124"
         offset="1" /></linearGradient><radialGradient
       id="radialGradient772"
       gradientUnits="userSpaceOnUse"
       cy="118.34"
       cx="31.134001"
       gradientTransform="matrix(0.79936,0.03208,-0.03208,0.79936,6.1157,-87.195)"
       r="5.3042998"><stop
         id="stop774"
         style="stop-color:#636369"
         offset="0" /><stop
         id="stop776"
         style="stop-color:#4e4f57"
         offset="1" /></radialGradient><radialGradient
       id="radialGradient790"
       gradientUnits="userSpaceOnUse"
       cy="119.73"
       cx="31.184"
       gradientTransform="matrix(0.79936,0.03168,-0.03168,0.79936,6.1152,-89.411)"
       r="5.3667002"><stop
         id="stop792"
         style="stop-color:#46464a"
         offset="0" /><stop
         id="stop794"
         style="stop-color:#202124"
         offset="1" /></radialGradient><linearGradient
       id="linearGradient808"
       y2="124.64"
       gradientUnits="userSpaceOnUse"
       x2="37.763"
       gradientTransform="matrix(0.79944,0.03072,0.03072,-0.79944,-1.4698,102)"
       y1="124.64"
       x1="37.112"><stop
         id="stop810"
         style="stop-color:#46464a"
         offset="0" /><stop
         id="stop812"
         style="stop-color:#202124"
         offset="1" /></linearGradient><linearGradient
       id="linearGradient826"
       y2="124.76"
       gradientUnits="userSpaceOnUse"
       x2="39.636002"
       gradientTransform="matrix(0.79944,0.0296,0.0296,-0.79944,-1.4699,102)"
       y1="124.76"
       x1="38.285"><stop
         id="stop828"
         style="stop-color:#46464a"
         offset="0" /><stop
         id="stop830"
         style="stop-color:#202124"
         offset="1" /></linearGradient><radialGradient
       id="radialGradient844"
       gradientUnits="userSpaceOnUse"
       cy="120.33"
       cx="47.155998"
       gradientTransform="matrix(0.79944,0.0304,-0.0304,0.79944,5.8498,-90.387)"
       r="2.3031001"><stop
         id="stop846"
         style="stop-color:#636369"
         offset="0" /><stop
         id="stop848"
         style="stop-color:#4e4f57"
         offset="1" /></radialGradient><radialGradient
       id="radialGradient862"
       gradientUnits="userSpaceOnUse"
       cy="121.72"
       cx="46.700001"
       gradientTransform="matrix(0.79936,0.0328,-0.0328,0.79936,6.5134,-92.579)"
       r="2.4396"><stop
         id="stop864"
         style="stop-color:#46464a"
         offset="0" /><stop
         id="stop866"
         style="stop-color:#202124"
         offset="1" /></radialGradient><linearGradient
       id="linearGradient880"
       y2="115.45"
       gradientUnits="userSpaceOnUse"
       x2="26.938"
       gradientTransform="matrix(0.79936,0.03112,0.03112,-0.79936,-1.4695,102)"
       y1="115.45"
       x1="25.011999"><stop
         id="stop882"
         style="stop-color:#46464a"
         offset="0" /><stop
         id="stop884"
         style="stop-color:#202124"
         offset="1" /></linearGradient><radialGradient
       id="radialGradient898"
       gradientUnits="userSpaceOnUse"
       cy="115.59"
       cx="16.165001"
       gradientTransform="matrix(0.79944,0.03008,-0.03008,0.79944,5.4856,-82.811)"
       r="2.3266001"><stop
         id="stop900"
         style="stop-color:#636369"
         offset="0" /><stop
         id="stop902"
         style="stop-color:#4e4f57"
         offset="1" /></radialGradient><radialGradient
       id="radialGradient916"
       gradientUnits="userSpaceOnUse"
       cy="116.27"
       cx="15.861"
       gradientTransform="matrix(0.79936,0.03168,-0.03168,0.79936,5.8923,-83.883)"
       r="2.527"><stop
         id="stop918"
         style="stop-color:#46464a"
         offset="0" /><stop
         id="stop920"
         style="stop-color:#202124"
         offset="1" /></radialGradient><radialGradient
       id="radialGradient934"
       gradientUnits="userSpaceOnUse"
       cy="120.25"
       cx="17.658001"
       gradientTransform="matrix(0.79936,0.032,-0.032,0.79936,6.2203,-90.243)"
       r="2.1891999"><stop
         id="stop936"
         style="stop-color:#636369"
         offset="0" /><stop
         id="stop938"
         style="stop-color:#4e4f57"
         offset="1" /></radialGradient><radialGradient
       id="radialGradient952"
       gradientUnits="userSpaceOnUse"
       cy="121.07"
       cx="18.110001"
       gradientTransform="matrix(0.79944,0.03008,-0.03008,0.79944,5.8151,-91.563)"
       r="2.3266001"><stop
         id="stop954"
         style="stop-color:#46464a"
         offset="0" /><stop
         id="stop956"
         style="stop-color:#202124"
         offset="1" /></radialGradient><radialGradient
       id="radialGradient970"
       gradientUnits="userSpaceOnUse"
       cy="124.39"
       cx="22.608999"
       gradientTransform="matrix(0.7992,0.03576,-0.03576,0.7992,7.4326,-96.811)"
       r="0.83829999"><stop
         id="stop972"
         style="stop-color:#636369"
         offset="0" /><stop
         id="stop974"
         style="stop-color:#4e4f57"
         offset="1" /></radialGradient><radialGradient
       id="radialGradient988"
       gradientUnits="userSpaceOnUse"
       cy="124.24"
       cx="24.155001"
       gradientTransform="matrix(0.79952,0.02712,-0.02712,0.79952,5.2648,-96.667)"
       r="0.73790002"><stop
         id="stop990"
         style="stop-color:#46464a"
         offset="0" /><stop
         id="stop992"
         style="stop-color:#202124"
         offset="1" /></radialGradient><radialGradient
       id="radialGradient1006"
       gradientUnits="userSpaceOnUse"
       cy="124.05"
       cx="31.117001"
       gradientTransform="matrix(0.79928,0.03424,-0.03424,0.79928,7.0286,-96.283)"
       r="0.87580001"><stop
         id="stop1008"
         style="stop-color:#636369"
         offset="0" /><stop
         id="stop1010"
         style="stop-color:#4e4f57"
         offset="1" /></radialGradient><radialGradient
       id="radialGradient1024"
       gradientUnits="userSpaceOnUse"
       cy="124.49"
       cx="31.698999"
       gradientTransform="matrix(0.79944,0.03032,-0.03032,0.79944,6.0889,-97.043)"
       r="0.98820001"><stop
         id="stop1026"
         style="stop-color:#46464a"
         offset="0" /><stop
         id="stop1028"
         style="stop-color:#202124"
         offset="1" /></radialGradient><linearGradient
       id="linearGradient1042"
       y2="116.75"
       gradientUnits="userSpaceOnUse"
       x2="6.0574999"
       gradientTransform="matrix(0.79936,0.03256,0.03256,-0.79936,-1.4696,102)"
       y1="116.75"
       x1="1.7539001"><stop
         id="stop1044"
         style="stop-color:#46464a"
         offset="0" /><stop
         id="stop1046"
         style="stop-color:#202124"
         offset="1" /></linearGradient><radialGradient
       id="radialGradient1060"
       gradientUnits="userSpaceOnUse"
       cy="118.45"
       cx="14.608"
       gradientTransform="matrix(0.79944,0.03072,-0.03072,0.79944,5.814,-87.371)"
       r="0.6505"><stop
         id="stop1062"
         style="stop-color:#636369"
         offset="0" /><stop
         id="stop1064"
         style="stop-color:#4e4f57"
         offset="1" /></radialGradient><linearGradient
       id="linearGradient1078"
       y2="117.46"
       gradientUnits="userSpaceOnUse"
       x2="8.0934"
       gradientTransform="matrix(0.79944,0.0296,0.0296,-0.79944,-1.4699,102)"
       y1="117.46"
       x1="7.4180002"><stop
         id="stop1080"
         style="stop-color:#46464a"
         offset="0" /><stop
         id="stop1082"
         style="stop-color:#202124"
         offset="1" /></linearGradient><linearGradient
       id="linearGradient1096"
       y2="119.21"
       gradientUnits="userSpaceOnUse"
       x2="11.41"
       gradientTransform="matrix(0.7996,0.02536,0.02536,-0.7996,-1.4701,102)"
       y1="119.21"
       x1="9.8339996"><stop
         id="stop1098"
         style="stop-color:#46464a"
         offset="0" /><stop
         id="stop1100"
         style="stop-color:#202124"
         offset="1" /></linearGradient><radialGradient
       id="radialGradient1114"
       gradientUnits="userSpaceOnUse"
       cy="118.7"
       cx="15.441"
       gradientTransform="matrix(0.7996,0.02536,-0.02536,0.7996,4.5561,-87.819)"
       r="0.78789997"><stop
         id="stop1116"
         style="stop-color:#46464a"
         offset="0" /><stop
         id="stop1118"
         style="stop-color:#202124"
         offset="1" /></radialGradient><linearGradient
       id="linearGradient1132"
       y2="119.58"
       gradientUnits="userSpaceOnUse"
       x2="11.092"
       gradientTransform="matrix(0.79936,0.032,0.032,-0.79936,-1.47,102)"
       y1="119.58"
       x1="10.467"><stop
         id="stop1134"
         style="stop-color:#46464a"
         offset="0" /><stop
         id="stop1136"
         style="stop-color:#202124"
         offset="1" /></linearGradient><linearGradient
       id="linearGradient1150"
       y2="127.37"
       gradientUnits="userSpaceOnUse"
       x2="25.546"
       gradientTransform="matrix(0.79896,0.04096,0.04096,-0.79896,-1.4694,102)"
       y1="127.37"
       x1="24.57"><stop
         id="stop1152"
         style="stop-color:#46464a"
         offset="0" /><stop
         id="stop1154"
         style="stop-color:#202124"
         offset="1" /></linearGradient><linearGradient
       id="linearGradient1168"
       y2="128.28"
       gradientUnits="userSpaceOnUse"
       x2="26.332001"
       gradientTransform="matrix(0.79928,0.03328,0.03328,-0.79928,-1.4697,102)"
       y1="128.28"
       x1="24.531"><stop
         id="stop1170"
         style="stop-color:#46464a"
         offset="0" /><stop
         id="stop1172"
         style="stop-color:#202124"
         offset="1" /></linearGradient><linearGradient
       inkscape:collect="always"
       xlink:href="#linearGradient4640"
       id="linearGradient4646"
       x1="19.020975"
       y1="30.910753"
       x2="20.270866"
       y2="30.881706"
       gradientUnits="userSpaceOnUse" /><radialGradient
       inkscape:collect="always"
       xlink:href="#radialGradient600"
       id="radialGradient4660"
       gradientUnits="userSpaceOnUse"
       gradientTransform="matrix(0.59296,-0.53704,0.53704,0.59296,-44.548,54.438)"
       cx="85.837997"
       cy="40.109001"
       r="34.673" /><radialGradient
       inkscape:collect="always"
       xlink:href="#radialGradient600"
       id="radialGradient4670"
       gradientUnits="userSpaceOnUse"
       gradientTransform="matrix(0.64809966,-0.12569893,-0.11479067,-0.65797919,-21.978414,83.010174)"
       cx="85.837997"
       cy="40.109001"
       r="34.673" /><radialGradient
       inkscape:collect="always"
       xlink:href="#radialGradient600"
       id="radialGradient4672"
       gradientUnits="userSpaceOnUse"
       gradientTransform="matrix(0.59296,-0.53704,0.53704,0.59296,-45.832685,83.421678)"
       cx="85.837997"
       cy="40.109001"
       r="34.673" /><radialGradient
       inkscape:collect="always"
       xlink:href="#radialGradient600"
       id="radialGradient4853"
       gradientUnits="userSpaceOnUse"
       gradientTransform="matrix(0.59296,-0.53704,0.53704,0.59296,-44.548,54.438)"
       cx="85.837997"
       cy="40.109001"
       r="34.673" /></defs><g
     id="g10"
     transform="matrix(1.1840128,0.40076624,0.40076624,-1.1840128,444.4108,658.49543)"><g
       id="g12"><g
         id="g330"><g
           id="g332"><g
             id="g338" /></g></g><g
         id="g4703"
         transform="matrix(16,0,0,16,-507.03106,-393.5509)"><path
           inkscape:connector-curvature="0"
           id="path4650"
           d="m 16.018473,36.593133 -0.754632,-0.966254 2.348901,-3.469892 3.202884,0.03333 1.406913,0.04354 -0.106668,1.045586 -0.8234,3.893529 z"
           style="fill:#3d3e41;fill-opacity:1;fill-rule:evenodd;stroke:none;stroke-width:0.80000001px;stroke-linecap:butt;stroke-linejoin:miter;stroke-opacity:1" /><path
           sodipodi:nodetypes="cccccccc"
           inkscape:connector-curvature="0"
           id="path4620"
           d="m 18.325584,32.151027 -0.04389,-2.518199 1.389856,-0.27129 c 3.566351,-0.0857 7.11079,1.299659 10.664015,2.095203 l -0.297806,2.340729 -9.342428,-1.616966 -1.601442,-0.01667 z"
           style="fill:#56565b;fill-opacity:1;fill-rule:evenodd;stroke:none;stroke-width:0.80000001px;stroke-linecap:butt;stroke-linejoin:miter;stroke-opacity:1" /><g
           id="g14"><g
             id="g16"><g
               id="g22"><path
                 inkscape:connector-curvature="0"
                 d="m 20.57,48.043 c 0.348,0.082 0.602,-0.012 0.762,-0.277 0.211,-0.403 0.066,-0.895 -0.441,-1.481 -0.399,-0.48 -0.989,-0.707 -1.762,-0.68 -0.344,-0.027 -0.504,0.172 -0.481,0.598 0.028,0.188 0.215,0.426 0.563,0.719 l 0.48,0.922 c 0.504,0.133 0.801,0.199 0.879,0.199 z"
                 style="fill:url(#radialGradient24);fill-rule:evenodd"
                 id="path30" /></g></g></g><g
           id="g150"><g
             id="g152"><g
               id="g158"><path
                 sodipodi:nodetypes="cccccccccccccccccccccccccccccc"
                 inkscape:connector-curvature="0"
                 d="m 52.012,46.926 c 0.48,-0.348 0.797,-0.789 0.957,-1.321 0.027,-0.132 0.07,-0.242 0.121,-0.32 0.055,-0.508 -0.051,-1.066 -0.32,-1.68 -0.665,-1.308 -2.293,-2.8 -4.879,-4.48 -1.84,-1.176 -3.922,-2.281 -6.243,-3.32 -0.027,0 -0.066,-0.016 -0.117,-0.039 -2.562,-1.149 -5.414,-2.176 -8.562,-3.082 -1.145,-0.321 -2.266,-0.625 -3.36,-0.918 -0.48,0.023 -0.679,0.304 -0.597,0.839 l 0.078,0.719 c 0.586,0.106 1.242,0.254 1.961,0.442 l 4.758,1.48 c 4.988,1.652 9.132,3.613 12.441,5.879 l 3.48,2.801 c 0,0.293 0.04,0.558 0.122,0.801 0.105,0.824 0.16,1.558 0.16,2.199 z M 12.41,32.566 c 1.182858,-0.09106 2.247783,-0.257946 3.16,-0.523 1.094,-0.051 2.227,-0.066 3.399,-0.039 l 0.282299,-0.946616 C 19.223299,30.417384 18.891,30.258 19.051,30.043 c -0.719,-0.027 -1.414,-0.039 -2.082,-0.039 -3.067,0.027 -5.227,0.426 -6.477,1.199 -0.215,0.109 -0.375,0.199 -0.48,0.281 -0.403,0.371 -0.668,0.801 -0.801,1.282 -0.188,0.558 -0.121,1.171 0.199,1.839 0.375,-0.48 0.813,-1.015 1.32,-1.601 0.055,-0.106 0.133,-0.199 0.239,-0.281 z"
                 style="fill:url(#radialGradient160);fill-rule:evenodd"
                 id="path166" /></g></g></g><g
           id="g312"><g
             id="g314"><g
               id="g320"><path
                 inkscape:connector-curvature="0"
                 d="m 21.531,39.324 c -0.215,-0.719 -0.547,-1.094 -1,-1.121 -0.453,-0.078 -1.105,0.16 -1.961,0.723 -0.32,1.226 -0.144,1.972 0.52,2.238 1.094,0.48 1.785,0.281 2.082,-0.598 0.183,-0.589 0.305,-1 0.359,-1.242 z"
                 style="fill:url(#radialGradient322);fill-rule:evenodd"
                 id="path328" /></g></g></g><g
           id="g276"><g
             id="g278"><g
               id="g284"><path
                 inkscape:connector-curvature="0"
                 d="m 30.129,41.324 -0.078,-0.039 -0.16,-0.039 -0.039,0 -0.082,-0.043 -1.801,-0.277 c -0.106,0.371 -0.16,0.613 -0.16,0.718 0,0.211 0.109,0.387 0.32,0.52 0.187,0.133 0.441,0.227 0.762,0.281 0.371,0.106 0.652,0.106 0.839,0 0.239,-0.133 0.399,-0.308 0.481,-0.519 0.055,-0.242 0.027,-0.442 -0.082,-0.602 z"
                 style="fill:url(#radialGradient286);fill-rule:evenodd"
                 id="path292" /></g></g></g><g
           id="g376"><g
             id="g378"><g
               id="g384"><path
                 inkscape:connector-curvature="0"
                 d="m 31.609,43.766 c 0.028,0.05 0.133,0.265 0.321,0.64 l 0.402,0.477 c 0.184,-0.211 0.305,-0.492 0.359,-0.84 0.106,-0.399 0.09,-0.652 -0.043,-0.758 -0.078,-0.055 -0.199,-0.094 -0.359,-0.121 -0.184,-0.051 -0.305,-0.051 -0.359,0 -0.239,0.133 -0.348,0.332 -0.321,0.602 z"
                 style="fill:url(#radialGradient386);fill-rule:evenodd"
                 id="path392" /></g></g></g><g
           id="g32"><g
             id="g34"><g
               id="g40"><path
                 sodipodi:nodetypes="ccccccccccccccccccccccccccccccccccccsccccccccccccccccccc"
                 inkscape:connector-curvature="0"
                 d="m 20.57,48.043 c -0.078,0 -0.371,-0.066 -0.879,-0.199 l -0.48,-0.918 c -0.348,-0.293 -0.535,-0.535 -0.563,-0.719 -0.023,-0.43 0.137,-0.629 0.481,-0.602 0.773,-0.027 1.363,0.2 1.762,0.68 0.507,0.586 0.652,1.082 0.441,1.481 -0.16,0.265 -0.414,0.359 -0.762,0.277 z m -2.398,-0.637 -0.242,-0.043 -0.641,-0.32 c -0.078,0.082 -0.144,0.094 -0.199,0.043 -0.106,-0.32 -0.067,-0.535 0.121,-0.641 0.16,-0.105 0.359,-0.121 0.598,-0.039 0.48,0.16 0.601,0.492 0.363,1 z m 12.078,0.797 c 0.027,0.215 -0.066,0.375 -0.281,0.481 l -0.637,-0.2 c 0.106,-0.32 0.172,-0.507 0.199,-0.558 0.078,-0.188 0.227,-0.242 0.438,-0.16 0.187,0.078 0.281,0.226 0.281,0.437 z m -13.641,-9.559 0.481,0.122 c -2.426,-0.215 -4.453,-0.161 -6.078,0.16 -0.457,1.09 -0.496,2.226 -0.121,3.398 0.535,1.625 1.879,3.199 4.039,4.719 3.308,2.269 8.414,4.215 15.32,5.84 6.988,1.656 12.574,2.226 16.762,1.722 -0.641,0.266 -1.403,0.465 -2.282,0.598 2.348,-0.238 3.692,-0.945 4.04,-2.121 0.453,-1.598 -1.161,-3.559 -4.84,-5.879 -3.653,-2.238 -8.254,-4.199 -13.801,-5.879 0.109,0.16 0.137,0.36 0.082,0.598 -0.082,0.215 -0.242,0.387 -0.481,0.519 -0.187,0.11 -0.464,0.11 -0.839,0 -0.321,-0.05 -0.575,-0.144 -0.762,-0.277 -0.211,-0.133 -0.32,-0.309 -0.32,-0.52 0,-0.109 0.054,-0.347 0.16,-0.722 l 1.801,0.281 -1.598,-0.437 c 0,-0.27 0.012,-0.52 0.039,-0.762 -3.525055,-2.007295 -5.688457,-2.963079 -11.602,-1.36 z m 4.922,0.68 c -0.054,0.242 -0.176,0.653 -0.359,1.242 -0.297,0.879 -0.988,1.078 -2.082,0.598 -0.664,-0.266 -0.84,-1.012 -0.52,-2.238 0.856,-0.563 1.508,-0.801 1.961,-0.723 0.453,0.027 0.785,0.402 1,1.121 z m 10.078,4.442 c -0.027,-0.27 0.082,-0.469 0.321,-0.602 0.054,-0.051 0.175,-0.051 0.359,0 0.16,0.027 0.281,0.066 0.359,0.121 0.133,0.106 0.149,0.359 0.043,0.758 -0.054,0.348 -0.175,0.629 -0.359,0.84 L 31.93,44.402 c -0.188,-0.371 -0.293,-0.586 -0.321,-0.636 z"
                 style="fill:url(#radialGradient42);fill-rule:evenodd"
                 id="path48" /></g></g></g><g
           id="g86"><g
             id="g88"><g
               id="g94"><path
                 inkscape:connector-curvature="0"
                 d="m 30.25,48.203 c 0,-0.211 -0.094,-0.359 -0.281,-0.437 -0.211,-0.082 -0.36,-0.028 -0.438,0.16 -0.027,0.051 -0.093,0.238 -0.199,0.558 l 0.637,0.2 c 0.215,-0.106 0.308,-0.266 0.281,-0.481 z"
                 style="fill:url(#radialGradient96);fill-rule:evenodd"
                 id="path102" /></g></g></g><path
           id="path610"
           style="opacity:0.56999966;fill:url(#radialGradient4672);fill-rule:evenodd;stroke:#b0b0b0;stroke-width:0.072;stroke-miterlimit:4;stroke-dasharray:none;stroke-opacity:1"
           d="m 34.524315,47.788678 0,-0.039 c 0,-0.215 -0.024,-0.36 -0.079,-0.442 -0.109,-0.187 -0.441,-0.332 -1,-0.441 -0.535,-0.106 -0.878,0.082 -1.039,0.562 -0.027,0.293 -0.043,0.532 -0.043,0.719 1.359963,1.278892 1.912846,0.615587 2.082,-0.32 l 0.04,-0.039 z"
           inkscape:connector-curvature="0"
           sodipodi:nodetypes="csccccccc" /><path
           sodipodi:nodetypes="csccccccc"
           inkscape:connector-curvature="0"
           d="m 41.699695,47.24934 0.02536,0.01966 c 0.139788,0.108388 0.221964,0.197533 0.247552,0.275642 0.06663,0.167148 -0.0065,0.462212 -0.217402,0.890894 -0.200792,0.411125 -0.495941,0.545669 -0.889191,0.411327 -0.204113,-0.129659 -0.367571,-0.239449 -0.489154,-0.333721 -0.145907,-1.553962 0.564083,-1.589213 1.257655,-1.230647 l 0.04552,-0.0071 z"
           style="opacity:0.56999966;fill:url(#radialGradient4670);fill-rule:evenodd;stroke:#b0b0b0;stroke-width:0.05975728;stroke-miterlimit:4;stroke-dasharray:none;stroke-opacity:1"
           id="path4668" /><ellipse
           ry="3.8159792"
           rx="19.479242"
           cy="-32.847134"
           cx="41.678814"
           transform="matrix(0.94721027,0.320613,0.320613,-0.94721027,0,0)"
           id="path4662"
           style="opacity:0.61199999;fill:#8eda59;fill-opacity:1;fill-rule:evenodd;stroke:none;stroke-width:0.03;stroke-linecap:round;stroke-linejoin:round;stroke-miterlimit:4;stroke-dasharray:none;stroke-opacity:1" /><g
           id="g50"><g
             id="g52"><g
               id="g58"><path
                 inkscape:connector-curvature="0"
                 d="m 18.172,47.406 c 0.238,-0.508 0.117,-0.84 -0.363,-1 -0.239,-0.082 -0.438,-0.066 -0.598,0.039 -0.188,0.106 -0.227,0.321 -0.121,0.641 0.055,0.051 0.121,0.039 0.199,-0.043 l 0.641,0.32 0.242,0.043 z"
                 style="fill:url(#radialGradient60);fill-rule:evenodd"
                 id="path66" /></g></g></g><g
           id="g104"><g
             id="g106"><g
               id="g112"><path
                 inkscape:connector-curvature="0"
                 d="m 11.012,38.926 c -0.137,0 -0.282,0.011 -0.442,0.039 -1.734,0.426 -2.734,1.078 -3,1.961 -0.453,1.597 1.16,3.547 4.84,5.84 3.707,2.316 8.387,4.304 14.039,5.957 4.563,1.336 8.668,2.16 12.321,2.48 l 1.402,0.082 c 0.906,0.051 1.746,0.078 2.519,0.078 l 2.039,-0.16 c 0.879,-0.133 1.641,-0.332 2.282,-0.598 -4.188,0.504 -9.774,-0.066 -16.762,-1.722 -6.906,-1.625 -12.012,-3.571 -15.32,-5.84 -2.16,-1.52 -3.504,-3.09 -4.039,-4.719 -0.375,-1.172 -0.336,-2.305 0.121,-3.398 z"
                 style="fill:url(#linearGradient114);fill-rule:evenodd"
                 id="path120" /></g></g></g><g
           id="g124"><g
             id="g130"><path
               id="path148"
               style="fill:url(#linearGradient132);fill-rule:evenodd"
               d="m 30.129,41.324 c 5.547,1.68 10.148,3.641 13.801,5.879 3.679,2.32 5.293,4.281 4.84,5.883 -0.348,1.172 -1.692,1.879 -4.04,2.117 l -2.039,0.16 c -0.773,0 -1.613,-0.027 -2.519,-0.078 L 38.77,55.203 C 35.117,54.883 31.012,54.059 26.449,52.723 20.797,51.07 16.117,49.082 12.41,46.766 8.73,44.473 7.117,42.523 7.57,40.926 c 0.266,-0.883 1.266,-1.535 3,-1.961 0.16,-0.028 0.305,-0.039 0.442,-0.039 1.625,-0.321 4.081304,-0.283826 6.507304,-0.06883 l 10.625616,1.932065 0.04807,-0.839657 C 24.782822,38.640458 10.206857,36.624534 8.211,38.203 9.863,37.43 14.895257,37.257683 18.529227,37.231239 l 0.445557,-0.820389 -1.506556,-0.129466 c -0.797,-0.027 -3.245228,-0.07839 -4.019228,-0.07839 -2.453,0.055 -4.371,0.336 -5.758,0.84 -1.441,0.562 -2.32,1.375 -2.64,2.441 -0.613,2.028 1.148,4.426 5.281,7.2 4.133,2.8 9.398,5.148 15.797,7.043 6.426,1.863 12.137,2.757 17.121,2.679 4.961,-0.133 7.746,-1.215 8.359,-3.242 0.161,-0.559 0.161,-1.133 0,-1.719 -0.027,-0.078 -0.066,-0.187 -0.117,-0.32 -0.617,-1.547 -2.336,-3.293 -5.16,-5.238 -1.281,-0.856 -2.668,-1.668 -4.16,-2.442 -3.363,-1.734 -7.254,-3.238 -11.68,-4.519 -0.777,-0.242 -1.535,-0.469 -2.281,-0.68 l 0,1.039 c 0.664,0.188 1.359,0.375 2.078,0.559 1.309,0.402 2.574,0.8 3.801,1.203 3.066,1.066 5.773,2.226 8.121,3.48 3.172,1.785 5.094,3.414 5.758,4.879 -1.172,-1.465 -3.348,-2.988 -6.52,-4.558 -3.304,-1.629 -7.144,-3.067 -11.519,-4.321 -0.559,-0.16 -1.133,-0.336 -1.719,-0.519 -0.027,0.238 -0.039,0.492 -0.039,0.758 l 1.598,0.441 0.082,0.039 0.039,0 0.16,0.039 z"
               inkscape:connector-curvature="0"
               sodipodi:nodetypes="cccccccccccccccccccccccccccccccccccccccccccccc" /><path
               style="fill:#57585d;fill-opacity:1;fill-rule:evenodd;stroke:none;stroke-width:0.80000001px;stroke-linecap:butt;stroke-linejoin:miter;stroke-opacity:1"
               d="m 18.032511,36.357124 c 3.635022,0.234583 7.129844,0.802925 10.393725,1.921039 L 28.219602,39.128551 18.028388,37.24899 Z"
               id="path4614"
               inkscape:connector-curvature="0"
               sodipodi:nodetypes="ccccc" /></g></g><g
           id="g168"><g
             id="g170"><g
               id="g176"><path
                 sodipodi:nodetypes="ccccccccccccccccccccccccccccccc"
                 inkscape:connector-curvature="0"
                 d="m 7.691,37.043 c 1.387,-0.504 3.305,-0.785 5.758,-0.84 0.774,0 1.563,0.016 2.36,0.043 l 2.082,-3 c 0.027,-0.027 0.05,-0.066 0.078,-0.121 0.082,-0.106 0.176,-0.215 0.281,-0.32 l 0.242,-0.239 c 0.106,-0.109 0.199,-0.199 0.278,-0.281 -1.227,-0.082 -2.399,-0.105 -3.52,-0.082 l -2.84,0.363 -1.441,0.157 c -0.106,0.082 -0.184,0.175 -0.239,0.281 -0.507,0.586 -0.945,1.121 -1.32,1.601 -0.078,0.133 -0.148,0.25 -0.199,0.36 z M 51.492,51.125 51.25,47.324 c 0.027,-0.558 -0.012,-1.16 -0.121,-1.801 -0.024,-0.347 -0.067,-0.679 -0.117,-1 l -3.321,-2.8 C 44.543,39.566 40.559,37.633 35.73,35.926 34.852,35.523 33.996,35.219 33.172,35.004 l -2.083029,-0.844486 c -0.774,-0.238 -8.750601,-1.854744 -9.386601,-1.959744 l -0.442,1 c -0.32,0.668 -0.426,1.293 -0.32,1.883 0.055,0.265 0.066,0.773 0.039,1.519 0.746,0.211 8.73963,2.08223 9.51263,2.32423 4.426,1.281 8.32,2.785 11.68,4.519 1.492,0.774 2.879,1.586 4.16,2.438 2.824,1.949 4.547,3.695 5.16,5.242 z"
                 style="fill:url(#radialGradient178);fill-rule:evenodd"
                 id="path184" /></g></g></g><g
           id="g186"><g
             id="g188"><g
               id="g194"><path
                 inkscape:connector-curvature="0"
                 d="m 13.77,29.363 c 0.027,-0.078 0.066,-0.226 0.121,-0.437 0.078,-0.188 0.078,-0.336 0,-0.442 -0.028,-0.105 -0.106,-0.172 -0.243,-0.199 l -0.316,0 c -0.215,0.133 -0.309,0.32 -0.281,0.559 0.027,0.238 0.16,0.386 0.398,0.441 l 0.321,0.078 z m 5.121,-1.597 0.199,0.359 c 0.082,0.215 0.281,0.254 0.601,0.117 0.161,-0.051 0.25,-0.199 0.278,-0.437 0.054,-0.188 0.043,-0.348 -0.039,-0.481 -0.078,-0.109 -0.188,-0.215 -0.321,-0.32 -0.211,-0.106 -0.371,-0.133 -0.48,-0.082 -0.106,0.055 -0.16,0.187 -0.16,0.402 l -0.078,0.442 z m 21.039,1.16 c -0.215,0 -0.321,0.078 -0.321,0.238 0.028,0.16 0.149,0.254 0.36,0.281 l 0.203,0 c 0.183,-0.027 0.238,-0.121 0.16,-0.281 -0.082,-0.16 -0.215,-0.238 -0.402,-0.238 z m 5.64,2.199 c -0.078,0.105 -0.105,0.199 -0.078,0.281 0.051,0.106 0.129,0.184 0.238,0.238 l 0.442,0.36 0.238,-0.801 c -0.453,-0.211 -0.734,-0.238 -0.84,-0.078 z m -0.961,-6.359 0.36,0.078 c 0.242,-0.133 0.297,-0.278 0.16,-0.438 -0.133,-0.137 -0.32,-0.215 -0.559,-0.242 -0.238,0.293 -0.226,0.492 0.039,0.602 z m 3.961,9.039 c 0.051,-0.082 0.121,-0.375 0.2,-0.879 -0.215,-0.11 -0.465,-0.215 -0.758,-0.321 -0.375,-0.082 -0.629,-0.027 -0.762,0.161 -0.078,0.078 -0.117,0.226 -0.117,0.437 0,0.188 0.023,0.309 0.078,0.363 l 0.16,0.239 c 0.613,0.293 1.012,0.293 1.199,0 z m 0.68,-6.239 c 0.082,-0.269 0.121,-0.414 0.121,-0.441 -0.32,-0.188 -0.519,-0.227 -0.601,-0.121 -0.082,0.082 -0.106,0.176 -0.082,0.281 0.054,0.106 0.121,0.172 0.203,0.199 l 0.359,0.082 z m 0.281,4.84 c 0.293,-0.828 0.16,-1.226 -0.402,-1.203 -0.426,0.055 -0.531,0.402 -0.32,1.043 l 0.722,0.16 z"
                 style="fill:url(#radialGradient196);fill-rule:evenodd"
                 id="path206" /></g></g></g><g
           transform="matrix(0,1,-1,0,35.610548,2.5825758)"
           id="g4599"><g
             id="g700"><g
               id="g702"><g
                 id="g708"><path
                   id="path718"
                   style="fill:url(#linearGradient710);fill-rule:evenodd"
                   d="m 9.809,17.164 c 0.453,0.32 0.867,0.242 1.242,-0.238 0.426,-0.481 0.691,-1.176 0.801,-2.082 l 0.039,-0.399 c 0,-0.027 0.011,-0.054 0.039,-0.082 l 0,-0.199 c 0,-0.559 -0.172,-1.094 -0.52,-1.602 -0.32,-0.585 -0.695,-0.918 -1.121,-1 -0.184,0 -0.359,0.016 -0.519,0.043 -0.266,0.079 -0.52,0.2 -0.758,0.36 -0.403,0.265 -0.68,0.574 -0.84,0.918 -0.137,0.398 -0.16,0.906 -0.082,1.519 0.105,0.614 0.308,1.149 0.601,1.602 0.371,0.562 0.747,0.949 1.118,1.16 z"
                   inkscape:connector-curvature="0" /></g></g></g><path
             id="path720"
             style="fill:#74747d;fill-rule:evenodd"
             d="m 9.77,11.605 c -0.188,0 -0.36,0.028 -0.52,0.079 -0.188,0.027 -0.348,0.093 -0.48,0.199 -0.454,0.215 -0.747,0.508 -0.879,0.883 -0.161,0.347 -0.2,0.824 -0.121,1.441 0.054,0.664 0.214,1.199 0.48,1.598 0.426,0.668 0.84,1.093 1.242,1.281 0.106,0.055 0.211,0.082 0.317,0.082 C 9.438,16.953 9.062,16.566 8.691,16.008 8.398,15.555 8.195,15.019 8.09,14.406 8.012,13.793 8.035,13.285 8.172,12.887 8.332,12.539 8.609,12.234 9.012,11.969 9.25,11.805 9.504,11.684 9.77,11.605 Z"
             inkscape:connector-curvature="0" /><g
             id="g722"><g
               id="g724"><g
                 id="g730"><path
                   id="path742"
                   style="fill:url(#radialGradient732);fill-rule:evenodd"
                   d="m 9.25,11.684 -0.68,0 -5.16,1.082 c -1.894,0.425 -2.972,0.918 -3.238,1.48 -0.375,0.797 -0.137,1.371 0.719,1.719 0.425,0.16 1.304,0.32 2.64,0.48 2.961,0.239 4.946,0.453 5.961,0.641 C 9.09,16.898 8.676,16.473 8.25,15.805 7.984,15.406 7.824,14.871 7.77,14.203 7.691,13.59 7.73,13.113 7.891,12.766 8.023,12.391 8.316,12.098 8.77,11.883 8.902,11.777 9.062,11.711 9.25,11.684 Z"
                   inkscape:connector-curvature="0" /></g></g></g></g><g
           id="g208"><g
             id="g210"><g
               id="g216"><path
                 sodipodi:nodetypes="cccccccccccccccccccccccccccccccccccccccccsccccccccccccccccccccscccccscsccccccccccccccccccccccccccccccccccccccccccc"
                 inkscape:connector-curvature="0"
                 d="m 48.518631,39.131827 c 2.746,1.785 4.012369,2.700173 4.575369,4.114173 0.851,-1.094 1.636,-2.187 2.359,-3.281 1.305,-2.055 2.211,-3.949 2.719,-5.68 1.066,-3.547 0.746,-7.109 -0.961,-10.68 -0.184,-0.355 -0.383,-0.714 -0.602,-1.082 0.043,0.082 0.082,0.161 0.121,0.243 -0.078,-0.028 -0.187,-0.11 -0.32,-0.243 -0.051,-0.054 -0.172,-0.226 -0.359,-0.519 -0.133,-0.238 -0.305,-0.293 -0.52,-0.16 -0.078,0.082 -0.093,0.238 -0.039,0.48 l 0.117,0.559 c -0.078,-0.024 -0.183,0.043 -0.316,0.203 -0.109,0.16 -0.227,0.226 -0.363,0.199 -0.16,0.801 -0.36,1.348 -0.598,1.641 -0.133,0.293 -0.336,0.492 -0.602,0.597 -0.32,0.055 -0.574,-0.066 -0.757,-0.359 -0.11,-0.184 -0.082,-0.492 0.078,-0.918 0.187,-0.562 0.281,-0.867 0.281,-0.922 0.027,-0.344 0,-0.597 -0.082,-0.758 -0.105,-0.187 -0.316,-0.359 -0.641,-0.519 0.082,-0.266 0.215,-0.68 0.403,-1.242 0.054,-0.586 -0.282,-1.278 -1,-2.078 l 0.16,-0.161 c -0.082,-0.16 -0.293,-0.281 -0.641,-0.359 0,0.027 -0.054,0.387 -0.16,1.078 -0.055,0.535 -0.215,0.75 -0.48,0.641 0.027,-0.321 -0.149,-0.668 -0.52,-1.039 -0.508,-0.559 -0.773,-0.868 -0.801,-0.918 -0.027,-0.082 -0.117,-0.27 -0.277,-0.563 -0.16,-0.238 -0.309,-0.32 -0.441,-0.238 -0.055,0.051 -0.082,0.16 -0.082,0.316 -0.028,0.16 -0.079,0.243 -0.161,0.243 -0.211,0.16 -0.386,0.121 -0.519,-0.122 -0.024,-0.132 -0.117,-0.32 -0.281,-0.558 -0.133,-0.16 -0.532,-0.293 -1.2,-0.399 -0.16,0.399 -0.277,0.692 -0.359,0.879 -0.16,0.321 -0.32,0.602 -0.48,0.84 l -0.2,0.281 c -0.027,0.028 -0.121,0.039 -0.281,0.039 -0.426,-0.558 -0.668,-0.867 -0.719,-0.918 -0.265,-0.402 -0.398,-0.839 -0.398,-1.32 l 0,-1.402 -0.203,0.203 c -0.317,-0.133 -0.571,-0.281 -0.758,-0.441 -0.082,-0.106 -0.199,-0.266 -0.359,-0.481 -0.055,-0.055 -0.2,-0.105 -0.442,-0.16 -0.078,-0.082 -0.133,-0.199 -0.16,-0.359 -0.051,-0.188 -0.094,-0.293 -0.117,-0.321 -0.242,-0.215 -0.817,-0.347 -1.723,-0.398 l -2.277,-0.043 c -0.293,0 -0.496,0.015 -0.602,0.043 -0.133,0.051 -0.265,0.199 -0.398,0.441 -0.082,0.238 -0.16,0.41 -0.242,0.516 -1.039895,1.505359 -2.58127,0.18488 -2.239,-1.238 0.184,-0.536 0.305,-0.852 0.36,-0.961 -0.215,0 -0.414,-0.039 -0.602,-0.118 0.106,-0.269 0.133,-0.496 0.082,-0.683 -0.215,0.027 -0.586,-0.051 -1.121,-0.238 -0.48,-0.133 -0.812,-0.188 -1,-0.161 -0.105,0.028 -0.266,0.133 -0.48,0.321 -0.161,0.133 -0.348,0.172 -0.559,0.117 -0.348,-0.184 -0.562,-0.277 -0.641,-0.277 -0.132,0 -0.293,0.078 -0.48,0.238 -0.188,0.187 -0.359,0.293 -0.52,0.32 -0.082,0.027 -0.308,0.016 -0.679,-0.039 -2.419226,3.142911 -11.61031,-1.12827 -14.095144,2.548571 -1.22754,0.845722 -3.105303,3.779895 -3.943856,6.529429 -0.508,1.735 -0.762,3.813 -0.762,6.238 0,1.415 0.082,2.883 0.238,4.403 9.891522,-2.887374 14.503301,-0.689508 19.776561,0.650464 4.989388,1.267837 9.764242,3.300691 18.29307,7.434363 z M 51.57,16.246 c -1.359,-1.203 -2.84,-2.269 -4.441,-3.203 -0.371,-0.211 -0.746,-0.399 -1.117,-0.559 1.414,0.774 2.758,1.641 4.039,2.602 1.121,0.851 2.148,1.746 3.082,2.68 -0.512,-0.536 -1.028,-1.043 -1.563,-1.52 z M 23.449,9.484 c 0.696,-0.16 1.387,-0.304 2.082,-0.441 0.852,-0.16 1.735,-0.293 2.641,-0.399 -1.602,0.133 -3.176,0.415 -4.723,0.84 z m 34.36,20.879 c 0.082,-0.16 0.203,-0.25 0.363,-0.281 0.16,-0.023 0.293,0.027 0.398,0.16 -0.054,0.297 -0.078,0.453 -0.078,0.481 -0.054,0.16 -0.16,0.226 -0.32,0.203 z m -1.039,-1.48 c 0.187,-0.449 0.269,-0.746 0.242,-0.879 -0.028,-0.051 -0.11,-0.149 -0.242,-0.281 -0.079,-0.133 -0.133,-0.239 -0.161,-0.317 -0.05,-0.16 -0.011,-0.375 0.121,-0.64 0.079,-0.27 0.188,-0.426 0.321,-0.481 0.078,-0.082 0.254,-0.082 0.519,0 0.133,0.027 0.321,0.067 0.559,0.117 l 0.039,0 c 0.27,0.989 0.43,1.95 0.48,2.883 l 0.043,0.32 c -0.027,0 -0.336,0.106 -0.921,0.317 -0.348,0.133 -0.641,0.066 -0.879,-0.199 -0.215,-0.184 -0.254,-0.465 -0.121,-0.84 z m -0.321,-4.438 c 0.403,-0.027 0.602,0.145 0.602,0.52 l -0.442,0.16 c -0.132,-0.242 -0.187,-0.469 -0.16,-0.68 z M 31.891,12.324 c 0,-0.16 0.027,-0.293 0.078,-0.398 0.562,0.133 0.867,0.211 0.922,0.238 0.16,0.16 0.199,0.332 0.117,0.52 -0.699102,0.54142 -0.895499,0.03735 -1.117,-0.36 z m -18.082,3.922 c 0.109,-0.508 0.281,-0.906 0.523,-1.203 1.740286,-0.760703 0.471876,1.007676 -0.523,1.203 z"
                 style="fill:url(#radialGradient218);fill-rule:evenodd"
                 id="path228" /><path
                 sodipodi:nodetypes="ccccccccc"
                 inkscape:connector-curvature="0"
                 id="path4616"
                 d="m 13.640559,16.317824 1.906064,-1.796362 2.112547,-2.406392 6.535917,-2.052665 9.221308,-0.2165467 4.278732,1.6027977 -5.108591,5.688143 -18.84402,-0.846274 z"
                 style="fill:#222326;fill-opacity:1;fill-rule:evenodd;stroke:none;stroke-width:0.80000001px;stroke-linecap:butt;stroke-linejoin:miter;stroke-opacity:1" /></g></g></g><g
           id="g232"><g
             id="g234"><g
               id="g240"><path
                 sodipodi:nodetypes="cccccccccccccccccccccccccccccccccccccccccccccccccccccccccccsccccccccccccccccccsccccccccccccccccccccccccccccccccccccccccccccccccccccccccccccccccccccccccccccccccccccccccc"
                 inkscape:connector-curvature="0"
                 d="m 13.449,26.965 c 0.293,0.105 0.496,0.133 0.602,0.078 0.105,-0.078 0.238,-0.25 0.398,-0.52 0.215,-0.238 0.309,-0.41 0.281,-0.519 l 0.442,0.121 c -0.11,-0.348 -0.27,-0.613 -0.481,-0.801 -0.402,-0.32 -0.839,-0.398 -1.32,-0.238 -0.16,0.105 -0.309,0.348 -0.441,0.719 -0.078,0.425 -0.078,0.718 0,0.879 0.054,0.082 0.226,0.171 0.519,0.281 z m 8.481,-0.242 c 0.054,-0.106 0.082,-0.2 0.082,-0.278 1.082656,-0.58929 1.602518,-1.408977 1,-2.519 -0.082,-0.028 -0.16,-0.055 -0.242,-0.082 -0.692,-0.106 -1.145,-0.149 -1.36,-0.121 -0.558,0.054 -0.867,0.308 -0.918,0.761 -0.16,0.719 -0.187,1.239 -0.082,1.559 0.106,0.215 0.387,0.387 0.84,0.519 0.188,0.055 0.414,0.11 0.68,0.161 z m -6.961,0.48 0.402,0.402 0.238,-0.761 c -0.211,-0.133 -0.398,-0.16 -0.558,-0.078 -0.133,0.05 -0.16,0.199 -0.082,0.437 z m 1.48,-1.68 0.68,-0.039 c 0.187,-0.535 0.066,-0.734 -0.359,-0.601 -0.454,0.136 -0.559,0.347 -0.321,0.64 z m 7.242,-2.48 c 1.424995,0.423522 2.090159,-0.430744 1.957,-1.438 -0.132,-0.214 -0.332,-0.363 -0.597,-0.441 -0.668,-0.266 -1.188,-0.055 -1.559,0.641 -0.187,0.347 -0.23,0.652 -0.121,0.918 0.027,0.109 0.133,0.214 0.32,0.32 z m 7,6.641 c 0.184,0 0.414,-0.04 0.68,-0.118 0.508,-0.132 0.867,-0.347 1.078,-0.64 0.16,-0.27 0.254,-0.602 0.281,-1 0.028,-0.481 -0.05,-0.801 -0.238,-0.961 -0.215,-0.16 -0.547,-0.309 -1,-0.442 -0.027,0 -0.054,-0.011 -0.082,-0.039 -0.426,0.883 -0.652,1.508 -0.68,1.883 -0.027,0.61 -0.039,1.051 -0.039,1.317 z m 11.52,5.562 c 0.426,0.184 0.84,0.387 1.238,0.598 l 0.043,-0.039 c 0.184,-0.106 0.293,-0.282 0.317,-0.52 0.082,-0.215 0.054,-0.375 -0.079,-0.48 -0.214,-0.215 -0.574,-0.215 -1.082,0 -0.265,0.16 -0.41,0.308 -0.437,0.441 z m -2.52,-2 c 0.184,-0.293 0.024,-0.453 -0.48,-0.48 -0.481,-0.055 -0.629,0.089 -0.441,0.437 z m 0.957,-0.242 c 0.055,0.187 0.227,0.32 0.52,0.402 l 0.48,0 c 0.801,0.344 1.282,0.41 1.442,0.199 0.055,-0.109 0.082,-0.253 0.082,-0.441 -0.027,-0.16 -0.082,-0.281 -0.16,-0.359 -0.028,-0.028 -0.321,-0.106 -0.883,-0.239 -0.559,-0.16 -0.934,-0.175 -1.117,-0.043 -0.297,0.133 -0.414,0.293 -0.364,0.481 z m -7.277,-7.16 0.281,-0.399 c 0.051,-0.133 -0.027,-0.215 -0.242,-0.242 -0.187,-0.023 -0.32,0.016 -0.398,0.121 -0.082,0.082 0.039,0.254 0.359,0.52 z m -1.68,5.281 c 0.211,0.051 0.387,-0.016 0.52,-0.199 0.16,-0.188 0.144,-0.36 -0.043,-0.52 -0.16,-0.215 -0.398,-0.254 -0.719,-0.121 -0.293,0.16 -0.371,0.371 -0.238,0.641 z m 3.559,-0.68 c 0.16,-0.562 0.094,-1 -0.199,-1.32 -0.27,-0.266 -0.559,-0.348 -0.883,-0.242 -0.371,0.187 -0.664,0.336 -0.879,0.441 -0.133,0.055 -0.227,0.082 -0.281,0.082 -0.078,0 -0.133,0.094 -0.16,0.278 0,0.082 0.054,0.214 0.16,0.402 0.082,0.16 0.109,0.293 0.082,0.398 l 0.281,0.403 c 0.504,0.183 0.891,0.254 1.16,0.199 0.371,-0.027 0.614,-0.242 0.719,-0.641 z m 1.879,0.278 c 0.109,0.027 0.309,0.093 0.601,0.203 0.266,0.078 0.454,0.09 0.559,0.039 0.109,-0.055 0.188,-0.188 0.242,-0.399 0.051,-0.187 0.039,-0.336 -0.039,-0.441 -0.16,-0.16 -0.629,-0.309 -1.402,-0.441 -0.238,-0.079 -0.414,-0.012 -0.52,0.199 -0.105,0.187 -0.066,0.347 0.121,0.48 z M 33.93,23.125 c -0.532,0.187 -0.868,0.387 -1,0.598 l 0.879,-0.278 c 0.027,-0.105 0.07,-0.215 0.121,-0.32 z m 2.879,-1.602 -0.52,1.161 c -0.184,-0.028 -0.359,-0.028 -0.519,0 -0.079,0.402 0.109,0.628 0.562,0.683 l 0.199,-0.16 c 0.371,-0.082 0.598,-0.281 0.68,-0.602 0.027,-0.132 0.066,-0.332 0.121,-0.601 -0.027,-0.184 -0.109,-0.32 -0.242,-0.399 -0.106,-0.027 -0.199,-0.054 -0.281,-0.082 z m 1.402,2 c 0.055,-0.105 0.133,-0.32 0.238,-0.64 0.055,-0.239 -0.066,-0.36 -0.359,-0.36 -0.211,0.028 -0.36,0.161 -0.438,0.403 -0.082,0.183 -0.082,0.386 0,0.597 z m 4.281,2.84 c -0.137,0.215 -0.121,0.387 0.039,0.52 0.051,0 0.239,0.07 0.559,0.203 l 0.16,0.281 c 0.188,0.106 0.359,0.078 0.52,-0.082 0.187,-0.082 0.308,-0.226 0.359,-0.441 0.082,-0.266 -0.027,-0.481 -0.32,-0.641 -0.664,-0.348 -1.106,-0.293 -1.317,0.16 z m 9.117,5.922 c 0.27,-0.242 0.321,-0.426 0.161,-0.558 -0.161,-0.11 -0.348,-0.028 -0.559,0.238 z M 23.41,19.164 c 0.055,-0.16 0.106,-0.359 0.16,-0.598 0.078,-0.242 0.055,-0.414 -0.078,-0.523 -0.297,-0.211 -0.629,-0.184 -1,0.082 -0.187,0.105 -0.347,0.309 -0.48,0.602 -0.137,0.238 -0.188,0.464 -0.16,0.679 0,0.238 0.078,0.414 0.238,0.52 l 0.601,0.117 z m 5.442,-0.68 c -0.508,-0.078 -0.856,0.121 -1.043,0.602 -0.133,0.348 -0.184,0.598 -0.161,0.758 0.055,0.16 0.227,0.375 0.524,0.64 l 0.32,-0.199 c 0.266,-0.055 0.465,-0.172 0.598,-0.359 0.105,-0.11 0.187,-0.336 0.242,-0.68 0.078,-0.269 0.094,-0.441 0.039,-0.519 -0.055,-0.083 -0.226,-0.161 -0.519,-0.243 z m -9.723,4.282 -0.199,-0.403 c 0.132,-0.347 -0.067,-0.531 -0.598,-0.558 -0.348,-0.055 -0.574,0.093 -0.684,0.441 -0.21,0.453 -0.078,0.68 0.403,0.68 0.238,-0.028 0.597,-0.082 1.078,-0.16 z m 0.203,-0.84 0.52,0.117 c 0.16,-0.481 -0.016,-0.731 -0.52,-0.758 -0.137,0.188 -0.137,0.399 0,0.641 z m 8.68,-4.242 c 0.16,-0.239 0.011,-0.372 -0.442,-0.399 -0.48,-0.027 -0.785,0.094 -0.922,0.359 0.11,0.239 0.297,0.442 0.563,0.602 z m -11.723,3.601 c -0.348,-0.105 -0.559,-0.105 -0.641,0 -0.078,0.133 -0.078,0.254 0,0.359 0.11,0.161 0.243,0.239 0.403,0.239 l 0.121,-0.156 z m 1.121,-2.762 0.52,-0.519 c 0.054,-0.215 -0.055,-0.305 -0.321,-0.281 -0.799779,-0.04029 -0.967856,0.210866 -0.199,0.8 z"
                 style="fill:url(#radialGradient242);fill-rule:evenodd"
                 id="path252" /></g></g></g><g
           id="g254"><g
             id="g256"><g
               id="g262"><path
                 inkscape:connector-curvature="0"
                 d="m 14.609,22.844 c -0.211,0.16 -0.211,0.308 0,0.441 l 0.52,-0.16 0.082,-0.359 c -0.215,-0.11 -0.414,-0.082 -0.602,0.078 z"
                 style="fill:url(#radialGradient264);fill-rule:evenodd"
                 id="path274" /></g></g></g><g
           id="g294"><g
             id="g296"><g
               id="g302"><path
                 sodipodi:nodetypes="cccccccccccccccc"
                 inkscape:connector-curvature="0"
                 id="path310"
                 transform="matrix(0.75776825,0.25649041,0.25649041,-0.75776825,-7.6571908,45.638635)"
                 d="m 15.808594,15.164062 c 1.644769,2.552241 11.201493,5.68817 15.673828,5.796876 l 0.474609,-0.669922 0.01563,-0.04687 c 0.0011,2e-5 0.01444,0.0019 0.01563,0.002 l 0.0059,-0.0078 C 27.92685,19.248238 18.632267,16.148618 15.808594,15.164062 Z m 16.211736,5.082032 c -0.453391,0.224683 -0.485592,0.564527 -0.561082,0.791369 0.811374,0.244124 10.106412,1.425791 11.148174,1.030896 1.709378,0.05337 3.367779,0.0842 4.980469,0.103516 4.0574,-0.03341 7.727142,-0.321481 11.009765,-0.865234 4.47266,-0.846969 7.400131,-2.00028 8.773438,-3.46875 -1.974786,1.26488 -5.160381,2.190797 -9.546875,2.783203 -4.563224,0.599889 -9.688477,0.7686 -15.371094,0.5 -0.724903,-0.03453 -9.640736,-0.859161 -10.432795,-0.875 z"
                 style="fill:url(#radialGradient304);fill-rule:evenodd" /></g></g></g><g
           id="g394"><g
             id="g396"><g
               id="g402"><path
                 inkscape:connector-curvature="0"
                 d="m 34.73,25.926 c -0.132,0.265 -0.054,0.386 0.239,0.359 l 1,0.399 c 0.187,-0.481 0.254,-0.758 0.203,-0.84 -0.027,-0.055 -0.188,-0.121 -0.481,-0.2 -0.214,-0.054 -0.375,-0.082 -0.48,-0.082 -0.242,0.004 -0.402,0.122 -0.481,0.364 z m -15.199,-7.84 0.84,0 c 0.16,-0.508 0,-0.734 -0.48,-0.68 -0.453,0.133 -0.575,0.36 -0.36,0.68 z"
                 style="fill:url(#radialGradient404);fill-rule:evenodd"
                 id="path414" /></g></g></g><g
           id="g416"><g
             id="g418"><g
               id="g424"><path
                 inkscape:connector-curvature="0"
                 d="m 46.648,27.125 0.442,0.117 c 0.16,-0.316 0.055,-0.504 -0.32,-0.558 -0.133,0.105 -0.172,0.253 -0.122,0.441 z"
                 style="fill:url(#radialGradient426);fill-rule:evenodd"
                 id="path436" /></g></g></g><g
           id="g438"><g
             id="g440"><g
               id="g446"><path
                 inkscape:connector-curvature="0"
                 d="m 46.809,23.644 c -0.106,0.028 -0.157,0.133 -0.157,0.321 0.024,0.16 0.09,0.265 0.2,0.32 l 0.199,-0.082 c 0.215,-0.453 0.133,-0.637 -0.242,-0.559 z"
                 style="fill:url(#radialGradient448);fill-rule:evenodd"
                 id="path458" /></g></g></g><g
           id="g460"><g
             id="g462"><g
               id="g468"><path
                 inkscape:connector-curvature="0"
                 d="m 48.41,25.125 -0.16,0.398 0.641,-0.117 0,-0.121 -0.481,-0.16 z"
                 style="fill:url(#radialGradient470);fill-rule:evenodd"
                 id="path480" /></g></g></g><g
           id="g482"><g
             id="g484"><g
               id="g490"><path
                 sodipodi:nodetypes="ccccccccccscccccccccccccccccccccccscccccccccccccccccccccccsccccccccccccccccccccccccccccccccccccccccscccccccccccccccccccccccccccccccccccccccccccccccccccccc"
                 inkscape:connector-curvature="0"
                 d="m 23.449,9.484 -1.918,0.641 c -0.265,0.082 -0.774743,-0.03277 -1.040743,0.07623 L 16.75,12.547 c -0.719,0.519 -0.258556,1.563381 -0.883556,2.176381 0.266,-0.082 -0.328344,-0.720682 0.09766,-1.091682 0.082,-0.027 -0.0341,-0.147699 0.0479,-0.225699 0.05,0.028 0.144,0.051 0.277,0.078 0.137,0.028 0.227,0.016 0.281,-0.039 0.215,-0.054 0.492,-0.265 0.84,-0.64 0.188,-0.161 0.375,-0.239 0.559,-0.239 0.32,0 0.508,-0.015 0.562,-0.043 0.16,-0.05 0.371,-0.211 0.641,-0.48 0.238,-0.211 0.476,-0.344 0.719,-0.399 l 0.839,-0.16 0.52,0.039 c 0.266,0 0.535,-0.066 0.801,-0.199 1.011,-0.426 1.664,-0.547 1.961,-0.359 l -0.043,0.16 c 0.136,0.082 0.336,0.148 0.601,0.199 0.266,0 0.453,0.028 0.559,0.082 -0.106,0.184 -0.106,0.348 0,0.481 0,0.027 0.121,0.172 0.363,0.437 0.106,0.133 0.172,0.242 0.199,0.32 0,0.028 -0.027,0.188 -0.082,0.481 l 0.563,0.16 c -0.11,0.348 -0.149,0.559 -0.121,0.641 0.027,0.16 0.172,0.308 0.441,0.441 0.719,0.426 1.133,0.266 1.238,-0.48 0.055,-0.27 0.055,-0.707 0,-1.321 0.055,-0.535 0.266,-0.906 0.641,-1.121 0.16,-0.105 0.371,-0.144 0.641,-0.117 0.371,0.051 0.597,0.066 0.679,0.039 0.161,-0.027 0.332,-0.133 0.52,-0.32 0.187,-0.16 0.344,-0.238 0.48,-0.238 0.079,0 0.293,0.089 0.641,0.277 0.211,0.055 0.398,0.016 0.559,-0.117 0.214,-0.188 0.375,-0.293 0.48,-0.321 0.184,-0.027 0.52,0.028 1,0.161 0.531,0.187 0.906,0.265 1.121,0.238 0.051,0.187 0.024,0.414 -0.082,0.683 0.188,0.079 0.387,0.118 0.598,0.118 -0.051,0.105 -0.172,0.425 -0.36,0.961 -0.156,0.398 -0.21,0.707 -0.156,0.918 0.078,0.402 0.36,0.695 0.84,0.882 0.504,0.184 0.918,0.172 1.238,-0.043 0.133,-0.105 0.239,-0.281 0.321,-0.519 0.078,-0.106 0.16,-0.278 0.238,-0.52 0.137,-0.238 0.269,-0.386 0.402,-0.441 0.106,-0.024 0.305,-0.039 0.598,-0.039 l 2.281,0.039 c 0.906,0.055 1.481,0.187 1.719,0.402 0.027,0.028 0.066,0.133 0.121,0.321 0.027,0.16 0.082,0.277 0.16,0.359 0.238,0.051 0.387,0.105 0.442,0.16 0.156,0.215 0.277,0.371 0.359,0.481 0.184,0.16 0.437,0.304 0.758,0.437 l 0.199,-0.199 0,1.402 c 0,0.481 0.137,0.918 0.402,1.32 0.051,0.051 0.293,0.36 0.719,0.918 0.16,0 0.254,-0.015 0.281,-0.039 l 0.2,-0.281 c 0.16,-0.238 0.32,-0.519 0.48,-0.84 0.082,-0.187 0.199,-0.48 0.359,-0.883 0.668,0.11 1.067,0.243 1.2,0.403 0.16,0.238 0.253,0.426 0.281,0.558 0.133,0.243 0.308,0.282 0.519,0.122 0.082,0 0.133,-0.083 0.161,-0.243 0,-0.16 0.027,-0.265 0.082,-0.316 0.132,-0.082 0.277,0 0.437,0.238 0.16,0.293 0.254,0.481 0.281,0.559 0.028,0.054 0.293,0.359 0.801,0.922 0.371,0.371 0.547,0.718 0.52,1.039 0.265,0.105 0.425,-0.106 0.48,-0.641 0.106,-0.691 0.16,-1.051 0.16,-1.078 0.348,0.078 0.559,0.199 0.641,0.359 l -0.16,0.161 c 0.718,0.796 1.05,1.492 1,2.078 -0.188,0.562 -0.321,0.972 -0.403,1.242 0.321,0.16 0.536,0.332 0.641,0.519 0.082,0.161 0.109,0.414 0.082,0.758 0,0.055 -0.094,0.36 -0.281,0.922 -0.16,0.426 -0.188,0.731 -0.082,0.918 0.187,0.293 0.441,0.414 0.761,0.359 0.266,-0.105 0.465,-0.304 0.602,-0.597 0.238,-0.293 0.438,-0.844 0.598,-1.641 0.132,0.027 0.254,-0.043 0.359,-0.203 0.133,-0.156 0.242,-0.227 0.32,-0.199 l -0.117,-0.559 c -0.054,-0.238 -0.043,-0.398 0.039,-0.48 0.211,-0.133 0.387,-0.078 0.52,0.16 0.187,0.293 0.304,0.469 0.359,0.519 0.133,0.133 0.238,0.215 0.32,0.243 -0.042,-0.082 -0.082,-0.161 -0.121,-0.243 -0.129,-0.211 -0.261,-0.421 -0.398,-0.64 l -0.883,-1.438 c -0.16,-0.187 -0.32,-0.375 -0.48,-0.562 -0.028,-0.051 -0.039,-0.106 -0.039,-0.16 L 54.77,19.684 c -0.028,-0.028 -0.04,-0.067 -0.04,-0.118 -0.027,0 -0.039,-0.015 -0.039,-0.043 C 54.637,19.5 54.598,19.457 54.57,19.406 l -1.441,-1.64 c -0.934,-0.934 -1.957,-1.829 -3.078,-2.68 -1.281,-0.961 -2.629,-1.828 -4.043,-2.602 l -0.477,-0.281 -5.32,-2.16 c -0.082,0 -0.133,-0.012 -0.16,-0.039 -0.082,0 -0.149,-0.012 -0.199,-0.039 -0.055,0 -0.094,-0.028 -0.122,-0.082 C 38.555,9.59 37.398,9.312 36.25,9.043 L 28.168,8.644 C 27.262,8.75 26.383,8.883 25.531,9.043 24.836,9.18 24.145,9.324 23.449,9.484 Z m -2.558,3.121 0.16,-0.601 c -0.535,-0.16 -0.852,-0.133 -0.961,0.082 l 0.762,0.238 z M 56.77,28.883 c -0.133,0.375 -0.094,0.656 0.121,0.844 0.238,0.265 0.531,0.332 0.879,0.199 0.585,-0.215 0.894,-0.321 0.921,-0.321 l -0.043,-0.32 c -0.05,-0.933 -0.21,-1.894 -0.48,-2.879 l -0.039,0 c -0.238,-0.054 -0.426,-0.094 -0.559,-0.121 -0.265,-0.078 -0.441,-0.078 -0.519,0 -0.133,0.055 -0.242,0.215 -0.321,0.481 -0.132,0.265 -0.171,0.48 -0.121,0.64 0.028,0.078 0.082,0.188 0.161,0.321 0.136,0.132 0.214,0.226 0.242,0.281 0.027,0.129 -0.055,0.422 -0.242,0.875 z M 39.93,14.445 c 0.109,0.106 0.347,0.227 0.718,0.36 l 0.602,0.039 c 0.16,0.027 0.266,-0.067 0.32,-0.278 0.051,-0.187 0.051,-0.363 0,-0.523 -0.105,-0.133 -0.359,-0.211 -0.761,-0.238 -0.532,-0.055 -0.813,-0.082 -0.84,-0.082 -0.211,0.32 -0.227,0.562 -0.039,0.722 z m -16.641,1.321 c 0.348,-0.055 0.668,-0.309 0.961,-0.762 0.16,-0.266 0.332,-0.664 0.52,-1.199 0.187,-0.692 0.132,-1.055 -0.161,-1.082 l -0.398,-0.039 c -0.773,0.242 -1.242,0.988 -1.402,2.242 -0.051,0.586 0.109,0.863 0.48,0.84 z m -8.559,0.117 c 0.293,-0.293 0.508,-0.614 0.641,-0.957 -0.426,-0.348 -0.773,-0.309 -1.039,0.117 -0.242,0.297 -0.414,0.695 -0.523,1.203 0.296,0.133 0.601,0.012 0.921,-0.363 z"
                 style="fill:url(#radialGradient492);fill-rule:evenodd"
                 id="path502" /></g></g></g><g
           id="g504"><g
             id="g506"><g
               id="g512"><path
                 inkscape:connector-curvature="0"
                 d="m 57.809,30.363 0.363,0.563 c 0.16,0.023 0.266,-0.043 0.32,-0.203 0,-0.024 0.024,-0.184 0.078,-0.481 -0.105,-0.133 -0.238,-0.183 -0.398,-0.16 -0.16,0.031 -0.281,0.121 -0.363,0.281 z m -1.36,-5.918 c -0.027,0.211 0.028,0.438 0.16,0.68 l 0.442,-0.16 c 0,-0.375 -0.199,-0.547 -0.602,-0.52 z m -25.437,-11 c 0.078,-0.32 0.105,-0.547 0.078,-0.679 -0.051,-0.161 -0.227,-0.27 -0.52,-0.321 l -0.558,0.078 c -0.481,0.028 -0.785,0.469 -0.922,1.321 -0.16,0.883 0.066,1.254 0.68,1.121 0.507,-0.11 0.921,-0.613 1.242,-1.52 z"
                 style="fill:url(#radialGradient514);fill-rule:evenodd"
                 id="path524" /></g></g></g><g
           id="g526"><g
             id="g528"><g
               id="g534"><path
                 inkscape:connector-curvature="0"
                 d="m 56.609,22.523 c 0.219,0.368 0.418,0.727 0.602,1.082 0.426,-0.75 0.918,-1.586 1.48,-2.519 0.825,-1.281 1.321,-2.203 1.481,-2.762 0.32,-1.066 -0.027,-1.691 -1.039,-1.879 -0.801,-0.133 -2.321,0.852 -4.563,2.961 0.028,0.051 0.067,0.09 0.121,0.117 0,0.028 0.012,0.043 0.039,0.043 0,0.051 0.016,0.09 0.04,0.118 l 0.042,0.039 c 0,0.054 0.012,0.109 0.04,0.16 0.16,0.187 0.32,0.375 0.48,0.562 l 0.879,1.438 c 0.137,0.219 0.269,0.433 0.398,0.64 z"
                 style="fill:url(#radialGradient536);fill-rule:evenodd"
                 id="path544" /></g></g></g><g
           id="g546"><g
             id="g548"><g
               id="g554"><path
                 inkscape:connector-curvature="0"
                 d="m 47.129,13.043 c 1.601,0.934 3.082,2 4.441,3.203 0.508,-1.203 1.2,-2.789 2.082,-4.762 0.614,-1.386 0.946,-2.371 1,-2.961 0.184,-1.117 -0.226,-1.691 -1.242,-1.718 -0.828,-0.028 -2.265,1.254 -4.32,3.839 -0.719,0.907 -1.375,1.708 -1.961,2.399 z"
                 style="fill:url(#radialGradient556);fill-rule:evenodd"
                 id="path566" /></g></g></g><g
           id="g568"><g
             id="g570"><g
               id="g576"><path
                 sodipodi:nodetypes="ccccsc"
                 inkscape:connector-curvature="0"
                 d="m 41.93,20.766 c -0.239,-0.133 -0.438,-0.161 -0.598,-0.082 -0.187,0.105 -0.254,0.308 -0.203,0.601 0.183608,0.737454 0.49981,0.850572 0.961,0.281 0.082,-0.297 0.121,-0.453 0.121,-0.484 0,-0.129 -0.094,-0.238 -0.281,-0.316 z"
                 style="fill:url(#radialGradient578);fill-rule:evenodd"
                 id="path588" /></g></g></g><g
           id="g612"><g
             id="g614"><g
               id="g620"><path
                 inkscape:connector-curvature="0"
                 d="m 31.891,12.324 c 0,0.188 -0.028,0.32 -0.082,0.399 l 0.722,0.203 c 0.211,0.078 0.371,0 0.477,-0.242 0.082,-0.188 0.043,-0.36 -0.117,-0.52 -0.055,-0.027 -0.36,-0.105 -0.922,-0.238 -0.051,0.105 -0.078,0.238 -0.078,0.398 z"
                 style="fill:url(#radialGradient622);fill-rule:evenodd"
                 id="path632" /></g></g></g><g
           id="g634"><g
             id="g636"><g
               id="g642"><path
                 inkscape:connector-curvature="0"
                 d="m 16.172,19.883 c -0.188,-0.133 -0.43,-0.145 -0.723,-0.039 -0.293,0.133 -0.32,0.281 -0.078,0.441 l 0.68,0 0.121,-0.402 z"
                 style="fill:url(#radialGradient644);fill-rule:evenodd"
                 id="path654" /></g></g></g><g
           id="g656"><g
             id="g658"><g
               id="g664"><path
                 inkscape:connector-curvature="0"
                 d="m 15.609,15.164 0.442,-0.121 c 0.133,-0.024 0.226,-0.238 0.281,-0.637 -0.215,-0.109 -0.387,-0.054 -0.523,0.16 -0.051,0.289 -0.118,0.493 -0.2,0.598 z"
                 style="fill:url(#radialGradient666);fill-rule:evenodd"
                 id="path676" /></g></g></g><g
           id="g678"><g
             id="g680"><g
               id="g686"><path
                 inkscape:connector-curvature="0"
                 d="m 19.449,13.324 0.36,-0.039 0.601,0.039 c 0.32,-0.453 0.172,-0.691 -0.441,-0.719 -0.586,-0.027 -0.758,0.211 -0.52,0.719 z"
                 style="fill:url(#radialGradient688);fill-rule:evenodd"
                 id="path698" /></g></g></g><g
           id="g870"><g
             id="g872"><g
               id="g878"><path
                 inkscape:connector-curvature="0"
                 d="m 22.289,10.723 c 0.027,0 0.203,0.043 0.52,0.121 l 0.839,0.039 c -0.023,-0.184 -0.105,-0.371 -0.238,-0.559 -0.16,-0.105 -0.332,-0.148 -0.519,-0.121 -0.399,-0.023 -0.641,0.027 -0.719,0.16 -0.11,0.16 -0.067,0.281 0.117,0.36 z"
                 style="fill:url(#linearGradient880);fill-rule:evenodd"
                 id="path886" /></g></g></g><path
           sodipodi:nodetypes="ccccc"
           inkscape:connector-curvature="0"
           id="path4612"
           d="m 20.281213,37.550734 c 0.772451,0.06369 1.563069,0.07372 2.252069,0.383954 l -0.03683,0.748597 -2.032355,-0.393307 z"
           style="fill:#a1a1ac;fill-opacity:1;fill-rule:evenodd;stroke:none;stroke-width:0.80000001px;stroke-linecap:butt;stroke-linejoin:miter;stroke-opacity:1" /><path
           sodipodi:nodetypes="cccccccccccccccccccccccccccccccccccccsccccccccccccccc"
           inkscape:connector-curvature="0"
           d="m 53.09,45.285 c 0.055,-0.133 0.082,-0.254 0.082,-0.359 0.183,-0.535 0.16,-1.094 -0.082,-1.68 -0.559,-1.414 -2.215,-3.016 -4.961,-4.801 -1.414,-0.906 -2.973,-1.773 -4.68,-2.601 -0.398,-0.211 -0.812,-0.414 -1.238,-0.598 -2.641,-1.176 -5.59,-2.242 -8.84,-3.203 -1.176,-0.344 -2.32,-0.652 -3.441,-0.918 -0.028,0.027 -0.039,0.066 -0.039,0.121 l -0.282,0.52 c 1.094,0.293 2.211,0.597 3.36,0.918 3.148,0.906 6,1.933 8.562,3.082 0.051,0.023 0.09,0.039 0.117,0.039 2.321,1.039 4.403,2.148 6.243,3.32 2.586,1.68 4.211,3.172 4.879,4.48 0.269,0.614 0.375,1.172 0.32,1.68 z m -1.078,1.641 c 0,-0.641 -0.055,-1.375 -0.16,-2.203 C 51.77,44.484 51.73,44.219 51.73,43.926 L 48.25,41.125 C 44.945,38.855 40.797,36.898 35.809,35.242 L 31.051,33.766 C 30.332,33.578 29.676,33.43 29.09,33.324 l 0,0.039 -0.16,0.481 c 0.64,0.109 1.347,0.281 2.121,0.519 l 2.117,0.641 c 0.828,0.215 1.684,0.519 2.562,0.922 4.825,1.707 8.813,3.64 11.958,5.797 l 3.32,2.8 c 0.054,0.321 0.094,0.653 0.121,1 0.105,0.641 0.148,1.243 0.121,1.801 l 0.238,3.801 c 0.055,0.133 0.229771,1.220851 0.256771,1.302851 L 52.168,51.562 Z M 20.172,29.484 c -0.934,-0.05 -1.84,-0.078 -2.723,-0.078 -3.547,0 -5.879,0.547 -7,1.637 -0.16,0.137 -0.304,0.281 -0.437,0.441 0.105,-0.078 0.265,-0.172 0.48,-0.281 1.25,-0.773 3.41,-1.172 6.477,-1.199 0.668,0 1.363,0.015 2.082,0.039 0.265,-0.344 0.586,-0.477 0.961,-0.399 z m -1.203,2.52 c -1.172,-0.027 -2.305,-0.012 -3.399,0.039 l -3.16,0.523 2.959443,-0.168043 C 16.490443,32.374957 17.543,32.203 18.77,32.285 c 0.054,-0.082 0.105,-0.133 0.16,-0.16 l 0.039,0 z"
           style="fill:#212225;fill-rule:evenodd;stroke:#212225;stroke-width:0.024;stroke-miterlimit:4;stroke-dasharray:none;stroke-opacity:1"
           id="path230" /><path
           sodipodi:nodetypes="ccccc"
           inkscape:connector-curvature="0"
           id="path4618"
           d="m 18.565756,32.263226 c 2.491325,-0.238437 10.434942,1.584991 10.434942,1.584991 l 0.242741,-0.44323 C 25.767927,32.885152 22.598226,31.627538 18.724026,32.069554 Z"
           style="fill:#212225;fill-opacity:1;fill-rule:evenodd;stroke:none;stroke-width:0.80000001px;stroke-linecap:butt;stroke-linejoin:miter;stroke-opacity:1" /><path
           sodipodi:nodetypes="cccccc"
           inkscape:connector-curvature="0"
           id="path4622"
           d="m 16.567157,32.05032 -0.416323,-2.057055 4.165713,0.01925 0.342521,2.001169 -1.684628,-0.04482 z"
           style="fill:url(#linearGradient4646);fill-opacity:1;fill-rule:evenodd;stroke:none;stroke-width:0.80000001px;stroke-linecap:butt;stroke-linejoin:miter;stroke-opacity:1" /><path
           sodipodi:nodetypes="cccccc"
           inkscape:connector-curvature="0"
           id="path4648"
           d="m 18.84479,29.977955 c 4.06604,0.104915 7.678336,1.0551 11.349986,1.894716 l 0.06784,-0.656958 c -3.390753,-0.70921 -6.71375,-1.712149 -10.267714,-1.713819 l -1.371084,0.215834 z"
           style="fill:#000000;fill-opacity:1;fill-rule:evenodd;stroke:none;stroke-width:0.80000001px;stroke-linecap:butt;stroke-linejoin:miter;stroke-opacity:1" /><g
           style="opacity:0.48200001"
           transform="matrix(0,-1,1,0,35.106356,70.662696)"
           id="g4652"><g
             id="g4654"><g
               id="g4656"><path
                 id="path4658"
                 style="fill:url(#radialGradient4853);fill-rule:evenodd"
                 d="m 35.809,18.805 0,-0.039 c 0,-0.215 -0.024,-0.36 -0.079,-0.442 -0.109,-0.187 -0.441,-0.332 -1,-0.441 -0.535,-0.106 -0.878,0.082 -1.039,0.562 -0.027,0.293 -0.043,0.532 -0.043,0.719 1.359963,1.278892 1.912846,0.615587 2.082,-0.32 l 0.04,-0.039 z"
                 inkscape:connector-curvature="0"
                 sodipodi:nodetypes="csccccccc" /><path
                 sodipodi:nodetypes="csccccccc"
                 inkscape:connector-curvature="0"
                 d="m 35.809,18.805 0,-0.039 c 0,-0.215 -0.024,-0.36 -0.079,-0.442 -0.109,-0.187 -0.441,-0.332 -1,-0.441 -0.535,-0.106 -0.878,0.082 -1.039,0.562 -0.027,0.293 -0.043,0.532 -0.043,0.719 1.359963,1.278892 1.912846,0.615587 2.082,-0.32 l 0.04,-0.039 z"
                 style="fill:url(#radialGradient4660);fill-rule:evenodd"
                 id="path4664" /></g></g></g><path
           inkscape:connector-curvature="0"
           id="path4687"
           d="m 25.665536,46.214903 c 0.263248,0.08603 0.395417,0.296561 0.447987,0.538928 0.123473,0.177498 0.09257,0.594321 -0.09223,0.783052 -0.219286,0.183023 -0.488742,0.34393 -0.783798,0.326558 -0.23199,0.0894 -0.47795,0.07263 -0.682056,-0.07695 -0.199903,-0.133702 -0.408876,-0.346348 -0.460135,-0.573929 0.110094,-0.208289 0.168526,-0.441402 0.165802,-0.676878 0.06675,-0.273971 0.298397,-0.609443 0.605743,-0.600816 0.213446,0.03678 0.496872,0.289172 0.667399,0.188463 -0.128328,-0.08916 -0.183127,0.129446 0.0025,0.08269 0.04279,0.0047 0.08581,0.0071 0.128791,0.0089 z"
           style="fill:#699749;fill-opacity:1;fill-rule:evenodd;stroke:#b0b0b0;stroke-width:0.056;stroke-linecap:butt;stroke-linejoin:miter;stroke-miterlimit:4;stroke-dasharray:none;stroke-opacity:1" /><path
           style="fill:#699749;fill-opacity:1;fill-rule:evenodd;stroke:#b0b0b0;stroke-width:0.0539652;stroke-linecap:butt;stroke-linejoin:miter;stroke-miterlimit:4;stroke-dasharray:none;stroke-opacity:1"
           d="m 14.434017,40.641873 c 0.206624,0.06629 0.289945,0.291011 0.303729,0.56186 0.08018,0.187988 0.0038,0.668599 -0.171622,0.907055 -0.203196,0.236133 -0.445073,0.453089 -0.68631,0.46922 -0.202251,0.130581 -0.403068,0.141409 -0.553158,-0.0048 -0.148562,-0.12856 -0.294971,-0.346324 -0.309478,-0.600419 0.11622,-0.251714 0.192859,-0.525522 0.219347,-0.79457 0.08849,-0.321564 0.320479,-0.733606 0.57292,-0.761241 0.171558,0.01603 0.374525,0.270178 0.527462,0.13416 -0.09496,-0.08634 -0.166836,0.17043 -0.008,0.09429 0.03472,1.55e-4 0.06991,-0.0023 0.105139,-0.0055 z"
           id="path4701"
           inkscape:connector-curvature="0" /></g></g></g><metadata
     id="metadata469"><rdf:RDF><cc:Work><dc:format>image/svg+xml</dc:format><dc:type
           rdf:resource="http://purl.org/dc/dcmitype/StillImage" /><cc:license
           rdf:resource="http://creativecommons.org/publicdomain/zero/1.0/" /><dc:publisher><cc:Agent
             rdf:about="http://openclipart.org/"><dc:title>Openclipart</dc:title></cc:Agent></dc:publisher><dc:title></dc:title></cc:Work><cc:License
         rdf:about="http://creativecommons.org/publicdomain/zero/1.0/"><cc:permits
           rdf:resource="http://creativecommons.org/ns#Reproduction" /><cc:permits
           rdf:resource="http://creativecommons.org/ns#Distribution" /><cc:permits
           rdf:resource="http://creativecommons.org/ns#DerivativeWorks" /></cc:License></rdf:RDF></metadata></svg>