<?xml version="1.0" encoding="UTF-8" standalone="no"?>
<!-- Created with Inkscape (http://www.inkscape.org/) -->
<svg xmlns:inkscape="http://www.inkscape.org/namespaces/inkscape" xmlns:rdf="http://www.w3.org/1999/02/22-rdf-syntax-ns#" xmlns="http://www.w3.org/2000/svg" xmlns:xlink="http://www.w3.org/1999/xlink" xmlns:ns1="http://sozi.baierouge.fr" xmlns:cc="http://creativecommons.org/ns#" xmlns:sodipodi="http://sodipodi.sourceforge.net/DTD/sodipodi-0.dtd" xmlns:dc="http://purl.org/dc/elements/1.1/" id="svg2" xml:space="preserve" viewBox="0 0 39.596 23.92" version="1.1" inkscape:version="0.91 r13725">
  <g id="g10" transform="matrix(1.25 0 0 -1.25 0 23.92)">
    <g id="g12">
      <path id="path14" style="fill-rule:evenodd;fill:#c6b64e" d="m16.137 13.277c-0.317-0.082-0.543-0.082-0.68 0-0.16 0.133-0.145 0.347 0.043 0.64l0.199 0.2c0.078 0.078 0.133 0.171 0.16 0.281 0.028 0.051 0.039 0.254 0.039 0.598-0.214 0.027-0.359-0.079-0.441-0.321-0.078-0.265-0.145-0.437-0.199-0.519-0.188-0.215-0.465-0.36-0.84-0.438-0.426-0.109-0.707-0.015-0.84 0.278l-0.398 0.281c0.16 0.215 0.332 0.574 0.519 1.078 0.215 0.43 0.504 0.668 0.879 0.723 1.336 0.21 2.082-0.016 2.242-0.68 0.266-1.254 0.039-1.961-0.683-2.121z" inkscape:connector-curvature="0"/>
      <path id="path16" style="fill-rule:evenodd;fill:#817633" d="m16.82 15.398c0.106-0.828 0.039-1.414-0.203-1.762l-0.277-0.281-0.203-0.078c-0.317-0.082-0.543-0.082-0.68 0-0.16 0.133-0.145 0.347 0.043 0.64l0.199 0.2c0.078 0.078 0.133 0.171 0.16 0.281 0.028 0.051 0.039 0.254 0.039 0.598-0.214 0.027-0.359-0.079-0.441-0.321-0.078-0.265-0.145-0.437-0.199-0.519-0.188-0.215-0.465-0.36-0.84-0.438-0.426-0.109-0.707-0.015-0.84 0.278l-0.398 0.281c0.05 0.105 0.172 0.359 0.359 0.758l0.039-0.039c0.133-0.079 0.336-0.133 0.602-0.161 0.293-0.027 0.504-0.011 0.64 0.039 0.106 0.082 0.211 0.227 0.317 0.442 0.297 0.426 0.683 0.652 1.16 0.68 0.269-0.133 0.441-0.333 0.523-0.598z" inkscape:connector-curvature="0"/>
      <path id="path18" style="fill-rule:evenodd;fill:#f9e97b" d="m13.66 15.277c0.238 0.508 0.543 0.773 0.918 0.801l0.801 0.078-0.281-0.078c-0.266-0.082-0.52-0.215-0.758-0.403-0.32-0.265-0.547-0.398-0.68-0.398z" inkscape:connector-curvature="0"/>
      <path id="path20" style="fill-rule:evenodd;fill:#534a22" d="m21.777 18.277c0.774-0.215 1.43-0.559 1.961-1.039 0.559-0.43 1.321-0.614 2.282-0.563 1.414 0.11 2.187 0.149 2.32 0.121 1.359-0.133 2.32-0.879 2.879-2.238 0.613-1.414 0.601-3.094-0.039-5.043-0.242-0.719-0.789-1.519-1.641-2.398-0.801-0.852-1.469-1.375-2-1.559-1.949-0.773-4.094-1.203-6.441-1.281-1.25-0.055-2.211-0.176-2.879-0.36-0.989-0.293-1.907-0.839-2.762-1.64-1.332-1.227-2.32-1.922-2.957-2.082-1.652-0.453-2.828-0.117-3.52 1-0.828 1.336-0.722 2.722 0.317 4.16 0.883 1.254 1.816 1.973 2.801 2.16 0.855 0.16 1.972 0.176 3.359 0.039 1.949-0.211 3.082-0.32 3.402-0.32 1.254-0.051 2.305 0.043 3.161 0.281 1.57 0.426 2.304 1.242 2.199 2.441-0.106 1.332-0.641 2.133-1.602 2.399-0.078 0.027-0.867 0.066-2.359 0.121-0.664 0-1.055 0.016-1.16 0.039-0.559 0.109-0.895 0.426-1 0.961-0.239 1.359-1.039 1.879-2.399 1.559-1.922-0.454-2.922-0.664-3-0.637-0.16 0.027-0.215 0.183-0.16 0.476 0.027 0.27 0.121 0.375 0.281 0.321 0.184-0.051 1.2 0.176 3.039 0.679 1.332 0.375 2.2-0.078 2.598-1.359 0.32-1.094 1.281-1.531 2.883-1.32 1.652 0.242 2.68-0.199 3.078-1.321 1.176-3.277-0.117-5.117-3.879-5.519-1.199-0.106-2.668-0.078-4.402 0.082-1.571 0.215-2.492 0.32-2.758 0.32-1.281 0.028-2.481-0.613-3.602-1.922-0.105-1.73 0.028-2.824 0.403-3.277 0.265-0.375 0.984-0.562 2.16-0.562 0.16 0 0.387 0.093 0.68 0.281 0.347 0.215 1.238 0.918 2.679 2.121 1.039 0.879 1.961 1.41 2.758 1.598 1.363 0.32 3.32 0.535 5.883 0.64 2.238 0.32 4.094 1.348 5.558 3.082 1.653 2.184 1.747 4.344 0.282 6.481-0.907 0.664-1.828 0.918-2.762 0.757-0.293 0-1.148-0.066-2.559-0.199-0.402-0.027-0.933 0.211-1.601 0.719-0.801 0.586-1.332 0.922-1.598 1-1.574 0.48-2.574 0.762-3 0.84-1.148 0.187-2.16 0.105-3.043-0.238-1.414-0.668-2.437-1.293-3.078-1.883 0 0.027-0.039 0.043-0.121 0.043-0.293-0.055-0.504-0.282-0.641-0.68l-0.039-0.043-0.199-0.277c-0.16 1.011 0.426 1.918 1.758 2.718 0.906 0.536 1.816 0.879 2.723 1.04 0.906 0.187 1.867 0.187 2.878 0 0.641-0.106 1.602-0.344 2.879-0.719z" inkscape:connector-curvature="0"/>
      <path id="path22" style="fill-rule:evenodd;fill:#383217" d="m31.18 9.515c-0.242-0.719-0.789-1.519-1.641-2.398-0.801-0.852-1.469-1.375-2-1.559-1.949-0.773-4.094-1.203-6.441-1.281-1.25-0.055-2.211-0.176-2.879-0.36-0.989-0.293-1.907-0.839-2.762-1.64-1.332-1.227-2.32-1.922-2.957-2.082-1.652-0.453-2.828-0.117-3.52 1-0.269 0.426-0.441 0.894-0.523 1.402l1.441-0.601c0.106-0.293 0.266-0.52 0.481-0.68-0.082-0.082-0.121-0.133-0.121-0.16-0.055-0.239 0.027-0.426 0.242-0.559 0.238-0.187 0.57-0.203 1-0.043 1.57 0.481 2.918 1.215 4.039 2.203 0.801 0.692 1.801 1.199 3 1.52 1.039 0.293 2.453 0.519 4.238 0.679 4.161 0.293 6.684 1.532 7.563 3.719 0.691 1.707 1.039 2.574 1.039 2.602 0.16 0.453 0.226 1.078 0.199 1.879v0.242c0.215-1.149 0.082-2.442-0.398-3.883z" inkscape:connector-curvature="0"/>
      <path id="path24" style="fill-rule:evenodd;fill:#383217" d="m24.5 11.597c1.012-3.121-0.348-4.867-4.082-5.242-1.172-0.106-2.613-0.078-4.32 0.082-1.547 0.215-2.453 0.32-2.719 0.32-1.067 0.028-2.082-0.414-3.039-1.32l-0.602 0.039 2.039 1.961 0.321 0.078 1.082 0.121c0-0.16 0.05-0.254 0.16-0.281 0.16-0.133 0.437-0.25 0.84-0.359 0.398-0.079 0.664-0.067 0.8 0.039 0.157 0.136 0.305 0.308 0.438 0.523l2.52-0.281c-0.106-0.293-0.067-0.453 0.121-0.481 0.371-0.105 1.16-0.105 2.359 0 1.414 0.106 2.348 0.371 2.801 0.801 0.586 0.531 0.961 0.918 1.117 1.16 0.215 0.344 0.309 0.774 0.281 1.278 0 0.589-0.039 1.109-0.117 1.562z" inkscape:connector-curvature="0"/>
      <path id="path26" style="fill-rule:evenodd;fill:#383217" d="m17.82 14.355c-0.402 0.746-1.226 0.933-2.48 0.562-1.52-0.429-2.402-0.601-2.641-0.519-0.16 0.027-0.215 0.183-0.16 0.476l0.359 0.321 0.239-0.078c-0.051-0.243 0-0.348 0.16-0.321 0.055 0 0.469 0.133 1.242 0.399 0.719 0.242 1.281 0.363 1.68 0.363 0.535 0 0.894-0.055 1.078-0.16 0.187-0.082 0.336-0.297 0.441-0.641l0.082-0.402z" inkscape:connector-curvature="0"/>
      <path id="path28" style="fill-rule:evenodd;fill:#383217" d="m22.738 12.956c0.746-0.238 1.094-0.734 1.039-1.48-0.343 0.559-0.918 0.895-1.718 1-0.879-0.027-1.481-0.027-1.801 0-0.641 0-1.028 0.016-1.16 0.039-0.532 0.109-0.852 0.402-0.961 0.883 0.187-0.27 0.523-0.442 1-0.524 0.429-0.023 1.109 0 2.043 0.082 0.773 0.079 1.293 0.079 1.558 0z" inkscape:connector-curvature="0"/>
      <path id="path30" style="fill-rule:evenodd;fill:#383217" d="m22.539 17.597c0.106-0.055 0.414-0.293 0.918-0.723 0.402-0.293 0.75-0.449 1.043-0.476 0.238-0.027 0.957-0.016 2.16 0.039 1.199 0 2.039-0.094 2.52-0.281 0.64-0.293 1.05-0.746 1.238-1.36l-0.238 0.399c-0.907 0.668-1.828 0.922-2.762 0.761-0.293 0-1.148-0.066-2.559-0.199-0.402-0.027-0.933 0.211-1.601 0.719-0.801 0.586-1.332 0.922-1.598 1-1.574 0.48-2.574 0.762-3 0.84-1.148 0.187-2.16 0.105-3.043-0.238-1.414-0.668-2.437-1.293-3.078-1.883 0 0.027-0.039 0.043-0.121 0.043-0.293-0.055-0.504-0.282-0.641-0.68l-0.039-0.043-0.199-0.277c-0.082 0.453 0.012 0.918 0.281 1.398 0.211 0 0.438 0.121 0.68 0.36 1.625 1.546 3.387 2.16 5.277 1.839 2.137-0.371 3.723-0.785 4.762-1.238z" inkscape:connector-curvature="0"/>
      <path id="path32" style="fill-rule:evenodd;fill:#383217" d="m12.82 15.195h0.078l-0.359-0.321c0.055 0.243 0.145 0.348 0.281 0.321z" inkscape:connector-curvature="0"/>
      <path id="path34" style="fill-rule:evenodd;fill:#7c6e3f" d="m18.258 9.956c-0.559-0.398-1.426-0.718-2.598-0.96-1.816-0.348-2.281-1.348-1.402-3 0.242-0.481 0.707-1.239 1.402-2.278 1.598 0.344 2.906 0.879 3.918 1.598 0.934 0.691 1.469 1.426 1.602 2.199 0.211 1.281-0.586 2.387-2.403 3.32 0.055-0.132 0.043-0.254-0.039-0.359-0.054-0.16-0.215-0.332-0.48-0.52zm-9.238-1.679c0.183 0.691 0.066 1.281-0.36 1.758-0.668 0.75-0.906 1.414-0.722 2-2.907-0.532-4.786-1.559-5.641-3.079-0.586-1.121-0.371-2.187 0.641-3.199l4.199 0.961c1.043 0.238 1.668 0.758 1.883 1.559zm11.519 3.121c1.895-1.281 2.719-2.695 2.481-4.242-0.215-1.547-1.481-2.84-3.801-3.879-2.641-1.176-5.84-1.602-9.598-1.281-3.762 0.292-6.48 1.187-8.16 2.679-1.496 1.309-1.84 2.719-1.043 4.242 0.746 1.414 2.176 2.598 4.281 3.559 2.215 1.016 4.547 1.465 7 1.359 3.758-0.16 6.707-0.972 8.84-2.437z" inkscape:connector-curvature="0"/>
      <path id="path36" style="fill-rule:evenodd;fill:#675c35" d="m1.938 8.078c-0.426-0.161-0.973-0.204-1.641-0.122l-0.117 0.321c0.05 0.238 0.132 0.453 0.238 0.64l0.039 0.039 1.641-0.558-0.078-0.203-0.082-0.117z" inkscape:connector-curvature="0"/>
      <path id="path38" style="fill-rule:evenodd;fill:#675c35" d="m7.258 12.398c0.16-0.11 0.265-0.254 0.32-0.442l-0.84-0.199-0.039 0.199c-0.187 0.188-0.508 0.2-0.961 0.04-0.586-0.161-1.066-0.438-1.441-0.84-0.426-0.266-0.719-0.504-0.879-0.719l-0.121-0.32c-0.399-0.321-0.731-0.707-1-1.161l-0.078-0.199c0.054 0.801 0.281 1.399 0.679 1.801l0.922 0.879c0.239 0.215 0.68 0.48 1.317 0.801 0.668 0.343 1.027 0.519 1.082 0.519 0.347 0.051 0.695-0.066 1.039-0.359z" inkscape:connector-curvature="0"/>
      <path id="path40" style="fill-rule:evenodd;fill:#675c35" d="m8.578 13.636 0.242 0.039c-0.109-0.664-0.281-1.211-0.523-1.64l-0.16-0.161c0.105 0.129 0.199 0.317 0.281 0.563 0.105 0.371 0.16 0.773 0.16 1.199z" inkscape:connector-curvature="0"/>
      <path id="path42" style="fill-rule:evenodd;fill:#675c35" d="m20.777 11.238c0.481-0.375 0.813-0.668 1-0.883-0.05-0.293-0.156-0.438-0.316-0.438-0.32 0.266-0.547 0.414-0.68 0.438-0.457 0.109-0.843 0.109-1.16 0l-0.683 0.402 0.121 0.117c0.16 0.11 0.402 0.149 0.722 0.122 0.344-0.051 0.586-0.051 0.719 0 0.105 0.027 0.199 0.105 0.277 0.242z" inkscape:connector-curvature="0"/>
      <path id="path44" style="fill-rule:evenodd;fill:#675c35" d="m17.457 12.874 0.883-1.078c0.105-0.133 0.183-0.371 0.238-0.718 0.027-0.403 0.039-0.668 0.039-0.801-0.16-0.215-0.48-0.442-0.957-0.68-0.055 0.133-0.094 0.359-0.121 0.68-0.105 0.238-0.492 0.359-1.16 0.359-0.719-0.055-1.16-0.078-1.32-0.078l0.281 2.84c0.613-0.11 1.32-0.281 2.117-0.524z" inkscape:connector-curvature="0"/>
      <path id="path46" style="fill-rule:evenodd;fill:#675c35" d="m0.34 7.917 0.199-0.082c0.399-0.105 0.707-0.277 0.918-0.519 0.137-0.133 0.309-0.426 0.523-0.879 0.133-0.266 0.438-0.492 0.918-0.68l0.641-0.281c-0.375 0.082-0.668-0.121-0.879-0.602-0.137-0.293-0.148-0.636-0.043-1.039-0.879 0.508-1.519 1.067-1.918 1.68v0.043c-0.082 0.691-0.027 1.09 0.16 1.199l-0.519 1.16z" inkscape:connector-curvature="0"/>
      <path id="path48" style="fill-rule:evenodd;fill:#675c35" d="m19.5 4.437c0-0.402-0.082-0.774-0.242-1.121-1.84-0.852-4.055-1.32-6.641-1.399l0.043 0.719c0.985 0.082 1.906 0.242 2.758 0.481 0.402 0.082 0.812 0.214 1.242 0.402 0.637 0.266 0.985 0.531 1.039 0.797 0.586 0.242 1.078 0.492 1.481 0.762 0.211-0.055 0.32-0.27 0.32-0.641z" inkscape:connector-curvature="0"/>
      <path id="path50" style="fill-rule:evenodd;fill:#504729" d="m21.18 7.515 0.039 0.481 1.238 1.48c0.133-0.188 0.281-0.492 0.441-0.918l-1.839-2.242c0.132 0 0.32-0.121 0.558-0.36 0.133-0.16 0.203-0.32 0.203-0.48 0-0.027-0.015-0.188-0.043-0.48-0.64-0.641-1.48-1.2-2.519-1.68 0.16 0.347 0.242 0.719 0.242 1.117 0 0.375-0.109 0.59-0.32 0.641 1.172 0.777 1.84 1.589 2 2.441z" inkscape:connector-curvature="0"/>
      <path id="path52" style="fill-rule:evenodd;fill:#504729" d="m0.859 6.757c-0.187-0.109-0.242-0.508-0.16-1.199v-0.043c-0.64 0.883-0.812 1.801-0.519 2.762l0.117-0.321 0.043-0.039 0.519-1.16z" inkscape:connector-curvature="0"/>
      <path id="path54" style="fill-rule:evenodd;fill:#504729" d="m7.578 11.956c-0.055 0.188-0.16 0.332-0.32 0.442-0.344 0.293-0.692 0.41-1.039 0.359-0.055 0-0.414-0.176-1.082-0.519-0.637-0.321-1.078-0.586-1.317-0.801l-0.922-0.879c-0.398-0.402-0.625-1-0.679-1.801l-0.121-0.359-1.641 0.558c0.59 1.094 1.613 2.067 3.082 2.918 1.492 0.883 3.172 1.469 5.039 1.762 0-0.426-0.055-0.828-0.16-1.199-0.133-0.402-0.293-0.652-0.48-0.762h-0.04l0.04 0.36-0.36-0.079z" inkscape:connector-curvature="0"/>
      <path id="path56" style="fill-rule:evenodd;fill:#504729" d="m20.5 10.996c-0.137-0.051-0.375-0.051-0.723 0-0.32 0.027-0.558-0.012-0.718-0.122l-0.121-0.117-0.161 0.078c0.055-0.132 0.043-0.254-0.039-0.359l-0.121-0.199c0 0.133-0.012 0.398-0.039 0.801-0.055 0.347-0.133 0.585-0.238 0.718l-0.883 1.078c1.309-0.425 2.414-0.972 3.32-1.636-0.078-0.137-0.172-0.215-0.277-0.242z" inkscape:connector-curvature="0"/>
      <path id="path58" style="fill-rule:evenodd;fill:#504729" d="m14.898 8.757c-0.558-0.215-0.906-0.547-1.039-1l-0.441 0.039c-0.293 0.028-0.465 0.082-0.52 0.16-0.05 0.051-0.078 0.227-0.078 0.52 0 0.531 0.133 1.082 0.399 1.641 0.133 0.293 0.426 0.785 0.879 1.48l1.32-1.402c-0.426 0.082-0.664-0.16-0.719-0.719-0.054-0.32 0.012-0.559 0.199-0.719z" inkscape:connector-curvature="0"/>
      <path id="path60" style="fill-rule:evenodd;fill:#3d361f" d="m21.617 5.956c-0.238 0.239-0.426 0.36-0.558 0.36l1.839 2.242c0.161-0.48 0.2-0.949 0.122-1.402-0.133-0.774-0.547-1.493-1.243-2.16 0.028 0.292 0.043 0.453 0.043 0.48 0 0.16-0.07 0.32-0.203 0.48z" inkscape:connector-curvature="0"/>
      <path id="path62" style="fill-rule:evenodd;fill:#7c6e3f" d="m3.82 5.035v-1.797l-0.203 0.117v0.441c0 0.641 0.055 1.055 0.16 1.239h0.043z" inkscape:connector-curvature="0"/>
      <path id="path64" style="fill-rule:evenodd;fill:#7c6e3f" d="m6.5 2.437-0.082 2.559 1.641-0.04c0.16 0.079 0.601 0 1.32-0.238l-0.879-0.484c-0.082-0.106-0.109-0.25-0.082-0.438v-1.679l-1.918 0.32z" inkscape:connector-curvature="0"/>
      <path id="path66" style="fill-rule:evenodd;fill:#7c6e3f" d="m10.219 1.956-0.039 2.559 1.718-0.277c0.106-0.028 0.215-0.043 0.321-0.043 0.054-0.024 0.105-0.09 0.16-0.199 0.133-0.211 0.226-0.665 0.281-1.36l-0.043-0.719c-0.48-0.027-1.277-0.015-2.398 0.039z" inkscape:connector-curvature="0"/>
      <path id="path68" style="fill-rule:evenodd;fill:#928149" d="m8.418 3.796c-0.027 0.188 0 0.332 0.082 0.442l1.68 0.918 0.039-3.2-1.801 0.161v1.679z" inkscape:connector-curvature="0"/>
      <path id="path70" style="fill-rule:evenodd;fill:#928149" d="m3.82 5.035c0.051 0.589 0.106 0.894 0.16 0.921l0.04 0.04 1.757 0.402-0.039-0.961-0.441-1-0.078 0.039c-0.16-0.906-0.227-1.453-0.199-1.641l-1.2 0.403v1.797z" inkscape:connector-curvature="0"/>
      <path id="path72" style="fill-rule:evenodd;fill:#b49f5a" d="m6.219 6.515 0.16 0.043 0.121-4.121c-0.695 0.16-1.188 0.293-1.48 0.398-0.028 0.188 0.039 0.735 0.199 1.641l0.078-0.039 0.922 2.078z" inkscape:connector-curvature="0"/>
      <path id="path74" style="fill-rule:evenodd;fill:#bda75e" d="m7.137 8.195c1.043 0.242 1.668 0.761 1.883 1.562 0.183 0.692 0.066 1.278-0.36 1.758-0.722 0.801-0.949 1.469-0.68 2-2.933-0.531-4.828-1.559-5.683-3.078-0.586-1.121-0.371-2.188 0.641-3.199l4.199 0.957zm12.441-1.399c0.934 0.696 1.469 1.426 1.602 2.2 0.211 1.281-0.586 2.386-2.403 3.32 0.055-0.133 0.043-0.254-0.039-0.36-0.05-0.16-0.215-0.332-0.48-0.519-0.559-0.402-1.426-0.719-2.598-0.961-1.816-0.348-2.281-1.348-1.402-3l1.402-2.281c1.598 0.347 2.906 0.883 3.918 1.601zm1.039 5.719c1.84-1.094 2.656-2.387 2.442-3.879-0.239-1.547-1.52-2.84-3.84-3.879-2.614-1.176-5.801-1.601-9.559-1.281-3.789 0.293-6.523 1.187-8.203 2.68-1.492 1.308-1.84 2.718-1.039 4.238 0.719 1.363 2.176 2.43 4.359 3.203 2.137 0.774 4.481 1.106 7.043 1 3.813-0.16 6.746-0.855 8.797-2.082z" inkscape:connector-curvature="0"/>
      <path id="path76" style="fill-rule:evenodd;fill:#9e8c4f" d="m12.66 8.355c0.211-0.426 0.477-1 0.797-1.719 0.453-0.48 0.695-0.758 0.723-0.84 0.105-0.238-0.082-0.453-0.563-0.64-0.558-0.239-1.547-0.305-2.957-0.2-1.523 0.106-2.894 0.375-4.121 0.801s-1.707 0.785-1.441 1.078c0.187 0.215 0.668 0.387 1.441 0.52 0.375 0.055 1.172 0.441 2.399 1.16 1.199 0.695 1.933 1.043 2.199 1.043 0.64 0 1.148-0.402 1.523-1.203z" inkscape:connector-curvature="0"/>
      <path id="path78" style="fill-rule:evenodd;fill:#9e8c4f" d="m13.617 13.558c1.203-0.215 2.121-0.496 2.762-0.84 0.559-0.297 0.773-0.551 0.641-0.762-0.082-0.214-0.133-0.347-0.161-0.398-0.054-0.137-0.242-0.227-0.562-0.281-2.133-0.535-3.586-0.774-4.359-0.719-0.825 0.051-1.774 0.758-2.84 2.117-0.399 0.535 0.015 0.867 1.242 1 1.066 0.11 2.16 0.067 3.277-0.117z" inkscape:connector-curvature="0"/>
      <path id="path80" style="fill-rule:evenodd;fill:#9e8c4f" d="m3.258 6.035c0.16 0.027 0.293 0.07 0.402 0.121l-0.281 0.199c-0.348 0-0.508-0.067-0.481-0.199 0.028-0.133 0.149-0.172 0.36-0.121zm0.082 0.601c0.508-0.133 0.68-0.293 0.519-0.48-0.132-0.215-0.441-0.254-0.921-0.121-0.426 0.109-0.52 0.253-0.278 0.441 0.211 0.187 0.438 0.242 0.68 0.16z" inkscape:connector-curvature="0"/>
      <path id="path82" style="fill-rule:evenodd;fill:#9e8c4f" d="m6.379 5.238-0.121-0.082h-0.16l-0.039-0.2-0.18-0.16c0.039 0.039 0.074 0.094 0.101 0.16l-0.32 0.321 0.039-0.082c0.028-0.078 0.012-0.16-0.039-0.239-0.055-0.082-0.082-0.148-0.082-0.199-0.32 0.008-0.48 0.074-0.48 0.199 0 0.028 0.093 0.133 0.281 0.321-0.293 0.023-0.613 0.211-0.961 0.558 0.133 0.215 0.387 0.227 0.762 0.039 0.238-0.132 0.64-0.343 1.199-0.636z" inkscape:connector-curvature="0"/>
      <path id="path84" style="fill-rule:evenodd;fill:#9e8c4f" d="m6.777 4.515c-0.078 0.426 0.203 0.641 0.84 0.641l0.203-0.438c-0.027-0.16-0.082-0.254-0.16-0.281l0.039 0.078-0.48 0.203c-0.106-0.027-0.188-0.082-0.239-0.16-0.054-0.082-0.042-0.176 0.04-0.281-0.161 0.054-0.243 0.133-0.243 0.238z" inkscape:connector-curvature="0"/>
      <path id="path86" style="fill-rule:evenodd;fill:#9e8c4f" d="m9.699 4.515c0.078-0.184 0.121-0.32 0.121-0.398 0-0.082-0.027-0.149-0.082-0.2-0.133-0.027-0.238 0.012-0.32 0.118-0.027 0.054-0.027 0.148 0 0.281l-0.238 0.039c-0.11 0.109-0.16 0.203-0.16 0.281 0.027 0.106 0.117 0.149 0.277 0.121 0.109 0 0.242-0.027 0.402-0.082 0.321-0.027 0.824-0.078 1.52-0.16l-0.719-0.32-0.801 0.32z" inkscape:connector-curvature="0"/>
      <path id="path88" style="fill-rule:evenodd;fill:#9e8c4f" d="m12.098 3.996v0.039c0.027 0.054 0.16 0.214 0.402 0.484l0.598-0.203-0.078-0.281v-0.039l-0.481 0.121c-0.16 0-0.242-0.11-0.242-0.321l-0.16 0.039-0.039 0.161z" inkscape:connector-curvature="0"/>
      <path id="path90" style="fill-rule:evenodd;fill:#9e8c4f" d="m14.219 3.835h-0.281c-0.321 0-0.426 0.133-0.321 0.403 0.082 0.265 0.469 0.398 1.16 0.398l-0.839-0.121 0.761-0.32 0.078-0.078-0.437 0.039c-0.082 0-0.137-0.039-0.16-0.121-0.055-0.079-0.043-0.145 0.039-0.2z" inkscape:connector-curvature="0"/>
      <path id="path92" style="fill-rule:evenodd;fill:#9e8c4f" d="m15.66 4.238h-0.281c-0.055 0.133-0.039 0.293 0.039 0.48l0.32-0.199v-0.121l-0.199 0.039c0-0.133 0.039-0.199 0.121-0.199z" inkscape:connector-curvature="0"/>
      <path id="path94" style="fill-rule:evenodd;fill:#9e8c4f" d="m16.66 4.558c-0.137 0.023-0.242 0.145-0.32 0.359l0.437-0.121c-0.078-0.078-0.039-0.148 0.121-0.199l-0.238-0.039z" inkscape:connector-curvature="0"/>
      <path id="path96" style="fill-rule:evenodd;fill:#9e8c4f" d="m1.539 7.238 0.121-0.082h-0.082c-0.16 0.054-0.254 0.132-0.281 0.242-0.051 0.238 0.082 0.359 0.402 0.359l0.121-0.281c-0.297 0-0.386-0.078-0.281-0.238z" inkscape:connector-curvature="0"/>
      <path id="path98" style="fill-rule:evenodd;fill:#615630" d="m1.82 7.476h0.239l-0.039-0.199-0.082-0.121h-0.278l-0.121 0.082c-0.105 0.16-0.016 0.238 0.281 0.238z" inkscape:connector-curvature="0"/>
      <path id="path100" style="fill-rule:evenodd;fill:#615630" d="m3.66 6.156c-0.109-0.051-0.242-0.094-0.402-0.121-0.211-0.051-0.332-0.012-0.36 0.121-0.027 0.132 0.133 0.199 0.481 0.199l0.281-0.199z" inkscape:connector-curvature="0"/>
      <path id="path102" style="fill-rule:evenodd;fill:#615630" d="m5.598 5.316c-0.059 0.058-0.2 0.125-0.418 0.199 0 0.027 0.039 0.066 0.117 0.121l0.301-0.32z" inkscape:connector-curvature="0"/>
      <path id="path104" style="fill-rule:evenodd;fill:#615630" d="m5.738 4.757h-0.16c0 0.051 0.027 0.117 0.082 0.199 0.051 0.079 0.067 0.161 0.039 0.239l-0.039 0.082 0.32-0.321c-0.054-0.132-0.132-0.199-0.242-0.199z" inkscape:connector-curvature="0"/>
      <path id="path106" style="fill-rule:evenodd;fill:#615630" d="m7.219 4.718 0.48-0.203-0.039-0.078c-0.055-0.106-0.137-0.188-0.242-0.242-0.133-0.051-0.254-0.039-0.359 0.043l-0.039 0.039c-0.082 0.105-0.094 0.199-0.04 0.281 0.051 0.078 0.133 0.133 0.239 0.16z" inkscape:connector-curvature="0"/>
      <path id="path108" style="fill-rule:evenodd;fill:#615630" d="m10.539 4.156-0.039-0.078-0.16-0.204c-0.137-0.132-0.348-0.183-0.641-0.156-0.027 0.024-0.015 0.09 0.039 0.199 0.055 0.051 0.082 0.118 0.082 0.2 0 0.078-0.043 0.214-0.121 0.398l0.801-0.32 0.039-0.039z" inkscape:connector-curvature="0"/>
      <path id="path110" style="fill-rule:evenodd;fill:#615630" d="m10.938 3.874 0.121 0.204 0.078-0.043 0.363-0.118c-0.027-0.109-0.109-0.16-0.242-0.16-0.16 0-0.266 0.039-0.32 0.117z" inkscape:connector-curvature="0"/>
      <path id="path112" style="fill-rule:evenodd;fill:#615630" d="m13.02 3.996v-0.079c-0.161-0.214-0.403-0.281-0.723-0.199v0.078c0 0.215 0.082 0.321 0.242 0.321l0.481-0.121z" inkscape:connector-curvature="0"/>
      <path id="path114" style="fill-rule:evenodd;fill:#615630" d="m14.777 4.117 0.121-0.082c-0.265-0.266-0.48-0.332-0.64-0.2h-0.039c-0.082 0.055-0.094 0.121-0.039 0.2 0.023 0.082 0.078 0.121 0.16 0.121l0.437-0.039z" inkscape:connector-curvature="0"/>
      <path id="path116" style="fill-rule:evenodd;fill:#615630" d="m15.66 4.238c-0.082 0-0.121 0.066-0.121 0.199l0.199-0.039 0.121-0.043c-0.027-0.078-0.093-0.117-0.199-0.117z" inkscape:connector-curvature="0"/>
      <path id="path118" style="fill-rule:evenodd;fill:#615630" d="m16.898 4.597c-0.16 0.051-0.199 0.121-0.121 0.199l0.043 0.039 0.719 0.2c0.027-0.184-0.027-0.317-0.16-0.399-0.133-0.105-0.293-0.121-0.481-0.039z" inkscape:connector-curvature="0"/>
      <path id="path120" style="fill-rule:evenodd;fill:#615630" d="m18.18 5.156 0.078 0.082 0.402-0.082-0.32-0.121-0.16 0.121z" inkscape:connector-curvature="0"/>
      <path id="path122" style="fill-rule:evenodd;fill:#615630" d="m1.059 8.757 0.121-0.199h-0.242c-0.024 0.051-0.024 0.117 0 0.199h0.121z" inkscape:connector-curvature="0"/>
      <path id="path124" style="fill-rule:evenodd;fill:#efd98c" d="m11.82 14.597c3.438-0.16 6.172-0.746 8.2-1.762 1.839-0.933 2.851-2.066 3.039-3.398-0.481 0.906-1.094 1.625-1.84 2.16-0.907 0.664-2.239 1.254-4 1.758-1.574 0.43-3.535 0.641-5.879 0.641l-3.043-0.122c-0.797-0.132-1.906-0.398-3.317-0.796-0.988-0.293-1.816-0.707-2.48-1.243-0.562-0.425-1.137-1.078-1.723-1.961-0.371-0.586-0.492-1.382-0.359-2.398-0.504 0.988-0.504 1.961 0 2.918 0.719 1.363 2.176 2.43 4.359 3.203 2.137 0.774 4.481 1.106 7.043 1z" inkscape:connector-curvature="0"/>
      <path id="path126" style="fill-rule:evenodd;fill:#efd98c" d="m8.18 12.956c0.183-0.425 0.425-0.785 0.718-1.082 0.348-0.343 0.575-0.679 0.68-1 0.082-0.293 0.055-0.691-0.078-1.199-0.133-0.504-0.375-0.89-0.723-1.16-0.371-0.266-1-0.492-1.879-0.68l-3.8-0.8-0.039 0.242 4.078 0.918c1.043 0.242 1.668 0.761 1.883 1.562 0.183 0.692 0.066 1.278-0.36 1.758-0.722 0.801-0.949 1.469-0.68 2 0.024-0.16 0.09-0.344 0.2-0.559z" inkscape:connector-curvature="0"/>
      <path id="path128" style="fill-rule:evenodd;fill:#efd98c" d="m21.66 8.835c-0.297-0.933-0.562-1.531-0.801-1.8-0.214-0.239-0.855-0.625-1.921-1.157-0.879-0.429-1.692-0.668-2.438-0.722l-0.84 0.043c1.598 0.343 2.906 0.879 3.918 1.597 0.934 0.696 1.469 1.426 1.602 2.2 0.164 0.98-0.266 1.851-1.282 2.621l0.559-0.34c1.043-0.856 1.441-1.668 1.203-2.442z" inkscape:connector-curvature="0"/>
      <path id="path130" style="fill-rule:evenodd;fill:#efd98c" d="m0.82 8.035c-0.136 0.214 0.106 0.32 0.719 0.32-0.055-0.184-0.121-0.293-0.199-0.32h-0.52z" inkscape:connector-curvature="0"/>
      <path id="path132" style="fill-rule:evenodd;fill:#efd98c" d="m2.059 7.476v0.082l0.398-0.523c-0.105-0.133-0.184-0.211-0.238-0.239-0.082-0.078-0.188-0.121-0.321-0.121-0.293 0.082-0.453 0.176-0.48 0.281 0 0.079 0.055 0.149 0.16 0.2h0.442v0.121l0.039 0.199z" inkscape:connector-curvature="0"/>
      <path id="path134" style="fill-rule:evenodd;fill:#efd98c" d="m3.859 6.078 0.399-0.243c-0.211-0.425-0.465-0.625-0.758-0.601-0.508 0.082-0.695 0.254-0.562 0.523 0.32 0 0.628 0.106 0.921 0.321z" inkscape:connector-curvature="0"/>
      <path id="path136" style="fill-rule:evenodd;fill:#efd98c" d="m6.219 4.355c-0.055-0.024-0.133-0.024-0.239 0-0.109 0.027-0.175 0.066-0.203 0.121-0.023 0.055 0 0.133 0.082 0.242 0.133 0.133 0.2 0.211 0.2 0.238l0.039 0.2h0.16l0.32-0.039c-0.133-0.481-0.254-0.735-0.359-0.762z" inkscape:connector-curvature="0"/>
      <path id="path138" style="fill-rule:evenodd;fill:#efd98c" d="m8.297 4.636c-0.051-0.48-0.227-0.707-0.52-0.68-0.023 0.106 0.016 0.239 0.121 0.399 0.106 0.137 0.149 0.269 0.122 0.402l0.277-0.121z" inkscape:connector-curvature="0"/>
      <path id="path140" style="fill-rule:evenodd;fill:#efd98c" d="m11.059 4.078-0.121-0.204c-0.211-0.265-0.415-0.316-0.598-0.156-0.055 0.051-0.055 0.106 0 0.156l0.16 0.204c0.051 0.078 0.16 0.156 0.32 0.238l0.078 0.039 0.239-0.039-0.039-0.199-0.039-0.039z" inkscape:connector-curvature="0"/>
      <path id="path142" style="fill-rule:evenodd;fill:#efd98c" d="m12.098 4.117v-0.282c-0.481-0.078-0.68 0.016-0.598 0.282h0.598z" inkscape:connector-curvature="0"/>
      <path id="path144" style="fill-rule:evenodd;fill:#efd98c" d="m13.02 3.917v0.118l0.078 0.281 0.121 0.203 0.32-0.281c0-0.27-0.176-0.375-0.519-0.321z" inkscape:connector-curvature="0"/>
      <path id="path146" style="fill-rule:evenodd;fill:#efd98c" d="m14.898 4.035-0.121 0.082-0.078 0.078c-0.054 0.082-0.039 0.16 0.039 0.242l0.282 0.078c0.183-0.023 0.292-0.117 0.32-0.281 0.051-0.156-0.016-0.25-0.203-0.278-0.106 0-0.184 0.028-0.239 0.079z" inkscape:connector-curvature="0"/>
      <path id="path148" style="fill-rule:evenodd;fill:#efd98c" d="m16.418 4.558c0.027-0.242-0.066-0.363-0.281-0.363-0.211-0.024-0.305 0.054-0.278 0.242l0.559 0.121z" inkscape:connector-curvature="0"/>
      <path id="path150" style="fill-rule:evenodd;fill:#efd98c" d="m18.02 4.956c-0.055-0.238-0.161-0.32-0.321-0.238l-0.039 0.238h0.36z" inkscape:connector-curvature="0"/>
      <path id="path152" style="fill-rule:evenodd;fill:#efd98c" d="m18.34 5.035 1 0.402c-0.137-0.453-0.402-0.641-0.801-0.559-0.16 0.024-0.254 0.078-0.281 0.157h0.082z" inkscape:connector-curvature="0"/>
      <path id="path154" style="fill-rule:evenodd;fill:#73653b" d="m6.539 7.355c0.375 0.055 1.172 0.441 2.399 1.16 1.199 0.695 1.933 1.043 2.199 1.043 0.722 0 1.297-0.551 1.722-1.641l-0.601-0.32h-0.121l0.203 0.238c0.238 0.321 0.254 0.641 0.039 0.961-0.215 0.293-0.508 0.469-0.879 0.52-0.242 0.027-0.574-0.121-1-0.442-0.43-0.343-0.707-0.558-0.84-0.64-0.457-0.317-1.043-0.664-1.762-1.039-1.093-0.532-1.695-0.824-1.8-0.879-0.133-0.082-0.211-0.176-0.239-0.281-1.336 0.589-1.105 1.027 0.68 1.32z" inkscape:connector-curvature="0"/>
      <path id="path156" style="fill-rule:evenodd;fill:#73653b" d="m10.5 12.316c-0.109-0.481 0.066-0.961 0.52-1.442-0.563 0.297-1.2 0.895-1.922 1.801-0.399 0.535 0.015 0.867 1.242 1 1.066 0.11 2.16 0.067 3.277-0.117 1.203-0.215 2.121-0.496 2.762-0.84 0.559-0.297 0.773-0.551 0.641-0.762-0.055 0.079-0.172 0.145-0.36 0.2l-0.722 0.039-0.161 0.242c-0.906 0.801-2.238 1.051-4 0.758-0.718-0.106-1.144-0.399-1.277-0.879z" inkscape:connector-curvature="0"/>
      <path id="path158" style="fill-rule:evenodd;fill:#efd98c" d="m16.82 12.558c0.266 0.078 0.52 0.078 0.758 0 0.242-0.082 0.375-0.254 0.402-0.523 0.024-0.426-0.253-0.719-0.843-0.879-0.985-0.321-1.52-0.493-1.598-0.52-0.668-0.187-1.227-0.215-1.68-0.078 0.907 0.371 1.481 0.543 1.719 0.52h0.719c0.348 0.078 0.574 0.277 0.683 0.597 0.106 0.321 0.051 0.613-0.16 0.883z" inkscape:connector-curvature="0"/>
      <path id="path160" style="fill-rule:evenodd;fill:#efd98c" d="m10.699 10.597 0.199-0.32c-0.05-0.133-0.171-0.227-0.359-0.281-0.187-0.079-0.336-0.051-0.441 0.082-0.078 0.16-0.039 0.293 0.121 0.398s0.32 0.148 0.48 0.121z" inkscape:connector-curvature="0"/>
      <path id="path162" style="fill-rule:evenodd;fill:#efd98c" d="m11.297 10.195 0.281-0.117c0.082-0.348-0.027-0.426-0.32-0.243-0.32 0.188-0.305 0.309 0.039 0.36z" inkscape:connector-curvature="0"/>
      <path id="path164" style="fill-rule:evenodd;fill:#efd98c" d="m12.098 10.078 2.402 0.398c-0.055-0.133-0.27-0.238-0.641-0.32-0.429-0.078-0.679-0.145-0.761-0.2-0.16-0.238-0.321-0.386-0.481-0.441-0.211-0.105-0.387-0.094-0.519 0.043-0.133 0.16-0.133 0.332 0 0.52z" inkscape:connector-curvature="0"/>
      <path id="path166" style="fill-rule:evenodd;fill:#efd98c" d="m12.98 9.277 0.399-0.403c0.051-0.05 0.051-0.105 0-0.156-0.453-0.082-0.695-0.027-0.719 0.156 0 0.055 0.106 0.188 0.32 0.403z" inkscape:connector-curvature="0"/>
      <path id="path168" style="fill-rule:evenodd;fill:#efd98c" d="m12.98 8.277 0.317 0.199c0.348-0.586 0.469-1.105 0.363-1.559-0.16-0.027-0.32 0.145-0.48 0.52-0.133 0.348-0.2 0.625-0.2 0.84z" inkscape:connector-curvature="0"/>
      <path id="path170" style="fill-rule:evenodd;fill:#efd98c" d="m13.898 5.874 0.602 0.321c0-0.879-0.066-1.399-0.203-1.559-0.106-0.133-0.317-0.199-0.637-0.199-0.402 0.027-0.668 0.039-0.801 0.039-0.265 0-0.613 0.039-1.039 0.121-0.562 0.106-0.922 0.172-1.082 0.199-0.961 0.078-1.508 0.145-1.64 0.2-0.114 0.097-0.219 0.175-0.321 0.238 0.024-0.012 0.051-0.024 0.082-0.039 0.239-0.078 0.598-0.145 1.079-0.199l1.839-0.122c0.453 0 0.922 0.082 1.403 0.243 0.371 0.105 0.574 0.171 0.597 0.199 0.11 0.082 0.149 0.265 0.121 0.558z" inkscape:connector-curvature="0"/>
      <path id="path172" style="fill-rule:evenodd;fill:#675c34" d="m11.938 12.675c0-0.265-0.145-0.48-0.438-0.64-0.32-0.184-0.707-0.278-1.16-0.278-0.426 0-0.801 0.094-1.121 0.278-0.293 0.16-0.442 0.375-0.442 0.64 0 0.266 0.149 0.481 0.442 0.641 0.32 0.187 0.695 0.281 1.121 0.281 0.453 0 0.84-0.094 1.16-0.281 0.293-0.16 0.438-0.375 0.438-0.641z" inkscape:connector-curvature="0"/>
      <path id="path174" style="fill-rule:evenodd;fill:#675c34" d="m17.02 11.956c0-0.265-0.161-0.48-0.481-0.64-0.293-0.188-0.668-0.281-1.121-0.281s-0.824 0.093-1.121 0.281c-0.317 0.16-0.477 0.375-0.477 0.64 0 0.266 0.16 0.493 0.477 0.68 0.32 0.188 0.695 0.281 1.121 0.281 0.43 0 0.801-0.093 1.121-0.281 0.32-0.187 0.481-0.414 0.481-0.68z" inkscape:connector-curvature="0"/>
      <path id="path176" style="fill-rule:evenodd;fill:#675c34" d="m13.098 7.398c0-0.375-0.239-0.707-0.719-1-0.481-0.27-1.055-0.402-1.719-0.402-0.668 0-1.242 0.132-1.722 0.402-0.481 0.293-0.719 0.625-0.719 1 0 0.398 0.238 0.73 0.719 1 0.48 0.293 1.054 0.437 1.722 0.437 0.692 0 1.266-0.144 1.719-0.437 0.48-0.27 0.719-0.602 0.719-1z" inkscape:connector-curvature="0"/>
      <path id="path178" style="fill-rule:evenodd;fill:#4c4325" d="m10.82 8.078c-0.429 0.156-0.855 0.156-1.281 0-0.453-0.188-0.707-0.508-0.762-0.961-0.023-0.293 0.028-0.536 0.161-0.719-0.481 0.293-0.719 0.625-0.719 1 0 0.398 0.238 0.73 0.719 1 0.48 0.293 1.054 0.437 1.722 0.437 0.692 0 1.266-0.144 1.719-0.437 0.48-0.27 0.719-0.602 0.719-1 0-0.293-0.145-0.563-0.438-0.801v0.121l-0.043 0.039-0.039 0.078v0.039c-0.215 0.454-0.558 0.75-1.039 0.883l-0.719 0.321z" inkscape:connector-curvature="0"/>
      <path id="path180" style="fill-rule:evenodd;fill:#4c4325" d="m9.457 11.917c-0.453 0.161-0.68 0.414-0.68 0.758 0 0.266 0.149 0.481 0.442 0.641 0.32 0.187 0.695 0.281 1.121 0.281 0.453 0 0.84-0.094 1.16-0.281 0.293-0.16 0.438-0.375 0.438-0.641l-0.04-0.238-0.039 0.238c-0.054 0.188-0.254 0.309-0.601 0.36-0.453 0.109-0.906 0.027-1.36-0.239-0.32-0.238-0.492-0.398-0.519-0.48l0.078-0.399z" inkscape:connector-curvature="0"/>
      <path id="path182" style="fill-rule:evenodd;fill:#4c4325" d="m16.98 11.956c-0.082 0.215-0.375 0.399-0.882 0.559-0.692 0.16-1.25 0.121-1.68-0.117-0.188-0.11-0.348-0.281-0.48-0.524l-0.079-0.117-0.039 0.199c0 0.266 0.16 0.493 0.477 0.68 0.32 0.188 0.695 0.281 1.121 0.281 0.43 0 0.801-0.093 1.121-0.281 0.32-0.187 0.481-0.414 0.481-0.68h-0.04z" inkscape:connector-curvature="0"/>
      <path id="path184" style="fill-rule:evenodd;fill:#594ed4" d="m11.059 9.156c0.64-0.078 1.093-0.481 1.359-1.2l0.16-1.082c-0.133-0.316-0.758-0.519-1.879-0.597-0.695-0.028-1.226 0.066-1.601 0.281l-0.321 0.316 0.161 1.122c0.082 0.375 0.335 0.679 0.761 0.921 0.453 0.239 0.906 0.321 1.36 0.239z" inkscape:connector-curvature="0"/>
      <path id="path186" style="fill-rule:evenodd;fill:#9fd7a1" d="m10.66 13.636c0.453-0.055 0.758-0.293 0.918-0.719l0.121-0.601c-0.082-0.188-0.508-0.305-1.281-0.36-0.453-0.027-0.813 0.028-1.078 0.161l-0.242 0.199 0.121 0.601c0.054 0.239 0.226 0.426 0.519 0.559s0.602 0.187 0.922 0.16z" inkscape:connector-curvature="0"/>
      <path id="path188" style="fill-rule:evenodd;fill:#b94839" d="m15.66 13.156c0.692-0.055 1.024-0.481 1-1.282 0.051-0.316-0.308-0.492-1.082-0.519-0.453-0.024-0.84 0.055-1.16 0.242l-0.32 0.277 0.121 0.602c0.027 0.242 0.199 0.426 0.519 0.559 0.293 0.136 0.602 0.175 0.922 0.121z" inkscape:connector-curvature="0"/>
      <path id="path190" style="fill-rule:evenodd;fill:#739b75" d="m10.418 11.956c-0.453-0.027-0.813 0.028-1.078 0.161l-0.242 0.199 0.082 0.359c0.211-0.133 0.652-0.199 1.32-0.199 0.293 0.027 0.652 0.176 1.078 0.441l0.121-0.601c-0.082-0.188-0.508-0.305-1.281-0.36z" inkscape:connector-curvature="0"/>
      <path id="path192" style="fill-rule:evenodd;fill:#ecfeee" d="m9.898 13.156c-0.105-0.055-0.304-0.078-0.601-0.078 0.242 0.425 0.695 0.613 1.363 0.558l0.278-0.078-0.239-0.082h-0.402c-0.16-0.16-0.293-0.266-0.399-0.32z" inkscape:connector-curvature="0"/>
      <path id="path194" style="fill-rule:evenodd;fill:#8c362b" d="m16.66 11.874c0.051-0.316-0.308-0.492-1.082-0.519-0.453-0.024-0.84 0.055-1.16 0.242l-0.32 0.277 0.082 0.442c0.211-0.16 0.414-0.238 0.597-0.238 0.563 0 0.883 0.011 0.961 0.039 0.11 0.027 0.36 0.171 0.762 0.441 0.105-0.215 0.16-0.441 0.16-0.684z" inkscape:connector-curvature="0"/>
      <path id="path196" style="fill-rule:evenodd;fill:#e9aba7" d="m15.297 12.796c-0.317-0.105-0.598-0.093-0.84 0.039 0.348 0.293 0.746 0.403 1.203 0.321h0.039c-0.105-0.215-0.242-0.332-0.402-0.36z" inkscape:connector-curvature="0"/>
      <path id="path198" style="fill-rule:evenodd;fill:#41399b" d="m12.578 6.874c-0.133-0.316-0.758-0.519-1.879-0.597-0.695-0.028-1.226 0.066-1.601 0.281l-0.321 0.316 0.043 0.52c0.106-0.051 0.332-0.117 0.68-0.199 0.879-0.211 1.613-0.172 2.199 0.121l0.719 0.601 0.16-1.043z" inkscape:connector-curvature="0"/>
      <path id="path200" style="fill-rule:evenodd;fill:#9f95fa" d="m9.5 8.195c-0.16 0.109-0.242 0.226-0.242 0.363 0.48 0.531 1.082 0.73 1.801 0.598 0.398-0.051 0.707-0.2 0.921-0.438v-0.121c-0.16-0.613-0.589-0.84-1.281-0.68 0.028 0.211-0.133 0.305-0.48 0.278-0.426-0.024-0.668-0.024-0.719 0z" inkscape:connector-curvature="0"/>
    </g>
  </g>
<metadata><rdf:RDF><cc:Work><dc:format>image/svg+xml</dc:format><dc:type rdf:resource="http://purl.org/dc/dcmitype/StillImage"/><cc:license rdf:resource="http://creativecommons.org/licenses/publicdomain/"/><dc:publisher><cc:Agent rdf:about="http://openclipart.org/"><dc:title>Openclipart</dc:title></cc:Agent></dc:publisher></cc:Work><cc:License rdf:about="http://creativecommons.org/licenses/publicdomain/"><cc:permits rdf:resource="http://creativecommons.org/ns#Reproduction"/><cc:permits rdf:resource="http://creativecommons.org/ns#Distribution"/><cc:permits rdf:resource="http://creativecommons.org/ns#DerivativeWorks"/></cc:License></rdf:RDF></metadata></svg>
