<?xml version="1.0" encoding="UTF-8" standalone="no"?>
<!-- Created with Inkscape (http://www.inkscape.org/) -->

<svg
   width="26.197128mm"
   height="29.941095mm"
   viewBox="0 0 26.197127 29.941095"
   version="1.1"
   id="svg2269"
   inkscape:version="1.1.2 (0a00cf5339, 2022-02-04)"
   sodipodi:docname="item379.svg"
   xmlns:inkscape="http://www.inkscape.org/namespaces/inkscape"
   xmlns:sodipodi="http://sodipodi.sourceforge.net/DTD/sodipodi-0.dtd"
   xmlns="http://www.w3.org/2000/svg"
   xmlns:svg="http://www.w3.org/2000/svg">
  <sodipodi:namedview
     id="namedview2271"
     pagecolor="#ffffff"
     bordercolor="#666666"
     borderopacity="1.0"
     inkscape:pageshadow="2"
     inkscape:pageopacity="0.0"
     inkscape:pagecheckerboard="0"
     inkscape:document-units="mm"
     showgrid="false"
     fit-margin-top="0"
     fit-margin-left="0"
     fit-margin-right="0"
     fit-margin-bottom="0"
     inkscape:zoom="0.48996914"
     inkscape:cx="50.00315"
     inkscape:cy="57.146457"
     inkscape:window-width="1366"
     inkscape:window-height="719"
     inkscape:window-x="0"
     inkscape:window-y="25"
     inkscape:window-maximized="1"
     inkscape:current-layer="layer1" />
  <defs
     id="defs2266" />
  <g
     inkscape:label="Capa 1"
     inkscape:groupmode="layer"
     id="layer1"
     transform="translate(-87.773922,-133.8609)">
    <g
       id="g7280"
       transform="matrix(0.04642234,0,0,0.04642234,83.939076,33.712912)">
      <path
         style="opacity:1;fill:#ff0066;fill-opacity:1;stroke:none;stroke-width:4;stroke-miterlimit:4;stroke-dasharray:none;stroke-opacity:1"
         d="m 240.57812,2160.1728 -154.861323,194.1914 89.269533,353.375 189.7832,91.3926 189.78125,-91.3926 89.26953,-353.375 -154.86133,-194.1914 z m 39.26758,101.0156 h 169.84571 l 105.89648,132.791 -61.04297,241.6407 -129.77539,62.498 -129.77734,-62.498 -61.04297,-241.6407 z"
         id="path4781"
         inkscape:connector-curvature="0" />
      <path
         id="path4785"
         d="m 494.54492,2635.6201 60.00586,72.1191 89.26953,-353.375 -88.23242,39.6152 z"
         style="opacity:1;fill:#ff5599;fill-opacity:1;stroke:none;stroke-width:4;stroke-miterlimit:4;stroke-dasharray:none;stroke-opacity:1"
         inkscape:connector-curvature="0" />
      <path
         id="path4779"
         d="m 240.57812,2160.1728 39.26758,101.0156 h 169.84571 l 39.26757,-101.0156 z"
         style="opacity:1;fill:#ff0066;fill-opacity:1;stroke:none;stroke-width:4;stroke-miterlimit:4;stroke-dasharray:none;stroke-opacity:1"
         inkscape:connector-curvature="0" />
      <path
         id="path4783"
         d="m 555.58789,2393.9794 88.23242,-39.6152 -154.86133,-194.1914 -39.26757,101.0156 z"
         style="opacity:1;fill:#ff2a7f;fill-opacity:1;stroke:none;stroke-width:4;stroke-miterlimit:4;stroke-dasharray:none;stroke-opacity:1"
         inkscape:connector-curvature="0" />
      <path
         id="path4787"
         d="m 364.76953,2698.1181 v 101.0137 l 189.78125,-91.3926 -60.00586,-72.1191 z"
         style="opacity:1;fill:#d40055;fill-opacity:1;stroke:none;stroke-width:4;stroke-miterlimit:4;stroke-dasharray:none;stroke-opacity:1"
         inkscape:connector-curvature="0" />
      <path
         id="path4789"
         d="m 234.99219,2635.6201 -60.00586,72.1191 189.7832,91.3926 v -101.0137 z"
         style="opacity:1;fill:#aa0044;fill-opacity:1;stroke:none;stroke-width:4;stroke-miterlimit:4;stroke-dasharray:none;stroke-opacity:1"
         inkscape:connector-curvature="0" />
      <path
         id="path4791"
         d="m 173.94922,2393.9794 -88.232423,-39.6152 89.269533,353.375 60.00586,-72.1191 z"
         style="opacity:1;fill:#ff0066;fill-opacity:1;stroke:none;stroke-width:4;stroke-miterlimit:4;stroke-dasharray:none;stroke-opacity:1"
         inkscape:connector-curvature="0" />
      <path
         id="path4793"
         d="m 240.57812,2160.1728 -154.861323,194.1914 88.232423,39.6152 105.89648,-132.791 z"
         style="opacity:1;fill:#ff2a7f;fill-opacity:1;stroke:none;stroke-width:4;stroke-miterlimit:4;stroke-dasharray:none;stroke-opacity:1"
         inkscape:connector-curvature="0" />
      <path
         style="opacity:1;fill:#ffaacc;fill-opacity:1;stroke:none;stroke-width:4;stroke-miterlimit:4;stroke-dasharray:none;stroke-opacity:1"
         d="m 364.76857,2698.1182 -129.77556,-62.4967 -61.04376,-241.6421 105.89672,-132.7903 h 169.84518 l 105.89674,132.7903 -61.04376,241.6421 z"
         id="path4795"
         inkscape:connector-curvature="0"
         sodipodi:nodetypes="cccccccc" />
      <path
         id="path4797"
         d="m 463.27148,2278.2177 a 295,280.71429 0 0 1 5.30079,51.9805 295,280.71429 0 0 1 -241.0586,275.8183 l 7.47852,29.6055 129.77734,62.4961 129.77539,-62.4961 61.04297,-241.6426 z"
         style="opacity:1;fill:#ffd5e5;fill-opacity:1;stroke:none;stroke-width:4;stroke-miterlimit:4;stroke-dasharray:none;stroke-opacity:1"
         inkscape:connector-curvature="0" />
      <ellipse
         ry="26.428572"
         rx="35.714287"
         cy="2557.3413"
         cx="330.00003"
         id="ellipse4801"
         style="opacity:1;fill:#ffd5e5;fill-opacity:1;stroke:none;stroke-width:4;stroke-miterlimit:4;stroke-dasharray:none;stroke-opacity:1" />
      <ellipse
         style="opacity:1;fill:#ffd5e5;fill-opacity:1;stroke:none;stroke-width:4;stroke-miterlimit:4;stroke-dasharray:none;stroke-opacity:1"
         id="ellipse4803"
         cx="439.28577"
         cy="2427.3413"
         rx="22.142859"
         ry="25" />
      <ellipse
         ry="39.285713"
         rx="39.285717"
         cy="2368.77"
         cx="292.14291"
         id="ellipse4805"
         style="opacity:1;fill:#ffd5e5;fill-opacity:1;stroke:none;stroke-width:4;stroke-miterlimit:4;stroke-dasharray:none;stroke-opacity:1" />
      <path
         inkscape:connector-curvature="0"
         id="path4807"
         d="m 250.019,2184.4579 -143.08949,179.43 82.48367,326.5121 175.35638,84.4466 175.35437,-84.4466 82.48367,-326.5121 -143.08949,-179.43 z m 15.51989,40.6647 h 198.45933 l 123.73864,155.1625 -71.32843,282.3521 -151.63887,73.0246 -151.64089,-73.0246 -71.32842,-282.3521 z"
         style="opacity:0.5;fill:#ffd5e5;fill-opacity:1;stroke:none;stroke-width:4;stroke-miterlimit:4;stroke-dasharray:none;stroke-opacity:1" />
      <path
         id="path4799"
         d="m 240.57812,2160.1728 -154.861323,194.1914 89.269533,353.375 189.7832,91.3926 189.78125,-91.3926 89.26953,-353.375 -154.86133,-194.1914 z m 39.26758,101.0156 h 169.84571 l 105.89648,132.791 -61.04297,241.6407 -129.77539,62.498 -129.77734,-62.498 -61.04297,-241.6407 z"
         style="opacity:1;fill:none;fill-opacity:1;stroke:#2b0011;stroke-width:5.69948;stroke-miterlimit:4;stroke-dasharray:none;stroke-opacity:1"
         inkscape:connector-curvature="0" />
    </g>
  </g>
</svg>
