<?xml version="1.0" encoding="UTF-8" standalone="no"?>
<svg
   width="300"
   height="300"
   id="svg3005"
   version="1.1"
   inkscape:version="1.1.1 (3bf5ae0, 2021-09-20)"
   sodipodi:docname="flower_44C.svg"
   viewBox="0 0 281.25 281.25"
   xmlns:inkscape="http://www.inkscape.org/namespaces/inkscape"
   xmlns:sodipodi="http://sodipodi.sourceforge.net/DTD/sodipodi-0.dtd"
   xmlns:xlink="http://www.w3.org/1999/xlink"
   xmlns="http://www.w3.org/2000/svg"
   xmlns:svg="http://www.w3.org/2000/svg"
   xmlns:rdf="http://www.w3.org/1999/02/22-rdf-syntax-ns#"
   xmlns:cc="http://creativecommons.org/ns#"
   xmlns:dc="http://purl.org/dc/elements/1.1/">
  <title
     id="title833">Flower</title>
  <defs
     id="defs3007" />
  <sodipodi:namedview
     id="base"
     pagecolor="#ffffff"
     bordercolor="#666666"
     borderopacity="1.0"
     inkscape:pageopacity="0.0"
     inkscape:pageshadow="2"
     inkscape:zoom="2.04"
     inkscape:cx="175.2451"
     inkscape:cy="165.44118"
     inkscape:document-units="px"
     inkscape:current-layer="g73767"
     showgrid="false"
     inkscape:window-width="1366"
     inkscape:window-height="720"
     inkscape:window-x="0"
     inkscape:window-y="28"
     inkscape:window-maximized="1"
     inkscape:snap-global="false"
     inkscape:document-rotation="0"
     inkscape:pagecheckerboard="0" />
  <metadata
     id="metadata3010">
    <rdf:RDF>
      <cc:Work
         rdf:about="">
        <dc:format>image/svg+xml</dc:format>
        <dc:type
           rdf:resource="http://purl.org/dc/dcmitype/StillImage" />
        <dc:title>Flower</dc:title>
        <dc:creator>
          <cc:Agent>
            <dc:title>jpenrici</dc:title>
          </cc:Agent>
        </dc:creator>
        <dc:publisher>
          <cc:Agent>
            <dc:title>Open Clip Art Library</dc:title>
          </cc:Agent>
        </dc:publisher>
        <cc:license
           rdf:resource="http://creativecommons.org/publicdomain/zero/1.0/" />
        <dc:subject>
          <rdf:Bag>
            <rdf:li>plant</rdf:li>
            <rdf:li>flora</rdf:li>
            <rdf:li>nature</rdf:li>
            <rdf:li>clip art</rdf:li>
            <rdf:li>clipart</rdf:li>
            <rdf:li>svg</rdf:li>
          </rdf:Bag>
        </dc:subject>
        <dc:date>Junho 2022</dc:date>
      </cc:Work>
      <cc:License
         rdf:about="http://creativecommons.org/publicdomain/zero/1.0/">
        <cc:permits
           rdf:resource="http://creativecommons.org/ns#Reproduction" />
        <cc:permits
           rdf:resource="http://creativecommons.org/ns#Distribution" />
        <cc:permits
           rdf:resource="http://creativecommons.org/ns#DerivativeWorks" />
      </cc:License>
    </rdf:RDF>
  </metadata>
  <g
     inkscape:label="Camada 1"
     inkscape:groupmode="layer"
     id="layer1"
     transform="translate(0,-771.11218)">
    <g
       id="g26167"
       transform="matrix(0.31992125,0,0,0.31992125,-202.25598,399.5151)"
       style="stroke:none">
      <path
         style="opacity:1;vector-effect:none;fill:#ff5555;fill-opacity:1;stroke:none;stroke-width:0.9375px;stroke-linecap:butt;stroke-linejoin:miter;stroke-miterlimit:4;stroke-dasharray:none;stroke-dashoffset:0;stroke-opacity:1"
         d="m 503.9598,1223.5293 c 24.81897,-5.1346 31.39883,-34.2145 61.59901,-25.1588 -25.41075,12.7197 -15.91706,36.8221 -28.47424,46.0962 z"
         id="path8102"
         sodipodi:nodetypes="cccc" />
      <path
         style="opacity:1;vector-effect:none;fill:#aa0000;fill-opacity:1;stroke:none;stroke-width:0.9375px;stroke-linecap:butt;stroke-linejoin:miter;stroke-miterlimit:4;stroke-dasharray:none;stroke-dashoffset:0;stroke-opacity:1"
         d="m 536.64185,1244.227 c 0,0 17.49439,-10.9134 22.72536,-19.3854 4.73038,-7.6612 6.46665,-26.2263 6.46665,-26.2263 -18.24216,-0.9633 -25.70655,18.5171 -29.19201,45.6117 z"
         id="path8612"
         sodipodi:nodetypes="cacc" />
      <path
         id="rect1366"
         style="opacity:1;vector-effect:none;fill:#ff2a2a;fill-opacity:1;fill-rule:evenodd;stroke:none;stroke-width:1.09876;stop-color:#000000;stop-opacity:1"
         inkscape:transform-center-x="57.294676"
         inkscape:transform-center-y="9.9816913"
         d="m 549.37541,1164.0826 c -21.27763,16.4521 -33.66938,38.9298 -36.7218,62.4811 -24.72486,-5.6655 -59.43184,-20.094 -72.66357,-50.1782 -3.93492,-8.9466 -26.46886,0.3384 -11.45325,22.9321 13.74494,20.6819 32.18889,35.6448 52.76916,44.4525 -19.48828,3.6374 -47.86897,12.9926 -63.85253,-2.9516 -10.81889,-10.7922 -20.76894,16.4126 4.91089,25.1587 18.9271,6.4462 38.00881,8.0959 56.04309,5.5865 -10.18346,12.0552 -29.49895,29.7856 -29.3709,42.1531 0.28926,8.5394 6.90547,41.254 20.8261,11.874 17.73183,-30.3812 30.50818,-30.305 38.86807,-42.2336 4.5636,18.7429 17.67558,44.0676 31.91977,59.8337 18.18633,20.1297 30.38848,1.2372 25.05066,-5.4345 -17.09541,-21.3676 -27.41066,-46.9751 -30.03296,-69.5875 18.7731,14.9601 41.99668,21.2022 66.31348,15.5677 20.9219,-4.8478 18.58502,-35.8401 6.73462,-24.2084 -29.16305,4.4702 -58.37823,-6.0811 -74.26758,-23.8605 -0.57186,-0.6399 -1.20071,-0.9315 -1.85486,-0.9631 2.39563,-20.4438 15.55969,-44.9802 36.19995,-63.0066 12.30782,-2.6315 -3.27284,-12.561 -19.41834,-7.6154 z"
         sodipodi:nodetypes="ccsccsscccccccccsccc" />
      <path
         id="path2601"
         style="opacity:1;vector-effect:none;fill:#aa0000;fill-opacity:1;stroke:none;stroke-width:0.9375px;stroke-linecap:butt;stroke-linejoin:miter;stroke-miterlimit:4;stroke-dasharray:none;stroke-dashoffset:0;stroke-opacity:1"
         inkscape:transform-center-x="45.736295"
         inkscape:transform-center-y="11.137328"
         d="m 515.17314,1238.136 c -42.40045,-10.029 -57.0876,-27.2838 -74.68506,-47.655 -13.63488,10.2693 30.98279,51.1009 59.99634,56.6455 -31.01145,12.3844 -51.07813,8.9077 -74.41956,5.0262 -3.32973,14.1105 39.75503,18.3118 68.65541,10.5066 -27.96165,22.8616 -27.12984,46.098 -35.73854,62.8986 10.14315,-12.0594 26.95661,-44.0806 53.46131,-57.1015 -0.25891,33.1297 32.22563,90.2026 46.37146,78.0139 -17.36616,-23.7821 -32.17081,-43.741 -33.12011,-90.8203 20.91032,20.5026 82.33324,32.3652 82.36999,15.0128 -27.16455,-1.8792 -56.04961,-1.7829 -81.58232,-29.0886 7.95137,-40.1984 20.2628,-59.9537 39.42708,-74.1982 -22.39076,-7.473 -52.25886,55.0831 -50.736,70.76 z"
         sodipodi:nodetypes="ccccccccccccc" />
      <path
         id="path7134"
         style="opacity:1;vector-effect:none;fill:#380013;fill-opacity:1;fill-rule:evenodd;stroke:none;stroke-width:0.91376;stop-color:#000000;stop-opacity:1"
         d="m 525.64618,1248.1319 c 1.48763,4.2174 -1.96376,3.4783 -5.26948,3.4783 -3.30572,0 -11.99026,1.6585 -11.6023,-2.7967 0.28442,-3.2662 8.77081,-7.6065 11.16916,-11.4533 1.7489,-2.8052 4.12517,6.2997 5.70262,10.7717 z"
         sodipodi:nodetypes="sssss" />
    </g>
    <g
       id="g73767"
       inkscape:transform-center-x="4.2257918"
       inkscape:transform-center-y="-136.75486"
       transform="rotate(2.3468847,122.40913,1168.2178)">
      <g
         id="g35799"
         inkscape:transform-center-x="-13.030956"
         inkscape:transform-center-y="-107.09842"
         transform="matrix(-0.60341556,0.02377685,-0.00579011,0.88097156,859.01966,157.22457)"
         style="stroke:none">
        <path
           style="opacity:1;vector-effect:none;fill:#49770a;fill-opacity:1;stroke:none;stroke-width:0.9375px;stroke-linecap:butt;stroke-linejoin:miter;stroke-miterlimit:4;stroke-dasharray:none;stroke-dashoffset:0;stroke-opacity:1"
           d="m 1182.6863,983.33796 c 11.853,-3.20549 -59.2557,-252.46719 -61.2846,-252.76417 5.0625,29.05536 9.577,67.10398 14.9378,106.46613 6.5107,47.80441 14.2698,97.54621 25.7753,135.4687 5.4133,13.20787 13.3459,9.66891 20.5715,10.82934 z"
           id="path35793"
           sodipodi:nodetypes="ccscc" />
        <path
           style="opacity:1;vector-effect:none;fill:#728903;fill-opacity:1;stroke:none;stroke-width:0.9375px;stroke-linecap:butt;stroke-linejoin:miter;stroke-miterlimit:4;stroke-dasharray:none;stroke-dashoffset:0;stroke-opacity:1"
           d="m 1181.657,980.39184 c -9.6574,-55.06617 -20.6425,-111.54369 -45.1382,-157.52287 22.4283,41.60091 9.3282,141.02613 45.1382,157.52287 z"
           id="path35795"
           sodipodi:nodetypes="ccc" />
      </g>
      <g
         id="g35791"
         inkscape:transform-center-x="-32.511339"
         inkscape:transform-center-y="-102.12156"
         transform="matrix(-0.85173594,-0.14596426,-0.14232404,0.86234706,1283.7969,366.55583)"
         style="stroke:none">
        <path
           style="opacity:1;vector-effect:none;fill:#49770a;fill-opacity:1;stroke:none;stroke-width:0.9375px;stroke-linecap:butt;stroke-linejoin:miter;stroke-miterlimit:4;stroke-dasharray:none;stroke-dashoffset:0;stroke-opacity:1"
           d="m 1180.9748,994.20395 c 11.853,-3.20549 -53.5279,-207.26445 -55.5568,-207.56143 0.2662,47.20269 32.7585,189.23943 32.7585,189.23943 0,0 5.206,17.68807 22.7983,18.322 z"
           id="path35785"
           sodipodi:nodetypes="cccc" />
        <path
           style="opacity:1;vector-effect:none;fill:#728903;fill-opacity:1;stroke:none;stroke-width:0.9375px;stroke-linecap:butt;stroke-linejoin:miter;stroke-miterlimit:4;stroke-dasharray:none;stroke-dashoffset:0;stroke-opacity:1"
           d="m 1181.657,980.39184 c -5.6181,-47.58456 -23.1349,-98.79436 -42.2086,-112.27828 16.1058,43.39565 11.1299,101.10146 42.2086,112.27828 z"
           id="path35787"
           sodipodi:nodetypes="ccc" />
        <path
           style="opacity:1;vector-effect:none;fill:#5c8c12;fill-opacity:1;stroke:none;stroke-width:0.711457px;stroke-linecap:butt;stroke-linejoin:miter;stroke-miterlimit:4;stroke-dasharray:none;stroke-dashoffset:0;stroke-opacity:1"
           d="m 1132.3435,828.65791 c -15.7112,-44.76183 -14.7282,-78.14131 -4.2427,-105.04185 4.2034,21.70894 15.5872,9.16451 4.2427,105.04185 z"
           id="path35789"
           sodipodi:nodetypes="ccc" />
      </g>
      <path
         style="vector-effect:none;fill:#49770a;fill-opacity:1;stroke:none;stroke-width:0.503527px;stroke-linecap:butt;stroke-linejoin:miter;stroke-miterlimit:4;stroke-dasharray:none;stroke-dashoffset:0;stroke-opacity:1"
         d="m 182.68653,943.01863 c -12.49641,16.13914 -38.28066,74.05407 -42.26841,101.63927 26.50898,23.8269 33.65942,-83.9941 42.26841,-101.63927 z"
         id="path36494"
         sodipodi:nodetypes="ccc"
         inkscape:transform-center-x="-5.3810714"
         inkscape:transform-center-y="-34.694172" />
      <g
         id="g35807"
         inkscape:transform-center-x="14.116301"
         inkscape:transform-center-y="-138.01518"
         transform="matrix(-0.68901071,0.37917571,0.27671703,1.0802189,675.95073,-480.13635)"
         style="stroke:none">
        <path
           style="opacity:1;vector-effect:none;fill:#49770a;fill-opacity:1;stroke:none;stroke-width:0.9375px;stroke-linecap:butt;stroke-linejoin:miter;stroke-miterlimit:4;stroke-dasharray:none;stroke-dashoffset:0;stroke-opacity:1"
           d="m 1181.325,995.0096 c 11.853,-3.20549 -52.8717,-209.26497 -54.9006,-209.56195 15.6055,63.07529 26.8247,201.05006 54.9006,209.56195 z"
           id="path35801"
           sodipodi:nodetypes="ccc" />
      </g>
      <path
         style="vector-effect:none;fill:#496500;fill-opacity:1;stroke:none;stroke-width:0.635664px;stroke-linecap:butt;stroke-linejoin:miter;stroke-miterlimit:4;stroke-dasharray:none;stroke-dashoffset:0;stroke-opacity:1"
         d="M 41.715312,885.44701 C 39.972949,883.04918 95.660532,991.00543 127.83113,1048.6495 143.21568,1042.383 57.915331,896.99654 41.715312,885.44701 Z"
         id="path36886"
         sodipodi:nodetypes="ccc"
         inkscape:transform-center-x="29.218421"
         inkscape:transform-center-y="-45.761671" />
      <g
         id="g1119"
         style="fill:#ff8080">
        <g
           id="g50901"
           style="opacity:1;fill:#ff8080;fill-opacity:1;stroke:none"
           transform="translate(-5.0995009,-4.1607666)">
          <path
             id="path46769"
             style="opacity:1;vector-effect:none;fill:#ff8080;fill-opacity:1;stroke:none;stroke-width:0.723674px;stroke-linecap:butt;stroke-linejoin:miter;stroke-miterlimit:4;stroke-dasharray:none;stroke-dashoffset:0;stroke-opacity:1"
             d="m 134.11119,781.0972 -12.16216,12.17068 c -5.92964,-0.65854 -19.3529,-6.85766 -20.67232,-4.10751 2.21638,3.65642 4.43275,7.31283 6.64914,10.96924 -5.44681,9.10769 -17.759586,4.91067 -22.47408,4.55898 2.321639,3.83006 4.643285,7.66012 6.964924,11.49019 -3.588341,1.58491 -6.483099,7.14774 -10.620511,5.58352 -6.013046,3.35107 13.329848,11.08513 1.057886,15.7958 -3.99475,3.04774 -12.17431,7.51143 -2.241144,5.84657 8.544058,-3.50883 17.145395,5.11297 7.085366,9.14093 -4.922934,3.79495 -9.888187,4.02916 -3.427856,10.17136 5.879976,4.9938 1.405692,8.00811 -3.418979,10.95545 -2.494211,2.13039 -10.118885,5.99711 -1.424325,4.34086 7.412436,-3.43171 23.323629,2.74675 12.86858,9.29057 -2.529215,2.46457 -13.209352,7.68723 -3.470679,6.00061 4.655655,0.18504 18.364178,-2.47577 14.764938,4.22939 -13.114083,-6.29676 -0.21629,6.52427 0.0436,10.85853 -4.679769,3.44626 -7.537144,4.89286 -11.566507,8.37536 5.024564,-1.71091 16.761357,8.16076 6.02668,11.77798 -6.033767,3.79273 -9.947175,6.86791 -0.888038,5.55296 4.151095,-0.0916 8.302175,-0.1834 12.453275,-0.2751 3.66365,5.14722 -14.985873,10.40369 -1.58272,8.93333 6.79399,0.41622 16.39543,-3.19364 15.77279,8.02488 4.64583,2.34089 9.73141,-11.99852 17.15589,-5.12534 13.00087,6.6148 0.17254,-11.10418 10.88348,-14.00305 9.8123,-6.26499 -15.42821,0.95097 -3.97223,-7.80444 4.75307,-2.96024 10.3907,1.38163 15.49787,1.94639 -1.80436,-7.07046 0.0588,-14.34152 7.62045,-18.77785 -7.11689,-0.25615 -19.44004,4.26017 -14.81874,-6.66642 1.63401,-10.10854 20.73526,7.36825 15.14209,-6.94495 -2.20227,-5.10716 3.92567,-7.38411 6.6114,-10.83056 2.55443,-4.89897 -20.07924,5.04706 -13.6311,-6.23679 6.54066,-0.96123 -1.73402,-12.62778 6.43905,-15.77435 7.88326,-3.47313 -3.93507,-9.72026 3.20173,-15.66497 4.00211,-3.55224 8.80174,-7.44614 0.23766,-5.6148 -7.29846,1.67133 -11.63424,0.65769 -8.94677,-6.72079 -0.0788,-3.97003 2.95363,-9.84633 -2.10176,-6.37137 -7.51197,-7.71497 16.1303,-17.52431 1.00017,-15.13585 -12.51945,1.63412 13.2019,-12.58814 -1.56987,-9.10075 -5.34711,1.23056 -7.42758,-0.17071 -6.2546,-5.01611 -5.46691,6.84526 -1.56586,-5.60918 -1.78994,-8.60234 -2.95349,2.31717 -10.7901,10.3979 -18.77888,7.6435 -7.20385,2.30159 -0.56872,-11.31109 -1.66377,-14.88374 z m -21.63551,45.83292 c 5.75893,1.50736 13.67945,3.08239 3.05901,2.89591 -2.24006,0.98215 -4.59899,-0.4197 -3.05901,-2.89591 z m 18.00395,12.68921 c 5.48243,9.29404 -19.77131,2.67829 -7.54233,0.16671 2.51412,-0.0556 5.02822,-0.11114 7.54233,-0.16671 z m 1.68429,5.27279 c 4.94875,7.84235 -10.75836,5.8567 0,0 z m 27.22292,9.41542 c 2.22201,0.85025 11.09295,2.40053 8.96354,2.79262 -2.5003,-0.57237 -12.19601,2.36215 -7.50625,-1.68427 z m -59.564789,3.10558 c 3.562029,7.35798 -6.768297,1.05757 -10.34886,1.03714 -8.872691,-1.56778 9.25476,-0.55539 10.34886,-1.03714 z m 13.053159,1.43462 c 10.81241,-1.08324 2.95119,8.2001 -0.54186,4.52618 0.18062,-1.50873 0.36124,-3.01745 0.54186,-4.52618 z m 28.06505,11.82315 c 7.53157,10.45648 -13.10063,3.39159 0,0 z m -12.69962,0.2808 c 1.64142,5.22411 1.37471,8.38621 6.30672,6.77138 -0.42494,3.22327 -7.65587,1.09625 -10.98127,2.03942 -5.01126,1.31744 -1.3471,-13.12017 4.67455,-8.8108 z m 25.645,1.12602 c 13.77016,0.63489 -10.3058,12.29306 -3.51333,3.05232 0.24687,-2.52011 5.0087,-0.0753 3.51333,-3.05232 z m -18.02838,8.1921 c 6.56465,5.14457 0.0115,8.3575 -4.17308,11.29616 -4.14935,2.18745 -3.11496,-8.1837 2.60256,-9.78267 z M 116.18053,894.37 c 12.84731,-0.3538 0.0654,11.05186 -4.81094,4.306 1.60365,-1.43534 3.2073,-2.87067 4.81094,-4.306 z m 29.44754,0.72426 c 6.45165,13.6294 -8.45075,7.84448 -16.71343,5.58976 -0.9067,-9.47364 10.78573,-3.83379 16.71343,-5.58976 z"
             sodipodi:nodetypes="ccccccccccccccccccccccccccccccccccccccccccccccccccccccccccccccccccccccccccccccccc" />
          <path
             id="path50141"
             style="opacity:1;vector-effect:none;fill:#ff8080;fill-opacity:1;stroke:none;stroke-width:0.516221px;stroke-linecap:butt;stroke-linejoin:miter;stroke-miterlimit:4;stroke-dasharray:none;stroke-dashoffset:0;stroke-opacity:1"
             d="m 223.48346,859.05037 -11.18211,5.01563 c -3.77361,-1.95586 -11.11758,-9.52688 -12.69467,-8.02817 0.54237,3.00785 1.08473,6.01568 1.6271,9.02353 -5.93886,4.68779 -13.05438,-1.26261 -16.09845,-2.70289 0.56812,3.15069 1.13625,6.30138 1.70437,9.45208 -2.78855,0.14058 -6.12872,3.1143 -8.48054,1.01205 -4.84977,0.69974 6.03806,10.80915 -3.31794,10.81619 -3.43105,1.0133 -10.00408,1.90188 -2.97796,3.33027 6.57222,-0.15788 10.09446,7.79761 2.38246,7.91444 -4.23821,1.27483 -7.5981,0.16158 -4.86769,5.91418 2.63699,4.83749 -1.10429,5.70585 -5.06139,6.43991 -2.20016,0.78454 -8.25241,1.41645 -2.05177,2.53388 5.80045,-0.39575 14.80334,7.79762 6.18832,9.49311 -2.30849,0.99869 -10.73679,1.75458 -3.83442,3.11872 3.04738,1.31398 12.8364,3.0428 8.73717,6.59902 -7.11361,-7.55714 -1.80461,4.30047 -2.73524,7.2606 -3.98781,1.10419 -6.25528,1.33936 -9.82002,2.63406 3.77524,0.14253 9.06334,9.73419 1.00748,9.4043 -4.97597,0.98931 -8.35994,2.04173 -2.00385,3.48025 2.78244,1.00026 5.56491,2.00041 8.34738,3.00061 1.12481,4.37321 -12.60913,3.11392 -3.32613,5.55943 4.40981,2.01509 11.71058,2.06013 8.44086,9.3907 2.49204,2.75077 9.52262,-5.52222 12.70778,0.96493 6.9574,7.74051 2.94144,-7.36933 10.79865,-6.56593 8.11682,-1.67367 -10.49678,-3.31008 -0.65348,-6.22613 3.91281,-0.76098 6.55469,3.5793 9.80551,5.26223 0.6006,-5.18179 3.68997,-9.55973 9.84532,-10.58804 -4.66518,-1.9908 -14.00575,-2.12659 -8.15255,-8.23981 3.65938,-6.33092 11.90644,10.22121 11.83248,-0.76482 -0.16368,-3.97279 4.48903,-3.92604 7.15151,-5.54024 2.94498,-2.61752 -14.63092,-1.76469 -7.47253,-7.6493 4.5921,1.0307 2.06206,-8.87403 8.29548,-8.88492 6.12393,-0.30302 -0.14107,-7.49569 6.11588,-9.63967 3.56438,-1.34823 7.74581,-2.72064 1.58731,-3.68782 -5.27654,-0.75038 -7.90038,-2.53576 -4.23576,-6.77465 0.95825,-2.67065 4.46973,-5.81844 0.22495,-4.79112 -3.02901,-7.07151 15.18247,-7.5752 4.51787,-9.84935 -8.73732,-2.11022 11.97945,-5.02847 1.2733,-6.47732 -3.86733,-0.54569 -4.89344,-2.01319 -2.88032,-4.94817 -5.37627,3.17219 0.38713,-4.14523 1.00014,-6.20084 -2.55296,0.7918 -9.81882,4.1829 -14.42756,0.30128 -5.37411,-0.30542 2.50142,-7.69701 2.68305,-10.36221 z m -26.04806,25.0671 c 3.44408,2.47891 8.30767,5.55571 1.29603,2.71557 -1.73893,0.0829 -2.94998,-1.45615 -1.29603,-2.71557 z m 8.73646,13.07524 c 1.27807,7.6068 -13.82324,-3.2674 -5.05561,-1.81726 1.68522,0.60574 3.37041,1.21151 5.05561,1.81726 z m -0.22278,3.95092 c 1.29289,6.50115 -8.6417,1.1592 0,0 z m 15.69745,13.24685 c 1.26046,1.13582 6.76208,4.4391 5.24691,4.15639 -1.51618,-1.02145 -8.70767,-1.54147 -4.56044,-3.0438 z m -40.38161,-13.15726 c 0.49449,5.82319 -4.76791,-1.02458 -7.14261,-1.95377 -5.49832,-3.31543 6.29276,1.99563 7.14261,1.95377 z m 8.31086,4.29546 c 7.46247,2.04151 -0.1259,6.22922 -1.51238,2.88324 0.50414,-0.96108 1.00826,-1.92216 1.51238,-2.88324 z m 15.64426,15.06964 c 2.34416,8.90683 -9.57101,-1.08549 0,0 z m -8.51255,-3.05981 c -0.23889,3.90747 -1.22113,5.95037 2.46812,6.13337 -1.10298,2.04329 -5.36771,-1.22571 -7.8181,-1.44632 -3.66623,-0.40181 2.44458,-9.10382 5.34998,-4.68705 z m 16.75886,7.30915 c 8.99101,3.94489 -9.97939,5.572 -3.11224,1.13946 0.80562,-1.61937 3.34831,1.23045 3.11224,-1.13946 z m -14.0684,0.85944 c 3.0537,5.11322 -2.1199,5.58263 -5.64935,6.47456 -3.31482,0.39942 0.0129,-6.26014 4.22019,-5.86569 z m -16.668,4.38235 c 8.6293,3.04883 -2.76998,7.39523 -4.29387,1.64464 1.43129,-0.54821 2.86258,-1.09643 4.29387,-1.64464 z"
             sodipodi:nodetypes="cccccccccccccccccccccccccccccccccccccccccccccccccccccccccccccccccccccccccccccc" />
          <path
             id="path50143"
             style="opacity:1;vector-effect:none;fill:#ff8080;fill-opacity:1;stroke:none;stroke-width:0.487876px;stroke-linecap:butt;stroke-linejoin:miter;stroke-miterlimit:4;stroke-dasharray:none;stroke-dashoffset:0;stroke-opacity:1"
             d="m 40.80776,867.40218 10.777172,4.64828 c 3.636956,-1.81261 10.714979,-8.82912 12.234958,-7.44018 -0.522729,2.78755 -1.045449,5.57509 -1.568178,8.36264 5.723796,4.34445 12.581642,-1.17014 15.515477,-2.50493 -0.547547,2.91993 -1.095103,5.83986 -1.64265,8.7598 2.687568,0.13029 5.906781,2.88621 8.173434,0.93793 4.674145,0.64849 -5.819403,10.01748 3.197788,10.024 3.306801,0.93909 9.641802,1.76259 2.870119,3.08636 -6.33422,-0.14632 -9.72891,7.2265 -2.296184,7.33478 4.084731,1.18146 7.32295,0.14974 4.691416,5.48102 -2.541497,4.48319 1.0643,5.28795 4.878104,5.96824 2.12049,0.72708 7.953574,1.31271 1.97747,2.3483 -5.590401,-0.36677 -14.267269,7.22652 -5.964225,8.79783 2.224892,0.92554 10.347989,1.62607 3.695564,2.8903 -2.937025,1.21774 -12.371555,2.81994 -8.420771,6.1157 6.856005,-7.00365 1.73926,3.9855 2.636189,6.72883 3.843399,1.02332 6.028757,1.24126 9.464417,2.44114 -3.638537,0.13209 -8.735139,9.02125 -0.971,8.71552 4.79578,0.91685 8.0572,1.89219 1.93129,3.22535 -2.681684,0.927 -5.363399,1.8539 -8.045107,2.78084 -1.084078,4.05291 12.152517,2.88586 3.20568,5.15225 -4.250117,1.86751 -11.286504,1.90925 -8.135191,8.70292 -2.401795,2.5493 -9.177777,-5.11777 -12.247593,0.89426 -6.705451,7.17359 -2.834921,-6.82959 -10.407598,-6.08504 -7.822886,-1.55109 10.11666,-3.06764 0.629815,-5.77012 -3.771115,-0.70524 -6.317324,3.31715 -9.450422,4.87682 -0.578851,-4.80227 -3.556346,-8.85957 -9.488792,-9.81256 4.49624,-1.84499 13.49856,-1.97084 7.857322,-7.63632 -3.526863,-5.86724 -11.475272,9.4726 -11.40399,-0.7088 0.157752,-3.68182 -4.326469,-3.6385 -6.892533,-5.13447 13.902494,0.6391 5.217811,-14.96973 -0.793148,-15.32324 -5.902168,-0.28083 0.135961,-6.9467 -5.89441,-8.93365 -3.435303,-1.24949 -7.465311,-2.52138 -1.529828,-3.41772 5.085464,-0.69543 7.614287,-2.35004 4.082374,-6.27847 -0.923549,-2.47505 -4.307872,-5.39229 -0.216804,-4.44022 2.91932,-6.55358 -14.632671,-7.02038 -4.354268,-9.12797 8.420919,-1.95567 -11.545638,-4.66018 -1.22719,-6.00292 3.727282,-0.50572 4.716238,-1.86574 2.776015,-4.58576 5.181583,2.93986 -0.373111,-3.84163 -0.963922,-5.74668 2.460509,0.73381 9.463255,3.87654 13.905098,0.27921 5.179498,-0.28305 -2.410836,-7.13327 -2.585888,-9.60327 z m 25.104781,23.23116 c -3.319359,2.29735 -8.006824,5.14881 -1.249097,2.51668 1.675959,0.0768 2.843153,-1.3495 1.249097,-2.51668 z m -8.420086,12.1176 c -1.231787,7.04967 13.322659,-3.02809 4.872531,-1.68416 -1.624193,0.56137 -3.248357,1.12278 -4.872531,1.68416 z m 0.214712,3.66155 c -1.24607,6.025 8.328758,1.0743 0,0 z m -15.128998,12.27664 c -1.214815,1.05263 -6.517204,4.11398 -5.056903,3.85197 1.461274,-0.94664 8.392339,-1.42857 4.395292,-2.82087 z M 81.49744,906.49552 c -0.476584,5.39669 4.595249,-0.94954 6.883954,-1.81068 5.299209,-3.0726 -6.06488,1.84947 -6.883954,1.81068 z M 58.409807,924.4423 c -2.259271,8.25449 9.224414,-1.00599 0,0 z m 8.204284,-2.83571 c 0.23024,3.62129 1.17691,5.51456 -2.378741,5.68416 1.063037,1.89364 5.173329,-1.13594 7.534983,-1.34039 3.533464,-0.37238 -2.356055,-8.43705 -5.156242,-4.34377 z m -2.59303,7.57032 c -2.943116,4.73872 2.043132,5.17375 5.44477,6.00036 3.194781,0.37016 -0.01243,-5.80164 -4.067364,-5.43608 z m 16.064402,4.06138 c -8.316807,2.82553 2.66967,6.8536 4.138376,1.52419 -1.379459,-0.50806 -2.758918,-1.01613 -4.138376,-1.52419 z m -18.686452,7.42633 c -0.788985,9.96176 7.338197,2.85102 12.078092,-0.50206 -1.7435,-6.07647 -7.849968,0.18385 -12.078092,0.50206 z"
             sodipodi:nodetypes="cccccccccccccccccccccccccccccccccccccccccccccccccccccccccccccccccccccccccc" />
        </g>
        <ellipse
           style="font-variation-settings:normal;opacity:1;vector-effect:none;fill:#ff8080;fill-opacity:1;fill-rule:evenodd;stroke:none;stroke-width:0.791004;stroke-linecap:butt;stroke-linejoin:miter;stroke-miterlimit:4;stroke-dasharray:none;stroke-dashoffset:0;stroke-opacity:1;-inkscape-stroke:none;stop-color:#000000;stop-opacity:1"
           id="path73918"
           cx="-74.223518"
           cy="856.56714"
           transform="rotate(-2.3468845)"
           rx="10.063676"
           ry="10.100269" />
      </g>
      <g
         id="g35783"
         inkscape:transform-center-x="29.534933"
         inkscape:transform-center-y="-111.29582"
         transform="matrix(0.73337337,-0.10776472,0.13578729,0.93595854,-859.84055,258.21682)"
         style="stroke:none">
        <path
           style="opacity:1;vector-effect:none;fill:#49770a;fill-opacity:1;stroke:none;stroke-width:0.9375px;stroke-linecap:butt;stroke-linejoin:miter;stroke-miterlimit:4;stroke-dasharray:none;stroke-dashoffset:0;stroke-opacity:1"
           d="m 1182.6863,983.33796 c 11.853,-3.20549 -52.8717,-209.26497 -54.9006,-209.56195 0.2662,47.20269 13.3499,129.58475 34.3291,198.73261 3.2146,9.75301 15.7985,11.40859 20.5715,10.82934 z"
           id="path28385"
           sodipodi:nodetypes="cccc" />
        <path
           style="opacity:1;vector-effect:none;fill:#728903;fill-opacity:1;stroke:none;stroke-width:0.9375px;stroke-linecap:butt;stroke-linejoin:miter;stroke-miterlimit:4;stroke-dasharray:none;stroke-dashoffset:0;stroke-opacity:1"
           d="m 1181.657,980.39184 c -5.6047,-47.45868 -20.2132,-71.29744 -42.2086,-112.27828 16.1058,43.39565 11.1299,101.10146 42.2086,112.27828 z"
           id="path28781"
           sodipodi:nodetypes="ccc" />
        <path
           style="opacity:1;vector-effect:none;fill:#5c8c12;fill-opacity:1;stroke:none;stroke-width:0.711457px;stroke-linecap:butt;stroke-linejoin:miter;stroke-miterlimit:4;stroke-dasharray:none;stroke-dashoffset:0;stroke-opacity:1"
           d="m 1132.3435,828.65791 c -15.7112,-44.76183 -14.7282,-78.14131 -4.2427,-105.04185 4.2034,21.70894 15.5872,9.16451 4.2427,105.04185 z"
           id="path33220"
           sodipodi:nodetypes="ccc" />
      </g>
      <g
         id="g71812">
        <use
           x="0"
           y="0"
           xlink:href="#g26167"
           id="use44903-1-1"
           transform="matrix(0.20748583,-0.04755539,0.04755539,0.20748583,17.383442,785.36871)"
           width="100%"
           height="100%"
           style="stroke:none" />
        <use
           x="0"
           y="0"
           xlink:href="#g26167"
           id="use44903-3-05-1"
           transform="matrix(0.20748583,-0.04755539,0.04755539,0.20748583,32.581565,790.39478)"
           width="100%"
           height="100%"
           style="stroke:none" />
        <use
           x="0"
           y="0"
           xlink:href="#g26167"
           id="use44903-3-3-1-0"
           transform="matrix(-0.18463179,-0.03528703,-0.03528703,0.18463179,95.937321,805.39176)"
           width="100%"
           height="100%"
           style="stroke:none" />
        <use
           x="0"
           y="0"
           xlink:href="#g26167"
           id="use44903-3-3-1-0-9"
           transform="matrix(-0.18463179,-0.03528703,-0.03528703,0.18463179,106.87914,798.13872)"
           width="100%"
           height="100%"
           style="stroke:none" />
        <use
           x="0"
           y="0"
           xlink:href="#g26167"
           id="use44903-3-3-1-0-1"
           transform="matrix(-0.18463179,-0.03528703,-0.03528703,0.18463179,104.81113,812.61483)"
           width="100%"
           height="100%"
           style="stroke:none" />
        <use
           x="0"
           y="0"
           xlink:href="#g26167"
           id="use44903-3-38-1-3"
           transform="matrix(0.21209525,-0.01809657,0.01809657,0.21209525,51.835117,775.77327)"
           width="100%"
           height="100%"
           style="stroke:none" />
        <use
           x="0"
           y="0"
           xlink:href="#g26167"
           id="use44903-3-6-0-4"
           transform="matrix(0.18695722,-0.10177858,0.10177858,0.18695722,-29.21564,786.31509)"
           width="100%"
           height="100%"
           style="stroke:none" />
        <use
           x="0"
           y="0"
           xlink:href="#g26167"
           id="use44903-3-0-8-0"
           transform="matrix(0.17873452,-0.04096563,0.04096563,0.17873452,7.7311402,790.77211)"
           width="100%"
           height="100%"
           style="stroke:none" />
        <use
           x="0"
           y="0"
           xlink:href="#g26167"
           id="use44903-3-4-5-3"
           transform="matrix(0.20748583,-0.04755539,0.04755539,0.20748583,4.613329,755.63784)"
           width="100%"
           height="100%"
           style="stroke:none" />
        <use
           x="0"
           y="0"
           xlink:href="#g26167"
           id="use44903-3-8-0-9"
           transform="matrix(0.20748583,-0.04755539,0.04755539,0.20748583,-2.4346282,744.90892)"
           width="100%"
           height="100%"
           style="stroke:none" />
        <use
           x="0"
           y="0"
           xlink:href="#g26167"
           id="use44903-3-88-6-1"
           transform="matrix(0.20748583,-0.04755539,0.04755539,0.20748583,-2.7725477,731.95001)"
           width="100%"
           height="100%"
           style="stroke:none" />
        <use
           x="0"
           y="0"
           xlink:href="#g26167"
           id="use44903-3-9-4-9"
           transform="matrix(0.15043929,-0.03448042,0.03448042,0.15043929,17.479507,784.43582)"
           width="100%"
           height="100%"
           style="stroke:none" />
        <use
           x="0"
           y="0"
           xlink:href="#g26167"
           id="use44903-3-7-6-6"
           transform="matrix(0.1963207,-0.0822804,0.0822804,0.1963207,-12.184931,755.22624)"
           width="100%"
           height="100%"
           style="stroke:none" />
        <use
           x="0"
           y="0"
           xlink:href="#g26167"
           id="use44903-3-76-2-9"
           transform="matrix(0.17393101,-0.03986468,0.03986468,0.17393101,21.998901,786.82434)"
           width="100%"
           height="100%"
           style="stroke:none" />
        <use
           x="0"
           y="0"
           xlink:href="#g26167"
           id="use44903-3-43-5-3"
           transform="matrix(0.21282667,0.0040853,-0.0040853,0.21282667,68.214092,763.99557)"
           width="100%"
           height="100%"
           style="stroke:none" />
        <use
           x="0"
           y="0"
           xlink:href="#g26167"
           id="use44903-3-03-8-3"
           transform="matrix(-0.20748583,0.04755539,0.04755539,0.20748583,25.519886,779.70874)"
           width="100%"
           height="100%"
           style="stroke:none" />
        <use
           x="0"
           y="0"
           xlink:href="#g26167"
           id="use44903-3-09-6-8"
           transform="matrix(-0.15739193,0.14331666,0.14331666,0.15739193,-40.236024,813.50254)"
           width="100%"
           height="100%"
           style="stroke:none" />
        <use
           x="0"
           y="0"
           xlink:href="#g26167"
           id="use44903-3-2-2-0"
           transform="matrix(-0.2117614,0.02165624,0.02165624,0.2117614,43.065192,760.04022)"
           width="100%"
           height="100%"
           style="stroke:none" />
        <use
           x="0"
           y="0"
           xlink:href="#g26167"
           id="use44903-3-5-8-5"
           transform="matrix(-0.04836184,0.20729933,0.20729933,0.04836184,-90.459052,887.77384)"
           width="100%"
           height="100%"
           style="stroke:none" />
        <use
           x="0"
           y="0"
           xlink:href="#g26167"
           id="use44903-3-40-4-6"
           transform="matrix(-0.16882134,0.03869356,0.03869356,0.16882134,30.225893,777.21599)"
           width="100%"
           height="100%"
           style="stroke:none" />
        <use
           x="0"
           y="0"
           xlink:href="#g26167"
           id="use44903-3-59-7-6"
           transform="matrix(-0.20748583,0.04755539,0.04755539,0.20748583,24.945457,735.56428)"
           width="100%"
           height="100%"
           style="stroke:none" />
        <use
           x="0"
           y="0"
           xlink:href="#g26167"
           id="use44903-3-46-2-4"
           transform="matrix(-0.13485938,0.16469617,0.16469617,0.13485938,-70.228814,786.91123)"
           width="100%"
           height="100%"
           style="stroke:none" />
        <use
           x="0"
           y="0"
           xlink:href="#g26167"
           id="use44903-3-92-4-0"
           transform="matrix(-0.04118644,0.20884339,0.20884339,0.04118644,-103.26569,851.61761)"
           width="100%"
           height="100%"
           style="stroke:none" />
        <use
           x="0"
           y="0"
           xlink:href="#g26167"
           id="use44903-3-24-0-0"
           transform="matrix(-0.20748583,0.04755539,-0.04755539,-0.20748583,81.912781,1035.1392)"
           width="100%"
           height="100%"
           style="stroke:none" />
        <use
           x="0"
           y="0"
           xlink:href="#g26167"
           id="use44903-3-77-6-4"
           transform="matrix(0.20748583,-0.04755539,-0.04755539,-0.20748583,79.315502,1036.2764)"
           width="100%"
           height="100%"
           style="stroke:none" />
        <use
           x="0"
           y="0"
           xlink:href="#g26167"
           id="use44903-3-54-2-6"
           transform="matrix(0.20748583,-0.04755539,-0.04755539,-0.20748583,75.784637,1050.7157)"
           width="100%"
           height="100%"
           style="stroke:none" />
        <use
           x="0"
           y="0"
           xlink:href="#g26167"
           id="use44903-3-81-9-2"
           transform="matrix(0.20748583,-0.04755539,-0.04755539,-0.20748583,92.678643,1044.6677)"
           width="100%"
           height="100%"
           style="stroke:none" />
        <use
           x="0"
           y="0"
           xlink:href="#g26167"
           id="use44903-3-28-9-6"
           transform="matrix(-0.20748583,0.04755539,-0.04755539,-0.20748583,86.222035,1061.0724)"
           width="100%"
           height="100%"
           style="stroke:none" />
        <use
           x="0"
           y="0"
           xlink:href="#g26167"
           id="use44903-3-93-0-7"
           transform="matrix(0.18315671,-0.0419792,-0.0419792,-0.18315671,82.855988,1039.8641)"
           width="100%"
           height="100%"
           style="stroke:none" />
        <use
           x="0"
           y="0"
           xlink:href="#g26167"
           id="use44903-3-68-8-5"
           transform="matrix(-0.20748583,0.04755539,0.04755539,0.20748583,8.5682728,741.65811)"
           width="100%"
           height="100%"
           style="stroke:none" />
        <use
           x="0"
           y="0"
           xlink:href="#g26167"
           id="use44903-3-02-1-6"
           transform="matrix(-0.14465949,0.12729362,-0.12729362,-0.14465949,155.37704,1039.8458)"
           width="100%"
           height="100%"
           style="stroke:none" />
      </g>
      <g
         id="g46042"
         style="stroke:none"
         transform="translate(-3.9872902,-5.7158267)">
        <use
           x="0"
           y="0"
           xlink:href="#g26167"
           id="use44903"
           transform="matrix(0.37924969,0,0,0.37924969,117.09917,628.08991)"
           width="100%"
           height="100%"
           style="stroke:none" />
        <use
           x="0"
           y="0"
           xlink:href="#g26167"
           id="use44903-3"
           transform="matrix(0.37924969,0,0,0.37924969,141.49182,642.8675)"
           width="100%"
           height="100%"
           style="stroke:none" />
        <use
           x="0"
           y="0"
           xlink:href="#g26167"
           id="use44903-3-3"
           transform="matrix(-0.30658767,-0.13476821,-0.13476821,0.30658767,245.54668,694.12867)"
           width="100%"
           height="100%"
           style="stroke:none" />
        <use
           x="0"
           y="0"
           xlink:href="#g26167"
           id="use44903-3-38"
           transform="matrix(0.37552905,0.05299306,-0.05299306,0.37552905,180.74744,625.13912)"
           width="100%"
           height="100%"
           style="stroke:none" />
        <use
           x="0"
           y="0"
           xlink:href="#g26167"
           id="use44903-3-6"
           transform="matrix(0.36518189,-0.10233533,0.10233533,0.36518189,35.798212,611.18569)"
           width="100%"
           height="100%"
           style="stroke:none" />
        <use
           x="0"
           y="0"
           xlink:href="#g26167"
           id="use44903-3-0"
           transform="matrix(0.32669706,0,0,0.32669706,98.186222,633.63163)"
           width="100%"
           height="100%"
           style="stroke:none" />
        <use
           x="0"
           y="0"
           xlink:href="#g26167"
           id="use44903-3-4"
           transform="matrix(0.37924969,0,0,0.37924969,106.75621,571.37623)"
           width="100%"
           height="100%"
           style="stroke:none" />
        <use
           x="0"
           y="0"
           xlink:href="#g26167"
           id="use44903-3-8"
           transform="matrix(0.37924969,0,0,0.37924969,98.787069,549.93904)"
           width="100%"
           height="100%"
           style="stroke:none" />
        <use
           x="0"
           y="0"
           xlink:href="#g26167"
           id="use44903-3-88"
           transform="matrix(0.37924969,0,0,0.37924969,103.35824,527.29999)"
           width="100%"
           height="100%"
           style="stroke:none" />
        <use
           x="0"
           y="0"
           xlink:href="#g26167"
           id="use44903-3-9"
           transform="matrix(0.27497807,0,0,0.27497807,117.63734,626.50809)"
           width="100%"
           height="100%"
           style="stroke:none" />
        <use
           x="0"
           y="0"
           xlink:href="#g26167"
           id="use44903-3-7"
           transform="matrix(0.37368176,-0.06474772,0.06474772,0.37368176,77.748062,563.97527)"
           width="100%"
           height="100%"
           style="stroke:none" />
        <use
           x="0"
           y="0"
           xlink:href="#g26167"
           id="use44903-3-76"
           transform="matrix(0.31791706,0,0,0.31791706,124.53503,632.45485)"
           width="100%"
           height="100%"
           style="stroke:none" />
        <use
           x="0"
           y="0"
           xlink:href="#g26167"
           id="use44903-3-43"
           transform="matrix(0.36797025,0.09180537,-0.09180537,0.36797025,213.87914,611.20516)"
           width="100%"
           height="100%"
           style="stroke:none" />
        <use
           x="0"
           y="0"
           xlink:href="#g26167"
           id="use44903-3-03"
           transform="matrix(-0.37924969,0,0,0.37924969,133.48181,621.49931)"
           width="100%"
           height="100%"
           style="stroke:none" />
        <use
           x="0"
           y="0"
           xlink:href="#g26167"
           id="use44903-3-09"
           transform="matrix(-0.33037187,0.18623844,0.18623844,0.33037187,5.8387875,654.01323)"
           width="100%"
           height="100%"
           style="stroke:none" />
        <use
           x="0"
           y="0"
           xlink:href="#g26167"
           id="use44903-3-2"
           transform="matrix(-0.37636611,-0.04667844,-0.04667844,0.37636611,171.77972,594.32633)"
           width="100%"
           height="100%"
           style="stroke:none" />
        <use
           x="0"
           y="0"
           xlink:href="#g26167"
           id="use44903-3-5"
           transform="matrix(-0.1664963,0.34074816,0.34074816,0.1664963,-110.94089,763.00314)"
           width="100%"
           height="100%"
           style="stroke:none" />
        <use
           x="0"
           y="0"
           xlink:href="#g26167"
           id="use44903-3-40"
           transform="matrix(-0.30857741,0,0,0.30857741,142.64648,619.04349)"
           width="100%"
           height="100%"
           style="stroke:none" />
        <use
           x="0"
           y="0"
           xlink:href="#g26167"
           id="use44903-3-59"
           transform="matrix(-0.37924969,0,0,0.37924969,150.05497,544.60909)"
           width="100%"
           height="100%"
           style="stroke:none" />
        <use
           x="0"
           y="0"
           xlink:href="#g26167"
           id="use44903-3-46"
           transform="matrix(-0.29975133,0.23233481,0.23233481,0.29975133,-35.662837,595.89661)"
           width="100%"
           height="100%"
           style="stroke:none" />
        <use
           x="0"
           y="0"
           xlink:href="#g26167"
           id="use44903-3-92"
           transform="matrix(-0.36214785,0.11260221,0.11260221,0.36214785,52.435177,520.40569)"
           width="100%"
           height="100%"
           style="stroke:none" />
        <use
           x="0"
           y="0"
           xlink:href="#g26167"
           id="use44903-3-24"
           transform="matrix(-0.37924969,0,0,-0.37924969,125.46325,1091.5756)"
           width="100%"
           height="100%"
           style="stroke:none" />
        <use
           x="0"
           y="0"
           xlink:href="#g26167"
           id="use44903-3-77"
           transform="matrix(0.37924969,0,0,-0.37924969,129.21027,1092.6119)"
           width="100%"
           height="100%"
           style="stroke:none" />
        <use
           x="0"
           y="0"
           xlink:href="#g26167"
           id="use44903-3-54"
           transform="matrix(0.37924969,0,0,-0.37924969,114.82253,1113.6251)"
           width="100%"
           height="100%"
           style="stroke:none" />
        <use
           x="0"
           y="0"
           xlink:href="#g26167"
           id="use44903-3-81"
           transform="matrix(0.37924969,0,0,-0.37924969,142.86411,1112.4838)"
           width="100%"
           height="100%"
           style="stroke:none" />
        <use
           x="0"
           y="0"
           xlink:href="#g26167"
           id="use44903-3-28"
           transform="matrix(-0.37924969,0,0,-0.37924969,126.90715,1134.2786)"
           width="100%"
           height="100%"
           style="stroke:none" />
        <use
           x="0"
           y="0"
           xlink:href="#g26167"
           id="use44903-3-93"
           transform="matrix(0.33478012,0,0,-0.33478012,129.50314,1096.1085)"
           width="100%"
           height="100%"
           style="stroke:none" />
        <use
           x="0"
           y="0"
           xlink:href="#g26167"
           id="use44903-3-68"
           transform="matrix(-0.37924969,0,0,0.37924969,119.1887,548.67312)"
           width="100%"
           height="100%"
           style="stroke:none" />
        <use
           x="0"
           y="0"
           xlink:href="#g26167"
           id="use44903-3-02"
           transform="matrix(-0.30188303,0.16348057,-0.16348057,-0.30188303,255.45099,1124.942)"
           width="100%"
           height="100%"
           style="stroke:none" />
      </g>
      <g
         id="g71872">
        <use
           x="0"
           y="0"
           xlink:href="#g26167"
           id="use44903-1"
           transform="matrix(-0.23489537,-0.08111848,-0.08111848,0.23489537,259.00689,760.54333)"
           width="100%"
           height="100%"
           style="stroke:none" />
        <use
           x="0"
           y="0"
           xlink:href="#g26167"
           id="use44903-3-05"
           transform="matrix(-0.23489537,-0.08111848,-0.08111848,0.23489537,240.73804,764.47871)"
           width="100%"
           height="100%"
           style="stroke:none" />
        <use
           x="0"
           y="0"
           xlink:href="#g26167"
           id="use44903-3-3-1"
           transform="matrix(0.21871663,-0.01789455,0.01789455,0.21871663,165.32537,773.97177)"
           width="100%"
           height="100%"
           style="stroke:none" />
        <use
           x="0"
           y="0"
           xlink:href="#g26167"
           id="use44903-3-38-1"
           transform="matrix(-0.24392571,-0.04750042,-0.04750042,0.24392571,220.2163,745.10185)"
           width="100%"
           height="100%"
           style="stroke:none" />
        <use
           x="0"
           y="0"
           xlink:href="#g26167"
           id="use44903-3-6-0"
           transform="matrix(-0.20429349,-0.14149278,-0.14149278,0.20429349,312.97784,767.46302)"
           width="100%"
           height="100%"
           style="stroke:none" />
        <use
           x="0"
           y="0"
           xlink:href="#g26167"
           id="use44903-3-0-8"
           transform="matrix(-0.17283418,0.12631365,0.12631365,0.17283418,113.79332,799.96304)"
           width="100%"
           height="100%"
           style="stroke:none" />
        <use
           x="0"
           y="0"
           xlink:href="#g26167"
           id="use44903-3-4-5"
           transform="matrix(-0.24797367,0.01628188,0.01628188,0.24797367,197.75222,722.01119)"
           width="100%"
           height="100%"
           style="stroke:none" />
        <use
           x="0"
           y="0"
           xlink:href="#g26167"
           id="use44903-3-8-0"
           transform="matrix(-0.23489537,-0.08111848,-0.08111848,0.23489537,284.98957,717.86458)"
           width="100%"
           height="100%"
           style="stroke:none" />
        <use
           x="0"
           y="0"
           xlink:href="#g26167"
           id="use44903-3-88-6"
           transform="matrix(-0.15547615,0.19386389,0.19386389,0.15547615,69.950832,774.57305)"
           width="100%"
           height="100%"
           style="stroke:none" />
        <use
           x="0"
           y="0"
           xlink:href="#g26167"
           id="use44903-3-9-4"
           transform="matrix(-0.1703128,-0.05881562,-0.05881562,0.1703128,259.01192,759.44849)"
           width="100%"
           height="100%"
           style="stroke:none" />
        <use
           x="0"
           y="0"
           xlink:href="#g26167"
           id="use44903-3-7-6"
           transform="matrix(-0.21759774,-0.12003025,-0.12003025,0.21759774,297.09335,729.24962)"
           width="100%"
           height="100%"
           style="stroke:none" />
        <use
           x="0"
           y="0"
           xlink:href="#g26167"
           id="use44903-3-76-2"
           transform="matrix(-0.19690785,-0.06799992,-0.06799992,0.19690785,253.46773,761.65637)"
           width="100%"
           height="100%"
           style="stroke:none" />
        <use
           x="0"
           y="0"
           xlink:href="#g26167"
           id="use44903-3-43-5"
           transform="matrix(-0.24754566,-0.02184452,-0.02184452,0.24754566,202.67593,729.38499)"
           width="100%"
           height="100%"
           style="stroke:none" />
        <use
           x="0"
           y="0"
           xlink:href="#g26167"
           id="use44903-3-03-8"
           transform="matrix(0.23489537,0.08111848,-0.08111848,0.23489537,250.26968,752.9572)"
           width="100%"
           height="100%"
           style="stroke:none" />
        <use
           x="0"
           y="0"
           xlink:href="#g26167"
           id="use44903-3-09-6"
           transform="matrix(0.16478706,0.18601415,-0.18601415,0.16478706,323.7434,801.96507)"
           width="100%"
           height="100%"
           style="stroke:none" />
        <use
           x="0"
           y="0"
           xlink:href="#g26167"
           id="use44903-3-2-2"
           transform="matrix(0.24309351,0.05159055,-0.05159055,0.24309351,232.36124,727.93549)"
           width="100%"
           height="100%"
           style="stroke:none" />
        <use
           x="0"
           y="0"
           xlink:href="#g26167"
           id="use44903-3-5-8"
           transform="matrix(0.03023928,0.24666095,-0.24666095,0.03023928,376.44428,894.15918)"
           width="100%"
           height="100%"
           style="stroke:none" />
        <use
           x="0"
           y="0"
           xlink:href="#g26167"
           id="use44903-3-40-4"
           transform="matrix(0.19112317,0.06600225,-0.06600225,0.19112317,246.44597,749.24612)"
           width="100%"
           height="100%"
           style="stroke:none" />
        <use
           x="0"
           y="0"
           xlink:href="#g26167"
           id="use44903-3-59-7"
           transform="matrix(0.23489537,0.08111848,-0.08111848,0.23489537,256.451,701.78895)"
           width="100%"
           height="100%"
           style="stroke:none" />
        <use
           x="0"
           y="0"
           xlink:href="#g26167"
           id="use44903-3-46-2"
           transform="matrix(0.13596201,0.20801532,-0.20801532,0.13596201,354.4099,770.37026)"
           width="100%"
           height="100%"
           style="stroke:none" />
        <use
           x="0"
           y="0"
           xlink:href="#g26167"
           id="use44903-3-92-4"
           transform="matrix(0.1077498,0.22393307,-0.22393307,0.1077498,379.89455,784.52106)"
           width="100%"
           height="100%"
           style="stroke:none" />
        <use
           x="0"
           y="0"
           xlink:href="#g26167"
           id="use44903-3-24-0"
           transform="matrix(0.23489537,0.08111848,0.08111848,-0.23489537,154.69057,1045.8227)"
           width="100%"
           height="100%"
           style="stroke:none" />
        <use
           x="0"
           y="0"
           xlink:href="#g26167"
           id="use44903-3-77-6"
           transform="matrix(-0.23489537,-0.08111848,0.08111848,-0.23489537,152.14811,1045.6633)"
           width="100%"
           height="100%"
           style="stroke:none" />
        <use
           x="0"
           y="0"
           xlink:href="#g26167"
           id="use44903-3-54-2"
           transform="matrix(-0.23489537,-0.08111848,0.08111848,-0.23489537,156.56487,1061.7556)"
           width="100%"
           height="100%"
           style="stroke:none" />
        <use
           x="0"
           y="0"
           xlink:href="#g26167"
           id="use44903-3-81-9"
           transform="matrix(-0.23489537,-0.08111848,0.08111848,-0.23489537,139.44093,1055.0507)"
           width="100%"
           height="100%"
           style="stroke:none" />
        <use
           x="0"
           y="0"
           xlink:href="#g26167"
           id="use44903-3-28-9"
           transform="matrix(0.23489537,0.08111848,0.08111848,-0.23489537,144.66242,1071.9629)"
           width="100%"
           height="100%"
           style="stroke:none" />
        <use
           x="0"
           y="0"
           xlink:href="#g26167"
           id="use44903-3-93-0"
           transform="matrix(-0.2073523,-0.0716068,0.0716068,-0.2073523,151.21887,1047.7661)"
           width="100%"
           height="100%"
           style="stroke:none" />
        <use
           x="0"
           y="0"
           xlink:href="#g26167"
           id="use44903-3-68-8"
           transform="matrix(0.23489537,0.08111848,-0.08111848,0.23489537,274.69932,710.90812)"
           width="100%"
           height="100%"
           style="stroke:none" />
        <use
           x="0"
           y="0"
           xlink:href="#g26167"
           id="use44903-3-02-1"
           transform="matrix(0.15200968,0.16582511,0.16582511,-0.15200968,67.043442,1038.6855)"
           width="100%"
           height="100%"
           style="stroke:none" />
      </g>
    </g>
    <text
       xml:space="preserve"
       style="font-style:normal;font-weight:normal;font-size:37.5px;line-height:1.25;font-family:sans-serif;letter-spacing:0px;word-spacing:0px;fill:#000000;fill-opacity:1;stroke:none;stroke-width:0.9375"
       x="-64.264694"
       y="754.09344"
       id="text71380"><tspan
         sodipodi:role="line"
         id="tspan71378"
         style="stroke-width:0.9375"
         x="-64.264694"
         y="754.09344" /></text>
  </g>
</svg>
