<?xml version="1.0" encoding="UTF-8" standalone="no"?>
<!-- Created with Inkscape (http://www.inkscape.org/) -->

<svg
   width="160.17912mm"
   height="160.18396mm"
   viewBox="0 0 567.56383 567.58097"
   id="svg2"
   version="1.1"
   inkscape:version="1.1.2 (0a00cf5339, 2022-02-04)"
   sodipodi:docname="item38.svg"
   xmlns:inkscape="http://www.inkscape.org/namespaces/inkscape"
   xmlns:sodipodi="http://sodipodi.sourceforge.net/DTD/sodipodi-0.dtd"
   xmlns="http://www.w3.org/2000/svg"
   xmlns:svg="http://www.w3.org/2000/svg"
   xmlns:rdf="http://www.w3.org/1999/02/22-rdf-syntax-ns#"
   xmlns:cc="http://creativecommons.org/ns#"
   xmlns:dc="http://purl.org/dc/elements/1.1/">
  <defs
     id="defs4">
    <clipPath
       id="id0">
      <path
         inkscape:connector-curvature="0"
         d="m 6500000,15909400 h 801930 c 189250,-89820 580580,-490790 580580,-490790 1077790,-1491570 -269440,-1504410 -269440,-1504410 H 6500000 5386930 c 0,0 -1347230,12840 -266240,1504410 0,0 388130,400970 577380,490790 z"
         id="path7" />
    </clipPath>
  </defs>
  <sodipodi:namedview
     id="base"
     pagecolor="#ffffff"
     bordercolor="#666666"
     borderopacity="1.0"
     inkscape:pageopacity="0.0"
     inkscape:pageshadow="2"
     inkscape:zoom="0.41875002"
     inkscape:cx="266.26865"
     inkscape:cy="274.62686"
     inkscape:document-units="px"
     inkscape:current-layer="layer1"
     showgrid="false"
     fit-margin-top="0"
     fit-margin-left="0"
     fit-margin-right="0"
     fit-margin-bottom="0"
     inkscape:window-width="1366"
     inkscape:window-height="719"
     inkscape:window-x="0"
     inkscape:window-y="25"
     inkscape:window-maximized="1"
     inkscape:pagecheckerboard="0" />
  <metadata
     id="metadata7">
    <rdf:RDF>
      <cc:Work
         rdf:about="">
        <dc:format>image/svg+xml</dc:format>
        <dc:type
           rdf:resource="http://purl.org/dc/dcmitype/StillImage" />
      </cc:Work>
    </rdf:RDF>
  </metadata>
  <g
     inkscape:label="Layer 1"
     inkscape:groupmode="layer"
     id="layer1"
     transform="translate(1200.1461,4080.0637)">
    <g
       id="g836"
       transform="rotate(45,-917.16594,-3796.4998)">
      <g
         id="g5610">
        <path
           id="path13"
           d="m -933.74671,-4146.1607 17.30189,49.023 17.3019,-49.023 -17.3019,-49.0231 z"
           inkscape:connector-curvature="0"
           style="fill:#b3b3b3;fill-opacity:1;stroke:#000000;stroke-width:2.0348" />
        <rect
           transform="rotate(-90)"
           id="rect15"
           ry="5.7672992"
           rx="6.2699442"
           y="-922.20001"
           x="3399.2581"
           height="11.534598"
           width="720.92249"
           style="fill:#753f00;fill-opacity:1;stroke:#000000;stroke-width:2.0348" />
        <path
           id="path17"
           d="m -910.67348,-4102.9413 c 0,-2.8806 -2.88466,-5.7713 -5.7673,-5.7713 -2.88264,0 -5.7673,2.8887 -5.7673,5.7693"
           inkscape:connector-curvature="0"
           style="fill:#ffd900;stroke:#000000;stroke-width:2.0348" />
        <path
           id="path19"
           d="m -910.67348,-4097.1679 c 0,-2.8807 -2.88466,-5.7714 -5.7673,-5.7714 -2.88264,0 -5.7673,2.8887 -5.7673,5.7693"
           inkscape:connector-curvature="0"
           style="fill:#ffd900;stroke:#000000;stroke-width:2.0348" />
        <path
           id="path21"
           d="m -910.67348,-4091.3946 c 0,-2.8806 -2.88466,-5.7713 -5.7673,-5.7713 -2.88264,0 -5.7673,2.8887 -5.7673,5.7693"
           inkscape:connector-curvature="0"
           style="fill:#ffd900;stroke:#000000;stroke-width:2.0348" />
      </g>
    </g>
  </g>
</svg>
