<?xml version="1.0" encoding="UTF-8" standalone="no"?>
<!-- Created with Inkscape (http://www.inkscape.org/) -->
<svg xmlns:inkscape="http://www.inkscape.org/namespaces/inkscape" xmlns:rdf="http://www.w3.org/1999/02/22-rdf-syntax-ns#" xmlns="http://www.w3.org/2000/svg" xmlns:xlink="http://www.w3.org/1999/xlink" xmlns:ns1="http://sozi.baierouge.fr" xmlns:cc="http://creativecommons.org/ns#" xmlns:sodipodi="http://sodipodi.sourceforge.net/DTD/sodipodi-0.dtd" xmlns:dc="http://purl.org/dc/elements/1.1/" id="svg2" xml:space="preserve" viewBox="0 0 149.8 64.8" version="1.1" inkscape:version="0.91 r13725">
  <defs id="defs6">
    <linearGradient id="linearGradient24" y2="-0.0379" gradientUnits="userSpaceOnUse" x2="89.587" gradientTransform="matrix(.8 0 0 -.8 0 51.84)" y1="43.344" x1="87.662">
      <stop id="stop26" style="stop-color:#2b1621" offset="0"/>
      <stop id="stop28" style="stop-color:#292c32" offset=".3373"/>
      <stop id="stop32" style="stop-color:#24615c" offset="1"/>
    </linearGradient>
    <linearGradient id="linearGradient46" y2="87.686" gradientUnits="userSpaceOnUse" x2="98.217" gradientTransform="matrix(.68888 .4068 .4068 -.68888 .00035586 51.84)" y1="87.686" x1="60.523">
      <stop id="stop48" style="stop-color:#2b1621" offset="0"/>
      <stop id="stop50" style="stop-color:#292237" offset=".36860"/>
      <stop id="stop54" style="stop-color:#243d65" offset="1"/>
    </linearGradient>
    <linearGradient id="linearGradient68" y2="37.649" gradientUnits="userSpaceOnUse" x2="-12.418" gradientTransform="matrix(-.32864 .72936 .81192 .14552 .000174 51.839)" y1="37.649" x1="-53.444">
      <stop id="stop70" style="stop-color:#2b1621" offset="0"/>
      <stop id="stop72" style="stop-color:#292c32" offset=".3373"/>
      <stop id="stop76" style="stop-color:#24615c" offset="1"/>
    </linearGradient>
    <linearGradient id="linearGradient90" y2="-18.552" gradientUnits="userSpaceOnUse" x2="-24.052" gradientTransform="matrix(-.44832 .66256 .43752 .78088 .00010085 51.84)" y1="-18.552" x1="-45.151">
      <stop id="stop92" style="stop-color:#2b1621" offset="0"/>
      <stop id="stop94" style="stop-color:#292237" offset=".36860"/>
      <stop id="stop98" style="stop-color:#243d65" offset="1"/>
    </linearGradient>
    <linearGradient id="linearGradient112" y2="20.088" gradientUnits="userSpaceOnUse" x2="108.12" gradientTransform="matrix(.8 0 0 -.8 0 51.84)" y1="45.938" x1="98.499">
      <stop id="stop114" style="stop-color:#43303a" offset="0"/>
      <stop id="stop116" style="stop-color:#433e50" offset=".3804"/>
      <stop id="stop120" style="stop-color:#445a7c" offset="1"/>
    </linearGradient>
    <linearGradient id="linearGradient134" y2="64.146" gradientUnits="userSpaceOnUse" x2="-16.805" gradientTransform="matrix(-.16256 .78328 .79256 .11784 .00011089 51.84)" y1="64.146" x1="-43.87">
      <stop id="stop136" style="stop-color:#2b1621" offset="0"/>
      <stop id="stop138" style="stop-color:#292237" offset=".36860"/>
      <stop id="stop142" style="stop-color:#243d65" offset="1"/>
    </linearGradient>
    <linearGradient id="linearGradient156" y2="24.916" gradientUnits="userSpaceOnUse" x2="-58.246" gradientTransform="matrix(-.4824 .63816 .63816 .4824 .000047398 51.84)" y1="24.916" x1="-68.901">
      <stop id="stop158" style="stop-color:#2b1621" offset="0"/>
      <stop id="stop160" style="stop-color:#292c32" offset=".3373"/>
      <stop id="stop164" style="stop-color:#24615c" offset="1"/>
    </linearGradient>
    <linearGradient id="linearGradient178" y2="44.459" gradientUnits="userSpaceOnUse" x2="-61.787" gradientTransform="matrix(-.45112 .66064 .62624 .50152 .000016594 51.84)" y1="44.459" x1="-82.978">
      <stop id="stop180" style="stop-color:#43303a" offset="0"/>
      <stop id="stop182" style="stop-color:#433e50" offset=".3804"/>
      <stop id="stop186" style="stop-color:#445a7c" offset="1"/>
    </linearGradient>
    <linearGradient id="linearGradient200" y2="65.809" gradientUnits="userSpaceOnUse" x2="151.75" gradientTransform="matrix(.79416 .09672 .09672 -.79416 -.0002018 51.84)" y1="65.809" x1="116.8">
      <stop id="stop202" style="stop-color:#2b1621" offset="0"/>
      <stop id="stop204" style="stop-color:#292237" offset=".36860"/>
      <stop id="stop208" style="stop-color:#243d65" offset="1"/>
    </linearGradient>
    <linearGradient id="linearGradient222" y2="28.435" gradientUnits="userSpaceOnUse" x2="-13.72" gradientTransform="matrix(-.17128 .78144 .78144 .17128 .00023341 51.84)" y1="28.435" x1="-43.383">
      <stop id="stop224" style="stop-color:#2b1621" offset="0"/>
      <stop id="stop226" style="stop-color:#292237" offset=".36860"/>
      <stop id="stop230" style="stop-color:#243d65" offset="1"/>
    </linearGradient>
    <linearGradient id="linearGradient244" y2="122.24" gradientUnits="userSpaceOnUse" x2="42.421" gradientTransform="matrix(.46896 .64816 .64816 -.46896 -.000017214 51.84)" y1="122.24" x1="8.3857">
      <stop id="stop246" style="stop-color:#2b1621" offset="0"/>
      <stop id="stop248" style="stop-color:#292c32" offset=".3373"/>
      <stop id="stop252" style="stop-color:#24615c" offset="1"/>
    </linearGradient>
    <linearGradient id="linearGradient266" y2="33.467" gradientUnits="userSpaceOnUse" x2="-19.465" gradientTransform="matrix(.1136 .79192 .78448 -.16528 .0000525 51.839)" y1="33.467" x1="-37.073">
      <stop id="stop268" style="stop-color:#2b1621" offset="0"/>
      <stop id="stop270" style="stop-color:#292237" offset=".36860"/>
      <stop id="stop274" style="stop-color:#243d65" offset="1"/>
    </linearGradient>
    <linearGradient id="linearGradient288" y2="-6.9424" gradientUnits="userSpaceOnUse" x2="-31.563" gradientTransform="matrix(-.36424 .71224 .756 .2788 -.00016313 51.84)" y1="-6.9424" x1="-59.951">
      <stop id="stop290" style="stop-color:#2b1621" offset="0"/>
      <stop id="stop292" style="stop-color:#292c32" offset=".3373"/>
      <stop id="stop296" style="stop-color:#24615c" offset="1"/>
    </linearGradient>
    <clipPath id="clipPath304">
      <path id="path306" d="m0 24.84h101v-25h-101v25z" inkscape:connector-curvature="0"/>
    </clipPath>
    <clipPath id="clipPath310">
      <path id="path312" d="m90.879 7.762c-5.84 5.039-10.106 8.398-12.797 10.078-6 3.785-12.187 5.894-18.562 6.32-3.735 0.266-8-0.426-12.801-2.082-4.774-1.625-7.785-2.383-9.039-2.277-3.254 0.718-5.84 1.105-7.758 1.16-3.442 0.078-7.067-1.149-10.883-3.68-3.894-2.586-7.851-5.949-11.879-10.082-2.535-2.641-4.625-5.039-6.281-7.199l99.48 0.441c-1.625 0.852-4.785 3.293-9.48 7.321z" inkscape:connector-curvature="0"/>
    </clipPath>
    <clipPath id="clipPath318">
      <path id="path320" d="m0 0h120v52h-120v-52z" inkscape:connector-curvature="0"/>
    </clipPath>
    <linearGradient id="linearGradient326" y2="-16811" gradientUnits="userSpaceOnUse" x2="633.53" gradientTransform="matrix(-.06096 -.79768 .79768 -.06096 13498 -524.1)" y1="-16811" x1="595.47">
      <stop id="stop328" style="stop-color:#406ea3" offset="0"/>
      <stop id="stop330" style="stop-color:#314f73" offset=".1882"/>
      <stop id="stop332" style="stop-color:#233549" offset=".3804"/>
      <stop id="stop334" style="stop-color:#1a222b" offset=".55290"/>
      <stop id="stop336" style="stop-color:#141619" offset="0.702"/>
      <stop id="stop338" style="stop-color:#121212" offset=".80780"/>
      <stop id="stop340" style="stop-color:#121212" offset="1"/>
    </linearGradient>
    <clipPath id="clipPath342">
      <path id="path344" d="m36.801 15.719c0.531-1.278 0.867-2.051 1-2.321 1.094-2.16 2.238-3.398 3.437-3.718l0.364-0.078c-0.43 0.398-0.723 0.785-0.883 1.16-0.106 0.293-0.199 0.746-0.278 1.359-0.027 0.133-0.203 0.559-0.519 1.277-0.242 0.536-0.281 0.95-0.121 1.243 0.187-0.321 0.426-0.813 0.719-1.481 0.32-0.613 0.679-1.066 1.082-1.359 0.371-0.266 0.933-0.668 1.679-1.199 0.641-0.481 1.117-0.95 1.438-1.403 0.187-0.293 0.613-0.664 1.281-1.121 0.375-0.266 0.602-0.519 0.68-0.758 0.027-0.054 0.066-0.359 0.121-0.922 0.054-0.453 0.265-1.226 0.64-2.32 0.614-1.84 0.918-3.066 0.918-3.68 0 0.055-6.054 0.055-18.16 0-1.199-0.023-1.758 0.27-1.679 0.883 0.16 1.387 0.132 2.387-0.079 3-0.429 1.199-1.23 2.278-2.402 3.239-0.719 0.613-1.879 1.375-3.48 2.281-2.399 1.359-4.625 2.027-6.68 2-1.981-0.028-4.176-0.696-6.578-2 2.074 2.937 3.988 4.91 5.738 5.918 1.734 1.015 3.906 1.121 6.52 0.32 2.16-0.664 4.121-1.758 5.882-3.277 1.84-1.602 3.371-3.203 4.598-4.801 1.309-1.762 2.375-3.68 3.199-5.762 0.883 1.176 1.414 2.242 1.602 3.199 0.187 0.856 0.133 1.602-0.16 2.243-0.239 0.558-0.879 1.293-1.918 2.199-0.989 0.879-1.59 1.668-1.801 2.359-0.082 0.215-0.149 0.602-0.199 1.16-0.055 0.508-0.137 0.895-0.242 1.161-0.028 0.082-0.239 0.32-0.641 0.718-0.344 0.375-0.52 0.59-0.52 0.641v0.043c0.801-0.027 1.586-0.656 2.36-1.883 0.906-1.437 1.574-2.266 2-2.48-0.531 0.64-1.024 1.761-1.481 3.363-0.426 1.519-0.957 2.625-1.597 3.316-0.801 0.828-1.696 1.508-2.68 2.043-1.254 0.641-2.402 0.879-3.441 0.719 1.839 0.559 3.601 0.559 5.281 0 1.597-0.559 2.879-1.559 3.84-3 0.375-0.559 0.757-1.32 1.16-2.281z" inkscape:connector-curvature="0"/>
    </clipPath>
    <clipPath id="clipPath346">
      <path id="path348" d="m-1521.7-14435h37.135v54.564h-37.135v-54.564z" inkscape:connector-curvature="0"/>
    </clipPath>
    <linearGradient id="linearGradient350" y2="-14410" gradientUnits="userSpaceOnUse" x2="-1481.3" y1="-14410" x1="-1521.2">
      <stop id="stop352" style="stop-color:#ffffff;stop-opacity:.2" offset="0"/>
      <stop id="stop354" style="stop-color:#ffffff;stop-opacity:.27449" offset=".1294"/>
      <stop id="stop356" style="stop-color:#ffffff;stop-opacity:.36469" offset=".35690"/>
      <stop id="stop358" style="stop-color:#ffffff;stop-opacity:.41959" offset=".6196"/>
      <stop id="stop360" style="stop-color:#ffffff;stop-opacity:.43920" offset="1"/>
    </linearGradient>
    <mask id="mask362">
      <g id="g364">
        <g id="g366" clip-path="url(#clipPath346)">
          <path id="path368" style="fill:url(#linearGradient350)" d="m-1521.7-14435h37.135v54.564h-37.135v-54.564z" inkscape:connector-curvature="0"/>
        </g>
      </g>
    </mask>
    <linearGradient id="linearGradient370" y2="-14410" gradientUnits="userSpaceOnUse" x2="-1481.3" y1="-14410" x1="-1521.2">
      <stop id="stop372" style="stop-color:#412d1f" offset="0"/>
      <stop id="stop374" style="stop-color:#34271f" offset=".1294"/>
      <stop id="stop376" style="stop-color:#251f1f" offset=".35690"/>
      <stop id="stop378" style="stop-color:#1c1a1f" offset=".6196"/>
      <stop id="stop380" style="stop-color:#19191f" offset="1"/>
    </linearGradient>
    <clipPath id="clipPath382">
      <path id="path384" d="m83.359 12.441c-1.918 0.637-2.64-0.187-2.16-2.48 0.266-1.199 0.735-2.801 1.403-4.801-0.321 0.078-1.614 1.172-3.883 3.281-1.891 1.758-3.293 2.348-4.199 1.758-0.825-0.558-0.254-2.304 1.718-5.238 1.934-2.91 3.395-4.313 4.383-4.199-4.687-0.668-9.281-0.762-13.781-0.282-0.399 0.051-0.934 0.028-1.602-0.082-0.746-0.078-1.265-0.117-1.558-0.117-0.934 0.239-1.625 0.387-2.078 0.438-0.829 0.082-2.028 0.082-3.602 0-1.652-0.078-2.867-0.094-3.641-0.039 0.188 0 0.133 1.308-0.16 3.922l-0.16 0.359c-0.426 1.199-1.117 2.293-2.078 3.277-0.375 0.375-1.481 1.149-3.32 2.321-1.414 0.882-2.336 1.816-2.762 2.8-0.238 0.829-0.426 1.453-0.559 1.879-0.082 0.215-0.226 0.496-0.441 0.84-0.211 0.375-0.359 0.668-0.438 0.883 0.797-0.348 1.532-1.027 2.2-2.039 0.851-1.281 1.453-2.082 1.8-2.402 0.825-0.692 2.161-1.293 4-1.801 2.586-0.746 4.024-1.172 4.321-1.278 0.718-0.293 1.277-0.64 1.679-1.043-0.273 0.317-0.753 0.914-1.441 1.801-0.668 0.801-1.293 1.414-1.879 1.84-1.121 0.801-1.84 1.375-2.16 1.723-0.695 0.691-1.149 1.492-1.359 2.398 0.586-0.293 1.32-0.894 2.199-1.801 0.906-0.933 1.64-1.558 2.199-1.879 1.254-0.695 3.148-1.734 5.68-3.121 0.906-0.558 1.679-1.199 2.32-1.918 0.188-0.187 0.426-0.519 0.719-1 0.269-0.48 0.508-0.816 0.722-1 0.371-0.32 0.934-0.546 1.68-0.679 0.238-0.055 0.785-0.149 1.641-0.282 0.664-0.105 1.211-0.242 1.636-0.402 0.59-0.238 0.961-0.371 1.122-0.398 0.453-0.106 0.839-0.078 1.16 0.082-0.426 0.133-0.813 0.371-1.16 0.718-0.079 0.106-0.348 0.465-0.801 1.079-1.117 1.203-1.957 2.109-2.52 2.722-0.531 0.614-1.144 1.399-1.84 2.36-1.121 1.547-1.691 2.347-1.718 2.398-0.719 0.961-1.282 1.641-1.68 2.039-0.613 0.617-1.309 1.137-2.082 1.563l-4.438 2.437c-1.015 0.59-1.773 1.027-2.281 1.32-0.879 0.508-1.68 0.856-2.398 1.043 0.984 0.321 1.918 0.321 2.797 0 0.562-0.16 1.429-0.546 2.601-1.16 0.695-0.293 1.774-0.547 3.238-0.761 1.442-0.188 2.497-0.442 3.161-0.758 0.746-0.348 1.562-0.961 2.441-1.84 1.121-1.121 1.855-1.817 2.199-2.082 0.75-0.559 1.789-0.934 3.121-1.121 1.547-0.239 2.614-0.492 3.2-0.758 0.48-0.215 1.496-0.734 3.039-1.563 0.562 0.883 0.32 1.856-0.719 2.922-0.426 0.426-1.32 1.094-2.68 2-0.695 0.453-1.492 1.227-2.398 2.321-1.043 1.254-1.817 2.093-2.321 2.519-0.562 0.481-0.988 0.852-1.281 1.121-0.535 0.426-1 0.731-1.398 0.918 1.093 0.133 2.183 0.082 3.277-0.16 1.359-0.266 2.293-0.758 2.801-1.48 0.215-0.293 0.601-1.024 1.16-2.2 0.426-0.879 0.906-1.547 1.441-2 0.559-0.453 1.25-0.824 2.079-1.121 0.375-0.133 1.132-0.343 2.281-0.636 1.387-0.321 2.867-1.082 4.437-2.282 0.403-0.293 1.684-1.375 3.844-3.242 0.586-0.504 1.652-1.41 3.199-2.719 1.36-1.121 2.414-2.027 3.16-2.718 0.614-0.563 1.52-1.266 2.719-2.121 1.305-0.961 2.215-1.653 2.719-2.079-0.371 0.106-1.344 0.2-2.918 0.278-1.199 0.054-2.066 0.32-2.602 0.801-0.398 0.375-0.894 1.027-1.48 1.96-0.586 0.961-1.078 1.625-1.481 2-0.449 0.426-1.117 0.985-2 1.68-0.957 0.719-1.636 1.266-2.039 1.641-0.8 0.879-1.425 1.558-1.879 2.039-0.8 0.855-1.507 1.387-2.121 1.601z" inkscape:connector-curvature="0"/>
    </clipPath>
    <clipPath id="clipPath386">
      <path id="path388" d="m-1516.3-14390h43.679v74.653h-43.679v-74.653z" inkscape:connector-curvature="0"/>
    </clipPath>
    <linearGradient id="linearGradient390" y2="-14354" gradientUnits="userSpaceOnUse" x2="-1468.5" y1="-14354" x1="-1517.8">
      <stop id="stop392" style="stop-color:#ffffff;stop-opacity:.2" offset="0"/>
      <stop id="stop394" style="stop-color:#ffffff;stop-opacity:.27449" offset=".1294"/>
      <stop id="stop396" style="stop-color:#ffffff;stop-opacity:.36469" offset=".35690"/>
      <stop id="stop398" style="stop-color:#ffffff;stop-opacity:.41959" offset=".6196"/>
      <stop id="stop400" style="stop-color:#ffffff;stop-opacity:.43920" offset="1"/>
    </linearGradient>
    <mask id="mask402">
      <g id="g404">
        <g id="g406" clip-path="url(#clipPath386)">
          <path id="path408" style="fill:url(#linearGradient390)" d="m-1516.3-14390h43.679v74.653h-43.679v-74.653z" inkscape:connector-curvature="0"/>
        </g>
      </g>
    </mask>
    <linearGradient id="linearGradient410" y2="-14354" gradientUnits="userSpaceOnUse" x2="-1468.5" y1="-14354" x1="-1517.8">
      <stop id="stop412" style="stop-color:#412d1f" offset="0"/>
      <stop id="stop414" style="stop-color:#34271f" offset=".1294"/>
      <stop id="stop416" style="stop-color:#251f1f" offset=".35690"/>
      <stop id="stop418" style="stop-color:#1c1a1f" offset=".6196"/>
      <stop id="stop420" style="stop-color:#19191f" offset="1"/>
    </linearGradient>
    <clipPath id="clipPath422">
      <path id="path424" d="m13 7h63v18h-63v-18z" inkscape:connector-curvature="0"/>
    </clipPath>
    <clipPath id="clipPath426">
      <path id="path428" d="m13 7h63v18h-63v-18z" inkscape:connector-curvature="0"/>
    </clipPath>
    <linearGradient id="linearGradient434" y2="-17510" gradientUnits="userSpaceOnUse" x2="1494" gradientTransform="matrix(-.13656 -.78824 .78824 -.13656 14048 -1217.3)" y1="-17510" x1="1458.6">
      <stop id="stop436" style="stop-color:#706157" offset="0"/>
      <stop id="stop438" style="stop-color:#49403a" offset=".25490"/>
      <stop id="stop440" style="stop-color:#2b2724" offset=".498"/>
      <stop id="stop442" style="stop-color:#191717" offset=".7098"/>
      <stop id="stop444" style="stop-color:#121212" offset=".8549"/>
      <stop id="stop446" style="stop-color:#121212" offset="1"/>
    </linearGradient>
    <mask id="mask448">
      <g id="g450">
        <g id="g452" clip-path="url(#clipPath422)">
          <g id="g454">
            <g id="g458">
              <g id="g460" clip-path="url(#clipPath426)">
                <g id="g462">
                  <g id="g464">
                    <g id="g466">
                      <g id="g468">
                        <path id="path470" style="fill-rule:evenodd;fill:url(#linearGradient434)" d="m71.641 16.762c0.32-0.27 0.984-0.707 2-1.321 0.879-0.507 1.504-0.988 1.879-1.441-0.372 0.238-0.918 0.453-1.641 0.641-0.879 0.265-1.453 0.453-1.719 0.558-2.105 0.879-3.535 1.707-4.281 2.481-1.012 1.332-1.906 2.308-2.68 2.922-0.906 0.718-2.094 1.238-3.558 1.558-0.188 0.028-0.668 0.067-1.442 0.121-0.851 0.024-1.238 0-1.16-0.082 0.215-0.187 0.508-0.304 0.883-0.359 0.476-0.078 0.797-0.16 0.957-0.238 0.32-0.161 0.734-0.524 1.242-1.082-0.48 0.292-1.148 0.492-2 0.601-1.094 0.133-1.773 0.238-2.039 0.32-1.281 0.504-2.242 0.864-2.883 1.079-1.117 0.402-2.133 0.535-3.039 0.402-0.719-0.082-1.465-0.297-2.238-0.641-1.043-0.48-1.348-1-0.922-1.562 0.215-0.266 0.707-0.52 1.48-0.758 0.879-0.293 1.415-0.508 1.602-0.641-0.297-0.082-0.668-0.066-1.121 0.039-0.563 0.133-0.934 0.2-1.121 0.2-0.266-0.024-0.586-0.118-0.961-0.278-0.426-0.187-0.734-0.293-0.918-0.32-0.348-0.082-0.68-0.082-1 0-0.293 0.051-0.723 0.184-1.281 0.398-0.535 0.243-0.961 0.387-1.282 0.442-0.343 0.078-0.597 0.133-0.757 0.16-0.215 0-0.403-0.121-0.559-0.359-0.055-0.082-0.094-0.254-0.121-0.524-0.02-0.215 0-0.363 0.059-0.437-0.243 0.16-0.45 0.254-0.622 0.281-0.05-0.856-0.011-1.684 0.122-2.481 0.027-0.269 0.066-0.707 0.121-1.32 0.078-0.508 0.226-0.906 0.441-1.199 0.156-0.215 0.426-0.508 0.797-0.883 0.375-0.371 0.641-0.68 0.801-0.918 0.48-0.641 0.945-1.387 1.402-2.242 0.504-0.984 0.73-1.625 0.68-1.918-0.11 0.078-0.481 0.465-1.121 1.16-0.321 0.344-0.786 0.734-1.403 1.16-0.984 0.641-1.691 1.133-2.117 1.481-0.746 0.586-1.242 1.277-1.48 2.078-0.266 0.828-0.668 1.812-1.2 2.961-0.75 1.679-1.535 2.453-2.359 2.32 0.106-0.32 0.344-0.762 0.719-1.32 0.133-0.348 0.254-0.867 0.359-1.563 0.106-0.718 0.215-1.226 0.32-1.519 0.161-0.531 0.586-1.438 1.282-2.719-0.617 0.746-1.067 1.426-1.364 2.039-0.132 0.293-0.343 0.973-0.636 2.039-0.242 0.856-0.535 1.496-0.883 1.922-0.691 0.906-1.785 1.719-3.277 2.441-1.52 0.747-2.817 1.067-3.883 0.957-0.586-0.05-1.25-0.265-2-0.636-0.879-0.453-1.52-0.735-1.918-0.84-0.906-0.242-2.215-0.801-3.922-1.684-0.453-0.265-1.106-0.531-1.957-0.797-0.934-0.296-1.602-0.535-2-0.722-0.59-0.321-1.281-0.797-2.082-1.438-1.012-0.828-1.668-1.347-1.961-1.562 1.066 2.906 3.746 5.215 8.043 6.922 4.105 1.597 7.691 1.961 10.758 1.078 1.945-0.559 3.679-0.852 5.199-0.879 1.601 0 3.336 0.281 5.203 0.84l5.117 1.48c3.199 1.012 5.906 1.586 8.121 1.719 0.828 0.055 1.918 0.027 3.282-0.078 1.625-0.133 2.718-0.199 3.277-0.199 0.961 0 1.84-0.161 2.641-0.481 0.64-0.242 1.429-0.668 2.359-1.281-0.399-0.051-0.68-0.067-0.84-0.039-0.105-0.375 0.016-0.746 0.359-1.121 0.188-0.215 0.508-0.492 0.961-0.84 0.266-0.293 0.786-0.985 1.563-2.078 0.613-0.907 1.183-1.574 1.719-2z" inkscape:connector-curvature="0"/>
                      </g>
                    </g>
                  </g>
                </g>
              </g>
            </g>
          </g>
        </g>
      </g>
    </mask>
    <clipPath id="clipPath472">
      <path id="path474" d="m13 7h63v18h-63v-18z" inkscape:connector-curvature="0"/>
    </clipPath>
    <clipPath id="clipPath476">
      <path id="path478" d="m13 7h63v18h-63v-18z" inkscape:connector-curvature="0"/>
    </clipPath>
    <clipPath id="clipPath578">
      <path id="path580" d="m29 34.84h56v-29h-56v29z" inkscape:connector-curvature="0"/>
    </clipPath>
    <clipPath id="clipPath584">
      <path id="path586" d="m84.121 32.238c-0.402 0.828-1.016 1.442-1.84 1.84-1.176 0.562-2.535 0.656-4.082 0.281-1.785-0.453-3.277-1.32-4.48-2.597-1.36-1.442-1.934-3.016-1.719-4.723 0.078-0.531 0.359-1.852 0.84-3.961 0.238-1.891-0.16-2.957-1.199-3.199-0.856-0.184-2.106 0.734-3.762 2.761-1.973 2.399-3.481 3.829-4.52 4.278-1.011 0.535-2.171 0.789-3.48 0.762-1.254-0.028-2.426-0.305-3.52-0.84-1.171-0.535-2.066-1.055-2.679-1.559-1.332-1.016-2.282-2.281-2.84-3.801-0.481-1.175-0.332-2.453 0.441-3.84 0.934-1.707 1.453-2.746 1.559-3.121 0.238-0.906-0.121-1.464-1.078-1.679-1.121-0.239-2.321-0.028-3.602 0.64-1.332 0.692-2.855 1.918-4.558 3.68-2.028 2.426-3.497 4.078-4.403 4.961-1.519 1.519-3.027 2.266-4.519 2.238-1.653-0.027-2.985-0.597-4-1.719-0.481-0.562-0.813-1.121-1-1.679 1.492-0.43 2.734-0.934 3.718-1.52 1.707-1.015 3.254-2.48 4.641-4.402 2.613-3.652 5.563-6.266 8.84-7.84 3.867-1.867 7.402-1.746 10.601 0.359 1.282 0.856 2 2.028 2.161 3.52 0.132 1.281-0.161 2.641-0.879 4.082-1.336 2.105-2.149 3.586-2.442 4.441-0.48 1.438 0.149 2.543 1.879 3.317l1.801 0.64c0.906 0.055 1.668-0.199 2.281-0.757 0.879-0.774 2.293-2.614 4.239-5.52 2.082-2.402 4.402-3.336 6.96-2.801 1.493 0.321 2.547 1.293 3.161 2.918 0.558 1.496 0.652 3.242 0.281 5.242-0.453 1.52-0.762 2.719-0.922 3.598-0.293 1.629 0 2.707 0.879 3.242 0.32 0.188 0.816 0.282 1.48 0.282 0.375 0 0.895-0.016 1.563-0.043 1.84 0.16 3.039 0.359 3.598 0.601 0.828 0.375 1.027 1.012 0.601 1.918z" inkscape:connector-curvature="0"/>
    </clipPath>
    <clipPath id="clipPath592">
      <path id="path594" d="m0 0h120v52h-120v-52z" inkscape:connector-curvature="0"/>
    </clipPath>
    <clipPath id="clipPath596">
      <path id="path598" d="m29 2h49v25h-49v-25z" inkscape:connector-curvature="0"/>
    </clipPath>
    <clipPath id="clipPath600">
      <path id="path602" d="m29 2h49v25h-49v-25z" inkscape:connector-curvature="0"/>
    </clipPath>
    <mask id="mask604">
      <g id="g606">
        <g id="g608" clip-path="url(#clipPath596)">
          <g id="g610">
            <g id="g614">
              <g id="g616" clip-path="url(#clipPath600)">
                <g id="g618">
                  <path id="path620" style="fill-rule:evenodd;fill:#6a706e" d="m64.359 14.84-7.32-8.918-9.238-3.281-11.442 8.121-7.078 10.277c0.106-0.078 0.426 0.055 0.957 0.402 0.641 0.399 1.364 0.625 2.16 0.68 2.188 0.133 4.707-1.586 7.563-5.16 2.586-3.199 4.25-5.149 5-5.84 2.293-2.16 4.707-3.348 7.238-3.562 2.613-0.211 4.574 0.347 5.879 1.679 1.043 1.094 1.457 2.297 1.242 3.602-0.054 0.48-0.785 1.945-2.199 4.398-1.254 2.215-1.789 3.828-1.601 4.84 0.265 1.363 1.066 2.348 2.402 2.961 1.25 0.586 2.371 0.641 3.359 0.16 1.52-0.773 3.067-2.574 4.641-5.398 0.746-1.336 1.879-2.426 3.398-3.281 1.547-0.879 2.868-1.094 3.961-0.641 1.973 0.855 2.907 2.266 2.797 4.242-0.211 1.68-0.383 2.984-0.519 3.918-0.239 1.707-0.227 2.348 0.043 1.922 0.453-0.828 0.957-2.856 1.519-6.082 0.16-0.984-0.082-2.32-0.723-4-0.32-0.824-0.652-1.559-1-2.199l-11.039 1.16z" inkscape:connector-curvature="0"/>
                </g>
              </g>
            </g>
          </g>
        </g>
      </g>
    </mask>
    <clipPath id="clipPath622">
      <path id="path624" d="m29 2h49v25h-49v-25z" inkscape:connector-curvature="0"/>
    </clipPath>
    <clipPath id="clipPath626">
      <path id="path628" d="m29 2h49v25h-49v-25z" inkscape:connector-curvature="0"/>
    </clipPath>
    <clipPath id="clipPath630">
      <path id="path632" d="m75 28h9v3h-9v-3z" inkscape:connector-curvature="0"/>
    </clipPath>
    <clipPath id="clipPath634">
      <path id="path636" d="m75 28h9v3h-9v-3z" inkscape:connector-curvature="0"/>
    </clipPath>
    <mask id="mask638">
      <g id="g640">
        <g id="g642" clip-path="url(#clipPath630)">
          <g id="g644">
            <g id="g648">
              <g id="g650" clip-path="url(#clipPath634)">
                <g id="g652">
                  <path id="path654" style="fill-rule:evenodd;fill:#6a706e" d="m83.52 30.48c-0.559-0.32-1.227-0.574-2-0.761-0.426-0.106-1.188-0.106-2.282 0-1.144 0.109-1.863 0.136-2.16 0.082-0.293-0.055-0.691-0.293-1.199-0.723-0.266-0.238-0.348-0.144-0.238 0.281 0.16 0.536 0.453 0.84 0.879 0.922 0.32 0.078 0.949 0.051 1.878-0.082 0.774-0.133 1.707-0.16 2.801-0.078 0.989 0.051 1.762 0.172 2.321 0.359z" inkscape:connector-curvature="0"/>
                </g>
              </g>
            </g>
          </g>
        </g>
      </g>
    </mask>
    <clipPath id="clipPath656">
      <path id="path658" d="m75 28h9v3h-9v-3z" inkscape:connector-curvature="0"/>
    </clipPath>
    <clipPath id="clipPath660">
      <path id="path662" d="m75 28h9v3h-9v-3z" inkscape:connector-curvature="0"/>
    </clipPath>
    <clipPath id="clipPath664">
      <path id="path666" d="m56 20h13v8h-13v-8z" inkscape:connector-curvature="0"/>
    </clipPath>
    <clipPath id="clipPath668">
      <path id="path670" d="m56 20h13v8h-13v-8z" inkscape:connector-curvature="0"/>
    </clipPath>
    <mask id="mask672">
      <g id="g674">
        <g id="g676" clip-path="url(#clipPath664)">
          <g id="g678">
            <g id="g682">
              <g id="g684" clip-path="url(#clipPath668)">
                <g id="g686">
                  <path id="path688" style="fill-rule:evenodd;fill:#ffffff" d="m67.039 23.238c0.481-0.691 0.961-1.465 1.441-2.316 0.375-0.457 0.239-0.43-0.402 0.078-0.613 0.508-1.199 1.121-1.758 1.84-1.281 1.762-2.812 2.922-4.601 3.48-0.879 0.266-1.918 0.387-3.117 0.36-0.934-0.028-1.602-0.106-2-0.239 0.691 0.559 1.503 0.891 2.437 1 0.988 0.106 1.668 0.133 2.039 0.079 0.856-0.106 1.844-0.508 2.961-1.2 1.066-0.668 2.066-1.695 3-3.082z" inkscape:connector-curvature="0"/>
                </g>
              </g>
            </g>
          </g>
        </g>
      </g>
    </mask>
    <clipPath id="clipPath690">
      <path id="path692" d="m56 20h13v8h-13v-8z" inkscape:connector-curvature="0"/>
    </clipPath>
    <clipPath id="clipPath694">
      <path id="path696" d="m56 20h13v8h-13v-8z" inkscape:connector-curvature="0"/>
    </clipPath>
    <clipPath id="clipPath698">
      <path id="path700" d="m52 17h2v7h-2v-7z" inkscape:connector-curvature="0"/>
    </clipPath>
    <clipPath id="clipPath702">
      <path id="path704" d="m52 17h2v7h-2v-7z" inkscape:connector-curvature="0"/>
    </clipPath>
    <mask id="mask706">
      <g id="g708">
        <g id="g710" clip-path="url(#clipPath698)">
          <g id="g712">
            <g id="g716">
              <g id="g718" clip-path="url(#clipPath702)">
                <g id="g720">
                  <path id="path722" style="fill-rule:evenodd;fill:#ffffff" d="m52.961 21.16c-0.055-0.773-0.016-1.414 0.117-1.922 0.055-0.183 0.16-0.476 0.32-0.879 0.137-0.347 0.161-0.64 0.082-0.879-0.402 0.133-0.718 0.586-0.96 1.36-0.215 0.64-0.321 1.226-0.321 1.762 0.028 1.066 0.496 2.199 1.403 3.398v-0.238c0.16-0.242 0.117-0.668-0.122-1.282-0.347-0.773-0.519-1.214-0.519-1.32z" inkscape:connector-curvature="0"/>
                </g>
              </g>
            </g>
          </g>
        </g>
      </g>
    </mask>
    <clipPath id="clipPath724">
      <path id="path726" d="m52 17h2v7h-2v-7z" inkscape:connector-curvature="0"/>
    </clipPath>
    <clipPath id="clipPath728">
      <path id="path730" d="m52 17h2v7h-2v-7z" inkscape:connector-curvature="0"/>
    </clipPath>
    <clipPath id="clipPath732">
      <path id="path734" d="m32 11h23v14h-23v-14z" inkscape:connector-curvature="0"/>
    </clipPath>
    <clipPath id="clipPath736">
      <path id="path738" d="m32 11h23v14h-23v-14z" inkscape:connector-curvature="0"/>
    </clipPath>
    <mask id="mask740">
      <g id="g742">
        <g id="g744" clip-path="url(#clipPath732)">
          <g id="g746">
            <g id="g750">
              <g id="g752" clip-path="url(#clipPath736)">
                <g id="g754">
                  <path id="path756" style="fill-rule:evenodd;fill:#ffffff" d="m54.441 12.602c-0.402-0.536-0.894-0.907-1.48-1.122-1.707-0.613-3.348-0.507-4.922 0.321-1.465 0.746-2.894 1.894-4.277 3.437-0.778 0.856-1.922 2.321-3.442 4.403-0.906 1.254-2.175 2.304-3.8 3.16-0.774 0.48-1.481 0.734-2.122 0.758-0.132 0-0.464-0.079-1-0.239-0.425-0.105-0.757-0.105-1 0 0.082 0.535 0.563 0.825 1.442 0.879 0.586 0.055 1.215 0 1.879-0.16 1.789-0.453 3.562-1.851 5.32-4.199 2.586-3.387 4.773-5.602 6.563-6.641 1.253-0.691 2.398-1.027 3.437-1 0.508 0 1.149 0.227 1.922 0.68 0.719 0.43 1.16 0.641 1.32 0.641 0.531-0.079 0.586-0.387 0.16-0.918z" inkscape:connector-curvature="0"/>
                </g>
              </g>
            </g>
          </g>
        </g>
      </g>
    </mask>
    <clipPath id="clipPath758">
      <path id="path760" d="m32 11h23v14h-23v-14z" inkscape:connector-curvature="0"/>
    </clipPath>
    <clipPath id="clipPath762">
      <path id="path764" d="m32 11h23v14h-23v-14z" inkscape:connector-curvature="0"/>
    </clipPath>
  </defs>
  <g id="g10" transform="matrix(1.25 0 0 -1.25 0 64.8)">
    <g id="g12">
      <g id="g14">
        <g id="g16">
          <g id="g22">
            <path id="path34" style="fill-rule:evenodd;fill:url(#linearGradient24)" d="m77.801 43.558c0.906 0.641 1.652 0.977 2.238 1-0.531-0.293-1.144-0.785-1.84-1.48-1.332-1.383-2.304-3.066-2.918-5.039-0.961-3.172-1.441-6-1.441-8.481 2.027 2.508 4.988 6.961 8.883 13.36-0.828-5.946-3-12.024-6.524-18.238-1.758-3.118-3.437-5.641-5.039-7.559l-11.918 1.398c-0.32-0.586 0.36 2 2.039 7.762 1.094 3.785 1.531 6.703 1.321 8.758-0.028 0.242-0.629 2.629-1.801 7.16-0.692 2.695-0.922 4.813-0.68 6.359 0.133 0.75 0.332 1.243 0.602 1.481-0.348-2.481 0.437-5.453 2.355-8.918 0.961-1.762 1.961-3.254 3-4.481 1.602 2.188 2.016 4.895 1.242 8.122-0.398 1.625-0.961 3.023-1.679 4.199 1.547-0.906 2.812-2.68 3.8-5.321 0.504-1.335 0.852-2.562 1.039-3.679 0.907 2.023 1.493 4.613 1.758 7.758 0.137 1.574 0.176 2.949 0.121 4.121 1.176-1.84 1.614-4.868 1.321-9.078-0.133-2.137-0.403-4.067-0.801-5.801 1.496 3.094 3.133 5.293 4.922 6.597z" inkscape:connector-curvature="0"/>
          </g>
        </g>
      </g>
      <g id="g36">
        <g id="g38">
          <g id="g44">
            <path id="path56" style="fill-rule:evenodd;fill:url(#linearGradient46)" d="m98.602 27.398c-4.028-2-6.657-3.918-7.883-5.758l2.441 1.321c1.918 0.933 3.692 1.531 5.32 1.801-0.8-0.457-1.707-1.028-2.718-1.723-2-1.414-3.496-2.801-4.485-4.16-0.957-1.36-2.144-2.907-3.558-4.641l-1.797-2.199-9 4.762c0 0.347 0.078 0.824 0.238 1.437 0.266 1.227 0.735 2.469 1.399 3.723 2.109 4 5.668 7.386 10.679 10.16-1.172-1.016-2.383-2.215-3.636-3.602-2.508-2.8-3.95-5.16-4.321-7.078l3.758 3.719c3.149 2.613 6.293 4.254 9.441 4.918-1.332-0.719-2.785-1.664-4.359-2.84-3.094-2.32-5.16-4.558-6.199-6.719l7 4.961c5.387 3.227 9.824 4.68 13.316 4.36-1.758-0.641-3.636-1.453-5.636-2.442z" inkscape:connector-curvature="0"/>
          </g>
        </g>
      </g>
      <g id="g58">
        <g id="g60">
          <g id="g66">
            <path id="path78" style="fill-rule:evenodd;fill:url(#linearGradient68)" d="m45.52 46.441c0.855 0.906 1.64 1.614 2.359 2.117-0.586-0.718-1.199-1.812-1.84-3.277-1.227-2.883-1.894-6.121-2-9.723-0.105-3.625 0.082-7.398 0.563-11.32 0.238-1.973 0.492-3.57 0.757-4.797l-9.597-3.32c-1.602 5.574-2.883 10.73-3.84 15.48-0.93 4.711-1.395 9.411-1.402 14.098 0.019-0.555 0.168-1.293 0.441-2.219 0.344-1.199 0.547-1.961 0.598-2.281 0.668-3.57 2.015-6.758 4.043-9.559-0.188 0.274-0.215 1.153-0.082 2.641 0.16 1.734 0.226 2.707 0.199 2.918-0.133 2.188-0.321 3.801-0.559 4.84-0.586 2.562-1.094 4.574-1.519 6.043 2.828-5.707 5.011-10.961 6.558-15.762-0.078 0.266-0.066 0.828 0.039 1.68 0.215 1.707 0.801 3.988 1.762 6.84 0.641 1.922 1.812 3.785 3.52 5.601z" inkscape:connector-curvature="0"/>
          </g>
        </g>
      </g>
      <g id="g80">
        <g id="g82">
          <g id="g88">
            <path id="path100" style="fill-rule:evenodd;fill:url(#linearGradient90)" d="m8.039 16.879c2-1.785 3.535-3 4.602-3.641-1.149 1.817-2.813 3.91-5 6.281l-3.161 3.442 1.758-1.16c1.364-0.961 2.574-1.934 3.641-2.922 1.734-1.598 3.574-3.465 5.519-5.598l-3.16-4.16c-2.023 1.867-4.226 3.441-6.597 4.719-1.469 0.8-2.84 1.172-4.121 1.121-0.665 0-1.172-0.094-1.52-0.281 0.348 0.32 0.855 0.597 1.52 0.839 1.308 0.426 2.734 0.348 4.281-0.242 1.965-0.738 3.246-1.418 3.84-2.039-2.735 2.984-4.965 5.867-6.68 8.641l1.398-1.481c1.2-1.226 2.426-2.398 3.68-3.519z" inkscape:connector-curvature="0"/>
          </g>
        </g>
      </g>
      <g id="g102">
        <g id="g104">
          <g id="g110">
            <path id="path122" style="fill-rule:evenodd;fill:url(#linearGradient112)" d="m77.879 16.601-6.68 1.317c1.922 3.551 3.813 6.777 5.68 9.683 1.844 2.907 3.922 5.625 6.242 8.161-0.082-0.082-1.133-1.989-3.16-5.723-2.16-3.973-3.695-7.293-4.602-9.957 1.309 1.492 3.043 3.879 5.203 7.16 2.161 3.277 3.93 6.199 5.317 8.758-1.332-4.028-3.359-8.559-6.078-13.598l0.918 1.238c0.933 1.094 2.242 2.387 3.922 3.879 2.05 1.789 4.16 3 6.32 3.641 1.09 0.32 1.973 0.469 2.637 0.441-0.664-0.187-1.52-0.574-2.559-1.16-2.078-1.176-4.039-2.722-5.879-4.64-1.84-1.95-3.601-4.067-5.281-6.36l-2-2.84z" inkscape:connector-curvature="0"/>
          </g>
        </g>
      </g>
      <g id="g124">
        <g id="g126">
          <g id="g132">
            <path id="path144" style="fill-rule:evenodd;fill:url(#linearGradient134)" d="m66.762 31.16c-3.684-3.547-5.961-9.547-6.84-18l-11.082-0.082c-0.348 1.441-0.906 3.109-1.68 5-1.547 3.789-3.387 6.855-5.519 9.203l2-1.48c1.574-1.309 2.961-2.817 4.16-4.52-0.723 1.094-1.547 2.531-2.481 4.32-1.867 3.598-3.308 7.172-4.32 10.719l1.559-2.961c1.336-2.265 2.695-4.094 4.082-5.48-0.348 0.586-0.653 1.414-0.922 2.48-0.559 2.106-0.68 4.309-0.36 6.602l0.68-1.723c0.535-1.199 1.055-1.957 1.563-2.277 0.023 0.719 0.183 1.707 0.476 2.957 0.563 2.535 1.524 5.16 2.883 7.883-0.106-1.254-0.106-2.696 0-4.321 0.184-3.281 0.758-5.867 1.719-7.761 1.015 1.839 1.668 4.054 1.961 6.64l0.359-0.679c0.266-0.719 0.441-1.829 0.52-3.321 0.64 0.801 1.175 1.895 1.601 3.281 0.879 2.774 0.84 5.586-0.121 8.438l1.359-2.316c0.907-1.868 1.442-3.629 1.602-5.282 0.184 0.321 0.359 0.813 0.519 1.481 0.266 1.277 0.266 2.707 0 4.277l0.598-1.078c0.402-1.039 0.684-2.387 0.844-4.039 0.746 1.226 1.156 2.48 1.238 3.758 0.481-2.399 0.508-4.52 0.078-6.36l0.762 0.719c0.691 0.535 1.574 0.977 2.641 1.32-1.039-0.933-2.161-2.171-3.36-3.718-2.375-3.094-3.933-6.215-4.679-9.36l0.918 1.438c0.773 1.148 1.64 2.187 2.601 3.121 3.067 2.961 6.359 4.254 9.879 3.879-1.652-0.078-3.398-1-5.238-2.758z" inkscape:connector-curvature="0"/>
          </g>
        </g>
      </g>
      <g id="g146">
        <g id="g148">
          <g id="g154">
            <path id="path166" style="fill-rule:evenodd;fill:url(#linearGradient156)" d="m47.16 27.558c0.535-0.796 0.879-1.531 1.039-2.199l0.199 0.559c0.243 0.48 0.602 0.933 1.082 1.363-0.347-0.32-0.546-1.226-0.601-2.719-0.024-0.8-0.024-1.777 0-2.922-0.024-0.48 0-1.332 0.082-2.558-0.055-1.067-0.359-1.817-0.922-2.242-0.293-0.211-0.613-0.321-0.961-0.321-0.586-0.023-1.172 0.215-1.758 0.723-0.535 0.477-0.894 1-1.082 1.559-0.105 1.066-0.226 2.011-0.359 2.839-0.168 1.301-0.359 2.102-0.578 2.399l0.219-0.16c0.347-0.317 0.746-0.84 1.199-1.559 0.109 0.559 0.082 1.254-0.078 2.082-0.293 1.625-1.094 3.051-2.403 4.278l1.364-0.84c0.984-0.719 1.757-1.493 2.32-2.321 0.051 0.907-0.387 1.946-1.32 3.121l0.597-0.402c0.508-0.426 1.039-1.051 1.602-1.879 0.054 0.828-0.082 1.574-0.403 2.242l0.762-1.043z" inkscape:connector-curvature="0"/>
          </g>
        </g>
      </g>
      <g id="g168">
        <g id="g170">
          <g id="g176">
            <path id="path188" style="fill-rule:evenodd;fill:url(#linearGradient178)" d="m59.359 33.441c0.614 0.586 1.2 0.957 1.762 1.117-1.016-0.933-1.629-2.359-1.844-4.277-0.105-0.934-0.105-1.789 0-2.562 0.137 1.707 0.629 3.082 1.485 4.121 0.426 0.507 0.84 0.855 1.238 1.039-0.719-1.36-1.027-2.946-0.922-4.758 0.055-0.906 0.176-1.68 0.363-2.32 0.532 1.546 1.172 2.652 1.918 3.32 0.375 0.344 0.696 0.531 0.961 0.559-1.226-1.145-1.761-2.879-1.601-5.2 0.082-1.148 0.281-2.187 0.601-3.121l-0.039-3.64c-0.48 0.16-1.109 0.496-1.883 1-1.519 1.015-3.023 2.359-4.519 4.043-1.492 1.679-2.559 3.371-3.199 5.078l-0.52 2.039c0.586-1.305 1.387-2.449 2.399-3.438-0.348 1.574-0.254 3.332 0.281 5.278l0.879 2.441c-0.344-1.121-0.371-2.375-0.078-3.758 0.16-0.695 0.347-1.269 0.558-1.722 0.215 2.027 0.934 3.613 2.16 4.761z" inkscape:connector-curvature="0"/>
          </g>
        </g>
      </g>
      <g id="g190">
        <g id="g192">
          <g id="g198">
            <path id="path210" style="fill-rule:evenodd;fill:url(#linearGradient200)" d="m98.68 14.039c-0.239-0.531-0.332-1.106-0.282-1.719 0.59 0.453 1.524 1.082 2.801 1.879 0.215 0.16 0.403 0.481 0.563 0.961 0.16 0.453 0.332 0.746 0.515 0.879 0.188 0.137 0.348 0.121 0.485-0.039 0.105-0.133 0.105-0.305 0-0.52-0.11-0.215-0.375-0.508-0.801-0.879 1.547 0.719 2.824 1.227 3.84 1.52 0.265 0.078 0.652 0.184 1.16 0.32 0.426 0.16 0.773 0.344 1.039 0.559 0.348 0.293 0.812 0.867 1.398 1.719 0.563 0.8 1.067 1.347 1.524 1.64 0.398 0.293 0.89 0.426 1.476 0.403 0.641-0.028 0.977-0.282 1-0.762 0.028-0.453-0.21-0.801-0.718-1.039-0.106-0.055-0.532-0.188-1.282-0.403-0.503-0.132-0.906-0.332-1.199-0.597-0.105-0.133-0.387-0.496-0.84-1.082 0.641 0.16 1.563 0.039 2.762-0.36 0.426-0.16 0.758-0.265 1-0.32 0.211-0.027 0.52-0.012 0.918 0.039 0.16 0 0.961 0.16 2.399 0.481 0.933 0.187 1.734 0.16 2.402-0.079 0.668-0.214 1-0.574 1-1.082 0.027-0.531-0.481-0.718-1.52-0.558-0.718 0.238-1.293 0.398-1.718 0.48-0.774 0.16-1.161-0.082-1.161-0.718 0.024-0.43 0.84-1.149 2.438-2.161 0.855-0.613 1.43-1.308 1.723-2.082 0.293-0.691 0.238-1.281-0.161-1.757-0.453-0.508-1.16-0.454-2.121 0.156-0.32 0.215-0.828 1.16-1.519 2.844-0.613 1.57-1.094 2.359-1.442 2.359-0.586 0-0.679-0.574-0.281-1.719 0.188-0.59 0.469-1.297 0.844-2.121 0.156-0.851-0.11-1.453-0.801-1.801-0.668-0.347-1.094-0.199-1.281 0.442-0.215 0.691-0.215 1.508 0 2.441 0.215 1.067 0.281 1.84 0.199 2.317-0.184 1.308-0.824 2.082-1.918 2.32-0.746 0.187-1.828 0.105-3.242-0.238-0.211-0.055-0.504-0.176-0.879-0.36-0.453-0.215-0.762-0.347-0.922-0.402l-0.918-0.399c1.067 0.028 2.067-0.386 3-1.242 0.563-0.453 0.934-0.824 1.121-1.117 0.371-0.508 0.508-1.016 0.399-1.523-0.16-0.637-0.492-0.946-1-0.918-0.481 0.027-0.879 0.293-1.2 0.8-0.082 0.133-0.292 0.68-0.64 1.641-0.215 0.664-0.547 1.121-1 1.359-0.692 0.399-1.52 0.387-2.481-0.039-1.093-0.48-1.785-0.91-2.082-1.281 0.215 0.16 0.457 0.16 0.723 0 0.16-0.133 0.078-0.254-0.242-0.359-0.293-0.133-0.653-0.188-1.078-0.16-1.336-0.801-2.481-1.934-3.442-3.399-0.961-1.414-1.574-2.723-1.84-3.922-0.105-0.426-0.16-1.078-0.16-1.961-0.105-0.558-0.531-0.586-1.281-0.078-0.184 0.106-0.398 0.305-0.637 0.598-0.617 1.015-0.629 2.176-0.043 3.48 0.375 0.828 1.067 1.84 2.082 3.039 1.039 1.231 1.664 2.071 1.879 2.524 0.293 0.691 0.375 1.707 0.239 3.039-0.157 1.547 0.253 2.359 1.242 2.437 1.015 0.11 1.254-0.558 0.719-2-0.157-0.398-0.411-0.894-0.758-1.48z" inkscape:connector-curvature="0"/>
          </g>
        </g>
      </g>
      <g id="g212">
        <g id="g214">
          <g id="g220">
            <path id="path232" style="fill-rule:evenodd;fill:url(#linearGradient222)" d="m38.48 33.199 0.719 0.68c0.668 0.508 1.52 0.906 2.563 1.199-0.989-0.879-2.043-2.051-3.16-3.52-2.243-2.933-3.68-5.918-4.321-8.957 0.774 1.493 1.879 2.934 3.321 4.317 2.906 2.777 6.078 3.933 9.519 3.48-1.629-0.027-3.309-0.879-5.043-2.558-3.492-3.309-5.547-9.039-6.156-17.2l-10.801 0.239c-0.293 1.039-0.734 2.293-1.32 3.761l-0.52-0.199-5.601 0.637c-1.039 3.656-2.055 6.988-3.039 10-0.641 1.977-1.575 3.641-2.801 5-1.547 1.441-2.774 2.602-3.68 3.48l2.32-0.64c1.946-0.797 3.973-2.106 6.079-3.918-0.747 1.547-1.68 3.121-2.797 4.719-2.297 3.175-4.43 4.906-6.403 5.199l2.563-0.078c2.051-0.399 3.918-1.426 5.598-3.078 0.082 0.238 0.105 0.531 0.082 0.878-0.082 0.692-0.43 1.293-1.043 1.801l1.679-0.922c1.203-0.824 2.028-1.718 2.481-2.679-1.52 3.761-2.84 6.453-3.957 8.078l2.679-1.957c1.918-1.574 3.254-3.055 4-4.442 1.012-1.812 1.571-3.011 1.68-3.601 0 1.254-0.32 2.59-0.961 4l-3 5.683c1.785-1.148 3.695-2.961 5.719-5.441 0.402 1.121 0.883 2.254 1.441 3.398l-0.039-1.718c0.024-1.387 0.133-2.719 0.321-4 0.933-1.414 1.757-2.828 2.476-4.239 0.508 1.383 0.828 2.918 0.961 4.598l0.359-0.641c0.297-0.746 0.497-1.839 0.602-3.277 0.586 0.774 1.078 1.824 1.48 3.16 0.801 2.664 0.692 5.387-0.32 8.16l1.36-2.281c0.96-1.812 1.535-3.535 1.718-5.16 0.188 0.32 0.336 0.785 0.442 1.398 0.242 1.254 0.215 2.641-0.078 4.161l0.597-1.039c0.453-1.012 0.774-2.333 0.961-3.961 0.695 1.199 1.051 2.402 1.078 3.601 0.535-2.32 0.617-4.359 0.242-6.121z" inkscape:connector-curvature="0"/>
          </g>
        </g>
      </g>
      <g id="g234">
        <g id="g236">
          <g id="g242">
            <path id="path254" style="fill-rule:evenodd;fill:url(#linearGradient244)" d="m97.602 18.359c1.171 0.613 2.21 1.028 3.117 1.242-1.947-0.507-3.853-2.496-5.72-5.961l-2.238-5c1.89 2.051 3.758 3.598 5.597 4.641 0.934 0.504 1.68 0.813 2.243 0.918-1.657-1.305-2.84-2.574-3.563-3.801-0.773-1.281-1.398-3.093-1.879-5.437-0.613-3.121-0.922-4.574-0.922-4.36l-5.476-0.203-7.16 10.68c0.613 1.656 1.933 3.934 3.957 6.84 1.015 1.469 1.961 2.762 2.839 3.883l-0.839-2.082c-0.614-1.598-1.094-2.918-1.438-3.957-0.48-1.465-0.633-2.778-0.461-3.942 0.07 0.578 0.477 1.797 1.219 3.66 0.586 1.465 1.746 3.106 3.48 4.918 0.852 0.907 1.653 1.668 2.403 2.282-0.563-1.094-1.215-2.852-1.961-5.282-0.375-1.199-0.696-2.293-0.961-3.281 0.348 1.043 1.066 2.043 2.16 3 0.559 0.484 1.078 0.867 1.559 1.16-0.559-0.586-1.012-1.504-1.36-2.758-0.187-0.64-0.32-1.214-0.398-1.718 1.465 1.867 3.398 3.386 5.801 4.558z" inkscape:connector-curvature="0"/>
          </g>
        </g>
      </g>
      <g id="g256">
        <g id="g258">
          <g id="g264">
            <path id="path276" style="fill-rule:evenodd;fill:url(#linearGradient266)" d="m27.719 22.281c0.695-1.281 0.933-2.269 0.722-2.961-0.082-0.265-0.8-0.773-2.16-1.519-1.226-0.696-1.789-1.149-1.679-1.36l-1.481 1.321c-0.187 1.464-0.574 2.972-1.16 4.515-1.121 3.149-2.602 4.988-4.441 5.524l1.64-0.364c1.36-0.476 2.695-1.343 4-2.597-0.398 1.519-1.121 3.011-2.16 4.48-0.879 1.25-1.762 2.184-2.641 2.797 0.879-0.211 2.282-1.238 4.2-3.078 1.734-1.68 2.882-3 3.441-3.961 0.266-0.477 0.84-1.41 1.719-2.797z" inkscape:connector-curvature="0"/>
          </g>
        </g>
      </g>
      <g id="g278">
        <g id="g280">
          <g id="g286">
            <path id="path298" style="fill-rule:evenodd;fill:url(#linearGradient288)" d="m15.359 27.558c0.668-0.531 1.149-0.972 1.442-1.32 0.691-0.797 1.32-1.879 1.879-3.238 0.906-2.16 1.398-3.309 1.48-3.442 0.133 1.227 0.371 2.387 0.719 3.481 0.082-0.371 0.266-1.145 0.562-2.32 0.266-0.957 0.438-1.747 0.52-2.36 0.16-1.199 0.211-3 0.16-5.398 0-0.348 0.039-1 0.117-1.961 0.055-0.852-0.023-1.453-0.238-1.801-1.359 0.481-2.398 0.801-3.121 0.961l-1.438 0.242c-1.601 0.184-3.054 0.211-4.363 0.078-2.238 0.055-3.918 0.055-5.039 0-1.945-0.05-3.504-0.601-4.68-1.64 0.746 0.906 1.707 1.629 2.879 2.16 1.414 0.508 2.508 0.949 3.282 1.32-1.708 0.055-2.973 0.094-3.801 0.121-1.348 0.074-2.543 0.364-3.578 0.86 0.75-0.332 1.664-0.473 2.738-0.422 0.535 0.027 1.469 0.176 2.801 0.441 1.199 0.266 2.148 0.387 2.84 0.36 1.148-0.028 1.812-0.051 2-0.079 0.453-0.082 1.082-0.32 1.878-0.722-0.558 1.386-1.453 2.386-2.679 3-1.254 0.64-2.598 0.761-4.039 0.359l1.199 0.68c1.226 0.375 2.883 0.336 4.961-0.117-0.613 0.668-1.426 1.332-2.442 2-2 1.386-3.984 2.132-5.957 2.238 0.637 0.16 1.465 0.215 2.481 0.16 2.078-0.105 4.133-0.664 6.156-1.68-1.012 0.801-2.183 1.547-3.519 2.243-2.692 1.414-4.879 1.878-6.559 1.398 0.773 0.348 1.801 0.586 3.078 0.719 2.535 0.242 5.027-0.227 7.481-1.399-0.637 0.719-1.438 1.481-2.399 2.282-1.84 1.554-3.496 2.527-4.961 2.918l3.84-0.918c2.934-1.149 5.149-2.95 6.641-5.403-0.078 0.453-0.293 1.106-0.641 1.961-0.664 1.68-1.641 3.492-2.918 5.438 0.211-0.293 0.625-0.692 1.238-1.2z" inkscape:connector-curvature="0"/>
          </g>
        </g>
      </g>
    </g>
    <g id="g300">
      <g id="g302" clip-path="url(#clipPath304)">
        <g id="g308" clip-path="url(#clipPath310)">
          <g id="g314" transform="translate(0 -.16032)">
            <g id="g498">
              <g id="g500" clip-path="url(#clipPath318)">
                <g id="g502">
                  <g id="g504">
                    <g id="g506">
                      <g id="g508">
                        <path id="path510" style="fill-rule:evenodd;fill:url(#linearGradient326)" d="m90.879 7.922c4.695-4.027 7.855-6.469 9.48-7.32l-99.481-0.442c1.656 2.16 3.746 4.559 6.281 7.199 4.028 4.133 7.985 7.496 11.879 10.082 3.816 2.532 7.441 3.758 10.883 3.68 1.918-0.055 4.504-0.441 7.758-1.16 1.254-0.106 4.265 0.652 9.039 2.277 4.801 1.657 9.066 2.348 12.801 2.082 6.375-0.425 12.562-2.535 18.562-6.32 2.691-1.68 6.957-5.039 12.797-10.078z" inkscape:connector-curvature="0"/>
                      </g>
                    </g>
                  </g>
                  <g id="g512">
                    <g id="g514" clip-path="url(#clipPath342)">
                      <g id="g516" transform="matrix(.16344 -.78312 .78312 .16344 11558 1188.7)">
                        <g id="g520" mask="url(#mask362)">
                          <path id="path522" style="fill-rule:evenodd;fill:url(#linearGradient370)" d="m36.801 15.719c0.531-1.278 0.867-2.051 1-2.321 1.094-2.16 2.238-3.398 3.437-3.718l0.364-0.078c-0.43 0.398-0.723 0.785-0.883 1.16-0.106 0.293-0.199 0.746-0.278 1.359-0.027 0.133-0.203 0.559-0.519 1.277-0.242 0.536-0.281 0.95-0.121 1.243 0.187-0.321 0.426-0.813 0.719-1.481 0.32-0.613 0.679-1.066 1.082-1.359 0.371-0.266 0.933-0.668 1.679-1.199 0.641-0.481 1.117-0.95 1.438-1.403 0.187-0.293 0.613-0.664 1.281-1.121 0.375-0.266 0.602-0.519 0.68-0.758 0.027-0.054 0.066-0.359 0.121-0.922 0.054-0.453 0.265-1.226 0.64-2.32 0.614-1.84 0.918-3.066 0.918-3.68 0 0.055-6.054 0.055-18.16 0-1.199-0.023-1.758 0.27-1.679 0.883 0.16 1.387 0.132 2.387-0.079 3-0.429 1.199-1.23 2.278-2.402 3.239-0.719 0.613-1.879 1.375-3.48 2.281-2.399 1.359-4.625 2.027-6.68 2-1.981-0.028-4.176-0.696-6.578-2 2.074 2.937 3.988 4.91 5.738 5.918 1.734 1.015 3.906 1.121 6.52 0.32 2.16-0.664 4.121-1.758 5.882-3.277 1.84-1.602 3.371-3.203 4.598-4.801 1.309-1.762 2.375-3.68 3.199-5.762 0.883 1.176 1.414 2.242 1.602 3.199 0.187 0.856 0.133 1.602-0.16 2.243-0.239 0.558-0.879 1.293-1.918 2.199-0.989 0.879-1.59 1.668-1.801 2.359-0.082 0.215-0.149 0.602-0.199 1.16-0.055 0.508-0.137 0.895-0.242 1.161-0.028 0.082-0.239 0.32-0.641 0.718-0.344 0.375-0.52 0.59-0.52 0.641v0.043c0.801-0.027 1.586-0.656 2.36-1.883 0.906-1.437 1.574-2.266 2-2.48-0.531 0.64-1.024 1.761-1.481 3.363-0.426 1.519-0.957 2.625-1.597 3.316-0.801 0.828-1.696 1.508-2.68 2.043-1.254 0.641-2.402 0.879-3.441 0.719 1.839 0.559 3.601 0.559 5.281 0 1.597-0.559 2.879-1.559 3.84-3 0.375-0.559 0.757-1.32 1.16-2.281z" inkscape:connector-curvature="0"/>
                        </g>
                      </g>
                    </g>
                  </g>
                  <g id="g524">
                    <g id="g526" clip-path="url(#clipPath382)">
                      <g id="g528" transform="matrix(.1636 -.78312 .78312 .1636 11556 1189.7)">
                        <g id="g532" mask="url(#mask402)">
                          <path id="path534" style="fill-rule:evenodd;fill:url(#linearGradient410)" d="m83.359 12.441c-1.918 0.637-2.64-0.187-2.16-2.48 0.266-1.199 0.735-2.801 1.403-4.801-0.321 0.078-1.614 1.172-3.883 3.281-1.891 1.758-3.293 2.348-4.199 1.758-0.825-0.558-0.254-2.304 1.718-5.238 1.934-2.91 3.395-4.313 4.383-4.199-4.687-0.668-9.281-0.762-13.781-0.282-0.399 0.051-0.934 0.028-1.602-0.082-0.746-0.078-1.265-0.117-1.558-0.117-0.934 0.239-1.625 0.387-2.078 0.438-0.829 0.082-2.028 0.082-3.602 0-1.652-0.078-2.867-0.094-3.641-0.039 0.188 0 0.133 1.308-0.16 3.922l-0.16 0.359c-0.426 1.199-1.117 2.293-2.078 3.277-0.375 0.375-1.481 1.149-3.32 2.321-1.414 0.882-2.336 1.816-2.762 2.8-0.238 0.829-0.426 1.453-0.559 1.879-0.082 0.215-0.226 0.496-0.441 0.84-0.211 0.375-0.359 0.668-0.438 0.883 0.797-0.348 1.532-1.027 2.2-2.039 0.851-1.281 1.453-2.082 1.8-2.402 0.825-0.692 2.161-1.293 4-1.801 2.586-0.746 4.024-1.172 4.321-1.278 0.718-0.293 1.277-0.64 1.679-1.043-0.273 0.317-0.753 0.914-1.441 1.801-0.668 0.801-1.293 1.414-1.879 1.84-1.121 0.801-1.84 1.375-2.16 1.723-0.695 0.691-1.149 1.492-1.359 2.398 0.586-0.293 1.32-0.894 2.199-1.801 0.906-0.933 1.64-1.558 2.199-1.879 1.254-0.695 3.148-1.734 5.68-3.121 0.906-0.558 1.679-1.199 2.32-1.918 0.188-0.187 0.426-0.519 0.719-1 0.269-0.48 0.508-0.816 0.722-1 0.371-0.32 0.934-0.546 1.68-0.679 0.238-0.055 0.785-0.149 1.641-0.282 0.664-0.105 1.211-0.242 1.636-0.402 0.59-0.238 0.961-0.371 1.122-0.398 0.453-0.106 0.839-0.078 1.16 0.082-0.426 0.133-0.813 0.371-1.16 0.718-0.079 0.106-0.348 0.465-0.801 1.079-1.117 1.203-1.957 2.109-2.52 2.722-0.531 0.614-1.144 1.399-1.84 2.36-1.121 1.547-1.691 2.347-1.718 2.398-0.719 0.961-1.282 1.641-1.68 2.039-0.613 0.617-1.309 1.137-2.082 1.563l-4.438 2.437c-1.015 0.59-1.773 1.027-2.281 1.32-0.879 0.508-1.68 0.856-2.398 1.043 0.984 0.321 1.918 0.321 2.797 0 0.562-0.16 1.429-0.546 2.601-1.16 0.695-0.293 1.774-0.547 3.238-0.761 1.442-0.188 2.497-0.442 3.161-0.758 0.746-0.348 1.562-0.961 2.441-1.84 1.121-1.121 1.855-1.817 2.199-2.082 0.75-0.559 1.789-0.934 3.121-1.121 1.547-0.239 2.614-0.492 3.2-0.758 0.48-0.215 1.496-0.734 3.039-1.563 0.562 0.883 0.32 1.856-0.719 2.922-0.426 0.426-1.32 1.094-2.68 2-0.695 0.453-1.492 1.227-2.398 2.321-1.043 1.254-1.817 2.093-2.321 2.519-0.562 0.481-0.988 0.852-1.281 1.121-0.535 0.426-1 0.731-1.398 0.918 1.093 0.133 2.183 0.082 3.277-0.16 1.359-0.266 2.293-0.758 2.801-1.48 0.215-0.293 0.601-1.024 1.16-2.2 0.426-0.879 0.906-1.547 1.441-2 0.559-0.453 1.25-0.824 2.079-1.121 0.375-0.133 1.132-0.343 2.281-0.636 1.387-0.321 2.867-1.082 4.437-2.282 0.403-0.293 1.684-1.375 3.844-3.242 0.586-0.504 1.652-1.41 3.199-2.719 1.36-1.121 2.414-2.027 3.16-2.718 0.614-0.563 1.52-1.266 2.719-2.121 1.305-0.961 2.215-1.653 2.719-2.079-0.371 0.106-1.344 0.2-2.918 0.278-1.199 0.054-2.066 0.32-2.602 0.801-0.398 0.375-0.894 1.027-1.48 1.96-0.586 0.961-1.078 1.625-1.481 2-0.449 0.426-1.117 0.985-2 1.68-0.957 0.719-1.636 1.266-2.039 1.641-0.8 0.879-1.425 1.558-1.879 2.039-0.8 0.855-1.507 1.387-2.121 1.601z" inkscape:connector-curvature="0"/>
                        </g>
                      </g>
                    </g>
                  </g>
                  <g id="g536">
                    <g id="g540" mask="url(#mask448)">
                      <g id="g544">
                        <g id="g546" clip-path="url(#clipPath472)">
                          <g id="g548">
                            <g id="g552">
                              <g id="g554" clip-path="url(#clipPath476)">
                                <g id="g556">
                                  <g id="g558">
                                    <g id="g560">
                                      <g id="g562">
                                        <path id="path564" style="fill:url(#linearGradient434);fill-rule:evenodd" d="m71.641 16.762c0.32-0.27 0.984-0.707 2-1.321 0.879-0.507 1.504-0.988 1.879-1.441-0.372 0.238-0.918 0.453-1.641 0.641-0.879 0.265-1.453 0.453-1.719 0.558-2.105 0.879-3.535 1.707-4.281 2.481-1.012 1.332-1.906 2.308-2.68 2.922-0.906 0.718-2.094 1.238-3.558 1.558-0.188 0.028-0.668 0.067-1.442 0.121-0.851 0.024-1.238 0-1.16-0.082 0.215-0.187 0.508-0.304 0.883-0.359 0.476-0.078 0.797-0.16 0.957-0.238 0.32-0.161 0.734-0.524 1.242-1.082-0.48 0.292-1.148 0.492-2 0.601-1.094 0.133-1.773 0.238-2.039 0.32-1.281 0.504-2.242 0.864-2.883 1.079-1.117 0.402-2.133 0.535-3.039 0.402-0.719-0.082-1.465-0.297-2.238-0.641-1.043-0.48-1.348-1-0.922-1.562 0.215-0.266 0.707-0.52 1.48-0.758 0.879-0.293 1.415-0.508 1.602-0.641-0.297-0.082-0.668-0.066-1.121 0.039-0.563 0.133-0.934 0.2-1.121 0.2-0.266-0.024-0.586-0.118-0.961-0.278-0.426-0.187-0.734-0.293-0.918-0.32-0.348-0.082-0.68-0.082-1 0-0.293 0.051-0.723 0.184-1.281 0.398-0.535 0.243-0.961 0.387-1.282 0.442-0.343 0.078-0.597 0.133-0.757 0.16-0.215 0-0.403-0.121-0.559-0.359-0.055-0.082-0.094-0.254-0.121-0.524-0.02-0.215 0-0.363 0.059-0.437-0.243 0.16-0.45 0.254-0.622 0.281-0.05-0.856-0.011-1.684 0.122-2.481 0.027-0.269 0.066-0.707 0.121-1.32 0.078-0.508 0.226-0.906 0.441-1.199 0.156-0.215 0.426-0.508 0.797-0.883 0.375-0.371 0.641-0.68 0.801-0.918 0.48-0.641 0.945-1.387 1.402-2.242 0.504-0.984 0.73-1.625 0.68-1.918-0.11 0.078-0.481 0.465-1.121 1.16-0.321 0.344-0.786 0.734-1.403 1.16-0.984 0.641-1.691 1.133-2.117 1.481-0.746 0.586-1.242 1.277-1.48 2.078-0.266 0.828-0.668 1.812-1.2 2.961-0.75 1.679-1.535 2.453-2.359 2.32 0.106-0.32 0.344-0.762 0.719-1.32 0.133-0.348 0.254-0.867 0.359-1.563 0.106-0.718 0.215-1.226 0.32-1.519 0.161-0.531 0.586-1.438 1.282-2.719-0.617 0.746-1.067 1.426-1.364 2.039-0.132 0.293-0.343 0.973-0.636 2.039-0.242 0.856-0.535 1.496-0.883 1.922-0.691 0.906-1.785 1.719-3.277 2.441-1.52 0.747-2.817 1.067-3.883 0.957-0.586-0.05-1.25-0.265-2-0.636-0.879-0.453-1.52-0.735-1.918-0.84-0.906-0.242-2.215-0.801-3.922-1.684-0.453-0.265-1.106-0.531-1.957-0.797-0.934-0.296-1.602-0.535-2-0.722-0.59-0.321-1.281-0.797-2.082-1.438-1.012-0.828-1.668-1.347-1.961-1.562 1.066 2.906 3.746 5.215 8.043 6.922 4.105 1.597 7.691 1.961 10.758 1.078 1.945-0.559 3.679-0.852 5.199-0.879 1.601 0 3.336 0.281 5.203 0.84l5.117 1.48c3.199 1.012 5.906 1.586 8.121 1.719 0.828 0.055 1.918 0.027 3.282-0.078 1.625-0.133 2.718-0.199 3.277-0.199 0.961 0 1.84-0.161 2.641-0.481 0.64-0.242 1.429-0.668 2.359-1.281-0.399-0.051-0.68-0.067-0.84-0.039-0.105-0.375 0.016-0.746 0.359-1.121 0.188-0.215 0.508-0.492 0.961-0.84 0.266-0.293 0.786-0.985 1.563-2.078 0.613-0.907 1.183-1.574 1.719-2z" inkscape:connector-curvature="0"/>
                                      </g>
                                    </g>
                                  </g>
                                </g>
                              </g>
                            </g>
                          </g>
                        </g>
                      </g>
                    </g>
                  </g>
                </g>
              </g>
            </g>
          </g>
        </g>
      </g>
    </g>
    <g id="g566">
      <path id="path568" style="fill-rule:evenodd;fill:#24241f" d="m61.398 23.961c-2.636-0.723-4.386-1.375-5.238-1.961-0.773-0.559-1.894-1.012-3.359-1.36-1.574-0.402-2.266-0.253-2.082 0.438 0.508 1.656 1.453 3.027 2.84 4.121 0.586 0.481 1.519 1.027 2.8 1.641 1.282 0.586 2.629 0.867 4.039 0.84 1.524-0.051 2.774-0.481 3.762-1.282 0.692-0.558 0.442-1.133-0.762-1.718l-2-0.719z" inkscape:connector-curvature="0"/>
      <path id="path570" style="fill-rule:evenodd;fill:#0f0f0f" d="m34.68 24.359c1.492 0.028 3-0.719 4.519-2.242 0.906-0.879 2.375-2.531 4.403-4.957 1.703-1.762 3.226-2.988 4.558-3.68 1.281-0.668 2.481-0.883 3.602-0.64 0.957 0.211 1.316 0.773 1.078 1.679-0.106 0.375-0.625 1.414-1.559 3.121-0.668 1.172-0.855 2.293-0.562 3.36 0.269 1.066 0.922 1.812 1.961 2.238 1.945 0.801 3.906 0.762 5.879-0.121-1.973-0.77-2.731-1.906-2.278-3.398 0.266-0.879 1.094-2.399 2.481-4.559 0.718-1.441 1.011-2.801 0.879-4.082-0.161-1.492-0.879-2.664-2.161-3.52-3.199-2.105-6.734-2.226-10.601-0.359-3.277 1.574-6.227 4.188-8.84 7.84-1.387 1.922-2.934 3.387-4.641 4.402-0.984 0.586-2.226 1.09-3.718 1.52 0.187 0.558 0.519 1.117 1 1.679 1.015 1.122 2.347 1.692 4 1.719z" inkscape:connector-curvature="0"/>
      <path id="path572" style="fill-rule:evenodd;fill:#181818" d="m82.281 34.078c0.824-0.398 1.442-1.012 1.84-1.84 0.426-0.906 0.227-1.543-0.601-1.918-0.559-0.242-1.758-0.441-3.598-0.601-0.668 0.027-1.188 0.043-1.563 0.043-0.664 0-1.16-0.094-1.48-0.282-0.879-0.535-1.172-1.613-0.879-3.242 0.16-0.879 0.465-2.078 0.922-3.598 0.371-2 0.277-3.746-0.281-5.242-0.614-1.625-1.668-2.597-3.161-2.918-2.558-0.535-4.882 0.399-6.96 2.801-1.946 2.906-3.36 4.746-4.243 5.52-0.718 0.613-1.613 0.851-2.679 0.718-0.266-0.027-0.825-0.187-1.68-0.48-0.48-0.16-0.238 0.519 0.723 2.039 0.879 1.441 1.984 2.16 3.32 2.16 1.437 0 3.211-1.305 5.316-3.918 2.055-2.508 3.508-3.652 4.36-3.441 1.043 0.238 1.441 1.308 1.203 3.199-0.481 2.109-0.762 3.43-0.84 3.961-0.215 1.707 0.359 3.281 1.719 4.723 1.203 1.277 2.695 2.144 4.48 2.597 1.547 0.375 2.906 0.281 4.082-0.281z" inkscape:connector-curvature="0"/>
    </g>
    <g id="g574">
      <g id="g576" clip-path="url(#clipPath578)">
        <g id="g582" clip-path="url(#clipPath584)">
          <g id="g588" transform="translate(0 -.16032)">
            <g id="g766">
              <g id="g768" clip-path="url(#clipPath592)">
                <g id="g770">
                  <path id="path772" style="fill-rule:evenodd;fill:#c22e26" d="m33.199 19.48-1.801-0.242c-0.105 0.563-0.132 1.176-0.078 1.84 0.106 1.309 0.559 2.363 1.36 3.16 0.586 0.59 1.347 0.989 2.281 1.203 1.012 0.239 2.094 0.211 3.238-0.082l-0.398-1.437c-1.867 0.449-3.176 0.316-3.922-0.402-0.481-0.454-0.746-1.161-0.801-2.122-0.051-0.664-0.012-1.304 0.121-1.918z" inkscape:connector-curvature="0"/>
                  <path id="path774" style="fill-rule:evenodd;fill:#c22e26" d="m35.199 17.238-1.519-0.117c-0.055 0.774 0 1.57 0.16 2.399 0.293 1.625 0.933 2.761 1.922 3.402 0.636 0.426 1.449 0.504 2.437 0.238 0.774-0.187 1.84-0.652 3.199-1.398l-0.636-0.723c-0.723 0.535-1.348 0.856-1.883 0.961-0.691 0.16-1.465 0.055-2.32-0.32-0.614-0.293-1.024-1-1.239-2.121-0.16-0.774-0.199-1.547-0.121-2.321z" inkscape:connector-curvature="0"/>
                  <path id="path776" style="fill-rule:evenodd;fill:#c22e26" d="m41.078 19.84c0.457-0.106 1.242-0.426 2.363-0.961l-0.16-0.879c-1.441 0.695-2.535 0.785-3.281 0.281-0.586-0.347-1.012-1.015-1.281-2-0.211-0.668-0.321-1.336-0.321-2h-1.476c0 0.692 0.09 1.414 0.277 2.16 0.375 1.465 1.039 2.504 2 3.118 0.563 0.347 1.188 0.441 1.879 0.281z" inkscape:connector-curvature="0"/>
                  <path id="path778" style="fill-rule:evenodd;fill:#c22e26" d="m46.238 15.359c-1.89-0.078-3.105-0.586-3.636-1.519-0.481-0.801-0.536-1.867-0.161-3.199 0.161-0.696 0.387-1.309 0.68-1.84l-1.359-0.68c-0.348 0.691-0.617 1.465-0.801 2.32-0.402 1.68-0.281 3.067 0.359 4.161 0.426 0.718 1.055 1.238 1.879 1.558 0.856 0.348 1.828 0.426 2.922 0.238l0.117-1.039z" inkscape:connector-curvature="0"/>
                  <path id="path780" style="fill-rule:evenodd;fill:#c22e26" d="m46.84 8.879c0.371-1.332 1.187-2.387 2.441-3.16 0.641-0.399 1.266-0.664 1.879-0.797l-0.281-1.442c-0.801 0.161-1.598 0.481-2.399 0.961-1.574 0.957-2.601 2.305-3.082 4.039-0.398 1.625-0.25 3.012 0.442 4.161 0.48 0.8 1.254 1.332 2.32 1.597 0.535 0.16 1.039 0.227 1.52 0.203l0.039-0.761c-0.293-0.078-0.625-0.215-1-0.399-0.746-0.375-1.293-0.855-1.641-1.441-0.476-0.801-0.558-1.785-0.238-2.961z" inkscape:connector-curvature="0"/>
                  <path id="path782" style="fill-rule:evenodd;fill:#c22e26" d="m57.121 5.121-0.121-1.519c-0.852 0-1.746 0.183-2.68 0.558-1.867 0.774-3.16 2.172-3.879 4.199-0.48 1.36-0.519 2.746-0.121 4.161 0.481 1.148 0.719 1.734 0.719 1.761l1.281-0.801c0-0.027-0.121-0.402-0.359-1.121-0.16-0.906-0.055-1.894 0.32-2.961 0.586-1.652 1.559-2.863 2.918-3.636 0.696-0.375 1.336-0.59 1.922-0.641z" inkscape:connector-curvature="0"/>
                  <path id="path784" style="fill-rule:evenodd;fill:#c22e26" d="m60.602 5.559-1.442-0.399c-0.398 1.465-1.105 3.028-2.121 4.68-0.961 1.574-2.039 2.64-3.238 3.199-1.039 0.266-1.586 0.402-1.641 0.402l0.121 0.559c0.051 0 0.864 0.066 2.438 0.199 1.789-0.238 3.269-1.332 4.441-3.277 0.668-1.121 1.106-2.336 1.32-3.641 0.106-0.668 0.145-1.242 0.122-1.722z" inkscape:connector-curvature="0"/>
                  <path id="path786" style="fill-rule:evenodd;fill:#c22e26" d="m61 14.199c0.695-1.066 1.254-2.133 1.68-3.199l-1.36-0.602c-0.347 0.774-0.812 1.575-1.398 2.403-1.203 1.625-2.43 2.613-3.684 2.961-1.039 0.293-2 0.039-2.879-0.762-0.425-0.398-0.773-0.84-1.039-1.32l-0.601 0.281c0.855 3.305 2.48 4.652 4.883 4.039 1.543-0.426 3.011-1.695 4.398-3.801z" inkscape:connector-curvature="0"/>
                  <path id="path788" style="fill-rule:evenodd;fill:#c22e26" d="m52.602 22.078c0.933 0.348 1.839 0.215 2.718-0.398 0.719-0.508 1.492-1.387 2.321-2.641l-0.219-0.641c-0.961 0.813-1.805 1.321-2.543 1.524-0.641 0.183-1.266 0.133-1.879-0.16-0.48-0.242-0.922-0.684-1.32-1.321-0.188-0.32-0.332-0.613-0.442-0.882l-1.437 0.242c0.027 0 0.211 0.547 0.558 1.64 0.426 1.36 1.176 2.239 2.243 2.637zm4.82-3.68c0.043-0.035 0.09-0.074 0.137-0.117l-0.278-0.242 0.141 0.359z" inkscape:connector-curvature="0"/>
                  <path id="path790" style="fill-rule:evenodd;fill:#c22e26" d="m52.16 24.398c0.879 1.094 1.84 1.575 2.879 1.442 0.641-0.078 1.199-0.442 1.68-1.078 0.375-0.457 0.816-1.242 1.32-2.364l-1.359-0.597c-0.668 1.492-1.52 2.371-2.559 2.64-0.613 0.161-1.226-0.027-1.84-0.562l-0.801-0.879-0.402-0.359c0.027 0.027 0.387 0.613 1.082 1.757z" inkscape:connector-curvature="0"/>
                  <path id="path792" style="fill-rule:evenodd;fill:#c22e26" d="m60.52 22.84-1.442-0.442c-0.023 0.801-0.437 1.961-1.238 3.481-0.774 1.359-1.16 2.055-1.16 2.082l1.961 0.559c0.027-0.055 0.187-0.735 0.48-2.04 0.371-1.468 0.84-2.679 1.399-3.64z" inkscape:connector-curvature="0"/>
                  <path id="path794" style="fill-rule:evenodd;fill:#c22e26" d="m62.441 22.199-1.921-0.078c-0.161 0.879-0.227 1.719-0.2 2.52 0.078 1.547 0.575 2.519 1.481 2.918 0.586 0.269 1.172 0.32 1.758 0.16 0.054-0.028 0.746-0.305 2.082-0.84l-0.243-0.68c-0.878 0.375-1.343 0.574-1.398 0.602-0.559 0.187-0.973 0.172-1.238-0.039-0.59-0.457-0.84-1.215-0.762-2.282 0.027-0.347 0.172-1.105 0.441-2.281z" inkscape:connector-curvature="0"/>
                  <path id="path796" style="fill-rule:evenodd;fill:#c22e26" d="m64.441 19.719-1.48-0.16c-0.133 0.613-0.133 1.375 0 2.281 0.184 1.441 0.68 2.426 1.48 2.961 1.012 0.691 2.36 0.597 4.039-0.281l-0.718-1.321c-1.149 0.586-1.977 0.707-2.481 0.36-0.426-0.293-0.707-0.918-0.84-1.879-0.082-0.692-0.082-1.348 0-1.961z" inkscape:connector-curvature="0"/>
                  <path id="path798" style="fill-rule:evenodd;fill:#c22e26" d="m66.801 13.32c-0.375 1.121-0.641 2.321-0.801 3.602-0.293 2.293-0.039 3.933 0.762 4.918 0.636 0.773 1.558 1.094 2.758 0.961l-0.161-1.481c-0.664 0.051-1.148-0.093-1.437-0.441-0.481-0.559-0.641-1.641-0.481-3.238 0.106-1.282 0.36-2.575 0.758-3.879l-1.398-0.442z" inkscape:connector-curvature="0"/>
                  <path id="path800" style="fill-rule:evenodd;fill:#c22e26" d="m72.039 20.52c-0.027-0.055-0.371-0.758-1.039-2.122-0.398-1.543 0.012-2.906 1.238-4.078l-1.039-1.082c-1.414 1.364-2.027 2.922-1.84 4.684 0.161 1.359 0.668 2.543 1.52 3.558l1.16-0.96z" inkscape:connector-curvature="0"/>
                  <path id="path802" style="fill-rule:evenodd;fill:#c22e26" d="m79.961 17.398c-0.668-0.878-1.481-1.464-2.441-1.757-0.641-0.215-1.332-0.282-2.079-0.2-1.601 0.161-2.761 1.012-3.48 2.559-0.535 1.148-0.75 2.414-0.641 3.801l1.481-0.121c0-0.051 0.078-0.825 0.238-2.321 0.402-1.519 1.254-2.332 2.563-2.437 1.304-0.11 2.332 0.305 3.078 1.238 0.425 0.586 0.679 1.16 0.761 1.719l1.481-0.277c-0.16-0.774-0.481-1.508-0.961-2.204z" inkscape:connector-curvature="0"/>
                  <path id="path804" style="fill-rule:evenodd;fill:#c22e26" d="m78.84 20.32-1.16-0.441c-1.387-0.426-2.625-0.399-3.719 0.082-0.801 0.344-1.469 0.918-2 1.719-0.375 0.718-0.574 1.093-0.602 1.121l1.403 0.437c0.023 0 0.172-0.25 0.437-0.758 0.375-0.535 0.828-0.921 1.36-1.16 0.988-0.425 2.203-0.308 3.64 0.36l0.641-1.36z" inkscape:connector-curvature="0"/>
                  <path id="path806" style="fill-rule:evenodd;fill:#c22e26" d="m77.84 25.078c-0.719-0.773-1.442-1.25-2.16-1.437-0.559-0.161-1.094-0.188-1.602-0.082-0.984 0.214-1.863 0.906-2.637 2.082-0.48 0.746-0.789 1.359-0.921 1.839l1.402 0.481c0.183-0.563 0.465-1.106 0.84-1.641 0.531-0.746 1.078-1.187 1.636-1.32 0.696-0.16 1.497 0.215 2.403 1.121l1.039-1.043z" inkscape:connector-curvature="0"/>
                  <path id="path808" style="fill-rule:evenodd;fill:#c22e26" d="m71.602 31.281 0.679 0.199v0.079l-0.64 0.363 0.757 0.398c0.321-0.054 0.547-0.347 0.68-0.879 0.375-1.629 0.977-2.656 1.801-3.082 0.641-0.347 1.453-0.359 2.441-0.039l0.481-1.398-0.242-0.082c-1.278-0.399-2.414-0.332-3.399 0.199-1.226 0.668-2.066 2.027-2.519 4.082l-0.039 0.16z" inkscape:connector-curvature="0"/>
                  <path id="path810" style="fill-rule:evenodd;fill:#666669" d="m80.602 31.762 0.796-0.403c-1.437-0.187-2.558-0.265-3.359-0.238-0.801 0.051-1.238 0.094-1.32 0.117-0.211 0.137-0.012 0.43 0.601 0.883 0.559 0.426 1.227 0.504 2 0.238 0.399-0.132 0.825-0.332 1.282-0.597z" inkscape:connector-curvature="0"/>
                  <path id="path812" style="fill-rule:evenodd;fill:#505050" d="m82.52 34.078 0.32-0.156c0.238-0.137 0.441-0.281 0.601-0.442 0.321-0.375 0.387-0.718 0.2-1.039-0.055-0.082-0.227 0.133-0.52 0.637-0.348 0.617-0.547 0.949-0.601 1z" inkscape:connector-curvature="0"/>
                  <g id="g814">
                    <g id="g818" mask="url(#mask604)">
                      <g id="g822">
                        <g id="g824" clip-path="url(#clipPath622)">
                          <g id="g826">
                            <g id="g830">
                              <g id="g832" clip-path="url(#clipPath626)">
                                <g id="g834">
                                  <path id="path836" style="fill-rule:evenodd;fill:#6a706e" d="m64.359 14.84-7.32-8.918-9.238-3.281-11.442 8.121-7.078 10.277c0.106-0.078 0.426 0.055 0.957 0.402 0.641 0.399 1.364 0.625 2.16 0.68 2.188 0.133 4.707-1.586 7.563-5.16 2.586-3.199 4.25-5.149 5-5.84 2.293-2.16 4.707-3.348 7.238-3.562 2.613-0.211 4.574 0.347 5.879 1.679 1.043 1.094 1.457 2.297 1.242 3.602-0.054 0.48-0.785 1.945-2.199 4.398-1.254 2.215-1.789 3.828-1.601 4.84 0.265 1.363 1.066 2.348 2.402 2.961 1.25 0.586 2.371 0.641 3.359 0.16 1.52-0.773 3.067-2.574 4.641-5.398 0.746-1.336 1.879-2.426 3.398-3.281 1.547-0.879 2.868-1.094 3.961-0.641 1.973 0.855 2.907 2.266 2.797 4.242-0.211 1.68-0.383 2.984-0.519 3.918-0.239 1.707-0.227 2.348 0.043 1.922 0.453-0.828 0.957-2.856 1.519-6.082 0.16-0.984-0.082-2.32-0.723-4-0.32-0.824-0.652-1.559-1-2.199l-11.039 1.16z" inkscape:connector-curvature="0"/>
                                </g>
                              </g>
                            </g>
                          </g>
                        </g>
                      </g>
                    </g>
                  </g>
                  <g id="g838">
                    <g id="g842" mask="url(#mask638)">
                      <g id="g846">
                        <g id="g848" clip-path="url(#clipPath656)">
                          <g id="g850">
                            <g id="g854">
                              <g id="g856" clip-path="url(#clipPath660)">
                                <g id="g858">
                                  <path id="path860" style="fill-rule:evenodd;fill:#6a706e" d="m83.52 30.48c-0.559-0.32-1.227-0.574-2-0.761-0.426-0.106-1.188-0.106-2.282 0-1.144 0.109-1.863 0.136-2.16 0.082-0.293-0.055-0.691-0.293-1.199-0.723-0.266-0.238-0.348-0.144-0.238 0.281 0.16 0.536 0.453 0.84 0.879 0.922 0.32 0.078 0.949 0.051 1.878-0.082 0.774-0.133 1.707-0.16 2.801-0.078 0.989 0.051 1.762 0.172 2.321 0.359z" inkscape:connector-curvature="0"/>
                                </g>
                              </g>
                            </g>
                          </g>
                        </g>
                      </g>
                    </g>
                  </g>
                  <g id="g862">
                    <g id="g866" mask="url(#mask672)">
                      <g id="g870">
                        <g id="g872" clip-path="url(#clipPath690)">
                          <g id="g874">
                            <g id="g878">
                              <g id="g880" clip-path="url(#clipPath694)">
                                <g id="g882">
                                  <path id="path884" style="fill-rule:evenodd;fill:#ffffff" d="m67.039 23.238c0.481-0.691 0.961-1.465 1.441-2.316 0.375-0.457 0.239-0.43-0.402 0.078-0.613 0.508-1.199 1.121-1.758 1.84-1.281 1.762-2.812 2.922-4.601 3.48-0.879 0.266-1.918 0.387-3.117 0.36-0.934-0.028-1.602-0.106-2-0.239 0.691 0.559 1.503 0.891 2.437 1 0.988 0.106 1.668 0.133 2.039 0.079 0.856-0.106 1.844-0.508 2.961-1.2 1.066-0.668 2.066-1.695 3-3.082z" inkscape:connector-curvature="0"/>
                                </g>
                              </g>
                            </g>
                          </g>
                        </g>
                      </g>
                    </g>
                  </g>
                  <g id="g886">
                    <g id="g890" mask="url(#mask706)">
                      <g id="g894">
                        <g id="g896" clip-path="url(#clipPath724)">
                          <g id="g898">
                            <g id="g902">
                              <g id="g904" clip-path="url(#clipPath728)">
                                <g id="g906">
                                  <path id="path908" style="fill-rule:evenodd;fill:#ffffff" d="m52.961 21.16c-0.055-0.773-0.016-1.414 0.117-1.922 0.055-0.183 0.16-0.476 0.32-0.879 0.137-0.347 0.161-0.64 0.082-0.879-0.402 0.133-0.718 0.586-0.96 1.36-0.215 0.64-0.321 1.226-0.321 1.762 0.028 1.066 0.496 2.199 1.403 3.398v-0.238c0.16-0.242 0.117-0.668-0.122-1.282-0.347-0.773-0.519-1.214-0.519-1.32z" inkscape:connector-curvature="0"/>
                                </g>
                              </g>
                            </g>
                          </g>
                        </g>
                      </g>
                    </g>
                  </g>
                  <g id="g910">
                    <g id="g914" mask="url(#mask740)">
                      <g id="g918">
                        <g id="g920" clip-path="url(#clipPath758)">
                          <g id="g922">
                            <g id="g926">
                              <g id="g928" clip-path="url(#clipPath762)">
                                <g id="g930">
                                  <path id="path932" style="fill-rule:evenodd;fill:#ffffff" d="m54.441 12.602c-0.402-0.536-0.894-0.907-1.48-1.122-1.707-0.613-3.348-0.507-4.922 0.321-1.465 0.746-2.894 1.894-4.277 3.437-0.778 0.856-1.922 2.321-3.442 4.403-0.906 1.254-2.175 2.304-3.8 3.16-0.774 0.48-1.481 0.734-2.122 0.758-0.132 0-0.464-0.079-1-0.239-0.425-0.105-0.757-0.105-1 0 0.082 0.535 0.563 0.825 1.442 0.879 0.586 0.055 1.215 0 1.879-0.16 1.789-0.453 3.562-1.851 5.32-4.199 2.586-3.387 4.773-5.602 6.563-6.641 1.253-0.691 2.398-1.027 3.437-1 0.508 0 1.149 0.227 1.922 0.68 0.719 0.43 1.16 0.641 1.32 0.641 0.531-0.079 0.586-0.387 0.16-0.918z" inkscape:connector-curvature="0"/>
                                </g>
                              </g>
                            </g>
                          </g>
                        </g>
                      </g>
                    </g>
                  </g>
                </g>
              </g>
            </g>
          </g>
        </g>
      </g>
    </g>
  </g>
<metadata><rdf:RDF><cc:Work><dc:format>image/svg+xml</dc:format><dc:type rdf:resource="http://purl.org/dc/dcmitype/StillImage"/><cc:license rdf:resource="http://creativecommons.org/licenses/publicdomain/"/><dc:publisher><cc:Agent rdf:about="http://openclipart.org/"><dc:title>Openclipart</dc:title></cc:Agent></dc:publisher></cc:Work><cc:License rdf:about="http://creativecommons.org/licenses/publicdomain/"><cc:permits rdf:resource="http://creativecommons.org/ns#Reproduction"/><cc:permits rdf:resource="http://creativecommons.org/ns#Distribution"/><cc:permits rdf:resource="http://creativecommons.org/ns#DerivativeWorks"/></cc:License></rdf:RDF></metadata></svg>
