<?xml version="1.0" encoding="UTF-8" standalone="no"?>
<!-- Created with Inkscape (http://www.inkscape.org/) -->

<svg
   width="809.0213"
   height="130.27518"
   version="1.1"
   viewBox="0 0 809.0213 130.27518"
   id="svg36"
   sodipodi:docname="item10.svg"
   inkscape:version="1.1.2 (0a00cf5339, 2022-02-04)"
   xmlns:inkscape="http://www.inkscape.org/namespaces/inkscape"
   xmlns:sodipodi="http://sodipodi.sourceforge.net/DTD/sodipodi-0.dtd"
   xmlns="http://www.w3.org/2000/svg"
   xmlns:svg="http://www.w3.org/2000/svg"
   xmlns:rdf="http://www.w3.org/1999/02/22-rdf-syntax-ns#"
   xmlns:cc="http://creativecommons.org/ns#"
   xmlns:dc="http://purl.org/dc/elements/1.1/">
  <defs
     id="defs40" />
  <sodipodi:namedview
     id="namedview38"
     pagecolor="#ffffff"
     bordercolor="#666666"
     borderopacity="1.0"
     inkscape:pageshadow="2"
     inkscape:pageopacity="0.0"
     inkscape:pagecheckerboard="0"
     showgrid="false"
     inkscape:zoom="0.66747573"
     inkscape:cx="386.53091"
     inkscape:cy="65.92"
     inkscape:window-width="1366"
     inkscape:window-height="719"
     inkscape:window-x="0"
     inkscape:window-y="25"
     inkscape:window-maximized="1"
     inkscape:current-layer="svg36"
     fit-margin-top="0"
     fit-margin-left="0"
     fit-margin-right="0"
     fit-margin-bottom="0" />
  <metadata
     id="metadata2">
    <rdf:RDF>
      <cc:Work
         rdf:about="">
        <dc:format>image/svg+xml</dc:format>
        <dc:type
           rdf:resource="http://purl.org/dc/dcmitype/StillImage" />
      </cc:Work>
    </rdf:RDF>
  </metadata>
  <g
     id="g849"
     transform="rotate(90,410.50169,404.50161)">
    <path
       d="m 65.864,813.49 -2.6364,-1.4324 -7.7273,-10.52 -6.475,-11.035 -0.01251,-1.5964 -0.01251,-1.5964 -3.0759,-6.1658 -2.2835,-10.887 5.3594,-10.954 0.0124,-11.801 1.4938,-2.8643 1.4938,-2.8643 v -373.46 l -4.2472,-3.81 0.61901,-8.8392 0.61901,-8.8392 2.8362,-6.3215 0.65034,-7.2838 0.65034,-7.2838 -2.1699,-10.452 -4.8038,-5.98 -1.3354,4 -1.6793,4 -2.2728,7.4346 -6.0196,5.0651 -4.9311,-1.2376 -11.416,-6.1239 -12.4999998,-12.655 v -7.5208 l 6.2385998,-14.962 1.5723,-2 3.4305,-12 1.4521,-2 3.528,-15 1.5605,-2 3.3415,-16 1.8062,-4.44 3.0971,-31 1.1524,-2.7798 1.1524,-2.7798 1.3809,-87 2.5523,-8 1.4628,-33 2.3136,-6 1.8159,-4 3.4074,-11 1.4707,-2 3.5293,-11 1.4707,-2 3.5293,-11 1.4707,-2 3.5293,-11 1.7952,-2.277 10.44,-1.2457 5.9699,1.6586 3.1278,9.8641 3.4603,7.8833 1.2498,5.1167 1.3077,1 5.5224,15 2.9546,10 1.627,3.0241 3.0136,10.976 2.2056,11 0.92768,26 2.1333,6.9868 v 74.32 l 4.0526,19.693 1.1017,21 1.7063,4 2.001,7 0.68117,5.5 0.68116,5.5 1.561,2 3.5278,13 0.72684,1 0.72683,1 2.2436,10.645 5.0692,11.355 3.1937,6 1.0029,14.699 -13.135,12.566 -12.878,6.2737 -3.7634,-1.3001 -5.3887,-5.8817 -2.45,-10.948 -1.9889,-1.2292 -4.6039,5.3524 -2.1225,7.8822 0.66141,8.2929 0.66141,8.293 3.7124,7.837 1.2772,15.315 -4.7585,3.8485 1,379.19 2.2456,2.8063 0.999,14.663 2.1735,2.9398 2.1734,2.9398 -0.6483,1.049 -0.6483,1.049 -2.6411,12.623 -7.0894,14.736 -6.0301,8 -2.2048,4.1695 -5.6382,3.3305 -6.6914,-0.08 -2.6364,-1.4324 z m 7.5054,-603.77 1.7513,-1.2806 2.1418,-13.939 -1.762,-14.95 -7.3787,10.286 -2.3032,8.5532 1.3817,11.111 0.91817,1.5 h 3.4997 z"
       fill="#cddcec"
       id="path6" />
    <path
       d="m 67.841,813.66 -2.6594,-1.1818 -4.4199,-3.9739 -11.08,-16.97 -0.876,-4.0149 -0.876,-4.0149 -2.7188,-6 -0.68277,-3.2401 -0.68277,-3.2401 5.1546,-10.896 0.0062,-5.8119 0.0062,-5.8119 3.4166,-6 0.07108,-374 -4.7654,-4.7654 0.67137,-8.1173 0.67137,-8.1173 3.9579,-8.2043 0.0955,-9.466 0.0955,-9.466 -2.2475,-4.4319 -2.2475,-4.4319 -2.2313,-1.4694 -1.4153,-0.0306 -4.0896,13.732 -5.2678,5.2678 h -3.4784 l -10.978,-4.8552 -12.0459998,-11.153 -3.1673,-6.6745 4.7373998,-15.355 2.9024,-4.4629 2.4426,-8 1.7523,-4 4.2949,-15 4.9471,-18 0.95928,-3.8437 0.95928,-3.8437 1.457,-12.656 1.457,-12.656 1.9148,-10 2.3157,-47 -0.66575,-18.04 -0.66575,-18.04 1.6317,-4.46 1.6317,-4.46 1.7092,-36 11.059,-30 6.3158,-16 3.5985,-10 3.2163,-7.5 h 14.728 l 1.9842,2.5 2.5352,8 8.4509,21 2.5352,8 1.5243,2 3.5278,13 1.7444,2.2738 1.4541,6.8631 1.4541,6.8631 0.0348,22.402 1.6789,5.7988 1.6789,5.7988 0.57109,44.597 0.57108,44.597 1.1345,1.4032 1.1345,1.4032 0.61197,3 0.61196,3 1.8878,25.651 2.1119,2.5447 1.5427,8.8465 1.5427,8.8465 1.7431,2.1108 1.6695,6.5 1.6695,6.5 2.0871,6.5 2.0871,6.5 4.6051,9.1698 1.5303,5.8752 1.5303,5.8752 -0.014,5.0798 -3.4868,5.278 -5,4.7762 -7,5.1614 -8.8757,4.2844 -4.1243,-0.0636 -1.5138,-1.2182 -1.5138,-1.2182 -3.397,-5.3143 -1.1608,-4.6098 -1.1608,-4.6098 -1.9021,-1.1755 -4.7866,4.4968 -3.2167,9.6847 3.103,16.528 3.0067,13 0.04168,10.256 -3.8488,2.7439 1.7115,379 0.89383,7.6083 0.89383,7.6083 4.3595,8.3639 -2.8391,13.616 -7.0339,14.803 -8.5025,12.646 -3.7773,1.9271 -3.7766,1.927 -2.5797,-0.16244 z m -18.11,-580.91 4.1468,-4.25 0.90052,-43 2.8484,-49 -0.87203,-27.99 2.4014,-17.01 3.6234,-18 3.9825,-14.852 3.7386,-2.7368 4.9959,1.2518 0.63818,0.63818 2.7356,10.699 6.1351,23 3.1362,14 -0.32049,44.5 -0.32049,44.5 5.9042,14.429 0.67638,-0.67638 0.909,-4.8764 0.90899,-4.8764 1.7739,-8.1773 -1.5855,-18.823 -1.3864,-20.467 2.6126,-21.176 -2.3831,-28.357 -1.8056,-20 -4.1407,-18 -2.8295,-6 -1.4575,-6 -5.8408,-15 -3.5812,-8 -2.464,-7.6036 -2.3107,0.75407 -4.3518,10.85 -3.0663,7 -3.0959,9 -1.9198,4 -5.8807,18.202 -3.3804,20.798 -1.8926,24 -0.74076,45.5 -0.74076,45.5 -1.2264,2 -3.422,23.725 2.5554,4.7747 h 2.2456 z M 75.591,207 76.8481,203.5 77.00026,179 h -2.0436 l -7.8574,12.157 -1.3279,8.8554 0.69337,5.5496 0.69337,5.5496 7.1759,-0.61132 z"
       fill="#aaa9c6"
       id="path8" />
    <path
       d="m 67,813.29 -1.5,-0.55154 -3.7571,-3.239 -11.813,-18 -0.51666,-2.5 -0.51666,-2.5 -3.8036,-10 -0.65394,-2.7453 -0.65394,-2.7454 5.2145,-9.9725 0.0037,-6.2684 0.0037,-6.2684 1.9963,-3.2742 1.9963,-3.2742 v -373.32 l -4.5,-4.8098 0.41854,-15.902 3.9342,-7.4172 0.95957,-15.058 -1.5427,-8.4364 -5.3925,-8.1487 -2.5535,2.1192 -2.4698,11.036 -6.5899,6.9873 -2.7638,-0.002 -12,-5.7038 -10.5829998,-9.5547 -3.1045,-6.0034 1.3466,-9.2366 6.6029998,-15 3.0848,-9 4.9861,-16 4.3963,-16 1.638,-7 5.2485,-39 1.8218,-31 0.03134,-26.185 0.03135,-26.185 2.2175,-5.6302 1.5702,-35 6.0687,-18 6.277,-16 3.733,-10 5.764,-15 2.8964,-6 h 14.89 l 2.876,8 7.8066,20 2.6617,6 10.548,31 0.73341,17 0.7334,17 1.1122,2.8151 1.1122,2.8151 0.0926,43.37 1.7493,45 1.4704,4.0678 1.4704,4.0678 0.73781,10.932 0.73782,10.932 2.8544,10 1.8221,10 6.2237,20 4.0795,13 5.8886,12.329 0.94457,6.6699 0.94458,6.6699 -4.0564,5.6967 -9.4594,8.4029 -11.974,5.7156 -4.0258,-1.2208 -3.3659,-2.952 -2.6899,-7.3752 -2.6899,-7.3752 -3.9436,2.1106 -4.9497,10.812 1.433,16.427 3.6265,8.1984 0.67466,8.0898 0.67466,8.0898 -2.135,1.828 -2.135,1.828 0.03012,374.06 2.8821,8 0.08778,11.161 4.9042,9.6871 -2.1467,10.152 -5.1644,13 -4.0932,7.0679 -8,11.338 -4.5941,2.094 -6.4059,-0.15789 z M 81,347.43 v -2.5657 l -2.0704,-3.8685 H 76.094 l -2.0829,-7.5 -0.0112,-8.0298 6.3745,-12.97 0.54565,-13 12.852,0.42133 1.2723,-14.421 -1.6538,-5.8697 -1.891,-0.47509 -6,7.1911 -0.16145,5.5473 -0.16145,5.5473 -1.9647,0.65488 -6.8785,-8.5958 -2.5766,-6.5 h -1.4984 l -7.759,7.9982 -2.2033,0.002 -5.7966,-5.6302 -5.4763,-6.7268 -0.6187,0.85699 -2.405,5.5941 v 13.065 l 6.0201,-1.3222 5.4799,-2.701 5.8103,-1.4304 -1.4578,4.7947 -0.79392,7 -0.79392,7 7.0843,10.524 0.50713,15.266 -3.2056,4.8924 -4.6505,1.7681 v 6.0495 h 19 z m -45.788,-43.502 1.8055,-10.432 1.9264,-4 3.0723,-14 1.9227,-4 4.2553,-21 2.3057,-17 1.75,-2.4725 1.75,-2.4725 v -34.107 l 2.1642,-16.948 0.35872,-5 0.35872,-5 1.0317,-64 2.2695,-18 6.74,-25.757 3.3871,-3.7428 h 2.3078 l 3.3655,2.5 3.9747,15 7.5421,29 v 92 l 2.5751,9 3.2287,7.5 h 1.6581 l 0.83266,-4.5 2.2054,-14.537 -0.03492,-12.463 -2.9575,-18 -0.0116,-14 3.1707,-17.276 -1.5834,-12.204 -1.5833,-12.204 v -11.369 l -2.0902,-16.948 -1.7381,-6 -7.3315,-23 -5.9458,-15 -1.8906,-4 -2.7028,-8 -3.1158,-0.61098 -4.2365,11.611 -1.8701,4 -6.7733,18 -4.1881,12 -4.2425,19.329 -2.0236,28.671 -1.584,85 -3.2674,23.925 -0.94187,3.0749 -1.0895,13 -1.7951,5 -2.2593,12.425 -6.8074,20.575 -4.0982,11.785 -1.7478,2.2151 -2.4835,8 -2.8664,4.5659 4.1688,5.8546 5.4205,3.846 4,0.98907 1.9065,-0.39104 z m 32.488,-30.796 4.1999,-1.5843 11.332,3.8518 2.7683,-3.7859 v -4.3022 l -12.137,-11.118 -3.5638,-0.93195 -12.299,14.08 v 4.2542 l 2.4437,2.4437 3.0563,-1.3233 z m 6.9552,-62.458 0.30098,-0.30099 3.3474,-12.877 -1.526,-19.977 -6.7494,7.977 -3.5282,7 v 16 l 1.5308,3.7438 6.3234,-1.2647 z"
       fill="#9ba2be"
       id="path10" />
    <path
       d="m 67,813.29 -1.5,-0.55154 -3.7571,-3.239 -11.813,-18 -0.51666,-2.5 -0.51666,-2.5 -3.8036,-10 -0.65394,-2.7453 -0.65394,-2.7454 5.2145,-9.9725 0.0037,-6.2684 0.0037,-6.2684 1.9963,-3.2742 1.9963,-3.2742 v -373.32 l -4.5,-4.8098 0.41854,-15.902 3.9342,-7.4172 0.95957,-15.058 -1.5427,-8.4364 -5.3925,-8.1487 -2.5535,2.1192 -2.4698,11.036 -6.5899,6.9873 -2.7638,-0.002 -12,-5.7038 -10.5829998,-9.5547 -3.1045,-6.0034 1.3466,-9.2366 6.6029998,-15 3.1243,-9 6.2802,-21 2.7182,-9.0232 1.9818,-8.9768 5.2491,-39 1.8218,-31 0.03134,-26.185 0.03134,-26.185 2.2175,-5.6302 1.5702,-35 6.0687,-18 6.277,-16 3.733,-10 5.764,-15 2.8964,-6 h 14.89 l 2.876,8 7.8066,20 2.6617,6 10.548,31 0.73341,17 0.7334,17 1.1122,2.8151 1.1122,2.8151 0.0926,43.37 1.7493,45 1.4704,4.0678 1.4704,4.0678 0.73781,10.932 0.73782,10.932 2.8544,10 1.8221,10 6.2237,20 4.0795,13 5.8886,12.329 0.94457,6.6699 0.94458,6.6699 -4.0564,5.6967 -9.4594,8.4029 -11.974,5.7156 -4.0258,-1.2208 -3.3659,-2.952 -2.6899,-7.3752 -2.6899,-7.3752 -3.9436,2.1106 -4.9497,10.812 1.433,16.427 3.6265,8.1984 0.67466,8.0898 0.67466,8.0898 -2.135,1.828 -2.135,1.828 0.03012,374.06 2.8821,8 0.08778,11.161 4.9042,9.6871 -2.1467,10.152 -5.1644,13 -4.0932,7.0679 -8,11.338 -4.5941,2.094 -6.4059,-0.15789 z m 14.527,-464.37 0.52418,-1.6515 -2.075,-5.4577 -1.9803,-0.51785 -1.9803,-0.51786 -1.1155,-4.1354 -1.1155,-4.1354 1.0995,-9.3146 5.5781,-10.668 0.76564,-13.55 12.513,1.282 1.4254,-13.31 -1.3414,-7.9398 h -2.8117 l -6.0125,8.3001 v 9.6999 h -2 l -1.75,-1.9283 -1.75,-1.9283 -2.3156,-2.8615 -4.4099,-8.6441 -8.7818,9.4287 -1.9419,-1.0393 -1.9419,-1.0393 -8.4219,-9.9879 h -1.3659 l -2.321,5.0941 v 13.906 h 3.0603 l 12.156,-5.1166 0.79972,0.79971 -0.95265,9.208 -0.95265,9.208 6.3888,9.4008 1,0.49916 -0.13434,6.7504 -0.13434,6.7504 -0.66365,2.5093 -0.66365,2.5093 -5.904,3.3884 2.34e-4,3.2965 2.35e-4,3.2965 19.002,0.0672 0.52418,-1.6515 z m -47.51,-36.166 0.0168,-2.25 3.6935,-17 5.3045,-19 5.1723,-22 1.6502,-10 0.073,-4.2905 0.073,-4.2905 3.8378,-5.419 0.5101,-22 0.5101,-22 2.1414,-8 1.0905,-71 1.0151,-9.7763 1.0151,-9.7763 4.9961,-19.447 1.9623,-7.5053 4.7874,-3.1368 3.9246,2.1004 2.4915,10.542 3.6027,11.399 5.0884,24.699 0.75289,88.902 2.1514,32 3.1473,21 1.9414,5 3.9321,16 2.3135,9 2.3135,9 1.2777,2 3.3146,18 2.2303,8 1.5058,1.7536 5.4013,-1.3556 7.7451,-8.0611 v -1.965 l -2.3622,-5.1859 -2.3622,-5.1859 -0.76016,-2.5 -0.76015,-2.5 -1.4906,-2 -3.4405,-11 -2.5862,-6 -2.4998,-11 -1.6105,-2.0512 -2.1198,-11.974 -2.1198,-11.974 -2.4273,-20.5 -2.4273,-20.5 -0.0812,-14 -1.9299,-8 -1.2879,-20 3.5036,-17.615 -0.52054,-5.1923 -0.52052,-5.1923 -2.1416,-21 -2.0449,-23 -5.9071,-20 -3.9257,-11 -10.022,-25 h -3.3775 l -4.5538,12 -12.038,32.285 -2.3177,11.715 -1.902,6.1312 -2.1686,30.869 -0.75918,41.5 -0.75918,41.5 -3.3323,26 -0.94992,3.0833 -1.8974,13.917 -3.8512,18 -8.4434,25 -5.8413,14 -2.9642,5.6621 0.05862,2.3379 5.7811,6.3521 5.6603,3.0678 4.5,0.08 0.0168,-2.25 z M 67.7,273.14 l 4.1999,-1.5843 11.332,3.8518 2.7683,-3.7859 v -4.3022 l -12.137,-11.118 -3.5638,-0.93195 -12.299,14.08 v 4.2542 l 2.4437,2.4437 3.0563,-1.3233 z m 6.9552,-62.458 0.30098,-0.30099 3.3474,-12.877 -0.76468,-10 -0.76468,-10 -6.6195,7.6543 -3.6547,7.3457 v 16 l 1.5308,3.7438 6.3234,-1.2647 z"
       fill="#9697a6"
       id="path12" />
    <path
       d="m 67.201,813.29 -2.299,-0.43979 -10.554,-14.348 -5.1236,-10 -5.0972,-16.27 1.1549,-4.7297 3.0443,-3.5181 0.66087,-8.3207 0.66087,-8.3207 3.3519,-4.7856 v -374.25 l -4,-3.62 v -16.267 l 3.7329,-7.322 1.3684,-15.687 -2.2121,-9.8707 -4.991,-6.5436 h -1.7563 l -3.3355,11.474 -1.424,2.7538 -1.424,2.7538 -4.7283,3.0981 -10.358,-3.9359 -10.948,-8.2655 -6.0967998,-8.3779 1.2881,-10 6.0042998,-12.759 2.7534,-7.2413 7.2636,-25 2.8585,-8.0544 4.7658,-29.946 2.2759,-18 1.9314,-24 0.01583,-29.507 0.01583,-29.507 2.1794,-6.9868 1.6386,-35 11.052,-31 4.2285,-11 2.6653,-6 2.4551,-7.6933 2.7688,-5.3067 0.0062,-1.2148 0.0062,-1.2148 3.8685,-2.0704 h 11.828 l 3.1983,7.5 11.24,29 4.5573,12 1.309,5 1.309,5 1.4008,2 0.68435,2.5 0.68434,2.5 1.6658,35.156 1.1272,2.1062 1.1272,2.1062 0.143,45.631 1.599,44 2.5129,6 1.332,14.24 1.332,14.24 2.0944,3.9134 2.8562,14.607 4.2152,12 2.0085,9 5.1469,13 1.8916,3.7329 1.8916,3.7329 0.86943,6.2671 0.86943,6.2671 -2.6789,5.2399 -9.7451,8.7601 -10.355,5.6343 -5.9134,0.1682 -3.2776,-2.7202 -1.0434,-2.5411 -1.0434,-2.5411 -1.7047,-5 -1.7047,-5 h -2.7003 l -6.0951,8.6881 0.13381,9.8502 0.13381,9.8502 4.1041,8.6115 0.67905,8.087 0.67905,8.087 -2.3649,1.913 -2.3649,1.9129 0.31761,187.94 0.31762,187.94 2.2177,4.1158 1.2985,16.202 4.1723,5.8595 -1.8464,9.8834 -4.0102,10.718 -3.2521,6.3371 -8.6631,13.314 -5.3217,4.186 -6.2303,-0.27236 z M 74,802.886 V 801.77 L 80.7963,792.502 86,782.7041 v -7.845 l -2.8571,-2.8571 h -1.6218 l -8.4198,3.4825 -2.1012,4.6116 v 3.9059 h -2 v -1.9848 l -4.3607,-5.0152 h -6.1582 l -1.2704,2.0342 -1.2704,2.0342 7.4852,13.432 1.0372,1.3643 1.0372,1.3643 6.5364,6.7714 H 74 Z m 0,-33.978 3.5,-0.8946 3.25,-0.006 3.25,-0.005 v -1.9465 l -4.3267,-8.9057 -4.1733,-1.1205 -10.591,-0.0273 -4.9091,4.9091 v 8.9518 l 4.5,0.78718 6,-0.84772 z m 8,-420.94 v -3.0333 l -6.802,-6.802 -0.68322,-4.0439 -0.68322,-4.0439 1.4252,-6.5434 5.1408,-9.8595 0.5512,-7.0702 0.5512,-7.0702 13.5,0.70528 v -17.075 l -2.0612,-5.4213 -5.2105,4.7911 -1.9503,4.3389 -1.9503,4.3389 1.1795,4.6997 -1.8464,1.1412 -5.6609,-6.8916 -1.9602,-3.8135 -1.9602,-3.8135 -0.6256,-0.87942 -9.8584,9.7102 -7.6799,-7.8308 -4.2814,-6 -1.3171,1.2983 -1.3171,1.2983 -0.69177,18.865 8.6918,-2.7311 7.747,-3.361 -1.1913,6.63 -0.59606,6.5 -0.59606,6.5 7.1364,9.852 v 14.779 l -2.1216,3.9643 -4.8784,1.8548 v 8.0495 h 20 z m -47.466,-38.217 0.72152,-5.25 6.9403,-26 4.5529,-19 2.2699,-8 1.2421,-18 3.5112,-4 1.0587,-45 2.2351,-7 0.5113,-35.5 0.5113,-35.5 2.0401,-19.622 5.915,-23.378 2.219,-5.5474 3.0218,-1.6911 3.5522,0.92892 2.0188,5.3096 5.1249,19 4.3729,19 0.57352,25 0.57352,25 -0.8203,11.5 -0.8203,11.5 1.2126,12 1.2126,12 0.5401,25 5.0845,28 5.7625,21 8.3283,31.618 0.006,2.1908 0.006,2.1908 2.0829,7.5 h 5.9507 l 8.9553,-8.2547 -0.012,-4.2453 -3.1674,-6 -2.4706,-6.5 -2.4706,-6.5 -4.9924,-14 -3.6292,-13.274 -0.62965,-1.0188 -0.62964,-1.0188 -4.0194,-23.511 -2.056,-16.588 -2.056,-16.588 -1.7005,-24 -2.5503,-19.659 2.792,-16.341 0.04954,-17 -1.2567,-11.5 -1.2556,-11.5 -1.8459,-20.124 -4.9973,-17.245 -5.9278,-16.632 -8.4278,-21 -2.0756,-2.6004 -2.4162,2.6004 -3.1138,9 -6.3187,15 -5.6897,16 -5.1992,21 -2.133,30 -0.78086,40.5 -0.78086,40.5 -1.1039,10.5 -1.1039,10.5 -0.5456,3 -0.5456,3 -5.0116,29 -5.025,18 -5.2682,14 -7.8017,19 -1.0663,3.4965 1.6393,2.5018 1.6393,2.5018 7.4538,4.8822 5.3123,0.1176 0.72152,-5.25 z m 36.865,-37.728 2.1011,0.022 8.7682,3.9784 2.9401,-2.4401 1.8773,-4.9376 -11.586,-11.82 -4.8936,-1.9243 -12.572,13.6 -0.01703,3.05 -0.01702,3.05 2.2244,2.2244 9.0735,-4.8244 2.1011,0.022 z m 1.3055,-60.64 2.2044,-0.59106 3.222,-9.7004 -0.26768,-12.206 -0.26768,-12.206 -8.415,9.563 -4.4073,12.087 1.1392,8.3113 2.0382,5.361 2.5495,-0.0274 2.2044,-0.59105 z"
       fill="#8f8c8f"
       id="path14" />
    <path
       d="m 66.883,812.88 -2.6175,-0.9602 -11.073,-15.422 -3.9724,-9 -4.2196,-14.142 v -3.4378 l 4,-7.8406 0.04392,-11.58 3.9561,-8.7184 v -374.3 l -4,-2.498 0.02196,-7.7415 0.02196,-7.7415 4.1539,-9 0.15108,-11 0.15108,-11 -3.2952,-6.0047 -4.0787,-3.6912 -1.952,1.2064 -1.2723,7.4895 -5.4017,9.8147 -4.2918,1.5438 -11.708,-5.6009 -8.2973,-6.7576 -5.5394998,-6.689 0.22366,-9.8191 8.9359998,-20.492 7.4085,-25 2.5545,-8 4.0568,-21 1.3068,-13 1.4642,-12 1.4642,-12 0.51358,-1.4687 0.51358,-1.4687 0.0092,-69.953 1.4281,-6.055 1.428,-6.055 0.01478,-9.1776 0.01478,-9.1776 1.0738,-7.7204 1.0738,-7.7204 3.7203,-11.204 4.1331,-12 1.8938,-4 4.9675,-13 6.8453,-18 1.1206,-3.2156 6.4219,-1.2844 h 6.3677 l 3.1526,2.5 5.1979,13.513 5,13 4.8626,12.487 8.297,25 0.85057,17.5 0.85056,17.5 2.0138,6 0.54725,41 0.54724,41 2.915,12 2.1703,21 3.2206,15 2.9391,10 2.9391,10 1.8341,7 1.8341,7 3.9288,9 2.3302,5 2.3302,5 0.42347,6.751 0.42346,6.751 -11.991,11.552 -10.764,5.446 h -5.089 l -3.3838,-2.5 -2.8737,-7.5 -2.8737,-7.5 h -2.5306 l -6.2205,7.6998 0.28717,21.3 4.1689,9 0.02196,8.2148 0.02196,8.2148 -1.8509,0.99057 -1.8509,0.99056 0.86367,376.59 2.8381,6.3023 0.0074,12.698 3.9925,6.5483 v 5.6014 l -5.0062,14.85 -5.2911,10 -8.8899,12.621 -4.943,1.8793 -4.3698,-0.15789 z m 11.742,-16.132 4.8058,-7.25 3.5039,-10 0.03265,-2.6276 0.03265,-2.6276 -3.0191,-2.5057 -8.4777,1.1371 -4.5031,5.2352 v 3.7704 l -2,1.2361 v -2.9729 l -5.2697,-4.1452 h -3.4606 l -5.3102,4.177 8.5405,15.851 7.269,7.9715 h 3.0503 z m -3.449,-27.5 8.8229,-1.75 5.57e-4,-2.1021 5.57e-4,-2.1021 -4.5716,-6.7958 -15.078,-0.57782 -5.3505,5.3506 v 7.3273 l 2.4,2.4 h 4.9532 z m 3.7314,-399.08 0.9778,-1.827 0.66723,-5.0298 0.66723,-5.0298 -15.72,0.96221 -1.25,0.99821 -1.25,0.9982 v 5.5102 l 3.2912,2.7449 5.2088,2.3376 6.4296,0.1624 0.9778,-1.827 z M 82,347.528 v -3.4667 l -6.7106,-6.7106 -0.68722,-3.6632 -0.68722,-3.6632 2.0627,-7.5296 5.0223,-9.839 v -12.839 l 13.5,0.67782 0.28336,-9.5132 0.28336,-9.5133 -2.7633,-3.779 -2.499,1.5444 -5.8045,9.1527 -0.04064,4.5542 -0.04064,4.5542 -5.774,-6.7511 -4.6413,-8.7489 h -2.1687 l -6.429,8 h -2.7379 l -11.321,-12.5 -2.8466,3.8823 v 17.457 l 7.5,-1.9243 7.5204,-3.2274 0.63302,0.81294 -0.98815,9.1117 -0.98815,9.1117 6.5809,9.1637 0.19368,7.3064 0.19368,7.3064 -1.6095,4.5359 -4.7546,1.8077 -1.2724,6.3619 1.1091,1.7946 h 19.882 z m -47.724,-36.11 0.81416,-3.9231 5.0161,-22 3.7221,-12 5.2472,-22.662 1.1253,-16.338 3.8129,-5.4371 0.46343,-21.888 0.46343,-21.888 1.1191,-2.8937 1.1191,-2.8937 0.45904,-37 0.45904,-37 1.9881,-17 5.9981,-24.762 2.8152,-6.7377 h 4.8572 l 2.0826,2.5094 5.3239,19.991 5.2477,20 0.1578,92 1.6677,2.6891 0.6402,28.311 5.0341,28 5.7625,21 8.3283,31.618 0.006,2.1908 0.006,2.1908 2.0829,7.5 h 5.9507 l 8.9553,-8.2547 -0.012,-4.2453 -3.1674,-6 -2.4706,-6.5 -2.4706,-6.5 -4.9924,-14 -3.6292,-13.274 -0.62965,-1.0188 -0.62964,-1.0188 -2.029,-11.844 -2.0302,-11.844 -4.9302,-41 -0.0049,-7.0738 -0.0049,-7.0738 -1.5884,-9.2471 -1.5884,-9.2471 0.87227,-10.358 2.5417,-12 -1.2337,-22 -1.9557,-8 -0.05532,-15 -2.7813,-17 -4.326,-14 -2.4386,-6.5 -2.4386,-6.5 -9.8904,-25 -3.1237,-0.64781 -1.2578,3.6478 -8.616,22 -6.1899,17 -4.9182,19 -1.992,33 -2.0201,6.9868 -0.02064,70.013 -1.9997,24 -2.8592,14 -3.2458,21 -5.005,17 -5.1826,15 -8.687,20.281 v 3.0651 l 5.4173,6.438 8.0827,3.6689 1.9613,-0.60732 z m 30.224,-36.252 3,-1.821 4.899,-1.2677 8.8552,3.9171 h 2.6324 L 85.4433,273.7719 87,271.5494 v -4.2506 l -11.744,-11.202 -5.1785,-1.2997 -11.577,12.45 -1.688,4.8114 1.6171,2.468 1.6171,2.468 1.4539,-0.008 3,-1.8209 z m 9.8909,-64.705 1.5337,-1.5337 2.0642,-7.4325 0.0056,-12.25 0.0056,-12.25 h -1.8297 l -7.1021,9.675 L 65,196.1606 v 8.1022 l 2.3166,7.732 h 5.5406 z m -2.5438,-74.945 3.0543,-3.4786 1.2817,-6.8322 -1.2382,-2.3553 -1.2382,-2.3553 -5.5789,-6.4241 -3.9944,3.4241 -1.3723,21.5 h 6.0317 z"
       fill="#758a9f"
       id="path16" />
    <path
       d="m 66.883,812.88 -2.6175,-0.9602 -11.073,-15.422 -3.9724,-9 -4.2196,-14.142 v -3.4378 l 4,-7.8406 0.04392,-11.58 3.9561,-8.7184 v -374.3 l -4,-2.498 0.02196,-7.7415 0.02196,-7.7415 4.1539,-9 0.15108,-11 0.15108,-11 -3.2952,-6.0047 -4.0787,-3.6912 -1.952,1.2064 -1.2723,7.4895 -5.4017,9.8147 -4.2918,1.5438 -11.708,-5.6009 -8.2973,-6.7576 -5.5394998,-6.689 0.22366,-9.8191 8.9359998,-20.492 7.4085,-25 2.5545,-8 4.0568,-21 1.3068,-13 1.4642,-12 1.4642,-12 0.51358,-1.4687 0.51358,-1.4687 0.0092,-69.953 1.4281,-6.055 1.428,-6.055 0.01478,-9.1776 0.01478,-9.1776 1.0738,-7.7204 1.0738,-7.7204 3.7203,-11.204 4.1331,-12 1.8938,-4 4.9675,-13 6.8453,-18 1.1206,-3.2156 6.4219,-1.2844 h 6.3677 l 3.1526,2.5 5.1979,13.513 5,13 4.8626,12.487 8.297,25 0.85057,17.5 0.85056,17.5 2.0138,6 0.54725,41 0.54724,41 2.915,12 2.1703,21 3.2206,15 2.9391,10 2.9391,10 1.8341,7 1.8341,7 3.9288,9 2.3302,5 2.3302,5 0.42347,6.751 0.42346,6.751 -11.991,11.552 -10.764,5.446 h -5.089 l -3.3838,-2.5 -2.8737,-7.5 -2.8737,-7.5 h -2.5306 l -6.2205,7.6998 0.28717,21.3 4.1689,9 0.02196,8.2148 0.02196,8.2148 -1.8509,0.99057 -1.8509,0.99056 0.86367,376.59 2.8381,6.3023 0.0074,12.698 3.9925,6.5483 v 5.6014 l -5.0062,14.85 -5.2911,10 -8.8899,12.621 -4.943,1.8793 -4.3698,-0.15789 z m 11.742,-16.132 4.8058,-7.25 3.5039,-10 0.03265,-2.6276 0.03265,-2.6276 -3.0191,-2.5057 -8.4777,1.1371 -4.5031,5.2352 v 3.7704 l -2,1.2361 v -2.9729 l -5.2697,-4.1452 h -3.4606 l -5.3102,4.177 8.5405,15.851 7.269,7.9715 h 3.0503 z m -3.449,-27.5 8.8229,-1.75 5.57e-4,-2.1021 5.57e-4,-2.1021 -4.5716,-6.7958 -15.078,-0.57782 -5.3505,5.3506 v 7.3273 l 2.4,2.4 h 4.9532 z M 77.75,751.831 81,750.84326 v -4.6857 l -13.5,-1.2305 -5.2945,-0.83759 -1.3345,7.1133 1.1069,1.1069 7.5221,1.4087 5,-0.89958 z m 1.1574,-381.66 0.9778,-1.827 0.66723,-5.0298 0.66723,-5.0298 -15.72,0.96221 -1.25,0.99821 -1.25,0.9982 v 5.5102 l 3.2912,2.7449 5.2088,2.3376 6.4296,0.1624 0.9778,-1.827 z m 2.8977,-22.335 0.30509,-3.6616 -6.8208,-6.8208 -0.68722,-3.6632 -0.68722,-3.6632 2.0627,-7.5296 5.0223,-9.839 v -12.839 l 13.5,0.67782 0.28336,-9.5132 0.28336,-9.5133 -2.7633,-3.779 -2.499,1.5444 -5.8045,9.1527 -0.04064,4.5542 -0.04064,4.5542 -5.774,-6.7511 -4.6413,-8.7489 h -2.1687 l -6.429,8 h -2.7379 l -11.321,-12.5 -2.8466,3.8823 v 17.457 l 7.5,-1.9243 7.5204,-3.2274 0.63302,0.81294 -0.98815,9.1117 -0.98815,9.1117 6.5809,9.1637 0.19368,7.3064 0.19368,7.3064 -1.6095,4.5359 -5.0359,1.9146 -0.16667,2.0248 -0.16667,2.0248 -0.16666,3.5 16,1.1666 4,-0.1666 0.30509,-3.6616 z m -47.328,-36.588 0.70415,-4.75 6.9191,-27 6.8415,-27 1.2524,-18 3.8191,-5.4371 0.46343,-21.888 0.46343,-21.888 1.1191,-2.8937 1.1191,-2.8937 0.45904,-37 0.45904,-37 1.9881,-17 5.9981,-24.762 2.8152,-6.7377 h 4.8572 l 2.0826,2.5094 5.3654,19.991 3.1119,14 -0.75868,5.9841 -0.75869,5.9841 -3.2976,-4.2606 -10.861,-17.306 -5.1393,0.59803 -0.58761,11.091 5.1254,9.1703 9.6782,9.0528 8.2841,4.2262 v 8.0164 l -5.8022,11.443 -14.09,19 -4.9129,10 -1.0605,7.4448 3.6745,4.5378 4.1195,-3.7281 12.989,-19.255 4.9861,-5.5 h 1.3208 l -1.4022,27.5 1.1832,10.5 1.1832,10.5 0.49584,27 3.4052,17 2.9289,13 4.8114,18 6.9716,26 1.18,7.1948 1.18,7.1948 2.8119,2.3337 4.7536,-1.1931 8.4987,-8.2477 -1.0637,-6.5551 -4.8987,-10.727 -9.2827,-26.704 -4.9638,-19.296 -2.9841,-24 -2.0053,-15.5 -2.0053,-15.5 -0.01135,-6.5738 -0.01135,-6.5738 -1.5884,-9.2471 -1.5884,-9.2471 0.87227,-10.358 2.5417,-12 -1.2337,-22 -1.9557,-8 -0.05532,-15 -2.7813,-17 -4.326,-14 -2.4386,-6.5 -2.4386,-6.5 -9.8904,-25 -3.1237,-0.64781 -1.2578,3.6478 -8.616,22 -6.1899,17 -4.9182,19 -1.992,33 -2.0201,6.9868 -0.02064,70.013 -1.9997,24 -2.8592,14 -3.3189,20.614 -6.6752,22.386 -3.8907,11 -8.2309,19 -0.0024,2.0538 -0.0024,2.0538 6.5,6.1591 6,3.1532 3.2729,0.08 0.70415,-4.75 z m 30.023,-36.078 3,-1.821 4.899,-1.2677 8.8552,3.9171 h 2.6324 l 1.5567,-2.2225 1.5567,-2.2225 v -4.2506 l -11.744,-11.202 -5.1785,-1.2997 -11.577,12.45 -1.688,4.8114 1.6171,2.468 1.6171,2.468 1.4539,-0.008 3,-1.8209 z m 9.8909,-64.705 1.5337,-1.5337 2.0642,-7.4325 0.0056,-12.25 0.0056,-12.25 h -1.8297 l -7.1021,9.675 -4.0682,9.4908 v 8.1022 l 2.3166,7.732 h 5.5406 z m -2.5438,-74.945 3.0543,-3.4786 1.2817,-6.8322 -1.2382,-2.3553 -1.2382,-2.3553 -5.5789,-6.4241 -3.9944,3.4241 -1.3723,21.5 h 6.0317 z"
       fill="#616786"
       id="path18" />
    <path
       d="m 68.271,813.3 -2.2293,-0.43065 -7.1889,-8.3663 -8.641,-14 -5.4509,-18.81 4.0831,-10.19 0.37667,-6 0.37667,-6 3.4029,-6.8073 v -375.38 l -4,-3.62 v -13.524 l 3.928,-9.1636 0.65155,-8.7511 0.65155,-8.7511 -1.1954,-4.4036 -1.1954,-4.4036 -5.3402,-6.6928 -1.4229,-6e-5 -1.0822,4.0189 -1.0822,4.0189 -4.0035,9.4623 -3.2916,2.5 -5.1177,-0.025 -11.209,-6.475 -5.791,-5.0194 -5.4999998,-6.6341 v -9.9747 l 5.1726998,-11.372 2.8369,-6.0401 4.1833,-13.96 4.9923,-16 4.9143,-21 2.0075,-17 4.0849,-30 0.41849,-34.5 0.41849,-34.5 0.95534,-8 0.95534,-8 1.9673,-29 3.8504,-11 5.0119,-14 9.3461,-24 4.2739,-11 2.1109,-2.2518 10,-1.0259 3.6904,1.3707 8.8834,22.907 5.0641,13 10.033,30 0.83494,17 0.83495,17 1.9834,7 0.49916,40.5 0.49917,40.5 1.5391,6.5 1.5391,6.5 1.0291,10.5 1.0291,10.5 3.2207,14 5.9993,21 3.809,14.274 8.2404,17.726 0.50402,6.5232 0.50403,6.5232 -11.105,11.105 -11.911,6.3486 h -4.8714 l -4.4723,-4.7605 -1.3296,-4.3697 -1.3296,-4.3697 -2.5638,-5.5563 -6.6156,6.4121 -2.3083,6.9941 0.64147,9.1257 0.64147,9.1257 3.9877,7.8216 v 16.096 l -3.7945,2.3697 0.02816,375.61 2.9919,4.774 1.4687,17.731 3.3057,3.6527 v 4.6269 l -2.1145,7.1078 -2.1145,7.1078 -5.9157,11.729 -9.844,13.534 -4.5114,1.2089 -3,-0.24505 -2.2293,-0.43066 z m 11.174,-17.215 4.6121,-6.8122 3.9435,-11.22 v -3.9796 l -3.8685,-2.0704 h -6.0374 l -5.3975,2.4593 -1.8263,4.0204 -1.8263,4.0204 -0.02196,-1.211 -0.02196,-1.211 -4.3771,-4.0779 h -5.4013 l -4.6496,3.765 2.5603,5.735 8.0899,13.488 6.957,6.1084 2.6532,-2.202 z m -8.876,-25.514 4.9315,-1.4319 9.285,-1.3311 -1.9767,-7.3052 -4.1569,-4.5 h -14.742 l -4.9091,4.9091 v 9.1554 l 4.5,1.8088 2.137,0.1268 4.9315,-1.4319 z m 9.9842,-19.011 2.2772,-1.4921 -1.0231,-3.9122 -9.3068,-2.027 -10.446,-1.1879 -0.99158,4.5618 -0.56202,4.8893 5,1.5344 12.775,-0.87424 z m -1.5607,-380.05 1.2368,-1.4903 1.0701,-13.331 -15.419,1.1661 -2.8798,2.39 v 7.6122 l 3.1399,3.1399 5.3601,1.1779 1,0.33358 1,0.33359 2.1276,0.0789 2.1276,0.079 1.2368,-1.4903 z m 3.8168,-23.198 0.30876,-3.1883 -8.1175,-8.3645 v -10.648 l 7,-15.36 v -10.52 l 13,1.0435 v -19.144 l -2.0331,-5.3476 -3.3003,2.7174 -5.6666,7.8001 v 8.6999 h -1.1794 l -3.7931,-4.5 -6.1926,-10.762 -9.7535,9.6068 -8.7147,-8.8446 -3.3482,-4.9185 -2.4492,2.4492 -1.1824,19.469 0.50683,0.72708 13.917,-4.2271 h 1.2299 l -1.2624,18.5 6.722,9 -0.32676,8.8658 -0.32676,8.8658 -5.8375,2.2034 -1.2288,6.5499 1.184,3.0854 20.536,-0.57036 z m -48.318,-35.562 0.64965,-3.25 5.0181,-22.947 1.1417,-1.8474 4.6941,-18.205 3.0707,-15 1.7994,-17.364 3.2548,-4.9675 0.32419,-17.835 0.32419,-17.835 2.2292,-15 1.7259,-43 -0.9092,-27 2.0967,-17 3.9455,-19.326 3.434,-10.674 1.7271,-4.6312 5.4001,0.63121 3.4851,9.7743 3.1337,13.226 3.0265,11 -0.64636,6.2378 -0.64636,6.2378 -1.4066,-0.86932 -11.863,-19.086 -6.2774,-0.02056 -1.3447,7.1677 1.3182,6.3323 4.6626,8.115 8.9425,8.2429 8.0631,4.1135 1.252,2.0258 -1.5334,5.9853 -1.5334,5.9853 -5.5299,8.5321 -7.7758,10 -6.9724,10.896 -2.7716,7.8556 v 6.3041 l 4.1568,3.5592 3.113,-2.5835 13.998,-21.031 4.0812,-4.5 1.1514,-10e-4 0.15316,38.501 2.2581,39 1.8487,9 4.4499,21 1.0904,1.7948 2.3355,9.1026 2.3354,9.1026 3.4042,14 3.4042,14 1.7206,9 6,0.56961 7.5417,-6.2496 1.4624,-2.828 1.4624,-2.828 -3.1571,-7.6641 -2.7568,-6 -9.2205,-26 -5.8147,-22.729 -2.1183,-18.271 -1.9659,-15 -1.8204,-14 -1.3064,-15 -1.3064,-15 0.35721,-12.5 0.35721,-12.5 0.14279,-11 0.14279,-11 -2.5314,-29 -3.1332,-18.623 -10.684,-30.377 -5.3003,-13 -3.0008,-6.6178 -3.0091,0.61781 -8.0107,20 -5.0593,13 -5.0023,16 -2.7298,11 -1.951,31 -2.0882,6.9868 -0.0048,69.013 -1.983,27 -2.9978,13 -3.0064,20.799 -3.2389,11.201 -6.0412,19 -6.9701,17 -3.6428,9.219 3.3133,4.781 4.9053,4 4.1665,2.4291 4.3411,0.0708 0.64965,-3.25 z m 30.509,-37.75 3.9203,-2 h 4.8613 l 8.7184,3.9226 4.2946,-4.4226 1.2316,-4.1578 -12.738,-12.232 -5.5708,-1.3982 -11.682,12.788 -1.2893,4.6475 2.211,4.8525 H 61.08 Z m -2.3151,-27.068 2.8151,-1.0675 12.607,-13.365 4.9795,-7.5972 1.7853,-4.6958 -2.3718,-3.005 -4.0629,-1.198 -11.467,11.196 -6.6302,8.2999 -3.3398,7.3023 v 3.8644 l 0.66667,0.66666 0.66667,0.66667 h 1.5365 z m 11.337,-36.944 1.8905,-1.0118 1.0382,-3.7382 1.0382,-3.7382 -0.06394,-27 -6.9512,8 -5.3542,9 -0.11952,16 1.4372,3.5 h 5.1943 z m -4.5768,-72.954 3.1812,-1.9661 4.7097,-10.055 -8.8361,-12.819 -0.5,0.72628 -0.5,0.72627 -1.5956,0.58643 -1.5956,0.58642 -1.3088,15.483 v 8.6982 h 3.2639 z"
       fill="#485063"
       id="path20" />
    <path
       d="m 68.271,813.3 -2.2293,-0.43065 -7.1889,-8.3663 -8.641,-14 -5.4509,-18.81 4.0831,-10.19 0.37667,-6 0.37667,-6 3.4029,-6.8073 v -375.38 l -4,-3.62 v -12.669 l 4.0132,-10.521 0.63417,-8.1623 0.63417,-8.1623 -1.1815,-4.6921 -1.1815,-4.6921 -5.4186,-6.7911 -1.4229,-6e-5 -1.0822,4.0189 -1.0822,4.0189 -4.0035,9.4623 -3.2916,2.5 -5.1177,-0.0606 -11.155,-6.4394 -5.8448,-5.0194 -5.4999998,-6.6341 v -9.8103 l 7.6347998,-16.536 7.5148,-25 2.7494,-8 5.0522,-23 2.08,-22 3.0489,-19 0.96218,-72 0.99641,-6.5 0.99641,-6.5 0.91742,-15.5 0.91742,-15.5 8.9251,-25 2.142,-5 7.1769,-19 2.7319,-6 1.3505,-5.418 2.5326,-2.1018 12.247,-0.33754 1.4993,1.4993 7.323,19.358 6.333,16 9.9925,30 0.4826,13.5 0.48259,13.5 3.1682,17.546 -0.56867,4.2268 -0.56866,4.2268 0.93305,34.5 0.93306,34.5 2.9941,14 1.0066,10.323 1.0066,10.323 1.6019,6.6767 1.6019,6.6767 2.9908,10.5 2.9908,10.5 3.809,14.274 8.2404,17.726 1.002,13 -10.262,10.42 -12.66,7.08 h -4.9592 l -4.4723,-4.7605 -2.7378,-9.0969 -2.772,-5.2906 -7.2535,8.0288 -1.387,7.3934 1.2883,16.76 3.9857,7.4365 v 16.049 l -3.8159,2.3831 0.0156,375.6 3.026,4.774 1.4687,17.731 3.3057,3.6527 v 4.6269 l -2.1145,7.1078 -2.1145,7.1078 -5.9157,11.729 -9.844,13.534 -4.5114,1.2089 -3,-0.24505 -2.2293,-0.43066 z m 10.4,-16.066 5.1706,-7.7308 2.9652,-6.0264 1.394,-9.296 -4.4933,-2.4047 -9.1383,1.03 -4.5589,5.6971 -0.07076,4 -2.1878,-4 -3.1336,-2.5 h -5.5062 l -5.0534,4.5 10.09,17 7.2581,7.5 2.0941,-0.0386 5.1706,-7.7307 z m -5.1706,-27.231 8,-1.9764 3.3388,-0.0236 -2.0305,-7.5 -4.0801,-4.4182 -8.9273,-1.3387 -7.7286,2.3155 -1.5362,2.1932 -1.5362,2.1932 v 8.4556 l 3.5,2.0386 3,0.0372 z m 6.7825,-17.917 2.7175,-1.0332 -0.03062,-3.5495 -1.621,-2.5544 -18.506,-2.1881 -1.8577,1.8577 -0.48477,7.7448 5,1.5637 12.065,-0.8079 2.7175,-1.0332 z m -12.176,-17.642 0.70309,-2.941 0.47372,-72.829 0.47372,-72.829 2.2572,-2.2572 2.922,2.922 1.0074,9.4961 1.0074,9.4961 1.0244,17.211 1.0244,17.211 0.19936,84.577 1.433,5 1.4497,-85.987 -0.74848,-86.507 -0.74848,-86.507 -1.4183,9 -1.0668,21.5 -1.0668,21.5 -1.1289,14 -3.2524,19.5 h -0.82592 -0.82592 l -0.5,-83.5 v -78 l -1.6384,-3.3029 -4.3616,-1.1698 -3.5,-0.0273 v 327.69 l 0.64431,10.53 0.64431,10.53 5.1148,-1.3679 z m 5.6434,-350.07 2.25,-0.60297 v -6.0738 l 5.4116,-11.193 0.0442,-7.1647 0.0442,-7.1647 1.5,-1.5039 v -5.8642 l -5.9603,-5.5677 -2.0397,-5.3649 0.02442,-7.3698 6.9756,-15.979 v -10.29 l 12.701,1.0196 1.3699,-15.117 -1.348,-5.6326 -0.95112,-1.8514 -0.95112,-1.8514 -5.9997,5.7028 -2.8214,5.4007 -0.02931,4.2997 -0.02931,4.2997 -5.4414,-6.2877 -5.6162,-9.5226 -9.5938,9.4495 -6.8771,-6.6392 -5.3365,-6.9764 -1.2535,1.2536 -1.2535,1.2535 -1.2008,19.469 0.5883,1.2391 14.093,-5.0231 0.59787,0.59787 0.59787,0.59788 -1.9748,15.588 1.9806,4 5.0384,6.7459 -0.42959,16.252 -3.1697,3.5025 h -2.5552 l -1.0031,3.5 0.33581,9 0.33581,9 0.09834,10.75 0.09834,10.75 9.5,-0.0273 2.25,-0.60298 z m -38.221,-76.12 1.6652,-7.75 2.553,-11 7.1662,-26 3.3142,-18 0.52432,-5.9958 0.52432,-5.9957 1.4492,-2.2118 1.4492,-2.2118 0.35463,-17.292 0.35463,-17.292 1.043,-7.1683 1.043,-7.1683 1.2311,-24.663 0.2233,-29 0.2233,-29 4.4186,-21 4.0048,-14 2.5059,-5 h 4.722 l 2.8351,8 4.9808,19 1.8072,7.1071 -1.4218,12.84 -13.067,-20.947 -5.4321,-0.63275 -2.001,5.263 v 5.1378 l 2.4335,8.1223 11.681,12.487 8.8859,4.3016 v 8.6185 l -5.6315,10.703 -14.088,19 -5.0078,10 -1.4063,7.7289 4.4822,4.7711 h 1.9309 l 2.7581,-3.5 12.907,-19 4.8757,-6 0.733,1 -0.52686,10.831 -0.52686,10.831 1.4704,19.338 0.95562,18.5 0.95562,18.5 2.023,10 5.0783,22 6.0343,21 2.5977,11 2.5977,11 0.83302,4.7473 0.83302,4.7473 0.61971,1.0027 0.6197,1.0027 h 5.9267 l 8.8791,-8.1844 1.115,-3.5131 -6.1991,-14.802 -10.66,-30.524 -5.1381,-24.476 -2.1223,-22 -2.7801,-18 -1.3048,-15.5 -1.3048,-15.5 0.016,-18 1.7618,-16.736 -1.1905,-16.132 -1.1905,-16.132 -3.9874,-26.324 -10.753,-30.676 -7.697,-18.975 -3.4825,-0.67068 -2.0471,5.6455 -1.8956,4 -4.2837,11 -4.9165,13 -2.6522,8 -4.0961,13 -2.1147,15.645 -0.04772,15.355 -2.2078,8 -1.646,91 -0.96939,6.5 -0.96939,6.5 -4.1074,24 -3.3036,14 -4.763,16.58 -7.0722,18.42 -5.9386,13.574 1.3639,2.6031 1.3639,2.6031 8.7973,6.6698 5.3636,0.0501 1.6652,-7.75 z m 29.471,-33.25 3.9203,-2 h 4.8613 l 8.7184,3.9226 4.2946,-4.4226 1.2316,-4.1578 -12.738,-12.232 -5.647,-1.4173 -11.627,12.807 -1.268,4.6475 2.211,4.8525 h 2.1226 z m -0.15429,-27.644 2.6543,-1.6441 12.523,-13.895 5.2893,-9.0255 -1.8126,-5.0721 -4.7251,-1.7377 -16.771,16.37 -5.0041,10.042 v 6.6073 h 5.1914 z m 20.954,0.44411 1.2,-1.2 v -4.29 l -4.0081,-3.6273 -4.9919,2.2744 v 5.6429 l 2.4,2.4 h 4.2 z m -11.778,-36.812 1.8905,-1.0118 1.0382,-3.7382 1.0382,-3.7382 -0.04852,-27 -7.8781,9 -5.3118,10.709 0.92807,14.461 1.4395,2.3292 h 5.0134 l 1.8905,-1.0118 z m -4.5768,-72.954 3.1812,-1.9661 4.7097,-10.055 -8.8361,-12.819 -0.5,0.72628 -0.5,0.72627 -1.5956,0.58643 -1.5956,0.58642 -1.3088,15.483 v 8.6982 h 3.2639 z"
       fill="#4c4b52"
       id="path22" />
    <path
       d="m 68.313,812.92 -3.1865,-0.94199 -7.2659,-9.4757 -6.9296,-11 -0.56476,-2.5 -0.56476,-2.5 -1.901,-5.2875 -1.901,-5.2875 v -7.8641 l 4,-7.1217 v -11.003 l 3,-7.18 v -375.45 l -4.2383,-3.81 1.2132,-14.504 2.9798,-7.1318 1.9467,-15.525 -0.55623,-2.4194 -0.55623,-2.4195 -1.8415,-7.4091 -5.1252,-6.0909 h -1.6193 l -5.5295,15.5 -4.022,4.5 h -3.9515 l -11.023,-5.5 -12.6769998,-12.611 v -8.232 l 4.9100998,-12.157 4.0899,-7.9229 v -2.5594 l 4.8367,-14.518 5.014,-17 4.1181,-18.237 2.0632,-23.763 1.9116,-6 1.0183,-14.5 1.0183,-14.5 0.0099,-29.04 0.0099,-29.04 3,-11.518 0.03088,-9.7012 0.03088,-9.7012 1.8521,-14.251 4.9004,-12.749 5.5376,-15 3.3962,-8 2.5126,-8 1.4747,-2 3.5293,-11 1.9803,-2.5 h 13.567 l 3.0742,8.5 5.0139,13 6.2467,16 5.0016,14 4.9147,17.964 2.0102,31.036 0.87297,37 0.87296,37 1.357,17.833 0.95999,2.525 0.95998,2.525 1.8856,22.117 4.2121,19 4.987,17 3.8191,11.508 v 3.2991 l 4.7926,10.193 5.2074,12.44 v 9.3908 l -11.537,11.36 -11.963,6.3056 -4.1514,0.004 -2.0884,-2.25 -2.0883,-2.25 -1.6115,-5.5938 -1.6115,-5.5938 -2.8059,-3.8124 -7.1434,8 -1.2642,6.7241 1.0476,17.276 4.2171,9.6658 v 13.524 l -4,3.62 v 375.47 l 3.9561,8.7184 0.0514,12 4.0756,6.685 -4.1116,16.315 -5.7178,11.279 -7.1557,10.78 -4.5981,4.2925 -5,1.0079 -3.1865,-0.94198 z m 14.035,-20.87 4.7974,-8.065 0.54902,-5.3195 0.54902,-5.3195 -6.1267,-2.5378 -7.6176,2.4403 -4.5,4.1023 v 3.4975 l -5.8462,-5.8462 h -3.4178 l -6.7361,4.1631 v 1.9341 l 10.405,17.403 8.0949,7.5708 5.0515,-5.958 z m -3.6999,-22.696 6.351,-1.5953 v -1.4584 l -2.277,-6.7984 -4.0716,-4.5 -8.1514,-0.17653 12.5,-2.9617 v -6.6347 l -8.5,-1.1724 -12.708,-1.3365 -1.7616,2.7818 -0.03062,7.3242 8.5,1.5099 -2.0203,0.58297 -2.0203,0.58296 -4.5222,3.2323 -1.8923,6.5981 1.2631,5.1695 2.1921,1.5941 10.798,-1.1466 6.351,-1.5953 z m -10.542,-34.911 0.70309,-2.941 0.47372,-72.829 0.47372,-72.829 2.2572,-2.2572 2.922,2.922 1.0074,9.4961 1.0074,9.4961 1.0244,17.211 1.0244,17.211 0.19936,84.577 1.4298,5 0.68177,-14.5 0.68177,-14.5 0.0046,-150 -1.4158,-80 -1.4147,9 -1.0668,21.5 -1.0668,21.5 -1.1289,14 -3.2524,19.5 h -0.82592 -0.82594 l -0.5,-83.5 v -78 l -1.6384,-3.3029 -4.3616,-1.1698 -3.5,-0.0273 0.01101,170.75 0.011,170.75 1.2019,7.2672 5.1796,-1.3852 0.70309,-2.941 z m 7.1434,-350.07 1.75,-0.50798 v -9.5955 l 4.4719,-5.6851 0.40659,-8.5423 0.40659,-8.5423 0.1559,-8.7033 -5.401,-3.9343 -2.2,-8.17 2.2584,-8.9688 4.9016,-9.2076 -0.0023,-6.008 -0.0023,-6.008 14.005,0.66412 v -19.719 l -1.5567,-2.2225 -1.5566,-2.2225 h -1.619 l -7.2675,9.3282 v 9.9818 l -4.0926,-3.7038 -6.1861,-11.606 h -2.1668 l -7.299,8.4747 -4.9967,-2.6741 -7.474,-9.8006 h -2.6942 l -0.99163,6.5 -0.91511,16.576 4.3161,-1.247 10.763,-3.8997 0.53929,0.53929 0.5393,0.5393 -2.3416,10.144 v 6.2399 l 5.5,8.1075 0.75,0.33333 0.75,0.33334 v 17.901 l -6.7798,4.0002 -0.39792,2.2162 -0.39793,2.2162 1.9045,38.689 11.171,-1.3082 z m -40.897,-69.135 0.47069,-0.7616 4.3105,-23.718 1.8443,-3.2585 4.0515,-16 3.9044,-19 2.0659,-8.5287 v -9.2352 l 1.8805,-3.118 1.8805,-3.118 1.1968,-43 2.1161,-10 0.1854,-69 1.2372,-7.7835 1.2372,-7.7835 1.2663,-1.2663 v 3.9771 l 3.1729,9.3119 11.098,11.277 8.9647,3.9655 -0.46058,4.7933 -0.46058,4.7933 -4.5361,8.7156 -13.377,18 -6.2282,11.163 -1.3184,8.837 5.7863,5.5302 5.9704,-7.5302 11.334,-17.14 4.3161,-3.8596 -1.2813,26 2.0099,16 1.8481,36 2.2933,14 1.7713,4 3.307,17 1.533,2 3.4826,16 1.6651,3.1632 4.2773,19.837 2.0313,10.5 h 7.8538 l 8.9474,-8.9474 v -3.6281 l -7.0822,-16.925 -5.062,-15 -5.062,-15 -3.9776,-19 -3.7028,-34 -2.0384,-10 -1.2875,-15.5 -1.2875,-15.5 0.79914,-22 0.15922,-24 -1.6329,-26 -4.7839,-24 -5.9107,-17 -6.2748,-16 -3.9697,-11.293 -3.7299,-3.3755 -3.3215,5.0693 -2.9674,7.7996 -2.9674,7.7996 -5.0299,13 -6.8615,21.73 -2.8958,26.27 -2.1193,23 -0.36187,40 -0.36187,40 -5.4483,32 -3.8954,19 -9.8352,30.242 -4.7705,10.758 -3.4418,9.385 3.1068,4.7416 4.7366,4.1184 3.778,2.1942 5.382,0.0608 0.4707,-0.7616 z m 42.934,-219.75 -5.2132,-7.99 -3.167,-4.5 h -5.7477 l -1.3492,6.143 -0.8193,-0.8193 1.9882,-10.824 3.8912,-13 0.57689,-2.7211 0.57689,-2.7211 4.2097,-2.253 2.9138,2.9138 1.7608,6.7814 4.1197,15 2.8356,10 -0.68161,5.99 -0.68161,5.99 z m -10.617,179.35 5.2083,-2.1587 10.245,4.2576 3.7348,-2.3324 2.1423,-4.7019 v -2.4811 l -9.5,-9.1166 -6.3087,-4.3082 -2.6913,0.1384 -11.931,13.66 -0.92201,2.0663 -0.92201,2.0663 3.3211,5.0686 h 2.4152 l 5.2083,-2.1587 z m -1.8239,-27.485 2.6543,-1.6441 12.523,-13.895 5.2893,-9.0255 -1.8126,-5.0721 -4.7251,-1.7377 -16.771,16.37 -5.0041,10.042 v 6.6073 h 5.1914 z m 21.451,-0.45111 0.99812,-1.5952 -0.64958,-2.5881 -0.64958,-2.5881 -3.9198,-1.2441 -4.0755,2.1812 v 5.5296 l 2.486,2.486 4.8123,-0.58595 z m -12.642,-35.51 2.1544,-0.57797 2.1913,-8.7024 v -26.114 h -1.589 l -7.3419,9.6274 -4.0251,8.8726 -0.04392,12.37 1.9505,5.1302 4.5495,-0.0274 2.1544,-0.57796 z m -2.4948,-74.145 2.5337,-2.75 1.6534,-2.4725 1.6534,-2.4725 v -5.055 l -8.2252,-11.594 -4.2748,2.8371 -0.69237,3.8787 -0.69237,3.8787 -0.05763,8.25 -0.05763,8.25 h 5.6258 z"
       fill="#3a4256"
       id="path24" />
    <path
       d="m 68.313,812.92 -3.1865,-0.94199 -7.2659,-9.4757 -6.9296,-11 -0.56476,-2.5 -0.56476,-2.5 -1.901,-5.2875 -1.901,-5.2875 v -7.8641 l 4,-7.1217 v -11.003 l 3,-7.18 v -375.45 l -4.2383,-3.81 1.2132,-14.504 2.9798,-7.1318 1.9467,-15.525 -0.55623,-2.4194 -0.55623,-2.4195 -1.8415,-7.4091 -5.1252,-6.0909 h -1.6193 l -5.5295,15.5 -4.022,4.5 h -3.9515 l -11.023,-5.5 -12.6769998,-12.611 v -8.232 l 4.9100998,-12.157 4.0899,-7.9229 v -2.5594 l 4.8367,-14.518 5.014,-17 4.1181,-18.237 2.0632,-23.763 1.9116,-6 1.0183,-14.5 1.0183,-14.5 0.0099,-29.04 0.0099,-29.04 3,-11.518 0.03088,-9.7012 0.03088,-9.7012 1.8521,-14.251 4.9004,-12.749 5.5376,-15 3.3962,-8 2.5126,-8 1.4747,-2 3.5293,-11 1.9803,-2.5 h 13.567 l 3.0742,8.5 5.0139,13 6.2467,16 5.0016,14 4.9147,17.964 2.0102,31.036 0.87297,37 0.87296,37 1.357,17.833 0.95999,2.525 0.95998,2.525 1.8856,22.117 4.2121,19 4.987,17 3.8191,11.508 v 3.2991 l 4.7926,10.193 5.2074,12.44 v 9.3908 l -11.537,11.36 -11.963,6.3056 -4.1514,0.004 -2.0884,-2.25 -2.0883,-2.25 -1.6115,-5.5938 -1.6115,-5.5938 -2.8059,-3.8124 -7.1434,8 -1.2642,6.7241 1.0476,17.276 4.2171,9.6658 v 13.524 l -4,3.62 v 375.47 l 3.9561,8.7184 0.0514,12 4.0756,6.685 -4.1116,16.315 -5.7178,11.279 -7.1557,10.78 -4.5981,4.2925 -5,1.0079 -3.1865,-0.94198 z m 14.035,-20.87 4.7974,-8.065 0.54902,-5.3195 0.54902,-5.3195 -6.1267,-2.5378 -7.6176,2.4403 -4.5,4.1023 v 3.4975 l -5.8462,-5.8462 h -3.4178 l -6.7361,4.1631 v 1.9341 l 10.405,17.403 8.0949,7.5708 5.0515,-5.958 z m -3.6999,-22.696 6.351,-1.5953 v -1.4584 l -2.277,-6.7984 -4.0716,-4.5 -8.1514,-0.17653 12.5,-2.9617 v -6.6449 l -4.5,-1.0813 -16.711,-1.4121 -1.7584,2.7767 -0.03062,7.3242 8.5,1.5099 -2.0203,0.58297 -2.0203,0.58296 -4.5222,3.2323 -1.8923,6.5981 1.2631,5.1695 2.1921,1.5941 10.798,-1.1466 6.351,-1.5953 z m -10.399,-32.125 1.75,-1.5367 v -44.361 l 1.3271,-105.33 h 2.6729 l 0.0017,2.5 1.9135,21 1.1146,17.861 1.1146,17.861 0.71923,83.278 1.753,9 1.7034,-9 -0.13716,-238.82 -0.76074,-12.59 -0.76074,-12.59 -1.5034,7 -2.1938,42 -1.5766,16.498 -1.5766,16.498 -0.79594,4.0019 -0.79594,4.0019 -0.35956,-41 -0.35957,-41 v -76 l -1.7534,-5.6458 -4.8768,-1.8542 h -3.8698 v 347.84 l 0.61842,1.6116 0.61842,1.6116 4.2632,-1.2962 z m 7.8157,-352.26 1.9343,-1.0352 v -11.93 h 1.9229 l 1.9812,-7.5 0.29793,-10.825 0.29793,-10.825 -5.46,-3.9868 -2.2,-8.17 2.2584,-8.9688 4.9016,-9.2076 -0.0023,-6.008 -0.0023,-6.008 14.005,0.66412 v -19.719 l -1.5567,-2.2225 -1.5566,-2.2225 h -1.619 l -7.2675,9.3282 v 9.9818 l -4.0926,-3.7038 -6.1861,-11.606 h -2.1668 l -7.299,8.4747 -4.9967,-2.6741 -7.474,-9.8006 h -2.6942 l -0.99163,6.5 -0.91511,16.576 4.3161,-1.247 10.763,-3.8997 0.53929,0.53929 0.5393,0.5393 -2.3416,10.144 v 6.2399 l 5.5,8.1075 0.75,0.33333 0.75,0.33334 v 17.901 l -6.7798,4.0002 -0.39792,2.2162 -0.39793,2.2162 1.8954,38.5 h 11.812 z m -41.713,-69.726 0.47069,-0.7616 4.3105,-23.718 1.8443,-3.2585 4.0515,-16 3.9044,-19 2.0659,-8.5287 v -9.2352 l 1.8805,-3.118 1.8805,-3.118 1.1968,-43 2.1161,-10 0.1854,-69 1.2372,-7.7835 1.2372,-7.7835 1.2663,-1.2663 v 3.9771 l 3.1729,9.3119 11.098,11.277 8.9647,3.9655 -0.46058,4.7933 -0.46058,4.7933 -4.5361,8.7156 -13.377,18 -6.2282,11.163 -1.3184,8.837 5.7863,5.5302 5.9704,-7.5302 11.334,-17.14 4.3161,-3.8596 -1.2813,26 2.0099,16 1.8481,36 2.2933,14 1.7713,4 3.307,17 1.533,2 3.4826,16 1.6651,3.1632 4.2773,19.837 2.0313,10.5 h 7.8538 l 8.9474,-8.9474 v -3.6281 l -7.0822,-16.925 -5.062,-15 -5.062,-15 -3.9776,-19 -3.7028,-34 -2.0384,-10 -1.2875,-15.5 -1.2875,-15.5 0.79914,-22 0.15922,-24 -1.6329,-26 -4.7839,-24 -5.9107,-17 -6.2748,-16 -3.9697,-11.293 -3.7299,-3.3755 -3.3215,5.0693 -2.9674,7.7996 -2.9674,7.7996 -5.0299,13 -6.8615,21.73 -2.8958,26.27 -2.1193,23 -0.36187,40 -0.36187,40 -5.4483,32 -3.8954,19 -9.8352,30.242 -4.7705,10.758 -3.4418,9.385 3.1068,4.7416 4.7366,4.1184 3.778,2.1942 5.382,0.0608 0.4707,-0.7616 z m 42.934,-219.75 -5.2132,-7.99 -3.167,-4.5 h -5.7477 l -1.3492,6.143 -0.8193,-0.8193 1.9882,-10.824 3.8912,-13 0.57689,-2.7211 0.57689,-2.7211 4.2097,-2.253 2.9138,2.9138 1.7608,6.7814 4.1197,15 2.8356,10 -0.68161,5.99 -0.68161,5.99 z m -10.617,179.35 5.2083,-2.1587 10.245,4.2576 3.7348,-2.3324 2.1423,-4.7019 v -2.4811 l -9.5,-9.1166 -6.3087,-4.3082 -2.6913,0.1384 -11.931,13.66 -0.92201,2.0663 -0.92201,2.0663 3.3211,5.0686 h 2.4152 l 5.2083,-2.1587 z m -1.384,-27.389 3.7499,-2.5481 14.937,-17.947 0.60219,-2.3993 0.60219,-2.3993 -0.69126,-3.5894 -5.4524,-3.0604 -18.089,17.992 -3.9446,8.1314 v 7.0352 l 0.66667,0.66666 0.66667,0.66667 h 3.2024 z m 20.714,0.54811 2,-2 v -2.555 l -1.5567,-2.2225 -1.5567,-2.2225 h -3.723 l -3.1636,1.214 v 7.6866 l 3.5,2.0386 1.25,0.0304 1.25,0.0304 z m -12.346,-36.605 2.1544,-0.57797 2.1913,-8.7024 v -26.114 h -1.589 l -7.3419,9.6274 -4.0251,8.8726 -0.04392,12.37 1.9505,5.1302 4.5495,-0.0274 2.1544,-0.57796 z m -2.4948,-74.145 2.5337,-2.75 1.6534,-2.4725 1.6534,-2.4725 v -5.055 l -8.2252,-11.594 -4.2748,2.8371 -0.69237,3.8787 -0.69237,3.8787 -0.05763,8.25 -0.05763,8.25 h 5.6258 z"
       fill="#423b37"
       id="path26" />
    <path
       d="m 66.5,811.45 -3,-1.5013 -11.231,-16.606 -1.2208,-3.9227 -1.2208,-3.9227 -1.4609,-3.2506 -1.4609,-3.2506 -1.158,-9.7776 4.1021,-7.7213 1.0598,-14.81 1.0452,-1.0452 1.0452,-1.0452 v -377.22 l -2.9364,-3.8823 -0.0318,-6.7393 -0.0318,-6.7393 4.0696,-10.521 1.2069,-16.209 -1.8027,-4.8955 -1.8027,-4.8955 -5.0758,-5.5318 -0.98093,0.32698 -0.98093,0.32697 -6.1792,16.827 -5.0175,2.8163 -11.209,-5.3026 -7.7279,-6.0738 -6.4498998,-8.3888 -0.025043,-3.0776 -0.025043,-3.0776 5.1991998,-12.845 1.5362,-2 3.4074,-11 1.7488,-4 4.2846,-15 3.8371,-15 2.036,-6 2.0596,-20 2.0745,-13 0.93196,-5 0.93196,-5 0.51657,-39.5 0.51657,-39.5 2.8503,-13 1.8071,-33.268 3.1361,-6.2865 3.3151,-11.445 1.5463,-2 3.5293,-11 1.4707,-2 3.5293,-11 1.4707,-2 3.5216,-11 3.053,-3.5 h 10.308 l 3.0543,2.5 2.5345,9 1.5328,2 2.5548,8 3.7058,6.9704 v 2.8982 l 3.8631,8.1314 3.3783,12 1.4458,2 3.249806,12 2.1013,32 0.92109,4.5 0.9211,4.5 0.903,84.534 0.99145,1.2329 0.99144,1.2329 1.1168,5.2992 1.1168,5.2992 0.1192,12.402 1.8263,9 4.094,19 1.8166,4 6.1488,20 -0.002,1.2204 -0.002,1.2204 5.1766,11.559 3.634,8 0.66369,5.7262 0.66368,5.7261 -11.904,11.548 -12.37,6.5 h -2.7826 l -4.896,-5.2801 -3.230306,-11.513 -1.5067,-1.2504 -1.5067,-1.2504 -2.5996,2.3968 -2.6005,2.3968 -2.7422,6.4358 v 19.104 l 5,12.305 v 12.585 l -4,2.1407 v 377.06 l 1.9696,3.6801 2.8411,18.912 2.5659,4.1087 -2.4838,13.48 -6.0939,13.034 -5.2988,8.1531 -2,2.7434 -5.7115,5.7566 -6.2885,-0.0456 -3,-1.5013 z m 13.023,-14.03 5.7657,-8.5764 2.624,-7.3472 0.08778,-8.162 -5.2614,-2.8158 -4.9035,0.64258 -6.7096,3.9588 -1.7785,5.3356 -3.577,-5.4592 h -6.6585 l -5.6115,4.8813 6,11.615 6.7428,9.8087 5.2572,4.632 2.2569,0.0632 z m -4.0225,-26.995 9,-1.5649 1.7302,-1.694 -5.4669,-11.174 -6.2633,-1.8155 3.4059,-0.18038 5.0941,-2.321 -0.01531,-4.5895 -0.01531,-4.5895 -0.73469,1.0736 -0.73469,1.0736 -19,-1.9519 -0.68129,-1.0454 -0.68129,-1.0454 -1.0079,4.8957 -0.5014,3.7469 -0.5014,3.7468 4.8732,1.2231 v 0.99534 l -4.8255,3.7958 -0.64047,3.7909 -0.64047,3.7909 2.057,5.4103 6.5495,-0.006 9,-1.5649 z m -7.25,-33.202 1.75,-1.5367 v -44.361 l 1.3271,-105.33 h 2.6729 l 0.0017,2.5 1.9135,21 1.1146,17.861 1.1146,17.861 0.71923,83.278 1.6644,9 1.962,-3 0.28566,-94 0.28566,-94 -1.6131,-85 -2.3957,11 -2.0921,41 -1.5747,16.498 -1.5747,16.498 -0.79594,4.0019 -0.79594,4.0019 -0.35956,-41 -0.35957,-41 v -77 l -1.199,-2.6811 -1.199,-2.6811 -8.6019,-1.7011 -0.25281,173.84 -0.25281,173.84 2.1274,3.9751 4.3782,-1.3327 z m 7.8157,-352.26 1.9343,-1.0352 v -11.93 H 80.05 l 1.6662,-4.5 0.68248,-11.743 0.68248,-11.743 -7.0807,-7.0807 0.0038,-6.2167 0.0038,-6.2167 5.985,-12 0.0038,-5.75 0.0036,-5.75 h 14 v -20.131 l -2.0704,-3.8685 h -2.5373 l -6.7225,6.9358 -0.92058,11.101 -2.8646,-2.3774 -5.2231,-9.1594 -3.0288,-3.5632 -9.798,9.5632 -11.335,-12.514 -2.2574,0.014 -2.1554,5.5 -0.24556,8.5 -0.24556,8.5 6.7033,-0.54821 7.2007,-3.2881 1.5509,-0.81317 -0.65865,9.3701 -0.65865,9.3701 2.7924,2.9093 3.7602,5.8664 -0.2132,8.0655 -0.2132,8.0655 -3.1697,3.5025 h -2.5675 l -1.3622,9.0838 0.72731,17.458 0.72731,17.458 h 12.917 l 1.9343,-1.0352 z m -40.7,-71.715 0.52472,-2.75 2.3386,-15 1.553,-2 3.4755,-16 1.6231,-2.0612 3.3983,-18.939 0.84159,-1.0797 0.84159,-1.0796 0.62509,-8.9204 0.62509,-8.9203 3.9001,-8.3637 0.88745,-43.327 1.4882,-2.3092 1.56,-40 -0.03992,-12 -0.56503,-12.389 -0.56503,-12.389 2.1219,-2.122 0.09964,-11.1 5.5946,11.48 10.231,10.231 8.5749,4.6271 -0.08556,4.0709 -0.08556,4.0709 -5.65,10.52 -9.6788,12.284 v 2.0024 l -2.5,0.97442 -6.484,12.74 -1.2976,9.5713 4.6303,4.9287 h 2.581 l 2.3698,-4.5 1.4643,-1 13.443,-20 1.3502,-1.4178 1.3502,-1.4178 -0.18111,16.418 -0.18111,16.418 2.338,39 4.0721,26 1.9403,4 3.3624,16 1.4848,2 1.7378,8 1.7378,8 1.5687,2 3.4723,21 2.2294,5.5 h 7.506 l 8.2159,-7.4226 0.87618,-2.3045 0.87619,-2.3045 -5.9626,-13.018 v -2.5049 l -1.367,-1.9725 -1.367,-1.9725 -3.4551,-12 -1.4806,-2 -3.615,-14 -1.4649,-2 -1.6889,-11.5 -1.6889,-11.5 -0.89552,-3.5 -0.89551,-3.5 -3.034,-33 -0.53954,-4.5 -0.53955,-4.5 -2.2406,-17 0.2322,-12.5 0.2322,-12.5 0.14572,-12.5 0.14572,-12.5 -2.3856,-35.37 -1.9931,-3.6301 -3.3231,-16 -1.567,-2 -3.4786,-12.5 h -1.4864 l -1.2904,-6.452 -3.7442,-8.048 -3.5598,-10 -1.9005,-2.5 h -2.7051 l -3.798,8.5 -2.296,7.1635 -3.9559,7.7593 v 3.1067 l -3.662,6.9704 -2.6483,10 -1.4277,2 -2.2803,10 -2.166,13 -1.7457,21 -0.88331,48.032 -0.88332,48.032 -2.0276,3.9351 -1.3052,12 -2.9004,17 -1.5492,8.1659 -1.5492,8.1659 -4.9716,15.23 -0.0062,1.2191 -0.0062,1.2191 -2.7688,5.3067 -2.4673,7.6933 -2.3758,5.2796 -2.3757,5.2796 v 1.4704 l -4.1056,7.6602 3.3795,5.3102 5.2261,4.5694 4,1.8038 6.3411,0.1268 0.52472,-2.75 z m 44.831,-213.33 -1.2761,-2.4168 -2.4208,-4.0799 -6.8235,-10.599 -7.6279,0.72744 0.62751,-4.0241 0.62752,-4.0241 1.4079,-1 2.711,-13.78 2.8268,-2.8268 4.247,0.60643 3.0037,11 1.2128,2 3.6102,18 1.8492,2.4124 -1.2712,2.0569 -0.71395,4.1822 -0.71395,4.1822 z m -15.433,176.08 4.1395,-2 5.5966,0.0878 7.9662,2.8368 4.36,-2.8568 1.3781,-6.2743 -7.7043,-8.2579 -2.4013,-1.5797 -2.9827,-2.9827 -5.629,-1.1258 -9.9871,11.009 -3.5,4.5503 v 4.1864 l 1.75,2.1901 1.75,2.1902 0.56217,0.0132 0.56217,0.0133 4.1395,-2 z m 22.914,-29.852 0.62979,-2.5093 -2.8706,-5.1386 -5.1081,-0.60112 -1.084,1.3062 -1.084,1.3062 -1.3523,5.3882 5.0996,5.0996 5.1399,-2.3419 z m -16.56,-4.0836 7.8826,-7.9357 v -1.2458 l 6.2501,-7.7774 0.6883,-5.9116 -2.4496,-2.033 -5.5386,-1.3901 -16.95,17.336 v 0.77884 l -4.5,7.6143 v 7 l 2,1.4694 4.7348,0.0306 7.8826,-7.9358 z m 3.6296,-31.043 2.1241,-1.9789 0.61809,-4.2711 0.61809,-4.2711 -0.60731,-25.921 -8.482,10.921 -0.82946,1.0156 -0.82946,1.0156 -2.3591,6.7673 v 13.571 l 1.9505,5.1302 h 5.6724 z m -5.0805,-71.794 1.1665,-0.74209 6.167,-7.7602 v -6.957 l -7.3762,-10.268 -0.61538,-0.82488 -4.5589,2.0772 -2.4496,14.285 v 10.963 l 6.5,-0.0306 1.1665,-0.74208 z"
       fill="#2e3448"
       id="path28" />
    <path
       d="m 66.5,811.45 -3,-1.5013 -11.231,-16.606 -1.2208,-3.9227 -1.2208,-3.9227 -1.4609,-3.2506 -1.4609,-3.2506 -1.158,-9.7776 4.1021,-7.7213 1.0598,-14.81 1.0452,-1.0452 1.0452,-1.0452 v -377.22 l -2.9364,-3.8823 -0.0318,-6.7393 -0.0318,-6.7393 4.0696,-10.521 1.2069,-16.209 -1.8027,-4.8955 -1.8027,-4.8955 -5.0758,-5.5318 -0.98093,0.32698 -0.98093,0.32697 -6.1792,16.827 -5.0175,2.8163 -11.209,-5.3026 -7.7279,-6.0738 -6.4498998,-8.3888 -0.025043,-3.0776 -0.025043,-3.0776 5.1991998,-12.845 1.5362,-2 3.4074,-11 1.7488,-4 4.2846,-15 3.8371,-15 2.036,-6 2.0596,-20 2.0745,-13 0.93196,-5 0.93196,-5 0.51657,-39.5 0.51657,-39.5 2.8503,-13 1.8071,-33.268 3.1361,-6.2865 3.3151,-11.445 1.5463,-2 3.5293,-11 1.4707,-2 3.5293,-11 1.4707,-2 3.5216,-11 3.053,-3.5 h 10.308 l 3.0543,2.5 2.5345,9 1.5328,2 2.5548,8 3.7058,6.9704 v 2.8982 l 3.8631,8.1314 3.3783,12 1.4458,2 3.249806,12 2.1013,32 0.92109,4.5 0.9211,4.5 0.903,84.534 0.99145,1.2329 0.99144,1.2329 1.1168,5.2992 1.1168,5.2992 0.1192,12.402 1.8263,9 4.094,19 1.8166,4 6.1488,20 -0.002,1.2204 -0.002,1.2204 5.1766,11.559 3.634,8 0.66369,5.7262 0.66368,5.7261 -11.904,11.548 -12.37,6.5 h -2.7826 l -4.896,-5.2801 -3.230306,-11.513 -1.5067,-1.2504 -1.5067,-1.2504 -2.5996,2.3968 -2.6005,2.3968 -2.7422,6.4358 v 19.104 l 5,12.305 v 12.585 l -4,2.1407 v 377.06 l 1.9696,3.6801 2.8411,18.912 2.5659,4.1087 -2.4838,13.48 -6.0939,13.034 -5.2988,8.1531 -2,2.7434 -5.7115,5.7566 -6.2885,-0.0456 -3,-1.5013 z m 13.023,-14.03 5.7657,-8.5764 2.624,-7.3472 0.08778,-8.162 -5.2614,-2.8158 -4.9035,0.64258 -6.7096,3.9588 -1.7785,5.3356 -3.577,-5.4592 h -6.6585 l -5.6115,4.8813 6,11.615 6.7428,9.8087 5.2572,4.632 2.2569,0.0632 z m -4.0225,-26.995 9,-1.5649 1.7302,-1.694 -5.4669,-11.174 -6.2633,-1.8155 3.4059,-0.18038 4.9886,-2.273 -0.44232,-144.61 -0.44232,-144.61 -0.41389,-38.812 -0.41389,-38.812 -0.68385,-5.8921 -0.68385,-5.8921 2.0149,-6.5925 0.63786,-11.231 0.63786,-11.231 -7.105,-7.105 0.0038,-6.2167 0.0038,-6.2167 5.985,-12 0.0038,-5.75 0.0036,-5.75 h 14 v -20.131 l -2.0704,-3.8685 h -2.5373 l -6.7225,6.9358 -0.92058,11.101 -2.8646,-2.3774 -5.2231,-9.1594 -3.0288,-3.5632 -9.798,9.5632 -11.335,-12.514 -2.2574,0.014 -2.1554,5.5 -0.24556,8.5 -0.24556,8.5 6.7033,-0.54821 7.2007,-3.2881 1.5509,-0.81317 -0.65865,9.3701 -0.65865,9.3701 2.7924,2.9093 3.7602,5.8664 -0.2132,8.0655 -0.2132,8.0655 -3.1697,3.5025 H 61.223 l -0.57433,3.25 -0.57433,3.25 -0.04144,200.68 -0.04143,200.68 -1.1729,3.0565 5.1818,1.3006 v 0.99534 l -4.8255,3.7958 -0.64047,3.7909 -0.64047,3.7909 2.057,5.4103 6.5495,-0.006 9,-1.5649 z m -40.134,-457.18 0.52472,-2.75 2.3386,-15 1.553,-2 3.4755,-16 1.6231,-2.0612 3.3983,-18.939 0.84159,-1.0797 0.84159,-1.0796 0.62509,-8.9204 0.62509,-8.9203 3.9001,-8.3637 0.88745,-43.327 1.4882,-2.3092 1.56,-40 -0.03992,-12 -0.56503,-12.389 -0.56503,-12.389 2.1219,-2.122 0.09964,-11.1 5.5946,11.48 10.231,10.231 8.5749,4.6271 -0.08556,4.0709 -0.08556,4.0709 -5.65,10.52 -9.6788,12.284 v 2.0024 l -2.5,0.97442 -6.484,12.74 -1.2976,9.5713 4.6303,4.9287 h 2.581 l 2.3698,-4.5 1.4643,-1 13.443,-20 1.3502,-1.4178 1.3502,-1.4178 -0.18111,16.418 -0.18111,16.418 2.338,39 4.0721,26 1.9403,4 3.3624,16 1.4848,2 1.7378,8 1.7378,8 1.5687,2 3.4723,21 2.2294,5.5 h 7.506 l 8.2159,-7.4226 0.87618,-2.3045 0.87619,-2.3045 -5.9626,-13.018 v -2.5049 l -1.367,-1.9725 -1.367,-1.9725 -3.4551,-12 -1.4806,-2 -3.615,-14 -1.4649,-2 -1.6889,-11.5 -1.6889,-11.5 -0.89552,-3.5 -0.89551,-3.5 -3.034,-33 -0.53954,-4.5 -0.53955,-4.5 -2.2406,-17 0.2322,-12.5 0.2322,-12.5 0.14572,-12.5 0.14572,-12.5 -2.3856,-35.37 -1.9931,-3.6301 -3.3231,-16 -1.567,-2 -3.4786,-12.5 h -1.4864 l -1.2904,-6.452 -3.7442,-8.048 -3.5598,-10 -1.9005,-2.5 h -2.7051 l -3.798,8.5 -2.296,7.1635 -3.9559,7.7593 v 3.1067 l -3.662,6.9704 -2.6483,10 -1.4277,2 -2.2803,10 -2.166,13 -1.7457,21 -0.88331,48.032 -0.88332,48.032 -2.0276,3.9351 -1.3052,12 -2.9004,17 -1.5492,8.1659 -1.5492,8.1659 -4.9716,15.23 -0.0062,1.2191 -0.0062,1.2191 -2.7688,5.3067 -2.4673,7.6933 -2.3758,5.2796 -2.3757,5.2796 v 1.4704 l -4.1056,7.6602 3.3795,5.3102 5.2261,4.5694 4,1.8038 6.3411,0.1268 0.52472,-2.75 z m 44.831,-213.33 -1.2761,-2.4168 -2.4208,-4.0799 -6.8235,-10.599 -7.6279,0.72744 0.62751,-4.0241 0.62752,-4.0241 1.4079,-1 2.711,-13.78 2.8268,-2.8268 4.247,0.60643 3.0037,11 1.2128,2 3.6102,18 1.8492,2.4124 -1.2712,2.0569 -0.71395,4.1822 -0.71395,4.1822 z m -15.433,176.08 4.1395,-2 5.5966,0.0878 7.9662,2.8368 4.36,-2.8568 1.3781,-6.2743 -7.7043,-8.2579 -2.4013,-1.5797 -2.9827,-2.9827 -5.629,-1.1258 -9.9871,11.009 -3.5,4.5503 v 4.1864 l 1.75,2.1901 1.75,2.1902 0.56217,0.0132 0.56217,0.0133 4.1395,-2 z m 22.914,-29.852 0.62979,-2.5093 -2.8706,-5.1386 -5.1081,-0.60112 -1.084,1.3062 -1.084,1.3062 -1.3523,5.3882 5.0996,5.0996 5.1399,-2.3419 z m -16.987,-3.3978 7.4779,-7.25 7.8311,-11.983 v -4.2718 l -2.5112,-2.0841 -5.597,-1.4048 -16.576,16.744 -5.3158,9.7519 v 6.4148 l 0.66667,0.66666 0.66667,0.66667 h 5.8798 z m 4.056,-31.729 2.1241,-1.9789 0.61809,-4.2711 0.61809,-4.2711 -0.60731,-25.921 -8.482,10.921 -0.82946,1.0156 -0.82946,1.0156 -2.3591,6.7673 v 13.571 l 1.9505,5.1302 h 5.6724 z m -5.0805,-71.794 1.1665,-0.74209 6.167,-7.7602 v -6.957 l -7.3762,-10.268 -0.61538,-0.82488 -4.5589,2.0772 -2.4496,14.285 v 10.963 l 6.5,-0.0306 1.1665,-0.74208 z"
       fill="#352a1e"
       id="path30" />
    <path
       d="m 81.365,451.5 0.0047,-10 0.73688,10.567 -0.74635,9.433 0.0047,-10 z M 82.3697,430 v -10.5 l 0.73455,10.5 -0.73455,10.5 z m -1.1429,-30.603 -0.2271,-16.103 -0.49588,-6.3967 -0.49588,-6.3967 2.0351,6.4467 -0.58918,38.553 z m -21.148,-12.98 0.07895,-1.9167 1.0504,2.625 -0.60417,0.60417 -0.60417,0.60416 0.07895,-1.9167 z m -8.4531,-21.278 -1.6259,-1.7966 0.04218,-12.843 4.9491,-14 0.0044,-8.191 0.0044,-8.191 -0.87084,-0.5382 -0.87084,-0.53821 -1.1276,-5.6382 -5.4034,-5.4034 h -1.6334 l -2.9018,6.5 -3.1481,9.7273 -4.35,3.7727 h -1.751 l -12.375,-6.2469 -12.5679998,-12.568 v -8.0672 l 2,-1.2361 v -2.9744 l 6.7377998,-14.408 1.4932,-7 1.4844,-2 3.615,-14 1.4517,-2 3.3231,-16 0.88202,-1.6317 0.88202,-1.6317 1.1429,-10.368 1.1429,-10.368 1.9317,-13 1.9583,-11 1.1062,-80 2.0884,-7 1.2296,-19.095 1.2296,-19.095 3.1752,-6.3649 3.3151,-11.445 1.5463,-2 3.5293,-11 1.4707,-2 3.5293,-11 1.4707,-2 3.5216,-11 3.053,-3.5 h 9.5264 l 3.0608,1.1745 3.3674,10.325 1.4707,2 3.5716,11 2.4231,4 2.5298,9.5 h 1.362 l 2.6122,10.5 2.5683,6 2.324,7 4.1066,42 1.5286,87.508 2.0993,2.5295 1.0166,6.4814 1.0166,6.4814 0.60473,9.4599 0.60474,9.4599 1.7417,2.0987 3.3525,17.981 1.5176,2 3.615,14 0.70445,1 0.70444,1 0.70126,4 0.70127,4 4.6332,10 4.0574,10 0.52476,5.1491 0.52475,5.1491 -11.971,11.971 -12.656,6.2305 h -2.1736 l -2.4753,-2.6695 -2.4753,-2.6695 -1.7403,-6.4291 -1.7403,-6.4291 -2.7692,-1.0626 -5.7353,5.4948 -2.2751,5.4925 0.36779,10.886 0.36779,10.886 2.1971,5.4859 2.1971,5.4859 v 10.708 l -4.5,3.754 -7.7935,0.0666 0.68711,-11.493 0.68711,-11.493 -7.3238,-7.3238 0.94349,-14.702 2.9129,-3.4886 2.3867,-5.5941 v -11.906 h 14 v -20.131 l -2.0704,-3.8685 h -2.5373 l -6.7225,6.9358 -0.92058,11.101 -2.8646,-2.3774 -5.2231,-9.1594 -3.0288,-3.5632 -9.798,9.5632 -11.335,-12.514 -2.2574,0.014 -2.1098,5.5 -0.3913,8.8284 -0.3913,8.8284 7.1497,-1.3225 7,-3.1707 1.5509,-0.81317 -1.3669,19.445 2.8435,2.2042 3.7587,5.8664 -0.2132,8.0655 -0.2132,8.0655 -3.1697,3.5026 h -2.44 l -1.25,6.25 v 14.03 l -3.5,2.7543 -1.6241,0.95094 -1.6241,0.95093 z m -16.26,-51.889 0.52472,-2.75 2.3386,-15 1.553,-2 3.4755,-16 1.6231,-2.0612 3.3983,-18.939 1.5508,-2 1.2624,-15 0.98639,-6.4357 2.9805,-2.9804 0.4739,-22.643 0.4739,-22.643 0.73788,-1.149 0.73788,-1.149 0.78812,-19.5 0.78812,-19.5 -0.04336,-13 -0.5687,-12.389 -0.5687,-12.389 2.122,-2.122 0.09964,-11.1 5.5946,11.48 10.231,10.231 8.5749,4.6271 -0.08556,4.0709 -0.08556,4.0709 -5.65,10.52 -9.6788,12.284 v 2.0024 l -2.5,0.97442 -6.484,12.74 -1.2976,9.5713 4.6303,4.9287 h 2.581 l 2.3698,-4.5 1.4643,-1 13.443,-20 1.3502,-1.4178 1.3502,-1.4178 -0.18111,16.418 -0.18111,16.418 2.338,39 4.0721,26 1.9403,4 3.3624,16 1.4848,2 1.7378,8 1.7378,8 1.5687,2 3.4723,21 2.2294,5.5 h 7.506 l 8.2159,-7.4226 0.87618,-2.3045 0.87619,-2.3045 -5.9626,-13.018 v -2.5049 l -1.367,-1.9725 -1.367,-1.9725 -3.4551,-12 -1.4806,-2 -3.615,-14 -1.4649,-2 -1.6889,-11.5 -1.6889,-11.5 -1.7373,-7 -1.569,-15.5 -1.569,-15.5 0.0013,-4.7636 0.0013,-4.7636 -1.841795,-3.4729 -1.1974,-14.028 -1.1974,-14.028 1.2641,-9.2501 1.2641,-9.2501 -0.64315,-11.722 -0.64315,-11.722 -0.94816,-15.176 -0.94816,-15.176 -2.0039,-3.6475 -3.3231,-16 -1.5406,-2 -3.4305,-12 -1.5463,-2 -3.5595,-11 -1.289,-1 -2.732,-9 -2.7303,-4.5 h -2.9039 l -3.798,8.5 -2.296,7.1635 -3.9559,7.7593 v 3.1067 l -3.662,6.9704 -2.6483,10 -1.5109,2 -3.1788,15.416 v 5.6843 l -1.871,1.9 -0.50299,10.5 -0.50299,10.5 -0.91233,48.218 -0.91233,48.218 -1.0123,1.2822 -1.0123,1.2822 -1.2838,13 -2.9581,17 -3.0256,16 -5.0064,15.624 -0.0124,2.3765 -2.7688,5.3067 -2.4673,7.6933 -2.3758,5.2796 -2.3757,5.2796 v 1.4704 l -4.1056,7.6602 3.3795,5.3102 5.2261,4.5694 4,1.8038 6.3411,0.1268 0.52472,-2.75 z m 44.831,-213.33 -1.2761,-2.4168 -2.4208,-4.0799 -6.8235,-10.599 -7.6279,0.72744 0.62751,-4.0241 0.62752,-4.0241 1.4079,-1 2.711,-13.78 2.8268,-2.8268 4.2507,0.60643 2.9571,12 1.2208,1 3.6451,18 1.8492,2.4124 -1.2712,2.0569 -0.71395,4.1822 -0.71395,4.1822 z m -17.197,177.24 v -0.83994 l 7.8116,-2.578 6.6884,1.2687 5.0205,2.6218 4.4353,-4.1614 1.2511,-6.2557 -8.3624,-8.6169 -6.2331,-4.5986 h -4.3213 l -9.7901,10.69 -1.75,2.3582 -1.75,2.3582 v 4.9254 l 3.5,3.5489 1.75,0.0594 1.75,0.0595 z m 24.678,-31.012 0.62979,-2.5093 -2.8706,-5.1386 -5.1081,-0.60112 -1.084,1.3062 -1.084,1.3062 -1.3523,5.3882 5.0996,5.0996 5.1399,-2.3419 z m -16.987,-3.3978 7.4779,-7.25 7.8311,-11.983 v -4.2718 l -2.5112,-2.0841 -5.597,-1.4048 -16.576,16.744 -5.3158,9.7519 v 6.4148 l 0.66667,0.66666 0.66667,0.66667 h 5.8798 z m 3.5966,-31.17 1.7876,-1.3559 1.9248,-6.7113 -0.05676,-29.013 -7.9447,8.9292 -1.1333,3.5708 h -1.7712 l -2.0829,7.5 -0.0112,13.37 1.9505,5.1302 5.5495,-0.0636 1.7876,-1.3559 z m -2.0526,-74.46 2.5656,-2.8794 2.1994,-4.1096 v -6.4851 l -7.3324,-10.646 H 67.382 l -3.1505,2.5 -1.5002,6 -0.4344,9.25 -0.4344,9.25 h 7.8066 z"
       fill="#2f2722"
       id="path32" />
  </g>
</svg>
