<?xml version="1.0" encoding="UTF-8" standalone="no"?>
<svg
   xmlns:dc="http://purl.org/dc/elements/1.1/"
   xmlns:cc="http://creativecommons.org/ns#"
   xmlns:rdf="http://www.w3.org/1999/02/22-rdf-syntax-ns#"
   xmlns:svg="http://www.w3.org/2000/svg"
   xmlns="http://www.w3.org/2000/svg"
   xmlns:xlink="http://www.w3.org/1999/xlink"
   version="1.1"
   id="svg9019"
   viewBox="0 0 1528.8403 1530.9702"
   height="432.07382mm"
   width="431.47272mm">
  <defs
     id="defs9021">
    <linearGradient
       id="linearGradient9621">
      <stop
         id="stop9623"
         offset="0"
         style="stop-color:#c7a885;stop-opacity:1;" />
      <stop
         id="stop9625"
         offset="1"
         style="stop-color:#c7a885;stop-opacity:0;" />
    </linearGradient>
    <radialGradient
       gradientUnits="userSpaceOnUse"
       gradientTransform="matrix(1,0,0,0.95519345,0,15.346467)"
       r="701.42859"
       fy="342.505"
       fx="-35.697505"
       cy="342.505"
       cx="-35.697505"
       id="radialGradient9627"
       xlink:href="#linearGradient9621" />
    <filter
       height="1.077739"
       y="-0.038869497"
       width="1.0670501"
       x="-0.033525051"
       id="filter9635"
       style="color-interpolation-filters:sRGB">
      <feGaussianBlur
         id="feGaussianBlur9637"
         stdDeviation="4.3101324" />
    </filter>
    <filter
       height="1.0069056"
       y="-0.0034528176"
       width="1.0075206"
       x="-0.0037602889"
       id="filter9643"
       style="color-interpolation-filters:sRGB">
      <feGaussianBlur
         id="feGaussianBlur9645"
         stdDeviation="1.2250578" />
    </filter>
  </defs>
  <metadata
     id="metadata9024">
    <rdf:RDF>
      <cc:Work
         rdf:about="">
        <dc:format>image/svg+xml</dc:format>
        <dc:type
           rdf:resource="http://purl.org/dc/dcmitype/StillImage" />
        <dc:title></dc:title>
      </cc:Work>
    </rdf:RDF>
  </metadata>
  <g
     transform="translate(811.41181,389.89379)"
     id="layer1">
    <path
       id="path9609"
       d="m -699.98324,-261.78072 -2.85714,134.28572 77.14286,48.57142 5.71428,22.85715 -34.28571,85.71428 17.14285,28.57143 171.42858,97.14286 8.57142,25.71428 0,68.57143 -85.71428,102.85715 -77.14286,40 -54.28571,37.14285 -8.57143,42.85715 57.14286,82.85714 -34.28572,82.85717 34.28572,102.8571 -111.42858,111.4286 0,37.1428 c 0,0 40,14.2858 51.42858,11.4286 11.42857,-2.8571 62.85714,5.7143 62.85714,5.7143 l 57.14285,22.85719 c 0,0 94.28572,-17.14289 105.71429,-22.85719 11.42857,-5.7143 94.28572,-37.1429 94.28572,-37.1429 l 71.42857,0 20,48.5715 65.71428,-34.2857 51.42857,-14.2858 217.14286,2.8572 45.71429,42.8571 231.42854,97.14289 80,-62.85719 31.4286,-40 8.5714,-154.2857 22.8572,-51.4285 142.8571,-20 40,-100.00004 -2.8571,-20 -111.4286,-122.85715 80,-71.42857 c 0,0 -145.7143,-125.71428 -134.2857,-128.57143 11.4286,-2.85714 60,-40 60,-40 L 622.87389,89.64785 505.73109,-47.495 l 14.2857,-31.42858 51.4285,-31.42857 71.4286,-51.42857 22.8572,-77.14286 -77.1429,-20 -42.8571,-22.85714 -28.5715,-45.71428 -88.5714,22.85714 -114.2857,57.14286 -97.1429,68.57142 -11.4285,14.28572 -34.28576,-28.57143 -51.42857,-20 -82.85714,11.42857 -54.28572,60 -71.42857,22.85714 -80,-57.14285 -171.42857,-97.14286 -80,71.42857 -140,-42.85714 -97.14286,-17.14286 z"
       style="fill:#edc595;fill-opacity:1;fill-rule:evenodd;stroke:none;stroke-width:1px;stroke-linecap:butt;stroke-linejoin:miter;stroke-opacity:1" />
    <path
       style="fill:url(#radialGradient9627);fill-opacity:1;fill-rule:evenodd;stroke:none;stroke-width:1px;stroke-linecap:butt;stroke-linejoin:miter;stroke-opacity:1"
       d="m -699.98324,-261.78072 -2.85714,134.28572 77.14286,48.57142 5.71428,22.85715 -34.28571,85.71428 17.14285,28.57143 171.42858,97.14286 8.57142,25.71428 0,68.57143 -85.71428,102.85715 -77.14286,40 -54.28571,37.14285 -8.57143,42.85715 57.14286,82.85714 -34.28572,82.85717 34.28572,102.8571 -111.42858,111.4286 0,37.1428 c 0,0 40,14.2858 51.42858,11.4286 11.42857,-2.8571 62.85714,5.7143 62.85714,5.7143 l 57.14285,22.85719 c 0,0 94.28572,-17.14289 105.71429,-22.85719 11.42857,-5.7143 94.28572,-37.1429 94.28572,-37.1429 l 71.42857,0 20,48.5715 65.71428,-34.2857 51.42857,-14.2858 217.14286,2.8572 45.71429,42.8571 231.42854,97.14289 80,-62.85719 31.4286,-40 8.5714,-154.2857 22.8572,-51.4285 142.8571,-20 40,-100.00004 -2.8571,-20 -111.4286,-122.85715 80,-71.42857 c 0,0 -145.7143,-125.71428 -134.2857,-128.57143 11.4286,-2.85714 60,-40 60,-40 L 622.87389,89.64785 505.73109,-47.495 l 14.2857,-31.42858 51.4285,-31.42857 71.4286,-51.42857 22.8572,-77.14286 -77.1429,-20 -42.8571,-22.85714 -28.5715,-45.71428 -88.5714,22.85714 -114.2857,57.14286 -97.1429,68.57142 -11.4285,14.28572 -34.28576,-28.57143 -51.42857,-20 -82.85714,11.42857 -54.28572,60 -71.42857,22.85714 -80,-57.14285 -171.42857,-97.14286 -80,71.42857 -140,-42.85714 -97.14286,-17.14286 z"
       id="path9611" />
    <path
       style="fill:#000000"
       d="M 218.98197,984.43712 C 125.99767,945.34754 108.6593,935.94455 84.045643,911.25987 l -28.242517,-28.32438 -66.387423,-0.17268 c -36.51254,-0.0947 -90.887473,1.65103 -120.832073,3.87973 -49.14317,3.65764 -57.65105,6.07931 -87.37722,24.87144 -18.11285,11.45065 -37.93911,22.44991 -44.05831,24.44271 -15.46494,5.03743 -35.94515,-14.71861 -35.94515,-34.67462 0,-13.57064 -3.10419,-16.6768 -19.61285,-19.62697 -37.89642,-6.77213 -57.43769,-3.37379 -93.66342,16.28837 -76.52082,41.53319 -145.74255,52.57306 -196.79054,31.38505 -14.13757,-5.86812 -44.06268,-13.57048 -66.49978,-17.11626 -75.44259,-11.92257 -75.79846,-12.04075 -82.3137,-27.35284 -3.43617,-8.07561 -4.53449,-20.78181 -2.44075,-28.23607 4.69139,-16.70184 65.7981,-74.81931 102.38969,-97.38059 24.73226,-15.2497 26.69605,-18.19575 22.92853,-34.40254 -2.2663,-9.74861 -13.02606,-33.61372 -23.91073,-53.03357 l -19.79047,-35.30896 20.57437,-34.7873 c 11.31581,-19.13308 20.49463,-36.79389 20.39671,-39.24637 -0.0942,-2.45246 -14.48527,-23.40441 -31.9724,-46.55983 -17.48772,-23.15542 -32.17445,-46.58969 -32.63703,-52.07615 -0.46442,-5.48648 3.9778,-21.12476 9.86731,-34.75181 9.90308,-22.91329 15.22772,-26.88495 70.81149,-52.81495 53.37703,-24.90069 65.31295,-33.47729 106.65557,-76.63799 l 46.55302,-48.59953 0,-41.28213 0,-41.28214 -61.72237,-29.20388 c -44.36708,-20.99224 -71.72024,-38.56951 -97.27973,-62.511815 -19.55634,-18.319386 -35.50081,-34.12616 -35.43178,-35.126179 0.0689,-1.000019 6.8303,-25.149077 15.0244,-53.664553 l 14.89822,-51.846337 -35.42047,-21.053716 c -26.86236,-15.96639 -37.5939,-26.47386 -44.4129,-43.48455 -11.75703,-29.32877 -10.39824,-125.27172 1.92991,-136.28696 13.47542,-12.04062 141.66558,4.91753 223.0793,29.51098 l 65.39204,19.75364 36.12905,-30.79081 c 20.62014,-17.57355 41.86668,-30.79085 49.49527,-30.79085 18.26537,0 122.58184,55.44824 192.85106,102.50715 57.746461,38.67315 57.817411,38.70081 81.589408,31.93213 13.085711,-3.72596 33.676992,-14.86007 45.758503,-24.74235 58.49147,-47.84396 58.910074,-48.01226 119.509039,-48.01226 53.03438,0 56.8427,0.82968 77.22939,16.82311 11.79471,9.25267 22.97183,16.82307 24.83897,16.82307 1.8665,0 34.60335,-23.53044 72.7489,-52.28987 69.0874,-52.08848 69.64787,-52.37088 145.55179,-73.34711 42.77227,-11.82018 82.07707,-19.62878 89.60148,-17.80092 7.37192,1.79105 22.8915,14.5848 34.48722,28.43058 18.507,22.09867 26.558,26.61158 65.89915,36.93927 61.70358,16.19844 64.57552,19.32664 54.53752,59.40446 -4.45103,17.77119 -10.73402,37.49032 -13.96184,43.8204 -3.22841,6.33011 -32.74999,26.29234 -65.60417,44.3605 -58.77952,32.325804 -78.70114,52.516263 -66.25815,67.151524 2.95921,3.480134 29.84979,33.548626 59.75799,66.818994 29.90815,33.270368 54.3781,61.701379 54.3781,63.180028 0,1.47865 -15.51644,30.331754 -34.48033,64.118014 -24.34188,43.36779 -39.56586,63.88998 -51.77789,69.79764 -37.77593,18.27489 -38.7004,15.33874 23.75821,75.42605 32.29371,31.06756 61.09853,60.29115 64.01128,64.94138 7.68259,12.26582 -2.94037,26.46722 -42.23446,56.46177 -19.02477,14.52232 -34.59012,28.45829 -34.59012,30.96893 0,2.5106 25.41823,30.26287 56.48495,61.67171 31.06676,31.4089 56.485,60.40238 56.485,64.43005 0,4.02761 -10.21249,32.72839 -22.69505,63.77944 -25.76717,64.09913 -19.48666,60.14224 -117.0488,73.74229 -41.22148,5.74616 -49.20217,8.61995 -51.73019,18.62777 -11.67233,46.20043 -15.31434,69.54129 -19.27582,123.52886 l -4.49245,61.22608 -50.34318,53.73161 c -54.33983,57.99764 -59.07514,61.99644 -73.32443,61.92304 -5.17778,0 -57.42638,-20.232 -116.10802,-44.90087 z m 167.88595,-30.15427 48.63983,-52.27053 0,-44.95984 c 0,-38.71818 18.88107,-144.81453 28.15838,-158.22677 1.71089,-2.47327 35.05963,-8.8121 74.10897,-14.08634 l 70.99848,-9.58951 19.89901,-50.11667 19.89902,-50.11669 -51.14964,-51.66208 c -28.13205,-28.41411 -57.00778,-57.61809 -64.16822,-64.89773 l -13.01853,-13.23569 46.90388,-38.47785 46.90388,-38.4779 -21.68835,-21.18657 c -11.92835,-11.65257 -44.01747,-41.77813 -71.3079,-66.94566 l -49.62018,-45.75916 39.06942,-21.5332 c 36.10645,-19.90009 41.22337,-25.34159 67.47572,-71.74781 C 610.93442,82.724603 614.67123,94.986052 538.5715,11.702299 l -53.33374,-58.368531 14.361,-26.63276 c 12.40788,-23.012147 22.19042,-30.856958 71.95747,-57.705608 l 57.59774,-31.07295 9.1575,-32.19974 9.15745,-32.19973 -25.96049,-5.96765 c -62.46551,-14.35953 -75.05978,-22.25213 -114.62312,-71.83129 -0.8799,-1.10326 -35.55604,8.14319 -77.05744,20.54772 -73.00118,21.81945 -77.55889,24.15245 -140.01373,71.6694 -35.50585,27.01367 -69.5782,52.92036 -75.71624,57.57043 -10.20306,7.72959 -13.45345,6.44401 -37.89454,-14.98838 -26.56862,-23.29843 -27.02302,-23.44308 -73.65388,-23.44308 l -46.920802,0 -40.707478,32.76684 c -27.070121,21.78955 -51.620401,35.99302 -73.281741,42.39694 l -32.573663,9.63016 -70.982166,-47.31783 c -39.03992,-26.0248 -94.52195,-59.32737 -123.29415,-74.00569 l -52.31266,-26.68788 -39.03426,34.56693 -39.03427,34.56693 -62.41776,-20.39168 c -41.64073,-13.60383 -88.00988,-23.57991 -139.30015,-29.96972 l -76.88234,-9.578 0,43.13363 c 0,70.39221 2.59957,75.96356 47.83525,102.50945 23.97851,14.07128 39.82064,27.314823 39.89973,33.354143 0.069,5.508986 -5.91585,31.557535 -13.30662,57.885559 l -13.43713,47.869219 30.69646,28.119401 c 21.44484,19.644566 51.03039,37.282118 98.16464,58.520978 l 67.46815,30.40158 0,49.4175 0,49.41756 -54.21364,57.39193 c -43.9108,46.4855 -61.45882,60.66002 -92.34043,74.58868 -104.96039,47.34126 -109.30031,56.73261 -58.02825,125.5721 19.32036,25.93951 35.12738,49.46858 35.12738,52.28678 0,2.8182 -9.91502,20.79694 -22.03293,39.95277 l -22.03288,34.82875 13.25511,19.16301 c 11.17776,16.15976 36.88284,80.45805 37.03909,92.64783 0,2.06161 -10.54322,9.50363 -23.48772,16.53784 -39.37254,21.39549 -108.26289,83.76643 -108.26289,98.01752 0,14.4046 3.14813,15.54645 68.93116,25.00308 25.83058,3.71327 52.66096,10.02272 59.62306,14.02099 39.44722,22.65399 105.4386,12.13735 182.11323,-29.02207 43.0127,-23.0897 44.85283,-23.51972 87.86553,-20.53989 51.48985,3.56707 59.62302,7.95647 59.62302,32.17862 0,9.90313 1.83139,19.64213 4.07008,21.64217 2.23869,2.0001 21.30238,-7.32349 42.36373,-20.71905 l 38.2937,-24.35552 97.2797,-3.49651 c 53.503818,-1.92311 113.244246,-1.64192 132.756648,0.62476 32.792685,3.80954 37.335317,6.19582 60.044792,31.54195 21.93127,24.47681 35.64078,32.09885 127.70249,70.99671 56.7235,23.9673 104.54556,43.6728 106.27149,43.7905 1.72592,0.1178 25.026,-23.30725 51.77793,-52.05625 z M -489.34541,780.02694 c -2.20794,-5.14091 2.41631,-11.92702 11.91709,-17.48919 8.53867,-4.99881 21.25344,-20.66011 28.25506,-34.80289 l 12.73044,-25.71421 -19.04297,-54.04514 c -22.53999,-63.97286 -23.65403,-87.37536 -5.67045,-119.12765 22.51991,-39.76115 35.82781,-53.11264 70.71792,-70.94895 26.38103,-13.48598 41.01189,-17.14889 68.49937,-17.14889 19.22435,0 36.54705,2.30388 38.49452,5.11978 1.94812,2.81584 15.42101,6.91304 29.94079,9.10486 14.51978,2.1918 30.74415,5.93749 36.05437,8.3238 5.31085,2.38632 21.72287,8.79198 36.47109,14.23485 26.27432,9.69634 46.68738,30.07405 89.795451,89.64041 9.028184,12.47474 35.910669,40.52047 59.738544,62.32387 89.764025,82.13605 194.349745,99.42875 239.361355,39.577 9.77945,-13.00397 21.68587,-32.47569 26.45823,-43.27053 4.77236,-10.79481 10.85328,-22.22099 13.51309,-25.39149 2.65982,-3.17053 6.5993,-24.61999 8.75389,-47.66542 l 3.91819,-41.90091 -31.93976,-43.01371 C 198.29778,426.99656 185.02948,416.50537 118.50585,380.76429 111.63414,377.0724 60.397868,353.6057 4.6471854,328.61611 -107.80563,278.21027 -158.10047,244.23409 -189.40574,197.52636 c -37.47902,-55.91819 -42.99322,-88.40976 -19.32035,-113.836833 8.1169,-8.718295 17.95407,-21.283428 21.86032,-27.922549 13.51309,-22.967547 60.79417,-37.672274 131.772568,-40.982329 L 9.7409012,11.761075 -34.90361,-18.524859 c -45.076904,-30.579158 -51.373079,-41.133003 -26.489575,-44.404773 11.96731,-1.573507 32.450001,8.309163 63.8493839,30.806895 5.1778135,3.709813 24.2414681,17.052653 42.3637351,29.6506766 C 62.942201,10.12593 77.76951,24.152674 77.76951,28.698412 c 0,8.457141 -38.185713,50.04006 -58.208392,63.387045 -6.126096,4.083422 -24.0977651,17.446453 -39.937412,29.695733 -30.513793,23.59666 -41.87358,25.27236 -44.964547,6.63274 -1.356264,-8.17681 9.928806,-20.72375 39.514398,-43.931894 47.26725,-37.078886 45.889661,-41.67679 -12.51206,-41.761484 -72.034667,-0.104265 -108.522117,13.57288 -135.161687,50.665976 l -18.9739,26.418802 12.8246,30.62511 c 7.81438,18.66161 26.2178,43.8499 47.1116,64.47906 30.92991,30.53857 45.518753,38.89102 148.971002,85.29004 195.699118,87.77223 191.107498,84.90719 238.017678,148.51386 l 37.55181,50.91746 -3.04827,51.73316 c -2.62719,44.58146 -6.13239,57.46172 -25.3555,93.17148 -38.18135,70.92831 -65.77113,87.71698 -144.25826,87.78355 -37.608332,0.0336 -85.340002,-16.82291 -132.574623,-46.81447 -24.259065,-15.40327 -75.816694,-64.87254 -102.301857,-98.1585 -28.41132,-35.70696 -40.20662,-50.24358 -52.85866,-65.14418 -14.80658,-17.4381 -122.07285,-53.49454 -158.98515,-53.44116 -19.75532,0.0296 -67.21902,23.81091 -85.09713,42.63889 -5.5688,5.86414 -14.93714,22.19481 -20.81912,36.29049 -10.49492,25.14878 -10.38257,26.56556 6.00247,75.70391 23.31074,69.91076 24.84711,83.39171 12.73297,111.73381 -15.46309,36.17846 -32.64081,53.2995 -53.4756,53.2995 -9.93446,0 -19.28396,-3.6859 -21.30928,-8.4004 z M 126.12694,178.73821 c -10.23946,-9.14868 -7.38135,-12.74591 53.45864,-67.2924 L 243.86235,53.818809 179.38789,-3.9856072 114.91342,-61.790089 127.974,-72.350677 c 12.97588,-10.492208 13.45473,-10.209016 74.1127,43.785237 33.57906,29.8901563 63.77591,54.34576 67.10413,54.34576 3.32823,0 33.52512,-24.4556037 67.10418,-54.34576 60.65797,-53.994253 61.13686,-54.277445 74.1127,-43.785237 l 13.06058,10.560588 -64.47447,57.8044818 -64.47446,57.8044162 64.47446,57.804451 64.47447,57.80448 -13.06058,10.56059 c -12.97584,10.49224 -13.45473,10.20905 -74.1127,-43.78524 -33.57906,-29.89015 -63.88201,-54.345791 -67.34015,-54.345791 -3.45875,0 -33.0067,23.972931 -65.66318,53.273151 -32.65648,29.30022 -60.94413,53.27312 -62.8615,53.27312 -1.91732,0 -8.35348,-4.34945 -14.30324,-9.66536 z"
       id="path9582" />
    <path
       id="path9631"
       d="m -489.34541,780.02694 c -2.20794,-5.14091 2.41631,-11.92702 11.91709,-17.48919 8.53867,-4.99881 21.25344,-20.66011 28.25506,-34.80289 l 12.73044,-25.71421 -19.04297,-54.04514 c -22.53999,-63.97286 -23.65403,-87.37536 -5.67045,-119.12765 22.51991,-39.76115 35.82781,-53.11264 70.71792,-70.94895 26.38103,-13.48598 41.01189,-17.14889 68.49937,-17.14889 19.22435,0 36.54705,2.30388 38.49452,5.11978 1.94812,2.81584 15.42101,6.91304 29.94079,9.10486 14.51978,2.1918 30.74415,5.93749 36.05437,8.3238 5.31085,2.38632 21.72287,8.79198 36.47109,14.23485 26.27432,9.69634 46.68738,30.07405 89.795451,89.64041 9.028184,12.47474 35.910669,40.52047 59.738544,62.32387 89.764025,82.13605 194.349745,99.42875 239.361355,39.577 9.77945,-13.00397 21.68587,-32.47569 26.45823,-43.27053 4.77236,-10.79481 10.85328,-22.22099 13.51309,-25.39149 2.65982,-3.17053 6.5993,-24.61999 8.75389,-47.66542 l 3.91819,-41.90091 -31.93976,-43.01371 C 198.29778,426.99656 185.02948,416.50537 118.50585,380.76429 111.63414,377.0724 60.397868,353.6057 4.6471854,328.61611 -107.80563,278.21027 -158.10047,244.23409 -189.40574,197.52636 c -37.47902,-55.91819 -42.99322,-88.40976 -19.32035,-113.836833 8.1169,-8.718295 17.95407,-21.283428 21.86032,-27.922549 13.51309,-22.967547 60.79417,-37.672274 131.772568,-40.982329 L 9.7409012,11.761075 -34.90361,-18.524859 c -45.076904,-30.579158 -51.373079,-41.133003 -26.489575,-44.404773 11.96731,-1.573507 32.450001,8.309163 63.8493839,30.806895 5.1778135,3.709813 24.2414681,17.052653 42.3637351,29.6506766 C 62.942201,10.12593 77.76951,24.152674 77.76951,28.698412 c 0,8.457141 -38.185713,50.04006 -58.208392,63.387045 -6.126096,4.083422 -24.0977651,17.446453 -39.937412,29.695733 -30.513793,23.59666 -41.87358,25.27236 -44.964547,6.63274 -1.356264,-8.17681 9.928806,-20.72375 39.514398,-43.931894 47.26725,-37.078886 45.889661,-41.67679 -12.51206,-41.761484 -72.034667,-0.104265 -108.522117,13.57288 -135.161687,50.665976 l -18.9739,26.418802 12.8246,30.62511 c 7.81438,18.66161 26.2178,43.8499 47.1116,64.47906 30.92991,30.53857 45.518753,38.89102 148.971002,85.29004 195.699118,87.77223 191.107498,84.90719 238.017678,148.51386 l 37.55181,50.91746 -3.04827,51.73316 c -2.62719,44.58146 -6.13239,57.46172 -25.3555,93.17148 -38.18135,70.92831 -65.77113,87.71698 -144.25826,87.78355 -37.608332,0.0336 -85.340002,-16.82291 -132.574623,-46.81447 -24.259065,-15.40327 -75.816694,-64.87254 -102.301857,-98.1585 -28.41132,-35.70696 -40.20662,-50.24358 -52.85866,-65.14418 -14.80658,-17.4381 -122.07285,-53.49454 -158.98515,-53.44116 -19.75532,0.0296 -67.21902,23.81091 -85.09713,42.63889 -5.5688,5.86414 -14.93714,22.19481 -20.81912,36.29049 -10.49492,25.14878 -10.38257,26.56556 6.00247,75.70391 23.31074,69.91076 24.84711,83.39171 12.73297,111.73381 -15.46309,36.17846 -32.64081,53.2995 -53.4756,53.2995 -9.93446,0 -19.28396,-3.6859 -21.30928,-8.4004 z"
       style="fill:#404154;fill-opacity:1;filter:url(#filter9643)" />
    <path
       id="path9633"
       d="m 126.12694,178.73821 c -10.23946,-9.14868 -7.38135,-12.74591 53.45864,-67.2924 L 243.86235,53.818809 179.38789,-3.9856072 114.91342,-61.790089 127.974,-72.350677 c 12.97588,-10.492208 13.45473,-10.209016 74.1127,43.785237 33.57906,29.8901563 63.77591,54.34576 67.10413,54.34576 3.32823,0 33.52512,-24.4556037 67.10418,-54.34576 60.65797,-53.994253 61.13686,-54.277445 74.1127,-43.785237 l 13.06058,10.560588 -64.47447,57.8044818 -64.47446,57.8044162 64.47446,57.804451 64.47447,57.80448 -13.06058,10.56059 c -12.97584,10.49224 -13.45473,10.20905 -74.1127,-43.78524 -33.57906,-29.89015 -63.88201,-54.345791 -67.34015,-54.345791 -3.45875,0 -33.0067,23.972931 -65.66318,53.273151 -32.65648,29.30022 -60.94413,53.27312 -62.8615,53.27312 -1.91732,0 -8.35348,-4.34945 -14.30324,-9.66536 z"
       style="fill:#cc4242;fill-opacity:1;filter:url(#filter9635)" />
  </g>
</svg>
