<?xml version="1.0" encoding="UTF-8" standalone="no"?>
<!-- Created with Inkscape (http://www.inkscape.org/) -->

<svg
   id="svg12747"
   viewBox="0 0 225.42886 49.999699"
   version="1.0"
   inkscape:version="1.1.2 (0a00cf5339, 2022-02-04)"
   sodipodi:docname="item41.svg"
   width="225.42886"
   height="49.999699"
   xmlns:inkscape="http://www.inkscape.org/namespaces/inkscape"
   xmlns:sodipodi="http://sodipodi.sourceforge.net/DTD/sodipodi-0.dtd"
   xmlns="http://www.w3.org/2000/svg"
   xmlns:svg="http://www.w3.org/2000/svg"
   xmlns:rdf="http://www.w3.org/1999/02/22-rdf-syntax-ns#"
   xmlns:cc="http://creativecommons.org/ns#"
   xmlns:dc="http://purl.org/dc/elements/1.1/">
  <defs
     id="defs27" />
  <sodipodi:namedview
     id="namedview25"
     pagecolor="#ffffff"
     bordercolor="#666666"
     borderopacity="1.0"
     inkscape:pageshadow="2"
     inkscape:pageopacity="0.0"
     inkscape:pagecheckerboard="0"
     showgrid="false"
     fit-margin-top="0"
     fit-margin-left="0"
     fit-margin-right="0"
     fit-margin-bottom="0"
     inkscape:zoom="2.4444444"
     inkscape:cx="110.04545"
     inkscape:cy="24.954545"
     inkscape:window-width="1366"
     inkscape:window-height="719"
     inkscape:window-x="0"
     inkscape:window-y="25"
     inkscape:window-maximized="1"
     inkscape:current-layer="svg12747" />
  <g
     id="g864"
     transform="rotate(90,112.49983,112.49978)">
    <g
       id="layer1">
      <g
         id="g19422">
        <g
           id="g14761"
           style="fill:#cf142b"
           transform="matrix(0.54558,0,0,1.8511,11.607,-34.301)">
          <path
             id="path13003"
             style="fill:#cf142b;fill-rule:evenodd;stroke:#000000;stroke-width:0.52873"
             d="m 34.911,132.14 a 7.3215,1.4286195 0 1 1 -14.643,0 7.3215,1.4286195 0 1 1 14.643,0 z"
             transform="matrix(0.49027,-0.086448,0.077983,0.44226,1.1597,78.261)" />
          <path
             id="path13001"
             style="fill:#cf142b;fill-rule:evenodd;stroke:#000000;stroke-width:0.39187"
             d="m 34.911,132.14 a 7.3215,1.4286195 0 1 1 -14.643,0 7.3215,1.4286195 0 1 1 14.643,0 z"
             transform="matrix(0.65619,-0.1157,0.10607,0.60155,-7.1292,56.62)" />
          <path
             id="path12999"
             style="fill:#cf142b;fill-rule:evenodd;stroke:#000000;stroke-width:0.31097"
             d="m 34.911,132.14 a 7.3215,1.4286195 0 1 1 -14.643,0 7.3215,1.4286195 0 1 1 14.643,0 z"
             transform="matrix(0.82237,-0.14501,0.1344,0.76223,-15.458,34.732)" />
          <path
             id="path12997"
             style="fill:#cf142b;fill-rule:evenodd;stroke:#000000;stroke-width:0.25759"
             d="m 34.911,132.14 a 7.3215,1.4286195 0 1 1 -14.643,0 7.3215,1.4286195 0 1 1 14.643,0 z"
             transform="matrix(0.98874,-0.17434,0.16291,0.92391,-23.815,12.261)" />
          <path
             id="path12995"
             style="fill:#cf142b;fill-rule:evenodd;stroke:#000000;stroke-width:0.22008"
             d="m 34.911,132.14 a 7.3215,1.4286195 0 1 1 -14.643,0 7.3215,1.4286195 0 1 1 14.643,0 z"
             transform="matrix(1.1537,-0.20342,0.19128,1.0848,-32.114,-10.509)" />
          <path
             id="path12993"
             style="fill:#cf142b;fill-rule:evenodd;stroke:#000000;stroke-width:0.19139"
             d="m 34.911,132.14 a 7.3215,1.4286195 0 1 1 -14.643,0 7.3215,1.4286195 0 1 1 14.643,0 z"
             transform="matrix(1.2628,-0.22266,0.21053,1.194,-38.111,-26.61)" />
          <path
             id="path13007"
             style="fill:#cf142b;fill-rule:evenodd;stroke:#000000;stroke-width:0.19139"
             d="m 34.911,132.14 a 7.3215,1.4286195 0 1 1 -14.643,0 7.3215,1.4286195 0 1 1 14.643,0 z"
             transform="matrix(1.3952,-0.246,0.2326,1.3191,-44.679,-45.256)" />
          <path
             id="path14755"
             style="fill:#cf142b;fill-rule:evenodd;stroke:#000000;stroke-width:0.19139"
             d="m 34.911,132.14 a 7.3215,1.4286195 0 1 1 -14.643,0 7.3215,1.4286195 0 1 1 14.643,0 z"
             transform="matrix(1.4553,-0.25661,0.24263,1.376,-47.664,-54.815)" />
          <path
             id="path14757"
             style="fill:#cf142b;fill-rule:evenodd;stroke:#000000;stroke-width:0.19139"
             d="m 34.911,132.14 a 7.3215,1.4286195 0 1 1 -14.643,0 7.3215,1.4286195 0 1 1 14.643,0 z"
             transform="matrix(1.4674,-0.25874,0.24464,1.3874,-48.261,-58.594)" />
          <path
             id="path14759"
             style="fill:#cf142b;fill-rule:evenodd;stroke:#000000;stroke-width:0.19139"
             d="m 34.911,132.14 a 7.3215,1.4286195 0 1 1 -14.643,0 7.3215,1.4286195 0 1 1 14.643,0 z"
             transform="matrix(1.3952,-0.246,0.2326,1.3191,-44.679,-52.258)" />
        </g>
        <g
           id="g19146"
           transform="matrix(0.76036,0,0,0.76494,5.991,110.15)">
          <path
             id="path12871"
             style="fill:#f7d917;fill-rule:evenodd;stroke:#000000;stroke-width:0.284"
             d="m 32.5,142.5 a 7.5,7.5 0 1 1 -15,0 7.5,7.5 0 1 1 15,0 z" />
          <path
             id="path12873"
             style="fill:#231002;fill-rule:evenodd;stroke:#000000;stroke-width:0.284"
             d="m 28.5,142.5 a 3.5,3.5 0 1 1 -7,0 3.5,3.5 0 1 1 7,0 z" />
        </g>
        <g
           id="g19142"
           transform="matrix(0.61628,0,0,1.5763,9.5929,0.14159)">
          <path
             id="path14773"
             style="fill:#ffffff;fill-rule:evenodd;stroke:#000000;stroke-width:0.3"
             d="M 15,114 H 25 V 0 l -5,5 z" />
          <path
             id="path19140"
             style="fill:#9d9d9d;fill-rule:evenodd;stroke:#000000;stroke-width:0.3"
             d="M 35,114 H 25 V 0 l 5,5 z" />
        </g>
        <path
           id="path12875"
           style="fill:#f7d917;fill-rule:evenodd;stroke:#000000;stroke-width:0.2991"
           d="m 3.318,174.71 c -1.7746,0.16 -3.1684,1.68 -3.1684,3.5 -5e-5,1.84 1.4039,3.37 3.1994,3.5 h 0.0622 0.528 42.122 0.031 c 0.088,0.01 0.189,0 0.279,0 1.921,0 3.479,-1.56 3.479,-3.5 0,-1.93 -1.558,-3.5 -3.479,-3.5 -1.92,0 -3.479,1.57 -3.479,3.5 0,0.64 0.173,1.24 0.466,1.75 H 6.6422 c 0.2931,-0.51 0.4657,-1.11 0.4657,-1.75 0,-1.93 -1.5586,-3.5 -3.4791,-3.5 -0.105,0 -0.208,-0.01 -0.3106,0 z" />
      </g>
    </g>
  </g>
  <metadata
     id="metadata22">
    <rdf:RDF>
      <cc:Work>
        <dc:format>image/svg+xml</dc:format>
        <dc:type
           rdf:resource="http://purl.org/dc/dcmitype/StillImage" />
        <cc:license
           rdf:resource="http://creativecommons.org/publicdomain/zero/1.0/" />
        <dc:publisher>
          <cc:Agent
             rdf:about="http://openclipart.org/">
            <dc:title>Openclipart</dc:title>
          </cc:Agent>
        </dc:publisher>
        <dc:title>Sword</dc:title>
        <dc:date>2007-02-07T07:07:23</dc:date>
        <dc:description>sword from wikimedia commons : http://commons.wikimedia.org/wiki/Image:Sword.svg</dc:description>
        <dc:source>https://openclipart.org/detail/3057/sword-by-zeimusu</dc:source>
        <dc:creator>
          <cc:Agent>
            <dc:title>zeimusu</dc:title>
          </cc:Agent>
        </dc:creator>
        <dc:subject>
          <rdf:Bag>
            <rdf:li>externalsource</rdf:li>
            <rdf:li>heraldry</rdf:li>
            <rdf:li>sword</rdf:li>
            <rdf:li>weapon</rdf:li>
            <rdf:li>wikimedia commons</rdf:li>
          </rdf:Bag>
        </dc:subject>
      </cc:Work>
      <cc:License
         rdf:about="http://creativecommons.org/licenses/publicdomain/">
        <cc:permits
           rdf:resource="http://creativecommons.org/ns#Reproduction" />
        <cc:permits
           rdf:resource="http://creativecommons.org/ns#Distribution" />
        <cc:permits
           rdf:resource="http://creativecommons.org/ns#DerivativeWorks" />
      </cc:License>
    </rdf:RDF>
  </metadata>
</svg>
