<?xml version="1.0" encoding="UTF-8" standalone="no"?>
<!-- Created with Inkscape (http://www.inkscape.org/) -->
<svg xmlns:inkscape="http://www.inkscape.org/namespaces/inkscape" xmlns:rdf="http://www.w3.org/1999/02/22-rdf-syntax-ns#" xmlns="http://www.w3.org/2000/svg" xmlns:xlink="http://www.w3.org/1999/xlink" xmlns:ns1="http://sozi.baierouge.fr" xmlns:cc="http://creativecommons.org/ns#" xmlns:sodipodi="http://sodipodi.sourceforge.net/DTD/sodipodi-0.dtd" xmlns:dc="http://purl.org/dc/elements/1.1/" id="svg2" xml:space="preserve" viewBox="0 0 28.684 30.929" version="1.1" inkscape:version="0.91 r13725">
  <defs id="defs6">
    <radialGradient id="radialGradient26" gradientUnits="userSpaceOnUse" cy="-19.038" cx="-8.2759" gradientTransform="matrix(-.79664 -.3344 .53744 -1.2802 16.607 -14.742)" r="15.345">
      <stop id="stop28" style="stop-color:#ff8800" offset="0"/>
      <stop id="stop30" style="stop-color:#ffe03a" offset="1"/>
    </radialGradient>
    <clipPath id="clipPath38">
      <path id="path40" d="m0 4.7429h12v16h-12v-16z" inkscape:connector-curvature="0"/>
    </clipPath>
    <mask id="mask42">
      <g id="g44">
        <g id="g46" clip-path="url(#clipPath38)">
          <path id="path48" style="fill:#000000;fill-opacity:.39840" d="m0 4.7429h12v16h-12v-16z" inkscape:connector-curvature="0"/>
        </g>
      </g>
    </mask>
    <clipPath id="clipPath54">
      <path id="path56" d="m0 4.7429h12v16h-12v-16z" inkscape:connector-curvature="0"/>
    </clipPath>
    <clipPath id="clipPath58">
      <path id="path60" d="m0 5h12v16h-12v-16z" inkscape:connector-curvature="0"/>
    </clipPath>
    <radialGradient id="radialGradient108" gradientUnits="userSpaceOnUse" cy="10.449" cx="18.199" gradientTransform="matrix(.864 0 0 .864 .0083202 6.7408)" r=".801">
      <stop id="stop110" style="stop-color:#ffe03a" offset="0"/>
      <stop id="stop112" style="stop-color:#ff8800" offset="1"/>
    </radialGradient>
    <radialGradient id="radialGradient126" gradientUnits="userSpaceOnUse" cy="12.2" cx="18.8" gradientTransform="matrix(.864 0 0 .864 .0083202 3.7152)" r=".51250">
      <stop id="stop128" style="stop-color:#ffe03a" offset="0"/>
      <stop id="stop130" style="stop-color:#ff8800" offset="1"/>
    </radialGradient>
    <radialGradient id="radialGradient144" gradientUnits="userSpaceOnUse" cy="8.3496" cx="9.5498" gradientTransform="matrix(.864 0 0 .864 .0083202 10.369)" r=".79980">
      <stop id="stop146" style="stop-color:#ffe03a" offset="0"/>
      <stop id="stop148" style="stop-color:#ff8800" offset="1"/>
    </radialGradient>
    <radialGradient id="radialGradient162" gradientUnits="userSpaceOnUse" cy="10.95" cx="11.2" gradientTransform="matrix(.864 0 0 .864 .0083202 5.8752)" r=".4375">
      <stop id="stop164" style="stop-color:#ffe03a" offset="0"/>
      <stop id="stop166" style="stop-color:#ff8800" offset="1"/>
    </radialGradient>
    <radialGradient id="radialGradient180" gradientUnits="userSpaceOnUse" cy="16.8" cx="8.7495" gradientTransform="matrix(.864 0 0 .864 .0083202 -4.2328)" r=".48770">
      <stop id="stop182" style="stop-color:#ffe03a" offset="0"/>
      <stop id="stop184" style="stop-color:#ff8800" offset="1"/>
    </radialGradient>
    <radialGradient id="radialGradient198" gradientUnits="userSpaceOnUse" cy="19" cx="15.15" gradientTransform="matrix(.864 0 0 .864 .0083202 -8.0344)" r="0.8">
      <stop id="stop200" style="stop-color:#ffe03a" offset="0"/>
      <stop id="stop202" style="stop-color:#ff8800" offset="1"/>
    </radialGradient>
    <clipPath id="clipPath222">
      <path id="path224" d="m12.016 17.497 0.218-1.082c0.145-0.746 0.2-1.282 0.172-1.598-0.027-0.488 0.102-1.539 0.387-3.152-0.199-0.692-0.762-1.266-1.684-1.731-1.152-0.402-2-0.718-2.547-0.949-0.921-0.375-1.253-0.762-0.996-1.164 0.606-0.98 1.008-1.988 1.211-3.027 0.289-1.465-0.172-2.145-1.382-2.028-1.899 0.172-4.032 0.992-6.395 2.461l1.039 4.535c0.316 1.786 0.547 2.868 0.691 3.243 0.2 0.632 0.59 1.453 1.165 2.461 0.75 1.324 1.179 2.117 1.296 2.375 0.086 0.55 0.231 1.125 0.434 1.73 0.141 0.375 0.633 0.418 1.469 0.129 0.488-0.172 1.265-0.52 2.332-1.035 0.98-0.407 1.844-0.793 2.59-1.168z" inkscape:connector-curvature="0"/>
    </clipPath>
    <clipPath id="clipPath230">
      <path id="path232" d="m2.2208-18.935h22.791v17.049h-22.791v-17.049z" inkscape:connector-curvature="0"/>
    </clipPath>
    <linearGradient id="linearGradient234" y2="-10.904" gradientUnits="userSpaceOnUse" x2="16.944" y1="-10.904" x1="5.2432">
      <stop id="stop236" style="stop-color:#ffffff" offset="0"/>
      <stop id="stop238" style="stop-color:#ffffff;stop-opacity:0" offset="1"/>
    </linearGradient>
    <mask id="mask240">
      <g id="g242">
        <g id="g244" clip-path="url(#clipPath230)">
          <path id="path246" style="fill:url(#linearGradient234)" d="m2.2208-18.935h22.791v17.049h-22.791v-17.049z" inkscape:connector-curvature="0"/>
        </g>
      </g>
    </mask>
    <linearGradient id="linearGradient250" y2="-10.904" gradientUnits="userSpaceOnUse" x2="16.944" y1="-10.904" x1="5.2432">
      <stop id="stop252" style="stop-color:#ffe03a" offset="0"/>
      <stop id="stop254" style="stop-color:#ff8800" offset="1"/>
    </linearGradient>
    <clipPath id="clipPath262">
      <path id="path264" d="m0 1.7429h14v8h-14v-8z" inkscape:connector-curvature="0"/>
    </clipPath>
    <mask id="mask266">
      <g id="g268">
        <g id="g270" clip-path="url(#clipPath262)">
          <path id="path272" style="fill:#000000;fill-opacity:.55860" d="m0 1.7429h14v8h-14v-8z" inkscape:connector-curvature="0"/>
        </g>
      </g>
    </mask>
    <clipPath id="clipPath278">
      <path id="path280" d="m0 1.7429h14v8h-14v-8z" inkscape:connector-curvature="0"/>
    </clipPath>
    <clipPath id="clipPath282">
      <path id="path284" d="m0 2h14v8h-14v-8z" inkscape:connector-curvature="0"/>
    </clipPath>
    <clipPath id="clipPath286">
      <path id="path288" d="m10.391 9.051c0.461 0 0.953-0.188 1.468-0.563 0.289-0.172 0.633-0.433 1.039-0.777 0.95-0.664 1.282-1.715 0.993-3.156-0.2-0.922-0.664-1.555-1.383-1.899-0.633-0.316-1.656-0.504-3.067-0.562-1.785-0.028-4.578 0.836-8.379 2.594-0.117 0.113-0.175 0.242-0.175 0.386 0.031 0.145 0.144 0.59 0.347 1.34 0.286 1.008 0.563 2.09 0.821 3.238 0.98 0 2.304-0.113 3.972-0.343 1.27-0.172 2.723-0.258 4.364-0.258z" inkscape:connector-curvature="0"/>
    </clipPath>
    <clipPath id="clipPath290">
      <path id="path292" d="m1376.3-17524h11.677v17.452h-11.677v-17.452z" inkscape:connector-curvature="0"/>
    </clipPath>
    <linearGradient id="linearGradient294" y2="-17514" gradientUnits="userSpaceOnUse" x2="1383.5" y1="-17514" x1="1378.6">
      <stop id="stop296" style="stop-color:#ffffff" offset="0"/>
      <stop id="stop298" style="stop-color:#ffffff;stop-opacity:0" offset="1"/>
    </linearGradient>
    <mask id="mask300">
      <g id="g302">
        <g id="g304" clip-path="url(#clipPath290)">
          <path id="path306" style="fill:url(#linearGradient294)" d="m1376.3-17524h11.677v17.452h-11.677v-17.452z" inkscape:connector-curvature="0"/>
        </g>
      </g>
    </mask>
    <linearGradient id="linearGradient308" y2="-17514" gradientUnits="userSpaceOnUse" x2="1383.5" y1="-17514" x1="1378.6">
      <stop id="stop310" style="stop-color:#c97900" offset="0"/>
      <stop id="stop312" style="stop-color:#ff8800" offset="1"/>
    </linearGradient>
  </defs>
  <g id="g10" transform="matrix(1.25 0 0 -1.25 0 30.929)">
    <g id="g12">
      <path id="path14" style="fill-rule:evenodd;fill:#ffe03a" d="m22.34 4.708c0.031-0.285 0.23-0.864 0.605-1.727-0.343-0.348-0.863-0.707-1.554-1.082-1.352-0.777-2.836-1.25-4.45-1.426-2.621-0.285-5.07-0.445-7.343-0.472-1.496 0-2.723 0.144-3.672 0.429-0.949 0.262-2.219 0.766-3.801 1.512-1.324 0.953-2.031 1.527-2.117 1.731-0.059 0.199 0.23 1.57 0.863 4.101 0.289 1.469 0.547 2.695 0.777 3.676 0.403 1.785 0.938 3.398 1.598 4.836 1.066 2.332 1.742 4.207 2.031 5.617-0.172 0.145 0.52 0.316 2.075 0.52 1.007 0.14 1.785 0.316 2.332 0.515 0.375 0.172 1.039 0.535 1.988 1.082 1.816 0.977 3.543 0.965 5.183-0.047 0.778-0.488 1.395-1.422 1.856-2.804 0.402-1.153 0.578-2.102 0.519-2.852-0.027-0.75 0.118-1.641 0.434-2.68l0.906-2.117c0.633-1.523 1.02-2.648 1.164-3.367 0.235-1.152 0.434-2.969 0.606-5.445z" inkscape:connector-curvature="0"/>
      <g id="g16">
        <g id="g18">
          <g id="g24">
            <path id="path32" style="fill-rule:evenodd;fill:url(#radialGradient26)" d="m3.246 16.286c0.981 2.187 1.613 3.918 1.902 5.183 0.692-0.777 1.657-1.351 2.895-1.726 1.668-0.461 3.195-1.008 4.578-1.645l0.219-5.312c0.055-0.516 0.402-1.383 1.035-2.59 0.719-1.383 1.137-2.277 1.254-2.68 0.23-0.75 0.156-1.699-0.219-2.851-0.344-1.067-0.836-1.914-1.469-2.547-0.488-0.492-1.351-0.735-2.589-0.735-1.469 0.055-2.563 0.071-3.286 0.043-1.035-0.058-2.461 0.2-4.277 0.778-1.785 0.547-2.879 1.035-3.281 1.469-0.059 0.199 0.23 1.57 0.863 4.101 0.289 1.469 0.547 2.695 0.777 3.676 0.407 1.785 0.938 3.398 1.598 4.836z" inkscape:connector-curvature="0"/>
          </g>
        </g>
      </g>
      <g id="g34">
        <g id="g50" mask="url(#mask42)">
          <g id="g62">
            <g id="g64" clip-path="url(#clipPath54)">
              <g id="g66" transform="translate(0 -.25714)">
                <g id="g70">
                  <g id="g72" clip-path="url(#clipPath58)">
                    <g id="g74">
                      <path id="path76" style="fill-rule:evenodd;fill:#e88b00" d="m11.293 18.945-0.258-1.64c-0.058-0.461-0.262-1.469-0.605-3.024-0.262-1.238-0.391-2.176-0.391-2.808 0-0.575 0.031-1.453 0.086-2.637 0-0.977-0.145-1.625-0.43-1.941-0.316-0.29-0.894-0.52-1.73-0.692-0.055 0-0.789-0.086-2.203-0.258-1.293-0.32-2.301-0.547-3.024-0.691-1.297-0.231-1.886-0.074-1.769 0.473 1.152 4.898 1.742 7.418 1.769 7.562 0.117 0.43 0.547 1.293 1.297 2.59 0.692 1.211 1.067 2.059 1.125 2.551 0.113 0.746 0.414 1.582 0.906 2.504 0.52-0.344 1.18-0.649 1.989-0.907 0.804-0.23 1.883-0.589 3.238-1.082z" inkscape:connector-curvature="0"/>
                    </g>
                  </g>
                </g>
              </g>
            </g>
          </g>
        </g>
      </g>
      <path id="path78" style="fill-rule:evenodd;fill:#e88b00" d="m12.32 5.489h2.809c-0.289-1.414-0.852-2.535-1.688-3.371-0.488-0.488-1.351-0.735-2.589-0.735-1.469 0.055-2.563 0.071-3.286 0.043-1.035-0.058-2.461 0.204-4.273 0.778-1.785 0.547-2.883 1.035-3.285 1.469v0.171c0.605 0.204 1.41 0.403 2.418 0.606 1.554 0.289 2.492 0.476 2.808 0.562 1.442 0.317 3.801 0.477 7.086 0.477z" inkscape:connector-curvature="0"/>
      <path id="path80" style="fill-rule:evenodd;fill:#ff9900" d="m21.738 10.153c0.231-1.152 0.43-2.969 0.602-5.445 0.031-0.285 0.23-0.864 0.605-1.727-0.343-0.348-0.863-0.707-1.554-1.082-1.352-0.777-2.836-1.25-4.45-1.426l-3.453-0.3c0.516 0.23 0.918 0.546 1.207 0.949 0.262 0.465 0.477 0.793 0.649 0.996 0.664 0.746 0.996 1.957 0.996 3.629 0 0.691-0.16 1.754-0.477 3.195-0.347 1.641-0.718 2.734-1.125 3.285-0.343 0.489-0.547 1.465-0.601 2.934 0.027 1.5 0.043 2.347 0.043 2.551 0 0.461 0.789 1.136 2.375 2.031 0.836 0.488 1.41 1.324 1.726 2.504 0.321-0.66 0.563-1.41 0.735-2.246 0.175-0.692 0.246-1.254 0.218-1.684-0.031-0.75 0.114-1.644 0.43-2.68l0.906-2.117c0.633-1.523 1.024-2.648 1.168-3.367z" inkscape:connector-curvature="0"/>
      <path id="path82" style="fill-rule:evenodd;fill:#e88b00" d="m14.395 14.212c0.402-0.028 0.746-0.301 1.035-0.821l-0.215-0.472c-0.176-0.375-0.274-0.692-0.305-0.953l-0.172 0.261c-0.23 0.344-0.402 1.008-0.515 1.985h0.172z" inkscape:connector-curvature="0"/>
      <path id="path84" style="fill-rule:evenodd;fill:#e88b00" d="m18.281 22.247c0.317-0.66 0.563-1.41 0.735-2.246 0.172-0.692 0.246-1.25 0.214-1.684-0.027-0.75 0.118-1.641 0.434-2.68l0.906-2.117c0.633-1.523 1.024-2.648 1.168-3.367 0.231-1.152 0.43-2.969 0.602-5.445 0.031-0.285 0.23-0.864 0.605-1.727-0.343-0.348-0.863-0.707-1.554-1.082-1.352-0.777-2.836-1.25-4.45-1.426l-3.453-0.3c0.516 0.23 0.918 0.546 1.207 0.949 0.262 0.465 0.477 0.793 0.649 0.996 0.664 0.746 0.996 1.957 0.996 3.629 0 0.461-0.102 1.207-0.305 2.246-0.203 1.152-0.43 2.129-0.691 2.937 0.461-0.461 0.793-0.879 0.996-1.254 0.633-1.179 0.965-1.8 0.992-1.855 0.402-0.895 0.633-1.773 0.691-2.637 0.086-0.89 0.274-1.426 0.563-1.597 0.144-0.086 0.445-0.086 0.906 0 0.258 0.058 0.488 0.273 0.692 0.648 0.086 0.145 0.316 0.664 0.691 1.555 0.258 0.547 0.242 1.109-0.047 1.683-0.14 0.231-0.473 0.621-0.992 1.168-0.231 0.285-0.676 0.563-1.34 0.821l-0.82 0.343c1.125 0.782 1.715 1.485 1.773 2.118 0.028 0.316-0.074 0.664-0.304 1.039-0.286 0.461-0.477 0.949-0.559 1.468-0.434 2.477-0.91 3.918-1.426 4.321-0.289 0.23-0.75 0.187-1.383-0.129-0.578-0.289-1.109-0.664-1.601-1.125v0.215c0 0.461 0.793 1.14 2.379 2.031 0.832 0.488 1.41 1.324 1.726 2.504z" inkscape:connector-curvature="0"/>
      <path id="path86" style="fill-rule:evenodd;fill:#ffb411" d="m16.336 21.04c-0.027-0.032-0.359-0.274-0.992-0.735-0.719-0.578-1.957-0.691-3.715-0.347-0.836 0.144-1.887 0.39-3.152 0.734-1.5 0.402-2.434 0.734-2.809 0.996-0.172 0.086-0.289 0.184-0.348 0.301 0.317 0.144 0.996 0.289 2.032 0.434l1.039 0.171c0.574-0.117 1.078-0.16 1.511-0.128 0.403 0 0.934 0.273 1.598 0.82 0.66 0.547 1.223 0.847 1.684 0.906 0.718 0.086 1.394 0 2.031-0.258 0.691-0.261 1.062-0.605 1.121-1.039 0.059-0.605-0.82-0.531-2.633 0.215l0.777-0.516c0.575-0.402 1.063-0.707 1.469-0.906 0.43-0.203 0.559-0.418 0.387-0.648z" inkscape:connector-curvature="0"/>
      <path id="path88" style="fill-rule:evenodd;fill:#f09400" d="m15.949 21.688c0.43-0.203 0.559-0.418 0.387-0.648-0.027-0.032-0.359-0.274-0.992-0.735-0.719-0.578-1.957-0.691-3.715-0.347-0.836 0.144-1.887 0.39-3.156 0.734-1.496 0.402-2.434 0.734-2.805 0.996-0.176 0.086-0.289 0.184-0.348 0.301 0.317 0.144 0.992 0.289 2.032 0.434l0.863 0.128c-0.203-0.261-0.375-0.433-0.52-0.519-0.257-0.145-0.156-0.289 0.305-0.434 0.113-0.027 0.848-0.199 2.203-0.515 0.317-0.086 1.121-0.301 2.418-0.649 0.691-0.172 1.109-0.246 1.254-0.215 0.199 0.086 0.387 0.274 0.559 0.563 0.203 0.344 0.218 0.617 0.043 0.82-0.172 0.199-0.602 0.516-1.293 0.949l-0.954 0.563 1.602-0.086c0.746-0.578 1.453-1.023 2.117-1.34z" inkscape:connector-curvature="0"/>
      <path id="path90" style="fill-rule:evenodd;fill:#f09400" d="m14.223 23.673c-0.75 0.144-1.485 0.144-2.207 0 0.406 0.316 0.793 0.492 1.168 0.519 0.718 0.086 1.394 0 2.031-0.262 0.691-0.257 1.062-0.601 1.121-1.035 0-0.086-0.027-0.16-0.086-0.215-0.375 0.43-1.051 0.762-2.027 0.993z" inkscape:connector-curvature="0"/>
      <path id="path92" style="fill-rule:evenodd;fill:#ffffff" d="m10.375 19.829c0.895-0.344 1.383-0.621 1.469-0.821 0.117-0.23-0.071-0.273-0.563-0.128-1.41 0.316-2.187 0.589-2.332 0.82-0.144 0.172-0.07 0.285 0.215 0.344 0.289 0.031 0.691-0.043 1.211-0.215z" inkscape:connector-curvature="0"/>
      <path id="path94" style="fill-rule:evenodd;fill:#ffb536" d="m19.059 12.657c0.316 0.059 0.488-0.102 0.519-0.473 0.027-0.433-0.187-0.91-0.648-1.426-0.664-0.781-1.239-1.125-1.731-1.039 0 0.606 0.219 1.168 0.649 1.684 0.117 0.145 0.347 0.434 0.691 0.867 0.172 0.231 0.348 0.36 0.52 0.387z" inkscape:connector-curvature="0"/>
      <path id="path96" style="fill-rule:evenodd;fill:#ffb536" d="m19.492 5.141c0.145 0.231 0.285 0.532 0.43 0.907 0.144 0.488 0.273 0.835 0.39 1.039 0.145 0.316 0.301 0.414 0.473 0.3 0.117-0.086 0.219-0.289 0.305-0.605-0.203-1.293-0.535-2.231-0.996-2.809-0.285-0.375-0.617-0.562-0.992-0.562-0.317 0.031-0.516 0.133-0.606 0.305-0.058 0.117 0.031 0.316 0.262 0.605 0.344 0.344 0.59 0.617 0.734 0.82z" inkscape:connector-curvature="0"/>
      <g id="g98">
        <g id="g100">
          <g id="g106">
            <path id="path114" style="fill-rule:evenodd;fill:url(#radialGradient108)" d="m16.422 15.766c0-0.457-0.227-0.687-0.688-0.687s-0.691 0.23-0.691 0.687c0 0.465 0.23 0.696 0.691 0.696s0.688-0.235 0.688-0.696z" inkscape:connector-curvature="0"/>
          </g>
        </g>
      </g>
      <g id="g116">
        <g id="g118">
          <g id="g124">
            <path id="path132" style="fill-rule:evenodd;fill:url(#radialGradient126)" d="m16.684 14.255c0-0.286-0.145-0.43-0.434-0.43-0.316 0-0.477 0.144-0.477 0.43 0 0.316 0.161 0.476 0.477 0.476 0.289 0 0.434-0.16 0.434-0.476z" inkscape:connector-curvature="0"/>
          </g>
        </g>
      </g>
      <g id="g134">
        <g id="g136">
          <g id="g142">
            <path id="path150" style="fill-rule:evenodd;fill:url(#radialGradient144)" d="m8.949 17.583c0-0.461-0.23-0.692-0.691-0.692s-0.692 0.231-0.692 0.692 0.231 0.691 0.692 0.691 0.691-0.23 0.691-0.691z" inkscape:connector-curvature="0"/>
          </g>
        </g>
      </g>
      <g id="g152">
        <g id="g154">
          <g id="g160">
            <path id="path168" style="fill-rule:evenodd;fill:url(#radialGradient162)" d="m10.074 15.337c0-0.258-0.133-0.387-0.39-0.387-0.231 0-0.344 0.129-0.344 0.387 0 0.257 0.113 0.386 0.344 0.386 0.257 0 0.39-0.129 0.39-0.386z" inkscape:connector-curvature="0"/>
          </g>
        </g>
      </g>
      <g id="g170">
        <g id="g172">
          <g id="g178">
            <path id="path186" style="fill-rule:evenodd;fill:url(#radialGradient180)" d="m8 10.282c0-0.289-0.145-0.434-0.434-0.434-0.285 0-0.429 0.145-0.429 0.434s0.144 0.434 0.429 0.434c0.289 0 0.434-0.145 0.434-0.434z" inkscape:connector-curvature="0"/>
          </g>
        </g>
      </g>
      <g id="g188">
        <g id="g190">
          <g id="g196">
            <path id="path204" style="fill-rule:evenodd;fill:url(#radialGradient198)" d="m13.832 8.38c0-0.2-0.074-0.375-0.219-0.516-0.14-0.145-0.316-0.219-0.515-0.219-0.172 0-0.332 0.074-0.477 0.219-0.144 0.144-0.215 0.316-0.215 0.516 0 0.175 0.071 0.332 0.215 0.476 0.145 0.145 0.305 0.215 0.477 0.215 0.203 0 0.375-0.07 0.515-0.215 0.145-0.144 0.219-0.301 0.219-0.476z" inkscape:connector-curvature="0"/>
          </g>
        </g>
      </g>
      <path id="path206" style="fill-rule:evenodd;fill:#ffe03a" d="m16.336 20.348c-0.488-0.175-0.645-0.175-0.473 0 0.317 0.285-0.031 0.676-1.039 1.164-0.402 0.172-0.949 0.489-1.64 0.954l-0.95 0.644 1.727-0.086c0.516-0.055 1.34-0.242 2.461-0.558l0.691-0.778c0.059-0.172 0.028-0.449-0.086-0.82 0-0.203-0.23-0.375-0.691-0.52z" inkscape:connector-curvature="0"/>
      <path id="path208" style="fill-rule:evenodd;fill:#ffffff" d="m14.266 22.466c0.546-0.231 0.976-0.547 1.293-0.954 0.347-0.461 0.363-0.589 0.043-0.386-1.379 0.574-2.161 0.992-2.332 1.25-0.114 0.175-0.071 0.277 0.128 0.304 0.204 0 0.493-0.074 0.868-0.214z" inkscape:connector-curvature="0"/>
      <path id="path210" style="fill-rule:evenodd;fill:#ffffff" d="m8.301 20.348c0.261 0 0.347-0.101 0.261-0.304-0.085-0.2-0.203-0.286-0.347-0.258-0.172 0.027-0.274 0.129-0.301 0.301-0.027 0.175 0.102 0.261 0.387 0.261z" inkscape:connector-curvature="0"/>
      <path id="path212" style="fill-rule:evenodd;fill:#ffffff" d="m12.664 18.36c-0.086 0.231-0.055 0.344 0.086 0.344 0.117 0 0.332-0.012 0.648-0.043 0.375 0 1.098 0.305 2.161 0.91l-0.907-0.648c-0.429-0.262-0.734-0.45-0.906-0.563-0.289-0.199-0.434-0.402-0.434-0.605l0.129-3.153c0-0.633-0.113 0.231-0.343 2.594 0.027 0.285-0.043 0.559-0.219 0.82l-0.215 0.344z" inkscape:connector-curvature="0"/>
      <path id="path214" style="fill-rule:evenodd;fill:#ffffff" d="m14.824 3.239c0.317 0.348 0.434 0.305 0.348-0.129-0.086-0.43-0.231-0.75-0.434-0.949-0.113-0.117-0.343-0.391-0.691-0.82-0.344-0.348-0.606-0.536-0.777-0.563-0.2-0.027-0.344 0.027-0.43 0.176-0.086 0.172 0 0.285 0.258 0.344 0.203 0.058 0.476 0.316 0.82 0.777 0.488 0.66 0.793 1.051 0.906 1.164z" inkscape:connector-curvature="0"/>
      <path id="path216" style="fill-rule:evenodd;fill:#ffffff" d="m11.715 1.036c0.172 0.031 0.258-0.07 0.258-0.301 0-0.203-0.188-0.301-0.563-0.301-0.371 0-0.488 0.098-0.344 0.301 0.145 0.172 0.36 0.273 0.649 0.301z" inkscape:connector-curvature="0"/>
      <g id="g218">
        <g id="g220" clip-path="url(#clipPath222)">
          <g id="g226" transform="matrix(-.13848 -.8528 -.8528 .13848 .0079202 24.796)">
            <g id="g248" mask="url(#mask240)">
              <path id="path256" style="fill-rule:evenodd;fill:url(#linearGradient250)" d="m12.016 17.497 0.218-1.082c0.145-0.746 0.2-1.282 0.172-1.598-0.027-0.488 0.102-1.539 0.387-3.152-0.199-0.692-0.762-1.266-1.684-1.731-1.152-0.402-2-0.718-2.547-0.949-0.921-0.375-1.253-0.762-0.996-1.164 0.606-0.98 1.008-1.988 1.211-3.027 0.289-1.465-0.172-2.145-1.382-2.028-1.899 0.172-4.032 0.992-6.395 2.461l1.039 4.535c0.316 1.786 0.547 2.868 0.691 3.243 0.2 0.632 0.59 1.453 1.165 2.461 0.75 1.324 1.179 2.117 1.296 2.375 0.086 0.55 0.231 1.125 0.434 1.73 0.141 0.375 0.633 0.418 1.469 0.129 0.488-0.172 1.265-0.52 2.332-1.035 0.98-0.407 1.844-0.793 2.59-1.168z" inkscape:connector-curvature="0"/>
            </g>
          </g>
        </g>
      </g>
      <g id="g258">
        <g id="g274" mask="url(#mask266)">
          <g id="g314">
            <g id="g316" clip-path="url(#clipPath278)">
              <g id="g318" transform="translate(0 -.25714)">
                <g id="g322">
                  <g id="g324" clip-path="url(#clipPath282)">
                    <g id="g326">
                      <g id="g328">
                        <g id="g330" clip-path="url(#clipPath286)">
                          <g id="g332" transform="matrix(-.13496 -.85337 .85337 -.13496 15141 -1178.3)">
                            <g id="g336" mask="url(#mask300)">
                              <path id="path338" style="fill-rule:evenodd;fill:url(#linearGradient308)" d="m10.391 9.051c0.461 0 0.953-0.188 1.468-0.563 0.289-0.172 0.633-0.433 1.039-0.777 0.95-0.664 1.282-1.715 0.993-3.156-0.2-0.922-0.664-1.555-1.383-1.899-0.633-0.316-1.656-0.504-3.067-0.562-1.785-0.028-4.578 0.836-8.379 2.594-0.117 0.113-0.175 0.242-0.175 0.386 0.031 0.145 0.144 0.59 0.347 1.34 0.286 1.008 0.563 2.09 0.821 3.238 0.98 0 2.304-0.113 3.972-0.343 1.27-0.172 2.723-0.258 4.364-0.258z" inkscape:connector-curvature="0"/>
                            </g>
                          </g>
                        </g>
                      </g>
                    </g>
                  </g>
                </g>
              </g>
            </g>
          </g>
        </g>
      </g>
    </g>
  </g>
<metadata><rdf:RDF><cc:Work><dc:format>image/svg+xml</dc:format><dc:type rdf:resource="http://purl.org/dc/dcmitype/StillImage"/><cc:license rdf:resource="http://creativecommons.org/licenses/publicdomain/"/><dc:publisher><cc:Agent rdf:about="http://openclipart.org/"><dc:title>Openclipart</dc:title></cc:Agent></dc:publisher></cc:Work><cc:License rdf:about="http://creativecommons.org/licenses/publicdomain/"><cc:permits rdf:resource="http://creativecommons.org/ns#Reproduction"/><cc:permits rdf:resource="http://creativecommons.org/ns#Distribution"/><cc:permits rdf:resource="http://creativecommons.org/ns#DerivativeWorks"/></cc:License></rdf:RDF></metadata></svg>
