<?xml version="1.0" encoding="UTF-8" standalone="no"?>
<svg
   xmlns:dc="http://purl.org/dc/elements/1.1/"
   xmlns:cc="http://creativecommons.org/ns#"
   xmlns:rdf="http://www.w3.org/1999/02/22-rdf-syntax-ns#"
   xmlns:svg="http://www.w3.org/2000/svg"
   xmlns="http://www.w3.org/2000/svg"
   xmlns:xlink="http://www.w3.org/1999/xlink"
   xmlns:sodipodi="http://sodipodi.sourceforge.net/DTD/sodipodi-0.dtd"
   xmlns:inkscape="http://www.inkscape.org/namespaces/inkscape"
   id="svg4136"
   height="564"
   viewBox="0 0 554 564"
   width="554"
   version="1.1"
   inkscape:version="0.91 r13725"
   sodipodi:docname="greenspidercolourremix.svg">
  <metadata
     id="metadata4244">
    <rdf:RDF>
      <cc:Work
         rdf:about="">
        <dc:format>image/svg+xml</dc:format>
        <dc:type
           rdf:resource="http://purl.org/dc/dcmitype/StillImage" />
        <dc:title></dc:title>
        <cc:license
           rdf:resource="http://creativecommons.org/publicdomain/zero/1.0/" />
      </cc:Work>
      <cc:License
         rdf:about="http://creativecommons.org/publicdomain/zero/1.0/">
        <cc:permits
           rdf:resource="http://creativecommons.org/ns#Reproduction" />
        <cc:permits
           rdf:resource="http://creativecommons.org/ns#Distribution" />
        <cc:permits
           rdf:resource="http://creativecommons.org/ns#DerivativeWorks" />
      </cc:License>
    </rdf:RDF>
  </metadata>
  <defs
     id="defs4242">
    <linearGradient
       inkscape:collect="always"
       id="linearGradient4792">
      <stop
         style="stop-color:#8b3333;stop-opacity:1;"
         offset="0"
         id="stop4794" />
      <stop
         style="stop-color:#8b3333;stop-opacity:0;"
         offset="1"
         id="stop4796" />
    </linearGradient>
    <radialGradient
       inkscape:collect="always"
       xlink:href="#linearGradient4792"
       id="radialGradient4798"
       cx="229.78345"
       cy="426.04034"
       fx="229.78345"
       fy="426.04034"
       r="22.843967"
       gradientTransform="matrix(1.3529412,0,0,1.1176471,-76.620834,-52.362001)"
       gradientUnits="userSpaceOnUse" />
    <radialGradient
       inkscape:collect="always"
       xlink:href="#linearGradient4792"
       id="radialGradient4802"
       gradientUnits="userSpaceOnUse"
       gradientTransform="matrix(1.3529412,0,0,1.1176471,-121.41293,-56.84121)"
       cx="229.78345"
       cy="426.04034"
       fx="229.78345"
       fy="426.04034"
       r="22.843967" />
    <radialGradient
       inkscape:collect="always"
       xlink:href="#linearGradient4792"
       id="radialGradient4806"
       gradientUnits="userSpaceOnUse"
       gradientTransform="matrix(1.3529412,0,0,1.1176471,1.3174084,-57.737052)"
       cx="229.78345"
       cy="426.04034"
       fx="229.78345"
       fy="426.04034"
       r="22.843967" />
    <radialGradient
       inkscape:collect="always"
       xlink:href="#linearGradient4792"
       id="radialGradient4810"
       gradientUnits="userSpaceOnUse"
       gradientTransform="matrix(1.3529412,0,0,1.1176471,-35.412109,-68.487155)"
       cx="229.78345"
       cy="426.04034"
       fx="229.78345"
       fy="426.04034"
       r="22.843967" />
    <radialGradient
       inkscape:collect="always"
       xlink:href="#linearGradient4792"
       id="radialGradient4814"
       gradientUnits="userSpaceOnUse"
       gradientTransform="matrix(1.3529412,0,0,1.1176471,-123.20461,-94.46657)"
       cx="229.78345"
       cy="426.04034"
       fx="229.78345"
       fy="426.04034"
       r="22.843967" />
    <radialGradient
       inkscape:collect="always"
       xlink:href="#linearGradient4792"
       id="radialGradient4818"
       gradientUnits="userSpaceOnUse"
       gradientTransform="matrix(1.3529412,0,0,1.1176471,-79.308358,-95.362412)"
       cx="229.78345"
       cy="426.04034"
       fx="229.78345"
       fy="426.04034"
       r="22.843967" />
    <radialGradient
       inkscape:collect="always"
       xlink:href="#linearGradient4792"
       id="radialGradient4822"
       gradientUnits="userSpaceOnUse"
       gradientTransform="matrix(1.3529412,0,0,1.1176471,-38.995473,-107.00836)"
       cx="229.78345"
       cy="426.04034"
       fx="229.78345"
       fy="426.04034"
       r="22.843967" />
    <radialGradient
       inkscape:collect="always"
       xlink:href="#linearGradient4792"
       id="radialGradient4826"
       gradientUnits="userSpaceOnUse"
       gradientTransform="matrix(1.3529412,0,0,1.1176471,7.5883051,-104.32083)"
       cx="229.78345"
       cy="426.04034"
       fx="229.78345"
       fy="426.04034"
       r="22.843967" />
    <radialGradient
       inkscape:collect="always"
       xlink:href="#linearGradient4792"
       id="radialGradient4830"
       gradientUnits="userSpaceOnUse"
       gradientTransform="matrix(1.3529412,0,0,1.1176471,69.401395,-122.23767)"
       cx="229.78345"
       cy="426.04034"
       fx="229.78345"
       fy="426.04034"
       r="22.843967" />
    <radialGradient
       inkscape:collect="always"
       xlink:href="#linearGradient4792"
       id="radialGradient4834"
       gradientUnits="userSpaceOnUse"
       gradientTransform="matrix(1.3529412,0,0,1.1176471,59.547134,-150.90461)"
       cx="229.78345"
       cy="426.04034"
       fx="229.78345"
       fy="426.04034"
       r="22.843967" />
    <radialGradient
       inkscape:collect="always"
       xlink:href="#linearGradient4792"
       id="radialGradient4838"
       gradientUnits="userSpaceOnUse"
       gradientTransform="matrix(1.3529412,0,0,1.1176471,4.0049371,-142.84203)"
       cx="229.78345"
       cy="426.04034"
       fx="229.78345"
       fy="426.04034"
       r="22.843967" />
    <radialGradient
       inkscape:collect="always"
       xlink:href="#linearGradient4792"
       id="radialGradient4842"
       gradientUnits="userSpaceOnUse"
       gradientTransform="matrix(1.3529412,0,0,1.1176471,-40.787157,-145.52956)"
       cx="229.78345"
       cy="426.04034"
       fx="229.78345"
       fy="426.04034"
       r="22.843967" />
    <radialGradient
       inkscape:collect="always"
       xlink:href="#linearGradient4792"
       id="radialGradient4846"
       gradientUnits="userSpaceOnUse"
       gradientTransform="matrix(1.3529412,0,0,1.1176471,-81.995884,-135.6753)"
       cx="229.78345"
       cy="426.04034"
       fx="229.78345"
       fy="426.04034"
       r="22.843967" />
    <radialGradient
       inkscape:collect="always"
       xlink:href="#linearGradient4792"
       id="radialGradient4850"
       gradientUnits="userSpaceOnUse"
       gradientTransform="matrix(1.0784314,0,0,0.96078436,-62.81433,-65.262064)"
       cx="229.78345"
       cy="426.04034"
       fx="229.78345"
       fy="426.04034"
       r="22.843967" />
    <radialGradient
       inkscape:collect="always"
       xlink:href="#linearGradient4792"
       id="radialGradient4854"
       gradientUnits="userSpaceOnUse"
       gradientTransform="matrix(1.0784314,0,0,0.96078436,-54.751753,-95.720688)"
       cx="229.78345"
       cy="426.04034"
       fx="229.78345"
       fy="426.04034"
       r="22.843967" />
    <radialGradient
       inkscape:collect="always"
       xlink:href="#linearGradient4792"
       id="radialGradient4858"
       gradientUnits="userSpaceOnUse"
       gradientTransform="matrix(1.0784314,0,0,0.96078436,-13.543026,-103.78327)"
       cx="229.78345"
       cy="426.04034"
       fx="229.78345"
       fy="426.04034"
       r="22.843967" />
    <radialGradient
       inkscape:collect="always"
       xlink:href="#linearGradient4792"
       id="radialGradient4862"
       gradientUnits="userSpaceOnUse"
       gradientTransform="matrix(0.9019608,0,0,0.80392159,58.809379,-44.120137)"
       cx="229.78345"
       cy="426.04034"
       fx="229.78345"
       fy="426.04034"
       r="22.843967" />
    <radialGradient
       inkscape:collect="always"
       xlink:href="#linearGradient4792"
       id="radialGradient4866"
       gradientUnits="userSpaceOnUse"
       gradientTransform="matrix(0.9019608,0,0,0.80392159,95.538896,-45.911821)"
       cx="229.78345"
       cy="426.04034"
       fx="229.78345"
       fy="426.04034"
       r="22.843967" />
    <radialGradient
       inkscape:collect="always"
       xlink:href="#linearGradient4792"
       id="radialGradient4870"
       gradientUnits="userSpaceOnUse"
       gradientTransform="matrix(0.9019608,0,0,0.80392159,84.788793,-71.891236)"
       cx="229.78345"
       cy="426.04034"
       fx="229.78345"
       fy="426.04034"
       r="22.843967" />
    <radialGradient
       inkscape:collect="always"
       xlink:href="#linearGradient4792"
       id="radialGradient4874"
       gradientUnits="userSpaceOnUse"
       gradientTransform="matrix(0.9019608,0,0,0.80392159,143.01852,-51.286873)"
       cx="229.78345"
       cy="426.04034"
       fx="229.78345"
       fy="426.04034"
       r="22.843967" />
    <radialGradient
       inkscape:collect="always"
       xlink:href="#linearGradient4792"
       id="radialGradient4878"
       gradientUnits="userSpaceOnUse"
       gradientTransform="matrix(0.9019608,0,0,0.80392159,30.142442,-67.412027)"
       cx="229.78345"
       cy="426.04034"
       fx="229.78345"
       fy="426.04034"
       r="22.843967" />
    <radialGradient
       inkscape:collect="always"
       xlink:href="#linearGradient4792"
       id="radialGradient4882"
       gradientUnits="userSpaceOnUse"
       gradientTransform="matrix(0.76470589,0,0,0.7254902,89.212845,-37.101247)"
       cx="229.78345"
       cy="426.04034"
       fx="229.78345"
       fy="426.04034"
       r="22.843967" />
  </defs>
  <sodipodi:namedview
     pagecolor="#ffffff"
     bordercolor="#666666"
     borderopacity="1"
     objecttolerance="10"
     gridtolerance="10"
     guidetolerance="10"
     inkscape:pageopacity="0"
     inkscape:pageshadow="2"
     inkscape:window-width="1916"
     inkscape:window-height="1035"
     id="namedview4240"
     showgrid="false"
     inkscape:zoom="1.1162684"
     inkscape:cx="304.70339"
     inkscape:cy="311.87288"
     inkscape:window-x="4"
     inkscape:window-y="1"
     inkscape:window-maximized="1"
     inkscape:current-layer="svg4136" />
  <g
     id="g4884">
    <path
       sodipodi:nodetypes="cccccccccccccccccccccccccccccccccccccccccccccccccccccccccccccccccccccccscccccccccccccccccccccccccccccccccccccccccccc"
       inkscape:connector-curvature="0"
       id="path4786"
       d="m 396.85796,353.47716 -12.54179,64.50061 -66.2923,58.22973 -98.54261,-4.47921 -63.60477,-44.7921 -8.95842,-29.56278 -0.89584,-29.56278 -24.18773,18.81268 -24.187734,51.06298 -8.958419,60.02141 -8.958419,-20.60436 3.583367,-33.14615 12.541787,-37.62536 15.229308,-25.97942 19.70853,-25.08357 18.81267,-9.85426 9.85427,-21.50021 -33.14615,10.75011 -18.81268,0 -23.291893,-8.95842 -24.187731,-22.39605 -6.270893,-21.5002 3.583368,-17.91684 16.125154,28.66694 5.375051,8.95842 15.229312,10.7501 23.291892,8.06258 10.7501,-2.68753 38.5212,-19.70852 32.25031,-17.91684 31.35446,-20.60436 -17.91683,-9.85426 -29.56279,16.12515 -42.10456,14.33347 -38.5212,-8.06257 -46.583783,-23.29189 -9.854261,-16.12516 30.458624,13.43763 51.95883,18.81268 27.7711,-6.27089 48.37546,-17.91684 14.33347,-2.68753 -0.89584,-19.70852 -39.41704,-4.47921 -51.063,-18.81268 -34.041984,-29.56278 -16.125154,-23.29189 -9.854261,-27.7711 5.375052,-3.58336 27.771097,43.00041 15.22931,19.70852 22.39605,8.95842 48.37546,15.22931 36.72952,14.33347 8.06258,-37.62536 8.06257,-22.39605 -8.06257,-9.85426 -1.79169,-17.02099 8.06258,-10.75011 4.47921,-2.68752 7.16673,3.58337 -1.79168,26.87525 19.70852,9.85426 31.35447,-2.68752 4.47921,-9.85426 -2.68753,-17.021 0,-7.16673 8.06258,-4.47921 8.95842,7.16673 2.68752,19.70852 -12.54178,16.12516 c 0,0 13.43763,20.60436 13.43763,24.18773 0,3.58336 5.37505,22.39604 5.37505,22.39604 l 17.02099,-6.27089 25.08358,-12.54179 27.77109,-6.27089 12.54179,-6.27089 26.87526,-23.29189 27.7711,-27.7711 -2.68753,17.91684 -34.04199,37.62536 -30.45863,18.81268 -58.22972,25.08357 -4.47921,14.33347 39.41704,11.64594 36.72952,14.33347 11.64595,0 18.81268,-10.7501 38.5212,-24.18773 13.43763,-9.85426 10.7501,3.58337 -17.91684,17.91684 -72.56319,44.79209 -8.95842,-5.37505 -30.45863,-9.85426 -43.89625,-17.021 -8.95842,16.12516 78.83409,46.58377 20.60436,1.79169 20.60437,-8.06258 22.39604,-18.81268 17.91684,-29.56278 0,23.29189 -25.97941,39.41704 -42.10457,13.43763 -11.64595,2.68753 13.43763,16.12515 38.5212,48.37546 23.29189,48.37546 2.68753,32.25031 -9.85426,11.64595 -3.58337,-32.25031 -7.16674,-19.70852 -12.54178,-27.7711 -35.83368,-41.20873 z"
       style="fill:#7ccb48;fill-opacity:1;fill-rule:evenodd;stroke:none;stroke-width:1px;stroke-linecap:butt;stroke-linejoin:miter;stroke-opacity:1" />
    <path
       inkscape:connector-curvature="0"
       id="path4788"
       d="m 249.93989,144.746 -3.58337,-10.75011 4.47921,-8.06257 -3.58337,-10.7501 -2.68753,-4.47921 -12.54178,6.27089 -0.89584,21.5002 7.16673,14.33347 c 0,0 29.56278,-3.58336 34.93784,-1.79168 5.37505,1.79168 37.62535,0 37.62535,0 l 8.95842,-13.43763 -5.37505,-25.97941 -13.43763,0.89584 -0.89584,13.43763 3.58337,12.54178 -5.37505,9.85426 -34.04199,1.79169 z"
       style="fill:#9b9b9b;fill-rule:evenodd;stroke:none;stroke-width:1px;stroke-linecap:butt;stroke-linejoin:miter;stroke-opacity:1;fill-opacity:1" />
    <ellipse
       ry="25.531492"
       rx="30.906544"
       cy="423.80075"
       cx="234.26265"
       id="path4790"
       style="opacity:1;fill:url(#radialGradient4798);fill-opacity:1;fill-rule:evenodd;stroke:none;stroke-width:3;stroke-linecap:round;stroke-linejoin:round;stroke-miterlimit:4;stroke-dasharray:none;stroke-opacity:1" />
    <ellipse
       style="opacity:1;fill:url(#radialGradient4802);fill-opacity:1;fill-rule:evenodd;stroke:none;stroke-width:3;stroke-linecap:round;stroke-linejoin:round;stroke-miterlimit:4;stroke-dasharray:none;stroke-opacity:1"
       id="ellipse4800"
       cx="189.47055"
       cy="419.32153"
       rx="30.906544"
       ry="25.531492" />
    <ellipse
       ry="25.531492"
       rx="30.906544"
       cy="418.42569"
       cx="312.2009"
       id="ellipse4804"
       style="opacity:1;fill:url(#radialGradient4806);fill-opacity:1;fill-rule:evenodd;stroke:none;stroke-width:3;stroke-linecap:round;stroke-linejoin:round;stroke-miterlimit:4;stroke-dasharray:none;stroke-opacity:1" />
    <ellipse
       style="opacity:1;fill:url(#radialGradient4810);fill-opacity:1;fill-rule:evenodd;stroke:none;stroke-width:3;stroke-linecap:round;stroke-linejoin:round;stroke-miterlimit:4;stroke-dasharray:none;stroke-opacity:1"
       id="ellipse4808"
       cx="275.47137"
       cy="407.6756"
       rx="30.906544"
       ry="25.531492" />
    <ellipse
       ry="25.531492"
       rx="30.906544"
       cy="381.6962"
       cx="187.67886"
       id="ellipse4812"
       style="opacity:1;fill:url(#radialGradient4814);fill-opacity:1;fill-rule:evenodd;stroke:none;stroke-width:3;stroke-linecap:round;stroke-linejoin:round;stroke-miterlimit:4;stroke-dasharray:none;stroke-opacity:1" />
    <ellipse
       style="opacity:1;fill:url(#radialGradient4818);fill-opacity:1;fill-rule:evenodd;stroke:none;stroke-width:3;stroke-linecap:round;stroke-linejoin:round;stroke-miterlimit:4;stroke-dasharray:none;stroke-opacity:1"
       id="ellipse4816"
       cx="231.57512"
       cy="380.80035"
       rx="30.906544"
       ry="25.531492" />
    <ellipse
       ry="25.531492"
       rx="30.906544"
       cy="369.15442"
       cx="271.888"
       id="ellipse4820"
       style="opacity:1;fill:url(#radialGradient4822);fill-opacity:1;fill-rule:evenodd;stroke:none;stroke-width:3;stroke-linecap:round;stroke-linejoin:round;stroke-miterlimit:4;stroke-dasharray:none;stroke-opacity:1" />
    <ellipse
       style="opacity:1;fill:url(#radialGradient4826);fill-opacity:1;fill-rule:evenodd;stroke:none;stroke-width:3;stroke-linecap:round;stroke-linejoin:round;stroke-miterlimit:4;stroke-dasharray:none;stroke-opacity:1"
       id="ellipse4824"
       cx="318.47177"
       cy="371.84195"
       rx="30.906544"
       ry="25.531492" />
    <ellipse
       ry="25.531492"
       rx="30.906544"
       cy="353.92511"
       cx="380.28485"
       id="ellipse4828"
       style="opacity:1;fill:url(#radialGradient4830);fill-opacity:1;fill-rule:evenodd;stroke:none;stroke-width:3;stroke-linecap:round;stroke-linejoin:round;stroke-miterlimit:4;stroke-dasharray:none;stroke-opacity:1" />
    <ellipse
       style="opacity:1;fill:url(#radialGradient4834);fill-opacity:1;fill-rule:evenodd;stroke:none;stroke-width:3;stroke-linecap:round;stroke-linejoin:round;stroke-miterlimit:4;stroke-dasharray:none;stroke-opacity:1"
       id="ellipse4832"
       cx="370.4306"
       cy="325.25818"
       rx="30.906544"
       ry="25.531492" />
    <ellipse
       ry="25.531492"
       rx="30.906544"
       cy="333.32077"
       cx="314.8884"
       id="ellipse4836"
       style="opacity:1;fill:url(#radialGradient4838);fill-opacity:1;fill-rule:evenodd;stroke:none;stroke-width:3;stroke-linecap:round;stroke-linejoin:round;stroke-miterlimit:4;stroke-dasharray:none;stroke-opacity:1" />
    <ellipse
       style="opacity:1;fill:url(#radialGradient4842);fill-opacity:1;fill-rule:evenodd;stroke:none;stroke-width:3;stroke-linecap:round;stroke-linejoin:round;stroke-miterlimit:4;stroke-dasharray:none;stroke-opacity:1"
       id="ellipse4840"
       cx="270.09631"
       cy="330.63324"
       rx="30.906544"
       ry="25.531492" />
    <ellipse
       ry="25.531492"
       rx="30.906544"
       cy="340.48749"
       cx="228.88759"
       id="ellipse4844"
       style="opacity:1;fill:url(#radialGradient4846);fill-opacity:1;fill-rule:evenodd;stroke:none;stroke-width:3;stroke-linecap:round;stroke-linejoin:round;stroke-miterlimit:4;stroke-dasharray:none;stroke-opacity:1" />
    <ellipse
       ry="21.948124"
       rx="24.635651"
       cy="313.61221"
       cx="193.05389"
       id="ellipse4852"
       style="opacity:1;fill:url(#radialGradient4854);fill-opacity:1;fill-rule:evenodd;stroke:none;stroke-width:3;stroke-linecap:round;stroke-linejoin:round;stroke-miterlimit:4;stroke-dasharray:none;stroke-opacity:1" />
    <ellipse
       style="opacity:1;fill:url(#radialGradient4850);fill-opacity:1;fill-rule:evenodd;stroke:none;stroke-width:3;stroke-linecap:round;stroke-linejoin:round;stroke-miterlimit:4;stroke-dasharray:none;stroke-opacity:1"
       id="ellipse4848"
       cx="184.99132"
       cy="344.07083"
       rx="24.635651"
       ry="21.948124" />
    <ellipse
       ry="21.948124"
       rx="24.635651"
       cy="305.54962"
       cx="234.26262"
       id="ellipse4856"
       style="opacity:1;fill:url(#radialGradient4858);fill-opacity:1;fill-rule:evenodd;stroke:none;stroke-width:3;stroke-linecap:round;stroke-linejoin:round;stroke-miterlimit:4;stroke-dasharray:none;stroke-opacity:1" />
    <ellipse
       style="opacity:1;fill:url(#radialGradient4862);fill-opacity:1;fill-rule:evenodd;stroke:none;stroke-width:3;stroke-linecap:round;stroke-linejoin:round;stroke-miterlimit:4;stroke-dasharray:none;stroke-opacity:1"
       id="ellipse4860"
       cx="266.06503"
       cy="298.3829"
       rx="20.604362"
       ry="18.364756" />
    <ellipse
       ry="18.364756"
       rx="20.604362"
       cy="296.59122"
       cx="302.79456"
       id="ellipse4864"
       style="opacity:1;fill:url(#radialGradient4866);fill-opacity:1;fill-rule:evenodd;stroke:none;stroke-width:3;stroke-linecap:round;stroke-linejoin:round;stroke-miterlimit:4;stroke-dasharray:none;stroke-opacity:1" />
    <ellipse
       style="opacity:1;fill:url(#radialGradient4870);fill-opacity:1;fill-rule:evenodd;stroke:none;stroke-width:3;stroke-linecap:round;stroke-linejoin:round;stroke-miterlimit:4;stroke-dasharray:none;stroke-opacity:1"
       id="ellipse4868"
       cx="292.04446"
       cy="270.61182"
       rx="20.604362"
       ry="18.364756" />
    <ellipse
       ry="18.364756"
       rx="20.604362"
       cy="291.21619"
       cx="350.2742"
       id="ellipse4872"
       style="opacity:1;fill:url(#radialGradient4874);fill-opacity:1;fill-rule:evenodd;stroke:none;stroke-width:3;stroke-linecap:round;stroke-linejoin:round;stroke-miterlimit:4;stroke-dasharray:none;stroke-opacity:1" />
    <ellipse
       style="opacity:1;fill:url(#radialGradient4878);fill-opacity:1;fill-rule:evenodd;stroke:none;stroke-width:3;stroke-linecap:round;stroke-linejoin:round;stroke-miterlimit:4;stroke-dasharray:none;stroke-opacity:1"
       id="ellipse4876"
       cx="237.39812"
       cy="275.09103"
       rx="20.604362"
       ry="18.364756" />
    <ellipse
       ry="16.573072"
       rx="17.468916"
       cy="271.98688"
       cx="264.92963"
       id="ellipse4880"
       style="opacity:1;fill:url(#radialGradient4882);fill-opacity:1;fill-rule:evenodd;stroke:none;stroke-width:3;stroke-linecap:round;stroke-linejoin:round;stroke-miterlimit:4;stroke-dasharray:none;stroke-opacity:1" />
    <path
       d="m100.85 558.84c-10.157-10.99-17.41-30.32-21.33-56.86-2.0918-14.159-2.4115-14.618-7.609-10.917-4.229 3.0113-7.3899-0.76121-3.4072-4.0665 3.3081-2.7454 8.5114-12.786 8.3643-16.14-0.25202-5.7462 2.1704-27.908 3.687-33.73 0.795-3.05 1.445-6.17 1.445-6.92 0-1.64 4.4336-13.176 7.1205-18.526 2.5345-5.0475 1.9699-5.5933-5.1209-4.9504-8.0754 0.73226-8.1955-1.4982-0.24961-4.6372 3.1625-1.2493 6.8331-2.7946 8.1569-3.434 2.532-1.22 14.833-15.38 17.073-19.66 0.72155-1.375 3.4957-5.0361 6.1647-8.1358s4.8528-5.9817 4.8528-6.4045c0-1.1492 14.382-14.287 23.5-21.467 4.4-3.4648 8.195-6.463 8.4333-6.6628 1.7749-1.4876-2.3155-2.6123-5.1973-1.4291-7.05 2.9-17.28 6.1-19.48 6.1-1.2787 0-3.9945 0.84226-6.0351 1.8717-7.5674 3.8176-8.2102 3.7574-8.2102-0.76912 0-4.904-0.23735-1.8595-14.55-5.8785-12.751-3.57-15.817-6.35-29.092-19.12-10.325-9.93-12.626-13.62-21.679-15.57-5.343-1.14-2.997-3.99 3.576-4.33 3.157-0.16 5.74-0.47 5.74-0.68 0-0.21175-0.51253-1.6518-1.139-3.2001-1.9668-4.8613-3.9562-19.311-4.5178-32.815-0.58772-14.131-0.92276-15.076-5.6623-15.974-11.937-2.2624-15.857-4.5769-11.283-6.6613 3.1375-1.4295 3.2795-3.1716 0.54651-6.7062-9.11-11.78-16.945-24.05-16.945-26.54 0-1.02-6.565-19.63-8.5124-24.12-9.8821-22.81-12.446-70.71-3.9354-73.52 7.7251-2.5495 10.23 2.5019 5.6856 11.466-4.6133 9.1004 5.3372 47.866 20.419 79.551 7.2846 15.304 11.539 20.246 13.343 15.5 1.9322-5.0822 3.3172-3.0251 4.3762 6.5 0.9181 8.2578 8.2159 12.639 11.243 6.75 3.917-7.62 11.717-16.34 18.381-20.55 3.025-1.9096 6.4-4.2577 7.5-5.2179 4.6291-4.0409 15.631-2.9999 16.284 1.5408 0.22725 1.5802-0.9188 2.4398-5.7334 4.3002-7.4106 2.8635-16.593 12.735-22.022 23.675-3.73 7.5164-2.6473 9.4099 7.4711 13.065 2.75 0.99337 7.3024 3.2536 10.116 5.0227 11.437 7.1903 33.639 13.774 29.14 8.6415-8.8953-10.149-2.9044-11.019 6.3287-0.91945 5.8087 6.3542 13.747 7.1577 21.007 2.1264 2.2005-1.5249 5.349-2.9202 6.9966-3.1006 1.6477-0.18038 4.2143-0.94339 5.7035-1.6956 1.4892-0.75219 5.8576-2.3871 9.7076-3.6331s7.675-2.8214 8.5-3.5009c0.825-0.67949 3.1321-1.484 5.1268-1.7878 1.9947-0.30383 5.4399-1.4284 7.6559-2.4991 2.216-1.0706 6.7826-2.7715 10.148-3.7796 13.616-4.0785 12.659-14.843-1.469-16.533-22.099-2.6424-48.596-9.5325-59.163-15.385-4.671-2.5869-13.931-5.7304-22.299-7.57-12.656-2.7822-16.73-6.1477-8.1869-6.7628 5.512-0.39692 5.0785-1.7379-1.8896-5.8442-15.308-9.01-38.147-40.05-42.276-57.44-0.664-2.8-11.214-13.9-13.206-13.9-0.66152 0-1.7369-0.64362-2.3898-1.4303-1.7397-2.0962 1.7154-3.6431 6.4286-2.8782l3.7677 0.61141-0.5876-3.4015c-7.075-40.949-10.368-83.253-7.157-91.911 0.91602-2.4692 2.0091-6.4316 2.429-8.8052 0.88343-4.9934 3.1483-7.7484 5.5973-6.8086 1.281 0.49214 1.525 1.315 1.004 3.3874-1.579 6.2786-1.786 23.163-0.331 26.977 0.789 2.069 1.514 6.911 1.611 10.761 0.24336 9.6713 2.0476 25.806 3.6902 33 0.75348 3.3 1.6722 8.3049 2.0416 11.122 0.96302 7.3441 1.9964 8.5294 4.5141 5.1776 4.2708-5.6856 6.0194-1.0394 3.9078 10.383-1.1148 6.0305-0.28966 9.7224 2.9763 13.317 0.99941 1.1 3.5234 5.15 5.6089 9s6.7503 11.451 10.366 16.892c3.616 5.4403 7.8528 11.965 9.4153 14.5 5.9529 9.6572 9.7895 12.111 11.853 7.5826 1.9283-4.2322 3.037-3.1345 6.9754 6.9057 1.37 3.4927 3.1234 6.2133 4.3186 6.7012 1.1067 0.45175 6.7372 2.4313 12.512 4.3991 5.775 1.9678 13.24 4.8746 16.588 6.4597 3.3485 1.5851 10.323 3.8637 15.5 5.0636 5.1766 1.1999 11.887 2.9706 14.912 3.9349 27.229 8.6796 26.059 8.6711 29.038 0.21154 1.0362-2.9427 2.2997-5.8677 2.8078-6.5 0.50805-0.63233 1.3831-3.1747 1.9445-5.6497s1.4773-5.85 2.0352-7.5c0.55797-1.65 1.9726-6.15 3.1435-10 1.171-3.85 3.2368-8.6061 4.5908-10.569l2.4618-3.5691-3.1311-6.2659c-6.6941-13.396-5.858-25.22 2.3934-33.846 7.8474-8.2036 19.062 0.60691 17.333 13.617-0.33883 2.5484-0.85323 6.2084-1.1431 8.1334-1.1185 7.4276 13.993 14.598 28.928 13.725 16.701-0.97518 19.154-3.4937 17.968-18.445-1.0982-13.841-0.88172-15.421 2.5309-18.476 16.268-14.564 31.797 25.117 15.701 40.121-2.9478 2.7478-3.3685 6.1936-0.99663 8.1622 0.88229 0.73224 2.0154 2.2498 2.518 3.3724 0.50261 1.1226 2.2506 4.1922 3.8844 6.8213s3.2743 5.9907 3.6457 7.4703c0.37135 1.4796 1.4685 4.0535 2.4382 5.7198 0.96964 1.6664 2.0759 4.7428 2.4583 6.8366 1.0825 5.9268 4.2174 7.4689 9.7444 4.7933 2.3861-1.1551 4.8774-2.1002 5.5362-2.1002 1.3634 0 4.8327-1.8268 7.4276-3.9112 5.6525-4.5404 16.109-9.0196 25.783-11.044 12.464-2.609 14.822-4.7398 14.987-13.544 0.0206-1.1 0.68568-2.8566 1.4781-3.9035 1.6378-2.1639 1.9434-1.706 3.2727 4.9035 0.89405 4.4454 3.9689 5.8616 7.0555 3.2496 0.91714-0.77614 3.6925-2.5771 6.1675-4.0021s5.2175-3.4136 6.0945-4.4192c0.87696-1.0056 4.252-4.1471 7.5-6.9812 23.425-20.439 26.746-25.139 27.234-38.532 0.42745-11.75 1.5423-13.695 5.6418-9.8437 1.1874 1.1156 2.4356 2.0283 2.7736 2.0283 1.1934 0 5.4149-16.173 8.2219-31.5 0.80586-4.4 2.1558-10.209 2.9999-12.909 0.84408-2.6999 1.5796-8.0999 1.6344-12 0.06-3.886 0.42-8.202 0.81-9.577 0.41-1.451-0.02-5.206-1.03-8.952-1.9-7.104-1.25-10.048 2.23-10.048 5.8716 0 9.5938 8.3805 7.7725 17.5-0.54921 2.75-0.99864 11.75-0.99873 20s-0.62118 18.6-1.3802 23c-0.75901 4.4-1.6138 10.076-1.8995 12.614-0.2857 2.5376-1.5064 7.6202-2.7126 11.295-2.2642 6.8973-1.6168 10.726 1.3176 7.7914 1.6481-1.6481 4.8-1.5121 4.8 0.20704 0 0.77387-3.2716 4.7114-7.2702 8.75-4.7251 4.7724-8.3921 9.6184-10.475 13.843-7.5035 15.218-31.206 40.211-44.832 47.274-3.4304 1.778-4.6741 4.7261-1.9939 4.7261 7.4409 0 4.6637 3.8277-3.9963 5.5079-12.642 2.453-19.318 4.651-21.867 7.1998-1.5008 1.5008-10.597 5.3887-24.768 10.586-38.881 14.26-38.278 15.13 24.703 35.678 2.2 0.71774 6.7436 2.5929 10.097 4.167 8.0099 3.7601 9.4254 3.6323 14.194-1.281 5.146-5.3018 7.7235-4.8619 6.7086 1.1452-0.37149 2.1988-0.38129 3.9978-0.0218 3.9978 0.92327 0 4.9227-2.1628 5.5222-2.9863 0.275-0.37777 2.5714-1.8894 5.1031-3.3592s5.414-3.5684 6.405-4.6634c0.99104-1.0951 2.352-1.9911 3.0245-1.9911 0.67242 0 1.8133-0.71177 2.5353-1.5817 1.2143-1.4632 3.6432-2.8996 11.432-6.761 1.65-0.81798 4.2618-2.538 5.804-3.8223l2.804-2.335-1.6508-4c-2.2103-5.3557-8.6194-13.965-14.587-19.594-6.5084-6.1395-6.3559-7.1805 0.96607-6.5941 6.7526 0.54081 11.324 2.6113 13.869 6.2816 0.98713 1.4236 2.8073 3.5286 4.0448 4.6778s2.25 2.4883 2.25 2.9758c0 0.48751 1.1784 2.4314 2.6187 4.3197 2.6887 3.5251 8.3813 4.9881 8.3813 2.154 0-0.70358 0.95627-1.9411 2.125-2.75 6.3006-4.3607 6.7335-5.3915 5.6414-13.432-0.36083-2.6566 2.8403-3.2042 5.3665-0.918 2.3072 2.088 4.3731 1.2346 6.8348-2.8234 0.84273-1.3892 3.5572-5.3406 6.0322-8.781 8.1653-11.35 17.462-26.857 25.19-42.016 2.1028-4.125 4.926-9.3 6.2738-11.5s3.3651-6.025 4.4828-8.5c3.7678-8.3436 5.3511-9.56 8.4325-6.4785 4.9184 4.9184-0.49341 23.229-12.259 41.479-3.0141 4.675-7.5027 11.65-9.9747 15.5s-5.6892 8.8-7.1493 11c-12.572 18.943-15.011 27.227-7.4943 25.463 4.1947-0.98471 12.499-0.29228 12.499 1.0422 0 0.42792-1.2375 1.0753-2.75 1.4387-1.5125 0.36334-4.5843 1.9589-6.8262 3.5457s-5.3919 3.2015-7 3.5883c-3.3679 0.80997-15.378 6.3928-20.207 9.3936-3.1316 1.9457-3.258 2.2599-2.7302 6.7844 0.30442 2.6093 0.71743 6.9942 0.91781 9.7442 0.3984 5.4678 1.3443 8.5 2.6515 8.5 0.46282 0 2.0291 1.1006 3.4806 2.4459 1.4515 1.3452 3.1307 2.6097 3.7314 2.81 2.5467 0.8489-0.29203 3.7442-3.671 3.7442-6.1088 0-7.9632 1.3244-9.9898 7.1343-3.499 10.031-8.5072 20.745-12.062 25.802-1.9497 2.7738-3.5448 5.328-3.5448 5.6761 0 3.2486-20.225 20.653-25.554 21.991-2.9899 0.75042-4.2368 3.006-2.5785 4.6642 2.7149 2.7149 1.007 3.4345-9.6172 4.0526-17.452 1.0153-27.676 4.028-20.255 5.9686 1.0972 0.28693 2.3022 1.3519 2.6778 2.3666 0.37555 1.0147 4.7935 6.188 9.8177 11.496 9.3656 9.8949 30.527 36.573 33.098 41.725 1.2682 2.5422 2.0819 2.9321 6.9648 3.337 4.0771 0.33811 5.9015 0.9906 6.9482 2.485 0.78069 1.1146 2.8082 2.6018 4.5055 3.3048 4.3481 1.801 3.4852 4.1602-2.0111 5.4985-5.429 1.3218-5.4059 0.13478-0.31191 15.999 4.8448 15.088 7.2418 25.962 8.0459 36.5 0.55407 7.2609 0.72688 7.6699 5.4215 12.831 6.2263 6.8444 6.6181 10.653 0.78574 7.6366-4.7769-2.4702-5.3875-1.4315-7.3586 12.519-1.0046 7.1103-2.9117 15.985-4.2381 19.721-1.3264 3.7361-3.0001 8.8179-3.7194 11.293-0.71933 2.475-2.9108 7.65-4.87 11.5s-3.8524 7.9-4.2072 9c-1.5936 4.9408-14.401 9.9202-15.843 6.16-0.60885-1.5866 1.5755-7.9096 6.2735-18.16 2.6489-5.7795 6.5899-18.569 8.9363-29 0.61859-2.75 1.2295-8.6 1.3576-13l0.23285-8-3.7973-0.31319c-4.3326-0.35733-4.3325 0.121-0.004-11.521 3.8291-10.299 2.7521-17.545-5.0385-33.898-3.8094-7.9962-5.9442-10.415-6.8344-7.7445-0.18765 0.56296-2.0076 1.294-4.0443 1.6245l-3.7031 0.60094 2.446-7.8745c3.2564-10.484 3.6062-9.3418-6.024-19.662-4.675-5.01-8.5-9.6525-8.5-10.317 0-0.6641-4.8705-5.8623-10.823-11.552-5.9528-5.6892-11.125-11.16-11.493-12.157-1.2361-3.3474-2.6834-0.62028-2.7186 5.1224-0.16065 26.206-22.5 66.658-48.465 87.758-30.853 25.073-91.171 34.498-132.45 20.697-15.604-5.2167-34.906-16.063-41.336-23.228-1.216-1.355-5.415-5.63-9.331-9.5-11.215-11.083-20.719-26.059-22.316-35.164-0.46995-2.6797-1.8607-7.5721-3.0905-10.872-1.8124-4.8632-2.3316-8.7947-2.7404-20.75-0.27744-8.1125-0.81229-14.75-1.1885-14.75-1.2444 0-9.2091 9.4338-11.129 13.182-1.0375 2.0252-2.2914 3.9326-2.7866 4.2386-3.1579 1.9517-13.316 21.784-12.722 24.838 2.4473 12.585 0.61437 17.281-3.9978 10.241-4.2576-6.4979-6.6631-2.4952-10.517 17.5-5.1915 26.936-5.8771 40.683-2.4014 48.151l2.4898 5.3493-2.4898 1.8334c-2.9507 2.1728-3.3532 8.5262-0.96094 15.167 0.79258 2.2 1.4478 4.9426 1.4561 6.0948 0.0083 1.1521 0.87194 4.5271 1.9192 7.5s3.2882 9.3874 4.9798 14.255c1.6916 4.8671 4.0102 10.362 5.1525 12.21 2.2897 3.7048 1.6331 6.477-1.9937 8.418-3.1824 1.7032-4.2288 1.232-9.1926-4.1391zm-14.457-82.09c0.23692-1.2375 0.95233-9.45 1.5898-18.25 0.63748-8.8 1.4106-18.025 1.7179-20.5 0.80592-6.4893-1.4267-3.9511-3.1708 3.6048-1.86 8.06-3.18 37.4-1.683 37.4 0.61326 0 1.3089-1.0125 1.5458-2.25zm385.61-10.22c0-6.4944-4.6052-30.363-6.9517-36.03-0.45543-1.1-1.3717-4.025-2.0361-6.5-0.66442-2.475-3.3463-8.325-5.9597-13s-4.9318-9.0218-5.1521-9.6595c-0.22023-0.63771-5.165-6.7127-10.988-13.5-5.8234-6.7873-11.211-13.34-11.972-14.561-0.76138-1.2214-2.6546-2.7469-4.2071-3.39-1.6202-0.6711-3.3954-2.5397-4.1668-4.386-1.47-3.51-6.33-8.5-8.28-8.5-1.9743 0-0.30264 3.0145 4.484 8.086 2.4189 2.5629 5.1465 5.7902 6.0612 7.1717 0.91474 1.3815 3.6882 5.0958 6.1632 8.254s6.075 7.8702 8 10.471 6.0008 8.0562 9.0574 12.123c7.385 9.8259 10.261 15.554 9.5617 19.049-0.48677 2.4339 2.2576 10.155 6.3906 17.981 1.8181 3.4423 5.7531 16.578 6.3501 21.198 0.77925 6.0298 3.6401 10.115 3.6401 5.1973zm-238.74-25.61c-0.65079-4.852-2.6796-6.8811-4.1441-4.1448-1.0109 1.8889 0.53452 10.234 2.4774 13.377 1.1837 1.9152 2.3186-4.372 1.6667-9.2327zm24.6-14.011c-0.97064-18.755-0.28881-44.294 1.1587-43.399 1.4274 0.88217 2.9158 13.56 3.9902 33.987 0.57858 11 1.3239 22.025 1.6563 24.5l0.60434 4.5 1.203-5.1714c0.782-3.3615 1.0862-11.586 0.86926-23.5-0.18357-10.081-0.0551-19.659 0.28555-21.284l0.61931-2.9558 2.4957 2.9014c2.574 2.9925 3.7879 2.5877 5.6428-1.8817 1.8242-4.3954 3.5398 15.353 3.6393 41.892 0.0655 17.472 1.7761 6.0716 2.4008-16 0.65811-23.253 0.97754-27.531 2.7438-36.75 2.6318-13.737 3.831-1.9413 3.073 30.226-0.29572 12.55-0.232 23.615 0.14161 24.588 1.9331 5.0376 2.7091-2.7898 3.571-36.022 0.51221-19.748 1.3529-36.253 1.8731-36.773 2.3625-2.3625 2.7944 2.8855 4.088 49.68 0.0515 1.8645 0.43135 2.6002 1.0322 1.9994 0.96976-0.96976 1.8859-23.61 2.0819-51.449 0.06-8.525 0.35104-16.512 0.64673-17.75 0.94503-3.9552 2.3208-2.4134 2.3208 2.6008 0 9.7389 2.3385 12.795 7 9.1492 2.9221-2.2857 4-2.4853 4-0.74055 0 0.6927 0.8866 1.8132 1.9702 2.4899 3.4118 2.1307 4.3491-1.2943 4.1357-15.113l-0.1-6.87-4.3848 0.65754c-9.089 1.363-13.546-2.9982-12.703-12.43 0.51042-5.7119 9.8857-7.0693 12.966-1.8773 1.1019 1.8575 2.3676 3.8292 2.8127 4.3814 6.7192 8.3365 8.3388 34.163 6.0356 96.246-0.71551 19.288 1.2884 18.232 3.3229-1.75 3.057-30.024 3.9315-41.624 3.9956-53 0.0387-6.875 0.40212-14.3 0.80752-16.5 2.2184-12.038 3.7933 17.847 2.6612 50.5-0.46178 13.32 0.23786 23.683 1.5072 22.325 1.3895-1.4865 4.105-20.821 4.4153-31.436 0.93265-31.91 2.2473-42.612 4.9066-39.942 0.84466 0.84814 1.0778 10.874 0.86307 37.107-0.27459 33.539 0.28619 41.647 2.2614 32.695 1.7037-7.721 4.2985-36.13 4.7876-52.417 0.25688-8.5539 0.95758-10.523 3.0119-8.4637 0.92606 0.92824 1.1881 7.954 1.0516 28.2-0.0999 14.83 0.19205 26.733 0.64884 26.451 1.5185-0.93849 3.8858-14.839 4.983-29.26 0.99-13.15 2.29-19.26 4.08-19.26 1.4462 0 1.9633 6.6041 1.3315 17.007-0.72622 11.957 0.11339 19.673 1.8107 16.64 2.1163-3.7817 2.9724-8.6827 4.2965-24.596l1.3686-16.449-2.4217-2.878c-7.0449-8.3724-1.8566-16.44 7.9403-12.346 2.2871 0.95563 3.7372 2.3217 4.0403 3.8065 0.26007 1.2738 0.73466 3.5534 1.0546 5.0659 0.94784 4.4802 2.5437 3.1358 2.5437-2.143 0-3.4268-0.44947-5.0655-1.5-5.4686-0.86121-0.33047-1.5-1.8238-1.5-3.5065 0-1.7096-1.5021-5.1605-3.6046-8.2814-1.9826-2.9428-4.1201-6.8816-4.75-8.7529-1.6211-4.8156-4.2308-6.2202-6.4374-3.4646-5.1281 6.4039-9.208 4.718-9.208-3.805 0-4.2436 0.27821-4.8596 2.4398-5.4022 5.6883-1.4277-10.491-22.079-16.672-21.281-3.175 0.41027-4.7678-0.8438-4.7678-3.7539 0-3.5586-2.4109-7.74-6.2141-10.777-1.8073-1.4434-3.9666-3.2632-4.7986-4.0441-11.717-10.997-42.041-20.593-67.156-21.252l-15.668-0.41133-6.72 3.047c-3.7 1.68-7.12 3.05-7.59 3.05-0.47739 0-5.6239 2.7-11.437 6-5.8127 3.3-10.93 6-11.371 6-1.7027 0-3.2475 3.0993-3.2475 6.5154 0 4.7325-2.9772 6.7997-8.5169 5.9138-8.1457-1.3026-31.35 21.792-40.763 40.571-1.5164 3.025-3.2662 6.1284-3.8884 6.8965-1.1569 1.4279-2.6361 6.5843-5.1934 18.104-3.662 16.495-2.7563 51.454 1.5933 61.5 0.95257 2.2 2.3073 5.575 3.0106 7.5 4.2841 11.727 3.231-0.66824-1.4444-17-1.9246-6.7228-3.4724-39-1.8702-39 1.5865 0 2.2441 3.6888 2.2591 12.674 0.0135 8.1002 0.32885 10.228 4.1504 28.002 2.196 10.213 5.4921 18.096 6.9553 16.632 0.57365-0.57365 0.21305-3.0151-0.94069-6.3691-3.32-9.63-5.89-44.93-3.27-44.93 0.48813 0 1.4056 4.6125 2.0387 10.25 2.3871 21.254 3.2832 27.364 4.5832 31.25 0.7359 2.2 1.6263 5.4314 1.9786 7.1809s1.2866 3.7171 2.0763 4.3724c2.0671 1.7156 1.9204-6.1367-0.22529-12.053-1.8152-5.0054-2.9258-39.987-1.2152-38.276 0.495 0.495 1.5518 7.6222 2.3484 15.838 0.79663 8.216 1.7281 16.513 2.07 18.438 1.5591 8.7788 4.7212 20.702 6.0242 22.715 0.78848 1.2182 1.4436 2.7932 1.4558 3.5 0.0326 1.8842 3.7204 6.3758 4.5521 5.5442 0.39111-0.39111-0.22169-3.3094-1.3618-6.485-1.9543-5.4437-2.5968-8.4331-5.2168-24.274-2.1471-12.982-2.4831-31.607-0.62142-34.449 4.4757-6.8308 9.7708-1.7736 10.738 10.256 0.82493 10.256 2.3272 21.535 3.8883 29.193 5.1016 25.025 11.657 40.241 7.97 18.5-4.8404-28.544-5.9814-52.844-2.3089-49.171 0.36414 0.36414 0.98074 4.3766 1.3702 8.9167 1.3419 15.643 8.208 48.755 10.11 48.755 1.1176 0 1.0917-2.2548-0.0607-5.2858-1.2776-3.3604-4.3492-44.515-3.5565-47.653l0.64709-2.5614 1.2977 2.5c1.6759 3.2285 2.3284 7.6031 3.505 23.5 0.91511 12.363 3.7242 24.432 6.2845 27 1.0511 1.0541 0.97661-0.35007-1.7398-32.811-2.6685-31.888-0.19675-41.68 9.2963-36.828 0.92634 0.4735 3.3515 1.1169 5.3892 1.4298 3.9339 0.60409 3.8268 0.71833 5.2315-5.5816 1.7157-7.6951 3.1601 2.1102 4.0202 27.291 1.333 39.027 6.2509 72.507 5.9491 40.5-0.0519-5.5-0.1661-17.799-0.25387-27.332-0.28973-31.468 3.8202-23.214 4.8957 9.8319 0.2633 8.0903 2.0422 29.443 2.6611 31.942 1.539 6.2156 2.0517-2.6832 1.1539-20.03zm10.696-50.848c-3.6-3.97-0.81-17.06 3.63-17.06 3.4854 0 8.3425 13.331 6.1392 16.85-1.5871 2.5349-7.5533 2.6658-9.7718 0.21433zm-41.023-13.207c-0.40633-3.103-0.42272-6.6377-0.0364-7.8548 0.54222-1.7084-0.09-3.044-2.7729-5.8581-5.3202-5.5803-4.4846-15.305 1.6652-19.38 3.4398-2.2793 8.387 3.3763 9.7531 11.15l1.1274 6.4149-3.1449 2.5851c-2.7492 2.2598-3.1494 3.2144-3.181 7.5852-0.0198 2.75-0.62911 6.35-1.3539 8l-1.3178 3-0.73879-5.6419zm-49.224-13.489c-1.5804-4.1185 9.0649-16.943 11.406-13.741 2.4906 3.4061 1.5444 7.2763-2.7993 11.45-4.3067 4.1379-7.5653 5.0053-8.6069 2.291zm87.93-15.02c-1.6973-0.68487-1.619-9.4508 0.10539-11.809 2.7837-3.807 6.6446 0.80049 6.6446 7.9295 0 3.9891-2.6722 5.525-6.75 3.8796zm-79.5-15.42c-5.44-3.17 2.61-14.92 10.22-14.92 3.421 0 0.65266 8.4334-3.2562 9.9195-1.5112 0.57454-3.1784 2.1777-3.7049 3.5626-1.0884 2.8626-0.93037 2.7929-3.2568 1.4378zm38.921-6.7304c-4.2557-4.7025-3.2723-12.623 1.832-14.755 4.698-1.963 5.3938-1.8344 6.5515 1.2106 2.5809 6.7883-4.3557 17.995-8.3835 13.545zm72.28-8.2379c-3.5659-3.5659-2.4576-13.369 1.5485-13.697 5.3741-0.43907 11.001 8.1556 8.6776 13.255-1.4764 3.2404-7.1811 3.487-10.226 0.44201zm-34.713-1.1132c-1.638-1.638-1.5859-7.305 0.0798-8.6874 2.4695-2.0495 5.8404 1.449 5.4866 5.6941-0.32836 3.9388-3.1198 5.4399-5.5664 2.9933zm-30.84-19.61c-5.1315-3.4264-4.0428-11.368 1.7496-12.763 2.5188-0.60644 2.7046-0.38011 3.7712 4.5931 1.4279 6.6582-1.4365 10.897-5.5208 8.17zm31.1-9.23c-0.7292-1.1799 0.21667-3 1.559-3 0.51754 0 0.94098 0.9 0.94098 2 0 2.1091-1.4549 2.691-2.5 1zm25.569-1.6398c-2.1953-2.7908-2.4457-6.4152-0.48778-7.0588 2.226-0.7317 6.543 3.8153 6.2244 6.5561-0.41734 3.5898-3.1218 3.8268-5.7366 0.50268zm29.379 163.99c0.62592-7.5872-0.20915-11.16-1.9501-8.3429-1.555 2.516-1.7476 19.561-0.20338 17.997 0.92099-0.93293 1.7351-4.5825 2.1535-9.6537zm-77.912-0.004c-0.35-1.85-1.06-3.35-1.59-3.35-1.3722 0-1.1765 6.4138 0.29531 9.679l1.25 2.7731 0.33166-2.884c0.18242-1.5862 0.0495-4.3879-0.29531-6.2261zm67.868-2.1961c0.65401-5.7809 0.12728-9.1462-1.4315-9.1462-1.0805 0-1.715 4.0698-1.8709 12-0.16401 8.3433 2.2739 6.2363 3.3024-2.854zm-9.5082-0.0499c0.87549-5.5383-0.23989-8.1253-1.274-2.9548-0.76468 3.8234-0.81707 9.3874-0.0815 8.6518 0.29716-0.29716 0.90711-2.8608 1.3554-5.697zm-23.99-13.85c0.0661-4.7175-0.25396-6.25-1.3054-6.25-2.6303 0-2.9665 7.3274-0.87198 19 0.80958 4.5116 2.0361-2.6704 2.1774-12.75zm-83.236-7.6518c-0.60031-1.5644-2.533-15.181-2.9237-20.598-0.21687-3.0074-0.6426-3.5448-3.0252-3.8186-2.7284-0.31353-2.7632-0.24954-2.1748 4 2.01 14.5 4.36 21.82 7.01 21.82 1.0113 0 1.4482-0.54676 1.1201-1.4018zm37.63-3.1201c-0.10648-2.188-0.50019-8.1651-0.87492-13.282l-0.68133-9.3044-2.6251 0.30437c-2.949 0.34193-3.2403 6.0887-0.97751 19.29 1.5478 9.0304 5.5661 11.361 5.1588 2.9922zm9.916-6.7281c0.47462-12.036 0.14828-13.32-3.1217-12.282-4.1806 1.3269-2.4392 23.532 1.8454 23.532 0.45797 0 1.0323-5.0625 1.2763-11.25zm69.586 6.5c0.57834-1.5125 1.3482-7.8491 1.7109-14.081l0.65936-11.331-2.3261 0.33128c-3.0842 0.43926-3.9135 5.216-3.1392 18.081 0.60854 10.111 1.304 11.684 3.0951 7zm11.695-10.628c0.59562-10.416-0.33613-13.836-3.1363-11.512-1.7766 1.4744-1.8638 16.439-0.11732 20.14 1.9102 4.0483 2.6392 2.1149 3.2536-8.6287zm-210.6-3.6699c5.6395-10.82 26.166-32.295 34.495-36.09 2.6708-1.2169 3.8929-6.862 1.4854-6.862-1.6689 0-18.253 13.49-21.187 17.234-1.4074 1.796-3.7162 4.573-5.1305 6.1711-1.4144 1.598-2.5716 3.4554-2.5716 4.1276 0 0.67211-0.74949 1.8396-1.6655 2.5945-0.91604 0.75484-3.2785 3.7956-5.25 6.7573-1.9714 2.9617-3.9936 5.938-4.4936 6.6141-1.0837 1.4652 0.003 4.8702 1.2985 4.0694 0.49692-0.30711 1.8553-2.3845 3.0187-4.6165zm275.64-7.4096c0.36766-2.4518 0.41454-7.9642 0.10418-12.25-0.31037-4.2858-0.58361-8.8361-0.60721-10.112-0.0337-1.8241-0.5235-2.2513-2.2929-2-3.4735 0.49331-2.7778 28.82 0.70778 28.82 0.91394 0 1.6578-1.588 2.0882-4.4577zm-265.89-57.45c2.8303-0.36901 5.7553-1.1733 6.5-1.7873 0.74469-0.61399 4.0107-1.6054 7.2579-2.2032 8.66-1.6 28.59-16.06 28.59-20.76 0-1.8443-2.4682-1.6872-4.0842 0.25998-1.236 1.4893-11.425 8.3985-12.385 8.3985-0.23674 0-2.452 1.3644-4.9229 3.0319-2.4708 1.6676-5.9809 3.5395-7.8001 4.1598-1.8192 0.62034-4.5797 2.181-6.1344 3.4681-3.5493 2.9384-4.2285 2.9231-7.0857-0.1598-1.6649-1.7964-3.3554-2.5-6.0071-2.5-4.2846 0-15.816-4.6675-22.236-9.0003-2.445-1.65-4.739-3-5.098-3-0.35874 0-2.0789-1.3828-3.8226-3.0728-1.7437-1.6901-5.3651-4.5026-8.0476-6.25-4.298-2.8-5.528-4.48-10.368-14.18-3.911-7.84-5.583-10.36-5.814-8.79-0.626 4.28 5.935 24.29 7.965 24.29 0.43401 0 1.4593 1.2961 2.2785 2.8802 0.81918 1.5841 4.5354 5.2739 8.2582 8.1996 3.7228 2.9256 7.7422 6.4762 8.9319 7.8901 1.7805 2.116 12.108 7.9588 18.372 10.394 0.825 0.3207 3.525 0.31596 6-0.0105 2.475-0.3265 6.8157-0.89555 9.646-1.2646zm306.35-7.71c15.308-1.85 42.993-27.043 42.999-39.129 0.00037-0.6875 0.41578-1.25 0.92313-1.25 1.1276 0 3.5148-6.8961 2.6772-7.7337-0.32981-0.32981-0.59966-0.006-0.59966 0.71914 0 7.1696-26.919 32.832-37.5 35.75-2.2 0.6067-7.15 2.2273-11 3.6013-6.0073 2.1439-7.7664 2.3732-12.404 1.6166-6.465-1.0548-7.2652-0.71019-5.7594 2.4805 1.6351 3.4648 6.3638 5.6102 11.163 5.0646 2.2-0.25008 6.475-0.75379 9.5-1.1194zm-28-2.5872c0-1.57-7.05-8.79-8.58-8.79-0.64604 0-1.7621-0.70789-2.4802-1.5731-0.71805-0.8652-3.1356-2.4897-5.3724-3.61s-5.255-3.1493-6.7072-4.5089c-1.8738-1.7544-2.8546-2.1253-3.3784-1.2778-0.77121 1.2478 5.1117 7.0647 11.519 11.389 1.925 1.2994 5.0508 3.9865 6.9462 5.9715 3.3641 3.5231 8.0538 4.9213 8.0538 2.4012zm-279-4.334c0-0.18035-0.43738-1.4783-0.97195-2.8843-2.3207-6.104 1.1984-7.1709 6.8403-2.0738 5.3604 4.8428 7.0202 4.5137 20.132-3.9922 17.267-11.202 17.197-11.159 21.599-13.352 2.2546-1.1234 6.2642-3.6951 8.9101-5.7148s5.9762-4.1842 7.4007-4.8101c1.4245-0.62591 3.7149-1.8573 5.0899-2.7364 8.6674-5.5414 18.629-10.811 22.471-11.886 4.8641-1.3618 6.34-3.6235 4.5489-6.9702-1.53-2.86-4.04-2.56-12.02 1.46-3.8225 1.925-7.5823 3.5-8.3551 3.5-0.77276 0-4.9465 1.7461-9.275 3.8803s-9.4449 4.4568-11.37 5.1614c-1.925 0.70462-6.7613 2.7783-10.747 4.6082-11.115 5.1026-18.713 7.408-22.15 6.7208-4.4243-0.88486-7.0161 0.0769-12.523 4.6468-7.9074 6.5624-14.063 4.3989-7.1514-2.5133 3.7656-3.7657 4.3798-5.334 2.3208-5.9269-14.754-4.2485-42.551-15.618-48.197-19.714-4.1579-3.0163-7.4621-3.7098-7.6873-1.6133-0.3787 3.5249 0.44818 10.708 1.6404 14.25 2.7397 8.1397 12.567 27.59 14.254 28.212 0.95676 0.35292 1.9646 0.94827 2.2396 1.323 3.6368 4.9556 33 14.23 33 10.423zm313.5-10.947c5.459-2.4976 8.8712-5.0924 15.5-11.787 14.653-14.798 14.3-14.314 13.51-18.515-2.2729-12.099-1.2251-15.217 3.9693-11.814 2.7798 1.8214 4.4881-0.21995 5.9796-7.1455 1.2612-5.8565-5.7074-4.6764-13.459 2.2793-1.375 1.2338-4.075 3.0239-6 3.978-1.925 0.95411-4.2137 2.3584-5.0859 3.1206-0.87225 0.76224-5.6683 3.3728-10.658 5.8013-8.7227 4.2454-11.417 6.8852-9.7606 9.5646 2.8371 4.5905-22.846 2.5919-27.101-2.1089-1.0105-1.1166-3.0424-1.884-4.988-1.884-5.7661 0-16.812-3.0566-19.235-5.3229-2.653-2.4807-37.997-14.769-38.79-13.486-0.28084 0.45442 0.34542 1.1599 1.3917 1.5678 5.0256 1.9591 44.119 28.711 45.099 30.861 0.59765 1.3117 2.5583 3.2683 4.357 4.348s4.6204 3.1314 6.2704 4.5593c8.8704 7.6764 17.5 11.932 17.5 8.6304 0-0.46339 1.5285-1.6657 3.3967-2.6718s4.1273-3.3614 5.0203-5.234 2.177-3.2226 2.8533-2.9999c2.1142 0.69612 1.9506 4.5304-0.32452 7.6076-4.425 5.9852-1.4982 6.1659 10.554 0.65167zm-282.28-33.45c2.3522-1.0688 9.9018-4.0156 16.777-6.5485 6.875-2.5329 15.2-5.8686 18.5-7.4128s7.0589-3.1424 8.3531-3.5516c1.2942-0.40924 3.9445-1.824 5.8896-3.144 1.945-1.3199 4.0361-2.4021 4.6469-2.4048 2.346-0.0105 7.3316-4.9193 5.0367-4.9591-5.0235-0.0871-32.964 10.117-51.426 18.782-3.025 1.4197-6.625 3.0621-8 3.6498-4.7076 2.0121-9.9973 5.7274-9.4395 6.6299 0.9152 1.4808 5.1062 1.0292 9.6628-1.0412zm261.41-1.1383c1.85-1.15 3.37-2.49 3.37-2.98 0-0.49466 1.146-1.187 2.5466-1.5385 1.4006-0.35154 2.3343-0.85142 2.0749-1.1109-0.25944-0.25943-2.1016 0.11769-4.0938 0.83806-4.6905 1.6961-10.41-0.21279-20.094-6.707-12.52-8.4-27.18-14.42-35.1-14.42-2.9923 0-4.9421-0.61647-6.3257-2-3.7284-3.7284-5.2537-2.4902-1.75 1.4205 1.2375 1.3813 3.825 4.3059 5.75 6.4992 2.1922 2.4978 5.5551 4.8024 9 6.1678 3.025 1.199 7.75 3.2022 10.5 4.4515s9.275 3.6782 14.5 5.3974c5.225 1.7193 10.625 3.771 12 4.5593 3.296 1.8898 3.6881 1.8601 7.632-0.57732zm-293.08-2.8415c-0.31377-0.50769-2.0278-1.2302-3.809-1.6055-1.78-0.37-4.59-1.26-6.24-1.96-17.193-7.34-27.548-11.45-30.239-12-1.781-0.36-3.495-1.08-3.81-1.59-0.886-1.43-12.425-6.92-14.554-6.92-3.5466 0-1.9137 1.6417 4.3526 4.3759 9.3869 4.0959 14.97 6.8308 17.75 8.6951 1.375 0.92206 5.875 2.7231 10 4.0022 4.125 1.2792 8.2774 2.9715 9.2275 3.7608 2.8606 2.3764 18.607 5.3246 17.32 3.2428zm313.74-7.2075c2.3156-1.1718 5.3352-2.9196 6.7102-3.8839 1.375-0.96431 5.65-3.4338 9.5-5.4878s7.9-4.5015 9-5.4389c1.1-0.93742 4.3686-3.185 7.2635-4.9945 2.8949-1.8096 5.5949-3.8082 6-4.4416 1.2597-1.9694 11.272-9.894 15.078-11.934 5.3868-2.8872 7.5272-6.689 3.7659-6.689-0.70102 0-7.1807 4.6125-14.399 10.25-12.048 9.4087-21.12 15.75-22.534 15.75-1.132 0-13.262 7.4067-16.652 10.167-1.9128 1.558-3.9896 2.8328-4.6152 2.8328-1.8014 0-6.4861 4.063-5.8575 5.0801 0.84485 1.367 2.088 1.1437 6.7404-1.2106zm-113.38-17.66c1.1182-4.3009 1.5561-11.112 1.2832-19.958-0.31273-10.138-1.9429-7.1358-2.0196 3.7197-0.0387 5.4834-0.54357 10.854-1.1218 11.934-1.3324 2.4895-1.3956 9.4268-0.0786 8.6128 0.53505-0.33068 1.4066-2.2697 1.9368-4.309zm-51.56 0.79c0.73577-3.6788 2.2112-3.8844 3.0785-0.42896 0.75392 3.0038 2.928 2.7478 3.3911-0.39937 0.38317-2.604 0.94732-2.6926 3.3425-0.52505 1.7048 1.5428 1.9507 1.4798 3.9013-1 2.6922-3.4226 3.6261-3.3373 4.4483 0.40635 0.98816 4.499 2.6874 3.1108 5.0566-4.1308 3.0815-9.4189 3.4454-10.053 5.4152-9.4274 2.1164 0.67172 3.1545-4.9154 2.4033-12.935-1.519-16.218-2.8217-25.356-4.0248-28.236-0.75-1.79-1.36-4.87-1.36-6.84 0-2.7197-0.81771-4.4236-3.3977-7.0802-2.0296-2.0898-3.67-4.9892-4.074-7.2004-1.4935-8.1756-6.5357-11.809-10.19-7.3435l-2.1614 2.6416-2.4031-2.25c-3.94-3.69-7.78-1.2-7.78 5.04 0 3.87-1.68 6.71-3.96 6.71-3.352 0-5.0355 2.7757-5.0471 8.3214-0.006 2.8482-0.71492 7.4286-1.5755 10.179-1.7306 5.5302-5.0232 19.98-6.4944 28.5-1.437 8.3226-0.20461 19.988 2.6027 24.636l2.3342 3.8644 1.0471-2.75c1.3042-3.4251 2.8626-3.5308 3.686-0.25 0.3451 1.375 1.2049 2.5 1.9106 2.5 0.70575 0 1.5655-1.125 1.9106-2.5 0.8353-3.3281 2.0753-3.1554 3.5894 0.5 0.68345 1.65 1.8068 3 2.4963 3 0.68952 0 1.5237-1.35 1.8537-3zm-36.67-5.75c-0.55992-9.3856 1.5883-31.23 3.614-36.75 0.80738-2.2 2.0513-5.575 2.7642-7.5 0.71295-1.925 2.5666-4.693 4.1192-6.1512s2.823-3.3886 2.823-4.2898c0-0.90124 0.9-3.4028 2-5.559s2-4.8597 2-6.0079 1.16-3.1627 2.5778-4.4766c5.4962-5.0937-3.1586-12.872-8.7638-7.8758-3.3873 3.019-4.9477 7.5421-3.0744 8.9119 1.7301 1.2651-1.5572 13.924-4.1416 15.948-1.4889 1.1664-1.7782 2.2825-5.5722 21.5-3.442 17.435-4.4571 29.068-2.962 33.948 0.59848 1.9536 1.2648 4.1145 1.4808 4.802 1.5581 4.9602 3.5699 0.78909 3.1351-6.5zm95.32 4.33c0-1.33 0.29123-3.2425 0.64718-4.25 0.43588-1.2337 0.3158-1.5053-0.36776-0.83179-1.4282 1.4071-2.4472 7.5-1.2544 7.5 0.53625 0 0.975-1.0882 0.975-2.4182zm-2.8316-33.383c-0.56764-1.4846-1.774-5.7974-2.6808-9.5841-1.5594-6.5122-3.3908-11.602-5.7989-16.115-5.979-11.207-6.8407-14.756-3.9722-16.361 4.0454-2.2639-3.1892-8.2158-12.964-10.666-5.3203-1.3334-6.056-0.0214-2.8354 5.0569 1.6024 2.5267 3.4465 6.8161 4.098 9.532 1.3189 5.4979 1.8933 5.916 3.8415 2.7965 1.5554-2.4906 4.1313 1.9318 5.5595 9.5446 0.89602 4.7762 6.2175 14.455 9.3028 16.92 1.2548 1.0024 2.2814 2.8884 2.2814 4.191s0.45 2.6465 1 2.9864c0.55 0.33992 1 1.6415 1 2.8924s0.32812 2.6024 0.72917 3.0035c1.2482 1.2482 1.5218-1.3656 0.43928-4.1966zm-119.17-0.48c0-0.77029-6.0529-3.1857-15.25-6.0855-8.3875-2.6445-22.74-7.2448-31.895-10.223-15.101-4.9124-26.967-7.0993-24.305-4.4795 1.1326 1.1148 14.571 8.552 19.24 10.648 12.41 5.58 52.21 13.3 52.21 10.14zm160.97-9.8798c13.484-4.1905 29.7-13.315 28.759-16.182-1.1604-3.5324-22.46 1.0146-29.935 6.3905-1.4902 1.0717-3.3017 1.9485-4.0255 1.9485-0.72377 0-4.0045 1.3359-7.2905 2.9686s-6.7355 2.9827-7.6655 3c-0.93004 0.0173-1.9691 0.48138-2.309 1.0314-0.33992 0.55-1.7165 1-3.059 1-2.2696 0-3.1319 0.97571-1.9271 2.1805 1.2589 1.2589 21.399-0.45592 27.453-2.3375zm51.818-26.557c6.3052-3.9804 12.819-9.4058 21.916-18.255 3.4104-3.3174 6.5804-6.0316 7.0445-6.0316 0.46407 0 2.6216-2.3625 4.7946-5.25s4.5355-5.8647 5.2501-6.6161c1.3811-1.4521 1.1563-3.6368-0.37336-3.6296-0.50417 0.002-6.3167 5.624-12.917 12.493-6.6 6.8685-15.091 14.928-18.869 17.91-6.87 5.42-11.64 9.79-11.64 10.65 0 0.95881 2.1806 0.38493 4.7852-1.2593zm-315.82-5.356c-0.6419-1.1994-2.6629-4.1403-4.4911-6.5354s-3.6358-5.3762-4.0169-6.6247-2.8036-5.42-5.3834-9.27-5.2673-8.43-5.9722-10.178c-1.4-3.44-5.107-7.4-5.107-5.44 0 1.9448 6.2506 16.453 8.1933 19.017 0.99369 1.3117 1.8067 2.9377 1.8067 3.6133 0 1.7192 9.5774 14.547 12.82 17.17 2.9679 2.4015 3.9373 1.615 2.1427-1.7384zm144.03-18.01c0-1.1508-0.9-3.2364-2-4.6349-2.9385-3.7357-2.1088-16.694 0.94795-14.805 2.855 1.7645 4.1047-8.6472 1.3971-11.639-8.4017-9.2838-14.946 17.432-7.3355 29.947 2.3669 3.892 6.9904 4.641 6.9904 1.1324zm64.962-9.3795c0.0206-0.53448 0.99132-3.9938 2.157-7.6874l2.1195-6.7156-2.2087-4.5626c-3.5836-7.4028-8.9088-5.5127-7.5186 2.6686 1.0868 6.3955 0.82813 18.829-0.41762 20.075-0.60177 0.60177-1.0874 2.0166-1.0792 3.1441 0.0155 2.1336 6.8612-4.6867 6.9476-6.9218z"
       id="path4146" />
  </g>
</svg>
