<?xml version="1.0" encoding="UTF-8" standalone="no"?>
<!-- Created with Inkscape (http://www.inkscape.org/) -->

<svg
   width="28.208651mm"
   height="28.208651mm"
   viewBox="0 0 28.208649 28.20865"
   version="1.1"
   id="svg2269"
   inkscape:version="1.1.2 (0a00cf5339, 2022-02-04)"
   sodipodi:docname="item404.svg"
   xmlns:inkscape="http://www.inkscape.org/namespaces/inkscape"
   xmlns:sodipodi="http://sodipodi.sourceforge.net/DTD/sodipodi-0.dtd"
   xmlns="http://www.w3.org/2000/svg"
   xmlns:svg="http://www.w3.org/2000/svg">
  <sodipodi:namedview
     id="namedview2271"
     pagecolor="#ffffff"
     bordercolor="#666666"
     borderopacity="1.0"
     inkscape:pageshadow="2"
     inkscape:pageopacity="0.0"
     inkscape:pagecheckerboard="0"
     inkscape:document-units="mm"
     showgrid="false"
     fit-margin-top="0"
     fit-margin-left="0"
     fit-margin-right="0"
     fit-margin-bottom="0"
     inkscape:zoom="0.48996914"
     inkscape:cx="-233.68819"
     inkscape:cy="-36.737008"
     inkscape:window-width="1366"
     inkscape:window-height="719"
     inkscape:window-x="0"
     inkscape:window-y="25"
     inkscape:window-maximized="1"
     inkscape:current-layer="layer1" />
  <defs
     id="defs2266" />
  <g
     inkscape:label="Capa 1"
     inkscape:groupmode="layer"
     id="layer1"
     transform="translate(-162.64788,-159.55547)">
    <g
       id="g7056"
       transform="matrix(0.04642234,0,0,0.04642234,17.393787,-73.509074)">
      <g
         id="g5983"
         transform="matrix(0.71206486,0,0,0.71206486,760.56182,4963.4205)">
        <path
           sodipodi:type="star"
           style="opacity:1;fill:#0066ff;fill-opacity:1;stroke:none;stroke-width:4;stroke-miterlimit:4;stroke-dasharray:none;stroke-opacity:1"
           id="path5985"
           sodipodi:sides="8"
           sodipodi:cx="3604.2244"
           sodipodi:cy="506.87982"
           sodipodi:r1="459.49396"
           sodipodi:r2="397.93344"
           sodipodi:arg1="0.52359878"
           sodipodi:arg2="0.91629786"
           inkscape:flatsided="true"
           inkscape:rounded="0"
           inkscape:randomized="0"
           transform="rotate(-7.553859,3678.51,-618.39704)"
           d="m 4002.1578,736.6268 -279.0076,214.0901 -348.6728,-45.90364 -214.0901,-279.00765 45.9036,-348.67277 279.0077,-214.090099 348.6727,45.903639 214.0901,279.00766 z" />
        <path
           sodipodi:type="star"
           style="opacity:1;fill:#d5e5ff;fill-opacity:1;stroke:none;stroke-width:4;stroke-miterlimit:4;stroke-dasharray:none;stroke-opacity:1"
           id="path5987"
           sodipodi:sides="8"
           sodipodi:cx="3604.2244"
           sodipodi:cy="506.87982"
           sodipodi:r1="459.49396"
           sodipodi:r2="397.93344"
           sodipodi:arg1="0.52359878"
           sodipodi:arg2="0.91629786"
           inkscape:flatsided="true"
           inkscape:rounded="0"
           inkscape:randomized="0"
           transform="matrix(0.70901925,-0.09402228,0.09402228,0.70901925,1149.6734,486.36967)"
           d="m 4002.1578,736.6268 -279.0076,214.0901 -348.6728,-45.90364 -214.0901,-279.00765 45.9036,-348.67277 279.0077,-214.090099 348.6727,45.903639 214.0901,279.00766 z" />
        <path
           id="path5989"
           d="m 4056.5391,632.35938 120.9394,49.96289 -0.332,-351.68165 -120.8438,50.1875 z"
           style="opacity:1;fill:#2a7fff;fill-opacity:1;stroke:none;stroke-width:4;stroke-miterlimit:4;stroke-dasharray:none;stroke-opacity:1"
           inkscape:connector-curvature="0" />
        <path
           id="path5991"
           d="m 3878.8477,810.38672 50.1875,120.84375 248.4433,-248.9082 -120.9394,-49.96289 z"
           style="opacity:1;fill:#0066ff;fill-opacity:1;stroke:none;stroke-width:4;stroke-miterlimit:4;stroke-dasharray:none;stroke-opacity:1"
           inkscape:connector-curvature="0" />
        <path
           id="path5993"
           d="m 3627.3145,810.62305 -49.961,120.93945 351.6817,-0.33203 -50.1875,-120.84375 -251.5313,0.23633 v 0 z"
           style="opacity:1;fill:#0055d4;fill-opacity:1;stroke:none;stroke-width:4;stroke-miterlimit:4;stroke-dasharray:none;stroke-opacity:1"
           inkscape:connector-curvature="0" />
        <path
           id="path5995"
           d="m 3449.2891,632.93164 -120.8457,50.1875 248.9101,248.44336 49.961,-120.93945 z"
           style="opacity:1;fill:#0044aa;fill-opacity:1;stroke:none;stroke-width:4;stroke-miterlimit:4;stroke-dasharray:none;stroke-opacity:1"
           inkscape:connector-curvature="0" />
        <path
           id="path5997"
           d="m 3449.0527,381.39844 -120.9394,-49.96094 0.3301,351.68164 120.8457,-50.1875 z"
           style="opacity:1;fill:#0055d4;fill-opacity:1;stroke:none;stroke-width:4;stroke-miterlimit:4;stroke-dasharray:none;stroke-opacity:1"
           inkscape:connector-curvature="0" />
        <path
           id="path5999"
           d="M 3626.7441,203.37305 3576.5566,82.527344 3328.1133,331.4375 l 120.9394,49.96094 z"
           style="opacity:1;fill:#0066ff;fill-opacity:1;stroke:none;stroke-width:4;stroke-miterlimit:4;stroke-dasharray:none;stroke-opacity:1"
           inkscape:connector-curvature="0" />
        <path
           id="path6001"
           d="m 3928.2383,82.197266 -351.6817,0.330078 50.1875,120.845706 251.5313,-0.23633 z"
           style="opacity:1;fill:#5599ff;fill-opacity:1;stroke:none;stroke-width:4;stroke-miterlimit:4;stroke-dasharray:none;stroke-opacity:1"
           inkscape:connector-curvature="0" />
        <path
           id="path6003"
           d="m 3928.2383,82.197266 -49.9629,120.939454 178.0273,177.6914 120.8438,-50.1875 z"
           style="opacity:1;fill:#80b3ff;fill-opacity:1;stroke:none;stroke-width:4;stroke-miterlimit:4;stroke-dasharray:none;stroke-opacity:1"
           inkscape:connector-curvature="0" />
        <path
           style="opacity:1;fill:none;fill-opacity:1;stroke:#00112b;stroke-width:4;stroke-miterlimit:4;stroke-dasharray:none;stroke-opacity:1"
           d="m 3928.2383,82.197266 -351.6817,0.330078 -248.4433,248.910156 0.3301,351.68164 248.9101,248.44336 351.6817,-0.33203 248.4433,-248.9082 -0.332,-351.68165 z m -49.9629,120.939454 178.0273,177.6914 0.2364,251.53126 -177.6914,178.02734 -251.5313,0.23633 -178.0273,-177.69141 -0.2364,-251.5332 177.6914,-178.02539 z"
           id="path6005"
           inkscape:connector-curvature="0" />
        <path
           transform="matrix(0.58897121,-0.07810284,0.07810284,0.58897121,1590.4227,489.84236)"
           inkscape:randomized="0"
           inkscape:rounded="0"
           inkscape:flatsided="true"
           sodipodi:arg2="0.91629786"
           sodipodi:arg1="0.52359878"
           sodipodi:r2="397.93344"
           sodipodi:r1="459.49396"
           sodipodi:cy="506.87982"
           sodipodi:cx="3604.2244"
           sodipodi:sides="8"
           id="path6007"
           style="opacity:1;fill:#aaccff;fill-opacity:1;stroke:none;stroke-width:4;stroke-miterlimit:4;stroke-dasharray:none;stroke-opacity:1"
           sodipodi:type="star"
           d="m 4002.1578,736.6268 -279.0076,214.0901 -348.6728,-45.90364 -214.0901,-279.00765 45.9036,-348.67277 279.0077,-214.090099 348.6727,45.903639 214.0901,279.00766 z" />
        <path
           id="path6009"
           d="m 3559.873,343.14258 -59.3925,59.50195 0.1972,208.94336 147.8828,147.60742 208.9434,-0.19726 146.9316,-147.20508 A 308.86975,299.39609 0 0 1 3868.7383,642.45312 308.86975,299.39609 0 0 1 3559.873,343.14258 Z"
           style="opacity:0.296;fill:#5599ff;fill-opacity:1;stroke:none;stroke-width:4;stroke-miterlimit:4;stroke-dasharray:none;stroke-opacity:1"
           inkscape:connector-curvature="0" />
        <ellipse
           transform="matrix(0.9132659,-0.40736396,0.35538781,0.93471894,0,0)"
           ry="65.241966"
           rx="51.036835"
           cy="2025.6138"
           cx="3513.1965"
           id="ellipse6011"
           style="opacity:1;fill:#ffffff;fill-opacity:1;stroke:none;stroke-width:4;stroke-miterlimit:4;stroke-dasharray:none;stroke-opacity:1" />
        <path
           id="path6013"
           d="m 3846.0098,314.80664 a 10.025981,13.78588 1.5576891 0 0 -2.9786,0.54102 10.025981,13.78588 1.5576891 0 0 -7.0605,17.07422 10.025981,13.78588 1.5576891 0 0 4.4961,8.08203 29.381558,25.166887 52.148606 0 0 12.4394,34.96679 29.381558,25.166887 52.148606 0 0 36.4493,-5.19922 29.381558,25.166887 52.148606 0 0 -10.5547,-39.07031 29.381558,25.166887 52.148606 0 0 -23.2363,-4.8789 10.025981,13.78588 1.5576891 0 0 -0.2325,-1.56836 10.025981,13.78588 1.5576891 0 0 -9.3222,-9.94727 z"
           style="opacity:1;fill:#ffffff;fill-opacity:1;stroke:none;stroke-width:4;stroke-miterlimit:4;stroke-dasharray:none;stroke-opacity:1"
           inkscape:connector-curvature="0" />
        <path
           inkscape:connector-curvature="0"
           id="path6015"
           d="m 3912.8945,119.34068 -320.9243,0.30159 -226.7135,227.13901 0.3015,320.92423 227.1391,226.71358 320.9243,-0.3016 226.7135,-227.139 -0.3015,-320.92423 z m -21.7266,52.59091 196.3147,195.94716 0.2615,277.37311 -195.947,196.31466 -277.3732,0.26164 -196.3147,-195.94715 -0.2615,-277.3731 195.947,-196.31666 z"
           style="opacity:0.389;fill:#aaccff;fill-opacity:1;stroke:none;stroke-width:4;stroke-miterlimit:4;stroke-dasharray:none;stroke-opacity:1" />
      </g>
    </g>
  </g>
</svg>
