<?xml version="1.0" encoding="UTF-8" standalone="no"?>
<!-- Creator: CorelDRAW -->

<svg
   xmlns:dc="http://purl.org/dc/elements/1.1/"
   xmlns:cc="http://creativecommons.org/ns#"
   xmlns:rdf="http://www.w3.org/1999/02/22-rdf-syntax-ns#"
   xmlns:svg="http://www.w3.org/2000/svg"
   xmlns="http://www.w3.org/2000/svg"
   xmlns:sodipodi="http://sodipodi.sourceforge.net/DTD/sodipodi-0.dtd"
   xmlns:inkscape="http://www.inkscape.org/namespaces/inkscape"
   xml:space="preserve"
   width="286.33521mm"
   height="198.7619mm"
   style="clip-rule:evenodd;fill-rule:evenodd;image-rendering:optimizeQuality;shape-rendering:geometricPrecision;text-rendering:geometricPrecision"
   viewBox="0 0 286.33521 198.7619"
   version="1.1"
   id="svg108"
   sodipodi:docname="landscape3.svg"
   inkscape:version="0.92.3 (2405546, 2018-03-11)"><metadata
   id="metadata112"><rdf:RDF><cc:Work
       rdf:about=""><dc:format>image/svg+xml</dc:format><dc:type
         rdf:resource="http://purl.org/dc/dcmitype/StillImage" /><dc:title></dc:title></cc:Work></rdf:RDF></metadata><sodipodi:namedview
   pagecolor="#ffffff"
   bordercolor="#666666"
   borderopacity="1"
   objecttolerance="10"
   gridtolerance="10"
   guidetolerance="10"
   inkscape:pageopacity="0"
   inkscape:pageshadow="2"
   inkscape:window-width="1920"
   inkscape:window-height="1017"
   id="namedview110"
   showgrid="false"
   fit-margin-top="0"
   fit-margin-left="0"
   fit-margin-right="0"
   fit-margin-bottom="0"
   showborder="false"
   inkscape:zoom="1.1527821"
   inkscape:cx="541.1059"
   inkscape:cy="375.61304"
   inkscape:window-x="-4"
   inkscape:window-y="9"
   inkscape:window-maximized="1"
   inkscape:current-layer="svg108" />
 <defs
   id="defs4"><style
     type="text/css"
     id="style2">
   <![CDATA[
    .fil13 {fill:#383431}
    .fil8 {fill:#3F4446}
    .fil10 {fill:#5D7E7E}
    .fil7 {fill:#7A897F}
    .fil9 {fill:#7BC4A0}
    .fil12 {fill:#97AFA0}
    .fil11 {fill:#B6DDC7}
    .fil1 {fill:#BA8FBA}
    .fil0 {fill:#BAB3D6}
    .fil2 {fill:#DB214C}
    .fil15 {fill:#E3556A}
    .fil14 {fill:#E7785F}
    .fil3 {fill:#F8C300}
    .fil4 {fill:#FFF500}
    .fil5 {fill:#FFF974}
    .fil6 {fill:#FFFCC8}
   ]]>
  </style></defs>
 
 
 
 
 
 
 <g
   id="g3875"
   transform="translate(-5.9148,-5.0730972)"><g
     id="Himmel1">
  <metadata
   id="CorelCorpID_0Corel-Layer" />
  <polygon
   id="polygon7"
   points="265.504,59.2891 286.893,65.7782 286.598,119.683 8.4269,113.772 6.8309,64.92 123.341,42.5647 "
   class="fil0"
   style="fill:#bab3d6" />
  <polygon
   id="polygon9"
   points="286.284,88.5972 225.078,65.2944 108.57,55.0995 7.1709,80.1743 8.7148,13.7381 289.682,26.0051 "
   class="fil1"
   style="fill:#ba8fba" />
  <polygon
   id="polygon11"
   points="289.424,45.2654 257.106,50.5366 66.4935,23.3856 8.4269,45.6345 6.2028,5.8882 288.112,6.5371 "
   class="fil2"
   style="fill:#db214c" />
 </g><g
     id="Sonne1">
  <metadata
   id="CorelCorpID_1Corel-Layer" />
  <ellipse
   id="ellipse15"
   ry="51.999401"
   rx="54.053799"
   cy="57.072498"
   cx="193.93401"
   class="fil3"
   style="fill:#f8c300" />
  <ellipse
   id="ellipse17"
   ry="38.428398"
   rx="39.946602"
   cy="51.885101"
   cx="188.541"
   class="fil4"
   style="fill:#fff500" />
  <ellipse
   id="ellipse19"
   ry="29.6548"
   rx="30.826401"
   cy="47.141602"
   cx="183.61"
   class="fil5"
   style="fill:#fff974" />
  <ellipse
   id="ellipse21"
   ry="20.827299"
   rx="21.6502"
   cy="42.452"
   cx="178.73599"
   class="fil6"
   style="fill:#fffcc8" />
 </g><g
     id="Berge1">
  <metadata
   id="CorelCorpID_2Corel-Layer" />
  <polygon
   id="polygon25"
   points="148.494,122.189 251.688,91.547 285.342,128.693 283.099,150.479 9.7024,151.908 8.4203,99.7646 60.0227,63.3358 "
   class="fil7"
   style="fill:#7a897f" />
  <polygon
   id="polygon27"
   points="53.6658,94.8706 103.491,127.243 9.7025,129.3 7.1644,99.1365 60.6507,61.1378 "
   class="fil8"
   style="fill:#3f4446" />
  <polygon
   id="polygon29"
   points="285.97,128.065 211.29,138.406 252.742,112.455 251.06,90.6052 "
   class="fil8"
   style="fill:#3f4446" />
 </g><g
     id="Berge2">
  <metadata
   id="CorelCorpID_3Corel-Layer" />
  <polygon
   id="polygon33"
   points="106.827,75.0455 160.706,100.49 176.25,102.802 235.983,124.047 284.701,106.55 288.175,171.445 9.0614,163.336 9.7024,118.336 60.9842,104.407 "
   class="fil9"
   style="fill:#7bc4a0" />
  <polygon
   id="polygon35"
   points="108.711,74.1035 117.291,104.893 140.206,115.685 153.092,126.389 220.665,161.397 75.9565,146.282 60.6703,104.408 "
   class="fil10"
   style="fill:#5d7e7e" />
  <polygon
   id="polygon37"
   points="285.329,105.922 287.861,154.803 207.509,163.337 257.862,145.856 275.759,129.682 "
   class="fil10"
   style="fill:#5d7e7e" />
  <polygon
   id="polygon39"
   points="173.081,101.421 168.503,108.722 174.439,118.395 162.307,109.231 163.034,101.896 "
   class="fil10"
   style="fill:#5d7e7e" />
 </g><g
     id="Berge3">
  <metadata
   id="CorelCorpID_4Corel-Layer" />
  <polygon
   id="polygon43"
   points="191.442,125.76 251.374,161.653 284.381,143.336 285.342,202.265 8.7409,200.122 7.4588,125.836 50.7279,141.551 "
   class="fil11"
   style="fill:#b6ddc7" />
  <polygon
   id="polygon45"
   points="52.3403,158.73 56.6939,180.807 141.844,201.323 5.9148,200.75 7.1447,123.638 22.7818,145.005 "
   class="fil12"
   style="fill:#97afa0" />
  <polygon
   id="polygon47"
   points="286.579,140.824 292.25,203.835 215.667,202.006 271.198,177.57 276.18,160.711 "
   class="fil12"
   style="fill:#97afa0" />
  <polygon
   id="polygon49"
   points="253.942,163.957 217.095,182.407 148.471,191.644 184.22,163.126 192.379,124.496 "
   class="fil12"
   style="fill:#97afa0" />
 </g><g
     id="Raben1">
  <metadata
   id="CorelCorpID_5Corel-Layer" />
  <path
   id="path53"
   d="m 142.746,58.1845 8.0635,3.405 -7.9459,-2.2829 -9.3138,3.8171 c 6e-4,0.0228 0.001,-0.4241 0.001,-0.4011 0,2.8053 -3.8138,2.6173 -3.8138,-0.1879 0,-0.0308 -0.1402,0.1266 -0.1391,0.0961 l -7.9495,-3.4537 -7.5793,2.8557 7.4526,-4.1302 8.7363,3.1519 c 0.687,-0.6177 2.1099,-0.8878 2.8774,0.3952 z"
   class="fil13"
   inkscape:connector-curvature="0"
   style="fill:#383431" />
  <path
   id="path55"
   d="m 163.758,72.0782 9.0315,5.6002 -8.8815,-4.1686 -9.6847,4.8699 c 8e-4,0.0292 0.001,-0.541 0.001,-0.5116 0,3.579 -4.8658,3.3392 -4.8658,-0.2398 0,-0.0392 -0.1788,0.1615 -0.1774,0.1226 l -7.6301,-5.3483 -8.7278,5.8414 8.5662,-7.4674 8.6339,4.9633 c 0.8764,-0.7881 2.6918,-1.1327 3.671,0.5042 z"
   class="fil13"
   inkscape:connector-curvature="0"
   style="fill:#383431" />
  <path
   id="path57"
   d="m 193.995,55.5692 13.9852,-0.0465 -13.8509,1.3277 -10.3542,6.0449 c 7e-4,0.0261 0.001,-0.4842 0.001,-0.4579 0,3.2033 -4.3549,2.9886 -4.3549,-0.2146 0,-0.0351 -0.1601,0.1445 -0.1587,0.1097 l -6.8292,-6.192 -15.1184,2.1368 14.9738,-3.5921 7.7275,5.8474 c 0.7844,-0.7053 2.4092,-1.0138 3.2857,0.4513 z"
   class="fil13"
   inkscape:connector-curvature="0"
   style="fill:#383431" />
  <path
   id="path59"
   d="m 204.894,77.6301 13.7559,-0.0486 -13.6153,1.3898 -11.132,4.5622 c 8e-4,0.0273 0.001,-0.5069 0.001,-0.4794 0,3.353 -4.5583,3.1283 -4.5583,-0.2246 0,-0.0367 -0.1676,0.1513 -0.1662,0.1149 l -9.5014,-4.1279 -12.0004,-0.4109 11.8491,-1.1124 10.4416,3.7672 c 0.8211,-0.7383 2.5218,-1.0612 3.4392,0.4724 z"
   class="fil13"
   inkscape:connector-curvature="0"
   style="fill:#383431" />
  <path
   id="path61"
   d="m 173.076,86.0139 4.7274,1.9962 -4.6585,-1.3384 -5.4604,2.2379 c 4e-4,0.0134 6e-4,-0.2486 6e-4,-0.2351 0,1.6446 -2.2359,1.5344 -2.2359,-0.1102 0,-0.0181 -0.0822,0.0742 -0.0815,0.0563 l -4.6606,-2.0248 -4.4436,1.6742 4.3693,-2.4214 5.1219,1.8479 c 0.4027,-0.3621 1.237,-0.5205 1.6869,0.2317 z"
   class="fil13"
   inkscape:connector-curvature="0"
   style="fill:#383431" />
  <path
   id="path63"
   d="m 165.834,60.9975 7.6929,3.2485 -7.5807,-2.178 -8.8856,3.6417 c 6e-4,0.0218 0.001,-0.4046 0.001,-0.3826 0,2.6763 -3.6385,2.497 -3.6385,-0.1793 0,-0.0294 -0.1337,0.1207 -0.1326,0.0916 l -7.5841,-3.2949 -7.2309,2.7244 7.11,-3.9403 8.3347,3.007 c 0.6554,-0.5893 2.0129,-0.847 2.7451,0.3771 z"
   class="fil13"
   inkscape:connector-curvature="0"
   style="fill:#383431" />
  <path
   id="path65"
   d="m 215.023,86.6584 9.7238,-0.0374 -9.6244,1.069 -7.869,3.5094 c 6e-4,0.021 9e-4,-0.3899 9e-4,-0.3687 0,2.5792 -3.2222,2.4063 -3.2222,-0.1728 0,-0.0283 -0.1184,0.1164 -0.1174,0.0884 l -6.7164,-3.1753 -8.4829,-0.3161 8.3759,-0.8557 7.381,2.8979 c 0.5805,-0.568 1.7826,-0.8163 2.4311,0.3633 z"
   class="fil13"
   inkscape:connector-curvature="0"
   style="fill:#383431" />
  <path
   id="path67"
   d="m 179.325,68.1159 5.8578,1.9962 -5.7724,-1.3384 -6.766,2.2379 c 5e-4,0.0134 8e-4,-0.2486 8e-4,-0.2351 0,1.6446 -2.7706,1.5344 -2.7706,-0.1102 0,-0.0181 -0.1018,0.0742 -0.101,0.0563 l -5.7749,-2.0248 -5.506,1.6742 5.414,-2.4214 6.3464,1.8479 c 0.4991,-0.3621 1.5328,-0.5205 2.0904,0.2317 z"
   class="fil13"
   inkscape:connector-curvature="0"
   style="fill:#383431" />
  <path
   id="path69"
   d="m 194.942,70.9348 3.943,1.3438 -3.8855,-0.9009 -4.5544,1.5063 c 4e-4,0.009 6e-4,-0.1673 6e-4,-0.1582 0,1.107 -1.865,1.0328 -1.865,-0.0742 0,-0.0121 -0.0685,0.0499 -0.0679,0.0379 l -3.8873,-1.3629 -3.7062,1.1269 3.6443,-1.6299 4.2719,1.2439 c 0.336,-0.2438 1.0318,-0.3504 1.4071,0.1559 z"
   class="fil13"
   inkscape:connector-curvature="0"
   style="fill:#383431" />
  <path
   id="path71"
   d="m 181.387,72.1059 4.4315,-0.0147 -4.3889,0.4207 -3.281,1.9154 c 3e-4,0.0083 4e-4,-0.1534 4e-4,-0.1451 0,1.0151 -1.3799,0.947 -1.3799,-0.068 0,-0.0111 -0.0508,0.0458 -0.0503,0.0348 l -2.8961,-1.8157 -4.1317,-0.2014 4.0859,-0.2597 3.1807,1.7065 c 0.2486,-0.2236 0.7634,-0.3213 1.0411,0.1429 z"
   class="fil13"
   inkscape:connector-curvature="0"
   style="fill:#383431" />
  <path
   id="path73"
   d="m 177.387,66.3174 2.6089,1.1017 -2.5709,-0.7386 -3.0134,1.2349 c 2e-4,0.0074 3e-4,-0.1372 3e-4,-0.1297 0,0.9076 -1.2339,0.8468 -1.2339,-0.0608 0,-0.01 -0.0454,0.0409 -0.045,0.0311 l -2.572,-1.1174 -2.4522,0.9239 2.4112,-1.3363 2.8266,1.0198 c 0.2223,-0.1999 0.6826,-0.2873 0.931,0.1279 z"
   class="fil13"
   inkscape:connector-curvature="0"
   style="fill:#383431" />
  <path
   id="path75"
   d="m 166.346,70.2498 4.0119,2.4877 -3.9453,-1.8518 -4.3021,2.1633 c 4e-4,0.013 6e-4,-0.2403 6e-4,-0.2273 0,1.5899 -2.1614,1.4834 -2.1614,-0.1065 0,-0.0174 -0.0795,0.0718 -0.0788,0.0545 l -3.3894,-2.3758 -3.877,2.5948 3.8052,-3.3171 3.8353,2.2048 c 0.3893,-0.3501 1.1958,-0.5032 1.6307,0.2239 z"
   class="fil13"
   inkscape:connector-curvature="0"
   style="fill:#383431" />
  <path
   id="path77"
   d="m 185.287,83.6974 2.6089,1.1017 -2.5709,-0.7386 -3.0134,1.2349 c 2e-4,0.0074 3e-4,-0.1372 3e-4,-0.1297 0,0.9076 -1.2339,0.8468 -1.2339,-0.0608 0,-0.01 -0.0454,0.0409 -0.045,0.0311 l -2.572,-1.1174 -2.4522,0.9239 2.4112,-1.3363 2.8266,1.0198 c 0.2223,-0.1999 0.6826,-0.2873 0.931,0.1279 z"
   class="fil13"
   inkscape:connector-curvature="0"
   style="fill:#383431" />
  <path
   id="path79"
   d="m 176.913,91.9134 2.6089,1.1017 -2.5709,-0.7386 -3.0134,1.2349 c 2e-4,0.0074 3e-4,-0.1372 3e-4,-0.1297 0,0.9076 -1.2339,0.8468 -1.2339,-0.0608 0,-0.01 -0.0454,0.0409 -0.045,0.0311 l -2.572,-1.1174 -2.4522,0.9239 2.4112,-1.3363 2.8266,1.0198 c 0.2223,-0.1999 0.6826,-0.2873 0.931,0.1279 z"
   class="fil13"
   inkscape:connector-curvature="0"
   style="fill:#383431" />
  <path
   id="path81"
   d="m 190.349,97.8131 3.2754,1.3831 -3.2276,-0.9273 -3.7833,1.5505 c 3e-4,0.0093 4e-4,-0.1722 4e-4,-0.1629 0,1.1395 -1.5491,1.0632 -1.5491,-0.0763 0,-0.0125 -0.057,0.0514 -0.0565,0.039 l -3.2291,-1.4029 -3.0787,1.16 3.0272,-1.6777 3.5487,1.2803 c 0.2791,-0.2509 0.8571,-0.3606 1.1688,0.1606 z"
   class="fil13"
   inkscape:connector-curvature="0"
   style="fill:#383431" />
  <path
   id="path83"
   d="m 179.477,95.502 2.3083,-0.0123 -2.2847,0.3497 -1.8681,1.1478 c 1e-4,0.0069 2e-4,-0.1275 2e-4,-0.1206 0,0.8436 -0.7649,0.7871 -0.7649,-0.0565 0,-0.0093 -0.0281,0.0381 -0.0279,0.0289 l -1.5944,-1.0386 -2.0138,-0.1033 1.9884,-0.2799 1.7522,0.9478 c 0.1378,-0.1857 0.4232,-0.267 0.5771,0.1188 z"
   class="fil13"
   inkscape:connector-curvature="0"
   style="fill:#383431" />
  <path
   id="path85"
   d="m 193.94,92.9708 3.3328,-0.0117 -3.2987,0.3367 -2.6971,1.1053 c 2e-4,0.0066 4e-4,-0.1228 4e-4,-0.1161 0,0.8123 -1.1044,0.7579 -1.1044,-0.0545 0,-0.0089 -0.0406,0.0367 -0.0403,0.0279 l -2.302,-1.0001 -2.9074,-0.0996 2.8708,-0.2695 2.5298,0.9127 c 0.1989,-0.1789 0.6109,-0.2571 0.8332,0.1145 z"
   class="fil13"
   inkscape:connector-curvature="0"
   style="fill:#383431" />
  <path
   id="path87"
   d="m 187.68,89.5175 3.5886,-0.015 -3.5519,0.4303 -2.9041,1.4127 c 2e-4,0.0084 3e-4,-0.157 3e-4,-0.1484 0,1.0382 -1.1891,0.9686 -1.1891,-0.0696 0,-0.0114 -0.0437,0.0468 -0.0434,0.0356 l -2.4787,-1.2782 -3.1306,-0.1273 3.0911,-0.3444 2.724,1.1665 c 0.2142,-0.2286 0.6579,-0.3286 0.8972,0.1463 z"
   class="fil13"
   inkscape:connector-curvature="0"
   style="fill:#383431" />
  <path
   id="path89"
   d="m 189.785,101.987 1.8477,0.6337 -1.8156,-0.0464 c -0.3548,0.1413 -2.5393,1.0491 -2.5408,1.0564 -0.1663,0.7836 -1.1403,0.5985 -1.0405,-0.235 10e-4,-0.01 -0.0383,0.2898 -0.0379,0.2799 l -2.1192,-1.0686 -2.5653,-0.1611 2.4811,-0.5502 2.3834,1.0207 c 0.1875,-0.2 0.5757,-0.2875 0.7851,0.128 z"
   class="fil13"
   inkscape:connector-curvature="0"
   style="fill:#383431" />
  <path
   id="path91"
   d="m 178.802,101.164 1.1943,0.4096 -1.1736,-0.03 c -0.2293,0.0914 -1.6413,0.6782 -1.6423,0.6829 -0.1075,0.5065 -0.7371,0.3869 -0.6726,-0.1519 8e-4,-0.006 -0.0247,0.1873 -0.0245,0.1809 l -1.3698,-0.6907 -1.6582,-0.1042 1.6037,-0.3556 1.5407,0.6598 c 0.1211,-0.1293 0.3721,-0.1859 0.5074,0.0827 z"
   class="fil13"
   inkscape:connector-curvature="0"
   style="fill:#383431" />
  <path
   id="path93"
   d="m 175.958,97.8462 1.1943,0.4096 -1.1736,-0.03 c -0.2293,0.0914 -1.6413,0.6782 -1.6423,0.6829 -0.1075,0.5065 -0.7371,0.3869 -0.6726,-0.1519 8e-4,-0.0064 -0.0247,0.1873 -0.0245,0.1809 l -1.3698,-0.6907 -1.6582,-0.1042 1.6037,-0.3556 1.5407,0.6598 c 0.1211,-0.1293 0.3721,-0.1859 0.5074,0.0827 z"
   class="fil13"
   inkscape:connector-curvature="0"
   style="fill:#383431" />
  <path
   id="path95"
   d="m 195.234,100.532 1.1943,0.4096 -1.1736,-0.03 c -0.2293,0.0914 -1.6413,0.6782 -1.6423,0.6829 -0.1075,0.5065 -0.7371,0.3869 -0.6726,-0.1519 8e-4,-0.006 -0.0247,0.1873 -0.0245,0.1809 l -1.3698,-0.6907 -1.6582,-0.1042 1.6037,-0.3556 1.5407,0.6598 c 0.1211,-0.1293 0.3721,-0.1859 0.5074,0.0827 z"
   class="fil13"
   inkscape:connector-curvature="0"
   style="fill:#383431" />
  <path
   id="path97"
   d="m 188.837,96.2985 1.8477,0.6337 -1.8156,-0.0464 c -0.3548,0.1413 -2.5393,1.0491 -2.5408,1.0564 -0.1663,0.7836 -1.1403,0.5985 -1.0405,-0.235 0.001,-0.0098 -0.0383,0.2898 -0.0379,0.2799 l -2.1192,-1.0686 -2.5653,-0.1611 2.4811,-0.5502 2.3834,1.0207 c 0.1875,-0.2 0.5757,-0.2875 0.7851,0.128 z"
   class="fil13"
   inkscape:connector-curvature="0"
   style="fill:#383431" />
 </g><g
     id="Wolken1">
  <metadata
   id="CorelCorpID_6Corel-Layer" />
  <polygon
   id="polygon101"
   points="174.461,42.0505 149.141,53.6983 55.9308,48.1346 23.2857,52.3096 56.1422,36.3684 111.391,44.0019 "
   class="fil14"
   style="fill:#e7785f" />
  <polygon
   id="polygon103"
   points="268.554,58.6441 289.469,66.3118 281.038,72.4031 216.347,66.322 187.107,67.7047 206.843,58.3341 239.769,63.0886 "
   class="fil14"
   style="fill:#e7785f" />
  <polygon
   id="polygon105"
   points="161.166,20.6501 200.921,20.4678 157.008,26.2451 105.819,25.188 85.3706,19.6627 108.247,17.5141 149.965,14.1045 "
   class="fil15"
   style="fill:#e3556a" />
 </g></g>
</svg>