<?xml version="1.0" encoding="UTF-8" standalone="no"?>
<!-- Created with Inkscape (http://www.inkscape.org/) -->

<svg
   xmlns:osb="http://www.openswatchbook.org/uri/2009/osb"
   xmlns:dc="http://purl.org/dc/elements/1.1/"
   xmlns:cc="http://creativecommons.org/ns#"
   xmlns:rdf="http://www.w3.org/1999/02/22-rdf-syntax-ns#"
   xmlns:svg="http://www.w3.org/2000/svg"
   xmlns="http://www.w3.org/2000/svg"
   xmlns:sodipodi="http://sodipodi.sourceforge.net/DTD/sodipodi-0.dtd"
   xmlns:inkscape="http://www.inkscape.org/namespaces/inkscape"
   id="svg4764"
   version="1.1"
   inkscape:version="0.91 r13725"
   width="113.39033"
   height="85.624184"
   viewBox="0 0 113.39033 85.624183"
   sodipodi:docname="ardvark.svg">
  <metadata
     id="metadata4770">
    <rdf:RDF>
      <cc:Work
         rdf:about="">
        <dc:format>image/svg+xml</dc:format>
        <dc:type
           rdf:resource="http://purl.org/dc/dcmitype/StillImage" />
        <dc:title></dc:title>
      </cc:Work>
    </rdf:RDF>
  </metadata>
  <defs
     id="defs4768">
    <linearGradient
       id="linearGradient4282"
       osb:paint="solid">
      <stop
         style="stop-color:#b9ad8a;stop-opacity:1;"
         offset="0"
         id="stop4284" />
    </linearGradient>
    <linearGradient
       id="linearGradient4274"
       osb:paint="solid"
       gradientTransform="matrix(0.64874521,0,0,0.64874521,232.53975,215.59043)">
      <stop
         style="stop-color:#ca7145;stop-opacity:1;"
         offset="0"
         id="stop4276" />
    </linearGradient>
    <linearGradient
       id="linearGradient4262"
       osb:paint="solid">
      <stop
         style="stop-color:#94cc2f;stop-opacity:1;"
         offset="0"
         id="stop4264" />
    </linearGradient>
    <linearGradient
       id="linearGradient5457"
       osb:paint="solid"
       gradientTransform="matrix(0.63547792,-0.77211904,0.77211904,0.63547792,-21.549395,354.91196)">
      <stop
         style="stop-color:#f48533;stop-opacity:1;"
         offset="0"
         id="stop5459" />
    </linearGradient>
    <linearGradient
       id="linearGradient5419"
       osb:paint="solid"
       gradientTransform="translate(12.061528,193.54501)">
      <stop
         style="stop-color:#7f6891;stop-opacity:1;"
         offset="0"
         id="stop5421" />
    </linearGradient>
    <linearGradient
       id="linearGradient5397"
       osb:paint="solid"
       gradientTransform="matrix(-0.00148398,-0.00114727,0.00141339,-0.00147789,213.36518,153.8553)">
      <stop
         style="stop-color:#a79fac;stop-opacity:1;"
         offset="0"
         id="stop5399" />
    </linearGradient>
    <linearGradient
       id="linearGradient5374"
       osb:paint="solid"
       gradientTransform="translate(50.709756,52.084386)">
      <stop
         style="stop-color:#ed3e0a;stop-opacity:1;"
         offset="0"
         id="stop5376" />
    </linearGradient>
    <linearGradient
       id="linearGradient5366"
       osb:paint="solid"
       gradientTransform="matrix(0.25,0,0,0.25,233.34811,92.315018)">
      <stop
         style="stop-color:#deaa56;stop-opacity:1;"
         offset="0"
         id="stop5368" />
    </linearGradient>
    <linearGradient
       id="linearGradient5360"
       osb:paint="solid">
      <stop
         style="stop-color:#e3d4bb;stop-opacity:1;"
         offset="0"
         id="stop5362" />
    </linearGradient>
  </defs>
  <sodipodi:namedview
     pagecolor="#ffffff"
     bordercolor="#666666"
     borderopacity="1"
     objecttolerance="10"
     gridtolerance="10"
     guidetolerance="10"
     inkscape:pageopacity="0"
     inkscape:pageshadow="2"
     inkscape:window-width="1873"
     inkscape:window-height="1056"
     id="namedview4766"
     showgrid="false"
     inkscape:zoom="2.4823609"
     inkscape:cx="89.121231"
     inkscape:cy="9.5946879"
     inkscape:window-x="47"
     inkscape:window-y="24"
     inkscape:window-maximized="1"
     inkscape:current-layer="layer1"
     fit-margin-top="0"
     fit-margin-left="0"
     fit-margin-right="0"
     fit-margin-bottom="0"
     showguides="false" />
  <g
     inkscape:groupmode="layer"
     id="layer1"
     inkscape:label="Layer 1"
     transform="translate(-31.574746,-75.697559)">
    <path
       style="fill:url(#linearGradient5419);fill-rule:evenodd;stroke:none;stroke-width:1px;stroke-linecap:butt;stroke-linejoin:miter;stroke-opacity:1"
       d="m 55.946706,96.464127 2.618475,-4.028423 c 0,0 3.222739,-2.014212 5.035529,-2.618475 1.812791,-0.604264 4.229844,-2.618475 4.229844,-2.618475 l 1.409949,-2.215633 1.208526,3.625581 8.258268,-5.438371 3.222738,-0.604264 c 0,0 -0.201421,2.618475 2.417054,0 l 2.618475,-2.618475 4.834108,1.208527 1.409948,-2.417054 3.625581,1.007106 3.826999,0.201421 c 0,0 0.40284,-2.618475 1.20853,-2.417054 0.80568,0.201421 5.03553,1.61137 5.03553,1.61137 l 1.00711,0.201421 0.20142,1.611369 2.21563,-0.402842 8.25827,0.402842 1.81279,2.819896 1.81279,2.014212 3.42416,1.611369 2.81989,1.611369 2.41706,-0.402842 4.43126,5.23695 -2.41705,0.402842 6.24405,6.646896 2.8199,0 1.40995,3.62558 -3.827,2.8199 2.61847,0.80568 -1.40995,3.82701 -0.40284,0.60426 3.827,0.20142 0.20142,4.83411 -3.02131,0.60426 -0.20142,1.40995 2.41705,1.20853 -0.20142,3.22274 -1.81279,1.81279 -0.60427,5.43837 -2.61847,5.63979 -2.01421,0.80568 -0.20142,0.40285 c -0.60427,1.20852 -3.82701,6.44547 -3.82701,6.44547 0,0 -1.40994,1.20853 -3.42416,1.61137 -2.01421,0.40285 -5.84121,0.40285 -5.84121,0.40285 l -3.02132,0.80568 -1.81279,-1.40995 -1.0071,1.61137 -1.20853,-1.61137 -2.21563,2.41706 -3.62558,-1.00711 -0.80569,2.01421 -3.827,0.40284 -14.300901,3.82701 -4.229845,0.20142 -3.827002,-2.8199 z"
       id="path5723"
       inkscape:connector-curvature="0"
       sodipodi:nodetypes="ccscccccscccccscccccccccccccccccccccccccccccccsccccccccccccc" />
    <path
       style="fill:url(#linearGradient4274);fill-rule:evenodd;stroke:none;stroke-width:1px;stroke-linecap:butt;stroke-linejoin:miter;stroke-opacity:1"
       d="m 43.458594,137.55404 34.644439,13.09238 5.236951,0.40284 0.604263,-10.27248 3.625581,-4.43126 0.201421,-5.6398 c 0,0 -2.417054,-2.81989 -1.409948,-3.827 1.007106,-1.0071 -0.201422,-5.63979 -0.201422,-5.63979 l -2.014211,-4.22984 -1.208527,0.80568 -1.409948,-5.03552 0.604264,-5.23696 -2.417054,-2.21563 -1.208527,-1.00711 -3.222739,1.20853 -0.201421,-2.8199 -9.063952,-4.431262 -3.021317,4.028422 -1.409948,-1.40995 0.604263,-3.625578 -5.841214,-0.201421 -3.021317,3.424159 -4.028423,-0.40284 -1.611369,3.02132 -2.215633,0.80568 -1.409948,7.85543 -3.625581,3.62557 1.208527,15.91228 z"
       id="path5721"
       inkscape:connector-curvature="0"
       sodipodi:nodetypes="ccccccscccccccccccccccccccccc" />
    <path
       style="fill:url(#linearGradient5397);fill-rule:evenodd;stroke:none;stroke-width:1px;stroke-linecap:butt;stroke-linejoin:miter;stroke-opacity:1"
       d="m 52.321125,132.11567 -9.869637,-4.22984 -2.215632,-12.08527 4.431265,1.20853 6.646898,6.84832 4.229845,2.81989 6.445477,1.20853 3.222738,4.02842 7.452583,-10.87674 8.258268,-3.42416 1.81279,7.25116 -2.417054,6.6469 -4.028423,1.0071 -4.632687,2.8199 -3.62558,3.62558 1.611369,4.43127 1.208527,5.43837 -3.625581,3.62558 c 0,0 -4.632687,0.40285 -6.042635,0.40285 -1.409948,0 -7.654004,0 -7.654004,0 l -6.445477,0.60426 -2.618475,-0.40284 -5.639792,0.60426 -7.251162,-4.83411 0.201421,-5.43837 6.84832,0.60426 1.81279,-3.22274 3.827002,0.80569 8.862531,-9.06396 0.201421,-0.20142 z"
       id="path5716"
       inkscape:connector-curvature="0" />
    <path
       style="fill:url(#linearGradient5397);fill-rule:evenodd;stroke:none;stroke-width:1px;stroke-linecap:butt;stroke-linejoin:miter;stroke-opacity:1"
       d="m 78.505876,150.04215 7.452583,3.02133 -0.805685,4.22984 -5.639792,1.40995 -4.229845,-0.60426 -2.618475,3.22273 -0.805684,-4.22984 3.222738,-5.03553 4.229844,-1.61137 -1.007105,0.40284 0.201421,0 1.208527,-0.60426 z"
       id="path5719"
       inkscape:connector-curvature="0" />
    <ellipse
       style="opacity:0.43900003;fill:#ffffff;fill-opacity:1;stroke:none;stroke-width:4;stroke-linecap:butt;stroke-linejoin:miter;stroke-miterlimit:4;stroke-dasharray:none;stroke-dashoffset:0;stroke-opacity:1"
       id="path5725"
       cx="54.738178"
       cy="141.07892"
       rx="2.0142117"
       ry="2.5177646" />
    <path
       style="fill:url(#linearGradient5366);fill-rule:evenodd;stroke:none;stroke-width:1px;stroke-linecap:butt;stroke-linejoin:miter;stroke-opacity:1"
       d="m 32.783273,143.59668 4.632687,1.40995 2.014211,4.8341 5.438371,3.42417 -5.035529,1.61137 -2.417053,-1.00711 -5.639793,-5.23695 0,-5.03553 z"
       id="path5727"
       inkscape:connector-curvature="0" />
    <path
       style="fill:url(#linearGradient5366);fill-rule:evenodd;stroke:none;stroke-width:1px;stroke-linecap:butt;stroke-linejoin:miter;stroke-opacity:1"
       d="m 69.643345,135.53983 3.222738,-6.84832 8.258268,-7.45258 0.402842,7.45258 -2.417054,2.61848 -4.431265,2.81989 z"
       id="path5729"
       inkscape:connector-curvature="0" />
  </g>
  <g
     inkscape:groupmode="layer"
     id="layer2"
     inkscape:label="Layer 2"
     transform="translate(-31.574746,-75.697559)">
    <path
       style="fill:#000000"
       d="m 71.807206,159.88641 c -0.392025,-0.55055 -0.738879,-1.56778 -0.819039,-2.40202 -0.128739,-1.33982 -0.03631,-1.59102 1.247256,-3.38978 1.945758,-2.72674 2.146242,-2.88651 3.621924,-2.88651 0.753864,0 1.440024,-0.17855 1.647672,-0.42875 0.297603,-0.35859 0.119508,-0.45922 -1.088265,-0.6149 -2.368986,-0.30537 -4.086111,-0.76126 -5.098998,-1.35379 -0.946287,-0.55357 -0.95862,-0.55271 -1.367691,0.0944 -0.227037,0.35916 -0.655047,1.3016 -0.951132,2.0943 -0.3846,1.02968 -0.871692,1.66188 -1.705645,2.21376 -1.120584,0.74157 -1.284453,0.76436 -4.093971,0.5693 -2.516403,-0.17471 -3.175059,-0.11706 -4.69863,0.41123 -2.108187,0.73102 -2.97867,0.77094 -3.585177,0.16443 -0.2475,-0.2475 -0.645657,-0.45 -0.884793,-0.45 -0.239137,0 -0.919441,0.2025 -1.511794,0.45 -1.275687,0.53302 -2.694024,0.57935 -3.559293,0.11627 -0.467981,-0.25045 -0.922066,-0.23522 -1.819823,0.0611 -1.153956,0.38084 -1.219111,0.36613 -1.842971,-0.41627 -0.796287,-0.99864 -1.214232,-1.01695 -2.063575,-0.0904 -0.826871,0.90202 -3.63076,1.27219 -4.549221,0.60059 -0.316837,-0.23167 -0.892002,-0.42123 -1.278144,-0.42123 -0.386142,0 -0.771366,-0.18056 -0.856052,-0.40126 -0.08469,-0.22068 -0.947389,-0.99693 -1.917116,-1.725 -1.611008,-1.20952 -3.295127,-3.38869 -2.913671,-3.77015 0.172754,-0.17275 3.16747,1.93238 4.489351,3.15578 l 0.835758,0.7735 0.716138,-0.89143 c 0.758338,-0.94397 0.933115,-0.82587 1.122636,0.75856 0.08165,0.68258 0.224563,0.7531 1.589711,0.78445 1.617522,0.0371 2.55,-0.28401 2.55,-0.87825 0,-0.20498 0.218759,-0.68502 0.486132,-1.06675 l 0.486132,-0.69405 0.846957,0.9273 c 1.001325,1.09631 1.910497,1.17941 3.580779,0.3273 1.505058,-0.76782 1.889709,-0.75502 2.253861,0.075 0.262272,0.5978 0.519153,0.67674 2.246139,0.69021 1.072501,0.008 2.173297,0.11909 2.446216,0.24605 0.307293,0.14296 1.256565,-0.0733 2.49333,-0.56813 1.276527,-0.51069 2.265171,-0.7317 2.740026,-0.61251 0.4086,0.10255 1.291239,0.0388 1.961418,-0.14166 1.007949,-0.27141 1.308171,-0.24696 1.737381,0.14147 1.186587,1.07384 2.785056,0.0616 3.952081,-2.50278 0.481173,-1.05728 0.814782,-1.98242 0.741357,-2.05584 -0.07343,-0.0734 -0.0098,-0.45889 0.141417,-0.85659 0.201276,-0.52939 0.111189,-1.13847 -0.336297,-2.27376 -0.741192,-1.88041 -0.573123,-3.84146 0.329226,-3.84146 0.585441,0 0.631902,0.10394 1.206939,2.7 0.201015,0.9075 0.483144,1.79924 0.626952,1.98165 0.186027,0.23596 1.148499,0.0753 3.335715,-0.55689 4.790292,-1.38453 6.344559,-1.72444 6.621021,-1.44798 0.140667,0.14067 0.127542,0.33458 -0.02919,0.43145 -0.421539,0.26052 -9.351102,3.79177 -9.588354,3.79177 -0.04358,0 -0.07924,0.1253 -0.07924,0.27845 0,0.7044 6.229569,2.34227 9.75,2.56345 0.66,0.0415 2.010001,0.4283 3.000001,0.85963 0.99,0.43132 2.047977,0.78743 2.351058,0.79135 0.334887,0.004 0.686091,0.36486 0.895272,0.91904 0.571773,1.5148 2.095395,1.43156 3.737352,-0.2042 0.211026,-0.21022 0.616026,-0.30773 0.9,-0.21667 0.438201,0.1405 0.448236,0.11657 0.06632,-0.15815 -0.2475,-0.17805 -0.811608,-0.32578 -1.253571,-0.32831 -1.248966,-0.007 -2.310537,-1.42054 -1.461192,-1.94547 0.277722,-0.17164 3.081174,0.66269 3.847719,1.14511 0.210627,0.13256 0.345627,0.46708 0.3,0.74339 -0.07093,0.42954 0.155964,0.48657 1.564905,0.39336 0.906325,-0.06 1.915111,-0.29621 2.241754,-0.525 0.77463,-0.54257 2.090802,-0.53179 2.549481,0.0209 0.503832,0.60707 0.132522,1.06314 -0.865548,1.06314 -0.483081,0 -1.323714,0.38357 -1.975083,0.90122 -0.725718,0.57673 -1.253658,0.80416 -1.466254,0.63164 -0.613056,-0.49748 -3.452964,-0.054 -5.068113,0.7915 -1.047324,0.54823 -1.967187,0.80337 -2.784105,0.77223 -1.126092,-0.0429 -1.241559,0.0266 -1.5,0.90282 -0.341469,1.15777 -1.213884,1.39986 -1.837284,0.50983 l -0.452046,-0.64538 -0.726351,0.98451 c -0.828921,1.12354 -1.484533,1.56724 -1.91899,1.29874 -0.164958,-0.10195 -0.511032,0.0257 -0.769053,0.28376 -0.583395,0.58339 -1.440816,0.60406 -1.904055,0.0459 -0.608568,-0.73328 -0.735219,-2.40952 -0.214698,-2.84152 0.673608,-0.55904 1.177293,-0.15427 0.765501,0.61516 -0.212265,0.39662 -0.225591,0.71701 -0.03764,0.90497 0.348585,0.34858 2.46462,-1.39984 2.46462,-2.03646 0,-0.24186 0.303439,-0.41892 0.717904,-0.41892 1.29498,0 1.487316,-1.63188 0.257097,-2.18134 -0.45375,-0.20266 -1.035184,-0.62105 -1.292071,-0.92976 -0.453615,-0.54512 -0.514998,-0.53862 -2.130546,0.22566 -0.914913,0.43282 -2.302749,0.90638 -3.084084,1.05235 -0.781335,0.14597 -1.519818,0.38188 -1.641072,0.52424 -1.70382,2.00044 -2.158893,2.85799 -2.070834,3.90232 0.118461,1.40492 0.64938,1.5997 1.138923,0.41783 0.384741,-0.92885 1.109151,-1.21336 1.365492,-0.5363 0.07809,0.20625 -0.114246,1.05 -0.427407,1.875 -0.710724,1.87235 -1.472826,2.099 -2.448849,0.7283 z m 3.819198,-1.59642 c -0.289134,-0.75346 0.578667,-4.09764 1.233162,-4.75213 0.526443,-0.52645 0.707259,-0.56657 1.096728,-0.24333 0.667182,0.55371 0.597183,1.51357 -0.110376,1.51357 -0.581706,0 -0.944181,0.77071 -1.375659,2.925 -0.204771,1.02239 -0.572181,1.26486 -0.843855,0.55689 z m 27.518276,-7.67664 c -0.7172,-0.28681 -1.74939,-2.24064 -1.51137,-2.86089 0.13281,-0.34609 0.31008,-0.33814 1.08551,0.0487 0.50973,0.25429 1.11294,0.3909 1.34048,0.30359 0.22753,-0.0873 0.48814,0.0352 0.57911,0.2723 0.091,0.23708 0.42317,0.43106 0.73819,0.43106 0.80863,0 2.74606,-0.84948 2.74606,-1.20402 0,-0.16279 0.135,-0.29598 0.3,-0.29598 0.165,0 0.3,0.27 0.3,0.6 0,0.76547 0.64616,0.77535 1.11968,0.0171 0.29246,-0.4683 0.27033,-0.80709 -0.1126,-1.72357 l -0.47662,-1.1407 1.52192,1.42357 c 1.53147,1.43252 2.29734,1.68567 3.36734,1.11302 0.45564,-0.24385 0.58406,-0.64657 0.59792,-1.875 0.0151,-1.33514 0.07,-1.48036 0.375,-0.99077 1.05423,1.69239 2.3975,2.21012 2.76119,1.06424 0.18464,-0.58175 0.24108,-0.56631 1.13897,0.31154 1.11389,1.08904 2.25708,1.46705 2.62691,0.86864 0.3103,-0.50207 0.0259,-1.76527 -0.52031,-2.31155 -0.46875,-0.46876 -0.53107,-1.25655 -0.0994,-1.25655 0.165,0 0.3,0.21694 0.3,0.4821 0,0.34266 0.15184,0.41868 0.525,0.26285 0.77651,-0.32426 2.175,-0.38646 2.175,-0.0967 0,0.13847 0.2025,0.25177 0.45,0.25177 0.64214,0 0.55601,0.59848 -0.2023,1.40567 -0.67997,0.72379 -0.34267,0.92682 0.65381,0.39352 0.88749,-0.47497 1.12016,0.29578 0.29178,0.96657 -0.54175,0.43868 -0.96627,0.52397 -1.85811,0.37329 -0.63576,-0.10741 -1.32002,-0.0686 -1.52056,0.0863 -0.81471,0.6291 -1.39282,0.60477 -2.34635,-0.0987 -0.84543,-0.62373 -1.02896,-0.66488 -1.24485,-0.27909 -0.33927,0.60624 -0.7151,0.57049 -1.75007,-0.16647 -1.0244,-0.72944 -1.47335,-0.55502 -1.47335,0.57239 0,0.55922 -0.16609,0.83448 -0.525,0.87007 -0.28875,0.0286 -0.96908,0.14116 -1.51184,0.25007 -0.73927,0.14834 -1.14118,0.0583 -1.6021,-0.35879 -0.59982,-0.54283 -0.62587,-0.54229 -1.03816,0.0215 -0.2326,0.31809 -0.4229,0.70443 -0.4229,0.85852 0,0.15409 -0.39878,0.2004 -0.88617,0.10292 -0.59657,-0.11931 -1.40542,0.0551 -2.475,0.53358 -2.11443,0.94594 -2.67124,1.07206 -3.41681,0.77391 z m 0.77798,-1.78503 c 0,-0.35005 -1.17662,-0.7436 -1.43892,-0.4813 -0.22484,0.22484 0.51338,0.74974 1.06392,0.75649 0.20625,0.002 0.375,-0.12131 0.375,-0.27519 z m -65.679581,0.30847 c -0.945241,-1.32747 -0.682691,-2.07932 0.585546,-1.67679 0.571174,0.18128 1.494026,1.56072 1.494026,2.2332 0,0.6912 -1.47156,0.29746 -2.079572,-0.55641 z m 45.879575,0.37739 c -0.4125,-0.21848 -1.065861,-0.39922 -1.451913,-0.40166 -0.840783,-0.005 -1.824232,-1.0911 -1.838107,-2.02942 -0.01122,-0.75904 0.729525,-0.92596 0.998509,-0.225 0.09497,0.2475 0.508503,0.45 0.918954,0.45 0.717444,0 0.749676,-0.0831 0.834414,-2.151 0.05686,-1.3876 0.221232,-2.19501 0.463143,-2.275 0.267081,-0.0883 0.375,0.31487 0.375,1.401 0,1.65538 0.118104,1.78261 0.953217,1.02684 0.783294,-0.70887 1.057818,-0.2401 0.456012,0.77868 -0.280077,0.47413 -0.509229,1.47451 -0.509229,2.22306 0,1.57487 -0.171837,1.74706 -1.2,1.2025 z m 11.550001,-0.62316 c -0.884602,-0.21744 -1.350001,-0.681 -1.350001,-1.34465 0,-0.35207 0.150573,-0.52695 0.375,-0.43555 0.20625,0.084 1.151251,0.32475 2.100001,0.53502 1.680951,0.37254 2.208435,0.91256 1.250463,1.28016 -0.527838,0.20255 -1.465263,0.18875 -2.375463,-0.035 z m -63.855616,-2.39661 c -0.275205,-1.66529 -0.22668,-4.07073 0.09229,-4.57503 0.238606,-0.37724 0.541037,-0.38429 2.15808,-0.0503 1.034323,0.21363 2.25068,0.57981 2.703015,0.81372 1.259027,0.65106 1.539719,0.54227 2.772847,-1.07471 1.222492,-1.60304 1.829601,-1.80853 3.026366,-1.02439 0.686445,0.44978 0.787733,0.43034 1.864445,-0.35788 1.973298,-1.44456 2.386445,-2.21773 1.185062,-2.21773 -0.618239,0 -1.696496,-0.80291 -1.696496,-1.26327 0,-0.0913 0.50625,0.0146 1.125,0.23546 0.61875,0.22081 1.274866,0.4074 1.458036,0.41464 0.338421,0.0134 2.516964,-1.90526 2.516964,-2.21668 0,-0.0936 -0.675,-0.17015 -1.5,-0.17015 -0.825,0 -1.5,0.135 -1.5,0.3 0,0.52176 -1.084812,0.32453 -1.65,-0.3 -0.298646,-0.33 -0.91054,-0.6 -1.359763,-0.6 -0.921715,0 -1.32103,-0.38746 -1.598604,-1.55116 -0.214155,-0.89782 0.03611,-1.82891 0.4267,-1.58751 0.140504,0.0868 0.188348,0.33278 0.10632,0.54654 -0.08203,0.21377 -0.0099,0.75487 0.160267,1.20247 0.255125,0.67103 0.406644,0.76177 0.863627,0.5172 0.376316,-0.2014 1.508739,-0.16018 3.527836,0.12841 4.190951,0.59902 4.171454,0.6015 4.893983,-0.6231 0.346299,-0.58693 0.629634,-1.12512 0.629634,-1.19597 0,-0.48996 -5.199954,-1.93688 -6.960772,-1.93688 -1.769723,0 -2.303123,-0.54191 -3.076719,-3.12582 -1.232992,-4.11836 -1.454567,-5.0729 -1.537643,-6.62418 -0.04418,-0.825 -0.17511,-2.13861 -0.290952,-2.91912 -0.160637,-1.08235 -0.09309,-1.59851 0.284648,-2.175 0.775424,-1.18345 0.965879,-1.11239 3.722759,1.38894 0.545227,0.49469 1.43941,1.08666 1.987074,1.31549 0.547663,0.22883 1.488994,0.86012 2.091846,1.40287 0.602852,0.54275 1.571624,1.39182 2.152826,1.88682 0.581202,0.495 2.075394,2.0475 3.320424,3.45 l 2.263693,2.55 1.54641,0.034 c 2.730675,0.06 2.596407,0.26479 2.596407,-3.95944 0,-2.67329 0.179586,-4.565 0.631764,-6.65478 0.666414,-3.0799 2.444166,-7.91034 3.116658,-8.46846 0.823821,-0.68371 0.68934,0.29062 -0.438054,3.17374 -0.639816,1.63623 -1.370937,3.9891 -1.624716,5.22863 -0.622143,3.03873 -1.064568,8.00567 -0.82806,9.29632 0.168063,0.91714 2.03256,3.87652 2.442408,3.87665 0.123423,4e-5 2.700777,-4.03645 3.623016,-5.67414 0.185265,-0.32899 0.340545,-0.35895 0.586362,-0.11313 0.245818,0.24582 -0.06866,1.13748 -1.187508,3.36704 -0.83703,1.66797 -1.52187,3.30513 -1.52187,3.63813 0,0.87319 -0.389055,0.75644 -1.933437,-0.58022 -1.296159,-1.12181 -1.449579,-1.17623 -2.84895,-1.01049 -0.813459,0.0963 -1.723953,0.0698 -2.023317,-0.0589 -0.299361,-0.12876 -0.814296,-0.21856 -1.144296,-0.19954 -0.385041,0.0222 -1.08366,-0.55011 -1.95,-1.59741 -2.11105,-2.552 -9.400391,-8.58705 -11.910103,-9.86071 -1.302374,-0.66094 -2.492801,-0.64282 -2.480105,0.0378 0.0085,0.45643 0.552483,2.13753 1.334763,4.125 0.236163,0.6 0.236163,0.6 -0.276463,0 -0.597365,-0.69918 -0.635206,-0.94618 0.433615,2.83029 0.779625,2.75464 0.691989,2.6235 1.870511,2.79914 2.946145,0.43909 4.659,1.00103 5.870868,1.92606 0.716577,0.54698 1.474107,0.99451 1.683396,0.99451 0.509115,0 1.373517,0.98229 1.373517,1.56084 0,0.97921 -1.660086,3.47009 -3.564009,5.34762 -1.092295,1.07716 -2.442941,2.54101 -3.001436,3.253 -1.278196,1.6295 -3.289513,2.58289 -4.390606,2.0812 -0.410567,-0.18707 -0.791537,-0.28444 -0.846601,-0.21639 -0.05506,0.068 -0.539341,0.7735 -1.076172,1.56766 -1.105685,1.63571 -2.164454,2.2926 -2.819264,1.74915 -0.22872,-0.18982 -1.008968,-0.47392 -1.733884,-0.63133 -0.724916,-0.15741 -1.686295,-0.37462 -2.136399,-0.48268 -0.818099,-0.19642 -0.818348,-0.19596 -0.75,1.38009 0.08108,1.8697 -0.506619,2.37521 -0.787241,0.67714 z m 67.905616,-0.68631 c -0.585072,-0.58507 -0.832614,-1.8 -0.366753,-1.8 0.128289,0 0.532125,0.20934 0.897418,0.4652 0.36529,0.25587 1.23792,0.56315 1.93916,0.68286 0.85646,0.14621 1.30768,0.38741 1.37458,0.7348 0.15576,0.80883 -3.02119,0.74035 -3.844405,-0.0829 z m 5.481605,-0.0632 c -0.7589,-0.36628 -1.18129,-1.35711 -0.75869,-1.77971 0.17669,-0.17669 0.42637,-0.10919 0.66653,0.1802 0.21121,0.25449 0.83202,0.46271 1.37958,0.46271 1.20031,0 1.62899,0.54014 0.86947,1.09551 -0.64922,0.47472 -1.23558,0.48595 -2.15689,0.0413 z m -12.064407,-0.43852 c -0.7512,-0.52616 -1.637838,-2.36038 -1.359039,-2.81149 0.296883,-0.48036 0.74184,-0.32039 0.74184,0.26671 0,0.30443 0.282504,0.80917 0.627786,1.12165 1.36197,1.23256 1.353444,2.37854 -0.01059,1.42313 z m -44.300604,-0.26941 c 0.100871,-0.26287 0.183402,-0.5344 0.183402,-0.60341 0,-0.069 0.198263,-0.12546 0.440586,-0.12546 0.551328,0 0.286032,0.78722 -0.347184,1.03021 -0.329898,0.12659 -0.408276,0.0413 -0.276804,-0.30134 z m 78.400781,-0.35442 c -0.62203,-0.68734 -1.18615,-2.17445 -0.82486,-2.17445 0.15272,0 0.38563,0.18279 0.51758,0.40621 0.32117,0.54379 1.40791,1.09379 2.16121,1.09379 0.5175,0 0.60067,-0.17178 0.54473,-1.125 -0.0579,-0.98552 0.0117,-1.11437 0.56115,-1.03924 0.917,0.12538 2.22282,-0.44935 2.22282,-0.97833 0,-0.25159 0.19331,-0.45743 0.42957,-0.45743 0.23626,0 0.72406,-0.41357 1.08399,-0.91905 0.39495,-0.55465 0.82517,-0.85353 1.08506,-0.7538 0.34284,0.13156 0.41235,-0.11522 0.341,-1.21045 -0.0881,-1.35185 -0.0687,-1.38428 1.11695,-1.8712 0.66362,-0.27252 1.63332,-0.88101 2.1549,-1.35218 l 0.94833,-0.85668 -0.70015,-0.64332 c -0.38508,-0.35383 -0.78546,-1.02197 -0.88974,-1.48477 -0.16518,-0.73308 0.0188,-1.04219 1.4281,-2.4 1.42645,-1.37428 1.58165,-1.63869 1.31272,-2.23642 -0.37935,-0.84316 -0.0846,-1.18992 0.55803,-0.65656 0.33333,0.27664 0.44369,0.73202 0.3557,1.46775 -0.0702,0.58667 0.0149,1.29779 0.18902,1.58025 0.32901,0.53375 0.14337,1.43974 -0.82806,4.04124 -0.62177,1.66511 -2.9914,4.11591 -3.78017,3.90964 -0.32076,-0.0839 -0.73905,0.0353 -0.92955,0.26483 -0.27216,0.32792 -0.19418,0.54284 0.36397,1.00317 l 0.71033,0.58583 -1.64528,1.44086 c -0.9049,0.79247 -2.2549,2.01386 -3,2.71418 -0.7451,0.70033 -1.57444,1.27408 -1.84299,1.275 -0.26855,9e-4 -0.65633,0.20418 -0.86173,0.45168 -0.51061,0.61524 -2.19896,0.5694 -2.78263,-0.0756 z m 13.29005,-12.84398 c 0.75473,-1.98508 -0.13606,-3.11218 -1.05509,-1.33499 -0.37981,0.73449 -0.39519,1.00416 -0.0855,1.5 0.50181,0.80354 0.78813,0.76212 1.14062,-0.16501 z m -22.76657,12.13117 c -0.0225,-0.4336 -0.25042,-1.28992 -0.50655,-1.90292 -0.72582,-1.73715 -0.37031,-1.85862 0.85115,-0.29083 1.25153,1.6064 1.38552,2.07295 0.53116,1.84953 -0.42278,-0.11056 -0.61801,0.0243 -0.70914,0.49001 -0.10502,0.53659 -0.1325,0.51254 -0.16662,-0.14579 z m -6.83163,-0.31252 c -0.75785,-0.36695 -1.34452,-1.5066 -1.03412,-2.00883 0.15458,-0.25012 0.3892,-0.16561 0.79698,0.28705 0.31785,0.35284 0.88167,0.75768 1.25292,0.89966 0.37125,0.14199 0.675,0.46399 0.675,0.71558 0,0.51887 -0.74259,0.56566 -1.69078,0.10654 z m -60.109229,-0.18029 c 0,-0.16755 0.2025,-0.38234 0.45,-0.47732 0.2475,-0.095 0.45,-0.49788 0.45,-0.89536 0,-0.39748 0.193821,-0.88354 0.430716,-1.08014 0.236895,-0.19661 0.516378,-0.74748 0.621075,-1.22417 0.216195,-0.98432 2.080954,-2.7713 2.747845,-2.63323 0.242778,0.0503 0.66843,0.49228 0.945891,0.98226 0.277461,0.48998 0.673224,1.07337 0.879474,1.29643 0.524964,0.56774 0.467937,2.79651 -0.09201,3.59595 -0.721047,1.02944 -2.905701,0.94291 -3.923584,-0.1554 -0.655077,-0.70684 -0.810852,-0.75943 -1.110675,-0.375 -0.559824,0.71782 -1.398732,1.29718 -1.398732,0.96598 z m 6.600001,-1.43654 c 0,-0.25723 -0.137202,-0.3829 -0.304893,-0.27927 -0.167691,0.10364 -0.227226,0.31411 -0.132294,0.46771 0.257169,0.41611 0.437187,0.33852 0.437187,-0.18844 z m -1.920339,-0.91647 c 1.382208,-0.6559 1.438512,-1.78635 0.09877,-1.98298 -1.060596,-0.15566 -2.378431,0.69703 -2.378431,1.53893 0,1.05863 0.698013,1.19459 2.279662,0.44405 z m 28.220342,0.88418 c -0.381555,-0.38155 -0.196914,-1.35928 0.399999,-2.11814 0.670632,-0.85257 0.761829,-1.28186 0.272319,-1.28186 -0.500247,0 -1.827441,-1.13052 -1.537533,-1.30969 0.140187,-0.0866 0.785961,0.0317 1.43505,0.26291 1.591896,0.56713 1.854915,0.54794 2.235453,-0.1631 0.425661,-0.79536 -0.190338,-2.59008 -0.957876,-2.7908 -0.30999,-0.0811 -0.547413,-0.41556 -0.547413,-0.77123 0,-0.9218 -0.935622,-0.80363 -3.340396,0.42191 -2.196996,1.11965 -3.463386,1.4165 -2.648892,0.62091 0.241608,-0.23599 2.059287,-1.2604 4.039288,-2.27644 1.98,-1.01606 3.643167,-1.88988 3.695928,-1.94185 0.05276,-0.052 -0.183489,-0.64218 -0.525,-1.3116 -0.341511,-0.66941 -0.620928,-1.4827 -0.620928,-1.80729 0,-0.68377 -1.403802,-1.89723 -2.047809,-1.77014 -0.498276,0.0983 -0.520986,0.13616 -2.025712,3.37442 -1.284936,2.76526 -1.578459,3.11426 -2.933943,3.48853 -0.549924,0.15184 -1.648665,0.88893 -2.441649,1.63797 -1.487346,1.40493 -3.553806,2.53549 -4.63443,2.53549 -0.829062,0 -1.816458,-1.03565 -1.816458,-1.90523 0,-1.02918 0.57894,-2.52249 1.047675,-2.70236 0.239283,-0.0918 0.34038,-0.40568 0.24642,-0.76499 -0.101436,-0.3879 0.156672,-1.03899 0.710331,-1.79185 1.203561,-1.63659 4.215879,-4.83557 4.553412,-4.83557 0.840366,0 0.364416,1.01997 -1.338372,2.86815 -1.054938,1.14502 -2.127216,2.5206 -2.382843,3.05685 -0.255624,0.53625 -0.562746,0.975 -0.682491,0.975 -0.119742,0 -0.356679,0.59895 -0.526521,1.33099 -0.355191,1.53092 -0.349575,1.52991 1.854732,-0.33475 0.84279,-0.71293 1.681791,-1.29624 1.864446,-1.29624 0.182655,0 0.476601,-0.27 0.653211,-0.6 0.257508,-0.48115 0.630984,-0.60091 1.885554,-0.60459 0.860445,-0.002 1.701783,-0.10378 1.869636,-0.225 0.473166,-0.34172 1.046562,-2.66571 1.349706,-5.47041 0.315546,-2.91942 0.182781,-4.05575 -0.594213,-5.08584 -0.615942,-0.81657 -0.304518,-0.94241 -3.347391,1.35266 -1.587534,1.19739 -2.655651,1.72052 -4.191051,2.05265 -0.602886,0.13042 -0.996801,0.62493 -1.751988,2.19939 -0.535827,1.11713 -1.160136,2.36864 -1.38735,2.78114 -0.227214,0.4125 -0.822123,1.6373 -1.322019,2.72177 -0.960232,2.08314 -2.150779,3.47439 -2.688676,3.14196 -0.177216,-0.10953 -0.322209,-0.41673 -0.322209,-0.68269 0,-0.73014 3.887161,-8.44405 5.01355,-9.94918 0.542547,-0.72498 0.988518,-1.46748 0.991044,-1.65 0.01008,-0.72742 0.582744,-1.16309 1.686354,-1.28291 1.157517,-0.12567 5.209053,-2.32943 5.209053,-2.83337 0,-0.14607 0.140466,-0.26558 0.312147,-0.26558 0.171681,0 0.711681,-0.29539 1.2,-0.65642 0.672954,-0.49753 0.887853,-0.8969 0.887853,-1.65 0,-0.54647 -0.0505,-0.99358 -0.112215,-0.99358 -0.360363,0 -2.887785,1.59783 -2.887785,1.82565 0,0.15089 -0.2025,0.27435 -0.45,0.27435 -0.2475,0 -0.45,-0.12396 -0.45,-0.27546 0,-0.15151 -0.07983,-0.48349 -0.177396,-0.73775 -0.219759,-0.57268 1.29525,-1.56373 3.102396,-2.02944 1.064472,-0.27432 1.275,-0.45017 1.275,-1.06496 0,-0.53976 0.140181,-0.70944 0.525,-0.63547 0.447649,0.0861 0.533635,0.49421 0.583594,2.77026 0.05507,2.509 0.477495,4.37282 0.991071,4.37282 0.124776,0 0.394929,-0.2025 0.600336,-0.45 0.644154,-0.77616 1.134504,-0.50115 2.005959,1.125 0.663102,1.23736 1.0209,1.59535 1.669041,1.66993 0.946311,0.10888 1.019448,0.50896 0.375,2.05134 -0.2475,0.59236 -0.45,1.51287 -0.45,2.0456 0,0.53273 -0.147006,1.3903 -0.326679,1.90571 -0.286893,0.82298 -0.213819,1.14548 0.6,2.64804 0.670941,1.23876 0.926679,2.11019 0.926679,3.15765 0,0.7957 -0.135,1.44673 -0.3,1.44673 -0.521691,0 -0.324567,1.37987 0.3,2.1 0.746979,0.86128 0.754269,1.2674 0.03443,1.91884 -0.311064,0.28151 -0.644025,0.90412 -0.739917,1.38358 -0.117534,0.58766 -0.495366,1.03716 -1.159434,1.37934 -0.541794,0.27917 -1.161489,0.75749 -1.377093,1.06291 -0.397614,0.56327 -0.994005,0.71932 -1.357989,0.35533 z m 3.339999,-9.76 c 0.198,-0.198 0.36,-0.46376 0.36,-0.59059 0,-0.37348 -0.838782,0.0583 -1.01739,0.52379 -0.19974,0.52052 0.166461,0.55773 0.65739,0.0668 z m -2.040882,-8.40286 c 6e-4,-0.28207 0.34626,-0.83311 0.76839,-1.22453 l 0.767505,-0.71167 -0.842505,-0.9194 c -0.46338,-0.50567 -0.977508,-1.13111 -1.142508,-1.38988 -0.526119,-0.82508 -1.694463,0.44892 -1.874217,2.04371 -0.24498,2.17344 0.0282,2.76418 1.265952,2.73745 0.787398,-0.017 1.056723,-0.15345 1.057383,-0.53568 z m -12.6595,17.30014 c -0.293415,-0.64397 -0.257385,-0.85132 0.231432,-1.33188 0.955698,-0.93955 5.863179,-3.39117 6.171342,-3.08301 0.448266,0.44827 0.01827,1.07624 -1.28568,1.87761 -0.671199,0.4125 -1.530747,1.03545 -1.910109,1.38433 -0.864693,0.79522 -2.428887,1.91567 -2.674347,1.91567 -0.101817,0 -0.341502,-0.34322 -0.532638,-0.76272 z m 50.835388,0.11025 c -0.95724,-0.59178 -1.35203,-1.74753 -0.59694,-1.74753 0.53799,0 2.02194,1.44007 2.02194,1.96214 0,0.5599 -0.22765,0.52562 -1.425,-0.21461 z m -24.471458,0.15602 c -0.486699,-0.4867 -0.11532,-0.93402 1.071453,-1.29053 0.701245,-0.21066 1.666395,-0.50227 2.144765,-0.64802 1.11488,-0.33968 1.38024,-0.33377 1.38024,0.0307 0,0.82171 -4.015772,2.4885 -4.596458,1.90781 z m 7.161398,-1.27936 c -0.1886,-0.30517 0.61158,-1.22419 1.0659,-1.22419 0.15839,0 0.37092,0.21613 0.47229,0.48028 0.28257,0.73637 -1.12279,1.41604 -1.53819,0.74391 z m 22.70448,-0.10149 c -0.64442,-0.2055 -1.04244,-0.55917 -1.16103,-1.03167 -0.2665,-1.06181 0.0181,-1.13867 1.54997,-0.4186 0.93338,0.43874 1.35066,0.80804 1.28654,1.1386 -0.12241,0.63109 -0.47067,0.69586 -1.67548,0.31167 z m -16.11857,-0.82001 c -0.21765,-0.68575 0.0575,-1.29473 0.46988,-1.03988 0.36402,0.22498 0.36357,1.63719 -6e-4,1.63719 -0.15389,0 -0.3651,-0.26879 -0.46937,-0.59731 z m 6.71098,-1.3557 c -0.45957,-0.2493 -0.85502,-0.77557 -0.94851,-1.26227 -0.22266,-1.15913 -0.0378,-1.21626 0.93122,-0.28785 0.46106,0.44172 1.00955,0.80313 1.21887,0.80313 0.43779,0 0.33805,0.95629 -0.11341,1.08742 -0.165,0.0479 -0.65468,-0.10527 -1.08817,-0.34043 z m -22.579738,-0.32153 c -0.438807,-1.1435 -0.232185,-1.30194 1.014852,-0.77818 1.368513,0.57478 1.484022,0.80745 0.528051,1.06363 -1.049961,0.28138 -1.346439,0.22653 -1.542903,-0.28545 z m 34.617908,-1.25411 c 0,-0.65603 0.53783,-0.97135 1.65683,-0.97135 1.54199,0 1.09214,1.13241 -0.55611,1.39988 -0.96389,0.15642 -1.10072,0.10315 -1.10072,-0.42853 z m -5.27574,-0.81708 c -0.2575,-1.02598 -0.17305,-1.07378 1.16091,-0.6571 1.3932,0.4352 1.39185,1.21098 -0.002,1.34607 -0.82182,0.0796 -0.9909,-0.0209 -1.15857,-0.68897 z m 4.37574,-3.29271 c 0,-0.72854 0.65295,-1.05676 2.81888,-1.41695 1.18349,-0.19682 0.76115,0.6554 -0.68896,1.39023 -1.87402,0.94963 -2.12992,0.95285 -2.12992,0.0267 z m -21.95356,-0.23211 c -0.0645,-0.45469 -0.27011,-0.65029 -0.62144,-0.5913 -0.3828,0.0643 -0.525,-0.11376 -0.525,-0.65729 0,-0.95976 0.58992,-1.33418 0.80518,-0.51104 0.0906,0.3466 0.35155,0.63018 0.5798,0.63018 0.24001,0 0.41502,0.30881 0.41502,0.73229 0,0.9558 -0.52866,1.27706 -0.65356,0.39716 z m -6.67207,-0.42411 c -0.25443,-0.66304 -0.0414,-0.81809 0.39744,-0.2893 0.21304,0.2567 0.243,0.5012 0.0742,0.60553 -0.15572,0.0962 -0.36796,-0.0461 -0.47163,-0.31623 z m 33.20444,-1.93999 c -0.66832,-0.19304 -1.03039,-0.51641 -1.16103,-1.03691 -0.28231,-1.12482 0.0273,-1.20356 1.68309,-0.42803 0.9965,0.46674 1.49913,0.88613 1.49913,1.25087 0,0.60471 -0.48939,0.65654 -2.02119,0.21407 z m -43.278816,-0.82994 c 0,-0.33 0.135,-0.68343 0.3,-0.78541 0.165,-0.10198 0.3,0.0846 0.3,0.41459 0,0.33 -0.135,0.68343 -0.3,0.78541 -0.165,0.10198 -0.3,-0.0846 -0.3,-0.41459 z m -28.675556,-0.40605 c -0.800853,-2.48713 0.230484,-6.21863 3.18348,-11.51824 2.046205,-3.67223 2.005645,-3.61755 2.39473,-3.22846 0.190209,0.19021 -0.333111,1.60096 -1.494937,4.03 -1.844442,3.8562 -3.307719,8.30356 -3.307719,10.0532 0,1.20391 -0.471621,1.60739 -0.775554,0.6635 z m 66.100562,-0.24726 c -0.50318,-0.29894 -0.79376,-2.26025 -0.3,-2.02481 1.1987,0.57155 2.16799,1.37556 2.10099,1.74271 -0.10049,0.55068 -1.08847,0.70543 -1.80099,0.2821 z m -37.511931,-1.4821 c -0.113742,-0.43495 -0.0092,-0.6 0.380022,-0.6 0.295308,0 0.60753,0.27 0.693828,0.6 0.113742,0.43495 0.0092,0.6 -0.380022,0.6 -0.295308,0 -0.60753,-0.27 -0.693828,-0.6 z m 25.724591,-0.0199 c -0.23831,-0.38559 -0.17958,-0.44651 0.68734,-0.71299 0.73421,-0.22568 0.88707,0.10087 0.315,0.67295 -0.44469,0.44468 -0.74485,0.45667 -1.00234,0.04 z m -59.460319,-0.69984 c -0.80076,-1.01801 -1.163268,-2.19283 -1.721838,-5.5802 -0.23127,-1.4025 -0.498642,-2.8875 -0.594159,-3.3 -0.14571,-0.62926 -0.129564,-0.65341 0.10029,-0.15 0.343389,0.75207 0.468606,0.43274 0.882264,-2.25 0.329829,-2.13907 0.951132,-3.95492 1.160892,-3.39288 0.0733,0.19641 -0.01611,0.87141 -0.198726,1.5 -0.182604,0.62858 -0.412794,2.90542 -0.51153,5.05963 -0.190392,4.15385 0.03829,5.52206 1.18194,7.07131 0.319956,0.43344 0.533913,1.0364 0.475461,1.33992 -0.09205,0.47799 -0.195714,0.43814 -0.774594,-0.29778 z m 84.222659,-0.82728 c 0,-0.74512 0.69813,-1.9571 1.45997,-2.53455 0.26301,-0.19935 0.3564,-0.54299 0.23415,-0.86157 -0.15498,-0.40389 -0.4136,-0.48791 -1.08711,-0.35321 -0.48606,0.0972 -0.96636,0.0431 -1.06733,-0.12029 -0.11035,-0.17856 -0.65059,-0.0346 -1.35449,0.36106 -0.94861,0.53315 -1.13917,0.78454 -1.00374,1.32413 0.21113,0.84124 -0.16971,1.07885 -1.35064,0.84266 -0.72755,-0.14551 -0.93081,-0.34175 -0.93081,-0.89866 0,-0.50394 0.16952,-0.7125 0.57913,-0.7125 0.36334,0 0.61486,-0.24087 0.675,-0.64642 0.22221,-1.49834 4.62292,-1.8561 5.7142,-0.46454 0.8658,1.10404 0.66424,2.17366 -0.66833,3.54679 -1.12265,1.15681 -1.2,1.19015 -1.2,0.5171 z M 42.637426,124.4331 c -0.09005,-0.53625 -0.262584,-1.245 -0.383406,-1.575 -0.15554,-0.42482 -0.124221,-0.51241 0.107272,-0.3 0.402982,0.36977 0.984942,2.85 0.668722,2.85 -0.125872,0 -0.302536,-0.43875 -0.392588,-0.975 z m 56.406989,-0.79179 c -0.186129,-0.71176 0.202506,-1.37723 0.6447,-1.10394 0.483095,0.29857 0.416185,1.67073 -0.08147,1.67073 -0.228255,0 -0.48171,-0.25506 -0.563229,-0.56679 z m -7.721761,-1.98321 c 0,-0.2475 0.120558,-0.45 0.267903,-0.45 0.147348,0 0.345609,0.2025 0.440586,0.45 0.105186,0.27411 6e-4,0.45 -0.267903,0.45 -0.242322,0 -0.440586,-0.2025 -0.440586,-0.45 z m 25.100006,-0.05 c -0.31121,-0.31121 -0.23516,-1.3 0.1,-1.3 0.165,0 0.3,0.3375 0.3,0.75 0,0.78542 -0.0693,0.8807 -0.4,0.55 z m 7.35848,-1.15 c 0.006,-0.495 0.0734,-0.66118 0.14941,-0.36929 0.0761,0.29189 0.0711,0.69689 -0.0111,0.9 -0.0822,0.20311 -0.14441,-0.0357 -0.13829,-0.53071 z m -73.352938,-3.14753 c -0.745416,-2.20829 -1.027581,-3.6245 -0.646143,-3.24306 0.08768,0.0877 0.219396,0.47089 0.292713,0.8516 0.07332,0.3807 0.420459,1.55509 0.771426,2.60975 0.35097,1.05466 0.581748,1.97395 0.512841,2.04286 -0.06891,0.0689 -0.487785,-0.94861 -0.930837,-2.26115 z m 89.814758,1.23546 c -0.43472,-0.81227 -0.41882,-1.93423 0.0235,-1.66084 0.1891,0.11687 0.89785,-0.069 1.575,-0.413 0.67714,-0.34402 1.46742,-0.69744 1.75617,-0.78538 0.28875,-0.0879 0.525,-0.40164 0.525,-0.69713 0,-0.90378 -1.03195,-1.30657 -2.81157,-1.09741 l -1.61137,0.18938 -0.33327,-1.89203 c -0.1833,-1.04062 -0.2608,-1.96451 -0.17222,-2.05309 0.22853,-0.22853 0.71837,0.62007 0.72384,1.254 0.006,0.63952 0.88579,0.99355 2.693,1.08307 1.62749,0.0806 2.03843,0.38947 2.28797,1.71965 0.27252,1.4526 -0.31977,2.70853 -1.37705,2.91998 -0.54229,0.10846 -1.00148,0.47724 -1.25506,1.00796 -0.49331,1.03243 -1.57705,1.25992 -2.02397,0.42484 z m -19.8203,-2.73793 c 0,-0.165 0.135,-0.3 0.3,-0.3 0.165,0 0.3,0.135 0.3,0.3 0,0.165 -0.135,0.3 -0.3,0.3 -0.165,0 -0.3,-0.135 -0.3,-0.3 z m 6.8,-0.2 c -0.11,-0.11 -0.19145,-0.48125 -0.18099,-0.825 0.0175,-0.57468 0.0422,-0.56714 0.30645,0.0936 0.29379,0.73446 0.23285,1.08975 -0.12546,0.73144 z m -75.930722,-0.61206 c -0.162804,-0.42756 -0.128346,-0.46202 0.16794,-0.16794 0.205026,0.2035 0.297201,0.44557 0.204834,0.53794 -0.09237,0.0924 -0.260115,-0.0741 -0.372774,-0.37 z m 32.112813,-0.26248 c -0.321129,-0.83684 -0.200118,-1.02546 0.657903,-1.02546 0.896382,0 1.56,0.47219 1.56,1.11 0,0.58364 -1.990617,0.50776 -2.217903,-0.0845 z m 25.917909,0.17454 c 0,-0.165 0.135,-0.3 0.3,-0.3 0.165,0 0.3,0.135 0.3,0.3 0,0.165 -0.135,0.3 -0.3,0.3 -0.165,0 -0.3,-0.135 -0.3,-0.3 z m -4.6317,-0.27038 c -0.10181,-0.16473 0.0887,-0.44604 0.42329,-0.62512 0.69203,-0.37036 0.8252,0.0421 0.18511,0.57333 -0.273,0.22658 -0.48901,0.24497 -0.6084,0.0518 z m 30.7317,-0.31906 c 0,-0.65118 0.82263,-1.21056 1.78028,-1.21056 0.91572,0 0.75463,0.81483 -0.26538,1.3423 -1.17359,0.60688 -1.5149,0.5772 -1.5149,-0.13174 z m -93.309793,-0.94689 c -0.447825,-1.6631 0.05468,-2.92765 1.259097,-3.16853 1.064713,-0.21294 1.397504,-0.68316 0.742806,-1.04955 -0.795376,-0.44511 -0.625293,-1.70073 0.260492,-1.92305 0.907485,-0.22777 1.066734,-0.82479 1.33303,-4.99754 0.0079,-0.12375 0.495734,-0.225 1.084081,-0.225 1.38538,0 2.230278,-0.46607 2.230278,-1.23028 0,-1.570675 0.98085,-2.130085 2.511783,-1.432546 0.791313,0.360546 1.321479,0.03174 4.53436,-2.812173 1.430997,-1.266661 2.069763,-1.372992 3.153858,-0.525 0.483855,0.378476 1.229064,0.590479 2.1,0.597426 2.331222,0.01859 2.698725,0.221193 2.651322,1.461651 -0.02292,0.600006 0.05073,1.380447 0.163677,1.734312 0.199149,0.6239 -0.195135,1.26165 -1.128285,1.82499 -0.211017,0.12739 -0.586731,0.97412 -0.834918,1.88162 -0.248187,0.9075 -0.575124,1.61052 -0.726522,1.56227 -0.492969,-0.15711 -0.162153,-3.10021 0.468651,-4.16935 1.102317,-1.868283 0.640479,-3.112929 -0.761586,-2.052459 -0.947733,0.716826 -1.563,0.558177 -1.786791,-0.460731 -0.408396,-1.859413 -1.6557,-1.508193 -2.840655,0.799881 -0.592977,1.155009 -0.912543,1.470389 -1.489899,1.470389 -0.527985,0 -0.794181,0.21125 -0.945096,0.75 -0.358834,1.281 -0.277972,4.22137 0.202128,7.35 0.814713,5.30915 0.749865,6.13079 -0.165735,2.1 -0.487243,-2.145 -0.890485,-4.38741 -0.896092,-4.98313 -0.0056,-0.59572 -0.09477,-1.70016 -0.198144,-2.45432 -0.159267,-1.16199 -0.325602,-1.42821 -1.090227,-1.74493 -0.796929,-0.3301 -0.951651,-0.30624 -1.325085,0.20432 -0.232542,0.31793 -0.500955,0.88931 -0.596478,1.26972 -0.123492,0.49182 -0.35835,0.66746 -0.812845,0.6079 -0.351544,-0.0461 -1.089706,0.10286 -1.640359,0.33095 -0.889368,0.36839 -0.98508,0.51828 -0.856972,1.3421 0.09422,0.60589 -0.06251,1.26803 -0.452111,1.91001 -0.327981,0.54044 -0.529567,1.15659 -0.447971,1.36923 0.202593,0.52794 -0.368378,3.55775 -0.759594,4.03072 -0.253321,0.30626 -0.423777,0.28543 -0.854525,-0.10439 -0.653189,-0.59113 -1.229779,-0.30518 -1.160397,0.57547 0.143489,1.82128 -0.450293,1.92397 -0.925276,0.16002 z m 8.136622,-0.27953 c -0.851001,-1.63268 -1.526514,-4.5625 -1.483483,-6.43414 0.03065,-1.3333 0.06336,-1.25066 0.294246,0.74361 0.276913,2.39179 0.971704,4.82108 1.699087,5.94075 0.244524,0.3764 0.375471,0.75348 0.290994,0.83796 -0.08448,0.0845 -0.444858,-0.4052 -0.800844,-1.08818 z m 24.873164,-0.3768 c 0,-0.54596 0.198207,-1.25471 0.44046,-1.575 0.24225,-0.32029 0.44475,-0.81097 0.45,-1.09041 0.009,-0.48164 1.36734,-1.92856 3.008565,-3.20486 l 0.749022,-0.58248 -0.899022,-0.35934 c -0.494463,-0.19764 -1.100157,-0.46002 -1.345986,-0.58308 -0.272538,-0.13642 -0.78687,0.0224 -1.317987,0.40705 -0.567471,0.41095 -0.913335,0.51119 -0.992424,0.28763 -0.06677,-0.18873 -0.405105,-0.26896 -0.75186,-0.17828 -0.597999,0.15638 -0.619989,0.0859 -0.427062,-1.36843 0.163233,-1.2305 0.09968,-1.65444 -0.321825,-2.14672 -0.288873,-0.33738 -0.663972,-0.6127 -0.833553,-0.61181 -0.579087,0.003 -2.579166,3.1442 -4.010358,6.29839 -0.786111,1.7325 -1.59358,3.4875 -1.794379,3.9 l -0.365085,0.75 0.128595,-0.75 c 0.236427,-1.37891 1.708315,-5.12558 2.778364,-7.0723 1.121946,-2.04113 1.052958,-2.33514 -0.506937,-2.16042 -0.663063,0.0743 -0.747756,-0.0399 -0.828834,-1.11728 -0.08052,-1.06997 -0.665059,-1.949999 -1.295248,-1.949999 -0.121482,0 -0.572133,0.742499 -1.001448,1.649999 -0.429318,0.9075 -0.911622,1.65 -1.071789,1.65 -0.599748,0 -0.259779,-1.73209 0.60879,-3.101684 0.495,-0.780534 0.9,-1.600962 0.9,-1.823172 0,-0.520053 2.744353,-1.448604 3.133876,-1.060344 0.17832,0.177738 0.07761,0.433779 -0.270831,0.688566 -0.745662,0.545241 -0.346584,1.215972 0.465045,0.781602 0.607287,-0.325011 2.671911,0.182115 2.671911,0.656292 0,0.121398 0.43875,0.263028 0.975,0.314733 0.736479,0.07101 0.997755,0.253809 1.068009,0.747217 0.140559,0.98715 0.787524,1.4086 1.542264,1.00467 0.498165,-0.26661 0.659421,-0.24048 0.801531,0.12985 0.244191,0.63635 -0.129399,1.9955 -0.735177,2.67464 -0.450069,0.50457 -0.378744,0.49687 0.69393,-0.075 1.454874,-0.77562 1.568304,-0.78138 1.787493,-0.0908 0.09542,0.30063 0.712011,0.84927 1.370217,1.2192 0.904233,0.50821 1.196733,0.85855 1.196733,1.43341 0,0.46949 0.402048,1.16285 1.050001,1.8108 0.5775,0.5775 1.05,1.104 1.05,1.17 0,0.066 -0.327714,0.12 -0.728256,0.12 -0.459699,0 -0.999829,-0.347 -1.464679,-0.94097 l -0.736422,-0.94097 -1.085313,0.86597 c -0.668916,0.53373 -1.085316,1.12495 -1.085322,1.54097 -6e-6,0.37125 -0.140586,0.675 -0.312399,0.675 -0.171816,0 -0.731997,0.675 -1.244844,1.5 -0.512847,0.825 -1.047273,1.5 -1.18761,1.5 -0.140334,0 -0.255156,-0.4467 -0.255156,-0.99266 z m -3.9,-0.78303 c 0,-0.31663 0.191754,-0.95788 0.42612,-1.425 0.234366,-0.46712 0.652875,-1.40754 0.930015,-2.08983 0.297558,-0.73255 0.81459,-1.38209 1.262646,-1.58623 1.084023,-0.49392 1.175718,-0.19101 0.268548,0.8871 -0.433032,0.51463 -0.787329,1.13655 -0.787329,1.38205 0,0.24551 -0.286623,1.11265 -0.636942,1.92699 -0.636684,1.48001 -1.463058,1.99113 -1.463058,0.90492 z m 40.500007,-2.22781 c 0,-0.79678 0.84781,-1.6965 1.59862,-1.6965 0.703,0 0.61716,0.30339 -0.40319,1.425 -1.05721,1.16213 -1.19543,1.19352 -1.19543,0.2715 z m 22.314,0.26787 c -0.29397,-0.76606 0.18352,-1.06437 1.7037,-1.06437 1.83989,0 2.05494,0.71277 0.3573,1.18423 -1.50339,0.41751 -1.86281,0.39661 -2.061,-0.11986 z m -32.81401,-0.59666 c 0,-0.92503 0.36343,-1.15685 1.03908,-0.6628 0.49426,0.36142 0.4957,0.41746 0.0228,0.89039 -0.70553,0.70553 -1.06185,0.62915 -1.06185,-0.22759 z m 18.90001,-0.682 c 0,-0.75027 0.0382,-0.77611 0.48549,-0.32878 0.26703,0.26702 0.39406,0.63345 0.2823,0.81428 -0.36817,0.59571 -0.76779,0.34301 -0.76779,-0.4855 z m 21.90423,-0.52458 c -0.2425,-0.63781 -0.42823,-0.74144 -1.04944,-0.58553 -1.12238,0.2817 -0.97758,-0.57281 0.31632,-1.86671 0.98855,-0.98855 1.05506,-1.16611 0.86291,-2.30346 -0.25957,-1.53636 -0.72527,-2.30543 -1.39601,-2.30543 -0.6998,0 -2.70916,0.94925 -3.11963,1.47375 -0.18369,0.23472 -0.5517,0.33929 -0.825,0.23441 -0.69887,-0.26818 -0.61805,-1.10816 0.10662,-1.10816 0.33,0 0.6,-0.12868 0.6,-0.28596 0,-0.34275 2.55575,-1.514039 3.30363,-1.514039 0.73351,0 1.42384,1.168439 1.98541,3.360469 0.37495,1.46355 0.40136,1.986 0.12295,2.43181 -0.2145,0.34348 -0.27855,1.01781 -0.16212,1.70696 0.22966,1.35936 -0.30916,1.90992 -0.74564,0.76189 z m -51.234951,-0.76167 c -0.644928,-1.03269 -0.781209,-2.8331 -0.24795,-3.27567 0.404109,-0.33538 0.478665,-0.32291 0.478665,0.0801 0,0.30103 0.1662,0.41354 0.45,0.30464 0.512574,-0.19669 0.638193,0.63979 0.142122,0.94638 -0.169332,0.10465 -0.277062,0.64785 -0.239397,1.2071 0.08399,1.24711 -0.111141,1.49376 -0.58344,0.73749 z M 56.246337,107.2331 c 0.0144,-0.34948 0.08548,-0.42057 0.181248,-0.18125 0.08666,0.21656 0.07601,0.47531 -0.02367,0.575 -0.09969,0.0997 -0.170592,-0.0775 -0.157566,-0.39375 z m 76.457593,-1.36 c -0.54719,-1.02242 0.17556,-1.50937 1.82286,-1.22815 1.78853,0.30533 1.9886,1.09818 0.38918,1.54232 -1.59128,0.44188 -1.8252,0.40866 -2.21204,-0.31417 z m -76.09957,-0.865 c 0,-0.7425 0.05851,-1.04625 0.130011,-0.675 0.07151,0.37125 0.07151,0.97875 0,1.35 -0.07151,0.37125 -0.130011,0.0675 -0.130011,-0.675 z m 80.0183,0.80642 c 0,-0.35338 1.53655,-1.70642 1.93785,-1.70642 0.46,0 0.0627,0.93466 -0.62831,1.47823 -0.91177,0.71719 -1.30954,0.78651 -1.30954,0.22819 z m -30.77871,-1.22304 c -0.19559,-0.50971 0.0673,-1.08338 0.49641,-1.08338 0.37834,0 0.36198,1.11534 -0.0198,1.35131 -0.16617,0.1027 -0.38063,-0.0179 -0.47658,-0.26793 z m 11.57871,-1.50838 c 0,-0.50415 0.16456,-0.775 0.47086,-0.775 0.3127,0 0.43866,0.21884 0.375,0.6515 -0.14132,0.96045 -0.84586,1.06332 -0.84586,0.1235 z m -60.552641,-0.475 c 0,-0.4125 0.06809,-0.58125 0.151317,-0.375 0.08322,0.20625 0.08322,0.54375 0,0.75 -0.08322,0.20625 -0.151317,0.0375 -0.151317,-0.375 z m 50.352641,-0.11923 c 0,-0.70049 0.9949,-1.38586 1.40967,-0.9711 0.2833,0.28331 -0.14916,1.03683 -0.79273,1.38126 -0.54512,0.29174 -0.61694,0.24399 -0.61694,-0.41016 z m -10.012505,0.17991 c -0.228579,-0.36985 0.200859,-0.88933 0.831378,-1.00569 0.312882,-0.0577 0.627882,0.0638 0.699999,0.27001 0.07212,0.20625 -0.08263,0.375 -0.343878,0.375 -0.261249,0 -0.474999,0.135 -0.474999,0.3 0,0.35769 -0.502488,0.40048 -0.7125,0.0607 z m 31.970865,-0.88173 c 0.0504,-0.25595 0.43557,-0.72188 0.85593,-1.03541 1.01384,-0.756164 3.28571,-0.48318 3.28571,0.3948 0,0.4322 -0.22474,0.56331 -0.975,0.56882 -0.53625,0.004 -1.48874,0.12641 -2.11664,0.27216 -0.95907,0.22262 -1.12698,0.19058 -1.05,-0.20037 z m -3.15502,-0.71617 c -0.15576,-0.59564 0.0484,-0.74053 1.82166,-1.292937 0.48668,-0.151611 0.675,-0.08872 0.675,0.225437 0,0.42734 -0.86476,1.12151 -1.84544,1.48139 -0.3343,0.12268 -0.54611,-0.0119 -0.65122,-0.41389 z M 93.482654,99.548101 c -0.546936,-0.546936 -0.439491,-1.44 0.173247,-1.44 0.293289,0 0.841119,0.21564 1.217406,0.479202 0.651273,0.456171 0.658086,0.498966 0.14175,0.890457 -0.676638,0.513036 -1.071579,0.53117 -1.532403,0.07034 z m 41.881076,-0.941787 c -0.22098,-0.22098 -0.80438,-0.532083 -1.29643,-0.691338 -0.59231,-0.1917 -1.08768,-0.679428 -1.46586,-1.443232 l -0.57121,-1.153682 0.79621,-0.580002 c 0.43792,-0.319002 0.79534,-0.737493 0.79428,-0.929981 -0.003,-0.557545 -2.39805,-3.199978 -2.9003,-3.199978 -0.25055,0 -1.32325,0.761798 -2.38378,1.692884 -1.06052,0.931086 -2.02149,1.599611 -2.13549,1.485611 -0.32512,-0.32512 0.31187,-1.139614 1.7499,-2.237528 0.72688,-0.554968 1.37218,-1.145453 1.434,-1.312188 0.10931,-0.294813 -0.97816,-0.206257 -2.66239,0.216807 -0.65728,0.165102 -0.8377,0.0211 -1.45936,-1.16477 -0.65412,-1.247801 -0.83971,-1.382336 -2.3836,-1.727842 -1.88781,-0.422473 -3.32655,-1.687599 -3.35823,-2.952974 -0.0103,-0.4125 -0.29289,-1.079341 -0.62793,-1.481869 -0.55768,-0.670021 -0.70895,-0.705234 -1.79002,-0.41668 -1.01578,0.271128 -1.18151,0.247624 -1.18546,-0.16813 -0.0116,-1.220696 -0.4563,-1.378058 -2.20988,-0.781997 -1.44505,0.491187 -1.75866,0.51092 -2.42788,0.152766 -0.71459,-0.382436 -0.83749,-0.3444 -1.75235,0.542315 -0.95525,0.925865 -1.70529,1.228727 -1.70529,0.688584 0,-0.145755 -0.27,-0.335617 -0.6,-0.421914 -0.40044,-0.104716 -0.6,-0.409205 -0.6,-0.915459 0,-0.417206 -0.13914,-1.124497 -0.30918,-1.571758 l -0.30918,-0.813201 -0.68516,0.643672 c -1.1042,1.037347 -1.96566,0.845011 -2.51847,-0.562297 l -0.47372,-1.205968 -0.74483,1.280968 c -0.40965,0.704532 -1.04558,1.618468 -1.41316,2.030968 -0.699595,0.785067 -1.228048,3 -0.715765,3 0.17472,0 0.257859,1.058714 0.206139,2.625 -0.141345,4.280502 -0.676788,3.133001 -0.769917,-1.65 -0.04578,-2.35125 -0.159939,-4.275 -0.253689,-4.275 -0.09375,0 -0.561618,0.278537 -1.039716,0.618971 -0.951909,0.67782 -1.473357,0.56132 -1.473357,-0.329176 0,-0.478661 -0.150525,-0.54469 -0.900001,-0.394795 -0.808197,0.161639 -0.9,0.103418 -0.9,-0.570767 0,-0.412921 0.181617,-0.901494 0.403593,-1.085718 0.612846,-0.508617 2.192953,-0.748613 2.42773,-0.368738 0.252261,0.408171 2.114919,0.433623 2.852323,0.03897 0.29931,-0.160186 0.74849,-0.801436 0.99816,-1.425 0.5207,-1.300427 1.53149,-2.33455 1.99929,-2.045435 0.1754,0.108401 0.31891,0.780096 0.31891,1.492655 0,1.345666 0.58414,2.199648 1.23111,1.799802 0.55156,-0.340889 2.75672,-0.397832 3.3456,-0.08639 0.42753,0.226109 0.48939,0.5119 0.32855,1.517786 l -0.19816,1.239225 1.17145,-0.866404 c 0.64429,-0.476522 1.55305,-1.174335 2.01946,-1.550696 1.0743,-0.866882 1.22659,-0.857858 1.66234,0.09851 0.37629,0.825867 0.22839,0.81359 2.96465,0.246097 0.66483,-0.137884 0.88324,-0.03596 1.125,0.525 0.199,0.461769 0.60297,0.730113 1.2,0.797131 0.495,0.05557 1.00839,0.292594 1.14087,0.526731 0.16231,0.286853 0.49543,0.361813 1.02133,0.229822 0.75485,-0.189455 0.77291,-0.162441 0.5504,0.823269 -0.47395,2.099595 -0.4244,2.228935 0.8124,2.120689 0.96502,-0.08446 1.125,-0.01131 1.125,0.514445 0,0.708156 0.82256,1.234016 1.93027,1.234016 0.61608,0 0.76973,0.146177 0.76973,0.732295 0,1.102556 0.33574,1.227176 3.99293,1.48209 0.95862,0.06682 1.7733,0.169665 1.81041,0.228551 0.0371,0.05888 0.73779,1.02159 1.55707,2.139343 1.20596,1.64532 1.61948,2.009993 2.17175,1.915233 1.39818,-0.239903 1.0392,1.171986 -0.53432,2.101486 -0.91447,0.540188 -1.20133,1.272996 -0.52284,1.335607 0.20625,0.01903 0.51,0.05278 0.675,0.075 0.53537,0.07209 1.95,1.595388 1.95,2.099796 0,0.592971 -0.70504,0.642708 -1.25893,0.08881 z m -23.12831,-0.08545 c -0.22349,-0.223491 0.10352,-1.101171 0.51535,-1.383171 0.52202,-0.357444 1.37189,-0.260973 1.37189,0.155724 0,0.435552 -1.62333,1.491357 -1.88724,1.227447 z M 85.248119,97.583101 c -0.257139,-0.28875 -0.772587,-1.114856 -1.145442,-1.835792 -0.637857,-1.233336 -0.650145,-1.36629 -0.207966,-2.25 0.258474,-0.516564 0.546261,-1.175458 0.639531,-1.464208 0.207276,-0.641701 1.388412,-0.705505 1.388412,-0.075 0,0.2475 -0.119256,0.45 -0.265011,0.45 -0.378384,0 -0.589491,1.002764 -0.409416,1.944755 0.118773,0.621323 0.287556,0.76949 0.741369,0.650815 0.512214,-0.133947 0.558255,-0.05052 0.358929,0.650387 -0.12576,0.442224 -0.210963,1.175293 -0.189339,1.629043 0.04533,0.951156 -0.24582,1.047027 -0.911067,0.3 z m -9.998572,-0.51816 c -0.692631,-1.057087 -0.722322,-2.655227 -0.05189,-2.79297 0.383388,-0.07877 0.525,0.08511 0.525,0.607564 0,0.393486 0.27,1.00524 0.6,1.359454 0.33,0.354213 0.6,0.852169 0.6,1.106569 0,0.731589 -1.134567,0.541296 -1.673106,-0.280617 z m 50.873113,0.279525 c 0,-1.011882 3.13629,-3.158363 3.9132,-2.678203 0.53307,0.329456 0.29142,0.648627 -0.89674,1.184413 -0.65094,0.293534 -1.48447,0.854037 -1.85229,1.245561 -0.77344,0.823293 -1.16417,0.906606 -1.16417,0.248229 z m -24.00001,-0.436365 c 0,-0.33 0.12661,-0.6 0.28136,-0.6 0.15475,0 0.26102,0.27 0.23616,0.6 -0.0249,0.33 -0.15147,0.6 -0.28136,0.6 -0.12988,0 -0.23616,-0.27 -0.23616,-0.6 z M 69.572653,95.958008 c -1.84141,-1.018448 -2.429839,-2.441389 -1.511064,-3.654067 0.230919,-0.304788 0.346524,-0.745257 0.256896,-0.97882 -0.08962,-0.233564 0.0138,-0.637632 0.229821,-0.897931 0.346716,-0.417767 0.43119,-0.420738 0.720318,-0.02533 0.180147,0.246365 0.659751,0.494805 1.065786,0.552089 1.141185,0.161001 0.901128,0.963915 -0.383046,1.281157 -1.630698,0.402847 -1.7664,1.20919 -0.412269,2.449737 1.453536,1.331615 1.472979,2.069282 0.03356,1.273166 z m 0.802293,-0.944242 c -0.637071,-0.678131 -0.901965,-2.005665 -0.400206,-2.005665 0.374535,0 1.844439,2.162915 1.666056,2.451546 -0.249939,0.404408 -0.574419,0.290114 -1.26585,-0.445881 z m 21.42763,0.185849 c -0.383997,-1.216054 -0.27498,-3.425028 0.192078,-3.892086 0.575685,-0.575686 1.263774,-0.240733 0.936585,0.455917 -0.127776,0.27206 -0.23823,1.225196 -0.245454,2.118079 -0.01305,1.614883 -0.540795,2.402464 -0.883209,1.31809 z M 57.322653,94.608101 c -0.429468,-0.429468 -0.151272,-1.066271 1.021776,-2.338877 0.744516,-0.807705 1.535538,-1.361733 2.025,-1.418298 0.573843,-0.06632 0.925773,-0.371259 1.232364,-1.067825 0.48438,-1.100507 0.784125,-1.191734 1.572237,-0.478504 0.511215,0.462644 0.588771,0.460163 1.137447,-0.03638 0.588894,-0.532942 1.511175,-0.45311 1.511175,0.130806 0,0.170362 -0.537483,0.831359 -1.194408,1.468883 -0.837327,0.812596 -1.39788,1.125329 -1.875,1.046059 -0.521043,-0.08657 -0.874785,0.171134 -1.50897,1.099281 -0.731226,1.070172 -0.901668,1.173131 -1.453305,0.877904 -0.511044,-0.273503 -0.746301,-0.220427 -1.290957,0.291252 -0.720483,0.676858 -0.871575,0.731489 -1.177359,0.425703 z m 41.500002,-0.165464 c 0,-0.720457 0.324705,-1.434536 0.652314,-1.434536 0.159216,0 0.196878,0.301993 0.08418,0.675 -0.273378,0.904852 -0.736497,1.382458 -0.736497,0.759536 z m 6.300005,0.09 c 0,-0.484882 0.35667,-1.224536 0.59049,-1.224536 0.12447,0 0.16179,0.3375 0.0829,0.75 -0.13406,0.701294 -0.67342,1.081363 -0.67342,0.474536 z M 78.004177,93.642934 c -0.613251,-0.677634 -0.94659,-3.738768 -0.387147,-3.555271 0.195591,0.06415 0.397176,0.534945 0.447963,1.0462 0.05079,0.511255 0.28704,1.091139 0.525,1.28863 0.462144,0.383545 0.602817,1.785608 0.179157,1.785608 -0.139428,0 -0.483666,-0.254325 -0.764973,-0.565167 z m 44.225153,0.190167 c 0.0104,-0.587537 1.06743,-1.816965 1.45192,-1.688802 0.22472,0.07491 0.10848,0.455542 -0.33117,1.084427 -0.70782,1.012486 -1.13208,1.241273 -1.12075,0.604375 z m -6.14145,-1.35 c 0.20314,-1.4331 0.83077,-2.479006 1.24128,-2.068499 0.12143,0.121432 0.0571,0.482815 -0.14286,0.803072 -0.2,0.320257 -0.36364,0.843076 -0.36364,1.16182 0,0.803382 -0.30861,1.528607 -0.65048,1.528607 -0.16989,0 -0.20416,-0.579401 -0.0843,-1.425 z M 90.251804,91.98183 c -0.251217,-1.000925 -0.07252,-1.700622 0.531462,-2.080963 0.689205,-0.434009 1.052235,-0.0025 0.603033,0.716807 -0.200004,0.320257 -0.363645,0.921617 -0.363645,1.336356 0,0.962346 -0.531483,0.981513 -0.77085,0.0278 z m 31.075446,-0.698729 c -0.003,-0.53625 0.13041,-0.975 0.29541,-0.975 0.38106,0 0.38106,0.910352 0,1.5 -0.22068,0.341477 -0.29192,0.214867 -0.29541,-0.525 z m -42.147853,-1.05 c -0.250692,-1.434044 -0.0534,-4.575 0.287373,-4.575 0.161766,0 0.253353,0.564574 0.203532,1.254608 -0.04982,0.690035 0.06306,1.541703 0.250854,1.892596 0.360258,0.673148 0.138009,2.402796 -0.308745,2.402796 -0.144414,0 -0.33927,-0.43875 -0.433014,-0.975 z m 14.471986,-0.574588 c -0.144711,-0.985985 0.22899,-2.891208 0.655467,-3.34173 0.125643,-0.132724 0.66966,-0.297157 1.208931,-0.365406 l 0.980491,-0.124088 -0.199653,1.265406 c -0.455352,2.886036 -2.33119,4.705555 -2.645236,2.565818 z m 13.271277,-0.986296 c 0,-2.2154 0.44992,-3.464116 1.24815,-3.464116 0.65968,0 0.69663,0.533343 0.0923,1.332339 -0.2699,0.356833 -0.44046,1.257169 -0.44046,2.325 0,1.349032 -0.10165,1.742661 -0.45,1.742661 -0.35352,0 -0.45,-0.415098 -0.45,-1.935884 z m -40.617911,0.561348 c -0.100155,-0.260995 -0.182097,-0.728798 -0.182097,-1.039561 0,-0.747482 1.720957,-2.685903 2.384581,-2.685903 0.565425,0 1.311039,0.731186 1.613016,1.581804 0.352254,0.992241 1.153191,0.986135 1.989111,-0.01516 1.162281,-1.392225 3.913293,-2.516263 3.913293,-1.598937 0,0.425511 -2.186508,2.425978 -3.480342,3.184216 -1.722744,1.009595 -2.272707,0.953283 -2.948679,-0.301921 -0.865554,-1.607238 -1.699215,-1.318787 -2.384362,0.825 -0.208923,0.653715 -0.663303,0.679065 -0.904521,0.05046 z M 83.689778,89.00772 c -0.438261,-0.320463 -0.585105,-0.981634 -0.735687,-3.312444 -0.176856,-2.737469 -0.150276,-2.936871 0.44334,-3.325822 0.34731,-0.227567 1.060674,-0.842958 1.585251,-1.367536 0.879498,-0.879496 1.00581,-0.920492 1.621875,-0.526394 0.416106,0.266184 1.148895,0.378769 1.942824,0.298495 1.048884,-0.106052 1.438698,-0.335915 2.200209,-1.297403 0.509016,-0.642683 1.085937,-1.168515 1.282053,-1.168515 0.196113,0 0.602748,0.457125 0.90363,1.015833 0.473289,0.878844 0.492615,1.111466 0.14331,1.725 -0.440571,0.773835 -0.555507,1.550522 -0.644994,4.358568 -0.06709,2.105329 -0.359934,2.615288 -1.005006,1.750127 -0.318687,-0.427421 -0.429285,-1.245437 -0.385263,-2.849528 0.08225,-2.997077 0.08812,-2.982207 -0.768867,-1.95 -0.728955,0.877996 -0.758328,0.885664 -1.201446,0.313649 -0.39681,-0.51224 -0.508233,-0.531199 -0.881547,-0.150001 -0.235026,0.239994 -0.515889,0.797835 -0.624138,1.239647 -0.167739,0.684616 -0.06104,0.873508 0.722211,1.278543 0.834921,0.431755 0.887904,0.543562 0.578919,1.221705 -0.492594,1.081129 -1.600518,0.993734 -2.204316,-0.17388 -0.261759,-0.506186 -0.418467,-1.079936 -0.34824,-1.275 0.07022,-0.195065 0.01089,-0.582074 -0.131823,-0.860021 -0.150177,-0.292452 -0.137928,-0.82513 0.02907,-1.264379 0.473355,-1.245018 -0.164574,-1.173069 -1.200939,0.135449 -1.285173,1.622664 -1.540767,3.55916 -0.632004,4.788331 0.351003,0.474758 0.557655,1.073067 0.459222,1.329576 -0.218979,0.570646 -0.440112,0.583364 -1.14765,0.066 z m 19.855772,-0.08609 c -0.15737,-0.258961 -0.34217,-2.603297 -0.26318,-3.338525 0.0222,-0.20625 0.29047,-0.375 0.59625,-0.375 0.48889,0 0.53866,0.190006 0.41258,1.575 -0.1505,1.653146 -0.47502,2.583881 -0.74565,2.138525 z m 8.61108,-0.520562 c -0.2583,-1.029174 0.0755,-1.919816 0.92917,-2.47916 1.04796,-0.686651 1.49568,-0.39663 0.78414,0.507946 -0.32767,0.416569 -0.64111,1.145429 -0.69653,1.619689 -0.12911,1.104937 -0.77191,1.327168 -1.01678,0.351525 z M 76.563442,86.799703 c -0.192747,-0.952474 0.295644,-3.699902 0.792504,-4.458206 0.74967,-1.144142 2.532159,-1.032182 3.573198,0.224437 0.436428,0.526809 0.79351,1.126342 0.79351,1.332295 0,0.704128 -0.643885,0.773234 -1.316545,0.141303 -1.059423,-0.995277 -1.473174,-0.774646 -2.29614,1.224404 -0.787863,1.913779 -1.355883,2.477848 -1.546527,1.535767 z M 103.1565,82.781961 c -0.30916,-0.500225 0.38616,-1.073853 0.80002,-0.66 0.34617,0.346178 0.12951,0.98614 -0.33386,0.98614 -0.14553,0 -0.3553,-0.146763 -0.46616,-0.32614 z"
       id="path5714"
       inkscape:connector-curvature="0" />
  </g>
</svg>
