<?xml version="1.0" encoding="UTF-8" standalone="no"?>
<!-- Created with Inkscape (http://www.inkscape.org/) -->

<svg
   xmlns:dc="http://purl.org/dc/elements/1.1/"
   xmlns:cc="http://creativecommons.org/ns#"
   xmlns:rdf="http://www.w3.org/1999/02/22-rdf-syntax-ns#"
   xmlns:svg="http://www.w3.org/2000/svg"
   xmlns="http://www.w3.org/2000/svg"
   xmlns:xlink="http://www.w3.org/1999/xlink"
   xmlns:sodipodi="http://sodipodi.sourceforge.net/DTD/sodipodi-0.dtd"
   xmlns:inkscape="http://www.inkscape.org/namespaces/inkscape"
   width="901.52277"
   height="712.41138"
   id="svg2"
   version="1.1"
   inkscape:version="0.92.4 (5da689c313, 2019-01-14)"
   sodipodi:docname="sleepydinosaur.svg">
  <defs
     id="defs4">
    <linearGradient
       inkscape:collect="always"
       id="linearGradient3810">
      <stop
         style="stop-color:#307686;stop-opacity:1;"
         offset="0"
         id="stop3812" />
      <stop
         style="stop-color:#2b7279;stop-opacity:1"
         offset="1"
         id="stop3814" />
    </linearGradient>
    <radialGradient
       inkscape:collect="always"
       xlink:href="#linearGradient3810"
       id="radialGradient3816"
       cx="-1327.1262"
       cy="684.81281"
       fx="-1327.1262"
       fy="684.81281"
       r="446.55142"
       gradientTransform="matrix(1,0,0,0.78051204,0,150.30817)"
       gradientUnits="userSpaceOnUse" />
  </defs>
  <sodipodi:namedview
     id="base"
     pagecolor="#ffffff"
     bordercolor="#666666"
     borderopacity="1.0"
     inkscape:pageopacity="0.0"
     inkscape:pageshadow="2"
     inkscape:zoom="0.66"
     inkscape:cx="65.221494"
     inkscape:cy="352.73609"
     inkscape:document-units="px"
     inkscape:current-layer="layer1"
     showgrid="false"
     fit-margin-top="0"
     fit-margin-left="0"
     fit-margin-right="0"
     fit-margin-bottom="0"
     inkscape:window-width="1920"
     inkscape:window-height="1015"
     inkscape:window-x="0"
     inkscape:window-y="0"
     inkscape:window-maximized="1" />
  <metadata
     id="metadata7">
    <rdf:RDF>
      <cc:Work
         rdf:about="">
        <dc:format>image/svg+xml</dc:format>
        <dc:type
           rdf:resource="http://purl.org/dc/dcmitype/StillImage" />
        <dc:title></dc:title>
      </cc:Work>
    </rdf:RDF>
  </metadata>
  <g
     inkscape:label="Layer 1"
     inkscape:groupmode="layer"
     id="layer1"
     transform="translate(1773.6776,-336.27407)">
    <g
       id="g866">
      <ellipse
         id="path4279"
         style="opacity:0.2;fill:#483737;fill-opacity:1;stroke:none;stroke-width:0.90237784"
         cx="-1310.223"
         cy="1016.2991"
         rx="438.06818"
         ry="32.386364" />
      <path
         sodipodi:nodetypes="scscscscccssccccccsssscc"
         inkscape:connector-curvature="0"
         id="rect3989-1"
         d="m -876.57385,953.30008 c -0.14834,-3.27741 -10.74841,-19.57258 -11.30902,-19.88953 -0.56061,-0.31707 1.22966,13.45939 -3.28985,15.95003 -8.53116,4.7013 -16.05073,11.17022 -23.41814,13.50525 -5.13778,1.62828 -5.27277,3.13009 -0.72565,7.9436 6.46563,6.84441 14.02829,8.87285 22.92366,6.19405 10.24012,-3.08344 16.33982,-12.19688 15.819,-23.7034 z m -46.30534,14.66427 c -0.0432,-0.33694 -0.1498,-0.6311 -0.26734,-0.90429 -0.45943,-1.06768 -1.49225,-1.15467 -4.41241,-0.3229 -7.71332,2.19691 -31.41964,5.8351 -41.51871,6.37337 -31.17535,1.66157 -67.83985,-6.1452 -87.66735,-18.65981 -2.4909,-1.57217 -5.1778,-2.57037 -5.9703,-2.20819 -2.3116,1.05664 -1.3497,9.8482 1.7326,15.8491 4.7062,9.16199 14.9444,14.65443 26.2401,14.05396 5.7197,-0.30413 9.8727,-2.37021 13.4037,-6.68243 1.2827,-1.56614 2.6034,-2.86097 2.9493,-2.87937 0.3458,-0.0184 1.2731,1.93976 2.0293,4.35303 3.3991,10.84885 12.4053,16.92174 24.21524,16.29371 9.57733,-0.50929 15.72455,-4.72155 19.44789,-13.36728 1.43473,-3.33156 3.39834,-4.76543 3.50703,-2.54817 0.10256,2.09221 8.21253,9.37827 12.26465,11.025 5.03405,2.04579 16.49604,1.74678 21.15855,-0.56751 6.1054,-3.03069 13.53568,-14.75468 12.88775,-19.80822 z"
         style="fill:#d6d2bf;fill-opacity:1;stroke:none" />
      <path
         inkscape:connector-curvature="0"
         id="use3992"
         d="m -1350.9375,336.28125 c -2.6654,-0.0188 -5.3487,0.002 -8.0313,0.0312 -5.7228,0.0623 -11.4863,0.24925 -17.2812,0.53125 -53.803,2.6187 -98.7358,13.0055 -148.5625,34.3125 -86.3216,36.9128 -163.8067,105.8463 -209.4687,186.375 -14.9745,26.4085 -28.234,64.0382 -34.7188,98.5 -6.2392,33.1542 -6.2344,96.90745 0,133.25 8.4943,49.51906 29.4915,101.27022 56.0938,138.25 37.2752,51.31197 83.4622,79.9149 112.7812,88.4375 22.0872,6.468 36.8018,8.1433 72,8.2813 22.0484,0.086 42.2999,-0.8311 57.0938,-2.5939 l 22.9062,-2.7187 17.9062,4.0937 c 9.8499,2.2494 28.4166,5.4714 41.25,7.1564 31.7489,4.1684 98.7324,4.2264 138.3438,0.125 15.5833,-1.6136 43.708,-4.1034 62.5,-5.5314 57.322,-4.3555 98.1005,-11.0263 131.4062,-21.4687 20.5925,-4.73283 34.0026,-10.89535 50,-25.68745 l 3.2813,-3.09375 20.71875,-0.6875 c 51.0831,-1.66488 80.26895,-9.89262 95.59375,-26.9375 6.7671,-7.52658 6.98015,-8.81457 6.28125,-36.875 -2.3789,-95.51289 -20.7676,-182.20205 -51.40625,-242.28125 -23.7829,-46.6358 -60.76983,-86.5675 -104.875,-113.25 -6.0057,-3.6332 -11.3994,-7.12565 -12,-7.78125 -0.6011,-0.6553 -2.5635,-6.3626 -4.3438,-12.6875 -8.6214,-30.6311 -24.0979,-61.4692 -43.9062,-87.4375 -9.4444,-12.3807 -29.4587,-32.7178 -42.1562,-42.8125 -54.5146,-43.3401 -128.7748,-66.9191 -211.4063,-67.5 z"
         style="fill:#2f6674;fill-opacity:1" />
      <path
         inkscape:connector-curvature="0"
         id="path4074"
         d="m -1647.5082,678.56497 c 2.3015,-35.66566 13.8876,-70.54751 33.3508,-100.40776 28.3609,-43.51124 76.9526,-76.93919 129.2738,-88.93212 17.1648,-3.93447 28.7667,-4.89826 50.8209,-4.22175 23.5372,0.722 39.613,3.48127 58.7531,10.08442 17.952,6.19327 17.9217,6.01293 0.9101,5.40571 -41.3614,-1.47639 -83.5738,8.67503 -120.4841,28.97456 -17.0699,9.3879 -60.213,36.877 -73.225,46.65611 -31.5873,23.73917 -59.9831,61.15606 -73.9483,97.44083 -6.1733,16.03964 -6.1631,16.03024 -5.4513,5 z"
         style="color:#000000;display:inline;overflow:visible;visibility:visible;opacity:0.06000001;fill:#ffffff;fill-opacity:1;fill-rule:nonzero;stroke:none;stroke-width:0.7272343;marker:none;enable-background:accumulate" />
      <path
         inkscape:connector-curvature="0"
         id="rect4024"
         d="m -1547.7661,565.0593 c -59.2196,38.50738 -100.145,105.17695 -103.5139,176.08757 -2.6624,44.81474 10.7709,89.81587 36.4036,126.62712 33.7185,52.54136 93.3346,85.88182 155.1278,90.55113 53.9145,4.81689 108.21,-11.21025 152.7577,-41.50941 28.4314,-17.6814 57.9382,-34.83755 80.3222,-60.12478 48.7698,-51.74033 71.9605,-128.17981 54.4212,-197.79383 -8.7484,-35.76323 -28.0759,-68.79153 -52.9396,-95.85815 -42.8129,-45.65709 -107.3092,-67.98126 -169.3139,-62.80215 -42.7042,3.05712 -83.7011,19.14067 -119.0281,43.24592 -11.4005,7.21049 -22.8934,14.27807 -34.237,21.57658 z"
         style="fill:#d05555;fill-opacity:1;stroke:none" />
      <path
         sodipodi:nodetypes="ssscssscsscsssssccsssssscssss"
         inkscape:connector-curvature="0"
         id="path4162"
         d="m -1354.5503,1032.6392 c -11,-0.4337 -23,-1.1489 -26.6667,-1.5894 -14.1541,-1.7004 -35.087,-5.2718 -49.887,-8.5115 l -15.4425,-3.3803 -16.2241,1.8551 c -34.7341,3.9717 -91.4779,4.0178 -114.0019,0.093 -25.3846,-4.4237 -46.4082,-13.2306 -68.6284,-28.74888 l -8.6284,-6.02595 24.7395,-0.65052 c 44.634,-1.17364 80.8739,-7.79368 126.9109,-23.18317 l 20.0508,-6.70268 7.7778,1.32299 c 12.4182,2.11235 35.2711,2.61856 53.855,1.19295 52.9508,-4.06198 102.6479,-22.90371 150.5894,-57.09323 39.4869,-28.16002 67.8602,-59.37932 85.5072,-94.08401 11.6157,-22.84335 16.8943,-41.61079 19.6637,-69.91189 l 1.3457,-13.75165 c 31.2979,-29.62622 95.3727,-116.22565 117.662,-173.32927 0.407,-1.22117 22.3539,13.06728 36.9326,24.04485 19.71976,14.84881 48.4148,46.32462 63.05198,69.16225 39.78547,62.07519 62.75001,154.87943 65.95838,266.55072 0.80388,27.98023 0.54978,29.64218 -5.65787,37.00434 -4.41037,5.23064 -14.74834,11.95522 -24.15793,15.71411 -15.99528,6.3897 -34.69362,9.41773 -69.11822,11.19305 l -23.07744,1.19014 -8.4995,6.9098 c -15.2193,12.3729 -21.2655,15.13596 -50.4572,23.05855 -42.7048,11.5901 -63.2848,14.5802 -156.3756,22.7202 -64.1889,5.6128 -93.5535,6.6722 -137.2222,4.9507 z"
         style="color:#000000;display:inline;overflow:visible;visibility:visible;opacity:0.1;fill:#000000;fill-opacity:1;fill-rule:nonzero;stroke:none;stroke-width:0.7272343;marker:none;enable-background:accumulate" />
      <path
         style="fill:#bc3434;fill-opacity:1;stroke:none"
         d="m -1514.6442,600.02041 c -48.2945,31.40341 -81.6698,85.77359 -84.4173,143.60241 -2.1712,36.54718 8.7838,73.24637 29.6877,103.2666 27.498,42.84835 76.1161,70.03808 126.5096,73.846 43.968,3.92824 88.2468,-9.14215 124.5764,-33.85166 23.1862,-14.41948 47.2497,-28.41058 65.5041,-49.03276 39.7727,-42.19511 58.6849,-104.53284 44.3814,-161.30427 -7.1344,-29.16552 -22.8964,-56.10068 -43.1731,-78.17394 -34.9147,-37.23414 -87.5124,-55.4399 -138.0783,-51.21626 -34.8259,2.49315 -68.26,15.60956 -97.0697,35.26779 -9.2972,5.88026 -18.6699,11.64402 -27.9208,17.59609 z"
         id="use4607"
         inkscape:connector-curvature="0" />
      <path
         inkscape:connector-curvature="0"
         id="rect4024-3"
         d="m -1467.958,655.07035 c -28.5026,18.53374 -48.2001,50.62205 -49.8216,84.7516 -1.2814,21.56949 5.1841,43.2287 17.5212,60.9461 16.2288,25.28834 44.9223,41.33523 74.6636,43.58259 25.9492,2.31839 52.0818,-5.39553 73.5228,-19.97863 13.6841,-8.51013 27.8859,-16.76744 38.6594,-28.93828 23.4731,-24.90281 34.6348,-61.69341 26.1931,-95.1989 -4.2106,-17.21298 -13.513,-33.10962 -25.48,-46.13688 -20.606,-21.97492 -51.6483,-32.71963 -81.4914,-30.22691 -20.5537,1.4714 -40.2857,9.21248 -57.2887,20.81442 -5.4871,3.47043 -11.0187,6.8721 -16.4784,10.38489 z"
         style="fill:#a02c2c;fill-opacity:1;stroke:none" />
      <path
         inkscape:connector-curvature="0"
         id="path4002"
         d="m -1218.1771,730.84375 c -30.6337,0.86097 -59.1139,14.46734 -84.9012,29.79461 -20.6617,12.43015 -35.8086,33.85572 -59.6412,40.92787 -31.6586,10.14986 -66.319,19.89736 -88.9193,45.66308 -15.3349,18.06413 -22.0449,43.00627 -18.8195,66.61444 1.4046,5.36375 -1.0677,12.4981 2.7187,16.90625 6.5023,2.51965 14.3722,-1.61248 20.5625,2.71875 6.9714,3.00864 10.3864,11.26899 17.6875,13.5 5.0769,-2.40757 4.4527,-9.94965 9.8438,-12.375 9.4839,-7.27964 22.7814,-5.92146 31.9687,1.0625 4.1655,2.05569 7.9262,7.01766 12.8125,6.84375 5.1887,-5.85754 5.3707,-15.12992 11.5313,-20.59375 6.937,-8.55302 19.3109,-6.92072 28.6562,-4.3125 5.2419,1.49888 9.3342,6.17408 14.75,6.78125 3.3879,-4.81855 0.066,-11.66538 1.1563,-17.21875 1.3785,-14.18856 16.7641,-23.70917 30.25,-22.5 7.0384,0.18358 13.4765,2.94046 20.1562,4.875 0.7843,-9.72045 -2.7338,-21.82888 5.1875,-29.34375 7.0416,-7.90075 17.292,-14.01856 28.2485,-11.91328 4.5491,-0.36296 10.6504,2.15164 14.2203,-1.36797 -1.7825,-6.73523 -7.8421,-12.06695 -6.6875,-19.625 0.2768,-11.67786 9.4275,-22.26691 21.1875,-23.875 6.5334,-1.72519 13.2764,-2.47455 19.9062,-3.75 -6.6425,-8.91437 -13.7784,-19.43475 -11.0937,-31.125 1.9648,-12.67619 13.1636,-22.03586 25.75,-23.5625 11.2028,-1.19838 0.4724,-3.52461 -4.5045,-5.54044 -13.3372,-5.44643 -27.5058,-9.06396 -42.0268,-8.58456 z"
         style="fill:#cb5a5a;fill-opacity:1;stroke:none" />
      <path
         inkscape:connector-curvature="0"
         id="path3982"
         d="m -1376.7917,498.69792 c -53.2984,0.3237 -106.4339,16.4133 -152.3438,46.5625 -59.3642,38.9853 -98.6325,84.5833 -114.5312,133 -14.2804,43.489 -12.8451,88.15585 4.5625,141.5625 2.4649,7.5625 4.697,13.75 4.9687,13.75 0.2719,0 1.7021,-0.65943 3.1876,-1.4375 9.4602,-4.95617 17.2099,-21.21972 15.75,-33.125 -1.7002,-13.86215 -11.7673,-24.36155 -25.1876,-26.28125 -2.5767,-0.3686 -4.8315,-1.151 -5.0312,-1.75 -0.1996,-0.5989 2.2926,-2.76295 5.5625,-4.78125 11.4294,-7.0548 19.147,-18.7485 19.0937,-28.9375 -0.042,-8.0718 -5.8513,-16.87505 -15.0624,-22.84375 -2.6979,-1.7482 -4.9063,-3.74765 -4.9063,-4.40625 0,-0.7638 2.4385,-1.34775 6.75,-1.65625 15.2876,-1.0938 24.25,-11.19135 24.25,-27.34375 0,-8.003 -2.5095,-15.46535 -7.9375,-23.59375 -4.4688,-6.6922 -4.9528,-8.26945 -2.3125,-7.46875 13.969,4.2363 23.557,2.41705 32.5937,-6.21875 9.7504,-9.3175 11.0622,-21.83065 3.5626,-33.65625 -4.562,-7.1935 -4.0937,-7.67495 4.625,-4.90625 11.0035,3.4943 19.3585,3.30285 27.2812,-0.65625 14.3124,-7.1519 20.1336,-21.19955 15.75,-37.96875 -0.7862,-3.0073 -1.073,-5.8532 -0.625,-6.3125 0.4479,-0.4593 2.7868,0.38995 5.1875,1.90625 11.136,7.0339 22.5263,7.2216 33.125,0.5 8.0966,-5.1347 12.75,-15.4621 12.75,-28.25 0,-4.4589 0.4065,-6.8127 1.1563,-6.8125 0.6304,0 3.3233,2.02765 6,4.53125 6.7563,6.3199 13.8116,9.4528 21.3437,9.4375 13.5154,-0.0275 23.3657,-8.91655 26.5937,-23.96875 0.5924,-2.7618 1.6341,-5 2.3126,-5 0.678,0 2.2065,1.7403 3.4062,3.875 2.8953,5.1514 9.0197,10.5844 13.6875,12.125 5.575,1.8398 14.3736,0.72375 20.4687,-2.59375 5.6,-3.0478 10.7294,-9.21335 14,-16.84375 1.1188,-2.61 2.5524,-4.55545 3.1876,-4.34375 0.6349,0.2117 1.6653,2.1409 2.3124,4.3125 4.0862,13.7067 12.0256,20.46855 24.0313,20.46875 10.061,0 16.8643,-4.0624 23.5,-14 1.2854,-1.9251 2.511,-3.70975 2.7187,-3.96875 0.8938,-1.1129 2.2361,2.78385 2.25,6.53125 0.039,10.4359 6.1146,19.1808 15.1876,21.875 11.658,3.4624 22.4836,0.8539 36.0312,-8.6875 2.7113,-1.9097 3.0619,-0.4311 1.7188,7.5625 -2.3778,14.1499 1.6072,22.77585 13.25,28.59375 9.7161,4.8552 17.5624,3.8855 25.375,-3.1875 l 4.6562,-4.21875 -10.3438,-10.0625 c -26.4731,-25.7101 -65.2106,-43.4488 -107.0624,-49 -12.2294,-1.6219 -24.5442,-2.3874 -36.8438,-2.3125 z m 194.9375,135.03125 c -1.104,0.0104 -2.5673,0.65195 -4.7813,1.78125 -8.1189,4.1422 -11.989,12.0913 -10.0624,20.6875 2.2812,10.1799 9.2853,19.47445 18.0312,23.90625 2.7156,1.3761 4.9375,2.6608 4.9375,2.875 0,0.2141 -2.2341,2.00405 -4.9687,3.96875 -14.5263,10.4358 -14.177,33.8547 0.75,49.8125 5.2572,5.6205 4.7102,7.0878 -2.3126,6.125 -8.0423,-1.1023 -18.9371,6.9657 -23.9062,17.6875 -5.1946,11.208 -2.4537,24.23385 7.0938,33.78125 2.9404,2.94041 5.3437,5.54212 5.3437,5.78125 0,0.91703 -3.644,0.35609 -4.7187,-0.71875 -1.9871,-1.98691 -17.0514,-0.5352 -22.75,2.1875 -14.7448,7.04476 -20.9994,22.61434 -14.25,35.46875 1.4438,2.75 3.5662,6.39162 4.6874,8.09375 l 2.0313,3.09375 -5.75,-1.96875 c -8.6476,-2.93045 -20.8819,-2.14816 -28.0937,1.78125 -13.2505,7.21941 -19.7164,20.7975 -16.0938,33.84375 0.587,2.11408 0.9229,3.98324 0.7188,4.1875 -0.2045,0.20426 -3.2507,-0.77402 -6.75,-2.1875 -9.1835,-3.70931 -20.5138,-3.75176 -27.6563,-0.0937 -6.9801,3.5748 -10.9093,7.10652 -14.125,12.59375 -2.3594,4.02605 -2.7185,5.61389 -2.5937,12.125 0.079,4.12742 0.5839,9.42608 1.125,11.75 l 1,4.21875 -4.1563,-3.34375 c -2.276,-1.84643 -6.6,-4.64899 -9.625,-6.21875 -4.782,-2.48156 -6.6095,-2.87031 -14,-2.875 -9.1649,-0.006 -12.894,1.2843 -18.3437,6.34375 -3.6336,3.3732 -5.6129,7.16927 -7.6876,14.65625 -2.1607,7.79949 -4.1974,8.25916 -10.75,2.4375 -7.3424,-6.52357 -13.3081,-8.92074 -22.2187,-8.90625 -11.8032,0.0192 -17.7151,3.57141 -21.9687,13.1875 -1.1425,2.58286 -2.5,4.9409 -3,5.25 -0.5003,0.30909 -2.2436,-1.36994 -3.875,-3.71875 -9.4403,-13.58911 -20.6587,-17.01872 -34.8126,-10.6875 -7.1869,3.21491 -12.1313,7.256 -15.5,12.6875 -2.9933,4.82669 -4.837,4.25304 -4.8437,-1.5 -0.018,-15.50924 -9.1652,-25.25 -23.7187,-25.25 -7.9479,0 -14.3789,3.01602 -20.0313,9.4375 -2.2015,2.50103 -4.4602,4.5625 -5,4.5625 -0.5398,0 -1.2551,-2.66616 -1.5937,-5.90625 -1.6923,-16.19052 -10.1769,-27.29684 -23.0938,-30.1875 -4.9247,-1.10211 -5.7041,-1.00921 -10.8438,1.34375 -9.1675,4.19704 -9.1006,5.03781 1.5626,15.4375 5.0645,4.93952 12.7556,11.34284 17.0937,14.25 10.3502,6.9361 29.439,16.03842 42.875,20.4375 12.9232,4.23119 40.7944,10.28753 53.25,11.5625 14.3288,1.4667 44.0021,0.52578 60.375,-1.90625 21.7181,-3.22601 47.6456,-10.18777 65.625,-17.625 57.4669,-23.77131 112.3963,-67.27526 142.1563,-112.5625 7.3383,-11.16727 16.8285,-30.44986 21.2812,-43.25 6.8382,-19.6576 10.7557,-48.61535 9.7188,-72.09375 -0.9477,-21.4552 -5.9662,-51.39165 -11.7813,-70.21875 -1.3503,-4.3719 -2.16,-6.1424 -4,-6.125 z"
         style="fill:#f4eed7;fill-opacity:1;stroke:none" />
      <path
         sodipodi:nodetypes="sscccssscssssss"
         inkscape:connector-curvature="0"
         id="path4128"
         d="m -1371.1059,1031.8437 c -18.2326,-1.375 -73.9405,-11.1822 -76.1672,-13.4089 -0.2272,-0.2272 2.9425,-1.8498 7.0438,-3.606 185.7912,-31.19107 406.8946,-252.06599 427.2469,-245.87841 3.5513,-2.72427 6.5953,-4.77545 6.7644,-4.5582 6.34324,8.14727 18.20354,30.47847 23.22454,43.72834 8.6271,22.76578 12.2086,43.28303 12.2194,70 0.0117,29.1276 -7.3679,59.56781 -19.3333,79.74871 -2.4544,4.13957 -4.3373,8.38957 -4.1843,9.44445 0.5025,3.46262 -1.3172,6.91795 -3.6431,6.91795 -1.2291,0 -5.82044,2.92874 -10.20294,6.5083 -15.7663,12.87767 -23.5805,16.53358 -51.6575,24.16816 -23.2606,6.3249 -40.0452,9.7962 -64.0885,13.2546 -19.6876,2.8318 -100.0774,10.5018 -139.4444,13.3045 -24.8823,1.7714 -86.431,1.9864 -107.7778,0.3765 z"
         style="color:#000000;display:inline;overflow:visible;visibility:visible;opacity:0.1;fill:#000000;fill-opacity:1;fill-rule:nonzero;stroke:none;stroke-width:0.7272343;marker:none;enable-background:accumulate" />
      <path
         inkscape:connector-curvature="0"
         id="rect3989"
         d="m -988.91927,775.90755 c -3.28115,0.0231 -6.26576,0.52343 -6.60598,1.08765 -0.34034,0.56422 1.27867,4.91041 3.57805,9.65842 4.34029,8.96246 8.96913,21.0714 10.99374,28.74312 1.4118,5.35001 2.90679,5.54821 7.90713,1.06042 7.10997,-6.3813 9.45361,-14.08147 7.1496,-23.33872 -2.65211,-10.65668 -11.50307,-17.29205 -23.02254,-17.21089 z m 12.71315,48.21753 c -0.3385,0.0311 -0.63684,0.12918 -0.91471,0.23931 -1.08614,0.43047 -1.21639,1.48958 -0.50759,4.52665 1.87213,8.02213 4.51448,32.55452 4.62927,42.96554 0.35424,32.13833 -8.98245,69.54962 -22.31802,89.45332 -1.67534,2.50054 -2.78531,5.22531 -2.45661,6.05492 0.95901,2.41988 9.78413,1.77762 15.90954,-1.15634 9.35211,-4.47953 15.26917,-14.79532 15.1424,-26.43996 -0.0643,-5.8963 -1.95483,-10.25056 -6.11588,-14.05358 -1.5112,-1.38139 -2.74965,-2.79138 -2.75354,-3.14785 -0.004,-0.35646 1.99156,-1.23325 4.43469,-1.91577 10.98294,-3.06828 17.42835,-12.09374 17.29559,-24.26841 -0.10767,-9.87312 -4.05921,-16.3637 -12.54232,-20.53582 -3.26886,-1.60767 -4.61936,-3.68445 -2.39929,-3.70866 2.09493,-0.0228 9.71513,-8.07834 11.5303,-12.18202 2.25512,-5.0981 2.43656,-16.90182 0.31932,-21.78997 -2.7726,-6.40088 -14.17626,-14.50826 -19.25315,-14.04136 z"
         style="fill:#d6d2bf;fill-opacity:1;stroke:none" />
      <path
         inkscape:connector-curvature="0"
         id="path4065"
         d="m -1371.75,691.9375 c -15.589,0.0657 -28.7537,18.65493 -21.0625,33.03125 4.1311,8.03871 14.2346,12.6228 15.7187,22.03125 -1.5854,8.47257 -13.5011,14.94851 -20.9375,9.4375 -7.1711,-7.47234 -8.0138,-19.59552 -16.3125,-25.90625 -11.1151,-4.81501 -27.3146,-2.06747 -31.9375,10.4375 -9.7981,26.32094 14.1004,59.05175 42.4375,56.375 23.2467,-1.94594 44.3511,-14.93378 60.5938,-31.15625 8.8551,-10.56568 15.1601,-25.34327 9.9062,-39 -5.241,-17.25861 -18.4476,-35.85045 -38.4062,-35.25 z"
         style="fill:#782121;fill-opacity:1;stroke:none" />
      <path
         inkscape:connector-curvature="0"
         id="use4170"
         d="m -1380.0625,491.53125 c -51.9355,0.25072 -101.8749,19.71295 -143.7187,48.9375 -0.069,0.048 -0.1502,0.077 -0.2188,0.125 -29.3594,17.59026 -58.7255,37.09193 -80.75,64.40625 -0.024,0.0291 -0.039,0.0646 -0.062,0.0937 -44.9517,52.98759 -66.0447,127.2921 -48.9375,195.6875 12.2475,49.02517 41.3969,93.82989 81.875,124.09375 v 0.0312 c 53.7782,39.95667 125.8334,51.93973 190.0938,34.65625 0.022,-0.006 0.04,-0.0253 0.062,-0.0312 31.5404,-8.04029 60.8841,-23.07957 87.5626,-41.1875 0.062,-0.0421 0.1255,-0.0829 0.1874,-0.125 33.2549,-19.94619 66.0158,-42.94541 89.2813,-75.21875 0.022,-0.0305 0.041,-0.0632 0.062,-0.0937 43.1818,-57.10996 59.2473,-136.07981 34.5312,-204.5 h 0.031 c -19.9666,-56.36056 -62.2039,-105.22588 -117.9063,-128.625 -0.01,-0.004 -0.022,0.004 -0.031,0 -28.9246,-12.47271 -60.5055,-18.72177 -92.0312,-18.25 -0.011,1.6e-4 -0.021,-1.6e-4 -0.031,0 z m 0.094,8 h 0.031 c 30.407,-0.45931 60.8925,5.59459 88.7813,17.625 h 0.031 c 53.374,22.41165 94.2317,69.54821 113.5,123.9375 h 0.031 c 23.6797,65.55103 8.1929,142.02137 -33.4687,197.0625 l -0.031,0.0312 -0.031,0.0625 c -22.2788,30.94531 -54.1462,53.43214 -87.1562,73.21875 l -0.094,0.0625 -0.094,0.0625 c -26.1947,17.80182 -54.8123,32.4306 -85.2812,40.1875 l -0.031,0.0312 c -61.9259,16.67622 -131.654,5.03804 -183.3126,-33.34375 -38.9162,-29.09614 -67.0736,-72.38591 -78.875,-119.625 -16.4072,-65.597 3.9063,-137.5417 47.3126,-188.65625 l 0.031,-0.0312 0.031,-0.0625 c 21.0648,-26.15858 49.6978,-45.27185 78.9376,-62.78125 l 0.125,-0.0625 0.125,-0.0937 c 40.8072,-28.55001 89.386,-47.39082 139.4374,-47.625 z"
         style="color:#000000;font-style:normal;font-variant:normal;font-weight:normal;font-stretch:normal;font-size:medium;line-height:normal;font-family:Sans;-inkscape-font-specification:Sans;text-indent:0;text-align:start;text-decoration:none;text-decoration-line:none;letter-spacing:normal;word-spacing:normal;text-transform:none;writing-mode:lr-tb;direction:ltr;baseline-shift:baseline;text-anchor:start;display:inline;overflow:visible;visibility:visible;fill:#336d80;fill-opacity:1;stroke:none;stroke-width:8;marker:none;enable-background:accumulate" />
      <path
         inkscape:connector-curvature="0"
         id="path4069"
         d="m -1418.4846,1039.7055 c -2.646,-2.8551 -4.938,-8.6625 -6.7422,-17.0834 -4.4719,-20.8714 -5.6599,-24.7694 -8.1886,-26.868 -4.0896,-3.3941 -8.433,-0.4099 -12.6721,8.7067 -2.8417,6.1113 -5.1578,8.8927 -7.7072,9.2556 -5.6475,0.8039 -8.5762,-5.5507 -11.4343,-24.80983 -3.2939,-22.19605 -5.2041,-28.4828 -10.336,-34.01733 l -4.1558,-4.48192 9.7853,1.39517 c 13.3221,1.89942 50.3834,1.31529 66.5491,-1.0489 18.1208,-2.6501 47.9792,-10.50723 63.4105,-16.68625 7.037,-2.81775 13.1194,-4.79834 13.5164,-4.40131 0.3971,0.39702 -0.4914,3.06812 -1.9743,5.93577 -1.7182,3.32262 -3.0211,11.38926 -3.5918,22.23821 -1.1707,22.25267 -2.7605,26.52971 -9.613,25.86211 -4.4882,-0.43725 -5.8029,-1.79394 -9.8674,-10.18208 -4.5582,-9.40721 -4.8595,-9.66335 -10.781,-9.16667 -6.7867,0.56926 -8.0252,2.22846 -13.9135,18.63993 -3.0426,8.48004 -4.3465,10.1224 -9.7086,12.2287 -8.0245,3.1521 -10.5557,7.8005 -15.0196,27.582 -4.8842,21.6442 -9.2581,25.855 -17.5559,16.9015 z"
         style="fill:#bfffee;fill-opacity:0.63636361;stroke:none" />
      <ellipse
         ry="56.111111"
         rx="55"
         style="color:#000000;display:inline;overflow:visible;visibility:visible;opacity:0.12000002;fill:#000000;fill-opacity:1;fill-rule:nonzero;stroke:none;stroke-width:1.05257893;marker:none;enable-background:accumulate"
         id="path4576"
         cx="-1712.233"
         cy="653.68549" />
      <ellipse
         ry="56.111111"
         rx="55"
         style="color:#000000;display:inline;overflow:visible;visibility:visible;opacity:0.12000002;fill:#000000;fill-opacity:1;fill-rule:nonzero;stroke:none;stroke-width:1.05257893;marker:none;enable-background:accumulate"
         id="use4611"
         cx="-1352.233"
         cy="423.68552" />
      <circle
         style="color:#000000;display:inline;overflow:visible;visibility:visible;fill:#448a94;fill-opacity:1;fill-rule:nonzero;stroke:none;stroke-width:1;marker:none;enable-background:accumulate"
         id="path4578"
         transform="rotate(-62.241459)"
         cx="-1370.7756"
         cy="-1218.8438"
         r="52.777779" />
      <circle
         style="color:#000000;display:inline;overflow:visible;visibility:visible;fill:#448a94;fill-opacity:1;fill-rule:nonzero;stroke:none;stroke-width:1;marker:none;enable-background:accumulate"
         id="use4613"
         cx="-1357.011"
         cy="415.35217"
         r="52.777779" />
      <path
         style="color:#000000;display:inline;overflow:visible;visibility:visible;opacity:0.61699997;fill:#143b3a;fill-opacity:1;fill-rule:nonzero;stroke:none;stroke-width:1.06315792;marker:none;enable-background:accumulate"
         d="m -1711.8428,698.52723 c 0.5093,-0.0465 1.0198,-0.0889 1.5268,-0.14996 9.4829,-9.65208 18.6747,-22.26381 26.4064,-36.95407 6.9711,-13.2451 11.8787,-26.53054 14.6739,-38.7501 -0.2244,-0.4569 -0.4609,-0.9058 -0.6986,-1.35649 -3.8742,12.17976 -9.1991,24.99319 -15.9548,37.82884 -7.8585,14.93123 -16.7289,28.25657 -25.9537,39.38178 z"
         id="path4582"
         inkscape:connector-curvature="0" />
      <path
         style="color:#000000;display:inline;overflow:visible;visibility:visible;opacity:0.61699997;fill:#143b3a;fill-opacity:1;fill-rule:nonzero;stroke:none;stroke-width:1.06315792;marker:none;enable-background:accumulate"
         d="m -1401.6595,444.69167 c 0.2783,0.42903 0.5536,0.861 0.8438,1.28125 12.9579,3.89611 28.3993,6.15625 45,6.15625 14.9676,0 29.0098,-1.84486 41.125,-5.0625 0.2998,-0.41138 0.5869,-0.82971 0.875,-1.25 -12.5825,2.24431 -26.4014,3.5 -40.9063,3.5 -16.873,0 -32.7962,-1.64337 -46.9375,-4.625 z"
         id="use4617"
         inkscape:connector-curvature="0" />
      <ellipse
         ry="12.948101"
         rx="9.4174061"
         transform="matrix(-0.34748145,-0.93768686,0.88023896,-0.47453068,0,0)"
         id="use4725"
         style="color:#000000;display:inline;overflow:visible;visibility:visible;opacity:0.34707905;fill:#ffffff;fill-opacity:1;fill-rule:nonzero;stroke:none;stroke-width:0.20922694;marker:none;enable-background:accumulate"
         cx="288.49304"
         cy="-1862.8635" />
      <ellipse
         ry="12.948101"
         rx="9.4174061"
         transform="matrix(-0.34748145,-0.93768686,0.88023896,-0.47453068,0,0)"
         id="use4725-3"
         style="color:#000000;display:inline;overflow:visible;visibility:visible;opacity:0.34707905;fill:#ffffff;fill-opacity:1;fill-rule:nonzero;stroke:none;stroke-width:0.20922694;marker:none;enable-background:accumulate"
         cx="320.88162"
         cy="-1440.2029" />
    </g>
  </g>
</svg>
