<?xml version="1.0" encoding="UTF-8" standalone="no"?>
<!-- Created with Inkscape (http://www.inkscape.org/) -->

<svg
   width="888"
   height="793"
   version="1.1"
   viewBox="0 0 888 793"
   id="svg16"
   sodipodi:docname="item219.svg"
   inkscape:version="1.1.2 (0a00cf5339, 2022-02-04)"
   xmlns:inkscape="http://www.inkscape.org/namespaces/inkscape"
   xmlns:sodipodi="http://sodipodi.sourceforge.net/DTD/sodipodi-0.dtd"
   xmlns="http://www.w3.org/2000/svg"
   xmlns:svg="http://www.w3.org/2000/svg"
   xmlns:rdf="http://www.w3.org/1999/02/22-rdf-syntax-ns#"
   xmlns:cc="http://creativecommons.org/ns#"
   xmlns:dc="http://purl.org/dc/elements/1.1/">
  <defs
     id="defs20" />
  <sodipodi:namedview
     id="namedview18"
     pagecolor="#ffffff"
     bordercolor="#666666"
     borderopacity="1.0"
     inkscape:pageshadow="2"
     inkscape:pageopacity="0.0"
     inkscape:pagecheckerboard="0"
     showgrid="false"
     inkscape:zoom="0.49042715"
     inkscape:cx="434.31527"
     inkscape:cy="395.57353"
     inkscape:window-width="1366"
     inkscape:window-height="719"
     inkscape:window-x="0"
     inkscape:window-y="25"
     inkscape:window-maximized="1"
     inkscape:current-layer="svg16" />
  <metadata
     id="metadata2">
    <rdf:RDF>
      <cc:Work
         rdf:about="">
        <dc:format>image/svg+xml</dc:format>
        <dc:type
           rdf:resource="http://purl.org/dc/dcmitype/StillImage" />
      </cc:Work>
    </rdf:RDF>
  </metadata>
  <path
     d="m 35.5557,774.88144 c -8.0285,-1.146 -22.169,-5.5882 -22.755,-7.1485 -0.25838,-0.68815 0.17709,-5.0762 0.96771,-9.7512 1.3586,-8.0334 1.9202,-9.241 10.232,-22 4.8372,-7.425 17.259,-27.675 27.605,-45 10.345,-17.325 23.976,-40.05 30.289,-50.5 6.313,-10.45 19.127,-32.05 28.474,-48 65.301,-111.43 323.8,-542.8 327.94,-547.25 2.9137,-3.1311 9.5861,-3.1311 12.466,0 7.1092,7.7283 28.962,42.788 48.684,78.106 7.0196,12.571 23.906,41.596 37.526,64.5 45.408,76.361 69.78,117.84 162.57,276.64 51.878,88.788 144.98,246.81 165.74,281.3 2.6001,4.3206 3.7443,19.306 1.6654,21.811 -1.2718,1.5324 -16.773,1.627 -209.39,1.2784 -217.71,-0.39405 -215.1,-0.43698 -229.02,3.7598 -4.0451,1.2197 -16.077,1.6729 -63,2.3726 -73.868,1.1016 -322.07,1.0079 -330,-0.12464 z"
     fill="#84698a"
     id="path6" />
  <path
     d="m 37.0557,773.80144 c -3.575,-0.42132 -10.1,-1.798 -14.5,-3.0594 l -8,-2.2934 0.07284,-4.485 c 0.1702,-10.481 1.269,-13.42 10.149,-27.15 10.32,-15.956 65.837,-108.43 96.558,-160.84 35.481,-60.525 80.088,-135.33 159.51,-267.5 40.984,-68.2 92.948,-154.82 115.48,-192.5 22.528,-37.675 41.885,-69.31 43.016,-70.299 1.4183,-1.2406 3.3043,-1.7063 6.0749,-1.5 3.968,0.2954 4.1408,0.47955 13.887,14.799 11.871,17.441 21.391,33.194 37.769,62.5 6.7622,12.1 22.06,38.425 33.994,58.5 31.243,52.554 76.164,128.77 110.22,187 16.243,27.775 45.847,78.4 65.787,112.5 43.996,75.237 111.46,189.81 138.8,235.73 l 20.082,33.727 0.67358,8.3016 c 0.5735,7.068 0.42585,8.5072 -0.99362,9.6852 -1.4137,1.1733 -32.64,1.2777 -205.37,0.68663 -216.11,-0.73948 -215.97,-0.74182 -231.71,3.7674 -3.0059,0.86075 -12.542,1.6954 -23.989,2.0995 -27.019,0.95401 -359.67,1.2516 -367.5,0.32871 z m 291.67,-19.823 c 59.584,0 108.33,-0.37149 108.33,-0.82554 0,-0.45405 -8.8319,-15.642 -19.626,-33.75 -17.251,-28.939 -67.35,-113.66 -80.374,-135.92 -2.5744,-4.4 -17.182,-29.15 -32.462,-55 -15.28,-25.85 -36.118,-61.175 -46.308,-78.5 -10.19,-17.325 -19.051,-32.074 -19.69,-32.776 -0.9085,-0.99711 -5.4976,5.7746 -21.008,31 -21.309,34.655 -62.019,102.33 -107.54,178.78 -15.558,26.125 -39.02,65.38 -52.137,87.234 -13.117,21.854 -23.849,40.041 -23.849,40.415 0,0.37439 41.924,0.38151 93.165,0.0158 51.241,-0.36567 141.92,-0.66487 201.5,-0.66487 z m -212.42,-37.951 c -1.2375,-0.54132 -2.25,-1.6873 -2.25,-2.5466 0,-4.5612 17.552,-39.958 38.678,-78.002 8.2462,-14.85 19.4,-35.1 24.785,-45 36.74,-67.536 51.699,-92.76 55.336,-93.31 1.4956,-0.22587 3.1076,1.127 5.9578,5 8.4893,11.536 22.559,34.942 46.774,77.81 7.6116,13.475 18.188,31.925 23.504,41 23.09,39.422 46.966,83.951 46.966,87.592 0,0.73582 -0.7875,1.7566 -1.75,2.2684 -2.0406,1.0851 -29.477,2.7796 -67.75,4.1844 -39.532,1.451 -167.5,2.2057 -170.25,1.004 z m 730.92,36.087 c 0.36756,-0.34965 -1.6133,-4.4607 -4.4019,-9.1357 -9.5412,-15.996 -57.435,-97.466 -82.007,-139.5 -53.507,-91.53 -109.91,-186.51 -110.76,-186.49 -0.54137,0.0104 -33.951,61.416 -107.99,198.49 -23.282,43.102 -43.475,80.277 -58.891,108.42 -8.8639,16.182 -16.116,29.508 -16.116,29.613 0,0.53905 379.6,-0.85767 380.17,-1.3988 z m -308.92,-36.088 c -1.2375,-0.54076 -2.25,-1.4969 -2.25,-2.1247 0,-3.8447 14.331,-33.42 29.619,-61.125 20.6,-37.331 38.693,-70.472 47.662,-87.298 11.94,-22.4 22.139,-40.129 32.075,-55.75 6.5224,-10.255 8.5569,-12.75 10.397,-12.75 3.7532,0 20.98,27.228 49.982,79 6.0081,10.725 20.702,36.527 32.653,57.339 23.499,40.92 39.612,71.542 39.612,75.278 0,3.0204 -0.42614,3.1016 -23,4.3788 -52.61,2.9767 -211.79,5.2182 -216.75,3.0521 z m -72.993,-114.05 c 49.874,-93.195 74.77,-140.31 74.36,-140.72 -0.45143,-0.45142 -180.86,-2.3216 -181.34,-1.8799 -0.12155,0.11247 4.6365,8.73 10.574,19.15 5.937,10.42 23.083,40.546 38.101,66.946 15.018,26.4 31.36,55.116 36.313,63.814 4.9532,8.6975 9.3385,15.448 9.7452,15 0.40665,-0.44753 5.917,-10.489 12.245,-22.314 z m 170.74,-210.75 c -0.002,-0.4125 -0.96756,-2.325 -2.1456,-4.25 -2.826,-4.6181 -58.105,-98.566 -88.848,-151 -36.755,-62.687 -77.035,-131.1 -95.928,-162.93 -1.4449,-2.434 -3.0653,-4.5541 -3.6009,-4.7114 -0.5356,-0.1573 -11.403,17.134 -24.149,38.425 -12.747,21.291 -56.048,93.611 -96.226,160.71 l -73.05,122 157.23,0.7146 c 86.474,0.39304 165.33,0.8541 175.23,1.0246 41.745,0.71893 51.5,0.72098 51.496,0.0108 z m -282,-37.368 c -18.826,-1.242 -30.34,-2.8146 -31.893,-4.356 -1.1886,-1.18 1.9476,-7.4375 21.403,-42.704 37.963,-68.815 55.09,-99.144 70.49,-124.82 22.349,-37.265 28.402,-46.451 30.852,-46.818 3.5363,-0.5293 15.077,18.176 52.638,85.318 9.2307,16.5 19.811,35.175 23.512,41.5 22.286,38.089 44.411,81.096 43.821,85.182 -0.41658,2.8834 -2.9324,3.3966 -23.349,4.7629 -27.318,1.828 -167.22,3.2737 -187.47,1.9373 z"
     fill="#7c6282"
     id="path8" />
  <path
     d="m 32.3977,772.50144 c -7.8802,-1.4299 -17.048,-4.2372 -17.798,-5.4496 -0.26382,-0.42687 0.0946,-4.3851 0.79648,-8.796 1.1605,-7.2929 1.9173,-9.0059 8.349,-18.897 9.1655,-14.096 18.351,-29.01 30.103,-48.878 5.2054,-8.8 17.452,-29.275 27.214,-45.5 9.762,-16.225 27.763,-46.6 40.001,-67.5 37.518,-64.072 67.916,-114.99 221.8,-371.5 50.647,-84.425 93.199,-155.14 94.561,-157.15 2.7309,-4.0298 7.1958,-5.6859 10.525,-3.9041 2.8678,1.5348 25.149,35.415 36.865,56.057 5.4632,9.625 14.137,24.925 19.274,34 5.137,9.075 18.992,32.7 30.788,52.5 30.453,51.119 81.851,138.52 148.19,252 78.693,134.61 137.15,233.9 174.09,295.7 8.9268,14.933 8.9036,14.871 8.9036,23.739 v 8.0339 l -425.5,0.56626 -8,2.282 c -7.5698,2.1593 -10.528,2.3296 -55,3.1672 -25.85,0.48684 -112.48,0.87403 -192.5,0.86041 -114.9,-0.0196 -147.01,-0.29796 -152.66,-1.3237 z m 407.16,-17.516 c 0.33826,-0.54732 -5.639,-11.46 -13.283,-24.25 -26.995,-45.17 -36.232,-60.739 -63.931,-107.75 -36.236,-61.507 -97.411,-165.15 -112,-189.75 -6.2779,-10.588 -11.948,-19.246 -12.601,-19.242 -1.2213,0.008 -7.2431,9.523 -37.652,59.492 -24.626,40.465 -44.317,73.22 -68.532,114 -11.431,19.25 -38.495,64.58 -60.143,100.73 -21.648,36.153 -39.36,66.191 -39.36,66.75 0,1.3971 406.63,1.4191 407.5,0.022 z m -312.79,-39.674 c -7.1988,-0.2972 -9.9382,-0.77634 -10.334,-1.8075 -1.2167,-3.1707 13.862,-33.861 38.334,-78.023 8.229,-14.85 19.369,-35.1 24.756,-45 34.623,-63.631 50.53,-90.682 53.681,-91.289 3.4062,-0.65596 24.773,35.033 93.57,156.29 16.796,29.603 28.024,52.164 26.647,53.541 -1.1411,1.1411 -30.635,2.7643 -88.859,4.8904 -31.256,1.1413 -121.78,2.0608 -137.8,1.3996 z m 704.05,39.09 c 11.422,-0.37933 19.25,-1.0364 19.25,-1.6158 0,-0.5371 -7.3606,-13.425 -16.357,-28.641 -21.799,-36.868 -42.523,-72.14 -64.139,-109.16 -60.388,-103.43 -118.4,-201 -119.51,-201 -0.86931,0 -34.887,62.389 -123.77,227 -13.216,24.475 -32.407,59.791 -42.646,78.479 -10.239,18.688 -18.441,34.439 -18.226,35 0.43211,1.1265 331.31,1.0736 365.4,-0.0584 z m -282.05,-39.092 c -6.5571,-0.26905 -9.9529,-0.81215 -10.272,-1.6428 -1.1764,-3.0656 12.853,-31.541 37.475,-76.062 9.7712,-17.668 22.626,-41.124 28.567,-52.124 32.697,-60.546 47.839,-86 51.157,-86 3.2124,0 19.986,26.559 46.102,73 7.114,12.65 22.732,40.066 34.708,60.924 23.455,40.853 39.843,71.861 39.345,74.445 -0.43312,2.249 -4.557,2.6781 -38.787,4.0352 -16.225,0.64329 -39.85,1.5931 -52.5,2.1107 -25.268,1.0338 -120.22,1.9521 -135.8,1.3132 z m -77.688,-120.33 c 8.9457,-16.775 25.139,-47.15 35.984,-67.5 10.846,-20.35 23.157,-43.416 27.359,-51.259 4.2018,-7.8423 7.6396,-14.858 7.6396,-15.591 0,-1.0945 -15.15,-1.4539 -84.75,-2.0106 -46.612,-0.37283 -87.9,-0.91724 -91.75,-1.2098 -3.85,-0.29256 -7.6344,-0.10037 -8.4097,0.42707 -1.1283,0.76753 8.0373,17.599 45.907,84.301 26.024,45.838 47.77,83.927 48.324,84.642 0.82644,1.0669 1.2245,1.0669 2.2189,0 0.66647,-0.71511 8.531,-15.025 17.477,-31.8 z m 167.4,-201.86 c 0.29327,-0.47451 -10.182,-19.037 -23.279,-41.25 -13.096,-22.213 -37.005,-62.887 -53.131,-90.387 -64.703,-110.34 -101.76,-173.23 -111.9,-189.93 -1.9812,-3.2596 -4.0522,-6.0716 -4.6022,-6.2488 -0.55,-0.1772 -15.255,23.415 -32.677,52.427 -95.373,158.82 -162.12,270.82 -162.22,272.19 -0.0957,1.3983 17.019,1.6265 169.89,2.2653 93.5,0.39071 175.85,0.85541 183,1.0327 29.528,0.73203 34.407,0.71724 34.915,-0.10581 z m -276.42,-40.718 c -1.375,-0.16076 -10.15,-0.80867 -19.5,-1.4398 -10.072,-0.67985 -17.496,-1.624 -18.218,-2.3166 -1.2295,-1.1804 12.823,-27.342 59.978,-111.66 26.219,-46.884 58.446,-100 60.673,-100 2.2029,0 14.114,18.842 32.241,51 6.3554,11.275 23.193,40.975 37.417,66 31.062,54.649 50.14,91.707 48.199,93.62 -1.8602,1.8331 -26.842,3.2717 -67.142,3.8664 -47.764,0.70482 -130.65,1.283 -133.65,0.93232 z"
     fill="#512a59"
     id="path10" />
  <path
     d="m 42.2517,772.76144 c -8.4574,-0.65032 -22.972,-3.7921 -25.911,-5.6085 -0.88982,-0.54994 -0.92782,-2.5706 -0.15343,-8.1588 1.1615,-8.3814 1.1201,-8.2944 11.404,-24.017 4.137,-6.325 14.797,-23.65 23.689,-38.5 8.892,-14.85 22.664,-37.8 30.604,-51 7.94,-13.2 19.849,-33.225 26.464,-44.5 16.355,-27.88 43.896,-74.581 64.279,-109 9.2828,-15.675 73.037,-122.1 141.68,-236.5 89.288,-148.82 125.52,-208.38 127.35,-209.34 1.4028,-0.73695 3.5298,-1.0849 4.7267,-0.77329 4.2983,1.1191 25.04,33.322 48.935,75.975 7.7456,13.826 21.646,37.834 30.89,53.352 9.2436,15.517 29.121,49.042 44.172,74.5 25.066,42.398 36.931,62.608 81.184,138.29 8.362,14.3 25.469,43.55 38.017,65 12.547,21.45 25.955,44.4 29.795,51 13.902,23.891 106.95,181.8 126.08,213.97 l 19.606,32.967 v 15.565 l -417.5,0.021 -12,2.5446 c -11.004,2.3334 -15.153,2.6211 -50,3.4671 -46.396,1.1264 -330.35,1.7483 -343.3,0.75195 z m 329.15,-15.451 c 52.766,-0.50195 69.957,-0.95696 70.304,-1.8608 0.2525,-0.658 -9.178,-17.346 -20.957,-37.085 -11.779,-19.739 -29.515,-49.613 -39.415,-66.388 -54.142,-91.744 -105.81,-179.28 -122.46,-207.48 -10.388,-17.589 -19.486,-32.316 -20.218,-32.725 -0.78504,-0.43933 -1.9326,-0.0372 -2.7985,0.9807 -3.547,4.1695 -55.698,89.917 -100.79,165.73 -41.599,69.932 -76.835,128.89 -92.164,154.21 -12.286,20.297 -13.679,23.114 -12.175,24.619 0.86295,0.86296 249.98,0.86345 340.68,6.8e-4 z m -248.59,-44.069 c -2.6125,-0.206 -4.75,-0.76001 -4.75,-1.2311 0,-4.0184 16.05,-35.945 37.468,-74.534 9.4636,-17.05 24.764,-44.95 34,-62 9.2367,-17.05 19.467,-35.644 22.734,-41.321 5.4436,-9.4584 19.368,-31.997 20.498,-33.179 1.3593,-1.4217 19.251,26.634 37.306,58.5 6.2326,11 17.4,30.575 24.816,43.5 7.416,12.925 19.293,33.625 26.394,46 16.974,29.581 31.353,58.03 29.812,58.982 -0.63849,0.39461 -7.5437,1.0002 -15.345,1.3458 -7.8013,0.3456 -23.409,1.0799 -34.684,1.6318 -49.501,2.4232 -158.82,3.837 -178.25,2.3052 z m 159.74,-14.341 c 26.396,-0.55558 48.39,-1.4075 48.876,-1.8931 0.97477,-0.97477 -2.1447,-6.9927 -24.638,-47.531 -29.032,-52.322 -71.236,-124.5 -72.798,-124.5 -1.207,0 -3.6885,3.895 -14.653,23 -13.487,23.499 -32.628,58.325 -58.26,106 -11.68,21.725 -21.863,40.497 -22.628,41.715 -0.765,1.218 -1.3912,2.9735 -1.3912,3.9009 0,1.5677 3.422,1.638 48.75,1.0022 26.812,-0.37614 70.347,-1.1385 96.743,-1.694 z m 472.99,57.181 c 88.484,-0.55797 96.012,-0.73549 96.307,-2.2712 0.17617,-0.91623 -3.9152,-8.7912 -9.0919,-17.5 -15.62,-26.277 -40.92,-69.302 -68.701,-116.83 -63.582,-108.78 -120.09,-203.99 -122.55,-206.46 -1.2768,-1.2857 -1.628,-1.2857 -2.8797,0 -1.7621,1.8099 -37.418,67.211 -109.56,200.96 -14.982,27.775 -38.259,70.643 -51.727,95.263 -14.162,25.889 -24.247,45.39 -23.917,46.25 0.50019,1.3034 12.645,1.4692 98.352,1.3424 53.78,-0.0796 140.98,-0.4171 193.77,-0.75 z m -210.79,-42.842 c -4.3955,-0.34487 -4.7464,-0.56112 -4.1702,-2.5698 1.5478,-5.396 22.53,-46.689 36.684,-72.193 8.5464,-15.4 24.191,-43.975 34.767,-63.5 24.509,-45.251 41.581,-74 43.942,-74 0.46702,0 4.4312,5.5125 8.8093,12.25 11.767,18.108 19.162,30.74 47.274,80.75 5.1014,9.075 14.772,25.95 21.491,37.5 27.061,46.521 41.875,75.033 39.686,76.386 -0.72304,0.44686 -7.4729,1.0918 -15,1.4333 -7.5271,0.3415 -23.135,1.0751 -34.685,1.6303 -51.219,2.4622 -159.11,3.8582 -178.8,2.3136 z m 103.8,-13.228 c 93.834,-1.6232 105.5,-2.0384 105.5,-3.7549 0,-5.1087 -95.079,-171.28 -98.002,-171.28 -1.6359,0 -26.661,43.875 -56.466,99 -7.5831,14.025 -19.827,36.645 -27.209,50.266 -7.3818,13.621 -13.148,25.209 -12.813,25.75 0.7627,1.2341 18.529,1.2379 88.99,0.019 z m -185.57,29.215 c 21.134,-39.538 37.929,-70.659 57.337,-106.25 25.019,-45.879 63.365,-116.96 81.457,-151 32.018,-60.238 33.495,-63.179 32.317,-64.358 -0.84611,-0.84627 -50.385,-1.2266 -191.09,-1.4669 -170.21,-0.29078 -189.95,-0.16505 -189.95,1.2099 0,2.6357 30.126,54.83 85.49,148.11 30.637,51.622 62.778,106.31 81.983,139.5 9.9402,17.178 31.591,50 32.982,50 0.58239,0 4.8474,-7.0875 9.4777,-15.75 z m -19.66,-90.5 c -12.16,-18.783 -21.428,-34.414 -40.667,-68.59 -9.7037,-17.237 -22.966,-40.412 -29.472,-51.5 -6.5059,-11.088 -14.396,-24.977 -17.535,-30.865 -8.2563,-15.491 -19.667,-41.126 -18.725,-42.067 0.44372,-0.44372 26.641,-1.3064 58.217,-1.9172 43.064,-0.83291 68.655,-0.81805 102.41,0.0595 56.75,1.4753 61.5,1.794 61.5,4.1256 0,3.1899 -8.9932,28.086 -13.914,38.517 -2.657,5.6328 -8.8728,17.384 -13.813,26.115 -4.94,8.7302 -16.198,29.598 -25.017,46.373 -29.263,55.659 -50.659,92 -54.164,92 -0.48893,0 -4.4578,-5.5125 -8.8196,-12.25 z m 16.926,-20.25 c 27.244,-50.612 82.205,-154.11 83.105,-156.49 0.71929,-1.9056 0.77723,-3.2994 0.16074,-3.8668 -0.53584,-0.49313 -42.61,-1.1778 -94.735,-1.5416 -82.546,-0.57614 -93.839,-0.47617 -94.342,0.83516 -0.33679,0.87765 13.185,25.642 32.913,60.278 18.416,32.333 40.332,70.849 48.701,85.59 10.669,18.792 15.674,26.712 16.747,26.5 0.84143,-0.16631 4.1944,-5.2524 7.451,-11.302 z m 180.32,-224.52 c 0.34825,-0.56348 -14.775,-27.226 -33.606,-59.25 -18.832,-32.024 -43.089,-73.3 -53.906,-91.726 -103.11,-175.64 -105.42,-179.5 -107.61,-179.5 -1.9679,0 -4.267,3.7831 -141.76,233.26 -33.992,56.734 -55.633,93.821 -55.281,94.737 0.50751,1.3226 10.591,1.5235 82.859,1.651 45.255,0.0798 117.83,0.44051 161.28,0.80151 135.41,1.125 147.34,1.1273 148.02,0.0288 z m -299.52,-44.616 c -7.425,-0.75722 -14.05,-1.579 -14.723,-1.8262 -0.82932,-0.30476 0.0134,-2.6354 2.6183,-7.2412 2.1127,-3.7355 14.984,-27.042 28.602,-51.792 13.619,-24.75 30.402,-54.9 37.297,-67 20.122,-35.313 48.878,-82.5 50.275,-82.5 1.2829,0 14.187,20.756 27.665,44.5 33.378,58.799 52.448,92.482 61.994,109.5 10.714,19.1 27.706,52.897 26.966,53.637 -1.2863,1.2863 -33.051,2.5337 -85.196,3.3457 -79.608,1.2396 -119.01,1.0582 -135.5,-0.62355 z m 201.02,-12.975 c 0.82057,-0.82072 -1.5787,-6.1072 -9.0768,-20 -36.926,-68.417 -86.172,-153.78 -88.33,-153.11 -2.3176,0.71693 -40.264,66.006 -74.819,128.73 -24.887,45.174 -24.11,43.673 -23.283,45.012 1.0178,1.6468 193.85,1.0278 195.51,-0.6276 z"
     fill="#321a38"
     id="path12" />
</svg>
