<?xml version="1.0" encoding="UTF-8" standalone="no"?>
<svg
   version="1.1"
   x="0"
   y="0"
   width="553.34961"
   height="414.70255"
   viewBox="0 0 553.34961 414.70255"
   id="svg239"
   sodipodi:docname="item197.svg"
   inkscape:version="1.1.2 (0a00cf5339, 2022-02-04)"
   xmlns:inkscape="http://www.inkscape.org/namespaces/inkscape"
   xmlns:sodipodi="http://sodipodi.sourceforge.net/DTD/sodipodi-0.dtd"
   xmlns="http://www.w3.org/2000/svg"
   xmlns:svg="http://www.w3.org/2000/svg">
  <sodipodi:namedview
     id="namedview241"
     pagecolor="#ffffff"
     bordercolor="#666666"
     borderopacity="1.0"
     inkscape:pageshadow="2"
     inkscape:pageopacity="0.0"
     inkscape:pagecheckerboard="0"
     showgrid="false"
     fit-margin-top="0"
     fit-margin-left="0"
     fit-margin-right="0"
     fit-margin-bottom="0"
     inkscape:zoom="0.69696905"
     inkscape:cx="257.54372"
     inkscape:cy="206.60889"
     inkscape:window-width="1366"
     inkscape:window-height="719"
     inkscape:window-x="0"
     inkscape:window-y="25"
     inkscape:window-maximized="1"
     inkscape:current-layer="svg239" />
  <defs
     id="defs96">
    <linearGradient
       id="Gradient_1"
       gradientUnits="userSpaceOnUse"
       x1="217.19701"
       y1="84.546997"
       x2="23.281"
       y2="153.978">
      <stop
         offset="0"
         stop-color="#414140"
         id="stop2" />
      <stop
         offset="0.983"
         stop-color="#190000"
         id="stop4" />
      <stop
         offset="1"
         stop-color="#190000"
         id="stop6" />
    </linearGradient>
    <radialGradient
       id="Gradient_2"
       gradientUnits="userSpaceOnUse"
       cx="344.56799"
       cy="188.24899"
       r="69.916">
      <stop
         offset="0"
         stop-color="#FFFFFF"
         id="stop9" />
      <stop
         offset="1"
         stop-color="#000000"
         id="stop11" />
    </radialGradient>
    <linearGradient
       id="Gradient_3"
       gradientUnits="userSpaceOnUse"
       x1="244.442"
       y1="202.614"
       x2="244.797"
       y2="240.825">
      <stop
         offset="0"
         stop-color="#717170"
         id="stop14" />
      <stop
         offset="0.039"
         stop-color="#717170"
         id="stop16" />
      <stop
         offset="0.983"
         stop-color="#190000"
         id="stop18" />
      <stop
         offset="1"
         stop-color="#190000"
         id="stop20" />
    </linearGradient>
    <linearGradient
       id="Gradient_4"
       gradientUnits="userSpaceOnUse"
       x1="329.254"
       y1="109.042"
       x2="365.50101"
       y2="96.944">
      <stop
         offset="0"
         stop-color="#717170"
         id="stop23" />
      <stop
         offset="0.039"
         stop-color="#717170"
         id="stop25" />
      <stop
         offset="0.983"
         stop-color="#190000"
         id="stop27" />
      <stop
         offset="1"
         stop-color="#190000"
         id="stop29" />
    </linearGradient>
    <linearGradient
       id="Gradient_5"
       gradientUnits="userSpaceOnUse"
       x1="354.88699"
       y1="258.68399"
       x2="358.86801"
       y2="248.552">
      <stop
         offset="0"
         stop-color="#190000"
         id="stop32" />
      <stop
         offset="0.983"
         stop-color="#FFFFFE"
         id="stop34" />
      <stop
         offset="1"
         stop-color="#FFFFFE"
         id="stop36" />
    </linearGradient>
    <linearGradient
       id="Gradient_6"
       gradientUnits="userSpaceOnUse"
       x1="409.552"
       y1="190.55299"
       x2="400.798"
       y2="197.05099">
      <stop
         offset="0"
         stop-color="#190000"
         id="stop39" />
      <stop
         offset="0.983"
         stop-color="#FFFFFE"
         id="stop41" />
      <stop
         offset="1"
         stop-color="#FFFFFE"
         id="stop43" />
    </linearGradient>
    <linearGradient
       id="Gradient_7"
       gradientUnits="userSpaceOnUse"
       x1="404.328"
       y1="385.95001"
       x2="209.089"
       y2="494.92801">
      <stop
         offset="0"
         stop-color="#DF542A"
         id="stop46" />
      <stop
         offset="0.983"
         stop-color="#D8232A"
         id="stop48" />
      <stop
         offset="1"
         stop-color="#D8232A"
         id="stop50" />
    </linearGradient>
    <linearGradient
       id="Gradient_8"
       gradientUnits="userSpaceOnUse"
       x1="173.8"
       y1="354.27899"
       x2="173.854"
       y2="316.056">
      <stop
         offset="0"
         stop-color="#FFFFFE"
         id="stop53" />
      <stop
         offset="0.039"
         stop-color="#FFFFFE"
         id="stop55" />
      <stop
         offset="0.539"
         stop-color="#DF542A"
         id="stop57" />
      <stop
         offset="0.983"
         stop-color="#D8232A"
         id="stop59" />
      <stop
         offset="1"
         stop-color="#D8232A"
         id="stop61" />
    </linearGradient>
    <linearGradient
       id="Gradient_9"
       gradientUnits="userSpaceOnUse"
       x1="203.855"
       y1="373.37399"
       x2="75.709"
       y2="444.90201">
      <stop
         offset="0"
         stop-color="#DF542A"
         id="stop64" />
      <stop
         offset="0.983"
         stop-color="#D8232A"
         id="stop66" />
      <stop
         offset="1"
         stop-color="#D8232A"
         id="stop68" />
    </linearGradient>
    <linearGradient
       id="Gradient_10"
       gradientUnits="userSpaceOnUse"
       x1="87.995003"
       y1="446.94699"
       x2="51.618999"
       y2="458.66">
      <stop
         offset="0"
         stop-color="#FFFFFE"
         id="stop71" />
      <stop
         offset="0.039"
         stop-color="#FFFFFE"
         id="stop73" />
      <stop
         offset="0.539"
         stop-color="#DF542A"
         id="stop75" />
      <stop
         offset="0.983"
         stop-color="#D8232A"
         id="stop77" />
      <stop
         offset="1"
         stop-color="#D8232A"
         id="stop79" />
    </linearGradient>
    <linearGradient
       id="Gradient_11"
       gradientUnits="userSpaceOnUse"
       x1="66.705002"
       y1="299.17599"
       x2="61.849998"
       y2="308.93799">
      <stop
         offset="0"
         stop-color="#DF542A"
         id="stop82" />
      <stop
         offset="0.983"
         stop-color="#D8232A"
         id="stop84" />
      <stop
         offset="1"
         stop-color="#D8232A"
         id="stop86" />
    </linearGradient>
    <linearGradient
       id="Gradient_12"
       gradientUnits="userSpaceOnUse"
       x1="9.1999998"
       y1="363.64001"
       x2="18.024"
       y2="357.23401">
      <stop
         offset="0"
         stop-color="#DF542A"
         id="stop89" />
      <stop
         offset="0.983"
         stop-color="#D8232A"
         id="stop91" />
      <stop
         offset="1"
         stop-color="#D8232A"
         id="stop93" />
    </linearGradient>
  </defs>
  <g
     id="Layer_1"
     transform="rotate(90,278.90446,276.94472)">
    <path
       d="m 214.521,145.54 c -11.826,0.908 -10.908,20.693 -14.78,29.013 -5.518,11.856 -17.349,18.057 -23.731,28.594 -14.448,23.877 -28.413,47.735 -60.371,38.047 10.293,0.693 22.056,-5.449 25.283,-16.006 3.184,-10.429 -1.899,-19.892 -0.61,-30.459 -6.85,8.516 -9.775,15.186 -20.386,20.596 -8.818,4.482 -18.164,8.369 -25.922,14.551 -12.496,9.941 -28.038,23.213 -24.493,41.25 -13.969,-28.194 -16.777,-54.473 -6.919,-84.698 4.639,-14.228 16.211,-29.609 28.184,-38.037 14.663,-10.312 28.34,-12.91 38.745,-27.441 -35.825,19.102 -74.819,-2.822 -111.548,18.203 11.382,-7.187 22.193,-17.568 26.778,-30.683 4.79,-13.711 4.458,-22.735 17.168,-31.036 12.876,-8.418 24.882,-6.728 30.039,-23.398 3.325,-10.742 2.944,-28.018 -4.693,-35.332 10.747,-4.248 27.012,14.228 33.994,20.801 11.045,10.381 18.594,25.576 26.387,39.414 C 137.182,34.182 96.367,10.501 51.381,10.218 c 31.167,-5.264 69.024,-16.456 97.159,4.589 7.163,5.362 11.411,12.813 17.553,18.653 6.724,6.377 12.276,7.363 21.075,11.152 16.938,7.285 24.321,20.234 26.674,37.598 2.066,15.332 10.967,23.301 15.972,37.578 3.94,11.201 -3.096,26.894 -16.699,27.851 z"
       fill="url(#Gradient_1)"
       id="path98"
       style="fill:url(#Gradient_1)" />
    <path
       d="m 338.573,118.333 c 4.98,8.799 5.434,19.473 5.483,29.248 0.049,8.35 3.072,17.588 4.722,26.357 2.319,12.315 1.91,23.741 -13.306,30.508 -6.333,2.823 -9.868,1.944 -16.567,1.885 -6.548,-0.049 -9.712,2.813 -14.78,5.693 -10.917,6.221 -19.727,5.401 -31.651,5.342 0.275,5.684 7.379,11.973 12.822,15.781 10.855,7.579 23.291,8.76 36.167,8.868 10.787,0.087 21.651,-0.118 32.027,4.218 9.648,4.043 18.574,8.682 28.852,10.967 9.107,2.012 25.786,1.514 31.143,-7.734 4.653,-5.117 2.905,-14.658 2.622,-20.801 -1.094,-23.398 -23.817,-37.002 -31.885,-57.979 -1.576,-4.082 -3.418,-7.988 -5.472,-11.738 -3.786,-6.875 -8.327,-13.252 -13.405,-19.433 -5.8,-7.041 -17.407,-19.014 -26.772,-21.182 z"
       fill="url(#Gradient_2)"
       id="path100"
       style="fill:url(#Gradient_2)" />
    <path
       d="m 286.923,225.852 c -14.794,0.244 -23.1,8.682 -36.142,12.598 -14.087,4.248 -28.403,2.52 -40.195,-1.328 3.481,-0.01 9.062,0.058 10.786,-0.811 -4.219,-0.859 -9.156,-1.631 -12.749,-4.511 3.3,1.005 6.84,0.947 10.293,0.556 -6.685,-3.691 -14.175,-9.043 -16.621,-16.767 7.446,1.806 11.748,-6.651 17.768,-9.737 6.86,-3.515 16.641,-3.769 24.336,-2.324 16.826,3.145 27.476,15.488 42.52,21.563 z"
       fill="url(#Gradient_3)"
       id="path102"
       style="fill:url(#Gradient_3)" />
    <path
       d="m 277.382,218.02 c -15.317,-1.406 -34.882,-6.865 -46.894,-16.865 -14.014,-11.67 -20.669,-27.949 -26.699,-44.18 -3.052,-8.203 -7.403,-17.529 -13.399,-23.681 -6.064,-6.211 -13.476,-7.305 -11.587,-17.676 1.319,-7.315 7.515,-16.543 14.585,-19.307 7.3,-2.851 16.739,-1.25 24.243,-3.252 17.998,-4.834 30.977,-14.013 50.533,-13.222 8.882,0.361 16.552,0.683 25.029,3.779 8.535,3.125 15.894,8.252 23.594,12.656 15.683,9.043 27.343,21.485 37.036,36.24 5.224,7.95 6.03,17.198 7.812,26.211 1.875,9.571 3.57,21.026 -0.385,30.137 -6.236,14.356 -26.021,28.076 -41.162,30.86 -15.025,2.734 -27.442,-0.079 -42.208,-1.973"
       fill="#190000"
       id="path104" />
    <path
       d="m 365.044,141.663 c -4.59,-14.063 0.693,-24.688 0.161,-38.281 -0.567,-14.707 -6.861,-27.666 -14.317,-37.559 1.094,3.281 2.974,8.545 2.7,10.449 -2.172,-3.701 -4.506,-8.125 -8.393,-10.595 2.012,2.802 3.115,6.162 3.877,9.55 -5.669,-5.127 -13.164,-10.459 -21.26,-10.273 4.131,6.484 -2.456,13.291 -3.428,19.99 -1.093,7.627 1.851,16.953 5.718,23.76 8.457,14.892 23.574,20.947 34.224,33.203 z"
       fill="url(#Gradient_4)"
       id="path106"
       style="fill:url(#Gradient_4)" />
    <path
       d="m 312.597,197.747 c 18.838,-5.039 22.456,-12.285 28.306,-23.428 6.768,-12.881 -2.798,-20.937 15.703,-16.387 1.729,-8.291 -23.442,-46.66 -34.99,-38.662 3.681,5.723 14.731,16.934 7.92,22.93 1.469,11.064 8.413,18.623 3.623,30.059 -4.112,9.824 -12.813,14.912 -22.544,17.031 -4.243,0.908 -9.595,0.088 -13.652,1.357 -6.202,1.924 -6.5,6.485 -11.69,9.317 -8.711,4.765 -21.714,-3.125 -29.009,3.779 4.209,2.529 37.984,21.055 32.91,7.227 7.447,-6.709 14.873,8.31 20.918,-1.651 -5.039,-3.535 -7.368,-10.908 1.49,-11.377 l 1.015,-0.195"
       fill="#fffffe"
       id="path108" />
    <path
       d="m 96.474,219.163 c 0,0 20.508,-50.918 77.427,-76.953 0,0 -54.258,37.568 -57.324,64.14 l -20.103,12.813"
       fill="#4a4b4a"
       id="path110" />
    <path
       d="m 73.056,189.182 c 0,0 33.516,-43.466 95.366,-53.105 0,0 -62.387,21.465 -72.553,46.23 l -22.813,6.875"
       fill="#4a4b4a"
       id="path112" />
    <path
       d="m 55.219,102.669 c 0,0 52.92,-14.551 108.145,14.951 0,0 -62.764,-20.381 -85.776,-6.729 l -22.369,-8.222"
       fill="#4a4b4a"
       id="path114" />
    <path
       d="m 167.29,103.245 c 0,0 -37.793,-21.904 -61.148,-64.248 0,0 10.908,43.389 61.148,64.248"
       fill="#4a4b4a"
       id="path116" />
    <path
       d="m 182.036,87.942 c 0,0 -35.615,-64.521 -68.657,-74.355 0,0 35.844,-12.657 68.657,74.355"
       fill="#4a4b4a"
       id="path118" />
    <path
       d="m 313.134,166.829 c -25.698,0.703 -50.732,-7.617 -75.708,-16.875 -28.686,-10.664 -42.988,-26.963 -64.77,-45 11.728,-6.035 23.911,3.154 36.084,3.926 12.598,0.8 22.822,-3.819 35.2,0.918 -3.379,-3.848 -6.992,-7.686 -9.687,-12.774 5.688,2.871 12.49,12.276 19.653,15.987 -3.301,-4.551 -5.674,-12.579 -6.431,-15.704 18.003,19.229 39.663,53.164 65.659,69.522"
       fill="#464746"
       id="path120" />
    <path
       d="m 311.66,166.897 c -12.012,-1.035 -27.197,-14.834 -35.938,-22.109 -11.675,-9.736 -21.333,-20.195 -30.615,-31.826 4.082,9.56 9.697,18.115 17.373,24.502 -6.548,-1.895 -12.085,-7.657 -17.583,-11.553 -5.82,-4.131 -12.056,-6.602 -18.301,-10.186 5.972,5.606 13.335,11.075 18.13,17.784 -11.885,-7.598 -22.881,-8.809 -36.118,-13.194 -12.471,-4.15 -23.398,-10.81 -34.971,-16.885 12.325,9.278 26.255,18.184 40.523,25.069 13.706,6.611 30.19,11.357 42.539,20.088 -8.97,1.894 -17.583,-5.869 -24.727,-9.727 6.514,2.686 11.739,9.512 18.482,12.754 6.323,3.066 12.856,5.908 19.287,8.584 14.326,5.986 27.803,6.475 42.954,6.992"
       fill="#1a1919"
       id="path122" />
    <path
       d="m 247.758,198.225 c 0,0 -4.121,-7.197 9.937,-10.019 0,0 -18.081,-2.695 -9.937,10.019"
       fill="#676867"
       id="path124" />
    <path
       d="m 236.977,193.089 c 0,0 -4.131,-7.217 9.932,-10.03 0,0 -18.096,-2.714 -9.932,10.03"
       fill="#676867"
       id="path126" />
    <path
       d="m 228.051,183.186 c 0,0 -4.13,-7.207 9.922,-10.029 0,0 -18.086,-2.705 -9.922,10.029"
       fill="#676867"
       id="path128" />
    <path
       d="m 264.736,185.696 c 0,0 -4.126,-7.207 9.936,-10.019 0,0 -18.085,-2.715 -9.936,10.019"
       fill="#676867"
       id="path130" />
    <path
       d="m 280.478,190.393 c 0,0 -4.116,-7.207 9.942,-10.039 0,0 -18.086,-2.705 -9.942,10.039"
       fill="#676867"
       id="path132" />
    <path
       d="m 252.226,179.807 c 0,0 -4.126,-7.207 9.932,-10.048 0,0 -18.101,-2.706 -9.932,10.048"
       fill="#676867"
       id="path134" />
    <path
       d="m 242.382,171.741 c 0,0 -4.13,-7.236 9.927,-10.049 0,0 -18.096,-2.705 -9.927,10.049"
       fill="#676867"
       id="path136" />
    <path
       d="m 227.48,168.499 c 0,0 -4.126,-7.217 9.927,-10.039 0,0 -18.101,-2.705 -9.927,10.039"
       fill="#676867"
       id="path138" />
    <path
       d="m 213.408,157.6 c 0,0 -4.126,-7.207 9.927,-10.019 0,0 -18.086,-2.705 -9.927,10.019"
       fill="#676867"
       id="path140" />
    <path
       d="m 315.966,115.061 c 0,0 -7.89,-2.607 -7.851,11.729 0,0 -6.265,-17.178 7.851,-11.729"
       fill="#676867"
       id="path142" />
    <path
       d="m 308.769,105.52 c 0,0 -7.89,-2.607 -7.847,11.739 0,0 -6.264,-17.198 7.847,-11.739"
       fill="#676867"
       id="path144" />
    <path
       d="m 297.28,98.743 c 0,0 -7.891,-2.598 -7.847,11.728 0,0 -6.264,-17.187 7.847,-11.728"
       fill="#676867"
       id="path146" />
    <path
       d="m 307.06,134.192 c 0,0 -7.895,-2.597 -7.856,11.738 0,0 -6.255,-17.187 7.856,-11.738"
       fill="#676867"
       id="path148" />
    <path
       d="m 314.804,148.684 c 0,0 -7.89,-2.597 -7.851,11.739 0,0 -6.255,-17.188 7.851,-11.739"
       fill="#676867"
       id="path150" />
    <path
       d="m 298.789,123.118 c 0,0 -7.891,-2.617 -7.857,11.719 0,0 -6.264,-17.178 7.857,-11.719"
       fill="#676867"
       id="path152" />
    <path
       d="m 288.911,115.071 c 0,0 -7.896,-2.598 -7.847,11.738 0,0 -6.265,-17.197 7.847,-11.738"
       fill="#676867"
       id="path154" />
    <path
       d="m 282.768,101.106 c 0,0 -7.895,-2.607 -7.847,11.739 0,0 -6.264,-17.178 7.847,-11.739"
       fill="#676867"
       id="path156" />
    <path
       d="m 269.301,89.505 c 0,0 -7.895,-2.608 -7.851,11.738 0,0 -6.265,-17.197 7.851,-11.738"
       fill="#676867"
       id="path158" />
    <path
       d="m 344.438,242.893 c -2.197,5.586 2.476,12.676 10.449,15.791 7.969,3.135 16.216,1.143 18.409,-4.463 z"
       fill="url(#Gradient_5)"
       id="path160"
       style="fill:url(#Gradient_5)" />
    <path
       d="m 347.929,253.548 c -1.191,3.017 1.328,6.836 5.63,8.515 4.292,1.709 8.75,0.625 9.932,-2.392 l -15.562,-6.123"
       fill="#1a1919"
       id="path162" />
    <path
       d="m 391.552,184.593 c 4.839,-3.594 12.896,-0.928 17.998,5.957 5.113,6.865 5.323,15.361 0.498,18.955 z"
       fill="url(#Gradient_6)"
       id="path164"
       style="fill:url(#Gradient_6)" />
    <path
       d="m 402.773,185.159 c 2.598,-1.914 6.948,-0.488 9.697,3.223 2.749,3.701 2.876,8.291 0.259,10.214 l -9.956,-13.437"
       fill="#1a1919"
       id="path166" />
    <path
       d="m 203.115,411.673 c 11.826,-0.801 11.133,-20.577 15.083,-28.858 5.635,-11.806 17.534,-17.861 24.033,-28.349 14.688,-23.721 28.921,-47.442 60.776,-37.403 -10.288,-0.801 -22.119,5.235 -25.459,15.752 -3.291,10.381 1.69,19.912 0.293,30.459 6.929,-8.437 9.932,-15.088 20.596,-20.381 8.867,-4.394 18.257,-8.173 26.079,-14.267 12.593,-9.805 28.281,-22.91 24.927,-41.006 13.672,28.34 16.201,54.658 6.025,84.775 -4.804,14.18 -16.533,29.444 -28.589,37.735 -14.77,10.175 -28.476,12.617 -39.052,27.041 36.045,-18.731 74.8,3.623 111.758,-17.022 -11.46,7.08 -22.393,17.344 -27.11,30.401 -4.941,13.652 -4.702,22.675 -17.505,30.849 -12.954,8.272 -24.951,6.436 -30.278,23.067 -3.447,10.712 -3.237,27.988 4.307,35.38 -10.786,4.122 -26.856,-14.511 -33.775,-21.152 -10.923,-10.498 -18.31,-25.771 -25.947,-39.697 9.985,44.834 50.542,68.945 95.518,69.726 -31.211,4.922 -69.19,15.713 -97.1,-5.625 -7.119,-5.439 -11.27,-12.929 -17.358,-18.847 -6.646,-6.426 -12.188,-7.49 -20.953,-11.367 -16.86,-7.471 -24.106,-20.489 -26.274,-37.891 -1.895,-15.342 -10.723,-23.398 -15.566,-37.734 -3.824,-11.241 3.383,-26.866 16.997,-27.666 z"
       fill="url(#Gradient_7)"
       id="path168"
       style="fill:url(#Gradient_7)" />
    <path
       d="m 5.258,305.618 c 4.644,-7.793 21.485,-9.258 28.457,-7.969 11.451,2.11 21.036,7.315 31.504,11.836 21.221,9.151 44.629,-0.859 65.03,11.787 5.283,3.291 15.415,11.114 15.669,17.949 -11.924,-0.185 -20.723,-1.103 -31.705,5.01 -5.097,2.832 -8.286,5.655 -14.829,5.528 -6.704,-0.118 -10.239,-1.045 -16.601,1.718 -26.162,11.319 -9.077,36.67 -9.18,56.758 -0.049,9.795 0.283,20.469 5.166,29.317 C 69.423,435.276 57.944,423.177 52.231,416.067 44.477,406.448 38.012,396.331 33.686,384.7 25.844,363.636 3.252,349.798 2.412,326.409 2.197,320.257 0.551,310.686 5.258,305.618"
       fill="#cc332f"
       id="path170" />
    <path
       d="m 131.567,330.608 c 14.785,-0.088 23.188,-8.447 36.26,-12.246 14.14,-4.092 28.437,-2.207 40.19,1.758 -3.486,0 -9.057,-0.137 -10.791,0.723 4.209,0.908 9.131,1.718 12.705,4.638 -3.281,-1.035 -6.836,-1.025 -10.298,-0.664 6.651,3.75 14.082,9.18 16.451,16.934 -7.432,-1.895 -11.827,6.523 -17.881,9.56 -6.895,3.438 -16.67,3.575 -24.351,2.061 -16.802,-3.33 -27.314,-15.781 -42.285,-22.031 z"
       fill="url(#Gradient_8)"
       id="path172"
       style="fill:url(#Gradient_8)" />
    <path
       d="m 141.02,338.518 c 15.318,1.573 34.805,7.237 46.714,17.373 13.892,11.817 20.371,28.164 26.221,44.454 2.973,8.232 7.221,17.597 13.154,23.818 5.996,6.279 13.394,7.451 11.396,17.793 -1.396,7.314 -7.695,16.465 -14.799,19.16 -7.32,2.764 -16.748,1.084 -24.268,3.008 -18.042,4.629 -31.123,13.672 -50.659,12.666 -8.892,-0.449 -16.563,-0.86 -25,-4.043 -8.491,-3.223 -15.816,-8.399 -23.452,-12.91 -15.601,-9.2 -27.114,-21.768 -36.646,-36.602 -5.146,-8.027 -5.854,-17.285 -7.544,-26.308 -1.777,-9.59 -3.349,-21.075 0.708,-30.137 6.392,-14.287 26.324,-27.793 41.499,-30.401 15.044,-2.607 27.437,0.342 42.173,2.403 z"
       fill="url(#Gradient_9)"
       id="path174"
       style="fill:url(#Gradient_9)" />
    <path
       d="m 52.548,413.948 c 4.444,14.111 -0.957,24.648 -0.571,38.272 0.42,14.707 6.568,27.744 13.931,37.714 -1.065,-3.3 -2.896,-8.564 -2.598,-10.478 2.144,3.721 4.419,8.164 8.277,10.683 -1.988,-2.822 -3.052,-6.211 -3.765,-9.589 5.6,5.175 13.052,10.595 21.142,10.498 -4.052,-6.524 2.598,-13.272 3.638,-19.952 1.187,-7.636 -1.67,-16.982 -5.469,-23.828 -8.286,-14.97 -23.349,-21.201 -33.857,-33.545 z"
       fill="url(#Gradient_10)"
       id="path176"
       style="fill:url(#Gradient_10)" />
    <path
       d="m 105.595,358.411 c -18.896,4.853 -22.592,12.07 -28.549,23.135 -6.915,12.822 2.568,20.957 -15.889,16.201 -1.807,8.291 22.949,46.933 34.585,39.053 -3.623,-5.772 -14.556,-17.08 -7.676,-23.008 -1.357,-11.094 -8.213,-18.721 -3.301,-30.098 4.204,-9.785 12.974,-14.795 22.725,-16.807 4.248,-0.859 9.595,0.03 13.667,-1.201 6.216,-1.855 6.567,-6.425 11.787,-9.189 8.755,-4.688 21.689,3.34 29.048,-3.467 -4.185,-2.588 -37.769,-21.455 -32.842,-7.568 -7.524,6.621 -14.775,-8.496 -20.928,1.416 5.005,3.593 7.246,10.976 -1.616,11.357 l -1.011,0.176"
       fill="#fffffe"
       id="path178" />
    <path
       d="m 321.938,339.309 c 0,0 -21.05,50.684 -78.242,76.133 0,0 54.643,-37.002 58.003,-63.535 l 20.239,-12.598"
       fill="#de9b36"
       id="path180" />
    <path
       d="m 345.029,369.544 c 0,0 -33.975,43.095 -95.923,52.08 0,0 62.607,-20.801 73.037,-45.449 l 22.886,-6.631"
       fill="#de9b36"
       id="path182" />
    <path
       d="m 361.938,456.243 c 0,0 -53.071,13.965 -107.969,-16.133 0,0 62.539,21.074 85.694,7.656 l 22.275,8.477"
       fill="#de9b36"
       id="path184" />
    <path
       d="m 249.887,454.466 c 0,0 37.554,22.314 60.464,64.892 0,0 -10.434,-43.486 -60.464,-64.892"
       fill="#de9b36"
       id="path186" />
    <path
       d="m 234.98,469.612 c 0,0 34.932,64.902 67.866,75.068 0,0 -35.971,12.305 -67.866,-75.068"
       fill="#de9b36"
       id="path188" />
    <path
       d="m 104.731,389.339 c 25.703,-0.43 50.645,8.144 75.523,17.685 28.564,10.938 42.695,27.393 64.277,45.674 -11.777,5.898 -23.872,-3.418 -36.04,-4.316 -12.588,-0.938 -22.852,3.593 -35.181,-1.299 3.345,3.887 6.904,7.773 9.546,12.881 -5.654,-2.92 -12.349,-12.403 -19.482,-16.202 3.266,4.6 5.542,12.647 6.274,15.782 C 151.85,440.13 130.551,405.97 104.731,389.339"
       fill="#cc352f"
       id="path190" />
    <path
       d="m 106.201,389.27 c 12.002,1.172 27.046,15.127 35.698,22.5 11.577,9.844 21.118,20.401 30.273,32.149 -3.979,-9.61 -9.506,-18.233 -17.104,-24.688 6.519,1.973 12.002,7.793 17.461,11.748 5.781,4.19 11.977,6.709 18.174,10.362 -5.904,-5.635 -13.208,-11.202 -17.92,-17.979 11.797,7.754 22.773,9.063 35.971,13.604 12.422,4.277 23.277,11.064 34.791,17.255 -12.232,-9.414 -26.065,-18.476 -40.264,-25.507 -13.628,-6.768 -30.064,-11.68 -42.319,-20.557 8.984,-1.797 17.514,6.074 24.619,10 -6.48,-2.754 -11.621,-9.619 -18.335,-12.959 -6.284,-3.135 -12.793,-6.025 -19.2,-8.779 -14.257,-6.143 -27.724,-6.787 -42.875,-7.422"
       fill="#942725"
       id="path192" />
    <path
       d="m 170.429,358.626 c 0,0 4.053,7.246 -10.039,9.922 0,0 18.062,2.89 10.039,-9.922"
       fill="#942725"
       id="path194" />
    <path
       d="m 181.152,363.87 c 0,0 4.053,7.256 -10.029,9.932 0,0 18.061,2.91 10.029,-9.932"
       fill="#942725"
       id="path196" />
    <path
       d="m 189.985,373.88 c 0,0 4.038,7.246 -10.034,9.931 0,0 18.052,2.891 10.034,-9.931"
       fill="#942725"
       id="path198" />
    <path
       d="m 153.325,370.979 c 0,0 4.043,7.246 -10.044,9.932 0,0 18.061,2.9 10.044,-9.932"
       fill="#942725"
       id="path200" />
    <path
       d="m 137.622,366.116 c 0,0 4.052,7.256 -10.044,9.912 0,0 18.066,2.91 10.044,-9.912"
       fill="#942725"
       id="path202" />
    <path
       d="m 165.771,377.005 c 0,0 4.058,7.256 -10.034,9.931 0,0 18.057,2.901 10.034,-9.931"
       fill="#942725"
       id="path204" />
    <path
       d="m 175.527,385.188 c 0,0 4.053,7.256 -10.029,9.912 0,0 18.061,2.92 10.029,-9.912"
       fill="#942725"
       id="path206" />
    <path
       d="m 190.395,388.567 c 0,0 4.048,7.266 -10.029,9.932 0,0 18.056,2.91 10.029,-9.932"
       fill="#942725"
       id="path208" />
    <path
       d="m 204.355,399.622 c 0,0 4.038,7.246 -10.049,9.912 0,0 18.062,2.9 10.049,-9.912"
       fill="#942725"
       id="path210" />
    <path
       d="m 101.342,441.067 c 0,0 7.862,2.695 7.979,-11.65 0,0 6.069,17.246 -7.979,11.65"
       fill="#942725"
       id="path212" />
    <path
       d="m 108.432,450.677 c 0,0 7.862,2.705 7.989,-11.641 0,0 6.074,17.256 -7.989,11.641"
       fill="#942725"
       id="path214" />
    <path
       d="m 119.853,457.591 c 0,0 7.861,2.675 7.969,-11.661 0,0 6.079,17.256 -7.969,11.661"
       fill="#942725"
       id="path216" />
    <path
       d="m 110.449,422.014 c 0,0 7.861,2.696 7.969,-11.64 0,0 6.093,17.246 -7.969,11.64"
       fill="#942725"
       id="path218" />
    <path
       d="m 102.871,407.444 c 0,0 7.861,2.686 7.964,-11.641 0,0 6.079,17.256 -7.964,11.641"
       fill="#942725"
       id="path220" />
    <path
       d="m 118.603,433.196 c 0,0 7.861,2.695 7.979,-11.641 0,0 6.079,17.247 -7.979,11.641"
       fill="#942725"
       id="path222" />
    <path
       d="m 128.403,441.341 c 0,0 7.861,2.695 7.978,-11.641 0,0 6.07,17.246 -7.978,11.641"
       fill="#942725"
       id="path224" />
    <path
       d="m 134.379,455.374 c 0,0 7.867,2.676 7.984,-11.66 0,0 6.074,17.256 -7.984,11.66"
       fill="#942725"
       id="path226" />
    <path
       d="m 147.729,467.112 c 0,0 7.871,2.705 7.979,-11.631 0,0 6.079,17.237 -7.979,11.631"
       fill="#942725"
       id="path228" />
    <path
       d="m 75.742,315.823 c 2.676,-5.371 -1.367,-12.832 -9.043,-16.65 -7.666,-3.799 -16.05,-2.539 -18.731,2.861 z"
       fill="url(#Gradient_11)"
       id="path230"
       style="fill:url(#Gradient_11)" />
    <path
       d="m 73.188,304.895 c 1.45,-2.9 -0.727,-6.914 -4.863,-8.965 -4.136,-2.06 -8.657,-1.396 -10.108,1.514 l 14.971,7.451"
       fill="#1a1919"
       id="path232" />
    <path
       d="M 27.124,369.798 C 22.26,373.323 14.228,370.569 9.204,363.645 4.17,356.721 4.043,348.235 8.911,344.68 Z"
       fill="url(#Gradient_12)"
       id="path234"
       style="fill:url(#Gradient_12)" />
    <path
       d="m 15.927,369.095 c -2.627,1.904 -6.943,0.429 -9.668,-3.311 -2.705,-3.75 -2.783,-8.32 -0.146,-10.205 l 9.814,13.516"
       fill="#1a1919"
       id="path236" />
  </g>
</svg>
