<?xml version="1.0" encoding="UTF-8" standalone="no"?>
<!-- Created with Inkscape (http://www.inkscape.org/) -->

<svg
   width="36.86961mm"
   height="37.409481mm"
   viewBox="0 0 36.86961 37.409481"
   version="1.1"
   id="svg2363"
   inkscape:version="1.1 (c68e22c387, 2021-05-23)"
   sodipodi:docname="meat.svg"
   xmlns:inkscape="http://www.inkscape.org/namespaces/inkscape"
   xmlns:sodipodi="http://sodipodi.sourceforge.net/DTD/sodipodi-0.dtd"
   xmlns="http://www.w3.org/2000/svg"
   xmlns:svg="http://www.w3.org/2000/svg">
  <sodipodi:namedview
     id="namedview2365"
     pagecolor="#ffffff"
     bordercolor="#666666"
     borderopacity="1.0"
     inkscape:pageshadow="2"
     inkscape:pageopacity="0.0"
     inkscape:pagecheckerboard="0"
     inkscape:document-units="mm"
     showgrid="false"
     fit-margin-top="0"
     fit-margin-left="0"
     fit-margin-right="0"
     fit-margin-bottom="0"
     inkscape:zoom="0.4187009"
     inkscape:cx="108.66946"
     inkscape:cy="154.04791"
     inkscape:window-width="1294"
     inkscape:window-height="704"
     inkscape:window-x="0"
     inkscape:window-y="0"
     inkscape:window-maximized="1"
     inkscape:current-layer="layer1" />
  <defs
     id="defs2360" />
  <g
     inkscape:label="Camada 1"
     inkscape:groupmode="layer"
     id="layer1"
     transform="translate(-76.485727,-107.28576)">
    <g
       id="g2330"
       transform="matrix(0.35277777,0,0,-0.35277777,101.53319,187.40443)">
      <path
         d="m -27.074,126.373 c 20.3,-11.542 46.347,-3.65 56.641,17.762 8.698,18.094 2.588,40.219 -14.16,51.289 -7.687,5.08 -16.366,7.198 -24.784,6.7 -6.654,-0.394 -12.403,4.348 -13.752,10.875 -0.265,1.281 -0.643,2.516 -1.161,3.69 -6.87,15.6 -35.968,15.054 -45.417,-11.056 -6.995,-19.332 16.075,-50.823 28.525,-65.873 3.434,-5.373 8.181,-10.017 14.108,-13.387"
         style="fill:#8c1c21;fill-opacity:1;fill-rule:nonzero;stroke:none"
         id="path11334"
         inkscape:connector-curvature="0" />
      <path
         d="m -26.723,129.684 c 18.809,-10.694 42.943,-3.382 52.481,16.458 8.059,16.764 2.398,37.264 -13.12,47.521 -7.122,4.707 -15.165,6.67 -22.964,6.208 -6.165,-0.364 -11.491,4.028 -12.741,10.076 -0.246,1.188 -0.597,2.331 -1.077,3.42 -6.365,14.453 -33.326,13.947 -42.08,-10.244 -6.482,-17.912 14.893,-47.092 26.429,-61.036 3.182,-4.978 7.58,-9.28 13.072,-12.403"
         style="fill:#c71e24;fill-opacity:1;fill-rule:nonzero;stroke:none"
         id="path11336"
         inkscape:connector-curvature="0" />
      <path
         d="m -6.858,146.474 c -4.945,2.811 -6.675,9.099 -3.863,14.045 2.811,4.945 9.099,6.673 14.044,3.862 4.945,-2.812 6.675,-9.099 3.863,-14.044 -2.811,-4.945 -9.1,-6.675 -14.044,-3.863"
         style="fill:#8c1c21;fill-opacity:1;fill-rule:nonzero;stroke:none"
         id="path11338"
         inkscape:connector-curvature="0" />
      <path
         d="m -5.727,148.464 c -3.846,2.186 -5.191,7.077 -3.004,10.923 2.186,3.846 7.077,5.191 10.923,3.005 3.846,-2.187 5.191,-7.078 3.004,-10.924 -2.186,-3.846 -7.077,-5.191 -10.923,-3.004"
         style="fill:#f6d77a;fill-opacity:1;fill-rule:nonzero;stroke:none"
         id="path11340"
         inkscape:connector-curvature="0" />
      <path
         d="m 9.126,169.639 c -0.587,0.334 1.09,4.39 3.745,9.06 2.655,4.671 5.284,8.186 5.871,7.852 0.587,-0.333 -1.089,-4.391 -3.744,-9.061 -2.656,-4.67 -5.285,-8.185 -5.872,-7.851"
         style="fill:#8c1c21;fill-opacity:1;fill-rule:nonzero;stroke:none"
         id="path11342"
         inkscape:connector-curvature="0" />
      <path
         d="m -6.856,167.316 c -0.587,0.334 1.089,4.391 3.745,9.061 2.655,4.671 5.283,8.186 5.871,7.852 0.587,-0.333 -1.09,-4.39 -3.745,-9.061 -2.655,-4.67 -5.284,-8.186 -5.871,-7.852"
         style="fill:#8c1c21;fill-opacity:1;fill-rule:nonzero;stroke:none"
         id="path11344"
         inkscape:connector-curvature="0" />
      <path
         d="m 6.005,132.982 c -0.588,0.334 3.242,8.177 8.552,17.517 5.311,9.341 10.092,16.643 10.679,16.309 0.588,-0.334 -3.241,-8.177 -8.552,-17.518 C 11.373,139.95 6.592,132.648 6.005,132.982"
         style="fill:#8c1c21;fill-opacity:1;fill-rule:nonzero;stroke:none"
         id="path11346"
         inkscape:connector-curvature="0" />
    </g>
  </g>
</svg>
