<?xml version="1.0" encoding="UTF-8" standalone="no"?>
<!-- Created with Inkscape (http://www.inkscape.org/) -->

<svg
   id="svg3815"
   version="1.0"
   viewBox="0 0 1053.0418 938.53447"
   inkscape:version="1.1.2 (0a00cf5339, 2022-02-04)"
   sodipodi:docname="item174.svg"
   width="1053.0419"
   height="938.53448"
   xmlns:inkscape="http://www.inkscape.org/namespaces/inkscape"
   xmlns:sodipodi="http://sodipodi.sourceforge.net/DTD/sodipodi-0.dtd"
   xmlns="http://www.w3.org/2000/svg"
   xmlns:svg="http://www.w3.org/2000/svg"
   xmlns:rdf="http://www.w3.org/1999/02/22-rdf-syntax-ns#"
   xmlns:cc="http://creativecommons.org/ns#"
   xmlns:dc="http://purl.org/dc/elements/1.1/">
  <defs
     id="defs17" />
  <sodipodi:namedview
     id="namedview15"
     pagecolor="#ffffff"
     bordercolor="#666666"
     borderopacity="1.0"
     inkscape:pageshadow="2"
     inkscape:pageopacity="0.0"
     inkscape:pagecheckerboard="0"
     showgrid="false"
     fit-margin-top="0"
     fit-margin-left="0"
     fit-margin-right="0"
     fit-margin-bottom="0"
     inkscape:zoom="0.20985958"
     inkscape:cx="507.48219"
     inkscape:cy="486.03928"
     inkscape:window-width="1366"
     inkscape:window-height="719"
     inkscape:window-x="0"
     inkscape:window-y="25"
     inkscape:window-maximized="1"
     inkscape:current-layer="svg3815" />
  <g
     id="layer1"
     transform="rotate(-45,477.75846,254.46122)">
    <path
       id="path3877"
       style="fill:#f2e1ec;fill-rule:evenodd"
       d="m 278.92,237.63 -71.02,14.89 -14.32,9.17 -0.57,6.87 30.93,15.46 4.01,4.01 -12.03,14.32 -9.16,18.33 c 0,0 5.72,6.87 10.3,6.87 4.59,0 29.79,-0.57 32.08,-0.57 2.29,0 22.33,-2.86 22.33,-2.86 l 17.76,-8.02 v 4.58 l -9.74,20.62 0.58,13.74 -5.16,17.19 1.15,9.16 12.02,6.87 15.47,-4.58 8.59,-6.87 5.73,-1.15 5.15,12.03 6.87,3.44 14.32,-2.3 16.61,-20.04 5.73,-26.92 1.14,-18.33 28.07,37.23 21.19,11.46 8.59,-8.6 2.86,-24.62 29.78,-4.58 1.15,-10.31 -5.15,-13.18 -14.9,-26.34 -16.03,-14.32 41.23,-30.36 14.32,-19.47 -8.02,-9.73 -29.2,-1.72 -0.58,-2.29 8.59,-17.76 -2.86,-5.73 -27.49,4.59 -18.9,6.3 -26.35,14.31 -9.73,6.88 1.71,-26.35 -7.44,-47.54 -7.45,-12.6 -6.3,2.87 -26.91,25.2 -5.16,1.72 -21.76,-17.76 h -12.03 l -4.01,62.43 z"
       transform="translate(137.35,-178.8)" />
    <path
       id="path4649"
       style="fill:#f2e1ec;fill-rule:evenodd"
       d="m 278.35,461.57 -45.25,47.54 -14.89,25.77 -6.87,29.78 -2.29,21.19 2.86,2.87 17.75,-7.45 17.19,-7.44 1.14,1.71 4.58,18.33 10.31,4.01 10.89,-6.87 18.9,-24.63 8.01,-27.49 -1.14,-34.94 -8.02,-27.49 -9.16,-14.32 z"
       transform="translate(137.35,-178.8)" />
    <path
       id="path4651"
       style="fill:#f2e1ec;fill-rule:evenodd"
       d="m 296.67,790.89 h 53.84 l 26.35,14.32 26.92,17.75 8.01,17.19 2.29,26.34 c 0,0 1.15,5.16 -2.29,5.16 -3.43,0 -34.93,5.72 -34.93,5.72 l -1.15,10.31 v 18.9 l -9.74,8.59 -6.87,-0.57 -41.23,-44.1 -19.48,-52.12 z"
       transform="translate(137.35,-178.8)" />
    <path
       id="path4655"
       style="fill:#776f6f;fill-rule:evenodd"
       d="m 155.21,974.74 -38.95,25.2 -14.31,18.86 -4.013,19.5 4.583,12 -17.183,31 2.291,24.6 8.018,14.3 10.314,2.9 20.04,1.7 16.04,-7.5 11.45,-7.4 50.97,-14.3 23.49,-16.6 8.59,-17.8 2.29,-21.7 8.59,-14.4 3.44,-9.1 5.72,-5.8 -2.86,-15.99 -9.74,-26.92 -17.75,-16.03 -17.76,1.71 -9.73,4.01 -6.88,8.59 -33.21,3.44 z"
       transform="translate(137.35,-178.8)" />
    <path
       id="path4653"
       style="fill:#e9e7e4;fill-rule:evenodd"
       d="m 90.491,10.26 -50.4,75.6 -24.627,103.09 -12.028,86.48 4.0095,81.33 10.882,124.28 23.481,164.38 20.046,111.68 28.064,127.72 40.091,147.78 8.02,20 21.19,-8 14.89,-14.9 9.16,-12 -12.6,-52.7 -26.91,-92.78 -58.996,-278.92 -21.191,-160.94 -4.009,-42.95 -2.291,-121.99 v -37.23 l 2.864,-45.82 5.727,-45.82 4.009,-23.48 7.446,-26.919 7.445,-32.073 6.3,-29.782 3.437,-16.036 h -4.01 z"
       transform="translate(137.35,-178.8)" />
    <path
       id="path4657"
       style="fill:#4e4545;fill-rule:evenodd"
       d="m 92.21,1112.2 5.154,8.6 26.346,4.6 11.45,-3.5 20.62,-13.7 51.55,-13.8 19.47,-16.6 8.59,-12 4.01,-24.1 9.17,-21.7 9.16,-10.9 -6.87,-20.04 -7.45,16.64 -9.16,17.1 1.14,15.5 -9.73,25.8 -14.9,14.9 -10.3,8.6 -24.06,7.4 -20.62,2.9 -11.45,6.3 -6.3,5.7 -14.32,8.6 -17.18,-1.7 -14.893,-7.5 z"
       transform="translate(137.35,-178.8)" />
    <path
       id="path4659"
       style="fill:#2d2d62;fill-rule:evenodd"
       d="m 157.5,1115.6 29.21,72.2 28.06,68.7 8.59,12.6 14.9,-5.1 8.01,1.1 13.18,17.2 14.32,1.7 2.86,-8 -4.01,-10.9 1.15,-15.5 5.72,-10.3 5.16,-4.5 -30.93,-71.6 -25.77,-57.3 -9.17,-17.8 -23.48,10.3 -29.21,11.5 z"
       transform="translate(137.35,-178.8)" />
    <path
       id="path4661"
       style="fill:#776f6f;fill-rule:evenodd"
       d="m 225.08,1273.1 16.61,25.8 16.04,5.7 26.34,-5.7 14.9,-17.2 -5.73,-31.5 -8.59,-16 -9.74,9.7 -1.72,13.8 2.87,18.3 v 5.7 l -12.6,4.6 -8.02,-5.7 -9.74,-17.2 -13.74,3.4 z"
       transform="translate(137.35,-178.8)" />
    <path
       id="path3875"
       style="fill:#000000"
       d="m 391.44,1130.2 c -4.76,-1.4 -8.65,-3.5 -11.86,-6.5 -3.43,-3.2 -15.54,-19.8 -20.18,-27.7 -1.75,-3 -4.86,-8.2 -6.91,-11.6 -2.04,-3.5 -4.43,-7.8 -5.31,-9.8 -0.88,-1.9 -2.46,-5.4 -3.53,-7.7 -3.06,-6.7 -5.51,-12.5 -6.68,-15.8 -4.37,-12.1 -9.84,-24.2 -11.47,-25.3 -1.3,-0.9 -1.77,-2.1 -1.41,-3.5 0.3,-1.1 -0.31,-3.9 -1.35,-6.1 -1.05,-2.2 -3.28,-8.4 -4.95,-13.8 -1.68,-5.4 -3.73,-11.11 -4.56,-12.72 -0.83,-1.61 -1.52,-3.91 -1.52,-5.1 0,-1.69 -0.44,-2.05 -2.06,-1.63 -2.54,0.67 -3.73,-1.81 -2.11,-4.39 0.89,-1.44 0.72,-2.81 -0.82,-6.39 -1.07,-2.51 -2.64,-4.83 -3.48,-5.15 -0.96,-0.37 -1.53,-1.87 -1.53,-4.08 0,-1.91 -1.52,-6.7 -3.37,-10.64 -1.86,-3.93 -4.22,-9.74 -5.25,-12.89 -1.03,-3.16 -2.4,-5.75 -3.03,-5.75 -0.64,-0.01 -3.03,1.55 -5.32,3.47 -2.29,1.91 -7.62,5.13 -11.84,7.16 -6.57,3.15 -8.7,3.69 -14.69,3.71 -13.7,0.04 -24.7,-2.21 -28.48,-5.84 -1.56,-1.49 -4.27,-6.15 -6.02,-10.36 -1.75,-4.21 -3.59,-8.43 -4.09,-9.39 -1.36,-2.6 -1.07,-13.65 0.49,-18.76 1.6,-5.24 6.48,-15.36 12.55,-26 4.24,-7.45 5.2,-11.92 3.08,-14.47 -2.08,-2.51 -2.37,-11.01 -0.58,-17.18 2.5,-8.59 5.39,-13.8 11.58,-20.84 8.59,-9.79 8.62,-9.88 6.08,-20.2 -1.19,-4.85 -3.73,-13.76 -5.65,-19.81 -4.92,-15.53 -5.07,-16.05 -7.42,-25.5 -1.15,-4.68 -2.96,-11.43 -4,-15 -1.05,-3.58 -2.64,-9.65 -3.54,-13.5 -0.9,-3.85 -2.68,-10.15 -3.95,-14 -2.38,-7.18 -3.48,-11.52 -5.59,-22 -0.67,-3.3 -1.84,-8.56 -2.6,-11.69 -0.76,-3.13 -1.53,-7.41 -1.71,-9.5 -0.18,-2.1 -0.82,-4.99 -1.41,-6.42 -0.6,-1.44 -1.78,-6.62 -2.63,-11.5 -0.85,-4.89 -2.47,-12.27 -3.6,-16.39 -1.14,-4.13 -2.54,-9.98 -3.12,-13 -0.58,-3.03 -1.98,-9.1 -3.1,-13.5 -1.13,-4.4 -2.41,-10.48 -2.84,-13.5 -0.44,-3.03 -1.69,-8.65 -2.77,-12.5 -1.09,-3.85 -2.51,-10.38 -3.16,-14.5 -0.66,-4.13 -2.1,-11.1 -3.22,-15.5 -1.11,-4.4 -2.39,-10.93 -2.84,-14.5 -0.45,-3.58 -1.55,-10.33 -2.45,-15 -0.9,-4.68 -2.29,-12.94 -3.08,-18.37 -0.8,-5.42 -1.7,-10.27 -2.02,-10.78 -0.31,-0.5 -1.19,-5.96 -1.97,-12.13 -1.46,-11.73 -2.55,-18.25 -5.12,-30.65 -0.84,-4.08 -1.65,-8.36 -1.8,-9.5 -1.88,-14.29 -3.84,-25.93 -5.04,-29.97 -0.81,-2.73 -1.48,-6.8 -1.49,-9.03 -0.01,-2.24 -0.7,-7.22 -1.53,-11.07 -0.83,-3.85 -1.93,-12.4 -2.43,-19 -0.51,-6.6 -1.68,-14.7 -2.62,-18 -1.01,-3.57 -1.8,-10.46 -1.96,-17 -0.32,-13.39 -1.16,-22.17 -2.45,-25.5 -1,-2.62 -3.31,-24.06 -5.05,-47 -0.57,-7.43 -1.69,-21.15 -2.51,-30.5 -0.81,-9.35 -1.47,-19.48 -1.46,-22.5 0.01,-8.32 -3.21,-34.19 -6.55,-52.62 -0.81,-4.46 -1.79,-17.51 -2.17,-29 -0.86,-25.84 -0.84,-29.52 0.22,-41.382 0.46,-5.225 0.77,-10.625 0.69,-12 -0.09,-1.375 0.27,-4.975 0.79,-8 0.52,-3.025 1.45,-9.1 2.06,-13.5 1.26,-9.057 3.33,-20.157 5.42,-29 0.78,-3.3 1.97,-9.825 2.64,-14.5 0.67,-4.675 1.83,-10.244 2.57,-12.376 0.75,-2.1315 1.35,-5.5065 1.35,-7.4998 0,-1.9934 1.33,-9.2492 2.96,-16.124 1.63,-6.875 3.61,-16.775 4.4,-22 0.79,-5.225 1.9,-10.85 2.47,-12.5 0.57,-1.65 1.58,-5.475 2.25,-8.5 3.98,-18.017 15.03,-42.588 27.69,-61.608 0.4,-0.61 1.6,-2.41 2.66,-4 1.07,-1.59 2.45,-3.34 3.09,-3.89 1.04,-0.91 7.4,-10.2 17.8,-26 2.17,-3.3 5.69,-7.8 7.81,-10 2.13,-2.2 5.43,-5.68 7.33,-7.73 2.21,-2.37 4.04,-3.52 5.01,-3.15 1.97,0.76 2.03,0.31 -1.47,11.38 -1.65,5.22 -3,10.08 -3,10.79 0,0.72 -0.65,2.57 -1.45,4.12 -1.48,2.86 -2.59,8.34 -5,24.62 -0.74,4.97 -1.97,10.59 -2.75,12.5 -0.77,1.91 -2.19,7.07 -3.15,11.47 -0.96,4.398 -2.82,11.373 -4.14,15.498 -2.9,9.126 -4.43,14.934 -5.5,20.945 -0.45,2.505 -1.58,8.155 -2.52,12.555 -4.04,18.93 -4.6,22.466 -4.91,31.027 -0.17,4.965 -0.81,12.165 -1.4,16 -4.15,26.668 -5.66,78.852 -3.65,126.48 0.38,9.06 0.66,17.16 0.63,17.99 -0.4,10.08 0.04,44.5 0.58,45.36 0.77,1.22 0.58,22.32 -0.21,23.6 -0.26,0.42 0.18,4.76 0.98,9.65 0.8,4.89 1.47,13 1.48,18.02 0.01,7.97 1.41,19.52 5.06,41.87 1.22,7.42 1.63,10.14 2.86,19 0.54,3.85 1.92,12.62 3.07,19.5 1.16,6.87 2.54,17.67 3.07,24 0.54,6.32 1.43,14.87 1.99,19 0.56,4.12 1.21,9.52 1.44,12 0.51,5.37 2.29,14.81 3.02,16 0.29,0.46 1.18,8.24 1.97,17.27 1.3,14.77 3.23,25.56 5.59,31.23 0.46,1.1 1.1,4.02 1.44,6.5 0.33,2.47 1.2,6.07 1.93,8 1.63,4.3 6.57,30.44 6.57,34.76 0,3.3 1.99,11.65 3.99,16.74 0.65,1.65 1.57,6.37 2.06,10.5 0.48,4.12 1.6,11.1 2.48,15.5 0.88,4.4 2.2,12.72 2.93,18.5 0.73,5.77 1.79,11.97 2.37,13.77 0.57,1.79 1.03,3.37 1,3.5 -0.02,0.12 0.41,2.03 0.96,4.23 0.55,2.2 2.02,9.62 3.25,16.5 1.24,6.87 2.66,13.03 3.17,13.67 0.5,0.65 0.8,1.78 0.67,2.5 -0.35,1.87 1.01,9.51 2.64,14.83 0.76,2.47 1.92,7.42 2.57,11 0.66,3.57 1.55,6.95 1.97,7.5 0.78,1.02 1.75,5.63 2.31,11.01 0.17,1.65 0.78,3.9 1.36,5 1.31,2.51 4.38,14.55 5.22,20.49 0.35,2.48 0.95,5.02 1.33,5.64 0.65,1.05 2.91,10.9 4.25,18.51 0.31,1.75 0.84,3.63 1.17,4.17 0.34,0.55 1.2,3.51 1.91,6.59 2.21,9.57 3.6,14.42 5.56,19.33 1.04,2.61 3.24,9.81 4.9,16 13.96,52.21 12.94,49.01 15.41,48.24 1.11,-0.35 5.06,-0.95 8.78,-1.35 6.36,-0.67 7.06,-1 12,-5.74 2.88,-2.76 6.59,-5.6 8.24,-6.3 12.39,-5.28 20.31,-5.74 28.75,-1.7 3.17,1.51 5.76,3.06 5.76,3.43 0,0.37 1.25,2.03 2.78,3.68 4.3,4.64 8.28,13.81 9.44,21.77 0.59,3.98 2.08,9.48 3.32,12.23 4.86,10.79 5.64,17.81 2.39,21.59 -1.13,1.33 -2.93,3.42 -4,4.67 -1.06,1.24 -1.94,3.18 -1.94,4.31 0,2.51 -1.5,5.47 -4.74,9.37 -3.24,3.89 -4.22,6.67 -5.32,15.06 -2.28,17.4 -4.66,23.03 -14,33.07 -3.26,3.51 -5.94,6.73 -5.94,7.15 0,0.43 1.54,3.93 3.43,7.78 1.88,3.85 5.24,10.88 7.45,15.63 2.22,4.75 4.61,9.25 5.33,10 1.19,1.26 2.67,4.74 5.88,13.87 3.13,8.92 6.43,16.31 8.57,19.21 1.29,1.75 2.34,3.97 2.34,4.95 0,0.97 1.12,3.76 2.48,6.2 1.36,2.43 3.41,6.83 4.55,9.78 4.09,10.51 17.08,36.81 18.18,36.81 0.39,0 1.01,1.7 1.38,3.8 0.37,2.1 1.02,4.2 1.45,4.7 1.91,2.5 6,11.1 7.95,16.7 1.17,3.4 2.62,7.1 3.22,8.2 0.6,1.2 1.15,2.8 1.22,3.6 0.14,1.7 2.22,8.4 3.58,11.5 1.25,2.9 2.04,8 2.67,17 0.45,6.4 0.26,8.1 -1,9 -0.85,0.7 -3.35,3.6 -5.56,6.6 -4.72,6.4 -4.26,5.9 -10.62,10.8 -5.88,4.5 -15.61,8.2 -21.1,8.1 -2.14,-0.1 -6.05,-0.7 -8.67,-1.4 z m 21.27,-10.9 c 6.06,-2.9 13.93,-9 16.55,-12.9 4.15,-6.2 4.16,-14.5 0.04,-27 -3.64,-11.1 -7.03,-17.8 -9.1,-17.8 -0.72,0 -2.42,1.4 -3.77,3 -4.44,5.3 -4.79,20.8 -0.61,27.7 3.96,6.5 1.27,12.2 -7.48,15.8 -9.14,3.7 -14.49,1.1 -19.79,-9.7 -3.75,-7.6 -7.12,-10.7 -11.84,-10.7 -3.73,0 -9,3.7 -9,6.3 0,1.3 7.01,12.2 10.87,16.9 5.49,6.7 7.76,8.1 15.63,10.1 3.78,1 15.01,-0.1 18.5,-1.7 z m -5.68,-16.8 c 4.54,-2.3 5.71,-3.9 4.5,-6.2 -0.61,-1.2 -1.57,-2.4 -2.13,-2.8 -1.57,-1 -2.1,-20.6 -0.7,-25.8 0.83,-3.1 2.66,-5.9 5.74,-8.9 4.46,-4.4 4.5,-4.5 3.37,-8.2 -0.63,-2.1 -1.65,-4.2 -2.25,-4.5 -0.6,-0.4 -4.17,-0.6 -7.92,-0.6 -4.02,0.1 -8.22,-0.4 -10.23,-1.2 -1.87,-0.8 -5.38,-1.8 -7.8,-2.2 -2.42,-0.4 -4.91,-1.1 -5.54,-1.6 -0.74,-0.6 -1.72,-0.3 -2.75,0.7 -2.08,2.1 -2,3.4 0.39,6.4 1.08,1.4 1.97,3 1.98,3.5 0.01,0.6 2.57,6.2 5.69,12.5 3.11,6.4 6.3,12.9 7.08,14.5 0.79,1.7 1.28,4.6 1.09,6.5 -0.53,5.6 -3.74,5.3 -9.68,-0.9 -4.58,-4.8 -5.14,-5.1 -9.9,-5.1 -3.75,0 -5.2,0.5 -5.67,1.7 -0.88,2.3 -0.29,2.6 2.92,1.3 6.19,-2.3 13.78,2.9 17.02,11.6 2.29,6.2 3.11,7.3 6.91,8.9 3.9,1.8 5.18,1.8 7.88,0.4 z m -53.92,-40.8 c 7.99,-7.6 11.78,-11 15.96,-14.4 2.63,-2.1 4.56,-4.1 4.3,-4.3 -0.44,-0.5 -8.53,4.4 -9.66,5.7 -0.27,0.4 -1.62,1.2 -3,1.9 -6.52,3.2 -11.99,7.6 -11.99,9.6 -0.01,3.8 1.39,4.3 4.39,1.5 z m 15.68,-8.8 2.42,-2.8 -3,2.5 c -1.65,1.4 -3.18,2.7 -3.41,2.8 -0.23,0.1 0.03,0.2 0.57,0.2 0.55,0 2.09,-1.2 3.42,-2.7 z m -17.97,-0.5 c 1.87,-1.3 6.36,-4 9.99,-6 6.04,-3.4 10.07,-6.6 8.53,-6.9 -1.88,-0.3 -5.32,-0.1 -6.63,0.4 -0.82,0.3 -6,1.4 -11.5,2.4 -8.71,1.6 -9.95,2.1 -9.67,3.7 0.36,2.1 4.34,8.6 5.28,8.6 0.34,0 2.14,-1 4,-2.2 z m 24.39,-4.8 c 0.34,-0.5 0.17,-1 -0.38,-1 -0.55,0 -1.28,0.5 -1.62,1 -0.34,0.6 -0.16,1 0.39,1 0.55,0 1.27,-0.4 1.61,-1 z m 37.5,-7.9 c 0,-2.2 -2.43,-6.1 -3.91,-6.2 -3.01,-0.3 -6.6,0.2 -12.09,1.8 l -5.5,1.6 4.5,1.8 c 4.76,1.9 17,2.7 17,1 z m -61.5,-1.6 c 3.3,-0.3 7.13,-0.8 8.5,-1.1 2.42,-0.5 2.44,-0.6 0.56,-1.9 -1.07,-0.8 -2.98,-1.5 -4.26,-1.5 -1.28,0 -3.1,-0.4 -4.06,-0.9 -3.11,-1.7 -11.45,-2.9 -13.9,-2 -2.62,1 -2.9,2.6 -1.13,6.5 1.07,2.3 1.61,2.6 4.75,2 1.95,-0.3 6.24,-0.8 9.54,-1.1 z m 33.89,-7 c 1.75,-0.8 3.72,-2.7 4.38,-4.2 0.66,-1.5 2.51,-4.8 4.11,-7.4 4.21,-6.7 4.48,-8.2 2.27,-13 -4.85,-10.71 -6.86,-15.55 -7.49,-18.07 -0.95,-3.79 -3.64,-5.03 -7.78,-3.59 -4.49,1.57 -14.88,7.82 -14.88,8.96 0,0.5 0.71,2.59 1.58,4.63 0.86,2.07 2.49,6.37 3.63,9.67 1.13,3.3 2.39,6.5 2.79,7 1.55,2.2 5.16,14.7 4.63,16.1 -0.75,1.9 2.59,1.9 6.76,-0.1 z m 18.86,-2.2 c 3,-0.5 3.37,-1.2 1.61,-3 -0.86,-0.9 -2.1,-0.6 -4.99,1.1 -4.22,2.4 -5.19,4.3 -1.62,3.2 1.24,-0.4 3.49,-1 5,-1.3 z m -1.28,-10 c 0.02,-0.7 -0.27,-1.3 -0.64,-1.3 -1.27,0 -4.33,3.4 -4.33,4.7 0,1.9 4.93,-1.6 4.97,-3.4 z m -64.43,-8.8 c 4.06,-3.8 6.17,-6.5 5.21,-6.5 -0.9,0 -1.88,0.5 -2.19,1 -0.31,0.5 -2.53,1.8 -4.93,3 -5.37,2.6 -7.88,5.2 -7.04,7.4 0.34,0.9 0.96,1.6 1.38,1.6 0.41,0 3.82,-2.9 7.57,-6.5 z m -3.38,-5.5 c 3.85,-2.3 9.44,-5.21 12.42,-6.53 2.98,-1.32 5.42,-2.68 5.42,-3.03 0,-1.08 -5.41,0.37 -11.1,2.96 -2.97,1.35 -7.98,3.2 -11.15,4.1 -5.7,1.7 -6.86,3 -4.55,5.3 1.58,1.6 0.98,1.8 8.96,-2.8 z m 2.17,-8.39 c 3.4,-1.34 9.1,-3.4 12.67,-4.57 10.58,-3.48 14.27,-6.97 6.8,-6.41 -4.38,0.33 -29.82,5.04 -32.05,5.93 -1.92,0.77 -3.33,4.74 -2.28,6.43 1.13,1.83 8.45,1.15 14.86,-1.38 z M 371.8,974.4 c 3.2,-3.44 5.85,-7 5.87,-7.92 0.07,-2.54 -5.85,-17.42 -8.03,-20.19 -1.83,-2.34 -2.39,-2.45 -11.36,-2.21 -6.82,0.18 -10.13,0.71 -11.99,1.93 -2.56,1.68 -3.36,4.04 -1.71,5.05 0.48,0.3 1.13,2.16 1.45,4.15 0.32,1.98 1.44,5.48 2.49,7.77 3.24,7.13 5.27,12.13 5.33,13.17 0.2,3.29 2.08,4.5 7.03,4.5 4.95,0 5.24,-0.17 10.92,-6.25 z m 8.98,3.21 c 2.32,-1.24 2.54,-3.79 0.38,-4.62 -1.51,-0.58 -6.45,3.12 -6.45,4.83 0,1.16 3.76,1.03 6.07,-0.21 z m -63.51,-11.75 c 2.17,-2.08 5.77,-5 8,-6.5 2.23,-1.49 5.6,-4.37 7.5,-6.4 2.58,-2.77 2.82,-3.27 0.94,-1.99 -1.37,0.94 -3.62,2.21 -5,2.82 -14.01,6.21 -18,8.95 -18,12.37 0,2.14 0.76,3.49 1.97,3.49 0.35,0 2.42,-1.7 4.59,-3.79 z m -0.22,-10.66 c 5.04,-2.45 10.49,-5.36 12.12,-6.46 l 2.95,-2 -11.34,0.58 c -12.96,0.66 -16.65,1.43 -16.36,3.42 0.29,2.01 2.72,8.91 3.13,8.91 0.19,0 4.46,-2.01 9.5,-4.45 z m -44.72,-15.68 c 8.02,-4.2 16.38,-9.55 16.38,-10.49 0,-0.28 -0.47,-1.4 -1.06,-2.49 -0.99,-1.86 -1.41,-1.66 -6.68,3.16 -5.13,4.69 -14.56,9.95 -17.83,9.95 -1.97,0 -6.43,2.19 -6.43,3.16 0,0.46 1.75,0.84 3.87,0.84 2.6,0 6.47,-1.36 11.75,-4.13 z m 78.11,-7.1 c 4.55,-4.53 8.27,-9 8.27,-9.95 0,-2.29 -2.1,-6.82 -3.16,-6.82 -0.46,0 -0.84,-0.88 -0.84,-1.94 0,-3.03 -1.94,-3.5 -4.24,-1.03 -1.15,1.24 -6.02,4.11 -10.82,6.39 l -8.72,4.15 1.76,3.62 c 0.97,1.99 2.07,4.84 2.44,6.32 0.98,3.92 3.57,7.49 5.43,7.49 0.89,0 5.33,-3.7 9.88,-8.23 z m -112.73,6.23 c -0.82,-0.54 -1.95,-0.97 -2.5,-0.97 -0.55,0 -0.32,0.43 0.5,0.97 0.83,0.53 1.95,0.97 2.5,0.97 0.55,0 0.33,-0.44 -0.5,-0.97 z m 128,-0.42 c 0,-0.78 -0.27,-2.12 -0.6,-2.99 -0.5,-1.32 -0.88,-1.21 -2.4,0.67 -1,1.22 -1.6,2.57 -1.34,2.98 0.82,1.34 4.34,0.8 4.34,-0.66 z M 262.77,934.7 c 7.16,-1.98 13.83,-6.12 19.44,-12.05 1.65,-1.75 3.72,-3.57 4.6,-4.04 2.76,-1.5 16.85,-5.1 30.98,-7.93 7.94,-1.58 15.41,-3.7 18,-5.11 4.14,-2.25 19.99,-15.41 20.79,-17.27 0.2,-0.46 1.7,-2.36 3.32,-4.21 3,-3.42 8.21,-16.21 9.95,-24.44 0.97,-4.57 0.37,-12.19 -1.19,-15.11 -0.63,-1.16 -0.04,-2.38 2.13,-4.47 6.94,-6.64 11.66,-19.36 12.11,-32.62 0.25,-7.28 -0.05,-9.02 -2.44,-14.14 -3.88,-8.34 -8.13,-13.24 -14.07,-16.25 -4.31,-2.18 -6.1,-2.53 -10.68,-2.11 -7.67,0.7 -14.36,3.22 -18.22,6.83 -8.18,7.69 -10.59,8.87 -18.04,8.87 h -6.95 l 0.5,3.25 c 0.93,6.06 2.75,16.23 3.7,20.75 0.52,2.47 1.48,7.33 2.13,10.79 0.8,4.27 1.77,6.61 3.03,7.29 2.59,1.38 2.31,5.13 -0.63,8.3 -1.36,1.48 -3.01,3.68 -3.66,4.89 -3.02,5.64 -13.1,17.58 -15.77,18.69 -1.62,0.67 -3.76,2.13 -4.76,3.23 -2.6,2.87 -7.98,5.42 -18.51,8.78 -2.91,0.92 -6.27,-0.73 -6.35,-3.14 -0.02,-0.73 -1.67,-4.71 -3.67,-8.83 -3.01,-6.23 -8.77,-26.83 -11.38,-40.66 -0.65,-3.44 -3.91,-1.78 -7.9,4.02 -1.94,2.83 -4.27,6.17 -5.18,7.43 -2.47,3.46 -4.3,15.72 -3.22,21.71 2.24,12.52 2.24,12.49 -0.04,17.07 -1.22,2.44 -2.63,4.43 -3.15,4.43 -0.51,0 -0.93,0.86 -0.93,1.92 0,1.06 -1.05,3.2 -2.33,4.75 -4.25,5.14 -10.19,24.8 -9.26,30.64 0.79,5.01 8.37,12.69 16.92,17.14 7.87,4.09 10.89,4.33 20.73,1.6 z m 99.66,-4.42 c -0.62,-1.85 -2.86,-1.29 -4.46,1.11 -1.47,2.21 -1.45,2.22 1.68,1.13 1.73,-0.6 2.98,-1.61 2.78,-2.24 z m -60.72,-5.88 c 1.93,-0.52 6.2,-1.41 9.5,-1.97 19.9,-3.4 40.5,-12.25 40.5,-17.4 0,-2.64 -2.28,-2.49 -5.87,0.39 -7.92,6.37 -15.74,9.48 -33.13,13.19 -18.38,3.92 -20,4.37 -20,5.53 0,1.91 1.22,2.57 3.43,1.86 1.14,-0.36 3.65,-1.09 5.57,-1.6 z m 60.04,-27.92 c 2.25,-2.84 4.78,-6.5 5.62,-8.13 2.23,-4.32 5.29,-13.83 5.32,-16.53 0.02,-2.26 -0.05,-2.24 -2.48,0.65 -1.37,1.63 -2.5,3.88 -2.5,5.01 0,3.67 -2.05,7.58 -6.97,13.23 -4.25,4.89 -5.56,7.48 -5.14,10.19 0.28,1.86 2.38,0.35 6.15,-4.42 z m -76.69,-28.31 c 10.1,-3.8 16.9,-9.44 26.41,-21.91 3.39,-4.44 4.94,-7.29 4.37,-8 -1.12,-1.4 -3.17,-9.7 -3.84,-15.61 -0.28,-2.48 -1.03,-4.83 -1.65,-5.24 -0.63,-0.4 -6.62,-0.74 -13.31,-0.75 -9.93,-0.01 -12.49,-0.31 -13.82,-1.65 -2.57,-2.57 -0.64,-3.29 9.01,-3.38 4.94,-0.05 10.9,-0.34 13.23,-0.65 3.99,-0.52 4.25,-0.76 4.23,-3.7 -0.01,-1.72 -0.96,-6.51 -2.1,-10.63 -1.14,-4.13 -2.45,-9.3 -2.9,-11.5 -0.46,-2.2 -1.95,-7.6 -3.3,-12 -1.36,-4.4 -2.68,-9.13 -2.94,-10.5 -0.84,-4.5 -5.83,-23.45 -6.71,-25.5 -0.47,-1.1 -1.38,-4.25 -2.01,-7 -0.63,-2.75 -1.72,-5.9 -2.42,-7 -0.7,-1.1 -2.96,-8.08 -5.02,-15.5 -2.05,-7.43 -4.13,-14.63 -4.62,-16 -0.48,-1.38 -1.36,-5.2 -1.95,-8.5 -1.15,-6.36 -5.53,-24.99 -8.82,-37.5 -1.09,-4.13 -2.67,-10.43 -3.51,-14 -0.84,-3.58 -2.26,-9.43 -3.16,-13 -0.9,-3.58 -2.01,-8.08 -2.47,-10 -0.46,-1.93 -1.38,-5.53 -2.04,-8 -0.65,-2.48 -1.53,-7.2 -1.95,-10.5 -0.75,-5.93 -2.32,-13.68 -4.16,-20.5 -1.81,-6.77 -4.76,-23.61 -5.94,-34 -0.66,-5.78 -1.77,-11.63 -2.47,-13 -0.7,-1.38 -1.61,-6.55 -2.01,-11.5 -0.41,-4.95 -1.58,-11.48 -2.6,-14.5 -1.02,-3.03 -2.36,-9.94 -2.97,-15.37 -0.61,-5.42 -2.18,-14.42 -3.49,-20 -1.31,-5.57 -3.3,-14.86 -4.43,-20.63 -1.12,-5.78 -2.48,-11.88 -3.01,-13.57 -0.54,-1.69 -0.98,-4.25 -0.98,-5.69 0,-1.44 -0.49,-3.88 -1.09,-5.43 -0.6,-1.55 -1.5,-6.86 -2,-11.81 -0.5,-4.95 -1.37,-11.25 -1.94,-14 -0.56,-2.75 -1.68,-10.4 -2.49,-17 -0.81,-6.6 -1.88,-14.93 -2.39,-18.5 -0.51,-3.58 -1.42,-12.8 -2.02,-20.5 -0.59,-7.7 -1.5,-15.58 -2,-17.5 -0.51,-1.93 -1.45,-6.88 -2.09,-11 -0.65,-4.13 -1.81,-10.65 -2.59,-14.5 -6.65,-32.93 -9.21,-64.77 -9.36,-116.5 -0.06,-22.83 -0.48,-51.85 -0.92,-64.5 -0.77,-21.898 -0.54,-64.606 0.38,-71.002 0.24,-1.65 0.72,-10.199 1.07,-18.998 0.35,-8.799 0.8,-16.267 1,-16.596 0.21,-0.329 0.6,-3.255 0.88,-6.5022 2.55,-29.941 3.73,-41.348 4.51,-43.904 0.51,-1.65 1.43,-5.7 2.05,-9 0.61,-3.3 1.53,-7.125 2.04,-8.5 0.51,-1.375 1.1,-4.075 1.32,-6 0.22,-1.925 1.41,-7.1 2.65,-11.5 1.23,-4.4 2.83,-10.925 3.54,-14.5 1.4,-6.998 2.57,-11.258 5.55,-20.218 1.05,-3.15 1.89,-6.97 1.88,-8.5 -0.03,-3.15 3.1,-16.71 6.72,-29.13 1.34,-4.6 2.24,-8.55 2.01,-8.78 -0.67,-0.67 -7.04,7.5 -11.42,14.63 -5.61,9.14 -9.83,15.41 -15.8,23.5 -7.48,10.12 -19.49,32.038 -19.49,35.581 0,0.92 -0.67,2.232 -1.5,2.917 -0.82,0.685 -1.5,1.77 -1.5,2.411 0,0.641 -0.89,2.923 -1.99,5.071 -1.09,2.148 -2.27,5.398 -2.61,7.223 -0.34,1.824 -1,3.551 -1.47,3.838 -0.46,0.286 -0.6,1.143 -0.31,1.904 0.29,0.76 -0.81,5.358 -2.46,10.218 -1.64,4.859 -3.3,11.76 -3.68,15.335 -0.39,3.575 -1.28,8.3 -1.99,10.5 -0.71,2.2 -2.02,8.275 -2.91,13.5 -0.89,5.225 -2.74,14.268 -4.1,20.097 -1.36,5.8281 -2.48,12.596 -2.48,15.04 0,2.443 -0.63,6.9 -1.41,9.903 -3.52,13.588 -5.98,28.156 -7.67,45.46 -0.54,5.5 -1.47,13.375 -2.08,17.5 -0.6,4.125 -1.04,10.202 -0.98,13.502 0.41,23.9 1.25,42.9 2.12,48 0.56,3.3 1.24,8.25 1.52,11 0.69,6.96 1.44,12.24 2.51,17.5 0.5,2.47 1.13,7.2 1.41,10.5 0.28,3.3 0.93,8.47 1.44,11.5 0.52,3.02 0.8,6.74 0.63,8.25 -0.17,1.52 0.3,8.72 1.05,16 1.47,14.37 2.16,25.09 2.92,45.25 0.69,18.18 0.79,19.11 4.96,46.5 2.05,13.47 3.92,26.52 4.16,29 0.23,2.47 0.88,7.87 1.43,12 0.56,4.12 1.19,9.75 1.41,12.5 0.78,9.99 2.65,24.24 4.59,35 3.2,17.77 5.02,28.56 5.99,35.5 0.49,3.57 1.82,11.22 2.95,17 1.13,5.77 2.05,12.02 2.05,13.88 0,1.86 0.43,5.01 0.94,7 0.52,1.99 1.67,8.34 2.57,14.12 0.89,5.77 2.33,13.42 3.18,17 0.86,3.57 1.76,8.75 2,11.5 0.25,2.75 0.86,6.57 1.37,8.5 0.52,1.92 0.94,5.04 0.94,6.93 0,1.88 0.42,4.81 0.92,6.5 0.51,1.69 1.44,5.77 2.07,9.07 0.64,3.3 1.96,9.6 2.94,14 0.99,4.4 3,13.4 4.47,20 3.4,15.19 6.03,26.1 9.64,40 1.58,6.05 3.34,13.47 3.9,16.5 0.57,3.02 2.17,11.13 3.55,18.01 1.38,6.88 2.51,13.76 2.51,15.29 0,1.53 1,5.8 2.21,9.49 1.21,3.69 2.1,7.26 1.96,7.94 -0.25,1.27 4.19,16.86 6.06,21.27 0.58,1.37 1.85,6.1 2.81,10.5 0.96,4.4 2.66,11.15 3.76,15 2.35,8.19 3.78,13.72 5.7,22 0.76,3.3 2.52,9.37 3.9,13.5 3.5,10.44 10.79,38.08 10.68,40.5 -0.22,5.15 9.82,39.34 13.73,46.75 1.38,2.61 2.61,4.75 2.73,4.75 0.13,0 3.19,-1.12 6.81,-2.48 z m -8.85,-70.77 c -0.3,-1.24 -1.42,-9.68 -2.48,-18.75 -3.06,-25.97 -3.98,-31.14 -6.58,-36.87 -1.34,-2.96 -2.44,-5.89 -2.44,-6.52 0,-0.63 -0.81,-2.71 -1.82,-4.63 -1,-1.91 -2.39,-6.18 -3.09,-9.48 -0.7,-3.3 -1.96,-8.25 -2.8,-11 -0.84,-2.75 -2.12,-7.81 -2.85,-11.24 -0.73,-3.43 -2.85,-10.18 -4.71,-15 -7.73,-20.01 -8.53,-24.08 -8.06,-40.84 0.32,-11.55 0.08,-14.54 -1.55,-19.29 -3.75,-10.98 -7.32,-23.44 -7.74,-27.01 -0.5,-4.35 -1.99,-12.85 -2.73,-15.62 -0.3,-1.1 -1.5,-6.05 -2.68,-11 -1.18,-5.01 -4.32,-13.54 -7.06,-19.23 l -4.93,-10.23 0.53,-19.85 c 0.57,-20.89 0.53,-21.13 -4.32,-31.19 -1.45,-3.02 -1.64,-6.45 -1.38,-24.91 l 0.31,-21.4 -4.08,-12.6 c -8.94,-27.62 -10.38,-33.97 -9.58,-42.21 0.46,-4.79 0.24,-7.55 -0.82,-10 -1.56,-3.61 -5.08,-16.1 -6.16,-21.88 -0.36,-1.93 -1.74,-6.57 -3.07,-10.31 -2.83,-8.01 -3.14,-17.01 -0.81,-23.69 3,-8.6 3.46,-19.59 1.26,-30.07 -1.09,-5.19 -2.33,-11.23 -2.74,-13.43 -0.42,-2.2 -1.26,-5.58 -1.86,-7.5 -2.66,-8.44 -3.3,-14.54 -3.21,-30.5 0.06,-9.35 -0.13,-24.65 -0.4,-34 -0.48,-16.2 -0.67,-17.52 -4.13,-27.99 -4.68,-14.16 -4.88,-23.74 -0.8,-38.81 1.39,-5.13 1.43,-8.25 0.31,-27.15 -0.7,-11.75 -0.93,-21.9 -0.52,-22.564 0.41,-0.664 0.9,-7.175 1.09,-14.469 0.18,-7.294 0.81,-15.232 1.4,-17.641 0.58,-2.408 1.26,-5.728 1.51,-7.378 0.25,-1.65 0.68,-4.125 0.96,-5.5 0.27,-1.375 0.73,-8.048 1.01,-14.829 0.27,-6.78 0.68,-12.63 0.9,-13 0.22,-0.369 0.73,-4.496 1.13,-9.1711 0.41,-4.675 0.87,-9.85 1.03,-11.5 0.16,-1.65 0.79,-8.0819 1.4,-14.292 0.61,-6.211 1.73,-14.311 2.49,-18 0.76,-3.69 1.66,-9.633 2.01,-13.208 0.88,-9.069 2.68,-19.309 3.61,-20.5 0.43,-0.55 1.32,-4.825 1.99,-9.5 0.91,-6.431 2.36,-10.934 5.95,-18.5 2.62,-5.498 5.35,-11.798 6.08,-13.998 1.55,-4.66 3.34,-6.99 4.71,-6.14 1.57,0.97 -2.26,12.96 -7.24,22.667 -2.49,4.87 -4.55,10.118 -4.57,11.662 -0.01,1.545 -1.17,6.859 -2.57,11.809 -1.4,4.95 -3.13,14.238 -3.85,20.641 -0.71,6.402 -1.59,12.123 -1.96,12.713 -0.36,0.59 -1.35,7.727 -2.19,15.859 -0.84,8.133 -1.93,18.612 -2.42,23.287 -0.49,4.6749 -1.56,16.825 -2.37,27 -0.8,10.175 -2.19,22.325 -3.08,27 -2.62,13.772 -3.39,37.294 -2.11,64.502 0.68,14.45 0.56,16.58 -1.21,22 -2.61,7.94 -2.62,27.36 -0.02,32 3.11,5.55 5.77,18.5 5.75,28 -0.04,25.46 0.95,55.68 2.01,61 0.65,3.3 2.01,8.7 3,12 1,3.3 2.64,10.83 3.64,16.74 1.59,9.43 1.66,11.8 0.57,19.4 -0.69,4.76 -1.91,9.91 -2.71,11.45 -2.36,4.58 -1.89,16.06 0.92,22.22 3.07,6.75 4.09,9.87 3.76,11.56 -0.42,2.16 2,11.28 4.05,15.23 1.39,2.67 1.98,6.41 2.28,14.5 0.42,11.26 1.81,17.8 7.98,37.4 6.31,20.06 6.53,21.87 4.81,40.98 -1,11.21 -0.2,18.41 2.71,24.43 3.54,7.31 4.06,10.52 4,24.59 -0.11,24.9 -0.16,24.43 4,34.03 2.12,4.88 4.62,11.93 5.56,15.67 0.93,3.74 2.73,10.4 3.98,14.8 1.26,4.4 2.63,11.15 3.06,15 1.02,9.11 0.96,8.76 1.67,10.5 0.33,0.82 1.73,4.87 3.12,9 1.38,4.12 3.25,9.25 4.15,11.39 1.35,3.17 1.59,6.76 1.34,19.5 -0.21,10.42 0.13,17.6 1.02,21.61 1.19,5.34 5.8,18.06 8.24,22.73 0.5,0.96 0.9,2.33 0.9,3.04 0,0.71 1.16,4.66 2.57,8.76 1.42,4.11 3.16,10.84 3.87,14.97 0.71,4.12 2.72,11.32 4.46,16 1.74,4.67 3.78,10.3 4.54,12.5 1.44,4.16 4.11,18.37 3.72,19.84 -0.12,0.46 0.5,5.41 1.36,11 3.26,20.97 3.52,23.11 3.04,24.37 -0.8,2.1 -3.47,1.47 -4.06,-0.96 z m 104.82,48.35 c 1.09,-5.7 3.54,-10.47 6.05,-11.78 3.83,-2.02 4.5,-7.12 2.01,-15.57 -1.13,-3.86 -3.07,-1.01 -5.32,7.83 -1.02,3.99 -8.25,16.24 -10.39,17.6 -0.76,0.49 -0.74,1.36 0.07,3 0.63,1.28 1.45,3.42 1.83,4.77 l 0.7,2.45 2.28,-2.85 c 1.25,-1.57 2.5,-4.03 2.77,-5.45 z m 98.9,-120.03 c -16.42,-17.02 -20.2,-21.33 -22.32,-25.45 -1.76,-3.44 -6.47,-12.26 -7.79,-14.62 -1.77,-3.15 -5.11,-11.11 -5.11,-12.18 0,-0.62 -1.08,-3.42 -2.4,-6.22 -1.33,-2.81 -2.64,-6.23 -2.92,-7.6 -0.28,-1.38 -1.26,-4.98 -2.19,-8 -0.92,-3.03 -2.36,-7.75 -3.2,-10.5 -2,-6.56 -2.35,-28.51 -0.49,-30.75 0.71,-0.86 4.08,-2.02 7.5,-2.57 7.3,-1.19 41.11,-0.63 47.94,0.8 4.72,0.99 19.64,7.8 27.26,12.45 2.2,1.34 5.58,3.33 7.5,4.42 4.72,2.67 19.35,16.91 21.22,20.65 0.83,1.65 1.8,4.25 2.17,5.77 0.37,1.53 1.74,5.13 3.05,8 2.51,5.5 2.81,8.18 2.66,23.94 -0.14,13.98 -0.32,14.09 -25.58,15.41 -9.41,0.49 -13.14,1.56 -11.99,3.42 0.27,0.44 0.55,6.24 0.62,12.87 l 0.12,12.06 -3.7,4.52 c -4.56,5.56 -5.9,6.29 -13,7.13 l -5.64,0.66 z m 28.22,3.4 c 1.41,-1.31 2.61,-3.41 2.67,-4.67 0.22,-5.04 -0.11,-14.58 -0.68,-19.4 -0.52,-4.4 -0.28,-5.46 1.75,-7.82 2.21,-2.57 2.93,-2.75 12.24,-3.12 12.3,-0.48 20.19,-2.06 22.67,-4.55 2.09,-2.08 2.42,-6.66 0.97,-13.41 -0.47,-2.2 -1.35,-6.44 -1.96,-9.42 -1.92,-9.41 -5.75,-15.94 -13.98,-23.89 -10.35,-9.97 -16.86,-14.4 -19.29,-13.1 -1.49,0.8 -2.02,0.57 -2.66,-1.17 -0.78,-2.12 -2.41,-3.15 -15.3,-9.61 -9.6,-4.82 -12.71,-5.3 -33.87,-5.29 -21.06,0.01 -23.72,0.32 -24.22,2.83 -0.89,4.45 2.81,25.99 5.78,33.65 1.28,3.3 2.64,7.35 3.03,9 0.39,1.65 1.51,4.8 2.5,7 1,2.2 2.67,6.47 3.71,9.5 4.06,11.69 17.87,31.73 27.18,39.45 3.61,2.99 8.19,7.59 11.17,11.23 1.44,1.75 4.28,4.08 6.32,5.17 4.27,2.29 7.66,1.62 11.97,-2.38 z M 400.63,422.24 c -0.23,-0.22 -1.99,-0.69 -3.92,-1.04 -1.92,-0.34 -4.17,-0.8 -5,-1.01 -0.82,-0.22 -1.8,-0.42 -2.17,-0.47 -1.71,-0.19 -3.86,-7.04 -4.46,-14.23 -0.36,-4.35 -1,-8.12 -1.41,-8.37 -0.42,-0.26 -3.04,1.07 -5.83,2.94 -2.79,1.88 -6.77,3.97 -8.85,4.64 -2.08,0.68 -6.48,2.45 -9.78,3.94 -9.39,4.24 -11.16,4.45 -13.04,1.59 -1.25,-1.92 -1.52,-4.45 -1.23,-11.76 0.35,-9.16 3.96,-29.65 5.83,-33.06 0.52,-0.95 0.95,-2.53 0.95,-3.5 0,-0.97 0.62,-2.89 1.36,-4.26 0.75,-1.38 3.05,-5.65 5.12,-9.5 9.39,-17.47 22.71,-35.04 36.94,-48.72 4.99,-4.79 10.42,-10.02 12.07,-11.62 3.45,-3.34 9.43,-7.15 11.23,-7.16 1.78,0 9.98,8.48 10.8,11.19 0.39,1.27 1.74,4.33 3.01,6.81 1.27,2.47 2.59,6.93 2.94,9.9 0.35,2.98 1.29,6.68 2.1,8.24 0.8,1.55 1.42,4.07 1.36,5.59 -0.05,1.52 0.37,5.69 0.94,9.27 0.57,3.57 0.8,10.77 0.51,16 -0.28,5.22 -0.53,10.62 -0.54,12 -0.03,2.39 -0.48,4.49 -4.44,20.5 -0.95,3.85 -2.71,8.35 -3.91,10 -1.19,1.65 -3.36,5.1 -4.82,7.66 -3.66,6.42 -6.73,9.89 -15.85,17.93 -7.37,6.49 -8.89,7.49 -9.91,6.5 z m 8.38,-12.62 c 15.37,-14.09 22.73,-29.66 25.49,-53.97 0.95,-8.3 0.81,-23.23 -0.22,-24.9 -0.37,-0.59 -1.09,-3.55 -1.62,-6.59 -0.52,-3.03 -1.39,-8.09 -1.93,-11.24 -1.27,-7.38 -5.66,-17.98 -8.94,-21.61 -4.83,-5.32 -5.57,-5.3 -12.08,0.34 -10.48,9.08 -29,27.96 -29,29.57 0,0.52 -5.25,8.2 -12.55,18.37 -1.9,2.64 -3.45,5.12 -3.45,5.52 0,0.4 -0.83,1.92 -1.85,3.38 -1.02,1.46 -2.18,4.01 -2.58,5.66 -0.4,1.65 -1.3,3.67 -2,4.5 -1.32,1.55 -3.05,7.16 -4.62,15 -0.49,2.47 -1.73,8.1 -2.74,12.5 -1.01,4.4 -1.81,10.7 -1.77,14 0.06,5.79 0.15,5.99 2.56,5.73 1.38,-0.15 4.41,-1.16 6.74,-2.25 2.33,-1.09 4.53,-1.98 4.88,-1.98 0.36,0 4.53,-1.97 9.27,-4.37 10.13,-5.14 12.19,-5.85 13.85,-4.81 0.67,0.42 1.71,4.35 2.3,8.73 0.6,4.37 1.6,9.41 2.22,11.2 1.09,3.1 1.39,3.25 6.3,3.25 4.91,0 5.47,-0.29 11.74,-6.03 z M 463,215.47 c -5.69,-1.25 -8.29,-4.66 -8.29,-10.9 0,-2.64 -0.43,-5.07 -0.96,-5.4 -1.31,-0.81 -8.99,3.2 -9.71,5.06 -0.77,2.01 -5.38,4.29 -13.2,6.53 -8.86,2.53 -13.12,1.75 -17.62,-3.24 -3.02,-3.35 -3.51,-4.57 -3.51,-8.89 0,-2.75 0.92,-8.26 2.04,-12.24 1.13,-3.99 2.45,-10.62 2.96,-14.74 1.08,-8.87 3.48,-17.34 5.5,-19.35 1.92,-1.92 4.93,-9.56 4.09,-10.4 -0.36,-0.36 -1.99,-0.12 -3.62,0.54 -1.63,0.67 -4.43,1.72 -6.22,2.35 -1.78,0.62 -5.05,1.93 -7.25,2.9 -6.85,3.02 -14.38,4.05 -32.93,4.51 -18.09,0.45 -21.2,0.08 -28.57,-3.4 -2.91,-1.38 -3.55,-2.25 -3.8,-5.23 -0.59,-7.09 3.07,-13.86 12.31,-22.76 4.67,-4.49 8.49,-8.8 8.49,-9.55 0,-0.76 -1.68,-2.17 -3.75,-3.13 -2.06,-0.95 -4.47,-2.37 -5.36,-3.14 -0.89,-0.78 -4.43,-1.86 -7.86,-2.42 -11.25,-1.81 -20.03,-7.864 -20.03,-13.818 0,-1.568 1.41,-4.234 3.49,-6.615 1.91,-2.194 3.48,-4.292 3.5,-4.662 0.01,-0.369 1.7,-1.208 3.76,-1.863 2.07,-0.654 6.45,-2.419 9.75,-3.921 8.5,-3.865 11.7,-4.856 22.93,-7.1 5.46,-1.091 11.76,-2.601 14,-3.355 2.24,-0.754 9.85,-1.952 16.91,-2.661 l 12.84,-1.289 -0.54,-3.069 c -0.3,-1.688 -1.22,-6.669 -2.05,-11.069 -1.16,-6.191 -1.43,-14.107 -1.19,-35 0.33,-28.568 0.08,-26.595 5.79,-44.5 1.23,-3.866 4.25,-7.008 6.72,-6.985 6.19,0.059 18.13,6.914 24.59,14.123 2.2,2.454 4.51,4.767 5.12,5.14 0.65,0.392 6.65,-4.818 14.22,-12.343 17.82,-17.704 23.77,-20.27 29.02,-12.496 3.31,4.909 5.14,10.754 6.16,19.682 0.48,4.235 1.56,10.102 2.39,13.039 3.19,11.304 4.27,35.295 2,44.377 -0.54,2.116 -0.35,2.383 1.23,1.798 1.03,-0.378 3.21,-1.622 4.86,-2.764 5.35,-3.696 6.81,-4.505 20,-11.01 7.15,-3.526 15.7,-7.1296 19,-8.0071 22.3,-5.9293 29.01,-7.554 31.19,-7.554 3.03,-1e-5 8.31,5.0535 8.31,7.9516 0,2.0955 -4.55,11.55 -7.59,15.756 -1.51,2.09 -1.47,2.233 0.75,2.702 1.29,0.272 7.55,0.655 13.91,0.85 9.94,0.305 12.1,0.678 15.28,2.644 4.22,2.611 7.16,7.429 6.77,11.096 -0.76,7.108 -21.45,28.732 -31.75,33.173 -1.58,0.68 -4.93,3.057 -7.46,5.282 -5.11,4.497 -10.72,8.868 -12.04,9.378 -0.48,0.184 -0.87,0.781 -0.87,1.327 0,1.311 5.04,6.282 7.2,7.095 1.73,0.655 9.73,11.807 13.3,18.557 1.1,2.08 3.2,5.33 4.67,7.23 6.46,8.38 10.4,22.28 8.38,29.53 -1.05,3.74 -1.5,4.08 -9.43,7.21 -4.94,1.96 -11.23,3.58 -15.47,4 l -7.15,0.72 -0.52,7.5 c -0.38,5.5 -1.24,8.89 -3.24,12.71 -3.69,7.05 -8.45,12.3 -11.09,12.24 -9.28,-0.2 -29.59,-19.79 -41.47,-40 -3.65,-6.2 -4.9,-5.21 -5.44,4.3 -0.26,4.54 -0.78,9.37 -1.15,10.75 -0.38,1.37 -0.94,4.07 -1.25,6 -0.9,5.57 -8.94,20.47 -14.02,25.99 -8.33,9.05 -17.85,12.86 -27.03,10.83 z m 16.72,-9.51 c 6.6,-4.45 7.86,-5.85 13.08,-14.6 5.54,-9.29 8.73,-22.27 9.58,-38.95 0.48,-9.49 1.01,-13.09 2.01,-13.47 1.58,-0.6 4.41,1.47 4.22,3.09 -0.26,2.19 0.13,3.27 1.85,5.18 0.97,1.07 3.07,3.96 4.67,6.44 12.79,19.71 31.74,36.43 39.18,34.56 2.81,-0.7 5.23,-4.88 7.54,-13.01 1.35,-4.75 1.5,-7.14 0.73,-11.91 -1.05,-6.53 -0.16,-8.24 3.63,-7.03 5.77,1.85 11.48,1.55 16.71,-0.9 2.91,-1.36 6.27,-2.77 7.45,-3.13 3.71,-1.13 4.44,-2.91 3.72,-9.07 -0.5,-4.22 -1.56,-6.95 -4.03,-10.37 -1.85,-2.55 -3.62,-5.32 -3.94,-6.14 -1.66,-4.26 -3.04,-6.82 -5.36,-9.96 -1.4,-1.9 -3.67,-5.5 -5.05,-8 -1.6,-2.91 -4.29,-5.69 -7.5,-7.75 -8.06,-5.173 -10.5,-7.328 -10.5,-9.301 0,-1.666 7.67,-8.991 9.42,-8.991 0.38,0 2.36,-1.281 4.39,-2.846 2.03,-1.566 8.42,-6.363 14.19,-10.661 10.48,-7.798 19.47,-16.431 20.56,-19.743 0.32,-0.963 0.99,-1.75 1.49,-1.75 1.64,0 4.13,-4.856 3.51,-6.837 -0.34,-1.064 -2.37,-3.149 -4.51,-4.635 -3.65,-2.529 -4.62,-2.706 -15.22,-2.783 -6.23,-0.046 -12.44,0.105 -13.79,0.336 -3.95,0.67 -3.62,-2.174 1.46,-12.619 8.19,-16.852 7.07,-17.166 -27,-7.505 -3.85,1.091 -7.9,1.998 -9.01,2.014 -1.11,0.016 -3.58,0.925 -5.5,2.02 -1.92,1.095 -6.41,3.51 -9.99,5.367 -12.13,6.299 -19.49,10.774 -22.54,13.712 -5.52,5.299 -6.9,3.83 -5.4,-5.737 1.34,-8.627 1.19,-16.198 -0.57,-28.756 -0.76,-5.4576 -1.21,-10.219 -0.98,-10.58 0.22,-0.3621 -0.26,-3.097 -1.07,-6.078 -0.81,-2.98 -1.73,-7.219 -2.04,-9.419 -1.06,-7.593 -3.48,-16.983 -4.96,-19.238 -1.77,-2.702 -4.96,-2.891 -8.58,-0.506 -3.5,2.309 -13.76,12.146 -21.97,21.061 -3.64,3.951 -7.25,7.183 -8.02,7.183 -0.78,0 -4.32,-2.976 -7.89,-6.614 -7.39,-7.543 -15.03,-12.363 -19.63,-12.377 -3.1,-0.009 -3.17,0.101 -4.7,7.241 -2.29,10.662 -2.84,15.51 -3.11,27.476 -0.34,15.037 1.29,48.936 2.58,53.908 1.8,6.913 0.55,8.016 -9.31,8.186 -11.47,0.196 -27.39,3.159 -44.38,8.258 -1.69,0.507 -3.94,0.917 -5,0.911 -1.06,-0.005 -5.93,1.682 -10.83,3.75 -9.83,4.152 -18.11,10.756 -17.03,13.581 0.98,2.555 9.01,6.516 15.66,7.72 5.36,0.974 9.84,2.887 18.77,8.022 6.13,3.52 5.57,4.94 -6.86,17.62 -8.57,8.74 -11.01,11.86 -11.56,14.74 -1.11,5.96 -0.2,7.2 6.2,8.45 10.19,1.98 41.74,0.21 49.54,-2.79 1.55,-0.6 3.9,-1.08 5.22,-1.08 1.32,0 3.88,-0.81 5.68,-1.81 4.29,-2.35 11.92,-5.19 13.96,-5.19 0.89,0 1.87,0.68 2.19,1.52 0.6,1.56 -2.65,11.37 -4.95,14.98 -2.72,4.25 -5.32,12.54 -5.93,18.91 -0.36,3.66 -1.51,9.68 -2.57,13.37 -4.22,14.77 -1.71,22.22 7.5,22.22 4.97,0 14.71,-3.25 16.61,-5.53 0.66,-0.8 3.58,-2.82 6.49,-4.48 4.3,-2.46 5.75,-2.84 7.8,-2.06 2.58,0.98 3.07,1.95 4.12,8.18 0.91,5.44 3.73,7.33 11.58,7.75 1.42,0.08 4.89,-1.47 7.99,-3.55 z m -13.01,-58.63 c -3.35,-1.64 -4.57,-2.85 -4.79,-4.74 -0.35,-3 2.72,-7.3 6.59,-9.23 1.6,-0.79 2.51,-1.93 2.24,-2.78 -0.26,-0.79 -0.57,-8.41 -0.71,-16.93 -0.13,-8.53 -0.26,-16.515 -0.28,-17.752 -0.03,-1.238 -0.45,-2.25 -0.93,-2.25 -1.5,0 -16.12,30.362 -16.12,33.462 0,0.82 -1.14,2.24 -2.54,3.16 -2.03,1.33 -3.03,1.44 -5,0.54 -4.97,-2.26 -2.05,-11.22 4.02,-12.32 1.39,-0.25 3.82,-4.03 8.23,-12.78 3.45,-6.836 6.07,-12.623 5.83,-12.864 -0.24,-0.24 -3.5,0.273 -7.24,1.139 -3.74,0.867 -8.82,1.842 -11.3,2.166 -2.47,0.324 -6.72,1.084 -9.44,1.689 -5.62,1.25 -7.53,1.501 -12.81,1.68 -2.19,0.075 -4.37,0.85 -5.26,1.88 -0.84,0.96 -2.91,3.44 -4.61,5.5 -2.42,2.95 -3.79,3.75 -6.37,3.75 -3.76,0 -4.51,-1.2 -4.51,-7.3 0,-3.419 0.56,-4.616 3.19,-6.86 4.39,-3.748 7.13,-4.216 11.89,-2.032 3.18,1.459 5.05,1.684 8.73,1.054 2.58,-0.44 7.92,-1.249 11.85,-1.796 15.1,-2.1 25.42,-4.344 25.07,-5.452 -0.36,-1.121 -5.19,-3.751 -13.92,-7.562 -2.57,-1.127 -4.94,-2.465 -5.26,-2.975 -0.31,-0.509 -2.03,-1.213 -3.81,-1.565 -8.48,-1.674 -10.66,-3.817 -8.49,-8.34 3.02,-6.306 12.23,-4.902 12.28,1.87 0.01,3.142 0.47,3.683 5.03,5.956 6.2,3.094 17.08,8 17.73,8 1.04,0 1.47,-5.58 0.56,-7.28 -0.53,-0.991 -0.98,-4.596 -1,-8.011 -0.06,-8.927 -2.43,-16.699 -5.98,-19.547 -4.59,-3.696 -6.21,-7.598 -4.84,-11.731 0.62,-1.896 2.11,-3.964 3.3,-4.597 1.2,-0.634 2.8,-2.031 3.56,-3.106 1.11,-1.572 2.17,-1.85 5.39,-1.417 2.21,0.295 4.35,1.087 4.77,1.759 0.41,0.672 1.06,4.114 1.44,7.65 0.57,5.329 0.39,6.754 -1.03,8.331 -1.88,2.073 -1.98,3.253 -1.67,19.199 0.12,5.912 0.63,10.75 1.14,10.75 0.9,0 6.07,-10.004 6.07,-11.751 0,-0.481 1.17,-3.299 2.6,-6.261 2.33,-4.815 2.48,-5.795 1.45,-9.232 -0.63,-2.114 -0.87,-4.729 -0.53,-5.811 0.77,-2.408 5.78,-5.152 7.92,-4.331 2.51,0.964 1.9,7.041 -1.29,12.764 -1.57,2.817 -4.14,8.272 -5.72,12.122 -1.59,3.85 -4.35,9.903 -6.15,13.452 -1.8,3.549 -3.28,7.037 -3.28,7.75 0,1.531 3.13,1.661 8,0.333 1.93,-0.524 7.47,-1.437 12.31,-2.029 12.83,-1.568 19.01,-4.156 22.68,-9.488 2.44,-3.547 3.73,-4.463 7.06,-5.026 5.12,-0.865 7.95,1.291 7.95,6.044 0,3.51 -3.48,6.872 -9.74,9.394 -2.78,1.122 -3.59,1.08 -5.68,-0.29 -2.24,-1.464 -2.81,-1.464 -6.76,-0.004 -2.37,0.878 -9.49,2.17 -15.82,2.872 -12.92,1.434 -18.54,3.046 -15.86,4.547 0.9,0.502 4.44,1.569 7.87,2.369 3.43,0.8 7.19,2.306 8.37,3.346 2.91,2.592 12.44,6.332 13.16,5.162 0.84,-1.36 9.85,-1.15 11.26,0.27 1.94,1.94 1.45,8.15 -0.83,10.61 -2.91,3.11 -9.81,3.05 -12.79,-0.13 -1.2,-1.27 -2.18,-2.84 -2.18,-3.48 0,-0.65 -1.91,-2.38 -4.25,-3.86 -2.33,-1.47 -5.89,-3.76 -7.9,-5.079 -3.61,-2.37 -14.29,-5.481 -15.32,-4.458 -0.29,0.29 -0.53,6.307 -0.53,13.377 0,13.31 2.09,24.82 4.51,24.82 1.6,0 4.49,3.31 4.49,5.14 0,2.14 -7.99,10.87 -9.89,10.8 -0.88,-0.03 -3.63,-1.05 -6.11,-2.26 z" />
  </g>
  <metadata
     id="metadata12">
    <rdf:RDF>
      <cc:Work>
        <dc:format>image/svg+xml</dc:format>
        <dc:type
           rdf:resource="http://purl.org/dc/dcmitype/StillImage" />
        <cc:license
           rdf:resource="http://creativecommons.org/publicdomain/zero/1.0/" />
        <dc:publisher>
          <cc:Agent
             rdf:about="http://openclipart.org/">
            <dc:title>Openclipart</dc:title>
          </cc:Agent>
        </dc:publisher>
      </cc:Work>
      <cc:License
         rdf:about="http://creativecommons.org/licenses/publicdomain/">
        <cc:permits
           rdf:resource="http://creativecommons.org/ns#Reproduction" />
        <cc:permits
           rdf:resource="http://creativecommons.org/ns#Distribution" />
        <cc:permits
           rdf:resource="http://creativecommons.org/ns#DerivativeWorks" />
      </cc:License>
    </rdf:RDF>
  </metadata>
</svg>
