<?xml version="1.0" encoding="UTF-8" standalone="no"?>
<!-- Created with Inkscape (http://www.inkscape.org/) -->
<svg xmlns:dc="http://purl.org/dc/elements/1.1/" xmlns:cc="http://creativecommons.org/ns#" xmlns:rdf="http://www.w3.org/1999/02/22-rdf-syntax-ns#" xmlns:svg="http://www.w3.org/2000/svg" xmlns="http://www.w3.org/2000/svg" xmlns:sodipodi="http://sodipodi.sourceforge.net/DTD/sodipodi-0.dtd" xmlns:inkscape="http://www.inkscape.org/namespaces/inkscape" id="svg2" sodipodi:docname="1306047101.svg" viewBox="0 0 794.68599 521.48283" version="1.1" inkscape:version="0.48.3.1 r9886">
  <defs id="defs4">
    <filter inkscape:collect="always" id="filter3321" color-interpolation-filters="sRGB">
      <feGaussianBlur inkscape:collect="always" stdDeviation="3.84278" id="feGaussianBlur3323"/>
    </filter>
    <linearGradient id="linearGradient6110">
      <stop offset="0" style="stop-color:#6e6e6e" id="stop6112"/>
      <stop offset=".5" style="stop-color:#ffffff" id="stop6118"/>
      <stop offset="1" style="stop-color:#a1a1a1" id="stop6114"/>
    </linearGradient>
    <linearGradient id="linearGradient14971">
      <stop offset="0" style="stop-color:#502d16" id="stop14973"/>
      <stop offset="1" style="stop-color:#2a170b" id="stop14975"/>
    </linearGradient>
    <filter inkscape:collect="always" id="filter3321-4" color-interpolation-filters="sRGB">
      <feGaussianBlur inkscape:collect="always" stdDeviation="3.84278" id="feGaussianBlur3323-2"/>
    </filter>
    <linearGradient id="linearGradient6110-9">
      <stop offset="0" style="stop-color:#6e6e6e" id="stop6112-2"/>
      <stop offset=".5" style="stop-color:#ffffff" id="stop6118-8"/>
      <stop offset="1" style="stop-color:#a1a1a1" id="stop6114-9"/>
    </linearGradient>
    <linearGradient id="linearGradient14971-6">
      <stop offset="0" style="stop-color:#502d16" id="stop14973-6"/>
      <stop offset="1" style="stop-color:#2a170b" id="stop14975-7"/>
    </linearGradient>
    <filter inkscape:collect="always" id="filter4818">
      <feGaussianBlur inkscape:collect="always" stdDeviation="3.2894573" id="feGaussianBlur4820"/>
    </filter>
  </defs>
  <sodipodi:namedview id="base" bordercolor="#666666" inkscape:pageshadow="2" inkscape:window-y="0" fit-margin-left="0" pagecolor="#ffffff" fit-margin-top="0" inkscape:window-maximized="1" inkscape:zoom="0.52576543" inkscape:window-x="0" inkscape:window-height="954" showgrid="false" borderopacity="1.0" inkscape:current-layer="layer1" inkscape:cx="563.15674" inkscape:cy="266.50217" fit-margin-right="0" fit-margin-bottom="0" inkscape:window-width="1278" inkscape:pageopacity="0.0" inkscape:document-units="px" borderlayer="false"/>
  <g id="layer1" inkscape:label="Layer 1" inkscape:groupmode="layer" transform="translate(-53.640005,109.03364)">
    <path inkscape:connector-curvature="0" id="path2309" style="color:#000000;fill:#ffffff;filter:url(#filter3321)" d="m 142.37,165.39 -11.69,-2.31 10.47,68.42 -19.23,-66.59 -9.79,6.78 2.31,-11.69 -69.047,11.11 67.227,-19.86 -6.79,-9.8 11.69,2.31 -9.84,-65.894 18.6,64.074 9.79,-6.79 -2.31,11.69 67.79,-6.69 -65.97,15.45 6.79,9.79 z" inkscape:export-ydpi="155.90829" sodipodi:nodetypes="ccccccccccccccccc" inkscape:export-filename="D:\Bilder\inkscape\Schwert.png" transform="matrix(0.057828,0.16487,-0.18005,0.063149,-42.41739,-428.61374)" inkscape:export-xdpi="155.90829"/>
    <g id="g4822">
      <g transform="matrix(0.51628876,0.85641458,-0.85641458,0.51628876,515.97246,-421.23827)" id="g4540">
        <g id="g4305" transform="matrix(-0.60795464,0.79397176,-0.79397176,-0.60795464,802.51535,46.14928)">
          <g id="g4178">
            <path sodipodi:nodetypes="scccssssscccsccssss" inkscape:connector-curvature="0" id="rect3389" d="m 36.324145,343.35106 20.007457,-0.28303 280.023348,-9.59592 24.53749,0.87125 18.97072,1.43151 c 1.49323,0.11267 5.36184,0.69526 6.7655,1.21694 4.40598,1.63751 6.10356,1.70343 9.51857,3.2373 5.08404,2.28351 9.0873,3.94809 13.02982,6.0286 4.73434,2.49836 5.49433,2.60279 10.32499,5.17636 4.39657,2.3423 4.46749,2.19814 9.7244,5.80643 l -12.76929,11.48906 -11.80698,8.60364 c -2.98935,2.16995 -6.52867,4.96117 -10.38207,6.61916 -4.95653,2.13264 -9.69097,2.57581 -14.41966,2.46302 l -43.70768,-1.07529 -307.784702,-7.57207 c -1.497019,-0.0368 -8.42256,-0.73656 -8.409517,-2.23398 l 0.266869,-30.63635 c 0.01304,-1.49741 13.038746,-1.20397 16.110735,-1.54663 z" style="fill:#cccccc" transform="matrix(0.79931954,-0.60090621,0.60090621,0.79931954,-1.5503153e-7,-3.4495941e-7)"/>
            <path sodipodi:nodetypes="scccccccccccccssccccssssccccssss" inkscape:connector-curvature="0" id="rect3280" d="m 92.758123,357.63899 3.968789,3.49005 2.206156,2.72648 2.442412,1.59905 3.10739,-0.66959 5.09426,-6.29271 4.67807,-4.90697 17.30797,-18.36038 19.7329,-17.90817 15.50828,-12.86151 15.17939,-10.55779 25.94234,-14.8857 5.43094,-12.47174 3.24627,-4.56587 4.38703,-1.30521 c 1.4353,-0.42701 2.86735,-0.73347 3.79721,0.44032 l 8.54336,4.61706 4.6507,4.63562 2.89811,4.42334 1.65415,4.23987 1.33659,6.17318 c 0.31688,1.46356 0.75813,2.89937 -0.44032,3.7972 l -131.36126,98.40952 c -1.19845,0.89784 -2.0638,2.06353 -3.53133,1.76554 l -2.43659,-0.46317 -2.00542,-1.42353 -1.68391,-3.66871 -2.888363,-2.96071 -13.3869,-9.70832 c -0.386126,-0.28003 -3.384787,-4.80744 -2.606074,-6.75269 0.703178,-1.75657 1.637558,-4.65033 3.321857,-5.80855 2.30628,-1.58591 5.430263,-1.09449 5.905993,-0.74591 z" style="fill:#000000"/>
            <path sodipodi:open="true" sodipodi:end="6.2800626" sodipodi:start="0" transform="matrix(1.1428571,0,0,1.1428571,43.28458,-2.4075564)" d="m 58.503551,330.46613 c 0,1.29985 -1.053739,2.35359 -2.353591,2.35359 -1.299853,0 -2.353592,-1.05374 -2.353592,-2.35359 0,-1.29986 1.053739,-2.3536 2.353592,-2.3536 1.296983,0 2.349529,1.04927 2.353579,2.34625" sodipodi:ry="2.3535912" sodipodi:rx="2.3535912" sodipodi:cy="330.46613" sodipodi:cx="56.14996" id="path3370" style="fill:#ffffff" sodipodi:type="arc"/>
            <path style="fill:#4d4d4d;stroke:none" d="M 319.75896,198.18805 C 453.29347,93.001175 454.27006,91.777557 454.27006,91.777557" id="path3399" inkscape:connector-curvature="0"/>
            <path inkscape:connector-curvature="0" id="path3401" d="M 325.85337,204.30719 C 459.20123,98.883774 460.17565,97.658427 460.17565,97.658427" style="fill:#4d4d4d;stroke:none"/>
            <path style="fill:#1a1a1a;stroke:none" d="M 331.85337,210.30719 C 465.20123,104.88377 466.17565,103.65843 466.17565,103.65843" id="path3403" inkscape:connector-curvature="0"/>
          </g>
          <g id="layer1-8" inkscape:label="Ebene 1" transform="translate(63.823199,587.9563)">
            <path inkscape:connector-curvature="0" id="path3325" style="color:#000000;fill:#ffffff;filter:url(#filter3321-4)" d="m 142.37,165.39 -11.69,-2.31 10.47,68.42 -19.23,-66.59 -9.79,6.78 2.31,-11.69 -69.047,11.11 67.227,-19.86 -6.79,-9.8 11.69,2.31 -9.84,-65.894 18.6,64.074 9.79,-6.79 -2.31,11.69 67.79,-6.69 -65.97,15.45 6.79,9.79 z" inkscape:export-ydpi="155.90829" sodipodi:nodetypes="ccccccccccccccccc" inkscape:export-filename="D:\Bilder\inkscape\Schwert.png" transform="matrix(-0.002885,0.2787,-0.23703,-0.0024536,527.72477,-591.15826)" inkscape:export-xdpi="155.90829"/>
          </g>
        </g>
        <g id="g4443" transform="matrix(0.69434917,0.00652914,-0.00671263,0.67536916,1292.6184,-383.2495)">
          <g transform="matrix(2.3013352e-4,0.99999997,-0.99999997,2.3013352e-4,-69.837747,2370.2673)" id="g4371">
            <path style="fill:#552200;stroke:none" d="m -1728.0441,1065.1228 838.7316,1.6642 c 1.11192,0 2.2391,0.071 4.77191,0.6532 1.09222,0.2509 2.91823,0.8209 3.20125,0.9008 l 35.06975,12.2762 21.93515,8.8153 15.50405,11.2907 1.21272,0.6878 0.84023,0.847 1.0643,1.0527 0.53567,1.0215 -0.38671,1.1383 -0.34851,0.9454 -0.70704,0.8199 -2.25115,3.3071 -6.00807,4.3054 -11.95023,7.0195 -20.72065,9.9461 -24.36885,9.073 -6.97967,2.4126 c -2.87043,0.9922 -7.35082,1.6747 -9.91476,1.6772 l -839.23099,0.8406 c -2.3262,0 -4.1989,-1.8727 -4.1989,-4.1989 l 0,-72.2967 c 0,-2.3262 1.8727,-4.2035 4.1989,-4.1989 z" id="rect4318" inkscape:connector-curvature="0" sodipodi:nodetypes="sssscccccccccccccccssssss" transform="translate(48.935985,44.778)"/>
            <rect style="fill:#000000;stroke:none" id="rect4321" width="39.996983" height="81.703239" x="-1683.6362" y="1109.2284" ry="4.2691746"/>
            <rect ry="4.2867432" y="1109.2283" x="-1483.7185" height="82.039467" width="40.161579" id="rect4323" style="fill:#000000;stroke:none"/>
            <rect style="fill:#000000;stroke:none" id="rect4329" width="11.989528" height="81.871353" x="-1571.4177" y="1109.2283" ry="4.2779589"/>
            <rect ry="4.2779589" y="1109.2283" x="-1585.4177" height="81.871353" width="11.989528" id="rect4331" style="fill:#000000;stroke:none"/>
            <rect style="fill:#000000;stroke:none" id="rect4333" width="11.989528" height="81.871353" x="-1599.4177" y="1109.2283" ry="4.2779589"/>
            <rect ry="4.2779589" y="1109.7327" x="-1666.4091" height="81.871353" width="4.5925264" id="rect4335" style="fill:#ffff00;stroke:none"/>
            <rect style="fill:#008000;stroke:none" id="rect4337" width="4.5925264" height="81.871353" x="-1647.4177" y="1109.2283" ry="4.2779589"/>
            <rect style="fill:#ff0000;stroke:none" id="rect4339" width="4.5925264" height="81.871353" x="-1684.4091" y="1109.7327" ry="4.2779589"/>
            <rect style="fill:#008000;stroke:none" id="rect4343" width="4.5925264" height="81.871353" x="-1464.4091" y="1109.7327" ry="4.2779589"/>
            <g id="g4355" transform="matrix(1.2031794,0,0,1.1449132,299.69787,-172.82093)">
              <rect transform="matrix(0.55130282,0.83430522,-0.51214559,0.85889865,0,0)" style="fill:#000000;stroke:none" id="rect4347" width="5.4301739" height="37.916965" x="-760.52716" y="2082.8892" ry="1.9812449"/>
              <rect ry="1.6955667" y="2142.4634" x="-878.30133" height="32.449665" width="4.6076894" id="rect4349" style="fill:#000000;stroke:none" transform="matrix(0.5494422,0.83553173,-0.46752356,0.88398061,0,0)"/>
              <rect transform="matrix(0.62251804,0.78260545,-0.43684798,0.89953535,0,0)" style="fill:#000000;stroke:none" id="rect4351" width="4.4253826" height="30.784702" x="-914.50861" y="2086.5376" ry="1.6085687"/>
              <rect ry="1.5061227" y="2006.368" x="-979.95917" height="28.824097" width="4.2343063" id="rect4353" style="fill:#000000;stroke:none" transform="matrix(0.71379118,0.70035859,-0.38805283,0.92163713,0,0)"/>
            </g>
            <g id="g4361" transform="matrix(1.3068971,-0.01361693,-0.0141325,-1.2592197,473.03615,2589.1174)">
              <rect ry="2.0181396" y="2104.3281" x="-790.93457" height="38.623055" width="5.5282421" id="rect4363" style="fill:#000000;stroke:none" transform="matrix(0.54175042,0.8405394,-0.50255192,0.86454703,0,0)"/>
              <rect transform="matrix(0.5494422,0.83553173,-0.46752356,0.88398061,0,0)" style="fill:#000000;stroke:none" id="rect4365" width="4.6076894" height="32.449665" x="-878.30133" y="2142.4634" ry="1.6955667"/>
              <rect ry="1.6085687" y="2086.5376" x="-914.50861" height="30.784702" width="4.4253826" id="rect4367" style="fill:#000000;stroke:none" transform="matrix(0.62251804,0.78260545,-0.43684798,0.89953535,0,0)"/>
              <rect transform="matrix(0.71379118,0.70035859,-0.38805283,0.92163713,0,0)" style="fill:#000000;stroke:none" id="rect4369" width="4.2343063" height="28.824097" x="-979.95917" y="2006.368" ry="1.5061227"/>
            </g>
            <rect ry="4.2779589" y="1109.7327" x="-1484.4091" height="81.871353" width="4.5925264" id="rect4345" style="fill:#ffff00;stroke:none"/>
            <rect ry="4.2779589" y="1109.0605" x="-1447.064" height="81.871353" width="4.5925264" id="rect4341" style="fill:#ff0000;stroke:none"/>
          </g>
          <g transform="translate(-357.07342,117.67956)" id="g4413">
            <path style="fill:none;stroke:#000000;stroke-width:5;stroke-linecap:butt;stroke-linejoin:miter;stroke-miterlimit:4;stroke-opacity:1;stroke-dasharray:none" d="m -858.56263,815.93518 c 3.8039,429.84952 -87.4915,450.77142 -87.4915,450.77142" id="path4401" inkscape:connector-curvature="0"/>
            <path style="fill:none;stroke:#000000;stroke-width:4.30000019;stroke-linecap:butt;stroke-linejoin:miter;stroke-miterlimit:4;stroke-opacity:1;stroke-dasharray:none" d="m -868.29212,809.98603 c -8.06946,399.43807 21.51855,430.37097 21.51855,430.37097" id="path4403" inkscape:connector-curvature="0"/>
            <path style="fill:none;stroke:#000000;stroke-width:2.9000001;stroke-linecap:butt;stroke-linejoin:miter;stroke-miterlimit:4;stroke-opacity:1;stroke-dasharray:none" d="m -864.2574,812.67586 c -2.6898,392.71344 37.6575,406.16254 37.6575,406.16254 l 12.10415,13.4491" id="path4405" inkscape:connector-curvature="0"/>
            <path style="fill:none;stroke:#000000;stroke-width:3.9000001;stroke-linecap:butt;stroke-linejoin:miter;stroke-miterlimit:4;stroke-opacity:1;stroke-dasharray:none" d="m -858.87776,809.98604 c -17.48382,394.05836 -52.45146,420.95656 -52.45146,420.95656" id="path4407" inkscape:connector-curvature="0"/>
            <path style="fill:none;stroke:#000000;stroke-width:3;stroke-linecap:butt;stroke-linejoin:miter;stroke-miterlimit:4;stroke-opacity:1;stroke-dasharray:none" d="m -856.18793,811.33095 c 8.0695,416.92185 -33.6227,414.23205 -33.6227,414.23205" id="path4409" inkscape:connector-curvature="0"/>
            <path style="fill:none;stroke:#000000;stroke-width:2.80000019;stroke-linecap:butt;stroke-linejoin:miter;stroke-miterlimit:4;stroke-opacity:1;stroke-dasharray:none" d="m -910.50355,769.24277 c 1.34491,459.95893 26.89818,459.95893 26.89818,459.95893" id="path4411" inkscape:connector-curvature="0" transform="translate(48.935985,44.778)"/>
          </g>
          <path sodipodi:open="true" sodipodi:end="6.2800626" sodipodi:start="0" transform="matrix(1.1620454,0,0,1.121534,615.57327,-536.79425)" d="m -1572.1989,1908.3809 c 0,5.9421 -3.6128,10.7592 -8.0694,10.7592 -4.4566,0 -8.0695,-4.8171 -8.0695,-10.7592 0,-5.9422 3.6129,-10.7593 8.0695,-10.7593 4.4468,0 8.0555,4.7966 8.0694,10.7257" sodipodi:ry="10.759274" sodipodi:rx="8.0694551" sodipodi:cy="1908.3809" sodipodi:cx="-1580.2683" id="path4435" style="fill:#000000;stroke:none" sodipodi:type="arc"/>
          <g id="g4421" transform="matrix(-1.1334112,0,0,0.31221057,-2198.0302,1347.2341)">
            <path inkscape:connector-curvature="0" id="path4423" d="m -858.56263,815.93518 c 3.8039,429.84952 -87.4915,450.77142 -87.4915,450.77142" style="fill:none;stroke:#000000;stroke-width:5;stroke-linecap:butt;stroke-linejoin:miter;stroke-miterlimit:4;stroke-opacity:1;stroke-dasharray:none"/>
            <path inkscape:connector-curvature="0" id="path4425" d="m -868.29212,809.98603 c -8.06946,399.43807 21.51855,430.37097 21.51855,430.37097" style="fill:none;stroke:#000000;stroke-width:4.30000019;stroke-linecap:butt;stroke-linejoin:miter;stroke-miterlimit:4;stroke-opacity:1;stroke-dasharray:none"/>
            <path inkscape:connector-curvature="0" id="path4427" d="m -864.2574,812.67586 c -2.6898,392.71344 37.6575,406.16254 37.6575,406.16254 l 12.10415,13.4491" style="fill:none;stroke:#000000;stroke-width:2.9000001;stroke-linecap:butt;stroke-linejoin:miter;stroke-miterlimit:4;stroke-opacity:1;stroke-dasharray:none"/>
            <path inkscape:connector-curvature="0" id="path4429" d="m -858.87776,809.98604 c -17.48382,394.05836 -52.45146,420.95656 -52.45146,420.95656" style="fill:none;stroke:#000000;stroke-width:3.9000001;stroke-linecap:butt;stroke-linejoin:miter;stroke-miterlimit:4;stroke-opacity:1;stroke-dasharray:none"/>
            <path inkscape:connector-curvature="0" id="path4431" d="m -856.18793,811.33095 c 8.0695,416.92185 -33.6227,414.23205 -33.6227,414.23205" style="fill:none;stroke:#000000;stroke-width:3;stroke-linecap:butt;stroke-linejoin:miter;stroke-miterlimit:4;stroke-opacity:1;stroke-dasharray:none"/>
            <path transform="translate(48.935985,44.778)" inkscape:connector-curvature="0" id="path4433" d="m -910.50355,769.24277 c 1.34491,459.95893 26.89818,459.95893 26.89818,459.95893" style="fill:none;stroke:#000000;stroke-width:2.80000019;stroke-linecap:butt;stroke-linejoin:miter;stroke-miterlimit:4;stroke-opacity:1;stroke-dasharray:none"/>
          </g>
          <rect ry="4.2779589" transform="translate(48.935985,44.778)" y="740.49536" x="-1262.8698" height="11.599842" width="14.625888" id="rect4437" style="fill:#cccccc;stroke:none"/>
          <rect style="fill:#cccccc;stroke:none" id="rect4439" width="14.625888" height="11.599842" x="-1214.1019" y="770.81561" ry="4.2779589"/>
          <rect ry="4.4639573" y="798.81561" x="-1214.1019" height="12.104183" width="14.625888" id="rect4441" style="fill:#cccccc;stroke:none"/>
        </g>
      </g>
      <g style="fill:#f9f9f9;filter:url(#filter4818)" transform="matrix(0.51628876,0.85641458,-0.85641458,0.51628876,511.97246,-427.23827)" id="g4704">
        <g style="fill:#f9f9f9" id="g4706" transform="matrix(-0.60795464,0.79397176,-0.79397176,-0.60795464,802.51535,46.14928)">
          <g style="fill:#f9f9f9" id="g4708">
            <path sodipodi:nodetypes="scccssssscccsccssss" inkscape:connector-curvature="0" id="path4710" d="m 36.324145,343.35106 20.007457,-0.28303 280.023348,-9.59592 24.53749,0.87125 18.97072,1.43151 c 1.49323,0.11267 5.36184,0.69526 6.7655,1.21694 4.40598,1.63751 6.10356,1.70343 9.51857,3.2373 5.08404,2.28351 9.0873,3.94809 13.02982,6.0286 4.73434,2.49836 5.49433,2.60279 10.32499,5.17636 4.39657,2.3423 4.46749,2.19814 9.7244,5.80643 l -12.76929,11.48906 -11.80698,8.60364 c -2.98935,2.16995 -6.52867,4.96117 -10.38207,6.61916 -4.95653,2.13264 -9.69097,2.57581 -14.41966,2.46302 l -43.70768,-1.07529 -307.784702,-7.57207 c -1.497019,-0.0368 -8.42256,-0.73656 -8.409517,-2.23398 l 0.266869,-30.63635 c 0.01304,-1.49741 13.038746,-1.20397 16.110735,-1.54663 z" style="fill:#f9f9f9" transform="matrix(0.79931954,-0.60090621,0.60090621,0.79931954,-1.5503153e-7,-3.4495941e-7)"/>
            <path sodipodi:nodetypes="scccccccccccccssccccssssccccssss" inkscape:connector-curvature="0" id="path4712" d="m 92.758123,357.63899 3.968789,3.49005 2.206156,2.72648 2.442412,1.59905 3.10739,-0.66959 5.09426,-6.29271 4.67807,-4.90697 17.30797,-18.36038 19.7329,-17.90817 15.50828,-12.86151 15.17939,-10.55779 25.94234,-14.8857 5.43094,-12.47174 3.24627,-4.56587 4.38703,-1.30521 c 1.4353,-0.42701 2.86735,-0.73347 3.79721,0.44032 l 8.54336,4.61706 4.6507,4.63562 2.89811,4.42334 1.65415,4.23987 1.33659,6.17318 c 0.31688,1.46356 0.75813,2.89937 -0.44032,3.7972 l -131.36126,98.40952 c -1.19845,0.89784 -2.0638,2.06353 -3.53133,1.76554 l -2.43659,-0.46317 -2.00542,-1.42353 -1.68391,-3.66871 -2.888363,-2.96071 -13.3869,-9.70832 c -0.386126,-0.28003 -3.384787,-4.80744 -2.606074,-6.75269 0.703178,-1.75657 1.637558,-4.65033 3.321857,-5.80855 2.30628,-1.58591 5.430263,-1.09449 5.905993,-0.74591 z" style="fill:#f9f9f9"/>
            <path sodipodi:open="true" sodipodi:end="6.2800626" sodipodi:start="0" transform="matrix(1.1428571,0,0,1.1428571,43.28458,-2.4075564)" d="m 58.503551,330.46613 c 0,1.29985 -1.053739,2.35359 -2.353591,2.35359 -1.299853,0 -2.353592,-1.05374 -2.353592,-2.35359 0,-1.29986 1.053739,-2.3536 2.353592,-2.3536 1.296983,0 2.349529,1.04927 2.353579,2.34625" sodipodi:ry="2.3535912" sodipodi:rx="2.3535912" sodipodi:cy="330.46613" sodipodi:cx="56.14996" id="path4714" style="fill:#f9f9f9" sodipodi:type="arc"/>
            <path style="fill:#f9f9f9;stroke:none" d="M 319.75896,198.18805 C 453.29347,93.001175 454.27006,91.777557 454.27006,91.777557" id="path4716" inkscape:connector-curvature="0"/>
            <path inkscape:connector-curvature="0" id="path4718" d="M 325.85337,204.30719 C 459.20123,98.883774 460.17565,97.658427 460.17565,97.658427" style="fill:#f9f9f9;stroke:none"/>
            <path style="fill:#f9f9f9;stroke:none" d="M 331.85337,210.30719 C 465.20123,104.88377 466.17565,103.65843 466.17565,103.65843" id="path4720" inkscape:connector-curvature="0"/>
          </g>
          <g style="fill:#f9f9f9" id="g4722" inkscape:label="Ebene 1" transform="translate(63.823199,587.9563)">
            <path inkscape:connector-curvature="0" id="path4724" style="color:#000000;fill:#f9f9f9;filter:url(#filter3321-4)" d="m 142.37,165.39 -11.69,-2.31 10.47,68.42 -19.23,-66.59 -9.79,6.78 2.31,-11.69 -69.047,11.11 67.227,-19.86 -6.79,-9.8 11.69,2.31 -9.84,-65.894 18.6,64.074 9.79,-6.79 -2.31,11.69 67.79,-6.69 -65.97,15.45 6.79,9.79 z" inkscape:export-ydpi="155.90829" sodipodi:nodetypes="ccccccccccccccccc" inkscape:export-filename="D:\Bilder\inkscape\Schwert.png" transform="matrix(-0.002885,0.2787,-0.23703,-0.0024536,527.72477,-591.15826)" inkscape:export-xdpi="155.90829"/>
          </g>
        </g>
        <g style="fill:#f9f9f9" id="g4726" transform="matrix(0.69434917,0.00652914,-0.00671263,0.67536916,1292.6184,-383.2495)">
          <g style="fill:#f9f9f9" transform="matrix(2.3013352e-4,0.99999997,-0.99999997,2.3013352e-4,-69.837747,2370.2673)" id="g4728">
            <path style="fill:#f9f9f9;stroke:none" d="m -1728.0441,1065.1228 838.7316,1.6642 c 1.11192,0 2.2391,0.071 4.77191,0.6532 1.09222,0.2509 2.91823,0.8209 3.20125,0.9008 l 35.06975,12.2762 21.93515,8.8153 15.50405,11.2907 1.21272,0.6878 0.84023,0.847 1.0643,1.0527 0.53567,1.0215 -0.38671,1.1383 -0.34851,0.9454 -0.70704,0.8199 -2.25115,3.3071 -6.00807,4.3054 -11.95023,7.0195 -20.72065,9.9461 -24.36885,9.073 -6.97967,2.4126 c -2.87043,0.9922 -7.35082,1.6747 -9.91476,1.6772 l -839.23099,0.8406 c -2.3262,0 -4.1989,-1.8727 -4.1989,-4.1989 l 0,-72.2967 c 0,-2.3262 1.8727,-4.2035 4.1989,-4.1989 z" id="path4730" inkscape:connector-curvature="0" sodipodi:nodetypes="sssscccccccccccccccssssss" transform="translate(48.935985,44.778)"/>
            <rect style="fill:#f9f9f9;stroke:none" id="rect4732" width="39.996983" height="81.703239" x="-1683.6362" y="1109.2284" ry="4.2691746"/>
            <rect ry="4.2867432" y="1109.2283" x="-1483.7185" height="82.039467" width="40.161579" id="rect4734" style="fill:#f9f9f9;stroke:none"/>
            <rect style="fill:#f9f9f9;stroke:none" id="rect4736" width="11.989528" height="81.871353" x="-1571.4177" y="1109.2283" ry="4.2779589"/>
            <rect ry="4.2779589" y="1109.2283" x="-1585.4177" height="81.871353" width="11.989528" id="rect4738" style="fill:#f9f9f9;stroke:none"/>
            <rect style="fill:#f9f9f9;stroke:none" id="rect4740" width="11.989528" height="81.871353" x="-1599.4177" y="1109.2283" ry="4.2779589"/>
            <rect ry="4.2779589" y="1109.7327" x="-1666.4091" height="81.871353" width="4.5925264" id="rect4742" style="fill:#f9f9f9;stroke:none"/>
            <rect style="fill:#f9f9f9;stroke:none" id="rect4744" width="4.5925264" height="81.871353" x="-1647.4177" y="1109.2283" ry="4.2779589"/>
            <rect style="fill:#f9f9f9;stroke:none" id="rect4746" width="4.5925264" height="81.871353" x="-1684.4091" y="1109.7327" ry="4.2779589"/>
            <rect style="fill:#f9f9f9;stroke:none" id="rect4748" width="4.5925264" height="81.871353" x="-1464.4091" y="1109.7327" ry="4.2779589"/>
            <g style="fill:#f9f9f9" id="g4750" transform="matrix(1.2031794,0,0,1.1449132,299.69787,-172.82093)">
              <rect transform="matrix(0.55130282,0.83430522,-0.51214559,0.85889865,0,0)" style="fill:#f9f9f9;stroke:none" id="rect4752" width="5.4301739" height="37.916965" x="-760.52716" y="2082.8892" ry="1.9812449"/>
              <rect ry="1.6955667" y="2142.4634" x="-878.30133" height="32.449665" width="4.6076894" id="rect4754" style="fill:#f9f9f9;stroke:none" transform="matrix(0.5494422,0.83553173,-0.46752356,0.88398061,0,0)"/>
              <rect transform="matrix(0.62251804,0.78260545,-0.43684798,0.89953535,0,0)" style="fill:#f9f9f9;stroke:none" id="rect4756" width="4.4253826" height="30.784702" x="-914.50861" y="2086.5376" ry="1.6085687"/>
              <rect ry="1.5061227" y="2006.368" x="-979.95917" height="28.824097" width="4.2343063" id="rect4758" style="fill:#f9f9f9;stroke:none" transform="matrix(0.71379118,0.70035859,-0.38805283,0.92163713,0,0)"/>
            </g>
            <g style="fill:#f9f9f9" id="g4760" transform="matrix(1.3068971,-0.01361693,-0.0141325,-1.2592197,473.03615,2589.1174)">
              <rect ry="2.0181396" y="2104.3281" x="-790.93457" height="38.623055" width="5.5282421" id="rect4762" style="fill:#f9f9f9;stroke:none" transform="matrix(0.54175042,0.8405394,-0.50255192,0.86454703,0,0)"/>
              <rect transform="matrix(0.5494422,0.83553173,-0.46752356,0.88398061,0,0)" style="fill:#f9f9f9;stroke:none" id="rect4764" width="4.6076894" height="32.449665" x="-878.30133" y="2142.4634" ry="1.6955667"/>
              <rect ry="1.6085687" y="2086.5376" x="-914.50861" height="30.784702" width="4.4253826" id="rect4766" style="fill:#f9f9f9;stroke:none" transform="matrix(0.62251804,0.78260545,-0.43684798,0.89953535,0,0)"/>
              <rect transform="matrix(0.71379118,0.70035859,-0.38805283,0.92163713,0,0)" style="fill:#f9f9f9;stroke:none" id="rect4768" width="4.2343063" height="28.824097" x="-979.95917" y="2006.368" ry="1.5061227"/>
            </g>
            <rect ry="4.2779589" y="1109.7327" x="-1484.4091" height="81.871353" width="4.5925264" id="rect4770" style="fill:#f9f9f9;stroke:none"/>
            <rect ry="4.2779589" y="1109.0605" x="-1447.064" height="81.871353" width="4.5925264" id="rect4772" style="fill:#f9f9f9;stroke:none"/>
          </g>
          <g style="fill:#f9f9f9" transform="translate(-357.07342,117.67956)" id="g4774">
            <path style="fill:#f9f9f9;stroke:#000000;stroke-width:5;stroke-linecap:butt;stroke-linejoin:miter;stroke-miterlimit:4;stroke-opacity:1;stroke-dasharray:none" d="m -858.56263,815.93518 c 3.8039,429.84952 -87.4915,450.77142 -87.4915,450.77142" id="path4776" inkscape:connector-curvature="0"/>
            <path style="fill:#f9f9f9;stroke:#000000;stroke-width:4.30000019000000044;stroke-linecap:butt;stroke-linejoin:miter;stroke-miterlimit:4;stroke-opacity:1;stroke-dasharray:none" d="m -868.29212,809.98603 c -8.06946,399.43807 21.51855,430.37097 21.51855,430.37097" id="path4778" inkscape:connector-curvature="0"/>
            <path style="fill:#f9f9f9;stroke:#000000;stroke-width:2.90000010000000019;stroke-linecap:butt;stroke-linejoin:miter;stroke-miterlimit:4;stroke-opacity:1;stroke-dasharray:none" d="m -864.2574,812.67586 c -2.6898,392.71344 37.6575,406.16254 37.6575,406.16254 l 12.10415,13.4491" id="path4780" inkscape:connector-curvature="0"/>
            <path style="fill:#f9f9f9;stroke:#000000;stroke-width:3.90000010000000019;stroke-linecap:butt;stroke-linejoin:miter;stroke-miterlimit:4;stroke-opacity:1;stroke-dasharray:none" d="m -858.87776,809.98604 c -17.48382,394.05836 -52.45146,420.95656 -52.45146,420.95656" id="path4782" inkscape:connector-curvature="0"/>
            <path style="fill:#f9f9f9;stroke:#000000;stroke-width:3;stroke-linecap:butt;stroke-linejoin:miter;stroke-miterlimit:4;stroke-opacity:1;stroke-dasharray:none" d="m -856.18793,811.33095 c 8.0695,416.92185 -33.6227,414.23205 -33.6227,414.23205" id="path4784" inkscape:connector-curvature="0"/>
            <path style="fill:#f9f9f9;stroke:#000000;stroke-width:2.80000019000000000;stroke-linecap:butt;stroke-linejoin:miter;stroke-miterlimit:4;stroke-opacity:1;stroke-dasharray:none" d="m -910.50355,769.24277 c 1.34491,459.95893 26.89818,459.95893 26.89818,459.95893" id="path4786" inkscape:connector-curvature="0" transform="translate(48.935985,44.778)"/>
          </g>
          <path sodipodi:open="true" sodipodi:end="6.2800626" sodipodi:start="0" transform="matrix(1.1620454,0,0,1.121534,615.57327,-536.79425)" d="m -1572.1989,1908.3809 c 0,5.9421 -3.6128,10.7592 -8.0694,10.7592 -4.4566,0 -8.0695,-4.8171 -8.0695,-10.7592 0,-5.9422 3.6129,-10.7593 8.0695,-10.7593 4.4468,0 8.0555,4.7966 8.0694,10.7257" sodipodi:ry="10.759274" sodipodi:rx="8.0694551" sodipodi:cy="1908.3809" sodipodi:cx="-1580.2683" id="path4788" style="fill:#f9f9f9;stroke:none" sodipodi:type="arc"/>
          <g style="fill:#f9f9f9" id="g4790" transform="matrix(-1.1334112,0,0,0.31221057,-2198.0302,1347.2341)">
            <path inkscape:connector-curvature="0" id="path4792" d="m -858.56263,815.93518 c 3.8039,429.84952 -87.4915,450.77142 -87.4915,450.77142" style="fill:#f9f9f9;stroke:#000000;stroke-width:5;stroke-linecap:butt;stroke-linejoin:miter;stroke-miterlimit:4;stroke-opacity:1;stroke-dasharray:none"/>
            <path inkscape:connector-curvature="0" id="path4794" d="m -868.29212,809.98603 c -8.06946,399.43807 21.51855,430.37097 21.51855,430.37097" style="fill:#f9f9f9;stroke:#000000;stroke-width:4.30000019000000044;stroke-linecap:butt;stroke-linejoin:miter;stroke-miterlimit:4;stroke-opacity:1;stroke-dasharray:none"/>
            <path inkscape:connector-curvature="0" id="path4796" d="m -864.2574,812.67586 c -2.6898,392.71344 37.6575,406.16254 37.6575,406.16254 l 12.10415,13.4491" style="fill:#f9f9f9;stroke:#000000;stroke-width:2.90000010000000019;stroke-linecap:butt;stroke-linejoin:miter;stroke-miterlimit:4;stroke-opacity:1;stroke-dasharray:none"/>
            <path inkscape:connector-curvature="0" id="path4798" d="m -858.87776,809.98604 c -17.48382,394.05836 -52.45146,420.95656 -52.45146,420.95656" style="fill:#f9f9f9;stroke:#000000;stroke-width:3.90000010000000019;stroke-linecap:butt;stroke-linejoin:miter;stroke-miterlimit:4;stroke-opacity:1;stroke-dasharray:none"/>
            <path inkscape:connector-curvature="0" id="path4800" d="m -856.18793,811.33095 c 8.0695,416.92185 -33.6227,414.23205 -33.6227,414.23205" style="fill:#f9f9f9;stroke:#000000;stroke-width:3;stroke-linecap:butt;stroke-linejoin:miter;stroke-miterlimit:4;stroke-opacity:1;stroke-dasharray:none"/>
            <path transform="translate(48.935985,44.778)" inkscape:connector-curvature="0" id="path4802" d="m -910.50355,769.24277 c 1.34491,459.95893 26.89818,459.95893 26.89818,459.95893" style="fill:#f9f9f9;stroke:#000000;stroke-width:2.80000019000000000;stroke-linecap:butt;stroke-linejoin:miter;stroke-miterlimit:4;stroke-opacity:1;stroke-dasharray:none"/>
          </g>
          <rect ry="4.2779589" transform="translate(48.935985,44.778)" y="740.49536" x="-1262.8698" height="11.599842" width="14.625888" id="rect4804" style="fill:#f9f9f9;stroke:none"/>
          <rect style="fill:#f9f9f9;stroke:none" id="rect4806" width="14.625888" height="11.599842" x="-1214.1019" y="770.81561" ry="4.2779589"/>
          <rect ry="4.4639573" y="798.81561" x="-1214.1019" height="12.104183" width="14.625888" id="rect4808" style="fill:#f9f9f9;stroke:none"/>
        </g>
      </g>
      <g id="g4594" transform="matrix(0.51628876,0.85641458,-0.85641458,0.51628876,513.97246,-423.23827)">
        <g transform="matrix(-0.60795464,0.79397176,-0.79397176,-0.60795464,802.51535,46.14928)" id="g4596">
          <g id="g4598">
            <path transform="matrix(0.79931954,-0.60090621,0.60090621,0.79931954,-1.5503153e-7,-3.4495941e-7)" style="fill:#cccccc" d="m 36.324145,343.35106 20.007457,-0.28303 280.023348,-9.59592 24.53749,0.87125 18.97072,1.43151 c 1.49323,0.11267 5.36184,0.69526 6.7655,1.21694 4.40598,1.63751 6.10356,1.70343 9.51857,3.2373 5.08404,2.28351 9.0873,3.94809 13.02982,6.0286 4.73434,2.49836 5.49433,2.60279 10.32499,5.17636 4.39657,2.3423 4.46749,2.19814 9.7244,5.80643 l -12.76929,11.48906 -11.80698,8.60364 c -2.98935,2.16995 -6.52867,4.96117 -10.38207,6.61916 -4.95653,2.13264 -9.69097,2.57581 -14.41966,2.46302 l -43.70768,-1.07529 -307.784702,-7.57207 c -1.497019,-0.0368 -8.42256,-0.73656 -8.409517,-2.23398 l 0.266869,-30.63635 c 0.01304,-1.49741 13.038746,-1.20397 16.110735,-1.54663 z" id="path4600" inkscape:connector-curvature="0" sodipodi:nodetypes="scccssssscccsccssss"/>
            <path style="fill:#000000" d="m 92.758123,357.63899 3.968789,3.49005 2.206156,2.72648 2.442412,1.59905 3.10739,-0.66959 5.09426,-6.29271 4.67807,-4.90697 17.30797,-18.36038 19.7329,-17.90817 15.50828,-12.86151 15.17939,-10.55779 25.94234,-14.8857 5.43094,-12.47174 3.24627,-4.56587 4.38703,-1.30521 c 1.4353,-0.42701 2.86735,-0.73347 3.79721,0.44032 l 8.54336,4.61706 4.6507,4.63562 2.89811,4.42334 1.65415,4.23987 1.33659,6.17318 c 0.31688,1.46356 0.75813,2.89937 -0.44032,3.7972 l -131.36126,98.40952 c -1.19845,0.89784 -2.0638,2.06353 -3.53133,1.76554 l -2.43659,-0.46317 -2.00542,-1.42353 -1.68391,-3.66871 -2.888363,-2.96071 -13.3869,-9.70832 c -0.386126,-0.28003 -3.384787,-4.80744 -2.606074,-6.75269 0.703178,-1.75657 1.637558,-4.65033 3.321857,-5.80855 2.30628,-1.58591 5.430263,-1.09449 5.905993,-0.74591 z" id="path4602" inkscape:connector-curvature="0" sodipodi:nodetypes="scccccccccccccssccccssssccccssss"/>
            <path sodipodi:type="arc" style="fill:#ffffff" id="path4604" sodipodi:cx="56.14996" sodipodi:cy="330.46613" sodipodi:rx="2.3535912" sodipodi:ry="2.3535912" d="m 58.503551,330.46613 c 0,1.29985 -1.053739,2.35359 -2.353591,2.35359 -1.299853,0 -2.353592,-1.05374 -2.353592,-2.35359 0,-1.29986 1.053739,-2.3536 2.353592,-2.3536 1.296983,0 2.349529,1.04927 2.353579,2.34625" transform="matrix(1.1428571,0,0,1.1428571,43.28458,-2.4075564)" sodipodi:start="0" sodipodi:end="6.2800626" sodipodi:open="true"/>
            <path inkscape:connector-curvature="0" id="path4606" d="M 319.75896,198.18805 C 453.29347,93.001175 454.27006,91.777557 454.27006,91.777557" style="fill:#4d4d4d;stroke:none"/>
            <path style="fill:#4d4d4d;stroke:none" d="M 325.85337,204.30719 C 459.20123,98.883774 460.17565,97.658427 460.17565,97.658427" id="path4608" inkscape:connector-curvature="0"/>
            <path inkscape:connector-curvature="0" id="path4610" d="M 331.85337,210.30719 C 465.20123,104.88377 466.17565,103.65843 466.17565,103.65843" style="fill:#1a1a1a;stroke:none"/>
          </g>
          <g transform="translate(63.823199,587.9563)" inkscape:label="Ebene 1" id="g4612">
            <path inkscape:export-xdpi="155.90829" transform="matrix(-0.002885,0.2787,-0.23703,-0.0024536,527.72477,-591.15826)" inkscape:export-filename="D:\Bilder\inkscape\Schwert.png" sodipodi:nodetypes="ccccccccccccccccc" inkscape:export-ydpi="155.90829" d="m 142.37,165.39 -11.69,-2.31 10.47,68.42 -19.23,-66.59 -9.79,6.78 2.31,-11.69 -69.047,11.11 67.227,-19.86 -6.79,-9.8 11.69,2.31 -9.84,-65.894 18.6,64.074 9.79,-6.79 -2.31,11.69 67.79,-6.69 -65.97,15.45 6.79,9.79 z" style="color:#000000;fill:#ffffff;filter:url(#filter3321-4)" id="path4614" inkscape:connector-curvature="0"/>
          </g>
        </g>
        <g transform="matrix(0.69434917,0.00652914,-0.00671263,0.67536916,1292.6184,-383.2495)" id="g4616">
          <g id="g4618" transform="matrix(2.3013352e-4,0.99999997,-0.99999997,2.3013352e-4,-69.837747,2370.2673)">
            <path transform="translate(48.935985,44.778)" sodipodi:nodetypes="sssscccccccccccccccssssss" inkscape:connector-curvature="0" id="path4620" d="m -1728.0441,1065.1228 838.7316,1.6642 c 1.11192,0 2.2391,0.071 4.77191,0.6532 1.09222,0.2509 2.91823,0.8209 3.20125,0.9008 l 35.06975,12.2762 21.93515,8.8153 15.50405,11.2907 1.21272,0.6878 0.84023,0.847 1.0643,1.0527 0.53567,1.0215 -0.38671,1.1383 -0.34851,0.9454 -0.70704,0.8199 -2.25115,3.3071 -6.00807,4.3054 -11.95023,7.0195 -20.72065,9.9461 -24.36885,9.073 -6.97967,2.4126 c -2.87043,0.9922 -7.35082,1.6747 -9.91476,1.6772 l -839.23099,0.8406 c -2.3262,0 -4.1989,-1.8727 -4.1989,-4.1989 l 0,-72.2967 c 0,-2.3262 1.8727,-4.2035 4.1989,-4.1989 z" style="fill:#552200;stroke:none"/>
            <rect ry="4.2691746" y="1109.2284" x="-1683.6362" height="81.703239" width="39.996983" id="rect4622" style="fill:#000000;stroke:none"/>
            <rect style="fill:#000000;stroke:none" id="rect4624" width="40.161579" height="82.039467" x="-1483.7185" y="1109.2283" ry="4.2867432"/>
            <rect ry="4.2779589" y="1109.2283" x="-1571.4177" height="81.871353" width="11.989528" id="rect4626" style="fill:#000000;stroke:none"/>
            <rect style="fill:#000000;stroke:none" id="rect4628" width="11.989528" height="81.871353" x="-1585.4177" y="1109.2283" ry="4.2779589"/>
            <rect ry="4.2779589" y="1109.2283" x="-1599.4177" height="81.871353" width="11.989528" id="rect4630" style="fill:#000000;stroke:none"/>
            <rect style="fill:#ffff00;stroke:none" id="rect4632" width="4.5925264" height="81.871353" x="-1666.4091" y="1109.7327" ry="4.2779589"/>
            <rect ry="4.2779589" y="1109.2283" x="-1647.4177" height="81.871353" width="4.5925264" id="rect4634" style="fill:#008000;stroke:none"/>
            <rect ry="4.2779589" y="1109.7327" x="-1684.4091" height="81.871353" width="4.5925264" id="rect4636" style="fill:#ff0000;stroke:none"/>
            <rect ry="4.2779589" y="1109.7327" x="-1464.4091" height="81.871353" width="4.5925264" id="rect4638" style="fill:#008000;stroke:none"/>
            <g transform="matrix(1.2031794,0,0,1.1449132,299.69787,-172.82093)" id="g4640">
              <rect ry="1.9812449" y="2082.8892" x="-760.52716" height="37.916965" width="5.4301739" id="rect4642" style="fill:#000000;stroke:none" transform="matrix(0.55130282,0.83430522,-0.51214559,0.85889865,0,0)"/>
              <rect transform="matrix(0.5494422,0.83553173,-0.46752356,0.88398061,0,0)" style="fill:#000000;stroke:none" id="rect4644" width="4.6076894" height="32.449665" x="-878.30133" y="2142.4634" ry="1.6955667"/>
              <rect ry="1.6085687" y="2086.5376" x="-914.50861" height="30.784702" width="4.4253826" id="rect4646" style="fill:#000000;stroke:none" transform="matrix(0.62251804,0.78260545,-0.43684798,0.89953535,0,0)"/>
              <rect transform="matrix(0.71379118,0.70035859,-0.38805283,0.92163713,0,0)" style="fill:#000000;stroke:none" id="rect4648" width="4.2343063" height="28.824097" x="-979.95917" y="2006.368" ry="1.5061227"/>
            </g>
            <g transform="matrix(1.3068971,-0.01361693,-0.0141325,-1.2592197,473.03615,2589.1174)" id="g4650">
              <rect transform="matrix(0.54175042,0.8405394,-0.50255192,0.86454703,0,0)" style="fill:#000000;stroke:none" id="rect4652" width="5.5282421" height="38.623055" x="-790.93457" y="2104.3281" ry="2.0181396"/>
              <rect ry="1.6955667" y="2142.4634" x="-878.30133" height="32.449665" width="4.6076894" id="rect4654" style="fill:#000000;stroke:none" transform="matrix(0.5494422,0.83553173,-0.46752356,0.88398061,0,0)"/>
              <rect transform="matrix(0.62251804,0.78260545,-0.43684798,0.89953535,0,0)" style="fill:#000000;stroke:none" id="rect4656" width="4.4253826" height="30.784702" x="-914.50861" y="2086.5376" ry="1.6085687"/>
              <rect ry="1.5061227" y="2006.368" x="-979.95917" height="28.824097" width="4.2343063" id="rect4658" style="fill:#000000;stroke:none" transform="matrix(0.71379118,0.70035859,-0.38805283,0.92163713,0,0)"/>
            </g>
            <rect style="fill:#ffff00;stroke:none" id="rect4660" width="4.5925264" height="81.871353" x="-1484.4091" y="1109.7327" ry="4.2779589"/>
            <rect style="fill:#ff0000;stroke:none" id="rect4662" width="4.5925264" height="81.871353" x="-1447.064" y="1109.0605" ry="4.2779589"/>
          </g>
          <g id="g4664" transform="translate(-357.07342,117.67956)">
            <path inkscape:connector-curvature="0" id="path4666" d="m -858.56263,815.93518 c 3.8039,429.84952 -87.4915,450.77142 -87.4915,450.77142" style="fill:none;stroke:#000000;stroke-width:5;stroke-linecap:butt;stroke-linejoin:miter;stroke-miterlimit:4;stroke-opacity:1;stroke-dasharray:none"/>
            <path inkscape:connector-curvature="0" id="path4668" d="m -868.29212,809.98603 c -8.06946,399.43807 21.51855,430.37097 21.51855,430.37097" style="fill:none;stroke:#000000;stroke-width:4.30000019;stroke-linecap:butt;stroke-linejoin:miter;stroke-miterlimit:4;stroke-opacity:1;stroke-dasharray:none"/>
            <path inkscape:connector-curvature="0" id="path4670" d="m -864.2574,812.67586 c -2.6898,392.71344 37.6575,406.16254 37.6575,406.16254 l 12.10415,13.4491" style="fill:none;stroke:#000000;stroke-width:2.9000001;stroke-linecap:butt;stroke-linejoin:miter;stroke-miterlimit:4;stroke-opacity:1;stroke-dasharray:none"/>
            <path inkscape:connector-curvature="0" id="path4672" d="m -858.87776,809.98604 c -17.48382,394.05836 -52.45146,420.95656 -52.45146,420.95656" style="fill:none;stroke:#000000;stroke-width:3.9000001;stroke-linecap:butt;stroke-linejoin:miter;stroke-miterlimit:4;stroke-opacity:1;stroke-dasharray:none"/>
            <path inkscape:connector-curvature="0" id="path4674" d="m -856.18793,811.33095 c 8.0695,416.92185 -33.6227,414.23205 -33.6227,414.23205" style="fill:none;stroke:#000000;stroke-width:3;stroke-linecap:butt;stroke-linejoin:miter;stroke-miterlimit:4;stroke-opacity:1;stroke-dasharray:none"/>
            <path transform="translate(48.935985,44.778)" inkscape:connector-curvature="0" id="path4676" d="m -910.50355,769.24277 c 1.34491,459.95893 26.89818,459.95893 26.89818,459.95893" style="fill:none;stroke:#000000;stroke-width:2.80000019;stroke-linecap:butt;stroke-linejoin:miter;stroke-miterlimit:4;stroke-opacity:1;stroke-dasharray:none"/>
          </g>
          <path sodipodi:type="arc" style="fill:#000000;stroke:none" id="path4678" sodipodi:cx="-1580.2683" sodipodi:cy="1908.3809" sodipodi:rx="8.0694551" sodipodi:ry="10.759274" d="m -1572.1989,1908.3809 c 0,5.9421 -3.6128,10.7592 -8.0694,10.7592 -4.4566,0 -8.0695,-4.8171 -8.0695,-10.7592 0,-5.9422 3.6129,-10.7593 8.0695,-10.7593 4.4468,0 8.0555,4.7966 8.0694,10.7257" transform="matrix(1.1620454,0,0,1.121534,615.57327,-536.79425)" sodipodi:start="0" sodipodi:end="6.2800626" sodipodi:open="true"/>
          <g transform="matrix(-1.1334112,0,0,0.31221057,-2198.0302,1347.2341)" id="g4680">
            <path style="fill:none;stroke:#000000;stroke-width:5;stroke-linecap:butt;stroke-linejoin:miter;stroke-miterlimit:4;stroke-opacity:1;stroke-dasharray:none" d="m -858.56263,815.93518 c 3.8039,429.84952 -87.4915,450.77142 -87.4915,450.77142" id="path4682" inkscape:connector-curvature="0"/>
            <path style="fill:none;stroke:#000000;stroke-width:4.30000019;stroke-linecap:butt;stroke-linejoin:miter;stroke-miterlimit:4;stroke-opacity:1;stroke-dasharray:none" d="m -868.29212,809.98603 c -8.06946,399.43807 21.51855,430.37097 21.51855,430.37097" id="path4684" inkscape:connector-curvature="0"/>
            <path style="fill:none;stroke:#000000;stroke-width:2.9000001;stroke-linecap:butt;stroke-linejoin:miter;stroke-miterlimit:4;stroke-opacity:1;stroke-dasharray:none" d="m -864.2574,812.67586 c -2.6898,392.71344 37.6575,406.16254 37.6575,406.16254 l 12.10415,13.4491" id="path4686" inkscape:connector-curvature="0"/>
            <path style="fill:none;stroke:#000000;stroke-width:3.9000001;stroke-linecap:butt;stroke-linejoin:miter;stroke-miterlimit:4;stroke-opacity:1;stroke-dasharray:none" d="m -858.87776,809.98604 c -17.48382,394.05836 -52.45146,420.95656 -52.45146,420.95656" id="path4688" inkscape:connector-curvature="0"/>
            <path style="fill:none;stroke:#000000;stroke-width:3;stroke-linecap:butt;stroke-linejoin:miter;stroke-miterlimit:4;stroke-opacity:1;stroke-dasharray:none" d="m -856.18793,811.33095 c 8.0695,416.92185 -33.6227,414.23205 -33.6227,414.23205" id="path4690" inkscape:connector-curvature="0"/>
            <path style="fill:none;stroke:#000000;stroke-width:2.80000019;stroke-linecap:butt;stroke-linejoin:miter;stroke-miterlimit:4;stroke-opacity:1;stroke-dasharray:none" d="m -910.50355,769.24277 c 1.34491,459.95893 26.89818,459.95893 26.89818,459.95893" id="path4692" inkscape:connector-curvature="0" transform="translate(48.935985,44.778)"/>
          </g>
          <rect style="fill:#cccccc;stroke:none" id="rect4694" width="14.625888" height="11.599842" x="-1262.8698" y="740.49536" transform="translate(48.935985,44.778)" ry="4.2779589"/>
          <rect ry="4.2779589" y="770.81561" x="-1214.1019" height="11.599842" width="14.625888" id="rect4696" style="fill:#cccccc;stroke:none"/>
          <rect style="fill:#cccccc;stroke:none" id="rect4698" width="14.625888" height="12.104183" x="-1214.1019" y="798.81561" ry="4.4639573"/>
        </g>
      </g>
    </g>
  </g>
  <metadata id="metadata15">
    <rdf:RDF>
      <cc:Work>
        <dc:format>image/svg+xml</dc:format>
        <dc:type rdf:resource="http://purl.org/dc/dcmitype/StillImage"/>
        <cc:license rdf:resource="http://creativecommons.org/licenses/publicdomain/"/>
        <dc:publisher>
          <cc:Agent rdf:about="http://openclipart.org/">
            <dc:title>Openclipart</dc:title>
          </cc:Agent>
        </dc:publisher>
        <dc:title/>
        <dc:date>2011-05-22T06:51:41</dc:date>
        <dc:description>Sword</dc:description>
        <dc:source>https://openclipart.org/detail/139915/sword-by-gsagri04</dc:source>
        <dc:creator>
          <cc:Agent>
            <dc:title>gsagri04</dc:title>
          </cc:Agent>
        </dc:creator>
        <dc:subject>
          <rdf:Bag>
            <rdf:li>Sword</rdf:li>
            <rdf:li>battle</rdf:li>
            <rdf:li>black</rdf:li>
            <rdf:li>knife</rdf:li>
            <rdf:li>white</rdf:li>
          </rdf:Bag>
        </dc:subject>
      </cc:Work>
      <cc:License rdf:about="http://creativecommons.org/licenses/publicdomain/">
        <cc:permits rdf:resource="http://creativecommons.org/ns#Reproduction"/>
        <cc:permits rdf:resource="http://creativecommons.org/ns#Distribution"/>
        <cc:permits rdf:resource="http://creativecommons.org/ns#DerivativeWorks"/>
      </cc:License>
    </rdf:RDF>
  </metadata>
</svg>
