<?xml version="1.0" encoding="UTF-8" standalone="no"?>
<!-- Created with Inkscape (http://www.inkscape.org/) -->

<svg
   width="31.812372mm"
   height="30.291332mm"
   viewBox="0 0 31.812371 30.291332"
   version="1.1"
   id="svg2269"
   inkscape:version="1.1.2 (0a00cf5339, 2022-02-04)"
   sodipodi:docname="item399.svg"
   xmlns:inkscape="http://www.inkscape.org/namespaces/inkscape"
   xmlns:sodipodi="http://sodipodi.sourceforge.net/DTD/sodipodi-0.dtd"
   xmlns="http://www.w3.org/2000/svg"
   xmlns:svg="http://www.w3.org/2000/svg">
  <sodipodi:namedview
     id="namedview2271"
     pagecolor="#ffffff"
     bordercolor="#666666"
     borderopacity="1.0"
     inkscape:pageshadow="2"
     inkscape:pageopacity="0.0"
     inkscape:pagecheckerboard="0"
     inkscape:document-units="mm"
     showgrid="false"
     fit-margin-top="0"
     fit-margin-left="0"
     fit-margin-right="0"
     fit-margin-bottom="0"
     inkscape:zoom="0.48996914"
     inkscape:cx="60.207874"
     inkscape:cy="57.146457"
     inkscape:window-width="1366"
     inkscape:window-height="719"
     inkscape:window-x="0"
     inkscape:window-y="25"
     inkscape:window-maximized="1"
     inkscape:current-layer="layer1" />
  <defs
     id="defs2266" />
  <g
     inkscape:label="Capa 1"
     inkscape:groupmode="layer"
     id="layer1"
     transform="translate(-85.226085,-134.34648)">
    <g
       id="g7514"
       transform="matrix(0.04642234,0,0,0.04642234,121.52737,-97.686957)">
      <path
         sodipodi:nodetypes="ccccccccccc"
         inkscape:connector-curvature="0"
         id="path5743"
         d="m -214.68255,5001.1632 114.969784,154.8552 -40.058244,232.4754 -298.29253,258.5749 -299.02638,-256.2472 -41.86886,-232.1562 113.61593,-157.5021 h 130.95093 l 94.11189,50.3164 94.37923,-50.3164 z"
         inkscape:transform-center-y="-40.952424"
         inkscape:transform-center-x="-5.5620813"
         style="opacity:1;fill:#0066ff;fill-opacity:1;stroke:none;stroke-width:4;stroke-miterlimit:4;stroke-dasharray:none;stroke-opacity:1" />
      <path
         inkscape:connector-curvature="0"
         style="opacity:1;fill:#80b3ff;fill-opacity:1;stroke:none;stroke-width:4;stroke-miterlimit:4;stroke-dasharray:none;stroke-opacity:1"
         d="m -233.21252,5369.0373 93.44157,19.457 40.058103,-232.4757 -105.768253,52.0797 z"
         id="path5749" />
      <path
         inkscape:connector-curvature="0"
         style="opacity:1;fill:#2a7fff;fill-opacity:1;stroke:none;stroke-width:4;stroke-miterlimit:4;stroke-dasharray:none;stroke-opacity:1"
         d="m -665.3427,5001.1638 68.28449,99.7301 h 90.65565 l 65.1518,34.833 0.97134,-84.2477 -94.11216,-50.3154 z"
         id="path5741" />
      <path
         inkscape:connector-curvature="0"
         style="opacity:1;fill:#5599ff;fill-opacity:1;stroke:none;stroke-width:4;stroke-miterlimit:4;stroke-dasharray:none;stroke-opacity:1"
         d="m -214.68222,5001.1638 -70.39128,99.7301 79.5924,107.2029 v 0 l 105.768253,-52.0797 -114.969373,-154.8548 z"
         id="path5745" />
      <path
         inkscape:connector-curvature="0"
         style="opacity:1;fill:#2a7fff;fill-opacity:1;stroke:none;stroke-width:4;stroke-miterlimit:4;stroke-dasharray:none;stroke-opacity:1"
         d="m -345.90104,5001.1638 -94.37838,50.3154 -0.97134,84.2477 65.33744,-34.833 h 90.83982 l 70.39128,-99.7301 z"
         id="path5747" />
      <path
         inkscape:connector-curvature="0"
         style="opacity:1;fill:#0055d4;fill-opacity:1;stroke:none;stroke-width:4;stroke-miterlimit:4;stroke-dasharray:none;stroke-opacity:1"
         d="m -439.71676,5548.0446 1.65344,99.0236 298.29237,-258.5739 -93.44157,-19.457 z"
         id="path5751" />
      <path
         inkscape:connector-curvature="0"
         style="opacity:1;fill:#0044aa;fill-opacity:1;stroke:none;stroke-width:4;stroke-miterlimit:4;stroke-dasharray:none;stroke-opacity:1"
         d="m -646.72751,5370.6475 -90.36211,20.1737 299.0263,256.247 -1.65344,-99.0236 z"
         id="path5753" />
      <path
         inkscape:connector-curvature="0"
         style="opacity:1;fill:#0055d4;fill-opacity:1;stroke:none;stroke-width:4;stroke-miterlimit:4;stroke-dasharray:none;stroke-opacity:1"
         d="m -778.95944,5158.6649 41.86982,232.1563 90.36211,-20.1737 -28.98486,-160.7173 z"
         id="path5755" />
      <path
         inkscape:connector-curvature="0"
         style="opacity:1;fill:#0066ff;fill-opacity:1;stroke:none;stroke-width:4;stroke-miterlimit:4;stroke-dasharray:none;stroke-opacity:1"
         d="m -665.3427,5001.1638 -113.61674,157.5011 103.24707,51.2653 78.65416,-109.0363 z"
         id="path5757" />
      <path
         sodipodi:nodetypes="ccccccccccc"
         inkscape:connector-curvature="0"
         id="path5759"
         d="m -285.07297,5100.8936 79.59187,107.2039 -27.73173,160.9393 -206.50348,179.0076 -207.01157,-177.3962 -28.98515,-160.7182 78.6546,-109.0364 h 90.65541 l 65.15226,34.8333 65.33734,-34.8333 z"
         inkscape:transform-center-y="-28.350754"
         inkscape:transform-center-x="-3.8505613"
         style="opacity:1;fill:#d5e5ff;fill-opacity:1;stroke:none;stroke-width:4;stroke-miterlimit:4;stroke-dasharray:none;stroke-opacity:1" />
      <path
         style="opacity:1;fill:#80b3ff;fill-opacity:1;stroke:none;stroke-width:4;stroke-miterlimit:4;stroke-dasharray:none;stroke-opacity:1"
         inkscape:transform-center-x="-3.4742563"
         inkscape:transform-center-y="-25.580069"
         d="m -300.54941,5123.7322 71.81346,96.727 -25.02154,145.2109 -186.32216,161.5134 -186.78058,-160.0595 -26.15246,-145.0114 70.96778,-98.3804 h 81.79576 l 58.78502,31.4291 58.952,-31.4291 z"
         id="path5761"
         inkscape:connector-curvature="0"
         sodipodi:nodetypes="ccccccccccc" />
      <path
         sodipodi:nodetypes="cccccccc"
         inkscape:connector-curvature="0"
         style="opacity:0.13;fill:#003380;fill-opacity:1;stroke:none;stroke-width:4;stroke-miterlimit:4;stroke-dasharray:none;stroke-opacity:1"
         d="m -568.15418,5123.733 c -1.64618,8.8239 -2.66803,17.7196 -3.0608,26.6464 -3.78175,126.7691 117.65983,235.8828 278.66693,250.3786 l -147.5316,126.4255 -186.78058,-160.0595 -26.15246,-145.0114 70.96778,-98.3804 z"
         id="path5763" />
      <ellipse
         style="opacity:1;fill:#d5e5ff;fill-opacity:1;stroke:none;stroke-width:4;stroke-miterlimit:4;stroke-dasharray:none;stroke-opacity:1"
         id="ellipse5765"
         cx="-5156.3574"
         cy="1415.3768"
         rx="30.523752"
         ry="29.99748"
         transform="rotate(-68.04076)" />
      <ellipse
         ry="22.629679"
         rx="26.31358"
         cy="1389.2657"
         cx="-5125.8335"
         id="ellipse5767"
         style="opacity:1;fill:#d5e5ff;fill-opacity:1;stroke:none;stroke-width:4;stroke-miterlimit:4;stroke-dasharray:none;stroke-opacity:1"
         transform="rotate(-68.04076)" />
      <ellipse
         style="opacity:1;fill:#d5e5ff;fill-opacity:1;stroke:none;stroke-width:4;stroke-miterlimit:4;stroke-dasharray:none;stroke-opacity:1"
         id="ellipse5769"
         cx="-441.93069"
         cy="5163.1113"
         rx="26.31358"
         ry="22.629679" />
      <ellipse
         ry="47.364441"
         rx="55.784786"
         cy="5347.833"
         cx="-306.15265"
         id="ellipse5771"
         style="opacity:1;fill:#d5e5ff;fill-opacity:1;stroke:none;stroke-width:4;stroke-miterlimit:4;stroke-dasharray:none;stroke-opacity:1" />
      <ellipse
         style="opacity:1;fill:#d5e5ff;fill-opacity:1;stroke:none;stroke-width:4;stroke-miterlimit:4;stroke-dasharray:none;stroke-opacity:1"
         id="ellipse5773"
         cx="-307.66302"
         cy="5395.6309"
         rx="31.224194"
         ry="28.01367" />
      <path
         inkscape:connector-curvature="0"
         style="opacity:1;fill:none;fill-opacity:1;stroke:#00112b;stroke-width:5.69948;stroke-miterlimit:4;stroke-dasharray:none;stroke-opacity:1"
         d="m -665.3427,5001.1638 -113.61674,157.5011 41.86982,232.1563 299.0263,256.247 298.29237,-258.5739 40.058103,-232.4757 -114.969373,-154.8548 h -131.21882 l -94.37838,50.3154 -94.11216,-50.3154 z m 68.28449,99.7301 h 90.65565 l 65.1518,34.833 65.33744,-34.833 h 90.83982 l 79.5924,107.2029 -27.73142,160.9405 -206.50424,179.0073 -207.01075,-177.3971 -28.98486,-160.7173 z"
         id="path5775" />
      <path
         style="opacity:0.33;fill:#d5e5ff;fill-opacity:1;stroke:none;stroke-width:4;stroke-miterlimit:4;stroke-dasharray:none;stroke-opacity:1"
         d="m -645.55124,5029.4455 -103.66667,143.7079 38.20375,211.8262 272.83903,233.8068 272.17071,-235.9305 36.55007,-212.117 -104.90191,-141.2934 h -119.72697 l -86.11429,45.9086 -85.86904,-45.9086 z m 30.83248,44.0581 h 101.61936 l 73.03111,39.0439 73.23821,-39.0439 h 101.82646 l 89.21766,120.1676 -31.08504,180.4033 -231.47743,200.6539 -232.04586,-198.8488 -32.49208,-180.1552 z"
         id="path5777"
         inkscape:connector-curvature="0" />
    </g>
  </g>
</svg>
