<svg width="405" height="508" xmlns="http://www.w3.org/2000/svg">

 <g id="imagebot_3">
  <path stroke-linejoin="round" stroke="#000000" stroke-linecap="round" stroke-width="3.2874" fill="#00bf00" transform="translate(5.96046e-8 -0.000200748) matrix(1.2168 0 0 1.2168 -292.18 -297.079)" d="M441.29,560.71C441.31,610.43 401,650.75 351.27,650.75C301.55,650.75 261.24,610.43 261.25,560.71C261.24,510.98 301.55,470.66 351.27,470.66C401,470.66 441.31,510.98 441.29,560.71z" id="imagebot_36"/>
  <path fill="#0000ff" transform="matrix(0.42473 -0.24473 0.4879 0.84676 -138.296 159.24)" d="M93.338,349.05A18.031,15.556 0 1 1 57.276,349.05A18.031,15.556 0 1 1 93.338,349.05z" id="imagebot_35"/>
  <path fill-opacity="0" transform="translate(5.96046e-8 -0.000200748) matrix(1 0 0 1 -216.03 -175.529)" fill="#0000ff" d="M454.19,523.12C454.26,524.81 454.31,526.52 454.31,528.22C454.31,588.68 405.25,637.75 344.78,637.75C297.52,637.75 257.19,607.75 241.84,565.78C244.5,623.89 292.52,670.25 351.28,670.25C411.75,670.25 460.81,621.18 460.81,560.72C460.81,547.52 458.47,534.85 454.19,523.12z" id="imagebot_34"/>
  <path transform="translate(5.96046e-8 -0.000200748) matrix(1 0 0 1 -216.03 -175.529)" stroke-linejoin="round" stroke="#000000" stroke-linecap="round" stroke-width="4" fill="#0000ff" d="M359.45,671.28C359.45,680.37 374.12,680.66 392.19,680.66S424.92,681.35 424.92,671.28C424.92,653.56 410.26,639.18 392.19,639.18S359.45,653.56 359.45,671.28z" id="imagebot_33"/>
  <path transform="translate(5.96046e-8 -0.000200748) matrix(1 0 0 1 -216.03 -175.529)" stroke-linejoin="round" fill-rule="evenodd" fill-opacity="0.31373" stroke="#000000" stroke-width="4" fill="#000000" d="M404.78,680.06C404.78,663.69 395.34,653.62 395.34,653.62S399.11,667.47 398.48,680.06L404.78,680.06z" id="imagebot_32"/>
  <path transform="translate(5.96046e-8 -0.000200748) matrix(1 0 0 1 -216.03 -175.529)" stroke-linejoin="round" fill-rule="evenodd" stroke="#000000" stroke-linecap="round" stroke-width="4" fill="#00bf00" d="M298.74,487.34C323.24,449.44 318.74,358.61 318.74,358.61L378.74,355.34S377.24,446.83 402.24,485.38" id="imagebot_31"/>
  <path fill="#0000ff" transform="matrix(0.58348 0 0 0.95455 103.11 -116.81)" d="M93.338,349.05A18.031,15.556 0 1 1 57.276,349.05A18.031,15.556 0 1 1 93.338,349.05z" id="imagebot_30"/>
  <path transform="translate(5.96046e-8 -0.000200748) matrix(1 0 0 1 -216.03 -175.529)" fill-rule="evenodd" fill="#000000" fill-opacity="0" d="M378.73,355.34L361.57,356.28L318.73,358.62S318.97,363.48 319.04,371.18C332.2,379.44 345.46,384.25 354.76,384.25C358.09,384.25 361.87,383.68 365.92,382.59C372.1,415.93 383.59,462.93 401.95,485.09L400.95,485.44L402.23,485.4C385.02,458.87 380.4,407.25 379.17,377.65C379.03,374.3 378.92,371.22 378.85,368.5C378.8,366.32 378.78,364.4 378.76,362.72C378.74,361.36 378.73,360.34 378.73,359.34C378.73,357.79 378.72,357.59 378.73,356.94L378.73,355.34z" id="imagebot_29"/>
  <path transform="translate(5.96046e-8 -0.000200748) matrix(1 0 0 1 -216.03 -175.529)" stroke-linejoin="round" stroke="#000000" stroke-linecap="round" stroke-width="4" fill="#ffff00" d="M351.27,208.57C328.48,208.57 309.99,215.53 296.39,227.16C295.82,226.73 295.05,226.35 294.05,225.91C238.54,215.3 219.44,251 218.74,256.66C218.03,262.32 257.25,271.14 278.11,250.28C278.38,250.01 278.57,249.83 278.83,249.57C272.66,261.59 269.42,275.54 269.42,290.41C269.42,335.58 325.55,372.25 351.27,372.25C377.98,372.25 433.11,335.58 433.11,290.41C433.11,275.37 429.65,261.27 423.17,249.16C423.58,249.57 423.88,249.86 424.3,250.28C445.16,271.14 484.38,262.32 483.67,256.66C482.97,251 463.9,215.3 408.39,225.91C407.22,226.43 406.31,226.86 405.74,227.38C392,215.63 373.53,208.57 351.27,208.57z" id="imagebot_28"/>
  <path transform="translate(5.96046e-8 -0.000200748) matrix(1 0 0 1 -216.03 -175.529)" stroke-linejoin="round" stroke="#000000" stroke-linecap="round" stroke-width="4" fill="#ffffff" d="M347.64,278.41C347.65,290.93 337.5,301.08 324.98,301.08S302.31,290.93 302.32,278.41C302.31,265.89 312.46,255.74 324.98,255.74S347.65,265.89 347.64,278.41z" id="imagebot_27"/>
  <path transform="translate(5.96046e-8 -0.000200748) matrix(1 0 0 1 -216.03 -175.529)" stroke-linejoin="round" stroke="#000000" stroke-linecap="round" stroke-width="4" fill="#ffffff" d="M400.38,278.41C400.38,290.93 390.23,301.08 377.71,301.08S355.05,290.93 355.05,278.41S365.19,255.74 377.71,255.74S400.38,265.89 400.38,278.41z" id="imagebot_26"/>
  <path transform="translate(5.96046e-8 -0.000200748) matrix(1 0 0 1 -216.03 -175.529)" fill="#000000" d="M380.23,282.41C380.23,286.59 376.85,289.97 372.68,289.97C368.5,289.97 365.12,286.59 365.12,282.41C365.12,278.24 368.5,274.86 372.68,274.86C376.85,274.86 380.23,278.24 380.23,282.41z" id="imagebot_25"/>
  <path transform="translate(5.96046e-8 -0.000200748) matrix(1 0 0 1 -216.03 -175.529)" fill="#000000" d="M338.2,282.41C338.2,286.59 334.82,289.97 330.65,289.97C326.47,289.97 323.09,286.59 323.09,282.41C323.09,278.24 326.47,274.86 330.65,274.86C334.82,274.86 338.2,278.24 338.2,282.41z" id="imagebot_24"/>
  <path fill-opacity="0" transform="translate(5.96046e-8 -0.000200748) matrix(1 0 0 1 -216.03 -175.529)" fill="#0000ff" d="M425.69,251.49C427.44,259.12 428.31,267.21 428.31,275.62C428.31,320.79 373.19,357.46 346.47,357.46C325.76,357.46 285.37,333.7 270.41,300.87C278.02,341.11 327.58,372.24 351.28,372.24C378,372.24 433.12,335.57 433.12,290.4C433.12,276.32 430.71,263.06 425.69,251.49z" id="imagebot_23"/>
  <path transform="translate(5.96046e-8 -0.000200748) matrix(1 0 0 1 -216.03 -175.529)" stroke-linejoin="round" stroke="#000000" stroke-linecap="round" stroke-width="4" fill="#0000ff" d="M344.46,671.28C344.46,680.37 329.79,680.66 311.72,680.66S278.99,681.35 278.99,671.28C278.99,653.56 293.65,639.18 311.72,639.18S344.46,653.56 344.46,671.28z" id="imagebot_22"/>
  <path transform="translate(5.96046e-8 -0.000200748) matrix(1 0 0 1 -216.03 -175.529)" stroke-linejoin="round" fill-rule="evenodd" fill-opacity="0.31373" stroke="#000000" stroke-width="4" fill="#000000" d="M299.13,680.06C299.13,663.69 308.57,653.62 308.57,653.62S304.8,667.47 305.43,680.06L299.13,680.06z" id="imagebot_21"/>
  <path transform="translate(5.96046e-8 -0.000200748) matrix(1 0 0 1 -216.03 -175.529)" fill="#000000" d="M367.87,343.04C365.58,347.02 361.37,348.88 358.47,347.21C355.58,345.54 355.09,340.96 357.38,336.99S363.88,331.15 366.78,332.82C369.67,334.5 370.16,339.07 367.87,343.04z" id="imagebot_20"/>
  <path transform="translate(5.96046e-8 -0.000200748) matrix(1 0 0 1 -216.03 -175.529)" fill="#000000" d="M335.13,343.04C337.42,347.02 341.63,348.88 344.53,347.21C347.42,345.54 347.91,340.96 345.62,336.99S339.12,331.15 336.22,332.82C333.33,334.5 332.84,339.07 335.13,343.04z" id="imagebot_19"/>
  <path transform="translate(5.96046e-8 -0.000200748) matrix(1 0 0 1 -216.03 -175.529)" fill-rule="evenodd" stroke="#000000" stroke-linecap="round" stroke-width="4" fill="#ffcc00" d="M317.52,224.48C323.17,214.23 311.51,201.86 311.51,201.86L328.83,197.61S326.36,213.17 335.55,218.83" id="imagebot_18"/>
  <path transform="translate(5.96046e-8 -0.000200748) matrix(1 0 0 1 -216.03 -175.529)" stroke-linejoin="round" stroke="#000000" stroke-linecap="round" stroke-width="4" fill="#0000ff" d="M334.11801,195.43999A15.38,15.38 0 1 1 303.35901,195.43999A15.38,15.38 0 1 1 334.11801,195.43999z" id="imagebot_17"/>
  <path transform="translate(5.96046e-8 -0.000200748) matrix(1 0 0 1 -216.03 -175.529)" stroke-linejoin="round" fill-rule="evenodd" stroke="#000000" stroke-width="4" fill="#0000ff" d="M418.59,232.5C454.37,227.93 471.11,249.47 472.42,252.73C473.74,255.99 437.3,262.84 418.59,232.5z" id="imagebot_16"/>
  <path transform="translate(5.96046e-8 -0.000200748) matrix(1 0 0 1 -216.03 -175.529)" fill-rule="evenodd" stroke="#000000" stroke-linecap="round" stroke-width="4" fill="#ffcc00" d="M384.69,224.48C379.04,214.23 390.7,201.86 390.7,201.86L373.38,197.61S375.85,213.17 366.66,218.83" id="imagebot_15"/>
  <path transform="translate(5.96046e-8 -0.000200748) matrix(1 0 0 1 -216.03 -175.529)" stroke-linejoin="round" stroke="#000000" stroke-linecap="round" stroke-width="4" fill="#0000ff" d="M398.11799,195.43999A15.38,15.38 0 1 1 367.35899,195.43999A15.38,15.38 0 1 1 398.11799,195.43999z" id="imagebot_14"/>
  <path fill="#0000ff" transform="matrix(0.72367 0.17743 -0.32471 1.3244 113.99 -123.062)" d="M93.338,349.05A18.031,15.556 0 1 1 57.276,349.05A18.031,15.556 0 1 1 93.338,349.05z" id="imagebot_13"/>
  <path fill="#0000ff" transform="matrix(1.3529 0 0 1.6591 15.14 -189.396)" d="M93.338,349.05A18.031,15.556 0 1 1 57.276,349.05A18.031,15.556 0 1 1 93.338,349.05z" id="imagebot_12"/>
  <path fill="#0000ff" transform="matrix(0.44644 -0.14881 0.30185 0.90556 71.73 39.22)" d="M93.338,349.05A18.031,15.556 0 1 1 57.276,349.05A18.031,15.556 0 1 1 93.338,349.05z" id="imagebot_11"/>
  <path fill="#0000ff" transform="matrix(0.66667 0 0 0.95455 142.35 79.19)" d="M93.338,349.05A18.031,15.556 0 1 1 57.276,349.05A18.031,15.556 0 1 1 93.338,349.05z" id="imagebot_10"/>
  <path fill="#0000ff" transform="matrix(1.0588 0 0 1.3636 80.07 -142.484)" d="M93.338,349.05A18.031,15.556 0 1 1 57.276,349.05A18.031,15.556 0 1 1 93.338,349.05z" id="imagebot_9"/>
  <path fill="#0000ff" transform="matrix(0.72549 0 0 1.3636 62.39 -213.508)" d="M93.338,349.05A18.031,15.556 0 1 1 57.276,349.05A18.031,15.556 0 1 1 93.338,349.05z" id="imagebot_8"/>
  <path transform="translate(5.96046e-8 -0.000200748) matrix(1 0 0 1 -216.03 -175.529)" stroke-linejoin="round" fill-rule="evenodd" stroke="#000000" stroke-width="4" fill="#0000ff" d="M283.46,232.5C247.68,227.93 230.94,249.47 229.62,252.73C228.31,255.99 264.75,262.84 283.46,232.5z" id="imagebot_7"/>
  <title/>
  <polyline id="imagebot_6" points="204.53123912332535,367.2812576617782 204.53123912332535,367.2812576617782 " stroke-opacity="null" stroke-linecap="round" stroke-linejoin="round" stroke-dasharray="null" stroke-width="4" stroke="#000000" fill="none" transform="translate(5.96046e-8 -0.000200748) translate(-5.96046e-8 0.00000238419)"/>
  <circle r="2" cy="259.46856" cx="401.40624" id="imagebot_5" stroke-opacity="null" stroke-linecap="round" stroke-linejoin="round" stroke-dasharray="null" stroke-width="4" fill="#000000"/>
  <polyline id="imagebot_4" points="401.40624208009126,264.1562561129962 401.40624208009126,264.1562561129962 " stroke-opacity="null" stroke-linecap="round" stroke-linejoin="round" stroke-dasharray="null" stroke-width="4" stroke="#000000" fill="none" transform="translate(5.96046e-8 -0.000200748) translate(-5.96046e-8 0.00000238419)"/>
 </g>
 <metadata>image/svg+xmlOpenclipartCartoon giraffe2008-07-07T11:40:13Cartoon giraffe sitting, front view. Nice 20 minute tutorial video for drawing the giraffe in Inkscape &lt;a target="_blank" href="https://www.youtube.com/watch?v=qZt9J_AUYZI"&gt;https://www.youtube.com/watch?v=qZt9J_AUYZI&lt;/a&gt;https://openclipart.org/detail/17628/cartoon-giraffe-by-lemmlinglemmlinganimalcartooncolourfunnygiraffemammal</metadata>
</svg>