<?xml version="1.0" encoding="UTF-8" standalone="no"?>
<!-- Created with Inkscape (http://www.inkscape.org/) -->

<svg
   width="455.81982"
   height="216.69792"
   id="svg4620"
   version="1.1"
   inkscape:version="1.1.2 (0a00cf5339, 2022-02-04)"
   sodipodi:docname="item245.svg"
   xmlns:inkscape="http://www.inkscape.org/namespaces/inkscape"
   xmlns:sodipodi="http://sodipodi.sourceforge.net/DTD/sodipodi-0.dtd"
   xmlns="http://www.w3.org/2000/svg"
   xmlns:svg="http://www.w3.org/2000/svg"
   xmlns:rdf="http://www.w3.org/1999/02/22-rdf-syntax-ns#"
   xmlns:cc="http://creativecommons.org/ns#"
   xmlns:dc="http://purl.org/dc/elements/1.1/">
  <defs
     id="defs4622" />
  <sodipodi:namedview
     id="base"
     pagecolor="#ffffff"
     bordercolor="#666666"
     borderopacity="1.0"
     inkscape:pageopacity="0.0"
     inkscape:pageshadow="2"
     inkscape:zoom="0.7"
     inkscape:cx="317.14286"
     inkscape:cy="-105.71429"
     inkscape:document-units="px"
     inkscape:current-layer="layer1"
     showgrid="false"
     inkscape:window-width="1366"
     inkscape:window-height="719"
     inkscape:window-x="0"
     inkscape:window-y="25"
     inkscape:window-maximized="1"
     fit-margin-top="0"
     fit-margin-left="0"
     fit-margin-right="0"
     fit-margin-bottom="0"
     inkscape:pagecheckerboard="0" />
  <metadata
     id="metadata4625">
    <rdf:RDF>
      <cc:Work
         rdf:about="">
        <dc:format>image/svg+xml</dc:format>
        <dc:type
           rdf:resource="http://purl.org/dc/dcmitype/StillImage" />
      </cc:Work>
    </rdf:RDF>
  </metadata>
  <g
     inkscape:label="Layer 1"
     inkscape:groupmode="layer"
     id="layer1"
     transform="translate(61.074142,-596.92417)">
    <g
       id="g5197"
       transform="translate(-522.24887,229.30463)">
      <g
         id="g4603"
         transform="translate(1252.4564,-59.744513)">
        <path
           style="fill:#82128e;fill-opacity:1;stroke:#000000;stroke-width:3;stroke-linecap:butt;stroke-linejoin:miter;stroke-miterlimit:4;stroke-dasharray:none;stroke-opacity:1"
           d="m -342.89178,431.03614 c 2.70273,5.33069 7.36944,20.01562 5.49127,38.90478 l -57.15592,40.63941 c 0,0 4.88161,-2.37931 54.41283,-25.87328 -2.04537,7.46089 -5.21369,15.30506 -9.92775,23.28826 l -53.84664,17.41078 46.10261,-6.08344 c -4.2925,5.53673 -9.38839,11.09069 -15.43908,16.57348 l -48.12564,5.04643 35.60351,5.1697 c -0.27059,0.1994 -0.52387,0.40145 -0.7973,0.60053 -6.51229,4.74191 -12.74066,8.95784 -18.69942,12.73493 l -34.15089,-6.71752 26.47012,11.44151 c -8.85354,5.23485 -17.06877,9.43242 -24.70984,12.75953 l -20.08858,-23.69973 10.28697,27.61419 c -6.51061,2.37113 -12.55511,4.09107 -18.17412,5.29524 l -13.78863,-23.31951 3.77971,24.98315 c -6.91229,0.83335 -13.11012,0.91007 -18.63848,0.50809 l -2.19858,-25.2628 -6.79326,24.1725 c -5.19583,-0.87055 -9.65477,-2.02186 -13.59658,-3.04341 l 5.60583,-23.60495 -13.52521,21.2993 c -5.9669,-2.14654 -10.81015,-4.97124 -14.82928,-8.07468 l 15.05722,-18.95171 -21.43899,13.10788 c -3.71526,-3.97519 -6.47913,-8.02485 -8.68464,-11.54552 -5.71544,-9.12361 11.89775,-31.64309 11.89775,-31.64309 l 47.55095,-12.71113 c 0,0 9.40272,-0.67098 20.83034,-2.50891 11.42762,-1.83791 25.79657,9.13221 52.44814,-1.44653 26.65157,-10.57875 39.30272,-20.87718 53.2435,-35.96613 13.94077,-15.08898 22.55481,-40.61479 24.11001,-43.19456 0.19441,-0.32248 0.87172,0.42796 1.71807,2.09721 z"
           id="path4601"
           inkscape:connector-curvature="0"
           sodipodi:nodetypes="scccccccccsccccccccccccccccccsccsssss" />
        <path
           sodipodi:nodetypes="scccccccccsccccccccccccccccccsccsssss"
           inkscape:connector-curvature="0"
           id="path3553"
           d="m -783.85174,431.03614 c -2.70273,5.33069 -7.36944,20.01562 -5.49127,38.90478 l 57.15592,40.63941 c 0,0 -4.88161,-2.37931 -54.41283,-25.87328 2.04537,7.46089 5.21369,15.30506 9.92775,23.28826 l 53.84664,17.41078 -46.10261,-6.08344 c 4.2925,5.53673 9.38839,11.09069 15.43908,16.57348 l 48.12564,5.04643 -35.60351,5.1697 c 0.27059,0.1994 0.52387,0.40145 0.7973,0.60053 6.51229,4.74191 12.74066,8.95784 18.69942,12.73493 l 34.15089,-6.71752 -26.47012,11.44151 c 8.85354,5.23485 17.06877,9.43242 24.70984,12.75953 l 20.08858,-23.69973 -10.28697,27.61419 c 6.51061,2.37113 12.55511,4.09107 18.17412,5.29524 l 13.78863,-23.31951 -3.77971,24.98315 c 6.91229,0.83335 13.11012,0.91007 18.63848,0.50809 l 2.19858,-25.2628 6.79326,24.1725 c 5.19583,-0.87055 9.65477,-2.02186 13.59658,-3.04341 l -5.60583,-23.60495 13.52521,21.2993 c 5.9669,-2.14654 10.81015,-4.97124 14.82928,-8.07468 l -15.05722,-18.95171 21.43899,13.10788 c 3.71526,-3.97519 6.47913,-8.02485 8.68464,-11.54552 5.71544,-9.12361 -11.89775,-31.64309 -11.89775,-31.64309 l -47.55095,-12.71113 c 0,0 -9.40272,-0.67098 -20.83034,-2.50891 -11.42762,-1.83791 -25.79657,9.13221 -52.44814,-1.44653 -26.65157,-10.57875 -39.30272,-20.87718 -53.2435,-35.96613 -13.94077,-15.08898 -22.55481,-40.61479 -24.11001,-43.19456 -0.19441,-0.32248 -0.87172,0.42796 -1.71807,2.09721 z"
           style="fill:#82128e;fill-opacity:1;stroke:#000000;stroke-width:3;stroke-linecap:butt;stroke-linejoin:miter;stroke-miterlimit:4;stroke-dasharray:none;stroke-opacity:1" />
      </g>
      <ellipse
         id="path5714-6"
         style="color:#000000;display:inline;overflow:visible;visibility:visible;fill:#851291;fill-opacity:1;fill-rule:nonzero;stroke:#000000;stroke-width:0.327558;stroke-miterlimit:4;stroke-dasharray:none;stroke-opacity:1;marker:none;enable-background:accumulate"
         transform="matrix(9.1586707,0,0,9.1586707,-1404.2203,-3865.6513)"
         cx="228.55991"
         cy="479.51007"
         rx="3.1005557"
         ry="6.2011113" />
    </g>
  </g>
</svg>
