<svg width="240" height="286" xmlns="http://www.w3.org/2000/svg">

 <g id="imagebot_41">
  <path id="imagebot_47" d="M229.87,163.516C229.89,224.026 180.84,273.086 120.33,273.086C59.826,273.086 10.78,224.026 10.8,163.516C10.78,103.016 59.827,53.956 120.33,53.956C180.84,53.951 229.89,103.016 229.87,163.516z" fill="#ffff00" stroke-linecap="round" stroke-width="3.2874" stroke="#010101" stroke-linejoin="round"/>
  <g id="imagebot_42" transform="translate(-1 0) matrix(1 0 0 1 0.03 2.316)">
   <path id="imagebot_46" d="M12.307,169.42C12.306,172.07 12.407,174.7 12.593,177.31C16.618,121.33 63.301,77.16 120.313,77.16C177.313,77.162 224.003,121.33 228.023,177.31C228.213,174.7 228.313,172.07 228.313,169.42C228.323,109.76 179.963,61.39 120.313,61.39C60.651,61.389 12.293,109.76 12.313,169.42L12.307,169.42z" fill="#010101"/>
   <path id="imagebot_45" d="M119.31,104.72C172.4,104.72 216.2,144.51 222.52,195.9C222.79,195.13 223.05,194.37 223.31,193.6L223.31,193.56C223.32,136.12 176.76,89.54 119.31,89.54C61.858,89.536 15.29,136.12 15.31,193.56C15.307,193.58 15.308,193.59 15.308,193.6C15.563,194.37 15.827,195.13 16.098,195.9C22.42,144.51 66.213,104.72 119.308,104.72L119.31,104.72z" fill="#010101"/>
   <path id="imagebot_44" d="M119.31,129.54C72.023,129.54 32.116,161.1 19.482,204.29C20.441,206.41 21.47,208.48 22.556,210.53C37.783,171.99 75.357,144.72 119.31,144.72C163.26,144.72 200.83,171.99 216.06,210.53C217.14,208.48 218.17,206.41 219.13,204.29C206.5,161.09 166.59,129.54 119.31,129.54z" fill="#010101"/>
   <path id="imagebot_43" d="M119.31,169.54C80.83,169.54 47.237,190.43 29.248,221.49C30.916,223.9 32.674,226.23 34.524,228.49C53.374,202.01 84.319,184.72 119.31,184.72C154.29,184.72 185.24,202 204.09,228.49C205.94,226.23 207.7,223.9 209.36,221.49C191.38,190.43 157.78,169.54 119.31,169.54z" fill="#010101"/>
  </g>
  <title/>
 </g>
 <g id="imagebot_34">
  <g id="imagebot_38" transform="translate(1 0) matrix(1 0 0 1 1.03 4.316)">
   <path id="imagebot_40" d="M112.81,271.78C112.81,280.87 98.143,281.16 80.074,281.16C62.004,281.16 47.338,281.85 47.338,271.78C47.338,254.06 62.004,239.68 80.074,239.68C98.143,239.68 112.81,254.06 112.81,271.78z" fill="#ff0000" stroke-linecap="round" stroke-width="4" stroke="#010101" stroke-linejoin="round"/>
   <path id="imagebot_39" d="M67.483,280.56C67.483,264.19 76.925,254.12 76.925,254.12S73.148,267.97 73.778,280.56L67.483,280.56z" fill="#ff0000" fill-opacity="0.3137" stroke-width="4" stroke="#010101" stroke-linejoin="round"/>
  </g>
  <g id="imagebot_35" transform="translate(1.03 2.316)">
   <path id="imagebot_37" d="M127.81,271.78C127.81,280.87 142.47,281.16 160.54,281.16S193.28,281.85 193.28,271.78C193.28,254.06 178.61,239.68 160.54,239.68S127.81,254.06 127.81,271.78z" fill="#ff0000" stroke-linecap="round" stroke-width="4" stroke="#010101" stroke-linejoin="round"/>
   <path id="imagebot_36" d="M173.13,280.56C173.13,264.19 163.69,254.12 163.69,254.12S167.47,267.97 166.84,280.56L173.13,280.56z" fill="#ff0000" fill-opacity="0.3137" stroke-width="4" stroke="#010101" stroke-linejoin="round"/>
  </g>
  <title/>
 </g>
 <g id="imagebot_25">
  <path id="imagebot_33" d="M114.95,36.817C115.68,36.909 116.41,37.037 117.15,37.147C137.06,40.132 151.25,48.78 160.54,61.105L172.59,44.174C172.51,44.172 172.43,44.16 172.34,44.159C164.11,25.133 147.8,11.408 121.6,7.478C120.86,7.366 120.13,7.239 119.4,7.147C108.84,5.826 99.382,6.541 90.989,8.946L86.541,38.613C94.932,36.209 104.39,35.494 114.95,36.817z" fill="#ffffff" stroke-linecap="round" stroke-width="4" stroke="#010101" stroke-linejoin="round"/>
  <g id="imagebot_26" transform="translate(-1 0) translate(1.03 2.316)">
   <path id="imagebot_32" d="M114.85,5.472C105.7,4.701 97.408,5.495 89.959,7.63L85.511,37.297C89.693,36.099 94.139,35.321 98.855,35.005L102.96,7.63C106.71,6.557 110.68,5.841 114.85,5.472z" fill="#ff0000" stroke-linecap="round" stroke-width="4" stroke="#010101" stroke-linejoin="round"/>
   <path id="imagebot_31" d="M115.96,7.63C117.77,7.109 119.65,6.685 121.56,6.326C121.23,6.272 120.9,6.213 120.57,6.163C119.83,6.051 119.09,5.924 118.36,5.832C117.18,5.683 116.01,5.569 114.85,5.471C110.68,5.84 106.7,6.555 102.96,7.629L98.854,35.004C102.54,34.757 106.38,34.8 110.4,35.138C110.88,35.095 111.36,35.036 111.85,35.004L115.96,7.63z" stroke-linecap="round" stroke-width="4" stroke="#010101" stroke-linejoin="round" fill="#ff0000"/>
   <path id="imagebot_30" d="M128.93,7.835C126.57,7.241 124.12,6.736 121.57,6.326C119.65,6.684 117.78,7.109 115.96,7.63L111.86,35.005C115.54,34.758 119.39,34.801 123.4,35.139C123.89,35.096 124.36,35.037 124.86,35.005L128.93,7.835z" fill="#ff0000" stroke-linecap="round" stroke-width="4" stroke="#010101" stroke-linejoin="round"/>
   <path id="imagebot_29" d="M141.29,12.122C137.49,10.393 133.38,8.956 128.93,7.836L124.86,35.006C128.54,34.759 132.39,34.802 136.4,35.14C136.89,35.097 137.36,35.038 137.86,35.006L141.29,12.122z" stroke-linecap="round" stroke-width="4" stroke="#010101" stroke-linejoin="round" fill="#ff0000"/>
   <path id="imagebot_28" d="M153.22,19.26C149.66,16.519 145.69,14.126 141.28,12.121L137.85,35.005C141.54,34.758 145.38,34.801 149.4,35.139C149.88,35.096 150.36,35.037 150.85,35.005L153.22,19.26z" fill="#ff0000" stroke-linecap="round" stroke-width="4" stroke="#010101" stroke-linejoin="round"/>
   <path id="imagebot_27" d="M153.22,19.26L150.86,35.006C154.54,34.759 158.39,34.802 162.4,35.14C163.96,35.001 165.55,34.901 167.18,34.867C163.53,28.902 158.9,23.64 153.22,19.26z" stroke-linecap="round" stroke-width="4" stroke="#010101" stroke-linejoin="round" fill="#ff0000"/>
  </g>
  <title/>
 </g>
 <g id="imagebot_1">
  <path transform="matrix(1 0 0 1 0.03 2.316)" id="imagebot_24" d="M204.72,125.92C204.72,171.1 149.6,207.76 122.88,207.76C97.161,207.76 41.042,171.1 41.042,125.92C41.042,80.747 65.667,44.083 122.88,44.083C180.1,44.083 204.72,80.748 204.72,125.92z" fill="#ff7f00" fill-opacity="0.3137"/>
  <path transform="matrix(1 0 0 1 0.03 2.316)" id="imagebot_23" d="M198.64,85.911L196.76,88.567C197.01,91.643 197.11,94.77 197.11,97.942C197.11,143.12 141.98,179.79 115.26,179.79C94.558,179.79 54.167,156.03 39.202,123.19C46.817,163.44 96.374,194.57 120.08,194.57C146.79,194.57 201.92,157.9 201.92,112.72C201.92,103.33 200.84,94.313 198.64,85.911z" fill="#ff7f00" fill-opacity="0.3137"/>
  <path id="imagebot_22" d="M 235.05999997138977 6.517999984741211 C 230.03999997138976 -1.525878889907517e-8 170.17999997138978 7.038999984741211 161.66999997138976 40.024999984741214 C 161.58999997138977 40.17899998474121 161.44999997138976 40.64299998474121 161.29999997138978 41.33999998474121 C 161.24999997138977 41.55399998474121 161.19999997138976 41.78699998474121 161.14999997138978 42.04499998474121 C 159.22999997138976 40.87099998474121 157.23999997138978 39.783999984741214 155.21999997138977 38.77299998474121 C 145.23999997138978 35.05899998474121 133.54999997138978 33.01099998474121 120.03999997138978 33.01099998474121 C 119.14999997138978 33.01099998474121 118.25999997138977 32.99299998474121 117.38999997138977 33.01099998474121 C 104.50999997138977 33.271999984741214 93.34999997138976 35.44299998474121 83.78699997138978 39.16999998474121 C 81.47999997138977 40.35499998474121 79.23499997138977 41.640999984741214 77.06399997138978 43.03599998474121 C 77.01899997138977 42.75399998474121 76.97299997138977 42.49299998474121 76.92799997138977 42.24199998474121 C 76.71199997138977 41.05899998474121 76.49499997138977 40.23499998474121 76.39099997138977 40.02599998474121 C 69.74399997138977 14.253999984741212 31.76199997138977 4.343999984741211 13.06199997138977 4.338999984741211 C 7.82499997138977 4.337999984741211 4.099999971389771 5.091999984741211 3.0019999713897705 6.517999984741211 C -1.0000000286102295 11.71099998474121 7.25299997138977 53.457999984741214 29.57699997138977 67.9069999847412 C 33.77499997138977 70.62399998474122 38.47099997138977 72.3799999847412 43.677999971389774 72.73999998474122 C 45.79699997138977 72.8859999847412 47.78799997138977 72.89599998474121 49.65799997138977 72.85899998474122 C 43.81999997138977 83.90899998474121 40.50999997138977 96.49299998474122 40.50999997138977 109.85599998474122 C 40.50999997138977 123.36599998474121 43.89599997138977 137.5459999847412 49.85899997138977 150.6959999847412 C 67.70299997138977 177.90599998474121 101.64999997138978 196.6659999847412 120.04999997138977 196.6659999847412 C 138.60999997138978 196.6659999847412 170.88999997138978 178.9559999847412 188.85999997138978 152.99599998474122 C 195.49999997138977 139.21599998474122 199.28999997138976 124.1659999847412 199.28999997138976 109.85599998474122 C 199.28999997138976 96.50599998474121 195.96999997138977 83.94199998474122 190.14999997138978 72.89899998474121 C 191.48999997138978 72.88699998474121 192.91999997138976 72.84199998474121 194.37999997138976 72.74099998474121 C 199.97999997138976 72.35299998474122 204.97999997138976 70.35699998474121 209.40999997138977 67.28399998474121 C 231.02999997138977 52.29499998474121 238.99999997138977 11.63799998474121 235.05999997138977 6.517999984741211 z" fill="#ff7f00" stroke-linecap="round" stroke-width="4" stroke="#010101" stroke-linejoin="round"/>
  <g id="imagebot_16" transform="translate(1.03 2.316)">
   <path id="imagebot_20" d="M119.63,28.536C83.761,28.536 53.3,52.914 42.228,86.835C40.928,92.527 40.234,98.45 40.234,104.54C40.234,105.82 40.274,107.11 40.335,108.41C49.426,71.101 81.481,43.536 119.63,43.536C157.77,43.536 189.81,71.082 198.92,108.37C198.98,107.09 199.02,105.81 199.02,104.54C199.02,98.367 198.3,92.368 196.96,86.606C185.82,52.804 155.42,28.536 119.63,28.536z" fill="#000000"/>
   <path id="imagebot_19" d="M119.63,58.536C82.951,58.536 51.909,84.017 41.49,119.14C42.002,122.19 42.664,125.25 43.47,128.29C55.455,96.228 85.025,73.536 119.63,73.536C154.23,73.536 183.79,96.218 195.78,128.26C196.59,125.22 197.25,122.16 197.76,119.11C187.33,84.004 156.3,58.536 119.63,58.536z" fill="#000000"/>
   <path id="imagebot_18" d="M119.63,88.536C87.379,88.536 59.495,108.24 46.148,136.87C47.164,139.72 48.294,142.53 49.546,145.29C63.894,120.26 89.911,103.54 119.63,103.54C149.34,103.54 175.35,120.26 189.7,145.27C190.96,142.51 192.09,139.7 193.11,136.86C179.76,108.24 151.88,88.536 119.63,88.536z" fill="#000000"/>
   <path id="imagebot_17" d="M119.8,118.54C93.265,118.54 69.689,131.81 54.682,152.39C56.689,154.9 58.82,157.32 61.052,159.64C75.961,143.54 96.765,133.54 119.8,133.54C142.97,133.54 163.89,143.67 178.82,159.95C181.04,157.64 183.17,155.23 185.16,152.72C170.17,131.95 146.47,118.54 119.8,118.54z" fill="#000000"/>
  </g>
  <g id="imagebot_12" transform="translate(1.03 2.316)">
   <path id="imagebot_15" d="M118.98,144.16C99.12,144.16 83.014,157.38 83.014,173.66C83.014,176.68 83.577,179.6 84.608,182.35C97.319,190.09 110,194.57 118.98,194.57C128.18,194.57 140.74,190.24 153.26,182.69C154.38,179.85 154.98,176.81 154.98,173.66C154.98,157.38 138.84,144.16 118.98,144.16z" fill="#fad5e5" stroke-linecap="round" stroke-width="4" stroke="#010101" stroke-linejoin="round"/>
   <path id="imagebot_14" d="M102.85,169.37C105.14,173.34 109.35,175.21 112.24,173.54C115.14,171.86 115.63,167.29 113.33,163.31C111.04,159.34 106.83,157.48 103.94,159.15C101.04,160.82 100.55,165.4 102.85,169.37z" fill="#010101"/>
   <path id="imagebot_13" d="M135.58,169.37C133.29,173.34 129.08,175.21 126.19,173.54C123.29,171.86 122.8,167.29 125.1,163.31C127.39,159.34 131.6,157.48 134.49,159.15C137.39,160.82 137.88,165.4 135.58,169.37z" fill="#010101"/>
  </g>
  <g id="imagebot_5" transform="translate(1.03 2.316)">
   <g id="imagebot_9">
    <path id="imagebot_11" d="M168.03,100.74C168.03,113.26 157.88,123.41 145.37,123.41C132.85,123.41 122.7,113.26 122.7,100.74C122.7,88.217 132.85,78.067 145.37,78.067C157.88,78.067 168.03,88.217 168.03,100.74z" fill="#ffffff" stroke-linecap="round" stroke-width="4" stroke="#010101" stroke-linejoin="round"/>
    <path id="imagebot_10" d="M147.88,104.74C147.88,108.91 144.5,112.29 140.33,112.29S132.77,108.91 132.77,104.74C132.77,100.56 136.16,97.18 140.33,97.18S147.88,100.56 147.88,104.74z" fill="#010101"/>
   </g>
   <g id="imagebot_6">
    <path id="imagebot_8" d="M115.3,100.74C115.3,113.26 105.15,123.41 92.633,123.41C80.113,123.41 69.966,113.26 69.97,100.74C69.966,88.217 80.114,78.067 92.633,78.067C105.15,78.067 115.3,88.217 115.3,100.74z" fill="#ffffff" stroke-linecap="round" stroke-width="4" stroke="#010101" stroke-linejoin="round"/>
    <path id="imagebot_7" d="M105.85,104.74C105.85,108.91 102.47,112.29 98.299,112.29C94.125,112.29 90.743,108.91 90.744,104.74C90.743,100.56 94.125,97.18 98.299,97.18C102.47,97.18 105.85,100.56 105.85,104.74z" fill="#010101"/>
   </g>
  </g>
  <g id="imagebot_2" transform="translate(1.03 2.316)">
   <path id="imagebot_4" d="M65.837,59.58C63.325,23.346 26.016,15.095 24.222,19.4S31.039,72.136 65.837,59.58z" fill="#010101" stroke-width="4" stroke="#010101" stroke-linejoin="round"/>
   <path id="imagebot_3" d="M172.16,59.58C174.67,23.346 211.98,15.095 213.78,19.4C215.57,23.705 206.96,72.136 172.16,59.58z" fill="#010101" stroke-width="4" stroke="#010101" stroke-linejoin="round"/>
  </g>
  <title/>
 </g>
 <metadata>image/svg+xmlOpenclipartCartoon zebra2009-03-13T17:36:50Cartoon zebra. Remixed from Lemmling's Cartoon Cow and Cartoon Kangaroohttps://openclipart.org/detail/22287/cartoon-zebra-by-studiofibonacciStudioFibonacciafricaanimalcartoonmammalremixzebra</metadata>
</svg>