<?xml version="1.0" encoding="UTF-8" standalone="no"?>
<!-- Created with Inkscape (http://www.inkscape.org/) -->

<svg
   width="22.036325mm"
   height="29.565018mm"
   viewBox="0 0 22.036324 29.565017"
   version="1.1"
   id="svg2269"
   inkscape:version="1.1.2 (0a00cf5339, 2022-02-04)"
   sodipodi:docname="item382.svg"
   xmlns:inkscape="http://www.inkscape.org/namespaces/inkscape"
   xmlns:sodipodi="http://sodipodi.sourceforge.net/DTD/sodipodi-0.dtd"
   xmlns="http://www.w3.org/2000/svg"
   xmlns:svg="http://www.w3.org/2000/svg">
  <sodipodi:namedview
     id="namedview2271"
     pagecolor="#ffffff"
     bordercolor="#666666"
     borderopacity="1.0"
     inkscape:pageshadow="2"
     inkscape:pageopacity="0.0"
     inkscape:pagecheckerboard="0"
     inkscape:document-units="mm"
     showgrid="false"
     fit-margin-top="0"
     fit-margin-left="0"
     fit-margin-right="0"
     fit-margin-bottom="0"
     inkscape:zoom="0.48996914"
     inkscape:cx="-217.36063"
     inkscape:cy="185.72598"
     inkscape:window-width="1366"
     inkscape:window-height="719"
     inkscape:window-x="0"
     inkscape:window-y="25"
     inkscape:window-maximized="1"
     inkscape:current-layer="layer1" />
  <defs
     id="defs2266" />
  <g
     inkscape:label="Capa 1"
     inkscape:groupmode="layer"
     id="layer1"
     transform="translate(-158.54061,-100.12473)">
    <g
       id="g7318"
       transform="matrix(0.04642234,0,0,0.04642234,51.241098,-0.18888456)">
      <g
         id="g7121">
        <g
           id="g6612">
          <path
             style="opacity:1;fill:#ff0066;fill-opacity:1;stroke:none;stroke-width:4;stroke-miterlimit:4;stroke-dasharray:none;stroke-opacity:1"
             inkscape:transform-center-x="16.529204"
             inkscape:transform-center-y="23.341364"
             d="m 2549.3449,2166.4847 233.4628,396.5523 -71.8567,136.2534 -164.1153,95.1677 -162.8607,-96.6855 -69.3474,-136.9088 z"
             id="path5027"
             inkscape:connector-curvature="0"
             sodipodi:nodetypes="ccccccc" />
          <path
             id="path5039"
             d="m 2549.3444,2166.4855 -234.7173,394.3786 79.8617,-7.8135 154.6419,-259.8348 z"
             style="opacity:1;fill:#ff0066;fill-opacity:1;stroke:none;stroke-width:4;stroke-miterlimit:4;stroke-dasharray:none;stroke-opacity:1"
             inkscape:connector-curvature="0" />
          <path
             id="path5029"
             d="m 2549.3444,2166.4855 -0.2137,126.7303 153.8162,261.2655 79.86,8.5563 z"
             style="opacity:1;fill:#ff5599;fill-opacity:1;stroke:none;stroke-width:4;stroke-miterlimit:4;stroke-dasharray:none;stroke-opacity:1"
             inkscape:connector-curvature="0" />
          <path
             id="path5031"
             d="m 2655.6043,2644.2507 55.3475,55.0389 71.8551,-136.252 -79.86,-8.5563 z"
             style="opacity:1;fill:#ff0066;fill-opacity:1;stroke:none;stroke-width:4;stroke-miterlimit:4;stroke-dasharray:none;stroke-opacity:1"
             inkscape:connector-curvature="0" />
          <path
             id="path5033"
             d="m 2547.4777,2706.9513 -0.6412,87.5062 164.1153,-95.1679 -55.3475,-55.0389 z"
             style="opacity:1;fill:#d40055;fill-opacity:1;stroke:none;stroke-width:4;stroke-miterlimit:4;stroke-dasharray:none;stroke-opacity:1"
             inkscape:connector-curvature="0" />
          <path
             id="path5035"
             d="m 2440.1784,2643.2509 -56.2041,54.5218 162.8622,96.6848 0.6412,-87.5062 z"
             style="opacity:1;fill:#aa0044;fill-opacity:1;stroke:none;stroke-width:4;stroke-miterlimit:4;stroke-dasharray:none;stroke-opacity:1"
             inkscape:connector-curvature="0" />
          <path
             id="path5037"
             d="m 2394.4888,2553.0506 -79.8617,7.8135 69.3472,136.9086 56.2041,-54.5218 z"
             style="opacity:1;fill:#d40055;fill-opacity:1;stroke:none;stroke-width:4;stroke-miterlimit:4;stroke-dasharray:none;stroke-opacity:1"
             inkscape:connector-curvature="0" />
          <path
             style="opacity:1;fill:#ffd5e5;fill-opacity:1;stroke:none;stroke-width:4;stroke-miterlimit:4;stroke-dasharray:none;stroke-opacity:1"
             inkscape:transform-center-x="10.890154"
             inkscape:transform-center-y="15.378304"
             d="m 2549.131,2293.216 153.8154,261.2659 -47.3424,89.7696 -108.1262,62.7006 -107.2997,-63.7005 -45.6891,-90.2015 z"
             id="path5041"
             inkscape:connector-curvature="0"
             sodipodi:nodetypes="ccccccc" />
          <path
             inkscape:connector-curvature="0"
             id="path5043"
             d="m 2451.6392,2457.4086 a 151.92046,157.59384 0 0 0 139.4425,95.1818 151.92046,157.59384 0 0 0 92.1981,-32.5862 l 19.6671,33.0464 -45.6896,90.2003 -107.2993,63.7004 -108.1266,-62.7006 -47.3426,-89.7694 z"
             style="opacity:1;fill:#ffaacc;fill-opacity:1;stroke:none;stroke-width:4;stroke-miterlimit:4;stroke-dasharray:none;stroke-opacity:1" />
          <path
             id="path5045"
             d="m 2549.3444,2166.4855 -234.7173,394.3786 69.3472,136.9086 162.8622,96.6848 164.1153,-95.1679 71.8551,-136.252 z m -0.2137,126.7303 153.8162,261.2655 -47.3426,89.7694 -108.1266,62.7006 -107.2993,-63.7004 -45.6896,-90.2003 z"
             style="opacity:1;fill:none;fill-opacity:1;stroke:#2b0011;stroke-width:5.69948;stroke-miterlimit:4;stroke-dasharray:none;stroke-opacity:1"
             inkscape:connector-curvature="0" />
          <path
             inkscape:connector-curvature="0"
             id="path5047"
             d="m 2557.4261,2343.3393 a 14.425533,9.9448384 79.70798 0 1 4.9838,1.6111 14.425533,9.9448384 79.70798 0 1 6.4098,17.7485 12.127299,8.2395586 82.186805 0 1 2.7527,1.1698 12.127299,8.2395586 82.186805 0 1 4.8767,16.1954 12.127299,8.2395586 82.186805 0 1 -10.7208,5.3778 12.127299,8.2395586 82.186805 0 1 -5.3352,-13.5051 14.425533,9.9448384 79.70798 0 1 -4.8594,-1.6061 14.425533,9.9448384 79.70798 0 1 -6.0789,-19.2914 14.425533,9.9448384 79.70798 0 1 7.9713,-7.7 z"
             style="opacity:0.77;fill:#ffffff;fill-opacity:1;stroke:none;stroke-width:4;stroke-miterlimit:4;stroke-dasharray:none;stroke-opacity:1" />
          <ellipse
             transform="matrix(-0.71418113,0.69996093,0.52105885,0.85352075,0,0)"
             ry="38.501381"
             rx="13.722534"
             cy="3657.2874"
             cx="-979.00525"
             id="ellipse5049"
             style="opacity:0.77;fill:#ffffff;fill-opacity:1;stroke:none;stroke-width:4;stroke-miterlimit:4;stroke-dasharray:none;stroke-opacity:1" />
          <path
             inkscape:connector-curvature="0"
             id="path5051"
             d="m 2549.2857,2202.5915 -212.5299,355.9229 62.7922,123.5582 147.4664,87.2578 148.6021,-85.889 65.0618,-122.9668 z m 0.3522,60.9464 173.2503,293.3075 -53.3231,100.7777 -121.7883,70.3896 -120.8586,-71.5127 -51.4603,-101.2621 z"
             style="opacity:0.5;fill:#ffd5e5;fill-opacity:1;stroke:none;stroke-width:4;stroke-miterlimit:4;stroke-dasharray:none;stroke-opacity:1" />
        </g>
      </g>
    </g>
  </g>
</svg>
