<?xml version="1.0" encoding="UTF-8" standalone="no"?>
<!-- Created with Inkscape (http://www.inkscape.org/) -->

<svg
   xmlns:dc="http://purl.org/dc/elements/1.1/"
   xmlns:cc="http://creativecommons.org/ns#"
   xmlns:rdf="http://www.w3.org/1999/02/22-rdf-syntax-ns#"
   xmlns:svg="http://www.w3.org/2000/svg"
   xmlns="http://www.w3.org/2000/svg"
   xmlns:xlink="http://www.w3.org/1999/xlink"
   xmlns:sodipodi="http://sodipodi.sourceforge.net/DTD/sodipodi-0.dtd"
   xmlns:inkscape="http://www.inkscape.org/namespaces/inkscape"
   width="1366"
   height="768"
   id="svg2"
   version="1.1"
   inkscape:version="0.91 r13725"
   sodipodi:docname="wantedWinter.svg">
  <defs
     id="defs4">
    <linearGradient
       inkscape:collect="always"
       id="linearGradient4772">
      <stop
         style="stop-color:#ececec;stop-opacity:1;"
         offset="0"
         id="stop4774" />
      <stop
         style="stop-color:#ececec;stop-opacity:0;"
         offset="1"
         id="stop4776" />
    </linearGradient>
    <inkscape:path-effect
       effect="skeletal"
       id="path-effect3901"
       is_visible="true"
       pattern="m 715.71428,115 c 0,-2.76 2.24,-5 5,-5 2.76,0 5,2.24 5,5 0,2.76 -2.24,5 -5,5 -2.76,0 -5,-2.24 -5,-5 z"
       copytype="single_stretched"
       prop_scale="1"
       scale_y_rel="false"
       spacing="0"
       normal_offset="0"
       tang_offset="0"
       prop_units="false"
       vertical_pattern="false"
       fuse_tolerance="0" />
    <inkscape:path-effect
       fuse_tolerance="0"
       vertical_pattern="false"
       prop_units="false"
       tang_offset="0"
       normal_offset="0"
       spacing="0"
       scale_y_rel="false"
       prop_scale="1"
       copytype="single_stretched"
       pattern="m 575.71428,115 c 0,-2.76 2.24,-5 5,-5 2.76,0 5,2.24 5,5 0,2.76 -2.24,5 -5,5 -2.76,0 -5,-2.24 -5,-5 z"
       is_visible="true"
       id="path-effect3899"
       effect="skeletal" />
    <inkscape:path-effect
       effect="skeletal"
       id="path-effect3897"
       is_visible="true"
       pattern="m 435.71428,115 c 0,-2.76 2.24,-5 5,-5 2.76,0 5,2.24 5,5 0,2.76 -2.24,5 -5,5 -2.76,0 -5,-2.24 -5,-5 z"
       copytype="single_stretched"
       prop_scale="1"
       scale_y_rel="false"
       spacing="0"
       normal_offset="0"
       tang_offset="0"
       prop_units="false"
       vertical_pattern="false"
       fuse_tolerance="0" />
    <inkscape:path-effect
       fuse_tolerance="0"
       vertical_pattern="false"
       prop_units="false"
       tang_offset="0"
       normal_offset="0"
       spacing="0"
       scale_y_rel="false"
       prop_scale="1"
       copytype="single_stretched"
       pattern="m 295.71428,115 c 0,-2.76 2.24,-5 5,-5 2.76,0 5,2.24 5,5 0,2.76 -2.24,5 -5,5 -2.76,0 -5,-2.24 -5,-5 z"
       is_visible="true"
       id="path-effect3895"
       effect="skeletal" />
    <inkscape:path-effect
       effect="skeletal"
       id="path-effect3893"
       is_visible="true"
       pattern="m 155.71428,115 c 0,-2.76 2.24,-5 5,-5 2.76,0 5,2.24 5,5 0,2.76 -2.24,5 -5,5 -2.76,0 -5,-2.24 -5,-5 z"
       copytype="single_stretched"
       prop_scale="1"
       scale_y_rel="false"
       spacing="0"
       normal_offset="0"
       tang_offset="0"
       prop_units="false"
       vertical_pattern="false"
       fuse_tolerance="0" />
    <inkscape:path-effect
       fuse_tolerance="0"
       vertical_pattern="false"
       prop_units="false"
       tang_offset="0"
       normal_offset="0"
       spacing="0"
       scale_y_rel="false"
       prop_scale="1"
       copytype="single_stretched"
       pattern="m 15.71428,115 c 0,-2.76 2.24,-5 5,-5 2.76,0 5,2.24 5,5 0,2.76 -2.24,5 -5,5 -2.76,0 -5,-2.24 -5,-5 z"
       is_visible="true"
       id="path-effect3891"
       effect="skeletal" />
    <inkscape:path-effect
       fuse_tolerance="0"
       vertical_pattern="false"
       prop_units="false"
       tang_offset="0"
       normal_offset="0"
       spacing="0"
       scale_y_rel="false"
       prop_scale="1"
       copytype="single_stretched"
       pattern="m 715.71428,-125 c 0,-2.76 2.24,-5 5,-5 2.76,0 5,2.24 5,5 0,2.76 -2.24,5 -5,5 -2.76,0 -5,-2.24 -5,-5 z"
       is_visible="true"
       id="path-effect3877"
       effect="skeletal" />
    <inkscape:path-effect
       effect="skeletal"
       id="path-effect3875"
       is_visible="true"
       pattern="m 575.71428,-125 c 0,-2.76 2.24,-5 5,-5 2.76,0 5,2.24 5,5 0,2.76 -2.24,5 -5,5 -2.76,0 -5,-2.24 -5,-5 z"
       copytype="single_stretched"
       prop_scale="1"
       scale_y_rel="false"
       spacing="0"
       normal_offset="0"
       tang_offset="0"
       prop_units="false"
       vertical_pattern="false"
       fuse_tolerance="0" />
    <inkscape:path-effect
       fuse_tolerance="0"
       vertical_pattern="false"
       prop_units="false"
       tang_offset="0"
       normal_offset="0"
       spacing="0"
       scale_y_rel="false"
       prop_scale="1"
       copytype="single_stretched"
       pattern="m 435.71428,-125 c 0,-2.76 2.24,-5 5,-5 2.76,0 5,2.24 5,5 0,2.76 -2.24,5 -5,5 -2.76,0 -5,-2.24 -5,-5 z"
       is_visible="true"
       id="path-effect3873"
       effect="skeletal" />
    <inkscape:path-effect
       effect="skeletal"
       id="path-effect3871"
       is_visible="true"
       pattern="m 295.71428,-125 c 0,-2.76 2.24,-5 5,-5 2.76,0 5,2.24 5,5 0,2.76 -2.24,5 -5,5 -2.76,0 -5,-2.24 -5,-5 z"
       copytype="single_stretched"
       prop_scale="1"
       scale_y_rel="false"
       spacing="0"
       normal_offset="0"
       tang_offset="0"
       prop_units="false"
       vertical_pattern="false"
       fuse_tolerance="0" />
    <inkscape:path-effect
       fuse_tolerance="0"
       vertical_pattern="false"
       prop_units="false"
       tang_offset="0"
       normal_offset="0"
       spacing="0"
       scale_y_rel="false"
       prop_scale="1"
       copytype="single_stretched"
       pattern="m 155.71428,-125 c 0,-2.76 2.24,-5 5,-5 2.76,0 5,2.24 5,5 0,2.76 -2.24,5 -5,5 -2.76,0 -5,-2.24 -5,-5 z"
       is_visible="true"
       id="path-effect3869"
       effect="skeletal" />
    <inkscape:path-effect
       effect="skeletal"
       id="path-effect3867"
       is_visible="true"
       pattern="m 15.71428,-125 c 0,-2.76 2.24,-5 5,-5 2.76,0 5,2.24 5,5 0,2.76 -2.24,5 -5,5 -2.76,0 -5,-2.24 -5,-5 z"
       copytype="single_stretched"
       prop_scale="1"
       scale_y_rel="false"
       spacing="0"
       normal_offset="0"
       tang_offset="0"
       prop_units="false"
       vertical_pattern="false"
       fuse_tolerance="0" />
    <inkscape:path-effect
       effect="skeletal"
       id="path-effect3853"
       is_visible="true"
       pattern="m 715.71428,-365 c 0,-2.76 2.24,-5 5,-5 2.76,0 5,2.24 5,5 0,2.76 -2.24,5 -5,5 -2.76,0 -5,-2.24 -5,-5 z"
       copytype="single_stretched"
       prop_scale="1"
       scale_y_rel="false"
       spacing="0"
       normal_offset="0"
       tang_offset="0"
       prop_units="false"
       vertical_pattern="false"
       fuse_tolerance="0" />
    <inkscape:path-effect
       fuse_tolerance="0"
       vertical_pattern="false"
       prop_units="false"
       tang_offset="0"
       normal_offset="0"
       spacing="0"
       scale_y_rel="false"
       prop_scale="1"
       copytype="single_stretched"
       pattern="m 575.71428,-365 c 0,-2.76 2.24,-5 5,-5 2.76,0 5,2.24 5,5 0,2.76 -2.24,5 -5,5 -2.76,0 -5,-2.24 -5,-5 z"
       is_visible="true"
       id="path-effect3851"
       effect="skeletal" />
    <inkscape:path-effect
       effect="skeletal"
       id="path-effect3849"
       is_visible="true"
       pattern="m 435.71428,-365 c 0,-2.76 2.24,-5 5,-5 2.76,0 5,2.24 5,5 0,2.76 -2.24,5 -5,5 -2.76,0 -5,-2.24 -5,-5 z"
       copytype="single_stretched"
       prop_scale="1"
       scale_y_rel="false"
       spacing="0"
       normal_offset="0"
       tang_offset="0"
       prop_units="false"
       vertical_pattern="false"
       fuse_tolerance="0" />
    <inkscape:path-effect
       fuse_tolerance="0"
       vertical_pattern="false"
       prop_units="false"
       tang_offset="0"
       normal_offset="0"
       spacing="0"
       scale_y_rel="false"
       prop_scale="1"
       copytype="single_stretched"
       pattern="m 295.71428,-365 c 0,-2.76 2.24,-5 5,-5 2.76,0 5,2.24 5,5 0,2.76 -2.24,5 -5,5 -2.76,0 -5,-2.24 -5,-5 z"
       is_visible="true"
       id="path-effect3847"
       effect="skeletal" />
    <inkscape:path-effect
       effect="skeletal"
       id="path-effect3845"
       is_visible="true"
       pattern="m 155.71428,-365 c 0,-2.76 2.24,-5 5,-5 2.76,0 5,2.24 5,5 0,2.76 -2.24,5 -5,5 -2.76,0 -5,-2.24 -5,-5 z"
       copytype="single_stretched"
       prop_scale="1"
       scale_y_rel="false"
       spacing="0"
       normal_offset="0"
       tang_offset="0"
       prop_units="false"
       vertical_pattern="false"
       fuse_tolerance="0" />
    <inkscape:path-effect
       fuse_tolerance="0"
       vertical_pattern="false"
       prop_units="false"
       tang_offset="0"
       normal_offset="0"
       spacing="0"
       scale_y_rel="false"
       prop_scale="1"
       copytype="single_stretched"
       pattern="m 15.71428,-365 c 0,-2.76 2.24,-5 5,-5 2.76,0 5,2.24 5,5 0,2.76 -2.24,5 -5,5 -2.76,0 -5,-2.24 -5,-5 z"
       is_visible="true"
       id="path-effect3843"
       effect="skeletal" />
    <inkscape:path-effect
       fuse_tolerance="0"
       vertical_pattern="false"
       prop_units="false"
       tang_offset="0"
       normal_offset="0"
       spacing="0"
       scale_y_rel="false"
       prop_scale="1"
       copytype="single_stretched"
       pattern="m 715.71428,-605 c 0,-2.76 2.24,-5 5,-5 2.76,0 5,2.24 5,5 0,2.76 -2.24,5 -5,5 -2.76,0 -5,-2.24 -5,-5 z"
       is_visible="true"
       id="path-effect3829"
       effect="skeletal" />
    <inkscape:path-effect
       effect="skeletal"
       id="path-effect3827"
       is_visible="true"
       pattern="m 575.71428,-605 c 0,-2.76 2.24,-5 5,-5 2.76,0 5,2.24 5,5 0,2.76 -2.24,5 -5,5 -2.76,0 -5,-2.24 -5,-5 z"
       copytype="single_stretched"
       prop_scale="1"
       scale_y_rel="false"
       spacing="0"
       normal_offset="0"
       tang_offset="0"
       prop_units="false"
       vertical_pattern="false"
       fuse_tolerance="0" />
    <inkscape:path-effect
       fuse_tolerance="0"
       vertical_pattern="false"
       prop_units="false"
       tang_offset="0"
       normal_offset="0"
       spacing="0"
       scale_y_rel="false"
       prop_scale="1"
       copytype="single_stretched"
       pattern="m 435.71428,-605 c 0,-2.76 2.24,-5 5,-5 2.76,0 5,2.24 5,5 0,2.76 -2.24,5 -5,5 -2.76,0 -5,-2.24 -5,-5 z"
       is_visible="true"
       id="path-effect3825"
       effect="skeletal" />
    <inkscape:path-effect
       effect="skeletal"
       id="path-effect3817"
       is_visible="true"
       pattern="m 295.71428,-605 c 0,-2.76 2.24,-5 5,-5 2.76,0 5,2.24 5,5 0,2.76 -2.24,5 -5,5 -2.76,0 -5,-2.24 -5,-5 z"
       copytype="single_stretched"
       prop_scale="1"
       scale_y_rel="false"
       spacing="0"
       normal_offset="0"
       tang_offset="0"
       prop_units="false"
       vertical_pattern="false"
       fuse_tolerance="0" />
    <inkscape:path-effect
       fuse_tolerance="0"
       vertical_pattern="false"
       prop_units="false"
       tang_offset="0"
       normal_offset="0"
       spacing="0"
       scale_y_rel="false"
       prop_scale="1"
       copytype="single_stretched"
       pattern="m 155.71428,-605 c 0,-2.76 2.24,-5 5,-5 2.76,0 5,2.24 5,5 0,2.76 -2.24,5 -5,5 -2.76,0 -5,-2.24 -5,-5 z"
       is_visible="true"
       id="path-effect3813"
       effect="skeletal" />
    <inkscape:path-effect
       effect="skeletal"
       id="path-effect2987"
       is_visible="true"
       pattern="m 15.71428,-605 c 0,-2.76 2.24,-5 5,-5 2.76,0 5,2.24 5,5 0,2.76 -2.24,5 -5,5 -2.76,0 -5,-2.24 -5,-5 z"
       copytype="single_stretched"
       prop_scale="1"
       scale_y_rel="false"
       spacing="0"
       normal_offset="0"
       tang_offset="0"
       prop_units="false"
       vertical_pattern="false"
       fuse_tolerance="0" />
    <linearGradient
       inkscape:collect="always"
       xlink:href="#linearGradient4772"
       id="linearGradient4778"
       x1="1281.0878"
       y1="830.01721"
       x2="1268.7516"
       y2="144.30447"
       gradientUnits="userSpaceOnUse" />
    <filter
       inkscape:collect="always"
       style="color-interpolation-filters:sRGB"
       id="filter4809"
       x="-0.7392"
       width="2.4784"
       y="-0.7392"
       height="2.4784">
      <feGaussianBlur
         inkscape:collect="always"
         stdDeviation="220.54751"
         id="feGaussianBlur4811" />
    </filter>
    <clipPath
       clipPathUnits="userSpaceOnUse"
       id="clipPath4838">
      <rect
         y="-172.50108"
         x="735.72626"
         height="768"
         width="1366"
         id="rect4840"
         style="opacity:1;fill:#d0d5d9;fill-opacity:1;stroke:none;stroke-width:3.29999995;stroke-miterlimit:4;stroke-dasharray:none;stroke-opacity:1" />
    </clipPath>
  </defs>
  <sodipodi:namedview
     id="base"
     pagecolor="#ffffff"
     bordercolor="#666666"
     borderopacity="1.0"
     inkscape:pageopacity="0.0"
     inkscape:pageshadow="2"
     inkscape:zoom="0.45254834"
     inkscape:cx="870.55947"
     inkscape:cy="464.17927"
     inkscape:document-units="px"
     inkscape:current-layer="layer1"
     showgrid="false"
     showguides="false"
     inkscape:guide-bbox="true"
     inkscape:window-width="1326"
     inkscape:window-height="709"
     inkscape:window-x="20"
     inkscape:window-y="39"
     inkscape:window-maximized="0"
     fit-margin-top="0"
     fit-margin-left="0"
     fit-margin-right="0"
     fit-margin-bottom="0"
     inkscape:object-nodes="true"
     inkscape:object-paths="true"
     inkscape:snap-nodes="false" />
  <metadata
     id="metadata7">
    <rdf:RDF>
      <cc:Work
         rdf:about="">
        <dc:format>image/svg+xml</dc:format>
        <dc:type
           rdf:resource="http://purl.org/dc/dcmitype/StillImage" />
        <dc:title />
        <cc:license
           rdf:resource="http://creativecommons.org/publicdomain/zero/1.0/" />
      </cc:Work>
      <cc:License
         rdf:about="http://creativecommons.org/publicdomain/zero/1.0/">
        <cc:permits
           rdf:resource="http://creativecommons.org/ns#Reproduction" />
        <cc:permits
           rdf:resource="http://creativecommons.org/ns#Distribution" />
        <cc:permits
           rdf:resource="http://creativecommons.org/ns#DerivativeWorks" />
      </cc:License>
    </rdf:RDF>
  </metadata>
  <g
     inkscape:groupmode="layer"
     id="layer2"
     inkscape:label="backdrop"
     transform="translate(-595.98999,342.87314)">
    <rect
       style="opacity:1;fill:#d0d5d9;fill-opacity:1;stroke:none;stroke-width:3.29999995;stroke-miterlimit:4;stroke-dasharray:none;stroke-opacity:1"
       id="rect4161"
       width="1366"
       height="768"
       x="595.98999"
       y="-342.87314"
       inkscape:export-xdpi="90"
       inkscape:export-ydpi="90" />
    <path
       style="fill:#c4cacc;fill-opacity:1;fill-rule:evenodd;stroke:none;stroke-width:1px;stroke-linecap:butt;stroke-linejoin:miter;stroke-opacity:1"
       d="m 595.98999,-104.19305 69.70053,16.16244 c 89.22786,-35.13932 177.32387,20.43139 263.64981,48.48732 l 104.04567,-9.09137 32.3249,-29.29442 101.0153,-47.47717 115.1574,53.53808 41.4162,59.599 246.4772,8.08122 136.3706,-16.16244 51.5178,-61.6193 125.2589,-44.44671 79.0657,46.46701 0,505.07626 -1366.00001,0 z"
       id="path4308"
       inkscape:connector-curvature="0"
       sodipodi:nodetypes="cccccccccccccccc" />
    <path
       style="fill:#b7bdbd;fill-opacity:1;fill-rule:evenodd;stroke:none;stroke-width:1px;stroke-linecap:butt;stroke-linejoin:miter;stroke-opacity:1"
       d="m 595.98999,23.08617 155.5635,-84.85281 c 68.44653,-96.01344 79.85511,-81.52229 188.89854,-109.09648 l 102.02537,-10.10153 c 39.491,21.1024 80.6495,47.65717 103.6781,97.77815 l 114.5149,60.81581 c 45.7248,-32.65628 80.269,-65.29535 130.1958,-90.66353 l 87.6678,-44.3626 217.1604,63.34735 63.9913,62.5874 c 75.7088,28.57304 127.7788,17.28186 202.3043,-2.0203 l 0,458.60924 -1366.00001,0 z"
       id="path4306"
       inkscape:connector-curvature="0"
       sodipodi:nodetypes="cccccccccccccc" />
    <path
       sodipodi:nodetypes="cccccccccccccc"
       inkscape:connector-curvature="0"
       id="path4762"
       d="m 595.98999,23.08617 155.5635,-84.85281 c 68.44653,-96.01344 79.85511,-81.52229 188.89854,-109.09648 l 102.02537,-10.10153 c 39.491,21.1024 80.6495,47.65717 103.6781,97.77815 l 114.5149,60.81581 c 45.7248,-32.65628 80.269,-65.29535 130.1958,-90.66353 l 87.6678,-44.3626 217.1604,63.34735 63.9913,62.5874 c 75.7088,28.57304 127.7788,17.28186 202.3043,-2.0203 l 0,458.60924 -1366.00001,0 z"
       style="fill:url(#linearGradient4778);fill-opacity:1;fill-rule:evenodd;stroke:none;stroke-width:1px;stroke-linecap:butt;stroke-linejoin:miter;stroke-opacity:1" />
    <path
       style="fill:#9ca4a4;fill-opacity:1;fill-rule:evenodd;stroke:none;stroke-width:1px;stroke-linecap:butt;stroke-linejoin:miter;stroke-opacity:1"
       d="m 595.98999,54.85715 c 44.4212,22.81217 62.35747,49.32641 84.01001,91.42857 -14.95054,24.39338 1.93812,30.50955 20,48.57142 25.99359,68.28017 86.02545,118.74535 145.91609,154.49959 L 1637.1428,332 l 88.5715,-41.42857 42.1428,-31.42857 c 48.9694,2.0539 67.1292,10.25529 87.8571,-32.14286 l 44.937,-35.54246 C 1931.0294,138.08725 1944.3735,80.9765 1961.99,22.54309 l 0,402.58378 -1366.00001,0 z"
       id="path4314"
       inkscape:connector-curvature="0"
       sodipodi:nodetypes="ccccccccccccc" />
    <path
       style="fill:#ececec;fill-rule:evenodd;stroke:none;stroke-width:1px;stroke-linecap:butt;stroke-linejoin:miter;stroke-opacity:1"
       d="m 595.98999,356.43651 248.49753,-36.36549 98.99491,0 335.37067,-28.28427 232.3351,4.04061 155.5635,6.06091 175.7665,56.56854 119.4718,10.10153 0,56.56853 -1366.00001,0 z"
       id="path4163"
       inkscape:connector-curvature="0" />
  </g>
  <g
     inkscape:groupmode="layer"
     id="layer3"
     inkscape:label="snow"
     transform="translate(-595.98999,342.87314)">
    <circle
       style="opacity:1;fill:#ececec;fill-opacity:1;stroke:none;stroke-width:3.29999995;stroke-miterlimit:4;stroke-dasharray:none;stroke-opacity:1"
       id="path4208"
       cx="1200.7142"
       cy="234.14285"
       r="7.8571429" />
    <circle
       style="opacity:1;fill:#ececec;fill-opacity:1;stroke:none;stroke-width:3.29999995;stroke-miterlimit:4;stroke-dasharray:none;stroke-opacity:1"
       id="path4208-7"
       cx="1741.5029"
       cy="124.10143"
       r="7.8571429" />
    <circle
       style="opacity:1;fill:#ececec;fill-opacity:1;stroke:none;stroke-width:3.29999995;stroke-miterlimit:4;stroke-dasharray:none;stroke-opacity:1"
       id="path4208-6"
       cx="1543.5131"
       cy="23.086168"
       r="7.8571429" />
    <circle
       style="opacity:1;fill:#ececec;fill-opacity:1;stroke:none;stroke-width:3.29999995;stroke-miterlimit:4;stroke-dasharray:none;stroke-opacity:1"
       id="path4208-60"
       cx="721.2489"
       cy="136.22325"
       r="7.8571429" />
    <circle
       style="opacity:1;fill:#ececec;fill-opacity:1;stroke:none;stroke-width:3.29999995;stroke-miterlimit:4;stroke-dasharray:none;stroke-opacity:1"
       id="path4208-9"
       cx="662.6601"
       cy="-88.030609"
       r="7.8571429" />
    <circle
       style="opacity:1;fill:#ececec;fill-opacity:1;stroke:none;stroke-width:3.29999995;stroke-miterlimit:4;stroke-dasharray:none;stroke-opacity:1"
       id="path4208-8"
       cx="1711.1984"
       cy="-211.26923"
       r="7.8571429" />
    <circle
       style="opacity:1;fill:#ececec;fill-opacity:1;stroke:none;stroke-width:3.29999995;stroke-miterlimit:4;stroke-dasharray:none;stroke-opacity:1"
       id="path4208-83"
       cx="1682.9142"
       cy="190.77148"
       r="7.8571429" />
    <circle
       style="opacity:1;fill:#ececec;fill-opacity:1;stroke:none;stroke-width:3.29999995;stroke-miterlimit:4;stroke-dasharray:none;stroke-opacity:1"
       id="path4208-5"
       cx="1880.9041"
       cy="15.004949"
       r="7.8571429" />
    <circle
       style="opacity:1;fill:#ececec;fill-opacity:1;stroke:none;stroke-width:3.29999995;stroke-miterlimit:4;stroke-dasharray:none;stroke-opacity:1"
       id="path4208-2"
       cx="1305.1171"
       cy="71.573494"
       r="7.8571429" />
    <circle
       style="opacity:1;fill:#ececec;fill-opacity:1;stroke:none;stroke-width:3.29999995;stroke-miterlimit:4;stroke-dasharray:none;stroke-opacity:1"
       id="path4208-6-2"
       cx="1677.8572"
       cy="3.4285712"
       r="14.285714" />
    <circle
       style="opacity:1;fill:#ececec;fill-opacity:1;stroke:none;stroke-width:3.29999995;stroke-miterlimit:4;stroke-dasharray:none;stroke-opacity:1"
       id="path4208-6-2-4"
       cx="688.92401"
       cy="305.92889"
       r="14.285714" />
    <circle
       style="opacity:1;fill:#ececec;fill-opacity:1;stroke:none;stroke-width:3.29999995;stroke-miterlimit:4;stroke-dasharray:none;stroke-opacity:1"
       id="path4208-6-2-6"
       cx="939.44189"
       cy="285.72583"
       r="14.285714" />
    <circle
       style="opacity:1;fill:#ececec;fill-opacity:1;stroke:none;stroke-width:3.29999995;stroke-miterlimit:4;stroke-dasharray:none;stroke-opacity:1"
       id="path4208-6-2-0"
       cx="1753.6248"
       cy="287.74612"
       r="14.285714" />
    <circle
       style="opacity:1;fill:#ececec;fill-opacity:1;stroke:none;stroke-width:3.29999995;stroke-miterlimit:4;stroke-dasharray:none;stroke-opacity:1"
       id="path4208-6-2-2"
       cx="1911.2086"
       cy="352.3959"
       r="14.285714" />
    <circle
       style="opacity:1;fill:#ececec;fill-opacity:0.58083831;stroke:none;stroke-width:3.29999995;stroke-miterlimit:4;stroke-dasharray:none;stroke-opacity:1"
       id="path4208-6-1"
       cx="1561.0714"
       cy="123.78571"
       r="6.0714288" />
    <circle
       style="opacity:1;fill:#ececec;fill-opacity:0.58083831;stroke:none;stroke-width:3.29999995;stroke-miterlimit:4;stroke-dasharray:none;stroke-opacity:1"
       id="path4208-6-1-7"
       cx="842.46722"
       cy="109.95929"
       r="6.0714288" />
    <circle
       style="opacity:1;fill:#ececec;fill-opacity:0.58083831;stroke:none;stroke-width:3.29999995;stroke-miterlimit:4;stroke-dasharray:none;stroke-opacity:1"
       id="path4208-6-1-70"
       cx="846.50781"
       cy="194.8121"
       r="6.0714288" />
    <circle
       style="opacity:1;fill:#ececec;fill-opacity:0.58083831;stroke:none;stroke-width:3.29999995;stroke-miterlimit:4;stroke-dasharray:none;stroke-opacity:1"
       id="path4208-6-1-74"
       cx="1381.8887"
       cy="148.34508"
       r="6.0714288" />
    <circle
       style="opacity:1;fill:#ececec;fill-opacity:0.58083831;stroke:none;stroke-width:3.29999995;stroke-miterlimit:4;stroke-dasharray:none;stroke-opacity:1"
       id="path4208-6-1-1"
       cx="1547.5537"
       cy="265.52277"
       r="6.0714288" />
    <circle
       style="opacity:1;fill:#ececec;fill-opacity:0.58083831;stroke:none;stroke-width:3.29999995;stroke-miterlimit:4;stroke-dasharray:none;stroke-opacity:1"
       id="path4208-6-1-701"
       cx="1592.0004"
       cy="-75.908783"
       r="6.0714288" />
    <circle
       style="opacity:1;fill:#ececec;fill-opacity:0.58083831;stroke:none;stroke-width:3.29999995;stroke-miterlimit:4;stroke-dasharray:none;stroke-opacity:1"
       id="path4208-6-1-8"
       cx="1804.1324"
       cy="-197.12709"
       r="6.0714288" />
    <circle
       style="opacity:1;fill:#ececec;fill-opacity:0.58083831;stroke:none;stroke-width:3.29999995;stroke-miterlimit:4;stroke-dasharray:none;stroke-opacity:1"
       id="path4208-6-1-6"
       cx="1852.6198"
       cy="-217.33014"
       r="6.0714288" />
    <circle
       style="opacity:1;fill:#ececec;fill-opacity:0.58083831;stroke:none;stroke-width:3.29999995;stroke-miterlimit:4;stroke-dasharray:none;stroke-opacity:1"
       id="path4208-6-1-65"
       cx="1822.3152"
       cy="-314.30478"
       r="6.0714288" />
    <circle
       style="opacity:1;fill:#ececec;fill-opacity:0.58083831;stroke:none;stroke-width:3.29999995;stroke-miterlimit:4;stroke-dasharray:none;stroke-opacity:1"
       id="path4208-6-1-0"
       cx="1897.0665"
       cy="-211.26923"
       r="6.0714288" />
    <circle
       style="opacity:1;fill:#ececec;fill-opacity:0.58083831;stroke:none;stroke-width:3.29999995;stroke-miterlimit:4;stroke-dasharray:none;stroke-opacity:1"
       id="path4208-6-1-2"
       cx="1915.2493"
       cy="-261.77686"
       r="6.0714288" />
    <circle
       style="opacity:1;fill:#ececec;fill-opacity:0.58083831;stroke:none;stroke-width:3.29999995;stroke-miterlimit:4;stroke-dasharray:none;stroke-opacity:1"
       id="path4208-6-1-709"
       cx="1684.9344"
       cy="-247.63472"
       r="6.0714288" />
    <circle
       style="opacity:1;fill:#ececec;fill-opacity:0.58083831;stroke:none;stroke-width:3.29999995;stroke-miterlimit:4;stroke-dasharray:none;stroke-opacity:1"
       id="path4208-6-1-9"
       cx="1781.9091"
       cy="-114.29458"
       r="6.0714288" />
    <circle
       style="opacity:1;fill:#ececec;fill-opacity:0.58083831;stroke:none;stroke-width:3.29999995;stroke-miterlimit:4;stroke-dasharray:none;stroke-opacity:1"
       id="path4208-6-1-85"
       cx="1822.3152"
       cy="-61.766644"
       r="6.0714288" />
    <circle
       style="opacity:1;fill:#ececec;fill-opacity:0.58083831;stroke:none;stroke-width:3.29999995;stroke-miterlimit:4;stroke-dasharray:none;stroke-opacity:1"
       id="path4208-6-1-5"
       cx="1874.8431"
       cy="-81.969696"
       r="6.0714288" />
    <circle
       style="opacity:1;fill:#ececec;fill-opacity:0.58083831;stroke:none;stroke-width:3.29999995;stroke-miterlimit:4;stroke-dasharray:none;stroke-opacity:1"
       id="path4208-6-1-3"
       cx="672.7616"
       cy="-265.81744"
       r="6.0714288" />
    <circle
       style="opacity:1;fill:#ececec;fill-opacity:0.58083831;stroke:none;stroke-width:3.29999995;stroke-miterlimit:4;stroke-dasharray:none;stroke-opacity:1"
       id="path4208-6-1-24"
       cx="1096.0155"
       cy="-294.10175"
       r="6.0714288" />
    <circle
       style="opacity:1;fill:#ececec;fill-opacity:0.58083831;stroke:none;stroke-width:3.29999995;stroke-miterlimit:4;stroke-dasharray:none;stroke-opacity:1"
       id="path4208-6-1-38"
       cx="1098.0358"
       cy="-255.71593"
       r="6.0714288" />
    <circle
       style="opacity:1;fill:#ececec;fill-opacity:0.58083831;stroke:none;stroke-width:3.29999995;stroke-miterlimit:4;stroke-dasharray:none;stroke-opacity:1"
       id="path4208-6-1-4"
       cx="1203.0917"
       cy="-212.27937"
       r="6.0714288" />
    <circle
       style="opacity:1;fill:#ececec;fill-opacity:0.58083831;stroke:none;stroke-width:3.29999995;stroke-miterlimit:4;stroke-dasharray:none;stroke-opacity:1"
       id="path4208-6-1-54"
       cx="1233.3962"
       cy="-125.40626"
       r="6.0714288" />
    <circle
       style="opacity:1;fill:#ececec;fill-opacity:0.58083831;stroke:none;stroke-width:3.29999995;stroke-miterlimit:4;stroke-dasharray:none;stroke-opacity:1"
       id="path4208-6-1-03"
       cx="1275.3176"
       cy="-97.62706"
       r="6.0714288" />
    <circle
       style="opacity:1;fill:#ececec;fill-opacity:0.58083831;stroke:none;stroke-width:3.29999995;stroke-miterlimit:4;stroke-dasharray:none;stroke-opacity:1"
       id="path4208-6-1-40"
       cx="1101.0663"
       cy="-89.040764"
       r="6.0714288" />
    <circle
       style="opacity:1;fill:#ececec;fill-opacity:0.58083831;stroke:none;stroke-width:3.29999995;stroke-miterlimit:4;stroke-dasharray:none;stroke-opacity:1"
       id="path4208-6-1-28"
       cx="1051.5688"
       cy="-91.061066"
       r="6.0714288" />
    <circle
       style="opacity:1;fill:#ececec;fill-opacity:0.58083831;stroke:none;stroke-width:3.29999995;stroke-miterlimit:4;stroke-dasharray:none;stroke-opacity:1"
       id="path4208-6-1-49"
       cx="953.58398"
       cy="-64.797104"
       r="6.0714288" />
    <circle
       style="opacity:1;fill:#ececec;fill-opacity:0.58083831;stroke:none;stroke-width:3.29999995;stroke-miterlimit:4;stroke-dasharray:none;stroke-opacity:1"
       id="path4208-6-1-95"
       cx="1089.9546"
       cy="65.512573"
       r="6.0714288" />
    <circle
       style="opacity:1;fill:#ececec;fill-opacity:0.58083831;stroke:none;stroke-width:3.29999995;stroke-miterlimit:4;stroke-dasharray:none;stroke-opacity:1"
       id="path4208-6-1-07"
       cx="860.64996"
       cy="-227.43166"
       r="6.0714288" />
    <circle
       style="opacity:1;fill:#ececec;fill-opacity:0.58083831;stroke:none;stroke-width:3.29999995;stroke-miterlimit:4;stroke-dasharray:none;stroke-opacity:1"
       id="path4208-6-1-35"
       cx="848.52814"
       cy="-201.16769"
       r="6.0714288" />
    <circle
       style="opacity:1;fill:#ececec;fill-opacity:0.58083831;stroke:none;stroke-width:3.29999995;stroke-miterlimit:4;stroke-dasharray:none;stroke-opacity:1"
       id="path4208-6-1-77"
       cx="1036.4165"
       cy="-265.81744"
       r="6.0714288" />
    <circle
       style="opacity:1;fill:#ececec;fill-opacity:0.58083831;stroke:none;stroke-width:3.29999995;stroke-miterlimit:4;stroke-dasharray:none;stroke-opacity:1"
       id="path4208-6-1-27"
       cx="917.21851"
       cy="-11.259018"
       r="6.0714288" />
    <circle
       style="opacity:1;fill:#ececec;fill-opacity:0.58083831;stroke:none;stroke-width:3.29999995;stroke-miterlimit:4;stroke-dasharray:none;stroke-opacity:1"
       id="path4208-6-1-73"
       cx="830.3454"
       cy="-3.1777976"
       r="6.0714288" />
    <circle
       style="opacity:1;fill:#ececec;fill-opacity:0.58083831;stroke:none;stroke-width:3.29999995;stroke-miterlimit:4;stroke-dasharray:none;stroke-opacity:1"
       id="path4208-6-1-52"
       cx="1288.9546"
       cy="-249.65501"
       r="6.0714288" />
    <circle
       style="opacity:1;fill:#ececec;fill-opacity:0.58083831;stroke:none;stroke-width:3.29999995;stroke-miterlimit:4;stroke-dasharray:none;stroke-opacity:1"
       id="path4208-6-1-91"
       cx="1402.0917"
       cy="-269.85806"
       r="6.0714288" />
    <circle
       style="opacity:1;fill:#ececec;fill-opacity:0.58083831;stroke:none;stroke-width:3.29999995;stroke-miterlimit:4;stroke-dasharray:none;stroke-opacity:1"
       id="path4208-6-1-63"
       cx="1482.9039"
       cy="-298.14233"
       r="6.0714288" />
    <circle
       style="opacity:1;fill:#ececec;fill-opacity:0.58083831;stroke:none;stroke-width:3.29999995;stroke-miterlimit:4;stroke-dasharray:none;stroke-opacity:1"
       id="path4208-6-1-44"
       cx="1547.5537"
       cy="-160.7616"
       r="6.0714288" />
    <circle
       style="opacity:1;fill:#ececec;fill-opacity:0.58083831;stroke:none;stroke-width:3.29999995;stroke-miterlimit:4;stroke-dasharray:none;stroke-opacity:1"
       id="path4208-6-1-72"
       cx="1329.3607"
       cy="-79.949394"
       r="6.0714288" />
    <circle
       style="opacity:1;fill:#ececec;fill-opacity:0.58083831;stroke:none;stroke-width:3.29999995;stroke-miterlimit:4;stroke-dasharray:none;stroke-opacity:1"
       id="path4208-6-1-10"
       cx="1214.2034"
       cy="101.87807"
       r="6.0714288" />
    <circle
       style="opacity:1;fill:#ececec;fill-opacity:0.58083831;stroke:none;stroke-width:3.29999995;stroke-miterlimit:4;stroke-dasharray:none;stroke-opacity:1"
       id="path4208-6-1-75"
       cx="1430.376"
       cy="-69.847862"
       r="6.0714288" />
    <circle
       style="opacity:1;fill:#ececec;fill-opacity:0.58083831;stroke:none;stroke-width:3.29999995;stroke-miterlimit:4;stroke-dasharray:none;stroke-opacity:1"
       id="path4208-6-1-29"
       cx="1622.3049"
       cy="-316.32507"
       r="6.0714288" />
    <circle
       style="opacity:1;fill:#ececec;fill-opacity:0.58083831;stroke:none;stroke-width:3.29999995;stroke-miterlimit:4;stroke-dasharray:none;stroke-opacity:1"
       id="path4208-6-1-389"
       cx="686.90375"
       cy="8.9440327"
       r="6.0714288" />
    <circle
       style="opacity:1;fill:#ececec;fill-opacity:0.73652697;stroke:none;stroke-width:3.29999995;stroke-miterlimit:4;stroke-dasharray:none;stroke-opacity:1"
       id="path4208-6-2-45"
       cx="1875.3481"
       cy="226.6319"
       r="42.064915" />
    <circle
       style="opacity:1;fill:#ececec;fill-opacity:0.73652697;stroke:none;stroke-width:3.29999995;stroke-miterlimit:4;stroke-dasharray:none;stroke-opacity:1"
       id="path4208-6-2-45-2"
       cx="1878.1189"
       cy="207.4539"
       r="42.064915" />
  </g>
  <g
     inkscape:label="Layer 1"
     inkscape:groupmode="layer"
     id="layer1"
     transform="translate(-735.72626,172.50108)">
    <path
       style="fill:#d9d9d9;fill-opacity:1;fill-rule:evenodd;stroke:none;stroke-width:1px;stroke-linecap:butt;stroke-linejoin:miter;stroke-opacity:1"
       d="m 1161.5298,534.33821 c 3.2625,-3.45124 8.5284,-1.60697 12.6603,-2.88257 12.7947,-1.09287 25.6545,-0.67603 38.4737,-1.26254 10.6652,-0.30287 21.3705,-0.1843 32.0001,-1.10854 4.7901,-0.62763 9.7369,-0.25373 14.4491,0.56867 2.6339,0.71235 9.6109,4.44586 3.9174,6.09194 -3.3094,2.05052 -7.1776,2.16115 -10.9363,2.12133 -19.2991,0.51207 -38.5848,1.82852 -57.8945,1.75119 -9.8483,-0.30148 -19.6965,-0.60295 -29.5448,-0.90443 -1.0417,-1.45833 -2.0834,-2.91667 -3.125,-4.37505 z"
       id="path4254"
       inkscape:connector-curvature="0" />
    <path
       style="fill:#444d55;fill-opacity:1;fill-rule:evenodd;stroke:none;stroke-width:1px;stroke-linecap:butt;stroke-linejoin:miter;stroke-opacity:1"
       d="m 1351.8197,-305.92848 -12.373,63.13477 -110.4317,28.6582 1.7129,-4.05274 5,-81.42773 -8.5722,78.57227 -23.0567,56.96484 -28.2539,25.13672 -8.6152,-15.56836 8.8554,-30.46289 -9.289,29.67773 -0.5449,-0.98242 -1.9532,-82.62305 0,79.09375 -32.6836,-59.05664 4.1133,-12.89453 -4.2774,12.5957 -1.4375,-2.5957 -8.9277,-50 7.1426,49.64258 2.582,4.83984 -13.0488,38.42383 -49.1895,28.65625 0.014,-0.13476 -0.018,0.13672 -6.0527,3.52539 -2.1231,-27.43555 -21.2148,-76.77149 18.1836,80.3086 0.8203,16.5957 -5.043,9.44531 -19.7324,1.33789 -24.1211,10.52149 2.9453,-25.7793 39.9024,-16.66797 -43.6895,15.15235 -3.6895,27.60547 -22.95508,-15.5625 -5.38671,-26.13672 1.10156,-4.13282 -1.25977,3.3711 -22.31054,-108.24414 19.95312,114.55469 -2.45312,6.56835 3.02343,12.51563 -9.36328,-2.88281 -9.73242,-20.16797 8.43359,19.76953 -47.16406,-14.51367 -13.05469,-20.97071 11.7168,20.5586 -13.0293,-4.00977 -2.25976,-3.33398 2.13086,3.29492 -8.38086,-2.58008 -27.32031,-52.14258 26.07031,52.85743 10.66797,3.46679 27.49804,42.49219 -50.34765,-6.68164 -20.96094,-19.88672 20.70898,20.70899 51.2168,6.8125 2.69922,4.17187 9.3457,31.97461 -37.79297,-4.48828 -23.03515,-22.32031 22.67969,24.10546 58.03515,9.10743 0,-0.002 18.37891,4.43555 10.59961,41.662106 -12.58008,8.82422 -19.24024,-32.81641 18.62891,33.2461 -3.72851,2.61523 -26.2168,98.2539 -22.52344,-40.67578 -14.81445,-4.72265 7.5664,-48.85547 14.28711,-11.42773 1.42774,-33.57227 -3.66992,33.17188 -14.64649,10.35351 -2.12695,11.49414 -23.12695,-13.76953 -9.46485,-21.78516 8.57031,22.85743 23.66016,14.65429 -6.58008,35.57032 -50.7832,-16.1914102 -3.96094,-15.08008 23.91211,-41.2363298 0.26367,-1.13672 45.27539,-13.90234 5.71289,-9.822266 -0.53515,-14.10546 -0.0899,13.83789 -5.53515,9.642566 -44.56836,13.23047 6.04297,-26.027336 -11.8711,-40.66016 11.11329,40.66016 -7.57618,28.283196 -22.76953,38.8554698 -11.07031,-42.1386698 10.24805,55.2617198 -32.67383,-19.8749998 -5.15625,-7.31446 9.79883,-34.29296 -1.96289,-26.962886 0.89257,27.320306 -9.42187,32.94922 -7.36524,-10.44922 -22.32031,-7.5 -11.23633,-28.833986 9.59766,29.546876 23.48633,9.5957 11.36328,16.91992 35.61133,22.1972698 0.7539,4.0664102 69.70118,25.75976 29.29492,61.11328 153.52937,35.005864 22.541,64.80859 31.2773,18.24414 -0.4453,14.77735 c 0,0 21.2129,145.46292 21.2129,155.56445 0,10.10152 -3.0293,125.25782 -3.0293,125.25782 l -11.6172,20.20312 30.459,-1.19141 68.5703,0 -19.9629,-87.86718 -3.832,-56.87891 -7.6328,-99.53906 4.2852,-37.14258 24.2871,-27.14258 73.7636,-76.46289 140.5215,-24.25196 79.2852,-58.570314 72.8574,-7.85742 61.1621,-74.13476 -62.6289,67.68164 -74.9629,4.99609 8.3516,-30.17969 5.4961,-3.85937 9.5429,-17.0410202 86.9278,-10.99023 30.0449,-26.3417998 62.8144,-8.50781 28.0313,-17.42578 -28.5293,16.33789 -60.4297,7.94336 4.9375,-4.33008 15.1524,-51.013666 -17.9297,50.255856 -28.6797,23.37305 -8.8379,-38.4375 17.0625,-25.468746 12.373,-12.87891 2.0215,-30.17774 -3.2832,28.78907 -7.0586,7.92187 -4.4316,-8.61718 -9.1543,-10.73243 -1.0742,-7.63867 0.6308,7.57617 8.7129,10.73243 4.4649,9.63476 -4.4649,5.01172 -16.2383,23.933586 -1.4394,-6.25586 -4.0391,-61.367176 1.7676,62.376946 10.8594,47.22461 0.2969,-0.13086 -6.3594,5.18164 -81.7032,9.65624982 17.7364,-31.66991982 -0.8438,-7.77539 14.7735,-12.22461 10.7129,-21.070306 -3.2129,-31.78711 1.5,31.99023 -11.6172,20.076166 -12.5098,9.74219 -5.2305,-48.236326 1.3301,51.271486 -2.4023,1.87109 -11.3653,8.45898 -12.2558,3.66602 -1.4219,-3.25586 1.1152,-59.511716 35.8204,-54.66015 -38.4004,52.42968 -2.2754,40.550776 -32.1094,-47.070306 -22.3008,-52.73437 2.836,-11.73047 -3.3829,10.4375 -0.6816,-1.61133 0.6484,1.71094 -31.4355,96.984366 -38.1836,-15.556636 -1.7852,-5.35742 3.9278,-13.75 0.9824,-16.375 44.9102,-41.48242 10.7148,-39.64258 -12.2559,39.5293 -27.9863,24.75586 -4.5801,-21.96289 1.5039,-33.09766 -2.0195,32.32422 3.5352,23.23437 0.078,0.81446 -15.0606,13.32031 -24.6425,-14.27539 -9.2871,-28.57031 5.3574,-25.35743 -7.8574,25.71289 5.7988,21.6836 -30.0215,-13.65821 -2.082,-1.77734 8.8047,-30.5332 -9.7071,29.76367 -22.0176,-18.79297 -8.4589,-31.31445 7.3222,31.56836 22.7461,19.78906 -8.8125,27.02148 -4.0625,6.44141 -6.0273,-23.85156 -16.6953,-29.55274 16.0703,30.53516 5.6953,24.38477 -15.291,24.24414 -36.3203,-15.47266 -36.3516,-67.84961 36.9102,-2.98437 -37.7129,1.48632 -5.6836,-10.60742 5.4062,10.61914 -59.9883,2.36328 17.7832,-42.08789 113.7481,-32.00781 11.1113,-64.65039 z m -220.8223,89.00195 33.3008,62.40625 0,1.91016 -32.6895,23.76758 0.7559,-4.85547 3.207,-50.79102 -2.5761,24.62305 -2.1465,26.67383 -6.3106,28.53906 -20.9238,10.99609 0.5391,-11.75586 -1.0704,12.03516 -23.0019,12.08789 -13.2012,-8.94922 -1.9883,-25.70117 3.377,-31.4414 50.3164,-30.62696 12.4121,-38.91797 z m -227.62115,46.91407 12.9707,4.21484 44.08008,77.33984 -14.77344,-1.7539 -10.2832,-32.61914 -31.99414,-47.18164 z m 366.56065,1.97851 35.0293,68.79688 -12.9707,-4.00977 -0.027,-3.17578 -0.068,3.14453 -6.8926,-2.13086 -0.9844,-0.63086 -3.0918,-20.08203 1.4395,19.01953 -26.291,-16.87695 26.3379,17.5039 1.1679,15.43165 -23.4277,17.36328 -9.8574,-11.78125 -1.7149,-43.43946 0,43.57032 10.0528,12.77734 -5.4102,4.009766 -36.9648,18.57031 -25.4668,24.93945 -7.4766,-37.81055 3.668,-2.1621 1.5137,-19.699216 11.8691,-3.0293 9.3438,-6.81836 5.0507,-20.45703 -7.4297,20.57226 -8.0371,4.82227 -10.6621,1.77734 -3.5429,-13.02929 2.6503,-18.18164 -7.4492,-8.46094 6.9063,8.78711 -3.6231,18.99219 2.9746,12.24023 -0.1093,0.0176 -2.5,21.072256 -1.1934,0.67578 -12.1387,-61.388666 39.4024,-36.07422 59.9238,-4.8457 z m -295.63096,1.87695 3.07031,17.62891 -0.7832,-0.24023 -3.36524,-13.34766 1.07813,-4.04102 z m -56.48243,0.83985 47.13477,15.3164 1.83984,4.3125 11.35743,11.5293 1.06054,4.39258 -28.13086,-10.02734 -24.71875,-17.13672 24.24414,18.43554 28.9961,10.34766 2.1914,9.06641 -0.52343,33.74609 -0.25391,-0.0527 -6.99805,-24.06641 6.07227,23.86914 -14.55859,-3.08789 -47.7129,-76.64453 z m 140.38679,11.95703 2.918,59.06836 -0.019,0.14062 -52.1836,-35.37695 0.059,-0.52148 26.5644,-11.70899 18.5723,-1.78515 4.0898,-9.81641 z m 106.0879,1.21094 0,1.10547 3.3028,19.4375 -11.8731,10.5625 -27.5879,14.49804 3.3262,-21.3789 32.832,-24.22461 z m 2.0879,1.54101 7.1992,13.49219 0.377,-0.15039 -4.5586,4.05469 -2.9609,-14.97657 -0.057,-2.41992 z m 337.8848,0.0723 19.7793,52.19336 34.4414,51.660146 -0.9785,17.42383 1.8242,4.13086 -11.4727,3.43164 -11.8711,-3.2832 -19.9492,21.9706998 -47.834,-0.2793 3.5879,-15.6132798 -4.8164,15.6054698 -34.4101,-0.20117 43.1562,-28.9765598 0.1914,-0.79102 24.2149,-3.45898 29.7988,-23.73828 -30.8086,20.70898 -22.2969,2.72852 27.4434,-113.511716 z m -537.82239,1.01953 8.67774,2.82031 2.24414,9.28906 -9.67773,-9.53125 -1.24415,-2.57812 z m 101.73839,2.18555 -3.6192,27.19531 -1.8476,-23.86914 5.4668,-3.32617 z m -90.89463,1.33789 0.55664,0.18164 0.0215,0.12304 25.93169,20.45704 -1.6368,12.24218 -22.0195,-21.68359 -2.85351,-11.32031 z m 395.68563,2.84961 1.5703,1.36523 31.4356,14.75 1.8867,7.05469 23.8262,15.31836 -0.2539,10.85937 -5.3028,18.43555 2.0215,8.332026 42.0059,18.66992 -4.0996,12.65039 -61.8985,7.57227 -18.1816,16.16211 -16.8926,1.78711 0.4766,-20.98047 9.5956,-14.90039 -2.9903,-8.5625 5.7697,-34.621096 -9.4728,24.019536 -2.8359,-8.123046 -24.0332,-10.23828 19.7656,-33.16602 7.6074,-26.38476 z m -391.97274,11.8789 20.78324,21.09766 -0.6699,5.00586 2.2792,24.51953 -19.11715,-4.05469 -0.33789,-34.91992 -2.9375,-11.64844 z m 187.66024,5.92969 10.4746,61.654296 -35.0469,19.85351 9.4922,-45.789056 -15.7148,54.285156 -32.0567,14.93945 -4.4375,-24.41211 1.8711,-40.839836 56.0508,-31.11524 9.3672,-8.57617 z m -160.6153,3.45508 51.3575,40.51562 -3.3223,24.962886 -11.168,52.8281298 -14.2519,-23.3007798 -0.2285,-1.36524 17.3281,-31.71679 -17.6445,29.82812 -7.7891,-46.496086 -13.1621,-2.79297 -3,-25.9961 1.8808,-16.46679 z m 276.0821,16.54297 0.1602,0.10742 7.5937,2.63086 -0.5332,24.85742 -10.5117,28.777336 -17.6895,-21.140616 23.2911,-20.22656 -2.3106,-15.00586 z m 7.8692,2.77734 13.8027,4.78125 59.4746,27.7207 4.3047,12.156246 -1.7793,4.51172 -64.2734,45.7402398 -1.375,-6.2519598 11.7871,-44.64257 -13.2149,43.92773 1.4238,7.9472698 -14.8886,10.5957 -1.3555,-46.8378898 -3.7637,-4.49805 10.0762,-30.476556 -0.2187,-24.67383 z m -189.6505,17.41406 -3.5,39.332026 3.4141,27.07618 -5.4277,2.52929 -11.1094,-30.55078 -0.9766,-28.617186 17.5996,-9.76953 z m -41.3125,5.06836 13.2598,10.460936 -1.4277,27.85742 13.4257,30.46289 -21.998,10.2519598 -0.7129,20.0000002 -3.2813,2.625 -12.6992,-20.75977018 10.6231,-54.72265982 2.8105,-26.175776 z m -78.26567,0.71094 31.52547,7.60742 7.8574,47.142576 2.125,4.35938 -8.3359,14.0917898 -1.9453,18.8418002 -19.87901,-17.1152402 -13.20703,-22.5273398 13.81836,-11.27148 -11.95899,-41.128906 z m 278.84187,10.595696 21.2559,27.01172 0.6816,53.17578 -13.2285,42.77344 -22.4394,12.99023 -6.6016,-17.03125 -13.4121,-62.62304 10,64.28515 6.4629,17.42578 -41.1836,23.84375 -22.5,26.613284 -4.0469,-7.54101 9.2285,-21.404304 -1.498,-46.42968 9.2519,-62.50782 26.4278,-27.14257 39.2851,-21.42774 2.3164,-2.01172 z m -81.9648,8.0918 6.7812,39.91992 -0.2011,0.19727 -10.6641,50.26758 -19.8379,-30.7500002 -47.752,-11.6484398 33.4668,-18.35156 1.6778,-8.09375 36.5293,-21.54102 z m 192.6914,10.56445 1.5234,4.30078 -9.5957,12.62696 -1.7011,23.6894498 -48.7559,5.15625 58.5293,-45.7734398 z m 217.6699,13.30664 0,0.0488 -24.3692,40.0742198 4.3692,-15.7890598 -4.5449,-10.41016 12.4023,-3.875 12.1406,-10.04883 z m -131.6836,6.05664 -37.2011,22.2695398 -7.1836,-8.6347698 6.6406,8.9589798 -52.2441,31.2734402 0.6367,-28.0761702 20.041,-1.96289 19.1933,-16.6679698 50.1172,-7.16016 z m -478.03914,4.29297 12.92773,23.0703198 20.52741,18.5410102 -1.8398,17.82422 -50.11729,7.22852 15.36914,-64.10743 3.13281,-2.55664 z m 580.66414,4.98438 3.3457,7.57226 -9.457,31.57813 -73.043,38.06445 2.1739,6.27734 53.5371,-28.2832 3.789,-2.27344 3.5352,-2.52539 6.6367,0 -7.8535,26.22657 -0.5508,0.0371 -71.2168,54.548824 -13.6191,2.44141 18.5683,-25.378914 7.3535,-23.39648 -2.3535,-7.67383 -18.2129,-9.64258 -5,-7.5 7.9493,-34.5957002 53.1211,-1.47656 18.5722,-22.1425798 11.0703,1.78516 11.6543,-3.64258 z m -535.8242,2.95312 16.0097,32.83008 -3.625,17.14649 0.3575,1.77539 -21.8633,-18.82422 1.957,-19.8164102 7.1641,-13.1113298 z m 337.0645,14.2246098 -2.3321,32.4882802 -1.2754,0.76368 1.4278,69.99999 -77.2617,72.361334 3.7363,-15.35352 -4.5469,-31.82031 -15.7051,-19.63086 34.8496,-54.306634 6.25,-40.5371102 -1.6777,-7.63477 1.1621,-0.9082 55.3731,-5.42188 z m -272.1739,1.45117 1.4238,3.22852002 55.7129,15.00000018 17.1426,30.71484 -1.1816,39.27148 -12.334,26.433604 10.5918,31.44531 -1.6524,54.83984 -15.1621,-8.5371 -36.8711,-95.964854 -26.2637,-34.84961 -17.1718,-10.60742 -1.0098,-8.08203 10.6055,-13.13086 1.164,-21.5332002 15.0059,-8.22852 z m 213.9297,6.2168 1.0645,5.93945 -5.7149,39.2871102 -35.166,53.283204 -5.4238,-6.779294 -6.5586,-16.92188 28.7812,-17.92969 16.1622,-51.5175702 6.8554,-5.36133 z m 160.7657,0.67969 -8.4043,27.2363302 -20.5821,-17.68946 -4.0937,-8.6269502 33.0801,-0.91992 z m -34.8282,0.96875 3.6992,8.9355502 22.1153,19.30664 -1.7578,5.69336 3.5703,9.64257 20.3574,12.14258 -9.502,23.99609 -24.041,29.945314 -94.5039,16.94336 28.7617,-29.81445 -2.8574,-67.142574 43.7266,-29.3593802 10.4316,-0.28906 z m -414.1328,11.9472602 23.0332,20.80469 14.8554,73.646484 -93.25589,-18.841794 -7.7832,-14.05664 8.4336,-35.18164 52.88679,-7.83594 1.8301,-18.53516 z m 28.1386,2.98829 5.4063,11.08593 0,25.05664 18.5723,10.71289 25.7148,33.572274 7.1484,20.55078 -41.1191,-8.3086 -17.8164,-81.884764 2.0937,-10.78515 z m 204.6036,60.49999 5.8027,15.64258 22.1446,29.285164 4.2851,29.28515 -7.1426,25 0.6973,-0.41797 -60.6973,56.84766 -0.1621,1.58203 -8.7597,-14.28906 -19.8067,-11.15039 2.0977,-73.4043 32.3574,-40.199224 29.1836,-18.18164 z m -64.1836,151.423834 12.1309,7.07617 13.7109,30.68555 -2.998,29.31446 2.8574,70 -25.7012,-137.07618 z"
       id="path4165"
       inkscape:connector-curvature="0" />
    <path
       style="fill:#898f95;fill-opacity:1;fill-rule:evenodd;stroke:none;stroke-width:0.54719073px;stroke-linecap:butt;stroke-linejoin:miter;stroke-opacity:1"
       d="m 1529.1841,464.0822 15.6384,-62.47899 22.2089,-16.98986 15.4683,-9.39992 18.6995,4.92889 9.567,23.69642 16.7421,27.27322 3.0477,36.68767 -35.1697,9.42615 -35.6543,-6.01872 z"
       id="path4310"
       inkscape:connector-curvature="0"
       sodipodi:nodetypes="ccccccccccc" />
    <path
       style="fill:#ececec;fill-opacity:1;fill-rule:evenodd;stroke:none;stroke-width:1px;stroke-linecap:butt;stroke-linejoin:miter;stroke-opacity:1"
       d="m 1209.8666,350.53695 c 1.6827,2.67177 4.157,4.99363 4.5372,8.27429 1.2869,4.89744 2.5752,9.79693 4.0825,14.63225 -0.7143,1.13095 -1.4286,2.26191 -2.1429,3.39286 -3.6805,-0.51998 -0.7902,5.13622 -1.5627,7.29911 0.027,7.97494 0.82,15.90494 1.4915,23.84198 -0.1443,1.87187 0.8819,6.56354 -2.1356,4.70108 2.1888,-3.29355 -0.099,-7.28106 -0.2732,-10.88692 -1.614,-3.9529 -2.6147,-7.9349 -1.675,-12.21697 -1.1956,-3.8121 -3.7679,-7.6915 -4.1496,-11.46389 0.6254,-1.19861 1.2507,-2.39721 1.8761,-3.59582 -1.5555,-4.03639 -3.9289,-7.8449 -4.3625,-12.22085 -0.3316,-1.87876 -0.6631,-3.75753 -0.9947,-5.63629 3.0954,-2.08241 2.9011,4.22503 4.454,5.93982 1.1589,3.2588 0.2043,-2.88534 0.3262,-4.23986 0,-2.43744 -0.4797,-5.13494 -0.1882,-7.4111 0.239,-0.13656 0.4779,-0.27313 0.7169,-0.40969 z"
       id="path4320"
       inkscape:connector-curvature="0" />
    <path
       style="fill:#ececec;fill-opacity:1;fill-rule:evenodd;stroke:none;stroke-width:1px;stroke-linecap:butt;stroke-linejoin:miter;stroke-opacity:1"
       d="m 1264.0361,188.15493 c -1.6388,4.35995 -2.9225,8.85304 -4.7877,13.12713 -3.5391,3.62131 -7.0781,7.24268 -10.6172,10.86399 -3.2178,1.22769 -7.0299,1.51421 -9.3566,4.38072 -3.3182,3.03716 -6.6798,6.02862 -9.9099,9.16046 -1.7847,4.09502 -4.3995,7.99431 -4.6073,12.59333 -0.6611,3.87817 -0.8112,7.81965 -0.8749,11.74621 -3.6529,0.53133 -2.3976,-4.56592 -3.7365,-6.65177 -1.4942,-2.38892 -3.1459,-5.27969 -6.086,-5.9891 -3.4228,-0.35022 -5.761,-2.77497 -8.2317,-4.88177 -2.9987,-1.38959 -1.6712,-4.44179 1.3468,-3.3166 2.0214,0.61747 2.6758,2.84298 3.983,4.30356 0.7097,1.72561 2.5457,2.52215 4.1019,1.08442 2.0566,-1.9606 3.2035,-4.71485 5.4838,-6.49611 7.948,-6.78588 15.7579,-13.73621 23.5461,-20.70734 2e-4,-3.7301 4.7157,-4.27745 6.0946,-7.2838 3.0058,-3.63896 6.5922,-6.75293 10.1778,-9.79703 1.0908,-0.81415 2.2502,-1.53876 3.4738,-2.1363 z"
       id="path4322"
       inkscape:connector-curvature="0" />
    <path
       style="fill:#ececec;fill-opacity:1;fill-rule:evenodd;stroke:none;stroke-width:1px;stroke-linecap:butt;stroke-linejoin:miter;stroke-opacity:1"
       d="m 1218.8434,280.2292 c -0.7759,2.00766 -1.1694,4.62568 -1.5931,6.35841 -1.7794,1.44714 0.5854,3.9244 0.4126,5.78486 0.7241,2.58923 -0.8722,5.42663 0.416,7.84798 1.4609,-1.07404 0.8085,-3.86352 0.7556,-5.62806 -0.3511,-2.13311 -0.3956,-4.58874 1.4587,-6.06795 0.1106,-1.73878 -2.6522,-3.04893 -0.7416,-4.80999 0.2723,-0.84096 0.6464,-3.50809 -0.7082,-3.48525 z"
       id="path4324"
       inkscape:connector-curvature="0" />
    <path
       style="fill:#ececec;fill-opacity:1;fill-rule:evenodd;stroke:none;stroke-width:1px;stroke-linecap:butt;stroke-linejoin:miter;stroke-opacity:1"
       d="m 1220.0042,271.38992 c -0.97,1.8956 -0.6972,3.07841 0,4.82143 1.1127,-0.86487 1.3405,-1.97957 1.9923,-3.18907 -0.089,-0.59528 -1.1888,-0.59069 -1.2781,-1.18593 -0.2381,-0.14878 -0.4761,-0.29765 -0.7142,-0.44643 z"
       id="path4326"
       inkscape:connector-curvature="0"
       sodipodi:nodetypes="ccccc" />
    <path
       style="fill:#ececec;fill-opacity:1;fill-rule:evenodd;stroke:none;stroke-width:1px;stroke-linecap:butt;stroke-linejoin:miter;stroke-opacity:1"
       d="m 1194.022,107.37206 c -2.7976,3.30357 -5.5952,6.60715 -8.3928,9.91072 0.5103,1.32287 -0.067,2.72257 -1.5444,2.91501 -1.2233,0.59411 -2.7704,0.98848 -2.2507,2.6929 -0.048,2.29725 -0.022,4.59551 0.045,6.89209 -1.6416,-1.32038 -1.2709,-3.65944 -1.5023,-5.52067 -0.1589,-3.31153 -3.1328,-5.52737 -3.7382,-8.68605 1.8657,0.56836 2.8756,2.38303 4.0351,3.80493 0.7707,-1.87661 2.754,-3.05154 3.1288,-5.1279 0.719,-1.96431 2.6417,-3.05446 4.0317,-4.49639 1.348,-1.18099 2.5227,-2.65647 4.1225,-3.48881 2.7915,-0.94548 4.4987,-3.50703 6.5784,-5.42034 1.1365,-0.936364 0.8516,-3.459758 2.2316,-3.692985 0.7457,1.114921 -0.6223,2.455629 -0.9589,3.567795 -0.8394,2.71889 -3.4316,4.25097 -5.2162,6.29159 -0.1629,0.15521 -0.3504,0.29452 -0.5697,0.35811 z"
       id="path4328"
       inkscape:connector-curvature="0" />
    <path
       style="fill:#ececec;fill-opacity:1;fill-rule:evenodd;stroke:none;stroke-width:1px;stroke-linecap:butt;stroke-linejoin:miter;stroke-opacity:1"
       d="m 1271.1071,55.82495 c -5.4037,2.578299 -10.7287,5.31144 -15.8604,8.402564 -3.1913,1.917707 -6.5879,3.56417 -9.6234,5.698528 -2.3432,2.952885 -6.2535,3.778465 -9.0019,6.255325 -2.4222,1.454389 -4.6015,3.951566 -7.3009,4.60467 -1.0971,-0.07078 -2.1943,-0.141569 -3.2914,-0.212353 1.6417,-2.938177 4.2497,-5.61935 7.3129,-6.963388 2.7583,-0.779583 5.4958,-1.639461 7.9266,-3.197658 2.97,-1.21166 4.5618,-4.139796 6.809,-6.263795 2.4257,-2.236551 5.1857,-4.097586 7.751,-6.177323 2.2816,-0.662951 3.6939,1.989769 5.8587,0.03709 2.6152,-0.529064 5.1477,-3.056895 7.8132,-2.370709 0.3707,-0.02528 2.3833,1.04087 1.6066,0.187052 z"
       id="path4330"
       inkscape:connector-curvature="0" />
    <path
       style="fill:#ececec;fill-opacity:1;fill-rule:evenodd;stroke:none;stroke-width:1px;stroke-linecap:butt;stroke-linejoin:miter;stroke-opacity:1"
       d="m 1168.4504,20.59588 c -0.4632,2.299274 -1.5705,4.545661 -1.1348,6.932835 0.2881,3.691401 1.0104,7.331209 1.5136,10.997375 1.5994,2.230753 3.1988,4.461507 4.7982,6.69226 0.5014,-2.15983 2.1521,-3.336252 3.5176,-4.884873 0.7614,-0.785621 1.3757,-1.59564 0.5546,-2.643926 -0.9472,-1.88003 -1.32,-3.668955 0.6092,-5.084358 1.2432,-2.367257 0.9677,-5.33766 1.585,-7.951669 0.4999,-3.519279 0.9648,-7.051571 2.1533,-10.419498 0.4708,-1.331568 0.8181,-2.683031 0.3863,-4.063035 -0.2416,-1.4495305 -0.4832,-2.8990608 -0.7248,-4.348591 -2.5762,1.363623 -2.5064,4.327833 -3.185,6.818451 -0.9213,3.945798 -1.8527,7.890737 -2.6233,11.869369 -2.4183,1.993733 -3.9609,-1.040782 -5.7926,-2.414896 -0.5524,-0.499818 -1.1049,-0.999633 -1.6573,-1.499444 z"
       id="path4332"
       inkscape:connector-curvature="0" />
    <path
       style="fill:#ececec;fill-opacity:1;fill-rule:evenodd;stroke:none;stroke-width:1px;stroke-linecap:butt;stroke-linejoin:miter;stroke-opacity:1"
       d="m 1057.0577,17.55063 c 0.7842,1.580929 2.3774,2.921358 2.5912,4.68777 -0.764,1.352345 -1.2126,2.772841 -1.2572,4.349315 -0.072,1.654713 -0.2547,3.413116 0.043,5.009134 1.4238,0.08764 0.5526,-1.931724 1.0177,-2.769793 0.3964,-1.163576 0.5138,-2.947711 2.1054,-3.046788 1.4762,-0.05956 1.7887,-1.350184 1.8603,-2.501374 1.2928,-0.689651 2.2449,-1.666183 1.8825,-3.252955 0.083,-2.269076 0.135,-4.544185 -0.028,-6.811073 -0.2488,-1.009449 -2.2756,-2.452522 -1.7172,-0.455874 0.084,1.695868 0.1104,3.358653 -0.3238,4.99869 -0.055,1.52509 -1.6293,2.150939 -2.5569,3.114148 -0.891,-0.343632 -0.7738,-2.262233 -2.1609,-2.500291 -0.4944,-0.257905 -0.9742,-0.540877 -1.4562,-0.820909 z"
       id="path4334"
       inkscape:connector-curvature="0" />
    <path
       style="fill:#ececec;fill-opacity:1;fill-rule:evenodd;stroke:none;stroke-width:1px;stroke-linecap:butt;stroke-linejoin:miter;stroke-opacity:1"
       d="m 1144.9149,188.62206 c -0.8804,-2.81525 -1.6761,-5.66229 -2.6095,-8.45764 l -7.9263,-17.61379 c -2.1284,8.772 0.7939,12.16408 4.3342,19.9926 0.9958,3.51437 1.9915,7.02875 2.9873,10.54312 4.2263,1.73464 8.4332,3.52623 12.6716,5.22538 1.2524,0.34154 2.5047,0.68308 3.757,1.02462 -1.8364,-5.85172 -8.5831,-8.28628 -13.2143,-10.71429 z"
       id="path4336"
       inkscape:connector-curvature="0"
       sodipodi:nodetypes="cccccccc" />
    <path
       style="fill:#ececec;fill-opacity:1;fill-rule:evenodd;stroke:none;stroke-width:1px;stroke-linecap:butt;stroke-linejoin:miter;stroke-opacity:1"
       d="m 1611.0756,403.9792 c -1.9015,-0.76825 -2.66,-2.50808 -3.2544,-4.29666 -0.8368,-2.91754 -2.3211,0.68292 -1.4959,2.30089 -1.1999,3.9627 -2.8231,5.06609 -6.0237,5.94817 -2.435,-0.44928 -2.3147,3.0175 -1.8832,4.60798 0.3515,3.60379 2.7035,6.3834 4.484,9.37884 1.6968,2.72269 3.3937,5.44537 5.0906,8.16804 4.4685,2.37773 9.0181,4.64429 13.5232,6.91742 1.7857,2.02511 2.4185,4.80613 3.6222,7.1866 0.9418,1.90421 1.985,5.79206 3.5555,6.14597 2.0317,-2.62959 0.3789,-6.18942 0.6766,-9.23468 -0.1803,-3.71624 -0.3899,-7.43137 -0.6694,-11.14158 -1.9111,-4.28619 -4.7919,-8.22815 -5.5162,-12.94646 -0.1773,-3.74035 -2.4611,-6.32891 -5.1229,-8.72349 -1.2914,-1.52384 -2.7213,-2.87087 -4.6889,-3.38422 -0.7658,-0.30894 -1.5317,-0.61788 -2.2975,-0.92682 z"
       id="path4366"
       inkscape:connector-curvature="0"
       sodipodi:nodetypes="cccccccccccccccc" />
    <path
       style="fill:#ececec;fill-opacity:1;fill-rule:evenodd;stroke:none;stroke-width:1px;stroke-linecap:butt;stroke-linejoin:miter;stroke-opacity:1"
       d="m 1604.5586,444.87206 c -4.0865,0.063 -0.1868,4.46195 -0.095,6.68143 -0.2867,3.26649 -3.7707,6.25703 -2.1938,10.08785 0.8686,3.57762 0.3056,6.7454 -2.776,8.99614 -1.0409,1.63944 -3.2427,5.66722 -1.7643,6.70148 7.6329,-1.90832 15.1988,-4.24683 22.8749,-5.88092 3.6078,-0.181 6.9771,-1.69925 10.3906,-2.6469 4.4088,-2.56246 -0.6813,-6.39002 -0.7813,-9.73552 -2.5028,-0.12998 0.5999,7.1125 -3.9182,6.77512 -3.0931,1.80035 -6.2751,0.52369 -8.4283,-1.86913 -1.7676,-2.51213 -3.5568,3.343 -3.7951,-0.0411 -1.0603,-3.07712 -0.3464,-7.26455 -2.6025,-9.59596 -2.5847,-1.37513 -4.693,-3.38886 -5.4828,-6.28017 -0.476,-1.0641 -0.952,-2.1282 -1.428,-3.19229 z"
       id="path4368"
       inkscape:connector-curvature="0" />
    <path
       style="fill:#ececec;fill-opacity:1;fill-rule:evenodd;stroke:none;stroke-width:1px;stroke-linecap:butt;stroke-linejoin:miter;stroke-opacity:1"
       d="m 1599.4067,386.39737 c -0.5472,0.39983 -1.0943,0.79972 -1.6415,1.19955 0.484,0.48405 0.9681,0.96805 1.4521,1.4521 0.1761,0.57154 0.1973,1.21147 0.5887,1.69139 0.6983,1.09743 1.3601,2.2214 2.1818,3.23339 0.2469,0.27468 0.5809,0.86938 0.773,0.94278 -0.011,-0.36108 0.1986,-0.77845 0.049,-1.10396 -0.545,-0.76712 -1.0901,-1.53424 -1.6351,-2.30136 -0.021,-0.7997 -0.042,-1.59941 -0.063,-2.39911 -0.5683,-0.90491 -1.1365,-1.80987 -1.7048,-2.71478 z"
       id="path4376"
       inkscape:connector-curvature="0" />
    <path
       style="fill:#ececec;fill-opacity:1;fill-rule:evenodd;stroke:none;stroke-width:1px;stroke-linecap:butt;stroke-linejoin:miter;stroke-opacity:1"
       d="m 1582.5934,375.94349 c -1.6369,1.22024 -3.2738,2.44047 -4.9107,3.66071 0.5866,2.01796 -3.8906,4.1311 -0.6193,5.12116 1.4683,-0.86047 3.4397,-2.31169 4.9065,-0.47257 2.5566,1.51928 5.0047,3.23006 7.6771,4.54784 2.3356,-0.74185 4.5478,-2.26786 7.0697,-2.07065 0.904,-1.10581 0.3216,-2.77541 2.1451,-3.25159 0.9327,-1.0136 2.191,-0.74151 3.3501,-0.48559 -0.3193,-1.76334 -1.1939,-3.56375 -3.302,-3.66738 -2.318,-0.0595 -3.5817,-2.24264 -5.7693,-2.48417 -2.1679,-0.59696 -4.3542,-1.12961 -6.5293,-1.70135 -1.3431,0.24826 -2.6528,0.679 -4.0179,0.80359 z"
       id="path4378"
       inkscape:connector-curvature="0" />
    <path
       style="fill:#7c8287;fill-opacity:1;fill-rule:evenodd;stroke:none;stroke-width:1px;stroke-linecap:butt;stroke-linejoin:miter;stroke-opacity:1"
       d="m 1555.272,405.05063 16.7857,-9.28571 9.9122,3.38762 9.195,-1.06619 -1.5279,17.87727 -2.7727,19.55491 6.3881,29.6779 2.1339,12.02935 -36.815,-6.28945 -29.3872,-6.85413 12.1593,-30.81728 6.9643,-24.10714 z"
       id="path4397"
       inkscape:connector-curvature="0"
       sodipodi:nodetypes="ccccccccccccc" />
    <circle
       style="opacity:1;fill:#f6d4f6;fill-opacity:0.49101796;stroke:none;stroke-width:3.29999995;stroke-miterlimit:4;stroke-dasharray:none;stroke-opacity:1;filter:url(#filter4809)"
       id="path4780"
       cx="756.73553"
       cy="-57.078255"
       r="358.03168"
       clip-path="url(#clipPath4838)" />
    <text
       xml:space="preserve"
       style="font-style:normal;font-weight:normal;font-size:9.82683945px;line-height:125%;font-family:sans-serif;letter-spacing:0px;word-spacing:0px;fill:#686d71;fill-opacity:1;stroke:none;stroke-width:1px;stroke-linecap:butt;stroke-linejoin:miter;stroke-opacity:1"
       x="1546.6592"
       y="150.93263"
       id="text4846"
       sodipodi:linespacing="125%"
       transform="matrix(1.0347136,0.17283058,-0.19189703,0.93439801,0,0)"><tspan
         sodipodi:role="line"
         x="1546.6592"
         y="150.93263"
         id="tspan4854"
         style="font-style:italic;font-variant:normal;font-weight:500;font-stretch:normal;font-family:'Chancery URW';-inkscape-font-specification:'Chancery URW Medium Italic';text-align:center;text-anchor:middle;fill:#686d71;fill-opacity:1">smitty</tspan><tspan
         sodipodi:role="line"
         x="1546.6592"
         y="163.21619"
         id="tspan4858"
         style="font-style:italic;font-variant:normal;font-weight:500;font-stretch:normal;font-family:'Chancery URW';-inkscape-font-specification:'Chancery URW Medium Italic';text-align:center;text-anchor:middle;fill:#686d71;fill-opacity:1">werben</tspan><tspan
         sodipodi:role="line"
         x="1546.6592"
         y="175.49973"
         id="tspan4860"
         style="font-style:italic;font-variant:normal;font-weight:500;font-stretch:normal;font-family:'Chancery URW';-inkscape-font-specification:'Chancery URW Medium Italic';text-align:center;text-anchor:middle;fill:#686d71;fill-opacity:1">jagger</tspan><tspan
         sodipodi:role="line"
         x="1546.6592"
         y="187.78328"
         id="tspan4862"
         style="font-style:italic;font-variant:normal;font-weight:500;font-stretch:normal;font-family:'Chancery URW';-inkscape-font-specification:'Chancery URW Medium Italic';text-align:center;text-anchor:middle;fill:#686d71;fill-opacity:1">man</tspan><tspan
         sodipodi:role="line"
         x="1546.6592"
         y="200.06683"
         id="tspan4864"
         style="font-style:italic;font-variant:normal;font-weight:500;font-stretch:normal;font-family:'Chancery URW';-inkscape-font-specification:'Chancery URW Medium Italic';text-align:center;text-anchor:middle;fill:#686d71;fill-opacity:1">jensen</tspan><tspan
         sodipodi:role="line"
         x="1546.6592"
         y="212.35037"
         style="font-style:italic;font-variant:normal;font-weight:500;font-stretch:normal;font-family:'Chancery URW';-inkscape-font-specification:'Chancery URW Medium Italic';text-align:center;text-anchor:middle;fill:#686d71;fill-opacity:1"
         id="tspan4866">#1</tspan></text>
    <path
       style="fill:#ececec;fill-opacity:1;fill-rule:evenodd;stroke:none;stroke-width:1px;stroke-linecap:butt;stroke-linejoin:miter;stroke-opacity:1"
       d="m 1259.7429,502.81742 c -2.6691,1.64206 -6.3098,3.0098 -5.9531,6.85712 -0.8338,3.57686 -0.5465,7.61075 -3.5698,10.16687 -1.6293,2.98971 -4.6567,4.44314 -7.9204,4.77172 -2.4221,1.23492 -4.5461,0.11301 -6.4814,-1.43162 -2.4568,-1.68299 -5.1655,-3.28951 -8.2325,-3.27574 -2.2446,-0.22446 -4.4891,-0.44891 -6.7337,-0.67337 -1.8247,1.69836 -3.0556,4.81451 -6.0348,4.50379 -4.6386,0.43486 -9.2771,0.86973 -13.9157,1.30459 -2.6096,2.90416 -5.2191,5.80841 -7.8287,8.71257 14.7864,0.45226 29.5648,1.39192 44.3567,1.51696 9.7949,-0.63193 19.5897,-1.26385 29.3845,-1.89577 -0.2488,-5.42031 -1.6028,-10.68017 -3.1202,-15.85974 -1.317,-4.89912 -2.6339,-9.79825 -3.9509,-14.69738 z"
       id="path4252"
       inkscape:connector-curvature="0" />
    <path
       style="fill:#ececec;fill-opacity:1;fill-rule:evenodd;stroke:none;stroke-width:1px;stroke-linecap:butt;stroke-linejoin:miter;stroke-opacity:1"
       d="m 1545.2799,468.08821 c -0.4147,-2.45383 -2.8775,-3.73041 -3.8461,-5.90011 -0.329,-1.68917 0.3204,-3.63339 -0.8197,-5.10847 -1.2353,-2.65238 -1.9553,-5.50486 -2.5746,-8.3534 -0.8087,-1.16424 -3.0614,-0.56269 -3.3597,-2.13151 0.9975,-1.06182 0.066,-4.27654 -1.4669,-2.69365 -1.4046,2.25691 -1.4056,5.03235 -2.4439,7.42623 -1.0749,1.62224 -3.2138,1.65743 -4.8051,2.50178 -1.9575,0.82268 -3.6327,2.25504 -4.7278,4.07461 -1.0504,1.44898 -2.8542,1.79167 -4.4344,2.31518 -1.5108,0.61062 -3.9674,2.52438 -2.4327,4.23041 1.4489,1.12901 3.4147,0.80106 5.1133,1.19793 3.9612,0.5784 7.8551,1.60371 11.586,3.04593 2.8986,0.62531 5.8243,-0.27444 8.7404,-0.23154 1.8239,-0.12207 3.6478,-0.24405 5.4712,-0.37339 z"
       id="path4264"
       inkscape:connector-curvature="0" />
  </g>
</svg>
