<?xml version="1.0" encoding="UTF-8" standalone="no"?>
<!-- Created with Inkscape (http://www.inkscape.org/) -->

<svg
   xmlns:dc="http://purl.org/dc/elements/1.1/"
   xmlns:cc="http://creativecommons.org/ns#"
   xmlns:rdf="http://www.w3.org/1999/02/22-rdf-syntax-ns#"
   xmlns:svg="http://www.w3.org/2000/svg"
   xmlns="http://www.w3.org/2000/svg"
   xmlns:sodipodi="http://sodipodi.sourceforge.net/DTD/sodipodi-0.dtd"
   xmlns:inkscape="http://www.inkscape.org/namespaces/inkscape"
   width="123.06897mm"
   height="117.0101mm"
   viewBox="0 0 123.06897 117.0101"
   version="1.1"
   id="svg2224"
   inkscape:version="0.92.4 (5da689c313, 2019-01-14)"
   sodipodi:docname="star-red.svg">
  <title
     id="title2242">Star</title>
  <defs
     id="defs2218" />
  <sodipodi:namedview
     id="base"
     pagecolor="#ffffff"
     bordercolor="#666666"
     borderopacity="1.0"
     inkscape:pageopacity="0.0"
     inkscape:pageshadow="2"
     inkscape:zoom="1.2596698"
     inkscape:cx="242.85714"
     inkscape:cy="191.42857"
     inkscape:document-units="mm"
     inkscape:current-layer="layer1"
     showgrid="false"
     fit-margin-top="0"
     fit-margin-left="0"
     fit-margin-right="0"
     fit-margin-bottom="0"
     inkscape:window-width="1920"
     inkscape:window-height="986"
     inkscape:window-x="-11"
     inkscape:window-y="-11"
     inkscape:window-maximized="1"
     inkscape:snap-global="false" />
  <metadata
     id="metadata2221">
    <rdf:RDF>
      <cc:Work
         rdf:about="">
        <dc:format>image/svg+xml</dc:format>
        <dc:type
           rdf:resource="http://purl.org/dc/dcmitype/StillImage" />
        <dc:title>Star</dc:title>
        <cc:license
           rdf:resource="http://creativecommons.org/publicdomain/zero/1.0/" />
      </cc:Work>
      <cc:License
         rdf:about="http://creativecommons.org/publicdomain/zero/1.0/">
        <cc:permits
           rdf:resource="http://creativecommons.org/ns#Reproduction" />
        <cc:permits
           rdf:resource="http://creativecommons.org/ns#Distribution" />
        <cc:permits
           rdf:resource="http://creativecommons.org/ns#DerivativeWorks" />
      </cc:License>
    </rdf:RDF>
  </metadata>
  <g
     inkscape:label="Layer 1"
     inkscape:groupmode="layer"
     id="layer1"
     transform="translate(-32.902771,-115.30735)">
    <path
       style="fill:#ff0000;stroke:none;stroke-width:0.26458332px;stroke-linecap:butt;stroke-linejoin:miter;stroke-opacity:1"
       d="m 35.213231,155.86223 42.008362,-3.36067 19.533888,-35.49707 17.013389,37.59749 40.11798,6.93137 -31.08618,27.30544 5.041,38.6477 -35.497066,-19.53389 -36.127192,16.38326 7.351464,-38.43765 z"
       id="path2244"
       inkscape:connector-curvature="0" />
    <path
       style="fill:#000000;stroke-width:1"
       d="m 96.978161,115.30764 c -0.0192,2e-4 -0.085,0.0864 -0.14602,0.19142 -0.0611,0.10505 -0.87809,1.44398 -1.81568,2.97539 -7.68955,12.55953 -13.61822,22.979 -17.55253,30.84815 -1.11043,2.221 -1.24169,2.45135 -1.41802,2.48839 -0.34844,0.0732 -3.20925,0.2427 -5.38016,0.31881 -6.41666,0.22497 -6.98506,0.26301 -8.90454,0.59563 -1.1789,0.20428 -1.86091,0.37207 -2.82855,0.69582 -0.68538,0.22931 -0.72246,0.23406 -1.25609,0.16314 -0.86689,-0.11521 -5.74315,-0.15654 -7.88855,-0.0669 -5.28157,0.22071 -9.91156,0.72775 -14.72736,1.61284 -0.84227,0.1548 -1.63391,0.29906 -1.75927,0.32072 -0.12535,0.0217 -0.24243,0.0628 -0.26008,0.0914 -0.0311,0.0503 1.55323,1.4367 2.84772,2.49206 0.3484,0.28404 0.65383,0.58935 0.67869,0.67856 0.0494,0.17709 0.75757,1.06622 2.35842,2.9607 3.57004,4.22485 6.607,7.17549 9.02662,8.77021 0.60065,0.39588 0.8385,0.61298 1.51414,1.38253 1.71565,1.95411 3.62446,4.3056 4.31305,5.31301 0.17615,0.2577 1.17555,1.23178 2.81917,2.74793 4.5738,4.21909 5.39394,5.02883 5.93962,5.8643 0.19919,0.30496 0.20366,0.33072 0.16668,0.97453 -0.0547,0.95238 -0.24973,1.86789 -0.88316,4.14609 -0.69934,2.51524 -0.84146,3.07326 -1.49633,5.87763 -0.63592,2.72326 -1.60944,6.62804 -2.1867,8.77075 -0.62969,2.3373 -0.79667,3.31303 -1.22088,7.13494 -0.3858,3.47582 -0.66215,4.99299 -1.21735,6.68249 -0.53331,1.62287 -1.18407,3.79651 -1.49347,4.98861 -0.29736,1.14569 -0.55597,2.41833 -0.50236,2.47194 0.0136,0.0136 4.37571,-1.9997 9.69349,-4.47415 16.74219,-7.79044 28.04613,-12.92857 28.93227,-13.15097 0.35858,-0.09 3.75469,1.7568 10.946719,5.95281 6.9248,4.04009 8.86854,5.13583 11.55513,6.51389 1.90252,0.97588 2.97265,1.46983 3.79098,1.74975 0.48221,0.16494 0.66502,0.27705 1.20782,0.7415 2.16203,1.84996 4.92439,3.61702 8.24434,5.27371 l 1.68802,0.84238 v 0.61873 c 0,0.49526 -0.0202,0.6186 -0.10128,0.6186 -0.0876,0 -5.52116,-1.71467 -7.62044,-2.40478 -0.39928,-0.13126 -0.73552,-0.22909 -0.74721,-0.21739 -0.0211,0.0211 8.25409,3.44915 8.33923,3.45462 0.0244,0.002 0.0654,-0.13809 0.0912,-0.31038 0.031,-0.20697 0.0815,-0.31325 0.14873,-0.31325 0.056,0 0.5563,0.11381 1.11185,0.25288 0.55555,0.13907 1.02585,0.23718 1.04509,0.21794 0.0192,-0.0192 -0.49012,-2.8094 -1.13197,-6.20025 -0.64185,-3.39084 -1.17508,-6.15699 -1.18499,-6.14709 -0.01,0.01 -0.0193,2.22172 -0.0208,4.9152 -0.002,3.44041 -0.0246,4.87538 -0.0763,4.8237 -0.19557,-0.19557 -1.03486,-7.01499 -2.1829,-17.7358 -1.14503,-10.69265 -1.91732,-16.43785 -2.97035,-22.09833 l -0.21318,-1.14596 0.23711,-0.21141 c 0.1304,-0.11628 0.83054,-0.71799 1.55587,-1.33713 1.99581,-1.70361 3.74378,-3.38049 4.45118,-4.27008 0.0766,-0.0963 0.7657,-0.65822 1.5314,-1.24876 8.48993,-6.54769 16.49977,-13.40951 23.14506,-19.82787 l 0.8005,-0.77318 -0.45246,-0.004 c -1.19363,-0.009 -2.34755,-0.28311 -5.58002,-1.32379 -2.13576,-0.68761 -2.49757,-0.7837 -3.53334,-0.93755 -1.45946,-0.21679 -4.64458,-0.59225 -7.69726,-0.90737 -5.154,-0.53203 -7.01026,-0.77944 -9.46684,-1.2618 -1.48054,-0.29071 -2.61975,-0.59928 -5.86471,-1.58837 -2.06606,-0.62975 -3.31526,-0.97429 -3.7937,-1.04631 -0.71481,-0.10761 -2.27207,-0.20958 -4.60645,-0.30169 l -1.24793,-0.0492 -0.54586,-1.32258 c -0.7622,-1.84656 -4.19303,-10.44353 -5.13912,-12.8777 -2.00025,-5.14633 -4.32858,-10.34473 -5.84594,-13.05172 -0.36,-0.64223 -1.74198,-2.77254 -2.394039,-3.69037 -0.2623,-0.36921 -0.48903,-0.89777 -1.21912,-2.84242 -0.49327,-1.31387 -1.0488,-2.84042 -1.23447,-3.39236 -0.18567,-0.55194 -0.3532,-1.00332 -0.37238,-1.00308 z m 0.99641,8.21605 c 0.0696,-0.0385 0.56923,1.075 2.373919,5.26719 4.96445,11.53217 4.95633,11.51367 6.41098,14.46443 1.42431,2.88923 2.68437,5.14972 4.07445,7.30897 l 0.53784,0.83531 0.33472,1.41271 0.33472,1.41258 -0.53349,0.53335 -0.53335,0.53349 -0.0998,-0.24064 c -0.0549,-0.13234 -2.98656,-7.2211 -6.51471,-15.75275 -5.026079,-12.15384 -6.410329,-15.56409 -6.393719,-15.7522 10e-4,-0.0122 0.004,-0.0199 0.008,-0.0224 z m -3.44878,0.27586 c 0.051,-0.0504 -0.0415,6.32047 -0.12331,8.49232 -0.15889,4.21708 -0.26606,5.04588 -0.89934,6.95045 -0.63232,1.90167 -0.66937,2.1431 -0.52969,3.45993 0.35264,3.3244 0.29778,4.02549 -0.4878,6.22621 l -0.2609,0.7309 -0.092,2.81468 c -0.17507,5.35287 -0.57213,9.98072 -1.35602,15.80577 -0.28488,2.1169 -0.75468,5.30864 -0.78596,5.33993 -0.01,0.01 -0.57786,-0.94511 -1.26262,-2.12173 -2.61845,-4.49929 -7.08063,-12.21595 -8.71665,-15.07419 l -1.70624,-2.98082 0.50888,-1.09132 c 1.03599,-2.22187 1.68674,-3.70112 2.195,-4.98942 0.28699,-0.72742 0.55668,-1.38523 0.5993,-1.4618 0.0986,-0.17717 1.8328,-2.48826 2.35053,-3.13241 0.25048,-0.31165 0.89007,-1.40297 1.77449,-3.028 2.82262,-5.18627 8.70895,-15.85814 8.79237,-15.9405 z m 3.1766,7.18783 c 0.0165,-0.0165 12.604379,23.39765 13.186999,24.52867 0.0704,0.13661 -0.21823,0.43931 -3.53389,3.70696 -2.87185,2.83026 -3.62019,3.53304 -3.65856,3.436 -0.0702,-0.17769 -2.85841,-7.58053 -5.603949,-14.8791 -1.31057,-3.48394 -2.39976,-6.36576 -2.42041,-6.40404 -0.0251,-0.0464 -0.0145,-0.0464 0.0318,0 0.0382,0.0383 2.25572,4.24424 4.927839,9.34652 2.67211,5.10229 4.86893,9.26636 4.88175,9.25354 0.0128,-0.0128 -1.83946,-5.14051 -4.11618,-11.39497 -2.276729,-6.25446 -4.130009,-11.38129 -4.118369,-11.39293 0.0117,-0.0116 0.60904,1.08251 1.32761,2.43143 0.71857,1.34892 3.095339,5.81129 5.281599,9.91645 2.18626,4.10516 3.98545,7.45343 3.99831,7.44057 0.0183,-0.0183 -4.75074,-12.15358 -9.658679,-24.57707 -0.30181,-0.76398 -0.53849,-1.39942 -0.52588,-1.41203 z m -17.33703,7.39529 -0.17539,0.17402 c -0.0965,0.0957 -0.73462,0.83183 -1.41828,1.63582 -1.92023,2.25819 -3.55997,4.12034 -4.17275,4.73886 -1.44944,1.46303 -4.1769,3.37843 -6.69839,4.70406 -0.88228,0.46385 -1.13466,0.61561 -1.02401,0.61561 0.0386,0 1.29073,-0.12582 2.78246,-0.27953 2.78108,-0.28656 3.80006,-0.40184 3.83054,-0.43342 0.0491,-0.0509 5.67477,-9.17563 6.77031,-10.9814 z m 14.85938,9.18923 c 0.034,0.0378 1.90009,3.54101 4.14691,7.78481 2.523329,4.76606 4.070779,7.76105 4.047669,7.83388 -0.0475,0.14968 -2.06653,2.23971 -2.16115,2.23715 -0.0387,-0.001 -0.34076,-0.8085 -0.67121,-1.79434 -0.33046,-0.98584 -1.686129,-5.01846 -3.012499,-8.96136 -1.32638,-3.94291 -2.38371,-7.13797 -2.34972,-7.10014 z m -57.91484,3.63218 -1.15943,0.35893 c -0.63766,0.19743 -1.62928,0.51232 -2.20356,0.69976 l -1.04414,0.34084 4.37953,0.007 c 2.40877,0.004 4.36504,-0.008 4.34718,-0.0254 -0.0179,-0.0179 -0.99714,-0.33594 -2.17611,-0.70683 z m 36.59268,2.31233 0.84863,0.003 c 0.59748,0.002 0.86527,0.0287 0.90492,0.0897 0.12762,0.19637 2.85863,5.51859 2.84147,5.53746 -0.025,0.0275 -24.95206,2.17392 -25.12973,2.16387 -0.0916,-0.005 -0.1035,-0.0181 -0.0348,-0.0378 0.0574,-0.0165 5.19458,-1.12488 11.4159,-2.46325 l 11.31149,-2.43346 -1.63581,0.0326 c -4.1395,0.0826 -12.91966,1.04804 -25.33476,2.78559 l -2.25073,0.31501 -0.21604,0.23751 -0.21617,0.23738 -0.68453,-0.1622 c -0.37649,-0.0892 -0.69485,-0.17269 -0.70752,-0.18544 -0.0127,-0.0127 6.4819,-1.39493 14.43235,-3.07164 z m 20.44212,0.45858 c 0.0145,-0.0145 1.50806,2.61974 3.31908,5.85383 l 3.292699,5.88021 -0.55687,0.60664 c -0.816119,0.88912 -1.450909,1.4993 -1.489529,1.43174 -0.0767,-0.13413 -4.58958,-13.74822 -4.56538,-13.77242 z m 19.399749,1.68286 1.41435,0.25573 c 3.52089,0.63665 6.77981,1.02044 9.59328,1.12965 l 1.21816,0.0472 0.80051,0.33459 c 2.24489,0.93804 5.20661,1.7603 8.49232,2.35774 1.35992,0.24727 8.16417,1.25612 11.52032,1.70814 3.1309,0.42168 3.45558,0.46813 3.43138,0.49012 -0.0113,0.0103 -0.3651,0.0717 -0.78623,0.13663 -2.73625,0.42165 -6.91156,1.48635 -10.22276,2.60681 -0.77142,0.26104 -0.8386,0.27268 -1.02334,0.17715 -0.28582,-0.1478 -0.46409,-0.12625 -0.59385,0.0718 -0.10591,0.16164 -0.15367,0.17402 -0.67135,0.17402 -1.30952,0 -2.72786,0.33939 -5.04531,1.20728 -2.73506,1.02431 -3.81946,1.23577 -5.06638,0.98786 -0.48511,-0.0965 -0.49058,-0.0959 -1.24005,0.14357 -1.53363,0.49 -3.5221,1.02883 -7.32119,1.98372 -5.83847,1.46748 -7.80372,2.07778 -10.1329,3.14696 -0.47413,0.21765 -0.54296,0.23233 -0.69609,0.14751 -0.24716,-0.13689 -0.32921,-0.12249 -0.6224,0.10972 -0.28373,0.22471 -0.9219,0.39301 -3.14329,0.82865 -0.8546,0.16759 -1.15819,0.20099 -1.40592,0.15472 -0.27356,-0.0511 -0.35435,-0.0361 -0.60269,0.11202 -0.16856,0.10052 -0.66519,0.25525 -1.20457,0.37538 -1.450729,0.3231 -3.679789,0.87513 -4.604399,1.14025 -0.4661,0.13365 -0.87588,0.24296 -0.91049,0.24296 -0.0346,0 0.14343,-0.21144 0.39563,-0.46987 0.25219,-0.25842 4.41369,-4.68295 9.247689,-9.83229 4.83401,-5.14934 8.87696,-9.45362 8.98434,-9.56515 z m -34.966239,3.6882 c 0.0171,-0.001 0.0267,-0.001 0.0284,8.1e-4 0.0918,0.107 1.40317,2.47484 1.38185,2.49505 -0.0294,0.0279 -23.02956,2.26549 -23.20093,2.25714 -0.0766,-0.004 -0.1079,-0.0195 -0.0696,-0.0349 0.0383,-0.0155 2.93576,-0.65298 6.43885,-1.41666 3.50308,-0.76367 8.40131,-1.83167 10.88486,-2.37337 2.32833,-0.50785 4.27932,-0.9064 4.53656,-0.92803 z m 15.683,0.76556 c 0.0223,-0.002 0.0481,0.0362 0.0888,0.0987 0.21321,0.32748 3.95943,7.85748 3.95943,7.95855 0,0.0564 -0.41938,0.5351 -0.93197,1.06386 l -0.93198,0.96134 -0.0862,-0.31324 c -0.0474,-0.17229 -0.59429,-2.23344 -1.21531,-4.58034 l -1.12911,-4.2671 0.11257,-0.49597 c 0.0694,-0.30577 0.0967,-0.42218 0.13378,-0.42581 z m -52.91901,0.79575 c 0.0313,0.003 0.092,0.0245 0.18027,0.0623 0.0879,0.0376 2.85376,1.07408 6.14628,2.30322 12.56997,4.69253 16.6247,6.20792 25.12891,9.39125 4.82392,1.80572 8.94304,3.3287 9.15361,3.38448 0.21056,0.0558 0.94668,0.19387 1.63581,0.30671 1.82442,0.29876 2.71617,0.55695 3.49066,1.01083 0.26975,0.15809 0.29911,0.19946 0.25981,0.3664 -0.0244,0.10351 -0.0663,0.21258 -0.0931,0.24241 -0.0454,0.0505 -22.5087,7.15031 -22.62312,7.15031 -0.0286,0 -0.18441,-0.18859 -0.34614,-0.41915 -1.84119,-2.62479 -7.3005,-8.5964 -14.30673,-15.64929 -3.9183,-3.9444 -6.28701,-6.17992 -8.05522,-7.60222 -0.493,-0.39655 -0.66485,-0.55601 -0.57101,-0.54722 z m 38.91941,1.36499 c 0.0128,-6.2e-4 0.0202,-7e-5 0.0219,0.002 0.10881,0.12171 1.26692,2.67076 1.23012,2.70755 -0.0219,0.0219 -4.26295,0.27119 -9.42456,0.55388 -10.61897,0.58158 -9.52099,0.52494 -9.4833,0.48972 0.0159,-0.0149 0.26389,-0.076 0.55103,-0.13569 0.28714,-0.0597 2.7774,-0.59373 5.53393,-1.18689 2.75652,-0.59316 6.48172,-1.39435 8.27819,-1.78047 1.68418,-0.36198 3.10035,-0.64092 3.2927,-0.64987 z m -23.7873,1.83989 c 0.0315,0 0.0631,0.005 0.087,0.0145 0.0479,0.0193 0.009,0.0351 -0.087,0.0351 -0.0957,0 -0.13487,-0.0158 -0.087,-0.0351 0.0239,-0.01 0.0555,-0.0145 0.087,-0.0145 z m 90.534349,1.10477 c 0.0242,0 -0.0754,0.14879 -0.2212,0.33064 -1.70601,2.12713 -4.37246,4.7648 -7.44343,7.36321 -2.04879,1.73354 -4.11049,3.35384 -16.41036,12.89619 -0.60299,0.46781 -1.09634,0.83599 -1.09634,0.81832 0,-0.0177 2.18485,-1.89112 4.85524,-4.16323 16.59493,-14.11987 20.27676,-17.24513 20.31609,-17.24513 z m -65.060109,0.15227 0.58964,1.08737 c 0.32433,0.59808 0.5778,1.09934 0.56326,1.11388 -0.024,0.024 -13.7989,1.05306 -14.13638,1.05611 -0.0788,7.8e-4 -0.20218,-0.0418 -0.27408,-0.0944 -0.12754,-0.0932 -0.12746,-0.0966 0.004,-0.13663 0.0742,-0.0226 2.89139,-0.66724 6.26047,-1.43256 3.36909,-0.76533 6.3208,-1.43701 6.55931,-1.49266 z m 11.38327,0.29883 c 0.0464,5.6e-4 0.35486,0.5591 1.41326,2.52102 l 1.32176,2.45005 -0.66007,0.78678 c -0.71994,0.85809 -0.92585,1.08446 -0.92585,1.0179 0,-0.0577 -1.10643,-6.52791 -1.14529,-6.69744 -0.0112,-0.0489 -0.0145,-0.0784 -0.004,-0.0783 z m 47.478629,0.80187 c 0.0356,0 -4.58675,4.65163 -10.27198,10.33696 -5.68523,5.68533 -10.35244,10.33474 -10.37163,10.33207 -0.0192,-0.003 -0.59877,-0.17507 -1.2879,-0.38313 -0.68914,-0.20804 -1.37132,-0.4109 -1.51604,-0.45082 -0.14473,-0.0399 -0.24498,-0.10209 -0.2227,-0.13813 0.0223,-0.036 4.5888,-3.89372 10.14771,-8.57254 13.76803,-11.58822 12.40803,-10.41955 12.3835,-10.6415 -0.0198,-0.17904 0.004,-0.19405 0.52683,-0.33513 0.30114,-0.0813 0.57658,-0.14778 0.61221,-0.14778 z m -57.354839,1.74063 c 0.0687,-2.8e-4 1.37643,2.01798 1.3325,2.05646 -0.01,0.008 -1.25497,0.0664 -2.76724,0.12875 -2.48815,0.1026 -5.07222,0.13117 -5.70795,0.0631 -0.66364,-0.0711 -1.99113,-0.3503 -1.93451,-0.40692 0.0312,-0.0312 8.95176,-1.84082 9.0772,-1.84138 z m 50.041249,0.95006 -0.87147,0.89948 c -0.47935,0.49477 -4.00332,4.0924 -7.83103,7.99472 -3.82772,3.90231 -7.17402,7.32448 -7.43622,7.60481 -0.26221,0.28032 -0.52846,0.50734 -0.59168,0.50439 -0.0632,-0.003 -0.83547,-0.27146 -1.71603,-0.59671 -0.88056,-0.32524 -1.62161,-0.61264 -1.64683,-0.63858 -0.034,-0.035 15.12668,-11.93788 19.55869,-15.35589 z m -5.75866,0.74585 c 0.0516,-0.0101 -0.85312,0.93666 -2.11166,2.20778 -1.34245,1.35587 -4.71202,4.75964 -7.48802,7.56402 -2.776,2.80438 -5.07631,5.0972 -5.11179,5.0952 -0.0355,-0.002 -0.62058,-0.22678 -1.30014,-0.49964 -0.67956,-0.27287 -1.23556,-0.51573 -1.23556,-0.5396 0,-0.0352 15.99887,-12.86545 17.22392,-13.81267 0.0121,-0.009 0.0198,-0.0144 0.0232,-0.0151 z m -34.893099,0.66197 0.64443,1.09186 0.64443,1.09172 -0.67923,0.80023 c -0.37358,0.44014 -0.75163,0.88269 -0.84007,0.98337 l -0.1607,0.18299 0.0368,-0.24363 c 0.0771,-0.50861 0.25888,-2.36382 0.30563,-3.11922 z m -7.73681,0.45858 c 0.0834,0.002 0.26408,0.22415 0.62458,0.76542 l 0.53484,0.80309 -0.36572,-0.009 c -0.20118,-0.005 -1.38389,-0.0968 -2.62815,-0.2038 -1.24426,-0.10695 -2.35627,-0.19863 -2.47113,-0.2038 -0.11485,-0.005 0.38941,-0.1449 1.12055,-0.31038 1.13001,-0.25577 2.80613,-0.69926 3.16953,-0.83871 0.005,-0.002 0.01,-0.003 0.0155,-0.003 z m 35.713719,1.16051 c 0.0473,-0.005 -0.14162,0.19612 -0.54749,0.62159 -3.68944,3.86756 -10.45357,10.78325 -10.54185,10.778 -0.0614,-0.004 -0.79995,-0.23169 -1.64112,-0.5067 l -1.52936,-0.49991 1.66858,-1.22088 c 0.91774,-0.67147 3.82995,-2.79813 6.47161,-4.72595 2.64167,-1.92782 5.08495,-3.71279 5.42952,-3.9665 0.42264,-0.3112 0.64835,-0.47547 0.69011,-0.47965 z m -5.86417,1.03462 -0.26688,0.30114 c -0.92488,1.04336 -8.34438,8.88707 -8.40571,8.88632 -0.0414,-7.8e-4 -0.32578,-0.13705 -0.63206,-0.30359 v -1.4e-4 c -0.30628,-0.16653 -0.86274,-0.43866 -1.23665,-0.60473 -0.37391,-0.16606 -0.67149,-0.32553 -0.66129,-0.3543 0.0102,-0.0288 2.35214,-1.82322 5.20438,-3.9877 l 5.18588,-3.93537 0.40624,-8.1e-4 z m -28.357439,0.29598 c 0.0163,-0.001 0.028,-7e-4 0.0344,0.002 0.0904,0.0347 1.06587,1.57524 1.01491,1.60278 -0.0139,0.008 -0.35419,-0.15033 -0.75618,-0.35063 -0.402,-0.20029 -0.98997,-0.44971 -1.30667,-0.55429 l -0.57577,-0.19006 0.76516,-0.27191 c 0.36825,-0.13081 0.71004,-0.22849 0.82416,-0.23765 z m 23.281409,0.69772 c 0.0343,0.003 0.0321,0.0277 0.008,0.0703 -0.0328,0.057 -1.28192,1.35236 -2.77581,2.87845 -1.49387,1.52608 -2.93209,3.00181 -3.19604,3.27938 -0.26394,0.27756 -0.49827,0.50081 -0.5207,0.4961 -0.0224,-0.005 -0.6476,-0.21849 -1.38933,-0.47503 l -1.34868,-0.46633 1.31387,-0.97425 c 2.98648,-2.21452 5.48198,-3.8056 7.00116,-4.46383 0.58038,-0.25146 0.8325,-0.35123 0.90791,-0.34478 z m -6.82156,2.08515 c 0.0134,-0.001 0.022,2e-5 0.0256,0.004 0.0239,0.024 -2.64402,3.15636 -2.95676,3.47149 -0.0881,0.0888 -0.15405,0.0997 -0.28823,0.0477 -0.353719,-0.13696 -3.266079,-0.96315 -4.141739,-1.17493 -0.49771,-0.12036 -0.95191,-0.23533 -1.00933,-0.25546 -0.0574,-0.0201 0.56905,-0.16819 1.39218,-0.32914 0.82313,-0.16096 1.60505,-0.31446 1.73765,-0.34112 l 0.24118,-0.0485 -0.21943,0.22745 c -0.12068,0.12511 -0.25262,0.31559 -0.29326,0.42337 -0.0776,0.20588 -0.10113,0.60459 -0.0356,0.60459 0.0211,0 0.49493,-0.25476 1.05298,-0.56612 0.55804,-0.31136 1.488329,-0.79346 2.067329,-1.07133 0.95793,-0.4597 2.22639,-0.97517 2.42749,-0.99152 z m -15.164329,3.76161 c 0.008,-0.001 0.013,-0.001 0.0143,1.4e-4 0.0103,0.0103 -0.28471,0.48735 -0.65558,1.06018 l -0.67433,1.04142 -0.0348,-0.54763 -0.0348,-0.54776 -0.62132,1.10572 c -0.82746,1.47252 -1.18734,1.99544 -1.73098,2.51545 -0.25016,0.23928 -0.47324,0.43506 -0.4957,0.43506 -0.0225,0 -0.0407,-0.39938 -0.0407,-0.88752 7e-5,-0.89049 0.17041,-2.67604 0.27273,-2.85887 0.0301,-0.0537 0.70931,-0.29632 1.50938,-0.53906 0.80006,-0.24274 1.68705,-0.521 1.97108,-0.61846 0.24852,-0.0853 0.46386,-0.15055 0.52071,-0.15866 z m 7.47646,1.23788 0.30263,0.0998 c 0.16642,0.0548 3.7325,1.17946 7.924709,2.49927 8.0487,2.53392 8.82507,2.78874 11.20708,3.67732 2.38812,0.89087 5.04388,2.07473 6.30044,2.80857 l 0.27926,0.16301 0.37116,2.70048 c 1.16147,8.4519 2.41669,18.22643 2.86322,22.29547 0.23837,2.17227 0.37967,2.87263 1.37967,6.8391 0.29681,1.17726 0.53192,2.14048 0.52248,2.14048 -0.009,0 -0.49726,-0.61865 -1.08411,-1.37478 -6.25454,-8.05872 -14.07265,-18.81688 -23.4844,-32.31606 -2.158829,-3.09638 -6.230889,-8.98546 -6.460459,-9.34313 z m -11.89352,0.17905 c 0.003,1.4e-4 0.004,7.4e-4 0.004,0.002 0,0.0186 -0.31737,0.9479 -0.7052,2.06503 -0.38784,1.11713 -1.00649,2.94028 -1.37478,4.05147 l -0.66958,2.02043 -0.57428,0.54695 c -0.40338,0.38424 -0.57428,0.50926 -0.57428,0.41983 0,-0.179 0.90399,-7.84453 0.93619,-7.93857 0.0145,-0.0424 0.35013,-0.19509 0.74585,-0.33935 0.39572,-0.14426 1.05621,-0.39678 1.46778,-0.56108 0.38584,-0.15404 0.70599,-0.2683 0.74449,-0.26661 z m 6.27598,0.40433 c 0.0353,-0.0218 0.0623,0.3112 0.0623,0.76883 0,1.49916 0.23423,4.71573 0.66156,9.08536 0.49033,5.01382 0.65985,7.83181 0.66061,10.98357 2.8e-4,1.04475 0.0347,2.42301 0.0765,3.0628 0.0419,0.6398 0.081,1.23895 0.087,1.33155 0.01,0.15473 -0.0314,0.17781 -0.51119,0.28482 -1.34101,0.29909 -3.05813,0.90036 -5.22069,1.82806 -1.94804,0.83568 -3.28757,1.48594 -9.35169,4.53942 -3.14528,1.58375 -6.12591,3.06611 -6.62361,3.29419 -0.89803,0.41154 -2.71846,0.99496 -4.66871,1.49606 -1.0362,0.26624 -1.027,0.2608 -2.74467,1.58171 -1.27853,0.9832 -1.79566,1.33094 -2.32307,1.56226 -0.47091,0.20653 -0.91103,0.29025 -0.86155,0.16382 0.0198,-0.0505 0.7169,-1.06295 1.54921,-2.24979 0.83232,-1.18683 2.15878,-3.12893 2.94765,-4.31577 1.18438,-1.78186 1.60974,-2.35802 2.44122,-3.30643 1.28783,-1.46894 2.79683,-3.12083 3.90668,-4.27662 0.58444,-0.60863 1.1049,-1.24302 1.57395,-1.9186 1.25564,-1.8085 2.63515,-3.90846 3.36109,-5.11627 0.65019,-1.08178 0.83779,-1.32651 2.18494,-2.85126 1.80591,-2.04399 3.37673,-3.77476 4.67755,-5.1538 0.68499,-0.72618 1.42934,-1.63767 2.44448,-2.99319 1.8362,-2.45192 3.8097,-5.16392 4.82492,-6.63069 0.43076,-0.62234 0.81122,-1.14884 0.84551,-1.17003 z m 2.73542,0.19972 c 0.12282,-0.007 1.57189,2.26092 1.57273,2.46732 5.6e-4,0.11298 -0.12473,0.10199 -0.80717,-0.0706 l -0.56394,-0.14248 -0.11665,-1.11266 c -0.0642,-0.61195 -0.10455,-1.12477 -0.0897,-1.13958 0.001,-0.001 0.003,-0.002 0.005,-0.002 z m -12.45325,0.67488 c 0.0671,0 -0.17773,1.07241 -0.87827,3.84591 -1.31305,5.1985 -1.65988,6.31048 -2.47996,7.95285 -0.28531,0.57138 -1.02134,1.77503 -1.08547,1.77503 -0.0147,0 -0.0149,-0.0705 -5.6e-4,-0.15662 h 1.4e-4 c 0.026,-0.15484 1.41611,-12.06979 1.41611,-12.13796 0,-0.0863 2.82364,-1.27921 3.028,-1.27921 z m 52.725149,0.44485 c -0.0176,-0.005 -0.0935,0.0843 -0.18381,0.21766 -0.46519,0.68701 -4.57068,6.50255 -5.20805,7.37735 -0.45424,0.62345 -0.72522,1.0623 -0.75224,1.21816 -0.0471,0.27179 0.98698,5.75124 1.06766,5.65738 0.0255,-0.0296 1.17897,-3.28066 2.5633,-7.22453 1.38434,-3.94388 2.51695,-7.20105 2.51695,-7.23813 0,-0.005 -0.001,-0.007 -0.004,-0.008 z m -56.063399,0.83422 c 0.007,-6.9e-4 0.0111,-4.2e-4 0.0124,8.2e-4 0.0302,0.0302 -4.83881,16.67717 -4.89712,16.74304 -0.0141,0.0159 -0.0257,-0.043 -0.0257,-0.13119 0,-0.0882 0.21856,-2.10606 0.48563,-4.48409 0.26706,-2.37801 0.65497,-5.83774 0.86209,-7.68828 0.20713,-1.85053 0.40374,-3.39007 0.43683,-3.42118 0.0828,-0.0779 2.91294,-0.99783 3.12588,-1.01912 z m 15.90271,0.66564 0.40025,0.29258 c 0.76363,0.55816 1.44931,1.16632 2.40152,2.13015 0.52642,0.53284 0.95713,0.9898 0.95713,1.01545 0,0.065 -0.0201,0.0608 -0.80051,-0.16587 -0.38285,-0.11121 -1.20511,-0.365 -1.82724,-0.56408 l -1.13115,-0.36205 v -1.17302 z m -19.74766,0.49828 c 0.0452,0.003 0.0451,0.0344 0.023,0.10563 -0.0224,0.0722 -1.10387,4.53238 -2.40328,9.91143 -1.2994,5.37904 -2.41182,9.95237 -2.47194,10.16293 l -0.10931,0.38286 0.033,-0.31325 c 0.0879,-0.83442 0.40723,-4.52485 0.62648,-7.23935 0.29086,-3.60109 0.46323,-5.39555 0.69867,-7.27416 0.24571,-1.96039 0.58007,-3.9406 0.69542,-4.1185 0.21348,-0.32925 2.16657,-1.4538 2.77254,-1.59638 0.0648,-0.0153 0.10828,-0.0232 0.13541,-0.0212 z m -3.26891,1.1892 c 0.007,-7.4e-4 0.011,-5.6e-4 0.0122,6.9e-4 0.0182,0.0182 -0.41813,1.84727 -0.96963,4.06466 -0.5515,2.21739 -1.58851,6.3966 -2.30445,9.28712 -1.78526,7.20779 -2.24756,9.03326 -2.25495,8.90223 -0.003,-0.0617 0.38423,-3.64834 0.86155,-7.97026 0.47731,-4.32191 0.99901,-9.06406 1.15942,-10.53804 0.16041,-1.47397 0.31027,-2.70126 0.33296,-2.72726 0.0596,-0.0684 2.94746,-0.99617 3.16287,-1.01912 z m 52.182819,0.26593 c 0.004,0.004 -0.0175,0.0318 -0.0608,0.087 -0.0909,0.11595 -0.14805,0.15287 -0.14805,0.0956 0,-0.0145 0.0548,-0.0693 0.12181,-0.12182 0.0552,-0.0433 0.0834,-0.0644 0.087,-0.0608 z m -55.741729,0.84605 -0.0381,0.18598 c -0.0753,0.36765 -5.68911,24.27248 -5.71611,24.34051 -0.0152,0.0383 -0.03,0.0325 -0.033,-0.0129 -0.0179,-0.26832 1.59913,-11.0169 2.22599,-14.79658 0.66825,-4.0292 1.5669,-8.87781 1.66519,-8.9842 0.029,-0.0313 0.46746,-0.20909 0.97439,-0.39495 z m 26.48779,0.26769 c 0.0346,0 1.4809,0.80626 2.34999,1.31021 2.11525,1.22654 3.63737,2.28183 4.42739,3.06946 0.46248,0.46109 0.846979,1.05674 0.672979,1.04265 -0.0486,-0.004 -1.748689,-0.62493 -3.777799,-1.38009 l -3.68928,-1.37301 v -1.33454 c 0,-0.73399 0.008,-1.33465 0.0167,-1.33468 z m 0.12249,3.27204 2.47113,1.29512 c 2.88419,1.51162 5.121999,2.7269 6.554679,3.55958 l 1.02076,0.59317 0.56285,0.82036 c 0.55867,0.8142 0.61112,0.90622 0.51065,0.89567 -0.0287,-0.003 -2.00996,-0.79598 -4.402779,-1.76212 -5.32981,-2.15199 -6.27814,-2.54533 -6.37631,-2.6446 -0.11562,-0.11692 -0.39136,-1.90005 -0.3645,-2.3572 z m 0.47653,3.41045 c 0.0233,0 0.7983,0.43111 9.015199,5.01498 3.91834,2.18587 3.92328,2.18897 4.27199,2.6272 0.19202,0.24132 0.33754,0.4498 0.32331,0.46334 -0.0142,0.0136 -1.15364,-0.35955 -2.5319,-0.82906 -3.4924,-1.18969 -6.337829,-2.22919 -9.263459,-3.3842 l -1.39776,-0.5517 -0.22065,-1.14013 c -0.18495,-0.95527 -0.29627,-2.20043 -0.19673,-2.20043 z m 0.35878,3.84495 2.15789,1.12979 c 1.18684,0.62138 5.024039,2.6259 8.527119,4.45444 3.50309,1.82855 6.38238,3.33677 6.39834,3.35171 0.0654,0.0613 -0.13121,0.003 -0.72519,-0.21684 -0.34456,-0.12726 -4.15044,-1.505 -8.45751,-3.06172 -4.307069,-1.55673 -7.855189,-2.85385 -7.884739,-2.88239 -0.0295,-0.0285 -0.0452,-0.66453 -0.0348,-1.4134 z m -0.25858,3.18557 c 0.055,0 19.715999,10.21096 19.775389,10.27035 0.0175,0.0175 0.003,0.0302 -0.0321,0.0283 -0.0351,-0.002 -4.41312,-1.56612 -9.72911,-3.47598 -5.315979,-1.90986 -9.674739,-3.4823 -9.686139,-3.49432 -0.0114,-0.012 -0.10224,-0.28971 -0.20176,-0.6171 -0.16081,-0.52903 -0.18096,-0.71301 -0.18096,-1.65322 0,-0.58188 0.0246,-1.05801 0.0547,-1.05801 z m 0.24404,3.64592 c 0.0735,-0.0735 16.475549,7.95308 22.115189,10.82232 2.10853,1.07275 2.35073,1.21371 2.5304,1.47308 0.10928,0.15774 0.18771,0.29617 0.17429,0.30753 -0.0134,0.0114 -0.5883,-0.18235 -1.27743,-0.43043 -0.68913,-0.24809 -3.16374,-1.10166 -5.49913,-1.89672 -6.12604,-2.08556 -7.99162,-2.82715 -11.3845,-4.52609 -1.783489,-0.89306 -5.006069,-2.71711 -6.248369,-3.5366 -0.0863,-0.0569 -0.4743,-2.14924 -0.41045,-2.21309 z m -29.49227,5.19445 c 0.10261,0 0.12476,0.12484 0.0546,0.30753 -0.0525,0.13683 -0.23615,0.14571 -0.23615,0.0114 0,-0.17495 0.082,-0.31895 0.1815,-0.31895 z m -3.93972,2.36671 c 0.12298,0 0.13771,0.0399 0.12182,0.32983 -0.0137,0.24987 -0.0476,0.33536 -0.1399,0.35308 -0.10308,0.0198 -0.12181,-0.0309 -0.12181,-0.32969 0,-0.30732 0.0181,-0.35322 0.13989,-0.35322 z m -7.76605,5.46432 c -0.0152,0.0383 -0.51431,2.79481 -1.10912,6.12561 -0.5948,3.3308 -1.09829,6.1306 -1.11891,6.22173 -0.0305,0.13464 -0.014,0.15897 0.088,0.13024 0.069,-0.0194 2.61562,-1.15588 5.65928,-2.52551 3.04366,-1.36961 5.56526,-2.52142 5.60354,-2.55949 0.0464,-0.0462 0.0464,-0.057 0,-0.0324 -0.28193,0.14944 -8.88262,2.8303 -8.97115,2.79633 -0.10256,-0.0394 -0.11329,-0.50742 -0.11828,-5.13476 -0.003,-2.80028 -0.0181,-5.06008 -0.0333,-5.02179 z"
       id="path2237"
       inkscape:connector-curvature="0" />
  </g>
</svg>
