<?xml version="1.0" encoding="UTF-8" standalone="no"?>
<!-- Created with Inkscape (http://www.inkscape.org/) -->

<svg
   xmlns:dc="http://purl.org/dc/elements/1.1/"
   xmlns:cc="http://creativecommons.org/ns#"
   xmlns:rdf="http://www.w3.org/1999/02/22-rdf-syntax-ns#"
   xmlns:svg="http://www.w3.org/2000/svg"
   xmlns="http://www.w3.org/2000/svg"
   xmlns:xlink="http://www.w3.org/1999/xlink"
   xmlns:sodipodi="http://sodipodi.sourceforge.net/DTD/sodipodi-0.dtd"
   xmlns:inkscape="http://www.inkscape.org/namespaces/inkscape"
   width="140.9935mm"
   height="141.23021mm"
   viewBox="0 0 499.58326 500.42203"
   id="svg4343"
   version="1.1"
   inkscape:version="0.91 r13725"
   sodipodi:docname="simple-indian-arrows.svg">
  <defs
     id="defs4345">
    <linearGradient
       inkscape:collect="always"
       xlink:href="#linearGradient4298"
       id="linearGradient4304"
       x1="196.75"
       y1="837.86218"
       x2="190.25"
       y2="830.11218"
       gradientUnits="userSpaceOnUse" />
    <linearGradient
       inkscape:collect="always"
       id="linearGradient4298">
      <stop
         style="stop-color:#552200;stop-opacity:1;"
         offset="0"
         id="stop4300" />
      <stop
         style="stop-color:#bd5109;stop-opacity:1"
         offset="1"
         id="stop4302" />
    </linearGradient>
    <linearGradient
       inkscape:collect="always"
       xlink:href="#linearGradient4298"
       id="linearGradient4564"
       gradientUnits="userSpaceOnUse"
       x1="196.75"
       y1="837.86218"
       x2="190.25"
       y2="830.11218" />
  </defs>
  <sodipodi:namedview
     id="base"
     pagecolor="#ffffff"
     bordercolor="#666666"
     borderopacity="1.0"
     inkscape:pageopacity="0.0"
     inkscape:pageshadow="2"
     inkscape:zoom="0.65762449"
     inkscape:cx="220.18602"
     inkscape:cy="121.23791"
     inkscape:document-units="px"
     inkscape:current-layer="layer1"
     showgrid="false"
     fit-margin-top="0"
     fit-margin-left="0"
     fit-margin-right="0"
     fit-margin-bottom="0"
     inkscape:window-width="1302"
     inkscape:window-height="739"
     inkscape:window-x="0"
     inkscape:window-y="0"
     inkscape:window-maximized="1" />
  <metadata
     id="metadata4348">
    <rdf:RDF>
      <cc:Work
         rdf:about="">
        <dc:format>image/svg+xml</dc:format>
        <dc:type
           rdf:resource="http://purl.org/dc/dcmitype/StillImage" />
        <dc:title></dc:title>
      </cc:Work>
    </rdf:RDF>
  </metadata>
  <g
     inkscape:label="Capa 1"
     inkscape:groupmode="layer"
     id="layer1"
     transform="translate(-114.40837,13.548739)">
    <g
       id="g4472"
       transform="matrix(-5.5363565,0,0,5.5468755,1521.9539,-4318.7298)">
      <g
         id="g4468">
        <path
           style="fill:#b3b3b3;fill-rule:evenodd;stroke:#999999;stroke-width:1px;stroke-linecap:butt;stroke-linejoin:miter;stroke-opacity:1"
           d="m 215.4024,808.49871 c 0,0 5.56847,-7.15946 5.21492,-12.81631 -0.35356,-5.65686 -0.35356,-7.42462 -0.35356,-7.42462 l 33.14563,-11.31371 -11.04853,33.23401 c 0,0 -2.98352,-0.70547 -7.95496,-0.70711 -6.30199,-0.002 -13.25826,4.94977 -13.25826,4.94977 z"
           id="path4313"
           inkscape:connector-curvature="0"
           sodipodi:nodetypes="cscccscc" />
        <path
           style="fill:#666666;fill-rule:evenodd;stroke:#4d4d4d;stroke-width:1px;stroke-linecap:butt;stroke-linejoin:miter;stroke-opacity:1"
           d="m 218.40761,811.50391 35.35534,-34.82501 -11.4021,33.85274 c 0,0 -3.62392,-1.14904 -9.01561,-0.88388 -5.39169,0.26516 -12.10921,4.86136 -12.10921,4.86136 z"
           id="path4315"
           inkscape:connector-curvature="0"
           sodipodi:nodetypes="cccscc" />
      </g>
      <path
         sodipodi:nodetypes="cccccc"
         inkscape:connector-curvature="0"
         id="path4317"
         d="m 215.5,808.11216 -51,51.125 0,6.625 5.4375,0 51.3125,-51.25 z"
         style="fill:url(#linearGradient4564);fill-opacity:1;fill-rule:evenodd;stroke:#552200;stroke-width:1px;stroke-linecap:butt;stroke-linejoin:miter;stroke-opacity:1" />
    </g>
    <g
       transform="matrix(5.5363565,0,0,5.5468755,-793.55391,-4318.7298)"
       id="g4455">
      <g
         id="g4449">
        <g
           id="g4445">
          <path
             sodipodi:nodetypes="cscccscc"
             inkscape:connector-curvature="0"
             id="path4284"
             d="m 215.4024,808.49871 c 0,0 5.56847,-7.15946 5.21492,-12.81631 -0.35356,-5.65686 -0.35356,-7.42462 -0.35356,-7.42462 l 33.14563,-11.31371 -11.04853,33.23401 c 0,0 -2.98352,-0.70547 -7.95496,-0.70711 -6.30199,-0.002 -13.25826,4.94977 -13.25826,4.94977 z"
             style="fill:#b3b3b3;fill-rule:evenodd;stroke:#999999;stroke-width:1px;stroke-linecap:butt;stroke-linejoin:miter;stroke-opacity:1" />
          <path
             sodipodi:nodetypes="cccscc"
             inkscape:connector-curvature="0"
             id="path4296"
             d="m 218.40761,811.50391 35.35534,-34.82501 -11.4021,33.85274 c 0,0 -3.62392,-1.14904 -9.01561,-0.88388 -5.39169,0.26516 -12.10921,4.86136 -12.10921,4.86136 z"
             style="fill:#666666;fill-rule:evenodd;stroke:#4d4d4d;stroke-width:1px;stroke-linecap:butt;stroke-linejoin:miter;stroke-opacity:1" />
        </g>
        <path
           style="fill:url(#linearGradient4304);fill-opacity:1;fill-rule:evenodd;stroke:#552200;stroke-width:1px;stroke-linecap:butt;stroke-linejoin:miter;stroke-opacity:1"
           d="m 215.5,808.11216 -51,51.125 0,6.625 5.4375,0 51.3125,-51.25 z"
           id="path4288"
           inkscape:connector-curvature="0"
           sodipodi:nodetypes="cccccc" />
      </g>
      <g
         id="g4336">
        <path
           style="fill:#aa0000;fill-rule:evenodd;stroke:#800000;stroke-width:1px;stroke-linecap:butt;stroke-linejoin:miter;stroke-opacity:1"
           d="m 215,807.73716 c -0.16667,0 -0.33657,0.0327 -0.5,0 -0.0578,-0.0116 -0.0723,-0.0987 -0.125,-0.125 -0.0786,-0.0393 -0.42143,0.0393 -0.5,0 -0.0527,-0.0263 -0.0691,-0.10637 -0.125,-0.125 -0.0791,-0.0263 -0.16667,0 -0.25,0 -0.20833,0 -0.41667,0 -0.625,0 -0.0833,0 -0.17094,0.0263 -0.25,0 -0.0884,-0.0295 -0.16161,-0.0955 -0.25,-0.125 -0.0249,-0.008 -0.35011,-0.008 -0.375,0 -0.0884,0.0295 -0.16161,0.0955 -0.25,0.125 -0.0395,0.0132 -0.0877,-0.0186 -0.125,0 -0.0527,0.0263 -0.0833,0.0833 -0.125,0.125 -0.0417,0.0417 -0.0833,0.0833 -0.125,0.125 -0.0735,0.0735 -0.47106,0.44211 -0.5,0.5 -0.0186,0.0373 0.0186,0.0877 0,0.125 -0.0264,0.0527 -0.0986,0.0723 -0.125,0.125 -0.0186,0.0373 0.0186,0.0877 0,0.125 -0.0264,0.0527 -0.0986,0.0723 -0.125,0.125 -0.0186,0.0373 0,0.0833 0,0.125 0,0.0417 0,0.0833 0,0.125 0,0.20833 0,0.41667 0,0.625 0,0.0417 0,0.0833 0,0.125 0,0.0417 0.0186,0.0877 0,0.125 -0.0166,0.0332 -0.34181,0.3584 -0.375,0.375 -0.1,0.05 -0.275,-0.05 -0.375,0 -0.0527,0.0263 -0.0833,0.16667 -0.125,0.125 -0.0417,-0.0417 0.0833,-0.16667 0.125,-0.125 0.0417,0.0417 -0.0923,0.076 -0.125,0.125 -0.17971,0.26957 -0.125,0.45015 -0.125,0.75 0,0.0526 -0.0186,0.71281 0,0.75 0.0264,0.0527 0.0986,0.0723 0.125,0.125 0.0186,0.0373 -0.0186,0.0877 0,0.125 0.0264,0.0527 0.0986,0.0723 0.125,0.125 0.0373,0.0745 -0.0373,0.17546 0,0.25 0.41457,0.41457 -0.0589,-0.11785 0.125,0.25 0.0264,0.0527 0.0986,0.0723 0.125,0.125 0.0369,0.0738 -0.0287,0.28902 0,0.375 0.0295,0.0884 0.0955,0.16161 0.125,0.25 0.0264,0.0791 -0.0373,0.17546 0,0.25 0.0264,0.0527 0.0986,0.0723 0.125,0.125 0.0186,0.0373 -0.0132,0.0855 0,0.125 0.0295,0.0884 0.0955,0.16161 0.125,0.25 0.0132,0.0395 -0.0186,0.0877 0,0.125 0.0264,0.0527 0.0986,0.0723 0.125,0.125 0.0186,0.0373 -0.0186,0.0877 0,0.125 0.0264,0.0527 0.0986,0.0723 0.125,0.125 0.0186,0.0373 -0.0186,0.0877 0,0.125 0.0527,0.10541 0.1973,0.14459 0.25,0.25 0.0186,0.0373 0,0.0833 0,0.125 0.0417,0.0417 0.0986,0.0723 0.125,0.125 0.0186,0.0373 -0.0186,0.0877 0,0.125 0.0289,0.0579 0.42648,0.42648 0.5,0.5 0.0735,0.0735 0.44212,0.47106 0.5,0.5 0.0373,0.0186 0.0833,0 0.125,0 0.0417,0.0417 0.0723,0.0987 0.125,0.125 0.0373,0.0186 0.0877,-0.0186 0.125,0 0.10541,0.0527 0.14459,0.1973 0.25,0.25 0.0373,0.0186 0.0877,-0.0186 0.125,0 0.41457,0.41457 -0.11785,-0.0589 0.25,0.125 0.0527,0.0263 0.0723,0.0987 0.125,0.125 0.0745,0.0373 0.17546,-0.0373 0.25,0 0.41457,0.41457 -0.11785,-0.0589 0.25,0.125 0.0527,0.0263 0.0723,0.0987 0.125,0.125 0.0373,0.0186 0.0877,-0.0186 0.125,0 0.0527,0.0263 0.0723,0.0987 0.125,0.125 0.0745,0.0373 0.17546,-0.0373 0.25,0 0.0527,0.0263 0.0723,0.0987 0.125,0.125 0.0373,0.0186 0.0877,-0.0186 0.125,0 0.13357,0.0668 0.11644,0.18322 0.25,0.25 0.0373,0.0186 0.0833,0 0.125,0 0.0417,0.0417 0.0723,0.0987 0.125,0.125 0.0745,0.0373 0.19107,-0.0589 0.25,0 0.0295,0.0295 -0.0295,0.0955 0,0.125 0.0295,0.0295 0.0877,-0.0186 0.125,0 0.0527,0.0263 0.0723,0.0987 0.125,0.125 0.0745,0.0373 0.17546,-0.0373 0.25,0 0.0527,0.0263 0.0723,0.0987 0.125,0.125 0.0745,0.0373 0.17546,-0.0373 0.25,0 0.41457,0.41457 -0.11785,-0.0589 0.25,0.125 0.0527,0.0263 0.0723,0.0987 0.125,0.125 0.0745,0.0373 0.19107,-0.0589 0.25,0 0.0295,0.0295 -0.0295,0.0955 0,0.125 0.0256,0.0255 0.32544,-0.0248 0.375,0 0.0527,0.0263 0.0723,0.0987 0.125,0.125 0.0373,0.0186 0.0955,-0.0295 0.125,0 0.0295,0.0295 0,0.0833 0,0.125 0,0.0417 0,0.0833 0,0.125 0,0.0417 0.0186,0.0877 0,0.125 -0.13819,0.27638 -0.0776,0.0388 -0.25,0.125 -0.0332,0.0166 -0.35841,0.34181 -0.375,0.375 -0.0164,0.0329 0,0.43463 0,0.5 0,0.12588 -0.023,0.68087 0,0.75 0.0186,0.0559 0.0986,0.0723 0.125,0.125 0.0186,0.0373 -0.0295,0.0955 0,0.125 0.0295,0.0295 0.0955,-0.0295 0.125,0 0.0589,0.0589 -0.0589,0.19107 0,0.25 0.0295,0.0295 0.0877,-0.0186 0.125,0 0.0527,0.0263 0.0833,0.0833 0.125,0.125 0.0417,0.0417 0.0986,0.0723 0.125,0.125 0.0186,0.0373 -0.0295,0.0955 0,0.125 0.0589,0.0589 0.17094,-0.0263 0.25,0 0.0884,0.0295 0.16161,0.0955 0.25,0.125 0.0705,0.0235 0.29286,0 0.375,0 0.25,0 0.5,0 0.75,0 0.0654,0 0.46713,0.0164 0.5,0 0.0527,-0.0263 0.0723,-0.0987 0.125,-0.125 0.1,-0.05 0.275,0.05 0.375,0 0.41457,-0.41457 -0.11785,0.0589 0.25,-0.125 0.0527,-0.0263 0.0723,-0.0987 0.125,-0.125 0.0789,-0.0394 0.54614,0.0394 0.625,0 0.0527,-0.0263 0.0723,-0.0987 0.125,-0.125 0.0373,-0.0186 0.0877,0.0186 0.125,0 0.0527,-0.0263 0.0723,-0.0987 0.125,-0.125 0.0373,-0.0186 0.0877,0.0186 0.125,0 0.0527,-0.0263 0.0723,-0.0987 0.125,-0.125 0.0373,-0.0186 0.0877,0.0186 0.125,0 0.0527,-0.0263 0.076,-0.0923 0.125,-0.125 0.23077,-0.15385 0.51923,-0.22115 0.75,-0.375 0.10786,-0.0719 0.27736,-0.27737 0.375,-0.375 0.0658,-0.0658 0.34162,-0.30824 0.375,-0.375 0.0186,-0.0373 -0.0186,-0.0877 0,-0.125 0.0264,-0.0527 0.0986,-0.0723 0.125,-0.125 0.0186,-0.0373 0,-0.0833 0,-0.125 0.0417,-0.0417 0.0986,-0.0723 0.125,-0.125 0.019,-0.038 0,-0.31871 0,-0.375 0,-0.25 0,-0.5 0,-0.75 0,-0.12111 -0.0248,-0.67547 0,-0.75 0.0295,-0.0884 0.0955,-0.16161 0.125,-0.25 0.0375,-0.1125 -0.0375,-0.2625 0,-0.375 0.0295,-0.0884 0.0955,-0.16161 0.125,-0.25 0.0262,-0.0787 0,-0.51233 0,-0.625 0,-0.0654 0.0164,-0.46713 0,-0.5 -0.0264,-0.0527 -0.0833,-0.0833 -0.125,-0.125 -0.0417,-0.0417 -0.0833,-0.0833 -0.125,-0.125 -0.0658,-0.0658 -0.30824,-0.34162 -0.375,-0.375 -0.0745,-0.0373 -0.17546,0.0373 -0.25,0 -0.0527,-0.0263 -0.0723,-0.0987 -0.125,-0.125 -0.0373,-0.0186 -0.0833,0 -0.125,0 -0.0417,0 -0.0833,0 -0.125,0 -0.25,0 -0.5,0 -0.75,0 -0.2824,0 0.0559,-0.0186 -0.375,0.125 -0.0791,0.0263 -0.16667,0 -0.25,0 -0.0417,0 -0.125,0.0417 -0.125,0 0,-0.0417 0.16667,0 0.125,0 -0.0833,0 -0.16667,0 -0.25,0 -0.0417,0 -0.0955,0.0295 -0.125,0 -0.0295,-0.0295 0.0295,-0.0955 0,-0.125 -0.0295,-0.0295 -0.0955,0.0295 -0.125,0 -0.0295,-0.0295 0.0295,-0.0955 0,-0.125 -0.0295,-0.0295 -0.0877,0.0186 -0.125,0 -0.0527,-0.0263 -0.0723,-0.0987 -0.125,-0.125 -0.0373,-0.0186 -0.125,0.0417 -0.125,0 0,-0.0417 0.125,0.0417 0.125,0 0,-0.20729 -0.1753,-0.0877 -0.25,-0.125 -0.0527,-0.0263 -0.0723,-0.0987 -0.125,-0.125 -0.0373,-0.0186 -0.0955,0.0295 -0.125,0 -0.0295,-0.0295 0.0295,-0.0955 0,-0.125 -0.0295,-0.0295 -0.0955,0.0295 -0.125,0 -0.0295,-0.0295 0,-0.0833 0,-0.125 -0.0417,0 -0.0877,0.0186 -0.125,0 -0.0527,-0.0263 -0.18393,-0.125 -0.125,-0.125 0.0932,0 0.25,0.21817 0.25,0.125 0,-0.11785 -0.14459,-0.1973 -0.25,-0.25 -0.0745,-0.0373 -0.17546,0.0373 -0.25,0 -0.0373,-0.0186 0.0186,-0.0877 0,-0.125 -0.075,-0.15 -0.3,-0.225 -0.375,-0.375 -0.0186,-0.0373 0.0295,-0.0955 0,-0.125 -0.0295,-0.0295 -0.0877,0.0186 -0.125,0 -0.27638,-0.13819 -0.0388,-0.0776 -0.125,-0.25 -0.075,-0.15 -0.3,-0.225 -0.375,-0.375 -0.0373,-0.0745 0.0373,-0.17547 0,-0.25 -0.26011,-0.52022 0.009,0.13363 -0.25,-0.125 -0.0659,-0.0659 -0.0955,-0.16161 -0.125,-0.25 -0.0264,-0.0791 0.0589,-0.19107 0,-0.25 -0.0295,-0.0295 -0.0955,0.0295 -0.125,0 -0.0295,-0.0295 0.0186,-0.0877 0,-0.125 -0.0527,-0.10541 -0.1973,-0.14459 -0.25,-0.25 -0.0186,-0.0373 0.0295,-0.0955 0,-0.125 -0.0295,-0.0295 -0.0955,0.0295 -0.125,0 -0.0295,-0.0295 0.0132,-0.0855 0,-0.125 -0.30181,-0.90543 0.036,0.19708 -0.25,-0.375 -0.0186,-0.0373 0,-0.0833 0,-0.125 -0.0417,-0.0417 -0.0986,-0.0723 -0.125,-0.125 -0.0186,-0.0373 0.0186,-0.0877 0,-0.125 -0.0264,-0.0527 -0.0923,-0.076 -0.125,-0.125 -0.45316,-0.90632 0.13176,0.19764 -0.25,-0.375 -0.0517,-0.0775 -0.0733,-0.17248 -0.125,-0.25 -0.0327,-0.049 -0.0986,-0.0723 -0.125,-0.125 -0.0186,-0.0373 0.0132,-0.0855 0,-0.125 -0.30181,-0.90543 0.036,0.19708 -0.25,-0.375 -0.0186,-0.0373 0.0186,-0.0877 0,-0.125 -0.0527,-0.10541 -0.1973,-0.14459 -0.25,-0.25 -0.0186,-0.0373 0.0186,-0.0877 0,-0.125 -0.0264,-0.0527 -0.0833,-0.0833 -0.125,-0.125 -0.0417,-0.0417 -0.0833,-0.0833 -0.125,-0.125 -0.0417,-0.0417 -0.0833,-0.0833 -0.125,-0.125 -0.0417,-0.0417 -0.0986,-0.0723 -0.125,-0.125 -0.0186,-0.0373 0,-0.0833 0,-0.125 0,-0.0417 -0.0417,-0.125 0,-0.125 0.0417,0 0.0417,0.125 0,0.125 -0.0589,0 -0.0672,-0.11344 -0.125,-0.125 -0.16343,-0.0327 -0.33333,0 -0.5,0 z"
           id="path4324"
           inkscape:connector-curvature="0" />
        <path
           style="fill:#aa0000;fill-rule:evenodd;stroke:#800000;stroke-width:1px;stroke-linecap:butt;stroke-linejoin:miter;stroke-opacity:1"
           d="m 217.625,819.11216 c 0.27104,-0.13552 0.56846,-0.31369 0.875,-0.375 0.0817,-0.0163 0.17094,0.0263 0.25,0 0.0559,-0.0186 0.0691,-0.10637 0.125,-0.125 0.0791,-0.0263 0.16667,0 0.25,0 0.0417,0 0.0877,0.0186 0.125,0 0.0527,-0.0263 0.0723,-0.0987 0.125,-0.125 0.1,-0.05 0.275,0.05 0.375,0 0.0527,-0.0263 0.0723,-0.0987 0.125,-0.125 0.0786,-0.0393 0.42144,0.0393 0.5,0 0.0527,-0.0263 0.0723,-0.0987 0.125,-0.125 0.0789,-0.0394 0.54614,0.0394 0.625,0 0.0527,-0.0263 0.0723,-0.0987 0.125,-0.125 0.14657,-0.0733 0.14836,0.0742 0.25,0.125 0.0373,0.0186 0.0833,0 0.125,0 0.0833,0 0.16667,0 0.25,0 0.0417,0 0.125,-0.0417 0.125,0 0,0.0417 -0.15446,0.0295 -0.125,0 0.10623,-0.10623 0.24063,-0.18282 0.375,-0.25 0.0745,-0.0373 0.17546,0.0373 0.25,0 0.0527,-0.0263 0.0723,-0.0987 0.125,-0.125 0.0745,-0.0373 0.17546,0.0373 0.25,0 0.0527,-0.0263 0.0723,-0.0987 0.125,-0.125 0.0373,-0.0186 0.0955,0.0295 0.125,0 0.0295,-0.0295 -0.0295,-0.0955 0,-0.125 0.0295,-0.0295 0.0877,0.0186 0.125,0 0.0527,-0.0263 0.076,-0.0923 0.125,-0.125 0.0775,-0.0517 0.18412,-0.0591 0.25,-0.125 0.0295,-0.0295 -0.0295,-0.0955 0,-0.125 0.0295,-0.0295 0.0877,0.0186 0.125,0 0.52022,-0.26011 -0.13363,0.009 0.125,-0.25 0.0295,-0.0295 0.125,-0.0417 0.125,0 0,0.0589 -0.125,0.18393 -0.125,0.125 0,-0.0932 0.125,-0.15683 0.125,-0.25 0,-0.0589 -0.0986,0.0723 -0.125,0.125 -0.0186,0.0373 0.0186,0.0877 0,0.125 -0.0264,0.0527 -0.0986,0.0723 -0.125,0.125 -0.0373,0.0745 0.0373,0.17546 0,0.25 -0.0264,0.0527 -0.0986,0.0723 -0.125,0.125 -0.0394,0.0789 0.0394,0.54614 0,0.625 -0.0264,0.0527 -0.0986,0.0723 -0.125,0.125 -0.0162,0.0323 0,0.6614 0,0.75 0,0.20833 0,0.41667 0,0.625 0,0.0833 0.0373,0.17546 0,0.25 -0.0186,0.0373 -0.0877,-0.0186 -0.125,0 -0.0527,0.0263 -0.0833,0.0833 -0.125,0.125 -0.0417,0.0417 -0.0833,0.0833 -0.125,0.125 0,0.0417 0.0295,0.0955 0,0.125 -0.0849,0.0849 -0.24859,-0.12781 -0.375,0.125 -0.0186,0.0373 0.0295,0.0955 0,0.125 -0.0589,0.0589 -0.17546,-0.0373 -0.25,0 -0.10541,0.0527 -0.14459,0.1973 -0.25,0.25 -0.0373,0.0186 -0.0877,-0.0186 -0.125,0 -0.0527,0.0263 -0.0723,0.0987 -0.125,0.125 -0.0373,0.0186 -0.0955,-0.0295 -0.125,0 -0.25863,0.25863 0.39522,-0.0101 -0.125,0.25 -0.0496,0.0248 -0.34945,-0.0256 -0.375,0 -0.0295,0.0295 0.0295,0.0955 0,0.125 -0.48784,0.48784 -0.0671,-0.0289 -0.375,0.125 -0.10541,0.0527 -0.14459,0.1973 -0.25,0.25 -0.0786,0.0393 -0.42143,-0.0393 -0.5,0 -0.0527,0.0263 -0.0723,0.0987 -0.125,0.125 -0.0745,0.0373 -0.17546,-0.0373 -0.25,0 -0.0527,0.0263 -0.0723,0.0987 -0.125,0.125 -0.1,0.05 -0.275,-0.05 -0.375,0 -0.0527,0.0263 -0.0723,0.0987 -0.125,0.125 -0.0329,0.0164 -0.43463,0 -0.5,0 -0.0654,0 -0.46713,0.0164 -0.5,0 -0.0527,-0.0263 -0.0723,-0.0987 -0.125,-0.125 -0.0373,-0.0186 -0.0833,0 -0.125,0 -0.0833,-0.0417 -0.17248,-0.0733 -0.25,-0.125 -0.11379,-0.0759 -0.26421,-0.3196 -0.375,-0.375 -0.0373,-0.0186 -0.0955,0.0295 -0.125,0 -0.0659,-0.0659 -0.0733,-0.17248 -0.125,-0.25 -0.0327,-0.049 -0.0986,-0.0723 -0.125,-0.125 -0.0373,-0.0745 0.0373,-0.17547 0,-0.25 -0.41457,-0.41457 0.0589,0.11785 -0.125,-0.25 -0.0264,-0.0527 -0.0986,-0.0723 -0.125,-0.125 -0.0162,-0.0323 0,-0.6614 0,-0.75 0,-0.0303 -0.004,-0.37098 0,-0.375 0.0295,-0.0295 0.0877,0.0186 0.125,0 0.0527,-0.0263 0.0833,-0.0833 0.125,-0.125 0.24285,-0.24285 0.0661,-0.125 0.625,-0.125 z"
           id="path4328"
           inkscape:connector-curvature="0" />
        <path
           style="fill:#aa0000;fill-rule:evenodd;stroke:#800000;stroke-width:1px;stroke-linecap:butt;stroke-linejoin:miter;stroke-opacity:1"
           d="m 221,815.11216 c -0.54042,0.1351 -0.3282,0.125 -0.625,0.125 -0.0417,0 -0.0877,-0.0186 -0.125,0 -0.10541,0.0527 -0.14459,0.1973 -0.25,0.25 -0.0373,0.0186 -0.0877,-0.0186 -0.125,0 -0.0579,0.0289 -0.42648,0.42648 -0.5,0.5 -0.0833,0.0833 -0.15194,0.18463 -0.25,0.25 -0.0775,0.0517 -0.17248,0.0733 -0.25,0.125 -0.0981,0.0654 -0.16667,0.16667 -0.25,0.25 -0.16667,0.16667 -0.33333,0.33333 -0.5,0.5 -0.0417,0.0417 -0.0833,0.0833 -0.125,0.125 -0.0417,0.0417 -0.0723,0.0987 -0.125,0.125 -0.0373,0.0186 -0.0955,-0.0295 -0.125,0 -0.0295,0.0295 0.0186,0.0877 0,0.125 -0.0264,0.0527 -0.0986,0.0723 -0.125,0.125 -0.0409,0.0819 0.037,0.51407 0,0.625 -0.0295,0.0884 -0.0955,0.16161 -0.125,0.25 -0.0132,0.0395 0.0132,0.0855 0,0.125 -0.0295,0.0884 -0.125,0.15683 -0.125,0.25 0,0.0417 0.0955,-0.0295 0.125,0 0.25863,0.25863 -0.39522,-0.0101 0.125,0.25 0.0323,0.0162 0.70377,0.0154 0.75,0 0.90543,-0.30181 -0.19708,0.036 0.375,-0.25 0.0496,-0.0248 0.34945,0.0255 0.375,0 0.0295,-0.0295 -0.0295,-0.0955 0,-0.125 0.0295,-0.0295 0.0877,0.0186 0.125,0 0.0527,-0.0263 0.0723,-0.0987 0.125,-0.125 0.0789,-0.0394 0.54614,0.0394 0.625,0 0.0527,-0.0263 0.0723,-0.0987 0.125,-0.125 0.0452,-0.0226 0.53806,0 0.625,0 0.0417,0 0.0833,0 0.125,0 0.0417,0 0.0877,0.0186 0.125,0 0.0527,-0.0263 0.0723,-0.0987 0.125,-0.125 0.0373,-0.0186 0.0833,0 0.125,0 0.0417,0 0.0833,0 0.125,0 0.12111,0 0.67547,0.0248 0.75,0 0.0884,-0.0295 0.16161,-0.0955 0.25,-0.125 0.0395,-0.0132 0.0855,0.0132 0.125,0 0.0884,-0.0295 0.16161,-0.0955 0.25,-0.125 0.0395,-0.0132 0.0877,0.0186 0.125,0 0.57208,-0.28604 -0.53043,0.0518 0.375,-0.25 0.0791,-0.0263 0.17546,0.0373 0.25,0 0.0527,-0.0263 0.0833,-0.0833 0.125,-0.125 0.0417,-0.0417 0.0986,-0.0723 0.125,-0.125 0.0186,-0.0373 -0.0186,-0.0877 0,-0.125 0.0264,-0.0527 0.0986,-0.0723 0.125,-0.125 0.0186,-0.0373 0,-0.0833 0,-0.125 0,-0.0833 0,-0.16667 0,-0.25 0,-0.20833 0,-0.41667 0,-0.625 0,-0.20833 0,-0.41667 0,-0.625 0,-0.0821 0.0235,-0.30448 0,-0.375 -0.0295,-0.0884 -0.0833,-0.16667 -0.125,-0.25 -0.0417,-0.0833 -0.0733,-0.17248 -0.125,-0.25 -0.0327,-0.049 -0.0723,-0.0987 -0.125,-0.125 -0.0329,-0.0164 -0.43463,0 -0.5,0 -0.0417,0 -0.0955,0.0295 -0.125,0 -0.0295,-0.0295 0.0295,-0.0955 0,-0.125 -0.0295,-0.0295 -0.0833,0 -0.125,0 -0.0417,0 -0.0833,0 -0.125,0 -0.25,0 -0.5,0 -0.75,0 -0.0417,0 -0.0833,0 -0.125,0 -0.0417,0 -0.0877,-0.0186 -0.125,0 -0.0527,0.0263 -0.0833,0.0833 -0.125,0.125 -0.16667,0.125 -0.30493,0.30185 -0.5,0.375 -0.15605,0.0585 -0.33333,0 -0.5,0"
           id="path4330"
           inkscape:connector-curvature="0" />
        <path
           style="fill:#550000;fill-rule:evenodd;stroke:#2b0000;stroke-width:1px;stroke-linecap:butt;stroke-linejoin:miter;stroke-opacity:1"
           d="m 216.625,820.36216 c -0.16667,0.0833 -0.35093,0.1382 -0.5,0.25 -0.0333,0.025 0.0186,0.0877 0,0.125 -0.0264,0.0527 -0.0923,0.076 -0.125,0.125 -0.0517,0.0775 -0.0833,0.16667 -0.125,0.25 -0.0417,0.0833 -0.0955,0.16161 -0.125,0.25 -0.0335,0.10061 0.0399,0.42012 0,0.5 -0.0264,0.0527 -0.0986,0.0723 -0.125,0.125 -0.0186,0.0373 0.0295,0.0955 0,0.125 -0.0295,0.0295 -0.0955,-0.0295 -0.125,0 -0.0295,0.0295 0.0132,0.0855 0,0.125 -0.0295,0.0884 -0.0955,0.16161 -0.125,0.25 -0.0132,0.0395 0.0186,0.0877 0,0.125 -0.0264,0.0527 -0.0986,0.0723 -0.125,0.125 -0.0186,0.0373 0.0186,0.0877 0,0.125 -0.0264,0.0527 -0.0986,0.0723 -0.125,0.125 -0.0373,0.0745 0.0373,0.17546 0,0.25 -0.0264,0.0527 -0.0986,0.0723 -0.125,0.125 -0.0373,0.0745 0.0373,0.17546 0,0.25 -0.0264,0.0527 -0.0986,0.0723 -0.125,0.125 -0.05,0.1 0.05,0.275 0,0.375 -0.0264,0.0527 -0.0986,0.0723 -0.125,0.125 -0.0186,0.0373 0.0295,0.0955 0,0.125 -0.0295,0.0295 -0.0955,-0.0295 -0.125,0 -0.0295,0.0295 0,0.0833 0,0.125 0,0.0869 0.0226,0.57979 0,0.625 -0.0264,0.0527 -0.0986,0.0723 -0.125,0.125 -0.0186,0.0373 0,0.0833 0,0.125 0,0.0417 0,0.0833 0,0.125 0,0.20833 0,0.41667 0,0.625 0,0.29315 -0.0295,-0.0589 0.125,0.25 0.0394,0.0789 -0.0394,0.54614 0,0.625 0.41457,0.41457 -0.0589,-0.11785 0.125,0.25 0.0264,0.0527 0.0986,0.0723 0.125,0.125 0.0186,0.0373 -0.0132,0.0855 0,0.125 0.0295,0.0884 0.0955,0.16161 0.125,0.25 0.0132,0.0395 -0.0132,0.0855 0,0.125 0.0295,0.0884 0.0955,0.16161 0.125,0.25 0.0264,0.0791 -0.0373,0.17546 0,0.25 0.41457,0.41457 -0.0589,-0.11785 0.125,0.25 0.0264,0.0527 0.0986,0.0723 0.125,0.125 0.0186,0.0373 -0.0186,0.0877 0,0.125 0.0264,0.0527 0.0986,0.0723 0.125,0.125 0.0373,0.0745 -0.0373,0.17546 0,0.25 0.0527,0.10541 0.18463,0.15194 0.25,0.25 0.0517,0.0775 0.0733,0.17248 0.125,0.25 0.0327,0.049 0.0986,0.0723 0.125,0.125 0.0186,0.0373 -0.0132,0.0855 0,0.125 0.15105,0.45316 0.0593,0.089 0.25,0.375 0.0517,0.0775 0.0733,0.17248 0.125,0.25 0.0654,0.0981 0.1973,0.14459 0.25,0.25 0.0186,0.0373 -0.0186,0.0877 0,0.125 0.0264,0.0527 0.0923,0.076 0.125,0.125 0.0517,0.0775 0.0733,0.17248 0.125,0.25 0.0654,0.0981 0.1973,0.14459 0.25,0.25 0.15393,0.30787 -0.36284,-0.11284 0.125,0.375 0.0295,0.0295 0.0955,-0.0295 0.125,0 0.008,0.008 0.23448,0.47672 0.25,0.5 0.0654,0.0981 0.1973,0.14459 0.25,0.25 0.0373,0.0745 -0.0373,0.17546 0,0.25 0.0668,0.13356 0.18322,0.11643 0.25,0.25 0.0373,0.0745 -0.0373,0.17546 0,0.25 0.0264,0.0527 0.0986,0.0723 0.125,0.125 0.0186,0.0373 -0.0186,0.0877 0,0.125 0.0264,0.0527 0.0923,0.076 0.125,0.125 0.0517,0.0775 0.0733,0.17248 0.125,0.25 0.0327,0.049 0.0986,0.0723 0.125,0.125 0.0186,0.0373 -0.0186,0.0877 0,0.125 0.0264,0.0527 0.0986,0.0723 0.125,0.125 0.0186,0.0373 0,0.0833 0,0.125 0.0417,0.0417 0.0986,0.0723 0.125,0.125 0.0186,0.0373 -0.0132,0.0855 0,0.125 0.0295,0.0884 0.0955,0.16161 0.125,0.25 0.0132,0.0395 -0.0186,0.0877 0,0.125 0.0264,0.0527 0.0986,0.0723 0.125,0.125 0.0186,0.0373 -0.0132,0.0855 0,0.125 0.0295,0.0884 0.0955,0.16161 0.125,0.25 0.0395,0.11859 -0.0303,0.25373 0,0.375 0.0226,0.0904 0.0955,0.16161 0.125,0.25 0.0264,0.0791 -0.0264,0.17094 0,0.25 0.0295,0.0884 0.0955,0.16161 0.125,0.25 0.0264,0.0791 -0.0373,0.17546 0,0.25 0.0264,0.0527 0.0986,0.0723 0.125,0.125 0.0162,0.0323 0,0.6614 0,0.75 0,0.625 0,1.25 0,1.875 0,0.45833 0,0.91667 0,1.375 0,0.11267 0.0262,0.54633 0,0.625 -0.0295,0.0884 -0.0955,0.16161 -0.125,0.25 -0.0335,0.10061 0.0399,0.42012 0,0.5 -0.0264,0.0527 -0.0986,0.0723 -0.125,0.125 -0.0186,0.0373 0,0.0833 0,0.125 0,0.0886 0.0162,0.71768 0,0.75 -0.0264,0.0527 -0.0986,0.0723 -0.125,0.125 -0.0399,0.0799 0.0335,0.39939 0,0.5 -0.0295,0.0884 -0.0955,0.16161 -0.125,0.25 -0.0264,0.0791 0.0264,0.17094 0,0.25 -0.0295,0.0884 -0.0955,0.16161 -0.125,0.25 -0.0132,0.0395 0.0186,0.0877 0,0.125 -0.0264,0.0527 -0.0986,0.0723 -0.125,0.125 -0.0393,0.0786 0.0393,0.42143 0,0.5 -0.26011,0.52022 0.009,-0.13363 -0.25,0.125 -0.0589,0.0589 0.0373,0.17546 0,0.25 -0.0264,0.0527 -0.0986,0.0723 -0.125,0.125 -0.0186,0.0373 0.0417,0.125 0,0.125 -0.0417,0 -0.0295,-0.15446 0,-0.125 0.0659,0.0659 0.0591,0.18412 0.125,0.25 0.0295,0.0295 0.0955,-0.0295 0.125,0 0.25863,0.25863 -0.39522,-0.0101 0.125,0.25 0.0373,0.0186 0.0955,-0.0295 0.125,0 0.0295,0.0295 -0.0132,0.0855 0,0.125 0.30181,0.90543 -0.036,-0.19708 0.25,0.375 0.0162,0.0323 0,0.6614 0,0.75 0,0.5 0,1 0,1.5 0,0.0417 0,0.0833 0,0.125 0,0.0417 -0.0295,0.0955 0,0.125 0.0295,0.0295 0.0955,-0.0295 0.125,0 0.0687,0.0687 -0.12115,0.5 0.125,0.5 0.0589,0 0.0986,-0.0723 0.125,-0.125 0.0186,-0.0373 -0.0186,-0.0877 0,-0.125 0.0264,-0.0527 0.0986,-0.0723 0.125,-0.125 0.0186,-0.0373 0,-0.0833 0,-0.125 0.0417,-0.0417 0.0986,-0.0723 0.125,-0.125 0.0186,-0.0373 -0.0186,-0.0877 0,-0.125 0.0264,-0.0527 0.0986,-0.0723 0.125,-0.125 0.0186,-0.0373 -0.0186,-0.0877 0,-0.125 0.0264,-0.0527 0.0923,-0.076 0.125,-0.125 0.0517,-0.0775 0.0733,-0.17248 0.125,-0.25 0.0654,-0.0981 0.18463,-0.15194 0.25,-0.25 0.0517,-0.0775 0.0733,-0.17248 0.125,-0.25 0.0327,-0.049 0.0986,-0.0723 0.125,-0.125 0.0373,-0.0745 -0.0373,-0.17547 0,-0.25 0.0527,-0.10541 0.18463,-0.15194 0.25,-0.25 0.0517,-0.0775 0.0591,-0.18412 0.125,-0.25 0.25863,-0.25863 -0.0101,0.39522 0.25,-0.125 0.0186,-0.0373 -0.0186,-0.0877 0,-0.125 0.0264,-0.0527 0.0986,-0.0723 0.125,-0.125 0.0186,-0.0373 -0.0186,-0.0877 0,-0.125 0.0264,-0.0527 0.0986,-0.0723 0.125,-0.125 0.0373,-0.0745 -0.0373,-0.17547 0,-0.25 0.0264,-0.0527 0.0986,-0.0723 0.125,-0.125 0.0186,-0.0373 0,-0.0833 0,-0.125 0.0417,-0.0833 0.0733,-0.17248 0.125,-0.25 0.0327,-0.049 0.0986,-0.0723 0.125,-0.125 0.0373,-0.0745 -0.0373,-0.17547 0,-0.25 0.41457,-0.41457 -0.0589,0.11785 0.125,-0.25 0.0264,-0.0527 0.0986,-0.0723 0.125,-0.125 0.0164,-0.0329 0,-0.43463 0,-0.5 0,-0.0833 -0.0264,-0.17094 0,-0.25 0.0295,-0.0884 0.0955,-0.16161 0.125,-0.25 0.0246,-0.0738 0,-0.55516 0,-0.625 0,-0.0417 -0.0132,-0.0855 0,-0.125 0.0295,-0.0884 0.0955,-0.16161 0.125,-0.25 0.0351,-0.10524 -0.0372,-0.55058 0,-0.625 0.0264,-0.0527 0.0986,-0.0723 0.125,-0.125 0.0162,-0.0323 0,-0.6614 0,-0.75 0,-0.0886 0.0162,-0.71768 0,-0.75 -0.0264,-0.0527 -0.0986,-0.0723 -0.125,-0.125 -0.0394,-0.0789 0.0394,-0.54614 0,-0.625 -0.0264,-0.0527 -0.0986,-0.0723 -0.125,-0.125 -0.0379,-0.0759 0.0379,-0.6741 0,-0.75 -0.0264,-0.0527 -0.0986,-0.0723 -0.125,-0.125 -0.0373,-0.0745 0.0373,-0.17547 0,-0.25 -0.0264,-0.0527 -0.0986,-0.0723 -0.125,-0.125 -0.0373,-0.0745 0.0264,-0.17094 0,-0.25 -0.0295,-0.0884 -0.0955,-0.16161 -0.125,-0.25 -0.0132,-0.0395 0.0186,-0.0877 0,-0.125 -0.0264,-0.0527 -0.0986,-0.0723 -0.125,-0.125 -0.0186,-0.0373 0.0186,-0.0877 0,-0.125 -0.28604,-0.57208 0.0518,0.53043 -0.25,-0.375 -0.0132,-0.0395 0.0132,-0.0855 0,-0.125 -0.0295,-0.0884 -0.0833,-0.16667 -0.125,-0.25 -0.0417,-0.0833 -0.0733,-0.17248 -0.125,-0.25 -0.0327,-0.049 -0.0986,-0.0723 -0.125,-0.125 -0.0186,-0.0373 0.0186,-0.0877 0,-0.125 -0.0264,-0.0527 -0.0986,-0.0723 -0.125,-0.125 -0.0373,-0.0745 0.0264,-0.17094 0,-0.25 -0.0295,-0.0884 -0.0955,-0.16161 -0.125,-0.25 -0.0132,-0.0395 0.0186,-0.0877 0,-0.125 -0.0264,-0.0527 -0.0986,-0.0723 -0.125,-0.125 -0.0186,-0.0373 0.0186,-0.0877 0,-0.125 -0.0264,-0.0527 -0.0986,-0.0723 -0.125,-0.125 -0.0373,-0.0745 0.0373,-0.17547 0,-0.25 -0.0264,-0.0527 -0.0986,-0.0723 -0.125,-0.125 -0.0186,-0.0373 0.0132,-0.0855 0,-0.125 -0.0295,-0.0884 -0.0955,-0.16161 -0.125,-0.25 -0.0132,-0.0395 0.0186,-0.0877 0,-0.125 -0.0264,-0.0527 -0.0986,-0.0723 -0.125,-0.125 -0.05,-0.1 0.05,-0.275 0,-0.375 -0.0264,-0.0527 -0.0986,-0.0723 -0.125,-0.125 -0.0186,-0.0373 0,-0.0833 0,-0.125 -0.0417,-0.0833 -0.0733,-0.17248 -0.125,-0.25 -0.0327,-0.049 -0.0986,-0.0723 -0.125,-0.125 -0.0186,-0.0373 0,-0.0833 0,-0.125 -0.0417,-0.0833 -0.0733,-0.17248 -0.125,-0.25 -0.0327,-0.049 -0.0986,-0.0723 -0.125,-0.125 -0.0186,-0.0373 0,-0.0833 0,-0.125 -0.0417,-0.0833 -0.0733,-0.17248 -0.125,-0.25 -0.0327,-0.049 -0.0986,-0.0723 -0.125,-0.125 -0.0186,-0.0373 0.0186,-0.0877 0,-0.125 -0.075,-0.15 -0.3,-0.225 -0.375,-0.375 -0.0186,-0.0373 0.0186,-0.0877 0,-0.125 -0.0554,-0.11079 -0.29914,-0.26121 -0.375,-0.375 -0.0517,-0.0775 -0.0733,-0.17248 -0.125,-0.25 -0.19069,-0.28604 -0.099,0.0782 -0.25,-0.375 -0.12403,-0.3721 0.29598,0.25648 -0.125,-0.375 -0.0654,-0.0981 -0.18463,-0.15194 -0.25,-0.25 -0.0517,-0.0775 -0.0733,-0.17248 -0.125,-0.25 -0.0654,-0.0981 -0.1973,-0.14459 -0.25,-0.25 -0.0186,-0.0373 0.0186,-0.0877 0,-0.125 -0.0527,-0.10541 -0.18463,-0.15194 -0.25,-0.25 -0.0517,-0.0775 -0.0733,-0.17248 -0.125,-0.25 -0.0327,-0.049 -0.0986,-0.0723 -0.125,-0.125 -0.0186,-0.0373 0.0186,-0.0877 0,-0.125 -0.0527,-0.10541 -0.1973,-0.14459 -0.25,-0.25 -0.0186,-0.0373 0.0186,-0.0877 0,-0.125 -0.0264,-0.0527 -0.0986,-0.0723 -0.125,-0.125 -0.0186,-0.0373 0.0186,-0.0877 0,-0.125 -0.0264,-0.0527 -0.0923,-0.076 -0.125,-0.125 -0.0517,-0.0775 -0.0733,-0.17248 -0.125,-0.25 -0.0327,-0.049 -0.0986,-0.0723 -0.125,-0.125 -0.0186,-0.0373 0.0186,-0.0877 0,-0.125 -0.0264,-0.0527 -0.0986,-0.0723 -0.125,-0.125 -0.0186,-0.0373 0.0186,-0.0877 0,-0.125 -0.41457,-0.41457 0.0589,0.11785 -0.125,-0.25 -0.0264,-0.0527 -0.0986,-0.0723 -0.125,-0.125 -0.0186,-0.0373 0.0186,-0.0877 0,-0.125 -0.0264,-0.0527 -0.0986,-0.0723 -0.125,-0.125 -0.0186,-0.0373 0.0132,-0.0855 0,-0.125 -0.0295,-0.0884 -0.0955,-0.16161 -0.125,-0.25 -0.0132,-0.0395 0.0186,-0.0877 0,-0.125 -0.0264,-0.0527 -0.0986,-0.0723 -0.125,-0.125 -0.0373,-0.0745 0.0373,-0.17547 0,-0.25 -0.0264,-0.0527 -0.0986,-0.0723 -0.125,-0.125 -0.0373,-0.0745 0.0373,-0.17547 0,-0.25 -0.0264,-0.0527 -0.0986,-0.0723 -0.125,-0.125 -0.0186,-0.0373 0,-0.0833 0,-0.125 0,-0.0417 0,-0.0833 0,-0.125 0,-0.20833 0,-0.41667 0,-0.625 0,-0.29315 0.0295,0.0589 -0.125,-0.25 -0.0186,-0.0373 0,-0.0833 0,-0.125 0,-0.28241 -0.0186,0.0559 0.125,-0.375 0.0264,-0.0791 -0.0373,-0.17547 0,-0.25 0.0264,-0.0527 0.0986,-0.0723 0.125,-0.125 0.0399,-0.0799 -0.0335,-0.39939 0,-0.5 0.0417,-0.0833 0.0833,-0.16667 0.125,-0.25 0.0417,0 0.0955,0.0295 0.125,0 0.0295,-0.0295 -0.0186,-0.0877 0,-0.125 0.0527,-0.10541 0.1973,-0.14459 0.25,-0.25 0.0373,-0.0745 -0.0373,-0.17547 0,-0.25 0.075,-0.15 0.3,-0.225 0.375,-0.375 0.0186,-0.0373 0,-0.0833 0,-0.125 0.0417,-0.0417 0.0986,-0.0723 0.125,-0.125 0.0373,-0.0745 -0.0373,-0.17547 0,-0.25 0.0264,-0.0527 0.0923,-0.076 0.125,-0.125 0.2227,-0.33405 0.10075,-0.47201 0,-0.875 z"
           id="path4332"
           inkscape:connector-curvature="0" />
        <path
           style="fill:#aa0000;fill-rule:evenodd;stroke:#800000;stroke-width:1px;stroke-linecap:butt;stroke-linejoin:miter;stroke-opacity:1"
           d="m 216.625,821.86216 c 0.0292,0.36921 -0.35201,0.40301 -0.5,0.625 -0.0517,0.0775 -0.0733,0.17248 -0.125,0.25 -0.0327,0.049 -0.0986,0.0723 -0.125,0.125 -0.0186,0.0373 0,0.0833 0,0.125 0,0.0417 0,0.0833 0,0.125 0,0.25 0,0.5 0,0.75 0,0.0417 0,0.0833 0,0.125 0,0.0417 0.0186,0.0877 0,0.125 -0.0264,0.0527 -0.0986,0.0723 -0.125,0.125 -0.0164,0.0329 0,0.43463 0,0.5 0,0.20833 0,0.41667 0,0.625 0,0.0417 0,0.0833 0,0.125 0,0.0417 -0.0186,0.0877 0,0.125 0.0264,0.0527 0.0986,0.0723 0.125,0.125 0.0373,0.0745 -0.0373,0.17546 0,0.25 0.0264,0.0527 0.0986,0.0723 0.125,0.125 0.0186,0.0373 0,0.0833 0,0.125 0,0.0698 -0.0246,0.55123 0,0.625 0.0295,0.0884 0.0955,0.16161 0.125,0.25 0.0264,0.0791 -0.0373,0.17546 0,0.25 0.0264,0.0527 0.0986,0.0723 0.125,0.125 0.0186,0.0373 -0.0186,0.0877 0,0.125 0.0264,0.0527 0.0986,0.0723 0.125,0.125 0.0373,0.0745 -0.0373,0.17546 0,0.25 0.0652,0.13041 0.30232,0.19768 0.25,0.25 -0.0479,0.0479 -0.40384,-0.52884 0.125,0 0.0295,0.0295 -0.0186,0.0877 0,0.125 0.0264,0.0527 0.0986,0.0723 0.125,0.125 0.0186,0.0373 -0.0295,0.0955 0,0.125 0.0295,0.0295 0.0955,-0.0295 0.125,0 0.0295,0.0295 -0.0186,0.0877 0,0.125 0.0527,0.10541 0.1973,0.14459 0.25,0.25 0.0186,0.0373 -0.0295,0.0955 0,0.125 0.0295,0.0295 0.0955,-0.0295 0.125,0 0.0295,0.0295 -0.0186,0.0877 0,0.125 0.0264,0.0527 0.0986,0.0723 0.125,0.125 0.0186,0.0373 -0.0186,0.0877 0,0.125 0.0668,0.13356 0.18322,0.11643 0.25,0.25 0.0186,0.0373 -0.0186,0.0877 0,0.125 0.0264,0.0527 0.0986,0.0723 0.125,0.125 0.0186,0.0373 -0.0186,0.0877 0,0.125 0.0264,0.0527 0.0923,0.076 0.125,0.125 0.0517,0.0775 0.0733,0.17248 0.125,0.25 0.0654,0.0981 0.1973,0.14459 0.25,0.25 0.0373,0.0745 -0.0373,0.17546 0,0.25 0.0264,0.0527 0.0833,0.0833 0.125,0.125 0.0417,0.0417 0.0723,0.0987 0.125,0.125 0.0373,0.0186 0.0955,-0.0295 0.125,0 0.0295,0.0295 -0.0186,0.0877 0,0.125 0.0264,0.0527 0.0923,0.076 0.125,0.125 0.0517,0.0775 0.0733,0.17248 0.125,0.25 0.0327,0.049 0.0986,0.0723 0.125,0.125 0.0186,0.0373 -0.0186,0.0877 0,0.125 0.0527,0.10541 0.1973,0.14459 0.25,0.25 0.0186,0.0373 -0.0295,0.0955 0,0.125 0.16667,0.16667 0.11995,-0.26517 0.25,0.125 0.0264,0.0791 -0.0264,0.17094 0,0.25 0.13006,0.39017 0.0833,-0.0417 0.25,0.125 0.0659,0.0659 0.0733,0.17248 0.125,0.25 0.0327,0.049 0.0986,0.0723 0.125,0.125 0.0373,0.0745 -0.0373,0.17546 0,0.25 0.0264,0.0527 0.0923,0.076 0.125,0.125 0.0517,0.0775 0.0591,0.18412 0.125,0.25 0.0295,0.0295 0.0955,-0.0295 0.125,0 0.0301,0.0301 -0.0301,0.46992 0,0.5 0.0295,0.0295 0.0877,-0.0186 0.125,0 0.0527,0.0263 0.0833,0.0833 0.125,0.125 0.0417,0.0417 0.0986,0.0723 0.125,0.125 0.0186,0.0373 -0.0186,0.0877 0,0.125 0.0527,0.10541 0.1973,0.14459 0.25,0.25 0.0339,0.0678 -0.0342,0.4658 0,0.5 0.25863,0.25863 -0.0101,-0.39522 0.25,0.125 0.0186,0.0373 -0.0186,0.0877 0,0.125 0.0264,0.0527 0.0986,0.0723 0.125,0.125 0.0186,0.0373 -0.0295,0.0955 0,0.125 0.0295,0.0295 0.0955,-0.0295 0.125,0 0.0589,0.0589 -0.0373,0.17546 0,0.25 0.0264,0.0527 0.0986,0.0723 0.125,0.125 0.05,0.1 -0.05,0.275 0,0.375 0.0264,0.0527 0.0986,0.0723 0.125,0.125 0.0186,0.0373 -0.0186,0.0877 0,0.125 0.0264,0.0527 0.0986,0.0723 0.125,0.125 0.0186,0.0373 -0.0295,0.0955 0,0.125 0.0295,0.0295 0.0955,-0.0295 0.125,0 0.0439,0.0439 -0.0432,0.53866 0,0.625 0.0264,0.0527 0.0986,0.0723 0.125,0.125 0.0399,0.0799 -0.0335,0.39939 0,0.5 0.0838,0.25153 0.16616,0.24847 0.25,0.5 0.0335,0.10061 -0.0399,0.42012 0,0.5 0.0264,0.0527 0.0986,0.0723 0.125,0.125 0.0399,0.0799 -0.0335,0.39939 0,0.5 0.0295,0.0884 0.0955,0.16161 0.125,0.25 0.0264,0.0791 0,0.16667 0,0.25 0,0.20833 0,0.41667 0,0.625 0,0.0417 0,0.0833 0,0.125 0,0.0417 -0.0295,0.0955 0,0.125 0.0295,0.0295 0.0955,-0.0295 0.125,0 0.006,0.006 0,0.56606 0,0.625 0,0.41667 0,0.83333 0,1.25 0,0.0654 0.0164,0.46713 0,0.5 -0.0264,0.0527 -0.0986,0.0723 -0.125,0.125 -0.0394,0.0789 0.0394,0.54614 0,0.625 -0.0264,0.0527 -0.0986,0.0723 -0.125,0.125 -0.0186,0.0373 0,0.0833 0,0.125 0,0.0417 0,0.0833 0,0.125 0,0.20833 0,0.41667 0,0.625 0,0.0417 0,0.0833 0,0.125 0,0.0417 0.0186,0.0877 0,0.125 -0.0264,0.0527 -0.0986,0.0723 -0.125,0.125 -0.0369,0.0738 0.0287,0.28902 0,0.375 -0.0295,0.0884 -0.0955,0.16161 -0.125,0.25 -0.0264,0.0791 0,0.16667 0,0.25 0,0.20833 0,0.41667 0,0.625 0,0.0417 0,0.0833 0,0.125 0,0.0417 0.0186,0.0877 0,0.125 -0.0264,0.0527 -0.0986,0.0723 -0.125,0.125 -0.019,0.038 0,0.31871 0,0.375 0,0.25 0,0.5 0,0.75 0,0.0654 0.0164,0.46713 0,0.5 -0.0264,0.0527 -0.0986,0.0723 -0.125,0.125 -0.0164,0.0329 0,0.43463 0,0.5 0,0.20833 0,0.41667 0,0.625 0,0.0833 0.0264,0.17094 0,0.25 -0.0295,0.0884 -0.0955,0.16161 -0.125,0.25 -0.0395,0.11847 0.0395,0.50653 0,0.625 -0.0295,0.0884 -0.0955,0.16161 -0.125,0.25 -0.0132,0.0395 0.0186,0.0877 0,0.125 -0.0264,0.0527 -0.0986,0.0723 -0.125,0.125 -0.05,0.1 0.05,0.275 0,0.375 -0.0264,0.0527 -0.0986,0.0723 -0.125,0.125 -0.0394,0.0789 0.0394,0.54614 0,0.625 -0.0264,0.0527 -0.0986,0.0723 -0.125,0.125 -0.0373,0.0745 0.0589,0.19107 0,0.25 -0.0295,0.0295 -0.0955,-0.0295 -0.125,0 -0.0295,0.0295 0,0.0833 0,0.125 0,0.0563 -0.019,0.33696 0,0.375 0.0527,0.10541 0.1973,0.14459 0.25,0.25 0.0186,0.0373 -0.0295,0.0955 0,0.125 0.0589,0.0589 0.17546,-0.0373 0.25,0 0.10541,0.0527 0.14459,0.1973 0.25,0.25 0.0745,0.0373 0.17546,-0.0373 0.25,0 0.0527,0.0263 0.0833,0.0833 0.125,0.125 0.0976,0.0976 0.26714,0.30309 0.375,0.375 0.0775,0.0517 0.17248,0.0733 0.25,0.125 0.0981,0.0654 0.15194,0.18463 0.25,0.25 0.90632,0.45316 -0.19764,-0.13176 0.375,0.25 0.15504,0.10336 0.34496,0.14664 0.5,0.25 0.049,0.0327 0.0723,0.0987 0.125,0.125 0.0373,0.0186 0.0877,-0.0186 0.125,0 0.0527,0.0263 0.076,0.0923 0.125,0.125 0.15504,0.10336 0.34496,0.14664 0.5,0.25 0.049,0.0327 0.076,0.0923 0.125,0.125 0.0775,0.0517 0.17248,0.0733 0.25,0.125 0.049,0.0327 0.0723,0.0987 0.125,0.125 0.11785,0.0589 0.25715,0.0661 0.375,0.125 0.15,0.075 0.225,0.3 0.375,0.375 0.0373,0.0186 0.0877,-0.0186 0.125,0 0.0579,0.0289 0.42648,0.42648 0.5,0.5 0.0417,0.0417 0.0661,0.125 0.125,0.125 0.20729,0 0.0876,-0.1753 0.125,-0.25 0.0264,-0.0527 0.0986,-0.0723 0.125,-0.125 0.0373,-0.0745 -0.0373,-0.17546 0,-0.25 0.0264,-0.0527 0.0986,-0.0723 0.125,-0.125 0.05,-0.1 -0.05,-0.275 0,-0.375 0.0264,-0.0527 0.0986,-0.0723 0.125,-0.125 0.0394,-0.0789 -0.0394,-0.54614 0,-0.625 0.0264,-0.0527 0.0986,-0.0723 0.125,-0.125 0.0369,-0.0738 -0.0287,-0.28902 0,-0.375 0.0295,-0.0884 0.0955,-0.16161 0.125,-0.25 0.0248,-0.0745 0,-0.62889 0,-0.75 0,-0.5 0,-1 0,-1.5 0,-0.45833 0,-0.91667 0,-1.375 0,-0.0869 0.0226,-0.5798 0,-0.625 -0.0264,-0.0527 -0.0986,-0.0723 -0.125,-0.125 -0.0393,-0.0786 0.0393,-0.42143 0,-0.5 -0.0264,-0.0527 -0.0986,-0.0723 -0.125,-0.125 -0.0394,-0.0789 0.0394,-0.54614 0,-0.625 -0.0264,-0.0527 -0.0986,-0.0723 -0.125,-0.125 -0.0394,-0.0789 0.0394,-0.54614 0,-0.625 -0.0264,-0.0527 -0.0986,-0.0723 -0.125,-0.125 -0.0379,-0.0759 0.0379,-0.6741 0,-0.75 -0.0264,-0.0527 -0.0986,-0.0723 -0.125,-0.125 -0.0162,-0.0323 0,-0.6614 0,-0.75 0,-0.0417 0,-0.0833 0,-0.125 0,-0.0417 0.0186,-0.0877 0,-0.125 -0.0264,-0.0527 -0.0986,-0.0723 -0.125,-0.125 -0.0186,-0.0373 0,-0.0833 0,-0.125 0,-0.0417 0,-0.0833 0,-0.125 0,-0.20833 0,-0.41667 0,-0.625 0,-0.0417 0.0186,-0.0877 0,-0.125 -0.0264,-0.0527 -0.0986,-0.0723 -0.125,-0.125 -0.0399,-0.0799 0.0335,-0.39939 0,-0.5 -0.0295,-0.0884 -0.0955,-0.16161 -0.125,-0.25 -0.0132,-0.0395 0,-0.0833 0,-0.125 0,-0.11267 0.0262,-0.54633 0,-0.625 -0.0295,-0.0884 -0.0955,-0.16161 -0.125,-0.25 -0.0264,-0.0791 0.0373,-0.17547 0,-0.25 -0.0264,-0.0527 -0.0986,-0.0723 -0.125,-0.125 -0.05,-0.1 0.05,-0.275 0,-0.375 -0.0264,-0.0527 -0.0986,-0.0723 -0.125,-0.125 -0.0373,-0.0745 0.0373,-0.17547 0,-0.25 -0.0264,-0.0527 -0.0986,-0.0723 -0.125,-0.125 -0.0373,-0.0745 0.0264,-0.17094 0,-0.25 -0.0295,-0.0884 -0.0955,-0.16161 -0.125,-0.25 -0.0132,-0.0395 0.0132,-0.0855 0,-0.125 -0.0295,-0.0884 -0.0955,-0.16161 -0.125,-0.25 -0.0264,-0.0791 0.0373,-0.17547 0,-0.25 -0.0264,-0.0527 -0.0986,-0.0723 -0.125,-0.125 -0.05,-0.1 0.05,-0.275 0,-0.375 -0.0264,-0.0527 -0.0986,-0.0723 -0.125,-0.125 -0.0186,-0.0373 0.0132,-0.0855 0,-0.125 -0.0295,-0.0884 -0.0955,-0.16161 -0.125,-0.25 -0.0132,-0.0395 0.0186,-0.0877 0,-0.125 -0.0264,-0.0527 -0.0986,-0.0723 -0.125,-0.125 -0.0186,-0.0373 0.0186,-0.0877 0,-0.125 -0.0264,-0.0527 -0.0986,-0.0723 -0.125,-0.125 -0.0373,-0.0745 0.0373,-0.17547 0,-0.25 -0.0264,-0.0527 -0.0986,-0.0723 -0.125,-0.125 -0.0186,-0.0373 0.0186,-0.0877 0,-0.125 -0.28452,-0.28452 -0.033,0.0259 -0.125,-0.25 -0.0295,-0.0884 -0.0833,-0.16667 -0.125,-0.25 -0.0417,-0.0833 -0.0733,-0.17248 -0.125,-0.25 -0.0327,-0.049 -0.0986,-0.0723 -0.125,-0.125 -0.0186,-0.0373 0.0186,-0.0877 0,-0.125 -0.0264,-0.0527 -0.0986,-0.0723 -0.125,-0.125 -0.0373,-0.0745 0.0264,-0.17094 0,-0.25 -0.0295,-0.0884 -0.0955,-0.16161 -0.125,-0.25 -0.0132,-0.0395 0.0186,-0.0877 0,-0.125 -0.0264,-0.0527 -0.0986,-0.0723 -0.125,-0.125 -0.0186,-0.0373 0.0132,-0.0855 0,-0.125 -0.0295,-0.0884 -0.0955,-0.16161 -0.125,-0.25 -0.0132,-0.0395 0.0186,-0.0877 0,-0.125 -0.0264,-0.0527 -0.0986,-0.0723 -0.125,-0.125 -0.0186,-0.0373 0.0186,-0.0877 0,-0.125 -0.0264,-0.0527 -0.0986,-0.0723 -0.125,-0.125 -0.0186,-0.0373 0.0132,-0.0855 0,-0.125 -0.0295,-0.0884 -0.0955,-0.16161 -0.125,-0.25 -0.0264,-0.0791 0.0373,-0.17547 0,-0.25 -0.0264,-0.0527 -0.0923,-0.076 -0.125,-0.125 -0.2368,0.0142 -0.0833,-0.29167 -0.125,-0.375 -0.0264,-0.0527 -0.0986,-0.0723 -0.125,-0.125 -0.0186,-0.0373 0.0186,-0.0877 0,-0.125 -0.0264,-0.0527 -0.0986,-0.0723 -0.125,-0.125 -0.0186,-0.0373 0,-0.0833 0,-0.125 -0.0417,-0.0417 -0.0986,-0.0723 -0.125,-0.125 -0.0186,-0.0373 0.0186,-0.0877 0,-0.125 -0.075,-0.15 -0.3,-0.225 -0.375,-0.375 -0.0186,-0.0373 0.0186,-0.0877 0,-0.125 -0.0527,-0.10541 -0.18463,-0.15194 -0.25,-0.25 -0.0517,-0.0775 -0.0733,-0.17248 -0.125,-0.25 -0.0327,-0.049 -0.0986,-0.0723 -0.125,-0.125 -0.0186,-0.0373 0.0186,-0.0877 0,-0.125 -0.13356,-0.26713 -0.11643,0.0171 -0.25,-0.25 -0.0186,-0.0373 0.0186,-0.0877 0,-0.125 -0.0527,-0.10541 -0.18463,-0.15194 -0.25,-0.25 -0.0517,-0.0775 -0.0733,-0.17248 -0.125,-0.25 -0.0327,-0.049 -0.0833,-0.0833 -0.125,-0.125 -0.0417,-0.0833 -0.0733,-0.17248 -0.125,-0.25 -0.0327,-0.049 -0.0986,-0.0723 -0.125,-0.125 -0.0186,-0.0373 0,-0.0833 0,-0.125 -0.0417,-0.0833 -0.0733,-0.17248 -0.125,-0.25 -0.0654,-0.0981 -0.1973,-0.14459 -0.25,-0.25 -0.0186,-0.0373 0.0186,-0.0877 0,-0.125 -0.0527,-0.10541 -0.18463,-0.15194 -0.25,-0.25 -0.0517,-0.0775 -0.0733,-0.17248 -0.125,-0.25 -0.0719,-0.10786 -0.27736,-0.27737 -0.375,-0.375 -0.0417,-0.0417 -0.0986,-0.0723 -0.125,-0.125 -0.0186,-0.0373 0.0186,-0.0877 0,-0.125 -0.0264,-0.0527 -0.0923,-0.076 -0.125,-0.125 -0.0517,-0.0775 -0.0733,-0.17248 -0.125,-0.25 -0.0759,-0.11379 -0.3196,-0.26421 -0.375,-0.375 -0.0373,-0.0745 0.0373,-0.17547 0,-0.25 -0.075,-0.15 -0.3,-0.225 -0.375,-0.375 -0.0186,-0.0373 0.0186,-0.0877 0,-0.125 -0.0264,-0.0527 -0.0833,-0.0833 -0.125,-0.125 -0.0417,-0.0417 -0.0833,-0.0833 -0.125,-0.125 -0.41457,-0.41457 0.0589,0.11785 -0.125,-0.25 -0.0527,-0.10541 -0.1973,-0.14459 -0.25,-0.25 -0.0186,-0.0373 0.0186,-0.0877 0,-0.125 -0.0527,-0.10541 -0.18463,-0.15194 -0.25,-0.25 -0.45316,-0.90632 0.13176,0.19764 -0.25,-0.375 -0.0417,-0.0833 -0.0833,-0.16667 -0.125,-0.25 0,-0.0417 0.0186,-0.0877 0,-0.125 -0.0264,-0.0527 -0.0923,-0.076 -0.125,-0.125 -0.0517,-0.0775 -0.0733,-0.17248 -0.125,-0.25 -0.0327,-0.049 -0.0986,-0.0723 -0.125,-0.125 -0.0186,-0.0373 0.0186,-0.0877 0,-0.125 -0.0264,-0.0527 -0.0986,-0.0723 -0.125,-0.125 -0.0373,-0.0745 0.0264,-0.17094 0,-0.25 -0.0589,-0.17678 -0.19107,-0.32322 -0.25,-0.5 -0.0132,-0.0395 0,-0.0833 0,-0.125 -0.0417,-0.0417 -0.0986,-0.0723 -0.125,-0.125 -0.0186,-0.0373 0.0186,-0.0877 0,-0.125 -0.0264,-0.0527 -0.0986,-0.0723 -0.125,-0.125 -0.0373,-0.0745 0.0373,-0.17547 0,-0.25 -0.0264,-0.0527 -0.0986,-0.0723 -0.125,-0.125 -0.0186,-0.0373 0.0295,-0.0955 0,-0.125 -0.0295,-0.0295 -0.0955,0.0295 -0.125,0 -0.0589,-0.0589 0.0373,-0.17547 0,-0.25 -0.0264,-0.0527 -0.0986,-0.0723 -0.125,-0.125 -0.0373,-0.0745 0.0373,-0.17547 0,-0.25 -0.0264,-0.0527 -0.0986,-0.0723 -0.125,-0.125 -0.0394,-0.0789 0.0394,-0.54614 0,-0.625 -0.0264,-0.0527 -0.0986,-0.0723 -0.125,-0.125 -0.0186,-0.0373 0.0132,-0.0855 0,-0.125 -0.0295,-0.0884 -0.0955,-0.16161 -0.125,-0.25 -0.0262,-0.0785 0,-0.39937 0,-0.5 0,-0.0417 0,-0.0833 0,-0.125 0,-0.0417 -0.0214,-0.0893 0,-0.125 0.10719,-0.17864 0.25,-0.33333 0.375,-0.5 z"
           id="path4334"
           inkscape:connector-curvature="0" />
      </g>
    </g>
  </g>
</svg>
