<?xml version="1.0" encoding="UTF-8"?>
<!DOCTYPE svg PUBLIC "-//W3C//DTD SVG 1.1//EN" "http://www.w3.org/Graphics/SVG/1.1/DTD/svg11.dtd">
<svg version="1.1" xmlns="http://www.w3.org/2000/svg" xmlns:xlink="http://www.w3.org/1999/xlink" x="0" y="0" width="378.117" height="233.145" viewBox="0, 0, 378.117, 233.145">
  <g id="Fill">
    <g id="Layer_1">
      <path d="M127.534,2.004 C121.111,2.11 114.511,3.026 108.756,6.036 C104.83,8.057 101.489,11.442 100.107,15.697 C99.871,16.336 99.635,16.975 99.399,17.613 C95.903,15.763 92.279,14.112 88.439,13.115 C86.585,12.614 84.612,12.219 82.815,11.957 C81.805,11.808 80.7,11.699 79.782,11.611 C75.887,11.292 71.961,11.404 68.083,11.873 C66.748,12.037 65.188,12.274 63.78,12.549 C53.855,14.449 44.36,18.395 35.829,23.783 C25.802,30.304 18.154,39.969 12.702,50.516 C6.391,62.836 2.752,76.522 2.088,90.348 C2.028,91.752 1.986,93.388 2.006,94.885 C2.04,99.168 2.416,103.444 3.053,107.678 C3.177,108.414 3.34,109.454 3.504,110.303 C5.931,123.615 11.667,136.298 20.059,146.913 C24.784,152.931 30.305,158.309 36.346,162.998 C37.147,163.62 38.164,164.387 39.067,165.04 C49.1,172.306 60.363,177.752 72.023,181.86 C88.733,187.669 106.855,190.244 124.412,187.319 C126.087,187.044 127.751,186.71 129.407,186.34 C130.081,186.183 131.064,185.951 131.85,185.741 C142.041,183.128 151.662,178.456 160.154,172.261 C161.614,171.215 163.044,170.135 164.409,169.061 C163.974,168.447 164.046,167.962 164.747,167.635 C186.126,150.447 207.505,133.257 228.883,116.068 C216.726,93.176 204.569,70.283 192.411,47.391 C193.09,47.073 192.227,46.393 192.142,45.908 C191.716,45.015 191.375,44.358 190.914,43.465 C184.966,31.952 176.465,21.644 165.762,14.26 C159.04,9.618 151.548,6.07 143.674,3.888 C139.562,2.832 135.332,2.266 131.094,2.066 C130.355,2.035 129.32,2.003 128.463,2.002 C128.153,2.003 127.843,2.003 127.534,2.004 z" fill="#FFD080" id="path920"/>
      <path d="M234.204,32.891 C222.493,33.494 210.89,37.026 201.041,43.436 C199.773,44.245 198.543,45.112 197.331,46.002 C196.913,46.316 196.215,46.838 195.703,47.249 C185.586,55.216 177.797,65.773 171.727,77.049 C171.21,78.01 170.595,79.182 170.101,80.17 C166.004,88.248 162.622,96.727 160.605,105.574 C159.82,108.942 159.194,112.529 158.79,115.852 C158.627,117.257 158.492,118.498 158.383,119.94 C157.114,135.694 159.873,151.706 166.071,166.229 C166.551,167.339 167.133,168.67 167.698,169.848 C169.382,173.43 171.28,176.911 173.358,180.279 C174.153,181.569 175.1,183.03 176.005,184.354 C178.358,187.801 181.013,191.23 183.69,194.305 C194.215,206.414 207.451,216.169 222.18,222.543 C223.284,223.019 224.62,223.576 225.833,224.043 C227.685,224.77 229.412,225.376 231.317,226.008 C239.214,228.587 247.42,230.214 255.704,230.848 C256.566,230.905 257.719,230.987 258.693,231.027 C261.193,231.148 263.931,231.176 266.528,231.101 C269.366,231.031 272.198,230.816 275.018,230.502 C276.167,230.365 277.557,230.19 278.796,230 C282.607,229.437 286.51,228.645 290.172,227.736 C303.313,224.46 315.997,219.261 327.733,212.408 C331.228,210.351 334.545,208.214 337.855,205.83 C347.229,199.06 356,190.802 362.153,180.834 C366.273,174.186 369.269,166.868 371.19,159.293 C371.401,158.428 371.679,157.294 371.887,156.318 C372.55,153.291 373.053,150.064 373.395,147.09 C374.051,141.224 374.182,135.245 373.883,129.417 C373.377,119.776 371.785,110.194 369.258,100.879 C365.95,89.398 360.423,78.562 353.126,69.105 C352.847,68.763 352.394,68.173 352.1,67.814 C344.901,58.907 335.784,51.216 324.953,47.187 C318.752,44.82 312.069,44.126 305.476,44.009 C295.442,43.905 285.174,45.667 276.295,50.521 C273.097,52.224 270.275,54.512 267.535,56.86 C266.909,57.703 266.828,56.932 266.71,56.268 C266.049,53.069 265.184,49.865 263.519,47.025 C259.992,40.72 253.624,36.382 246.771,34.4 C242.708,33.186 238.436,32.726 234.204,32.891 z" fill="#FFD080" id="path889"/>
      <path d="M317.523,44.679 C303.621,41.758 288.294,45.415 273.694,50.72 C277.024,42.671 282.786,36.343 287.161,32.02 C313.949,13.955 346.281,24.346 374.711,32.082 C363.972,41.541 355.293,51.414 342.766,55.971" fill="#59933E" id="path833"/>
    </g>
    <g id="path906">
      <path d="M267.449,56.825 L267.237,40.999 L272.653,26.447 L285.399,32.82 L276.796,42.805 L272.653,53.107 z" fill="#88632C"/>
      <path d="M267.449,56.825 L267.237,40.999 L272.653,26.447 L285.399,32.82 L276.796,42.805 L272.653,53.107 z" fill-opacity="0" stroke="#000000" stroke-width="1"/>
    </g>
  </g>
  <g id="Outline">
    <path d="M323.186,19.484 C314.931,19.402 306.854,20.325 299.283,22.732 C294.459,24.269 290.211,27.099 286.543,30.557 C286.583,30.583 286.617,30.618 286.656,30.646 C286.541,30.563 286.424,30.479 286.297,30.418 C282.049,28.375 277.792,26.332 273.535,24.289 C273.339,24.195 273.109,24.148 272.869,24.143 C272.15,24.126 271.334,24.485 271.023,25.072 C267.487,31.8 265.811,38.757 265.15,45.855 C259.412,35.915 247.827,30.796 235.693,30.855 C234.663,30.861 233.63,30.903 232.596,30.982 C198.543,33.592 177.723,57.214 164.719,86.914 C133.271,158.768 192.301,235.989 267.758,233.064 C299.139,231.848 337.613,214.56 357.889,190.172 C378.08,165.884 379.206,132.837 371.973,103.312 C368.009,87.14 358.356,69.359 344.793,57.187 C357.036,50.912 368.549,41.237 377.395,33.137 C378.502,32.12 378.376,29.95 376.748,29.482 C360.364,24.706 341.345,19.665 323.186,19.484 z M317.479,23.885 C318.164,23.882 318.851,23.889 319.539,23.904 C328.102,24.094 336.807,25.604 344.453,26.719 C353.049,27.97 361.571,29.949 369.986,32.064 C370.664,32.236 371.237,32.359 371.721,32.439 C361.934,41.06 351.567,48.746 340.324,53.492 C332.904,47.872 324.52,43.732 315.33,42.725 C301.501,41.208 289.472,41.514 275.472,49.012 C277.73,44.648 282.309,38.937 288.956,33.217 C296.87,26.406 307.195,23.925 317.479,23.885 z M273.777,29.16 C276.377,30.406 278.978,31.655 281.576,32.904 C276.397,37.626 273.026,43.909 272.27,50.625 C271.148,51.369 270.065,52.166 269.025,53.016 C268.081,45.767 269.229,39.098 272.221,32.885 C272.68,31.67 273.192,30.454 273.732,29.266 C273.747,29.23 273.762,29.195 273.777,29.16 z M235.357,35.176 C244.829,35.288 253.796,37.995 259.267,44.584 C263.04,48.345 264.647,53.236 264.832,57 C260.649,61.642 257.507,67.459 255.873,74.621 C255.257,77.31 259.533,77.674 260.131,75.025 C266.747,46.033 300.913,41.392 319.383,47.062 C337.853,52.733 341.868,60.344 349.383,68.463 C366.258,86.706 371.856,113.554 371.885,137.594 C371.94,195.186 311.503,227.126 260.256,229.109 C229.405,230.265 185.165,203.376 169.892,167.829 C163.538,153.042 160.344,136.835 161.049,120.703 C162.382,90.118 179.514,58.557 205.734,42.814 C213.412,38.206 224.705,35.05 235.357,35.176 z" fill="#000000" id="path835"/>
    <path d="M128.698,0.002 C115.885,-0.097 102.27,3.539 98.299,14.816 C78.67,4.605 54.656,10.17 36.528,20.986 C11.625,35.854 -1.254,70.377 0.096,98.232 C1.824,133.62 22.507,160.712 54.286,176.543 C71.62,185.176 90.64,190.534 109.436,190.535 C126.321,190.536 143.023,186.212 158.18,176.064 C161.157,174.071 164.048,171.941 166.837,169.68 C166.234,168.29 165.661,166.879 165.12,165.459 C158.059,171.02 150.333,175.749 142.323,179.557 C109.167,195.307 70.864,183.211 42.235,164.014 C-1.31,134.813 -7.692,71.297 26.776,34.76 C31.753,29.484 37.481,25.379 44.178,21.383 C61.061,11.309 83.102,10.615 99.663,20.14 C126.303,35.463 131.739,71.521 132.387,98.674 C132.459,101.401 136.716,101.825 136.653,99.08 C135.906,68.03 129.939,35.108 102.12,17.045 C102.106,17.036 102.092,17.027 102.079,17.018 C106.901,3.775 129.319,0.916 146.925,6.576 C156.043,9.507 163.221,14.695 167.524,17.594 C178.954,25.299 187.106,36.85 192.46,49.932 C193.364,49.166 194.277,48.428 195.2,47.719 C185.895,27.01 170.163,10.262 146.671,2.672 C141.901,1.131 135.409,0.054 128.698,0.002 z" fill="#000000" id="path841"/>
  </g>
</svg>
