<?xml version="1.0" encoding="UTF-8"?>
<!DOCTYPE svg PUBLIC "-//W3C//DTD SVG 1.1//EN" "http://www.w3.org/Graphics/SVG/1.1/DTD/svg11.dtd">
<svg version="1.1" xmlns="http://www.w3.org/2000/svg" xmlns:xlink="http://www.w3.org/1999/xlink" x="0" y="0" width="490" height="775" viewBox="0, 0, 490, 775">
  <g id="Layer_1">
    <g>
      <path d="M141.24,701.835 C60.585,693.145 -1.78,646.54 11.225,525.84 C24.225,405.145 80.24,274.19 189.375,291.185 C290.9,306.99 326.74,408.235 311.97,525.46 C296.79,645.915 221.89,710.52 141.24,701.835 z" fill="#F8CDA2"/>
      <path d="M141.24,701.835 C60.585,693.145 -1.78,646.54 11.225,525.84 C24.225,405.145 80.24,274.19 189.375,291.185 C290.9,306.99 326.74,408.235 311.97,525.46 C296.79,645.915 221.89,710.52 141.24,701.835 z" fill-opacity="0" stroke="#1A1919" stroke-width="14.175" stroke-linecap="round" stroke-linejoin="round"/>
    </g>
    <g>
      <path d="M199.71,676.38 C199.71,676.38 116.75,558.715 75.86,642.075 C57.95,678.58 124.335,756.345 180.53,765.17 C233.795,773.53 280.715,719.18 259.66,647.02" fill="#F8CDA2"/>
      <path d="M199.71,676.38 C199.71,676.38 116.75,558.715 75.86,642.075 C57.95,678.58 124.335,756.345 180.53,765.17 C233.795,773.53 280.715,719.18 259.66,647.02" fill-opacity="0" stroke="#1A1919" stroke-width="14.175" stroke-linecap="round" stroke-linejoin="round"/>
    </g>
    <g>
      <path d="M263.39,623.24 C263.39,623.24 154.835,469.27 101.325,578.345 C77.885,626.12 164.76,727.885 238.295,739.425 C307.995,750.365 369.39,679.245 341.835,584.815" fill="#F8CDA2"/>
      <path d="M263.39,623.24 C263.39,623.24 154.835,469.27 101.325,578.345 C77.885,626.12 164.76,727.885 238.295,739.425 C307.995,750.365 369.39,679.245 341.835,584.815" fill-opacity="0" stroke="#1A1919" stroke-width="14.175" stroke-linecap="round" stroke-linejoin="round"/>
    </g>
    <g>
      <path d="M306.1,555.82 C306.1,555.82 197.54,401.855 144.03,510.925 C120.59,558.7 207.465,660.465 281,672.005 C350.7,682.94 412.09,611.82 384.54,517.4" fill="#F8CDA2"/>
      <path d="M306.1,555.82 C306.1,555.82 197.54,401.855 144.03,510.925 C120.59,558.7 207.465,660.465 281,672.005 C350.7,682.94 412.09,611.82 384.54,517.4" fill-opacity="0" stroke="#1A1919" stroke-width="14.175" stroke-linecap="round" stroke-linejoin="round"/>
    </g>
    <path d="M332.415,334.49 C332.415,334.49 283.795,316.61 239.15,317.005 C194.5,317.4 187.91,420.025 187.91,420.025 L358.52,451.035 L332.415,334.49" fill="#F8CDA2"/>
    <g>
      <path d="M363.325,471.4 C363.325,471.4 244.34,302.64 185.69,422.19 C160,474.555 255.225,586.1 335.825,598.75 C412.215,610.735 473.375,496.065 441.31,420.245 C417.075,362.935 354.915,325.76 281.245,314.195" fill="#F8CDA2"/>
      <path d="M363.325,471.4 C363.325,471.4 244.34,302.64 185.69,422.19 C160,474.555 255.225,586.1 335.825,598.75 C412.215,610.735 473.375,496.065 441.31,420.245 C417.075,362.935 354.915,325.76 281.245,314.195" fill-opacity="0" stroke="#1A1919" stroke-width="14.175" stroke-linecap="round" stroke-linejoin="round"/>
    </g>
    <g>
      <path d="M132.75,296.065 C343.37,230.61 336.32,-77.715 454.6,30.725 C477.5,51.72 487.175,108.565 471.405,157.74 C435.94,268.325 315.5,226.115 331.32,344.53" fill="#F8CDA2"/>
      <path d="M132.75,296.065 C343.37,230.61 336.32,-77.715 454.6,30.725 C477.5,51.72 487.175,108.565 471.405,157.74 C435.94,268.325 315.5,226.115 331.32,344.53" fill-opacity="0" stroke="#1A1919" stroke-width="14.175" stroke-linecap="round" stroke-linejoin="round"/>
    </g>
  </g>
</svg>
