<?xml version="1.0" encoding="UTF-8" standalone="no"?>
<!-- Created with Inkscape (http://www.inkscape.org/) -->

<svg
   xmlns:dc="http://purl.org/dc/elements/1.1/"
   xmlns:cc="http://creativecommons.org/ns#"
   xmlns:rdf="http://www.w3.org/1999/02/22-rdf-syntax-ns#"
   xmlns:svg="http://www.w3.org/2000/svg"
   xmlns="http://www.w3.org/2000/svg"
   xmlns:sodipodi="http://sodipodi.sourceforge.net/DTD/sodipodi-0.dtd"
   xmlns:inkscape="http://www.inkscape.org/namespaces/inkscape"
   width="320"
   height="320"
   id="svg3005"
   version="1.1"
   inkscape:version="0.92.4 5da689c313, 2019-01-14"
   sodipodi:docname="tree09092020_1.svg">
  <title
     id="title5145">tree-17 - emergência climática :(</title>
  <defs
     id="defs3007">
    <linearGradient
       id="linearGradient5088">
      <stop
         style="stop-color:#44d800;stop-opacity:1"
         offset="0"
         id="stop5090" />
      <stop
         id="stop5092"
         offset="0.48759183"
         style="stop-color:#24d000;stop-opacity:1" />
      <stop
         style="stop-color:#005000;stop-opacity:1"
         offset="1"
         id="stop5094" />
    </linearGradient>
    <linearGradient
       id="linearGradient5078">
      <stop
         id="stop5080"
         offset="0"
         style="stop-color:#65a926;stop-opacity:1;" />
      <stop
         style="stop-color:#008600;stop-opacity:1;"
         offset="0.5"
         id="stop5084" />
      <stop
         id="stop5082"
         offset="1"
         style="stop-color:#005800;stop-opacity:1" />
    </linearGradient>
  </defs>
  <sodipodi:namedview
     id="base"
     pagecolor="#ffffff"
     bordercolor="#666666"
     borderopacity="1.0"
     inkscape:pageopacity="0.0"
     inkscape:pageshadow="2"
     inkscape:zoom="1.540625"
     inkscape:cx="160"
     inkscape:cy="160"
     inkscape:document-units="px"
     inkscape:current-layer="layer1"
     showgrid="false"
     inkscape:window-width="1366"
     inkscape:window-height="720"
     inkscape:window-x="0"
     inkscape:window-y="28"
     inkscape:window-maximized="1"
     inkscape:snap-global="false" />
  <metadata
     id="metadata3010">
    <rdf:RDF>
      <cc:Work
         rdf:about="">
        <dc:format>image/svg+xml</dc:format>
        <dc:type
           rdf:resource="http://purl.org/dc/dcmitype/StillImage" />
        <dc:title>tree-17 - emergência climática :(</dc:title>
        <dc:date>Setembro 2020</dc:date>
        <dc:creator>
          <cc:Agent>
            <dc:title>jpenrici</dc:title>
          </cc:Agent>
        </dc:creator>
        <dc:publisher>
          <cc:Agent>
            <dc:title>Open Clip Art Library</dc:title>
          </cc:Agent>
        </dc:publisher>
        <cc:license
           rdf:resource="http://creativecommons.org/publicdomain/zero/1.0/" />
        <dc:subject>
          <rdf:Bag>
            <rdf:li>tree</rdf:li>
            <rdf:li>árvore</rdf:li>
            <rdf:li>plant</rdf:li>
            <rdf:li>flora</rdf:li>
            <rdf:li>nature</rdf:li>
            <rdf:li>clip art</rdf:li>
            <rdf:li>clipart</rdf:li>
            <rdf:li>svg</rdf:li>
          </rdf:Bag>
        </dc:subject>
      </cc:Work>
      <cc:License
         rdf:about="http://creativecommons.org/publicdomain/zero/1.0/">
        <cc:permits
           rdf:resource="http://creativecommons.org/ns#Reproduction" />
        <cc:permits
           rdf:resource="http://creativecommons.org/ns#Distribution" />
        <cc:permits
           rdf:resource="http://creativecommons.org/ns#DerivativeWorks" />
      </cc:License>
    </rdf:RDF>
  </metadata>
  <g
     inkscape:label="Camada 1"
     inkscape:groupmode="layer"
     id="layer1"
     transform="translate(0,-802.51966)">
    <path
       style="fill:#cccccc;stroke:none;stroke-width:1.04012764px;stroke-linecap:butt;stroke-linejoin:miter;stroke-opacity:1"
       d="m 131.26656,981.91709 c -3.68691,-21.14372 -24.40292,-19.04406 -37.86354,-10.09694 -13.061993,-1.78942 -13.063779,-27.08439 -29.244517,-16.96544 -11.58514,4.65356 -3.427707,-21.18909 -0.945411,-27.2761 8.531291,-9.45333 22.019631,-16.72215 17.592719,-32.83077 -0.938639,-14.38949 -2.264548,-31.34786 4.181141,-43.63204 4.459008,-6.37396 1.790991,-17.86792 6.686838,-22.18855 8.313223,5.26578 0.730616,21.93304 15.46369,15.84046 8.98006,-2.94757 -4.58714,-24.93998 7.99586,-21.93771 13.41301,7.84719 6.41156,27.23059 17.12964,35.02597 8.61481,0.33303 10.70638,-22.46195 18.22781,-17.15755 0.87132,7.09479 -0.95174,33.5113 8.27277,21.22656 5.51852,-10.56163 5.62256,-39.34993 21.33329,-33.58714 5.18605,14.92408 5.04113,31.50588 10.83632,47.31797 4.40388,14.35869 15.03221,-9.86786 19.23855,-13.70955 21.95906,0.0544 11.94545,-30.31206 19.87991,-44.75266 2.11521,-10.90983 3.24507,10.76197 6.47189,14.60165 3.30397,15.43026 -1.03111,32.00442 2.5533,47.082 5.44536,15.01754 14.22963,29.52818 6.79743,46.18627 -0.66242,11.85034 10.53353,24.16484 2.97123,35.95796 -8.32559,8.95792 -21.32366,9.29615 -31.5607,14.01534 -13.64532,-3.72986 -20.93199,13.56702 -34.8536,8.52757 -9.66168,1.48042 -21.35698,3.95924 -26.9407,13.02658 2.9023,5.30653 2.49689,16.49353 -4.7432,9.33223 1.85618,-12.06675 -9.70319,-21.91675 -19.48072,-24.00611 z"
       id="path1170"
       inkscape:connector-curvature="0" />
    <path
       style="fill:#28170b;stroke:none;stroke-width:0.91508693px;stroke-linecap:butt;stroke-linejoin:miter;stroke-opacity:1"
       d="m 51.926978,1044.4491 c 2.934358,5.4632 19.869688,1.4213 19.553753,7.4058 -41.094627,11.0725 -86.92346,53.846 -14.326685,58.362 198.547244,14.7343 131.884364,-20.7497 182.359134,-38.591 6.21533,-1.9067 13.84678,-0.3486 19.46923,-3.2738 46.12115,-21.4813 35.06116,-53.5445 15.51983,-50.4961 -23.32062,-13.9839 -231.506874,8.0902 -222.575262,26.5931 z"
       id="path1139"
       inkscape:connector-curvature="0"
       sodipodi:nodetypes="ccccccc" />
    <path
       style="fill:#000000;stroke:#2b1100;stroke-width:0.55879176;stroke-linecap:round;stroke-linejoin:round;stroke-miterlimit:4;stroke-dasharray:none;stroke-opacity:1;fill-opacity:1"
       d="m 118.86559,857.07894 c -4.41739,10.86234 6.52384,18.84387 11.10792,27.36026 3.69685,13.98195 -12.7308,-3.80656 -18.28353,-5.83484 -8.14021,1.43378 8.68154,11.30911 13.53263,13.17637 9.5219,4.4369 18.8303,12.59795 18.33655,24.01963 2.20291,6.067 8.32611,25.69011 -3.77741,15.80738 -9.35565,-5.89744 -15.33652,-16.21908 -25.28812,-21.07589 -9.38693,-1.14905 -19.172758,-4.71654 -19.923411,-15.40233 -8.335878,-2.13833 3.897684,13.14803 -7.592387,11.64833 -8.330914,-2.3503 -13.667776,16.57838 -6.405681,14.54925 5.75168,-14.91511 14.055586,-12.35108 22.572109,-8.80645 13.42724,2.63979 17.80469,8.37876 36.77172,32.11069 13.75789,6.78546 7.62755,23.95196 8.62687,36.0845 2.9365,13.09315 4.73349,23.55776 4.3248,36.97276 1.67716,12.8595 -11.70656,23.4036 -9.53432,36.3134 2.61437,10.5592 2.14646,21.8347 -1.26666,31.4572 2.74174,9.3506 17.03091,2.3846 24.44122,3.4473 1.30816,-9.9518 -5.66644,-26.7675 -4.73979,-38.711 -2.47879,-16.6187 9.17834,-29.3675 5.40871,-45.9621 -8.67985,-11.40666 4.08124,-25.67993 16.07682,-26.97093 9.86432,-2.89647 19.15677,-5.91976 29.95525,-11.07402 1.59599,-7.33328 15.56113,-12.153 14.626,-16.46979 -13.93387,2.18469 -21.91649,17.16881 -36.20671,18.3591 -8.06086,6.35793 -26.91103,13.59276 -25.07693,4.82977 5.06104,-15.34964 10.54219,-24.16475 21.04665,-30.51284 8.12978,-5.91081 20.06055,-15.94307 52.54429,-8.92317 10.84505,-3.37044 1.41423,-12.26882 -5.37438,-7.18128 -10.93672,2.3021 -21.92582,-3.20797 -32.84147,-0.56768 -9.02847,-9.9301 12.1772,-16.65612 10.3422,-28.07661 3.15038,-4.49526 0.90879,-20.98572 -4.38787,-15.10046 -3.88974,12.71967 -8.58823,35.58186 -17.08043,45.48848 -4.71841,11.85098 -15.52985,10.74465 -18.79287,22.76585 -1.76393,11.49041 -16.39892,4.70471 -16.29364,-5.41307 -2.68787,-10.43629 3.84566,-19.05658 12.72733,-25.93401 4.5071,-2.86695 5.63287,-21.70522 0.93932,-12.11762 -16.88338,32.33663 -22.35892,11.64583 -16.18229,3.26708 0.0932,-10.36555 16.09784,-24.53131 7.44279,-34.19794 -6.44768,3.96551 -2.72704,30.33199 -13.11707,28.92245 -6.83943,-11.77078 -19.95597,-22.45274 -24.68248,-35.88782 -1.17881,-4.16003 -2.49063,-8.2957 -3.97573,-12.35995 z m -24.679969,37.16547 h 0.46566 z m 54.947859,44.4414 0.12597,0.0848 z"
       id="path5007"
       inkscape:connector-curvature="0"
       sodipodi:nodetypes="cccccccccccccccccccccccccccccccccccccccccccccc" />
    <g
       id="g1163"
       transform="translate(-0.91794795,6.4256357)">
      <path
         inkscape:transform-center-y="5.5839077"
         inkscape:transform-center-x="-2.8576515"
         sodipodi:nodetypes="caacaac"
         inkscape:connector-curvature="0"
         id="path4612-5"
         d="m 142.10507,854.67312 c 0,0 3.87238,1.5395 4.89486,3.19894 0.70623,1.14617 0.56752,2.67188 0.45335,4.01331 -0.10982,1.28984 -1.08182,3.72977 -1.08182,3.72977 0,0 -1.90349,-0.84195 -2.42579,-1.67406 -0.91134,-1.45189 -0.44985,-3.40151 -0.79049,-5.08155 -0.28588,-1.41001 -1.05011,-4.18641 -1.05011,-4.18641 z"
         style="fill:#552200;fill-opacity:1;fill-rule:evenodd;stroke:none;stroke-width:0.5;stroke-linecap:butt;stroke-linejoin:miter;stroke-miterlimit:4;stroke-dasharray:none;stroke-opacity:1" />
      <path
         style="fill:#552200;fill-opacity:1;fill-rule:evenodd;stroke:none;stroke-width:0.5;stroke-linecap:butt;stroke-linejoin:miter;stroke-miterlimit:4;stroke-dasharray:none;stroke-opacity:1"
         d="m 145.0884,840.67441 c 0,0 3.87238,1.5395 4.89486,3.19894 0.70623,1.14617 0.56752,2.67188 0.45335,4.01331 -0.10982,1.28984 -1.08182,3.72977 -1.08182,3.72977 0,0 -1.90349,-0.84195 -2.42579,-1.67406 -0.91134,-1.45189 -0.44985,-3.40151 -0.79049,-5.08155 -0.28588,-1.41001 -1.05011,-4.18641 -1.05011,-4.18641 z"
         id="path886-6"
         inkscape:connector-curvature="0"
         sodipodi:nodetypes="caacaac"
         inkscape:transform-center-x="-2.8576515"
         inkscape:transform-center-y="5.5839077" />
      <path
         inkscape:transform-center-y="6.0232427"
         inkscape:transform-center-x="-0.57578438"
         sodipodi:nodetypes="caacaac"
         inkscape:connector-curvature="0"
         id="path890-2"
         d="m 152.1438,858.39131 c 0,0 2.89388,2.99847 3.14167,4.93182 0.17115,1.33535 -0.58396,2.66833 -1.24078,3.84352 -0.63159,1.12997 -2.52269,2.95255 -2.52269,2.95255 0,0 -1.38739,-1.55155 -1.52038,-2.52496 -0.23205,-1.69843 0.99185,-3.28464 1.3738,-4.95577 0.32058,-1.40253 0.76838,-4.24716 0.76838,-4.24716 z"
         style="fill:#552200;fill-opacity:1;fill-rule:evenodd;stroke:none;stroke-width:0.5;stroke-linecap:butt;stroke-linejoin:miter;stroke-miterlimit:4;stroke-dasharray:none;stroke-opacity:1" />
      <path
         inkscape:transform-center-y="5.5839077"
         inkscape:transform-center-x="-2.8576515"
         sodipodi:nodetypes="caacaac"
         inkscape:connector-curvature="0"
         id="path4612-9"
         d="m 114.56663,817.9552 c 0,0 3.87238,1.5395 4.89486,3.19894 0.70623,1.14617 0.56752,2.67188 0.45335,4.01331 -0.10982,1.28984 -1.08182,3.72977 -1.08182,3.72977 0,0 -1.90349,-0.84195 -2.42579,-1.67406 -0.91134,-1.45189 -0.44985,-3.40151 -0.79049,-5.08155 -0.28588,-1.41001 -1.05011,-4.18641 -1.05011,-4.18641 z"
         style="fill:#552200;fill-opacity:1;fill-rule:evenodd;stroke:none;stroke-width:0.5;stroke-linecap:butt;stroke-linejoin:miter;stroke-miterlimit:4;stroke-dasharray:none;stroke-opacity:1" />
      <path
         style="fill:#552200;fill-opacity:1;fill-rule:evenodd;stroke:none;stroke-width:0.5;stroke-linecap:butt;stroke-linejoin:miter;stroke-miterlimit:4;stroke-dasharray:none;stroke-opacity:1"
         d="m 117.54996,803.95649 c 0,0 3.87238,1.5395 4.89486,3.19894 0.70623,1.14617 0.56752,2.67188 0.45335,4.01331 -0.10982,1.28984 -1.08182,3.72977 -1.08182,3.72977 0,0 -1.90349,-0.84195 -2.42579,-1.67406 -0.91134,-1.45189 -0.44985,-3.40151 -0.79049,-5.08155 -0.28588,-1.41001 -1.05011,-4.18641 -1.05011,-4.18641 z"
         id="path886-3"
         inkscape:connector-curvature="0"
         sodipodi:nodetypes="caacaac"
         inkscape:transform-center-x="-2.8576515"
         inkscape:transform-center-y="5.5839077" />
      <path
         inkscape:transform-center-y="6.0232427"
         inkscape:transform-center-x="-0.57578438"
         sodipodi:nodetypes="caacaac"
         inkscape:connector-curvature="0"
         id="path890-6"
         d="m 124.60536,821.67339 c 0,0 2.89388,2.99847 3.14167,4.93182 0.17115,1.33535 -0.58396,2.66833 -1.24078,3.84352 -0.63159,1.12997 -2.52269,2.95255 -2.52269,2.95255 0,0 -1.38739,-1.55155 -1.52038,-2.52496 -0.23205,-1.69843 0.99185,-3.28464 1.3738,-4.95577 0.32058,-1.40253 0.76838,-4.24716 0.76838,-4.24716 z"
         style="fill:#552200;fill-opacity:1;fill-rule:evenodd;stroke:none;stroke-width:0.5;stroke-linecap:butt;stroke-linejoin:miter;stroke-miterlimit:4;stroke-dasharray:none;stroke-opacity:1" />
      <path
         inkscape:transform-center-y="5.5839077"
         inkscape:transform-center-x="-2.8576515"
         sodipodi:nodetypes="caacaac"
         inkscape:connector-curvature="0"
         id="path4612-8"
         d="m 92.535881,859.26286 c 0,0 3.87238,1.5395 4.89486,3.19894 0.70623,1.14617 0.56752,2.67188 0.45335,4.01331 -0.10982,1.28984 -1.08182,3.72977 -1.08182,3.72977 0,0 -1.90349,-0.84195 -2.42579,-1.67406 -0.91134,-1.45189 -0.44985,-3.40151 -0.79049,-5.08155 -0.28588,-1.41001 -1.05011,-4.18641 -1.05011,-4.18641 z"
         style="fill:#552200;fill-opacity:1;fill-rule:evenodd;stroke:none;stroke-width:0.5;stroke-linecap:butt;stroke-linejoin:miter;stroke-miterlimit:4;stroke-dasharray:none;stroke-opacity:1" />
      <path
         style="fill:#552200;fill-opacity:1;fill-rule:evenodd;stroke:none;stroke-width:0.5;stroke-linecap:butt;stroke-linejoin:miter;stroke-miterlimit:4;stroke-dasharray:none;stroke-opacity:1"
         d="m 95.519211,845.26415 c 0,0 3.87238,1.5395 4.894859,3.19894 0.70623,1.14617 0.56752,2.67188 0.45335,4.01331 -0.10982,1.28984 -1.081819,3.72977 -1.081819,3.72977 0,0 -1.90349,-0.84195 -2.42579,-1.67406 -0.91134,-1.45189 -0.44985,-3.40151 -0.79049,-5.08155 -0.28588,-1.41001 -1.05011,-4.18641 -1.05011,-4.18641 z"
         id="path886-7"
         inkscape:connector-curvature="0"
         sodipodi:nodetypes="caacaac"
         inkscape:transform-center-x="-2.8576515"
         inkscape:transform-center-y="5.5839077" />
      <path
         inkscape:transform-center-y="6.0232427"
         inkscape:transform-center-x="-0.57578438"
         sodipodi:nodetypes="caacaac"
         inkscape:connector-curvature="0"
         id="path890-9"
         d="m 102.57461,862.98105 c 0,0 2.89388,2.99847 3.14167,4.93182 0.17115,1.33535 -0.58396,2.66833 -1.24078,3.84352 -0.63159,1.12997 -2.52269,2.95255 -2.52269,2.95255 0,0 -1.38739,-1.55155 -1.52038,-2.52496 -0.23205,-1.69843 0.99185,-3.28464 1.3738,-4.95577 0.32058,-1.40253 0.76838,-4.24716 0.76838,-4.24716 z"
         style="fill:#552200;fill-opacity:1;fill-rule:evenodd;stroke:none;stroke-width:0.5;stroke-linecap:butt;stroke-linejoin:miter;stroke-miterlimit:4;stroke-dasharray:none;stroke-opacity:1" />
      <path
         inkscape:transform-center-y="5.5839077"
         inkscape:transform-center-x="-2.8576515"
         sodipodi:nodetypes="caacaac"
         inkscape:connector-curvature="0"
         id="path4612-59"
         d="m 178.82299,891.39104 c 0,0 3.87238,1.5395 4.89486,3.19894 0.70623,1.14617 0.56752,2.67188 0.45335,4.01331 -0.10982,1.28984 -1.08182,3.72977 -1.08182,3.72977 0,0 -1.90349,-0.84195 -2.42579,-1.67406 -0.91134,-1.45189 -0.44985,-3.40151 -0.79049,-5.08155 -0.28588,-1.41001 -1.05011,-4.18641 -1.05011,-4.18641 z"
         style="fill:#552200;fill-opacity:1;fill-rule:evenodd;stroke:none;stroke-width:0.5;stroke-linecap:butt;stroke-linejoin:miter;stroke-miterlimit:4;stroke-dasharray:none;stroke-opacity:1" />
      <path
         style="fill:#552200;fill-opacity:1;fill-rule:evenodd;stroke:none;stroke-width:0.5;stroke-linecap:butt;stroke-linejoin:miter;stroke-miterlimit:4;stroke-dasharray:none;stroke-opacity:1"
         d="m 181.80632,877.39233 c 0,0 3.87238,1.5395 4.89486,3.19894 0.70623,1.14617 0.56752,2.67188 0.45335,4.01331 -0.10982,1.28984 -1.08182,3.72977 -1.08182,3.72977 0,0 -1.90349,-0.84195 -2.42579,-1.67406 -0.91134,-1.45189 -0.44985,-3.40151 -0.79049,-5.08155 -0.28588,-1.41001 -1.05011,-4.18641 -1.05011,-4.18641 z"
         id="path886-2"
         inkscape:connector-curvature="0"
         sodipodi:nodetypes="caacaac"
         inkscape:transform-center-x="-2.8576515"
         inkscape:transform-center-y="5.5839077" />
      <path
         inkscape:transform-center-y="6.0232427"
         inkscape:transform-center-x="-0.57578438"
         sodipodi:nodetypes="caacaac"
         inkscape:connector-curvature="0"
         id="path890-28"
         d="m 188.86172,895.10923 c 0,0 2.89388,2.99847 3.14167,4.93182 0.17115,1.33535 -0.58396,2.66833 -1.24078,3.84352 -0.63159,1.12997 -2.52269,2.95255 -2.52269,2.95255 0,0 -1.38739,-1.55155 -1.52038,-2.52496 -0.23205,-1.69843 0.99185,-3.28464 1.3738,-4.95577 0.32058,-1.40253 0.76838,-4.24716 0.76838,-4.24716 z"
         style="fill:#552200;fill-opacity:1;fill-rule:evenodd;stroke:none;stroke-width:0.5;stroke-linecap:butt;stroke-linejoin:miter;stroke-miterlimit:4;stroke-dasharray:none;stroke-opacity:1" />
      <path
         inkscape:transform-center-y="5.5839077"
         inkscape:transform-center-x="-2.8576515"
         sodipodi:nodetypes="caacaac"
         inkscape:connector-curvature="0"
         id="path4612-93"
         d="m 205.44348,858.34491 c 0,0 3.87238,1.5395 4.89486,3.19894 0.70623,1.14617 0.56752,2.67188 0.45335,4.01331 -0.10982,1.28984 -1.08182,3.72977 -1.08182,3.72977 0,0 -1.90349,-0.84195 -2.42579,-1.67406 -0.91134,-1.45189 -0.44985,-3.40151 -0.79049,-5.08155 -0.28588,-1.41001 -1.05011,-4.18641 -1.05011,-4.18641 z"
         style="fill:#552200;fill-opacity:1;fill-rule:evenodd;stroke:none;stroke-width:0.5;stroke-linecap:butt;stroke-linejoin:miter;stroke-miterlimit:4;stroke-dasharray:none;stroke-opacity:1" />
      <path
         style="fill:#552200;fill-opacity:1;fill-rule:evenodd;stroke:none;stroke-width:0.5;stroke-linecap:butt;stroke-linejoin:miter;stroke-miterlimit:4;stroke-dasharray:none;stroke-opacity:1"
         d="m 208.42681,844.3462 c 0,0 3.87238,1.5395 4.89486,3.19894 0.70623,1.14617 0.56752,2.67188 0.45335,4.01331 -0.10982,1.28984 -1.08182,3.72977 -1.08182,3.72977 0,0 -1.90349,-0.84195 -2.42579,-1.67406 -0.91134,-1.45189 -0.44985,-3.40151 -0.79049,-5.08155 -0.28588,-1.41001 -1.05011,-4.18641 -1.05011,-4.18641 z"
         id="path886-1"
         inkscape:connector-curvature="0"
         sodipodi:nodetypes="caacaac"
         inkscape:transform-center-x="-2.8576515"
         inkscape:transform-center-y="5.5839077" />
      <path
         inkscape:transform-center-y="6.0232427"
         inkscape:transform-center-x="-0.57578438"
         sodipodi:nodetypes="caacaac"
         inkscape:connector-curvature="0"
         id="path890-94"
         d="m 215.48221,862.0631 c 0,0 2.89388,2.99847 3.14167,4.93182 0.17115,1.33535 -0.58396,2.66833 -1.24078,3.84352 -0.63159,1.12997 -2.52269,2.95255 -2.52269,2.95255 0,0 -1.38739,-1.55155 -1.52038,-2.52496 -0.23205,-1.69843 0.99185,-3.28464 1.3738,-4.95577 0.32058,-1.40253 0.76838,-4.24716 0.76838,-4.24716 z"
         style="fill:#552200;fill-opacity:1;fill-rule:evenodd;stroke:none;stroke-width:0.5;stroke-linecap:butt;stroke-linejoin:miter;stroke-miterlimit:4;stroke-dasharray:none;stroke-opacity:1" />
      <path
         inkscape:transform-center-y="5.5839077"
         inkscape:transform-center-x="-2.8576515"
         sodipodi:nodetypes="caacaac"
         inkscape:connector-curvature="0"
         id="path4612-1"
         d="m 171.4794,832.64237 c 0,0 3.87238,1.5395 4.89486,3.19894 0.70623,1.14617 0.56752,2.67188 0.45335,4.01331 -0.10982,1.28984 -1.08182,3.72977 -1.08182,3.72977 0,0 -1.90349,-0.84195 -2.42579,-1.67406 -0.91134,-1.45189 -0.44985,-3.40151 -0.79049,-5.08155 -0.28588,-1.41001 -1.05011,-4.18641 -1.05011,-4.18641 z"
         style="fill:#552200;fill-opacity:1;fill-rule:evenodd;stroke:none;stroke-width:0.5;stroke-linecap:butt;stroke-linejoin:miter;stroke-miterlimit:4;stroke-dasharray:none;stroke-opacity:1" />
      <path
         style="fill:#552200;fill-opacity:1;fill-rule:evenodd;stroke:none;stroke-width:0.5;stroke-linecap:butt;stroke-linejoin:miter;stroke-miterlimit:4;stroke-dasharray:none;stroke-opacity:1"
         d="m 174.46273,818.64366 c 0,0 3.87238,1.5395 4.89486,3.19894 0.70623,1.14617 0.56752,2.67188 0.45335,4.01331 -0.10982,1.28984 -1.08182,3.72977 -1.08182,3.72977 0,0 -1.90349,-0.84195 -2.42579,-1.67406 -0.91134,-1.45189 -0.44985,-3.40151 -0.79049,-5.08155 -0.28588,-1.41001 -1.05011,-4.18641 -1.05011,-4.18641 z"
         id="path886-0"
         inkscape:connector-curvature="0"
         sodipodi:nodetypes="caacaac"
         inkscape:transform-center-x="-2.8576515"
         inkscape:transform-center-y="5.5839077" />
      <path
         inkscape:transform-center-y="6.0232427"
         inkscape:transform-center-x="-0.57578438"
         sodipodi:nodetypes="caacaac"
         inkscape:connector-curvature="0"
         id="path890-63"
         d="m 181.51813,836.36056 c 0,0 2.89388,2.99847 3.14167,4.93182 0.17115,1.33535 -0.58396,2.66833 -1.24078,3.84352 -0.63159,1.12997 -2.52269,2.95255 -2.52269,2.95255 0,0 -1.38739,-1.55155 -1.52038,-2.52496 -0.23205,-1.69843 0.99185,-3.28464 1.3738,-4.95577 0.32058,-1.40253 0.76838,-4.24716 0.76838,-4.24716 z"
         style="fill:#552200;fill-opacity:1;fill-rule:evenodd;stroke:none;stroke-width:0.5;stroke-linecap:butt;stroke-linejoin:miter;stroke-miterlimit:4;stroke-dasharray:none;stroke-opacity:1" />
      <path
         inkscape:transform-center-y="5.5839077"
         inkscape:transform-center-x="-2.8576515"
         sodipodi:nodetypes="caacaac"
         inkscape:connector-curvature="0"
         id="path4612-7"
         d="m 220.13065,902.40641 c 0,0 3.87238,1.5395 4.89486,3.19894 0.70623,1.14617 0.56752,2.67188 0.45335,4.01331 -0.10982,1.28984 -1.08182,3.72977 -1.08182,3.72977 0,0 -1.90349,-0.84195 -2.42579,-1.67406 -0.91134,-1.45189 -0.44985,-3.40151 -0.79049,-5.08155 -0.28588,-1.41001 -1.05011,-4.18641 -1.05011,-4.18641 z"
         style="fill:#552200;fill-opacity:1;fill-rule:evenodd;stroke:none;stroke-width:0.5;stroke-linecap:butt;stroke-linejoin:miter;stroke-miterlimit:4;stroke-dasharray:none;stroke-opacity:1" />
      <path
         style="fill:#552200;fill-opacity:1;fill-rule:evenodd;stroke:none;stroke-width:0.5;stroke-linecap:butt;stroke-linejoin:miter;stroke-miterlimit:4;stroke-dasharray:none;stroke-opacity:1"
         d="m 223.11398,888.4077 c 0,0 3.87238,1.5395 4.89486,3.19894 0.70623,1.14617 0.56752,2.67188 0.45335,4.01331 -0.10982,1.28984 -1.08182,3.72977 -1.08182,3.72977 0,0 -1.90349,-0.84195 -2.42579,-1.67406 -0.91134,-1.45189 -0.44985,-3.40151 -0.79049,-5.08155 -0.28588,-1.41001 -1.05011,-4.18641 -1.05011,-4.18641 z"
         id="path886-65"
         inkscape:connector-curvature="0"
         sodipodi:nodetypes="caacaac"
         inkscape:transform-center-x="-2.8576515"
         inkscape:transform-center-y="5.5839077" />
      <path
         inkscape:transform-center-y="6.0232427"
         inkscape:transform-center-x="-0.57578438"
         sodipodi:nodetypes="caacaac"
         inkscape:connector-curvature="0"
         id="path890-69"
         d="m 230.16938,906.1246 c 0,0 2.89388,2.99847 3.14167,4.93182 0.17115,1.33535 -0.58396,2.66833 -1.24078,3.84352 -0.63159,1.12997 -2.52269,2.95255 -2.52269,2.95255 0,0 -1.38739,-1.55155 -1.52038,-2.52496 -0.23205,-1.69843 0.99185,-3.28464 1.3738,-4.95577 0.32058,-1.40253 0.76838,-4.24716 0.76838,-4.24716 z"
         style="fill:#552200;fill-opacity:1;fill-rule:evenodd;stroke:none;stroke-width:0.5;stroke-linecap:butt;stroke-linejoin:miter;stroke-miterlimit:4;stroke-dasharray:none;stroke-opacity:1" />
    </g>
    <g
       id="g1113"
       transform="matrix(0.49209703,0,0,0.49209703,209.95702,585.20014)">
      <path
         sodipodi:nodetypes="cacccaacsaaaasaaasscc"
         inkscape:connector-curvature="0"
         id="path1106"
         d="m -70.687855,1058.7978 c 0,0 23.697381,-23.5441 28.741346,-38.8397 3.486917,-10.5739 -2.130954,-22.4739 0,-33.40217 12.480955,-30.63207 15.363305,-33.37932 4.660755,-69.13452 -21.339561,11.8281 -4.859576,58.80235 -19.419825,58.25948 -9.870541,-2.26971 1.805004,-20.18041 2.330379,-30.29492 0.497146,-9.57105 2.02044,-19.23844 0.776794,-28.74136 -1.541569,-11.77939 -10.098311,-34.17889 -10.098311,-34.17889 0,0 -1.553588,-22.527 -2.33038,-18.64303 -0.776792,3.88395 -7.762317,36.05216 -9.321517,54.3755 -1.251382,14.70593 1.078528,29.5576 0,44.27722 -0.924436,12.61651 7.117006,37.74809 -5.531792,37.54589 -20.153274,-0.32222 -1.29736,-40.71046 -6.896898,-60.07288 -2.155625,-7.45387 -13.205486,-36.50929 -10.09831,-20.97343 3.107172,15.53587 3.216418,34.13956 -0.776793,50.49145 -1.373543,5.62469 -5.633513,10.1538 -7.767933,15.53596 -1.99313,5.02589 -4.59834,10.12956 -4.66076,15.5358 -0.12402,10.741 13.205486,32.6255 8.54473,31.0718 -4.66076,-1.5536 -24.08059,-28.7413 -25.63418,-35.73256 -1.55359,-6.99113 3.10718,13.98246 5.43756,27.18766 2.33038,13.2056 52.045135,35.7327 52.045135,35.7327 z"
         style="fill:#ff0000;stroke:none;stroke-width:1.19674683px;stroke-linecap:butt;stroke-linejoin:miter;stroke-opacity:1" />
      <path
         style="fill:#ffdd55;stroke:none;stroke-width:1.09549022px;stroke-linecap:butt;stroke-linejoin:miter;stroke-opacity:1"
         d="m -68.922776,1057.4209 c 0,0 -21.692351,-21.552 -26.309541,-35.5535 -3.191886,-9.6793 1.950652,-20.5725 0,-30.57596 -11.424953,-28.04035 -14.063413,-30.55517 -4.266408,-63.28512 19.53402,10.82733 4.448402,53.82715 17.776713,53.33016 9.035395,-2.0777 -1.652282,-18.47296 -2.133206,-27.73168 -0.455083,-8.76124 -1.849492,-17.61068 -0.711069,-26.30955 1.411136,-10.78273 9.243893,-31.28702 9.243893,-31.28702 0,0 1.422138,-20.621 2.133207,-17.06565 0.711068,3.55534 7.105548,33.00179 8.532825,49.7748 1.145501,13.46166 -0.987275,27.05674 0,40.53093 0.84622,11.54911 -6.514838,34.55429 5.063748,34.36919 18.448105,-0.295 1.18759,-37.26602 6.31335,-54.99018 1.973239,-6.82319 12.088169,-33.42023 9.243894,-19.19886 -2.844275,14.22138 -2.944277,31.25101 0.711068,46.21946 1.257328,5.1487 5.156865,9.29466 7.110687,14.22137 1.824498,4.60061 4.209275,9.2725 4.266413,14.22141 0.113523,9.8322 -12.088168,29.8649 -7.821756,28.4427 4.266413,-1.4221 22.043131,-26.3095 23.465269,-32.70912 1.422137,-6.39964 -2.844275,12.79932 -4.977482,24.88732 -2.133207,12.0882 -47.641605,32.7093 -47.641605,32.7093 z"
         id="path1100"
         inkscape:connector-curvature="0"
         sodipodi:nodetypes="cacccaacsaaaasaaasscc" />
      <path
         sodipodi:nodetypes="cacccaacsaaaasaaasscc"
         inkscape:connector-curvature="0"
         id="path1102"
         d="m -56.759806,1053.7492 c 0,0 21.692354,-21.552 26.309544,-35.5535 3.19188,-9.6794 -1.95065,-20.5725 0,-30.5761 11.42495,-28.04031 14.06341,-30.55513 4.26641,-63.28508 -19.53402,10.82733 -4.44841,53.82715 -17.77672,53.33016 -9.035393,-2.0777 1.65228,-18.47296 2.13321,-27.73168 0.45508,-8.76124 1.84949,-17.61068 0.71107,-26.30955 -1.41114,-10.78273 -9.2439,-31.28702 -9.2439,-31.28702 0,0 -1.42213,-20.621 -2.133203,-17.06565 -0.711068,3.55534 -7.105548,33.00179 -8.532825,49.7748 -1.145501,13.46166 0.987275,27.05674 0,40.53093 -0.84622,11.54911 6.514838,34.55429 -5.063748,34.36919 -18.448107,-0.295 -1.18759,-37.26602 -6.31335,-54.99018 -1.973239,-6.82319 -12.088167,-33.42023 -9.243897,-19.19886 2.84428,14.22138 2.94428,31.25101 -0.71107,46.21946 -1.25732,5.1487 -5.15686,9.29466 -7.11068,14.22137 -1.8245,4.60061 -4.20928,9.27251 -4.26642,14.22141 -0.11352,9.8322 12.08817,29.865 7.82176,28.4428 -4.26641,-1.4221 -22.043125,-26.3096 -23.465265,-32.7092 -1.42214,-6.3997 2.84428,12.7993 4.97748,24.8874 2.13321,12.0882 47.641604,32.7093 47.641604,32.7093 z"
         style="fill:#ff9955;stroke:none;stroke-width:1.09549022px;stroke-linecap:butt;stroke-linejoin:miter;stroke-opacity:1" />
      <path
         sodipodi:nodetypes="cacccaacsaaaasaaasscc"
         inkscape:connector-curvature="0"
         id="path1098"
         d="m -78.539554,1056.9619 c 0,0 -19.801501,-19.6734 -24.016226,-32.4544 -2.91366,-8.8356 1.78062,-18.7792 0,-27.91076 -10.42908,-25.59616 -12.83755,-27.89177 -3.89452,-57.76876 17.831305,9.88354 4.06065,49.13521 16.227176,48.68154 8.24781,-1.89659 -1.508258,-16.86273 -1.947261,-25.3144 -0.415415,-7.99755 -1.688278,-16.07561 -0.649088,-24.01623 1.288132,-9.84284 8.438134,-28.55984 8.438134,-28.55984 0,0 1.298175,-18.82353 1.947262,-15.57809 0.649087,3.24543 6.486181,30.12513 7.789047,45.4361 1.045652,12.28825 -0.901217,24.69829 0,36.99798 0.772458,10.54241 -5.946961,31.54226 4.622358,31.37336 16.840045,-0.2693 1.084072,-34.01768 5.763037,-50.19689 1.801238,-6.22843 11.034483,-30.5071 8.438134,-17.52536 -2.596349,12.98175 -2.687634,28.52697 0.649087,42.19067 1.147731,4.6999 4.707358,8.48447 6.490872,12.98174 1.665462,4.19959 3.842366,8.46424 3.894524,12.98174 0.103627,8.9752 -11.034483,27.2617 -7.13996,25.9635 3.894524,-1.2982 20.121704,-24.0162 21.419879,-29.858 1.298174,-5.8418 -2.596349,11.6836 -4.543611,22.718 -1.947262,11.0345 -43.488844,29.8581 -43.488844,29.8581 z"
         style="fill:#ffff00;stroke:none;stroke-width:1px;stroke-linecap:butt;stroke-linejoin:miter;stroke-opacity:1" />
      <path
         style="fill:#ff0000;stroke:none;stroke-width:0.75547183px;stroke-linecap:butt;stroke-linejoin:miter;stroke-opacity:1"
         d="m -71.106211,1060.1747 c 0,0 -14.959474,-14.8627 -18.143584,-24.5184 -2.20119,-6.675 1.34521,-14.1871 0,-21.0858 -7.87887,-19.33714 -9.69841,-21.0714 -2.9422,-43.64263 13.47105,7.46674 3.06771,37.12023 12.259176,36.77753 6.230988,-1.4328 -1.139447,-12.73931 -1.471101,-19.12431 -0.313834,-6.04193 -1.275446,-12.14467 -0.490368,-18.14359 0.973148,-7.43599 6.374773,-21.57615 6.374773,-21.57615 0,0 0.980735,-14.22065 1.471102,-11.76881 0.490366,2.45183 4.900127,22.75869 5.884405,34.32569 0.789961,9.28343 -0.680844,18.65886 0,27.95093 0.58357,7.96444 -4.492761,23.82924 3.492061,23.70164 12.72218,-0.2034 0.818986,-25.69934 4.353813,-37.92228 1.360784,-4.70541 8.336241,-23.04726 6.374772,-13.23992 -1.961468,9.80735 -2.030432,21.55132 0.490367,31.8738 0.867079,3.5507 3.556276,6.4098 4.903671,9.8074 1.25821,3.1727 2.902799,6.3945 2.942203,9.8073 0.07829,6.7805 -8.336241,20.5955 -5.394038,19.6147 2.942203,-0.9807 15.20138,-18.1435 16.182115,-22.5569 0.980734,-4.4133 -1.961469,8.8267 -3.43257,17.1628 -1.471102,8.3363 -32.854597,22.557 -32.854597,22.557 z"
         id="path1104"
         inkscape:connector-curvature="0"
         sodipodi:nodetypes="cacccaacsaaaasaaasscc" />
    </g>
    <g
       transform="matrix(0.68009279,0,0,0.68009279,140.16989,357.5547)"
       id="g1125">
      <path
         style="fill:#ff0000;stroke:none;stroke-width:1.19674683px;stroke-linecap:butt;stroke-linejoin:miter;stroke-opacity:1"
         d="m -70.687855,1058.7978 c 0,0 23.697381,-23.5441 28.741346,-38.8397 3.486917,-10.5739 -2.130954,-22.4739 0,-33.40217 12.480955,-30.63207 15.363305,-33.37932 4.660755,-69.13452 -21.339561,11.8281 -4.859576,58.80235 -19.419825,58.25948 -9.870541,-2.26971 1.805004,-20.18041 2.330379,-30.29492 0.497146,-9.57105 2.02044,-19.23844 0.776794,-28.74136 -1.541569,-11.77939 -10.098311,-34.17889 -10.098311,-34.17889 0,0 -1.553588,-22.527 -2.33038,-18.64303 -0.776792,3.88395 -7.762317,36.05216 -9.321517,54.3755 -1.251382,14.70593 1.078528,29.5576 0,44.27722 -0.924436,12.61651 7.117006,37.74809 -5.531792,37.54589 -20.153274,-0.32222 -1.29736,-40.71046 -6.896898,-60.07288 -2.155625,-7.45387 -13.205486,-36.50929 -10.09831,-20.97343 3.107172,15.53587 3.216418,34.13956 -0.776793,50.49145 -1.373543,5.62469 -5.633513,10.1538 -7.767933,15.53596 -1.99313,5.02589 -4.59834,10.12956 -4.66076,15.5358 -0.12402,10.741 13.205486,32.6255 8.54473,31.0718 -4.66076,-1.5536 -24.08059,-28.7413 -25.63418,-35.73256 -1.55359,-6.99113 3.10718,13.98246 5.43756,27.18766 2.33038,13.2056 52.045135,35.7327 52.045135,35.7327 z"
         id="path1115"
         inkscape:connector-curvature="0"
         sodipodi:nodetypes="cacccaacsaaaasaaasscc" />
      <path
         sodipodi:nodetypes="cacccaacsaaaasaaasscc"
         inkscape:connector-curvature="0"
         id="path1117"
         d="m -68.922776,1057.4209 c 0,0 -21.692351,-21.552 -26.309541,-35.5535 -3.191886,-9.6793 1.950652,-20.5725 0,-30.57596 -11.424953,-28.04035 -14.063413,-30.55517 -4.266408,-63.28512 19.53402,10.82733 4.448402,53.82715 17.776713,53.33016 9.035395,-2.0777 -1.652282,-18.47296 -2.133206,-27.73168 -0.455083,-8.76124 -1.849492,-17.61068 -0.711069,-26.30955 1.411136,-10.78273 9.243893,-31.28702 9.243893,-31.28702 0,0 1.422138,-20.621 2.133207,-17.06565 0.711068,3.55534 7.105548,33.00179 8.532825,49.7748 1.145501,13.46166 -0.987275,27.05674 0,40.53093 0.84622,11.54911 -6.514838,34.55429 5.063748,34.36919 18.448105,-0.295 1.18759,-37.26602 6.31335,-54.99018 1.973239,-6.82319 12.088169,-33.42023 9.243894,-19.19886 -2.844275,14.22138 -2.944277,31.25101 0.711068,46.21946 1.257328,5.1487 5.156865,9.29466 7.110687,14.22137 1.824498,4.60061 4.209275,9.2725 4.266413,14.22141 0.113523,9.8322 -12.088168,29.8649 -7.821756,28.4427 4.266413,-1.4221 22.043131,-26.3095 23.465269,-32.70912 1.422137,-6.39964 -2.844275,12.79932 -4.977482,24.88732 -2.133207,12.0882 -47.641605,32.7093 -47.641605,32.7093 z"
         style="fill:#ffdd55;stroke:none;stroke-width:1.09549022px;stroke-linecap:butt;stroke-linejoin:miter;stroke-opacity:1" />
      <path
         style="fill:#ff9955;stroke:none;stroke-width:1.09549022px;stroke-linecap:butt;stroke-linejoin:miter;stroke-opacity:1"
         d="m -56.759806,1053.7492 c 0,0 21.692354,-21.552 26.309544,-35.5535 3.19188,-9.6794 -1.95065,-20.5725 0,-30.5761 11.42495,-28.04031 14.06341,-30.55513 4.26641,-63.28508 -19.53402,10.82733 -4.44841,53.82715 -17.77672,53.33016 -9.035393,-2.0777 1.65228,-18.47296 2.13321,-27.73168 0.45508,-8.76124 1.84949,-17.61068 0.71107,-26.30955 -1.41114,-10.78273 -9.2439,-31.28702 -9.2439,-31.28702 0,0 -1.42213,-20.621 -2.133203,-17.06565 -0.711068,3.55534 -7.105548,33.00179 -8.532825,49.7748 -1.145501,13.46166 0.987275,27.05674 0,40.53093 -0.84622,11.54911 6.514838,34.55429 -5.063748,34.36919 -18.448107,-0.295 -1.18759,-37.26602 -6.31335,-54.99018 -1.973239,-6.82319 -12.088167,-33.42023 -9.243897,-19.19886 2.84428,14.22138 2.94428,31.25101 -0.71107,46.21946 -1.25732,5.1487 -5.15686,9.29466 -7.11068,14.22137 -1.8245,4.60061 -4.20928,9.27251 -4.26642,14.22141 -0.11352,9.8322 12.08817,29.865 7.82176,28.4428 -4.26641,-1.4221 -22.043125,-26.3096 -23.465265,-32.7092 -1.42214,-6.3997 2.84428,12.7993 4.97748,24.8874 2.13321,12.0882 47.641604,32.7093 47.641604,32.7093 z"
         id="path1119"
         inkscape:connector-curvature="0"
         sodipodi:nodetypes="cacccaacsaaaasaaasscc" />
      <path
         style="fill:#ffff00;stroke:none;stroke-width:1px;stroke-linecap:butt;stroke-linejoin:miter;stroke-opacity:1"
         d="m -78.539554,1056.9619 c 0,0 -19.801501,-19.6734 -24.016226,-32.4544 -2.91366,-8.8356 1.78062,-18.7792 0,-27.91076 -10.42908,-25.59616 -12.83755,-27.89177 -3.89452,-57.76876 17.831305,9.88354 4.06065,49.13521 16.227176,48.68154 8.24781,-1.89659 -1.508258,-16.86273 -1.947261,-25.3144 -0.415415,-7.99755 -1.688278,-16.07561 -0.649088,-24.01623 1.288132,-9.84284 8.438134,-28.55984 8.438134,-28.55984 0,0 1.298175,-18.82353 1.947262,-15.57809 0.649087,3.24543 6.486181,30.12513 7.789047,45.4361 1.045652,12.28825 -0.901217,24.69829 0,36.99798 0.772458,10.54241 -5.946961,31.54226 4.622358,31.37336 16.840045,-0.2693 1.084072,-34.01768 5.763037,-50.19689 1.801238,-6.22843 11.034483,-30.5071 8.438134,-17.52536 -2.596349,12.98175 -2.687634,28.52697 0.649087,42.19067 1.147731,4.6999 4.707358,8.48447 6.490872,12.98174 1.665462,4.19959 3.842366,8.46424 3.894524,12.98174 0.103627,8.9752 -11.034483,27.2617 -7.13996,25.9635 3.894524,-1.2982 20.121704,-24.0162 21.419879,-29.858 1.298174,-5.8418 -2.596349,11.6836 -4.543611,22.718 -1.947262,11.0345 -43.488844,29.8581 -43.488844,29.8581 z"
         id="path1121"
         inkscape:connector-curvature="0"
         sodipodi:nodetypes="cacccaacsaaaasaaasscc" />
      <path
         sodipodi:nodetypes="cacccaacsaaaasaaasscc"
         inkscape:connector-curvature="0"
         id="path1123"
         d="m -71.106211,1060.1747 c 0,0 -14.959474,-14.8627 -18.143584,-24.5184 -2.20119,-6.675 1.34521,-14.1871 0,-21.0858 -7.87887,-19.33714 -9.69841,-21.0714 -2.9422,-43.64263 13.47105,7.46674 3.06771,37.12023 12.259176,36.77753 6.230988,-1.4328 -1.139447,-12.73931 -1.471101,-19.12431 -0.313834,-6.04193 -1.275446,-12.14467 -0.490368,-18.14359 0.973148,-7.43599 6.374773,-21.57615 6.374773,-21.57615 0,0 0.980735,-14.22065 1.471102,-11.76881 0.490366,2.45183 4.900127,22.75869 5.884405,34.32569 0.789961,9.28343 -0.680844,18.65886 0,27.95093 0.58357,7.96444 -4.492761,23.82924 3.492061,23.70164 12.72218,-0.2034 0.818986,-25.69934 4.353813,-37.92228 1.360784,-4.70541 8.336241,-23.04726 6.374772,-13.23992 -1.961468,9.80735 -2.030432,21.55132 0.490367,31.8738 0.867079,3.5507 3.556276,6.4098 4.903671,9.8074 1.25821,3.1727 2.902799,6.3945 2.942203,9.8073 0.07829,6.7805 -8.336241,20.5955 -5.394038,19.6147 2.942203,-0.9807 15.20138,-18.1435 16.182115,-22.5569 0.980734,-4.4133 -1.961469,8.8267 -3.43257,17.1628 -1.471102,8.3363 -32.854597,22.557 -32.854597,22.557 z"
         style="fill:#ff0000;stroke:none;stroke-width:0.75547183px;stroke-linecap:butt;stroke-linejoin:miter;stroke-opacity:1" />
    </g>
    <g
       id="g1137"
       transform="matrix(0.48962918,0,0,0.48962918,273.2505,530.04774)">
      <path
         sodipodi:nodetypes="cacccaacsaaaasaaasscc"
         inkscape:connector-curvature="0"
         id="path1127"
         d="m -70.687855,1058.7978 c 0,0 23.697381,-23.5441 28.741346,-38.8397 3.486917,-10.5739 -2.130954,-22.4739 0,-33.40217 12.480955,-30.63207 15.363305,-33.37932 4.660755,-69.13452 -21.339561,11.8281 -4.859576,58.80235 -19.419825,58.25948 -9.870541,-2.26971 1.805004,-20.18041 2.330379,-30.29492 0.497146,-9.57105 2.02044,-19.23844 0.776794,-28.74136 -1.541569,-11.77939 -10.098311,-34.17889 -10.098311,-34.17889 0,0 -1.553588,-22.527 -2.33038,-18.64303 -0.776792,3.88395 -7.762317,36.05216 -9.321517,54.3755 -1.251382,14.70593 1.078528,29.5576 0,44.27722 -0.924436,12.61651 7.117006,37.74809 -5.531792,37.54589 -20.153274,-0.32222 -1.29736,-40.71046 -6.896898,-60.07288 -2.155625,-7.45387 -13.205486,-36.50929 -10.09831,-20.97343 3.107172,15.53587 3.216418,34.13956 -0.776793,50.49145 -1.373543,5.62469 -5.633513,10.1538 -7.767933,15.53596 -1.99313,5.02589 -4.59834,10.12956 -4.66076,15.5358 -0.12402,10.741 13.205486,32.6255 8.54473,31.0718 -4.66076,-1.5536 -24.08059,-28.7413 -25.63418,-35.73256 -1.55359,-6.99113 3.10718,13.98246 5.43756,27.18766 2.33038,13.2056 52.045135,35.7327 52.045135,35.7327 z"
         style="fill:#ff0000;stroke:none;stroke-width:1.19674683px;stroke-linecap:butt;stroke-linejoin:miter;stroke-opacity:1" />
      <path
         style="fill:#ffdd55;stroke:none;stroke-width:1.09549022px;stroke-linecap:butt;stroke-linejoin:miter;stroke-opacity:1"
         d="m -68.922776,1057.4209 c 0,0 -21.692351,-21.552 -26.309541,-35.5535 -3.191886,-9.6793 1.950652,-20.5725 0,-30.57596 -11.424953,-28.04035 -14.063413,-30.55517 -4.266408,-63.28512 19.53402,10.82733 4.448402,53.82715 17.776713,53.33016 9.035395,-2.0777 -1.652282,-18.47296 -2.133206,-27.73168 -0.455083,-8.76124 -1.849492,-17.61068 -0.711069,-26.30955 1.411136,-10.78273 9.243893,-31.28702 9.243893,-31.28702 0,0 1.422138,-20.621 2.133207,-17.06565 0.711068,3.55534 7.105548,33.00179 8.532825,49.7748 1.145501,13.46166 -0.987275,27.05674 0,40.53093 0.84622,11.54911 -6.514838,34.55429 5.063748,34.36919 18.448105,-0.295 1.18759,-37.26602 6.31335,-54.99018 1.973239,-6.82319 12.088169,-33.42023 9.243894,-19.19886 -2.844275,14.22138 -2.944277,31.25101 0.711068,46.21946 1.257328,5.1487 5.156865,9.29466 7.110687,14.22137 1.824498,4.60061 4.209275,9.2725 4.266413,14.22141 0.113523,9.8322 -12.088168,29.8649 -7.821756,28.4427 4.266413,-1.4221 22.043131,-26.3095 23.465269,-32.70912 1.422137,-6.39964 -2.844275,12.79932 -4.977482,24.88732 -2.133207,12.0882 -47.641605,32.7093 -47.641605,32.7093 z"
         id="path1129"
         inkscape:connector-curvature="0"
         sodipodi:nodetypes="cacccaacsaaaasaaasscc" />
      <path
         sodipodi:nodetypes="cacccaacsaaaasaaasscc"
         inkscape:connector-curvature="0"
         id="path1131"
         d="m -56.759806,1053.7492 c 0,0 21.692354,-21.552 26.309544,-35.5535 3.19188,-9.6794 -1.95065,-20.5725 0,-30.5761 11.42495,-28.04031 14.06341,-30.55513 4.26641,-63.28508 -19.53402,10.82733 -4.44841,53.82715 -17.77672,53.33016 -9.035393,-2.0777 1.65228,-18.47296 2.13321,-27.73168 0.45508,-8.76124 1.84949,-17.61068 0.71107,-26.30955 -1.41114,-10.78273 -9.2439,-31.28702 -9.2439,-31.28702 0,0 -1.42213,-20.621 -2.133203,-17.06565 -0.711068,3.55534 -7.105548,33.00179 -8.532825,49.7748 -1.145501,13.46166 0.987275,27.05674 0,40.53093 -0.84622,11.54911 6.514838,34.55429 -5.063748,34.36919 -18.448107,-0.295 -1.18759,-37.26602 -6.31335,-54.99018 -1.973239,-6.82319 -12.088167,-33.42023 -9.243897,-19.19886 2.84428,14.22138 2.94428,31.25101 -0.71107,46.21946 -1.25732,5.1487 -5.15686,9.29466 -7.11068,14.22137 -1.8245,4.60061 -4.20928,9.27251 -4.26642,14.22141 -0.11352,9.8322 12.08817,29.865 7.82176,28.4428 -4.26641,-1.4221 -22.043125,-26.3096 -23.465265,-32.7092 -1.42214,-6.3997 2.84428,12.7993 4.97748,24.8874 2.13321,12.0882 47.641604,32.7093 47.641604,32.7093 z"
         style="fill:#ff9955;stroke:none;stroke-width:1.09549022px;stroke-linecap:butt;stroke-linejoin:miter;stroke-opacity:1" />
      <path
         sodipodi:nodetypes="cacccaacsaaaasaaasscc"
         inkscape:connector-curvature="0"
         id="path1133"
         d="m -78.539554,1056.9619 c 0,0 -19.801501,-19.6734 -24.016226,-32.4544 -2.91366,-8.8356 1.78062,-18.7792 0,-27.91076 -10.42908,-25.59616 -12.83755,-27.89177 -3.89452,-57.76876 17.831305,9.88354 4.06065,49.13521 16.227176,48.68154 8.24781,-1.89659 -1.508258,-16.86273 -1.947261,-25.3144 -0.415415,-7.99755 -1.688278,-16.07561 -0.649088,-24.01623 1.288132,-9.84284 8.438134,-28.55984 8.438134,-28.55984 0,0 1.298175,-18.82353 1.947262,-15.57809 0.649087,3.24543 6.486181,30.12513 7.789047,45.4361 1.045652,12.28825 -0.901217,24.69829 0,36.99798 0.772458,10.54241 -5.946961,31.54226 4.622358,31.37336 16.840045,-0.2693 1.084072,-34.01768 5.763037,-50.19689 1.801238,-6.22843 11.034483,-30.5071 8.438134,-17.52536 -2.596349,12.98175 -2.687634,28.52697 0.649087,42.19067 1.147731,4.6999 4.707358,8.48447 6.490872,12.98174 1.665462,4.19959 3.842366,8.46424 3.894524,12.98174 0.103627,8.9752 -11.034483,27.2617 -7.13996,25.9635 3.894524,-1.2982 20.121704,-24.0162 21.419879,-29.858 1.298174,-5.8418 -2.596349,11.6836 -4.543611,22.718 -1.947262,11.0345 -43.488844,29.8581 -43.488844,29.8581 z"
         style="fill:#ffff00;stroke:none;stroke-width:1px;stroke-linecap:butt;stroke-linejoin:miter;stroke-opacity:1" />
      <path
         style="fill:#ff0000;stroke:none;stroke-width:0.75547183px;stroke-linecap:butt;stroke-linejoin:miter;stroke-opacity:1"
         d="m -71.106211,1060.1747 c 0,0 -14.959474,-14.8627 -18.143584,-24.5184 -2.20119,-6.675 1.34521,-14.1871 0,-21.0858 -7.87887,-19.33714 -9.69841,-21.0714 -2.9422,-43.64263 13.47105,7.46674 3.06771,37.12023 12.259176,36.77753 6.230988,-1.4328 -1.139447,-12.73931 -1.471101,-19.12431 -0.313834,-6.04193 -1.275446,-12.14467 -0.490368,-18.14359 0.973148,-7.43599 6.374773,-21.57615 6.374773,-21.57615 0,0 0.980735,-14.22065 1.471102,-11.76881 0.490366,2.45183 4.900127,22.75869 5.884405,34.32569 0.789961,9.28343 -0.680844,18.65886 0,27.95093 0.58357,7.96444 -4.492761,23.82924 3.492061,23.70164 12.72218,-0.2034 0.818986,-25.69934 4.353813,-37.92228 1.360784,-4.70541 8.336241,-23.04726 6.374772,-13.23992 -1.961468,9.80735 -2.030432,21.55132 0.490367,31.8738 0.867079,3.5507 3.556276,6.4098 4.903671,9.8074 1.25821,3.1727 2.902799,6.3945 2.942203,9.8073 0.07829,6.7805 -8.336241,20.5955 -5.394038,19.6147 2.942203,-0.9807 15.20138,-18.1435 16.182115,-22.5569 0.980734,-4.4133 -1.961469,8.8267 -3.43257,17.1628 -1.471102,8.3363 -32.854597,22.557 -32.854597,22.557 z"
         id="path1135"
         inkscape:connector-curvature="0"
         sodipodi:nodetypes="cacccaacsaaaasaaasscc" />
    </g>
  </g>
</svg>
