<?xml version="1.0" encoding="UTF-8" standalone="no"?>
<!-- Created with Inkscape (http://www.inkscape.org/) -->

<svg
   width="26.250504mm"
   height="29.75366mm"
   viewBox="0 0 26.250503 29.75366"
   version="1.1"
   id="svg2269"
   inkscape:version="1.1.2 (0a00cf5339, 2022-02-04)"
   sodipodi:docname="item367.svg"
   xmlns:inkscape="http://www.inkscape.org/namespaces/inkscape"
   xmlns:sodipodi="http://sodipodi.sourceforge.net/DTD/sodipodi-0.dtd"
   xmlns="http://www.w3.org/2000/svg"
   xmlns:svg="http://www.w3.org/2000/svg">
  <sodipodi:namedview
     id="namedview2271"
     pagecolor="#ffffff"
     bordercolor="#666666"
     borderopacity="1.0"
     inkscape:pageshadow="2"
     inkscape:pageopacity="0.0"
     inkscape:pagecheckerboard="0"
     inkscape:document-units="mm"
     showgrid="false"
     fit-margin-top="0"
     fit-margin-left="0"
     fit-margin-right="0"
     fit-margin-bottom="0"
     inkscape:zoom="0.48996914"
     inkscape:cx="50.00315"
     inkscape:cy="57.146457"
     inkscape:window-width="1366"
     inkscape:window-height="719"
     inkscape:window-x="0"
     inkscape:window-y="25"
     inkscape:window-maximized="1"
     inkscape:current-layer="layer1" />
  <defs
     id="defs2266" />
  <g
     inkscape:label="Capa 1"
     inkscape:groupmode="layer"
     id="layer1"
     transform="translate(-88.183928,-133.99012)">
    <g
       id="g9900"
       transform="matrix(0.26458333,0,0,0.26458333,-63.897718,115.9501)">
      <g
         transform="matrix(0.11149673,0.06437266,-0.06384073,0.1105754,553.90743,-1.5152454)"
         id="g9424">
        <g
           id="g9426">
          <path
             sodipodi:nodetypes="ccccc"
             inkscape:connector-curvature="0"
             id="path9428"
             d="m 1158.132,504.27194 -130.8594,-122.45976 54.0044,456.88981 79.0236,50.76968 z"
             style="opacity:1;fill:#37c837;fill-opacity:1;stroke:none;stroke-width:4;stroke-miterlimit:4;stroke-dasharray:none;stroke-opacity:1" />
          <path
             id="path9430"
             d="m 1158.3845,549.07331 a 115.54381,252.39827 12.427489 0 1 -89.6523,183.49556 l 12.5448,106.13312 79.0236,50.76968 z"
             style="opacity:0.248;fill:#2ca02c;fill-opacity:1;stroke:none;stroke-width:4;stroke-miterlimit:4;stroke-dasharray:none;stroke-opacity:1"
             inkscape:connector-curvature="0" />
          <path
             sodipodi:nodetypes="cccccc"
             inkscape:connector-curvature="0"
             id="path9432"
             d="m 1158.132,504.27194 2.1686,385.19973 v 0 l 79.0228,-51.81645 51.3252,-457.58634 z"
             style="opacity:1;fill:#5fd35f;fill-opacity:1;stroke:none;stroke-width:4;stroke-miterlimit:4;stroke-dasharray:none;stroke-opacity:1" />
          <path
             sodipodi:nodetypes="ccccc"
             inkscape:connector-curvature="0"
             style="opacity:0.856;fill:#37c837;fill-opacity:1;stroke:none;stroke-width:4;stroke-miterlimit:4;stroke-dasharray:none;stroke-opacity:1"
             d="m 1158.3845,549.07331 c 17.8913,76.89603 54.8987,144.79737 93.4845,183.49556 l -12.5448,106.13312 -79.0236,50.76968 z"
             id="path9434" />
          <path
             id="path9436"
             d="M 1158.132,255.86504 1027.2726,381.81218 1158.132,504.27194 1290.6486,380.06888 Z"
             style="opacity:1;fill:#ffcc00;fill-opacity:1;stroke:none;stroke-width:4;stroke-miterlimit:4;stroke-dasharray:none;stroke-opacity:1"
             inkscape:connector-curvature="0" />
          <path
             id="path9438"
             d="m 1091.9507,319.5615 -64.6781,62.25068 130.8594,122.45976 z"
             style="opacity:1;fill:#87de87;fill-opacity:1;stroke:none;stroke-width:4;stroke-miterlimit:4;stroke-dasharray:none;stroke-opacity:1"
             inkscape:connector-curvature="0" />
          <path
             sodipodi:nodetypes="ccccc"
             inkscape:connector-curvature="0"
             id="path9440"
             d="m 1224.7602,318.3133 -66.8266,-17.97482 -65.9829,19.22302 66.1813,184.71044 z"
             style="opacity:1;fill:#37c837;fill-opacity:1;stroke:none;stroke-width:4;stroke-miterlimit:4;stroke-dasharray:none;stroke-opacity:1" />
          <path
             sodipodi:nodetypes="ccccc"
             inkscape:connector-curvature="0"
             id="path9442"
             d="m 1158.132,255.86504 -66.1813,63.69646 65.9829,-19.22302 66.8266,17.97482 z"
             style="opacity:1;fill:#87de87;fill-opacity:1;stroke:none;stroke-width:4;stroke-miterlimit:4;stroke-dasharray:none;stroke-opacity:1" />
          <path
             id="path9444"
             d="M 1224.7602,318.3133 1158.132,504.27194 1290.6486,380.06888 Z"
             style="opacity:1;fill:#87de87;fill-opacity:1;stroke:none;stroke-width:4;stroke-miterlimit:4;stroke-dasharray:none;stroke-opacity:1"
             inkscape:connector-curvature="0" />
          <path
             style="opacity:1;fill:none;fill-opacity:1;stroke:#0b280b;stroke-width:5.69948;stroke-miterlimit:4;stroke-dasharray:none;stroke-opacity:1"
             d="M 1158.132,255.86504 1027.2726,381.81218 1158.132,504.27194 1290.6486,380.06888 Z"
             id="path9446"
             inkscape:connector-curvature="0" />
          <path
             sodipodi:nodetypes="ccccc"
             inkscape:connector-curvature="0"
             id="path9448"
             d="m 1159.5487,760.78016 c -44.4727,18.3124 -60.0713,48.65932 -78.2717,77.92183 v 0 l 78.7346,-0.52146 z"
             style="opacity:0.27;fill:#2ca02c;fill-opacity:1;stroke:none;stroke-width:4;stroke-miterlimit:4;stroke-dasharray:none;stroke-opacity:1" />
          <path
             sodipodi:nodetypes="ccccc"
             inkscape:connector-curvature="0"
             id="path9450"
             d="m 1159.5487,760.78016 0.4629,77.40037 79.3118,-0.52531 v 0 c -26.6095,-46.4309 -53.1926,-62.27322 -79.7747,-76.87506 z"
             style="opacity:0.27;fill:#2ca02c;fill-opacity:1;stroke:none;stroke-width:4;stroke-miterlimit:4;stroke-dasharray:none;stroke-opacity:1" />
          <path
             sodipodi:nodetypes="ccccc"
             inkscape:connector-curvature="0"
             id="path9452"
             d="m 1160.0116,838.18053 c -32.8098,-12.81943 -55.1692,-4.97031 -78.7346,0.52146 l 76.855,49.37655 2.1686,1.39313 z"
             style="opacity:0.27;fill:#afe9af;fill-opacity:1;stroke:none;stroke-width:4;stroke-miterlimit:4;stroke-dasharray:none;stroke-opacity:1" />
          <path
             sodipodi:nodetypes="cccc"
             inkscape:connector-curvature="0"
             id="path9454"
             d="m 1160.0116,838.18053 0.289,51.29114 79.0228,-51.81645 c -25.686,-3.95671 -50.7488,-11.34117 -79.3118,0.52531 z"
             style="opacity:0.27;fill:#afe9af;fill-opacity:1;stroke:none;stroke-width:4;stroke-miterlimit:4;stroke-dasharray:none;stroke-opacity:1" />
          <path
             sodipodi:nodetypes="cc"
             inkscape:connector-curvature="0"
             id="path9456"
             d="m 1158.132,504.27194 2.1686,385.19973"
             style="fill:none;fill-rule:evenodd;stroke:#0b280b;stroke-width:5.69948;stroke-linecap:butt;stroke-linejoin:miter;stroke-opacity:1" />
          <rect
             transform="matrix(0.98769702,0.15637965,-0.11179315,0.9937315,0,0)"
             ry="9.2037373"
             y="295.07828"
             x="1298.401"
             height="180.07312"
             width="14.968219"
             id="rect9458"
             style="opacity:0.726;fill:#d7f4d7;fill-opacity:1;stroke:none;stroke-width:4;stroke-miterlimit:4;stroke-dasharray:none;stroke-opacity:1" />
          <path
             inkscape:connector-curvature="0"
             id="path9460"
             d="m 1268.0921,447.8071 a 5.3837658,5.1004096 0 0 0 -5.0711,3.40525 10.767532,16.789713 4.6052058 0 0 -3.1039,-0.99872 10.767532,16.789713 4.6052058 0 0 -12.0807,15.87105 10.767532,16.789713 4.6052058 0 0 9.3852,17.59962 10.767532,16.789713 4.6052058 0 0 12.0807,-15.87104 10.767532,16.789713 4.6052058 0 0 -1.2017,-9.80589 5.3837658,5.1004096 0 0 0 5.3748,-5.09975 5.3837658,5.1004096 0 0 0 -5.3833,-5.10052 z"
             style="opacity:0.726;fill:#d7f4d7;fill-opacity:1;stroke:none;stroke-width:4;stroke-miterlimit:4;stroke-dasharray:none;stroke-opacity:1" />
          <path
             id="path9462"
             d="m 1158.132,255.86504 -130.8594,125.94714 54.0044,456.88981 76.855,49.37655 2.1686,1.39313 79.0228,-51.81645 51.3252,-457.58634 z"
             style="opacity:1;fill:none;fill-opacity:1;stroke:#0b280b;stroke-width:5.69948;stroke-miterlimit:4;stroke-dasharray:none;stroke-opacity:1"
             inkscape:connector-curvature="0" />
        </g>
      </g>
      <g
         id="g9662"
         transform="matrix(-0.11149673,0.06437266,0.06384073,0.1105754,694.90063,-1.5152454)">
        <g
           id="g9664">
          <path
             style="opacity:1;fill:#37c837;fill-opacity:1;stroke:none;stroke-width:4;stroke-miterlimit:4;stroke-dasharray:none;stroke-opacity:1"
             d="m 1158.132,504.27194 -130.8594,-122.45976 54.0044,456.88981 79.0236,50.76968 z"
             id="path9666"
             inkscape:connector-curvature="0"
             sodipodi:nodetypes="ccccc" />
          <path
             inkscape:connector-curvature="0"
             style="opacity:0.248;fill:#2ca02c;fill-opacity:1;stroke:none;stroke-width:4;stroke-miterlimit:4;stroke-dasharray:none;stroke-opacity:1"
             d="m 1158.3845,549.07331 a 115.54381,252.39827 12.427489 0 1 -89.6523,183.49556 l 12.5448,106.13312 79.0236,50.76968 z"
             id="path9668" />
          <path
             style="opacity:1;fill:#5fd35f;fill-opacity:1;stroke:none;stroke-width:4;stroke-miterlimit:4;stroke-dasharray:none;stroke-opacity:1"
             d="m 1158.132,504.27194 2.1686,385.19973 v 0 l 79.0228,-51.81645 51.3252,-457.58634 z"
             id="path9670"
             inkscape:connector-curvature="0"
             sodipodi:nodetypes="cccccc" />
          <path
             id="path9672"
             d="m 1158.3845,549.07331 c 17.8913,76.89603 54.8987,144.79737 93.4845,183.49556 l -12.5448,106.13312 -79.0236,50.76968 z"
             style="opacity:0.856;fill:#37c837;fill-opacity:1;stroke:none;stroke-width:4;stroke-miterlimit:4;stroke-dasharray:none;stroke-opacity:1"
             inkscape:connector-curvature="0"
             sodipodi:nodetypes="ccccc" />
          <path
             inkscape:connector-curvature="0"
             style="opacity:1;fill:#ffcc00;fill-opacity:1;stroke:none;stroke-width:4;stroke-miterlimit:4;stroke-dasharray:none;stroke-opacity:1"
             d="M 1158.132,255.86504 1027.2726,381.81218 1158.132,504.27194 1290.6486,380.06888 Z"
             id="path9674" />
          <path
             inkscape:connector-curvature="0"
             style="opacity:1;fill:#87de87;fill-opacity:1;stroke:none;stroke-width:4;stroke-miterlimit:4;stroke-dasharray:none;stroke-opacity:1"
             d="m 1091.9507,319.5615 -64.6781,62.25068 130.8594,122.45976 z"
             id="path9676" />
          <path
             style="opacity:1;fill:#37c837;fill-opacity:1;stroke:none;stroke-width:4;stroke-miterlimit:4;stroke-dasharray:none;stroke-opacity:1"
             d="m 1224.7602,318.3133 -66.8266,-17.97482 -65.9829,19.22302 66.1813,184.71044 z"
             id="path9678"
             inkscape:connector-curvature="0"
             sodipodi:nodetypes="ccccc" />
          <path
             style="opacity:1;fill:#87de87;fill-opacity:1;stroke:none;stroke-width:4;stroke-miterlimit:4;stroke-dasharray:none;stroke-opacity:1"
             d="m 1158.132,255.86504 -66.1813,63.69646 65.9829,-19.22302 66.8266,17.97482 z"
             id="path9680"
             inkscape:connector-curvature="0"
             sodipodi:nodetypes="ccccc" />
          <path
             inkscape:connector-curvature="0"
             style="opacity:1;fill:#87de87;fill-opacity:1;stroke:none;stroke-width:4;stroke-miterlimit:4;stroke-dasharray:none;stroke-opacity:1"
             d="M 1224.7602,318.3133 1158.132,504.27194 1290.6486,380.06888 Z"
             id="path9682" />
          <path
             inkscape:connector-curvature="0"
             id="path9684"
             d="M 1158.132,255.86504 1027.2726,381.81218 1158.132,504.27194 1290.6486,380.06888 Z"
             style="opacity:1;fill:none;fill-opacity:1;stroke:#0b280b;stroke-width:5.69948;stroke-miterlimit:4;stroke-dasharray:none;stroke-opacity:1" />
          <path
             style="opacity:0.27;fill:#2ca02c;fill-opacity:1;stroke:none;stroke-width:4;stroke-miterlimit:4;stroke-dasharray:none;stroke-opacity:1"
             d="m 1159.5487,760.78016 c -44.4727,18.3124 -60.0713,48.65932 -78.2717,77.92183 v 0 l 78.7346,-0.52146 z"
             id="path9686"
             inkscape:connector-curvature="0"
             sodipodi:nodetypes="ccccc" />
          <path
             style="opacity:0.27;fill:#2ca02c;fill-opacity:1;stroke:none;stroke-width:4;stroke-miterlimit:4;stroke-dasharray:none;stroke-opacity:1"
             d="m 1159.5487,760.78016 0.4629,77.40037 79.3118,-0.52531 v 0 c -26.6095,-46.4309 -53.1926,-62.27322 -79.7747,-76.87506 z"
             id="path9688"
             inkscape:connector-curvature="0"
             sodipodi:nodetypes="ccccc" />
          <path
             style="opacity:0.27;fill:#afe9af;fill-opacity:1;stroke:none;stroke-width:4;stroke-miterlimit:4;stroke-dasharray:none;stroke-opacity:1"
             d="m 1160.0116,838.18053 c -32.8098,-12.81943 -55.1692,-4.97031 -78.7346,0.52146 l 76.855,49.37655 2.1686,1.39313 z"
             id="path9690"
             inkscape:connector-curvature="0"
             sodipodi:nodetypes="ccccc" />
          <path
             style="opacity:0.27;fill:#afe9af;fill-opacity:1;stroke:none;stroke-width:4;stroke-miterlimit:4;stroke-dasharray:none;stroke-opacity:1"
             d="m 1160.0116,838.18053 0.289,51.29114 79.0228,-51.81645 c -25.686,-3.95671 -50.7488,-11.34117 -79.3118,0.52531 z"
             id="path9692"
             inkscape:connector-curvature="0"
             sodipodi:nodetypes="cccc" />
          <path
             style="fill:none;fill-rule:evenodd;stroke:#0b280b;stroke-width:5.69948;stroke-linecap:butt;stroke-linejoin:miter;stroke-opacity:1"
             d="m 1158.132,504.27194 2.1686,385.19973"
             id="path9694"
             inkscape:connector-curvature="0"
             sodipodi:nodetypes="cc" />
          <rect
             style="opacity:0.726;fill:#d7f4d7;fill-opacity:1;stroke:none;stroke-width:4;stroke-miterlimit:4;stroke-dasharray:none;stroke-opacity:1"
             id="rect9696"
             width="14.968219"
             height="180.07312"
             x="1298.401"
             y="295.07828"
             ry="9.2037373"
             transform="matrix(0.98769702,0.15637965,-0.11179315,0.9937315,0,0)" />
          <path
             style="opacity:0.726;fill:#d7f4d7;fill-opacity:1;stroke:none;stroke-width:4;stroke-miterlimit:4;stroke-dasharray:none;stroke-opacity:1"
             d="m 1268.0921,447.8071 a 5.3837658,5.1004096 0 0 0 -5.0711,3.40525 10.767532,16.789713 4.6052058 0 0 -3.1039,-0.99872 10.767532,16.789713 4.6052058 0 0 -12.0807,15.87105 10.767532,16.789713 4.6052058 0 0 9.3852,17.59962 10.767532,16.789713 4.6052058 0 0 12.0807,-15.87104 10.767532,16.789713 4.6052058 0 0 -1.2017,-9.80589 5.3837658,5.1004096 0 0 0 5.3748,-5.09975 5.3837658,5.1004096 0 0 0 -5.3833,-5.10052 z"
             id="path9698"
             inkscape:connector-curvature="0" />
          <path
             inkscape:connector-curvature="0"
             style="opacity:1;fill:none;fill-opacity:1;stroke:#0b280b;stroke-width:5.69948;stroke-miterlimit:4;stroke-dasharray:none;stroke-opacity:1"
             d="m 1158.132,255.86504 -130.8594,125.94714 54.0044,456.88981 76.855,49.37655 2.1686,1.39313 79.0228,-51.81645 51.3252,-457.58634 z"
             id="path9700" />
        </g>
      </g>
      <g
         id="g9316"
         transform="matrix(0.17545451,0,0,0.17545451,420.8831,23.979639)">
        <g
           id="g9318">
          <path
             style="opacity:1;fill:#37c837;fill-opacity:1;stroke:none;stroke-width:4;stroke-miterlimit:4;stroke-dasharray:none;stroke-opacity:1"
             d="m 1158.132,504.27194 -130.8594,-122.45976 54.0044,456.88981 79.0236,50.76968 z"
             id="path9320"
             inkscape:connector-curvature="0"
             sodipodi:nodetypes="ccccc" />
          <path
             inkscape:connector-curvature="0"
             style="opacity:0.248;fill:#2ca02c;fill-opacity:1;stroke:none;stroke-width:4;stroke-miterlimit:4;stroke-dasharray:none;stroke-opacity:1"
             d="m 1158.3845,549.07331 a 115.54381,252.39827 12.427489 0 1 -89.6523,183.49556 l 12.5448,106.13312 79.0236,50.76968 z"
             id="path9322" />
          <path
             style="opacity:1;fill:#5fd35f;fill-opacity:1;stroke:none;stroke-width:4;stroke-miterlimit:4;stroke-dasharray:none;stroke-opacity:1"
             d="m 1158.132,504.27194 2.1686,385.19973 v 0 l 79.0228,-51.81645 51.3252,-457.58634 z"
             id="path9324"
             inkscape:connector-curvature="0"
             sodipodi:nodetypes="cccccc" />
          <path
             id="path9326"
             d="m 1158.3845,549.07331 c 17.8913,76.89603 54.8987,144.79737 93.4845,183.49556 l -12.5448,106.13312 -79.0236,50.76968 z"
             style="opacity:0.856;fill:#37c837;fill-opacity:1;stroke:none;stroke-width:4;stroke-miterlimit:4;stroke-dasharray:none;stroke-opacity:1"
             inkscape:connector-curvature="0"
             sodipodi:nodetypes="ccccc" />
          <path
             inkscape:connector-curvature="0"
             style="opacity:1;fill:#ffcc00;fill-opacity:1;stroke:none;stroke-width:4;stroke-miterlimit:4;stroke-dasharray:none;stroke-opacity:1"
             d="M 1158.132,255.86504 1027.2726,381.81218 1158.132,504.27194 1290.6486,380.06888 Z"
             id="path9328" />
          <path
             inkscape:connector-curvature="0"
             style="opacity:1;fill:#87de87;fill-opacity:1;stroke:none;stroke-width:4;stroke-miterlimit:4;stroke-dasharray:none;stroke-opacity:1"
             d="m 1091.9507,319.5615 -64.6781,62.25068 130.8594,122.45976 z"
             id="path9330" />
          <path
             style="opacity:1;fill:#37c837;fill-opacity:1;stroke:none;stroke-width:4;stroke-miterlimit:4;stroke-dasharray:none;stroke-opacity:1"
             d="m 1224.7602,318.3133 -66.8266,-17.97482 -65.9829,19.22302 66.1813,184.71044 z"
             id="path9332"
             inkscape:connector-curvature="0"
             sodipodi:nodetypes="ccccc" />
          <path
             style="opacity:1;fill:#87de87;fill-opacity:1;stroke:none;stroke-width:4;stroke-miterlimit:4;stroke-dasharray:none;stroke-opacity:1"
             d="m 1158.132,255.86504 -66.1813,63.69646 65.9829,-19.22302 66.8266,17.97482 z"
             id="path9334"
             inkscape:connector-curvature="0"
             sodipodi:nodetypes="ccccc" />
          <path
             inkscape:connector-curvature="0"
             style="opacity:1;fill:#87de87;fill-opacity:1;stroke:none;stroke-width:4;stroke-miterlimit:4;stroke-dasharray:none;stroke-opacity:1"
             d="M 1224.7602,318.3133 1158.132,504.27194 1290.6486,380.06888 Z"
             id="path9336" />
          <path
             inkscape:connector-curvature="0"
             id="path9338"
             d="M 1158.132,255.86504 1027.2726,381.81218 1158.132,504.27194 1290.6486,380.06888 Z"
             style="opacity:1;fill:none;fill-opacity:1;stroke:#0b280b;stroke-width:5.69948;stroke-miterlimit:4;stroke-dasharray:none;stroke-opacity:1" />
          <path
             style="opacity:0.27;fill:#2ca02c;fill-opacity:1;stroke:none;stroke-width:4;stroke-miterlimit:4;stroke-dasharray:none;stroke-opacity:1"
             d="m 1159.5487,760.78016 c -44.4727,18.3124 -60.0713,48.65932 -78.2717,77.92183 v 0 l 78.7346,-0.52146 z"
             id="path9340"
             inkscape:connector-curvature="0"
             sodipodi:nodetypes="ccccc" />
          <path
             style="opacity:0.27;fill:#2ca02c;fill-opacity:1;stroke:none;stroke-width:4;stroke-miterlimit:4;stroke-dasharray:none;stroke-opacity:1"
             d="m 1159.5487,760.78016 0.4629,77.40037 79.3118,-0.52531 v 0 c -26.6095,-46.4309 -53.1926,-62.27322 -79.7747,-76.87506 z"
             id="path9342"
             inkscape:connector-curvature="0"
             sodipodi:nodetypes="ccccc" />
          <path
             style="opacity:0.27;fill:#afe9af;fill-opacity:1;stroke:none;stroke-width:4;stroke-miterlimit:4;stroke-dasharray:none;stroke-opacity:1"
             d="m 1160.0116,838.18053 c -32.8098,-12.81943 -55.1692,-4.97031 -78.7346,0.52146 l 76.855,49.37655 2.1686,1.39313 z"
             id="path9344"
             inkscape:connector-curvature="0"
             sodipodi:nodetypes="ccccc" />
          <path
             style="opacity:0.27;fill:#afe9af;fill-opacity:1;stroke:none;stroke-width:4;stroke-miterlimit:4;stroke-dasharray:none;stroke-opacity:1"
             d="m 1160.0116,838.18053 0.289,51.29114 79.0228,-51.81645 c -25.686,-3.95671 -50.7488,-11.34117 -79.3118,0.52531 z"
             id="path9346"
             inkscape:connector-curvature="0"
             sodipodi:nodetypes="cccc" />
          <path
             style="fill:none;fill-rule:evenodd;stroke:#0b280b;stroke-width:5.69948;stroke-linecap:butt;stroke-linejoin:miter;stroke-opacity:1"
             d="m 1158.132,504.27194 2.1686,385.19973"
             id="path9348"
             inkscape:connector-curvature="0"
             sodipodi:nodetypes="cc" />
          <rect
             style="opacity:0.726;fill:#d7f4d7;fill-opacity:1;stroke:none;stroke-width:4;stroke-miterlimit:4;stroke-dasharray:none;stroke-opacity:1"
             id="rect9350"
             width="14.968219"
             height="180.07312"
             x="1298.401"
             y="295.07828"
             ry="9.2037373"
             transform="matrix(0.98769702,0.15637965,-0.11179315,0.9937315,0,0)" />
          <path
             style="opacity:0.726;fill:#d7f4d7;fill-opacity:1;stroke:none;stroke-width:4;stroke-miterlimit:4;stroke-dasharray:none;stroke-opacity:1"
             d="m 1268.0921,447.8071 a 5.3837658,5.1004096 0 0 0 -5.0711,3.40525 10.767532,16.789713 4.6052058 0 0 -3.1039,-0.99872 10.767532,16.789713 4.6052058 0 0 -12.0807,15.87105 10.767532,16.789713 4.6052058 0 0 9.3852,17.59962 10.767532,16.789713 4.6052058 0 0 12.0807,-15.87104 10.767532,16.789713 4.6052058 0 0 -1.2017,-9.80589 5.3837658,5.1004096 0 0 0 5.3748,-5.09975 5.3837658,5.1004096 0 0 0 -5.3833,-5.10052 z"
             id="path9352"
             inkscape:connector-curvature="0" />
          <path
             inkscape:connector-curvature="0"
             style="opacity:1;fill:none;fill-opacity:1;stroke:#0b280b;stroke-width:5.69948;stroke-miterlimit:4;stroke-dasharray:none;stroke-opacity:1"
             d="m 1158.132,255.86504 -130.8594,125.94714 54.0044,456.88981 76.855,49.37655 2.1686,1.39313 79.0228,-51.81645 51.3252,-457.58634 z"
             id="path9354" />
        </g>
      </g>
    </g>
  </g>
</svg>
