<?xml version="1.0" encoding="UTF-8" standalone="no"?>
<!-- Created with Inkscape (http://www.inkscape.org/) -->

<svg
   width="31.812372mm"
   height="30.29133mm"
   viewBox="0 0 31.812372 30.29133"
   version="1.1"
   id="svg2269"
   inkscape:version="1.1.2 (0a00cf5339, 2022-02-04)"
   sodipodi:docname="item364.svg"
   xmlns:inkscape="http://www.inkscape.org/namespaces/inkscape"
   xmlns:sodipodi="http://sodipodi.sourceforge.net/DTD/sodipodi-0.dtd"
   xmlns="http://www.w3.org/2000/svg"
   xmlns:svg="http://www.w3.org/2000/svg">
  <sodipodi:namedview
     id="namedview2271"
     pagecolor="#ffffff"
     bordercolor="#666666"
     borderopacity="1.0"
     inkscape:pageshadow="2"
     inkscape:pageopacity="0.0"
     inkscape:pagecheckerboard="0"
     inkscape:document-units="mm"
     showgrid="false"
     fit-margin-top="0"
     fit-margin-left="0"
     fit-margin-right="0"
     fit-margin-bottom="0"
     inkscape:zoom="0.48996914"
     inkscape:cx="239.81102"
     inkscape:cy="397.98425"
     inkscape:window-width="1366"
     inkscape:window-height="719"
     inkscape:window-x="0"
     inkscape:window-y="25"
     inkscape:window-maximized="1"
     inkscape:current-layer="layer1" />
  <defs
     id="defs2266" />
  <g
     inkscape:label="Capa 1"
     inkscape:groupmode="layer"
     id="layer1"
     transform="translate(-37.553813,-43.174336)">
    <g
       id="g6889"
       transform="matrix(0.04642234,0,0,0.04642234,73.855098,31.728613)">
      <g
         id="g6325">
        <path
           sodipodi:nodetypes="ccccccccccc"
           inkscape:connector-curvature="0"
           id="path4273"
           d="M -214.68255,249.4055 -99.712766,404.26072 -139.77101,636.73616 -438.06354,895.311 -737.08992,639.06381 -778.95878,406.90762 -665.34285,249.4055 h 130.95093 l 94.11189,50.31643 94.37923,-50.31643 z"
           inkscape:transform-center-y="-40.952424"
           inkscape:transform-center-x="-5.5620813"
           style="opacity:1;fill:#37c837;fill-opacity:1;stroke:none;stroke-width:4;stroke-miterlimit:4;stroke-dasharray:none;stroke-opacity:1" />
        <path
           inkscape:connector-curvature="0"
           style="opacity:1;fill:#37c837;fill-opacity:1;stroke:none;stroke-width:4;stroke-miterlimit:4;stroke-dasharray:none;stroke-opacity:1"
           d="m -665.3427,249.40609 68.28449,99.73011 h 90.65565 l 65.1518,34.833 0.97134,-84.24764 -94.11216,-50.31547 z"
           id="path4240" />
        <path
           inkscape:connector-curvature="0"
           style="opacity:1;fill:#87de87;fill-opacity:1;stroke:none;stroke-width:4;stroke-miterlimit:4;stroke-dasharray:none;stroke-opacity:1"
           d="m -214.68222,249.40609 -70.39128,99.73011 79.5924,107.20295 v 10e-4 L -99.712847,404.26044 -214.68222,249.40565 Z"
           id="path4312" />
        <path
           inkscape:connector-curvature="0"
           style="opacity:1;fill:#5fd35f;fill-opacity:1;stroke:none;stroke-width:4;stroke-miterlimit:4;stroke-dasharray:none;stroke-opacity:1"
           d="m -345.90104,249.40609 -94.37838,50.31547 -0.97134,84.24764 65.33744,-34.833 h 90.83982 l 70.39128,-99.73011 z"
           id="path4307" />
        <path
           inkscape:connector-curvature="0"
           style="opacity:1;fill:#5fd35f;fill-opacity:1;stroke:none;stroke-width:4;stroke-miterlimit:4;stroke-dasharray:none;stroke-opacity:1"
           d="m -233.21252,617.27957 93.44157,19.45705 40.058103,-232.47574 -105.768253,52.07971 z"
           id="path4305" />
        <path
           inkscape:connector-curvature="0"
           style="opacity:1;fill:#37c837;fill-opacity:1;stroke:none;stroke-width:4;stroke-miterlimit:4;stroke-dasharray:none;stroke-opacity:1"
           d="m -439.71676,796.28694 1.65344,99.02354 298.29237,-258.57386 -93.44157,-19.45705 z"
           id="path4303" />
        <path
           inkscape:connector-curvature="0"
           style="opacity:1;fill:#2ca02c;fill-opacity:1;stroke:none;stroke-width:4;stroke-miterlimit:4;stroke-dasharray:none;stroke-opacity:1"
           d="m -646.72751,618.88984 -90.36211,20.17368 299.0263,256.24696 -1.65344,-99.02354 z"
           id="path4317" />
        <path
           inkscape:connector-curvature="0"
           style="opacity:1;fill:#37c837;fill-opacity:1;stroke:none;stroke-width:4;stroke-miterlimit:4;stroke-dasharray:none;stroke-opacity:1"
           d="m -778.95944,406.90725 41.86982,232.15627 90.36211,-20.17368 -28.98486,-160.71737 z"
           id="path4301" />
        <path
           inkscape:connector-curvature="0"
           style="opacity:1;fill:#87de87;fill-opacity:1;stroke:none;stroke-width:4;stroke-miterlimit:4;stroke-dasharray:none;stroke-opacity:1"
           d="m -665.3427,249.40609 -113.61674,157.50116 103.24707,51.26522 78.65416,-109.03627 z"
           id="path4299" />
        <path
           sodipodi:nodetypes="ccccccccccc"
           inkscape:connector-curvature="0"
           id="path4243"
           d="m -285.07297,349.13589 79.59187,107.20397 -27.73173,160.93929 -206.50348,179.00753 -207.01157,-177.39613 -28.98515,-160.71828 78.6546,-109.03638 h 90.65541 l 65.15226,34.83331 65.33734,-34.83331 z"
           inkscape:transform-center-y="-28.350754"
           inkscape:transform-center-x="-3.8505613"
           style="opacity:1;fill:#d7f4d7;fill-opacity:1;stroke:none;stroke-width:4;stroke-miterlimit:4;stroke-dasharray:none;stroke-opacity:1" />
        <path
           style="opacity:1;fill:#afe9af;fill-opacity:1;stroke:none;stroke-width:4;stroke-miterlimit:4;stroke-dasharray:none;stroke-opacity:1"
           inkscape:transform-center-x="-3.4742563"
           inkscape:transform-center-y="-25.580069"
           d="m -300.54941,371.97447 71.81346,96.72706 -25.02154,145.21089 -186.32216,161.51334 -186.78058,-160.05941 -26.15246,-145.01148 70.96778,-98.38039 81.79576,-1e-5 58.78502,31.4291 58.952,-31.42909 z"
           id="path4319"
           inkscape:connector-curvature="0"
           sodipodi:nodetypes="ccccccccccc" />
        <path
           sodipodi:nodetypes="cccccccc"
           inkscape:connector-curvature="0"
           style="opacity:0.13;fill:#37c837;fill-opacity:1;stroke:none;stroke-width:4;stroke-miterlimit:4;stroke-dasharray:none;stroke-opacity:1"
           d="m -568.15418,371.97529 c -1.64618,8.82389 -2.66803,17.71957 -3.0608,26.6464 -3.78175,126.76915 117.65983,235.8828 278.66693,250.37864 l -147.5316,126.42543 -186.78058,-160.05941 -26.15246,-145.01148 70.96778,-98.38039 z"
           id="path4336" />
        <ellipse
           style="opacity:1;fill:#d7f4d7;fill-opacity:1;stroke:none;stroke-width:4;stroke-miterlimit:4;stroke-dasharray:none;stroke-opacity:1"
           id="path4321"
           cx="-749.33911"
           cy="-361.52823"
           rx="30.523752"
           ry="29.99748"
           transform="rotate(-68.04076)" />
        <ellipse
           ry="22.629679"
           rx="26.31358"
           cy="-387.63931"
           cx="-718.81537"
           id="ellipse4323"
           style="opacity:1;fill:#d7f4d7;fill-opacity:1;stroke:none;stroke-width:4;stroke-miterlimit:4;stroke-dasharray:none;stroke-opacity:1"
           transform="rotate(-68.04076)" />
        <ellipse
           style="opacity:1;fill:#d7f4d7;fill-opacity:1;stroke:none;stroke-width:4;stroke-miterlimit:4;stroke-dasharray:none;stroke-opacity:1"
           id="ellipse4325"
           cx="-441.93069"
           cy="411.35385"
           rx="26.31358"
           ry="22.629679" />
        <ellipse
           ry="47.364441"
           rx="55.784786"
           cy="596.07513"
           cx="-306.15265"
           id="ellipse4327"
           style="opacity:1;fill:#d7f4d7;fill-opacity:1;stroke:none;stroke-width:4;stroke-miterlimit:4;stroke-dasharray:none;stroke-opacity:1" />
        <ellipse
           style="opacity:1;fill:#d7f4d7;fill-opacity:1;stroke:none;stroke-width:4;stroke-miterlimit:4;stroke-dasharray:none;stroke-opacity:1"
           id="ellipse4329"
           cx="-307.66302"
           cy="643.87299"
           rx="31.224194"
           ry="28.01367" />
        <path
           style="opacity:0.33;fill:#d7f4d7;fill-opacity:1;stroke:none;stroke-width:4;stroke-miterlimit:4;stroke-dasharray:none;stroke-opacity:1"
           d="m -645.55124,277.68782 -103.66667,143.70791 38.20375,211.82623 272.83903,233.80679 272.17071,-235.93052 36.55007,-212.11704 -104.90191,-141.29337 h -119.72697 l -86.11429,45.90864 -85.86904,-45.90864 z m 30.83248,44.05807 h 101.61936 l 73.03111,39.04393 73.23821,-39.04393 h 101.82646 L -175.78596,441.91347 -206.871,622.31686 -438.34843,822.97069 -670.39429,624.1219 -702.88637,443.96672 Z"
           id="path4366"
           inkscape:connector-curvature="0" />
        <path
           inkscape:connector-curvature="0"
           style="opacity:1;fill:none;fill-opacity:1;stroke:#0b280b;stroke-width:5.69948;stroke-miterlimit:4;stroke-dasharray:none;stroke-opacity:1"
           d="m -665.3427,249.40609 -113.61674,157.50116 41.86982,232.15627 299.0263,256.24696 298.29237,-258.57386 40.058103,-232.47574 -114.969373,-154.85479 h -131.21882 l -94.37838,50.31547 -94.11216,-50.31547 z m 68.28449,99.73011 h 90.65565 l 65.1518,34.833 65.33744,-34.833 h 90.83982 l 79.5924,107.20295 -27.73142,160.94042 -206.50424,179.00737 -207.01075,-177.3971 -28.98486,-160.71737 z"
           id="path4361" />
      </g>
    </g>
  </g>
</svg>
