<svg width="413" height="570" xmlns="http://www.w3.org/2000/svg" xmlns:xlink="http://www.w3.org/1999/xlink">
 <defs>
  <linearGradient id="imagebot_33">
   <stop stop-color="rgb(0, 0, 0)" id="imagebot_45" offset="0"/>
   <stop stop-color="rgb(0, 0, 0)" id="imagebot_44" offset="1"/>
  </linearGradient>
  <radialGradient gradientTransform="matrix(1 0 0 1 75.5275 18.0396)" gradientUnits="userSpaceOnUse" r="38.55332" fy="345.81219" fx="225.49467" cy="345.81219" cx="225.49467" id="imagebot_28" xlink:href="#imagebot_33"/>
 </defs>
 <title/>
 <g id="imagebot_2">
  <g transform="matrix(1 0 0 1 -182.749 -209.46)" fill-rule="evenodd" fill="#37abc8" id="imagebot_11">
   <path d="M221.21,416.86L217.4601,426.1303C241.9221,435.6754 262.7081,455.1333 273.8801,479.1693C285.0731,503.1953 286.6721,531.8543 278.0671,557.1863C272.0345,575.1073 261.0691,591.2793 250.4501,607.6323C239.7821,623.9613 229.2191,641.0723 224.2731,660.2863C220.8575,673.6583 220.4812,687.7143 222.9054,701.2143L222.9054,701.21431C225.3268,714.71531 230.5564,727.70031 238.3314,738.93631C246.1089,750.17131 256.3804,759.58331 268.0534,766.54031C279.7264,773.49871 292.8374,778.02331 306.2824,779.50431C292.8744,777.72181 279.9364,772.91311 268.5294,765.76231C257.1234,758.61031 247.2124,749.09331 239.8434,737.91431C232.4722,726.73731 227.6664,713.93631 225.6054,700.76031C223.5468,687.58331 224.2266,673.98931 227.7996,661.22931C232.9118,642.83031 243.6416,626.44631 254.5796,610.38731C265.5676,594.35131 277.0826,578.07431 283.9876,559.27231C283.9876,559.2723 283.98761,559.27229 283.98761,559.27229C293.71601,532.56529 292.79611,502.08829 281.29851,475.82229C269.77951,449.56629 247.89551,428.00429 221.20951,416.86029L221.21,416.86z" id="imagebot_21"/>
   <path d="M266.99,437.88L262.5718,446.851C279.6488,454.9599 294.1288,468.893 302.9268,485.824C311.7358,502.75 314.9058,522.762 311.6807,541.747C308.4387,561.321 298.4847,579.55 288.9947,597.862C279.4219,616.147 270.0527,635.516 268.2657,656.479L268.2657,656.47902C266.3467,679.71302 274.6247,703.43902 290.3327,720.30802C306.0457,737.17202 328.9437,746.91902 351.7297,746.65102C328.9447,746.32073 306.5747,735.98202 291.6637,719.10102C276.7477,702.22402 269.4147,678.95002 271.8437,656.82302L271.8437,656.82301C273.986,636.79201 283.6737,618.32501 293.5917,600.33301C303.5927,582.36801 314.2127,563.91501 318.4107,542.98401C322.419,522.59001 319.623,500.89001 310.4512,482.04301C301.2684,463.20201 285.8312,447.46101 266.9912,437.88001L266.99,437.88z" id="imagebot_20"/>
   <path d="M314.52,436.54L306.4732,442.477C321.6462,462.415 332.2692,485.916 337.7202,510.593C343.1626,535.271 343.4524,561.209 338.01527,586.008L338.01527,586.00801C334.98107,599.89501 330.19947,613.55301 326.45327,627.61701C322.68417,641.68001 320.00917,656.38301 321.31677,671.05901L321.31677,671.05902C323.06557,690.34502 332.01277,708.76502 345.90177,721.97102C359.79277,735.17402 378.49577,743.04202 397.44477,743.79402C378.52377,742.50892 360.24977,734.13362 347.02077,720.82602C333.78977,707.52102 325.65777,689.34302 324.50977,670.81402C323.61106,656.69402 326.65587,642.55202 330.70957,628.81502C334.78647,615.07802 339.95897,601.52702 343.50757,587.29402L343.50758,587.29401C349.83928,561.81901 350.34018,534.91401 345.38038,509.01701C340.42888,483.11901 330.00238,458.15001 314.52038,436.53901L314.52,436.54z" id="imagebot_19"/>
   <path d="M367.76,436.92L361.799,444.9491C375.792,455.0291 387.107,469.0151 394.068,484.9401C401.0343,500.8621 403.6729,518.7881 401.5425,536.1711C399.1363,556.3941 390.2605,575.6861 381.9695,595.1291C381.96949,595.1291 381.96949,595.12911 381.96949,595.12912C373.59999,614.55112 365.65349,635.07512 365.36549,656.60512C365.11119,679.77012 374.39029,702.73412 390.42749,719.10112C406.46949,735.46312 429.06549,745.02212 451.72649,745.22112C429.07849,744.41167 406.99949,734.26012 391.75149,717.83712C376.49849,701.41812 368.17349,678.83712 369.02449,656.69412C369.76469,636.06112 378.11959,616.42812 386.87149,597.30612C386.87149,597.30611 386.8715,597.30611 386.8715,597.3061C395.7026,578.2031 405.2415,558.6931 408.5445,537.1281C411.3286,518.5351 409.04691,499.1791 401.9337,481.6321C394.8152,464.0871 382.9197,448.4851 367.7597,436.9211L367.76,436.92z" id="imagebot_18"/>
   <path d="M421.58,430.61L417.7086,439.8302C431.6366,445.4446 443.6256,456.3042 450.6186,469.7632C457.628,483.2142 459.7061,499.3992 456.2462,514.3212C453.062,528.4272 444.9592,541.3432 436.2602,553.7712C427.5012,566.1702 417.8622,578.4752 411.1392,592.6472C403.5761,608.6682 400.2292,626.5682 401.4585,644.1282C402.6896,661.6872 408.4911,678.8332 418.0895,693.4532C427.6893,708.0722 441.0545,720.1152 456.4765,728.1192C471.8985,736.1223 489.3395,740.0652 506.5915,739.5062C489.3305,739.62975 472.1085,735.2473 457.0925,726.9672C442.0765,718.6873 429.2785,706.5172 420.2915,692.0462C411.3035,677.5762 406.1265,660.8062 405.3715,643.9032C404.61442,626.9992 408.2781,609.9482 415.8375,594.9372C422.5125,581.6162 432.2565,569.8892 441.4315,557.5152C441.4315,557.5152 441.4315,557.51519 441.43151,557.51519C450.66561,545.17019 459.46451,531.71419 463.57051,516.12019C467.85401,499.49619 466.04731,481.38519 458.45341,465.82119C450.84311,450.26519 437.60241,437.57219 421.58041,430.61119L421.58,430.61z" id="imagebot_17"/>
   <path d="M299.74,433.72L290.9692,428.9166C269.0402,470.3056 258.8262,517.5646 261.5922,563.9566L261.5922,563.95661C263.0395,588.00861 267.8191,611.45861 271.144,634.94561C274.4462,658.43161 276.339,682.34661 271.9983,705.56161C267.3923,730.27761 255.6403,753.74861 238.4323,772.35861C256.1553,754.23861 268.7033,730.95961 274.0893,705.98261C279.1325,682.52661 277.9475,658.16461 275.2465,634.42461L275.2465,634.42459C272.5681,610.68559 268.4529,587.18059 267.724,563.67659C266.2927,518.36659 277.5733,472.84559 299.741,433.71659L299.74,433.72z" id="imagebot_16"/>
   <path d="M541.28,448.06L535.1785,440.1371C518.0605,453.6761 504.4595,471.3111 495.3315,490.9151C486.1928,510.5131 481.4915,532.1601 482.1295,553.7061C482.87083,576.9511 489.2499,599.1881 494.8345,621.1271L494.8345,621.12712C500.3651,643.07112 505.2295,665.44812 502.89,687.67612C500.7687,708.12112 492.466,728.00112 479.281,743.98112C466.097,759.96112 448.051,772.01312 428.071,778.07412C448.201,772.53032 466.708,760.90512 480.515,745.02612C494.321,729.14612 503.367,709.08012 506.102,688.05212C509.0407,665.20712 504.7448,642.14712 499.6879,619.96212C494.6847,597.77212 488.9249,575.71812 488.8769,553.58812L488.8769,553.5881C488.7846,533.1531 493.8067,512.7811 502.8769,494.5461C511.9583,476.3161 525.1309,460.1391 541.2789,448.0601L541.28,448.06z" id="imagebot_15"/>
   <path d="M466.68,442.94L459.3811,436.1043C434.4011,463.5623 420.0891,500.0823 419.6361,536.8043C419.38875,560.4703 424.5253,583.3893 428.2358,606.1253L428.2358,606.12531C431.89,628.85831 434.1926,652.22131 428.37133,674.26831C424.40403,689.39831 416.42533,703.49531 405.70133,715.06831C394.97633,726.63931 381.45133,735.74631 366.43633,740.93531C381.59733,736.18831 395.49933,727.44131 406.71033,716.03131C417.92333,704.62231 426.50433,690.49231 431.05833,675.01631L431.05833,675.0163C437.64593,652.4973 436.10283,628.4543 433.00443,605.4213C429.96193,582.3893 425.51103,559.5653 426.48513,536.9843C427.92543,502.0203 442.64213,467.8233 466.68013,442.9413L466.68,442.94z" id="imagebot_14"/>
   <path d="M317.54,435.93L317.34562,445.9281C326.86422,445.9797 336.44462,448.5509 344.97162,453.0961C353.49062,457.6547 361.00562,464.2131 366.41462,472.1961C366.41462,472.19611 366.41463,472.19611 366.41463,472.19612C371.84303,480.16652 375.20403,489.62212 376.31283,499.33312L376.31283,499.33313C377.40873,509.04563 376.25933,519.06913 372.71353,528.17113C368.98713,537.86793 362.64153,546.61713 355.61053,554.82913C348.55713,563.02953 340.68453,570.76013 333.43653,579.24313C326.16793,587.71563 319.53853,597.10513 315.50053,607.77813C311.44043,618.47213 310.35553,630.60413 314.08723,641.57113C316.82103,649.43143 321.84943,656.21113 327.78723,661.74113C333.71463,667.27093 340.48023,671.66943 347.32923,675.69213C354.21183,679.74323 361.20523,683.48363 367.79423,687.79813C374.29833,692.06393 380.45123,696.92423 385.28123,702.93613L385.28123,702.93614C393.57143,713.23214 397.75523,726.88214 396.60723,740.17514C395.46183,753.46914 388.99013,766.32514 378.87423,775.21514C389.19323,766.56124 396.05523,753.77714 397.53823,740.26614C399.01813,726.75514 395.10133,712.66414 386.75223,701.78014C381.88103,695.44454 375.67523,690.27814 369.14123,685.79214C362.53533,681.24914 355.58423,677.31804 348.86423,673.15214C342.19093,669.00664 335.70723,664.58984 330.21823,659.20014C330.21823,659.20013 330.21823,659.20013 330.21822,659.20013C324.74082,653.81103 320.19322,647.41913 317.94422,640.28913C314.74372,630.39793 316.10162,619.32013 320.00042,609.52613C323.92362,599.70503 330.44642,591.00413 337.64642,582.92213C344.86652,574.84973 352.89542,567.32513 360.37842,559.03013C367.88392,550.74693 374.83042,541.52813 379.31642,530.83013C383.52742,520.66913 385.10422,509.49413 384.11192,498.54613L384.11192,498.54611C383.13253,487.59711 379.58052,476.82711 373.55492,467.47711L373.55492,467.4771C367.51012,458.139 359.12092,450.4191 349.44592,444.9671C339.77842,439.5023 328.78492,436.283 317.54192,435.9309L317.54,435.93z" id="imagebot_13"/>
   <path d="M533.72,443.08L533.52562,433.0819C522.28262,433.43399 511.28862,436.6533 501.62162,442.1181C491.94672,447.5694 483.55762,455.2901 477.51262,464.6281C477.51262,464.6281 477.51262,464.62811 477.51261,464.62812C471.48681,473.97882 467.93481,484.74812 466.95561,495.69712L466.95561,495.69714C465.96333,506.64514 467.54017,517.82014 471.75111,527.98114C476.23721,538.67914 483.18411,547.89814 490.68911,556.18114C498.17231,564.47614 506.20111,572.00014 513.42111,580.07314C520.62111,588.15514 527.14411,596.85614 531.06711,606.67714C534.96581,616.47134 536.32381,627.54914 533.12331,637.44014C530.87491,644.57024 526.32701,650.96214 520.84931,656.35114C515.36051,661.74114 508.87631,666.15794 502.20331,670.30314C495.48371,674.46904 488.53231,678.40014 481.92631,682.94314C481.92631,682.94314 481.9263,682.94315 481.92629,682.94315C475.39279,687.42945 469.18629,692.59595 464.31529,698.93115C464.31529,698.93116 464.31529,698.93116 464.31528,698.93116C455.96648,709.81416 452.04928,723.90516 453.52928,737.41716C455.01178,750.92816 461.87388,763.71216 472.19328,772.36616C462.07728,763.47576 455.60528,750.62016 454.46028,737.32616C453.31228,724.03316 457.49578,710.38216 465.78628,700.08716C470.61608,694.07486 476.76828,689.21416 483.27328,684.94916C489.86158,680.63496 496.85528,676.89456 503.73828,672.84316C510.58708,668.82006 517.35228,664.42156 523.28028,658.89216L523.28029,658.89215C529.21819,653.36225 534.24629,646.58315 536.98029,638.72215C540.71209,627.75515 539.62709,615.62315 535.56699,604.92915C531.52899,594.25615 524.89899,584.86715 517.63099,576.39415C510.38219,567.91165 502.50999,560.18115 495.45699,551.98015C488.42609,543.76835 482.07999,535.01915 478.35399,525.32215C474.80829,516.22055 473.65879,506.19715 474.75469,496.48415C475.86349,486.77295 479.22439,477.31815 484.65289,469.34715C490.06229,461.36415 497.57689,454.80515 506.09589,450.24715C514.62229,445.70195 524.20289,443.13075 533.72189,443.07915L533.72,443.08z" id="imagebot_12"/>
  </g>
  <path transform="matrix(1 0 0 1 -182.749 -209.46)" fill="#37abc8" d="M390.21,209.46C278.03,209.46 187.08,305.436 187.08,423.84C187.08,432.299 182.7487,456.131 191.7928,464.631C218.3178,489.562 258.8738,452.971 292.6528,452.792C325.6698,452.61682 358.2928,463.534 391.3088,463.316C424.3598,463.09762 456.9148,451.897 489.9648,451.477C522.5828,451.06268 561.6148,484.308 587.5168,460.6852C595.8444,453.0906 593.3095,432.2982 593.3095,423.8402C593.3095,305.4402 502.3795,209.4602 390.1995,209.4602L390.21,209.46z" id="imagebot_10"/>
  <title>imagebot_2</title>

  <metadata id="imagebot_32">image/svg+xmllogoabril 2011M Mlogolentesglassesverdeblancogrisnegrologo de un website</metadata>
  <path transform="matrix(1.29075 0 0 1.29075 -126.983 -292.912)" label="Capa 1" fill="rgb(255, 255, 255)" stroke="rgb(0, 0, 0)" stroke-width="5.7" stroke-miterlimit="4" stroke-opacity="0.61497" id="imagebot_29" d="M 240.90349964904783 363.85179037231444 C 240.90349964904783 383.57020037231445 224.91857964904784 399.55512037231443 205.20016964904787 399.55512037231443 C 185.48176964904786 399.55512037231443 169.49684964904785 383.57020037231445 169.49684964904785 363.85179037231444 C 169.49684964904785 344.13339037231447 185.48176964904786 328.1484703723145 205.20016964904787 328.1484703723145 C 224.91857964904784 328.1484703723145 240.90349964904783 344.13339037231447 240.90349964904783 363.85179037231444 z"/>
  <path transform="matrix(1.29075 0 0 1.29075 -126.983 -292.912)" label="Capa 1" fill="rgb(255, 255, 255)" stroke="url(#imagebot_28)" stroke-width="5.7" stroke-miterlimit="4" stroke-opacity="0.61497" d="M 336.7254963378906 363.85179037231444 C 336.7254963378906 383.57020037231445 320.7405763378906 399.55512037231443 301.02216633789067 399.55512037231443 C 281.30376633789064 399.55512037231443 265.3188463378906 383.57020037231445 265.3188463378906 363.85179037231444 C 265.3188463378906 344.13339037231447 281.30376633789064 328.1484703723145 301.02216633789067 328.1484703723145 C 320.7405763378906 328.1484703723145 336.7254963378906 344.13339037231447 336.7254963378906 363.85179037231444 z" id="imagebot_27"/>
  <path label="Capa 1" opacity="0.83857" fill="rgb(0, 0, 0)" transform="translate(-9.375 -6.25) matrix(1.30945 0 0 1.30945 -155.807 -216.905)" d="M244.28591,306.53854C244.28591,313.28431 238.48085,318.75284 231.31996,318.75284C224.15907,318.75284 218.35402,313.28431 218.35402,306.53854C218.35402,299.79277 224.15907,294.32425 231.31996,294.32425C238.48085,294.32425 244.28591,299.79277 244.28591,306.53854z" id="imagebot_26"/>
  <path label="Capa 1" opacity="0.83857" fill="rgb(0, 0, 0)" id="imagebot_25" d="M244.28591,306.53854C244.28591,313.28431 238.48085,318.75284 231.31996,318.75284C224.15907,318.75284 218.35402,313.28431 218.35402,306.53854C218.35402,299.79277 224.15907,294.32425 231.31996,294.32425C238.48085,294.32425 244.28591,299.79277 244.28591,306.53854z" transform="translate(-9.375 -7.8125) matrix(1.30945 0 0 1.30945 -31.6401 -216.905)"/>
 </g>
 <metadata>image/svg+xmlOpenclipartJellyfish2013-08-10T09:33:10Simple jelly fish with sleepy eyes.https://openclipart.org/detail/181731/jellyfish-by-uroesch-181731uroeschBlueJellyfishSea Creature</metadata>
</svg>