<?xml version="1.0" encoding="UTF-8"?>
<!DOCTYPE svg PUBLIC "-//W3C//DTD SVG 1.1//EN" "http://www.w3.org/Graphics/SVG/1.1/DTD/svg11.dtd">
<svg version="1.1" xmlns="http://www.w3.org/2000/svg" xmlns:xlink="http://www.w3.org/1999/xlink" x="0" y="0" width="899" height="934" viewBox="0, 0, 899, 934">
  <g id="Layer_1">
    <path d="M592.024,150.348 C606.911,147.266 628.586,158.02 637.52,158.785 C711.192,165.102 758.036,157.094 822.161,108.504 C800.254,191.781 701.622,223.34 661.27,222.051 C636.379,221.246 540.747,220.738 546.028,181.941 C548.411,164.48 570.149,154.867 592.024,150.348" fill="#B3B5C4"/>
    <path d="M585.813,119.289 C628,163.996 730.989,187.391 822.161,108.504 C800.254,191.781 701.622,223.34 661.282,222.051 C625.786,220.91 567.231,206.906 528.059,196.473 C480.969,183.93 460.606,149.953 483.114,114.898 C522.395,53.714 551.114,82.511 585.813,119.289 z" fill-opacity="0" stroke="#1A1919" stroke-width="7.087" stroke-linecap="round" stroke-linejoin="round"/>
    <path d="M567.512,95.464 C627.805,126.926 671.973,168.59 691.684,178.789 C740.044,203.812 755.786,230.859 767.504,278.797 C776.02,313.625 815.637,414.082 810.84,448.793 C802.61,508.316 783.563,419.891 736.676,431.281 C706.305,438.656 678.715,445.191 644.626,432.906 C594.629,414.879 346.075,250.305 334.176,198.797 C322.465,148.07 327.512,107.07 370.84,62.125 C405.672,62.125 493.872,57.042 567.512,95.464" fill="#B3B5C4"/>
    <path d="M539.176,156.293 C561.082,175.777 590.551,185.418 599.192,191.293 C622.129,206.883 637.95,225.043 657.95,252.531 C661.848,257.883 576.348,224.176 569.184,221.293 C523.497,202.926 514.192,153.801 506.801,114.523 C512.793,122.871 537.547,154.84 539.176,156.293" fill="#9499AA"/>
    <path d="M634.172,266.293 C659.196,263.801 705.149,259.168 724.184,278.797 C729.418,284.199 737.989,297.746 749.192,311.289 C756.762,320.441 771.11,324.801 779.176,323.793 C796.672,366.297 816.204,409.887 810.84,448.777 C805.071,490.625 788.332,451.039 770.918,440.551 C740.051,421.957 719.368,447.547 686.438,434.098 C628.286,410.355 568.09,332.758 631.692,293.797 C633.606,292.625 632.044,266.504 634.172,266.293" fill="#7B7F8E"/>
    <path d="M565.872,92.121 C626.165,123.582 671.973,168.59 691.684,178.789 C740.044,203.812 755.786,230.859 767.504,278.797 C776.02,313.625 815.637,414.082 810.84,448.793 C802.61,508.316 783.563,419.891 736.676,431.281 C706.305,438.656 678.715,445.191 644.626,432.906 C594.629,414.879 346.075,250.305 334.176,198.797 C322.465,148.07 327.512,107.07 370.84,62.125 C405.672,62.125 492.231,53.699 565.872,92.121 z" fill-opacity="0" stroke="#1A1919" stroke-width="7.087" stroke-linecap="round" stroke-linejoin="round"/>
    <path d="M235.45,546.297 C239.192,479.055 374.313,97.074 240.84,118.793 C207.114,124.281 177.481,177.145 144.184,198.797 C120.071,214.473 85.66,242.855 67.504,268.805 C44.172,302.145 34.133,363.637 40.852,392.121 C52.961,443.477 78.027,478.645 117.508,515.453 C137.997,534.559 175.559,564.715 180.84,592.133 C183.02,603.418 163.665,589.98 161.672,603.785 C139.348,605.258 139.172,612.137 114.184,602.129 C83.332,557.129 16.672,621.297 59.172,648.801 C55.832,615.457 84.184,605.465 94.176,632.121 C82.504,650.465 90.832,672.133 110.836,668.785 C100.84,652.129 113.547,644.137 115.84,638.785 C137.512,655.465 152.473,646.008 159.176,647.121 C174.192,649.617 199.028,656.57 218,630.902 C233.879,609.418 234.051,571.414 235.45,546.297" fill="#B3B5C4"/>
    <path d="M235.45,546.297 C238.051,499.633 272.571,422.168 230.911,382.945 C206.137,359.637 206.688,341.309 196.684,301.297 C169.184,313.801 112.622,321.117 96.684,331.293 C73.254,346.254 58.051,391.348 56.691,416.301 C54.895,449.266 92.922,492.535 117.508,515.453 C137.997,534.559 175.559,564.715 180.84,592.133 C183.02,603.418 163.665,589.98 161.672,603.785 C139.348,605.258 139.172,612.137 114.184,602.129 C83.332,557.129 16.672,621.297 59.172,648.801 C55.832,615.457 84.184,605.465 94.176,632.121 C82.504,650.465 90.832,672.133 110.836,668.785 C100.84,652.129 113.547,644.137 115.84,638.785 C137.512,655.465 152.473,646.008 159.176,647.121 C174.192,649.617 199.028,656.57 218,630.902 C233.879,609.418 234.051,571.414 235.45,546.297" fill="#7B7F8E"/>
    <path d="M204.29,605.137 C198.688,602.246 192.129,600.66 186.145,599.363 C182.024,598.469 173.524,595.449 169.293,596.98 C167.895,597.492 160.344,603.875 161.672,603.785 C139.348,605.258 139.172,612.137 114.184,602.129 C83.332,557.129 16.672,621.297 59.172,648.801 C55.832,615.457 84.184,605.465 94.176,632.121 C82.504,650.465 90.832,672.133 110.836,668.785 C100.84,652.129 113.547,644.137 115.84,638.785 C137.512,655.465 152.473,646.008 159.176,647.121 C179.458,650.492 227.551,651.781 216.684,618.781 C214.524,612.234 209.887,608.031 204.29,605.137" fill="#696D7A"/>
    <path d="M235.45,546.297 C239.192,479.055 374.313,97.074 240.84,118.793 C207.114,124.281 177.481,177.145 144.184,198.797 C120.071,214.473 85.66,242.855 67.504,268.805 C44.172,302.145 34.133,363.637 40.852,392.121 C52.961,443.477 78.027,478.645 117.508,515.453 C137.997,534.559 175.559,564.715 180.84,592.133 C183.02,603.418 170.012,597.117 161.672,603.785 C139.348,605.258 139.172,612.137 114.184,602.129 C83.332,557.129 16.672,621.297 59.172,648.801 C55.832,615.457 84.184,605.465 94.176,632.121 C82.504,650.465 90.832,672.133 110.836,668.785 C100.84,652.129 113.547,644.137 115.84,638.785 C137.512,655.465 152.473,646.008 159.176,647.121 C174.192,649.617 199.028,656.57 218,630.902 C233.879,609.418 234.051,571.414 235.45,546.297 z" fill-opacity="0" stroke="#1A1919" stroke-width="7.087" stroke-linecap="round" stroke-linejoin="round"/>
    <path d="M506.668,123.801 C505.247,110.254 502.676,77.976 489.172,63.785 C455.344,28.226 383.372,3.792 354.184,3.792 C286.536,3.792 244.825,70.289 210.84,128.789 C189.473,165.578 198.747,277.074 190.84,318.785 C176.051,396.777 170.903,401.605 179.184,451.301 C189.176,511.301 206.399,537.238 246.676,583.797 C274.993,616.543 358.168,616.879 397.817,626.543 C428.567,634.035 349.458,761.859 391.684,763.785 C446.672,766.297 464.184,772.117 502.512,758.797 C528.45,749.785 577.504,694.629 592.504,672.133 C608.485,648.16 623.559,629.098 641.227,606.922 C658.629,585.082 687.348,575.98 699.239,548.855 C714.094,514.965 697.426,482.148 702.297,447.895 C706.887,415.637 720.348,388.605 713.915,354.059 C699.426,276.313 664.965,255.051 626.676,231.285 C599.93,214.684 555.028,207.105 521.684,173.785 C512.051,164.16 498.301,133.516 479.184,111.297 C448.489,75.628 399.223,50.914 359.172,46.293" fill="#B3B5C4"/>
    <path d="M179.184,451.301 C182.75,472.734 191.559,529.563 213.665,541.57 C231.653,551.344 283.184,535.355 294.161,518.707 C305.266,501.867 305.317,448.762 301.02,428.277 C295.969,404.27 301.672,418.793 289.184,401.301 C295.028,450.453 242.629,457.496 213.348,442.125 C197.543,433.824 187.942,414.445 179.184,401.301 C177.438,433.695 173.879,419.453 179.184,451.301" fill="#7B7F8E"/>
    <path d="M494.184,768.797 C511.227,762.863 544.09,738.879 557.028,726.707 C571.282,713.301 575.852,700.488 585.832,683.785 C599.168,661.492 619.176,623.793 639.184,608.793 C639.254,610.816 593.325,647.063 590.965,649.852 C585.379,656.453 577.504,667.129 559.184,677.117 C559.184,665.465 564.965,651.867 565.852,640.473 C547.508,627.137 524.387,653.035 505.856,660.457 C466.778,676.105 408.145,724.832 407.512,772.117 C439.172,785.457 487.715,771.043 494.184,768.797" fill="#84889B"/>
    <g>
      <path d="M506.668,123.801 C505.247,110.254 502.676,77.976 489.172,63.785 C455.344,28.226 383.372,3.792 354.184,3.792 C286.536,3.792 244.825,70.289 210.84,128.789 C189.473,165.578 198.747,277.074 190.84,318.785 C176.051,396.777 170.903,401.605 179.184,451.301 C189.176,511.301 206.399,537.238 246.676,583.797 C274.993,616.543 358.168,616.879 397.817,626.543 C428.567,634.035 357.59,766.238 399.184,773.797 C435.848,780.465 472.512,780.449 510.84,760.461 C549.641,740.23 567.512,707.965 582.512,685.465 C636.411,604.605 729.458,437.492 713.915,354.059 C699.426,276.313 664.965,255.051 626.676,231.285 C599.93,214.684 555.028,207.105 521.684,173.785 C512.051,164.16 498.301,133.516 479.184,111.297 C448.489,75.628 399.223,50.914 359.172,46.293" fill-opacity="0" stroke="#1A1919" stroke-width="7.087" stroke-linecap="round" stroke-linejoin="round"/>
      <path d="M222.504,533.797 C199.137,545.277 186.192,575.895 170.012,598.797 C145.512,633.48 132.333,663.504 129.184,696.293 C125.708,732.418 143.176,772.352 120.852,799.629 C105.852,817.949 108.497,839.109 69.168,852.117 C49.16,843.785 19.184,844.637 9.172,857.129 C1.711,866.426 -0.824,903.785 17.52,918.785 C19.184,893.793 31.871,874.48 60.004,877.961 C55.004,901.309 57.512,912.949 72.512,922.957 C70.012,908.793 75.02,900.441 83.352,887.957 C90.832,890.465 99.184,895.457 109.172,893.793 C105.852,915.457 109.176,925.453 124.172,930.457 C127.504,915.457 127.497,905.465 134.168,893.793 C141.668,897.965 152.512,893.793 160.84,888.785 C158.348,899.629 160.84,922.957 172.512,927.133 C174.559,907.781 174.895,893.859 185.02,887.957 C191.461,884.199 200.868,884.633 207.516,885.461 C227.504,889.617 234.192,899.613 238.348,923.785 C266.684,883.781 242.52,882.949 227.504,867.117 C226.688,853.824 223.704,813.035 225.84,798.793 C231.504,761.086 247.551,716.355 279.739,692.988 C295.356,681.648 307.833,681.668 317.805,662.91 C328.356,643.055 326.672,617.832 326.672,596.121 C326.672,570.613 336.098,531.879 308.364,516.516 C283.876,502.945 244.188,523.137 222.504,533.797" fill="#B3B5C4"/>
      <path d="M216.7,848.793 C222.961,863.793 187.508,872.918 170.45,873.785 C154.973,874.566 139.196,885.035 124.196,878.793 C104.098,870.426 71.824,865.984 50.02,863.797 C37.512,862.535 22.219,840.828 9.168,857.129 C1.711,866.434 -0.816,903.785 17.52,918.785 C19.184,893.793 31.871,874.48 60.004,877.961 C55.004,901.309 57.512,912.949 72.512,922.957 C70.012,908.793 75.02,900.441 83.352,887.957 C90.832,890.465 99.184,895.457 109.172,893.793 C105.852,915.457 109.176,925.453 124.172,930.457 C127.504,915.457 127.497,905.465 134.168,893.793 C141.668,897.965 152.512,893.793 160.84,888.785 C158.348,899.629 160.84,922.957 172.512,927.133 C174.559,907.781 174.895,893.859 185.02,887.957 C191.461,884.199 200.868,884.633 207.516,885.461 C227.504,889.617 234.192,899.613 238.348,923.785 C237.036,916.168 252.922,904.293 251.418,893.328 C250.395,885.809 245.536,881.973 240.012,877.395 C222.336,862.754 222.946,858.785 216.7,848.793" fill="#9499AA"/>
    </g>
    <path d="M219.184,865.047 C214.176,885.035 234.809,903.16 238.34,923.762 C236.348,912.168 255.918,902.078 248.176,884.902 C242.825,873.035 231.418,863.773 219.184,865.047" fill="#7B7F8E"/>
    <g>
      <path d="M176.684,870.461 C157.934,864.215 149.758,918.992 172.512,927.133 C173.106,921.519 188.352,875.465 176.684,870.461" fill="#7B7F8E"/>
      <path d="M126.676,872.129 C112.129,871.23 107.961,892.445 108.059,904.449 C108.114,910.348 123.231,934.523 124.176,930.453 C128.262,912.82 136.672,878.367 126.676,872.129" fill="#7B7F8E"/>
      <path d="M78.355,895.457 C81.176,883.98 85.383,868.191 81.684,865.047 C66.684,860.047 59.066,877.769 58.02,889.629 C56.441,907.559 70.371,910.816 72.508,922.941 C72.023,920.184 74.836,909.793 78.355,895.457" fill="#7B7F8E"/>
      <path d="M29.184,850.047 C28.363,847.898 16.895,851.355 13.113,852.664 C-7.645,859.852 5.676,909.098 17.516,918.781 C12.551,914.723 35.426,866.285 29.184,850.047" fill="#7B7F8E"/>
    </g>
    <path d="M231.692,606.297 C246.688,628.797 252.34,661.664 246.688,683.785 C239.223,712.977 215.989,734.289 207.504,745.465 C194.626,762.41 192.083,794.211 194.192,816.285 C195.723,832.324 201.348,862.141 221.692,885.035 C232.989,875.098 223.762,812.668 225.84,798.793 C231.504,761.086 247.551,716.355 279.739,692.988 C292.559,683.68 348.77,644.293 294.184,636.297 C284.54,634.887 251.692,621.297 231.692,606.297" fill="#84889B"/>
    <g>
      <path d="M314.172,513.793 C290.512,506.508 250.602,519.984 222.504,533.797 C199.137,545.277 185.356,573.387 169.172,596.285 C144.668,630.965 132.333,653.508 129.184,686.297 C125.708,722.426 136.684,768.797 120.852,799.629 C110.032,820.691 110.176,839.109 70.848,852.117 C39.172,842.957 19.184,843.809 9.172,856.297 C1.711,865.594 -0.824,903.785 17.52,918.785 C15.84,888.809 31.871,874.48 60.004,877.961 C55.004,901.309 57.512,912.949 72.512,922.957 C70.012,908.793 75.02,900.441 83.352,887.957 C90.832,890.465 99.184,895.457 109.172,893.793 C105.852,915.457 109.176,925.453 124.172,930.457 C127.504,915.457 127.497,905.465 134.168,893.793 C141.668,897.965 152.512,893.793 160.84,888.785 C158.348,899.629 160.84,922.957 172.512,927.133 C174.559,907.781 174.895,893.859 185.02,887.957 C191.461,884.199 200.868,884.633 207.516,885.461 C227.504,889.617 234.192,899.613 238.348,923.785 C266.684,883.781 242.973,875.871 227.95,860.043 C227.129,846.746 223.704,813.035 225.84,798.793 C233.899,745.098 261.75,691.598 313.168,674.645" fill-opacity="0" stroke="#1A1919" stroke-width="7.087" stroke-linecap="round" stroke-linejoin="round"/>
      <path d="M730.836,572.129 C730.836,575.941 732.934,581.918 735.84,608.793 C739.7,644.395 732.024,693.793 724.172,727.121 C712.493,740.441 686.829,753.746 679.172,762.129 C664.852,777.793 664.172,805.457 685.418,813.785 C687.926,797.535 683.754,790.051 695.832,780.465 C705.829,773.797 710.832,780.449 724.172,785.457 C720.829,798.777 719.59,818.797 735.84,828.785 C735.84,812.551 741.254,795.043 747.504,788.797 C755.852,790.461 764.184,792.129 770.848,792.129 C770.848,810.871 774.184,818.777 786.688,825.035 C787.922,811.297 786.676,811.723 794.176,795.465 C801.676,795.891 807.09,792.977 817.508,788.797 C823.766,806.293 821.692,811.297 834.176,821.285 C835.434,806.293 839.172,802.137 837.512,780.465 C849.168,773.797 857.52,778.379 862.504,782.129 C873.754,790.887 874.176,798.793 872.512,818.797 C889.176,810.465 890.84,793.785 885.832,778.785 C881.372,767.066 875.84,760.461 855.832,748.785 C847.911,717.961 855.372,688.824 860.84,663.797 C867.379,633.887 876.817,601.074 884.172,562.133 C893.325,513.676 906.645,446.957 875.84,407.121 C847.766,370.813 804.274,375.824 760.832,388.793 C740.969,394.727 695.618,386.238 683.059,405.949 C668.637,428.586 704.809,459.457 706.661,481.305 C708.977,508.48 682.653,542.766 664.895,561.816 C622.985,606.766 706.668,587.223 730.836,572.129" fill="#B3B5C4"/>
    </g>
    <path d="M700.442,767.535 C688.157,765.645 676.77,761.574 671.79,773.863 C668.684,781.535 667.571,790.84 670.606,798.734 C671.551,801.191 685.149,815.519 685.418,813.785 C687.926,797.535 683.754,790.051 695.832,780.465 C705.829,773.797 710.832,780.449 724.172,785.457 C720.829,798.777 719.59,818.797 735.84,828.785 C735.84,812.551 741.254,795.043 747.504,788.797 C755.852,790.461 764.184,792.129 770.848,792.129 C770.848,810.871 775.434,820.035 787.942,826.297 C789.184,812.559 786.676,811.723 794.176,795.465 C801.676,795.891 807.09,792.977 817.508,788.797 C826.254,813.238 822.934,808.785 831.684,821.285 C836.692,807.547 839.172,802.137 837.512,780.465 C849.168,773.797 857.52,778.379 862.504,782.129 C873.754,790.887 874.176,798.793 872.512,818.797 C889.747,810.18 893.137,786.519 882.106,771.398 C871.208,756.457 853.465,762.098 839.524,769.769 C823.325,778.68 804.934,780.477 786.688,781.297 C760.872,782.457 752.739,786.063 729.184,775.035 C722.336,771.828 709.044,768.859 700.442,767.535" fill="#9499AA"/>
    <path d="M857.528,751.285 C850.032,762.957 858.376,766.277 870.864,783.793 C875.106,794.25 872.922,813.887 872.516,818.781 C873.09,811.867 888.098,803.309 888.215,790.191 C888.29,782.105 881.711,764.867 873.356,761.297 C867.442,758.769 858.997,748.996 857.528,751.285" fill="#7B7F8E"/>
    <path d="M820.032,764.617 C814.997,766.754 819.184,807.547 832.942,820.035 C845.442,801.285 836.692,757.547 820.032,764.617" fill="#7B7F8E"/>
    <path d="M781.684,766.297 C764.622,769.148 770.016,814.637 786.688,826.297 C785.434,816.285 797.938,771.285 781.684,766.297" fill="#7B7F8E"/>
    <path d="M740.028,765.453 C725.864,763.785 714.395,815.605 735.84,828.785 C736.516,829.203 758.368,768.523 740.028,765.453" fill="#7B7F8E"/>
    <path d="M690.02,755.457 C683.04,755.262 671.528,771.922 669.848,779.98 C666.817,794.539 676.692,808.785 682.528,812.957 C687.512,807.121 691.668,779.637 695.012,769.629 C698.356,759.617 693.129,755.543 690.02,755.457" fill="#7B7F8E"/>
    <path d="M808.938,505.844 C814.239,502.348 800.989,526.898 805.852,523.785 C847.504,497.133 873.411,521.855 859.192,553.785 C854.278,564.801 846.684,593.797 834.176,606.297 C830.239,610.242 871.809,591.402 874.176,601.293 C877.582,615.492 861.008,650.574 861.672,656.301 C846.672,666.297 829.43,658.145 819.184,673.797 C814.274,681.281 806.958,689.109 799.192,696.293 C788.161,706.504 771.254,710.973 764.192,721.285 C737.504,723.016 769.168,718.793 726.684,731.297 C733.352,706.285 744.172,613.797 734.294,582.23 C712.063,575.332 704.27,602.457 677.547,590.176 C680.618,569.519 707.508,550.461 715.84,513.793 C734.184,510.465 747.45,518.707 745.836,542.129 C759.387,527.488 759.223,529.984 775.832,520.461 C787.012,514.055 797.231,513.566 808.938,505.844" fill="#84889B"/>
    <path d="M649.172,588.785 C695.012,597.117 716.684,582.117 730.836,572.129 C730.836,575.941 732.934,581.918 735.84,608.793 C739.7,644.395 732.024,693.793 724.172,727.121 C712.493,740.441 686.829,753.746 679.172,762.129 C664.852,777.793 664.172,805.457 685.418,813.785 C687.926,797.535 683.754,790.051 695.832,780.465 C705.829,773.797 710.832,780.449 724.172,785.457 C720.829,798.777 721.684,813.793 737.942,823.785 C737.942,810.043 741.254,795.043 747.504,788.797 C755.852,790.461 764.184,792.129 770.848,792.129 C770.848,810.871 774.184,819.203 786.688,825.465 C788.352,805.457 790.438,806.293 794.176,795.465 C801.676,795.891 807.09,792.977 817.508,788.797 C819.184,810.043 825.442,817.559 835.434,822.547 C835.434,808.785 834.614,805.867 837.946,783.793 C849.602,777.129 857.52,778.379 862.504,782.129 C873.754,790.887 874.176,798.793 872.512,818.797 C889.176,810.465 890.84,793.785 885.832,778.785 C881.372,767.066 875.84,760.461 855.832,748.785 C847.911,717.961 855.372,688.824 860.84,663.797 C867.379,633.887 876.817,601.074 884.172,562.133 C893.325,513.676 906.645,446.957 875.84,407.121 C847.766,370.813 804.274,375.824 760.836,388.793 C738.481,395.469 692.376,399.094 670.84,403.793" fill-opacity="0" stroke="#1A1919" stroke-width="7.087" stroke-linecap="round" stroke-linejoin="round"/>
    <path d="M714.196,508.785 C715.305,487.301 721.305,426.437 691.676,423.801 C660.852,467.133 672.504,502.137 660.852,518.801 C653.176,529.773 638.801,545.156 631.684,556.297 C624.629,567.332 618.411,582.066 609.184,592.133 C594.544,608.105 587.497,635.465 586.317,651.141 C603.157,640.418 615.832,621.063 634.172,610.047 C676.536,584.355 711.458,562.059 714.196,508.785" fill="#B3B5C4"/>
    <path d="M675.848,490.461 C691.063,475.254 700.84,463.789 700.84,445.465 C679.172,477.129 640.825,487.137 629.172,503.801 C621.497,514.773 601.282,515.988 594.168,527.129 C587.118,538.16 586.047,551.168 580.848,563.797 C569.172,592.133 565.852,660.457 555.836,680.461 C574.184,668.785 582.934,661.941 587.497,650.465 C591.75,639.754 610.676,628.25 612.512,617.121 C594.168,607.129 600.247,569.344 604.176,562.133 C624.184,525.465 644.172,522.125 675.848,490.461" fill="#9499AA"/>
    <path d="M590.418,651.297 C589.622,647.832 615.422,621.297 634.172,610.047 C676.536,584.355 711.458,562.059 714.196,508.785 C715.473,483.992 712.817,477.437 707.508,458.801 C700.918,435.687 708.067,424.059 710.832,392.121" fill-opacity="0" stroke="#1A1919" stroke-width="7.087" stroke-linecap="round" stroke-linejoin="round"/>
    <path d="M281.684,558.785 C271.688,518.801 306.672,498.793 336.672,461.297 C359.504,432.758 430.012,372.137 444.176,311.289" fill="#B3B5C4"/>
    <path d="M281.684,558.785 C271.688,518.801 306.672,498.793 336.672,461.297 C359.504,432.758 430.012,372.137 444.176,311.289 M299.172,503.801 C310.969,471.789 293.372,393.316 274.184,371.301 M430.864,745.461 C453.833,756.66 502.958,747.531 535.832,718.793 M436.7,723.797 C446.711,728.078 490.836,723.797 505.833,710.457" fill-opacity="0" stroke="#1A1919" stroke-width="7.087" stroke-linecap="round" stroke-linejoin="round"/>
    <path d="M591.672,533.797 C584.473,546.316 576.204,636.816 548.157,612.68 C532.832,599.5 548.301,559.918 553.723,545.082 C560.942,525.344 579.536,511.285 594.536,497.648 C608.254,485.168 617.512,471.273 626.614,455.09 C633.918,442.105 642.141,432.246 644.172,416.754 C646.262,400.855 643.325,383.93 644.09,367.914 C644.836,352.328 644.864,330.602 653.899,317.375 C678.528,281.293 700.223,348.027 705.383,365.609 C713.86,394.473 714.082,426.027 697.512,452.141 C680.958,478.223 609.168,503.379 591.672,533.797" fill="#B3B5C4"/>
    <path d="M730.84,575.461 C731.278,573.988 730.684,572.277 731.098,570.711 C759.055,566.355 801.399,523.184 815.84,498.793 M716.684,582.117 C743.352,562.137 752.356,527.414 755.852,513.793" fill-opacity="0" stroke="#1A1919" stroke-width="7.087" stroke-linecap="round" stroke-linejoin="round"/>
    <path d="M621.114,429.848 C617.594,443.926 603.446,449.258 586.708,470.031 C578.098,480.715 565.446,502.543 560.442,531.285 C547.95,516.285 551.278,478.316 555.016,463.793 C558.168,451.551 580.45,435.855 588.356,423.801 C599.504,406.797 599.09,387.066 591.918,356.426 C626.676,371.301 627.95,402.535 621.114,429.848" fill="#9499AA"/>
    <path d="M711.692,738.797 C735.446,722.543 796.672,713.809 826.672,728.801 M214.172,598.797 C228.793,604.035 268.254,634.148 269.176,651.297" fill-opacity="0" stroke="#1A1919" stroke-width="7.087" stroke-linecap="round" stroke-linejoin="round"/>
    <path d="M485.872,678.777 C500.872,665.449 510.098,663.273 525.864,648.781 C540.739,635.105 557.52,643.797 566.684,631.285 C576.544,610.32 557.684,582.055 536.684,558.785 C515.11,534.898 490.848,516.285 459.172,516.285 C449.915,516.285 434.075,520.801 419.168,526.297 C393.551,535.738 366.176,548.148 346.684,541.297 C332.7,535.199 326.254,507.551 295.422,510.043 C285.004,523.805 281.442,528.82 275.422,542.551 C270.918,552.816 266.02,596.855 264.192,602.527 C266.7,632.547 279.622,667.129 262.958,698.785 C247.961,722.117 240.458,718.809 225.461,753.793 C217.52,772.313 219.524,798.418 222.946,806.285 C228.567,819.207 238.168,829.066 247.958,835.031 C259.954,842.34 280.126,848.055 285.836,848.797 C324.575,853.797 360.45,843.809 381.692,811.297 C391.887,795.687 419.184,738.797 441.684,716.297 C449.676,708.301 473.864,689.457 485.872,678.777" fill="#B3B5C4"/>
    <path d="M286.692,648.781 C283.247,634.918 280.872,640.047 274.2,625.047 C270.266,616.184 267.106,577.176 266.692,580.457 C262.958,610.027 267.844,633.238 269.2,647.547 C270.411,660.336 270.172,684.269 262.958,696.293 C274.809,689.551 286.282,667.953 286.692,648.781" fill="#9499AA"/>
    <path d="M436.7,725.031 C407.958,766.277 374.188,795.465 354.2,808.785 C332.192,823.457 310.356,826.297 292.95,826.297 C262.958,826.297 225.461,812.531 222.946,770.027 C216.7,811.297 233.547,830.019 247.958,838.781 C259.958,846.082 280.129,848.055 285.852,848.797 C310.176,851.937 344.84,840.871 366.692,828.785 C368.961,827.527 410.45,790.035 436.7,725.031" fill="#8D909D"/>
    <path d="M421.7,702.535 C436.7,693.797 444.856,684.98 451.7,671.281 C457.942,658.777 462.336,644.941 460.45,627.535 C459.606,619.734 465.2,601.777 456.7,591.277 C450.868,602.957 443.372,604.617 434.208,611.285 C442.711,629.789 438.059,628.269 433.059,640.184 C424.192,661.285 401.27,680.059 382.946,685.043 C367.118,700.887 348.543,740.348 349.2,776.293 C349.161,774.512 382.95,721.082 387.95,716.297 C397.317,707.352 409.997,709.355 421.7,702.535" fill="#9499AA"/>
    <path d="M317.629,780.414 C318.012,807.324 295.442,815.184 286.778,801.727 C285.442,793.816 307.938,795.066 317.629,780.414" fill="#7E818E"/>
    <path d="M317.629,780.414 C318.012,807.324 295.442,815.184 286.778,801.727 C285.442,793.816 307.938,795.066 317.629,780.414 z" fill-opacity="0" stroke="#1A1919" stroke-width="7.087" stroke-linecap="round" stroke-linejoin="round"/>
    <path d="M405.872,673.785 C412.512,667.121 416.711,669.199 422.958,657.527 C439.211,672.527 412.961,693.773 405.872,673.785" fill="#1A1919"/>
    <path d="M252.942,715.035 C262.391,705.934 284.2,670.043 289.184,640.473 M509.2,538.781 C497.532,525.449 483.301,512.328 459.172,516.285 C450.036,517.785 434.075,520.801 419.168,526.297 C393.551,535.738 366.176,543.145 346.684,536.293 C332.7,530.195 326.692,503.801 295.422,510.043 C285.004,523.805 281.442,528.82 275.422,542.551 C270.918,552.816 264.629,581.711 262.958,605.043 C266.282,633.379 277.106,672.129 260.442,703.785 C245.446,727.117 231.7,733.785 222.946,753.793 C214.864,772.25 220.774,802.168 224.2,810.035 C229.821,822.957 241.918,831.582 251.708,837.547 C263.704,844.852 285.985,848.055 291.696,848.793 C330.434,853.797 374.192,825.035 390.446,802.535 C396.829,793.707 414.118,772.301 424.192,750.449 C431.372,734.902 448.184,711.48 457.536,702.129 C465.528,694.129 477.543,685.449 490.864,677.117 C503.887,668.969 542.52,657.113 539.2,610.453 M439.192,590.449 C427.536,607.129 434.606,616.145 435.872,628.797 C437.532,645.457 405.059,679.203 374.192,687.535 M674.168,302.129 C714.176,362.121 721.582,414.195 697.512,452.133 C680.965,478.223 609.168,503.375 591.672,533.797 C560.208,588.508 577.504,682.129 527.504,695.461 M75.02,862.129 C63.496,865.269 60.723,876.863 58.352,887.129 M126.688,870.457 C116.325,871.512 110.711,886.309 108.352,895.457 M170.02,872.129 C163.997,878.519 162.297,888.836 160.02,897.117 M731.688,768.793 C727.09,773.902 722.59,782.402 723.352,790.457 M779.188,767.535 C772.868,778.664 770.434,792.547 771.692,798.793 M822.934,765.047 C814.172,775.035 819.184,793.785 819.184,801.285 M92.938,633.793 C95.637,626.512 105.926,613.797 115.434,616.293" fill-opacity="0" stroke="#1A1919" stroke-width="7.087" stroke-linecap="round" stroke-linejoin="round"/>
  </g>
</svg>
