<?xml version="1.0" encoding="UTF-8"?>
<!DOCTYPE svg PUBLIC "-//W3C//DTD SVG 1.1//EN" "http://www.w3.org/Graphics/SVG/1.1/DTD/svg11.dtd">
<svg version="1.1" xmlns="http://www.w3.org/2000/svg" xmlns:xlink="http://www.w3.org/1999/xlink" x="0" y="0" width="335" height="478" viewBox="0, 0, 335, 478">
  <defs>
    <radialGradient id="Gradient_1" gradientUnits="userSpaceOnUse" cx="157.748" cy="290.012" r="220">
      <stop offset="0" stop-color="#ED6238"/>
      <stop offset="1" stop-color="#B41F23"/>
    </radialGradient>
    <clipPath id="Clip_1">
      <path d="M18.976,153.273 L104.786,153.273 L104.786,354.148 L18.976,354.148 z"/>
    </clipPath>
    <clipPath id="Clip_2">
      <path d="M120.008,93.566 C144.152,92.914 168.095,96.391 191.724,100.988 C281.281,119.261 348.665,159.645 330.392,249.203 C312.119,338.761 204.913,493.549 115.354,475.277 C25.796,457.003 -12.199,272.588 6.074,183.03 C12.078,151.875 28.859,123.221 57.404,108.021 C76.943,97.617 98.215,94.901 120.008,93.566 z"/>
    </clipPath>
    <radialGradient id="Gradient_2" gradientUnits="userSpaceOnUse" cx="45.474" cy="327.727" r="12.395">
      <stop offset="0" stop-color="#ED6238"/>
      <stop offset="1" stop-color="#B41F23"/>
    </radialGradient>
    <linearGradient id="Gradient_3" gradientUnits="userSpaceOnUse" x1="42.849" y1="313.882" x2="47.88" y2="340.409">
      <stop offset="0" stop-color="#EFEA3A"/>
      <stop offset="1" stop-color="#FF971F"/>
    </linearGradient>
    <radialGradient id="Gradient_4" gradientUnits="userSpaceOnUse" cx="96.707" cy="226.528" r="35.75">
      <stop offset="0" stop-color="#ED6238"/>
      <stop offset="1" stop-color="#B41F23"/>
    </radialGradient>
    <linearGradient id="Gradient_5" gradientUnits="userSpaceOnUse" x1="102.912" y1="195.644" x2="97.514" y2="222.099">
      <stop offset="0" stop-color="#EFEA3A"/>
      <stop offset="1" stop-color="#FF971F"/>
    </linearGradient>
    <linearGradient id="Gradient_6" gradientUnits="userSpaceOnUse" x1="184.4" y1="185.416" x2="176.84" y2="222.465">
      <stop offset="0" stop-color="#E72F28"/>
      <stop offset="1" stop-color="#961F23"/>
    </linearGradient>
    <linearGradient id="Gradient_7" gradientUnits="userSpaceOnUse" x1="183.138" y1="191.601" x2="177.741" y2="218.056">
      <stop offset="0" stop-color="#EFEA3A"/>
      <stop offset="1" stop-color="#FF971F"/>
    </linearGradient>
    <linearGradient id="Gradient_8" gradientUnits="userSpaceOnUse" x1="240.589" y1="210.148" x2="233.03" y2="247.198">
      <stop offset="0" stop-color="#E72F28"/>
      <stop offset="1" stop-color="#961F23"/>
    </linearGradient>
    <linearGradient id="Gradient_9" gradientUnits="userSpaceOnUse" x1="239.328" y1="216.334" x2="233.93" y2="242.788">
      <stop offset="0" stop-color="#EFEA3A"/>
      <stop offset="1" stop-color="#FF971F"/>
    </linearGradient>
    <linearGradient id="Gradient_10" gradientUnits="userSpaceOnUse" x1="278.608" y1="282.446" x2="267.963" y2="318.728">
      <stop offset="0" stop-color="#E72F28"/>
      <stop offset="1" stop-color="#961F23"/>
    </linearGradient>
    <linearGradient id="Gradient_11" gradientUnits="userSpaceOnUse" x1="276.832" y1="288.503" x2="269.231" y2="314.411">
      <stop offset="0" stop-color="#EFEA3A"/>
      <stop offset="1" stop-color="#FF971F"/>
    </linearGradient>
    <linearGradient id="Gradient_12" gradientUnits="userSpaceOnUse" x1="170.083" y1="338.129" x2="162.523" y2="375.179">
      <stop offset="0" stop-color="#E72F28"/>
      <stop offset="1" stop-color="#961F23"/>
    </linearGradient>
    <linearGradient id="Gradient_13" gradientUnits="userSpaceOnUse" x1="168.82" y1="344.315" x2="163.422" y2="370.769">
      <stop offset="0" stop-color="#EFEA3A"/>
      <stop offset="1" stop-color="#FF971F"/>
    </linearGradient>
    <linearGradient id="Gradient_14" gradientUnits="userSpaceOnUse" x1="293.65" y1="192.758" x2="290.366" y2="230.428">
      <stop offset="0" stop-color="#E72F28"/>
      <stop offset="1" stop-color="#961F23"/>
    </linearGradient>
    <linearGradient id="Gradient_15" gradientUnits="userSpaceOnUse" x1="293.101" y1="199.047" x2="290.756" y2="225.945">
      <stop offset="0" stop-color="#EFEA3A"/>
      <stop offset="1" stop-color="#FF971F"/>
    </linearGradient>
    <radialGradient id="Gradient_16" gradientUnits="userSpaceOnUse" cx="54.085" cy="188.042" r="12.471">
      <stop offset="0" stop-color="#ED6238"/>
      <stop offset="1" stop-color="#B41F23"/>
    </radialGradient>
    <linearGradient id="Gradient_17" gradientUnits="userSpaceOnUse" x1="57.527" y1="174.375" x2="50.93" y2="200.557">
      <stop offset="0" stop-color="#EFEA3A"/>
      <stop offset="1" stop-color="#FF971F"/>
    </linearGradient>
    <radialGradient id="Gradient_18" gradientUnits="userSpaceOnUse" cx="42.163" cy="259.696" r="12.394">
      <stop offset="0" stop-color="#ED6238"/>
      <stop offset="1" stop-color="#B41F23"/>
    </radialGradient>
    <linearGradient id="Gradient_19" gradientUnits="userSpaceOnUse" x1="43.314" y1="246.119" x2="41.732" y2="273.073">
      <stop offset="0" stop-color="#EFEA3A"/>
      <stop offset="1" stop-color="#FF971F"/>
    </linearGradient>
    <linearGradient id="Gradient_20" gradientUnits="userSpaceOnUse" x1="251.013" y1="346.689" x2="230.182" y2="378.247">
      <stop offset="0" stop-color="#E72F28"/>
      <stop offset="1" stop-color="#961F23"/>
    </linearGradient>
    <linearGradient id="Gradient_21" gradientUnits="userSpaceOnUse" x1="247.536" y1="351.957" x2="232.662" y2="374.49">
      <stop offset="0" stop-color="#EFEA3A"/>
      <stop offset="1" stop-color="#FF971F"/>
    </linearGradient>
    <linearGradient id="Gradient_22" gradientUnits="userSpaceOnUse" x1="194.65" y1="401.205" x2="181.508" y2="429.591">
      <stop offset="0" stop-color="#E72F28"/>
      <stop offset="1" stop-color="#961F23"/>
    </linearGradient>
    <linearGradient id="Gradient_23" gradientUnits="userSpaceOnUse" x1="192.456" y1="405.946" x2="183.072" y2="426.214">
      <stop offset="0" stop-color="#EFEA3A"/>
      <stop offset="1" stop-color="#FF971F"/>
    </linearGradient>
    <linearGradient id="Gradient_24" gradientUnits="userSpaceOnUse" x1="195.221" y1="277.437" x2="187.662" y2="314.486">
      <stop offset="0" stop-color="#E72F28"/>
      <stop offset="1" stop-color="#961F23"/>
    </linearGradient>
    <linearGradient id="Gradient_25" gradientUnits="userSpaceOnUse" x1="193.96" y1="283.622" x2="188.562" y2="310.077">
      <stop offset="0" stop-color="#EFEA3A"/>
      <stop offset="1" stop-color="#FF971F"/>
    </linearGradient>
    <linearGradient id="Gradient_26" gradientUnits="userSpaceOnUse" x1="129.253" y1="245.606" x2="121.694" y2="282.655">
      <stop offset="0" stop-color="#E72F28"/>
      <stop offset="1" stop-color="#961F23"/>
    </linearGradient>
    <linearGradient id="Gradient_27" gradientUnits="userSpaceOnUse" x1="127.991" y1="251.791" x2="122.593" y2="278.245">
      <stop offset="0" stop-color="#EFEA3A"/>
      <stop offset="1" stop-color="#FF971F"/>
    </linearGradient>
    <radialGradient id="Gradient_28" gradientUnits="userSpaceOnUse" cx="100.296" cy="325.418" r="17.418">
      <stop offset="0" stop-color="#ED6238"/>
      <stop offset="1" stop-color="#B41F23"/>
    </radialGradient>
    <linearGradient id="Gradient_29" gradientUnits="userSpaceOnUse" x1="103.438" y1="312.099" x2="98.04" y2="338.555">
      <stop offset="0" stop-color="#EFEA3A"/>
      <stop offset="1" stop-color="#FF971F"/>
    </linearGradient>
    <linearGradient id="Gradient_30" gradientUnits="userSpaceOnUse" x1="113.332" y1="381.159" x2="106.699" y2="413.669">
      <stop offset="0" stop-color="#E72F28"/>
      <stop offset="1" stop-color="#961F23"/>
    </linearGradient>
    <linearGradient id="Gradient_31" gradientUnits="userSpaceOnUse" x1="112.224" y1="386.586" x2="107.487" y2="409.8">
      <stop offset="0" stop-color="#EFEA3A"/>
      <stop offset="1" stop-color="#FF971F"/>
    </linearGradient>
    <radialGradient id="Gradient_32" gradientUnits="userSpaceOnUse" cx="176.246" cy="136.087" r="108.436">
      <stop offset="0" stop-color="#56B442"/>
      <stop offset="1" stop-color="#6BBF00"/>
    </radialGradient>
    <radialGradient id="Gradient_33" gradientUnits="userSpaceOnUse" cx="198.626" cy="95.734" r="93.646">
      <stop offset="0" stop-color="#569242"/>
      <stop offset="1" stop-color="#6BBF00"/>
    </radialGradient>
  </defs>
  <g id="Layer_1">
    <g clip-path="url(#Clip_2)">
      <path d="M330.392,249.203 C312.119,338.761 204.913,493.549 115.354,475.277 C25.796,457.003 -12.199,272.588 6.074,183.03 C24.347,93.472 102.165,82.715 191.724,100.988 C281.281,119.261 348.665,159.645 330.392,249.203 z" fill="url(#Gradient_1)"/>
      <g clip-path="url(#Clip_1)" opacity="0.55">
        <path d="M76.98,320.661 C78.836,311.566 83.324,304.258 89.132,299.845 C84.423,300.894 79.835,302.687 74.759,302.956 C63.74,303.54 63.95,297.876 59.967,290.42 C58.28,287.263 56.903,284.204 55.947,281.245 C52.076,287.128 46.629,290.417 40.38,290.05 C36.166,289.803 32.329,287.861 29.283,284.435 C24.26,278.785 21.744,269.345 22.379,258.535 C23.428,240.665 32.295,228.66 43.943,229.342 L43.945,229.342 C54.818,229.982 61.988,241.316 62.042,257.354 C63.734,255.872 65.73,254.432 68.084,253.039 C79.765,246.124 93.303,244.228 104.786,237.921 C101.277,239.195 97.512,239.534 93.692,238.754 C80.399,236.043 72.989,221.189 76.455,204.205 C77.345,199.84 78.845,195.89 80.802,192.47 C75.569,192.06 76.09,186.779 75.227,179.506 C75.105,178.482 74.919,177.413 74.685,176.322 C75.28,181.234 74.879,186.871 73.36,192.9 C68.984,210.259 58.003,220.385 46.653,217.526 C45.387,217.207 44.206,216.741 43.105,216.152 C43.116,216.3 43.131,216.463 43.136,216.589 C43.498,227.469 34.523,227.29 29.299,232.882 C23.414,239.181 23.467,250.005 21.352,258.099 C18.59,268.665 16.184,280.993 26.618,287.551 C34.169,292.296 43.095,291.055 50.113,296.83 C65.605,309.583 61.5,325.934 69.434,341.597 C74.119,350.846 82.142,354.582 90.573,354.108 C79.609,349.638 73.846,336.022 76.98,320.661 M61.514,158.557 C64.815,159.39 67.563,161.18 69.7,163.721 C64.541,155.273 56.137,149.566 45.498,156.116 C41.121,158.81 39.237,165.062 38.717,172.594 C44.168,161.916 52.729,156.344 61.514,158.557" fill="#FFFFFF"/>
      </g>
    </g>
    <path d="M55.12,325.899 C57.253,337.141 54.685,346.751 49.278,347.777 C43.869,348.804 37.961,340.801 35.828,329.558 C33.696,318.316 36.265,308.706 41.672,307.679 C47.081,306.654 52.987,314.656 55.12,325.899 z" fill="url(#Gradient_2)"/>
    <path d="M38.626,329.028 C40.313,337.93 44.75,344.566 48.533,343.848 C52.315,343.13 54.012,335.333 52.324,326.428 C50.636,317.527 46.198,310.892 42.417,311.611 C38.634,312.329 36.936,320.126 38.626,329.028 z" fill="url(#Gradient_3)"/>
    <path d="M86.252,206.204 C83.965,217.416 88.111,227.41 95.691,228.957 C103.271,230.503 111.001,222.932 113.289,211.72 C115.577,200.508 111.431,190.515 103.851,188.968 C96.27,187.421 88.54,194.992 86.252,206.204 z" fill="url(#Gradient_4)"/>
    <path d="M109.695,211.412 C107.883,220.29 102.117,226.61 96.816,225.529 C91.515,224.447 88.685,216.373 90.497,207.495 C92.308,198.617 98.074,192.297 103.375,193.378 C108.677,194.46 111.506,202.535 109.695,211.412 z" fill="url(#Gradient_5)"/>
    <path d="M166.802,202.652 C164.515,213.864 168.661,223.858 176.241,225.405 C183.821,226.951 191.551,219.38 193.839,208.168 C196.127,196.957 191.98,186.962 184.4,185.416 C176.82,183.869 169.09,191.44 166.802,202.652 z" fill="url(#Gradient_6)"/>
    <path d="M189.92,207.369 C188.108,216.247 182.342,222.567 177.041,221.485 C171.739,220.404 168.91,212.33 170.722,203.452 C172.533,194.574 178.3,188.253 183.601,189.335 C188.901,190.417 191.731,198.491 189.92,207.369 z" fill="url(#Gradient_7)"/>
    <path d="M222.992,227.385 C220.704,238.597 224.851,248.59 232.431,250.137 C240.011,251.684 247.741,244.113 250.028,232.901 C252.316,221.689 248.17,211.695 240.59,210.148 C233.01,208.602 225.279,216.173 222.992,227.385 z" fill="url(#Gradient_8)"/>
    <path d="M246.109,232.102 C244.298,240.979 238.531,247.299 233.23,246.218 C227.93,245.136 225.1,237.062 226.911,228.184 C228.723,219.307 234.489,212.986 239.79,214.068 C245.091,215.149 247.921,223.224 246.109,232.102 z" fill="url(#Gradient_9)"/>
    <path d="M261.544,298.706 C258.323,309.686 260.772,319.746 267.119,321.607 C273.467,323.47 280.963,316.328 284.184,305.348 C287.405,294.368 284.956,284.308 278.609,282.446 C272.262,280.584 264.766,287.726 261.544,298.706 z" fill="url(#Gradient_10)"/>
    <path d="M280.903,304.385 C278.352,313.08 272.684,319.072 268.246,317.77 C263.807,316.467 262.274,308.362 264.826,299.668 C267.376,290.974 273.044,284.982 277.482,286.284 C281.922,287.586 283.453,295.691 280.903,304.385 z" fill="url(#Gradient_11)"/>
    <path d="M152.484,355.366 C150.197,366.578 154.344,376.572 161.924,378.119 C169.504,379.665 177.234,372.093 179.521,360.882 C181.809,349.67 177.663,339.676 170.083,338.129 C162.503,336.584 154.772,344.155 152.484,355.366 z" fill="url(#Gradient_12)"/>
    <path d="M175.602,360.083 C173.791,368.96 168.024,375.281 162.724,374.199 C157.422,373.118 154.593,365.043 156.404,356.166 C158.216,347.288 163.982,340.967 169.283,342.049 C174.584,343.13 177.414,351.205 175.602,360.083 z" fill="url(#Gradient_13)"/>
    <path d="M282.036,212.23 C281.043,223.628 284.587,232.935 290.104,233.417 C295.623,233.897 300.725,225.345 301.72,213.945 C302.713,202.545 299.168,193.239 293.65,192.758 C288.131,192.277 283.03,200.83 282.036,212.23 z" fill="url(#Gradient_14)"/>
    <path d="M298.865,213.697 C298.078,222.723 294.311,229.768 290.452,229.432 C286.594,229.095 284.102,221.504 284.89,212.478 C285.677,203.452 289.443,196.407 293.303,196.743 C297.162,197.08 299.652,204.67 298.865,213.697 z" fill="url(#Gradient_15)"/>
    <path d="M63.663,190.457 C60.866,201.552 54.469,209.183 49.098,207.83 C43.727,206.476 41.708,196.725 44.504,185.628 C47.301,174.533 53.699,166.901 59.069,168.254 C64.442,169.608 66.459,179.361 63.663,190.457 z" fill="url(#Gradient_16)"/>
    <path d="M47.282,186.329 C45.068,195.114 46.318,203.004 50.075,203.951 C53.831,204.897 58.672,198.542 60.886,189.756 C63.1,180.97 61.849,173.08 58.092,172.133 C54.336,171.186 49.495,177.543 47.282,186.329 z" fill="url(#Gradient_17)"/>
    <path d="M51.963,260.272 C51.293,271.695 46.462,280.39 40.967,280.068 C35.472,279.745 31.691,270.544 32.362,259.121 C33.033,247.698 37.864,239.003 43.358,239.325 C48.855,239.648 52.634,248.848 51.963,260.272 z" fill="url(#Gradient_18)"/>
    <path d="M35.529,259.779 C34.997,268.824 37.683,276.339 41.526,276.566 C45.37,276.792 48.916,269.641 49.447,260.596 C49.978,251.552 47.292,244.036 43.449,243.81 C39.605,243.584 36.059,250.734 35.529,259.779 z" fill="url(#Gradient_19)"/>
    <path d="M231.579,358.311 C225.274,367.86 223.936,377.716 228.53,380.75 C233.125,383.783 241.661,378.678 247.966,369.127 C254.269,359.578 255.607,349.72 251.014,346.688 C246.418,343.656 237.883,348.759 231.579,358.311 z" fill="url(#Gradient_20)"/>
    <path d="M245.59,367.558 C240.6,375.122 233.946,379.532 230.733,377.412 C227.52,375.291 228.962,367.441 233.955,359.878 C238.945,352.317 245.598,347.907 248.81,350.027 C252.024,352.149 250.582,359.999 245.59,367.558 z" fill="url(#Gradient_21)"/>
    <path d="M180.424,413.223 C176.446,421.812 176.465,429.993 180.465,431.844 C184.466,433.696 190.715,428.419 194.691,419.828 C198.669,411.238 198.649,403.058 194.649,401.205 C190.648,399.354 184.4,404.63 180.424,413.223 z" fill="url(#Gradient_22)"/>
    <path d="M192.624,418.87 C189.475,425.673 184.653,430.136 181.854,428.84 C179.057,427.546 179.343,420.982 182.492,414.179 C185.641,407.377 190.463,402.914 193.26,404.209 C196.059,405.505 195.773,412.07 192.624,418.87 z" fill="url(#Gradient_23)"/>
    <path d="M177.624,294.673 C175.336,305.885 179.482,315.879 187.062,317.426 C194.643,318.972 202.373,311.401 204.66,300.189 C206.948,288.978 202.802,278.984 195.222,277.437 C187.642,275.891 179.911,283.461 177.624,294.673 z" fill="url(#Gradient_24)"/>
    <path d="M200.741,299.39 C198.93,308.268 193.163,314.588 187.862,313.506 C182.561,312.425 179.731,304.351 181.543,295.473 C183.354,286.595 189.121,280.275 194.422,281.356 C199.723,282.438 202.553,290.512 200.741,299.39 z" fill="url(#Gradient_25)"/>
    <path d="M111.656,262.842 C109.368,274.054 113.514,284.048 121.095,285.595 C128.675,287.142 136.405,279.571 138.692,268.359 C140.98,257.147 136.834,247.153 129.254,245.606 C121.673,244.06 113.943,251.63 111.656,262.842 z" fill="url(#Gradient_26)"/>
    <path d="M134.773,267.559 C132.962,276.437 127.195,282.757 121.894,281.676 C116.593,280.594 113.764,272.52 115.575,263.642 C117.386,254.764 123.153,248.444 128.454,249.525 C133.755,250.607 136.585,258.682 134.773,267.559 z" fill="url(#Gradient_27)"/>
    <path d="M86.778,322.661 C84.491,333.873 88.637,343.867 96.217,345.413 C103.797,346.959 111.527,339.389 113.815,328.177 C116.102,316.964 111.956,306.971 104.376,305.424 C96.796,303.877 89.066,311.448 86.778,322.661 z" fill="url(#Gradient_28)"/>
    <path d="M110.221,327.868 C108.409,336.746 102.643,343.066 97.342,341.985 C92.04,340.903 89.211,332.829 91.022,323.951 C92.834,315.073 98.601,308.753 103.901,309.834 C109.203,310.916 112.032,318.991 110.221,327.868 z" fill="url(#Gradient_29)"/>
    <path d="M97.704,396.247 C95.697,406.084 99.417,414.871 106.173,416.25 C112.929,417.627 119.794,411.001 121.801,401.163 C123.809,391.325 120.089,382.539 113.332,381.16 C106.577,379.782 99.711,386.408 97.704,396.247 z" fill="url(#Gradient_30)"/>
    <path d="M118.308,400.451 C116.719,408.24 111.6,413.775 106.874,412.81 C102.15,411.846 99.608,404.749 101.197,396.959 C102.787,389.169 107.907,383.634 112.631,384.599 C117.356,385.563 119.897,392.661 118.308,400.451 z" fill="url(#Gradient_31)"/>
    <path d="M165.989,82.402 C182.772,77.489 215.954,64.599 238.588,70.219 C228.477,72.628 223.902,82.405 217.432,89.52 C233.274,80.476 252.397,81.672 268.551,89.625 C283.158,96.817 306.064,109.401 314.208,122.649 C294.889,119.534 256.589,109.377 256.253,111.16 C255.915,112.941 295.577,124.998 303.538,135.588 C313.991,149.494 302.873,170.868 299.254,185.982 C292.405,169.436 250.434,134.93 233.306,141.986 C256.155,163.614 204.968,204.782 192.165,217.333 C197.365,190.126 181.197,162.199 188.908,135.913 C177.477,138.725 164.826,154.528 151.869,160.011 C132.478,168.216 109.015,171.488 88.323,175.687 C87.762,176.071 87.779,176.1 88.372,175.773 C98.386,165.373 106.629,155.018 114.218,142.966 C122.834,129.286 132.589,106.003 151.816,110.19 C119.156,93.467 85.765,95.272 50.156,88.893 C58.483,82.67 72.585,82.293 82.659,78.219 C93.914,73.669 103.941,65.334 115.534,62.137 C137.017,56.21 165.989,82.402 165.989,82.402 z" fill="url(#Gradient_32)"/>
    <path d="M186.627,98.734 C186.627,98.734 233.124,11.739 257.123,1.239 C281.122,14.739 282.622,22.238 282.622,22.238 C282.622,22.238 222.625,50.737 204.626,101.734 C195.626,115.233 182.127,110.734 186.627,98.734 z" fill="url(#Gradient_33)"/>
  </g>
</svg>
