<?xml version="1.0" encoding="UTF-8" standalone="no"?>
<!-- Created with Inkscape (http://www.inkscape.org/) -->

<svg
   width="31.812372mm"
   height="30.291332mm"
   viewBox="0 0 31.812371 30.291332"
   version="1.1"
   id="svg2269"
   inkscape:version="1.1.2 (0a00cf5339, 2022-02-04)"
   sodipodi:docname="item385.svg"
   xmlns:inkscape="http://www.inkscape.org/namespaces/inkscape"
   xmlns:sodipodi="http://sodipodi.sourceforge.net/DTD/sodipodi-0.dtd"
   xmlns="http://www.w3.org/2000/svg"
   xmlns:svg="http://www.w3.org/2000/svg">
  <sodipodi:namedview
     id="namedview2271"
     pagecolor="#ffffff"
     bordercolor="#666666"
     borderopacity="1.0"
     inkscape:pageshadow="2"
     inkscape:pageopacity="0.0"
     inkscape:pagecheckerboard="0"
     inkscape:document-units="mm"
     showgrid="false"
     fit-margin-top="0"
     fit-margin-left="0"
     fit-margin-right="0"
     fit-margin-bottom="0"
     inkscape:zoom="0.48996914"
     inkscape:cx="-205.11496"
     inkscape:cy="142.86614"
     inkscape:window-width="1366"
     inkscape:window-height="719"
     inkscape:window-x="0"
     inkscape:window-y="25"
     inkscape:window-maximized="1"
     inkscape:current-layer="layer1" />
  <defs
     id="defs2266" />
  <g
     inkscape:label="Capa 1"
     inkscape:groupmode="layer"
     id="layer1"
     transform="translate(-155.36301,-111.24311)">
    <g
       id="g7373"
       transform="matrix(0.04642234,0,0,0.04642234,191.66429,-31.504823)">
      <path
         sodipodi:nodetypes="ccccccccccc"
         inkscape:connector-curvature="0"
         id="path5123"
         d="m -214.68255,3077.8327 114.969784,154.8552 -40.058244,232.4754 -298.29253,258.5749 -299.02638,-256.2472 -41.86886,-232.1562 113.61593,-157.5021 h 130.95093 l 94.11189,50.3164 94.37923,-50.3164 z"
         inkscape:transform-center-y="-40.952424"
         inkscape:transform-center-x="-5.5620813"
         style="opacity:1;fill:#ffcc00;fill-opacity:1;stroke:none;stroke-width:4;stroke-miterlimit:4;stroke-dasharray:none;stroke-opacity:1" />
      <path
         inkscape:connector-curvature="0"
         style="opacity:1;fill:#ffcc00;fill-opacity:1;stroke:none;stroke-width:4;stroke-miterlimit:4;stroke-dasharray:none;stroke-opacity:1"
         d="m -665.3427,3077.8333 -113.61674,157.5011 103.24707,51.2653 78.65416,-109.0363 z"
         id="path5137" />
      <path
         inkscape:connector-curvature="0"
         style="opacity:1;fill:#ffd42a;fill-opacity:1;stroke:none;stroke-width:4;stroke-miterlimit:4;stroke-dasharray:none;stroke-opacity:1"
         d="m -665.3427,3077.8333 68.28449,99.7301 h 90.65565 l 65.1518,34.833 0.97134,-84.2477 -94.11216,-50.3154 z"
         id="path5121" />
      <path
         inkscape:connector-curvature="0"
         style="opacity:1;fill:#ffdd55;fill-opacity:1;stroke:none;stroke-width:4;stroke-miterlimit:4;stroke-dasharray:none;stroke-opacity:1"
         d="m -214.68222,3077.8333 -70.39128,99.7301 79.5924,107.2029 v 0 l 105.768253,-52.0797 -114.969373,-154.8548 z"
         id="path5125" />
      <path
         inkscape:connector-curvature="0"
         style="opacity:1;fill:#ffcc00;fill-opacity:1;stroke:none;stroke-width:4;stroke-miterlimit:4;stroke-dasharray:none;stroke-opacity:1"
         d="m -345.90104,3077.8333 -94.37838,50.3154 -0.97134,84.2477 65.33744,-34.833 h 90.83982 l 70.39128,-99.7301 z"
         id="path5127" />
      <path
         inkscape:connector-curvature="0"
         style="opacity:1;fill:#ffd42a;fill-opacity:1;stroke:none;stroke-width:4;stroke-miterlimit:4;stroke-dasharray:none;stroke-opacity:1"
         d="m -233.21252,3445.7068 93.44157,19.457 40.058103,-232.4757 -105.768253,52.0797 z"
         id="path5129" />
      <path
         inkscape:connector-curvature="0"
         style="opacity:1;fill:#d4aa00;fill-opacity:1;stroke:none;stroke-width:4;stroke-miterlimit:4;stroke-dasharray:none;stroke-opacity:1"
         d="m -439.71676,3624.7141 1.65344,99.0236 298.29237,-258.5739 -93.44157,-19.457 z"
         id="path5131" />
      <path
         inkscape:connector-curvature="0"
         style="opacity:1;fill:#aa8800;fill-opacity:1;stroke:none;stroke-width:4;stroke-miterlimit:4;stroke-dasharray:none;stroke-opacity:1"
         d="m -646.72751,3447.317 -90.36211,20.1737 299.0263,256.247 -1.65344,-99.0236 z"
         id="path5133" />
      <path
         inkscape:connector-curvature="0"
         style="opacity:1;fill:#d4aa00;fill-opacity:1;stroke:none;stroke-width:4;stroke-miterlimit:4;stroke-dasharray:none;stroke-opacity:1"
         d="m -778.95944,3235.3344 41.86982,232.1563 90.36211,-20.1737 -28.98486,-160.7173 z"
         id="path5135" />
      <path
         sodipodi:nodetypes="ccccccccccc"
         inkscape:connector-curvature="0"
         id="path5139"
         d="m -285.07297,3177.5631 79.59187,107.2039 -27.73173,160.9393 -206.50348,179.0076 -207.01157,-177.3962 -28.98515,-160.7182 78.6546,-109.0364 h 90.65541 l 65.15226,34.8333 65.33734,-34.8333 z"
         inkscape:transform-center-y="-28.350754"
         inkscape:transform-center-x="-3.8505613"
         style="opacity:1;fill:#fff6d5;fill-opacity:1;stroke:none;stroke-width:4;stroke-miterlimit:4;stroke-dasharray:none;stroke-opacity:1" />
      <path
         style="opacity:1;fill:#ffe680;fill-opacity:1;stroke:none;stroke-width:4;stroke-miterlimit:4;stroke-dasharray:none;stroke-opacity:1"
         inkscape:transform-center-x="-3.4742563"
         inkscape:transform-center-y="-25.580069"
         d="m -300.54941,3200.4017 71.81346,96.727 -25.02154,145.2109 -186.32216,161.5134 -186.78058,-160.0595 -26.15246,-145.0114 70.96778,-98.3804 h 81.79576 l 58.78502,31.4291 58.952,-31.4291 z"
         id="path5141"
         inkscape:connector-curvature="0"
         sodipodi:nodetypes="ccccccccccc" />
      <path
         sodipodi:nodetypes="cccccccc"
         inkscape:connector-curvature="0"
         style="opacity:0.13;fill:#aa8800;fill-opacity:1;stroke:none;stroke-width:4;stroke-miterlimit:4;stroke-dasharray:none;stroke-opacity:1"
         d="m -568.15418,3200.4025 c -1.64618,8.8239 -2.66803,17.7196 -3.0608,26.6464 -3.78175,126.7691 117.65983,235.8828 278.66693,250.3786 l -147.5316,126.4255 -186.78058,-160.0595 -26.15246,-145.0114 70.96778,-98.3804 z"
         id="path5143" />
      <ellipse
         style="opacity:1;fill:#fff6d5;fill-opacity:1;stroke:none;stroke-width:4;stroke-miterlimit:4;stroke-dasharray:none;stroke-opacity:1"
         id="ellipse5145"
         cx="-3372.5642"
         cy="696.15338"
         rx="30.523752"
         ry="29.99748"
         transform="rotate(-68.04076)" />
      <ellipse
         ry="22.629679"
         rx="26.31358"
         cy="670.04224"
         cx="-3342.0405"
         id="ellipse5147"
         style="opacity:1;fill:#fff6d5;fill-opacity:1;stroke:none;stroke-width:4;stroke-miterlimit:4;stroke-dasharray:none;stroke-opacity:1"
         transform="rotate(-68.04076)" />
      <ellipse
         style="opacity:1;fill:#fff6d5;fill-opacity:1;stroke:none;stroke-width:4;stroke-miterlimit:4;stroke-dasharray:none;stroke-opacity:1"
         id="ellipse5149"
         cx="-441.93069"
         cy="3239.781"
         rx="26.31358"
         ry="22.629679" />
      <ellipse
         ry="47.364441"
         rx="55.784786"
         cy="3424.5024"
         cx="-306.15265"
         id="ellipse5151"
         style="opacity:1;fill:#fff6d5;fill-opacity:1;stroke:none;stroke-width:4;stroke-miterlimit:4;stroke-dasharray:none;stroke-opacity:1" />
      <ellipse
         style="opacity:1;fill:#fff6d5;fill-opacity:1;stroke:none;stroke-width:4;stroke-miterlimit:4;stroke-dasharray:none;stroke-opacity:1"
         id="ellipse5153"
         cx="-307.66302"
         cy="3472.3"
         rx="31.224194"
         ry="28.01367" />
      <path
         style="opacity:0.33;fill:#fff6d5;fill-opacity:1;stroke:none;stroke-width:4;stroke-miterlimit:4;stroke-dasharray:none;stroke-opacity:1"
         d="m -645.55124,3106.115 -103.66667,143.7079 38.20375,211.8262 272.83903,233.8068 272.17071,-235.9305 36.55007,-212.117 -104.90191,-141.2934 h -119.72697 l -86.11429,45.9086 -85.86904,-45.9086 z m 30.83248,44.0581 h 101.61936 l 73.03111,39.0439 73.23821,-39.0439 h 101.82646 l 89.21766,120.1676 -31.08504,180.4033 -231.47743,200.6539 -232.04586,-198.8488 -32.49208,-180.1552 z"
         id="path5157"
         inkscape:connector-curvature="0" />
      <path
         inkscape:connector-curvature="0"
         style="opacity:1;fill:none;fill-opacity:1;stroke:#2b2200;stroke-width:5.69948;stroke-miterlimit:4;stroke-dasharray:none;stroke-opacity:1"
         d="m -665.3427,3077.8333 -113.61674,157.5011 41.86982,232.1563 299.0263,256.247 298.29237,-258.5739 40.058103,-232.4757 -114.969373,-154.8548 h -131.21882 l -94.37838,50.3154 -94.11216,-50.3154 z m 68.28449,99.7301 h 90.65565 l 65.1518,34.833 65.33744,-34.833 h 90.83982 l 79.5924,107.2029 -27.73142,160.9405 -206.50424,179.0073 -207.01075,-177.3971 -28.98486,-160.7173 z"
         id="path5155" />
    </g>
  </g>
</svg>
