<?xml version="1.0" encoding="UTF-8"?>
<!DOCTYPE svg PUBLIC "-//W3C//DTD SVG 1.1//EN" "http://www.w3.org/Graphics/SVG/1.1/DTD/svg11.dtd">
<svg version="1.1" xmlns="http://www.w3.org/2000/svg" xmlns:xlink="http://www.w3.org/1999/xlink" x="0" y="0" width="966" height="876" viewBox="0, 0, 966, 876">
  <g id="ƒŒƒCƒ_x201e__x0081__x005b__x0020_1">
    <g>
      <g>
        <path d="M883.967,491.389 C943.583,419.246 956.543,316.863 942.719,247.743 C929.759,180.784 880.943,146.656 798.432,146.656 C782.016,146.656 766.032,147.952 752.209,149.248 C727.153,99.569 678.337,69.761 620.882,69.761 C524.979,69.761 424.755,154 419.571,315.135 C416.547,410.606 435.987,481.021 477.459,524.653 C530.594,580.38 608.786,581.676 655.441,582.54 C659.329,582.54 663.217,582.54 666.673,582.54 C760.417,582.54 833.424,551.869 883.535,490.957 z M739.249,162.64 L739.249,162.64 L741.841,168.688 L748.321,167.824 C763.008,166.096 780.288,164.368 798.864,164.368 C872.736,164.368 914.207,192.88 925.871,251.199 C938.399,316.431 926.303,412.334 870.576,480.157 C823.92,536.749 755.665,565.261 667.537,565.261 C664.081,565.261 660.193,565.261 656.737,565.261 C609.65,564.397 539.234,563.101 491.283,512.989 C453.267,472.813 435.123,406.718 438.147,315.999 C442.899,166.096 534.05,87.905 621.746,87.905 C674.449,87.905 718.945,115.984 740.113,162.64 z" fill="#000000"/>
        <path d="M746.161,162.208 C804.912,155.728 909.887,148.384 930.191,251.199 C951.791,361.79 904.271,576.924 656.738,570.444 C571.202,569.148 425.188,563.1 432.963,316.431 C441.171,64.577 683.521,23.537 746.161,162.208 z" fill="#87D656"/>
      </g>
      <path d="M717.217,214.48 C739.681,194.176 784.176,156.16 785.472,80.993 C781.584,26.993 772.081,10.577 761.713,12.305 C749.185,14.465 756.529,27.857 765.169,59.393 C773.808,90.929 769.92,164.368 709.441,211.456 C717.649,214.048 717.649,214.048 717.649,214.048 z" fill="#2D161C"/>
      <path d="M658.897,139.312 C667.537,153.568 677.041,167.392 686.545,179.92 C696.481,192.448 707.281,204.544 721.105,210.592 C734.497,216.64 750.913,219.232 766.896,221.392 C782.88,223.12 799.296,224.847 816.144,226.143 C799.728,230.031 782.88,231.759 766.033,231.327 C749.185,230.895 732.337,229.167 715.057,222.256 C698.209,214.48 686.545,199.792 677.905,185.536 C668.833,170.848 662.353,155.296 658.465,138.88 z" fill="#FFFFFF"/>
      <path d="M882.24,325.503 C882.24,325.503 899.519,411.038 805.344,468.925" fill-opacity="0" stroke="#FFFFFF" stroke-width="24" stroke-linecap="round" stroke-linejoin="round"/>
    </g>
    <g>
      <g>
        <path d="M540.099,412.766 C429.075,335.871 355.636,404.99 332.74,433.502 L332.308,433.934 C296.885,421.406 196.229,399.806 145.254,520.765 C94.278,642.156 214.805,906.106 461.043,850.81 C461.043,850.81 461.043,850.378 461.043,850.378 C696.913,771.755 651.122,489.661 540.53,412.766 z" fill="#B50700"/>
        <path d="M461.475,855.13 C462.339,855.13 462.771,854.266 463.635,853.834 C558.674,821.435 618.722,751.883 632.114,657.708 C645.938,560.941 607.49,454.238 542.69,409.31 C508.131,385.55 474.435,373.454 441.603,373.454 C384.58,373.454 346.132,410.606 330.58,429.182 C317.188,424.862 297.749,420.11 274.853,420.11 C232.517,420.11 175.062,437.39 140.502,519.469 C115.446,579.085 131.43,671.1 179.382,743.243 C209.189,788.171 276.581,862.906 394.948,862.906 L394.948,862.906 C416.116,862.906 438.579,860.314 461.043,855.13 z M330.58,438.254 L330.58,438.254 C332.308,438.686 334.9,437.822 335.764,436.526 C349.156,420.11 385.876,382.526 441.171,382.526 C471.843,382.526 504.243,394.19 537.075,417.086 C598.418,459.854 636.002,565.261 623.042,657.276 C609.65,748.859 551.33,816.251 458.451,846.922 C458.019,846.922 457.587,847.354 457.155,847.786 C435.987,852.538 415.252,854.698 394.948,854.698 L394.948,854.698 C280.469,854.698 215.237,782.123 186.294,738.923 C140.07,668.94 124.086,580.381 148.278,523.357 C181.11,445.598 235.109,429.182 274.421,429.182 C297.317,429.182 317.188,434.366 330.148,439.118 z" fill="#000000"/>
      </g>
      <g>
        <path d="M311.572,359.63 L261.029,356.174 C261.029,356.174 225.605,395.918 168.582,395.054 C111.558,394.19 83.91,365.246 64.902,344.943 C45.895,324.639 11.335,319.023 11.335,319.023 C11.335,319.023 54.103,319.023 70.518,309.519 C87.366,300.015 119.766,284.031 169.014,287.919 C235.541,293.103 262.325,346.671 262.325,346.671 L310.276,349.695 L311.572,359.63 z M241.157,348.399 L241.157,348.399 C242.021,346.239 240.293,343.647 238.133,343.215 C150.006,318.591 98.166,324.207 96.006,324.207 C93.414,324.639 92.118,326.799 92.118,328.959 C92.55,331.119 94.278,332.847 96.87,332.847 C97.302,332.847 149.142,327.663 235.541,351.423 C235.973,351.423 236.405,351.423 236.837,351.423 C238.565,351.423 240.293,350.127 241.157,348.399 z" fill="#000000"/>
        <path d="M337.492,440.845 C336.196,430.046 324.532,344.51 297.749,296.127 C277.445,259.407 246.341,228.303 236.405,228.303 C226.469,228.303 221.285,237.807 234.245,248.607 C247.205,259.407 315.892,321.614 330.58,449.053 C342.244,451.213 337.924,441.277 337.924,441.277 z" fill="#2D161C"/>
      </g>
      <path d="M242.885,430.046 C258.869,435.23 274.853,439.55 290.404,443.006 C306.388,446.03 322.372,448.19 336.628,443.87 C350.884,439.55 365.14,430.91 378.532,422.27 C391.924,413.198 405.747,403.694 419.139,393.758 C409.203,407.15 397.54,419.678 384.58,430.478 C371.62,441.278 357.796,451.214 340.084,456.83 C321.94,461.582 304.228,458.126 288.245,452.942 C271.829,447.758 257.141,439.982 243.317,430.478 z" fill="#B50700"/>
      <path d="M565.586,522.493 C565.586,522.493 609.218,619.692 558.242,730.715" fill-opacity="0" stroke="#FFDBDF" stroke-width="24" stroke-linecap="round" stroke-linejoin="round"/>
    </g>
  </g>
</svg>
