<?xml version="1.0" encoding="UTF-8" standalone="no"?>
<!-- Created with Inkscape (http://www.inkscape.org/) -->

<svg
   width="164.33095"
   height="209.56306"
   id="svg4620"
   version="1.1"
   inkscape:version="1.1.2 (0a00cf5339, 2022-02-04)"
   sodipodi:docname="item244.svg"
   xmlns:inkscape="http://www.inkscape.org/namespaces/inkscape"
   xmlns:sodipodi="http://sodipodi.sourceforge.net/DTD/sodipodi-0.dtd"
   xmlns="http://www.w3.org/2000/svg"
   xmlns:svg="http://www.w3.org/2000/svg"
   xmlns:rdf="http://www.w3.org/1999/02/22-rdf-syntax-ns#"
   xmlns:cc="http://creativecommons.org/ns#"
   xmlns:dc="http://purl.org/dc/elements/1.1/">
  <defs
     id="defs4622" />
  <sodipodi:namedview
     id="base"
     pagecolor="#ffffff"
     bordercolor="#666666"
     borderopacity="1.0"
     inkscape:pageopacity="0.0"
     inkscape:pageshadow="2"
     inkscape:zoom="0.7"
     inkscape:cx="-32.857143"
     inkscape:cy="104.28571"
     inkscape:document-units="px"
     inkscape:current-layer="layer1"
     showgrid="false"
     inkscape:window-width="1366"
     inkscape:window-height="719"
     inkscape:window-x="0"
     inkscape:window-y="25"
     inkscape:window-maximized="1"
     fit-margin-top="0"
     fit-margin-left="0"
     fit-margin-right="0"
     fit-margin-bottom="0"
     inkscape:pagecheckerboard="0" />
  <metadata
     id="metadata4625">
    <rdf:RDF>
      <cc:Work
         rdf:about="">
        <dc:format>image/svg+xml</dc:format>
        <dc:type
           rdf:resource="http://purl.org/dc/dcmitype/StillImage" />
      </cc:Work>
    </rdf:RDF>
  </metadata>
  <g
     inkscape:label="Layer 1"
     inkscape:groupmode="layer"
     id="layer1"
     transform="translate(-75.465941,-387.58063)">
    <ellipse
       transform="matrix(9.1586707,0,0,9.1586707,-1935.6735,-3943.8528)"
       style="color:#000000;display:inline;overflow:visible;visibility:visible;fill:#851291;fill-opacity:1;fill-rule:nonzero;stroke:#000000;stroke-width:0.327558;stroke-miterlimit:4;stroke-dasharray:none;stroke-opacity:1;marker:none;enable-background:accumulate"
       id="path5714"
       cx="228.55991"
       cy="479.51007"
       rx="3.1005557"
       ry="6.2011113" />
    <g
       id="g5174"
       transform="translate(-2.3685872)">
      <path
         id="path5764"
         d="m 117.89965,389.0812 c -0.35489,-0.004 -0.69884,0.0151 -1.0625,0.0312 -7.49878,1.10066 -12.13543,6.88143 -14.375,13.40625 -0.0811,0.197 -0.33424,0.69806 -0.5625,1.21875 -4.678817,10.67297 -10.885017,31.45881 -14.499997,42.90625 -3.79135,12.00596 -10.31916,43.80974 -6.84375,52.65625 0.64009,1.62931 1.72173,3.63722 3.125,5.9375 l 9.28125,-26.96875 -2.28125,36.9375 c 3.22554,4.14762 7.02371,8.62489 11.312497,13.125 l 3.34375,-35.125 6.03125,44.25 c 2.40219,2.18101 4.88296,4.32299 7.4375,6.375 0.59595,0.47871 1.41831,1.13935 2.0625,1.65625 l 4.40625,-36.8125 8.4375,46.9375 c 4.63104,3.57053 9.68657,7.3817 15.03125,11.1875 l -3.09375,-43.15625 13,49.9375 c 5.67483,3.7607 11.46654,7.34935 17.21875,10.5 -8.31029,-29.25052 -13.9375,-51.4062 -13.9375,-51.4062 l 27.65625,58.0625 c 7.43204,3.05236 14.42967,4.90625 20.5,4.90625 2.20551,0 4.25509,-0.10517 6.15625,-0.3125 l -41.1875,-61.125 49.90625,59.28125 c 13.39084,-4.53477 15.46875,-14.59375 15.46875,-14.59375 0,0 -6.31369,-2.20915 -20.53125,-11.6875 -14.21757,-9.47836 -36.95615,-35.67929 -52.4375,-62.21875 -15.48135,-26.53946 -29.07699,-72.06022 -36.34375,-86.59375 -7.26676,-14.5335 -6.31571,-19.87846 -3.15625,-19.5625 5.44734,0.44345 7.06528,8.25348 9.5,13.72768 l 2.04911,-5.91072 c -4.75057,-9.30308 -10.60995,-17.4543 -21.61161,-17.56696 z"
         style="fill:#851291;fill-opacity:1;stroke:#000000;stroke-width:3;stroke-linecap:butt;stroke-linejoin:miter;stroke-miterlimit:4;stroke-dasharray:none;stroke-opacity:1"
         inkscape:connector-curvature="0"
         sodipodi:nodetypes="cccsssccccccscccccccccsccccssscccc" />
      <path
         inkscape:connector-curvature="0"
         style="fill:#851291;fill-opacity:1;stroke:#000000;stroke-width:3;stroke-linecap:butt;stroke-linejoin:miter;stroke-miterlimit:4;stroke-dasharray:none;stroke-opacity:1"
         d="m 202.10035,389.0812 c 0.35489,-0.004 0.69884,0.0151 1.0625,0.0312 7.49878,1.10066 12.13543,6.88143 14.375,13.40625 0.0811,0.197 0.33424,0.69806 0.5625,1.21875 4.67882,10.67297 10.88502,31.45881 14.5,42.90625 3.79135,12.00596 10.31916,43.80974 6.84375,52.65625 -0.64009,1.62931 -1.72173,3.63722 -3.125,5.9375 l -9.28125,-26.96875 2.28125,36.9375 c -3.22554,4.14762 -7.02371,8.62489 -11.3125,13.125 l -3.34375,-35.125 -6.03125,44.25 c -2.40219,2.18101 -4.88296,4.32299 -7.4375,6.375 -0.59595,0.47871 -1.41831,1.13935 -2.0625,1.65625 l -4.40625,-36.8125 -8.4375,46.9375 c -4.63104,3.57053 -9.68657,7.3817 -15.03125,11.1875 l 3.09375,-43.15625 -13,49.9375 c -5.67483,3.7607 -11.46654,7.34935 -17.21875,10.5 8.31029,-29.25052 13.9375,-51.4062 13.9375,-51.4062 l -27.65625,58.0625 c -7.43204,3.05236 -14.42967,4.90625 -20.5,4.90625 -2.20551,0 -4.25509,-0.10517 -6.15625,-0.3125 l 41.1875,-61.125 -49.906247,59.28125 c -13.39084,-4.53477 -15.46875,-14.59375 -15.46875,-14.59375 0,0 6.31369,-2.20915 20.531247,-11.6875 14.21757,-9.47836 36.95615,-35.67929 52.4375,-62.21875 15.48135,-26.53946 29.07699,-72.06022 36.34375,-86.59375 7.26676,-14.5335 6.31571,-19.87846 3.15625,-19.5625 -5.44734,0.44345 -6.97599,8.78919 -9.41071,14.26339 l -2.22768,-5.91071 c 4.75057,-9.30308 10.69923,-17.99002 21.70089,-18.10268 z"
         id="path5821"
         sodipodi:nodetypes="cccsssccccccscccccccccsccccssscccc" />
    </g>
  </g>
</svg>
