<?xml version="1.0" encoding="UTF-8" standalone="no"?>
<!-- Created with Inkscape (http://www.inkscape.org/) -->

<svg
   width="21.934185mm"
   height="32.6633mm"
   viewBox="0 0 21.934184 32.663299"
   version="1.1"
   id="svg2269"
   inkscape:version="1.1.2 (0a00cf5339, 2022-02-04)"
   sodipodi:docname="item398.svg"
   xmlns:inkscape="http://www.inkscape.org/namespaces/inkscape"
   xmlns:sodipodi="http://sodipodi.sourceforge.net/DTD/sodipodi-0.dtd"
   xmlns="http://www.w3.org/2000/svg"
   xmlns:svg="http://www.w3.org/2000/svg">
  <sodipodi:namedview
     id="namedview2271"
     pagecolor="#ffffff"
     bordercolor="#666666"
     borderopacity="1.0"
     inkscape:pageshadow="2"
     inkscape:pageopacity="0.0"
     inkscape:pagecheckerboard="0"
     inkscape:document-units="mm"
     showgrid="false"
     fit-margin-top="0"
     fit-margin-left="0"
     fit-margin-right="0"
     fit-margin-bottom="0"
     inkscape:zoom="0.48996914"
     inkscape:cx="-103.06772"
     inkscape:cy="-40.818898"
     inkscape:window-width="1366"
     inkscape:window-height="719"
     inkscape:window-x="0"
     inkscape:window-y="25"
     inkscape:window-maximized="1"
     inkscape:current-layer="layer1" />
  <defs
     id="defs2266" />
  <g
     inkscape:label="Capa 1"
     inkscape:groupmode="layer"
     id="layer1"
     transform="translate(-128.40227,-160.29214)">
    <g
       id="g7535"
       transform="matrix(0.04642234,0,0,0.04642234,195.00924,-70.545086)">
      <rect
         transform="matrix(0.54288883,0.83980457,-0.54288883,0.83980457,0,0)"
         y="4059.408"
         x="1867.9182"
         height="412.66312"
         width="412.66312"
         id="rect5781"
         style="opacity:1;fill:#0066ff;fill-opacity:1;stroke:none;stroke-width:4;stroke-miterlimit:4;stroke-dasharray:none;stroke-opacity:1" />
      <path
         inkscape:connector-curvature="0"
         style="opacity:1;fill:#2a7fff;fill-opacity:1;stroke:none;stroke-width:4;stroke-miterlimit:4;stroke-dasharray:none;stroke-opacity:1"
         d="m -1189.7354,4977.7953 -224.0299,346.5566 h 79.1064 l 144.9235,-224.1844 z"
         id="path5785" />
      <path
         inkscape:connector-curvature="0"
         style="opacity:1;fill:#5599ff;fill-opacity:1;stroke:none;stroke-width:4;stroke-miterlimit:4;stroke-dasharray:none;stroke-opacity:1"
         d="m -1189.7354,4977.7953 v 122.3722 l 144.9235,224.1844 h 79.10644 z"
         id="path5783" />
      <rect
         transform="matrix(0.54288883,0.83980457,-0.54288883,0.83980457,0,0)"
         y="4132.2656"
         x="1940.7756"
         height="266.94894"
         width="266.94894"
         id="rect5787"
         style="opacity:1;fill:#80b3ff;fill-opacity:1;stroke:none;stroke-width:4;stroke-miterlimit:4;stroke-dasharray:none;stroke-opacity:1" />
      <path
         style="opacity:1;fill:#0066ff;fill-opacity:1;stroke:none;stroke-width:4;stroke-miterlimit:4;stroke-dasharray:none;stroke-opacity:1"
         d="m -1189.7352,5548.5369 v 122.3721 l 224.02991,-346.5565 h -79.10641 z"
         id="path5789"
         inkscape:connector-curvature="0" />
      <path
         inkscape:connector-curvature="0"
         style="opacity:1;fill:#0044aa;fill-opacity:1;stroke:none;stroke-width:4;stroke-miterlimit:4;stroke-dasharray:none;stroke-opacity:1"
         d="m -1334.6589,5324.3519 h -79.1064 l 224.0299,346.5566 v -122.3722 z"
         id="path5791" />
      <path
         inkscape:connector-curvature="0"
         style="opacity:0.715;fill:#d5e5ff;fill-opacity:1;stroke:none;stroke-width:4;stroke-miterlimit:4;stroke-dasharray:none;stroke-opacity:1"
         d="m -1133.7768,5186.7302 a 191.5555,232.06023 53.992136 0 1 1.0878,60.7302 19.228811,19.228811 0 0 0 -8.2747,-1.8978 19.228811,19.228811 0 0 0 -19.229,19.229 19.228811,19.228811 0 0 0 10.7902,17.2525 11.116656,13.520257 0 0 0 -8.3864,13.0937 11.116656,13.520257 0 0 0 7.228,12.6485 191.5555,232.06023 53.992136 0 1 -48.0422,70.5426 27.641416,25.838714 0 0 0 -21.1926,-11.306 14.421608,12.318458 0 0 0 -14.3079,-10.8937 14.421608,12.318458 0 0 0 -14.4214,12.3182 14.421608,12.318458 0 0 0 4.7436,9.1126 27.641416,25.838714 0 0 0 -5.345,15.2232 27.641416,25.838714 0 0 0 10.7639,20.4235 191.5555,232.06023 53.992136 0 1 -9.5743,6.6036 191.5555,232.06023 53.992136 0 1 -18.0361,10.7934 l 76.2375,117.9326 144.9235,-224.1844 z m -91.2554,20.8754 a 32.885036,35.317047 23.021748 0 0 -16.1811,4.0503 32.885036,35.317047 23.021748 0 0 -16.1499,47.242 32.885036,35.317047 23.021748 0 0 44.1908,14.5627 32.885036,35.317047 23.021748 0 0 16.1499,-47.2421 32.885036,35.317047 23.021748 0 0 -28.0097,-18.6129 z"
         id="path5793" />
      <path
         inkscape:connector-curvature="0"
         style="opacity:1;fill:none;fill-opacity:1;stroke:#00112b;stroke-width:5.69948;stroke-miterlimit:4;stroke-dasharray:none;stroke-opacity:1"
         d="m -1189.7354,4977.7953 -224.0299,346.5566 224.0299,346.5566 224.02994,-346.5566 z m 0,122.3722 144.9235,224.1844 -144.9235,224.1844 -144.9235,-224.1844 z"
         id="path5795" />
      <ellipse
         style="opacity:1;fill:#d7f4d7;fill-opacity:1;stroke:none;stroke-width:4;stroke-miterlimit:4;stroke-dasharray:none;stroke-opacity:1"
         id="ellipse5797"
         cx="-1434.2032"
         cy="5256.3789"
         rx="0.60090035"
         ry="1.2018007" />
      <path
         inkscape:connector-curvature="0"
         style="opacity:0.615;fill:#d5e5ff;fill-opacity:1;stroke:none;stroke-width:4;stroke-miterlimit:4;stroke-dasharray:none;stroke-opacity:1"
         d="m -1189.7354,5014.6037 -200.2364,309.7482 200.2364,309.7482 200.2364,-309.7482 z m 0,39.0628 174.9839,270.6854 -174.9839,270.6854 -174.9838,-270.6854 z"
         id="path5799" />
    </g>
  </g>
</svg>
