<svg width="275" height="428" xmlns="http://www.w3.org/2000/svg">

 <g id="imagebot_2">
  <g transform="translate(1.25 0) matrix(1 0 0 1 -1.847 0.068)" id="imagebot_99">
   <path stroke="#010101" stroke-width="4" fill="#0000ff" d="M109.68,182.41C100.24,118.83 164.08,114.55 156.9,89.241C149.42,62.917 120.38,70.355 105.28,66.578C90.167,62.801 92.395,48.845 101.5,41.397C108.42,35.731 165.05,32.668 178.3,74.132C196.74,131.81 132.97,127.01 132.97,181.152C132.97,227.182 110.94,182.412 109.68,182.412L109.68,182.41z" id="imagebot_102"/>
   <path fill-opacity="0.3137" fill="#0000ff" d="M162.89,51.663C166.21,55.849 168.93,60.801 170.8,66.632C189.23,124.31 125.48,119.52 125.48,173.662C125.48,192.362 121.82,196.062 117.42,193.882C124.21,203.092 132.98,210.212 132.98,181.162C132.98,127.022 196.73,131.812 178.3,74.132C175.17,64.34 169.63,57.042 162.89,51.665L162.89,51.663z" id="imagebot_101"/>
   <path stroke-linejoin="round" stroke="#010101" stroke-width="4" stroke-linecap="round" fill="#0000ff" d="M81.221,28.314C70.592,29.821 55.991,39.707 56.587,43.346C70.192,39.119 76.835,39.377 84.053,42.634C75.885,45.653 66.788,53.12 65.96,61.157C70.009,58.014 76.359,55.097 83.382,54.46C86.355,54.19 74.924,77.319 78.725,79.964C85.17,67.26 89.983,62.674 97.349,59.766C93.823,67.728 92.844,79.457 98.033,85.651C98.579,80.744 100.76,74.452 104.88,69.096C106.86,66.538 122.54,89.931 126.67,87.834C118.53,76.146 116.76,69.736 117.69,61.871C123.04,68.744 132.9,75.155 140.82,73.513C137.31,71.098 131.71,65.998 128.94,61.001C126.96,57.429 155.2,56.814 155.37,52.187C141.19,53.654 134.73,52.094 128.3,47.48C136.9,46.127 147.29,40.596 149.68,32.879C144.42,35.497 136.26,37.229 128.21,35.529C126.26,35.117 124.31,34.505 122.42,33.654C122.42,33.654 136.68,11.131 132.8,8.6C126.73,21.49 121.37,23.415 114.09,26.54C117.38,18.477 118.7,9.525 113.33,3.487C112.93,8.465 110.89,14.908 106.84,20.425C104.97,22.967 88.707,-0.068 84.643,2.151C93.129,13.594 95.081,19.948 94.393,27.838C88.844,21.127 78.789,15.009 70.93,16.884C77.054,20.845 83.939,27.929 81.221,28.314z" id="imagebot_100"/>
  </g>
  <g transform="translate(1.25 0) matrix(1 0 0 1 -1.847 0.068)" id="imagebot_96">
   <path stroke-linejoin="round" stroke="#010101" stroke-width="2.2041" stroke-linecap="round" fill="#ff0000" d="M261.36,286.91C261.4,355.05 206.2,410.33 138.05,410.38C69.91,410.42 14.63,355.22 14.59,287.07C14.585,287.02 14.585,286.96 14.585,286.91C14.54,218.76 69.745,163.48 137.885,163.44C206.035,163.39 261.315,218.6 261.365,286.74L261.365,286.91L261.36,286.91z" id="imagebot_98"/>
   <path fill-opacity="0.3137" fill="#ff0000" d="M246.14,228.29C249.34,239.26 251.05,250.88 251.05,262.88C251.05,330.99 195.78,386.26 127.67,386.26C80.848,386.26 40.074,360.12 19.17,321.66C34.195,372.86 81.539,410.29 137.58,410.29C205.69,410.29 260.95,355.02 260.95,286.91C260.95,265.7 255.58,245.73 246.14,228.29z" id="imagebot_97"/>
  </g>
  <g transform="translate(1.25 0) translate(-0.597 0.068)" id="imagebot_80">
   <g id="imagebot_89">
    <path stroke-linejoin="round" stroke="#010101" stroke-width="4" stroke-linecap="round" fill="#0000ff" d="M131.99,406.84C131.99,428.38 114.51,427.61 92.961,427.61C80.982,427.61 70.256,427.85 63.095,424.36C57.377,421.57 53.931,416.4 53.931,406.84C53.931,385.29 71.416,367.81 92.961,367.81C114.51,367.81 131.99,385.3 131.99,406.84z" id="imagebot_95"/>
    <path fill-opacity="0.3137" fill="#0000ff" d="M112.98,373.63C117.7,380.11 120.51,388.1 120.51,396.73C120.51,409.19 114.67,420.28 105.6,427.48C120.68,426.9 131.51,423.78 131.51,406.85C131.51,392.82 124.1,380.51 112.98,373.63z" id="imagebot_94"/>
    <g transform="matrix(-1 0 0 1 652.48 -1.8279)" id="imagebot_90">
     <path stroke="#010101" stroke-width="4" stroke-linecap="round" fill="#0000ff" d="M544.83,427.3C541.33,415.96 545.33,402.74 545.33,402.74" id="imagebot_93"/>
     <path stroke="#010101" stroke-width="4" stroke-linecap="round" fill="#0000ff" d="M562.86,429.81C567.15,411.56 562.24,397.08 562.24,397.08" id="imagebot_92"/>
     <path stroke="#010101" stroke-width="4" stroke-linecap="round" fill="#0000ff" d="M581.11,427.92C589.92,414.07 582.37,402.74 582.37,402.74" id="imagebot_91"/>
    </g>
   </g>
   <g id="imagebot_81">
    <path stroke-linejoin="round" stroke="#010101" stroke-width="4" stroke-linecap="round" fill="#0000ff" d="M222.01,406.84C222.01,428.38 204.53,427.61 182.98,427.61C161.44,427.61 143.95,428.38 143.95,406.84S161.44,367.81 182.98,367.81C204.53,367.81 222.01,385.3 222.01,406.84z" id="imagebot_88"/>
    <path fill-opacity="0.3137" fill="#0000ff" d="M203.48,373.63C208.2,380.11 211.01,388.1 211.01,396.73C211.01,409.19 205.17,420.28 196.1,427.48C211.18,426.9 222.01,423.78 222.01,406.85C222.01,392.82 214.6,380.51 203.48,373.63z" id="imagebot_87"/>
    <path fill-opacity="0.3137" fill="#0000ff" d="M149.16,387.35C145.85,393.08 143.95,399.76 143.95,406.85C143.95,424.36 155.5,427.11 171.38,427.54C155.6,420.96 147.58,405.33 149.16,387.35z" id="imagebot_86"/>
    <g transform="translate(-.82294 -1.8279)" id="imagebot_82">
     <path stroke="#010101" stroke-width="4" stroke-linecap="round" fill="#0000ff" d="M169.85,427.3C166.35,415.96 170.35,402.74 170.35,402.74" id="imagebot_85"/>
     <path stroke="#010101" stroke-width="4" stroke-linecap="round" fill="#0000ff" d="M187.88,429.81C192.17,411.56 187.26,397.08 187.26,397.08" id="imagebot_84"/>
     <path stroke="#010101" stroke-width="4" stroke-linecap="round" fill="#0000ff" d="M206.13,427.92C214.94,414.07 207.39,402.74 207.39,402.74" id="imagebot_83"/>
    </g>
   </g>
  </g>
  <g id="imagebot_74" transform="translate(1.25 0) matrix(1 0 0 1 -1.847 0.068)">
   <path stroke-linejoin="round" stroke="#010101" stroke-width="4" stroke-linecap="round" fill="#794522" d="M66.742,153.97C51.777,153.97 39.626,166.12 39.626,181.09C39.626,190.77 44.714,199.26 52.359,204.06C44.276,218.35 39.626,234.84 39.626,252.41C39.626,306.74 83.693,350.85 138.02,350.85C192.35,350.85 236.46,306.74 236.46,252.41C236.46,234.84 231.81,218.35 223.73,204.06C231.36,199.26 236.46,190.76 236.46,181.09C236.46,166.12 224.31,153.97 209.35,153.97C199.67,153.97 191.22,159.08 186.42,166.7C172.12,158.61 155.61,153.97 138.02,153.97C120.44,153.97 103.96,158.61 89.669,166.7C84.872,159.08 76.415,153.97 66.742,153.97z" id="imagebot_79"/>
   <path stroke-linejoin="round" stroke="#010101" stroke-width="4" stroke-linecap="round" fill="#502e18" d="M209.67,165.47C204.23,165.47 199.48,168.34 196.77,172.62C205.09,178.22 212.25,185.38 217.85,193.7C222.12,190.98 224.96,186.19 224.96,180.76C224.96,172.33 218.11,165.47 209.67,165.47z" id="imagebot_78"/>
   <path stroke-linejoin="round" stroke="#010101" stroke-width="4" stroke-linecap="round" fill="#502e18" d="M66.674,165.47C72.112,165.47 76.862,168.34 79.571,172.62C71.254,178.22 64.093,185.38 58.497,193.7C54.228,190.98 51.384,186.19 51.384,180.76C51.384,172.33 58.237,165.47 66.674,165.47z" id="imagebot_77"/>
   <path opacity="0.99" stroke-linejoin="round" stroke="#010101" stroke-linecap="round" stroke-width="4" fill="#794522" d="M210.79,190.94C218.91,176.94 261.66,176.12 264.57,182.76C243.11,188.78 234.6,194.77 227.9,205.19C241.19,202.21 259.49,204.27 267.42,214.12C256.04,213.15 238.94,216.75 227.31,228.69C239.63,231.89 253.89,232.76 258.77,244.9C244.23,241.96 230.23,250.21 230.23,250.21C244.94,243.45 275.35,267.43 273.89,274.53C252.88,267.08 242.48,267.07 230.99,271.72C243.58,276.94 257.34,289.18 258.14,301.8C249.4,294.45 233.36,287.53 216.96,290.58C225.19,300.3 236.33,309.23 233.32,321.96C223.14,311.18 206.09,314.24 206.09,314.24C222.14,316.34 234.38,347.47 229.37,352.71C215.54,335.23 206.73,329.69 194.53,327.52C202.41,338.64 207.56,356.32 201.53,367.43C198.04,356.56 188.13,342.16 172.62,336.03C174.42,348.64 179.11,362.13 169.79,371.31C166.9,356.76 157.48,344.37 157.48,344.37C153.04,356.3 152.71,379.39 140.14,383.01C144.56,368.85 139.93,360.39 137.34,350.32C137.34,350.32 130.1,368.85 134.51,383.01C121.94,379.39 119.62,356.3 115.18,344.37C115.18,344.37 105.57,357.43 102.47,371.93C93.292,362.61 98.184,349.19 100.17,336.62C84.577,342.51 74.449,356.76 70.795,367.58C64.929,356.37 70.345,338.77 78.39,327.77C66.16,329.76 57.271,335.17 43.178,352.44C38.251,347.12 51.143,312.25 67.224,310.4C67.224,310.4 52.799,311.18 42.62,321.96C39.611,309.23 50.757,300.3 58.981,290.58C42.589,287.53 26.54,294.45 17.804,301.8C18.602,289.18 32.366,276.95 44.949,271.72C33.463,267.07 23.059,267.08 2.051,274.53C0.597,267.43 31.004,243.45 45.712,250.22C45.712,250.22 32.314,238.92 17.544,240.27C23.711,228.74 37.98,229.42 50.577,227.57C40.306,214.44 23.692,209.01 12.279,208.74C21.227,199.8 39.644,199.74 52.538,204.15C46.999,193.06 39.194,186.18 18.513,177.87C22.12,171.58 64.535,177.03 71.088,191.84" id="imagebot_76"/>
   <path opacity="0.99" stroke-linejoin="round" stroke="#010101" stroke-linecap="round" stroke-width="4" fill="#794522" d="M82.857,176.92C81.503,166.62 81.343,156.49 71.973,144.99C84.985,143.66 92.395,155.87 100.96,165.29C106.12,149.44 101.34,132.63 95.19,123.01C107.6,125.44 117.94,140.68 121.49,153.84C127.59,143.05 128.93,132.74 124.28,110.94C128.42,110.64 136.49,123.08 141,136.33C144.35,146.19 150.2,110.42 157.43,110.94C152.78,132.74 154.12,143.05 160.22,153.84C163.77,140.68 174.11,125.44 186.52,123.01C180.37,132.63 175.59,149.44 180.75,165.29C189.31,155.87 196.72,143.66 209.74,144.99C200.37,156.49 200.21,166.62 198.85,176.92" id="imagebot_75"/>
  </g>
  <path stroke-linejoin="round" stroke="#010101" stroke-width="2.2041" stroke-linecap="round" fill="#7f007f" d="M212.69,262.89C212.72,304.15 179.29,337.63 138.02,337.65C96.756,337.68 63.282,304.25 63.255,262.99L63.255,262.89C63.227,221.62 96.656,188.15 137.92,188.12C179.18,188.09 212.66,221.52 212.69,262.79L212.69,262.89z" id="imagebot_73" transform="translate(1.25 0) matrix(1 0 0 1 -1.847 0.068)"/>
  <g id="imagebot_62" transform="translate(1.25 0) matrix(1 0 0 1 -1.847 0.068)">
   <g transform="translate(-2.5218 -5.0362)" id="imagebot_70">
    <path stroke-linejoin="round" stroke="#010101" stroke-width="4.2713" stroke-linecap="round" fill="none" d="M194.7,276.53C199.93,296.01 188.34,316.03 168.82,321.25C159.45,323.76 149.46,322.45 141.06,317.6" id="imagebot_72"/>
    <path stroke-linejoin="round" stroke="#010101" stroke-width="4.2713" stroke-linecap="round" fill="none" d="M86.287,276.53C81.057,296.01 92.641,316.03 112.16,321.25C121.53,323.76 131.52,322.45 139.93,317.6" id="imagebot_71"/>
   </g>
   <path fill="#010101" d="M154.67,287.73C154.67,296.56 145,303.72 138.6,303.72C131.71,303.72 122.54,296.56 122.54,287.73S129.73,276.65 138.6,276.65S154.67,278.9 154.67,287.73z" id="imagebot_69"/>
   <g id="imagebot_66">
    <path stroke-linejoin="round" stroke="#010101" stroke-width="9.931" stroke-linecap="round" fill="#ffffff" d="M134.25,241.9C134.26,254.68 123.9,265.05 111.12,265.05C98.347,265.06 87.979,254.71 87.972,241.93L87.972,241.9C87.963,229.12 98.316,218.75 111.1,218.75C123.87,218.74 134.24,229.09 134.25,241.87L134.25,241.9z" id="imagebot_68"/>
    <path fill="#010101" d="M125.21,244.56C125.21,248.53 122,251.74 118.03,251.75C114.06,251.75 110.85,248.54 110.84,244.57L110.84,244.56C110.84,240.6 114.05,237.38 118.02,237.38C121.99,237.37 125.2,240.58 125.21,244.55L125.21,244.56z" id="imagebot_67"/>
   </g>
   <g id="imagebot_63">
    <path stroke-linejoin="round" stroke="#010101" stroke-width="9.931" stroke-linecap="round" fill="#ffffff" d="M187.97,241.9C187.98,254.68 177.63,265.05 164.85,265.05C152.07,265.06 141.7,254.71 141.7,241.93L141.7,241.9C141.69,229.12 152.04,218.75 164.82,218.75C177.6,218.74 187.96,229.09 187.97,241.87L187.97,241.9z" id="imagebot_65"/>
    <path fill="#010101" d="M164.57,244.56C164.57,248.53 161.36,251.74 157.39,251.75C153.42,251.75 150.21,248.54 150.2,244.57L150.2,244.56C150.2,240.6 153.42,237.38 157.38,237.38C161.35,237.37 164.56,240.58 164.57,244.55L164.57,244.56z" id="imagebot_64"/>
   </g>
  </g>
  <g id="imagebot_53" transform="translate(1.25 0) matrix(1 0 0 1 -1.847 0.068)">
   <g transform="translate(0 -10.702)" id="imagebot_58">
    <path stroke="#010101" stroke-width="4" stroke-linecap="round" fill="none" d="M180.61,291.73C225.28,275.12 247.11,295.62 247.11,295.62" id="imagebot_61"/>
    <path stroke="#010101" stroke-width="4" stroke-linecap="round" fill="none" d="M174.2,302.87C205.84,293.91 226.55,316.76 226.55,316.76" id="imagebot_60"/>
    <path stroke="#010101" stroke-width="4" stroke-linecap="round" fill="none" d="M171.57,314.78C195.91,312.2 205.23,333.9 205.23,333.9" id="imagebot_59"/>
   </g>
   <g transform="matrix(-1 0 0 1 651.56 -10.702)" id="imagebot_54">
    <path stroke="#010101" stroke-width="4" stroke-linecap="round" fill="none" d="M550.09,291.73C594.76,275.12 616.59,295.62 616.59,295.62" id="imagebot_57"/>
    <path stroke="#010101" stroke-width="4" stroke-linecap="round" fill="none" d="M543.68,302.87C575.31,293.91 596.03,316.76 596.03,316.76" id="imagebot_56"/>
    <path stroke="#010101" stroke-width="4" stroke-linecap="round" fill="none" d="M541.05,314.78C565.39,312.2 574.7,333.9 574.7,333.9" id="imagebot_55"/>
   </g>
  </g>
  <title/>
 </g>
 <metadata>image/svg+xmlOpenclipartCartoon lion2009-03-13T15:51:09Cartoon lion. Remixed from Lemmling's Cartoon Cat and Cartoon Beaver.https://openclipart.org/detail/22284/cartoon-lion-by-studiofibonacciStudioFibonaccianimalcartooncatlionremix</metadata>
</svg>