<?xml version="1.0" encoding="UTF-8" standalone="no"?>
<svg
   xmlns:dc="http://purl.org/dc/elements/1.1/"
   xmlns:cc="http://creativecommons.org/ns#"
   xmlns:rdf="http://www.w3.org/1999/02/22-rdf-syntax-ns#"
   xmlns:svg="http://www.w3.org/2000/svg"
   xmlns="http://www.w3.org/2000/svg"
   xmlns:sodipodi="http://sodipodi.sourceforge.net/DTD/sodipodi-0.dtd"
   xmlns:inkscape="http://www.inkscape.org/namespaces/inkscape"
   id="svg2"
   inkscape:version="0.91 r13725"
   viewBox="0 0 213.3491 490.01496"
   version="1.1"
   sodipodi:docname="poisonbottle.svg"
   width="213.34909"
   height="490.01495">
  <defs
     id="defs69157">
    <filter
       inkscape:collect="always"
       style="color-interpolation-filters:sRGB"
       id="filter69970"
       x="-0.21970136"
       width="1.4394027"
       y="-0.082515463"
       height="1.165031">
      <feGaussianBlur
         inkscape:collect="always"
         stdDeviation="0.52600171"
         id="feGaussianBlur69972" />
    </filter>
  </defs>
  <sodipodi:namedview
     id="namedview363"
     bordercolor="#666666"
     inkscape:pageshadow="2"
     guidetolerance="10"
     pagecolor="#ffffff"
     gridtolerance="10"
     inkscape:zoom="0.54217847"
     inkscape:window-maximized="1"
     objecttolerance="10"
     inkscape:window-height="1035"
     showgrid="false"
     borderopacity="1"
     inkscape:current-layer="g4"
     inkscape:cx="114.362"
     inkscape:cy="150.19251"
     inkscape:window-y="1"
     inkscape:window-x="4"
     inkscape:window-width="1916"
     inkscape:pageopacity="0"
     fit-margin-top="0"
     fit-margin-left="0"
     fit-margin-right="0"
     fit-margin-bottom="0" />
  <g
     id="g4"
     transform="matrix(12.69482,0,0,12.681712,-18.115567,-85.950355)">
    <linearGradient
       id="a"
       y2="775.90002"
       gradientUnits="userSpaceOnUse"
       x2="207.3"
       gradientTransform="matrix(0.85,0,0,0.85,-158.35,-627.2)"
       y1="775.90002"
       x1="188.10001">
      <stop
         id="stop7"
         stop-color="#fff"
         stop-opacity=".298"
         offset="0" />
      <stop
         id="stop9"
         stop-color="#ABD9DB"
         stop-opacity=".549"
         offset="1" />
    </linearGradient>
    <radialGradient
       id="b"
       gradientUnits="userSpaceOnUse"
       cy="778"
       cx="197.91"
       gradientTransform="matrix(0.85,0,0,-0.85,-158.35,695.36)"
       r="11.165">
      <stop
         id="stop14"
         stop-color="#62A713"
         stop-opacity=".667"
         offset="0" />
      <stop
         id="stop16"
         stop-color="#53900F"
         stop-opacity=".847"
         offset=".988" />
    </radialGradient>
    <radialGradient
       id="c"
       gradientUnits="userSpaceOnUse"
       cy="566.94"
       cx="546.53003"
       gradientTransform="matrix(0.74,0.419,0.419,-0.74,-633.1,211.52)"
       r="9.8959999">
      <stop
         id="stop23"
         stop-color="#94F822"
         stop-opacity=".667"
         offset="0" />
      <stop
         id="stop25"
         stop-color="#62A713"
         stop-opacity=".847"
         offset=".988" />
    </radialGradient>
    <radialGradient
       id="d"
       gradientUnits="userSpaceOnUse"
       cy="220.64"
       cx="778.84998"
       gradientTransform="matrix(0.422,0.738,0.738,-0.422,-484.01,-441.11)"
       r="2.016">
      <stop
         id="stop30"
         stop-color="#fff"
         offset="0" />
      <stop
         id="stop32"
         stop-color="#DEE9AB"
         offset=".165" />
      <stop
         id="stop34"
         stop-color="#7F9447"
         stop-opacity=".847"
         offset=".859" />
      <stop
         id="stop36"
         stop-color="#D8EBBA"
         stop-opacity=".847"
         offset="1" />
    </radialGradient>
    <radialGradient
       id="e"
       gradientUnits="userSpaceOnUse"
       cy="214.75"
       cx="783.58002"
       gradientTransform="matrix(0.421,0.738,0.738,-0.421,-475.42,-446.26)"
       r="2.648">
      <stop
         id="stop41"
         stop-color="#fff"
         offset="0" />
      <stop
         id="stop43"
         stop-color="#DEE9AB"
         offset=".165" />
      <stop
         id="stop45"
         stop-color="#7F9447"
         stop-opacity=".847"
         offset=".859" />
      <stop
         id="stop47"
         stop-color="#D8EBBA"
         stop-opacity=".847"
         offset="1" />
    </radialGradient>
    <radialGradient
       id="f"
       gradientUnits="userSpaceOnUse"
       cy="203.73"
       cx="773.21002"
       gradientTransform="matrix(0.42,0.739,0.739,-0.42,-459.41,-456.01)"
       r="1.467">
      <stop
         id="stop52"
         stop-color="#fff"
         offset="0" />
      <stop
         id="stop54"
         stop-color="#DEE9AB"
         offset=".165" />
      <stop
         id="stop56"
         stop-color="#7F9447"
         stop-opacity=".847"
         offset=".859" />
      <stop
         id="stop58"
         stop-color="#D8EBBA"
         stop-opacity=".847"
         offset="1" />
    </radialGradient>
    <radialGradient
       id="g"
       gradientUnits="userSpaceOnUse"
       cy="-248.86"
       cx="746.88"
       gradientTransform="matrix(-0.063,0.848,1.436,0.106,409.92,-585.18)"
       r="1.429">
      <stop
         id="stop63"
         stop-color="#fff"
         offset="0" />
      <stop
         id="stop65"
         stop-color="#DEE9AB"
         offset=".165" />
      <stop
         id="stop67"
         stop-color="#7F9447"
         stop-opacity=".847"
         offset=".859" />
      <stop
         id="stop69"
         stop-color="#D8EBBA"
         stop-opacity=".847"
         offset="1" />
    </radialGradient>
    <radialGradient
       id="h"
       gradientUnits="userSpaceOnUse"
       cy="-249.71001"
       cx="747.59998"
       gradientTransform="matrix(-0.057,0.848,1.428,0.115,409.88,-581.54)"
       r="1.666">
      <stop
         id="stop74"
         stop-color="#fff"
         offset="0" />
      <stop
         id="stop76"
         stop-color="#DEE9AB"
         offset=".165" />
      <stop
         id="stop78"
         stop-color="#7F9447"
         stop-opacity=".847"
         offset=".859" />
      <stop
         id="stop80"
         stop-color="#D8EBBA"
         stop-opacity=".847"
         offset="1" />
    </radialGradient>
    <radialGradient
       id="i"
       gradientUnits="userSpaceOnUse"
       cy="-255.85001"
       cx="746.94"
       gradientTransform="matrix(-0.061,0.848,1.812,0.131,522.19,-578.16)"
       r="1.178">
      <stop
         id="stop85"
         stop-color="#fff"
         offset="0" />
      <stop
         id="stop87"
         stop-color="#DEE9AB"
         offset=".165" />
      <stop
         id="stop89"
         stop-color="#7F9447"
         stop-opacity=".847"
         offset=".859" />
      <stop
         id="stop91"
         stop-color="#D8EBBA"
         stop-opacity=".847"
         offset="1" />
    </radialGradient>
    <linearGradient
       id="j"
       y2="775.84998"
       gradientUnits="userSpaceOnUse"
       x2="196.47"
       gradientTransform="matrix(0.85,0,0,0.85,-158.35,-627.2)"
       y1="775.84998"
       x1="189.72">
      <stop
         id="stop96"
         stop-color="#fff"
         stop-opacity=".639"
         offset="0" />
      <stop
         id="stop98"
         stop-color="#fff"
         stop-opacity="0"
         offset="1" />
    </linearGradient>
    <linearGradient
       id="k"
       y2="775.88"
       gradientUnits="userSpaceOnUse"
       x2="197.71001"
       gradientTransform="matrix(0.85,0,0,0.85,-158.35,-627.2)"
       y1="775.88"
       x1="187.99001">
      <stop
         id="stop103"
         stop-color="#fff"
         offset="0" />
      <stop
         id="stop105"
         stop-color="#ABD9DB"
         offset="1" />
    </linearGradient>
    <linearGradient
       id="l"
       y2="775.88"
       gradientUnits="userSpaceOnUse"
       x2="207.73"
       gradientTransform="matrix(0.85,0,0,0.85,-158.35,-627.2)"
       y1="775.88"
       x1="197.88">
      <stop
         id="stop110"
         stop-color="#fff"
         offset="0" />
      <stop
         id="stop112"
         stop-color="#ABD9DB"
         offset="1" />
    </linearGradient>
    <linearGradient
       id="m"
       y2="763.96997"
       gradientUnits="userSpaceOnUse"
       x2="200.17"
       gradientTransform="matrix(0.85,0,0,0.85,-158.35,-627.2)"
       y1="763.96997"
       x1="190.03">
      <stop
         id="stop117"
         stop-color="#fff"
         stop-opacity=".639"
         offset="0" />
      <stop
         id="stop119"
         stop-color="#fff"
         stop-opacity="0"
         offset="1" />
    </linearGradient>
    <linearGradient
       id="n"
       y2="789.73999"
       gradientUnits="userSpaceOnUse"
       x2="200.28"
       gradientTransform="matrix(0.85,0,0,0.85,-158.35,-627.2)"
       y1="789.73999"
       x1="191.53">
      <stop
         id="stop124"
         stop-color="#fff"
         stop-opacity=".639"
         offset="0" />
      <stop
         id="stop126"
         stop-color="#fff"
         stop-opacity="0"
         offset="1" />
    </linearGradient>
    <linearGradient
       id="o"
       y2="-763.70001"
       gradientUnits="userSpaceOnUse"
       x2="-202.73"
       gradientTransform="matrix(-0.85,0,0,-0.85,-158.35,-627.2)"
       y1="-763.70001"
       x1="-205.58">
      <stop
         id="stop131"
         stop-color="#fff"
         stop-opacity=".639"
         offset="0" />
      <stop
         id="stop133"
         stop-color="#fff"
         stop-opacity="0"
         offset="1" />
    </linearGradient>
    <linearGradient
       id="p"
       y2="786.40997"
       gradientUnits="userSpaceOnUse"
       x2="196.39999"
       gradientTransform="matrix(0.85,0,0,0.85,-158.35,-627.2)"
       y1="786.40997"
       x1="189.39999">
      <stop
         id="stop138"
         stop-color="#fff"
         stop-opacity=".639"
         offset="0" />
      <stop
         id="stop140"
         stop-color="#fff"
         stop-opacity="0"
         offset="1" />
    </linearGradient>
    <linearGradient
       id="q"
       y2="-785.91998"
       gradientUnits="userSpaceOnUse"
       x2="-203.82001"
       gradientTransform="matrix(-0.85,0,0,-0.85,-158.35,-627.2)"
       y1="-785.91998"
       x1="-206.88">
      <stop
         id="stop145"
         stop-color="#fff"
         stop-opacity=".639"
         offset="0" />
      <stop
         id="stop147"
         stop-color="#fff"
         stop-opacity="0"
         offset="1" />
    </linearGradient>
    <linearGradient
       id="r"
       y2="758.34998"
       gradientUnits="userSpaceOnUse"
       x2="202.91"
       gradientTransform="matrix(0.85,0,0,0.85,-158.35,-627.2)"
       y1="758.34998"
       x1="192.59">
      <stop
         id="stop152"
         stop-color="#fff"
         stop-opacity=".298"
         offset="0" />
      <stop
         id="stop154"
         stop-color="#ABD9DB"
         stop-opacity=".549"
         offset="1" />
    </linearGradient>
    <linearGradient
       id="s"
       y2="760.89001"
       gradientUnits="userSpaceOnUse"
       x2="197.88"
       gradientTransform="matrix(0.85,0,0,0.85,-158.35,-627.2)"
       y1="760.89001"
       x1="193.33">
      <stop
         id="stop159"
         stop-color="#fff"
         stop-opacity=".639"
         offset="0" />
      <stop
         id="stop161"
         stop-color="#fff"
         stop-opacity="0"
         offset="1" />
    </linearGradient>
    <linearGradient
       id="t"
       y2="-785.44"
       gradientUnits="userSpaceOnUse"
       x2="42.300999"
       gradientTransform="matrix(-0.809,0.261,-0.261,-0.809,-158.35,-627.2)"
       y1="-785.44"
       x1="40.673">
      <stop
         id="stop166"
         stop-color="#fff"
         stop-opacity=".639"
         offset="0" />
      <stop
         id="stop168"
         stop-color="#fff"
         stop-opacity="0"
         offset="1" />
    </linearGradient>
    <linearGradient
       id="u"
       y2="756.08002"
       gradientUnits="userSpaceOnUse"
       x2="205.62"
       gradientTransform="matrix(0.85,0,0,0.85,-158.35,-627.2)"
       y1="756.08002"
       x1="190.10001">
      <stop
         id="stop173"
         stop-color="#fff"
         stop-opacity=".298"
         offset="0" />
      <stop
         id="stop175"
         stop-color="#ABD9DB"
         stop-opacity=".549"
         offset="1" />
    </linearGradient>
    <linearGradient
       id="v"
       y2="756"
       gradientUnits="userSpaceOnUse"
       x2="205.64"
       gradientTransform="matrix(0.85,0,0,0.85,-158.35,-627.2)"
       y1="756"
       x1="197.86">
      <stop
         id="stop180"
         stop-color="#fff"
         offset="0" />
      <stop
         id="stop182"
         stop-color="#ABD9DB"
         offset="1" />
    </linearGradient>
    <linearGradient
       id="w"
       y2="755.98999"
       gradientUnits="userSpaceOnUse"
       x2="197.53"
       gradientTransform="matrix(0.85,0,0,0.85,-158.35,-627.2)"
       y1="755.98999"
       x1="190.08">
      <stop
         id="stop187"
         stop-color="#fff"
         offset="0" />
      <stop
         id="stop189"
         stop-color="#ABD9DB"
         offset="1" />
    </linearGradient>
    <linearGradient
       id="x"
       y2="757.02002"
       gradientUnits="userSpaceOnUse"
       x2="197.03"
       gradientTransform="matrix(0.85,0,0,0.85,-158.35,-627.2)"
       y1="757.02002"
       x1="191.78">
      <stop
         id="stop194"
         stop-color="#fff"
         stop-opacity=".639"
         offset="0" />
      <stop
         id="stop196"
         stop-color="#fff"
         stop-opacity="0"
         offset="1" />
    </linearGradient>
    <linearGradient
       id="y"
       y2="756.77002"
       gradientUnits="userSpaceOnUse"
       x2="201.19"
       gradientTransform="matrix(0.85,0,0,0.85,-158.35,-627.2)"
       y1="756.77002"
       x1="204.00999">
      <stop
         id="stop201"
         stop-color="#fff"
         stop-opacity=".639"
         offset="0" />
      <stop
         id="stop203"
         stop-color="#fff"
         stop-opacity="0"
         offset="1" />
    </linearGradient>
    <linearGradient
       id="z"
       y2="-7.1500001"
       gradientUnits="userSpaceOnUse"
       x2="-12.925"
       gradientTransform="scale(-1,-1)"
       y1="-7.1500001"
       x1="-16.275">
      <stop
         id="stop208"
         stop-color="#C1A064"
         offset="0" />
      <stop
         id="stop210"
         stop-color="#706341"
         offset="1" />
    </linearGradient>
    <linearGradient
       id="A"
       y2="-7.6890001"
       gradientUnits="userSpaceOnUse"
       x2="-14.025"
       gradientTransform="scale(-1,-1)"
       y1="-7.6890001"
       x1="-14.775">
      <stop
         id="stop217"
         stop-color="#C1A064"
         offset="0" />
      <stop
         id="stop219"
         stop-color="#706341"
         offset="1" />
    </linearGradient>
    <linearGradient
       id="B"
       y2="11.985"
       gradientUnits="userSpaceOnUse"
       x2="-9.7069998"
       gradientTransform="matrix(-0.11,-0.994,0.994,-0.11,0,-0.001)"
       y1="11.985"
       x1="-11.065">
      <stop
         id="stop226"
         stop-color="#C1A064"
         offset="0" />
      <stop
         id="stop228"
         stop-color="#706341"
         offset="1" />
    </linearGradient>
    <linearGradient
       id="C"
       y2="11.832"
       gradientUnits="userSpaceOnUse"
       x2="-9.7399998"
       gradientTransform="matrix(-0.11,-0.994,0.994,-0.11,0,-0.001)"
       y1="11.832"
       x1="-11.098">
      <stop
         id="stop237"
         stop-color="#C1A064"
         offset="0" />
      <stop
         id="stop239"
         stop-color="#706341"
         offset="1" />
    </linearGradient>
    <linearGradient
       id="D"
       y2="-7.2750001"
       gradientUnits="userSpaceOnUse"
       x2="-10.55"
       gradientTransform="scale(-1,-1)"
       y1="-7.2750001"
       x1="-11.05">
      <stop
         id="stop248"
         stop-color="#C1A064"
         offset="0" />
      <stop
         id="stop250"
         stop-color="#706341"
         offset="1" />
    </linearGradient>
    <linearGradient
       id="E"
       y2="9.9899998"
       gradientUnits="userSpaceOnUse"
       x2="-11.17"
       gradientTransform="matrix(-0.108,-0.994,0.994,-0.108,0,-0.001)"
       y1="9.9899998"
       x1="-12.327">
      <stop
         id="stop257"
         stop-color="#C1A064"
         offset="0" />
      <stop
         id="stop259"
         stop-color="#706341"
         offset="1" />
    </linearGradient>
    <linearGradient
       id="F"
       y2="11.309"
       gradientUnits="userSpaceOnUse"
       x2="-13.234"
       gradientTransform="matrix(-0.114,-0.994,0.994,-0.114,0,0.001)"
       y1="11.309"
       x1="-14.114">
      <stop
         id="stop264"
         stop-color="#C1A064"
         offset="0" />
      <stop
         id="stop266"
         stop-color="#706341"
         offset="1" />
    </linearGradient>
    <linearGradient
       id="G"
       y2="13.319"
       gradientUnits="userSpaceOnUse"
       x2="-12.189"
       gradientTransform="matrix(-0.107,-0.994,0.994,-0.107,0,0)"
       y1="13.319"
       x1="-13.12">
      <stop
         id="stop271"
         stop-color="#C1A064"
         offset="0" />
      <stop
         id="stop273"
         stop-color="#706341"
         offset="1" />
    </linearGradient>
    <linearGradient
       id="H"
       y2="3.484"
       gradientUnits="userSpaceOnUse"
       x2="-12.517"
       gradientTransform="matrix(-0.129,-0.992,0.992,-0.129,0,0)"
       y1="3.484"
       x1="-13.097">
      <stop
         id="stop278"
         stop-color="#C1A064"
         offset="0" />
      <stop
         id="stop280"
         stop-color="#706341"
         offset="1" />
    </linearGradient>
    <linearGradient
       id="I"
       y2="-8.1120005"
       gradientUnits="userSpaceOnUse"
       x2="-8.7869997"
       gradientTransform="scale(-1,-1)"
       y1="-8.1120005"
       x1="-10.312">
      <stop
         id="stop285"
         stop-color="#C1A064"
         offset="0" />
      <stop
         id="stop287"
         stop-color="#706341"
         offset="1" />
    </linearGradient>
    <linearGradient
       id="J"
       y2="-7.5250001"
       gradientUnits="userSpaceOnUse"
       x2="-6.7750001"
       gradientTransform="scale(-1,-1)"
       y1="-7.5250001"
       x1="-9.0249996">
      <stop
         id="stop292"
         stop-color="#C1A064"
         offset="0" />
      <stop
         id="stop294"
         stop-color="#706341"
         offset="1" />
    </linearGradient>
    <linearGradient
       id="K"
       y2="4.7659998"
       gradientUnits="userSpaceOnUse"
       x2="-10.133"
       gradientTransform="matrix(-0.114,-0.994,0.994,-0.114,0,0.001)"
       y1="4.7659998"
       x1="-11.894">
      <stop
         id="stop299"
         stop-color="#C1A064"
         offset="0" />
      <stop
         id="stop301"
         stop-color="#706341"
         offset="1" />
    </linearGradient>
    <linearGradient
       id="L"
       y2="5.1100001"
       gradientUnits="userSpaceOnUse"
       x2="-12.372"
       gradientTransform="matrix(-0.118,-0.993,0.993,-0.118,0,0)"
       y1="5.1100001"
       x1="-13.429">
      <stop
         id="stop306"
         stop-color="#C1A064"
         offset="0" />
      <stop
         id="stop308"
         stop-color="#706341"
         offset="1" />
    </linearGradient>
    <linearGradient
       id="M"
       y2="6.7199998"
       gradientUnits="userSpaceOnUse"
       x2="-11.375"
       gradientTransform="matrix(-0.118,-0.993,0.993,-0.118,0,0)"
       y1="6.7199998"
       x1="-13.49">
      <stop
         id="stop313"
         stop-color="#C1A064"
         offset="0" />
      <stop
         id="stop315"
         stop-color="#706341"
         offset="1" />
    </linearGradient>
    <linearGradient
       id="N"
       y2="8.4530001"
       gradientUnits="userSpaceOnUse"
       x2="-14.787"
       gradientTransform="matrix(-0.1,-0.995,0.995,-0.1,0,-0.001)"
       y1="8.4530001"
       x1="-15.541">
      <stop
         id="stop320"
         stop-color="#C1A064"
         offset="0" />
      <stop
         id="stop322"
         stop-color="#706341"
         offset="1" />
    </linearGradient>
    <linearGradient
       id="O"
       y2="9.6820002"
       gradientUnits="userSpaceOnUse"
       x2="-13.474"
       gradientTransform="matrix(-0.115,-0.993,0.993,-0.115,0,0)"
       y1="9.6820002"
       x1="-14.128">
      <stop
         id="stop327"
         stop-color="#C1A064"
         offset="0" />
      <stop
         id="stop329"
         stop-color="#706341"
         offset="1" />
    </linearGradient>
    <linearGradient
       id="P"
       y2="775.42999"
       gradientUnits="userSpaceOnUse"
       x2="205.58"
       gradientTransform="matrix(0.85,0.005,0,0.85,-158.35,-627.2)"
       y1="775.42999"
       x1="189.23">
      <stop
         id="stop334"
         stop-color="#F8ECC6"
         offset="0" />
      <stop
         id="stop336"
         stop-color="#F7EBC5"
         offset=".008" />
      <stop
         id="stop338"
         stop-color="#DFD3AB"
         offset=".196" />
      <stop
         id="stop340"
         stop-color="#D1C49B"
         offset=".365" />
      <stop
         id="stop342"
         stop-color="#CCBF95"
         offset=".498" />
      <stop
         id="stop344"
         stop-color="#D0C49B"
         offset=".624" />
      <stop
         id="stop346"
         stop-color="#DDD1AA"
         offset=".78" />
      <stop
         id="stop348"
         stop-color="#F2E7C4"
         offset=".957" />
      <stop
         id="stop350"
         stop-color="#F8EDCB"
         offset="1" />
    </linearGradient>
    <linearGradient
       id="Q"
       y2="537.19"
       gradientUnits="userSpaceOnUse"
       x2="552.14001"
       gradientTransform="matrix(0.708,0.47,-0.402,0.753,-158.35,-627.2)"
       y1="537.19"
       x1="535.17999">
      <stop
         id="stop355"
         stop-color="#53781D"
         offset="0" />
      <stop
         id="stop357"
         stop-color="#62A713"
         offset="1" />
    </linearGradient>
    <g
       id="g69974">
      <path
         inkscape:connector-curvature="0"
         style="fill:#deffff;fill-opacity:1;fill-rule:evenodd"
         d="m 5.695,14.276 c 0,-0.34 0.354,-0.637 1.063,-0.892 0.736,-0.256 1.644,-0.383 2.72,-0.383 l 0.34,0.05 0.34,-0.04 c 1.077,0 1.983,0.128 2.72,0.384 0.71,0.255 1.064,0.55 1.064,0.89 0,2.24 0.042,3.585 0.127,4.04 0.08,0.396 0.17,0.82 0.25,1.274 0.052,0.31 0.04,0.55 -0.048,0.72 -0.453,0.85 -1.756,1.334 -3.91,1.447 l -1.1,0 C 7.051,21.651 5.761,21.17 5.391,20.32 5.307,20.15 5.291,19.91 5.349,19.6 5.435,19.145 5.506,18.72 5.562,18.323 5.648,17.871 5.69,16.523 5.69,14.286 Z"
         id="path156" />
      <path
         inkscape:connector-curvature="0"
         style="fill:#e4f4f4;fill-rule:evenodd;fill-opacity:1"
         d="m 7.395,19.164 4.845,0 c 0.34,0.028 0.794,0.113 1.36,0.255 0.935,0.22 1.827,0.63 2.677,1.23 0.935,0.65 1.402,1.23 1.402,1.74 l 0.55,15.38 c 0,0.71 -0.13,1.642 -0.39,2.804 -0.313,1.36 -0.68,2.324 -1.105,2.89 -0.31,0.37 -1.147,0.78 -2.508,1.232 -1.53,0.48 -3.047,0.722 -4.548,0.722 C 8.232,45.387 6.772,45.133 5.298,44.651 3.995,44.228 3.201,43.831 2.918,43.461 2.493,42.925 2.125,41.961 1.814,40.571 1.558,39.439 1.43,38.505 1.43,37.768 L 1.94,22.383 c 0,-0.51 0.467,-1.09 1.402,-1.74 0.85,-0.596 1.74,-1.007 2.677,-1.23 0.57,-0.145 1.02,-0.23 1.36,-0.258 z"
         id="path11" />
      <path
         inkscape:connector-curvature="0"
         style="fill:url(#b);fill-rule:evenodd"
         d="m 2.72,23.243 1.19,0.936 c 1.275,0.62 3.06,0.93 5.355,0.93 2.72,0 4.815,-0.34 6.29,-1.02 0.736,-0.37 1.203,-0.728 1.4,-1.068 l 0.3,6.8 c 0.197,4.675 0.27,7.44 0.21,8.287 -0.083,1.39 -0.622,3.16 -1.613,5.313 -0.142,0.285 -0.48,0.568 -1.02,0.85 -1.077,0.57 -2.635,0.853 -4.676,0.853 -2.04,0 -3.71,-0.283 -5.015,-0.85 l -1.36,-0.85 c -0.7,-1.36 -1.13,-2.438 -1.27,-3.23 L 2.26,38.2 2.73,23.24 Z"
         id="path18" />
      <path
         inkscape:connector-curvature="0"
         style="fill:#85e01d;fill-rule:evenodd"
         d="m 9.902,26.176 c -1.983,0 -3.684,-0.255 -5.1,-0.765 -1.417,-0.51 -2.125,-1.11 -2.125,-1.82 l 0.042,-0.13 c 0.11,0.627 0.86,1.15 2.25,1.57 1.39,0.43 3.03,0.64 4.93,0.64 1.92,0 3.58,-0.21 4.97,-0.64 1.39,-0.422 2.14,-0.95 2.25,-1.57 l 0,0.13 c 0,0.707 -0.71,1.316 -2.127,1.826 -1.388,0.51 -3.088,0.77 -5.1,0.77 z"
         id="path20" />
      <path
         inkscape:connector-curvature="0"
         style="fill:url(#c);fill-rule:evenodd"
         d="m 9.902,20.99 c 1.983,0 3.684,0.228 5.1,0.682 1.417,0.453 2.126,1.005 2.126,1.657 0,0.652 -0.71,1.2 -2.125,1.65 -1.417,0.45 -3.117,0.68 -5.1,0.68 -1.983,0 -3.685,-0.23 -5.1,-0.68 -1.418,-0.456 -2.126,-1.01 -2.126,-1.66 0,-0.624 0.708,-1.176 2.125,-1.658 1.417,-0.456 3.117,-0.68 5.1,-0.68 z"
         id="path27" />
      <path
         inkscape:connector-curvature="0"
         style="fill:url(#d);fill-rule:evenodd"
         d="m 8.415,41.05 c 0,0.34 -0.113,0.624 -0.34,0.85 -0.227,0.226 -0.496,0.34 -0.808,0.34 -0.31,0 -0.594,-0.112 -0.85,-0.34 -0.227,-0.226 -0.34,-0.51 -0.34,-0.85 0,-0.312 0.113,-0.58 0.34,-0.807 0.255,-0.227 0.54,-0.34 0.85,-0.34 0.313,0 0.58,0.113 0.808,0.34 0.228,0.227 0.34,0.495 0.34,0.808 z"
         id="path38" />
      <path
         inkscape:connector-curvature="0"
         style="fill:url(#e);fill-rule:evenodd"
         d="m 13.217,40.753 c 0.426,0 0.794,0.156 1.106,0.468 0.282,0.29 0.425,0.64 0.425,1.07 0,0.43 -0.143,0.796 -0.425,1.108 -0.313,0.28 -0.68,0.425 -1.106,0.425 -0.426,0 -0.778,-0.143 -1.063,-0.425 -0.31,-0.315 -0.467,-0.683 -0.467,-1.107 0,-0.424 0.156,-0.78 0.467,-1.062 0.284,-0.31 0.638,-0.467 1.063,-0.467 z"
         id="path49" />
      <path
         inkscape:connector-curvature="0"
         style="fill:url(#f);fill-rule:evenodd"
         d="m 16.83,30 c 0,0.256 -0.085,0.47 -0.255,0.64 -0.17,0.14 -0.37,0.21 -0.596,0.21 -0.57,0 -0.85,-0.282 -0.85,-0.85 0,-0.226 0.08,-0.424 0.25,-0.594 0.17,-0.17 0.37,-0.255 0.59,-0.255 0.22,0 0.424,0.09 0.595,0.26 0.17,0.17 0.254,0.37 0.254,0.6 z"
         id="path60" />
      <path
         inkscape:connector-curvature="0"
         style="fill:url(#g);fill-rule:evenodd"
         d="m 5.695,22.648 c -0.51,0 -0.864,-0.1 -1.063,-0.297 0.142,-0.62 0.51,-0.93 1.104,-0.93 0.652,0.06 1.02,0.43 1.105,1.11 -0.42,0.114 -0.8,0.157 -1.14,0.128 z"
         id="path71" />
      <path
         inkscape:connector-curvature="0"
         style="fill:url(#h);fill-rule:evenodd"
         d="m 10.242,25.156 c -0.538,0 -0.977,-0.114 -1.317,-0.34 0.086,-0.312 0.255,-0.58 0.51,-0.808 0.256,-0.198 0.54,-0.298 0.85,-0.298 0.313,0.028 0.58,0.156 0.808,0.383 0.256,0.255 0.397,0.553 0.426,0.893 -0.29,0.142 -0.71,0.2 -1.28,0.17 z"
         id="path82" />
      <path
         inkscape:connector-curvature="0"
         style="fill:url(#i);fill-rule:evenodd"
         d="m 12.878,22.648 c -0.34,-0.028 -0.737,-0.113 -1.19,-0.255 0.198,-0.51 0.595,-0.765 1.19,-0.765 0.68,0.057 1.063,0.354 1.146,0.893 -0.338,0.12 -0.72,0.16 -1.146,0.13 z"
         id="path93" />
      <path
         inkscape:connector-curvature="0"
         style="fill:#deffff;fill-opacity:1;fill-rule:evenodd"
         d="m 6.036,19.42 c 0.54,-0.137 1.043,-0.214 1.508,-0.235 -0.37,0.03 -0.786,0.106 -1.253,0.234 -0.85,0.22 -1.67,0.63 -2.46,1.23 -0.85,0.65 -1.27,1.23 -1.27,1.74 l -0.51,15.38 c 0,0.71 0.128,1.642 0.384,2.804 0.283,1.36 0.608,2.324 0.977,2.89 0.256,0.37 0.993,0.766 2.21,1.19 1.04,0.36 2.07,0.596 3.083,0.7 -1.12,-0.096 -2.248,-0.33 -3.38,-0.7 C 4.021,44.228 3.227,43.833 2.945,43.463 2.519,42.925 2.151,41.963 1.84,40.573 1.585,39.439 1.457,38.505 1.457,37.768 l 0.51,-15.385 c 0,-0.51 0.47,-1.09 1.404,-1.74 0.847,-0.594 1.74,-1.004 2.675,-1.23 z"
         id="path107" />
      <path
         inkscape:connector-curvature="0"
         style="fill:url(#l);fill-rule:evenodd"
         d="m 12.134,19.185 c 0.448,0.024 0.938,0.102 1.466,0.234 0.936,0.22 1.828,0.63 2.678,1.23 0.935,0.65 1.402,1.23 1.402,1.74 l 0.553,15.38 c 0,0.71 -0.128,1.642 -0.383,2.804 -0.312,1.36 -0.68,2.324 -1.104,2.89 -0.312,0.37 -1.12,0.766 -2.422,1.19 -1.178,0.37 -2.34,0.604 -3.486,0.7 1.035,-0.104 2.083,-0.34 3.146,-0.7 1.22,-0.425 1.97,-0.82 2.253,-1.19 0.396,-0.538 0.736,-1.5 1.02,-2.89 0.227,-1.134 0.34,-2.068 0.34,-2.805 L 17.13,22.388 c 0,-0.51 -0.426,-1.09 -1.275,-1.74 -0.82,-0.596 -1.657,-1.007 -2.508,-1.23 -0.427,-0.13 -0.83,-0.208 -1.213,-0.237 z"
         id="path114" />
      <path
         inkscape:connector-curvature="0"
         style="fill:url(#m);fill-rule:evenodd"
         d="M 4.335,23.2 C 3.428,22.832 3.06,22.464 3.23,22.097 3.626,21.7 3.88,21.402 3.995,21.203 c 0.17,-0.254 0.58,-0.51 1.233,-0.764 0.34,-0.12 0.65,-0.22 0.935,-0.3 l 1.104,0.25 c 0.71,0.2 0.95,0.44 0.723,0.72 -0.34,0.452 0.793,0.98 3.4,1.57 l -1.743,0.085 c -1.304,0.084 -1.998,0.14 -2.082,0.17 -0.48,0.057 -0.61,0.17 -0.383,0.34 0.34,0.255 1.884,0.553 4.633,0.893 l -1.658,0 c -2.323,0 -4.263,-0.325 -5.822,-0.977 z"
         id="path121" />
      <path
         inkscape:connector-curvature="0"
         style="fill:url(#n);fill-rule:evenodd"
         d="m 6.8,43.855 c 1.474,0.51 3.174,0.666 5.1,0.468 -0.878,0.425 -2.21,0.524 -3.995,0.298 -1.53,-0.19 -2.564,-0.45 -3.102,-0.76 -0.453,-0.28 -0.496,-0.44 -0.127,-0.463 0.396,-0.056 1.104,0.1 2.124,0.467 z"
         id="path128" />
      <path
         inkscape:connector-curvature="0"
         style="fill:url(#o);fill-rule:evenodd"
         d="m 12.665,20.31 0.85,-0.17 0.936,0.3 c 0.63,0.254 1.02,0.51 1.19,0.763 0.15,0.2 0.41,0.497 0.81,0.894 0.17,0.368 -0.2,0.736 -1.1,1.104 l -1.485,0.51 c 0.227,-0.62 0.227,-1.26 0,-1.91 -0.23,-0.65 -0.625,-1.14 -1.19,-1.48 z"
         id="path135" />
      <path
         inkscape:connector-curvature="0"
         style="fill:url(#p);fill-rule:evenodd"
         d="M 4.08,42.708 3.273,42.41 3.103,41.815 C 2.961,41.419 2.833,40.965 2.72,40.455 2.606,39.805 2.592,39.393 2.678,39.223 c 0.085,-0.14 0.227,-0.155 0.425,-0.042 0.51,0.29 1.077,0.53 1.7,0.73 1.247,0.37 2.508,0.556 3.783,0.556 -0.624,0.056 -1.162,0.113 -1.615,0.17 -0.87,0.11 -1.37,0.283 -1.48,0.51 -0.252,0.425 -0.17,0.936 0.257,1.53 0.2,0.283 0.383,0.51 0.553,0.68 -0.794,-0.2 -1.53,-0.412 -2.21,-0.64 z"
         id="path142" />
      <path
         inkscape:connector-curvature="0"
         style="fill:url(#q);fill-rule:evenodd"
         d="m 17.212,38.543 0.383,0 c 0,0.878 -0.227,1.687 -0.68,2.422 -0.227,0.426 -0.524,0.864 -0.893,1.318 -0.085,0.113 -0.283,0.312 -0.595,0.595 -0.074,0.073 -0.138,0.146 -0.192,0.212 0.048,-0.145 0.083,-0.315 0.106,-0.51 0,-0.51 0.02,-0.863 0.05,-1.062 l 0,-0.85 c 0.03,-0.256 0.018,-0.412 -0.04,-0.468 -0.027,-0.057 -0.17,-0.1 -0.424,-0.128 -0.623,0.057 -1.09,0.057 -1.402,0 0.2,-0.142 0.497,-0.27 0.894,-0.383 0.198,-0.06 0.496,-0.16 0.893,-0.3 l 0.808,-0.39 c 0.54,-0.113 0.907,-0.27 1.105,-0.467 z"
         id="path149" />
      <path
         inkscape:connector-curvature="0"
         style="fill:url(#s);fill-rule:evenodd"
         d="m 6.375,17.506 3.018,0.212 c -0.113,0.227 -0.34,0.397 -0.68,0.51 -0.255,0.057 -0.467,0.37 -0.637,0.936 -0.17,0.538 -0.213,1.006 -0.127,1.402 0.11,0.54 0.77,0.836 1.99,0.893 l -0.937,0.08 c -0.456,0.05 -1.008,-0.02 -1.66,-0.21 -0.68,-0.2 -1.104,-0.41 -1.274,-0.64 -0.14,-0.17 -0.184,-0.4 -0.127,-0.68 0.114,-0.34 0.2,-0.64 0.255,-0.89 l 0.17,-1.62 z"
         id="path163" />
      <path
         inkscape:connector-curvature="0"
         style="fill:url(#t);fill-rule:evenodd"
         d="m 13.6,17.04 0.043,1.358 0.255,0.978 c 0.113,0.396 0.113,0.666 0,0.808 -0.142,0.227 -0.438,0.425 -0.893,0.594 0.113,-0.396 0.113,-0.836 0,-1.317 -0.085,-0.53 -0.155,-0.92 -0.213,-1.14 -0.14,-0.422 -0.367,-0.65 -0.68,-0.68 L 13.6,17.049 Z"
         id="path170" />
      <path
         inkscape:connector-curvature="0"
         style="fill:#e4f4f4;fill-rule:evenodd;fill-opacity:1"
         d="m 5.015,12.832 0.042,0.34 0,0.042 0.043,0.468 0,0.042 0.042,0.595 0,0.04 0.043,0.08 0.34,0.34 0.04,0 0.13,0.08 0.04,0.04 0.512,0.257 0.255,0.084 0.084,0 0.383,0.13 0.29,0.04 0.47,0.13 0.17,0 0.38,0.04 0.17,0.043 0.465,0.04 0.17,0 c 0.312,0 0.553,0.015 0.723,0.044 1.644,0.03 2.904,-0.17 3.782,-0.593 0.453,-0.2 0.737,-0.41 0.85,-0.638 l 0,-0.34 0.128,-1.32 c 1.25,0.595 1.87,1.303 1.87,2.125 0,0.85 -0.65,1.588 -1.953,2.21 -1.306,0.596 -2.86,0.894 -4.677,0.894 -1.813,0 -3.37,-0.3 -4.675,-0.894 -1.274,-0.623 -1.91,-1.36 -1.91,-2.21 0,-0.816 0.595,-1.524 1.785,-2.12 z"
         id="path177" />
      <path
         inkscape:connector-curvature="0"
         style="fill:url(#v);fill-rule:evenodd"
         d="m 14.577,12.832 c 1.247,0.595 1.87,1.303 1.87,2.125 0,0.85 -0.65,1.586 -1.955,2.21 -0.846,0.386 -1.802,0.64 -2.87,0.764 0.954,-0.13 1.812,-0.39 2.573,-0.76 1.218,-0.62 1.827,-1.36 1.827,-2.21 0,-0.76 -0.496,-1.41 -1.487,-1.95 l 0.042,-0.17 z"
         id="path184" />
      <path
         inkscape:connector-curvature="0"
         style="fill:#deffff;fill-opacity:1;fill-rule:evenodd"
         d="m 7.798,17.91 c -1.02,-0.15 -1.936,-0.426 -2.74,-0.83 -1.22,-0.594 -1.83,-1.302 -1.83,-2.124 0,-0.822 0.596,-1.53 1.786,-2.125 l 0,0.169 c -0.935,0.596 -1.402,1.248 -1.402,1.956 0,0.822 0.58,1.53 1.742,2.125 0.71,0.39 1.524,0.67 2.444,0.83 z"
         id="path191" />
      <path
         inkscape:connector-curvature="0"
         style="fill:url(#x);fill-rule:evenodd"
         d="m 9.095,15.68 0.043,0.297 c -0.566,0.084 -1.02,0.156 -1.36,0.212 -0.624,0.11 -0.978,0.25 -1.063,0.42 -0.142,0.31 0,0.69 0.425,1.142 -0.085,0 -0.34,-0.085 -0.765,-0.255 -0.765,-0.283 -1.29,-0.78 -1.572,-1.487 -0.312,-0.68 -0.156,-1.106 0.467,-1.276 0.085,-0.028 0.227,0.014 0.425,0.13 0.34,0.17 0.722,0.325 1.147,0.466 0.85,0.31 1.6,0.424 2.253,0.34 z"
         id="path198" />
      <path
         inkscape:connector-curvature="0"
         style="fill:url(#y);fill-rule:evenodd"
         d="m 12.453,15.466 0.425,-0.127 c 0.396,-0.15 0.778,-0.3 1.146,-0.47 0.17,-0.12 0.313,-0.16 0.426,-0.13 0.623,0.17 0.78,0.59 0.467,1.27 -0.255,0.594 -0.638,1.033 -1.147,1.316 -0.142,-0.85 -0.582,-1.473 -1.317,-1.87 z"
         id="path205" />
      <path
         inkscape:connector-curvature="0"
         style="fill:url(#z);fill-rule:evenodd"
         d="m 14.1,7.35 -0.05,0 c -0.733,0 -1.166,-0.033 -1.3,-0.1 C 12.616,7.183 12.583,7.1 12.65,7 l 0,-0.05 1.55,0.4 -0.1,0 z"
         id="path212" />
      <path
         inkscape:connector-curvature="0"
         style="fill:#a78a56;fill-rule:evenodd"
         d="M 4.4,7.85 5.25,7.5 C 6.15,7.167 7.333,6.95 8.8,6.85 10.167,6.717 11.45,6.767 12.65,7 c -0.067,0.1 -0.034,0.183 0.1,0.25 0.134,0.067 0.566,0.1 1.3,0.1 l 0.05,0 c 0.4,0.1 0.733,0.233 1,0.4 -0.2,0.4 -0.5,0.667 -0.9,0.8 L 14.05,8.6 14,8.65 C 13.833,8.584 13.65,8.533 13.45,8.5 L 13.25,8.45 C 13.14,8.427 13.04,8.41 12.95,8.4 l -0.05,0 C 12.872,8.394 12.846,8.385 12.825,8.375 l -0.1,0 C 12.693,8.358 12.669,8.35 12.65,8.35 c -0.036,0 -0.07,0.008 -0.1,0.025 -0.09,-0.006 -0.155,0.002 -0.2,0.025 l -0.05,0.1 0.05,0.15 0.1,0.2 0.25,0.2 0.1,0.1 c 0.033,0.032 0.066,0.05 0.102,0.05 L 12.7,9.2 C 12.366,9.1 12.183,9.033 12.15,9 c -0.2,-0.067 -0.3,-0.233 -0.3,-0.5 -0.067,0 -0.134,0.05 -0.2,0.15 -0.034,0.1 -0.067,0.167 -0.1,0.2 -0.033,0.033 -0.1,0.066 -0.2,0.1 l -1.25,0 C 8.767,8.95 8,8.933 7.8,8.9 L 5.85,8.4 C 5.416,8.334 5.083,8.217 4.85,8.05 4.717,7.917 4.567,7.85 4.4,7.85 Z M 14,7.6 c -0.033,0.066 -0.033,0.117 0,0.15 0.366,0.067 0.583,0.017 0.65,-0.15 L 14,7.6 Z M 11,7.35 C 10.934,7.25 10.833,7.2 10.7,7.2 l -0.15,0 -0.05,0.15 0.5,0 z M 8.65,8.25 9.85,8.3 C 9.984,8.267 10.083,8.183 10.15,8.05 L 9.6,7.95 C 9.367,7.916 9.167,7.916 9,7.95 8.733,7.983 8.617,8.083 8.65,8.25 Z M 8.6,7.7 C 8.7,7.6 8.75,7.516 8.75,7.45 8.75,7.317 8.683,7.25 8.55,7.25 l -0.5,0 c -1,0 -1.483,0.167 -1.45,0.5 C 6.733,7.783 7.2,7.8 8,7.8 8.3,7.8 8.5,7.767 8.6,7.7 Z"
         id="path214" />
      <path
         inkscape:connector-curvature="0"
         style="fill:url(#A);fill-rule:evenodd"
         d="m 14,7.6 0.65,0 C 14.583,7.767 14.366,7.817 14,7.75 13.967,7.717 13.967,7.667 14,7.6 Z"
         id="path221" />
      <path
         inkscape:connector-curvature="0"
         style="fill:#615031;fill-rule:evenodd"
         d="m 12.725,8.375 0.1,0 L 12.8,8.4 C 12.77,8.385 12.745,8.377 12.725,8.375 Z M 13.45,8.5 c 0.133,0.033 0.283,0.083 0.45,0.15 l 0,0.2 c 0,0.566 -0.134,0.867 -0.4,0.9 -0.2,0 -0.333,-0.067 -0.4,-0.2 0.2,0.133 0.384,0.083 0.55,-0.15 0.067,-0.1 0.1,-0.267 0.1,-0.5 0,-0.167 -0.1,-0.283 -0.3,-0.35 -0.166,-0.066 -0.333,-0.117 -0.5,-0.15 0.092,0.01 0.19,0.027 0.3,0.05 l 0.2,0.05 z M 12.55,8.375 C 12.515,8.381 12.482,8.39 12.45,8.4 12.384,8.433 12.333,8.467 12.3,8.5 l 0.05,-0.1 c 0.046,-0.023 0.112,-0.03 0.2,-0.025 z"
         id="path223" />
      <path
         inkscape:connector-curvature="0"
         style="fill:url(#B);fill-rule:evenodd"
         d="M 12.55,8.375 C 12.626,8.369 12.71,8.377 12.8,8.4 l 0.025,-0.025 c 0.02,0.01 0.047,0.02 0.075,0.025 l 0.05,0 c 0.166,0.033 0.333,0.083 0.5,0.15 0.2,0.067 0.3,0.184 0.3,0.35 0,0.233 -0.033,0.4 -0.1,0.5 C 13.483,9.633 13.3,9.683 13.1,9.55 L 12.85,9.2 12.9,9.2 C 12.865,9.2 12.832,9.182 12.8,9.15 L 12.7,9.05 12.45,8.85 12.348,8.65 12.3,8.5 c 0.033,-0.033 0.084,-0.067 0.15,-0.1 0.03,-0.01 0.065,-0.02 0.1,-0.025 z"
         id="path230" />
      <path
         inkscape:connector-curvature="0"
         style="fill:#a58d54;fill-rule:evenodd"
         d="m 13.45,8.5 c 0.2,0.033 0.383,0.083 0.55,0.15 l -0.1,0 C 13.733,8.583 13.583,8.533 13.45,8.5 Z M 12.725,8.375 C 12.745,8.377 12.771,8.385 12.8,8.4 12.71,8.378 12.626,8.37 12.55,8.375 12.58,8.358 12.614,8.35 12.65,8.35 c 0.02,0 0.043,0.008 0.075,0.025 z M 4.4,7.85 5.4,8.6 C 5.9,8.8 6.5,8.983 7.2,9.15 L 7.25,9.2 C 7.483,9.4 7.733,9.533 8,9.6 c 0.633,0.3 1.066,0.617 1.3,0.95 0.033,0.034 0.15,0.267 0.35,0.7 0.1,0.333 0.268,0.5 0.5,0.5 0.067,-0.167 0.167,-0.2 0.3,-0.1 0.134,0.067 0.2,0.167 0.2,0.3 0.167,0.233 0.184,0.483 0.05,0.75 -0.032,0.133 -0.1,0.216 -0.2,0.25 -0.1,0.033 -0.216,0.066 -0.35,0.1 -0.3,0.067 -0.45,0.3 -0.45,0.7 C 9.4,13.883 9.167,13.867 9,13.7 8.967,13.733 8.933,13.8 8.9,13.9 8.867,14 8.817,14.067 8.75,14.1 8.65,14.233 8.5,14.267 8.3,14.2 8.3,14.033 8.183,13.916 7.95,13.85 7.683,13.817 7.483,13.783 7.35,13.75 6.917,13.65 6.567,13.4 6.3,13 6.167,13.133 6.05,13.217 5.95,13.25 5.717,13.317 5.483,13.233 5.25,13 5.117,12.867 5.033,12.75 5,12.65 L 5,12.5 5.25,12.45 C 5.283,12.117 5.2,11.967 5,12 4.9,11.367 4.817,10.9 4.75,10.6 L 4.65,9.6 4.5,8.7 4.4,7.85 Z m 8.45,1.35 0,0.05 -0.05,-0.05 0.05,0 z m 2.25,-1.45 -0.65,6.75 0.2,-3 0.05,-0.85 0.4,-2.9 z m -9.6,2.1 c -0.1,0.167 -0.133,0.367 -0.1,0.6 0.033,0.233 0.117,0.433 0.25,0.6 0.133,0.133 0.283,0.184 0.45,0.15 0.167,0 0.283,-0.1 0.35,-0.3 0.133,-0.2 0.167,-0.4 0.1,-0.6 C 6.517,10.067 6.433,9.883 6.3,9.75 6.167,9.583 6.017,9.517 5.85,9.55 5.683,9.583 5.567,9.683 5.5,9.85 Z m 0.75,2.5 c 0.1,0.233 0.333,0.316 0.7,0.25 C 7.05,12.133 7,11.85 6.8,11.75 L 6.4,11.7 C 6.3,11.733 6.233,11.833 6.2,12 6.167,12.133 6.183,12.25 6.25,12.35 Z m 1.45,-1.8 c -0.567,0.3 -0.684,0.733 -0.35,1.3 0.3,0.6 0.767,0.783 1.4,0.55 0.3,-0.066 0.4,-0.467 0.3,-1.2 C 8.984,10.9 8.85,10.7 8.65,10.6 8.55,10.567 8.334,10.55 8,10.55 l -0.3,0 z"
         id="path232" />
      <path
         inkscape:connector-curvature="0"
         style="fill:#8b7347;fill-rule:evenodd"
         d="m 12.85,9.25 -0.05,0 c 0.066,0.133 0.15,0.233 0.25,0.3 l 0.05,0 c 0.067,0.133 0.2,0.2 0.4,0.2 0.267,-0.033 0.4,-0.333 0.4,-0.9 l 0,-0.2 0.1,0 0.05,-0.05 0,0.05 c 0,0.6 -0.116,0.967 -0.35,1.1 C 13.533,9.817 13.266,9.833 12.9,9.8 12.533,9.767 12.366,9.667 12.4,9.5 11.966,9.367 11.616,9.3 11.35,9.3 l -1.45,0 c 0.866,0.133 1.517,0.317 1.95,0.55 0.133,0.1 0.3,0.267 0.5,0.5 0.366,0.267 0.55,0.533 0.55,0.8 0,0.133 -0.117,0.333 -0.35,0.6 -0.268,0.233 -0.4,0.433 -0.4,0.6 0,0.1 0.05,0.217 0.15,0.35 0,0.133 -0.084,0.283 -0.25,0.45 -0.067,0.133 -0.15,0.25 -0.25,0.35 0,0.133 0.016,0.283 0.05,0.45 0.066,0.233 -0.018,0.383 -0.25,0.45 -0.134,0.033 -0.268,0.017 -0.4,-0.05 -0.167,-0.067 -0.316,-0.117 -0.45,-0.15 l -0.3,0.3 -0.15,0.05 -0.2,0.1 C 9.967,14.75 9.733,14.8 9.4,14.8 9.133,15 8.883,15.1 8.65,15.1 8.55,15.1 8.084,15.017 7.25,14.85 7.117,14.817 7.033,14.8 7,14.8 6.967,14.8 6.917,14.734 6.85,14.6 6.783,14.4 6.733,14.3 6.7,14.3 6.5,14.2 6.367,14.1 6.3,14 6,14.167 5.7,14.167 5.4,14 L 5.1,13.7 5,12.65 c 0.033,0.1 0.117,0.217 0.25,0.35 0.233,0.233 0.467,0.317 0.7,0.25 0.1,-0.033 0.216,-0.117 0.35,-0.25 0.267,0.4 0.617,0.65 1.05,0.75 0.133,0.033 0.333,0.067 0.6,0.1 0.233,0.066 0.35,0.183 0.35,0.35 0.2,0.066 0.35,0.033 0.45,-0.1 C 8.817,14.067 8.867,14 8.9,13.9 8.933,13.8 8.967,13.733 9,13.7 c 0.167,0.167 0.4,0.183 0.7,0.05 0,-0.4 0.15,-0.633 0.45,-0.7 0.133,-0.033 0.25,-0.066 0.35,-0.1 0.1,-0.034 0.167,-0.117 0.2,-0.25 0.133,-0.267 0.116,-0.517 -0.05,-0.75 0,-0.133 -0.067,-0.233 -0.2,-0.3 -0.134,-0.1 -0.233,-0.066 -0.3,0.1 -0.233,0 -0.4,-0.167 -0.5,-0.5 C 9.45,10.817 9.333,10.583 9.3,10.55 9.066,10.217 8.633,9.9 8,9.6 7.733,9.533 7.483,9.4 7.25,9.2 L 7.2,9.15 7.15,9.1 C 7.717,9.167 8.233,9.217 8.7,9.25 l 4,-0.05 0.1,0 0.05,0.05 z m -1.75,0.8 c -0.233,0 -0.316,0.184 -0.25,0.55 0.067,0.3 0.2,0.483 0.4,0.55 0.2,0.033 0.3,-0.083 0.3,-0.35 0.033,-0.333 -0.05,-0.583 -0.25,-0.75 l -0.2,0 z m -1.1,4 -0.2,-0.2 c -0.233,0.3 -0.267,0.517 -0.1,0.65 0.2,0.133 0.383,0.05 0.55,-0.25 -0.033,-0.033 -0.116,-0.1 -0.25,-0.2 z m 1.05,-1.15 0.3,0 c 0.1,-0.267 0.05,-0.417 -0.15,-0.45 L 11.1,12.3 c -0.1,0.1 -0.117,0.3 -0.05,0.6 z"
         id="path234" />
      <path
         inkscape:connector-curvature="0"
         style="fill:url(#C);fill-rule:evenodd"
         d="m 12.85,9.2 0.25,0.35 -0.05,0 C 12.95,9.484 12.866,9.383 12.8,9.25 l 0.05,0 0,-0.05 z"
         id="path241" />
      <path
         inkscape:connector-curvature="0"
         style="fill:#735e39;fill-rule:evenodd"
         d="M 5.15,14.4 5.1,13.7 5.4,14 c 0.3,0.167 0.6,0.167 0.9,0 0.067,0.1 0.2,0.2 0.4,0.3 0.033,0 0.083,0.1 0.15,0.3 0.066,0.133 0.117,0.2 0.15,0.2 0.033,0 0.117,0.017 0.25,0.05 0.833,0.167 1.3,0.25 1.4,0.25 0.233,0 0.484,-0.1 0.75,-0.3 0.333,0 0.566,-0.05 0.7,-0.15 l 0.2,-0.1 0.15,-0.05 0.3,-0.3 c 0.133,0.033 0.282,0.083 0.45,0.15 0.132,0.066 0.266,0.083 0.398,0.05 0.233,-0.066 0.317,-0.217 0.25,-0.45 -0.033,-0.167 -0.05,-0.317 -0.05,-0.45 0.1,-0.1 0.184,-0.217 0.25,-0.35 0.167,-0.167 0.25,-0.316 0.25,-0.45 -0.1,-0.133 -0.15,-0.25 -0.15,-0.35 0,-0.167 0.134,-0.367 0.4,-0.6 0.233,-0.267 0.35,-0.467 0.35,-0.6 0,-0.267 -0.183,-0.533 -0.55,-0.8 -0.2,-0.233 -0.366,-0.4 -0.5,-0.5 C 11.418,9.617 10.768,9.433 9.9,9.3 l 1.45,0 c 0.266,0 0.616,0.067 1.05,0.2 -0.034,0.167 0.133,0.267 0.5,0.3 0.366,0.034 0.633,0.017 0.8,-0.05 0.233,-0.133 0.35,-0.5 0.35,-1.1 l 0,-0.05 0.15,-0.05 0.15,0.55 c 0,0.167 -0.05,0.417 -0.15,0.75 -0.065,0.233 -0.1,0.583 -0.1,1.05 0,0.133 -0.033,0.25 -0.1,0.35 l -0.25,0.35 c -0.033,0.1 -0.05,0.417 -0.05,0.95 0,0.034 0.033,0.15 0.1,0.35 0.066,0.133 0.084,0.25 0.05,0.35 -0.066,0.4 -0.183,0.667 -0.35,0.8 -0.033,0.034 -0.15,0.083 -0.35,0.15 -0.134,0.033 -0.217,0.117 -0.25,0.25 -0.233,0 -0.5,0.1 -0.8,0.3 -0.4,0.267 -0.634,0.4 -0.7,0.4 -0.233,0.1 -0.867,0.15 -1.9,0.15 C 8.833,15.3 8.333,15.267 8,15.2 7.7,15.2 7.467,15.183 7.3,15.15 6.933,14.95 6.667,14.85 6.5,14.85 L 5.85,14.65 C 5.583,14.517 5.383,14.433 5.25,14.4 l -0.1,0 z m 7.9,-2.6 -0.35,0 c -0.167,0.034 -0.267,0.184 -0.3,0.45 0,0.2 0.083,0.317 0.25,0.35 0.267,0.1 0.433,0.033 0.5,-0.2 0.034,-0.2 0,-0.4 -0.1,-0.6 z"
         id="path243" />
      <path
         inkscape:connector-curvature="0"
         style="fill:#4d4027;fill-rule:evenodd"
         d="m 15.1,7.75 -0.4,2.9 c -0.166,0 -0.25,0.167 -0.25,0.5 0.067,0.2 0.134,0.317 0.2,0.35 l -0.2,3 c -0.1,0.233 -0.383,0.45 -0.85,0.65 -0.866,0.4 -2.133,0.583 -3.8,0.55 -0.666,0 -1.283,-0.034 -1.85,-0.1 L 7.35,15.5 C 6.283,15.267 5.55,14.9 5.15,14.4 l 0.1,0 c 0.133,0.033 0.333,0.117 0.6,0.25 l 0.65,0.2 c 0.167,0 0.433,0.1 0.8,0.3 0.167,0.033 0.4,0.05 0.7,0.05 0.333,0.066 0.833,0.1 1.5,0.1 1.033,0 1.667,-0.05 1.9,-0.15 0.066,0 0.3,-0.133 0.7,-0.4 0.3,-0.2 0.566,-0.3 0.8,-0.3 0.033,-0.133 0.116,-0.217 0.25,-0.25 0.2,-0.067 0.316,-0.117 0.35,-0.15 0.167,-0.133 0.283,-0.4 0.35,-0.8 0.034,-0.1 0.017,-0.217 -0.05,-0.35 -0.066,-0.2 -0.1,-0.316 -0.1,-0.35 0,-0.533 0.017,-0.85 0.05,-0.95 L 14,11.25 c 0.066,-0.1 0.1,-0.217 0.1,-0.35 0,-0.467 0.034,-0.816 0.1,-1.05 0.1,-0.333 0.15,-0.583 0.15,-0.75 L 14.2,8.55 c 0.4,-0.133 0.7,-0.4 0.9,-0.8 z"
         id="path245" />
      <path
         inkscape:connector-curvature="0"
         style="fill:url(#D);fill-rule:evenodd"
         d="m 11,7.35 -0.5,0 0.05,-0.15 0.15,0 c 0.133,0 0.234,0.05 0.3,0.15 z"
         id="path252" />
      <path
         inkscape:connector-curvature="0"
         style="fill:#cba769;fill-rule:evenodd"
         d="M 7.2,9.15 C 6.5,8.983 5.9,8.8 5.4,8.6 l -1,-0.75 c 0.167,0 0.317,0.066 0.45,0.2 0.233,0.167 0.566,0.284 1,0.35 L 7.8,8.9 C 8,8.933 8.767,8.95 10.1,8.95 l 1.25,0 c 0.1,-0.034 0.167,-0.067 0.2,-0.1 0.033,-0.033 0.066,-0.1 0.1,-0.2 0.067,-0.1 0.134,-0.15 0.2,-0.15 0,0.267 0.1,0.433 0.3,0.5 0.034,0.033 0.217,0.1 0.55,0.2 l -4,0.05 C 8.233,9.217 7.717,9.167 7.15,9.1 L 7.2,9.15 Z M 4.65,9.6 4.6,9.55 4.5,8.7 4.65,9.6 Z"
         id="path254" />
      <path
         inkscape:connector-curvature="0"
         style="fill:url(#E);fill-rule:evenodd"
         d="m 11.1,10.05 0.2,0 c 0.2,0.167 0.283,0.417 0.25,0.75 0,0.267 -0.1,0.383 -0.3,0.35 -0.2,-0.066 -0.333,-0.25 -0.4,-0.55 -0.067,-0.367 0.016,-0.55 0.25,-0.55 z"
         id="path261" />
      <path
         inkscape:connector-curvature="0"
         style="fill:url(#F);fill-rule:evenodd"
         d="m 13.05,11.8 c 0.1,0.2 0.134,0.4 0.1,0.6 -0.066,0.233 -0.232,0.3 -0.5,0.2 -0.166,-0.033 -0.25,-0.15 -0.25,-0.35 0.034,-0.267 0.134,-0.417 0.3,-0.45 l 0.35,0 z"
         id="path268" />
      <path
         inkscape:connector-curvature="0"
         style="fill:url(#G);fill-rule:evenodd"
         d="m 14.7,10.65 -0.05,0.85 c -0.067,-0.033 -0.134,-0.15 -0.2,-0.35 0,-0.333 0.083,-0.5 0.25,-0.5 z"
         id="path275" />
      <path
         inkscape:connector-curvature="0"
         style="fill:url(#H);fill-rule:evenodd"
         d="M 5,12.5 4.95,12 5,12 c 0.2,-0.033 0.283,0.117 0.25,0.45 L 5,12.5 Z"
         id="path282" />
      <path
         inkscape:connector-curvature="0"
         style="fill:url(#I);fill-rule:evenodd"
         d="M 8.65,8.25 C 8.617,8.083 8.733,7.983 9,7.95 9.167,7.916 9.366,7.916 9.6,7.95 l 0.55,0.1 C 10.083,8.183 9.983,8.267 9.85,8.3 L 8.65,8.25 Z"
         id="path289" />
      <path
         inkscape:connector-curvature="0"
         style="fill:url(#J);fill-rule:evenodd"
         d="M 8.6,7.7 C 8.5,7.767 8.3,7.8 8,7.8 7.2,7.8 6.733,7.783 6.6,7.75 6.567,7.417 7.05,7.25 8.05,7.25 l 0.5,0 c 0.133,0 0.2,0.067 0.2,0.2 C 8.75,7.517 8.7,7.6 8.6,7.7 Z"
         id="path296" />
      <path
         inkscape:connector-curvature="0"
         style="fill:url(#K);fill-rule:evenodd"
         d="M 5.5,9.85 C 5.567,9.683 5.683,9.583 5.85,9.55 6.017,9.517 6.166,9.584 6.3,9.75 6.433,9.883 6.517,10.067 6.55,10.3 6.617,10.5 6.584,10.7 6.45,10.9 6.383,11.1 6.266,11.2 6.1,11.2 5.933,11.233 5.783,11.183 5.65,11.05 5.517,10.883 5.433,10.683 5.4,10.45 5.367,10.217 5.4,10.017 5.5,9.85 Z"
         id="path303" />
      <path
         inkscape:connector-curvature="0"
         style="fill:url(#L);fill-rule:evenodd"
         d="M 6.25,12.35 C 6.183,12.25 6.167,12.133 6.2,12 6.233,11.833 6.3,11.733 6.4,11.7 l 0.4,0.05 c 0.2,0.1 0.25,0.383 0.15,0.85 -0.367,0.067 -0.6,-0.017 -0.7,-0.25 z"
         id="path310" />
      <path
         inkscape:connector-curvature="0"
         style="fill:url(#M);fill-rule:evenodd"
         d="m 7.7,10.55 0.3,0 c 0.333,0 0.55,0.017 0.65,0.05 0.2,0.1 0.333,0.3 0.4,0.6 0.1,0.733 0,1.133 -0.3,1.2 -0.633,0.233 -1.1,0.05 -1.4,-0.55 -0.333,-0.567 -0.217,-1 0.35,-1.3 z"
         id="path317" />
      <path
         inkscape:connector-curvature="0"
         style="fill:url(#N);fill-rule:evenodd"
         d="m 10,14.05 c 0.134,0.1 0.217,0.167 0.25,0.2 C 10.083,14.55 9.9,14.633 9.7,14.5 9.533,14.367 9.566,14.15 9.8,13.85 l 0.2,0.2 z"
         id="path324" />
      <path
         inkscape:connector-curvature="0"
         style="fill:url(#O);fill-rule:evenodd"
         d="M 11.05,12.9 C 10.984,12.6 11,12.4 11.1,12.3 l 0.1,0.15 c 0.2,0.033 0.25,0.183 0.15,0.45 l -0.3,0 z"
         id="path331" />
      <path
         inkscape:connector-curvature="0"
         style="fill:url(#P);fill-rule:evenodd"
         d="m 3.103,26.39 1.742,0.424 c 1.473,0.312 3.003,0.48 4.59,0.51 2.52,-0.028 4.617,-0.312 6.29,-0.85 l 0.637,10.88 -0.893,0.935 c -1.11,0.65 -2.89,1.02 -5.36,1.1 l -0.26,0.04 -0.849,0 -0.3,-0.04 C 6.238,39.271 4.45,38.879 3.348,38.199 l -0.893,-0.94 0.64,-10.88 z"
         id="path352" />
      <path
         transform="matrix(1.2797786,0,0,0.98018309,-0.65723764,0.63914504)"
         inkscape:connector-curvature="0"
         style="fill:url(#j);fill-rule:evenodd;filter:url(#filter69970)"
         d="m 8.628,39.902 -1.36,0 c -0.595,0 -1.502,-0.212 -2.72,-0.637 L 2.891,38.627 3.451,24.603 c 0.57,0.765 1.377,1.19 2.425,1.274 l -0.042,1.487 c -0.085,1.36 -0.226,2.92 -0.424,4.676 -0.198,1.756 0.282,3.598 1.443,5.524 0.565,0.965 1.16,1.745 1.784,2.338 z"
         id="path100" />
      <g
         transform="matrix(0.03250582,0,0,0.02697696,30.083868,26.000503)"
         id="layer1">
        <g
           id="g879"
           transform="matrix(0.652,0,0,0.652,-51.231,-96.825)">
          <g
             id="g670"
             style="fill:#000000;stroke:#000000;stroke-opacity:0.99123003"
             transform="translate(87.13,195.45)" />
          <g
             style="stroke:#c31717;stroke-opacity:0.99123003"
             id="g69852">
            <g
               transform="translate(87.13,195.45)"
               style="stroke:#c31717;stroke-opacity:0.99123003"
               id="g775">
              <g
                 style="fill:none;stroke:#c31717;stroke-opacity:0.99123003"
                 id="g740">
                <g
                   style="fill:none;stroke:#c31717;stroke-opacity:0.99123003"
                   id="g675" />
              </g>
              <g
                 transform="matrix(0.89338057,0,0,1.0368542,-1259.3756,92.022296)"
                 id="g69916">
                <path
                   inkscape:connector-curvature="0"
                   id="path584"
                   style="fill:#c51515;fill-opacity:0.99215686;fill-rule:evenodd;stroke:#c31717;stroke-width:1pt;stroke-opacity:0.99123003"
                   d="m 294.9,259.71 c -9.7,7.37 -11.86,9.85 -17.22,18.01 -1.94,3.15 -5.56,10.51 -6.55,15.44 -0.99,4.94 -1.73,12.1 -1.72,15.9 0.01,12.85 4.1,20.91 8.57,20.63 3.99,-0.46 9.07,-4.62 16.77,-14.08"
                   transform="translate(1.7175535e-5,-1.2688656e-7)" />
                <path
                   inkscape:connector-curvature="0"
                   id="path585"
                   style="fill:#c41616;fill-opacity:0.99215686;fill-rule:evenodd;stroke:#c31717;stroke-width:1pt;stroke-linejoin:bevel;stroke-opacity:0.99123003"
                   d="m 294.9,259.71 c -9.7,7.37 -11.86,9.85 -17.22,18.01 -1.94,3.15 -5.56,10.51 -6.55,15.44 -0.99,4.94 -1.73,12.1 -1.72,15.9 0.01,12.85 4.1,20.91 8.57,20.63 3.99,-0.46 9.07,-4.62 16.77,-14.08"
                   transform="matrix(-1,0,0,1,596.77001,0.20810757)" />
                <path
                   inkscape:connector-curvature="0"
                   id="path586"
                   style="fill:#c61414;fill-opacity:0.99215686;fill-rule:evenodd;stroke:#c31717;stroke-width:1pt;stroke-opacity:0.99123003"
                   d="m 211.89,203.56 c 13.46,-2.36 26.5,-3.88 39.96,-5.41 17.62,-4.44 26.51,15.68 21.65,30.81 -6.11,13.46 -14.71,25.25 -24.56,36.63 -7.63,8.6 -16.73,9.99 -25.4,7.07 -6.99,-1.94 -13.46,-6.24 -20.4,-16.23 -3.05,-8.6 -5.68,-13.05 -9.57,-23.73 -3.05,-9.85 1.7,-24.6 18.32,-29.14 z"
                   transform="translate(0.5887214,-4.3791951e-5)" />
                <path
                   inkscape:connector-curvature="0"
                   id="path587"
                   style="fill:#c61414;fill-opacity:0.99215686;fill-rule:evenodd;stroke:#c31717;stroke-width:1pt;stroke-opacity:0.99123003"
                   d="m 211.89,203.56 c 13.46,-2.36 26.5,-3.88 39.96,-5.41 17.62,-4.44 26.51,15.68 21.65,30.81 -6.11,13.46 -14.71,25.25 -24.56,36.63 -7.63,8.6 -16.73,9.99 -25.4,7.07 -6.99,-1.94 -13.46,-6.24 -20.4,-16.23 -3.05,-8.6 -5.68,-13.05 -9.57,-23.73 -3.05,-9.85 1.7,-24.6 18.32,-29.14 z"
                   transform="matrix(-1,0,0,1,596.45001,-4.3791951e-5)" />
                <g
                   transform="translate(1.7175535e-5,-1.2688656e-7)"
                   id="g652"
                   style="fill:none;stroke:#c31717;stroke-opacity:0.99123003">
                  <path
                     inkscape:connector-curvature="0"
                     id="path611"
                     style="fill:none;stroke:#c31717;stroke-width:6.25;stroke-opacity:0.99123003"
                     d="m 212.23,318.53 c 5.69,13.34 7.45,18.41 11.55,31.72 3.5,12.29 4.79,19.79 6.95,37.26" />
                  <path
                     inkscape:connector-curvature="0"
                     id="path612"
                     style="fill:none;stroke:#c31717;stroke-width:6.25;stroke-opacity:0.99123003"
                     d="m 212.23,318.53 c 5.69,13.34 7.45,18.41 11.55,31.72 3.5,12.29 4.79,19.79 6.95,37.26"
                     transform="matrix(-1,0,0,1,596.32,-0.73589)" />
                  <g
                     id="g637"
                     style="fill:none;stroke:#c31717;stroke-opacity:0.99123003">
                    <path
                       inkscape:connector-curvature="0"
                       id="path588"
                       style="fill:none;stroke:#c31717;stroke-width:5;stroke-opacity:0.99123003"
                       d="m 236.52,349.73 c 14.71,9.03 40.16,10.42 62.95,10.01 25.4,-0.13 47.13,-1.96 61.41,-10.6" />
                    <path
                       inkscape:connector-curvature="0"
                       id="path608"
                       style="fill:none;stroke:#c31717;stroke-width:5;stroke-opacity:0.99123003"
                       d="m 241.67,373.28 c 16.23,10.21 35.33,13.71 57.32,12.88 22.85,-0.56 40.35,-2.48 56,-13.17" />
                    <g
                       id="g625"
                       style="fill:none;stroke:#c31717;stroke-opacity:0.99123003">
                      <path
                         inkscape:connector-curvature="0"
                         id="path609"
                         style="fill:none;stroke:#c31717;stroke-width:6.25;stroke-opacity:0.99123003"
                         d="m 229.89,385.64 c 17.37,20.95 41.61,24.59 69.18,25.32 29.51,1.08 59.16,-10.65 66.81,-25.32" />
                      <g
                         id="g615"
                         style="fill:none;stroke:#c31717;stroke-opacity:0.99123003">
                        <path
                           inkscape:connector-curvature="0"
                           id="path589"
                           style="fill:none;stroke:#c31717;stroke-width:5;stroke-opacity:0.99123003"
                           d="m 241.44,354.26 -0.41,41.21" />
                        <path
                           inkscape:connector-curvature="0"
                           id="path592"
                           style="fill:none;stroke:#c31717;stroke-width:5;stroke-opacity:0.99123003"
                           d="m 254.97,358.63 -0.21,44.12" />
                        <path
                           inkscape:connector-curvature="0"
                           id="path593"
                           style="fill:none;stroke:#c31717;stroke-width:5;stroke-opacity:0.99123003"
                           d="m 269.96,360.5 -0.42,46.21" />
                        <path
                           inkscape:connector-curvature="0"
                           id="path594"
                           style="fill:none;stroke:#c31717;stroke-width:5;stroke-opacity:0.99123003"
                           d="m 283.49,361.54 -0.21,46.83" />
                        <path
                           inkscape:connector-curvature="0"
                           id="path595"
                           style="fill:none;stroke:#c31717;stroke-width:5;stroke-opacity:0.99123003"
                           d="m 298.68,361.96 0,46.83" />
                        <path
                           inkscape:connector-curvature="0"
                           id="path598"
                           style="fill:none;stroke:#c31717;stroke-width:5;stroke-opacity:0.99123003"
                           d="m 313.25,361.75 0.21,46.83" />
                        <path
                           inkscape:connector-curvature="0"
                           id="path599"
                           style="fill:none;stroke:#c31717;stroke-width:5;stroke-opacity:0.99123003"
                           d="m 326.78,360.5 0.42,46"
                           transform="translate(-0.41626,-3.0518e-5)" />
                        <path
                           inkscape:connector-curvature="0"
                           id="path604"
                           style="fill:none;stroke:#c31717;stroke-width:5;stroke-opacity:0.99123003"
                           d="m 341.56,358 0.21,44.13" />
                        <path
                           inkscape:connector-curvature="0"
                           id="path606"
                           style="fill:none;stroke:#c31717;stroke-width:5;stroke-opacity:0.99123003"
                           d="m 355.3,352.59 0.41,41.63" />
                      </g>
                    </g>
                  </g>
                </g>
                <path
                   transform="translate(1.7175535e-5,-1.2688656e-7)"
                   inkscape:connector-curvature="0"
                   id="path573"
                   style="fill:none;stroke:#c31717;stroke-width:12.5;stroke-linecap:round;stroke-linejoin:round;stroke-opacity:0.99123003"
                   d="m 171.5,235.56 c -19.14,-18.6 -32.51,-50.89 -34.37,-85.75 -2.01,-38.42 18.22,-76.571 48.54,-98.32 33.97,-23.91 90.77,-30.522 126.08,-28.738 23.92,0.017 77.21,12.42 96.02,26.428 32.99,23.99 50.68,58.04 51.91,96.85 1.81,38.98 -14.61,68.67 -34.71,87.21" />
                <path
                   transform="translate(1.7175535e-5,-1.2688656e-7)"
                   inkscape:connector-curvature="0"
                   id="path580"
                   style="fill:none;stroke:#c31717;stroke-width:12.5;stroke-linecap:round;stroke-linejoin:round;stroke-opacity:0.99123003"
                   d="m 172.66,126.27 c -7.75,6.78 -6.77,16.97 -5.38,32.19 1.11,11.56 8.48,22.94 8.87,33.5 2.71,22.28 -3.88,44.57 -6.98,62.78 -2.13,20.93 3.88,38.96 11.63,45.93 7.75,6.88 17.76,9.73 28.27,12.94 9.55,2.49 14.5,6.84 21.73,12.23 8.6,9.13 10.66,16.69 10.46,25.99" />
                <path
                   inkscape:connector-curvature="0"
                   id="path581"
                   style="fill:none;stroke:#c31717;stroke-width:12.5;stroke-linecap:round;stroke-linejoin:round;stroke-opacity:0.99123003"
                   d="m 172.66,126.27 c -7.75,6.78 -6.77,16.97 -5.38,32.19 1.11,11.56 8.48,22.94 8.87,33.5 2.71,22.28 -3.88,44.57 -6.98,62.78 -2.13,20.93 3.88,38.96 11.63,45.93 7.75,6.88 21.94,10.58 28.27,12.94 7.38,2.58 14.92,7.25 21.73,12.64 8.19,7.89 10.66,16.28 10.46,25.58"
                   transform="matrix(-1,0,0,1,597.71999,-0.58140046)" />
                <path
                   transform="translate(1.7175535e-5,-1.2688656e-7)"
                   inkscape:connector-curvature="0"
                   id="path613"
                   style="fill:none;stroke:#c31717;stroke-width:12.5;stroke-opacity:0.99123003"
                   d="m 194.82,310.96 c 6.94,16.79 14.29,33.16 14.99,50.37 -3.19,13.87 -2.22,30.25 1.25,43.29 4.44,17.9 21.78,39.13 39.13,46.21 17.76,6.45 28.86,8.12 48.7,8.12" />
                <path
                   inkscape:connector-curvature="0"
                   id="path614"
                   style="fill:none;stroke:#c31717;stroke-width:12.5;stroke-opacity:0.99123003"
                   d="m 194.82,310.96 c 6.94,16.79 14.29,33.16 14.99,50.37 -3.19,13.87 -2.22,30.25 1.25,43.29 4.44,17.9 21.99,38.51 39.34,45.59 17.34,7.07 28.44,8.74 48.28,8.74"
                   transform="matrix(-1,0,0,1,596.74001,-4.3791951e-5)" />
                <g
                   id="g770"
                   style="stroke:#c31717;stroke-opacity:0.99123003">
                  <path
                     inkscape:connector-curvature="0"
                     id="path765"
                     style="fill:none;stroke:#c31717;stroke-width:12.5;stroke-linejoin:round;stroke-opacity:0.99123003"
                     d="m 391.31,389.64 68.27,31.63 c 8.32,3.47 14.98,2.36 21.23,0.42 9.85,-2.91 17.62,-1.25 25.81,2.08 9.85,5 10.13,12.07 3.75,19.15 -5.83,6.8 -11.66,10.27 -18.74,17.07 -1.52,10.96 -0.55,21.09 -5.41,31.22 -6.1,8.88 -12.63,7.35 -22.89,-2.08 -10.41,-8.05 -6.67,-16.93 -21.65,-29.97 L 378.4,426.27" />
                  <path
                     inkscape:connector-curvature="0"
                     id="path766"
                     style="fill:none;stroke:#c31717;stroke-width:12.5;stroke-linejoin:round;stroke-opacity:0.99123003"
                     d="m 204.81,389.22 c -22.75,12.07 -43.43,23.31 -69.52,33.3 -21.23,5.28 -20.39,-7.77 -46.205,0.84 -7.354,5.82 -7.215,14.15 -1.249,20.39 6.938,6.8 11.795,11.1 17.904,17.07 1.94,8.6 2.22,15.96 3.33,26.23 4.16,12.62 13.32,11.93 21.23,5.83 3.47,-4.31 7.77,-8.19 10.4,-12.91 3.61,-6.24 7.64,-13.32 12.49,-19.15 l 62.86,-33.3" />
                  <path
                     inkscape:connector-curvature="0"
                     id="path767"
                     style="fill:none;stroke:#c31717;stroke-width:12.5;stroke-linecap:square;stroke-linejoin:round;stroke-opacity:0.99123003"
                     d="m 401.3,321.36 c 25.81,-12.76 47.04,-23.03 70.35,-34.55 14.29,-11.93 10.69,-23.45 22.07,-32.05 11.23,-10.69 18.73,-8.05 22.89,-2.08 4.02,10.13 5.97,20.26 5.41,30.8 10.69,9.86 16.38,15.54 22.48,24.56 0.83,11.38 -9.16,16.1 -21.23,16.24 -15.82,2.91 -18.32,-7.08 -36.22,0 l -94.49,44.54" />
                  <path
                     inkscape:connector-curvature="0"
                     id="path769"
                     style="fill:none;stroke:#c31717;stroke-width:12.5;stroke-linejoin:round;stroke-opacity:0.99123003"
                     d="m 197.22,322.35 c -26.1,-12.75 -47.78,-22.27 -73.59,-36.5 -14.03,-11.18 -9.52,-23.84 -26.492,-34.14 -7.457,-3.73 -12.853,-5.4 -18.839,4.71 -3.826,9.02 -3.532,18.64 -4.121,27.96 -6.672,7.16 -14.227,11.38 -19.722,20.31 -7.947,12.76 4.121,16.98 10.597,18.55 18.447,4.61 25.119,-3.73 42.097,-0.3 33.06,15.41 66.42,31.4 98.31,47.1" />
                </g>
              </g>
            </g>
          </g>
        </g>
      </g>
    </g>
  </g>
  <metadata
     id="metadata69155">
    <rdf:RDF>
      <cc:Work>
        <dc:format>image/svg+xml</dc:format>
        <dc:type
           rdf:resource="http://purl.org/dc/dcmitype/StillImage" />
        <cc:license
           rdf:resource="http://creativecommons.org/publicdomain/zero/1.0/" />
        <dc:publisher>
          <cc:Agent
             rdf:about="http://openclipart.org/">
            <dc:title>Openclipart</dc:title>
          </cc:Agent>
        </dc:publisher>
        <dc:title></dc:title>
      </cc:Work>
      <cc:License
         rdf:about="http://creativecommons.org/publicdomain/zero/1.0/">
        <cc:permits
           rdf:resource="http://creativecommons.org/ns#Reproduction" />
        <cc:permits
           rdf:resource="http://creativecommons.org/ns#Distribution" />
        <cc:permits
           rdf:resource="http://creativecommons.org/ns#DerivativeWorks" />
      </cc:License>
    </rdf:RDF>
  </metadata>
</svg>
