<svg width="460" height="1050" xmlns="http://www.w3.org/2000/svg">

 <title/>
 <g label="Layer 1" id="imagebot_2">
  <path transform="translate(0.49862 4.081) matrix(1 0 0 1 -33.537 40.99)" label="Layer 1" stroke="#000000" stroke-width="1px" fill="#ffff00" d="M162.27,159.68C191.837,121.732 197.745,120.827 212.895,69.249C212.895,69.249 145.351,-45.071 96.375,-40.331C54.803,-36.3094 50.269,78.209 50.269,78.209C83.625,109.886 114.124,150.641 149.963,158.59L119.113,52.34L162.27,159.68z" id="imagebot_21"/>
  <g id="imagebot_128">
   <path transform="translate(0 1.25)" label="Layer 1" stroke="#000000" stroke-width="1px" fill="#ffb600" d="M 356.58149495124815 800.8593295550346 C 387.94506786352395 762.5711689972281 410.7632051704526 685.1897805659174 402.8146201610565 616.8414748644828 L 343.02391650676725 457.70276138544085 C 329.00159378391504 515.1552889052033 313.40450688856845 576.9490445777775 286.6995207905769 600.6454426383972 L 356.58149495124815 800.8593295550346 z" id="imagebot_57"/>
   <path transform="matrix(0.93611 -0.35171 0.35171 0.93611 -199.478 169.751)" label="Layer 1" stroke="#000000" stroke-width="1px" fill="#ffb600" d="M280,786.36C237.174,761.549 188.598,697.137 172,630.36L172,460.36C205.333,509.21 241.667,561.57 275,574.36L280,786.36z" id="imagebot_111"/>
  </g>
  <g id="imagebot_127">
   <path label="Layer 1" stroke="#000000" stroke-width="1px" fill="#ffcc00" d="M 258.0151958107948 609.7868855965138 C 208.612144459486 600.0723813802003 141.87983290553098 553.4461837339401 101.2825452327728 492.5900451612473 L 51.23132915377619 278.964718785286 C 100.77122539699076 316.0261811041832 145.63524299979207 396.91074178874493 181.6349838256836 397.9618762099743 L 258.0151958107948 609.7868855965138 z" id="imagebot_93"/>
   <path transform="matrix(-0.78624 0.16877 0.33519 0.90911 241.762 -158.299)" label="Layer 1" stroke="#000000" stroke-width="1px" fill="#ffcc00" d="M277.5,784.86C234.67,760.05 188.6,697.14 172,630.36L203.28,418.55C236.62,467.4 247.17,553.08 280.5,565.86L277.5,784.86z" id="imagebot_39"/>
  </g>
  <g id="imagebot_125">
   <path transform="matrix(0.70891 -0.26635 0.34741 0.92466 -280.448 -251.029)" label="Layer 1" stroke="#000000" stroke-width="1px" fill="#ffe100" d="M268.4,787.37C225.58,762.56 188.6,697.14 172,630.36L172,460.36C205.333,509.21 245.808,559.043 279.14,571.83L268.4,787.37z" id="imagebot_75"/>
   <path transform="matrix(-0.70861 0.26715 0.34845 0.92427 132.782 -380.909)" label="Layer 1" stroke="#000000" stroke-width="1px" fill="#ffe100" d="M268.4,787.37C225.58,762.56 188.6,697.14 172,630.36L172,460.36C205.333,509.21 245.808,559.043 279.14,571.83L268.4,787.37z" id="imagebot_20"/>
  </g>
  <path label="Layer 1" stroke="#000000" stroke-width="1.0994px" fill="#7f3f00" d="M 85.71162098646164 92.9499991455078 C 76.90162098646164 97.12799914550781 400.6116209864616 1049.7699991455079 447.97162098646163 1040.1499991455078 C 384.26162098646165 854.4199991455079 85.71162098646164 92.9499991455078 85.71162098646164 92.9499991455078 z" id="imagebot_112"/>
  <title>Layer 1</title>
  <g opacity="0.18" id="imagebot_129">
   <g id="imagebot_117">
    <path transform="matrix(0.93611 -0.35171 0.35171 0.93611 -199.478 169.751)" label="Layer 1" stroke="#ffff00" stroke-width="1px" fill="#000000" d="M173,489.86C206.78,524.072 233.482,571.1 272,586.36" id="imagebot_110"/>
    <path transform="matrix(0.93611 -0.35171 0.35171 0.93611 -199.478 169.751)" label="Layer 1" stroke="#ffff00" stroke-width="1px" fill="#000000" d="M173,499.86C206.78,534.072 233.482,581.1 272,596.36" id="imagebot_109"/>
    <path transform="matrix(0.93611 -0.35171 0.35171 0.93611 -199.478 169.751)" label="Layer 1" stroke="#ffff00" stroke-width="1px" fill="#000000" d="M173,512.36C206.78,546.572 233.482,593.1 272,608.36" id="imagebot_108"/>
    <path transform="matrix(0.93611 -0.35171 0.35171 0.93611 -199.478 169.751)" label="Layer 1" stroke="#ffff00" stroke-width="1px" fill="#000000" d="M174,524.36C207.78,558.572 233.482,603.1 272,618.36" id="imagebot_107"/>
    <path transform="matrix(0.93611 -0.35171 0.35171 0.93611 -199.478 169.751)" label="Layer 1" stroke="#ffff00" stroke-width="1px" fill="#000000" d="M172,532.86C205.78,567.072 233.482,613.1 272,628.36" id="imagebot_106"/>
    <path transform="matrix(0.93611 -0.35171 0.35171 0.93611 -199.478 169.751)" label="Layer 1" stroke="#ffff00" stroke-width="1px" fill="#000000" d="M173,544.36C206.78,578.572 233.482,623.1 272,638.36" id="imagebot_105"/>
    <path transform="matrix(0.93611 -0.35171 0.35171 0.93611 -199.478 169.751)" label="Layer 1" stroke="#ffff00" stroke-width="1px" fill="#000000" d="M171.5,554.36C205.28,588.572 233.482,635.1 272,650.36" id="imagebot_104"/>
    <path transform="matrix(0.93611 -0.35171 0.35171 0.93611 -199.478 169.751)" label="Layer 1" stroke="#ffff00" stroke-width="1px" fill="#000000" d="M170,560.36C203.78,594.572 233.482,645.1 272,660.36" id="imagebot_103"/>
    <path transform="matrix(0.93611 -0.35171 0.35171 0.93611 -199.478 169.751)" label="Layer 1" stroke="#ffff00" stroke-width="1px" fill="#000000" d="M170,570.36C203.78,604.572 233.482,655.1 272,670.36" id="imagebot_102"/>
    <path transform="matrix(0.93611 -0.35171 0.35171 0.93611 -199.478 169.751)" label="Layer 1" stroke="#ffff00" stroke-width="1px" fill="#000000" d="M170,580.36C203.78,614.572 233.482,665.1 272,680.36" id="imagebot_101"/>
    <path transform="matrix(0.93611 -0.35171 0.35171 0.93611 -199.478 169.751)" label="Layer 1" stroke="#ffff00" stroke-width="1px" fill="#000000" d="M170,592.36C203.78,626.572 233.482,677.1 272,692.36" id="imagebot_100"/>
    <path transform="matrix(0.93611 -0.35171 0.35171 0.93611 -199.478 169.751)" label="Layer 1" stroke="#ffff00" stroke-width="1px" fill="#000000" d="M170,602.36C203.78,636.572 233.482,687.1 272,702.36" id="imagebot_99"/>
    <path transform="matrix(0.93611 -0.35171 0.35171 0.93611 -199.478 169.751)" label="Layer 1" stroke="#ffff00" stroke-width="1px" fill="#000000" d="M171,615.36C199.78,652.572 241.482,702.1 275,728.36" id="imagebot_98"/>
    <path transform="matrix(0.93611 -0.35171 0.35171 0.93611 -199.478 169.751)" label="Layer 1" stroke="#ffff00" stroke-width="1px" fill="#000000" d="M171,629.36C199.78,666.572 243.482,717.1 276,748.36" id="imagebot_97"/>
    <path transform="matrix(0.93611 -0.35171 0.35171 0.93611 -199.478 169.751)" label="Layer 1" stroke="#ffff00" stroke-width="1px" fill="#000000" d="M171,641.36C199.78,678.572 244.482,745.1 278,771.36" id="imagebot_96"/>
    <path transform="matrix(0.93611 -0.35171 0.35171 0.93611 -199.478 169.751)" label="Layer 1" stroke="#ffff00" stroke-width="1px" fill="#000000" d="M173,478.86C206.78,513.072 233.482,561.1 272,576.36" id="imagebot_95"/>
   </g>
   <g id="imagebot_118">
    <path transform="matrix(-0.93611 0.35171 0.35171 0.93611 342.122 -33.739)" label="Layer 1" stroke="#ffff00" stroke-width="1px" fill="#000000" d="M173,489.86C206.78,524.072 233.482,571.1 272,586.36" id="imagebot_56"/>
    <path transform="matrix(-0.93611 0.35171 0.35171 0.93611 342.122 -33.739)" label="Layer 1" stroke="#ffff00" stroke-width="1px" fill="#000000" d="M173,499.86C206.78,534.072 233.482,581.1 272,596.36" id="imagebot_55"/>
    <path transform="matrix(-0.93611 0.35171 0.35171 0.93611 342.122 -33.739)" label="Layer 1" stroke="#ffff00" stroke-width="1px" fill="#000000" d="M173,512.36C206.78,546.572 233.482,593.1 272,608.36" id="imagebot_54"/>
    <path transform="matrix(-0.93611 0.35171 0.35171 0.93611 342.122 -33.739)" label="Layer 1" stroke="#ffff00" stroke-width="1px" fill="#000000" d="M174,524.36C207.78,558.572 233.482,603.1 272,618.36" id="imagebot_53"/>
    <path transform="matrix(-0.93611 0.35171 0.35171 0.93611 342.122 -33.739)" label="Layer 1" stroke="#ffff00" stroke-width="1px" fill="#000000" d="M172,532.86C205.78,567.072 233.482,613.1 272,628.36" id="imagebot_52"/>
    <path transform="matrix(-0.93611 0.35171 0.35171 0.93611 342.122 -33.739)" label="Layer 1" stroke="#ffff00" stroke-width="1px" fill="#000000" d="M173,544.36C206.78,578.572 233.482,623.1 272,638.36" id="imagebot_51"/>
    <path transform="matrix(-0.93611 0.35171 0.35171 0.93611 342.122 -33.739)" label="Layer 1" stroke="#ffff00" stroke-width="1px" fill="#000000" d="M171.5,554.36C205.28,588.572 233.482,635.1 272,650.36" id="imagebot_50"/>
    <path transform="matrix(-0.93611 0.35171 0.35171 0.93611 342.122 -33.739)" label="Layer 1" stroke="#ffff00" stroke-width="1px" fill="#000000" d="M170,560.36C203.78,594.572 233.482,645.1 272,660.36" id="imagebot_49"/>
    <path transform="matrix(-0.93611 0.35171 0.35171 0.93611 342.122 -33.739)" label="Layer 1" stroke="#ffff00" stroke-width="1px" fill="#000000" d="M170,570.36C203.78,604.572 233.482,655.1 272,670.36" id="imagebot_48"/>
    <path transform="matrix(-0.93611 0.35171 0.35171 0.93611 342.122 -33.739)" label="Layer 1" stroke="#ffff00" stroke-width="1px" fill="#000000" d="M170,580.36C203.78,614.572 233.482,665.1 272,680.36" id="imagebot_47"/>
    <path transform="matrix(-0.93611 0.35171 0.35171 0.93611 342.122 -33.739)" label="Layer 1" stroke="#ffff00" stroke-width="1px" fill="#000000" d="M170,592.36C203.78,626.572 233.482,677.1 272,692.36" id="imagebot_46"/>
    <path transform="matrix(-0.93611 0.35171 0.35171 0.93611 342.122 -33.739)" label="Layer 1" stroke="#ffff00" stroke-width="1px" fill="#000000" d="M170,602.36C203.78,636.572 233.482,687.1 272,702.36" id="imagebot_45"/>
    <path transform="matrix(-0.93611 0.35171 0.35171 0.93611 342.122 -33.739)" label="Layer 1" stroke="#ffff00" stroke-width="1px" fill="#000000" d="M171,615.36C199.78,652.572 241.482,702.1 275,728.36" id="imagebot_44"/>
    <path transform="matrix(-0.93611 0.35171 0.35171 0.93611 342.122 -33.739)" label="Layer 1" stroke="#ffff00" stroke-width="1px" fill="#000000" d="M171,629.36C199.78,666.572 243.482,717.1 276,748.36" id="imagebot_43"/>
    <path transform="matrix(-0.93611 0.35171 0.35171 0.93611 342.122 -33.739)" label="Layer 1" stroke="#ffff00" stroke-width="1px" fill="#000000" d="M171,641.36C199.78,678.572 244.482,745.1 278,771.36" id="imagebot_42"/>
    <path transform="matrix(-0.93611 0.35171 0.35171 0.93611 342.122 -33.739)" label="Layer 1" stroke="#ffff00" stroke-width="1px" fill="#000000" d="M173,478.86C206.78,513.072 233.482,561.1 272,576.36" id="imagebot_41"/>
   </g>
  </g>
  <g opacity="0.15" id="imagebot_130">
   <g transform="translate(-1.25 0) matrix(1 0 0 1 -1.25 2.5)" id="imagebot_119">
    <path transform="matrix(-0.78624 0.16877 0.33519 0.90911 241.762 -158.299)" label="Layer 1" stroke="#ffff56" stroke-width="1px" fill="#000000" d="M196.96,460.16C213.77,508.52 233.48,571.1 272,586.36" id="imagebot_38"/>
    <path transform="matrix(-0.78624 0.16877 0.33519 0.90911 241.762 -158.299)" label="Layer 1" stroke="#ffff56" stroke-width="1px" fill="#000000" d="M192.5,476.36C212.28,522.572 233.482,581.1 272,596.36" id="imagebot_37"/>
    <path transform="matrix(-0.78624 0.16877 0.33519 0.90911 241.762 -158.299)" label="Layer 1" stroke="#ffff56" stroke-width="1px" fill="#000000" d="M191.5,492.86C209.78,534.072 233.482,593.1 272,608.36" id="imagebot_36"/>
    <path transform="matrix(-0.78624 0.16877 0.33519 0.90911 241.762 -158.299)" label="Layer 1" stroke="#ffff56" stroke-width="1px" fill="#000000" d="M188.5,504.86C213.28,551.572 233.482,603.1 272,618.36" id="imagebot_35"/>
    <path transform="matrix(-0.78624 0.16877 0.33519 0.90911 241.762 -158.299)" label="Layer 1" stroke="#ffff56" stroke-width="1px" fill="#000000" d="M187.5,521.36C208.28,560.072 233.482,613.1 272,628.36" id="imagebot_34"/>
    <path transform="matrix(-0.78624 0.16877 0.33519 0.90911 241.762 -158.299)" label="Layer 1" stroke="#ffff56" stroke-width="1px" fill="#000000" d="M185.5,535.36C207.78,572.572 233.482,623.1 272,638.36" id="imagebot_33"/>
    <path transform="matrix(-0.78624 0.16877 0.33519 0.90911 241.762 -158.299)" label="Layer 1" stroke="#ffff56" stroke-width="1px" fill="#000000" d="M182.5,553.86C209.78,592.072 233.482,635.1 272,650.36" id="imagebot_32"/>
    <path transform="matrix(-0.78624 0.16877 0.33519 0.90911 241.762 -158.299)" label="Layer 1" stroke="#ffff56" stroke-width="1px" fill="#000000" d="M180,570.86C213.78,605.072 233.482,645.1 272,660.36" id="imagebot_31"/>
    <path transform="matrix(-0.78624 0.16877 0.33519 0.90911 241.762 -158.299)" label="Layer 1" stroke="#ffff56" stroke-width="1px" fill="#000000" d="M179,582.36C212.78,616.572 233.482,655.1 272,670.36" id="imagebot_30"/>
    <path transform="matrix(-0.78624 0.16877 0.33519 0.90911 241.762 -158.299)" label="Layer 1" stroke="#ffff56" stroke-width="1px" fill="#000000" d="M177.5,589.86C211.28,624.072 233.482,665.1 272,680.36" id="imagebot_29"/>
    <path transform="matrix(-0.78624 0.16877 0.33519 0.90911 241.762 -158.299)" label="Layer 1" stroke="#ffff56" stroke-width="1px" fill="#000000" d="M177.5,601.86C211.28,636.072 233.482,677.1 272,692.36" id="imagebot_28"/>
    <path transform="matrix(-0.78624 0.16877 0.33519 0.90911 241.762 -158.299)" label="Layer 1" stroke="#ffff56" stroke-width="1px" fill="#000000" d="M176.5,610.86C210.28,645.072 233.482,687.1 272,702.36" id="imagebot_27"/>
    <path transform="matrix(-0.78624 0.16877 0.33519 0.90911 241.762 -158.299)" label="Layer 1" stroke="#ffff56" stroke-width="1px" fill="#000000" d="M174.5,619.36C203.28,656.572 241.482,702.1 275,728.36" id="imagebot_26"/>
    <path transform="matrix(-0.78624 0.16877 0.33519 0.90911 241.762 -158.299)" label="Layer 1" stroke="#ffff56" stroke-width="1px" fill="#000000" d="M171,629.36C199.78,666.572 243.482,717.1 276,748.36" id="imagebot_25"/>
    <path transform="matrix(-0.78624 0.16877 0.33519 0.90911 241.762 -158.299)" label="Layer 1" stroke="#ffff56" stroke-width="1px" fill="#000000" d="M176.5,648.86C203.78,689.572 244.482,745.1 278,771.36" id="imagebot_24"/>
    <path transform="matrix(-0.78624 0.16877 0.33519 0.90911 241.762 -158.299)" label="Layer 1" stroke="#ffff56" stroke-width="1px" fill="#000000" d="M199.53,442.01C220.58,493.19 218.48,534.1 272,576.36" id="imagebot_23"/>
   </g>
   <g transform="translate(1.25 0) translate(1.25 0)" id="imagebot_123">
    <g id="imagebot_120">
     <path transform="matrix(0.93611 -0.35171 0.37523 0.99872 -296.258 -76.469)" label="Layer 1" stroke="#ffff56" stroke-width="1px" fill="#000000" d="M196.96,460.16C213.77,508.52 233.48,571.1 272,586.36" id="imagebot_92"/>
     <path transform="matrix(0.93611 -0.35171 0.37523 0.99872 -296.258 -76.469)" label="Layer 1" stroke="#ffff56" stroke-width="1px" fill="#000000" d="M192.5,476.36C212.28,522.572 233.482,581.1 272,596.36" id="imagebot_91"/>
     <path transform="matrix(0.93611 -0.35171 0.37523 0.99872 -296.258 -76.469)" label="Layer 1" stroke="#ffff56" stroke-width="1px" fill="#000000" d="M191.5,492.86C209.78,534.072 233.482,593.1 272,608.36" id="imagebot_90"/>
     <path transform="matrix(0.93611 -0.35171 0.37523 0.99872 -296.258 -76.469)" label="Layer 1" stroke="#ffff56" stroke-width="1px" fill="#000000" d="M188.5,504.86C213.28,551.572 233.482,603.1 272,618.36" id="imagebot_89"/>
     <path transform="matrix(0.93611 -0.35171 0.37523 0.99872 -296.258 -76.469)" label="Layer 1" stroke="#ffff56" stroke-width="1px" fill="#000000" d="M187.5,521.36C208.28,560.072 233.482,613.1 272,628.36" id="imagebot_88"/>
     <path transform="matrix(0.93611 -0.35171 0.37523 0.99872 -296.258 -76.469)" label="Layer 1" stroke="#ffff56" stroke-width="1px" fill="#000000" d="M185.5,535.36C207.78,572.572 233.482,623.1 272,638.36" id="imagebot_87"/>
     <path transform="matrix(0.93611 -0.35171 0.37523 0.99872 -296.258 -76.469)" label="Layer 1" stroke="#ffff56" stroke-width="1px" fill="#000000" d="M182.5,553.86C209.78,592.072 233.482,635.1 272,650.36" id="imagebot_86"/>
     <path transform="matrix(0.93611 -0.35171 0.37523 0.99872 -296.258 -76.469)" label="Layer 1" stroke="#ffff56" stroke-width="1px" fill="#000000" d="M180,570.86C213.78,605.072 233.482,645.1 272,660.36" id="imagebot_85"/>
     <path transform="matrix(0.93611 -0.35171 0.37523 0.99872 -296.258 -76.469)" label="Layer 1" stroke="#ffff56" stroke-width="1px" fill="#000000" d="M179,582.36C212.78,616.572 233.482,655.1 272,670.36" id="imagebot_84"/>
     <path transform="matrix(0.93611 -0.35171 0.37523 0.99872 -296.258 -76.469)" label="Layer 1" stroke="#ffff56" stroke-width="1px" fill="#000000" d="M177.5,589.86C211.28,624.072 233.482,665.1 272,680.36" id="imagebot_83"/>
     <path transform="matrix(0.93611 -0.35171 0.37523 0.99872 -296.258 -76.469)" label="Layer 1" stroke="#ffff56" stroke-width="1px" fill="#000000" d="M177.5,601.86C211.28,636.072 233.482,677.1 272,692.36" id="imagebot_82"/>
     <path transform="matrix(0.93611 -0.35171 0.37523 0.99872 -296.258 -76.469)" label="Layer 1" stroke="#ffff56" stroke-width="1px" fill="#000000" d="M176.5,610.86C210.28,645.072 233.482,687.1 272,702.36" id="imagebot_81"/>
     <path transform="matrix(0.93611 -0.35171 0.37523 0.99872 -296.258 -76.469)" label="Layer 1" stroke="#ffff56" stroke-width="1px" fill="#000000" d="M174.5,619.36C203.28,656.572 241.482,702.1 275,728.36" id="imagebot_80"/>
     <path transform="matrix(0.93611 -0.35171 0.37523 0.99872 -296.258 -76.469)" label="Layer 1" stroke="#ffff56" stroke-width="1px" fill="#000000" d="M171,629.36C199.78,666.572 243.482,717.1 276,748.36" id="imagebot_79"/>
     <path transform="matrix(0.93611 -0.35171 0.37523 0.99872 -296.258 -76.469)" label="Layer 1" stroke="#ffff56" stroke-width="1px" fill="#000000" d="M176.5,648.86C203.78,689.572 244.482,745.1 278,771.36" id="imagebot_78"/>
    </g>
    <path transform="matrix(0.93611 -0.35171 0.37523 0.99872 -296.258 -76.469)" label="Layer 1" stroke="#ffff56" stroke-width="1px" fill="#000000" d="M199.53,442.01C220.58,493.19 218.48,534.1 272,576.36" id="imagebot_77"/>
   </g>
  </g>
  <g opacity="0.24" id="imagebot_131">
   <g id="imagebot_122">
    <path transform="matrix(0.70891 -0.26635 0.34741 0.92466 -280.448 -251.029)" label="Layer 1" stroke="#ffffaa" stroke-width="1px" fill="#000000" d="M170,486.36C203.78,520.572 233.482,571.1 272,586.36" id="imagebot_74"/>
    <path transform="matrix(0.70891 -0.26635 0.34741 0.92466 -280.448 -251.029)" label="Layer 1" stroke="#ffffaa" stroke-width="1px" fill="#000000" d="M170,496.36C203.78,530.572 233.482,581.1 272,596.36" id="imagebot_73"/>
    <path transform="matrix(0.70891 -0.26635 0.34741 0.92466 -280.448 -251.029)" label="Layer 1" stroke="#ffffaa" stroke-width="1px" fill="#000000" d="M170,508.36C203.78,542.572 233.482,593.1 272,608.36" id="imagebot_72"/>
    <path transform="matrix(0.70891 -0.26635 0.34741 0.92466 -280.448 -251.029)" label="Layer 1" stroke="#ffffaa" stroke-width="1px" fill="#000000" d="M170,518.36C203.78,552.572 233.482,603.1 272,618.36" id="imagebot_71"/>
    <path transform="matrix(0.70891 -0.26635 0.34741 0.92466 -280.448 -251.029)" label="Layer 1" stroke="#ffffaa" stroke-width="1px" fill="#000000" d="M170,528.36C203.78,562.572 233.482,613.1 272,628.36" id="imagebot_70"/>
    <path transform="matrix(0.70891 -0.26635 0.34741 0.92466 -280.448 -251.029)" label="Layer 1" stroke="#ffffaa" stroke-width="1px" fill="#000000" d="M170,538.36C203.78,572.572 233.482,623.1 272,638.36" id="imagebot_69"/>
    <path transform="matrix(0.70891 -0.26635 0.34741 0.92466 -280.448 -251.029)" label="Layer 1" stroke="#ffffaa" stroke-width="1px" fill="#000000" d="M170,550.36C203.78,584.572 233.482,635.1 272,650.36" id="imagebot_68"/>
    <path transform="matrix(0.70891 -0.26635 0.34741 0.92466 -280.448 -251.029)" label="Layer 1" stroke="#ffffaa" stroke-width="1px" fill="#000000" d="M170,560.36C203.78,594.572 233.482,645.1 272,660.36" id="imagebot_67"/>
    <path transform="matrix(0.70891 -0.26635 0.34741 0.92466 -280.448 -251.029)" label="Layer 1" stroke="#ffffaa" stroke-width="1px" fill="#000000" d="M170,570.36C203.78,604.572 233.482,655.1 272,670.36" id="imagebot_66"/>
    <path transform="matrix(0.70891 -0.26635 0.34741 0.92466 -280.448 -251.029)" label="Layer 1" stroke="#ffffaa" stroke-width="1px" fill="#000000" d="M170,580.36C203.78,614.572 233.482,665.1 272,680.36" id="imagebot_65"/>
    <path transform="matrix(0.70891 -0.26635 0.34741 0.92466 -280.448 -251.029)" label="Layer 1" stroke="#ffffaa" stroke-width="1px" fill="#000000" d="M170,592.36C203.78,626.572 233.482,677.1 272,692.36" id="imagebot_64"/>
    <path transform="matrix(0.70891 -0.26635 0.34741 0.92466 -280.448 -251.029)" label="Layer 1" stroke="#ffffaa" stroke-width="1px" fill="#000000" d="M170,602.36C203.78,636.572 233.482,687.1 272,702.36" id="imagebot_63"/>
    <path transform="matrix(0.70891 -0.26635 0.34741 0.92466 -280.448 -251.029)" label="Layer 1" stroke="#ffffaa" stroke-width="1px" fill="#000000" d="M171,615.36C199.78,652.572 241.482,702.1 275,728.36" id="imagebot_62"/>
    <path transform="matrix(0.70891 -0.26635 0.34741 0.92466 -280.448 -251.029)" label="Layer 1" stroke="#ffffaa" stroke-width="1px" fill="#000000" d="M171,629.36C199.78,666.572 243.482,717.1 276,748.36" id="imagebot_61"/>
    <path transform="matrix(0.70891 -0.26635 0.34741 0.92466 -280.448 -251.029)" label="Layer 1" stroke="#ffffaa" stroke-width="1px" fill="#000000" d="M171,641.36C199.78,678.572 244.482,745.1 278,771.36" id="imagebot_60"/>
    <path transform="matrix(0.70891 -0.26635 0.34741 0.92466 -280.448 -251.029)" label="Layer 1" stroke="#ffffaa" stroke-width="1px" fill="#000000" d="M170,476.36C203.78,510.572 233.482,561.1 272,576.36" id="imagebot_59"/>
   </g>
   <g id="imagebot_124">
    <path transform="matrix(-0.70861 0.26715 0.34845 0.92427 132.782 -380.909)" label="Layer 1" stroke="#ffffaa" stroke-width="1px" fill="#000000" d="M170,486.36C203.78,520.572 233.482,571.1 272,586.36" id="imagebot_19"/>
    <path transform="matrix(-0.70861 0.26715 0.34845 0.92427 132.782 -380.909)" label="Layer 1" stroke="#ffffaa" stroke-width="1px" fill="#000000" d="M170,496.36C203.78,530.572 233.482,581.1 272,596.36" id="imagebot_18"/>
    <path transform="matrix(-0.70861 0.26715 0.34845 0.92427 132.782 -380.909)" label="Layer 1" stroke="#ffffaa" stroke-width="1px" fill="#000000" d="M170,508.36C203.78,542.572 233.482,593.1 272,608.36" id="imagebot_17"/>
    <path transform="matrix(-0.70861 0.26715 0.34845 0.92427 132.782 -380.909)" label="Layer 1" stroke="#ffffaa" stroke-width="1px" fill="#000000" d="M170,518.36C203.78,552.572 233.482,603.1 272,618.36" id="imagebot_16"/>
    <path transform="matrix(-0.70861 0.26715 0.34845 0.92427 132.782 -380.909)" label="Layer 1" stroke="#ffffaa" stroke-width="1px" fill="#000000" d="M170,528.36C203.78,562.572 233.482,613.1 272,628.36" id="imagebot_15"/>
    <path transform="matrix(-0.70861 0.26715 0.34845 0.92427 132.782 -380.909)" label="Layer 1" stroke="#ffffaa" stroke-width="1px" fill="#000000" d="M170,538.36C203.78,572.572 233.482,623.1 272,638.36" id="imagebot_14"/>
    <path transform="matrix(-0.70861 0.26715 0.34845 0.92427 132.782 -380.909)" label="Layer 1" stroke="#ffffaa" stroke-width="1px" fill="#000000" d="M170,550.36C203.78,584.572 233.482,635.1 272,650.36" id="imagebot_13"/>
    <path transform="matrix(-0.70861 0.26715 0.34845 0.92427 132.782 -380.909)" label="Layer 1" stroke="#ffffaa" stroke-width="1px" fill="#000000" d="M170,560.36C203.78,594.572 233.482,645.1 272,660.36" id="imagebot_12"/>
    <path transform="matrix(-0.70861 0.26715 0.34845 0.92427 132.782 -380.909)" label="Layer 1" stroke="#ffffaa" stroke-width="1px" fill="#000000" d="M170,570.36C203.78,604.572 233.482,655.1 272,670.36" id="imagebot_11"/>
    <path transform="matrix(-0.70861 0.26715 0.34845 0.92427 132.782 -380.909)" label="Layer 1" stroke="#ffffaa" stroke-width="1px" fill="#000000" d="M170,580.36C203.78,614.572 233.482,665.1 272,680.36" id="imagebot_10"/>
    <path transform="matrix(-0.70861 0.26715 0.34845 0.92427 132.782 -380.909)" label="Layer 1" stroke="#ffffaa" stroke-width="1px" fill="#000000" d="M170,592.36C203.78,626.572 233.482,677.1 272,692.36" id="imagebot_9"/>
    <path transform="matrix(-0.70861 0.26715 0.34845 0.92427 132.782 -380.909)" label="Layer 1" stroke="#ffffaa" stroke-width="1px" fill="#000000" d="M170,602.36C203.78,636.572 233.482,687.1 272,702.36" id="imagebot_8"/>
    <path transform="matrix(-0.70861 0.26715 0.34845 0.92427 132.782 -380.909)" label="Layer 1" stroke="#ffffaa" stroke-width="1px" fill="#000000" d="M171,615.36C199.78,652.572 241.482,702.1 275,728.36" id="imagebot_7"/>
    <path transform="matrix(-0.70861 0.26715 0.34845 0.92427 132.782 -380.909)" label="Layer 1" stroke="#ffffaa" stroke-width="1px" fill="#000000" d="M171,629.36C199.78,666.572 243.482,717.1 276,748.36" id="imagebot_6"/>
    <path transform="matrix(-0.70861 0.26715 0.34845 0.92427 132.782 -380.909)" label="Layer 1" stroke="#ffffaa" stroke-width="1px" fill="#000000" d="M171,641.36C199.78,678.572 244.482,745.1 278,771.36" id="imagebot_5"/>
    <path transform="matrix(-0.70861 0.26715 0.34845 0.92427 132.782 -380.909)" label="Layer 1" stroke="#ffffaa" stroke-width="1px" fill="#000000" d="M170,476.36C203.78,510.572 233.482,561.1 272,576.36" id="imagebot_4"/>
   </g>
  </g>
 </g>
 <metadata>image/svg+xmlOpenclipart</metadata>
</svg>