<?xml version="1.0" encoding="UTF-8" standalone="no"?>
<!-- Created with Inkscape (http://www.inkscape.org/) -->

<svg
   width="22.036325mm"
   height="29.56502mm"
   viewBox="0 0 22.036325 29.565019"
   version="1.1"
   id="svg2269"
   inkscape:version="1.1.2 (0a00cf5339, 2022-02-04)"
   sodipodi:docname="item368.svg"
   xmlns:inkscape="http://www.inkscape.org/namespaces/inkscape"
   xmlns:sodipodi="http://sodipodi.sourceforge.net/DTD/sodipodi-0.dtd"
   xmlns="http://www.w3.org/2000/svg"
   xmlns:svg="http://www.w3.org/2000/svg">
  <sodipodi:namedview
     id="namedview2271"
     pagecolor="#ffffff"
     bordercolor="#666666"
     borderopacity="1.0"
     inkscape:pageshadow="2"
     inkscape:pageopacity="0.0"
     inkscape:pagecheckerboard="0"
     inkscape:document-units="mm"
     showgrid="false"
     fit-margin-top="0"
     fit-margin-left="0"
     fit-margin-right="0"
     fit-margin-bottom="0"
     inkscape:zoom="0.48996914"
     inkscape:cx="-276.54803"
     inkscape:cy="324.51024"
     inkscape:window-width="1366"
     inkscape:window-height="719"
     inkscape:window-x="0"
     inkscape:window-y="25"
     inkscape:window-maximized="1"
     inkscape:current-layer="layer1" />
  <defs
     id="defs2266" />
  <g
     inkscape:label="Capa 1"
     inkscape:groupmode="layer"
     id="layer1"
     transform="translate(-174.36577,-63.047611)">
    <g
       id="g6928"
       transform="matrix(0.04642234,0,0,0.04642234,67.066257,51.269195)">
      <path
         style="opacity:1;fill:#37c837;fill-opacity:1;stroke:none;stroke-width:4;stroke-miterlimit:4;stroke-dasharray:none;stroke-opacity:1"
         inkscape:transform-center-x="16.529204"
         inkscape:transform-center-y="23.341364"
         d="m 2549.3449,259.31664 233.4628,396.55231 -71.8567,136.2534 -164.1153,95.16772 -162.8607,-96.68546 -69.3474,-136.90883 z"
         id="path4274"
         inkscape:connector-curvature="0"
         sodipodi:nodetypes="ccccccc" />
      <path
         id="path4257"
         d="m 2549.3444,259.31745 -0.2137,126.73032 153.8162,261.26548 79.86,8.55635 z"
         style="opacity:1;fill:#87de87;fill-opacity:1;stroke:none;stroke-width:4;stroke-miterlimit:4;stroke-dasharray:none;stroke-opacity:1"
         inkscape:connector-curvature="0" />
      <path
         id="path4289"
         d="m 2655.6043,737.08264 55.3475,55.0389 71.8551,-136.25194 -79.86,-8.55635 z"
         style="opacity:1;fill:#37c837;fill-opacity:1;stroke:none;stroke-width:4;stroke-miterlimit:4;stroke-dasharray:none;stroke-opacity:1"
         inkscape:connector-curvature="0" />
      <path
         id="path4287"
         d="m 2547.4777,799.78331 -0.6412,87.5062 164.1153,-95.16797 -55.3475,-55.0389 z"
         style="opacity:1;fill:#2ca02c;fill-opacity:1;stroke:none;stroke-width:4;stroke-miterlimit:4;stroke-dasharray:none;stroke-opacity:1"
         inkscape:connector-curvature="0" />
      <path
         id="path4285"
         d="m 2440.1784,736.0829 -56.2041,54.5218 162.8622,96.68481 0.6412,-87.5062 z"
         style="opacity:1;fill:#217821;fill-opacity:1;stroke:none;stroke-width:4;stroke-miterlimit:4;stroke-dasharray:none;stroke-opacity:1"
         inkscape:connector-curvature="0" />
      <path
         id="path4283"
         d="m 2394.4888,645.88258 -79.8617,7.81346 69.3472,136.90866 56.2041,-54.5218 z"
         style="opacity:1;fill:#2ca02c;fill-opacity:1;stroke:none;stroke-width:4;stroke-miterlimit:4;stroke-dasharray:none;stroke-opacity:1"
         inkscape:connector-curvature="0" />
      <path
         id="path4281"
         d="m 2549.3444,259.31745 -234.7173,394.37859 79.8617,-7.81346 154.6419,-259.83481 z"
         style="opacity:1;fill:#37c837;fill-opacity:1;stroke:none;stroke-width:4;stroke-miterlimit:4;stroke-dasharray:none;stroke-opacity:1"
         inkscape:connector-curvature="0" />
      <path
         style="opacity:1;fill:#afe9af;fill-opacity:1;stroke:none;stroke-width:4;stroke-miterlimit:4;stroke-dasharray:none;stroke-opacity:1"
         inkscape:transform-center-x="10.890154"
         inkscape:transform-center-y="15.378304"
         d="m 2549.131,386.04796 153.8154,261.26586 -47.3424,89.76965 -108.1262,62.70063 -107.2997,-63.70058 -45.6891,-90.20147 z"
         id="path4260"
         inkscape:connector-curvature="0"
         sodipodi:nodetypes="ccccccc" />
      <path
         inkscape:connector-curvature="0"
         id="path4298"
         d="m 2451.6392,550.24061 a 151.92046,157.59384 0 0 0 139.4425,95.18175 151.92046,157.59384 0 0 0 92.1981,-32.58622 l 19.6671,33.04644 -45.6896,90.20032 -107.2993,63.70041 -108.1266,-62.70067 -47.3426,-89.76939 z"
         style="opacity:1;fill:#87de87;fill-opacity:1;stroke:none;stroke-width:4;stroke-miterlimit:4;stroke-dasharray:none;stroke-opacity:1" />
      <path
         id="path4291"
         d="m 2549.3444,259.31745 -234.7173,394.37859 69.3472,136.90866 162.8622,96.68481 164.1153,-95.16797 71.8551,-136.25194 z m -0.2137,126.73032 153.8162,261.26548 -47.3426,89.76939 -108.1266,62.70067 -107.2993,-63.70041 -45.6896,-90.20032 z"
         style="opacity:1;fill:none;fill-opacity:1;stroke:#0b280b;stroke-width:5.69948;stroke-miterlimit:4;stroke-dasharray:none;stroke-opacity:1"
         inkscape:connector-curvature="0" />
      <path
         inkscape:connector-curvature="0"
         id="path4302"
         d="m 2557.4261,436.17129 a 14.425533,9.9448384 79.70798 0 1 4.9838,1.61109 14.425533,9.9448384 79.70798 0 1 6.4098,17.74844 12.127299,8.2395586 82.186805 0 1 2.7527,1.16987 12.127299,8.2395586 82.186805 0 1 4.8767,16.19537 12.127299,8.2395586 82.186805 0 1 -10.7208,5.37785 12.127299,8.2395586 82.186805 0 1 -5.3352,-13.50516 14.425533,9.9448384 79.70798 0 1 -4.8594,-1.60605 14.425533,9.9448384 79.70798 0 1 -6.0789,-19.29147 14.425533,9.9448384 79.70798 0 1 7.9713,-7.69994 z"
         style="opacity:0.77;fill:#ffffff;fill-opacity:1;stroke:none;stroke-width:4;stroke-miterlimit:4;stroke-dasharray:none;stroke-opacity:1" />
      <ellipse
         transform="matrix(-0.71418113,0.69996093,0.52105885,0.85352075,0,0)"
         ry="38.501381"
         rx="13.722534"
         cy="2259.28"
         cx="-1998.9762"
         id="path4308"
         style="opacity:0.77;fill:#ffffff;fill-opacity:1;stroke:none;stroke-width:4;stroke-miterlimit:4;stroke-dasharray:none;stroke-opacity:1" />
      <path
         inkscape:connector-curvature="0"
         id="path4310"
         d="m 2549.2857,295.42343 -212.5299,355.9229 62.7922,123.55824 147.4664,87.25783 148.6021,-85.88899 65.0618,-122.96684 z m 0.3522,60.94641 173.2503,293.30757 -53.3231,100.7777 -121.7883,70.38959 -120.8586,-71.51274 -51.4603,-101.26205 z"
         style="opacity:0.5;fill:#afe9af;fill-opacity:1;stroke:none;stroke-width:4;stroke-miterlimit:4;stroke-dasharray:none;stroke-opacity:1" />
    </g>
  </g>
</svg>
