<?xml version="1.0" encoding="UTF-8" standalone="no"?>
<!-- Created with Inkscape (http://www.inkscape.org/) -->

<svg
     xmlns:dc="http://purl.org/dc/elements/1.1/"
     xmlns:cc="http://creativecommons.org/ns#"
     xmlns:rdf="http://www.w3.org/1999/02/22-rdf-syntax-ns#"
     xmlns:svg="http://www.w3.org/2000/svg"
     xmlns="http://www.w3.org/2000/svg"
     xmlns:xlink="http://www.w3.org/1999/xlink"
     xmlns:sodipodi="http://sodipodi.sourceforge.net/DTD/sodipodi-0.dtd"
     xmlns:inkscape="http://www.inkscape.org/namespaces/inkscape"
     width="326.61719"
     height="314.10062"
     id="svg3514"
     version="1.1"
     inkscape:version="0.48.5 r10040"
     sodipodi:docname="New document 2">
    <defs
         id="defs3516">
        <radialGradient
             id="SVGID_5_"
             cx="1435.0908"
             cy="-13776.663"
             r="50.142799"
             fx="1471.0757"
             fy="-13776.663"
             gradientTransform="matrix(0.0247,-0.999,-0.5327,-0.042,-7373.9824,905.2002)"
             gradientUnits="userSpaceOnUse">
            <stop
                 offset="0"
                 style="stop-color:#FDF8D7"
                 id="stop46" />
            <stop
                 offset="0.349"
                 style="stop-color:#F9EA88;stop-opacity:0.6"
                 id="stop48" />
            <stop
                 offset="0.6588"
                 style="stop-color:#F6DF4B;stop-opacity:0.2745"
                 id="stop50" />
            <stop
                 offset="0.8863"
                 style="stop-color:#F4D92D;stop-opacity:0.0745"
                 id="stop52" />
            <stop
                 offset="1"
                 style="stop-color:#F4D626;stop-opacity:0"
                 id="stop54" />
        </radialGradient>
        <radialGradient
             id="SVGID_12_"
             cx="-45.6978"
             cy="27.683599"
             r="17.1138"
             gradientTransform="matrix(-0.0124,-0.9999,-0.7041,0.0088,47.1738,-0.5858)"
             gradientUnits="userSpaceOnUse">
            <stop
                 offset="0"
                 style="stop-color:#FFFFFF;stop-opacity:0.6"
                 id="stop203" />
            <stop
                 offset="1"
                 style="stop-color:#F4D626;stop-opacity:0.7569"
                 id="stop205" />
        </radialGradient>
        <radialGradient
             id="SVGID_11_"
             cx="-47.8452"
             cy="23.6304"
             r="32.777401"
             gradientTransform="matrix(-0.1869,-0.9824,-1.0121,0.1583,47.2762,-7.3921)"
             gradientUnits="userSpaceOnUse">
            <stop
                 offset="0"
                 style="stop-color:#FCF43E;stop-opacity:0.8196"
                 id="stop196" />
            <stop
                 offset="1"
                 style="stop-color:#E07518;stop-opacity:0.9176"
                 id="stop198" />
        </radialGradient>
        <radialGradient
             id="SVGID_10_"
             cx="-47.5737"
             cy="22.872601"
             r="32.777401"
             gradientTransform="matrix(-0.1869,-0.9824,-1.0121,0.1583,45.76,-7.155)"
             gradientUnits="userSpaceOnUse">
            <stop
                 offset="0"
                 style="stop-color:#FCF43E;stop-opacity:0.8196"
                 id="stop189" />
            <stop
                 offset="1"
                 style="stop-color:#E07518;stop-opacity:0.9176"
                 id="stop191" />
        </radialGradient>
        <radialGradient
             inkscape:collect="always"
             xlink:href="#SVGID_9_"
             id="radialGradient3433"
             gradientUnits="userSpaceOnUse"
             gradientTransform="matrix(-1.1738359,-6.1700181,-6.3565506,0.994212,987.85704,-722.33037)"
             cx="-47.859402"
             cy="24.689899"
             r="32.777401" />
        <radialGradient
             id="SVGID_9_"
             cx="-47.859402"
             cy="24.689899"
             r="32.777401"
             gradientTransform="matrix(-0.1869,-0.9824,-1.0121,0.1583,49.396,-7.7235)"
             gradientUnits="userSpaceOnUse">
            <stop
                 offset="0"
                 style="stop-color:#FCF43E;stop-opacity:0.8196"
                 id="stop182" />
            <stop
                 offset="1"
                 style="stop-color:#E07518;stop-opacity:0.9176"
                 id="stop184" />
        </radialGradient>
        <radialGradient
             id="SVGID_3_"
             cx="17506.965"
             cy="-1679.9375"
             r="70.555901"
             gradientTransform="matrix(-0.1869,0.9824,1.0121,0.1582,4982.0859,-16925.516)"
             gradientUnits="userSpaceOnUse">
            <stop
                 offset="0"
                 style="stop-color:#FCF43E;stop-opacity:0.8196"
                 id="stop21" />
            <stop
                 offset="1"
                 style="stop-color:#E07518;stop-opacity:0.9176"
                 id="stop23" />
        </radialGradient>
        <radialGradient
             id="SVGID_2_"
             cx="17779.9"
             cy="-1313.5908"
             r="70.086502"
             gradientTransform="matrix(-0.1482,0.989,0.8024,0.1593,3702.6792,-17369.176)"
             gradientUnits="userSpaceOnUse">
            <stop
                 offset="0"
                 style="stop-color:#FCF43E;stop-opacity:0.8196"
                 id="stop14" />
            <stop
                 offset="1"
                 style="stop-color:#E07518;stop-opacity:0.9176"
                 id="stop16" />
        </radialGradient>
        <radialGradient
             inkscape:collect="always"
             xlink:href="#SVGID_1_"
             id="radialGradient4465"
             gradientUnits="userSpaceOnUse"
             gradientTransform="matrix(-0.3255047,-1.7109461,1.7626715,-0.27552084,9553.4614,29147.701)"
             cx="17504.656"
             cy="-1681.6763"
             r="70.555901" />
        <radialGradient
             id="SVGID_1_"
             cx="17504.656"
             cy="-1681.6763"
             r="70.555901"
             gradientTransform="matrix(-0.1869,0.9824,1.0121,0.1582,4985.5654,-16924.973)"
             gradientUnits="userSpaceOnUse">
            <stop
                 offset="0"
                 style="stop-color:#FCF43E;stop-opacity:0.8196"
                 id="stop7" />
            <stop
                 offset="1"
                 style="stop-color:#E07518;stop-opacity:0.9176"
                 id="stop9" />
        </radialGradient>
        <radialGradient
             id="SVGID_4_"
             cx="16433.957"
             cy="-101.3628"
             r="36.840199"
             gradientTransform="matrix(-0.0124,0.9999,0.7041,0.0087,275.3867,-16431.268)"
             gradientUnits="userSpaceOnUse">
            <stop
                 offset="0"
                 style="stop-color:#FFFFFF;stop-opacity:0.6"
                 id="stop29" />
            <stop
                 offset="1"
                 style="stop-color:#F4D626;stop-opacity:0.7569"
                 id="stop31" />
        </radialGradient>
        <radialGradient
             id="SVGID_5_-3"
             cx="1435.0908"
             cy="-13776.663"
             r="50.142799"
             fx="1471.0757"
             fy="-13776.663"
             gradientTransform="matrix(0.0247,-0.999,-0.5327,-0.042,-7373.9824,905.2002)"
             gradientUnits="userSpaceOnUse">
            <stop
                 offset="0"
                 style="stop-color:#FDF8D7"
                 id="stop46-6" />
            <stop
                 offset="0.349"
                 style="stop-color:#F9EA88;stop-opacity:0.6"
                 id="stop48-7" />
            <stop
                 offset="0.6588"
                 style="stop-color:#F6DF4B;stop-opacity:0.2745"
                 id="stop50-5" />
            <stop
                 offset="0.8863"
                 style="stop-color:#F4D92D;stop-opacity:0.0745"
                 id="stop52-3" />
            <stop
                 offset="1"
                 style="stop-color:#F4D626;stop-opacity:0"
                 id="stop54-5" />
        </radialGradient>
        <radialGradient
             inkscape:collect="always"
             xlink:href="#SVGID_5_-6"
             id="radialGradient4680"
             gradientUnits="userSpaceOnUse"
             gradientTransform="matrix(-0.06969979,2.3961458,1.5032015,0.10073886,20753.416,-1576.2914)"
             cx="1435.0908"
             cy="-13776.663"
             fx="1471.0757"
             fy="-13776.663"
             r="50.142799" />
        <radialGradient
             id="SVGID_5_-6"
             cx="1435.0908"
             cy="-13776.663"
             r="50.142799"
             fx="1471.0757"
             fy="-13776.663"
             gradientTransform="matrix(0.0247,-0.999,-0.5327,-0.042,-7373.9824,905.2002)"
             gradientUnits="userSpaceOnUse">
            <stop
                 offset="0"
                 style="stop-color:#FDF8D7"
                 id="stop46-2" />
            <stop
                 offset="0.349"
                 style="stop-color:#F9EA88;stop-opacity:0.6"
                 id="stop48-9" />
            <stop
                 offset="0.6588"
                 style="stop-color:#F6DF4B;stop-opacity:0.2745"
                 id="stop50-1" />
            <stop
                 offset="0.8863"
                 style="stop-color:#F4D92D;stop-opacity:0.0745"
                 id="stop52-2" />
            <stop
                 offset="1"
                 style="stop-color:#F4D626;stop-opacity:0"
                 id="stop54-7" />
        </radialGradient>
        <radialGradient
             inkscape:collect="always"
             xlink:href="#SVGID_7_"
             id="radialGradient4638"
             gradientUnits="userSpaceOnUse"
             gradientTransform="matrix(0.07536667,-6.2799278,4.4221394,0.05275667,-242.3432,679.95974)"
             cx="16.6001"
             cy="41.549801"
             r="13.4385" />
        <radialGradient
             id="SVGID_7_"
             cx="16.6001"
             cy="41.549801"
             r="13.4385"
             gradientTransform="matrix(0.012,-0.9999,0.7041,0.0084,-12.8556,57.7979)"
             gradientUnits="userSpaceOnUse">
            <stop
                 offset="0"
                 style="stop-color:#FFFFFF;stop-opacity:0.6"
                 id="stop74" />
            <stop
                 offset="1"
                 style="stop-color:#F4D626;stop-opacity:0.7569"
                 id="stop76" />
        </radialGradient>
        <radialGradient
             inkscape:collect="always"
             xlink:href="#SVGID_6_"
             id="radialGradient4641"
             gradientUnits="userSpaceOnUse"
             gradientTransform="matrix(1.174464,-6.1700181,6.3559226,0.994212,674.6991,-534.27721)"
             cx="-37.444302"
             cy="19.8281"
             r="25.7414" />
        <radialGradient
             id="SVGID_6_"
             cx="-37.444302"
             cy="19.8281"
             r="25.7414"
             gradientTransform="matrix(0.187,-0.9824,1.012,0.1583,-0.4655,-0.0724)"
             gradientUnits="userSpaceOnUse">
            <stop
                 offset="0"
                 style="stop-color:#FCF43E;stop-opacity:0.8196"
                 id="stop67" />
            <stop
                 offset="1"
                 style="stop-color:#E07518;stop-opacity:0.9176"
                 id="stop69" />
        </radialGradient>
        <radialGradient
             r="25.7414"
             cy="19.8281"
             cx="-37.444302"
             gradientTransform="matrix(1.174464,-6.1700181,6.3559226,0.994212,-164.52649,316.50209)"
             gradientUnits="userSpaceOnUse"
             id="radialGradient4710"
             xlink:href="#SVGID_6_"
             inkscape:collect="always" />
        <linearGradient
             inkscape:collect="always"
             xlink:href="#SVGID_8_"
             id="linearGradient4870"
             gradientUnits="userSpaceOnUse"
             gradientTransform="matrix(1.0899013e-4,6.2805559,-6.2805559,-0.00628056,310.80395,623.66768)"
             x1="-6.6894999"
             y1="-27.063"
             x2="50.935501"
             y2="-27.063" />
        <linearGradient
             id="SVGID_8_"
             gradientUnits="userSpaceOnUse"
             x1="-6.6894999"
             y1="-27.063"
             x2="50.935501"
             y2="-27.063"
             gradientTransform="matrix(1.735358e-5,1,-1,-0.001,1.251328e-4,1.523714e-5)">
            <stop
                 offset="0"
                 style="stop-color:#231F20"
                 id="stop170" />
            <stop
                 offset="0.0902"
                 style="stop-color:#231F20;stop-opacity:0.7961"
                 id="stop172" />
            <stop
                 offset="1"
                 style="stop-color:#231F20;stop-opacity:0"
                 id="stop174" />
        </linearGradient>
        <radialGradient
             inkscape:collect="always"
             xlink:href="#SVGID_9_"
             id="radialGradient5119"
             gradientUnits="userSpaceOnUse"
             gradientTransform="matrix(-1.1738359,-6.1700181,-6.3565506,0.994212,579.85364,320.8423)"
             cx="-47.859402"
             cy="24.689899"
             r="32.777401" />
        <radialGradient
             inkscape:collect="always"
             xlink:href="#SVGID_10_"
             id="radialGradient5121"
             gradientUnits="userSpaceOnUse"
             gradientTransform="matrix(-1.1738359,-6.1700181,-6.3565506,0.994212,557.01754,324.41279)"
             cx="-47.5737"
             cy="22.872601"
             r="32.777401" />
        <radialGradient
             inkscape:collect="always"
             xlink:href="#SVGID_11_"
             id="radialGradient5123"
             gradientUnits="userSpaceOnUse"
             gradientTransform="matrix(-1.1738359,-6.1700181,-6.3565506,0.994212,566.54012,322.92367)"
             cx="-47.8452"
             cy="23.6304"
             r="32.777401" />
        <radialGradient
             inkscape:collect="always"
             xlink:href="#SVGID_12_"
             id="radialGradient5125"
             gradientUnits="userSpaceOnUse"
             gradientTransform="matrix(-0.07787889,-6.2799278,-4.4221394,0.05526889,565.89699,365.67102)"
             cx="-45.6978"
             cy="27.683599"
             r="17.1138" />
        <radialGradient
             inkscape:collect="always"
             xlink:href="#SVGID_5_"
             id="radialGradient5127"
             gradientUnits="userSpaceOnUse"
             gradientTransform="matrix(0.10238562,2.9150284,-2.2081304,0.12255374,-30121.845,-1965.4856)"
             cx="1435.0908"
             cy="-13776.663"
             fx="1471.0757"
             fy="-13776.663"
             r="50.142799" />
        <radialGradient
             inkscape:collect="always"
             xlink:href="#SVGID_1_"
             id="radialGradient5129"
             gradientUnits="userSpaceOnUse"
             gradientTransform="matrix(-0.3255047,-1.7109461,1.7626715,-0.27552084,9616.792,30059.745)"
             cx="17504.656"
             cy="-1681.6763"
             r="70.555901" />
        <radialGradient
             inkscape:collect="always"
             xlink:href="#SVGID_2_"
             id="radialGradient5131"
             gradientUnits="userSpaceOnUse"
             gradientTransform="matrix(-0.25810485,-1.7224406,1.3974584,-0.27743659,7382.5197,30833.369)"
             cx="17779.9"
             cy="-1313.5908"
             r="70.086502" />
        <radialGradient
             inkscape:collect="always"
             xlink:href="#SVGID_3_"
             id="radialGradient5133"
             gradientUnits="userSpaceOnUse"
             gradientTransform="matrix(-0.3255047,-1.7109461,1.7626715,-0.27552084,9610.7321,30060.691)"
             cx="17506.965"
             cy="-1679.9375"
             r="70.555901" />
        <radialGradient
             inkscape:collect="always"
             xlink:href="#SVGID_4_"
             id="radialGradient5135"
             gradientUnits="userSpaceOnUse"
             gradientTransform="matrix(-0.02159582,-1.741424,1.2262593,-0.0151519,1413.5532,29199.91)"
             cx="16433.957"
             cy="-101.3628"
             r="36.840199" />
        <radialGradient
             inkscape:collect="always"
             xlink:href="#SVGID_5_-3"
             id="radialGradient5137"
             gradientUnits="userSpaceOnUse"
             gradientTransform="matrix(0.06111063,1.7398566,-1.3179607,0.07314712,-17311.911,-981.23611)"
             cx="1435.0908"
             cy="-13776.663"
             fx="1471.0757"
             fy="-13776.663"
             r="50.142799" />
        <radialGradient
             inkscape:collect="always"
             xlink:href="#SVGID_1_"
             id="radialGradient5201"
             gradientUnits="userSpaceOnUse"
             gradientTransform="matrix(-0.3255047,-1.7109461,1.7626715,-0.27552084,9616.792,30059.745)"
             cx="17504.656"
             cy="-1681.6763"
             r="70.555901" />
        <radialGradient
             inkscape:collect="always"
             xlink:href="#SVGID_2_"
             id="radialGradient5203"
             gradientUnits="userSpaceOnUse"
             gradientTransform="matrix(-0.25810485,-1.7224406,1.3974584,-0.27743659,7382.5197,30833.369)"
             cx="17779.9"
             cy="-1313.5908"
             r="70.086502" />
        <radialGradient
             inkscape:collect="always"
             xlink:href="#SVGID_3_"
             id="radialGradient5205"
             gradientUnits="userSpaceOnUse"
             gradientTransform="matrix(-0.3255047,-1.7109461,1.7626715,-0.27552084,9610.7321,30060.691)"
             cx="17506.965"
             cy="-1679.9375"
             r="70.555901" />
        <radialGradient
             inkscape:collect="always"
             xlink:href="#SVGID_4_"
             id="radialGradient5207"
             gradientUnits="userSpaceOnUse"
             gradientTransform="matrix(-0.02159582,-1.741424,1.2262593,-0.0151519,1413.5532,29199.91)"
             cx="16433.957"
             cy="-101.3628"
             r="36.840199" />
        <radialGradient
             inkscape:collect="always"
             xlink:href="#SVGID_5_-3"
             id="radialGradient5209"
             gradientUnits="userSpaceOnUse"
             gradientTransform="matrix(0.06111063,1.7398566,-1.3179607,0.07314712,-17311.911,-981.23611)"
             cx="1435.0908"
             cy="-13776.663"
             fx="1471.0757"
             fy="-13776.663"
             r="50.142799" />
        <radialGradient
             inkscape:collect="always"
             xlink:href="#SVGID_6_"
             id="radialGradient5211"
             gradientUnits="userSpaceOnUse"
             gradientTransform="matrix(1.174464,-6.1700181,6.3559226,0.994212,-164.52649,316.50209)"
             cx="-37.444302"
             cy="19.8281"
             r="25.7414" />
        <radialGradient
             inkscape:collect="always"
             xlink:href="#SVGID_7_"
             id="radialGradient5213"
             gradientUnits="userSpaceOnUse"
             gradientTransform="matrix(0.07536667,-6.2799278,4.4221394,0.05275667,-242.3432,679.95974)"
             cx="16.6001"
             cy="41.549801"
             r="13.4385" />
        <radialGradient
             inkscape:collect="always"
             xlink:href="#SVGID_5_-6"
             id="radialGradient5215"
             gradientUnits="userSpaceOnUse"
             gradientTransform="matrix(-0.06969979,2.3961458,1.5032015,0.10073886,20753.416,-1576.2914)"
             cx="1435.0908"
             cy="-13776.663"
             fx="1471.0757"
             fy="-13776.663"
             r="50.142799" />
        <linearGradient
             inkscape:collect="always"
             xlink:href="#SVGID_8_"
             id="linearGradient5217"
             gradientUnits="userSpaceOnUse"
             gradientTransform="matrix(1.0899013e-4,6.2805559,-6.2805559,-0.00628056,310.80395,623.66768)"
             x1="-6.6894999"
             y1="-27.063"
             x2="50.935501"
             y2="-27.063" />
        <radialGradient
             inkscape:collect="always"
             xlink:href="#SVGID_9_"
             id="radialGradient5219"
             gradientUnits="userSpaceOnUse"
             gradientTransform="matrix(-1.1738359,-6.1700181,-6.3565506,0.994212,579.85364,320.8423)"
             cx="-47.859402"
             cy="24.689899"
             r="32.777401" />
        <radialGradient
             inkscape:collect="always"
             xlink:href="#SVGID_10_"
             id="radialGradient5221"
             gradientUnits="userSpaceOnUse"
             gradientTransform="matrix(-1.1738359,-6.1700181,-6.3565506,0.994212,557.01754,324.41279)"
             cx="-47.5737"
             cy="22.872601"
             r="32.777401" />
        <radialGradient
             inkscape:collect="always"
             xlink:href="#SVGID_11_"
             id="radialGradient5223"
             gradientUnits="userSpaceOnUse"
             gradientTransform="matrix(-1.1738359,-6.1700181,-6.3565506,0.994212,566.54012,322.92367)"
             cx="-47.8452"
             cy="23.6304"
             r="32.777401" />
        <radialGradient
             inkscape:collect="always"
             xlink:href="#SVGID_12_"
             id="radialGradient5225"
             gradientUnits="userSpaceOnUse"
             gradientTransform="matrix(-0.07787889,-6.2799278,-4.4221394,0.05526889,565.89699,365.67102)"
             cx="-45.6978"
             cy="27.683599"
             r="17.1138" />
        <radialGradient
             inkscape:collect="always"
             xlink:href="#SVGID_5_"
             id="radialGradient5227"
             gradientUnits="userSpaceOnUse"
             gradientTransform="matrix(0.10238562,2.9150284,-2.2081304,0.12255374,-30121.845,-1965.4856)"
             cx="1435.0908"
             cy="-13776.663"
             fx="1471.0757"
             fy="-13776.663"
             r="50.142799" />
    </defs>
    <sodipodi:namedview
         id="base"
         pagecolor="#ffffff"
         bordercolor="#666666"
         borderopacity="1.0"
         inkscape:pageopacity="0.0"
         inkscape:pageshadow="2"
         inkscape:zoom="0.9"
         inkscape:cx="160.8952"
         inkscape:cy="198.68623"
         inkscape:document-units="px"
         inkscape:current-layer="layer1"
         showgrid="false"
         fit-margin-top="0"
         fit-margin-left="0"
         fit-margin-right="0"
         fit-margin-bottom="0" />
    <metadata
         id="metadata3519">
        <rdf:RDF>
            <cc:Work
                 rdf:about="">
                <dc:format>image/svg+xml</dc:format>
                <dc:type
                     rdf:resource="http://purl.org/dc/dcmitype/StillImage" />
                <dc:title></dc:title>
            </cc:Work>
        </rdf:RDF>
    </metadata>
    <g
         inkscape:label="Layer 1"
         inkscape:groupmode="layer"
         id="layer1"
         transform="translate(-309.63067,-639.17003)">
        <g
             id="g5139">
            <g
                 transform="translate(-362,274)"
                 id="g4609">
                <path
                     id="path4371"
                     d="M 941.4291,464.98752 C 942.76491,466.03248 943.75065,467.36829 944.38982,468.9932 944.78865,469.9058 945.02202,470.79053 945.08646,471.64739 V 471.69268 L 945.26062,471.6056 C 958.67092,472.7655 966.33396,479.3261 968.24971,491.28566 968.82967,494.8838 969.81715,498.25205 971.21043,501.38692 971.55875,502.14278 972.05162,502.89515 972.69079,503.651 976.52231,507.89005 975.76819,511.43072 970.42671,514.27649 970.25255,514.10059 970.16547,513.89857 970.16547,513.66519 970.22469,513.37609 970.25255,513.05563 970.25255,512.70731 970.25255,512.35899 970.25255,512.03854 970.25255,511.74943 970.25255,511.28443 970.25255,510.82116 970.25255,510.35616 970.25255,509.95036 970.25255,509.54283 970.25255,509.13704 969.38175,509.89289 968.48135,510.73234 967.55308,511.66235 965.05737,513.92643 962.21334,515.66803 959.01924,516.88715 958.38008,517.11878 957.8576,517.49671 957.45181,518.01745 957.45181,518.25082 957.56849,518.48245 957.80013,518.71409 957.97429,519.00319 958.11884,519.32364 958.23552,519.67196 958.293,519.96281 958.46716,520.25192 958.758,520.54276 959.10632,521.00777 959.25088,521.50064 959.1934,522.02312 959.1934,522.19902 959.1934,522.40105 959.1934,522.63442 959.07672,522.92353 958.84508,523.12729 958.49676,523.24398 957.80013,523.41988 957.07388,523.64977 956.31977,523.94062 955.79729,524.05557 955.3915,524.0277 955.10065,523.85354 954.05569,524.20012 953.18489,524.78181 952.48825,525.59514 956.5514,531.80568 960.84792,537.8438 965.37608,543.70602 967.75684,546.89837 968.33679,550.58533 967.11768,554.76517 965.84108,559.23585 962.99531,562.83399 958.58384,565.56308 958.52637,571.36957 955.82689,575.9848 950.48541,579.41052 947.46722,581.32628 944.09897,582.42871 940.38414,582.71956 930.39956,583.47367 920.99493,581.61713 912.17025,577.14645 908.22205,575.114 905.05931,572.41452 902.67854,569.04801 901.63358,567.53805 901.19818,565.79645 901.37234,563.82322 901.43156,563.12658 901.48903,562.45955 901.5465,561.82038 908.04789,555.89895 908.59998,549.74414 903.20102,543.35944 902.21354,542.25701 901.86522,540.95081 902.15606,539.44085 902.8527,534.5069 904.21637,529.86206 906.24882,525.50806 906.34112,525.32345 906.44214,525.14929 906.5536,524.98558 906.2105,524.16877 906.51528,523.35719 907.46794,522.54908 907.95036,522.15026 908.47284,521.80194 909.03538,521.50238 H 908.9483 C 909.00577,520.86496 909.44117,520.45742 910.25449,520.28327 912.22773,519.93669 913.38937,519.00667 913.73769,517.49671 913.85438,516.80007 913.7673,516.19051 913.47645,515.66803 912.72234,515.08634 911.87941,515.02886 910.95113,515.49213 909.73202,516.13129 908.5425,516.56669 907.38086,516.79833 906.51006,513.72092 907.61249,511.42898 910.68989,509.92076 915.56637,507.53999 918.12129,508.26624 918.35293,512.09775 918.41214,513.49103 918.17877,514.91218 917.65629,516.36293 917.54134,516.65377 917.45252,516.94462 917.39505,517.23373 926.85715,516.71125 932.89527,512.00893 935.50767,503.12678 936.95842,498.07615 937.07511,492.99765 935.85599,487.8878 934.63687,482.37216 930.80535,478.91857 924.36144,477.52529 921.80652,477.00455 919.42749,477.06202 917.22089,477.70119 L 917.30797,477.78827 C 917.13381,477.78827 916.98751,477.78827 916.87257,477.78827 915.59598,478.13659 914.34725,478.71654 913.12813,479.52987 913.30229,479.12407 913.56353,478.77401 913.91185,478.48317 914.43433,478.01816 914.98642,477.58276 915.56637,477.17697 914.9272,476.65449 914.57888,475.84116 914.52141,474.74047 914.40472,472.01313 915.33474,469.51568 917.30797,467.2516 918.23624,466.08995 919.22373,464.92831 920.26868,463.7684 921.77865,461.8509 923.80935,460.75021 926.36428,460.45937 928.74504,460.45937 931.15367,460.45937 933.59191,460.45937 933.7086,460.45937 933.82354,460.48897 933.94023,460.54645 933.9977,460.60392 934.08478,460.66139 934.20147,460.72235 934.4331,461.06893 934.63687,461.38764 934.81103,461.67849 935.04266,462.02681 935.15935,462.37338 935.15935,462.72344 937.4809,462.78092 939.57082,463.53677 941.4291,464.98752 z M 912.51857,522.37318 912.38795,521.98132 C 912.13542,522.08756 911.88986,522.20251 911.64777,522.32964 911.93165,522.33487 912.2225,522.35054 912.51857,522.37318 z M 912.95397,520.41388 913.12813,520.02203 C 912.99229,520.09343 912.86167,520.16484 912.73627,520.23973 912.79897,520.31461 912.87212,520.37209 912.95397,520.41388 z"
                     style="fill:url(#radialGradient5201);fill-rule:evenodd;stroke:none"
                     inkscape:connector-curvature="0" />
                <path
                     id="path4379"
                     d="M 974.95487,484.84174 C 975.65151,484.43595 976.34815,484.20432 977.04479,484.1451 980.06298,484.78427 980.96338,487.10582 979.74426,491.1115 979.04762,493.43479 978.06188,495.14678 976.78355,496.24921 977.24855,492.99939 976.29067,491.20032 973.90991,490.85026 972.28326,490.61688 970.74542,490.29991 969.29467,489.89238 969.99131,487.62656 971.2679,486.23328 973.12619,485.71254 973.70614,485.5976 974.3157,485.30675 974.95487,484.84174 z"
                     style="fill:url(#radialGradient5203);fill-rule:evenodd;stroke:none"
                     inkscape:connector-curvature="0" />
                <path
                     id="path4387"
                     d="M 938.03299,444.61082 C 936.98803,445.24825 935.94307,445.62618 934.89811,445.74112 934.72395,445.62618 934.63687,445.42067 934.63687,445.13156 934.69434,444.66655 934.66648,444.20329 934.54979,443.73828 934.20147,443.09912 933.79394,442.51916 933.33067,441.99668 933.09904,441.76331 932.86566,441.56128 932.63403,441.38538 932.28571,441.44286 931.967,441.47246 931.67615,441.47246 930.45703,441.65011 929.29539,441.88174 928.19296,442.17259 928.07627,442.28753 927.98919,442.37461 927.93172,442.43383 927.87424,442.54877 927.84464,442.66546 927.84464,442.7804 927.78716,442.9563 927.75756,443.10086 927.75756,443.2158 927.75756,443.33249 927.72795,443.44918 927.67048,443.56412 926.2772,443.6216 925.00061,443.88458 923.83896,444.34784 922.44568,444.87032 921.37112,445.71151 920.617,446.87316 920.55953,446.93063 920.52992,446.9881 920.52992,447.04732 920.52992,447.10653 920.55953,447.16226 920.617,447.22322 920.96532,447.45485 921.25617,447.71609 921.4878,448.0052 921.66196,448.23857 921.71944,448.49981 921.66196,448.78892 921.66196,449.02229 921.60275,449.22432 921.4878,449.40022 H 921.40072 C 921.28578,449.22432 921.10988,449.0519 920.87824,448.876 920.70408,448.76105 920.50032,448.64436 920.26868,448.52942 920.152,448.41273 920.00744,448.32565 919.83328,448.26818 919.83328,448.32565 919.80368,448.38312 919.7462,448.44234 919.62952,448.6165 919.54244,448.81852 919.48496,449.0519 919.42575,449.341 919.25333,449.57438 918.96249,449.7468 918.73085,449.86348 918.49748,449.98017 918.26585,450.09512 918.20837,450.03764 918.17877,449.95056 918.17877,449.83562 918.00461,449.54477 918.06208,449.25392 918.35293,448.96482 918.46961,448.78892 918.58456,448.55903 918.70125,448.26818 918.81793,448.09402 918.90501,447.89025 918.96249,447.65862 918.26585,447.07693 917.88792,446.38203 917.83045,445.5687 917.65629,443.94205 918.17877,442.66546 919.39789,441.73719 920.50032,440.98133 921.66196,440.40138 922.88108,439.99559 922.93855,439.41564 922.88108,438.86355 922.70692,438.34107 922.53276,437.47027 922.61984,436.59947 922.96816,435.72867 923.37395,434.39287 924.30397,433.43673 925.75472,432.85678 931.03699,433.32004 935.50767,435.38035 939.16502,439.03771 941.02331,441.01094 940.64538,442.86923 938.03299,444.61082 z"
                     style="fill:url(#radialGradient5205);fill-rule:evenodd;stroke:none"
                     inkscape:connector-curvature="0" />
                <path
                     id="path4397"
                     d="M 951.92223,502.7802 C 951.80206,502.57295 951.68537,502.37093 951.57391,502.17064 951.61397,502.43014 951.65751,502.69312 951.70453,502.95436 L 951.92223,502.7802 z M 949.17921,499.64533 H 949.35337 C 949.27326,499.50077 949.20186,499.35448 949.13567,499.20993 949.14787,499.35622 949.16354,499.50077 949.17921,499.64533 z M 948.96151,498.81807 C 948.64106,497.99777 948.56791,497.2576 948.74381,496.59753 949.57804,497.09737 950.20153,497.80794 950.61603,498.73099 953.11871,502.31345 954.09226,506.36267 953.53321,510.88038 953.24236,513.2594 951.84908,514.65268 949.35337,515.05847 946.79845,515.52174 944.68067,516.71299 942.99654,518.62875 938.87418,523.44775 937.10471,529.19328 937.68467,535.86883 941.28455,539.06118 945.20315,541.84948 949.44045,544.2285 954.25946,546.95584 955.8565,550.58533 954.22985,555.11349 954.17238,555.28765 953.99822,555.4322 953.70737,555.54889 947.32093,558.39292 945.17354,563.47316 947.26346,570.78787 948.94758,576.70931 946.85766,580.45374 940.9937,582.02118 940.91185,582.04382 940.82651,582.05775 940.73246,582.06646 940.71156,582.11697 940.68196,582.16051 940.64538,582.19708 928.56914,585.73775 919.80368,582.22669 914.34725,571.66041 913.24482,569.45381 913.621,567.53805 915.47929,565.91314 918.38253,563.41743 921.31364,561.03666 924.27436,558.77259 925.61017,557.7851 926.01596,556.50851 925.49348,554.94107 924.68015,552.61952 923.92604,550.32583 923.2294,548.06176 922.01028,543.93939 920.87824,539.81877 919.83328,535.69641 919.54244,534.64971 919.54244,533.54902 919.83328,532.38737 920.35576,530.41414 920.76156,528.49838 921.0524,526.6401 923.43317,529.36744 926.19012,530.1529 929.32499,528.99126 932.57656,527.77388 935.0148,525.62475 936.63971,522.54908 937.45303,521.03912 938.49799,519.73292 939.77458,518.63049 945.69602,513.40569 948.68634,506.93217 948.74381,499.21167 948.74381,499.02532 948.81696,498.89296 948.96151,498.81807 z M 940.16644,520.45742 C 940.27965,520.28152 940.39459,520.10736 940.51476,519.93495 940.35802,520.08124 940.19779,520.22753 940.03582,520.37034 L 940.16644,520.45742 z M 941.47264,580.1507 941.4291,580.10716 V 580.1507 H 941.47264 z"
                     style="fill:url(#radialGradient5207);fill-rule:evenodd;stroke:none"
                     inkscape:connector-curvature="0" />
                <path
                     id="path4483"
                     d="M 978.84337,569.6574 C 965.9087,586.72506 950.31435,595.25889 932.06529,595.25889 913.81622,595.25889 898.22187,586.72506 885.2872,569.6574 872.39707,552.64721 865.952,532.06848 865.952,507.91774 865.952,483.82447 872.39707,463.24575 885.2872,446.17808 898.22435,429.11042 913.81622,420.57659 932.06529,420.57659 950.31435,420.57659 965.90622,429.11042 978.84337,446.17808 991.78051,463.24575 998.24785,483.82447 998.24785,507.91774 998.24785,532.01101 991.78051,552.58973 978.84337,569.6574 z"
                     style="fill:url(#radialGradient5209);fill-rule:evenodd;stroke:none"
                     inkscape:connector-curvature="0" />
            </g>
            <g
                 transform="translate(472,310)"
                 id="g4755">
                <path
                     inkscape:connector-curvature="0"
                     id="path3218"
                     d="M -60.818806,422.2252 C -62.652726,424.20985 -63.073526,426.23219 -62.081196,428.29849 -61.396616,429.67394 -60.511056,430.85468 -59.443366,431.84701 -59.367996,431.92238 -59.292626,431.96006 -59.217266,431.96006 -59.141896,432.03543 -59.066526,432.11079 -58.984886,432.19244 -58.834146,432.19244 -58.752506,432.15476 -58.752506,432.07311 -58.294026,432.14848 -57.835546,431.96006 -57.377056,431.50158 -54.707826,428.82606 -51.266076,427.83373 -47.064386,428.51831 -47.598236,435.08778 -50.845286,440.92869 -56.805526,446.04735 -60.473376,449.18762 -63.569686,452.66077 -66.081916,456.47307 -67.532716,458.6901 -68.795116,461.02019 -69.862806,463.45705 -71.388986,466.74178 -73.913766,468.53802 -77.424596,468.83948 -78.724666,466.85483 -79.296196,464.67547 -79.139186,462.30771 -78.831436,459.55682 -77.493686,457.45912 -75.125916,456.00831 -73.373636,455.01598 -71.577396,454.74592 -69.743476,455.2044 -69.668106,455.27976 -69.624146,455.39909 -69.624146,455.54983 -69.548776,455.47446 -69.511096,455.39909 -69.511096,455.31745 -69.127976,455.39281 -68.713466,455.50586 -68.248706,455.66288 -68.097966,455.66288 -67.903276,455.62519 -67.677176,455.54983 -68.135656,455.16671 -68.631816,454.82128 -69.165666,454.51354 -68.631816,453.29511 -68.857916,452.03272 -69.850246,450.73264 -71.916546,447.98176 -74.818166,446.18552 -78.555096,445.3502 -78.787476,445.27484 -78.975896,445.19947 -79.126626,445.11782 -81.877506,444.81008 -84.125946,445.5763 -85.884506,447.41023 -87.184576,448.78567 -87.643056,450.42489 -87.259946,452.34046 -90.921506,453.48352 -93.100866,455.81361 -93.791726,459.32444 -94.400936,462.68454 -93.483976,465.70549 -91.040836,468.37472 -90.890106,468.45009 -90.733096,468.49405 -90.582356,468.49405 -89.433016,468.49405 -88.597706,468.03557 -88.063856,467.11861 -87.756106,466.50312 -87.530006,465.85622 -87.379276,465.16536 -83.102216,473.03489 -81.268296,481.66438 -81.877506,491.06009 -82.260626,497.3218 -82.411356,503.65889 -82.335986,510.07133 -82.335986,510.79988 -82.354836,511.52214 -82.392516,512.25069 -82.467886,514.56193 -82.675136,516.85433 -83.026856,519.12789 -84.019176,518.97716 -84.973826,518.82015 -85.890786,518.66941 -86.499996,518.05392 -86.845426,517.36934 -86.920796,516.60939 -86.996166,514.77547 -86.198536,513.40003 -84.515346,512.48307 -84.207596,512.33233 -84.320646,512.21928 -84.860776,512.13764 -94.633316,515.347 -97.076456,520.96182 -92.190186,528.98209 -91.197856,530.58363 -90.701686,532.34218 -90.701686,534.25147 -90.777056,538.14542 -91.160176,542.15869 -91.844756,546.27874 -93.446296,556.74214 -89.288566,565.25858 -79.359006,571.82804 -71.564836,576.92785 -63.299626,579.13861 -54.557096,578.47287 -51.649196,578.25933 -48.691056,577.72548 -45.676386,576.86504 L -45.619856,577.09743 C -48.534036,577.88878 -51.511026,578.46031 -54.557096,578.81202 -56.422416,579.00043 -58.312866,579.11976 -60.228436,579.15745 -44.878756,581.60686 -33.724486,577.01578 -26.778196,565.41559 -25.785866,563.96478 -24.793536,562.55166 -23.801206,561.17622 -20.284096,556.4344 -19.178716,551.20269 -20.478796,545.48111 -21.314106,541.66253 -21.891916,537.79999 -22.193386,533.90604 -22.727236,528.71202 -21.351796,523.82575 -18.067066,519.24094 -16.917716,517.71477 -16.729306,516.03158 -17.495526,514.20394 -17.627426,513.88991 -17.759316,513.58216 -17.897486,513.28698 -17.533216,510.49841 -17.552056,507.39582 -17.954016,504.00432 -18.349686,500.73843 -19.461346,497.91218 -21.276426,495.52557 -22.620466,492.1215 -24.950546,489.10684 -28.266686,486.47528 -31.626786,483.80605 -32.122946,480.59668 -29.755176,476.85347 -27.845886,473.71948 -24.598836,472.23098 -20.020316,472.388 -19.944946,472.53873 -19.869586,472.69574 -19.787936,472.84648 -19.787936,472.69574 -19.787936,472.53873 -19.787936,472.388 -19.637196,472.388 -19.524146,472.388 -19.442506,472.388 -19.517866,472.23726 -19.593236,472.12421 -19.674886,472.04257 -19.216406,467.07465 -22.306436,464.86389 -28.957546,465.39774 -31.626786,465.54847 -33.536066,466.66013 -34.685416,468.72015 -37.662396,474.07119 -37.279286,479.37826 -33.536066,484.64764 -39.263936,482.96445 -42.473306,478.83813 -43.157886,472.27495 -43.767096,465.47311 -44.991806,458.87224 -46.825726,452.45351 -47.208836,451.0027 -46.938776,449.58958 -46.021816,448.21414 -42.504706,442.79402 -39.873156,437.14152 -38.114596,431.25664 -35.288346,422.39477 -37.084586,415.29146 -43.497036,409.94671 -48.464956,409.5636 -52.930426,410.55592 -56.899736,412.92369 -60.410566,414.99 -61.252166,417.38917 -59.418246,420.14005 -59.820196,420.92512 -60.278676,421.61598 -60.818806,422.2252 z"
                     style="fill:url(#radialGradient5211);fill-rule:evenodd;stroke:none" />
                <path
                     inkscape:connector-curvature="0"
                     id="path3226"
                     d="M -58.407076,478.01538 C -59.248666,478.54922 -59.669466,479.31545 -59.669466,480.30778 -59.700866,480.50876 -59.700866,480.68461 -59.669466,480.82278 -60.674356,482.99586 -61.628996,485.18777 -62.533396,487.41109 -63.601096,490.0866 -65.284276,491.68815 -67.576686,492.22199 -67.884426,491.76979 -68.072846,491.30503 -68.148216,490.84655 -68.374316,490.23734 -68.757426,489.81654 -69.291276,489.59044 -69.749756,500.05385 -70.472016,510.6303 -71.470626,521.32609 -72.079846,527.20469 -72.425276,533.12097 -72.500636,539.08122 -72.500636,539.61507 -72.846066,539.84117 -73.536936,539.7658 -76.130796,539.45805 -78.385516,538.1203 -80.294806,535.75253 -80.370176,540.94655 -80.445546,546.44203 -80.520906,552.25155 -80.520906,555.07152 -80.100116,557.86636 -79.258516,560.61097 -76.545316,569.53564 -71.144036,575.30119 -63.048406,577.9139 -63.425236,577.99554 -63.789506,578.06463 -64.134936,578.14 -53.822266,580.6585 -44.357466,579.32074 -35.727986,574.12672 -34.277176,573.20976 -33.397896,571.8406 -33.096436,570.00668 -31.796356,562.67099 -33.667966,555.87543 -38.711246,549.61371 -39.703576,548.31364 -39.891996,546.83143 -39.282776,545.14824 -36.915006,538.42804 -36.682626,531.4001 -38.598196,524.07069 -38.673566,523.53684 -38.560516,522.95903 -38.252766,522.3561 -35.269506,516.23884 -34.509556,510.02109 -35.960366,503.67773 -36.268116,502.37765 -36.764276,501.19063 -37.448856,500.12921 -38.058066,499.06152 -38.824296,498.33297 -39.741256,497.94986 -40.350476,498.56535 -40.620536,499.36927 -40.545176,500.35531 -40.469806,501.19691 -40.432126,502.0385 -40.432126,502.87382 -45.356076,503.04967 -48.829226,501.73075 -50.857846,498.92335 -50.820156,498.94219 -50.782476,498.96103 -50.744796,498.97987 -51.429376,496.386 -52.044866,493.63512 -52.578716,490.7335 -52.672926,490.08032 -52.785976,489.45227 -52.924146,488.84305 -52.873906,483.84373 -54.249346,479.54783 -57.050476,475.95535 -56.968826,476.23798 -56.893456,476.52688 -56.824376,476.81579 -56.849496,476.72158 -56.887176,476.62737 -56.937426,476.53316 -57.163526,475.99932 -57.546636,475.72925 -58.080486,475.72925 -58.388226,476.037 -58.501276,476.41383 -58.425916,476.87859 -58.407076,477.24915 -58.407076,477.63226 -58.407076,478.01538 z M -56.635956,477.50037 C -56.585706,477.69507 -56.522906,477.88348 -56.466376,478.0719 L -57.037906,478.24148 C -56.723886,478.10958 -56.591996,477.86464 -56.635956,477.50037 z"
                     style="fill:url(#radialGradient5213);fill-rule:evenodd;stroke:none" />
                <path
                     id="path4659"
                     d="M -108.12505,559.6128 C -93.372386,583.11853 -75.586246,594.8714 -54.77226,594.8714 -33.95826,594.8714 -16.17212,583.11853 -1.41947,559.6128 13.28239,536.18622 20.63332,507.84502 20.63332,474.5844 20.63332,441.40294 13.28239,413.06174 -1.41947,389.55601 -16.17494,366.05027 -33.95826,354.29741 -54.77226,354.29741 -75.586246,354.29741 -93.369566,366.05027 -108.12505,389.55601 -122.88052,413.06174 -130.25684,441.40294 -130.25684,474.5844 -130.25684,507.76587 -122.88052,536.10706 -108.12505,559.6128 z"
                     style="fill:url(#radialGradient5215);fill-rule:evenodd;stroke:none"
                     inkscape:connector-curvature="0" />
            </g>
            <g
                 id="g5074">
                <path
                     id="path4861"
                     d="M 594.45388,868.76915 C 601.99055,871.48863 606.70096,873.3728 608.58513,874.42165 614.86569,877.56193 618.00596,881.01624 618.00596,884.78457 618.21322,888.13839 616.43583,890.54384 612.66749,892.00721 607.22225,894.51943 603.98148,896.29683 602.93263,897.34568 612.13993,907.60183 617.27114,913.7819 618.31999,915.8733 622.29558,923.41 619.78336,929.1693 610.78333,933.1449 604.28923,935.8643 595.70999,936.0779 585.03305,933.7729 569.95971,930.2118 561.37419,928.4344 559.28277,928.4344 552.79495,928.0136 544.63023,929.3765 534.7886,932.5168 522.43475,936.2851 514.37679,938.3828 510.60846,938.7974 507.04738,939.4254 503.07179,939.3186 498.6754,938.4833 493.65096,937.648 490.08988,937.2272 487.99846,937.2272 486.11429,937.4345 482.03193,938.1693 475.75137,939.4254 470.51967,940.4743 466.117,940.8888 462.56221,940.6815 463.61106,934.8155 466.01651,929.2698 469.78485,924.038 461.62012,925.0869 450.62915,930.6326 436.81193,940.6815 424.45807,949.4743 413.25984,953.6572 403.21095,953.2426 399.02182,953.0291 392.32675,951.9865 383.11317,950.1024 375.78377,948.639 369.29595,948.2182 363.64345,948.8462 348.99091,950.1024 330.98456,949.8951 309.63067,948.2182 319.4723,942.9865 325.96012,939.2182 329.10039,936.9132 336.21626,931.6815 340.09137,925.8154 340.71942,919.3276 325.01803,919.9557 315.07591,917.8643 310.88678,913.0471 320.05639,908.36178 328.95594,906.11334 337.57914,906.29547 339.64545,905.37851 341.53589,904.07216 343.23164,902.37013 345.11581,900.48596 348.04883,897.34568 352.02442,892.94929 359.14029,886.66874 371.07335,880.38818 387.82359,874.10762 406.66526,867.19901 426.65627,862.69585 447.8029,860.60443 465.1812,858.92752 485.80026,858.82075 509.66638,860.2904 519.08721,860.91846 533.53249,861.33925 553.00221,861.54651 569.95971,862.38183 583.77694,864.79356 594.45388,868.76915 z"
                     style="opacity:0.25;fill-rule:evenodd"
                     inkscape:connector-curvature="0" />
                <g
                     id="g5031">
                    <path
                         style="fill:#785e46;fill-rule:evenodd"
                         d="M 434.53011,851.33773 428.24956,848.19745 C 438.9265,847.9902 452.95098,850.18211 470.32928,854.79204 V 863.27707 C 460.69491,864.74044 440.49664,871.02099 409.72192,882.11874 384.59969,891.11877 363.6666,895.20113 346.91636,894.35954 343.77608,873.6337 352.98965,860.03002 374.5508,853.53593 389.41688,849.35308 409.40789,848.61197 434.53011,851.33773 z"
                         id="path3240"
                         inkscape:connector-curvature="0" />
                    <path
                         style="fill:#785e46;fill-rule:evenodd"
                         d="M 540.67151,848.19745 C 566.21453,847.1486 579.51046,846.73408 580.55932,846.94134 591.86432,849.6671 597.62359,860.34405 597.83085,878.97846 581.49512,881.4844 568.72047,879.18572 559.51317,872.06357 549.46428,860.75857 540.15022,851.75853 531.57098,845.05718 L 540.67151,848.19745 z"
                         id="path3242"
                         inkscape:connector-curvature="0" />
                    <path
                         style="fill:#554231;fill-rule:evenodd"
                         d="M 474.72567,896.87176 C 469.70122,900.01204 455.884,909.84739 433.274,926.39037 419.24952,936.64652 407.52372,943.45464 398.10289,946.80218 386.79789,950.57051 378.63316,945.33881 373.60872,931.10079 369.00507,917.90534 369.00507,906.49985 373.60872,896.87176 376.95626,890.17669 387.11191,883.99662 404.06942,878.34412 440.07584,865.99027 458.28945,859.70971 458.71025,859.50245 475.66775,852.59384 494.19539,840.1395 514.29945,822.13315 524.34834,813.13311 532.72032,804.86162 539.42168,797.33123 L 545.0679,801.09957 C 549.88508,804.4471 554.80276,808.743 559.83348,813.9747 564.85793,818.99915 565.69324,825.38019 562.33942,833.1304 560.66252,836.89245 558.4706,840.1395 555.74484,842.85898 523.29321,865.05447 496.28682,883.05454 474.72567,896.87176 z"
                         id="path3244"
                         inkscape:connector-curvature="0" />
                    <path
                         style="fill:#554231;fill-rule:evenodd"
                         d="M 474.72567,768.12037 H 495.13748 L 505.81442,796.06884 C 513.55835,815.53856 518.68956,827.0571 521.20178,830.6119 525.17737,836.47794 536.69591,849.56033 555.74484,869.86537 561.81814,875.09707 573.53765,882.11245 590.91595,890.90523 605.36751,899.69801 612.79113,909.33238 613.21821,919.80207 613.84626,930.47274 607.98022,934.14058 595.62637,930.79304 577.2055,923.46363 561.92491,917.70437 549.77831,913.52151 535.96109,908.70433 524.24157,901.68895 514.6072,892.47537 502.4606,880.32878 491.89043,871.74954 482.89039,866.72509 480.58543,865.46898 468.1248,860.44454 445.52108,851.65176 423.7464,843.48704 410.55723,837.83454 405.95358,834.69426 402.8133,832.60283 393.07844,828.4137 376.749,822.13315 362.30372,816.48065 354.03223,811.877 351.9408,808.31592 349.42858,804.33405 352.98965,797.43172 362.61775,787.58381 367.43493,782.7729 372.4531,778.37651 377.69108,774.39464 L 410.97803,791.66617 C 435.0514,804.43454 451.90841,813.75489 461.5365,819.61464 471.16459,825.4744 481.00622,826.93777 491.05511,824.01103 496.07956,822.75492 500.05515,820.76399 502.98189,818.04451 L 474.72567,768.12037 z"
                         id="path3246"
                         inkscape:connector-curvature="0" />
                    <path
                         style="fill:#453628;fill-rule:evenodd"
                         d="M 407.20969,921.36593 C 405.32553,911.1035 401.66396,902.52426 396.21872,895.60937 L 388.99608,888.70076 396.21872,888.07898 C 401.66396,888.07898 406.26761,889.33509 410.03594,891.8536 413.80428,894.57936 415.68844,898.44818 415.68844,903.47263 415.8957,905.98485 415.58167,908.28981 414.74636,910.38752 L 452.74372,887.14946 C 459.4388,882.75307 467.39626,878.14314 476.60984,873.33224 487.07324,867.89328 495.76553,864.01817 502.66786,861.71321 509.79001,859.40825 518.16199,854.17654 527.79009,846.01182 536.58286,838.2679 543.38471,830.72495 548.20189,823.39554 551.97651,817.52322 551.66248,811.4562 547.26609,805.17565 L 539.41539,797.32495 551.03442,805.17565 C 559.4064,811.24266 564.53762,816.27339 566.42179,820.2427 570.39738,828.40742 566.8363,835.94409 555.74484,842.85898 520.36019,867.13961 497.12841,882.94777 486.03067,890.27718 473.88407,897.81385 464.57001,903.56683 458.0822,907.54871 446.3564,914.87183 437.45685,921.04562 431.38983,926.07635 425.10928,931.10079 417.6731,936.12524 409.09386,941.1434 L 398.10289,946.7959 403.75539,939.25923 C 407.10292,933.19222 408.25855,927.22569 407.20969,921.36593 z"
                         id="path3248"
                         inkscape:connector-curvature="0" />
                    <path
                         style="fill:#453628;fill-rule:evenodd"
                         d="M 484.1465,843.80106 C 482.46959,849.03905 476.71661,855.94766 466.87497,864.5269 457.6614,872.48436 449.8107,877.9296 443.32289,880.86262 442.06678,881.49068 434.73737,884.0029 421.34094,888.39929 413.02549,891.16902 407.63049,893.52423 405.16851,895.46492 L 405.63955,894.98759 C 409.19435,889.96315 415.26765,885.25273 423.85317,880.85634 428.67035,878.55138 435.78622,875.09707 445.20706,870.49343 448.56087,868.402 455.04869,863.79835 464.67678,856.6762 472.63424,850.60919 479.12206,846.31329 484.1465,843.80106 z"
                         id="path3250"
                         inkscape:connector-curvature="0" />
                    <path
                         style="fill:#453628;fill-rule:evenodd"
                         d="M 514.6072,837.20648 510.21081,840.34676 C 518.16827,838.25533 523.50047,837.20648 526.22623,837.20648 521.82984,841.81013 516.39088,845.89877 509.89678,849.45357 502.36011,853.2219 495.97279,854.79204 490.74109,854.16398 496.18633,847.04183 504.13751,841.39561 514.6072,837.20648 z"
                         id="path3252"
                         inkscape:connector-curvature="0" />
                    <path
                         style="fill:#453628;fill-rule:evenodd"
                         d="M 543.49776,812.71231 C 540.56474,813.34665 536.58914,815.22454 531.57098,818.36481 525.91848,821.71235 521.93661,823.80377 519.63792,824.64537 L 540.67779,804.54759 H 539.57869 C 540.37632,804.4157 542.10347,803.98862 544.76015,803.29148 546.01626,808.3222 548.94928,812.39829 553.55293,815.53856 549.15654,817.00193 542.87598,820.04172 534.71126,824.64537 535.96109,819.62092 538.88783,815.63905 543.49776,812.71231 z"
                         id="path3254"
                         inkscape:connector-curvature="0" />
                    <path
                         style="fill:#785e46;fill-rule:evenodd"
                         d="M 504.87234,840.34676 C 495.28821,845.93645 487.90856,850.86041 482.73338,855.10607 485.17651,852.98324 488.57429,849.74247 492.93928,845.3712 L 487.60081,847.57568 C 493.46057,840.87433 499.32033,836.37117 505.18637,834.07248 500.99723,835.12134 495.76553,836.79824 489.48498,839.09693 480.6922,842.65172 475.66775,844.64894 474.41164,845.06346 476.71661,844.0146 485.29584,839.30419 500.1682,830.93221 509.79629,825.64398 517.96102,821.8254 524.65609,819.47019 520.55489,824.60141 514.8961,829.47512 507.69859,834.07248 512.30223,832.60911 519.21713,829.77658 528.4307,825.59373 524.86335,828.09968 517.01265,833.01735 504.87234,840.34676 z"
                         id="path3256"
                         inkscape:connector-curvature="0" />
                    <path
                         style="fill:#785e46;fill-rule:evenodd"
                         d="M 423.22511,877.08801 C 429.53079,873.79072 435.07652,871.17173 439.86858,869.23732 442.19239,867.41595 446.28103,863.85488 452.11567,858.56665 457.14011,853.74947 461.85053,850.39565 466.24692,848.51148 460.97753,854.87368 455.69558,860.57643 450.38851,865.63228 450.20638,865.80185 449.99284,865.96515 449.76046,866.09704 431.81691,883.0671 413.55305,892.5947 394.96261,894.67985 400.61511,889.64912 410.03594,883.78936 423.22511,877.08801 z"
                         id="path3258"
                         inkscape:connector-curvature="0" />
                    <path
                         style="fill:#453628;fill-rule:evenodd"
                         d="M 497.96373,877.71607 C 494.82345,877.71607 500.1682,874.36853 513.97914,867.6609 520.89404,864.31336 528.11039,860.96582 535.64706,857.61201 L 542.56195,862.63645 523.72029,874.56951 530.62262,881.17037 C 536.27512,886.40207 541.61359,891.00572 546.63803,894.98759 553.12585,899.80478 559.51317,903.35958 565.79373,905.66454 572.70862,907.96322 577.94032,907.96322 581.49512,905.66454 584.6354,903.77409 582.33671,898.74965 574.58651,890.59121 L 561.71137,878.97218 614.78207,905.66454 C 611.42825,906.2926 607.97394,907.23468 604.41915,908.48451 597.51054,911.41753 593.42818,915.18586 592.17206,919.79579 591.12321,923.77138 594.47703,925.23475 602.22723,924.1859 609.96488,923.14333 613.63272,923.77138 613.21821,926.07635 612.16935,931.30805 608.18748,934.34156 601.28515,935.17687 569.88237,922.8293 548.62897,912.98767 537.53751,905.66454 530.6289,901.26815 521.94289,895.30162 511.47948,887.75867 L 497.96373,877.71607 z"
                         id="path3260"
                         inkscape:connector-curvature="0" />
                    <path
                         style="fill:#453628;fill-rule:evenodd"
                         d="M 534.70498,874.57579 534.38467,863.89884 541.92134,869.23732 C 548.20189,873.21919 554.79648,876.45995 561.70509,878.97846 568.82096,881.4844 574.99474,886.40836 580.23273,893.73776 582.95221,897.5061 584.94314,900.9604 586.19298,904.10068 580.96127,900.9604 574.36669,897.39933 566.4155,893.42374 561.39106,890.91151 554.58294,887.03641 546.0037,881.79843 L 534.70498,874.57579 z"
                         id="path3262"
                         inkscape:connector-curvature="0" />
                    <path
                         style="fill:#987658;fill-rule:evenodd"
                         d="M 388.99608,888.70704 C 400.09382,889.54235 406.68213,899.59124 408.77983,918.85371 410.664,938.32343 403.54813,947.43024 387.42594,946.17412 376.54174,945.33881 371.61778,935.39669 372.66664,916.34148 373.92275,897.07902 379.36799,887.86544 388.99608,888.70704 z"
                         id="path3264"
                         inkscape:connector-curvature="0" />
                    <path
                         style="fill:#947457;fill-rule:evenodd"
                         d="M 393.39247,898.12787 394.96261,900.95412 C 394.54809,901.58218 396.42598,900.31979 400.61511,897.17951 405.63955,902.62475 408.25855,910.05465 408.4658,919.47548 408.4658,929.53065 405.11827,936.01847 398.41691,938.95149 388.99608,942.92708 384.49292,940.52162 384.91372,931.72885 387.21868,920.21659 388.47479,912.67992 388.68205,909.11885 387.00514,909.11885 385.64854,908.91159 384.59969,908.48451 384.80695,906.39308 385.96257,904.19489 388.054,901.88993 389.93816,900.01204 391.71556,898.75593 393.39247,898.12787 z"
                         id="path3266"
                         inkscape:connector-curvature="0" />
                    <path
                         style="fill:#987658;fill-rule:evenodd"
                         d="M 388.99608,891.84732 C 391.08751,890.59121 394.12101,890.38395 398.10289,891.21298 403.33459,892.05458 407.00243,892.3686 409.09386,892.15506 411.81962,891.74055 416.00247,890.47816 421.65497,888.38673 427.30747,886.28902 431.4966,885.03291 434.21608,884.61212 419.56355,892.77684 409.09386,899.79222 402.8133,905.65826 400.50834,904.40215 397.99612,902.19767 395.27664,899.0574 392.55088,895.91712 390.98074,893.51166 390.56622,891.84104 H 388.99608 z"
                         id="path3268"
                         inkscape:connector-curvature="0" />
                    <path
                         style="fill:#453628;fill-rule:evenodd"
                         d="M 360.10552,893.41746 C 364.50191,890.27718 367.95622,886.72238 370.46844,882.74051 363.55983,881.69166 354.66028,884.62468 343.77608,891.53329 345.45299,882.94777 346.39507,877.40204 346.60233,874.88982 360.62681,876.14593 371.20327,876.45995 378.31914,875.8319 383.13632,875.4111 387.53271,873.94145 391.5083,871.43551 398.41691,867.45364 402.07848,865.36221 402.49928,865.15495 414.43233,860.13051 422.91108,856.77669 427.93553,855.09978 436.94184,852.17305 446.04237,849.97485 455.25595,848.5052 452.74372,856.66992 446.88396,863.16402 437.67039,867.98121 426.36539,872.58485 418.0939,876.24642 412.86219,878.97218 392.55716,889.43558 375.59337,894.35326 361.98969,893.73148 361.72591,894.1774 361.56261,894.54796 361.51865,894.83058 L 360.10552,893.41746 z"
                         id="path3270"
                         inkscape:connector-curvature="0" />
                    <path
                         style="fill:#987658;fill-rule:evenodd"
                         d="M 579.92498,912.88718 C 575.52859,910.5885 572.49508,908.80482 570.81817,907.54871 573.11686,907.75596 576.57116,908.17676 581.17481,908.80482 585.36394,909.21933 588.91874,909.11885 591.85176,908.48451 593.94318,903.04555 598.02554,901.05461 604.09884,902.52426 L 602.5287,904.0944 C 608.17492,901.78944 612.57759,904.40843 615.71787,911.9451 619.0654,919.47548 618.65089,925.54878 614.46176,930.15243 609.64457,935.59767 603.36401,936.8475 595.62009,933.92704 587.87616,930.99402 585.5712,925.86281 588.71148,918.53968 586.83359,917.07631 583.90057,915.19214 579.92498,912.88718 z"
                         id="path3272"
                         inkscape:connector-curvature="0" />
                    <path
                         style="fill:#947457;fill-rule:evenodd"
                         d="M 593.7422,908.80482 C 594.5838,905.24374 595.5196,902.73152 596.56845,901.26815 598.03182,903.35958 600.43728,906.70711 603.79109,911.31704 606.93137,915.71343 609.0228,919.48176 610.07165,922.62204 609.0228,922.41478 607.45266,922.51527 605.36123,922.94235 603.05627,923.14961 601.37936,923.14961 600.33051,922.94235 L 604.10512,927.33246 C 598.23908,926.49714 594.15672,925.55506 591.85804,924.51249 587.66891,922.62204 586.09877,919.06725 587.14762,913.83554 581.07432,913.20121 576.15665,911.10978 572.38831,907.55499 575.28993,908.32121 582.41208,908.74201 593.7422,908.80482 z"
                         id="path3274"
                         inkscape:connector-curvature="0" />
                    <path
                         style="fill:#785e46;fill-rule:evenodd"
                         d="M 541.92762,876.14593 534.39095,874.57579 C 553.65341,879.17944 570.19012,888.0727 584.00734,901.26815 577.51953,901.26815 568.09869,897.92061 555.74484,891.21298 542.97647,884.30437 535.4398,878.33784 533.13484,873.3134 535.22626,873.52693 538.15928,874.4753 541.92762,876.14593 z"
                         id="path3276"
                         inkscape:connector-curvature="0" />
                    <path
                         style="fill:#453628;fill-rule:evenodd"
                         d="M 577.09873,852.59384 C 582.53769,847.1486 588.29696,849.56033 594.37026,859.8102 599.80922,869.44457 602.00741,877.40204 600.96484,883.68259 585.47071,882.42648 573.3304,881.0636 564.53762,879.60023 548.62269,876.66721 539.72942,869.86537 537.84526,859.18843 542.8697,858.56037 546.32401,858.56037 548.20189,859.18843 H 546.31773 C 558.84115,859.43337 569.9389,860.36917 579.60467,862.01468 580.44627,858.8744 580.86078,856.99023 580.86078,856.36218 580.86706,855.52686 579.61095,854.27075 577.09873,852.59384 z"
                         id="path3278"
                         inkscape:connector-curvature="0" />
                    <path
                         style="fill:#453628;fill-rule:evenodd"
                         d="M 371.41052,775.343 C 373.92275,774.50769 376.01417,774.19366 377.69108,774.40092 L 408.15178,789.47426 378.31914,786.01995 374.86483,796.38287 C 372.98066,803.71228 373.60872,809.05075 376.749,812.39829 381.77344,817.63627 397.99612,823.28249 425.42331,829.35579 L 404.06942,806.11773 421.65497,818.36481 C 434.84414,826.94405 445.20706,832.18204 452.74372,834.0662 464.88404,837.20648 473.89036,837.72777 479.75011,835.63634 L 455.25595,848.51148 C 437.24959,844.11509 420.81966,839.50516 405.95358,834.69426 396.74001,831.76752 385.02049,826.42905 370.78247,818.67884 L 351.9408,808.3222 C 351.52628,806.2245 351.52628,803.61179 351.9408,800.47151 352.56886,794.19095 354.76705,788.8462 358.53538,784.45609 362.30372,779.84616 366.59334,776.80637 371.41052,775.343 z"
                         id="path3280"
                         inkscape:connector-curvature="0" />
                    <path
                         style="fill:#453628;fill-rule:evenodd"
                         d="M 502.67414,824.9594 H 496.70761 L 474.72567,768.12037 483.51845,777.5412 C 489.799,784.87061 494.19539,790.73037 496.70761,795.12676 500.68321,802.45617 502.67414,812.39829 502.67414,824.9594 z"
                         id="path3282"
                         inkscape:connector-curvature="0" />
                    <path
                         style="fill:#785e46;fill-rule:evenodd"
                         d="M 508.32664,816.48065 C 517.74748,810.40735 525.28414,806.53225 530.93664,804.85534 494.23308,842.1744 466.39137,860.39429 447.40525,859.49617 454.29502,850.27004 467.17016,840.64195 486.03067,830.60562 488.33563,829.35579 495.76553,824.64537 508.32664,816.48065 z M 447.40525,859.50245 C 447.05354,859.94209 446.74579,860.36289 446.46317,860.75857 H 446.14914 C 445.52108,860.75857 445.62785,860.34405 446.46317,859.50245 446.75207,859.52758 447.0661,859.52758 447.40525,859.50245 z"
                         id="path3284"
                         inkscape:connector-curvature="0" />
                    <path
                         style="fill:#453628;fill-rule:evenodd"
                         d="M 465.93289,837.20648 C 460.06685,840.76128 455.14918,844.42912 451.17358,848.19745 445.72834,845.89877 443.63692,842.75849 444.89303,838.77662 L 448.97539,840.18975 C 443.89442,838.22393 440.65365,834.71938 439.24053,829.66981 440.49664,830.08433 442.48758,830.08433 445.20706,829.66981 447.93282,829.2553 449.8107,829.14853 450.85956,829.35579 450.44504,825.37391 450.02424,822.96846 449.60345,822.13315 452.95098,822.13315 455.25595,822.45346 456.51206,823.07523 456.09126,822.23364 455.4632,821.71235 454.62789,821.50509 469.28043,825.48696 478.17997,827.78565 481.32025,828.4137 474.41164,832.18204 469.28043,835.11506 465.93289,837.20648 z"
                         id="path3286"
                         inkscape:connector-curvature="0" />
                    <path
                         style="fill:#453628;fill-rule:evenodd"
                         d="M 499.21984,806.11773 C 499.21984,804.65436 499.4271,803.71228 499.84789,803.29148 502.15286,804.34033 504.14379,806.2245 505.81442,808.94398 506.44876,810.20009 507.69859,812.92585 509.58903,817.1087 509.16824,817.1087 507.38456,817.42273 504.24428,818.05079 502.15286,818.25804 501.62529,818.4653 502.67414,818.67884 L 501.104,821.81912 C 499.21984,819.09336 497.6497,814.07519 496.39359,806.75207 498.27775,808.21544 499.21984,809.05075 499.21984,809.25801 499.21984,809.05075 499.21984,808.0019 499.21984,806.11773 z"
                         id="path3288"
                         inkscape:connector-curvature="0" />
                    <path
                         style="fill:#30261c;fill-rule:evenodd"
                         d="M 411.60608,921.36593 C 420.6124,923.04284 433.17351,918.01211 449.28942,906.2926 472.52747,889.33509 484.24699,880.75585 484.46681,880.54232 491.37542,876.98124 504.35105,869.65811 523.39998,858.56037 539.52216,848.926 552.71133,841.81013 562.97376,837.20648 557.52852,840.34676 550.93393,845.57846 543.19001,852.90787 532.72032,862.74322 526.333,868.60926 524.03431,870.49343 518.58907,874.4753 511.78723,878.75864 503.62251,883.36857 494.20167,888.18575 487.18629,891.8536 482.57636,894.35954 478.60077,896.6645 471.37813,900.22558 460.90845,905.03648 451.48761,909.43287 444.1582,913.3017 438.9265,916.66179 438.09119,917.07631 431.38983,922.52155 418.82872,932.99124 409.8224,940.52791 403.02056,944.39673 398.41691,944.61027 404.90473,939.79308 407.94452,931.63464 407.52372,920.12238 409.20063,919.70786 411.0848,918.55224 413.17622,916.66807 L 411.60608,921.36593 z"
                         id="path3290"
                         inkscape:connector-curvature="0" />
                    <path
                         style="fill:#30261c;fill-rule:evenodd"
                         d="M 513.35109,874.57579 C 513.55835,878.75864 516.17734,883.68259 521.20178,889.33509 526.43349,895.40839 529.36651,900.2193 529.99456,903.78037 519.52487,898.13415 511.88144,893.42374 507.07053,889.64912 498.27775,882.95405 498.80532,877.40832 508.64067,873.01193 L 513.35109,874.57579 z"
                         id="path3292"
                         inkscape:connector-curvature="0" />
                    <path
                         style="fill:#30261c;fill-rule:evenodd"
                         d="M 569.24804,869.86537 C 569.0345,867.98121 569.13499,866.51784 569.56206,865.46898 L 588.40373,862.01468 C 585.89151,865.36221 584.10783,867.45364 583.05898,868.29523 587.04713,869.23732 589.55935,869.76488 590.59564,869.86537 591.22998,870.27989 593.10787,871.74954 596.24815,874.26176 599.59568,876.7677 601.68711,878.86541 602.5287,880.54232 598.75409,879.70072 592.37304,879.80749 583.37301,880.85634 574.99474,881.69166 568.92145,881.58489 565.15939,880.54232 561.81186,879.70072 556.4671,876.24642 549.14398,870.1794 545.294,867.12077 541.94646,864.8158 539.08881,863.27079 545.17466,866.05307 549.88508,867.93724 553.22006,868.91701 558.67786,870.38666 564.01005,870.70068 569.24804,869.86537 z"
                         id="path3294"
                         inkscape:connector-curvature="0" />
                    <path
                         style="fill:#30261c;fill-rule:evenodd"
                         d="M 360.10552,810.82815 C 364.08112,815.01728 372.87389,818.78561 386.48386,822.13315 393.81327,824.02359 403.75539,826.32228 416.3165,829.04804 420.50563,830.30415 426.89296,832.50234 435.47219,835.64262 443.21612,837.94131 449.8107,838.99016 455.25595,838.7829 449.8107,836.89873 439.3473,830.09061 423.85317,818.37109 407.73098,806.2245 396.11195,798.58734 388.99608,795.44706 395.4839,795.23981 406.68213,800.26425 422.59706,810.5204 444.79254,824.75842 457.24688,832.60911 459.96636,834.07248 L 460.28039,829.67609 C 465.30484,829.04804 470.33556,829.04804 475.35372,829.67609 473.46956,833.23089 468.65237,836.59099 460.90845,839.73126 452.53646,843.0788 447.09122,846.32585 444.579,849.46613 439.76181,847.78922 432.75271,844.96297 423.53914,840.9811 414.1183,837.0055 407.20969,834.17925 402.8133,832.50234 392.34362,829.36207 384.28566,826.74307 378.63316,824.65165 368.58427,820.88332 361.36163,816.80095 356.96525,812.40457 L 360.10552,810.82815 z"
                         id="path3296"
                         inkscape:connector-curvature="0" />
                    <path
                         style="fill:#30261c;fill-rule:evenodd"
                         d="M 441.75275,854.16398 C 440.91744,855.20655 440.49664,855.84089 440.49664,856.04815 L 444.89303,854.47801 C 438.39893,857.61829 428.35632,865.05447 414.74636,876.77398 408.05129,882.42648 401.97799,885.98756 396.53275,887.45093 391.71556,888.70704 384.28566,889.02107 374.23677,888.39301 377.58431,885.66725 384.28566,882.00569 394.33455,877.40204 402.70653,873.42017 408.98709,869.02378 413.17622,864.20659 408.15178,862.32242 403.12733,861.48083 398.10289,861.70065 402.49928,858.97489 409.30112,856.99023 418.51469,855.73412 423.7464,854.89253 431.07581,853.84995 440.49664,852.59384 441.75275,853.01464 442.17355,853.53593 441.75275,854.16398 z"
                         id="path3298"
                         inkscape:connector-curvature="0" />
                    <path
                         style="fill:#785e46;fill-rule:evenodd"
                         d="M 379.88927,799.83717 H 388.68205 C 395.59066,800.47151 401.24316,802.04165 405.63955,804.54759 412.75542,808.73672 420.29209,813.96842 428.24956,820.24898 420.92015,818.15756 413.27671,814.60276 405.32553,809.57204 400.30108,806.2245 394.54809,803.61179 388.054,801.72134 L 379.88927,799.83717 z"
                         id="path3300"
                         inkscape:connector-curvature="0" />
                    <path
                         style="fill:#30261c;fill-rule:evenodd"
                         d="M 519.31762,893.41746 C 525.59817,894.25277 532.9213,897.07902 541.29956,901.89621 552.3973,908.38402 559.29963,912.15863 562.0254,913.20121 572.28154,917.18308 583.27252,923.98492 594.99831,933.61301 577.83356,927.33246 562.86071,921.68624 550.09234,916.66179 525.17737,906.60662 515.97008,899.39026 522.46417,894.99388 L 519.31762,893.41746 z"
                         id="path3302"
                         inkscape:connector-curvature="0" />
                    <path
                         style="fill:#453628;fill-rule:evenodd"
                         d="M 460.59442,904.0944 C 474.82616,890.69169 489.27772,881.0636 503.93025,875.19756 505.81442,881.89264 511.04612,888.60027 519.63164,895.29534 528.63796,902.41749 533.97015,908.06371 535.64706,912.25284 528.95199,911.61851 520.88775,912.25284 511.46692,914.13701 500.99723,916.43569 493.03977,918.00583 487.60081,918.84743 478.80803,920.10354 471.16459,920.21031 464.67678,919.16145 454.62789,917.07631 453.27129,912.05186 460.59442,904.0944 z"
                         id="path3304"
                         inkscape:connector-curvature="0" />
                    <path
                         style="fill:#785e46;fill-rule:evenodd"
                         d="M 496.39359,885.25273 494.19539,887.45093 501.73206,889.33509 C 500.89046,890.38395 499.84161,892.26811 498.59178,894.98759 497.54293,897.71336 496.8081,899.2835 496.38731,899.69801 499.32033,899.49075 503.92397,899.59124 510.20453,900.01204 L 504.86606,901.58218 518.677,904.0944 C 512.18918,903.46006 503.71043,903.56683 493.24075,904.40843 479.22255,905.66454 470.75008,906.2926 467.81706,906.2926 472.63424,902.31072 480.6922,897.60031 491.9972,892.16134 485.71664,891.53329 481.11299,891.31975 478.18626,891.53329 L 496.39359,885.25273 z"
                         id="path3306"
                         inkscape:connector-curvature="0" />
                    <path
                         style="fill:#30261c;fill-rule:evenodd"
                         d="M 499.21984,919.16773 C 481.42702,922.30801 467.29577,923.46363 456.82608,922.62204 450.96005,914.45732 450.33827,907.02742 454.94192,900.32607 455.77723,901.78944 457.34737,903.88086 459.65233,906.60662 461.5365,909.33238 462.68584,911.84461 463.10664,914.14329 469.59445,913.51523 480.37817,912.36589 495.4515,910.68898 508.42713,908.59128 518.47602,905.03648 525.59817,900.01204 L 523.3937,902.21023 C 525.69866,906.39936 531.77196,909.85367 541.60731,912.57315 537.63172,912.98767 523.50047,915.19214 499.21984,919.16773 z"
                         id="path3308"
                         inkscape:connector-curvature="0" />
                    <path
                         style="fill:#785e46;fill-rule:evenodd"
                         d="M 488.54289,778.16926 C 491.26865,775.23624 492.73202,772.72401 492.93928,770.63259 500.05515,780.05342 506.33571,791.35842 511.78095,804.54759 507.79908,800.36474 504.13751,794.29144 500.78998,786.33398 L 502.67414,793.24259 C 496.98396,786.73593 492.85135,781.71777 490.27004,778.16926 H 488.54289 z"
                         id="path3310"
                         inkscape:connector-curvature="0" />
                    <path
                         style="fill:#785e46;fill-rule:evenodd"
                         d="M 434.53011,814.59648 C 430.76178,812.08426 422.80431,807.99562 410.664,802.3494 400.40785,797.53221 392.87118,792.92856 388.054,788.53217 L 398.73094,790.73037 C 408.41556,791.49031 418.25719,795.77993 428.24956,803.61179 435.57896,809.25801 446.04237,818.47158 459.65233,831.23995 456.29852,829.35579 452.11567,826.63631 447.09122,823.07523 440.60341,818.67884 436.41428,815.85259 434.53011,814.59648 z"
                         id="path3312"
                         inkscape:connector-curvature="0" />
                    <path
                         style="fill:#453628;fill-rule:evenodd"
                         d="M 381.14539,859.81648 C 377.58431,858.77391 375.27935,858.24634 374.23677,858.24634 388.47479,857.20377 405.63955,856.6762 425.73733,856.6762 V 858.24634 C 423.01785,859.70971 418.82872,861.27985 413.17622,862.95676 414.43233,864.21287 413.38976,865.16124 410.03594,865.78301 408.35903,866.19753 408.25855,866.41735 409.72192,866.41735 410.55723,867.88072 410.55723,870.80745 409.72192,875.20384 401.1364,877.71607 386.58435,878.23735 366.07205,876.77398 367.74896,874.4753 371.51729,872.59113 377.37705,871.12776 384.49292,869.45085 388.99608,868.09426 390.88025,867.0454 388.57528,865.58203 384.07841,864.84721 377.37705,864.84721 371.30375,864.63367 367.01414,863.48433 364.50191,861.38662 L 381.14539,859.81648 z"
                         id="path3314"
                         inkscape:connector-curvature="0" />
                    <path
                         style="fill:#82664d;fill-rule:evenodd"
                         d="M 378.31914,916.65551 C 377.72876,908.96183 379.9772,904.04416 385.07073,901.88993 390.83,896.83408 396.01146,898.82501 400.61511,907.85645 406.06035,918.5334 406.06035,927.42667 400.61511,934.54882 402.29202,926.80489 401.97799,921.14611 399.67303,917.59132 397.78886,914.45104 395.16987,913.51523 391.82233,914.76506 388.47479,916.22843 386.37709,919.06097 385.54178,923.2501 384.49292,928.27454 385.74903,933.7135 389.31011,939.57954 382.60876,934.34784 378.94719,926.7044 378.31914,916.65551 z"
                         id="path3316"
                         inkscape:connector-curvature="0" />
                    <path
                         style="fill:#82664d;fill-rule:evenodd"
                         d="M 598.45262,908.49079 C 594.05623,912.47266 593.22092,916.76228 595.94668,921.37221 598.66616,925.97586 603.06255,927.96679 609.13585,927.33246 607.25168,931.52159 604.21817,933.29899 600.02904,932.67721 596.26071,932.04287 592.81268,929.85096 589.6724,926.08263 581.29414,916.02746 583.70587,909.64641 596.88876,906.92065 L 598.45262,908.49079 z"
                         id="path3318"
                         inkscape:connector-curvature="0" />
                    <path
                         inkscape:connector-curvature="0"
                         id="path3330"
                         d="M 474.72567,768.12037 H 495.13748 L 499.84789,781.30953 C 504.45154,788.4254 508.43341,796.17561 511.78095,804.54759 510.7321,803.50502 508.74744,800.77926 505.81442,796.38287 L 513.03706,813.6544 C 520.15293,809.05075 526.11946,806.11773 530.93664,804.86162 L 515.54928,819.93495 515.86959,820.56301 C 525.29042,811.98377 533.14112,804.23356 539.42168,797.33123 L 544.13209,800.1512 C 556.27241,808.52946 563.7023,815.22454 566.42807,820.24898 570.40366,828.4137 566.84258,835.95037 555.75112,842.86526 L 549.15026,847.25537 548.83623,847.5694 C 564.95214,846.52055 574.79377,846.20652 578.34856,846.62731 587.14134,848.09068 592.90061,853.2219 595.62009,862.01468 598.34585,867.6609 600.01648,873.11242 600.65081,878.34412 601.48613,878.97846 602.1079,879.707 602.53498,880.5486 H 600.96484 V 883.68887 C 600.75758,883.68887 593.32141,882.84728 578.66887,881.17665 577.41276,881.38391 575.73585,881.49068 573.63814,881.49068 589.13228,889.86894 598.86714,895.93596 602.84273,899.70429 L 614.77579,905.67082 611.95582,906.2926 C 614.88884,909.22561 616.773,913.09444 617.60204,917.91162 618.23637,923.14961 617.18752,927.22569 614.46176,930.15871 611.32148,933.93332 607.13863,935.60395 601.90065,935.18315 H 600.65081 C 597.7178,934.76864 594.99831,933.82655 592.47981,932.36318 570.49787,924.61926 553.4336,918.01839 541.29956,912.57943 538.9946,912.78669 524.96384,915.09165 499.21984,919.48804 481.42702,922.42106 467.29577,923.46992 456.82608,922.62832 454.52112,919.28078 453.05775,915.82648 452.4297,912.27168 435.67945,924.62554 426.36539,931.52787 424.48122,932.99752 414.63959,939.48533 405.84681,944.09526 398.10289,946.81474 393.2857,948.49165 388.57528,948.07085 383.97164,945.55863 379.15445,943.67446 375.80691,938.96405 373.92275,931.42738 371.83132,925.56134 370.78247,919.38755 370.78247,912.89974 370.78247,906.41193 371.72455,901.06089 373.60872,896.87176 L 376.749,892.7894 361.67566,894.04551 V 894.67985 L 361.04761,894.04551 C 354.76705,894.46003 350.05663,894.57308 346.91636,894.35954 L 346.60233,889.96315 343.77608,891.53329 C 345.45299,882.94777 346.39507,877.40204 346.60233,874.88982 H 348.4865 C 356.02316,853.53593 384.70646,845.68523 434.53011,851.33773 L 428.24956,848.19745 436.72831,848.51148 C 419.97806,841.81641 409.72192,837.20648 405.95358,834.69426 398.62417,831.97478 394.22778,830.19738 392.76441,829.35579 376.85577,824.5386 365.86479,819.62092 359.7915,814.59648 355.60237,812.08426 352.98965,809.99283 351.9408,808.31592 351.10549,806.85255 350.99872,805.07516 351.62677,802.97745 352.04129,795.65432 354.34625,789.48054 358.53538,784.44981 362.30372,779.84616 366.59334,776.80637 371.41052,775.343 373.92275,774.50769 376.01417,774.19366 377.69108,774.40092 L 408.15178,789.47426 405.95358,789.15395 C 431.4966,802.55665 450.02424,812.70603 461.5365,819.62092 472.63424,826.316 484.03973,827.26436 495.76553,822.44717 L 474.72567,768.12037 z"
                         style="fill:url(#linearGradient5217);fill-rule:evenodd" />
                </g>
            </g>
            <g
                 transform="translate(42,256)"
                 id="g4353">
                <path
                     inkscape:connector-curvature="0"
                     id="path3344"
                     d="M 476.50081,388.46818 C 490.11706,388.27348 495.32364,394.15837 492.10799,406.12282 491.62439,408.45919 490.26151,410.45013 488.02563,412.10191 484.43315,414.92188 481.56294,418.2757 479.42127,422.16965 477.7632,422.36434 476.6013,421.58555 475.91672,419.83328 473.48614,413.32034 476.11142,409.86604 483.79882,409.47664 483.98723,409.47664 484.18821,409.4264 484.38291,409.33219 485.35011,407.6804 485.25591,406.17307 484.08772,404.81019 480.58317,400.33843 475.91672,398.29097 470.08836,398.68037 469.98787,398.68037 469.94391,398.73061 469.94391,398.82482 467.90273,399.50312 465.76106,399.993 463.52518,400.28191 463.13579,400.866 462.84688,401.5443 462.65219,402.32309 461.2893,402.2226 460.66125,401.78924 460.74918,401.01045 460.35978,401.29936 460.11484,401.78924 460.02063,402.46754 459.92642,403.05163 459.53703,403.39078 458.85245,403.49127 458.07366,403.39706 457.6403,403.00767 457.53981,402.32309 457.43932,400.96021 457.97317,399.89251 459.14764,399.11372 460.21533,398.43542 461.37723,397.94554 462.65219,397.65664 465.37795,393.57427 469.41006,390.70406 474.7611,389.04599 475.53361,388.85758 476.1177,388.66288 476.50081,388.46818 z M 465.7799,396.70827 C 465.61033,396.92809 465.44075,397.14791 465.27118,397.36145 465.66057,397.36145 466.04997,397.36145 466.43936,397.36145 L 465.7799,396.70827 z M 477.67528,436.61492 C 477.67528,436.51443 477.72552,436.42023 477.81345,436.31974 478.00814,436.03083 478.30333,435.73565 478.69273,435.44674 479.0884,435.15783 479.572,434.91289 480.14981,434.7182 480.445,434.5235 480.73391,434.37905 481.02909,434.27856 488.32082,434.57374 491.38573,437.9778 490.21755,444.49074 489.43876,449.06299 486.713,451.00996 482.04654,450.33166 482.04654,448.87457 482.14703,447.46144 482.34173,446.09856 482.92582,442.98341 481.70739,440.26393 478.69273,437.92756 478.20912,437.63237 477.86369,437.19902 477.67528,436.61492 z M 479.572,464.33102 C 479.67249,464.43151 479.67249,464.52571 479.572,464.6262 478.97535,464.68273 478.39126,464.75809 477.81973,464.84602 L 477.96418,465.06584 C 480.30055,478.58788 474.17073,489.18946 459.58099,496.87058 457.05621,498.13297 456.42187,500.18043 457.68427,503.0004 460.41003,508.64034 462.30047,514.57546 463.37445,520.79321 466.28863,525.65436 470.42123,527.06749 475.77227,525.02631 475.67806,524.05282 475.77227,523.07934 476.06745,522.11213 476.26215,521.13864 476.70179,520.30961 477.38009,519.63131 483.21473,525.37174 485.79603,532.66347 485.11145,541.51277 485.01096,542.87565 485.25591,544.33274 485.84,545.89032 487.68648,550.65726 490.65718,554.84011 494.73955,558.43887 500.3732,557.36489 501.40322,554.68937 497.79818,550.41232 496.73048,549.14992 496.14639,547.7368 496.05218,546.1855 505.78076,546.27971 509.47373,551.5805 507.14364,562.08159 506.26437,565.87504 505.24064,569.48008 504.07873,572.88415 503.68934,574.05233 503.2497,575.50942 502.7661,577.25541 500.32924,586.01051 497.90495,594.85981 495.47437,603.8096 494.29991,603.71539 493.48343,604.15503 492.98727,605.12224 491.33548,618.83897 486.57482,631.53198 478.69273,643.20125 471.68991,653.60813 460.94387,658.07989 446.44835,656.6228 438.37784,655.74352 430.74068,653.75258 423.54944,650.64371 402.63519,641.3108 394.65889,626.81528 399.62053,607.16342 389.79774,600.75097 387.80052,591.80118 393.63516,580.3266 395.58213,576.43266 397.62331,572.59524 399.76498,568.80178 403.84734,561.79896 403.1188,555.12901 397.57935,548.81077 395.04828,545.9908 392.86265,543.07035 391.01616,540.05568 389.26389,536.94052 388.63583,533.48622 389.11944,529.69276 389.60932,526.2887 390.53256,522.88464 391.88916,519.48058 392.95686,516.85531 394.61492,514.47498 396.8508,512.33331 406.9625,502.89991 416.44614,493.41627 425.29544,483.88239 427.33662,481.64651 430.06238,480.81748 433.46644,481.40157 444.5579,483.24805 453.9913,480.57881 461.77291,473.3813 462.74011,472.5083 463.61939,471.39036 464.39818,470.02748 466.14417,466.72391 468.86994,464.48175 472.56918,463.31985 473.54267,463.31985 474.56012,463.31985 475.63409,463.31985 477.18539,463.11887 478.49803,463.45802 479.572,464.33102 z M 399.76498,607.30787 C 399.76498,607.40836 399.76498,607.50257 399.76498,607.60306 H 400.20462 C 400.00992,607.40208 399.86547,607.30787 399.76498,607.30787 z"
                     style="fill:url(#radialGradient5219);fill-rule:evenodd;stroke:none" />
                <path
                     inkscape:connector-curvature="0"
                     id="path3352"
                     d="M 373.50598,433.40556 C 380.50879,432.62677 385.17525,435.15783 387.51161,440.99247 389.1634,444.78593 389.50255,448.72384 388.53535,452.8062 385.91007,453.0951 383.18431,452.8062 380.36434,451.9332 375.5974,450.28141 371.7537,451.10417 368.83952,454.41402 367.77183,452.07765 366.84231,449.69732 366.0698,447.26047 364.41173,441.62053 366.5534,437.14877 372.48853,433.83892 372.87164,433.55001 373.21707,433.40556 373.50598,433.40556 z"
                     style="fill:url(#radialGradient5221);fill-rule:evenodd;stroke:none" />
                <path
                     inkscape:connector-curvature="0"
                     id="path3360"
                     d="M 367.37615,470.60529 C 367.37615,471.28359 367.80951,471.82372 368.68879,472.21311 368.68879,472.40781 368.73903,472.55226 368.83324,472.64647 368.83324,472.93538 368.783,473.18032 368.68879,473.37502 368.49409,473.66392 368.19891,473.95911 367.80951,474.2543 364.31124,472.79721 361.97487,470.55505 360.80669,467.54038 359.24911,463.26332 360.2226,460.19841 363.72087,458.35193 365.66784,457.86204 367.51432,458.01278 369.2666,458.79157 370.72369,459.46987 371.60297,460.53756 371.89187,462.00093 371.21357,462.88021 370.43478,463.70296 369.55551,464.48175 367.81579,466.22774 367.08725,468.26893 367.37615,470.60529 z"
                     style="fill:url(#radialGradient5223);fill-rule:evenodd;stroke:none" />
                <path
                     inkscape:connector-curvature="0"
                     id="path3368"
                     d="M 453.45745,541.94613 C 453.75264,549.14364 455.64937,555.41792 459.14764,560.76267 459.92642,562.02506 460.94387,562.99855 462.20627,563.68313 464.05903,562.61544 465.56008,561.20231 466.73455,559.45004 467.21815,558.77174 467.80224,558.28185 468.48054,557.99295 469.55452,564.31747 470.67246,570.83668 471.83436,577.54432 472.51266,581.43198 475.09397,582.40547 479.56572,580.4585 482.19099,579.29031 484.67181,578.37335 487.00818,577.69505 484.18821,582.9456 480.9286,588.49133 477.22936,594.31968 470.03184,605.31066 469.1086,616.88572 474.45963,629.0386 476.31239,633.32193 476.50081,637.74973 475.04372,642.31569 472.23003,651.26548 465.50984,656.22712 454.91454,657.19433 446.64933,657.97312 438.76723,656.85518 431.27453,653.84051 422.81462,650.43645 416.25144,644.94096 411.57871,637.35405 412.03091,637.80625 412.49567,638.25217 412.96671,638.66669 409.08532,632.4929 408.3819,625.49008 410.85016,617.65823 411.82365,614.64356 413.47543,611.96804 415.8118,609.63796 418.22353,607.17598 419.78111,604.48162 420.47825,601.54232 420.42801,599.79633 420.18935,598.01265 419.74971,596.21013 419.2033,594.09358 419.2033,592.19057 419.74971,590.52623 419.56129,589.36432 419.95069,588.34687 420.91789,587.46132 426.55783,582.21077 431.56971,576.6148 435.94726,570.68595 436.72605,569.71246 436.91447,568.54428 436.53135,567.1814 433.4162,555.21694 426.17472,546.31739 414.79435,540.48276 417.03023,534.55391 420.82368,529.44154 426.17472,525.16448 430.88513,521.37731 435.60183,517.73458 440.32481,514.22375 L 440.40018,514.15467 C 440.76445,513.60826 441.17896,513.19374 441.63745,512.91112 442.12105,513.94741 442.22154,515.11559 441.93263,516.41567 443.21387,520.75553 444.86565,525.03887 446.89427,529.25312 448.25715,532.07309 449.90266,534.79257 451.84963,537.41785 452.82312,538.6928 453.35696,540.19385 453.45745,541.94613 z M 441.34854,518.02349 H 441.42391 V 517.87904 L 441.34854,518.02349 z M 437.69954,517.29494 437.84399,517.58385 C 438.63534,516.71085 439.33876,515.80645 439.96054,514.88321 439.21943,515.6934 438.46576,516.49731 437.69954,517.29494 z"
                     style="fill:url(#radialGradient5225);fill-rule:evenodd;stroke:none" />
                <path
                     id="path3451"
                     d="M 522.74878,632.94623 C 501.07785,661.5421 474.95086,675.84004 444.37611,675.84004 413.80136,675.84004 387.67438,661.5421 366.00344,632.94623 344.40712,604.44665 333.60896,569.96819 333.60896,529.50503 333.60896,489.13816 344.40712,454.65971 366.00344,426.06384 387.67852,397.46796 413.80136,383.17003 444.37611,383.17003 474.95086,383.17003 501.07371,397.46796 522.74878,426.06384 544.42386,454.65971 555.25933,489.13816 555.25933,529.50503 555.25933,569.8719 544.42386,604.35036 522.74878,632.94623 z"
                     style="fill:url(#radialGradient5227);fill-rule:evenodd;stroke:none"
                     inkscape:connector-curvature="0" />
            </g>
        </g>
    </g>
</svg>
