<?xml version="1.0" encoding="UTF-8" standalone="no"?>
<!-- Created with Inkscape (http://www.inkscape.org/) -->

<svg
   width="843.10126"
   height="133.55598"
   version="1.1"
   viewBox="0 0 843.10126 133.55598"
   id="svg46"
   sodipodi:docname="item21.svg"
   inkscape:version="1.1.2 (0a00cf5339, 2022-02-04)"
   xmlns:inkscape="http://www.inkscape.org/namespaces/inkscape"
   xmlns:sodipodi="http://sodipodi.sourceforge.net/DTD/sodipodi-0.dtd"
   xmlns="http://www.w3.org/2000/svg"
   xmlns:svg="http://www.w3.org/2000/svg"
   xmlns:rdf="http://www.w3.org/1999/02/22-rdf-syntax-ns#"
   xmlns:cc="http://creativecommons.org/ns#"
   xmlns:dc="http://purl.org/dc/elements/1.1/">
  <defs
     id="defs50" />
  <sodipodi:namedview
     id="namedview48"
     pagecolor="#ffffff"
     bordercolor="#666666"
     borderopacity="1.0"
     inkscape:pageshadow="2"
     inkscape:pageopacity="0.0"
     inkscape:pagecheckerboard="0"
     showgrid="false"
     inkscape:zoom="0.64327485"
     inkscape:cx="404.18182"
     inkscape:cy="63.736364"
     inkscape:window-width="1366"
     inkscape:window-height="719"
     inkscape:window-x="0"
     inkscape:window-y="25"
     inkscape:window-maximized="1"
     inkscape:current-layer="svg46"
     fit-margin-top="0"
     fit-margin-left="0"
     fit-margin-right="0"
     fit-margin-bottom="0" />
  <metadata
     id="metadata2">
    <rdf:RDF>
      <cc:Work
         rdf:about="">
        <dc:format>image/svg+xml</dc:format>
        <dc:type
           rdf:resource="http://purl.org/dc/dcmitype/StillImage" />
      </cc:Work>
    </rdf:RDF>
  </metadata>
  <g
     id="g859"
     transform="rotate(90,446.95156,405.20828)">
    <path
       d="m 104.0582,851.3582 -1.5,-0.54382 -6.5,-6.1468 v -2.6077 h -1.8346 l -3.5475,-9.5 -2.4452,-4 -2.5229,-9 -2.1089,-2.758 -0.37712,-10.188 -0.37712,-10.188 4.4504,-10.345 -3.2372,-9.897 v -5.7242 l 1.648,-1.9 3.4668,-18 -0.69852,-277 -2.5154,-14 -1.8448,-4 -3.056,-21.257 v -7.3342 l 4.5,-4.5209 5.5,-8.3453 v -6.7101 l -7.5,-7.8328 -6.5,-5.5154 -0.17857,-9.9923 -0.17857,-9.9923 -0.07143,-2.0922 -0.07143,-2.0922 10,-3.3157 3,-14.344 0.75,-0.7448 0.75,-0.74479 v -11.267 l -1.8376,-1.9 -2.0632,-19 -0.62393,-12 -0.62393,-12 -2.3395,-5.5 h -1.6261 l -8.8856,2.2374 v 1.4415 l -4.5,2.0884 -14.944,12.233 h -1.3541 l -3.8946,-7.5 -2.4798,-8 -3.1594,-7 -0.89883,-14 9.2307,-13.765 v -6.6171 l -2,-1.2361 v -4.8211 l 4.203,-7.5608 2.5601,-3 6.0028,-12 2.4717,-12.332 8.7625,-6.2927 0.10914,-31.688 0.10913,-31.688 1.6806,-40 2.049,-27 2.1013,-14.912 1.6429,-1.0876 1.438,-6 5.9132,-13 1.9969,-3 3.0993,-6.7697 3.6277,-5.2303 8.5113,-13.5 h 2.6864 l 8.9114,8.5387 5.3613,7.9003 9.4456,18.165 1.8306,4.9482 1.8306,4.9482 0.68348,1 0.68347,1 2.1938,9.0089 1.3633,21.991 1.8713,2.3733 0.88785,56.813 0.88784,56.813 0.0423,0.18786 0.0423,0.18787 8.6736,6.2289 2.4601,13.352 0.76556,1.0219 0.76555,1.0219 2.6963,7 7.6389,9.2776 v 11.25 l -2.1985,3.5203 9.1416,13.633 1.2978,6.9178 -2.3769,12.402 -3.4686,7 -1.2766,4 -1.2766,4 -1.3835,1.8897 -1.3835,1.8897 -5.5259,-3.6207 -6.9704,-6.7696 -11.203,-6.8052 -8.3764,-1.3394 v 9.2828 l -1.8169,3.4729 -1.2552,17 -1.2552,17 -0.36834,8.5 -0.36835,8.5 3.5641,14 9.7723,2.9317 -1.0798,25.004 -7.6925,6.6668 -3,2.7508 -3.7687,7.0609 1.639,3.454 1.639,3.454 7.0048,8.678 1.1215,1.3454 1.1215,1.3454 -2.1474,7.3092 -1.642,11.5 -1.642,11.5 -1.6923,2.0442 -1.3063,10.978 -1.3063,10.978 -0.0104,133.5 -0.0104,133.5 1.419,7.2954 1.419,7.2954 1.6621,1.0272 v 15.715 l -2.1207,0.7069 -0.189,6.6503 2.0871,1.3095 2.2115,8 0.012,10.402 -1.1168,5.2992 -1.1168,5.2992 -1.4162,2 -2.5636,9 -2.8021,6.0132 -2.8021,6.0132 -8.8222,9.4736 -7.8602,-0.1578 -1.5,-0.54383 z"
       fill="#e5ebf1"
       id="path6" />
    <path
       d="m 103.6282,850.8782 -1.9316,-1.1209 -5.5899,-5.7184 -8.006,-16.774 -5.0153,-15.705 -0.02452,-14 4.1387,-10.889 -2.5554,-12.856 4.9157,-22.255 0.27952,-106 0.27952,-106 -2.0479,-68 -2.9738,-17.272 -1.9425,-5.1091 -2.4565,-21.132 4.9751,-5.4869 5.3865,-7.3666 v -8.8893 l -13.5,-12.499 -1,-22.922 1,-0.81382 1,-0.81381 8,-2.1564 1.9075,-7.2696 1.9075,-7.2696 0.84352,-12.227 -3.0868,-10.394 -1.0473,-17.189 -1.0473,-17.189 -1.1153,-6.7529 -9.1993,1.2609 -10.163,6.4122 -4,3.5752 -8,7.0031 -1.1435,0.002 -4.2965,-9.5067 -6.2512,-17.993 0.84554,-10 8.5292,-12.362 -1.258,-14.638 2.5744,-4.3716 7.41,-10.832 5.3532,-19.297 h 1.5834 l 5.8564,-4.9278 0.59647,-41.286 0.59647,-41.286 3.0685,-47 1.257,-10 4.545,-14 8.1085,-17.037 5.1251,-7.5523 v -0.84882 l 9.0342,-13.965 0.81583,-0.50422 0.81584,-0.50422 6.8341,4.7214 3,3.7158 5.8782,8.9744 10.331,20 2.5513,8 1.4817,2 2.3043,10 2.0865,25 1.7152,23 0.0759,31.092 0.0758,31.092 1.288,26.816 8.4667,6.3785 0.71852,4.8108 0.71853,4.8108 4.9472,11.77 7.8611,10.412 v 9.2242 l -1.0985,2.4109 -1.0985,2.4109 9.3612,14.078 1.0262,7.6943 -3.1815,12.254 -2.9966,5.7459 -0.012,1.6292 -4.2248,9.8208 -4.2752,-2.2709 -11,-9.2194 -6,-4.1151 -6.7984,-2.3447 h -4.4915 l -1.211,8.5 -0.99928,13.5 -0.99929,13.5 -3.1491,20.661 0.66229,4.1695 0.66229,4.1695 1.4553,6.5879 1.4553,6.5879 9.4134,2.9517 -0.33354,24.663 -4.6994,4.3576 -5.2281,3.4256 -4.6844,8.8301 4.1804,8.5965 7.2608,8.6842 -0.58836,5.6579 -0.58837,5.6579 -1.4719,8.9323 -1.472,8.9323 -1.6621,3.1353 -2.7131,23 v 271 l 3.7657,13 0.92346,10.57 -3.2039,8.0074 4.5148,9.4227 -0.0338,17 -5.8398,18 -5.7479,11.633 -9.5108,9.8673 -6.8677,-0.0608 -1.9316,-1.1209 z m 14.428,-424.07 -0.004,-1.25 -4.1726,-6.8444 -1.0998,-10.656 -5.2202,0.0273 -4.2512,1.1409 -2.0827,11.332 -1.9555,7.5 h 18.789 l -0.004,-1.25 z m 12.959,-290.26 -0.89865,-47.99 -1.0112,-8.5 -1.0112,-8.5 -2.251,-11 -1.5186,-2 -3.3453,-10.259 -10.114,-19.741 -0.75393,-0.80135 -0.75392,-0.80135 -3.0583,4.6676 2.9424,12.935 3.6809,13 1.1114,6.5 1.1114,6.5 3.219,13.639 -3.4056,7.1417 -1.1656,12.482 0.71164,3.7934 0.71165,3.7934 6.9596,-12.35 h 1.6793 l 0.71517,13.353 0.71516,13.353 0.27456,50.795 5.7927,8.5407 0.28067,-0.28068 0.28067,-0.28067 z"
       fill="#ced3e3"
       id="path8" />
    <path
       d="m 103.6282,850.8782 -1.9316,-1.1209 -5.5232,-5.6502 -7.3954,-15.547 -5.7181,-17.592 v -13.742 l 4.1876,-9.6658 -2.4792,-13.345 3.6218,-19.241 0.83488,-0.51599 0.83488,-0.51598 v -268.26 l -2.0115,-11.12 -4.0595,-25 -2.823,-15 -0.05299,-3.1554 -0.05299,-3.1554 6.5,-8.0268 1.75,-2.2846 1.75,-2.2846 v -9.3639 l -13.5,-12.62 -1,-22.786 1,-0.81382 1,-0.81381 8.2458,-2.2042 1.342,-8.3921 2.0964,-2.526 0.53182,-7.7866 0.53182,-7.7866 -3.2049,-12.494 -1.0403,-16.253 -1.0403,-16.253 -1.053,-6.5 h -4.4226 l -6.6323,1.9021 -10.354,6.9677 -10,9.0988 -1.0117,0.0314 -4.6735,-10.187 -1.487,-4.6564 -1.487,-4.6564 -2.3408,-4.8028 0.0066,-13.197 6.5998,-9.4477 2.1092,-1.3036 -1.2624,-16.249 2.5467,-4.1684 7.7922,-11.692 3.4701,-13.139 2.0382,-5.1055 6.9144,-4.7378 0.61494,-33.578 0.61493,-33.578 0.99477,-24.5 0.99478,-24.5 1.137,-12.5 1.137,-12.5 1.4814,-2 2.6796,-10 4.7209,-10 6.2084,-12 2.7014,-3.1575 v -1.3733 l 7.50001,-11.432 2.7569,-3.3183 6.812,4.0192 8.7039,12.262 10.903,21 6.1364,18 1.1113,14.874 1.1113,14.874 1.1616,1.8794 0.80571,53.525 0.80571,53.525 4.692,3.2631 4.1538,4.1225 1.1991,6.0951 1.19909,6.0951 5.7238,11.816 3.35609,2.7853 1.4341,2.7732 1.43411,2.7732 v 5.3673 l -1.1464,3.8264 -1.1464,3.8264 4.63179,6.8412 4.6318,6.8413 0.61934,3.0967 0.61933,3.0967 -1.1422,5.3517 -1.1422,5.3517 -5.0229,13 -3.377,7.3057 -5.0297,-2.601 -3.9953,-4.4715 -10.566,-7.8454 -8.185,-2.8878 h -4.4282 l -1.1095,6.75 -1.1095,6.75 -0.59961,11.5 -0.59962,11.5 -3.1168,18.917 0.57736,4.2123 0.57736,4.2123 1.5733,6.9172 1.5733,6.9172 9.4134,2.9124 0.6671,8.9118 -1.3397,16.416 -9.7268,7.4178 -4.5307,8.5405 3.6086,7.6252 7.8454,10.216 -1.5266,11.392 -1.5266,11.392 -1.0518,4 -1.05181,4 -1.7863,8 -1.0952,21.5 -1.0952,21.5 0.34075,122.5 0.34074,122.5 4.4282,15.753 v 7.5025 l -1.57281,3.7642 -1.5728,3.7642 2.6949,6.005 2.6949,6.005 -0.94664,14.206 -2.7313,8.5 -2.7314,8.5 -5.8829,12.556 -9.5842,9.9435 -6.8677,-0.0608 -1.9316,-1.1209 z m 6.2316,-394.02 1.2,-1.2 v -4.4364 l -0.60699,-1.5818 -0.60699,-1.5818 h -4.572 l -0.60699,1.5818 -0.60699,1.5818 v 5.5031 l 0.66667,0.66666 0.66666,0.66667 h 3.2667 z m 0.68848,-28.8 h 8.3249 l -5.7593,-13.5 -0.0542,-7.75 -6.25,1.25 h -3.75 l -0.0236,3.5 -3.9528,16 -0.01181,0.85699 -0.01172,0.85699 3.1636,-1.214 z m 6.0245,-58.75 -0.72361,-8.75 -1.5292,-3 -1.1226,-9.5 -1.1226,-9.5 -0.42096,-8.7529 4.9059,-3.9784 v -34.269 l 1.714,-3.5 h -19.373 l 0.79376,3.25 0.79376,3.25 0.0357,15 0.0357,15 1.9643,2.9015 1.9643,2.9015 -0.0448,8.5985 -0.0448,8.5985 -1.2341,6 -1.2341,6 -2.6907,9 -0.5709,4.75 -0.5709,4.75 h 19.198 l -0.72361,-8.75 z m 14.488,-235.84 -1.0178,-51.907 -2.0656,-12 -2.0138,-8 -4.1686,-11 -11.937,-24.742 -1.8927,2.8708 -1.8927,2.8708 -0.014,2.6895 3.8277,13.31 5.0185,22 2.2849,14.206 -3.131,12.083 0.0703,6.3557 0.0703,6.3557 1.438,3.6493 5.9214,-12.145 2.2921,-0.005 0.66508,14.25 0.66509,14.25 0.18887,24.5 0.18888,24.5 6,8.2791 0.51877,-0.46453 -1.0178,-51.907 z m -13.147,16.263 0.95434,-7.6869 -1.0526,-4.0252 -2.3402,1.9422 -5.7105,11.948 3.295,3.295 v 2.4571 l 2.4131,2.4131 1.4865,-2.6563 z m -11.903,-49.87 0.0492,-1.6999 -6.5,-9.6003 -0.57143,21.871 0.66104,1.5643 0.66104,1.5643 5.6509,-12 0.0492,-1.6999 z"
       fill="#cccdd6"
       id="path10" />
    <path
       d="m 104.5282,851.1582 -2.0315,-0.87013 -7.0586,-7.8131 -4.2065,-8.913 -3.986,-9 -3.4848,-12 -0.86178,-13.414 4.3252,-12.182 -2.4195,-13.539 3.3959,-16.76 1.8592,-3.4739 v -268.4 l -1.0291,-6.1153 -1.0291,-6.1153 -4.1569,-24 -2.7056,-14 -0.03969,-3.0861 -0.03969,-3.0861 10,-12.46 v -9.4767 l -6.5,-6.957 -7,-5.3718 v -24.345 l 9.1538,-2.6769 1.2137,-4.7702 1.2137,-4.7702 2.1125,-8 -1.0628,-16.026 -2.0088,-5.2837 -1.0657,-16.345 -1.0657,-16.345 -1.0813,-6.5 h -6.5167 l -10.004,4.9852 -14.274,12.015 h -1.9685 l -5.1238,-11.192 -1.1865,-4.154 -1.1865,-4.154 -0.93929,-1.2403 -0.93929,-1.2403 -0.9339,-12.519 9.3438,-14 -0.64001,-7.5288 -0.64001,-7.5288 4.9468,-6.9424 5.8017,-10 4.6533,-16.588 7.3836,-5.3075 0.67616,-30.052 0.67616,-30.052 1.9558,-57 2.1696,-22 5.0045,-15.559 8.6112,-17.441 6.7498,-11 6.93809,-10.5 2.032,0.01318 5.235,3.4868 5.4028,6.4525 9.5334,16.567 7.1038,15.98 4.0377,12 1.1318,17.5 1.1317,17.5 0.92582,9 1.6014,94.736 4.8967,3.6226 3.5309,2.6418 3.8723,16.222 4.4292,7.7782 4.8871,5.3386 0.68629,3.3307 0.6863,3.3307 -0.8494,5.6451 -0.84943,5.6451 6.60661,9.7098 1.1136,1 2.6177,6.4724 -0.68778,4.5865 -0.68779,4.5865 -4.8919,13.355 -4.3056,9.5 h -2.1728 l -12.579,-10.971 -8.5679,-5.0211 -9.0744,-1.2438 -1.1372,1.84 -1.1212,16.948 -1.12119,16.948 -2.1904,12 -0.86106,13.579 4.4614,16.888 9.2058,2.5894 0.6671,8.9437 -1.3223,16.207 -9.7878,7.4643 -4.057,6.5644 0.0189,2.382 0.0189,2.382 5.4622,8.285 5.4853,6.8846 -2.0516,16.362 -1.8648,8.4684 -1.5161,7.2698 -1.5161,7.2698 -2.0084,29.914 -0.0437,125.93 -0.0437,125.93 2.0295,9.2988 2.0295,9.2989 v 12.295 l -2.1332,6.1193 4.30909,8.6791 1.057,12 -2.0777,7 -2.0843,7.2615 -2.0843,7.2615 -6.0981,12.907 -8.3885,9.1625 -7,0.87419 -2.03149,-0.87013 z m 5.5315,-18.459 v -0.36248 l 5.2557,-24.775 0.48156,-3.25 0.48155,-3.25 h -15.219 l 0.006,1.5 3.0741,18 4.4016,12.5 h 1.5179 v -0.36248 z m 0.39301,-376.22 0.60699,-1.5818 v -5.4364 l -2.4,-2.4 h -2.5486 l -3.2461,6.2772 2.1518,4.7228 h 4.8289 z m 1.6874,-28.418 h 6.8304 l -5.9109,-13.89 v -7.1096 h -3.75 l -5.9144,1.1829 -1.782,8.1586 -1.782,8.1586 -1.0659,4.8089 6.5443,-1.3089 z m 4.8466,-54.25 -0.073,-5.25 -0.85419,-5 -0.8542,-5 -3.1315,-19 -0.014,-10.27 5.0703,-3.3222 -0.28532,-16.204 -0.28517,-16.204 1.7168,-5.5 -18.717,-9.9e-4 0.69922,36.28 3.7933,6.2208 -0.0628,18 -1.4015,6 -1.4015,6 -0.96162,4 -0.96162,4 -0.65449,4.6931 -0.65449,4.693 9.6055,0.75339 9.5,0.3605 z m -37.088,-104.3 2.4849,-2.3041 0.90731,-11.645 -7.4692,7 -2.7615,6.4358 v 4.199 l 4.3537,-1.3818 z m 51.217,-137.06 -1.0055,-52.886 -3.8923,-18.052 -2.9885,-7.4741 -2.9885,-7.4741 -4.7817,-10 -5.6163,-10.863 -1.869,2.4315 -1.869,2.4315 -0.0444,5.1821 3.01,9.8179 5.9042,26 2.1725,12.493 -2.1598,7.2523 -2.1598,7.2523 1.2453,11.915 1.6667,1.6667 6.7723,-12.579 1.6615,9 1.0997,68.478 6.0336,9.109 0.40724,-0.40724 0.40724,-0.40723 -1.0055,-52.886 z m -25.959,21.164 0.90371,-0.95 v -4.893 l -7.5,-11.207 -0.31548,3.8358 -0.31548,3.8358 2.0697,16.92 0.67138,1.0863 0.67138,1.0863 2.9111,-8.7645 z m 13.643,-8.55 0.47829,-9.5 -4.0039,4 -5.2136,9.9841 v 2.264 l 5.3944,9.6516 2.8665,-6.8997 z m -15.448,-36.35 2.7089,-5.3499 v -6.5322 l -7.5,-10.247 -0.34221,3.4897 -0.34221,3.4897 0.68844,10.25 0.68844,10.25 h 1.3897 z"
       fill="#bdc0cd"
       id="path12" />
    <path
       d="m 105.0582,851.3982 -1.5,-0.59166 -5.7267,-5.2505 -4.508,-7.04 -5.4496,-12.96 -4.767,-16 -0.02439,-5.2045 -0.02438,-5.2045 4.5281,-12.591 -2.6155,-10 1.2118,-11.721 3.8498,-12.279 0.0129,-134.14 0.0129,-134.14 -6.1851,-35.71 -2.709,-15 -0.05299,-2.5861 -0.05299,-2.5861 10,-12.46 v -9.9803 l -10.312,-9.8872 h -1.5938 l -2.0829,-7.5 -0.0056,-9.1696 -0.0056,-9.1696 9.6751,-3.2136 1.2026,-4.7236 1.2026,-4.7236 1.8719,-7 0.013,-11 -1.4541,-6.8632 -1.4541,-6.8632 -1.0414,-15.137 -1.0414,-15.137 -1.0649,-6.5 h -6.5167 l -10.004,4.9852 -14.274,12.015 h -2.0215 l -4.2852,-9.5 -5.8084,-17.834 v -7.2938 l 9.2484,-13.79 -1.2647,-13.608 3.0237,-6.4748 5.9351,-8 2.9597,-8 3.5979,-12.78 7.2786,-4.6049 1.1409,-36.615 1.0304,-41 1.0304,-41 1.0869,-10 1.0869,-10 4.0516,-14 10.752,-22 12.25801,-19 0.31696,-0.34131 0.31698,-0.34131 3.9977,1.2688 6.40261,6.4138 6.9461,10.71 9.71119,19.398 5.94229,17.892 1.07911,17 1.0791,17 0.5111,5.5 0.51111,5.5 0.73515,46.339 0.73517,46.339 4.10859,3.3221 4.44561,3 3.8491,16.222 4.4292,7.7782 5.1675,5.6409 0.0624,18.359 7.1376,11 1.2602,2.3902 1.2602,2.3902 -0.63903,4.8172 -0.63901,4.8172 -5.0125,13.585 -4.402,9.5 -2.0278,-0.0664 -13.905,-11.956 -9.9878,-4.9771 h -7.395 l -1.28211,18.5 -1.06499,13 -1.065,13 -1.8002,3.3685 v 15.256 l 1.429,4.6879 1.429,4.6879 0.56976,2.6692 0.56976,2.6692 10.00201,3.3223 -0.0876,7.6696 -0.0876,7.6696 -0.6624,4.6319 -0.66238,4.6319 -11.202,9.1037 -2.5263,6.0991 0.63938,3.2667 0.63938,3.2667 9.9176,11.925 -1.2004,11.075 -2.9706,15 -1.3605,6.5 -1.3605,6.5 -0.99369,15 -0.99368,15 -0.1775,126 -0.17749,126 4.2668,18.906 -0.012,11.094 -1.9881,7.1569 2.4996,6.1517 2.49959,6.1517 v 9.9698 l -1.4049,4.2849 -1.4049,4.285 -3.35889,11.888 -3.0288,6.212 -3.02891,6.212 -8.2736,9.2851 -7,0.83669 -1.5,-0.59166 z m 7.1019,-27.911 2.1312,-9.9313 2.5233,-12.5 h -16.491 l 3.737,20.433 1.2355,4.0666 1.9502,4.3473 1.9502,4.3473 0.416,-0.41601 0.41601,-0.41601 z m 1.9639,-343.47 1.9343,-1.0352 v -3.581 l -4.8216,-4.5296 -1.7673,0.34051 -1.7673,0.3405 -1.3522,5.0562 1.6439,4.4438 h 4.1959 z m -3.081,-26.75 -0.0153,-3.7148 -0.85451,-1.3484 -0.85451,-1.3484 -3.6916,0.71094 -2.8763,5.1244 1.3089,5.215 3.4986,0.7967 3.5,-1.7207 -0.0153,-3.7148 z m 7.7797,-25.702 0.26439,-0.20853 -5.3068,-11.592 -0.49104,-4.3565 -0.49103,-4.3565 -5.2399,0.0273 -4.1553,1.1158 -1.7865,8.1784 -1.7865,8.1784 -0.97835,4.46 19.707,-1.2384 0.26439,-0.20853 z m 2.2356,-35.587 v -0.63575 l 9.1817,-5.79 -8.6817,-1.3518 -18,-0.31702 -11,-1.7412 -6.5,-1.317 v 1.1787 l 3.5018,5.7583 6.8802,5.7901 19.118,1 5.5,-1.9385 z m -4.3356,-21.676 -0.63511,-8.75 -2.9771,-14 -1.323,-17.286 3.0133,-2.8569 3.0133,-2.8569 -1.8389,-21 0.6139,-5.951 0.61391,-5.951 0.96278,-1.799 0.96279,-1.799 h -19.607 l 0.34812,17.75 0.34812,17.75 3.8402,8.1314 -0.0208,7.9343 -0.0208,7.9343 -3.0731,13 -2.8058,14 -0.03969,1.6925 -0.03978,1.6925 8.50001,0.76559 10.799,0.34941 z m -37.77,-99.814 3.0475,-2.5643 1.0237,-3.6857 1.0237,-3.6857 0.0056,-2.25 0.0056,-2.25 h -1.8465 l -5.9145,4.9768 -1.4945,3.2616 -1.4945,3.2616 -1.288,5.5 h 3.8847 z m 52.201,-142.19 -1.0262,-50.748 -4.145,-17 -5.1371,-13 -10.095,-20.573 -0.6864,-0.42421 -0.68639,-0.42421 -2.1154,2.8613 -2.1154,2.8613 6.0141,23.699 3.1023,15 2.7175,13 -4.1322,12.645 0.37345,7.3954 0.37344,7.3954 2.1436,2.1436 6.8192,-12.579 1.498,15 0.75181,31.58 0.7518,31.58 6,7.8398 0.31046,-3.7517 0.31047,-3.7517 z m -27.408,29.909 2.1863,-4.8017 0.62174,-2.4772 0.62173,-2.4772 -8.2815,-12.402 h -1.8345 l 0.0152,7.5 1.9832,13 1.0924,6.5 1.4094,-0.0406 2.1863,-4.8017 z m 13.956,-0.84397 1.5402,-3.6863 0.55566,-9.3137 0.55567,-9.3137 h -2.1869 l -7.0946,10.688 -0.61008,3.0504 -0.61007,3.0504 5.3979,9.2108 h 0.91201 z m -14.305,-47.751 2.6623,-5.437 -0.0354,-3.813 -0.0354,-3.813 -1.2146,-2.042 -1.2146,-2.042 -4.8181,-6.3375 -1.6819,1.0395 v 11.278 l 2.4007,16.604 h 1.2748 z"
       fill="#b9b9ca"
       id="path14" />
    <path
       d="m 103.2882,850.1082 -3.2679,-2.044 -6.0512,-8.5849 -6.962,-15.923 -3.9509,-15.333 v -9.0758 l 4.5147,-12.591 -2.3538,-9 -0.08048,-3.1218 -0.08048,-3.1218 5,-19.711 -0.01154,-134.02 -0.01154,-134.02 -5.909,-34 -2.9982,-16 -0.03489,-2.7471 -0.03489,-2.7471 6.6466,-7.5058 1.6767,-2.4725 1.6767,-2.4725 v -9.91 l -13.482,-12.523 -0.36334,-11.446 -0.36334,-11.446 9.7086,-3.2282 3.7404,-12.502 0.98359,-13 -1.6436,-8.7467 -1.6436,-8.7467 -0.98264,-14.253 -0.98264,-14.253 -1.0621,-6.5 -6.4094,0.02 -10.157,4.7296 -14.234,12.251 h -2.0152 l -4.1616,-9.408 -2.966,-8.8529 -2.966,-8.8534 v -7.1501 l 4.3696,-7.2361 4.6759,-5.7076 -0.27278,-8.8124 -0.27278,-8.8124 4.5017,-5.6677 5.6755,-9.5113 4.8228,-17.271 7.1883,-4.5457 1.3117,-18.479 0.02167,-20.096 0.02167,-20.096 1.9329,-57.819 1.0776,-11.09 1.0776,-11.09 4.0859,-14 9.2032,-19 9.2075,-15 4.872,-7.4752 2.9019,-0.02476 11.15,11.5 13.157,26 6.1809,18 2.1922,36 1.9182,24.538 v 71.712 l 0.64174,3.2087 0.64175,3.2087 6.6623,4.3326 1.9747,5 3.0599,12.213 5.162,8.787 5.0626,7 -0.50766,7.7461 -0.50767,7.7461 8.7902,13.383 0.59152,3.153 0.59151,3.153 -2.303,8.8185 -5.031,13 -1.6069,3.75 -1.6069,3.75 -2.1151,-0.0664 -13.905,-11.956 -9.9878,-4.9771 h -7.395 l -1.2821,18.5 -1.065,13 -1.065,13 -1.8002,3.3685 v 15.775 l 2.8333,8.8563 1.1643,5.3385 10.002,3.3223 -0.0989,7.1696 -0.0989,7.1696 -0.65111,5.1336 -0.6511,5.1336 -10.588,8.3485 -3.1768,6.6618 0.65712,3.3612 0.65713,3.3612 9.9176,11.925 -1.2004,11.075 -2.9706,15 -2.7105,13 -2.2385,30 -0.0683,126 -0.0684,126 4.2892,18.906 -0.012,11.094 -1.0278,3.7008 -1.0278,3.7008 5.0668,12.038 -0.0239,4.2801 -0.0238,4.2801 -1.7831,7 -4.0875,14.18 -7.2281,14.228 -7.3536,8.1834 -7,1.0044 -3.2679,-2.044 z m 9.5352,-29.052 3.0148,-13.5 1.168,-6.5 h -17.041 l 0.62395,3.75 0.62395,3.75 4.1881,18 3.8218,8.6662 0.58534,-0.66622 z m -1.7672,-36.428 v -10.428 l 11.151,-1.3932 -5.9618,-6.2507 0.55374,-81.127 0.55373,-81.127 -14.796,0.90615 -1.25,0.39263 -1.25,0.39262 v 155.7 l -3.1103,10.473 6.1103,6.9592 v 15.93 h 8 z m 4.4604,-305.18 1.6032,-1.6032 -3.6756,-6.2936 h -6.8879 l -0.32046,3.3452 -0.32046,3.3452 0.53908,1.4048 0.53907,1.4048 h 6.9199 z m -5.5217,-21.823 1.1836,-1.4261 -0.62222,-8.6478 -5.4704,-0.62999 -3.3409,7.006 3.3574,5.124 h 3.709 z m 12.57,-14.75 0.66583,-0.66583 0.7973,-3.3292 0.79731,-3.3292 1.3574,-3.2731 -21.975,-1.4355 -10.185,1.4008 -1.9675,3.6764 v 8.3495 l 29.843,-0.72788 z m -3.7447,-15.31 0.26439,-0.20992 -5.3068,-11.592 -0.99318,-8.8115 -9.2288,0.59851 -3.4004,14 -1.2844,7.5534 19.685,-1.329 z m 3.3734,-36.135 5.3622,-3.6204 1.8234,-1.7308 1.8234,-1.7308 -33.647,-1.3045 -12,-2.7111 -0.58127,0.46597 4.1858,7.0944 7.3955,5.6576 14,1.1766 6.2756,0.32339 z m -5.4459,-21.63 -0.60975,-9.25 -1.5113,-7.174 -1.5113,-7.174 -0.64407,-7.826 -0.64408,-7.826 6.4027,-5.6705 -0.65778,-2.6208 -0.65777,-2.6208 0.0127,-13.751 0.0127,-13.751 1.0229,-1.9113 1.0229,-1.9113 -1.263,-1.263 h -18.243 l 0.78945,38.5 1.6436,1.8535 1.6436,1.8536 0.34311,8.7253 0.34311,8.7253 -5.1146,20.842 -0.6735,5.75 -0.6735,5.75 h 19.577 l -0.60976,-9.25 z m -38.766,-98.212 2.8264,-1.4616 3.2479,-8.1173 v -5.9595 h -2.7673 l -7.0996,7.8584 -2.1219,7.6416 -0.0056,0.75 -0.0056,0.75 h 3.0993 z m 53.162,-146.35 -1.0061,-48.693 -2.3723,-9.0002 -2.3723,-9.0002 -5.5954,-14 -8.914,-17 -1.4414,-1.5137 -4.4038,5.9564 4.0914,18.368 1.052,1.7022 2.5314,12.244 2.5314,12.244 1.0087,9.5643 -1.7833,3.7178 -1.7833,3.7178 0.037,8.3167 0.037,8.3167 1.5643,1.5643 1.5643,1.5643 5.3234,-10.505 2.1184,2.1184 0.8538,70.625 2.0815,3.8961 2.0815,3.8961 3.2078,3.2218 0.59396,-12.627 -1.0061,-48.693 z m -28.157,34.557 1.9414,-4.25 3.0133,-7.4712 -2.8859,-2.8859 v -1.3159 l -6.339,-8.827 h -1.9663 l 1.1892,23.651 2.4372,5.3491 h 0.66872 z m 16.084,-6.3067 0.97325,-5.9433 -0.0422,-15 -5.8941,7 -4.0521,8.4782 v 5.1657 l 5.2782,9.0065 2.7637,-2.7637 0.97325,-5.9433 z m -14.993,-44.488 2.9776,-5.8986 -0.005,-3.2785 -0.005,-3.2785 -7.4899,-9.8493 -2.819,-0.92365 1.2098,28.287 1.2474,2.0183 0.95328,-0.58916 0.95328,-0.58915 z"
       fill="#aeafba"
       id="path16" />
    <path
       d="m 104.5082,850.6482 -3.0496,-1.3283 -2.7482,-3.2661 -2.7482,-3.2661 -3.6995,-7.2516 -7.4911,-18.981 -0.92665,-20 4.1297,-10.787 -2.3366,-4.2132 0.19566,-15 2.112,-6.3803 2.112,-6.3803 -0.16877,-272.24 -1.6003,-11 -5.3969,-28 -1.9978,-13.46 9.2141,-11.728 1.8101,-6.3116 -1.8145,-6.5 -12.383,-11.168 -0.45094,-10.945 -0.45094,-10.945 2.7387,-2.1823 7.3054,-2.3515 4.1946,-15.545 v -10.7 l -1.8811,-12.164 -2.0239,-15 -0.65379,-11.204 -0.65379,-11.204 -2.608,-3.5666 -11.585,3.938 -10.094,7.8157 -7.3174,6.949 -2.3848,-0.79493 -6.6197,-16.933 -3.4927,-13.111 1.2557,-5.0032 8.7388,-13.305 -1.7012,-12.439 0.5587,-1.7603 0.5587,-1.7603 8.7374,-13.03 5.1663,-16.414 v -2.2925 l 8.6722,-6.1128 1.2835,-95.772 1.0649,-16 1.0649,-16 3.9145,-20.291 5.8593,-13.709 11.135,-20 7.506,-10.876 2.361,-0.74427 8.1529,7.3657 9.751,16.255 7.975,17 5.0905,16 1.2755,15.75 1.4299,28.125 1.4299,28.125 0.0171,32.26 0.0171,32.26 7.9253,5.481 2.0593,6 3.1001,12 6.3379,10.5 h 1.3348 l 2.5247,6.0952 -1.1805,14.081 9.3984,14.144 -0.32374,10.179 -7.3061,19 -2.0658,5.5 h -2.0328 l -11.272,-9.6345 -7,-5.0367 -9.0669,-3.3288 h -3.4959 l -0.44345,1.25 -0.44344,1.25 -2.9926,40 -2.1416,7 -0.037,7.5848 -0.037,7.5848 4.2431,13.969 10.203,4.3105 -0.69136,11.275 -0.69135,11.275 -13.405,12.239 v 9.9236 l 10.26,13.29 -0.49416,4.7738 -0.49417,4.7738 -1.4064,7 -1.4064,7 -1.9058,10.5 -1.9058,10.5 -2.147,36.853 0.036,237.15 4.928,21 0.036,10.768 -2.2082,7.3704 5.2082,13.019 v 7.8473 l -5.7249,19.996 -7.1376,15 -5.6375,6.1414 -4.945,3.3586 -3.055,-0.0782 -3.0496,-1.3283 z m 10.52,-37.957 2.0079,-10.863 -0.54795,-0.8866 -0.54794,-0.88659 h -14.764 l -0.56709,0.91758 -0.5671,0.91758 1.0255,7.3324 1.0255,7.3324 2.1031,6.5 2.1031,6.5 1.5583,3.3867 1.5583,3.3867 3.6044,-12.773 z m -3.7538,-27.379 0.28383,-10.742 10.698,-1.6992 -5.6979,-5.9476 0.7262,-163.18 -12.52,1.3086 h -4.7066 v 155.37 l -3.2076,11.432 5.2076,7.6637 v 15.202 l 0.66667,0.66666 0.66666,0.66667 h 7.599 z m 3.5687,-305.04 1.7849,-1.7849 1.3476,-8.4651 1.3476,-8.4651 1.4611,-3 0.64708,-5.7623 0.64707,-5.7623 -21.52,0.85759 -5.7333,0.167 1.2433,4.5 2.9766,21 1.1393,5.3496 8.3741,2.8982 4.5,0.25216 z m 5.9246,-36.807 2.9595,-0.5919 1.273,-4.9672 1.2731,-4.9672 -1.3818,-1.3818 h -31.667 l -0.88887,1 -1.2953,11.5 h 26.767 z m -5.1988,-15.408 h 4.2173 l -4.7138,-9.3109 -2.4143,-11.689 h -9.4395 l -1.4922,6.75 -1.4922,6.75 -0.70197,4.4044 -0.70197,4.4044 12.521,-1.3087 z m 7.1761,-36.61 6.8132,-4.61 2.9286,-2.78 -20.929,-0.0656 -26.97,-3.7976 -0.54391,0.54392 5.8772,8.1133 7.4051,5.6481 16.232,1.2483 2.3736,0.30966 6.8132,-4.61 z m -5.4362,-18.14 -0.414,-5.75 -2.927,-19 -2.2173,-17.843 5.7813,-4.6098 0.0152,-17.274 0.0152,-17.274 1.7293,-4.5 -19.733,-1.4e-4 0.20016,18.75 0.20016,18.75 4.0997,7.9229 -0.0236,14.077 -2.484,9.9806 -2.484,9.9806 -0.64232,6.2694 -0.6423,6.2694 h 19.941 z m -54.569,-95.75 4.3229,-9 5.8984,-10 1.353,-8.5 h -2.1587 l -12.262,14.5 -3.1139,6 -2.2209,1.4345 0.0895,15.565 1.622,4 2.1468,-5 4.3229,-9 z m 17.074,-6.708 1.5616,-1.292 3.6391,-8 0.02196,-2.691 0.02196,-2.691 -1.6413,-1.0144 -6.4863,3.9446 -6.0305,12.887 1.1851,1.9176 6.1669,-1.7686 1.5616,-1.292 z m 51.949,-87.664 0.46857,-14.628 -1.0151,-46.5 -1.0151,-46.5 -2.5091,-9.0894 -2.5091,-9.0894 -7.7177,-17.901 -7.629,-13.642 -1.792,1.8611 -1.792,1.8611 -10.728,21 -3.7472,13 -2.5581,8.0968 -1.0558,11.952 -1.0558,11.952 -2.0224,42 -0.58516,17 -0.58516,17 1.0053,13.383 1.0053,13.383 0.87909,0.87908 0.87909,0.87909 6.1179,-1.2236 2.1631,-7.3014 4.2591,-24.811 5.5611,-12.189 0.70423,-2.25 0.70424,-2.25 h 1.8652 v 1.6263 l 7.8427,13.003 0.65734,22.824 -9.5944,2.0677 -4.1551,6.5625 0.82758,0.82759 7.9219,-2.6712 11.158,-1.3414 5.6963,8.2197 1.8817,-3.3624 z"
       fill="#9998a4"
       id="path18" />
    <path
       d="m 105.5182,850.9882 -3.0376,-0.873 -2.6286,-2.7764 -2.6286,-2.7765 -5.3125,-10 -7.2749,-18 -0.04011,-11.5 -0.04011,-11.5 3.4206,-6.6482 -3.0725,-11.993 1.322,-8.3585 1.9149,-6.3553 1.9149,-6.3553 -0.03272,-135.64 -0.03272,-135.64 -1.8546,-13 -5.1896,-28 -2.0515,-12.53 8.1793,-9.7693 3.0952,-7.4079 -1.3051,-6.2928 -12.927,-12.214 -0.19052,-11.247 -0.19052,-11.247 8.9512,-3.5325 3.8798,-10.76 0.169,-20 -3.4164,-27 -1.2403,-18 -0.97806,-3.5 h -5.0793 l -12.286,5.959 -13.615,12.041 h -1.6734 l -7.9576,-20.5 -0.70744,-3 -0.70744,-3 -0.44886,-3.5 -0.44886,-3.5 4.5588,-7.3206 5.3308,-8.6794 -1.7716,-10.888 1.2499,-4.9801 7.5563,-9.9836 4.8426,-14.149 2.322,-8 7.6433,-5.2484 1.326,-93.752 1.9946,-31 3.119,-19.949 6.0027,-15.051 9.5977,-18 5.2349,-8 5.0478,-7.3138 4.05,1.0591 7.9835,9.0698 11.971,21.746 4.7498,11.439 4.209,15 2.161,28 1.7194,105 1.2605,3 7.4212,5.14 3.7827,14.86 4.4943,9 6.4296,8 -0.5938,7.8957 -0.59379,7.8957 8.8055,13.245 0.68061,2.7118 0.68062,2.7118 -4.3911,14.54 -6.0984,15.5 -2.2174,-0.0566 -9.5837,-8.9049 -8.4163,-5.6958 -8.5405,-3.3426 h -3.8415 l -0.50382,0.81521 -0.50383,0.81521 -2.2241,30.87 -3.8587,24 0.87932,6 0.87933,6 3.3302,10.152 10.145,4.2861 -0.69938,11.281 -0.69937,11.281 -13.363,12.239 v 10.031 l 9.7721,12.584 -0.57065,8.0863 -0.57066,8.0863 -0.95465,2.5109 -0.95466,2.5109 -5.6713,30.952 -0.0502,273 3.6702,10 1.1123,14.419 -2.4243,8.6587 5.1417,13.66 v 5.5836 l -2.5184,9.4621 -2.5184,9.4621 -2.5269,6.2187 -2.5269,6.2187 -4.6913,7.3167 -3.359,3.1397 -3.359,3.1397 -4,1.0195 -3.0376,-0.873 z m 5.3809,-18.369 1.2451,-3.4432 1.9029,-9.3068 1.9029,-9.3068 2.058,-8 0.0238,-1.25 0.0239,-1.25 h -18 v 4.1169 l 2.128,14.383 6.1457,17.5 h 1.3245 z m -1.0933,-36.543 2.25,-0.0136 v -21 h 3.0315 l 7.9074,-2.4679 -6.2864,-6.4859 0.50738,-162.32 -16.66,1.4484 -0.98017,0.9706 -0.0099,79.177 -0.0099,79.177 -3.5426,7.8461 4.9556,5.1726 0.62598,8.4906 0.62597,8.4906 0.42965,1.3634 0.42964,1.3635 4.4757,-1.1996 2.25,-0.0137 z m 5.4057,-315.76 1.4657,-1.75 4.2714,-20 1.3377,-11.5 h -27.432 l 0.888,8.5 3.5647,22 1.7472,1.8985 6.5015,2.3629 6.19,0.23862 z m 8.7104,-38 0.93649,-1.75 1.4245,-9.5 -31.727,0.0306 -2.2359,1.4694 -1.9605,11.5 h 32.626 l 0.93649,-1.75 z m -11.636,-13.887 7.5321,-0.6367 -2.5538,-4.9224 -2.5538,-4.9224 -0.45121,-5.4409 -0.4512,-5.4409 h -10.492 l -1.0902,4.25 -1.0902,4.25 -2.0795,10.598 v 2.9016 h 5.6982 z m 11.246,-37.347 7.3859,-4.984 1.067,-1.7265 -25.429,-1.2997 -21.882,-2.9569 -0.6139,0.6139 5.9162,8.8371 7.2751,4.8915 8.3049,1.3582 10.59,0.25033 z m -6.0494,-17.766 -0.59061,-5.75 -2.9314,-21 -2.0862,-15.807 5.9043,-4.6208 -0.49523,-16.327 -0.49524,-16.327 3.3188,-6.4179 h -20.581 l 0.16709,18.821 0.1671,18.821 2.0979,3.9143 2.0979,3.9143 -0.0239,6.5148 -0.0238,6.5148 -1.978,8 -1.9872,9.3601 -1.9872,9.3601 v 6.7798 h 20.017 z m -58.706,-86.517 2.2206,-5.2329 2.0929,-5 6.0678,-10 6.1051,-12.539 -0.62178,-2.4774 -0.62178,-2.4774 -3.4634,2.2477 -10.292,12.246 -7.0805,12 2.2263,16.5 1.1459,-0.0342 2.2206,-5.2329 z m 19.396,-14.461 2.9255,-1.7282 3.9575,-8.1751 v -7.3686 h -2.7303 l -5.4019,4.2491 -4.7283,7.49 -1.3621,7.2608 h 4.414 z m 36.6,-8.5218 -0.49726,-1.25 -3.5983,-9 -3.2533,-5.4242 -3.2817,9.4242 -0.65437,3.75 -0.65436,3.75 h 12.437 z m -27.22,-48.741 0.63194,-1.991 -1.2471,-2.0179 h -2.882 v 2.8364 l 0.60699,1.5818 0.60699,1.5818 h 1.6512 z m 44.27,-32.501 0.397,-16.008 -2.0172,-92 -6,-20.483 -14.146,-29.288 -3.6408,4.7706 -5.6403,10 -5.5496,11.181 -6.0478,20.819 -1.0593,8.5 -1.0593,8.5 -0.94508,19.5 -0.94508,19.5 -0.60106,23.5 -0.60106,23.5 1.8549,24.666 1.7338,1.6452 7,-2.3114 4.5055,-21 1.8096,-12.572 2.035,-2.452 4.2936,-11.476 0.67815,0.0192 0.67815,0.0191 7.2278,12.462 0.74265,7 0.74264,7 0.2869,8.8123 -9.4378,3.1877 -2.693,3 -2.2161,5.2582 9.347,-2.909 10.521,-1.5174 6.4788,8.4734 0.93495,-1.6443 0.93496,-1.6443 0.397,-16.008 z"
       fill="#52a7c5"
       id="path20" />
    <path
       d="m 105.5182,850.9882 -3.0376,-0.873 -2.6286,-2.7764 -2.6286,-2.7765 -5.3125,-10 -7.2749,-18 -0.04011,-11.5 -0.04011,-11.5 3.4206,-6.6482 -3.0725,-11.993 1.322,-8.3585 1.9149,-6.3553 1.9149,-6.3553 -0.03272,-135.64 -0.03272,-135.64 -1.8546,-13 -5.1896,-28 -2.0515,-12.53 8.1793,-9.7693 3.0952,-7.4079 -1.3051,-6.2928 -12.927,-12.214 -0.19052,-11.247 -0.19052,-11.247 8.9512,-3.5325 3.8798,-10.76 0.169,-20 -3.4164,-27 -1.2403,-18 -0.97806,-3.5 h -5.0793 l -12.286,5.959 -13.615,12.041 h -1.6734 l -7.9576,-20.5 -0.70744,-3 -0.70744,-3 -0.44886,-3.5 -0.44886,-3.5 4.5588,-7.3206 5.3308,-8.6794 -1.7716,-10.888 1.2499,-4.9801 7.5563,-9.9836 4.8426,-14.149 2.322,-8 7.6433,-5.2484 1.326,-93.752 1.9946,-31 3.119,-19.949 6.0027,-15.051 9.5977,-18 5.2349,-8 5.0478,-7.3138 4.05,1.0591 7.9835,9.0698 11.971,21.746 4.7498,11.439 4.209,15 2.161,28 1.7194,105 1.2605,3 7.4212,5.14 3.7827,14.86 4.4943,9 6.4296,8 -0.5938,7.8957 -0.59379,7.8957 8.8055,13.245 0.68061,2.7118 0.68062,2.7118 -4.3911,14.54 -6.0984,15.5 -2.2174,-0.0566 -9.5837,-8.9049 -8.4163,-5.6958 -8.5405,-3.3426 h -3.8415 l -0.50382,0.81521 -0.50383,0.81521 -2.2241,30.87 -3.8587,24 0.87932,6 0.87933,6 3.3302,10.152 10.145,4.2861 -0.69938,11.281 -0.69937,11.281 -13.363,12.239 v 10.031 l 9.7721,12.584 -0.57065,8.0863 -0.57066,8.0863 -0.95465,2.5109 -0.95466,2.5109 -5.6713,30.952 -0.0502,273 3.6702,10 1.1123,14.419 -2.4243,8.6587 5.1417,13.66 v 5.5836 l -2.5184,9.4621 -2.5184,9.4621 -2.5269,6.2187 -2.5269,6.2187 -4.6913,7.3167 -3.359,3.1397 -3.359,3.1397 -4,1.0195 -3.0376,-0.873 z m 5.3809,-18.369 1.2451,-3.4432 1.9029,-9.3068 1.9029,-9.3068 2.058,-8 0.0238,-1.25 0.0239,-1.25 h -18 v 4.1169 l 2.128,14.383 6.1457,17.5 h 1.3245 z m -1.0933,-36.543 2.25,-0.0136 v -21 h 3.0315 l 7.9074,-2.4679 -6.2864,-6.4859 0.50738,-162.32 -16.66,1.4484 -0.98017,0.9706 -0.0099,79.177 -0.0099,79.177 -3.5426,7.8461 4.9556,5.1726 0.62598,8.4906 0.62597,8.4906 0.42965,1.3634 0.42964,1.3635 4.4757,-1.1996 2.25,-0.0137 z m 3.9491,-199.68 2.8009,-3.6687 0.2447,-17.581 0.24471,-17.581 0.25529,-35.285 0.2553,-35.285 -18,0.56969 0.34534,54 0.34534,54 1.8975,2 6.4118,2.3478 2.3982,0.1522 2.8009,-3.6687 z m 1.4566,-116.08 1.4657,-1.75 4.2714,-20 1.3377,-11.5 h -27.432 l 0.888,8.5 3.5647,22 1.7472,1.8985 6.5015,2.3629 6.19,0.23862 z m 8.7104,-38 0.93649,-1.75 1.4245,-9.5 -31.727,0.0306 -2.2359,1.4694 -1.9605,11.5 h 32.626 l 0.93649,-1.75 z m -11.636,-13.887 7.5321,-0.6367 -2.5538,-4.9224 -2.5538,-4.9224 -0.45121,-5.4409 -0.4512,-5.4409 h -10.492 l -1.0902,4.25 -1.0902,4.25 -2.0795,10.598 v 2.9016 h 5.6982 z m 11.246,-37.347 7.3859,-4.984 1.067,-1.7265 -25.429,-1.2997 -21.882,-2.9569 -0.6139,0.6139 5.9162,8.8371 7.2751,4.8915 8.3049,1.3582 10.59,0.25033 z m -6.0494,-17.766 -0.59061,-5.75 -2.9314,-21 -2.0862,-15.807 5.9043,-4.6208 -0.49523,-16.327 -0.49524,-16.327 3.3188,-6.4179 h -20.581 l 0.16709,18.821 0.1671,18.821 2.0979,3.9143 2.0979,3.9143 -0.0239,6.5148 -0.0238,6.5148 -1.978,8 -1.9872,9.3601 -1.9872,9.3601 v 6.7798 h 20.017 z m -58.706,-86.517 2.2206,-5.2329 2.0929,-5 6.0678,-10 6.1051,-12.539 -0.62178,-2.4774 -0.62178,-2.4774 -3.4634,2.2477 -10.292,12.246 -7.0805,12 2.2263,16.5 1.1459,-0.0342 2.2206,-5.2329 z m 19.396,-14.461 2.9255,-1.7282 3.9575,-8.1751 v -7.3686 h -2.7303 l -5.4019,4.2491 -4.7283,7.49 -1.3621,7.2608 h 4.414 z m 36.6,-8.5218 -0.49726,-1.25 -3.5983,-9 -3.2533,-5.4242 -3.2817,9.4242 -0.65437,3.75 -0.65436,3.75 h 12.437 z m -27.22,-48.741 0.63194,-1.991 -1.2471,-2.0179 h -2.882 v 2.8364 l 0.60699,1.5818 0.60699,1.5818 h 1.6512 z m 44.27,-32.501 0.397,-16.008 -2.0172,-92 -6,-20.483 -14.146,-29.288 -3.6408,4.7706 -5.6403,10 -5.5496,11.181 -6.0478,20.819 -1.0593,8.5 -1.0593,8.5 -0.94508,19.5 -0.94508,19.5 -0.60106,23.5 -0.60106,23.5 1.8549,24.666 1.7338,1.6452 7,-2.3114 4.5055,-21 1.8096,-12.572 2.035,-2.452 4.2936,-11.476 0.67815,0.0192 0.67815,0.0191 7.2278,12.462 0.74265,7 0.74264,7 0.2869,8.8123 -9.4378,3.1877 -2.693,3 -2.2161,5.2582 9.347,-2.909 10.521,-1.5174 6.4788,8.4734 0.93495,-1.6443 0.93496,-1.6443 0.397,-16.008 z"
       fill="#8c8d97"
       id="path22" />
    <path
       d="m 101.9582,848.7982 -3.3979,-2.2599 -10.078,-20.008 -3.9223,-11.972 v -20.065 l 3.7719,-8.3646 -2.6149,-6.3129 0.09306,-6.1369 0.09306,-6.1369 3.6189,-8.9839 0.28623,-137.75 0.28623,-137.75 -1.7677,-13.507 -7.4995,-40.325 10.058,-12.43 1.2456,-6.6395 -2.7918,-6.6054 -11.058,-10.073 -1.4665,-21.515 1.4109,-1.4116 8.334,-3.215 3.6868,-10.785 0.53811,-7.5842 0.53811,-7.5842 -2.1927,-12.832 -1.5775,-18 -1.5775,-18 -0.95354,-4.5 h -5.176 l -12.286,5.9502 -14,12.023 -1.2664,0.0262 -7.1496,-18.5 -3.3391,-12.47 2.6051,-6.5301 7.7396,-11.215 -0.99842,-6.1996 -0.99842,-6.1996 1.7983,-4.7299 7.378,-10.27 5.7041,-16.386 0.01338,-1.7706 0.01338,-1.7705 9,-6.3438 0.0072,-23.058 0.0072,-23.058 2.0386,-68.833 3.7554,-29.167 6.3274,-16 8.9887,-16.711 10.867,-16.845 5.8495,3.0249 6.8822,8.531 11.277,20.522 v 0.91897 l 2.4458,5.3471 2.4458,5.3471 4.0449,15.865 2.1792,28 0.85606,52 0.85605,52 1.272,3 7.9001,5.481 v 3.9249 l 1.8646,4.5941 3.2974,11.145 9.0055,11.855 -0.57097,8.0076 -0.57097,8.0076 7.9732,11.985 1.0746,3.2394 1.0746,3.2394 -1.6625,5.7606 -1.6625,5.7606 -7.3231,18.496 -1.5447,0.004 -8.4553,-7.6034 -8.2331,-6.3532 -9.4327,-4.0433 h -4.7162 l -0.54567,0.88293 -0.54568,0.88292 -1.0491,14.867 -1.0491,14.867 -2.0194,12.444 -2.0194,12.444 0.59297,4.0561 0.59296,4.0561 1.6972,6.9129 1.6972,6.9129 10.771,4.931 -0.7023,11.122 -0.70229,11.122 -12.763,11.593 -0.64663,3.4468 -0.64664,3.4468 1.247,4.9683 8.9732,11.017 -0.0436,4.7641 -0.0435,4.7641 -1.9531,9 -6.3831,33 -0.0768,274 4.5,14.96 v 11.242 l -1.1136,3.1945 -1.1136,3.1945 2.6136,7.3621 2.6136,7.3621 v 5.007 l -2.5184,9.4621 -2.5184,9.4621 -5.1412,12.653 -5.7596,8.3714 -6.2158,5.2302 h -6.5508 l -3.3979,-2.2599 z m 11.932,-16.99 3.963,-8.25 1.4518,-5 2.2552,-2.8074 v -17.385 l -2.2664,-2.8074 -1.1168,-5.2992 -1.1168,-5.2992 v -10.743 l 6.1965,-1.361 -6.5221,-6.7291 0.23804,-81.63 0.23803,-81.63 -5.6505,1.1113 -11.5,1.3111 -0.5,31.27 v 127 l -3.7456,8.5711 3.2456,3.5864 v 10.975 l -1.0854,5.9337 -1.0854,5.9337 -3.1757,6.7499 2.4348,8.2501 2.8884,10.172 5.5496,10.828 3.7038,5.5 h 1.6369 z m -0.1308,-235.42 2.8009,-3.6687 0.2447,-17.581 0.24471,-17.581 0.25529,-35.285 0.2553,-35.285 -18,0.56969 0.34534,54 0.34534,54 1.8975,2 6.4118,2.3478 2.3982,0.1522 2.8009,-3.6687 z m 1.4899,-116.08 1.499,-1.75 1.6629,-6.9389 1.6629,-6.9389 2.3431,-17.599 -0.44921,-0.4492 -0.4492,-0.44921 -26.459,1.1767 0.05968,6.198 4.5274,25.844 7.9129,2.4464 6.19,0.20971 z m 8.5041,-37.614 1.1932,-1.1362 1.3714,-10.5 H 93.131 l -1.8064,3.5 -1.009,9.4175 14.245,0.58247 18,-0.72759 z m -9.9013,-14.272 6.0852,-0.63603 -5.0055,-9.5728 -1.1513,-11.155 h -10.643 l -1.9502,7.5 -2.1269,11.867 v 2.6327 h 8.7066 z m 10.967,-38.018 8.2586,-5.6619 -0.26701,-0.26702 -0.26702,-0.26701 -34.927,-2.1825 -12.81,-2.0464 -1.0428,1.0428 5.7971,8.3719 10,6.563 17,0.109 8.2586,-5.6619 z m -7.2934,-17.596 -0.6341,-6.25 -4.9021,-34.832 5.8768,-6.1684 -0.54108,-16.134 -0.54107,-16.134 3.2763,-4.6775 v -1.555 h -20.575 l 0.19575,18.75 0.19575,18.75 4.4439,9.8762 -1.1227,15.124 -2.081,7.9584 -2.0811,7.9584 -0.63121,6.7916 -0.63121,6.7916 h 20.387 z m -58.653,-85.76 2.1874,-5.0095 v -1.0494 l 13.265,-23.102 0.99521,-8.8294 h -3.194 l -13.889,17.258 -5.0273,9.242 2.1086,16.5 h 1.3665 z m 103.73,-1.5437 0.70179,-6.5532 -0.56951,-3.5095 -0.5695,-3.5095 -6.098,-9.3746 -7.5074,-8.9784 -12.534,-12.634 -5.9665,4.2485 v 15.554 l -4.2048,3.8053 -1.3713,2.6518 -1.3713,2.6518 2.62,2.1744 8.6547,3.0535 1.0863,0.81442 1.0863,0.81442 10,3.6074 0.95,0.8685 0.95,0.86851 h 2.3675 l -2.2651,-5.75 -2.2651,-5.75 -0.68155,-2.9246 -0.68154,-2.9246 2.6498,2.1992 12.954,25.15 h 1.3624 z m -82.834,-14.097 3.2083,-2.3878 2.0723,-7.4619 0.0056,-3.0833 0.0056,-3.0833 -1.2414,-1.2414 -7.0185,4.7692 -4.6662,7.825 -1.3465,8.4204 5.7726,-1.3691 z m 36.292,-5.9107 v -0.56105 l -8.1619,-17.34 -1.046,1.8691 -1.046,1.8691 -1.3612,5.112 -1.3612,5.112 -0.0119,2.25 -0.0118,2.25 h 13 z m -28.5,-52.022 v -2.9167 h -2.9726 l -0.69654,3.6168 0.5851,1.5247 0.5851,1.5248 1.2495,-0.4165 1.2495,-0.41649 z m 44.862,2.0833 0.5756,-1.5 -1.1512,-3 h -2.8488 l -0.5756,1.5 -0.57561,1.5 0.57561,1.5 0.5756,1.5 h 2.8488 z m -1.1134,-72.165 -0.25178,-56.555 -1.8804,-16.549 -1.6208,-5.3653 -1.6208,-5.3653 -6.2827,-16 -8.8333,-17 -0.75006,-0.82088 -0.75005,-0.82088 -9.8231,16.642 -3.6821,8 -5.6085,16.079 -3.2729,21.921 -0.87178,14 -0.87178,14 -0.64107,32 -0.64107,32 1.8616,20.541 1.0977,1.0977 7.8537,-2.353 3.4772,-16.286 2.0268,-14 2.7178,-6 4.3655,-10.5 h 1.7131 l 2.1368,4.25 2.1368,4.25 1.255,1.5 1.255,1.5 0.71747,8.5 0.71746,8.5 0.32196,5.7675 -10,2.9014 -1.3957,1.3311 -3.0415,7.2854 8.4372,-2.5349 12.122,-1.403 5.7021,8.2281 2.1756,-2.1857 z"
       fill="#608ea2"
       id="path24" />
    <path
       d="m 101.9582,848.7982 -3.3979,-2.2599 -10.078,-20.008 -3.9223,-11.972 v -20.065 l 3.7719,-8.3646 -2.6149,-6.3129 0.09306,-6.1369 0.09306,-6.1369 3.6189,-8.9839 0.28623,-137.75 0.28623,-137.75 -1.7677,-13.507 -7.4995,-40.325 10.058,-12.43 1.2456,-6.6395 -2.7918,-6.6054 -11.058,-10.073 -1.4665,-21.515 1.4109,-1.4116 8.334,-3.215 3.6868,-10.785 0.53811,-7.5842 0.53811,-7.5842 -2.1927,-12.832 -1.5775,-18 -1.5775,-18 -0.95354,-4.5 h -5.176 l -12.286,5.9502 -14,12.023 -1.2664,0.0262 -7.1496,-18.5 -3.3391,-12.47 2.6051,-6.5301 7.7396,-11.215 -0.99842,-6.1996 -0.99842,-6.1996 1.7983,-4.7299 7.378,-10.27 5.7041,-16.386 0.01338,-1.7706 0.01338,-1.7705 9,-6.3438 0.0072,-23.058 0.0072,-23.058 2.0386,-68.833 3.7554,-29.167 6.3274,-16 8.9887,-16.711 10.867,-16.845 5.8495,3.0249 6.8822,8.531 11.277,20.522 v 0.91897 l 2.4458,5.3471 2.4458,5.3471 4.0449,15.865 2.1792,28 0.85606,52 0.85605,52 1.272,3 7.9001,5.481 v 3.9249 l 1.8646,4.5941 3.2974,11.145 9.0055,11.855 -0.57097,8.0076 -0.57097,8.0076 7.9732,11.985 1.0746,3.2394 1.0746,3.2394 -1.6625,5.7606 -1.6625,5.7606 -7.3231,18.496 -1.5447,0.004 -8.4553,-7.6034 -8.2331,-6.3532 -9.4327,-4.0433 h -4.7162 l -0.54567,0.88293 -0.54568,0.88292 -1.0491,14.867 -1.0491,14.867 -2.0194,12.444 -2.0194,12.444 0.59297,4.0561 0.59296,4.0561 1.6972,6.9129 1.6972,6.9129 10.771,4.931 -0.7023,11.122 -0.70229,11.122 -12.763,11.593 -0.64663,3.4468 -0.64664,3.4468 1.247,4.9683 8.9732,11.017 -0.0436,4.7641 -0.0435,4.7641 -1.9531,9 -6.3831,33 -0.0768,274 4.5,14.96 v 11.242 l -1.1136,3.1945 -1.1136,3.1945 2.6136,7.3621 2.6136,7.3621 v 5.007 l -2.5184,9.4621 -2.5184,9.4621 -5.1412,12.653 -5.7596,8.3714 -6.2158,5.2302 h -6.5508 l -3.3979,-2.2599 z m 11.932,-16.99 3.963,-8.25 1.4518,-5 2.2552,-2.8074 v -17.385 l -2.2664,-2.8074 -1.1168,-5.2992 -1.1168,-5.2992 v -10.743 l 6.1965,-1.361 -6.5221,-6.7291 0.23804,-81.63 0.23803,-81.63 -5.6505,1.1113 -11.5,1.3111 -0.5,31.27 v 127 l -3.7456,8.5711 3.2456,3.5864 v 10.975 l -1.0854,5.9337 -1.0854,5.9337 -3.1757,6.7499 2.4348,8.2501 2.8884,10.172 5.5496,10.828 3.7038,5.5 h 1.6369 z m -0.45859,-233.78 2.5491,-3.0294 0.51714,-3.2206 0.51714,-3.2206 0.5453,-101.5 -19.727,1.6e-4 0.83193,4.75 0.83192,4.75 0.06324,99.33 0.8164,0.81785 0.8164,0.81786 8.3672,3.3265 1.3222,0.20738 z m 1.8177,-117.72 1.499,-1.75 1.6629,-6.9389 1.6629,-6.9389 2.3431,-17.599 -0.44921,-0.4492 -0.4492,-0.44921 -26.459,1.1767 0.05968,6.198 4.5274,25.844 7.9129,2.4464 6.19,0.20971 z m 8.5041,-37.614 1.1932,-1.1362 1.3714,-10.5 h -33.187 l -1.8064,3.5 -1.009,9.4175 14.245,0.58247 18,-0.72759 z m -9.9013,-14.272 6.0852,-0.63603 -5.0055,-9.5728 -1.1513,-11.155 h -10.643 l -1.9502,7.5 -2.1269,11.867 v 2.6327 h 8.7066 z m 10.967,-38.018 8.2586,-5.6619 -0.26701,-0.26702 -0.26702,-0.26701 -34.927,-2.1825 -12.81,-2.0464 -1.0428,1.0428 5.7971,8.3719 10,6.563 17,0.109 8.2586,-5.6619 z m -7.2934,-17.596 -0.6341,-6.25 -4.9021,-34.832 5.8768,-6.1684 -0.54108,-16.134 -0.54107,-16.134 3.2763,-4.6775 v -1.555 h -20.575 l 0.19575,18.75 0.19575,18.75 4.4439,9.8762 -1.1227,15.124 -2.081,7.9584 -2.0811,7.9584 -0.63121,6.7916 -0.63121,6.7916 h 20.387 z m -58.653,-85.76 2.1874,-5.0095 v -1.0494 l 13.265,-23.102 0.99521,-8.8294 h -3.194 l -13.889,17.258 -5.0273,9.242 2.1086,16.5 h 1.3665 z m 103.73,-1.5437 0.70179,-6.5532 -0.56951,-3.5095 -0.5695,-3.5095 -6.098,-9.3746 -7.5074,-8.9784 -12.534,-12.634 -5.9665,4.2485 v 15.554 l -4.2048,3.8053 -1.3713,2.6518 -1.3713,2.6518 2.62,2.1744 8.6547,3.0535 1.0863,0.81442 1.0863,0.81442 10,3.6074 0.95,0.8685 0.95,0.86851 h 2.3675 l -2.2651,-5.75 -2.2651,-5.75 -0.68155,-2.9246 -0.68154,-2.9246 2.6498,2.1992 12.954,25.15 h 1.3624 z m -42.124,-4.0537 1.5818,-0.60699 v -2.7156 l -3.8685,-2.0704 h -6.0013 l -5.1302,1.9505 v 1.8828 l 5.5,2.0088 3.1682,0.0789 3.1682,0.079 1.5818,-0.60699 z m -40.71,-10.043 3.2083,-2.3878 2.0723,-7.4619 0.0056,-3.0833 0.0056,-3.0833 -1.2414,-1.2414 -7.0185,4.7692 -4.6662,7.825 -1.3465,8.4204 5.7726,-1.3691 z m 36.292,-5.9107 v -0.56105 l -8.1619,-17.34 -1.046,1.8691 -1.046,1.8691 -1.3612,5.112 -1.3612,5.112 -0.0119,2.25 -0.0118,2.25 h 13 z m -28.5,-52.022 v -2.9167 h -2.9726 l -0.69654,3.6168 0.5851,1.5247 0.5851,1.5248 1.2495,-0.4165 1.2495,-0.41649 z m 44.862,2.0833 0.5756,-1.5 -1.1512,-3 h -2.8488 l -0.5756,1.5 -0.57561,1.5 0.57561,1.5 0.5756,1.5 h 2.8488 z m -1.1134,-72.165 -0.25178,-56.555 -1.8804,-16.549 -1.6208,-5.3653 -1.6208,-5.3653 -6.2827,-16 -8.8333,-17 -0.75006,-0.82088 -0.75005,-0.82088 -9.8231,16.642 -3.6821,8 -5.6085,16.079 -3.2729,21.921 -0.87178,14 -0.87178,14 -0.64107,32 -0.64107,32 1.8616,20.541 1.0977,1.0977 7.8537,-2.353 3.4772,-16.286 2.0268,-14 2.7178,-6 4.3655,-10.5 h 1.7131 l 2.1368,4.25 2.1368,4.25 1.255,1.5 1.255,1.5 0.71747,8.5 0.71746,8.5 0.32196,5.7675 -10,2.9014 -1.3957,1.3311 -3.0415,7.2854 8.4372,-2.5349 12.122,-1.403 5.7021,8.2281 2.1756,-2.1857 z"
       fill="#807e87"
       id="path26" />
    <path
       d="m 103.0582,849.6082 -2.5,-1.3656 -4.2625,-5.7864 -4.995,-9.9023 -5.1318,-13 -1.1796,-4.772 -1.1796,-4.772 0.44839,-8.228 0.44839,-8.228 3.6093,-6.8988 -1.2288,-3.3982 -1.2288,-3.3982 v -11.687 l 3.7,-10.618 v -284 l -2.5137,-11 -4.9423,-28 -0.56237,-2.572 -0.56237,-2.572 9.9388,-12.433 1.3008,-5.9226 -0.6564,-2.9886 -0.6564,-2.9886 -8.1948,-7.5228 -4.6513,-4.4091 -0.16667,-9.5455 -0.16667,-9.5454 -0.08333,-1.6203 -0.08333,-1.6203 8.4408,-3.3002 1.8452,-1.9592 1.607,-7.1974 1.607,-7.1974 v -10.153 l -1.4273,-12.226 -1.4273,-12.226 -1.1467,-12.5 -1.1467,-12.5 -0.49341,-1.75 -0.49341,-1.75 -5.3652,0.02 -10.717,4.9891 -15.553,12.973 -1.8724,-2.4813 -6.0985,-15 -1.2496,-5.336 -1.2496,-5.336 0.96143,-8.5297 8.32,-11.798 -1.789,-13 1.8082,-4.7879 5.7847,-7.3037 4.9778,-11.256 2.5664,-11.468 4.3056,-3.0349 4.3056,-3.0353 0.02649,-18.558 0.02649,-18.558 1.8521,-74.359 2.0796,-16.641 1.9284,-16.172 7.184,-17.828 8.199,-15 10.909,-16.445 5.2944,2.755 4.1004,4.69 5.2258,8 8.7226,16 6.2304,15 3.2165,15 2.0975,26 0.86722,52.987 0.86721,52.987 4.5638,3.0264 3.6024,3 2.8401,9.5364 2.8401,9.5364 3.7382,5.9273 5.8543,6.873 -1.2408,16.142 7.9732,11.985 2.1602,6.512 -4.2736,13.488 -6.3854,16.486 -1,-0.012 -14,-11.998 -11.819,-5.9758 h -6.6806 v 2.3869 l -1.0386,14.057 -1.0386,14.057 -4.0804,26.637 1.1427,6.7747 1.1427,6.7747 2.6776,7.7886 2.6947,1.5469 7.7111,3.0935 -0.73008,11.176 -0.73007,11.176 -13.751,13.034 v 8.1563 l 5.9579,8.9948 4.0421,3.658 -0.0294,9.19 -6.9835,34 -2.0655,34 0.62784,251 1.7787,4.4194 1.7787,4.4194 0.58416,6.2556 0.58415,6.2556 -1.2094,4.8032 -1.2094,4.8032 5.5321,16.293 -4.4836,18.75 -5.0219,13 -3.3828,6.8849 -9.1323,9.6151 -6.8677,-0.08 -2.5,-1.3656 z m 10.331,-15.804 3.5043,-7.25 4.0938,-9.5937 2.1002,-11.582 -5.2518,-17.824 -0.51235,-6.6003 -0.51234,-6.6003 6.6165,-1.3233 -6.6745,-6.8864 0.44722,-163.29 -7.6419,1.1462 -9.2749,1.2469 -0.67396,30.153 -0.67396,30.153 0.31144,48.5 0.31144,48.5 -1.8542,4.8062 -1.8542,4.8062 3.2083,3.5452 v 8.6787 l -1.123,6.5819 -1.123,6.5819 -1.6662,2.0992 -1.3169,8.2354 5.4752,17.665 5.0469,9 4.2071,6.4863 1.3267,0.014 3.5043,-7.25 z m 0.0404,-235.78 2.5491,-3.0294 0.51714,-3.2206 0.51714,-3.2206 0.5453,-101.5 -19.727,1.6e-4 0.83193,4.75 0.83192,4.75 0.06324,99.33 0.8164,0.81785 0.8164,0.81786 8.3672,3.3265 1.3222,0.20738 z m 1.4877,-116.86 1.359,-0.8611 4.7258,-19.548 0.66804,-7.3721 0.66805,-7.3721 -27.777,1.2086 -0.16312,0.3363 2.6095,18 2.5678,13.827 6.9829,2.5205 7,0.1216 1.359,-0.86109 z m 9.3057,-37.986 0.66472,-0.62192 0.70051,-5.75 0.7005,-5.75 h -32.986 l -1.9919,2.5 -0.47548,5.2062 -0.47548,5.2062 12.198,0.67674 21,-0.8453 z m -9.4654,-14.764 5.1993,-0.62459 -4.983,-9.8336 -1.4156,-11.4 -10.334,-0.59876 -1.2083,3.8069 -2.9551,16.792 -0.0014,1.25 -0.0013,1.25 10.5,-0.018 5.1993,-0.6246 z m 10.038,-37.931 8.2898,-5.5733 -0.95556,-1.5461 -33.572,-1.2476 -13.653,-2.24 -1.1942,1.1942 6.0668,8.486 9.7577,6.5 h 16.971 z m -7.2484,-18.177 -0.66987,-6.75 -2.4107,-16.957 -2.4107,-16.957 6.6681,-7.0863 -1.5508,-8 -0.0516,-24 1.4682,-1.9411 1.4682,-1.9411 v -1.6177 h -20.5 l 0.1782,37.5 2.2427,4.8292 2.2427,4.8292 -0.78692,12.342 -3.2368,15.267 -3.2368,15.267 1.2149,1.9657 h 20.041 l -0.66987,-6.75 z m -58.052,-86.503 2.9372,-7.2467 4.3134,-6 7.4672,-13.602 1.1247,-10.898 h -2.0791 l -10.337,11.31 -7.8817,11.606 -1.9159,5.0393 2.2002,17.044 1.2334,-0.006 2.9372,-7.2468 z m 103.51,-6.1866 0.0576,-5.9399 -8.4993,-14.067 -17.737,-18.553 h -2.1346 l -4.6289,4.3486 v 15.506 l -4.6824,3.6832 -2.3176,4.3305 v 2.1942 l 3.5,1.2196 24.702,10.596 -1.0704,-3.3787 -2.5979,-6.8844 -2.5978,-6.8844 0.37587,-0.37588 0.37588,-0.37587 15.766,28.521 0.71585,-4 0.71586,-4 0.0576,-5.9399 z m -42.524,1.8329 1.5818,-0.60699 v -2.7156 l -3.8685,-2.0704 h -6.0013 l -5.1302,1.9505 v 1.8828 l 5.5,2.0088 3.1682,0.0789 3.1682,0.079 1.5818,-0.60699 z m -40.418,-9.6032 2.5,-1.9496 2.3478,-6.3402 0.07608,-4.75 0.07608,-4.75 h -3.3428 l -8.5387,8.9115 -2.1073,7.5885 -0.0056,2.3295 -0.0056,2.3294 6.5,-1.4196 2.5,-1.9496 z m 36,-6.7316 v -0.94185 l -4.1508,-8.6941 -4.1508,-8.6941 -2.434,4.772 -2.439,11 -0.48007,1.75 -0.48008,1.75 h 14.135 z m -20.212,-38.922 -0.31058,-1.6127 -3.4831,-0.67078 -1.2854,3.3497 1.305,0.80655 1.305,0.80656 1.3898,-0.53331 1.3898,-0.5333 z m -7.3323,-10.995 0.59006,-1.8591 -0.6485,-1.69 -0.6485,-1.69 -3.2483,0.61456 -0.31336,3.2418 -0.31336,3.2418 h 3.9919 z m 44.042,-0.13193 0.63194,-1.991 -0.62357,-1.009 -0.62356,-1.009 h -3.668 l -1.1512,3 1.1512,3 h 3.6512 z m -0.68153,-39.808 0.31562,-24.701 -0.96646,-38.5 -0.96647,-38.5 -6.3827,-20.822 -0.82445,-1.5888 -0.82444,-1.5888 -10.013,-21 -2.7021,-3.6025 -4.4606,6.0333 -8.9215,16.915 -6.1757,18.654 -2.9417,18 -0.89394,16 -0.89394,16 -1.4194,55.245 1.4429,26.941 0.82736,1.3387 0.82736,1.3387 8.1572,-2.444 0.05254,-3.4197 4.919,-20 0.0142,-3.1292 0.0142,-3.1292 4.7635,-10.742 2.7247,-6.5 h 1.1939 l 2.8302,5.25 2.8302,5.25 1.4037,1 0.71398,11.566 0.71399,11.566 -9.6506,1.8678 -4.7388,8.6182 0.4042,0.4042 0.4042,0.40421 8.9067,-2.6563 11.167,-1.3726 5.5098,8.3259 1.1618,-1.1613 1.1618,-1.1613 0.31563,-24.701 z"
       fill="#747883"
       id="path28" />
    <path
       d="m 103.0582,849.6082 -2.5,-1.3656 -4.2625,-5.7864 -5.2857,-10.431 -6.4518,-17.471 v -20.052 l 3.8582,-8.5689 -2.5625,-7.0865 0.06453,-5.4023 0.06453,-5.4023 3.5753,-9.4882 0.26378,-138.79 0.26378,-138.79 -2.9332,-18.426 -5.0238,-28 -0.49487,-2.6731 -0.49488,-2.6731 9.7773,-12.231 1.3008,-5.9226 -0.6564,-2.9886 -0.6564,-2.9886 -7.3461,-6.8737 -4.996,-3.9692 -0.502,-11.711 -0.502,-11.711 5,-1.7253 5,-2.5972 3.4112,-13.935 0.44438,-9 -3.3132,-29 -1.2711,-13 -1.2711,-13 -6.34,-0.61478 -10.66,5.3837 -15.271,12.712 -1.8942,-2.4813 -2.6352,-7 -2.5759,-6 -3.1241,-10.863 v -7.7685 l 2.2275,-4.3685 6.8044,-10.064 -0.82353,-6.0218 -0.82353,-6.0218 1.4445,-5.4013 5.4719,-6.4916 5.4959,-12.234 2.5917,-11.581 8.6112,-6.0697 0.08462,-30.115 0.88238,-40 0.88237,-40 2.2356,-19 2.0526,-15.692 5.7542,-14.371 8.8719,-17.102 11.485,-17.258 5.7105,2.953 8.5087,11.47 13.487,26.611 3.1072,10.389 2.8993,20 1.0163,21.5 1.0163,21.5 0.006,55.186 0.65203,12.126 0.65203,12.126 7.6912,5.33 1.0848,4.1156 1.0848,4.1156 1.8332,5.658 1.8332,5.658 1.0414,1.9459 1.0414,1.9459 7.3429,8.7888 -1.2519,16.286 7.2036,10.472 1.426,3.4129 1.426,3.4129 -4.1647,14.419 -6.3175,16 -0.21719,0.34467 -0.21719,0.34466 -16.546,-13.467 -10.098,-4.7024 -6.5,-0.02 -0.01,3.5 -1.4819,16.798 -1.4819,16.798 -1.5862,9.9772 -1.5862,9.9772 2.094,13.496 1.3566,3.9183 1.3566,3.9183 2.8391,1.638 7.7076,3.092 -1.4536,20.386 -1.6224,4 -9.9561,8 -2.1756,4.5941 v 6.563 l 5.9579,8.9948 4.0421,3.658 v 8.5036 l -7.1169,35.686 -1.9595,30 0.28816,127 0.28817,127 3.8154,9 -0.14192,9 -0.14191,9 -0.28012,7 2.14,7 2.14,7 -4.1267,18.198 -6.0163,14.802 -4.8119,8.2257 -7.146,6.2743 -6.4304,-0.08 -2.5,-1.3656 z m 16.027,-27.963 2.839,-7.0912 1.2718,-10 -5.3432,-18 -1.068,-12.5 h 4.9405 l 1.3685,-1.3685 -6.2784,-6.4777 0.35794,-163.25 -15.615,1.3408 -2,1.8526 -0.34324,157.7 -3.1568,6.1045 v 2.8544 l 3,2.4898 v 8.3878 l -2.0944,11.867 -1.4528,3.7702 -1.4528,3.7702 v 6.9138 l 6.3509,18.546 5.9831,10 3.0811,3.6163 6.7725,-13.434 z m -5.6553,-223.62 2.5491,-3.0294 0.51714,-3.2206 0.51714,-3.2206 0.5453,-101.5 -19.727,1.6e-4 0.83193,4.75 0.83192,4.75 0.06324,99.33 0.8164,0.81785 0.8164,0.81786 8.3672,3.3265 1.3222,0.20738 z m 1.0505,-116.58 1.5854,-0.60835 3.2786,-11.278 3.4301,-22.563 -1.6474,-1.0182 -26.568,1.2503 -0.14093,0.16272 -0.14093,0.16273 2.7131,19 2.5823,13 6.9864,2.3871 6.3364,0.1128 1.5854,-0.60836 z m 9.718,-38.167 0.68967,-0.72495 0.70051,-5.75 0.7005,-5.75 -32.73,0.0306 -2.1993,1.4694 -1.1441,11.382 5.3433,0.96029 27.95,-0.89266 0.68967,-0.72495 z m -11.89,-14.776 7.75,-0.61992 v -0.57745 l -2.6201,-4.6879 -2.6201,-4.6879 -0.51524,-6.4187 -0.51523,-6.4188 2.3924,-8.5386 16.26,-11.144 0.34042,-1.0213 0.34042,-1.0212 -34.562,-1.2767 -13.653,-2.2167 -1.207,1.207 5.9234,8.4732 9.7978,6.5902 1.7579,4.9918 1.7579,4.9918 -2.7702,13.426 -0.68231,5.2508 -0.68231,5.2508 5.7579,-0.93237 z m 5.385,-49.941 0.57224,-1.4912 -4.2659,-34.518 -2.1295,-10.723 7.2108,-7.3845 -2.0227,-10.665 0.0354,-10.114 0.0354,-10.114 2.8583,-5 0.0354,-0.75 0.0355,-0.75 h -20.686 l 0.12369,19.25 0.12369,19.25 3.9355,5.9073 -0.007,7.5464 -0.007,7.5464 -6.5901,29.779 0.49901,1.3004 0.49901,1.3004 8.6089,0.77091 10.563,0.34941 0.57225,-1.4912 z m -58.914,-90.776 2.2206,-5.2329 2.0094,-5.5 2.5495,0.0444 4.8253,3.7095 10.175,-4.159 1,-1.3 10.476,-3.4478 1.1593,-1.8759 -2.3526,-11.471 -1.5418,-2 -3.1983,-11.159 -5.1319,-2.3382 -10.638,7.8589 -8.9507,10.639 -6.3144,9.3487 -2.0496,5.3909 2.3447,16.76 1.1969,-0.0342 2.2206,-5.2329 z m 104.16,-7.2557 0.11831,-7.0228 -7.5,-12.77 -19.317,-20.185 -5.6826,3.3669 -0.5869,16.506 -3.6904,2.5849 -4.0318,6.8334 2.2092,2.2092 h 1.7259 l 10.374,4.8862 14,5.9957 0.63662,-1.7918 -1.5432,-3.2951 -1.5432,-3.2951 -1.495,-4.2904 -1.495,-4.2904 1.733,1.0711 14.652,26.51 0.65897,-3 0.65896,-3 z m -40.217,0.1916 0.62051,-0.62052 -2.5015,-3.0141 -7.1162,-1.9649 -8.1674,3.69 7,3.2731 9.544,-0.74309 z m -6.6645,-15.529 v -0.86016 l -8.1149,-17.565 -0.86961,0.89253 -0.86962,0.89253 -2.0729,8.1666 -2.0729,8.1666 v 1.1668 h 14 z m -20.072,-38.39 0.8633,-2.25 -0.8684,-0.92287 -0.8684,-0.92288 -5.0543,2.3029 v 2.8762 l 2.5,1.0088 2.5644,0.1578 0.8633,-2.25 z m -7.4277,-13.25 v -3 h -4 l -0.31922,3.3286 -0.31922,3.3286 4.6384,-0.65724 z m 44,0.5137 v -2.4863 l -3.7124,-0.71495 -1.9862,1.9862 1.3704,4.3179 4.3282,-0.61659 z m -0.87361,-21.264 0.87585,-9.25 -0.73136,-48 -0.73137,-48 -1.0243,-9.5 -1.0244,-9.5 -5.7373,-17 -7.2689,-15.783 -6.3114,-11.031 -1.8611,2.2984 -1.8611,2.2984 -9.2399,16.951 -5.76,15.267 -4.8624,28 -2.3928,82 0.74608,13.593 0.74608,13.593 0.82736,1.3387 0.82736,1.3387 7.6795,-2.3008 4.69,-19.312 1.0641,-11.735 2.7236,-2.2604 v -1.8648 l 4.2359,-9.3903 0.66882,-0.7381 2.5952,2.7381 3,6 2.2752,2 1.31,22.149 -9.4653,1.8511 -2.7807,4.75 -2.7807,4.75 h 1.1338 l 10.308,-2.8312 10.4,-1.2244 1.1786,2.2778 1.1786,2.2778 3.053,3.5 h 1.4406 z"
       fill="#6b6c73"
       id="path30" />
    <path
       d="m 103.5582,849.5482 -3,-1.5937 -3.6335,-4.4 -7.541,-16 -4.8255,-13 v -20 l 4.275,-8.1299 -2.775,-6.5997 v -10.796 l 4.0329,-14.475 -0.05798,-274.54 -2.0932,-15.465 -2.1044,-8 -4.4154,-27.475 7.8018,-9.4412 1.4182,-2.7424 1.4182,-2.7424 v -6.1986 l -3.0066,-5.8141 -9.4934,-7.2246 -0.63168,-2.681 -0.63168,-2.681 -0.23663,-19.5 h 2.9321 l 6.8044,-3.2448 2.2909,-10.255 0.97411,-5.9974 0.97411,-5.9974 -2.8609,-17.005 -2.319,-29 -1.2957,-10 -6.6387,-0.63706 -10.361,5.3977 -15.43,12.739 -1.0831,-2.0238 -1.0831,-2.0238 -6.9352,-17.958 -0.6072,-5.8094 -0.6072,-5.8094 3.4564,-6.684 5.7117,-7.8848 -1.207,-15.651 7.5105,-10.231 5.5727,-13.424 0.70436,-4.3437 0.70436,-4.3437 8.7925,-6.1976 0.09258,-27.115 1.8479,-82 3.9089,-34 5.2934,-14 6.5318,-13 9.0063,-15 4.8191,-7.4153 3,-0.0034 6.16,5.4187 6.0746,9 9.1623,17 3.614,9.3741 3.614,9.3741 0.93285,7.6259 0.93286,7.6259 1.0815,11.5 1.0815,11.5 0.67318,51.838 0.67317,51.838 5,3.9752 4.2006,3.5745 0.62363,3.8868 0.62363,3.8868 5.0011,12.749 8.3077,10.768 -0.70221,8.05 -0.70221,8.05 5.2717,6.9115 2.4576,5.3682 2.4576,5.3682 -3.4212,10.367 -3.4212,10.367 -4.1905,9.6509 -7.5064,-6.3073 -8,-6.5921 -9.9841,-5.2515 h -7.3129 l -1.2926,14.5 -1.9487,19 -3.1902,25.266 1.6818,8.367 1.6818,8.367 2.782,4.3029 9.2593,3.5362 -0.5452,4.0805 -0.54519,4.0805 -1.3274,15.57 -8.9095,6.1299 -3.8415,6.3 -0.008,6.6315 1.1254,2.1843 1.1254,2.1843 7.7493,10.185 -0.0438,6.8153 -6.9994,34 -1.0147,15 -1.0147,15 0.57256,256 3.9441,10 0.0279,8.5963 0.0279,8.5963 -1.2009,1.447 -1.2009,1.447 4.9018,13.504 -0.0712,9.409 -2.6433,11 -5.1966,14.373 -6.0448,10.711 -5.7319,5.4915 -6.8122,1.0122 -3,-1.5937 z m 11.375,-17.83 4.9857,-10.336 1.5698,-6.058 1.5698,-6.058 v -5.3196 l -5.1417,-18.287 -0.35828,-10.971 4.618,-1.1334 -0.0964,-2 -5.1776,-5.4856 0.11528,-81.615 0.11528,-81.615 -16.575,1.4538 -0.73469,1.1305 -0.73473,1.1305 -0.01531,77.967 -0.01531,77.967 -1.6448,4.3069 -1.6448,4.3069 3.5649,6.6197 -2.0373,14.833 -3.8253,13 2.2643,11.277 4.653,11.723 5.0023,9 4.0163,4.5 h 0.54043 z m -1.5034,-233.69 2.5491,-3.0294 0.51714,-3.2206 0.51714,-3.2206 0.5453,-101.5 -19.727,1.6e-4 0.83193,4.75 0.83192,4.75 0.06324,99.33 0.8164,0.81785 0.8164,0.81786 8.3672,3.3265 1.3222,0.20738 z m 3.5036,-119.38 1.3907,-2.9133 3.5055,-21.173 0.62625,-4.25 0.62626,-4.25 -15.524,-0.26603 15.835,-1.669 1.5919,-1.5919 0.67422,-5.7365 0.67421,-5.7365 h -34.157 l -0.91257,1.5 -0.70546,12 16,1 -3.6636,1.5 h -8.9953 l 1.0531,5.5 1.2104,11 3.2584,15 1.7834,2.3813 5.3536,0.86356 8.9842,-0.24484 z m -6.3749,-49.688 9,-1.0959 0.67632,-0.64551 -5.055,-8.657 -0.6925,-5.2726 -0.69249,-5.2727 1.2394,-5.7273 1.2395,-5.7274 16.13,-11.037 0.3577,-1.0731 0.35769,-1.0731 -34.561,-1.3626 -14.5,-2.5786 v 1.7234 l 2.8978,5.6038 7.3483,6.4519 4.5456,2.0711 1.8803,5.6369 1.8803,5.6369 -2.4656,12 -1.3451,11.5 2.7583,-0.006 9,-1.0959 z m 7.6534,-54.398 -0.28352,-5 -1.3931,-8.1411 -1.3931,-8.1412 -1.2206,-11.254 -1.2207,-11.254 6.3454,-5.6696 -0.97654,-9.2696 -0.97653,-9.2696 -0.0173,-5.6279 -0.0173,-5.6279 1.5,-3.59 1.5,-3.59 v -1.0642 h -22.135 l 1.456,4.5 0.15736,17 0.15736,17 3.8641,7 -0.008,13 -5.5995,25 -1.1409,6.4126 0.60587,1.5789 0.60587,1.5789 20.473,-0.57036 -0.28351,-5 z m -57.596,-90.65 2.6176,-6.8501 h 1.6717 l 5.8397,4.9138 1.8138,-1.8016 20.582,-8.8605 1.2064,-1.2064 -3.4419,-11.545 -4.5993,-12.973 -4.991,-3.7263 -4.7558,3.6995 -14.077,14 -6.4251,9.6034 -3.2133,6.2138 1.257,9.4974 1.257,9.4974 1.3205,-1.8059 1.3205,-1.8059 z m 103.01,-8.3484 -0.64857,-3.4572 -9.7552,-14.585 -17.37,-17.448 -5.7929,4.1249 v 15.515 l -2.595,2.4243 -2.595,2.4243 -2.9574,5.6859 0.64747,0.63878 19,8.2351 4,1.899 5.5,1.9918 v -1.9902 l -4.9967,-12.297 0.71168,-0.71168 1.0154,1.2742 1.0153,1.2742 11.487,22 1.2408,2 1.3706,-7.7706 1.3706,-7.7706 z m -41.606,5.544 1.4602,-0.92364 -3.5062,-3.8743 -6.9551,-1.1287 -6.9592,2.9077 v 1.8065 l 5.5,2.0088 9,0.1272 1.4602,-0.92363 z m -5.9688,-16.296 -0.009,-1.25 -7.9412,-16.5 h -1.5802 l -4.5054,16.5 0.044,2.5 h 14 l -0.009,-1.25 z m 3.0086,-23.691 v -1.941 l -1.7327,-1.0709 -1.6948,1.8727 -1.6948,1.8727 1.3111,0.52476 1.3111,0.52477 2.5,0.1578 v -1.941 z m -22,-15.535 V 223.18 l -1.8501,-1.1434 -5.1499,2.3464 v 3.5796 l 3.4484,1.9298 1.7758,-0.9504 1.7758,-0.95039 z m 34.45,1.569 -0.95,-0.90713 -19.427,-10.325 -1.3376,5.3293 5.0106,5.0106 6.7539,1.5946 10.9,0.20472 z m -42.623,-12.898 0.32676,-2.305 -2.4189,-2.9146 -2.7346,2.2696 v 5.8942 l 4.5,-0.6391 z m 44.554,0.5738 1.0852,-1.7312 -3.2431,-3.2431 -4.223,1.3403 v 4.5319 l 1.4177,1.4177 1.939,-0.29219 1.939,-0.29218 z m -1.3489,-24.078 1.1574,-10.809 -1.0953,-33.691 -1.0953,-33.691 -0.0384,-31 -1.9475,-13.467 -5.8778,-16.533 -4.7356,-11 -6.2377,-12 -1.4646,-1.9512 -1.4646,-1.9512 -6.9086,10.902 -6.2336,12 -4.182,11 -5.0142,22 -2.1817,39 -0.10623,39.699 -0.10623,39.699 2.462,2.4645 7.4853,-1.862 4.4648,-17 1.1931,-11 1.0047,-4.7859 6.4854,6.2859 h 2.0063 l 4.3725,-9 h 1.7221 l 0.64862,10.601 0.64862,10.601 -0.48436,0.78371 -0.48436,0.7837 -8.8667,1.3296 -5.0561,9.6696 1.1518,1.1518 5.5328,-2.8612 14.229,-1.6994 2.6095,3.1403 3.5612,5.7138 0.84422,-0.8569 0.84423,-0.8569 z"
       fill="#585b64"
       id="path32" />
    <path
       d="m 103.5582,849.4182 -3,-1.5112 -6.2385,-9.3497 -7.1834,-17.034 -3.3116,-12.926 0.91732,-14.04 4.1929,-8.1787 -3.0622,-8.8213 0.51102,-5 0.51103,-5 4.3675,-20 -1.0828,-268 -2.2183,-16 -2.805,-11 -3.3715,-23.594 6.3517,-7.4059 5.0058,-10.363 -3.0926,-7.6368 -11.414,-10.296 -0.03865,-11.208 -0.03865,-11.208 8.8861,-3.3023 4.7098,-18.985 -0.81973,-10 -2.1856,-12 -1.0885,-16.088 -1.0885,-16.088 -0.77301,-2.912 -0.77301,-2.912 -6.9032,-0.59304 -12.42,6.6086 -11.911,10.484 h -1.9685 l -3.4895,-9.5 -2.8906,-7 -2.7616,-10 -0.01187,-3.6135 -0.01186,-3.6135 9.5631,-14.292 -1.9364,-14.01 8.0723,-11.471 4.2524,-9.6444 2.4362,-11.795 8.6124,-6.1849 0.05571,-12.188 0.05571,-12.188 1.7286,-77 1.5975,-19 1.5975,-19 4.2086,-13 7.2147,-16 4.0417,-6.4266 11,-17.996 3.0941,-0.07768 7.0272,7.5 2.5459,3.5 2.5459,3.5 9.4157,18 5.6227,14.031 1.0747,5.4847 1.0747,5.4847 1.076,8.5 1.076,8.5 1.9112,41 0.036,76.437 8.8837,6.5634 0.65558,3 0.65557,3 2.5311,7.5 2.5311,7.5 8.9589,11.985 -0.66591,7.6339 -0.66592,7.6339 8.0702,12.486 0.61359,3.2707 0.6136,3.2707 -4.2932,15.649 -1.6236,2.0702 -3.4254,10.5 -2.3393,-0.0664 -13.485,-11.599 -10.543,-5.3345 h -7.4713 v 1.9817 l -1.4884,15.259 -1.4884,15.259 -3.3207,26.246 3.582,18.441 3.7706,3.5128 7.9553,2.3835 -0.47766,3.7083 -0.47767,3.7083 -0.60508,7.6675 -0.60507,7.6675 -11.767,10.235 -0.65005,3.465 -0.65004,3.465 0.64206,3.4225 0.64207,3.4225 9.1919,11.165 -1.0702,9.4897 -4.1031,21 -3.5605,15 -0.02,282 3.5541,9 0.59418,6.5 0.59417,6.5 -1.6313,3.8963 -1.6313,3.8963 5.0202,12.549 -0.0148,4.3294 -0.0148,4.3294 -3.0609,13 -4.6928,13.018 -4.6113,7.9817 -4.9327,6.6179 -5.5734,2.8821 -1.7997,-0.0639 -1.7997,-0.064 -3,-1.5112 z m 10.803,-15.861 4.4956,-9 5.3745,-17.67 -5.0613,-18.33 -2.2785,-11.622 0.55219,-1.439 0.55218,-1.439 h 4.7294 l 1.3784,-1.3784 -3.9371,-4.0608 -3.9371,-4.0608 0.93494,-13.5 0.93495,-13.5 -0.5408,-134 -16,0.49429 -2.5,0.94294 v 155.88 l -3.7346,11.999 3.9874,3.9874 -1.6891,10.102 -1.6891,10.102 -2.9794,8.744 4.2751,16.744 1.4946,2 1.3514,3.5 1.3514,3.5 7.8117,11.654 0.62774,-0.65414 z m -0.93126,-235.53 2.5491,-3.0294 0.51427,-3.2206 0.51428,-3.2206 0.27916,-50.75 0.27915,-50.75 h -19.651 l 0.82196,5.75 0.82196,5.75 -0.19988,47.928 -0.19988,47.928 1.6639,2.9732 8.7358,3.4627 1.3222,0.20738 z m 3.2089,-118.45 1.6263,-2.4821 3.8074,-21.536 1.2646,-9.5 -14.779,-0.33124 15.341,-1.1688 0.86678,-1 1.9487,-12.5 h -34.539 l -0.89046,1.5 -1.4239,12.5 13.696,0.34941 -8.6089,0.77091 -0.85812,2.3797 3.8148,25 1.7331,6.9944 5.9192,1.269 9.4539,0.23663 z m 2.7482,-51.505 0.82845,-0.77011 -2.4574,-4.8716 -2.4574,-4.8716 -1.3831,-8.2945 2.4156,-12.278 17.726,-12.263 v -1.6644 l -18.5,-0.0206 -24,-2.05 -6.4609,-2.0716 -1.9731,1.2194 6.0055,9.7601 9.8286,6.307 3.2348,11.127 -2.2771,14.228 -1.9999,6.4609 0.68263,1.1045 0.68263,1.1045 19.277,-1.3866 0.82844,-0.77012 z m -1.1968,-55.509 -0.36837,-6.9962 -1.5679,-4.124 -3.42,-30.446 5.7247,-5.3065 v -34.131 l 0.84984,-2.1858 0.84984,-2.1858 -22.328,-0.62841 1.6279,15 -0.31114,11.004 -0.31114,11.004 4.0784,8.9915 -0.016,13 -3.9596,19 -2.3268,12.154 1.3111,3.4167 20.535,-0.57036 z m -59.047,-84.334 1.1865,-3.67 3.8849,-7.7252 5.462,5.233 22.882,-10.182 2.2485,-2.3258 -7.9946,-24.615 -4.8445,-3.1743 -5.071,2.7139 -11.053,11.076 -8.417,11 -5.4132,9.8329 1.9328,6.1671 1.349,11.549 2.6612,-2.2086 z m 104.9,-8.376 0.0152,-5.706 -6.2098,-10.588 -7.2269,-9 -12.063,-12.695 -3.4918,-1.8713 -5.6702,4.1922 0.44985,7.7708 0.44984,7.7708 -4.8096,3.8322 -1.7141,2.4725 -1.7141,2.4725 v 2.1846 l 7.5,3.6181 20.795,8.7523 h 1.5832 l -3.162,-9.5 -1.9614,-2.5 h 2.0309 l 0.62946,1.6403 0.62945,1.6403 11.274,20.086 1.3256,-4.4335 1.3256,-4.4335 0.0152,-5.706 z m -41.173,-0.033 0.33092,-1.739 -5.6424,-2.2372 -3.3778,-1.7254 -9.116,4.4406 -0.006,1.4428 6.5,1.9205 10.981,-0.36334 0.33093,-1.739 z m -6.897,-16.511 -1.036,-2.75 -3.4768,-7.25 -3.4768,-7.25 -1.4248,0.01 -4.7947,17.49 -0.91932,2.5 h 16.164 l -1.036,-2.75 z m 4.0855,-22.691 v -2.441 l -1.074,-0.66378 -1.074,-0.66379 -4.8733,4.5783 2.5214,1.6006 4.5,0.0306 v -2.441 z m -23.582,-11.875 1.7999,-1.3161 -0.71748,-3.6534 -3.5,-2.2041 -3.5,2.2041 -0.66915,3.4025 0.55319,1.4416 0.55319,1.4416 h 3.6805 z m 35.98,-0.51878 0.51599,-0.83489 -15.722,-9.352 -7.1921,-3.0051 0.0306,7.5268 0.86327,1.3626 0.86327,1.3626 10.743,3.7096 9.382,0.0652 0.51598,-0.83488 z m -43.409,-12.145 1.0594,-1.9795 -1.2652,-5.041 h -1.9147 l -3.8685,2.0704 v 5.5963 l 0.66667,0.66666 0.66667,0.66667 h 3.5963 z m 44.061,0.41973 1.2945,-1.5597 -1.8441,-5.2171 -2.375,-0.78843 -4.125,4.125 v 1.8571 l 3.1429,3.1429 h 2.6122 z m -1.0958,-22.497 1.3419,-9.0568 -1.3804,-54.386 -1.658,-57 -2.4908,-11 -1.5708,-2 -2.3547,-9 -11.968,-24 -2.8257,-2.881 -0.42399,0.44048 -0.424,0.44048 -9.9043,16.344 -7.1513,18.656 -4.0823,18 -1.96,24 -1.3811,75 1.4767,23.5 5.3027,-0.0274 4.2862,-1.15 3.1501,-11.323 3.0557,-19 0.004,-0.94617 0.004,-0.94616 3.2976,3.1962 3.2976,3.1962 h 1.9466 l 4.915,-8.9974 1.2498,3.4974 0.59756,8.7433 0.59757,8.7433 -5.4017,1.1884 -4.8439,1.4397 -5.1501,9.2247 0.75956,0.75956 0.75955,0.75956 7.0228,-3.3489 13.452,-1.2311 5,8.1678 2.1118,0.0538 1.3419,-9.0568 z"
       fill="#3a5360"
       id="path34" />
    <path
       d="m 103.5582,849.4182 -3,-1.5112 -6.2385,-9.3497 -7.1834,-17.034 -3.3116,-12.926 0.91732,-14.04 4.1929,-8.1787 -3.0622,-8.8213 0.51102,-5 0.51103,-5 4.3675,-20 -1.0828,-268 -2.2183,-16 -2.805,-11 -3.3715,-23.594 6.3517,-7.4059 5.0058,-10.363 -3.0926,-7.6368 -11.414,-10.296 -0.03865,-11.208 -0.03865,-11.208 8.8861,-3.3023 4.7098,-18.985 -0.81973,-10 -2.1856,-12 -1.0885,-16.088 -1.0885,-16.088 -0.77301,-2.912 -0.77301,-2.912 -6.9032,-0.59304 -12.42,6.6086 -11.911,10.484 h -1.9685 l -3.4895,-9.5 -2.8906,-7 -2.7616,-10 -0.01187,-3.6135 -0.01186,-3.6135 9.5631,-14.292 -1.9364,-14.01 8.0723,-11.471 4.2524,-9.6444 2.4362,-11.795 8.6124,-6.1849 0.05571,-12.188 0.05571,-12.188 1.7286,-77 1.5975,-19 1.5975,-19 4.2086,-13 7.2147,-16 4.0417,-6.4266 11,-17.996 3.0941,-0.07768 7.0272,7.5 2.5459,3.5 2.5459,3.5 9.4157,18 5.6227,14.031 1.0747,5.4847 1.0747,5.4847 1.076,8.5 1.076,8.5 1.9112,41 0.036,76.437 8.8837,6.5634 0.65558,3 0.65557,3 2.5311,7.5 2.5311,7.5 8.9589,11.985 -0.66591,7.6339 -0.66592,7.6339 8.0702,12.486 0.61359,3.2707 0.6136,3.2707 -4.2932,15.649 -1.6236,2.0702 -3.4254,10.5 -2.3393,-0.0664 -13.485,-11.599 -10.543,-5.3345 h -7.4713 v 1.9817 l -1.4884,15.259 -1.4884,15.259 -3.3207,26.246 3.582,18.441 3.7706,3.5128 7.9553,2.3835 -0.47766,3.7083 -0.47767,3.7083 -0.60508,7.6675 -0.60507,7.6675 -11.767,10.235 -0.65005,3.465 -0.65004,3.465 0.64206,3.4225 0.64207,3.4225 9.1919,11.165 -1.0702,9.4897 -4.1031,21 -3.5605,15 -0.02,282 3.5541,9 0.59418,6.5 0.59417,6.5 -1.6313,3.8963 -1.6313,3.8963 5.0202,12.549 -0.0148,4.3294 -0.0148,4.3294 -3.0609,13 -4.6928,13.018 -4.6113,7.9817 -4.9327,6.6179 -5.5734,2.8821 -1.7997,-0.0639 -1.7997,-0.064 -3,-1.5112 z m 10.803,-15.861 4.4956,-9 5.3745,-17.67 -5.0613,-18.33 -2.2785,-11.622 0.55219,-1.439 0.55218,-1.439 h 4.7294 l 1.3784,-1.3784 -3.9371,-4.0608 -3.9371,-4.0608 0.93494,-13.5 0.93495,-13.5 -0.5408,-134 -16,0.49429 -2.5,0.94294 v 155.88 l -3.7346,11.999 3.9874,3.9874 -1.6891,10.102 -1.6891,10.102 -2.9794,8.744 4.2751,16.744 1.4946,2 1.3514,3.5 1.3514,3.5 7.8117,11.654 0.62774,-0.65414 z m 1.5432,-238.9 1.9756,-4.2028 0.27684,-51.951 0.27683,-51.951 -20.875,0.72663 -0.0632,0.13669 -0.0632,0.13668 1.4385,19 0.09394,45.106 0.09394,45.106 11.457,5.1836 3.4131,-3.0888 z m 0.7344,-115.09 1.6263,-2.4821 3.8074,-21.536 1.2646,-9.5 -14.779,-0.33124 15.341,-1.1688 0.86678,-1 1.9487,-12.5 h -34.539 l -0.89046,1.5 -1.4239,12.5 13.696,0.34941 -8.6089,0.77091 -0.85812,2.3797 3.8148,25 1.7331,6.9944 5.9192,1.269 9.4539,0.23663 z m 2.7482,-51.505 0.82845,-0.77011 -2.4574,-4.8716 -2.4574,-4.8716 -1.3831,-8.2945 2.4156,-12.278 17.726,-12.263 v -1.6644 l -18.5,-0.0206 -24,-2.05 -6.4609,-2.0716 -1.9731,1.2194 6.0055,9.7601 9.8286,6.307 3.2348,11.127 -2.2771,14.228 -1.9999,6.4609 0.68263,1.1045 0.68263,1.1045 19.277,-1.3866 0.82844,-0.77012 z m -1.1968,-55.509 -0.36837,-6.9962 -1.5679,-4.124 -1.713,-15.25 -1.713,-15.25 5.9665,-5.3843 -1.0078,-30.506 3.5397,-11.494 2.7162,-3.1397 -1.242,-1.6351 -1.242,-1.6351 -5.5,-2.0406 v -1.8069 l 6.1434,-2.5447 7.3566,3.5497 20.795,8.7523 h 1.5832 l -3.162,-9.5 -1.9614,-2.5 h 2.0309 l 0.62946,1.6403 0.62945,1.6403 11.274,20.086 1.3256,-4.4335 1.3256,-4.4335 0.0152,-5.706 0.0152,-5.706 -6.2098,-10.588 -7.2269,-9 -12.063,-12.695 -3.4918,-1.8713 -5.6702,4.1922 0.43916,7.6869 0.43916,7.6869 -5.878,5.2139 -7.3524,1.3793 -1.0537,-2.7966 -1.0537,-2.7966 -3.4768,-7.25 -3.4768,-7.25 h -1.6748 l -0.60729,3.0365 -0.6073,3.0365 -2.1314,7.0171 -2.1314,7.0171 -7.2638,-0.60718 -7.0089,-20.925 -5.3188,-2.9835 -8.7305,6.9087 -9.0586,10 -6.041,8 -5.3964,9.8329 1.9328,6.1671 1.349,11.549 2.6612,-2.2086 2.373,-7.34 3.8849,-7.7252 5.4835,5.2536 25.861,-11.537 5.5,0.64112 v 2.6393 l -7,3.3217 v 1.4612 l 3.4348,4.9038 2.4716,21.041 -0.59737,9.2011 -0.59737,9.2011 4.2883,9.9685 -0.0604,12.629 -3.9596,19 -2.3268,12.154 1.3111,3.4167 20.536,-0.57036 z m 1.8684,-131.94 v -2.441 l -1.074,-0.66378 -1.074,-0.66379 -4.8733,4.5783 2.5214,1.6006 4.5,0.0306 v -2.441 z m -23.582,-11.875 1.7999,-1.3161 -0.71748,-3.6534 -3.5,-2.2041 -3.5,2.2041 -0.66915,3.4025 0.55319,1.4416 0.55319,1.4416 h 3.6805 z m 35.98,-0.51878 0.51599,-0.83489 -15.722,-9.352 -7.1921,-3.0051 0.0306,7.5268 0.86327,1.3626 0.86327,1.3626 10.743,3.7096 9.382,0.0652 0.51598,-0.83488 z m -43.409,-12.145 1.0594,-1.9795 -1.2652,-5.041 h -1.9147 l -3.8685,2.0704 v 5.5963 l 0.66667,0.66666 0.66667,0.66667 h 3.5963 z m 44.061,0.41973 1.2945,-1.5597 -1.8441,-5.2171 -2.375,-0.78843 -4.125,4.125 v 1.8571 l 3.1429,3.1429 h 2.6122 z m -1.0958,-22.497 1.3419,-9.0568 -1.3804,-54.386 -1.658,-57 -2.4908,-11 -1.5708,-2 -2.3547,-9 -11.968,-24 -2.8257,-2.881 -0.42399,0.44048 -0.424,0.44048 -9.9043,16.344 -7.1513,18.656 -4.0823,18 -1.96,24 -1.3811,75 1.4767,23.5 5.3027,-0.0274 4.2862,-1.15 3.1501,-11.323 3.0557,-19 0.004,-0.94617 0.004,-0.94616 3.2976,3.1962 3.2976,3.1962 h 1.9466 l 4.915,-8.9974 1.2498,3.4974 0.59756,8.7433 0.59757,8.7433 -5.4017,1.1884 -4.8439,1.4397 -5.1501,9.2247 0.75956,0.75956 0.75955,0.75956 7.0228,-3.3489 13.452,-1.2311 5,8.1678 2.1118,0.0538 1.3419,-9.0568 z"
       fill="#45444d"
       id="path36" />
    <path
       d="m 104.3682,849.5882 -3.1907,-1.3876 -6.3176,-8.6464 -0.96511,-2.485 -0.96511,-2.485 -1.3974,-3.015 -1.3974,-3.015 -5.5419,-15 -0.03402,-18 4.2909,-9.0333 -3.2051,-12.302 2.4571,-10.832 2.4571,-10.832 -0.08162,-136.5 -0.08162,-136.5 -1.7498,-11.399 -1.7498,-11.399 -0.79414,-2.1009 -0.79414,-2.1009 -3.4061,-23.602 7.0114,-8.5564 4.3175,-8.2833 -0.71977,-3.279 -0.71977,-3.279 -12.968,-12.408 -0.52249,-11.023 -0.52249,-11.023 3.7811,-1.1911 6.1654,-2.6621 4.5397,-18.846 -0.46444,-5.4227 -0.46444,-5.4227 -2.1821,-12 -1.0739,-15.759 -1.0739,-15.759 -0.59817,-2.9908 -0.59817,-2.9909 h -8.2659 l -9.9841,5.289 -13.915,11.971 -1.5423,-2.312 -1.5423,-2.312 -6.6723,-18.136 -0.16386,-6.0325 -0.16386,-6.0325 9.4081,-13.935 -1.9994,-10 1.1357,-5.9717 5.6965,-7.0886 4.3881,-8.9397 3.6912,-14.534 4.6798,-3.91 3.1933,-1.0936 1.2986,-25.463 -0.0134,-60 4.1943,-55 6.1,-17.797 4.4585,-8.6013 4.4586,-8.6013 11.31,-18.428 2.2303,-0.07207 5.3751,4.2281 7.8946,10.687 v 1.2162 l 9.73749,17.651 3.1472,8.7186 3.1551,8.6443 2.0135,19.678 2.0135,19.678 1.25,101.72 2.1832,1.6951 6.5809,5.5879 2.7833,12.017 4.0356,9.4147 8.3313,10.54 -0.57889,5.014 -0.57889,5.014 -1.1847,4.0339 9.0912,13.842 1.1031,6.1245 -1.9661,7 -1.9661,7 -4.7458,12.495 -2.1044,2.1044 -14.742,-12.317 -4.0585,-1.8685 -5,-2.8846 -8.2699,-0.0294 -1.0785,7.75 -1.0785,7.75 -0.57942,8.5 -0.57943,8.5 -1.62,12.651 -1.62,12.651 2.3114,13.996 1.2571,3.8236 1.2571,3.8236 9,3.3572 -0.30559,11.348 -0.3056,11.348 -12.697,12 -0.65255,3.1464 -0.65256,3.1464 3.0952,7.4079 8.3444,9.9665 -4.4721,26.333 -2.8598,11.31 -0.98136,11.845 -0.98135,11.845 -0.0158,130.64 -0.0158,130.64 5,19.244 v 6.9345 l -3.2312,8.0756 2.0804,4.8359 2.0803,4.8359 0.65638,4.1048 0.65637,4.1048 -1.2808,6.7879 -1.2808,6.7879 -5.709,15.643 -2.1204,4.1824 -2.1204,4.1824 -6.0044,7 -5.2264,2.4098 -2,0.012 -3.1907,-1.3876 z m 10.088,-15.544 4.544,-9.01 2.6951,-8.6441 2.6951,-8.6441 -1.0927,-4.5959 -1.0927,-4.5959 -1.5641,-5.4327 -1.5641,-5.4328 -0.63278,-6.1763 -0.63278,-6.1763 6.6159,-2.3063 -6.6942,-6.9067 0.4764,-163.38 -17.476,1.2333 -1.0872,1.0873 -1.0872,1.0873 -0.01349,78.7 -0.01349,78.7 -3.4961,8.817 3.0231,3.3405 -0.0152,6.8425 -1.0176,6.5 -1.0176,6.5 -3.1907,10.396 3.5105,14.604 6.5246,14 6.2184,8.5 h 0.84102 l 4.544,-9.01 z m 1.4482,-239.39 1.9756,-4.2028 0.27684,-51.951 0.27683,-51.951 -20.875,0.72663 -0.0632,0.13669 -0.0632,0.13668 1.4385,19 0.09394,45.106 0.09394,45.106 11.457,5.1836 3.4131,-3.0888 z m 0.56985,-114.51 1.7256,-1.9068 1.9837,-11.343 1.9837,-11.343 0.78605,-4.2429 0.78606,-4.2429 -1.0141,-1.0141 -12.167,-0.35317 13.919,-1.1468 1.2935,-6.4136 1.2935,-6.4136 -1.0779,-1.0779 -15.428,-1.293 9.5,-0.30183 v -2.0665 l -4.7273,-9.4335 -0.68411,-3.763 -0.68411,-3.763 1.2097,-6.1489 1.2097,-6.1489 3.428,-3.1761 14.248,-9.8074 v -1.3987 l -34.095,-1.4182 -13.405,-2.841 -3.5,-0.0347 v 2.1396 l 5.9959,8.7148 9.7975,6.3486 3.1606,11.297 -1.0266,7 -1.0266,7 -2.1684,4.3686 1.082,4.1375 -7.8143,1.2496 v 4.4652 l -1.2718,9.2791 11.772,0.33621 -7.6279,0.79214 1.3113,11.372 2.8468,19.688 1.969,3.6792 5.5008,0.83326 9.19,0.29966 z m 2.0488,-106.84 -0.59127,-6.75 -2.7693,-15 -1.0761,-9.9274 -1.0761,-9.9274 5.8662,-6.1451 -1.0932,-31.148 2.2126,-5.9138 2.2126,-5.9138 2.0223,-2.4367 -0.70817,-1.1458 -0.70816,-1.1458 -6.7558,-2.8228 v -1.7305 l 5.8947,-2.4417 6.6053,3.3346 21.419,8.8644 h 1.9926 l -2.9113,-8.2514 0.007,-1.1243 0.007,-1.1243 11.596,20.87 2.107,0.70233 0.64091,-4.6759 0.64091,-4.6759 v -11.682 l -7.5,-11.307 -2.1549,-3.1161 -2.1549,-3.1161 -15.19,-14.95 v -2.1664 l 7.9527,-5.8836 0.0472,-1.2107 -6.5,-1.8561 -0.2512,-2.4666 -0.2512,-2.4666 -2.1752,-10.653 -5.6785,-9.3471 2.1034,-10 0.44308,-17.439 0.44309,-17.439 -1.0268,-39.561 -1.0259,-39.561 -3.0215,-17.107 -5.2031,-13.893 -10.134,-21 -3.0309,-3.5 h -1.4781 l -9.9423,16.578 -7.1254,17.922 -0.70375,4 -0.70375,4 -1.5844,3.0839 -2.2571,16.485 -1.1274,28.216 -1.1274,28.216 -0.07019,20.5 -0.07019,20.5 1.8077,16.742 9.8913,-1.1715 -0.64218,2.7147 -0.64218,2.7147 -4.1363,3.5 h -4.7323 l -3.4449,5.5 -3.1012,3.2547 -3.275,4.0054 9.775,8.4783 v 2.7616 l -13.5,0.008 8.5,7.2423 v 2.7506 h -1.5594 l -12.223,11.5 -9.8663,13 -4.3773,8.6111 2.0467,11.389 1.4813,7.8048 2.2076,-2.8048 2.0447,-6 3.7173,-8.5 H 65.43 l 4.4589,4.1889 8.335,-3.6957 8.335,-3.6966 8.1314,-3.7975 h 5.2505 l 1.2351,1.9984 -7.1777,4.235 0.66505,2.1333 0.66505,2.1333 2.7306,3.945 0.0058,4.0275 0.0058,4.0275 1.8734,11.438 -1.8944,18.311 4.2036,6.8016 0.53175,5.8643 0.53176,5.8643 -3.4508,20.721 -1.8075,2.2057 -0.64642,7.6472 -0.64642,7.6472 h 22.349 l -0.59126,-6.75 z m -24.95,-108.5 -0.42314,-1.25 -6.2611,-19.595 8.4336,-10.931 2.6249,2.1785 0.61166,7.1781 21.717,0.32126 -1.0167,-7.5802 4.2117,-1.3367 0.39626,1.1888 0.39627,1.1888 1.8889,1.7598 1.8889,1.7598 1.009,5.3206 1.009,5.3206 v 8.3347 l -6.5,6.2237 -6,0.66862 -9.4203,-19.5 -1.5797,0.014 -4.4182,14.486 -0.64934,2.75 -0.64933,2.75 h -6.846 l -0.42314,-1.25 z"
       fill="#393b43"
       id="path38" />
    <path
       d="m 105.2882,849.8582 -3.2678,-0.86908 -6.1838,-8.4336 -6.462,-14.05 -4.7329,-13.95 -0.0618,-17 4.5861,-8.6362 -2.3959,-7.2595 0.02106,-5.0521 0.02106,-5.0521 4.4087,-20.386 -0.46694,-136.81 -0.46694,-136.81 -4.3029,-22 -2.6626,-15 -0.59563,-4.6178 -0.59563,-4.6178 9.9092,-12.764 0.62258,-3.2667 0.62258,-3.2667 -2.5085,-6.056 -11.741,-10.459 -0.63747,-11.141 -0.63747,-11.141 8.3197,-2.4926 0.87608,-1.0882 0.87608,-1.0882 4.2241,-15.522 v -12.847 l -2.0351,-5.3527 -1.4778,-20.139 -1.4778,-20.139 -1.0475,-4.5 h -8.664 l -9.7979,5.1988 -10.679,9.3012 -3.6893,2.6562 -3.0804,-5.9568 -6.2462,-16.699 -0.30552,-12 7,-9.9515 2.5441,-2.7355 -1.4896,-10.313 0.1621,-5.5711 7.0775,-10.429 3.9692,-8 2.504,-12 6.7863,-6.3512 2.3193,-0.77311 0.80136,-48.438 0.80135,-48.438 0.4718,-4 0.4718,-4 2.309,-35 5.9487,-17.435 8.9735,-17.565 4.5179,-7 7.6642,-11.5 h 1.2119 l 7.4951,6.1781 10.764,18.322 6.9338,15 2.1757,6.3823 2.1757,6.3823 1.4984,14.618 1.4984,14.618 0.90524,22.5 0.90523,22.5 0.104,66.161 8.795,6.3161 2.4614,10.523 4.4054,11.013 4.1648,5.4936 4.1648,5.4937 0.008,4.3474 -2.3056,9.9884 7.4831,10.416 1.4011,3.9712 1.4011,3.9712 -3.2139,14.306 -1.4401,2 -4.5855,12.542 -0.77085,0.47641 -0.77086,0.47641 -15.699,-13.056 -8.1314,-3.9394 h -8.0856 l -1.1464,7.25 -1.1464,7.25 -1.0752,14 -1.0752,14 -2.5425,14.923 3.8609,20.077 1.4371,1.5965 1.4371,1.5965 8.177,2.4499 -0.68913,11.179 -0.68914,11.179 -10.894,9.7208 -2.9372,5.6799 v 4.1986 l 3.2741,6.4007 3.7665,4.7595 3.7665,4.7595 -0.53792,4.2405 -0.53793,4.2405 -3.8537,21 -3.2163,14 -0.74616,279.77 5.0849,20.308 v 4.6546 l -3.4217,9.634 4.9217,9.6345 -0.1914,15 -6.526,19.885 -5.9015,11.115 -5.5685,6.5499 -5.8126,1.6218 -3.2678,-0.86907 z m 8.9316,-14.858 3.8328,-7.4448 6.0034,-17.32 v -7.1716 l -1.9634,-5.754 -1.9634,-5.754 -2.058,-13 -0.008,-1.75 -0.007,-1.75 h 3.6 l 2.4024,-2.4024 -6.1817,-6.3779 0.13278,-81.763 0.13279,-81.763 -18.422,1.3076 -0.58234,0.58174 -0.58234,0.58173 -0.50197,80.667 -0.50197,80.667 -2.5529,5.7797 3.2546,3.5963 -1.0874,9.9959 -1.0874,9.9959 -1.9819,5.0282 -1.9819,5.0282 3.941,12.336 0.0016,2.2395 6.0703,12.831 6.294,9.7133 1.9652,-0.65508 z m 1.8312,-239.94 1.7822,-3.5 0.37134,-52.766 0.37133,-52.766 -21.02,1.3054 -0.37402,0.26736 1.9616,32.959 -0.68063,37.084 -0.68063,37.084 4.5824,4.2691 8.1913,2.8028 3.7128,-3.239 z m 0.26443,-114.89 1.7595,-1.6828 3.0595,-14.925 2.725,-17 -1.9712,-1.2217 1.4587,-0.55976 1.4587,-0.55975 1.3935,-6.6588 0.17842,-3.5 0.17843,-3.5 -14,-1.1468 7.5,-0.35317 -0.0121,-1.75 -0.012,-1.75 -5.215,-9 -0.169,-13 3.9082,-7.892 16.441,-11.108 0.0294,-0.60723 0.0294,-0.60723 -35.281,-1.4419 -4.2189,-1.5962 -12.5,-1.4438 v 2.336 l 5.9573,8.6587 10.035,7.3661 2.9851,10.336 -1.9445,10 -2.4133,12.5 -4.1192,0.0306 -2.292,1.4694 -0.72049,6.75 -0.72049,6.75 h 5.4779 l -2.4094,2.9031 2.0949,6.5969 3.1733,24 2.3963,2.3898 10,1.8641 4,-0.96289 1.7595,-1.6828 z m 2.211,-107.36 -0.65061,-7.25 -0.97714,-5.5 -0.97713,-5.5 -1.4624,-11.422 -1.4624,-11.422 5.8771,-6.1563 -1.0952,-31.207 1.8297,-4.8965 1.8297,-4.8965 1.3316,-2.1091 1.3317,-2.1091 -1.2057,-3.1421 -5.8396,-2.0357 v -1.7661 l 2.4547,-1.3137 2.4547,-1.3137 4.5907,2.933 8,3.2321 16.493,6.9449 1.1252,-1.8206 -1.2763,-2.0651 -1.7021,-5.9349 h 0.72438 l 7.3382,14.5 2.0257,3.3232 2.0257,3.3232 2.0459,-2.0459 0.48189,-10.008 0.4819,-10.008 -6.6375,-10.585 -9.1258,-10.959 -11.868,-11.731 7.8684,-6.734 0.75,-0.0375 0.75,-0.0376 v -2 h -2.6177 l -3.3687,-2.5 -4.1323,-16 -5.0311,-7.6834 2.4375,-14.317 -1.3772,-105 -4.1349,-24 -3.7757,-8.3903 v -1.4167 l -5.1292,-11.193 -7.0759,-14 -2.6531,-2.7868 -8.2751,12.787 -7.7863,16.37 -4.2821,15.63 -2.8191,17 -2.3214,56 -0.05839,22.5 -0.0584,22.5 2.0313,15 1.9278,-0.23864 6.5,-1.2114 v 4.8366 l -4.445,3.1134 h -3.3107 l -11.244,12.807 v 2.0931 l 9,7.5231 v 1.5765 l -14.5,0.1064 10.182,9.0117 -17.314,17.496 -10.474,15.886 1.2659,11 2.4358,9.5045 1.2022,-1.2022 1.2022,-1.2022 v -1.8499 l 5.3734,-12.25 0.52132,-0.72801 5.375,4.228 h 2.2372 l 14.429,-7 h 1.5932 l 7.741,-4.1489 5.2105,1.3078 -6.839,5.5817 4.6565,10.759 0.11339,18 0.11339,18 3.705,5.5005 0.95892,12.5 -3.069,16 -3.089,12 -0.01562,4.75 -0.01562,4.75 h 22.121 z m -22.827,-107.62 -1.856,-0.73 -5.7033,-16.899 -0.08467,-3.2124 7.2251,-9.4625 1.6323,1.6749 0.64259,7 6,-0.4143 10,-0.33699 6.5,1.4783 0.1838,-2.727 0.1581,-2.9117 0.15811,-2.9117 2.3864,-0.8054 5.3303,8.0546 0.50267,8.2871 0.50268,8.2871 -4.722,4.338 -7.5,1.3845 v -3.2226 h -2 v -1.9904 l -3.206,-7.0048 -3.206,-7.0048 h -2.3371 l -4.1568,13.5 -0.62643,3.25 -0.62643,3.25 -3.3411,-0.1406 -1.856,-0.72999 z"
       fill="#2b292f"
       id="path40" />
    <path
       d="m 100.6242,845.8082 -3.6666,-4.25 -1.7527,-2.2583 -7.1264,-17.216 -4.2362,-16.343 1.2659,-9.5429 4.1763,-9.4412 -2.2265,-7.4315 v -11.049 l 5.1752,-19.719 -0.45007,-132.5 -0.45007,-132.5 -4.3752,-29 -2.9217,-9.9368 -1.2376,-16.101 4.9256,-5.9619 5.334,-7.9643 v -6.9282 l -5.03,-7.2582 -8.6858,-6.508 -1.2722,-16.341 -0.006,-3.1919 -0.006,-3.1919 9.3477,-2.6402 4.7885,-14.976 0.10726,-17 -2.3814,-5.993 -3.0288,-42.007 -0.92142,-0.92147 -8.0812,0.32226 -6.8306,2.2543 v 1.5239 l -4.6567,2.1217 -12.256,10.199 h -1.0363 l -3.1181,-6.0298 -5.7797,-16.47 -1.2862,-7.0208 2.0976,-5.5171 8.0516,-10.899 -0.64145,-8.345 -0.64145,-8.345 5.8954,-6.873 5.1142,-10 1.4093,-7 3.1192,-8.5 h 1.2826 l 6.4457,-5.8873 v -58.242 l 1.9883,-44.37 2.1713,-34 4.1384,-13 5.9935,-14 10.795,-19.327 1.4569,-1.2091 1.4569,-1.2091 v -2.4451 l 1.9168,-1.7347 1.9168,-1.7347 4.6664,2.3935 3.5626,4.2659 6.7982,10 2.1711,5 3.4787,6.5 3.4787,6.5 3.2753,10 1.7102,2.1747 1.0011,7.4127 1.0011,7.4127 2.2298,27 1.5753,56 0.10892,23.688 0.10893,23.688 8.7013,6.2488 3.6259,15.875 h 1.3527 l 2.6725,8.0978 2.167,1.4022 5.6678,8.7401 -0.68214,2.63 -0.68215,2.63 -0.49845,4.0774 -0.49846,4.0774 5.2942,7.8014 1.4205,1.0437 2.4593,5.5941 v 7.0202 l -2.2887,9.3856 -1.4467,2 -3.553,11 -2.4126,3.5181 -7.0641,-6.5181 -4.7349,-3.9952 -8.2198,-5.283 -9.5811,-2.0435 -1.2069,0.46313 -1.2069,0.46312 -1.0723,3.6978 -1.0723,3.6977 -2.3437,34 -2.0682,10 -0.0344,12 3.5214,15 1.8446,2.2778 8.5352,2.1492 -0.34269,9.7865 -0.34269,9.7865 -0.89654,4 -8.2423,6 -4.7714,6.9643 v 8.5357 h 2 v 2.5367 l 8,9.6811 v 6.0436 l -3.0899,20.239 -1.8822,4 -2.3418,12 -0.76364,282.17 4.4414,18.827 -0.1772,6 -2.5698,10.443 4.1606,8.5574 0.65906,3.763 0.65906,3.763 -1.1912,6.237 -1.1912,6.237 -0.70143,1 -0.70144,1 -1.3151,5 -1.3151,5 -6.6435,13.377 -7.727,8.1228 h -8.077 l -3.6666,-4.25 z m 12.924,-8.75 1.9547,-4.5 0.58437,-0.5 0.58438,-0.5 2.7023,-7 3.7091,-8.445 0.62661,-5.995 0.6266,-5.995 -1.2942,-4.7825 -1.2942,-4.7825 -1.5159,-2 -2.1738,-15.645 v -1.8553 h 5.0628 l 1.1722,-3.0548 -6.4293,-6.4452 0.12484,-81.25 0.12485,-81.25 -9.5554,0.018 -10.455,1.2558 -0.27265,81.113 -0.27265,81.113 -1.6912,3.0866 -1.6912,3.0866 3.9451,3.9451 -2.1241,18.751 -0.79425,1.0655 -0.79425,1.0655 -2.3714,8.3028 2.2348,10.697 1.7864,1.9 v 3.1564 l 7.0597,14.731 6.0972,7.6983 2.3785,-2.4859 z m 0.21374,-237.75 1.75,-2.75 2.0462,-1.4251 1.2015,-109.57 -0.44664,-0.57851 -20.549,1.5785 0.21414,54.939 0.21414,54.939 3.3656,2.5545 8,2.9098 2.4539,0.1578 1.75,-2.75 z m 2.0539,-118.03 2.2577,-1.7379 2.1208,-12.98 0.87589,-2 0.8759,-2 1.2266,-11 2.2158,-11 1.483,-2 0.34326,-4 0.34325,-4 -14,-1.1468 6.5,-0.35317 v -3.1238 l -4.8131,-10.376 -0.66548,-3.2162 -0.66547,-3.2162 4.4445,-13.158 4.0224,-2.1527 12.677,-9.1197 v -1.6371 l -17.5,-0.1896 -20,-2.5491 21.5,-0.26133 v -3.9216 l -1.0513,-10.289 -1.0513,-10.289 -1.7952,-4 -2.0343,-19.969 5.8216,-5.3172 -0.59307,-15.946 -0.59306,-15.946 6.2966,-13.327 v -2.3372 l -3.31,-3.6575 h -3 l 1.714,-1.8939 1.714,-1.8939 5.382,2.5883 14,5.9763 5,1.4928 1.0994,1.7003 6.6292,1.3258 -1.3802,-4.7957 5.0892,8 0.0724,2 4.8108,6 0.83963,-0.83261 0.83964,-0.83261 v -23.335 l -6.9648,-10 -1.5176,-1.9003 -1.5176,-1.9003 -3,-3.4193 -12.793,-13.13 2.7932,-2.7162 6.5,-4.5704 v -1.4934 l -6.7058,-3.1978 -1.2395,-6.3003 -1.2395,-6.3003 -6.4185,-12.072 1.7101,-10 -1.2378,-114.74 -0.81246,-1.6315 -0.81245,-1.6315 -1.6949,-8.9861 -1.6949,-8.986 -1.5462,-1.0279 -1.4689,-5.9893 -11.769,-24.207 -3.1189,-2.5884 -0.26267,0.3925 -0.26268,0.3925 -2.9268,4.362 -2.9268,4.362 -1.2596,2.138 -1.2597,2.138 -3.2609,7 -4.6057,10 -1.4178,7 -1.6157,2.0202 -3.1533,21.236 v 11.843 l -1.8812,1.9 -0.60611,44.5 -0.60611,44.5 1.6005,14 8.6521,-0.65277 -0.65912,4.6528 -8.6986,4.1759 -9.8014,11.486 v 1.4322 l 7.985,7.7971 -1.2425,0.78907 -1.2425,0.78906 -11,0.1214 10.606,9.6628 -8.1164,6.9473 -10.019,11.799 -2.6367,3 -6.589,11.689 1.3775,10.155 1.3775,10.155 1.9274,-0.23042 1.4505,-2.7696 5.1222,-11.376 v -2.1238 h 2.3711 l 4.3957,4.1295 16.733,-7.8584 7.4721,-2.4171 0.51492,-0.83317 0.51492,-0.83316 4.1085,1.0744 -6.436,5.373 5.5923,11.43 -0.03657,18.183 -0.03657,18.183 3.705,4.7101 1.3678,9.1214 -2.4064,17.202 -0.7811,1.0181 -0.78111,1.0181 -2.2978,11.834 v 9.9248 l -12.451,-1.4087 -2.049,-0.34966 0.59799,3.5449 5.7167,8.4551 9.1853,5.79 0.0124,2.21 3.24,6 -0.0971,5.3626 -0.0971,5.3626 -1.9044,2.2946 -1.412,12.48 h -6.5316 l -0.56666,3.75 -0.56667,3.75 -1.2956,7.5 h 3.9845 l 2.1327,14.5 3.1344,19 0.58473,1.8525 7.8825,2.4378 7,0.1652 2.2577,-1.7379 z"
       fill="#1d1b1e"
       id="path42" />
  </g>
</svg>
