<?xml version="1.0" encoding="UTF-8" standalone="no"?>
<svg id="svg4284" xmlns:rdf="http://www.w3.org/1999/02/22-rdf-syntax-ns#" xmlns="http://www.w3.org/2000/svg" height="278.61mm" viewBox="0 0 599.99999 987.19274" width="169.33mm" version="1.1" xmlns:cc="http://creativecommons.org/ns#" xmlns:xlink="http://www.w3.org/1999/xlink" xmlns:dc="http://purl.org/dc/elements/1.1/">
<defs id="defs4286">
<linearGradient id="linearGradient2338">
<stop id="stop2340" stop-color="#b1b1b1" offset="0"/>
<stop id="stop2342" stop-color="#e4e4e4" offset="1"/>
</linearGradient>
<linearGradient id="linearGradient3414" x1="42.471" xlink:href="#linearGradient3332" gradientUnits="userSpaceOnUse" y1="84.778" gradientTransform="translate(.86486 -.17297)" x2="42.36" y2="86.634"/>
<linearGradient id="linearGradient3332">
<stop id="stop3334" stop-color="#bb8f56" offset="0"/>
<stop id="stop3336" stop-color="#d1af63" offset="1"/>
</linearGradient>
<linearGradient id="linearGradient3418" x1="40.703" xlink:href="#linearGradient2338" gradientUnits="userSpaceOnUse" y1="78.326" gradientTransform="translate(.86486 -.17297)" x2="40.88" y2="83.408"/>
<linearGradient id="linearGradient3422" x1="40.835" xlink:href="#linearGradient2320" gradientUnits="userSpaceOnUse" y1="82.9" gradientTransform="translate(.86486 -.17297)" x2="41.476" y2="83.165"/>
<linearGradient id="linearGradient2320">
<stop id="stop2322" stop-color="#6a3c1d" offset="0"/>
<stop id="stop2324" stop-color="#8f5127" offset="1"/>
</linearGradient>
<linearGradient id="linearGradient4005" x1="45.432" xlink:href="#linearGradient2338" gradientUnits="userSpaceOnUse" y1="78.944" gradientTransform="translate(.86486 -.17297)" x2="45.166" y2="83.629"/>
<linearGradient id="linearGradient4009" x1="44.725" xlink:href="#linearGradient2320" gradientUnits="userSpaceOnUse" y1="83.32" gradientTransform="translate(.86486 -.17297)" x2="45.299" y2="83.629"/>
<linearGradient id="linearGradient4013" x1="41.476" xlink:href="#linearGradient3332" gradientUnits="userSpaceOnUse" y1="88.358" gradientTransform="translate(.86486 -.17297)" x2="42.603" y2="93.44"/>
<linearGradient id="linearGradient4017" x1="38.449" xlink:href="#linearGradient3332" gradientUnits="userSpaceOnUse" y1="98.213" gradientTransform="translate(.86486 -.17297)" x2="40.659" y2="93.705"/>
<linearGradient id="linearGradient4313" x1="21.6" gradientUnits="userSpaceOnUse" y1="94.364" gradientTransform="translate(.86486 -.17297)" x2="32.916" y2="74.991">
<stop id="stop3496" stop-color="#cf8d00" offset="0"/>
<stop id="stop3498" stop-color="#cea33e" offset="1"/>
</linearGradient>
</defs>
<g id="layer1" transform="translate(-909.1 908.29)">
<g id="g4326" transform="matrix(27.784 0 0 27.784 -2674.9 -1067.1)" fill-rule="evenodd">
<g id="g4282" transform="translate(101.09 -59.559)">
<path id="path3412" fill="url(#linearGradient3414)" d="m41.082 83.5 1.812 0.08839 2.2981 1.5026 0.22097 0.61872-1.4142 0.22097-2.0771-0.83969-0.88388-0.7955 0.04419-0.7955z"/>
<path id="path3424" fill-opacity=".15686" d="m41.082 83.5 1.812 0.08839 2.2981 1.5026 0.22097 0.61872-1.4142 0.22097-2.0771-0.83969-0.88388-0.7955 0.04419-0.7955z"/>
<path id="path3416" fill="url(#linearGradient3418)" d="m42.319 80.362-0.70711-2.0771-0.30936-0.13258-0.57452 4.4194 0.7955 1.4584 0.92808 0.04419 1.4584-1.0607 1.1932-4.2868-0.26516-0.13258-1.7236 1.9004l-0.795-0.13z"/>
<path id="path3420" fill="url(#linearGradient3422)" d="m41.391 84.517 0.97227-4.1543 0.92808 0.13258-1.1932 4.5962-0.70711-0.57452z"/>
<g id="g4898">
<path id="path4003" fill="url(#linearGradient4005)" d="m46.606 80.407-0.57452-2.3423-1.591 4.0217 0.70711 1.6352 1.1049 0.44194 1.149-0.57452 1.9004-3.9333-0.17678-0.26516-1.8562 1.4142-0.66291-0.39775z"/>
<path id="path4007" fill="url(#linearGradient4009)" d="m44.087 85.754 0.7955-1.5026 1.591-3.7565 0.7513 0.22097-2.0771 5.2591-1.0607-0.22097z"/>
<path id="path4011" fill="url(#linearGradient4013)" d="m40.905 84.031-1.6794 5.7894 0.70711 0.61872 1.4142 0.97227 1.7236 0.30936 2.3865-5.7452-2.0771-0.08839-1.6352-1.0607-0.83969-0.7955z"/>
<path id="path4015" fill="url(#linearGradient4017)" d="m39.225 90.262-1.812 7.3804 0.7955 1.37 1.0165 0.70711 1.4584-0.08839 2.5191-7.8666-2.1213-0.44194-1.8562-1.0607z"/>
</g>
<path id="path4311" fill="url(#linearGradient4313)" d="m30.652 100.52 0.30936-0.26516-1.2816-6.3198s-0.13258-5.3917-0.26516-5.9662c-0.13258-0.57452 0.35355-3.7123 0.35355-4.1101 0-0.39775 1.0165-3.9775 1.0165-3.9775l2.1655-4.1101 2.4307-3.0052 2.4749-2.1655 3.6681-2.3423 4.0217-2.0771 1.9003-0.7955-2.6516 0.39775-4.6846 1.8562-3.9775 2.74-2.7842 2.8284-2.7842 3.6239-1.149 2.5633-0.97227 3.4471-0.44194 3.7123 0.22097 5.0381 0.61872 3.1378 1.1932 4.1543 0.61872 1.6352z"/>
</g>
<path id="path3235-2" d="m147.12 5.9668c-5.6596 1.1248-10.725 4.6245-14.469 9.5938l-0.4375 0.625c-0.39444 0.55237-0.66308 1.1023-1.0242 1.6875-0.59999 1.4862-1.1816 2.9075-1.5071 4.2812l-0.0625 0.34375c-1.3476 6.0313-0.30675 11.094 1.1562 16.156l0.0625 0.1875c0.23309 0.80134 0.47493 1.6005 0.71875 2.4062l0.9375-0.3125c-0.10261-0.36467-0.18321-0.77469-0.28125-1.1562l5.0312-11.125 0.21875-0.40625 2.3438-5.1875 0.40625-0.90625 6.9062-15.188c0.0922-0.15027 0.15495-0.22005 0.34375-0.3125 0.48365-0.21478 0.95956-0.41141 1.375-0.625l-0.125-0.3125c-0.54522 0.039195-1.1756 0.17213-1.5938 0.25zm1.0312-0.0625c-0.32716 0.13242-0.64225 0.2971-0.96875 0.4375l-0.188 0.062487c-0.15875 0.06903-0.31037 0.14782-0.46875 0.21875l-0.31322 0.125c-5.8576 2.674-11.397 6.6526-13.938 12.125-2.5626 5.5205-2.3452 12.233-0.9375 19.562l0.4611 2.1505-0.67985-2.0567c-2.1164-7.108-2.5004-14.209 0.0937-19.719 2.5024-5.3147 8.1426-10.211 14.406-12.25l0.2812-0.078125c0.38377-0.1195 0.76868-0.23076 1.1562-0.32812l0.125-0.03125c0.32369-0.07918 0.64323-0.15578 0.96875-0.21875zm-1.4375 1.0938-6.7188 14.813-0.4375 0.96875-2.375 5.2188-0.1875 0.4375-4.9375 10.812c-1.1673-4.7549-1.8881-10.572-0.84375-15.5l0.0937-0.375c0.35019-1.5055 0.6644-2.9288 1.3956-4.1875 0.33572-0.68076 0.7018-1.3032 1.0625-1.9062l0.5625-0.90625c3.7981-5.7775 8.8239-7.8278 12.386-9.375zm0.125 11.344-1.3125 4.3438 0.5625 1.7812-0.21875 0.40625c-0.39265-0.3837-0.80627-0.66077-1.25-0.84375l0.53125-0.4375 1.25-4.375-0.5-0.3125-1.7812 1.9688-0.53125-0.15625-0.8125-2.1875-0.5625 0.09375-0.5 4.5312 0.40625 0.78125c-0.0313 0.0063-0.062-0.0064-0.0937 0-0.0325 0.0066-0.0611-0.007-0.0937 0 0.0224 0.03585 0.0404 0.05857 0.0625 0.09375l-0.1875 0.5625-0.21875 0.78125-1.5625 5 0.0625 0.71875-1.8125 7.2812c0.99579 1.7919 2.2203 2.4401 3.6875 1.875l1.9375-5.6875 0.25-0.65625 0.625-1.8438 0.625-1.7812 0.125-0.28125 1.4062-3.9688-0.21875-0.15625 0.53125-0.84375 0.0312-0.03125 0.0312-0.03125 1.3438-0.78125 1.9375-3.875c0-0.3125-0.00012-0.000004 0.002-0.35547-0.00053 0.01428-0.00084 0.0287-0.002 0.04297l-0.3125-0.28125-1.875 1.4062-0.53125-0.15625-0.4375-2.625h-0.53125zm-4.25 0.65625 0.65625 2.0312-0.65625 2.8125c-0.0294 0.0046-0.0645-0.0051-0.0937 0l-0.4375-0.78125 0.21875-2.3438 0.625 1.1562-0.4375-1.75zm4.4375 0.15625c0.0888 0.53717 0.2115 1.0917 0.375 1.6562h-0.0312l-1.0938 3.0938-0.375-1.25 0.625-2.25 0.4375 1.2188-0.15625-1.7812zm-1.125 0.25-0.28125 1.0938-1.0938 1.4375 1.0312-0.8125-0.6875 2.25-1 0.84375 0.75-3.2188h-0.0625zm4.2812 0.8125-0.5 1-1.3125 1.25 1.125-0.65625-1.0625 2.0938-0.9375 0.53125 1.0312-2.875zm-6.5938 0.84375h0.71875l-1.2188 4.2812c-0.1443-0.09631-0.27457-0.20071-0.40625-0.3125l0.125-0.5625-0.0312-0.0625zm4.2188 0.09375 0.3125 0.1875 0.0937 0.0625-2.0938 4.9062c-0.18834-0.0029-0.38112-0.03261-0.59375-0.0625l2-5c0.2813-0.09375 0 0 0.28125-0.09375zm-5.5 3.3438c0.0708 0.10931 0.14947 0.17934 0.21875 0.28125l0.0312 0.15625c-0.1044-0.09575-0.18846-0.206-0.28125-0.3125zm1.75 0c0.54953 0.1663 1.1038 0.47919 1.625 0.8125l-0.46875 0.90625c-0.54308-0.10633-1.1147-0.30924-1.6562-0.59375l0.1875-0.84375zm-1.875 0.53125c0.77532 1.3717 2.3452 1.7916 3.7812 1.7812 0.0105-0.000076 0.0208 0.000118 0.0312 0l-1.9062 5c-1.3647 0.26274-2.3412-0.40438-3.25-1.2812v-0.03125l-0.0625-0.03125zm-1.5 6.0625c0.94118 0.67701 1.9114 1.3112 3.2188 1.5l-0.125 0.09375-2.0312 7.1875c-1.8102 0.62294-2.1538-0.77341-2.8438-1.7188z"/>
</g>
</g>
</svg>
