<?xml version="1.0" encoding="UTF-8" standalone="no"?>
<!-- Created with Inkscape (http://www.inkscape.org/) -->

<svg
   width="12.612156mm"
   height="29.753662mm"
   viewBox="0 0 12.612155 29.753662"
   version="1.1"
   id="svg2269"
   inkscape:version="1.1.2 (0a00cf5339, 2022-02-04)"
   sodipodi:docname="item387.svg"
   xmlns:inkscape="http://www.inkscape.org/namespaces/inkscape"
   xmlns:sodipodi="http://sodipodi.sourceforge.net/DTD/sodipodi-0.dtd"
   xmlns="http://www.w3.org/2000/svg"
   xmlns:svg="http://www.w3.org/2000/svg">
  <sodipodi:namedview
     id="namedview2271"
     pagecolor="#ffffff"
     bordercolor="#666666"
     borderopacity="1.0"
     inkscape:pageshadow="2"
     inkscape:pageopacity="0.0"
     inkscape:pagecheckerboard="0"
     inkscape:document-units="mm"
     showgrid="false"
     fit-margin-top="0"
     fit-margin-left="0"
     fit-margin-right="0"
     fit-margin-bottom="0"
     inkscape:zoom="0.48996914"
     inkscape:cx="23.470866"
     inkscape:cy="57.146457"
     inkscape:window-width="1366"
     inkscape:window-height="719"
     inkscape:window-x="0"
     inkscape:window-y="25"
     inkscape:window-maximized="1"
     inkscape:current-layer="layer1" />
  <defs
     id="defs2266" />
  <g
     inkscape:label="Capa 1"
     inkscape:groupmode="layer"
     id="layer1"
     transform="translate(-94.91837,-134.31574)">
    <g
       id="g7335"
       transform="matrix(0.04642234,0,0,0.04642234,47.422146,-8.6818673)">
      <g
         id="g5181"
         transform="matrix(0.39669855,0,0,0.39669855,627.07422,3047.7223)">
        <path
           sodipodi:nodetypes="ccccc"
           inkscape:connector-curvature="0"
           id="path5183"
           d="M 1338.6934,718.37109 1008.8223,409.67383 1144.957,1561.4043 1344.1602,1689.3848 Z"
           style="opacity:1;fill:#ffcc00;fill-opacity:1;stroke:none;stroke-width:4;stroke-miterlimit:4;stroke-dasharray:none;stroke-opacity:1" />
        <path
           id="path5185"
           d="M 1339.3301,831.30664 A 291.2635,636.24702 12.427489 0 1 1113.334,1293.8633 l 31.623,267.541 199.2032,127.9805 z"
           style="opacity:0.248;fill:#d4aa00;fill-opacity:1;stroke:none;stroke-width:4;stroke-miterlimit:4;stroke-dasharray:none;stroke-opacity:1"
           inkscape:connector-curvature="0" />
        <path
           sodipodi:nodetypes="cccccc"
           inkscape:connector-curvature="0"
           id="path5187"
           d="m 1338.6934,718.37109 5.4668,971.01371 v 0 l 199.2011,-130.6192 129.3809,-1153.4863 z"
           style="opacity:1;fill:#ffdd55;fill-opacity:1;stroke:none;stroke-width:4;stroke-miterlimit:4;stroke-dasharray:none;stroke-opacity:1" />
        <path
           sodipodi:nodetypes="ccccc"
           inkscape:connector-curvature="0"
           style="opacity:0.856;fill:#ffd42a;fill-opacity:1;stroke:none;stroke-width:4;stroke-miterlimit:4;stroke-dasharray:none;stroke-opacity:1"
           d="m 1339.3301,831.30664 c 45.1005,193.83996 138.389,365.00606 235.6563,462.55666 l -31.623,267.541 -199.2032,127.9805 z"
           id="path5189" />
        <path
           id="path5191"
           d="M 1338.6934,92.185547 1008.8223,409.67383 1338.6934,718.37109 1672.7422,405.2793 Z"
           style="opacity:1;fill:#ffcc00;fill-opacity:1;stroke:none;stroke-width:4;stroke-miterlimit:4;stroke-dasharray:none;stroke-opacity:1"
           inkscape:connector-curvature="0" />
        <path
           id="path5193"
           d="m 1171.8633,252.75195 -163.041,156.92188 329.8711,308.69726 z"
           style="opacity:1;fill:#ffdd55;fill-opacity:1;stroke:none;stroke-width:4;stroke-miterlimit:4;stroke-dasharray:none;stroke-opacity:1"
           inkscape:connector-curvature="0" />
        <path
           sodipodi:nodetypes="ccccc"
           inkscape:connector-curvature="0"
           id="path5195"
           d="m 1506.6504,249.60547 -168.457,-45.31103 -166.3301,48.45751 166.8301,465.61914 z"
           style="opacity:1;fill:#ffd42a;fill-opacity:1;stroke:none;stroke-width:4;stroke-miterlimit:4;stroke-dasharray:none;stroke-opacity:1" />
        <path
           sodipodi:nodetypes="ccccc"
           inkscape:connector-curvature="0"
           id="path5197"
           d="m 1338.6934,92.185547 -166.8301,160.566403 166.3301,-48.45751 168.457,45.31103 z"
           style="opacity:1;fill:#ffdd55;fill-opacity:1;stroke:none;stroke-width:4;stroke-miterlimit:4;stroke-dasharray:none;stroke-opacity:1" />
        <path
           id="path5199"
           d="M 1506.6504,249.60547 1338.6934,718.37109 1672.7422,405.2793 Z"
           style="opacity:1;fill:#ffe680;fill-opacity:1;stroke:none;stroke-width:4;stroke-miterlimit:4;stroke-dasharray:none;stroke-opacity:1"
           inkscape:connector-curvature="0" />
        <path
           style="opacity:1;fill:none;fill-opacity:1;stroke:#2b2200;stroke-width:14.3673;stroke-miterlimit:4;stroke-dasharray:none;stroke-opacity:1"
           d="M 1338.6934,92.185547 1008.8223,409.67383 1338.6934,718.37109 1672.7422,405.2793 Z"
           id="path5201"
           inkscape:connector-curvature="0" />
        <path
           sodipodi:nodetypes="ccccc"
           inkscape:connector-curvature="0"
           id="path5203"
           d="m 1342.2648,1364.9785 c -112.1072,46.162 -151.4282,122.6607 -197.3078,196.4258 v 0 l 198.4746,-1.3145 z"
           style="opacity:0.27;fill:#ffd42a;fill-opacity:1;stroke:none;stroke-width:4;stroke-miterlimit:4;stroke-dasharray:none;stroke-opacity:1" />
        <path
           sodipodi:nodetypes="ccccc"
           inkscape:connector-curvature="0"
           id="path5205"
           d="m 1342.2648,1364.9785 1.1668,195.1113 199.9297,-1.3242 v 0 c -67.0773,-117.0433 -134.0882,-156.9787 -201.0965,-193.7871 z"
           style="opacity:0.27;fill:#ffcc00;fill-opacity:1;stroke:none;stroke-width:4;stroke-miterlimit:4;stroke-dasharray:none;stroke-opacity:1" />
        <path
           sodipodi:nodetypes="ccccc"
           inkscape:connector-curvature="0"
           id="path5207"
           d="m 1343.4316,1560.0898 c -82.7071,-32.3153 -139.0708,-12.5292 -198.4746,1.3145 l 193.7364,124.4687 5.4668,3.5118 z"
           style="opacity:0.27;fill:#ffeeaa;fill-opacity:1;stroke:none;stroke-width:4;stroke-miterlimit:4;stroke-dasharray:none;stroke-opacity:1" />
        <path
           sodipodi:nodetypes="cccc"
           inkscape:connector-curvature="0"
           id="path5209"
           d="m 1343.4316,1560.0898 0.7286,129.295 199.2011,-130.6192 c -64.7495,-9.9741 -127.928,-28.5889 -199.9297,1.3242 z"
           style="opacity:0.27;fill:#fff6d5;fill-opacity:1;stroke:none;stroke-width:4;stroke-miterlimit:4;stroke-dasharray:none;stroke-opacity:1" />
        <path
           sodipodi:nodetypes="cc"
           inkscape:connector-curvature="0"
           id="path5211"
           d="m 1338.6934,718.37109 5.4668,971.01371"
           style="fill:none;fill-rule:evenodd;stroke:#2b2200;stroke-width:14.3673;stroke-linecap:butt;stroke-linejoin:miter;stroke-opacity:1" />
        <rect
           transform="matrix(0.98769702,0.15637964,-0.11179316,0.9937315,0,0)"
           ry="23.200834"
           y="444.7272"
           x="1638.7396"
           height="453.92935"
           width="37.731972"
           id="rect5213"
           style="opacity:0.726;fill:#fff6d5;fill-opacity:1;stroke:none;stroke-width:4;stroke-miterlimit:4;stroke-dasharray:none;stroke-opacity:1" />
        <path
           inkscape:connector-curvature="0"
           id="path5215"
           d="m 1615.8816,576.0342 a 13.571428,12.857142 0 0 0 -12.7832,8.58398 27.142857,42.323605 4.6052058 0 0 -7.8243,-2.51758 27.142857,42.323605 4.6052058 0 0 -30.4531,40.00782 27.142857,42.323605 4.6052058 0 0 23.6582,44.36523 27.142857,42.323605 4.6052058 0 0 30.4531,-40.00781 27.142857,42.323605 4.6052058 0 0 -3.0293,-24.71875 13.571428,12.857142 0 0 0 13.5489,-12.85547 13.571428,12.857142 0 0 0 -13.5703,-12.85742 z"
           style="opacity:0.726;fill:#fff6d5;fill-opacity:1;stroke:none;stroke-width:4;stroke-miterlimit:4;stroke-dasharray:none;stroke-opacity:1" />
        <path
           id="path5217"
           d="m 1338.6934,92.185547 -329.8711,317.488283 136.1347,1151.73047 193.7364,124.4687 5.4668,3.5118 199.2011,-130.6192 129.3809,-1153.4863 z"
           style="opacity:1;fill:none;fill-opacity:1;stroke:#2b2200;stroke-width:14.3673;stroke-miterlimit:4;stroke-dasharray:none;stroke-opacity:1"
           inkscape:connector-curvature="0" />
      </g>
    </g>
  </g>
</svg>
