<?xml version="1.0" encoding="UTF-8" standalone="no"?>
<svg
   xmlns:dc="http://purl.org/dc/elements/1.1/"
   xmlns:cc="http://creativecommons.org/ns#"
   xmlns:rdf="http://www.w3.org/1999/02/22-rdf-syntax-ns#"
   xmlns:svg="http://www.w3.org/2000/svg"
   xmlns="http://www.w3.org/2000/svg"
   width="97.457832mm"
   height="98.607529mm"
   viewBox="0 0 345.32303 349.39675"
   id="svg4298"
   version="1.1">
  <title
     id="title3343">Candle</title>
  <defs
     id="defs4300" />
  <metadata
     id="metadata4303">
    <rdf:RDF>
      <cc:Work
         rdf:about="">
        <dc:format>image/svg+xml</dc:format>
        <dc:type
           rdf:resource="http://purl.org/dc/dcmitype/StillImage" />
        <dc:title>Candle</dc:title>
        <dc:source>Frazier, Julius Leroy. Modern Type Display: A Manual in the Selection and Use of Type &amp; Ornament for Printers &amp; Advertisers. Chicago Illinois, 1920. https://books.google.com/books?id=bNsWAAAAIAAJ. Page 63, Fig. 7.
</dc:source>
        <dc:date>2016-03-06</dc:date>
        <dc:creator>
          <cc:Agent>
            <dc:title>mazeo</dc:title>
          </cc:Agent>
        </dc:creator>
        <dc:description>Burning candle in a candleholder, emitting rays of light </dc:description>
        <dc:contributor>
          <cc:Agent>
            <dc:title>mazeo, J. L. Frazier</dc:title>
          </cc:Agent>
        </dc:contributor>
        <dc:publisher>
          <cc:Agent>
            <dc:title>openclipart.org</dc:title>
          </cc:Agent>
        </dc:publisher>
        <dc:language>en</dc:language>
        <dc:subject>
          <rdf:Bag>
            <rdf:li>candle</rdf:li>
            <rdf:li>candleholder</rdf:li>
            <rdf:li>flame</rdf:li>
            <rdf:li>light</rdf:li>
            <rdf:li>burning</rdf:li>
            <rdf:li>illumination</rdf:li>
            <rdf:li>light rays</rdf:li>
            <rdf:li>wax</rdf:li>
            <rdf:li>melting</rdf:li>
            <rdf:li>bright</rdf:li>
            <rdf:li>shining</rdf:li>
            <rdf:li>dripping</rdf:li>
          </rdf:Bag>
        </dc:subject>
        <cc:license
           rdf:resource="http://creativecommons.org/publicdomain/zero/1.0/" />
      </cc:Work>
      <cc:License
         rdf:about="http://creativecommons.org/publicdomain/zero/1.0/">
        <cc:permits
           rdf:resource="http://creativecommons.org/ns#Reproduction" />
        <cc:permits
           rdf:resource="http://creativecommons.org/ns#Distribution" />
        <cc:permits
           rdf:resource="http://creativecommons.org/ns#DerivativeWorks" />
      </cc:License>
    </rdf:RDF>
  </metadata>
  <g
     id="layer1"
     transform="translate(-101.73802,-429.7011)">
    <path
       style="fill:#000000"
       d="m 314.86302,777.58242 c -56.48542,-1.05337 -112.96881,-0.734 -169.45502,-0.54118 c -18.96033,5.5293 -21.40011,-12.93851 -31.66328,-22.95773 c -20.281723,-6.81054 -1.935,-24.71551 10.01333,-29.57644 c 39.22173,-3.28525 78.75053,-0.061 118.04102,-2.38776 c 10.04417,-12.73104 1.62765,-36.69797 3.71102,-53.53553 c -0.36974,-11.46432 -0.80681,-22.92631 -1.21997,-34.38911 c -10.95947,-6.63464 -15.12284,-25.03021 3.4597,-21.65801 c 3.96413,-9.59654 5.72094,-27.71808 -2.26181,-35.79705 c -6.40032,-9.24264 -8.44618,-22.48695 -1.61719,-32.53516 c 6.96352,-10.55705 -1.9898,-42.97599 18.19149,-35.02677 c 16.50289,3.60688 21.95962,-19.99192 32.57737,-20.88613 c 2.9403,28.51646 1.29363,57.45295 1.92034,86.16062 c 0.0671,12.84581 0.13421,25.69163 0.20132,38.53744 c 12.44136,-2.39462 26.90926,5.23381 11.5392,16.24385 c -11.86475,13.94698 -1.02565,35.15927 -4.17277,52.14903 c 3.23698,14.43185 -8.9009,45.63661 15.0676,41.24559 c 36.25339,1.32134 72.627,-0.42051 108.81713,2.05774 c 10.80659,3.93543 30.46528,24.74673 10.37784,30.73226 c -10.90749,7.94503 -10.49424,28.22339 -29.36948,22.75741 c -31.38566,0.3288 -62.77385,-0.29836 -94.15784,-0.59307 z"
       id="path4429" />
    <path
       id="path4415"
       style="fill:#916f6f"
       d="m 297.85582,626.8631 c 9.20479,-9.29182 -17.34368,-3.21 -23.6178,-5.12349 c -8.48271,-0.12114 -39.86124,-1.76332 -19.05143,8.34418 c 12.90901,0.75545 25.85907,0.27083 38.78704,0.40582 c 1.29406,-1.20884 2.58813,-2.41767 3.88219,-3.62651 z m -7.06774,14.18561 c 8.12343,-4.75131 -18.17985,-2.51743 -23.29497,-2.98085 c -22.05489,1.84675 9.39479,4.76401 16.54766,3.41676 c 2.25228,-0.0722 4.51374,-0.0939 6.74731,-0.43591 z m 3.44994,47.04314 c -1.86314,-15.51126 7.83002,-45.54007 -18.22767,-39.04483 c -14.27088,-3.24355 -23.37784,4.22574 -20.3637,18.76436 c 0.72933,17.74836 -3.1358,38.15749 3.00407,54.16691 c 11.77304,1.64008 23.72803,0.72722 35.5873,1.01127 c 0,-11.63254 0,-23.26534 0,-34.89771 z m 134.80271,52.54615 c 2.94565,-8.34185 -8.13986,-6.34716 -13.41177,-6.39839 c -93.4443,0.26159 -186.90132,-0.66308 -280.33532,0.68972 c -8.98379,-1.90327 -22.0643,5.74086 -5.90615,4.77887 c 97.78299,1.52701 195.59283,-0.005 293.37519,1.38992 c 1.8624,1.31028 4.49269,0.25916 6.27805,-0.46012 z m -12.53091,25.61765 c 5.72144,-6.83857 14.90888,-18.20864 -1.69758,-15.58863 c -67.7462,-0.90562 -135.49943,-1.48121 -203.24695,-2.22167 c -16.00596,-0.0406 -31.06342,1.1145 -47.30069,1.99506 c -9.45087,2.10739 -34.004,-4.02798 -34.40158,4.24563 c 5.73705,17.57948 25.49973,11.79607 40.36289,12.62758 c 82.0923,-0.0403 164.20314,0.23271 246.28391,-1.05797 z" />
    <g
       id="g4974"
       transform="translate(-12,-3)">
      <path
         id="path4421"
         d="m 273.35858,701.62136 c 0.99073,-13.44202 -13.38953,-26.06479 -0.81902,-36.9322 c -2.31318,-13.86455 10.57914,-10.39026 8.83395,2.19054 c 15.84653,12.11066 -6.20625,22.46689 -0.88654,37.32672 c 4.05422,11.51074 -8.50233,15.09482 -6.72439,1.85567 l -0.1925,-2.07813 l -0.2115,-2.3626 l 0,0 z"
         style="fill:#ff2a2a;fill-opacity:1;stroke:#000000;stroke-width:3;stroke-miterlimit:4;stroke-dasharray:none" />
      <path
         id="path4419"
         d="m 280.48802,679.23961 c 8.30195,-8.03364 -14.22378,-9.22394 -4.15838,2.10613 c 1.57584,1.04215 4.31064,0.0579 4.15838,-2.10613 z"
         style="fill:#000000" />
    </g>
    <path
       style="fill:#ff2a2a;fill-opacity:1"
       d="m 287.98802,560.48961 c -0.28844,-17.49105 0.48019,-35.07596 -1.19319,-52.5 c -9.34975,13.36907 -37.28361,1.9065 -31.63343,25.32154 c -3.07883,11.01778 -12.29329,33.86142 0.84938,38.91972 c 3.5676,-7.10567 1.16258,-28.57463 6.62068,-10.46242 c 5.8792,7.55659 -12.07276,30.74814 2.07258,23.90687 c 3.79006,-16.35059 0.48245,-34.1076 -3.05536,-50.35247 c 2.16198,-12.56195 8.34081,12.72298 8.83925,17.66676 c 0.55549,14.31641 5.67944,32.90272 -5.625,44.0811 c -6.22442,4.64298 -7.76703,20.1931 3.46313,15.9189 c 6.55396,0 13.10791,0 19.66187,0 c 6e-5,-17.49997 -1.2e-4,-35.00018 9e-5,-52.5 z"
       id="path4413" />
    <path
       style="fill:#ffff00;stroke:#808000;stroke-width:3;stroke-miterlimit:4;stroke-dasharray:none"
       d="m 266.09681,496.37956 c -9.41246,-14.16214 -11.2069,-33.00295 -2.68991,-48.03177 c 2.59552,-7.22305 -0.66374,-23.57883 11.36862,-14.42068 c 9.18764,10.05881 14.3908,24.8452 8.57969,37.84766 c -3.48725,6.94497 -4.69208,31.5626 -17.2584,24.60479 z"
       id="path4387" />
    <path
       style="fill:#ff6600"
       d="m 271.73802,477.36461 c 9.65759,-6.48977 2.47666,-39.8198 -3.75,-17.5 c -2.80861,3.52532 -0.85101,22.62356 3.75,17.5 z"
       id="path4385" />
    <path
       id="path4379"
       style="fill:#ffff00"
       d="m 305.13698,448.8778 c 5.76049,-9.76973 24.93942,-6.19576 36.27291,-9.24252 c 33.15107,-5.18439 66.96672,-5.89766 100.46483,-5.12292 c 7.45065,3.24603 -17.29252,4.86953 -22.57949,5.88351 c -14.36607,2.61488 -29.19654,2.2671 -43.65951,5.25216 c -22.89685,1.2004 -45.81568,2.57702 -68.63905,4.57325 l -1.22104,-0.44706 l -0.63865,-0.89642 l 0,0 z m 97.85104,20.36181 c -28.70434,-2.59831 -57.60784,-5.13683 -86.3763,-7.84015 c -20.49385,-5.6852 12.66926,-4.44397 19.52877,-4.65461 c 18.74249,-1.11395 37.06116,1.8789 55.62433,3.1354 c 16.20165,3.2194 41.79803,-2.37307 52.04043,9.51707 c -13.25226,1.98042 -27.48047,1.3181 -40.81723,-0.15771 z m 33.75,41.25 c -12.37404,-4.85833 -27.05742,-6.32348 -38.78516,-12.13281 c -12.89637,-2.1039 -25.33919,-9.07475 -37.46484,-12.86719 c -12.9178,-4.47279 -27.45071,-9.24743 -39.66797,-14.63281 c -13.19475,-1.30988 -9.8431,-10.52344 2.4563,-4.00519 c 15.51548,4.1549 30.6587,7.96034 46.40674,12.98543 c 13.17388,3.87091 24.96679,7.88267 38.01534,12.51369 c 11.81664,4.13899 21.89913,8.49064 33.12169,13.36282 c 9.35289,4.16917 2.04569,8.52197 -4.0821,4.77606 z m -1.25,45 c -8.83256,-4.9673 -17.06428,-12.26606 -26.14584,-16.25 c -12.71963,-8.84823 -26.55174,-16.21145 -39.58854,-24.7081 c -11.79087,-4.26136 -21.53927,-14.98437 -33.15673,-20.96557 c -7.85362,-7.71925 -24.41523,-9.63776 -25.54639,-19.87321 c 9.74737,1.53776 21.43463,8.46444 29.90006,14.8125 c 10.06771,4.24533 17.76074,10.34978 27.03744,14.48438 c 10.03756,6.21186 19.00865,13.57504 29.44141,19.08411 c 9.25347,5.71881 18.35638,13.39574 28.05859,18.41589 c 3.44078,4.01068 24.08411,14.69024 17.23094,17.5 c -2.60384,0.0476 -5.55105,-0.14362 -7.23094,-2.5 z m -0.68373,54.59691 c -21.25201,-17.83585 -38.91209,-39.73158 -60.51397,-57.09691 c -11.13634,-14.13151 -27.32869,-24.57477 -38.10519,-39.46224 c -11.6717,-8.74206 -20.22578,-20.97091 -30.69711,-31.09728 c 13.28839,2.06331 24.47532,16.2076 34.97263,25.58104 c 11.03059,9.77229 23.61364,18.42884 32.49837,30.29098 c 12.60138,8.79054 22.03724,22.72867 33.779,32.20093 c 10.40338,12.82401 22.8931,23.93999 33.125,36.92736 c 12.05032,10.55058 1.41229,9.82827 -5.05873,2.65612 z m -50.56627,102.97686 c -3.9548,-12.51527 -13.13862,-23.56545 -16.61719,-36.6558 c -6.64812,-9.80415 -8.67992,-23.75614 -15.51562,-33.08594 c -3.3056,-10.55829 -9.51018,-21.05613 -12.86719,-31.58203 c -5.30738,-10.68539 -8.46328,-24.0722 -14.63281,-34.66797 c -3.32946,-11.80511 -10.70324,-23.05871 -14.11719,-34.60287 c -4.02689,-7.29597 -12.27967,-35.52722 -1.25,-16.97911 c 5.30953,10.14423 11.40438,22.1245 16.25,32.5 c 5.71307,12.8162 11.49755,26.50487 17.09476,39.17996 c 5.40393,11.72091 11.01966,21.52077 14.78663,33.47559 c 7.47558,10.79735 9.15227,22.93393 14.83191,34.72027 c 5.01181,13.41529 10.63875,24.94676 14.52829,38.43351 c 2.43748,3.25219 4.92834,18.00211 -2.49159,9.26439 z m -41.25,-0.69877 c -4.71803,-13.73114 -7.8743,-27.92837 -11.94386,-42.5 c -4.5217,-15.08916 -7.01965,-30.00398 -10.152,-45.47238 c -4.49867,-16.00254 -9.34088,-31.54033 -10.76872,-47.96512 c -1.8097,-7.2923 -9.761,-23.24671 -4.61612,-27.17718 c 6.27756,12.71006 8.48688,26.39819 13.59239,39.9579 c 4.60675,14.6939 7.31081,28.93343 12.40693,43.34111 c 3.9301,14.92539 8.1559,28.91589 10.50688,44.07762 c -1.42917,11.28579 13.46634,34.88647 1.52962,38.14805 l -0.55512,-2.41 z m 94.79964,13.125 c -6.52378,-10.57846 -14.55876,-20.39458 -21.09535,-31.25558 c -6.79262,-9.62475 -11.16108,-20.33594 -18.34409,-29.4788 c -3.67051,-9.98917 -12.17024,-18.89827 -16.6102,-28.8065 c -7.24611,-11.92505 -14.07084,-22.80746 -20.4405,-34.72656 c -7.13041,-11.65154 -12.43677,-22.54763 -21.122,-33.36157 c -5.62274,-10.07695 -10.80738,-20.30557 -17.70313,-29.28059 c -5.71768,-13.01933 -12.5798,-24.22294 -20.06089,-36.07986 c 0.17139,-8.50331 -0.1796,-18.55764 8.96719,-7.47794 c 9.31947,13.32621 20.88685,25.34855 31.89299,37.55179 c 10.19321,12.36299 20.01918,24.93956 29.23904,37.70458 c 9.5474,10.67377 16.74861,22.77012 25.4773,34.10475 c 9.19879,9.94521 14.89973,21.31232 23.89844,31.57588 c 7.18782,11.15081 15.13602,20.56893 21.7661,31.58447 c 2.67526,14.63779 -15.3883,-8.64499 -18.04769,-13.78813 c -10.17708,-12.83798 -19.41778,-26.513 -30.11685,-38.895 c -9.96579,-10.9671 -15.67724,-23.65305 -26.05817,-34.12126 c -6.12066,-9.92445 -14.1559,-19.81204 -22.1242,-29.33937 c -9.03183,-13.59669 -20.03129,-25.69901 -29.54296,-39.0997 c -4.11737,-9.59814 -14.01908,-11.72027 -5.98951,-1.00514 c 9.23187,10.53094 15.23342,21.73671 23.13696,33.093 c 7.36673,8.79704 12.76726,19.51859 18.96069,29.15231 c 5.77874,9.92602 13.37077,20.14563 19.08392,30.792 c 7.7602,9.21634 11.54782,18.84274 17.53327,29.38178 c 7.08802,10.12599 14.63215,20.47512 19.0561,31.04107 c 8.42685,10.40419 12.79472,21.46656 20.09085,32.37924 c 3.28104,11.31405 16.8766,20.38953 15.0154,31.8213 c -2.76958,0.97977 -6.13969,-0.30931 -6.86271,-3.46617 z" />
    <path
       id="path4374"
       style="fill:#ffff00"
       d="m 206.73802,447.79336 c -21.38535,-1.54758 -43.13858,-0.7975 -64.13651,-4.71301 c -12.65474,-1.82184 -35.2041,1.96851 -40.46607,-10.2741 c 18.57901,-3.9318 37.06236,2.59629 55.72172,2.8682 c 27.32328,3.24792 54.85881,4.42718 82.1698,7.58893 c 1.2215,9.99389 -24.67358,3.49905 -33.28894,4.52998 z m -105,19.77108 c 10.41107,-7.23346 28.39793,-2.72779 41.75855,-5.42681 c 25.17017,-2.59361 50.68455,-1.14464 75.74145,-4.19629 c 8.99783,-6.10304 22.93762,5.30405 5.66764,5.95337 c -40.58462,7.5316 -82.07906,5.61794 -123.16764,6.66275 c 0,-0.99767 0,-1.99535 0,-2.99302 z m 5.01914,31.98767 c 12.67268,-10.97092 32.42999,-8.29229 47.48086,-14.19379 c 15.27693,-1.80719 29.40751,-7.78964 45,-9.94693 c 8.61912,0.0666 31.91416,-10.45888 31.7076,-1.52435 c -13.63306,5.75746 -28.55245,9.53493 -42.7076,12.85257 c -14.61958,3.5638 -30.0261,6.67877 -44.40234,10.91979 c -12.20909,1.88871 -24.49188,4.52177 -37.07852,1.89271 z m -2.51914,84.89872 c 8.80018,-12.20118 24.46609,-20.4144 37.02097,-29.32841 c 9.15101,-8.72031 21.08717,-15.45442 30.914,-24.00781 c 12.23489,-9.28665 23.99494,-17.31434 35.59392,-26.91441 c 6.57018,-3.09696 29.98533,-19.94388 10.37313,-11.08394 c -12.4854,5.25447 -24.04715,11.55603 -37.25614,16.49054 c -11.41363,7.06123 -26.9676,12.90395 -40.39588,17.13281 c -11.64927,3.38015 -23.09235,10.80182 -34.94691,12.04633 c 0.54401,-11.57165 20.88015,-12.76896 30.36821,-18.4726 c 13.04244,-5.51662 25.23846,-9.99683 38.18691,-15.88811 c 11.30508,-4.93635 21.3836,-8.69973 32.1138,-14.63484 c 6.71561,-0.69619 26.38323,-14.00139 24.27799,-4.30078 c -6.3538,4.12126 10.20883,6.54387 -1.8278,10.82617 c -16.98266,14.05325 -33.85888,28.0203 -50.97405,41.82397 c -13.18245,8.75387 -24.42071,20.30883 -38.44815,27.48537 c -10.72145,5.54564 -19.28952,15.77595 -30,21.11449 c -1.25704,2.55508 -6.42725,1.12252 -5,-2.28878 z m 93.75,128.61255 c 3.50561,-13.91768 6.48657,-27.9157 10.75317,-42.06225 c 2.23733,-15.86489 8.22955,-29.61839 11.16444,-45.2394 c 2.66027,-15.69409 8.32835,-29.81863 12.75528,-44.44142 c 6.66836,-13.21355 1.90964,15.63501 0.73177,20.18513 c -4.92582,15.74902 -6.53723,31.71773 -10.51322,47.85263 c -2.488,13.34329 -5.85933,26.24668 -10.38586,38.52058 c -3.59785,5.24757 -7.66594,32.32957 -14.50558,25.18473 z m -44.04352,1.71604 c 2.23354,-14.62036 10.77783,-24.9909 15.05134,-38.77936 c 6.89018,-11.79704 11.00631,-25.41173 16.49218,-38.01045 c 5.51487,-10.8131 10.09442,-24.53785 16.25,-35 c 4.26473,-11.97538 11.33867,-23.57306 15.36719,-35.51563 c 5.34625,-9.04815 9.06135,-20.21915 13.38281,-29.48437 c 4.17909,-9.52408 9.26847,-20.35436 14.23395,-29.60645 c 6.20937,10.56178 -8.6626,26.66152 -11.1474,39.50196 c -4.16999,12.98845 -9.47221,24.86067 -14.66412,38.26993 c -4.54667,10.9628 -9.18587,20.21144 -13.65031,31.59409 c -4.51901,11.18191 -9.14674,22.80811 -14.77212,33.99047 c -4.47325,9.32126 -8.29182,19.58962 -14.63281,28.23437 c -4.96231,9.99637 -9.8013,20.11744 -15.80387,30.75893 c -1.4681,1.58969 -3.56327,6.32634 -6.10684,4.04651 z m -52.20648,10.95939 c 6.14375,-13.09772 13.30807,-26.2542 21.2635,-38.48272 c 6.45382,-11.15898 11.44289,-20.83557 18.31276,-31.2135 c 6.41502,-13.22728 15.54288,-25.96581 22.9128,-38.08814 c 7.64778,-12.91598 15.71539,-24.12471 23.76094,-37.5124 c 9.68276,-11.7162 15.19152,-24.23525 23.75,-36.41944 c 7.55251,-9.61019 13.58222,-21.3235 20.88281,-30.51738 c -2.31797,-8.69015 -17.24823,14.18445 -22.12702,19.86467 c -8.84286,9.5146 -16.36775,20.63282 -26.31489,30.23773 c -11.616,13.14513 -23.48046,26.02302 -35.51817,38.80986 c -11.99823,13.04619 -25.14253,25.75435 -37.22684,39.15222 c -12.151593,11.89714 -4.27435,-12.62414 3.74804,-15.50318 c 10.59189,-12.45189 21.89856,-24.29115 32.80607,-36.41352 c 12.7738,-16.84173 28.99127,-30.89065 41.95905,-47.45455 c 12.02039,-8.09003 19.75032,-22.84634 31.32952,-31.19323 c 2.67362,-8.72641 20.81171,-19.65675 12.12307,-3.7459 c 3.00604,1.23702 11.06297,-8.20031 7.91933,3.42955 c -7.68892,9.66495 -11.78906,21.17339 -18.91804,31.12948 c -6.63394,11.08039 -13.66328,21.8202 -19.41293,33.61849 c -6.10724,9.74241 -12.74867,19.39802 -18.76258,29.11526 c -8.57808,11.24241 -13.42343,22.78431 -21.83403,34.17781 c -4.38657,8.81849 -11.40287,17.92365 -15.65339,26.75969 c -5.64564,8.71966 -11.47423,17.81758 -15.28369,26.94922 c -9.86012,10.3073 -16.24165,28.74356 -28.98194,34.00679 l -0.73437,-0.70681 l 0,0 z" />
  </g>
</svg>
