<?xml version="1.0" encoding="UTF-8" standalone="no"?>
<!-- Creator: CorelDRAW -->

<svg
   xmlns:dc="http://purl.org/dc/elements/1.1/"
   xmlns:cc="http://creativecommons.org/ns#"
   xmlns:rdf="http://www.w3.org/1999/02/22-rdf-syntax-ns#"
   xmlns:svg="http://www.w3.org/2000/svg"
   xmlns="http://www.w3.org/2000/svg"
   xmlns:xlink="http://www.w3.org/1999/xlink"
   xmlns:sodipodi="http://sodipodi.sourceforge.net/DTD/sodipodi-0.dtd"
   xmlns:inkscape="http://www.inkscape.org/namespaces/inkscape"
   xml:space="preserve"
   width="281.42444mm"
   height="193.9839mm"
   style="clip-rule:evenodd;fill-rule:evenodd;image-rendering:optimizeQuality;shape-rendering:geometricPrecision;text-rendering:geometricPrecision"
   viewBox="0 0 281.42444 193.9839"
   version="1.1"
   id="svg172"
   sodipodi:docname="Sword-3.svg"
   inkscape:version="0.92.3 (2405546, 2018-03-11)"><metadata
   id="metadata176"><rdf:RDF><cc:Work
       rdf:about=""><dc:format>image/svg+xml</dc:format><dc:type
         rdf:resource="http://purl.org/dc/dcmitype/StillImage" /><dc:title></dc:title></cc:Work></rdf:RDF></metadata><sodipodi:namedview
   pagecolor="#ffffff"
   bordercolor="#666666"
   borderopacity="1"
   objecttolerance="10"
   gridtolerance="10"
   guidetolerance="10"
   inkscape:pageopacity="0"
   inkscape:pageshadow="2"
   inkscape:window-width="1920"
   inkscape:window-height="1017"
   id="namedview174"
   showgrid="false"
   fit-margin-top="0"
   fit-margin-left="0"
   fit-margin-right="0"
   fit-margin-bottom="0"
   showborder="false"
   inkscape:zoom="1.0709325"
   inkscape:cx="533.10407"
   inkscape:cy="358.21472"
   inkscape:window-x="-4"
   inkscape:window-y="9"
   inkscape:window-maximized="1"
   inkscape:current-layer="svg172" />
 <defs
   id="defs40"><style
     type="text/css"
     id="style2">
   <![CDATA[
    .str0 {stroke:#1F1A17;stroke-width:0.0762}
    .fil50 {fill:none}
    .fil51 {fill:#28166F}
    .fil52 {fill:#2D1B72}
    .fil53 {fill:#311F74}
    .fil54 {fill:#352377}
    .fil55 {fill:#392779}
    .fil56 {fill:#3D2B7C}
    .fil105 {fill:#3F4446}
    .fil57 {fill:#41307E}
    .fil58 {fill:#443481}
    .fil59 {fill:#473783}
    .fil60 {fill:#4A3B85}
    .fil61 {fill:#4D3E87}
    .fil103 {fill:#4D4948}
    .fil62 {fill:#50428A}
    .fil63 {fill:#53458C}
    .fil64 {fill:#55478D}
    .fil65 {fill:#584A8F}
    .fil66 {fill:#5C4E92}
    .fil67 {fill:#5F5194}
    .fil68 {fill:#625496}
    .fil69 {fill:#655898}
    .fil70 {fill:#685B9B}
    .fil71 {fill:#6B5E9D}
    .fil72 {fill:#6F629F}
    .fil73 {fill:#7266A2}
    .fil74 {fill:#7569A4}
    .fil75 {fill:#786CA7}
    .fil76 {fill:#7B70A9}
    .fil77 {fill:#7E74AB}
    .fil78 {fill:#8177AE}
    .fil49 {fill:#838281}
    .fil79 {fill:#857BB0}
    .fil48 {fill:#858483}
    .fil80 {fill:#887EB3}
    .fil47 {fill:#888787}
    .fil46 {fill:#8B8989}
    .fil81 {fill:#8C82B5}
    .fil45 {fill:#8C8B8A}
    .fil82 {fill:#9087B9}
    .fil44 {fill:#908F8E}
    .fil43 {fill:#929190}
    .fil83 {fill:#948BBB}
    .fil1 {fill:#969594}
    .fil84 {fill:#988FBE}
    .fil42 {fill:#989797}
    .fil85 {fill:#9B93C1}
    .fil41 {fill:#9C9B9B}
    .fil40 {fill:#9E9D9C}
    .fil86 {fill:#A097C4}
    .fil39 {fill:#A09F9F}
    .fil87 {fill:#A49CC7}
    .fil38 {fill:#A4A3A3}
    .fil37 {fill:#A6A5A4}
    .fil88 {fill:#A8A0C9}
    .fil36 {fill:#AAA9A9}
    .fil89 {fill:#ADA5CD}
    .fil35 {fill:#ADACAB}
    .fil90 {fill:#B0A8CF}
    .fil34 {fill:#B1B0AF}
    .fil33 {fill:#B4B3B2}
    .fil91 {fill:#B5AED2}
    .fil32 {fill:#B9B8B7}
    .fil92 {fill:#BAB3D6}
    .fil31 {fill:#BABAB9}
    .fil30 {fill:#BDBDBC}
    .fil93 {fill:#C0B9D9}
    .fil2 {fill:#C2C1C1}
    .fil94 {fill:#C6BFDD}
    .fil95 {fill:#CBC4E0}
    .fil96 {fill:#D2CCE4}
    .fil97 {fill:#D9D4E9}
    .fil3 {fill:#DA251D}
    .fil0 {fill:#DEDEDD}
    .fil98 {fill:#E2DEEE}
    .fil99 {fill:#E9E6F2}
    .fil100 {fill:#F1EFF7}
    .fil101 {fill:#F8F7FB}
    .fil102 {fill:white}
    .fil104 {fill:url(#id0)}
    .fil106 {fill:url(#id1)}
    .fil21 {fill:url(#id2)}
    .fil15 {fill:url(#id3)}
    .fil29 {fill:url(#id4)}
    .fil19 {fill:url(#id5)}
    .fil13 {fill:url(#id6)}
    .fil25 {fill:url(#id7)}
    .fil9 {fill:url(#id8)}
    .fil20 {fill:url(#id9)}
    .fil14 {fill:url(#id10)}
    .fil26 {fill:url(#id11)}
    .fil16 {fill:url(#id12)}
    .fil10 {fill:url(#id13)}
    .fil22 {fill:url(#id14)}
    .fil5 {fill:url(#id15)}
    .fil27 {fill:url(#id16)}
    .fil17 {fill:url(#id17)}
    .fil11 {fill:url(#id18)}
    .fil23 {fill:url(#id19)}
    .fil7 {fill:url(#id20)}
    .fil6 {fill:url(#id21)}
    .fil28 {fill:url(#id22)}
    .fil18 {fill:url(#id23)}
    .fil12 {fill:url(#id24)}
    .fil24 {fill:url(#id25)}
    .fil8 {fill:url(#id26)}
    .fil4 {fill:url(#id27)}
   ]]>
  </style><linearGradient
     id="id0"
     gradientUnits="userSpaceOnUse"
     x1="15.2275"
     y1="6.7343001"
     x2="16.575701"
     y2="28.4415">
   <stop
   offset="0"
   style="stop-color:#4C4840"
   id="stop4" />
   <stop
   offset="0"
   style="stop-color:#495F5F"
   id="stop6" />
  </linearGradient><linearGradient
     id="id1"
     gradientUnits="userSpaceOnUse"
     xlink:href="#id0"
     x1="6.2642999"
     y1="20.0042"
     x2="27.796499"
     y2="13.6448">
  </linearGradient><linearGradient
     id="id2"
     gradientUnits="userSpaceOnUse"
     xlink:href="#id0"
     x1="20.601"
     y1="28.7766"
     x2="29.099199"
     y2="16.056">
  </linearGradient><linearGradient
     id="id3"
     gradientUnits="userSpaceOnUse"
     xlink:href="#id0"
     x1="22.859699"
     y1="30.285601"
     x2="31.357901"
     y2="17.565001">
  </linearGradient><linearGradient
     id="id4"
     gradientUnits="userSpaceOnUse"
     xlink:href="#id0"
     x1="25.1182"
     y1="31.7946"
     x2="33.6166"
     y2="19.073799">
  </linearGradient><linearGradient
     id="id5"
     gradientUnits="userSpaceOnUse"
     xlink:href="#id0"
     x1="27.4503"
     y1="33.352402"
     x2="35.948502"
     y2="20.6318">
  </linearGradient><linearGradient
     id="id6"
     gradientUnits="userSpaceOnUse"
     xlink:href="#id0"
     x1="29.709"
     y1="34.861401"
     x2="38.207199"
     y2="22.1408">
  </linearGradient><linearGradient
     id="id7"
     gradientUnits="userSpaceOnUse"
     xlink:href="#id0"
     x1="31.967699"
     y1="36.370499"
     x2="40.466099"
     y2="23.6497">
  </linearGradient><linearGradient
     id="id8"
     gradientUnits="userSpaceOnUse"
     xlink:href="#id0"
     x1="34.223801"
     y1="37.877602"
     x2="42.722"
     y2="25.157">
  </linearGradient><linearGradient
     id="id9"
     gradientUnits="userSpaceOnUse"
     xlink:href="#id0"
     x1="36.5662"
     y1="39.4426"
     x2="45.064602"
     y2="26.7218">
  </linearGradient><linearGradient
     id="id10"
     gradientUnits="userSpaceOnUse"
     xlink:href="#id0"
     x1="38.825001"
     y1="40.9515"
     x2="47.3232"
     y2="28.2309">
  </linearGradient><linearGradient
     id="id11"
     gradientUnits="userSpaceOnUse"
     xlink:href="#id0"
     x1="41.083698"
     y1="42.4604"
     x2="49.581902"
     y2="29.739799">
  </linearGradient><linearGradient
     id="id12"
     gradientUnits="userSpaceOnUse"
     xlink:href="#id0"
     x1="43.415798"
     y1="44.018398"
     x2="51.914001"
     y2="31.2978">
  </linearGradient><linearGradient
     id="id13"
     gradientUnits="userSpaceOnUse"
     xlink:href="#id0"
     x1="45.674301"
     y1="45.527302"
     x2="54.172501"
     y2="32.806702">
  </linearGradient><linearGradient
     id="id14"
     gradientUnits="userSpaceOnUse"
     xlink:href="#id0"
     x1="47.932999"
     y1="47.036201"
     x2="56.431198"
     y2="34.3158">
  </linearGradient><linearGradient
     id="id15"
     gradientUnits="userSpaceOnUse"
     xlink:href="#id0"
     x1="50.189098"
     y1="48.543499"
     x2="58.687302"
     y2="35.822899">
  </linearGradient><linearGradient
     id="id16"
     gradientUnits="userSpaceOnUse"
     xlink:href="#id0"
     x1="52.227699"
     y1="49.905399"
     x2="60.725899"
     y2="37.184799">
  </linearGradient><linearGradient
     id="id17"
     gradientUnits="userSpaceOnUse"
     xlink:href="#id0"
     x1="54.559601"
     y1="51.4632"
     x2="63.0578"
     y2="38.742802">
  </linearGradient><linearGradient
     id="id18"
     gradientUnits="userSpaceOnUse"
     xlink:href="#id0"
     x1="56.818401"
     y1="52.972401"
     x2="65.316597"
     y2="40.251801">
  </linearGradient><linearGradient
     id="id19"
     gradientUnits="userSpaceOnUse"
     xlink:href="#id0"
     x1="59.077099"
     y1="54.4813"
     x2="67.575302"
     y2="41.7607">
  </linearGradient><linearGradient
     id="id20"
     gradientUnits="userSpaceOnUse"
     xlink:href="#id0"
     x1="61.333099"
     y1="55.988499"
     x2="69.831299"
     y2="43.267899">
  </linearGradient><linearGradient
     id="id21"
     gradientUnits="userSpaceOnUse"
     xlink:href="#id0"
     x1="63.694"
     y1="57.565601"
     x2="72.1922"
     y2="44.845001">
  </linearGradient><linearGradient
     id="id22"
     gradientUnits="userSpaceOnUse"
     xlink:href="#id0"
     x1="65.732597"
     y1="58.927601"
     x2="74.230797"
     y2="46.207001">
  </linearGradient><linearGradient
     id="id23"
     gradientUnits="userSpaceOnUse"
     xlink:href="#id0"
     x1="68.064697"
     y1="60.4855"
     x2="76.562897"
     y2="47.7649">
  </linearGradient><linearGradient
     id="id24"
     gradientUnits="userSpaceOnUse"
     xlink:href="#id0"
     x1="70.323303"
     y1="61.994598"
     x2="78.821503"
     y2="49.273998">
  </linearGradient><linearGradient
     id="id25"
     gradientUnits="userSpaceOnUse"
     xlink:href="#id0"
     x1="72.582001"
     y1="63.503399"
     x2="81.0802"
     y2="50.782799">
  </linearGradient><linearGradient
     id="id26"
     gradientUnits="userSpaceOnUse"
     xlink:href="#id0"
     x1="74.837997"
     y1="65.010696"
     x2="83.336197"
     y2="52.2901">
  </linearGradient><radialGradient
     id="id27"
     gradientUnits="userSpaceOnUse"
     cx="16.741501"
     cy="12.4798"
     r="7.5"
     fx="16.741501"
     fy="12.4798">
   <stop
   offset="0"
   style="stop-color:white"
   id="stop35" />
   <stop
   offset="1"
   style="stop-color:#28166F"
   id="stop37" />
  </radialGradient><linearGradient
     inkscape:collect="always"
     xlink:href="#id0"
     id="linearGradient983"
     gradientUnits="userSpaceOnUse"
     x1="15.2275"
     y1="6.7343001"
     x2="16.575701"
     y2="28.4415" /></defs>
 <g
   id="Ebene_x0020_1"
   transform="translate(-7.4495475,-5.7937486)">
  <metadata
   id="CorelCorpID_0Corel-Layer" />
  <g
   id="_225233136">
   <g
   id="g46">
    <path
   id="_46651408"
   class="fil0 str0"
   d="m 268.12,173.431 c 4.4992,2.1506 9.0651,4.2632 13.5897,6.3757 -2.4508,0.5417 -4.8507,1.0071 -7.2745,1.5393 4.7733,5.9197 9.5324,11.8297 14.3375,17.8257 -7.7987,-2.0104 -15.5957,-3.9922 -23.2815,-5.9548 0.1999,1.8989 0.7443,4.3037 1.1506,6.4508 -2.937,-2.8172 -5.9153,-5.6344 -8.8507,-8.4229 -3.8723,-1.0147 -7.7256,-1.934 -11.5708,-2.9583 -26.549,-19.3915 -53.152,-38.7639 -79.7423,-58.1555 -26.6046,-19.4011 -53.2711,-38.9262 -79.7501,-58.2986 2.531,-4.1291 5.0732,-8.3059 7.6486,-12.3777 27.7214,17.3889 55.5507,34.9878 83.3085,52.5389 27.7705,17.532 55.5124,35.045 83.2543,52.5579 2.3518,2.9503 4.7575,5.8815 7.1807,8.8795 z"
   inkscape:connector-curvature="0"
   style="fill:#dededd;stroke:#1f1a17;stroke-width:0.0762" />
    <path
   id="_502456112"
   class="fil1"
   d="m 285.59,197.561 c -5.5268,-1.0191 -12.6774,-2.3674 -20.6925,-5.175 -0.0523,0.8407 0.0832,2.958 0.8802,5.4943 -3.4468,-2.9555 -5.9248,-5.3393 -7.5947,-7.3696 -3.4777,-0.8957 -7.5619,-2.2007 -11.0284,-3.1436 -48.956,-38.2903 -102.216,-75.7889 -151.083,-110.214 -0.2778,-3.0345 0.6193,-4.4003 2.0725,-6.0752 l 187.446,126.483 z"
   inkscape:connector-curvature="0"
   style="fill:#969594" />
    <path
   id="_505893040"
   class="fil2"
   d="m 285.59,197.561 c -3.3824,-5.1569 -8.9341,-11.7227 -13.1911,-17.4697 0.7576,-0.3648 4.3242,-0.3947 5.4554,-0.6443 -4.029,-2.089 -7.365,-3.4092 -9.8702,-4.1963 -2.1362,-2.8924 -5.5113,-6.8397 -7.6869,-9.7039 -53.8156,-31.057 -107.107,-66.2502 -157.316,-98.6787 -2.9101,0.8835 -3.8353,2.2303 -4.8372,4.2097 l 187.446,126.483 z"
   inkscape:connector-curvature="0"
   style="fill:#c2c1c1" />
   </g>
   <g
   id="g168">
    <g
   id="g54">
     <rect
   id="_502733128"
   class="fil3 str0"
   transform="matrix(-0.392207,0.587076,-0.450417,-0.300909,30.6693,19.9558)"
   width="14.9606"
   height="13.5636"
   x="0"
   y="0"
   style="fill:#da251d;stroke:#1f1a17;stroke-width:0.0762" />
     <g
   id="g51">
      <path
   id="_221924688"
   class="fil4 str0"
   d="m 20.5344,19.5224 c -3.7985,5.6857 -8.8706,8.966 -11.3265,7.3252 -2.456,-1.6407 -1.3673,-7.5822 2.4311,-13.2679 3.7984,-5.6856 8.8705,-8.9659 11.3265,-7.3252 2.456,1.6408 1.3673,7.5823 -2.4311,13.2679 z"
   inkscape:connector-curvature="0"
   style="fill:url(#id27);stroke:#1f1a17;stroke-width:0.0762" />
      <path
   id="_45778288"
   class="fil3 str0"
   d="m 14.4409,22.7983 c 0.8215,-1.1555 1.7271,-2.3376 2.6251,-3.6074 -0.4193,-0.5118 -0.7582,-1.2677 -0.9211,-2.5347 0.9505,-0.2586 1.8014,-0.17 2.5643,0.075 0.9211,-1.4531 1.7926,-2.9557 2.5382,-4.4432 -1.5103,-0.9097 -3.7531,-1.9613 -4.4589,-2.0688 0.7831,-0.8502 3.4541,-0.6378 5.5372,-0.2389 0.4704,-1.0756 0.7617,-2.3537 1.0565,-3.3647 2.3339,1.5592 2.1138,8.1798 -1.6161,13.7628 -3.7298,5.583 -9.6969,8.3476 -12.0308,6.7884 0.821,-0.6097 1.9209,-1.4634 2.9064,-2.4928 -1.1774,-1.7794 -2.4305,-4.2381 -1.9486,-5.3061 0.3695,0.6109 2.1996,2.2803 3.7478,3.4304 z"
   inkscape:connector-curvature="0"
   style="fill:#da251d;stroke:#1f1a17;stroke-width:0.0762" />
     </g>
     <rect
   id="_502267808"
   class="fil3 str0"
   transform="matrix(-0.197137,0.295084,-0.323236,-0.215944,27.3464,15.0719)"
   width="42.214802"
   height="7.8232002"
   rx="3.9116001"
   ry="3.9116001"
   x="0"
   y="0"
   style="fill:#da251d;stroke:#1f1a17;stroke-width:0.0762" />
    </g>
    <g
   id="g81">
     <path
   id="_502759064"
   class="fil5 str0"
   d="m 59.1196,38.7778 -7.2475,8.5944 c -0.4903,0.5815 -1.3672,0.656 -1.9486,0.1657 l -10e-4,-9e-4 c -0.5814,-0.4902 -0.656,-1.3671 -0.1657,-1.9485 l 7.2475,-8.5944 c 0.4903,-0.5814 1.3671,-0.656 1.9486,-0.1657 l 10e-4,9e-4 c 0.5814,0.4903 0.656,1.3671 0.1657,1.9485 z"
   inkscape:connector-curvature="0"
   style="fill:url(#id15);stroke:#1f1a17;stroke-width:0.0762" />
     <path
   id="_221946224"
   class="fil6 str0"
   d="m 72.6245,47.8 -7.2475,8.5944 c -0.4903,0.5815 -1.3672,0.656 -1.9486,0.1657 l -0.001,-9e-4 C 62.846,56.069 62.7714,55.1921 63.2617,54.6107 l 7.2475,-8.5944 c 0.4903,-0.5814 1.3672,-0.656 1.9486,-0.1657 l 10e-4,9e-4 c 0.5814,0.4903 0.656,1.3671 0.1657,1.9485 z"
   inkscape:connector-curvature="0"
   style="fill:url(#id21);stroke:#1f1a17;stroke-width:0.0762" />
     <path
   id="_221946144"
   class="fil7 str0"
   d="m 70.2636,46.2228 -7.2475,8.5944 c -0.4903,0.5814 -1.3671,0.656 -1.9485,0.1657 l -0.0011,-9e-4 c -0.5814,-0.4903 -0.6559,-1.3671 -0.1657,-1.9485 l 7.2475,-8.5944 c 0.4903,-0.5815 1.3672,-0.656 1.9486,-0.1657 l 10e-4,9e-4 c 0.5814,0.4902 0.656,1.3671 0.1657,1.9485 z"
   inkscape:connector-curvature="0"
   style="fill:url(#id20);stroke:#1f1a17;stroke-width:0.0762" />
     <path
   id="_43688232"
   class="fil8 str0"
   d="m 83.7685,55.245 -7.2475,8.5944 c -0.4903,0.5814 -1.3671,0.656 -1.9485,0.1657 l -0.0011,-9e-4 C 73.99,63.5139 73.9155,62.6371 74.4057,62.0557 l 7.2476,-8.5944 c 0.4902,-0.5815 1.3671,-0.656 1.9485,-0.1657 l 0.001,9e-4 c 0.5814,0.4902 0.656,1.3671 0.1657,1.9485 z"
   inkscape:connector-curvature="0"
   style="fill:url(#id26);stroke:#1f1a17;stroke-width:0.0762" />
     <path
   id="_78731496"
   class="fil9 str0"
   d="m 43.1542,28.1119 -7.2475,8.5944 c -0.4903,0.5814 -1.3671,0.656 -1.9485,0.1657 l -0.0011,-9e-4 C 33.3757,36.3808 33.3012,35.504 33.7915,34.9226 l 7.2475,-8.5945 c 0.4903,-0.5814 1.3671,-0.6559 1.9485,-0.1656 l 0.0011,8e-4 c 0.5814,0.4903 0.6559,1.3672 0.1656,1.9486 z"
   inkscape:connector-curvature="0"
   style="fill:url(#id8);stroke:#1f1a17;stroke-width:0.0762" />
     <path
   id="_84160696"
   class="fil10 str0"
   d="m 54.6048,35.7617 -7.2475,8.5944 c -0.4903,0.5814 -1.3671,0.656 -1.9485,0.1657 l -0.0011,-9e-4 c -0.5814,-0.4903 -0.6559,-1.3671 -0.1656,-1.9486 l 7.2475,-8.5944 c 0.4903,-0.5814 1.3671,-0.6559 1.9485,-0.1656 l 0.0011,8e-4 c 0.5814,0.4903 0.6559,1.3672 0.1656,1.9486 z"
   inkscape:connector-curvature="0"
   style="fill:url(#id13);stroke:#1f1a17;stroke-width:0.0762" />
     <path
   id="_511389808"
   class="fil11 str0"
   d="m 65.7489,43.2066 -7.2475,8.5945 c -0.4903,0.5814 -1.3672,0.6559 -1.9486,0.1656 l -10e-4,-8e-4 c -0.5814,-0.4903 -0.656,-1.3672 -0.1657,-1.9486 l 7.2475,-8.5944 c 0.4903,-0.5814 1.3671,-0.656 1.9486,-0.1657 l 0.001,9e-4 c 0.5814,0.4903 0.656,1.3671 0.1657,1.9485 z"
   inkscape:connector-curvature="0"
   style="fill:url(#id18);stroke:#1f1a17;stroke-width:0.0762" />
     <path
   id="_511389728"
   class="fil12 str0"
   d="m 79.2538,52.2288 -7.2475,8.5945 c -0.4903,0.5814 -1.3672,0.6559 -1.9486,0.1656 l -10e-4,-8e-4 c -0.5814,-0.4903 -0.656,-1.3672 -0.1657,-1.9486 l 7.2475,-8.5944 c 0.4903,-0.5814 1.3671,-0.656 1.9486,-0.1657 l 10e-4,9e-4 c 0.5814,0.4903 0.656,1.3671 0.1657,1.9485 z"
   inkscape:connector-curvature="0"
   style="fill:url(#id24);stroke:#1f1a17;stroke-width:0.0762" />
     <path
   id="_511388640"
   class="fil13 str0"
   d="m 38.6395,25.0957 -7.2475,8.5945 c -0.4903,0.5814 -1.3671,0.6559 -1.9486,0.1656 l -0.001,-8e-4 c -0.5814,-0.4903 -0.656,-1.3672 -0.1657,-1.9486 l 7.2475,-8.5944 c 0.4903,-0.5814 1.3672,-0.656 1.9486,-0.1657 l 10e-4,9e-4 c 0.5814,0.4903 0.656,1.3671 0.1657,1.9485 z"
   inkscape:connector-curvature="0"
   style="fill:url(#id6);stroke:#1f1a17;stroke-width:0.0762" />
     <path
   id="_218181600"
   class="fil14 str0"
   d="m 47.7554,31.1858 -7.2475,8.5944 c -0.4903,0.5814 -1.3671,0.656 -1.9485,0.1657 l -0.0011,-9e-4 c -0.5814,-0.4903 -0.6559,-1.3671 -0.1656,-1.9485 l 7.2475,-8.5944 c 0.4903,-0.5815 1.3671,-0.656 1.9485,-0.1657 l 0.0011,9e-4 c 0.5814,0.4902 0.6559,1.3671 0.1656,1.9485 z"
   inkscape:connector-curvature="0"
   style="fill:url(#id10);stroke:#1f1a17;stroke-width:0.0762" />
     <path
   id="_218181416"
   class="fil15 str0"
   d="m 31.7901,20.5199 -7.2475,8.5944 c -0.4903,0.5814 -1.3671,0.6559 -1.9486,0.1657 l -0.001,-9e-4 c -0.5814,-0.4903 -0.656,-1.3672 -0.1657,-1.9486 l 7.2475,-8.5944 c 0.4903,-0.5814 1.3672,-0.656 1.9486,-0.1657 l 0.001,9e-4 c 0.5814,0.4903 0.656,1.3671 0.1657,1.9486 z"
   inkscape:connector-curvature="0"
   style="fill:url(#id3);stroke:#1f1a17;stroke-width:0.0762" />
     <path
   id="_230023328"
   class="fil16 str0"
   d="m 52.3462,34.2527 -7.2475,8.5944 c -0.4903,0.5815 -1.3672,0.656 -1.9486,0.1657 l -0.001,-9e-4 c -0.5814,-0.4903 -0.656,-1.3671 -0.1657,-1.9485 l 7.2475,-8.5944 c 0.4903,-0.5814 1.3671,-0.656 1.9485,-0.1657 l 0.0011,9e-4 c 0.5814,0.4903 0.6559,1.3671 0.1657,1.9485 z"
   inkscape:connector-curvature="0"
   style="fill:url(#id12);stroke:#1f1a17;stroke-width:0.0762" />
     <path
   id="_226364512"
   class="fil17 str0"
   d="m 63.4902,41.6977 -7.2475,8.5944 c -0.4903,0.5814 -1.3671,0.656 -1.9486,0.1657 l -10e-4,-9e-4 c -0.5814,-0.4903 -0.656,-1.3671 -0.1657,-1.9485 l 7.2475,-8.5945 c 0.4903,-0.5814 1.3672,-0.6559 1.9486,-0.1656 l 10e-4,9e-4 c 0.5814,0.4902 0.656,1.3671 0.1657,1.9485 z"
   inkscape:connector-curvature="0"
   style="fill:url(#id17);stroke:#1f1a17;stroke-width:0.0762" />
     <path
   id="_224730088"
   class="fil18 str0"
   d="m 76.9951,50.7199 -7.2475,8.5944 c -0.4903,0.5814 -1.3671,0.656 -1.9486,0.1657 l -0.001,-9e-4 C 67.2166,58.9888 67.142,58.112 67.6323,57.5306 l 7.2475,-8.5944 c 0.4903,-0.5815 1.3672,-0.656 1.9486,-0.1657 l 0.001,9e-4 c 0.5814,0.4902 0.656,1.3671 0.1657,1.9485 z"
   inkscape:connector-curvature="0"
   style="fill:url(#id23);stroke:#1f1a17;stroke-width:0.0762" />
     <path
   id="_43511552"
   class="fil19 str0"
   d="m 36.3808,23.5868 -7.2475,8.5944 c -0.4903,0.5814 -1.3671,0.656 -1.9485,0.1657 l -0.0011,-9e-4 c -0.5814,-0.4903 -0.6559,-1.3671 -0.1656,-1.9485 l 7.2475,-8.5945 c 0.4903,-0.5814 1.3671,-0.6559 1.9485,-0.1656 l 10e-4,8e-4 c 0.5815,0.4903 0.656,1.3672 0.1657,1.9486 z"
   inkscape:connector-curvature="0"
   style="fill:url(#id5);stroke:#1f1a17;stroke-width:0.0762" />
     <path
   id="_229977000"
   class="fil20 str0"
   d="m 45.4968,29.6768 -7.2476,8.5945 c -0.4902,0.5814 -1.3671,0.6559 -1.9485,0.1656 l -10e-4,-8e-4 c -0.5814,-0.4903 -0.656,-1.3672 -0.1657,-1.9486 l 7.2475,-8.5944 c 0.4903,-0.5814 1.3671,-0.656 1.9485,-0.1657 l 0.0011,9e-4 c 0.5814,0.4903 0.6559,1.3671 0.1657,1.9485 z"
   inkscape:connector-curvature="0"
   style="fill:url(#id9);stroke:#1f1a17;stroke-width:0.0762" />
     <path
   id="_230026784"
   class="fil21 str0"
   d="m 29.5314,19.0109 -7.2475,8.5944 c -0.4903,0.5814 -1.3671,0.656 -1.9485,0.1657 l -0.0011,-9e-4 C 19.7529,27.2798 19.6784,26.403 20.1687,25.8216 l 7.2475,-8.5944 c 0.4903,-0.5815 1.3671,-0.656 1.9485,-0.1657 l 0.001,9e-4 c 0.5815,0.4903 0.656,1.3671 0.1657,1.9485 z"
   inkscape:connector-curvature="0"
   style="fill:url(#id2);stroke:#1f1a17;stroke-width:0.0762" />
     <path
   id="_230026720"
   class="fil22 str0"
   d="M 56.8635,37.2706 49.616,45.865 c -0.4903,0.5815 -1.3671,0.656 -1.9485,0.1657 l -0.0011,-9e-4 C 47.085,45.5396 47.0105,44.6627 47.5008,44.0813 l 7.2475,-8.5944 c 0.4903,-0.5814 1.3671,-0.656 1.9485,-0.1657 l 10e-4,9e-4 c 0.5814,0.4903 0.656,1.3671 0.1657,1.9485 z"
   inkscape:connector-curvature="0"
   style="fill:url(#id14);stroke:#1f1a17;stroke-width:0.0762" />
     <path
   id="_229977176"
   class="fil23 str0"
   d="M 68.0075,44.7156 60.76,53.31 c -0.4903,0.5814 -1.3671,0.656 -1.9485,0.1657 l -0.001,-9e-4 c -0.5815,-0.4903 -0.656,-1.3671 -0.1657,-1.9485 l 7.2475,-8.5944 c 0.4903,-0.5815 1.3671,-0.656 1.9485,-0.1657 l 0.0011,9e-4 c 0.5814,0.4902 0.6559,1.3671 0.1656,1.9485 z"
   inkscape:connector-curvature="0"
   style="fill:url(#id19);stroke:#1f1a17;stroke-width:0.0762" />
     <path
   id="_79103376"
   class="fil24 str0"
   d="m 81.5124,53.7378 -7.2475,8.5944 c -0.4903,0.5814 -1.3671,0.656 -1.9485,0.1657 l -0.001,-9e-4 c -0.5814,-0.4903 -0.656,-1.3671 -0.1657,-1.9485 l 7.2475,-8.5944 c 0.4903,-0.5815 1.3671,-0.656 1.9485,-0.1657 l 0.0011,9e-4 c 0.5814,0.4902 0.6559,1.3671 0.1656,1.9485 z"
   inkscape:connector-curvature="0"
   style="fill:url(#id25);stroke:#1f1a17;stroke-width:0.0762" />
     <path
   id="_80221128"
   class="fil25 str0"
   d="m 40.8982,26.6047 -7.2475,8.5944 c -0.4903,0.5814 -1.3672,0.656 -1.9486,0.1657 l -0.001,-9e-4 c -0.5814,-0.4903 -0.656,-1.3671 -0.1657,-1.9485 l 7.2475,-8.5945 c 0.4903,-0.5814 1.3672,-0.6559 1.9486,-0.1656 l 0.001,8e-4 c 0.5814,0.4903 0.656,1.3672 0.1657,1.9486 z"
   inkscape:connector-curvature="0"
   style="fill:url(#id7);stroke:#1f1a17;stroke-width:0.0762" />
     <path
   id="_502159456"
   class="fil26 str0"
   d="m 50.0141,32.6948 -7.2475,8.5944 c -0.4903,0.5814 -1.3671,0.6559 -1.9485,0.1656 l -0.0011,-8e-4 c -0.5814,-0.4903 -0.6559,-1.3672 -0.1656,-1.9486 l 7.2475,-8.5944 c 0.4903,-0.5814 1.3671,-0.656 1.9485,-0.1657 l 10e-4,9e-4 c 0.5814,0.4903 0.656,1.3671 0.1657,1.9486 z"
   inkscape:connector-curvature="0"
   style="fill:url(#id11);stroke:#1f1a17;stroke-width:0.0762" />
     <path
   id="_230208336"
   class="fil27 str0"
   d="m 61.1581,40.1397 -7.2475,8.5945 c -0.4903,0.5814 -1.3671,0.6559 -1.9485,0.1656 l -10e-4,-8e-4 c -0.5815,-0.4903 -0.656,-1.3672 -0.1657,-1.9486 L 59.0429,38.356 C 59.5332,37.7746 60.41,37.7 60.9914,38.1903 l 0.0011,9e-4 c 0.5814,0.4903 0.6559,1.3671 0.1656,1.9485 z"
   inkscape:connector-curvature="0"
   style="fill:url(#id16);stroke:#1f1a17;stroke-width:0.0762" />
     <path
   id="_229393952"
   class="fil28 str0"
   d="m 74.663,49.1619 -7.2475,8.5945 c -0.4903,0.5814 -1.3671,0.6559 -1.9485,0.1656 l -0.001,-8e-4 C 64.8845,57.4309 64.81,56.554 65.3003,55.9726 l 7.2475,-8.5944 c 0.4903,-0.5814 1.3671,-0.656 1.9485,-0.1657 l 0.0011,9e-4 c 0.5814,0.4903 0.6559,1.3671 0.1656,1.9485 z"
   inkscape:connector-curvature="0"
   style="fill:url(#id22);stroke:#1f1a17;stroke-width:0.0762" />
     <path
   id="_45546096"
   class="fil29 str0"
   d="m 34.0488,22.0288 -7.2475,8.5944 c -0.4903,0.5814 -1.3672,0.656 -1.9486,0.1657 l -10e-4,-9e-4 c -0.5814,-0.4903 -0.656,-1.3671 -0.1657,-1.9485 l 7.2475,-8.5944 c 0.4903,-0.5814 1.3672,-0.656 1.9486,-0.1657 l 10e-4,9e-4 c 0.5814,0.4903 0.656,1.3671 0.1657,1.9485 z"
   inkscape:connector-curvature="0"
   style="fill:url(#id4);stroke:#1f1a17;stroke-width:0.0762" />
    </g>
    <path
   id="_44272712"
   class="fil2"
   d="m 105.016,38.401 c 0.3221,0.4696 2.3995,2.1824 2.6694,2.7301 -1.1571,0.315 -7.8147,3.7237 -6.3984,5.0513 0.2995,0.2708 0.654,1.0304 0.9271,1.6368 -4.9705,1.0315 -6.4107,4.1812 -9.4124,8.0399 0.9511,0.3952 1.9154,0.7709 2.8959,1.1433 -8.3042,4.3717 -12.1419,9.9892 -12.9233,19.3442 -0.7194,-0.7209 -1.4812,-1.5265 -2.2398,-2.1887 -2.3732,4.2503 -4.7252,6.7344 -3.7361,11.7049 -0.7169,-0.0268 -1.5218,-0.0276 -2.2026,-0.2987 -1.6129,3.218 -2.3569,4.2894 -1.8945,7.9331 -0.6224,-0.0202 -3.0032,-1.2999 -3.5506,-1.4112 -0.5095,1.1433 0.7722,3.4973 0.2594,4.6667 -0.2732,-0.564 -1.8228,-2.1362 -2.0992,-2.6742 -0.4083,0.9284 0.4697,2.8714 0.0647,3.816 -3.9114,-2.3728 -4.4683,-6.1078 -4.6922,-10.4258 11.3188,-18.1694 23.1455,-35.8722 35.6042,-53.2942 3.9606,-1.3812 7.8493,-2.4006 11.4083,0.3727 -0.7535,0.7684 -2.4738,0.4669 -3.2175,1.2417 0.6615,0.0039 2.28,1.0711 2.9416,1.075 -0.8645,0.8921 -3.5363,0.619 -4.404,1.5371 z"
   inkscape:connector-curvature="0"
   style="fill:#c2c1c1" />
    <g
   id="g104">
     <path
   id="_505924632"
   class="fil30"
   d="m 105.016,38.4008 c 0.3221,0.4696 2.3995,2.1824 2.6694,2.7301 -1.1571,0.315 -7.8147,3.7237 -6.3984,5.0513 0.2995,0.2708 0.654,1.0304 0.9271,1.6368 -4.9705,1.0315 -6.4107,4.1812 -9.4124,8.0399 0.9511,0.3952 1.9154,0.7709 2.8959,1.1433 -8.3042,4.3717 -12.1419,9.9892 -12.9233,19.3442 -0.7194,-0.7209 -1.4812,-1.5265 -2.2398,-2.1887 -2.3732,4.2503 -4.7252,6.7344 -3.7361,11.7049 -0.7169,-0.0268 -1.5218,-0.0276 -2.2026,-0.2987 -1.6129,3.218 -2.3569,4.2894 -1.8945,7.9331 -0.6224,-0.0202 -3.0032,-1.2999 -3.5506,-1.4112 -0.5095,1.1433 0.7722,3.4973 0.2594,4.6667 -0.2732,-0.564 -1.8228,-2.1362 -2.0992,-2.6742 -0.4083,0.9284 0.4697,2.8714 0.0647,3.816 C 63.4642,95.5215 63.039,91.8402 62.8151,87.5222 74.1339,69.3528 85.9606,51.65 98.4193,34.228 c 3.9606,-1.3812 7.7176,-2.4543 11.2766,0.319 -0.7535,0.7684 -2.4738,0.4669 -3.2175,1.2417 0.6615,0.0039 2.28,1.0711 2.9416,1.075 -0.8645,0.8921 -3.5363,0.619 -4.404,1.5371 z"
   inkscape:connector-curvature="0"
   style="fill:#bdbdbc" />
     <path
   id="_43697616"
   class="fil31"
   d="m 105.016,38.4009 c 0.3221,0.4696 2.3995,2.1824 2.6694,2.7301 -1.1571,0.315 -7.8147,3.7237 -6.3984,5.0513 0.2995,0.2708 0.654,1.0304 0.9271,1.6368 -4.9705,1.0315 -6.4107,4.1812 -9.4124,8.0399 0.9511,0.3952 1.9154,0.7709 2.8959,1.1433 -8.3042,4.3717 -12.1419,9.9892 -12.9233,19.3442 -0.7194,-0.7209 -1.4812,-1.5265 -2.2398,-2.1887 -2.3732,4.2503 -4.7252,6.7344 -3.7361,11.7049 -0.7169,-0.0268 -1.5218,-0.0276 -2.2026,-0.2987 -1.6129,3.218 -2.3569,4.2894 -1.8945,7.9331 -0.6224,-0.0202 -3.0032,-1.2999 -3.5506,-1.4112 -0.5095,1.1433 0.7722,3.4973 0.2594,4.6667 -0.2732,-0.564 -1.8228,-2.1362 -2.0992,-2.6742 -0.4083,0.9284 0.4697,2.8714 0.0647,3.816 C 63.4642,95.5216 63.1707,91.8939 62.9468,87.5759 74.2656,69.4065 86.0923,51.7037 98.551,34.2817 c 3.9606,-1.3812 7.5859,-2.5079 11.1449,0.2654 -0.7535,0.7684 -2.4738,0.4669 -3.2175,1.2417 0.6615,0.0039 2.28,1.0711 2.9416,1.075 -0.8645,0.8921 -3.5363,0.619 -4.404,1.5371 z"
   inkscape:connector-curvature="0"
   style="fill:#babab9" />
     <path
   id="_225203712"
   class="fil32"
   d="m 105.016,38.4009 c 0.3221,0.4696 2.3995,2.1824 2.6694,2.7301 -1.1571,0.315 -7.8147,3.7237 -6.3984,5.0513 0.2995,0.2708 0.654,1.0304 0.9271,1.6368 -4.9705,1.0315 -6.4107,4.1812 -9.4124,8.0399 0.9511,0.3952 1.9154,0.7709 2.8959,1.1433 -8.3042,4.3717 -12.1419,9.9892 -12.9233,19.3442 -0.7194,-0.7209 -1.4812,-1.5265 -2.2398,-2.1887 -2.3732,4.2503 -4.7252,6.7344 -3.7361,11.7049 -0.7169,-0.0268 -1.5218,-0.0276 -2.2026,-0.2987 -1.6129,3.218 -2.3569,4.2894 -1.8945,7.9331 -0.6224,-0.0202 -3.0032,-1.2999 -3.5506,-1.4112 -0.5095,1.1433 0.7722,3.4973 0.2594,4.6667 -0.2732,-0.564 -1.8228,-2.1362 -2.0992,-2.6742 -0.4083,0.9284 0.4697,2.8714 0.0647,3.816 C 63.4642,95.5216 63.3024,91.9476 63.0785,87.6296 74.3973,69.4602 86.224,51.7574 98.6827,34.3354 c 3.9606,-1.3812 7.4542,-2.5616 11.0132,0.2117 -0.7535,0.7684 -2.4738,0.4669 -3.2175,1.2417 0.6615,0.0039 2.28,1.0711 2.9416,1.075 -0.8645,0.8921 -3.5363,0.619 -4.404,1.5371 z"
   inkscape:connector-curvature="0"
   style="fill:#b9b8b7" />
     <path
   id="_77729200"
   class="fil33"
   d="m 105.016,38.401 c 0.3221,0.4696 2.3995,2.1824 2.6694,2.7301 -1.1571,0.315 -7.8147,3.7237 -6.3984,5.0513 0.2995,0.2708 0.654,1.0304 0.9271,1.6368 -4.9705,1.0315 -6.4107,4.1812 -9.4124,8.0399 0.9511,0.3952 1.9154,0.7709 2.8959,1.1433 -8.3042,4.3717 -12.1419,9.9892 -12.9233,19.3442 -0.7194,-0.7209 -1.4812,-1.5265 -2.2398,-2.1887 -2.3732,4.2503 -4.7252,6.7344 -3.7361,11.7049 -0.7169,-0.0268 -1.5218,-0.0276 -2.2026,-0.2987 -1.6129,3.218 -2.3569,4.2894 -1.8945,7.9331 -0.6224,-0.0202 -3.0032,-1.2999 -3.5506,-1.4112 -0.5095,1.1433 0.7722,3.4973 0.2594,4.6667 -0.2732,-0.564 -1.8228,-2.1362 -2.0992,-2.6742 -0.4083,0.9284 0.4697,2.8714 0.0647,3.816 C 63.4642,95.5217 63.4341,92.0013 63.2102,87.6833 74.529,69.5139 86.3557,51.8111 98.8144,34.3891 c 3.9606,-1.3811 7.3225,-2.6152 10.8815,0.1581 -0.7535,0.7684 -2.4738,0.4669 -3.2175,1.2417 0.6615,0.0039 2.28,1.0711 2.9416,1.075 -0.8645,0.8921 -3.5363,0.619 -4.404,1.5371 z"
   inkscape:connector-curvature="0"
   style="fill:#b4b3b2" />
     <path
   id="_219917856"
   class="fil34"
   d="m 105.016,38.4009 c 0.3221,0.4696 2.3995,2.1824 2.6694,2.7301 -1.1571,0.315 -7.8147,3.7237 -6.3984,5.0513 0.2995,0.2708 0.654,1.0304 0.9271,1.6368 -4.9705,1.0315 -6.4107,4.1812 -9.4124,8.0399 0.9511,0.3952 1.9154,0.7709 2.8959,1.1433 -8.3042,4.3717 -12.1419,9.9892 -12.9233,19.3442 -0.7194,-0.7209 -1.4812,-1.5265 -2.2398,-2.1887 -2.3732,4.2503 -4.7252,6.7344 -3.7361,11.7049 -0.7169,-0.0268 -1.5218,-0.0276 -2.2026,-0.2987 -1.6129,3.218 -2.3569,4.2894 -1.8945,7.9331 -0.6224,-0.0202 -3.0032,-1.2999 -3.5506,-1.4112 -0.5095,1.1433 0.7722,3.4973 0.2594,4.6667 -0.2732,-0.564 -1.8228,-2.1362 -2.0992,-2.6742 -0.4083,0.9284 0.4697,2.8714 0.0647,3.816 -3.9114,-2.3728 -3.8098,-5.8395 -4.0337,-10.1575 11.3188,-18.1694 23.1455,-35.8722 35.6042,-53.2942 3.9606,-1.3812 7.1908,-2.6689 10.7498,0.1044 -0.7535,0.7684 -2.4738,0.4669 -3.2175,1.2417 0.6615,0.0039 2.28,1.0711 2.9416,1.075 -0.8645,0.8921 -3.5363,0.619 -4.404,1.5371 z"
   inkscape:connector-curvature="0"
   style="fill:#b1b0af" />
     <path
   id="_230392976"
   class="fil35"
   d="m 105.016,38.4008 c 0.3221,0.4696 2.3995,2.1824 2.6694,2.7301 -1.1571,0.315 -7.8147,3.7237 -6.3984,5.0513 0.2995,0.2708 0.654,1.0304 0.9271,1.6368 -4.9705,1.0315 -6.4107,4.1812 -9.4124,8.0399 0.9511,0.3952 1.9154,0.7709 2.8959,1.1433 -8.3042,4.3717 -12.1419,9.9892 -12.9233,19.3442 -0.7194,-0.7209 -1.4812,-1.5265 -2.2398,-2.1887 -2.3732,4.2503 -4.7252,6.7344 -3.7361,11.7049 -0.7169,-0.0268 -1.5218,-0.0276 -2.2026,-0.2987 -1.6129,3.218 -2.3569,4.2894 -1.8945,7.9331 -0.6224,-0.0202 -3.0032,-1.2999 -3.5506,-1.4112 -0.5095,1.1433 0.7722,3.4973 0.2594,4.6667 -0.2732,-0.564 -1.8228,-2.1362 -2.0992,-2.6742 -0.4083,0.9284 0.4697,2.8714 0.0647,3.816 -3.9114,-2.3728 -3.6781,-5.7858 -3.9021,-10.1038 11.3189,-18.1694 23.1456,-35.8722 35.6042,-53.2942 3.9607,-1.3812 7.0592,-2.7226 10.6182,0.0507 -0.7535,0.7684 -2.4738,0.4669 -3.2175,1.2417 0.6615,0.0039 2.28,1.0711 2.9416,1.075 -0.8645,0.8921 -3.5363,0.619 -4.404,1.5371 z"
   inkscape:connector-curvature="0"
   style="fill:#adacab" />
     <path
   id="_230579128"
   class="fil36"
   d="m 105.016,38.401 c 0.3221,0.4696 2.3995,2.1824 2.6694,2.7301 -1.1571,0.315 -7.8147,3.7237 -6.3984,5.0513 0.2995,0.2708 0.654,1.0304 0.9271,1.6368 -4.9705,1.0315 -6.4107,4.1812 -9.4124,8.0399 0.9511,0.3952 1.9154,0.7709 2.8959,1.1433 -8.3042,4.3717 -12.1419,9.9892 -12.9233,19.3442 -0.7194,-0.7209 -1.4812,-1.5265 -2.2398,-2.1887 -2.3732,4.2503 -4.7252,6.7344 -3.7361,11.7049 -0.7169,-0.0268 -1.5218,-0.0276 -2.2026,-0.2987 -1.6129,3.218 -2.3569,4.2894 -1.8945,7.9331 -0.6224,-0.0202 -3.0032,-1.2999 -3.5506,-1.4112 -0.5095,1.1433 0.7722,3.4973 0.2594,4.6667 -0.2732,-0.564 -1.8228,-2.1362 -2.0992,-2.6742 -0.4083,0.9284 0.4697,2.8714 0.0647,3.816 -3.9114,-2.3728 -3.5464,-5.7322 -3.7704,-10.0502 11.3189,-18.1694 23.1456,-35.8722 35.6042,-53.2942 3.9607,-1.3811 6.9275,-2.7762 10.4865,-0.0029 -0.7535,0.7684 -2.4738,0.4669 -3.2175,1.2417 0.6615,0.0039 2.28,1.0711 2.9416,1.075 -0.8645,0.8921 -3.5363,0.619 -4.404,1.5371 z"
   inkscape:connector-curvature="0"
   style="fill:#aaa9a9" />
     <path
   id="_218783912"
   class="fil37"
   d="m 105.016,38.4009 c 0.3221,0.4696 2.3995,2.1824 2.6694,2.7301 -1.1571,0.315 -7.8147,3.7237 -6.3984,5.0513 0.2995,0.2708 0.654,1.0304 0.9271,1.6368 -4.9705,1.0315 -6.4107,4.1812 -9.4124,8.0399 0.9511,0.3952 1.9154,0.7709 2.8959,1.1433 -8.3042,4.3717 -12.1419,9.9892 -12.9233,19.3442 -0.7194,-0.7209 -1.4812,-1.5265 -2.2398,-2.1887 -2.3732,4.2503 -4.7252,6.7344 -3.7361,11.7049 -0.7169,-0.0268 -1.5218,-0.0276 -2.2026,-0.2987 -1.6129,3.218 -2.3569,4.2894 -1.8945,7.9331 -0.6224,-0.0202 -3.0032,-1.2999 -3.5506,-1.4112 -0.5095,1.1433 0.7722,3.4973 0.2594,4.6667 -0.2732,-0.564 -1.8228,-2.1362 -2.0992,-2.6742 -0.4083,0.9284 0.4697,2.8714 0.0647,3.816 -3.9114,-2.3728 -3.4147,-5.6785 -3.6387,-9.9965 11.3189,-18.1694 23.1456,-35.8722 35.6042,-53.2942 3.9607,-1.3812 6.7958,-2.8299 10.3548,-0.0566 -0.7535,0.7684 -2.4738,0.4669 -3.2175,1.2417 0.6615,0.0039 2.28,1.0711 2.9416,1.075 -0.8645,0.8921 -3.5363,0.619 -4.404,1.5371 z"
   inkscape:connector-curvature="0"
   style="fill:#a6a5a4" />
     <path
   id="_230026504"
   class="fil38"
   d="m 105.016,38.4008 c 0.3221,0.4696 2.3995,2.1824 2.6694,2.7301 -1.1571,0.315 -7.8147,3.7237 -6.3984,5.0513 0.2995,0.2708 0.654,1.0304 0.9271,1.6368 -4.9705,1.0315 -6.4107,4.1812 -9.4124,8.0399 0.9511,0.3952 1.9154,0.7709 2.8959,1.1433 -8.3042,4.3717 -12.1419,9.9892 -12.9233,19.3442 -0.7194,-0.7209 -1.4812,-1.5265 -2.2398,-2.1887 -2.3732,4.2503 -4.7252,6.7344 -3.7361,11.7049 -0.7169,-0.0268 -1.5218,-0.0276 -2.2026,-0.2987 -1.6129,3.218 -2.3569,4.2894 -1.8945,7.9331 -0.6224,-0.0202 -3.0032,-1.2999 -3.5506,-1.4112 -0.5095,1.1433 0.7722,3.4973 0.2594,4.6667 -0.2732,-0.564 -1.8228,-2.1362 -2.0992,-2.6742 -0.4083,0.9284 0.4697,2.8714 0.0647,3.816 -3.9114,-2.3728 -3.283,-5.6248 -3.507,-9.9428 11.3189,-18.1694 23.1456,-35.8722 35.6042,-53.2942 3.9607,-1.3812 6.6641,-2.8836 10.2231,-0.1103 -0.7535,0.7684 -2.4738,0.4669 -3.2175,1.2417 0.6615,0.0039 2.28,1.0711 2.9416,1.075 -0.8645,0.8921 -3.5363,0.619 -4.404,1.5371 z"
   inkscape:connector-curvature="0"
   style="fill:#a4a3a3" />
     <path
   id="_46742240"
   class="fil39"
   d="m 105.016,38.4009 c 0.3221,0.4696 2.3995,2.1824 2.6694,2.7301 -1.1571,0.315 -7.8147,3.7237 -6.3984,5.0513 0.2995,0.2708 0.654,1.0304 0.9271,1.6368 -4.9705,1.0315 -6.4107,4.1812 -9.4124,8.0399 0.9511,0.3952 1.9154,0.7709 2.8959,1.1433 -8.3042,4.3717 -12.1419,9.9892 -12.9233,19.3442 -0.7194,-0.7209 -1.4812,-1.5265 -2.2398,-2.1887 -2.3732,4.2503 -4.7252,6.7344 -3.7361,11.7049 -0.7169,-0.0268 -1.5218,-0.0276 -2.2026,-0.2987 -1.6129,3.218 -2.3569,4.2894 -1.8945,7.9331 -0.6224,-0.0202 -3.0032,-1.2999 -3.5506,-1.4112 -0.5095,1.1433 0.7722,3.4973 0.2594,4.6667 -0.2732,-0.564 -1.8228,-2.1362 -2.0992,-2.6742 -0.4083,0.9284 0.4697,2.8714 0.0647,3.816 C 63.4642,95.5216 64.2243,92.3232 64.0003,88.0052 75.3192,69.8358 87.1459,52.133 99.6045,34.711 c 3.9607,-1.3811 6.5324,-2.9372 10.0914,-0.1639 -0.7535,0.7684 -2.4738,0.4669 -3.2175,1.2417 0.6615,0.0039 2.28,1.0711 2.9416,1.075 -0.8645,0.8921 -3.5363,0.619 -4.404,1.5371 z"
   inkscape:connector-curvature="0"
   style="fill:#a09f9f" />
     <path
   id="_232598760"
   class="fil40"
   d="m 105.016,38.4009 c 0.3221,0.4696 2.3995,2.1824 2.6694,2.7301 -1.1571,0.315 -7.8147,3.7237 -6.3984,5.0513 0.2995,0.2708 0.654,1.0304 0.9271,1.6368 -4.9705,1.0315 -6.4107,4.1812 -9.4124,8.0399 0.9511,0.3952 1.9154,0.7709 2.8959,1.1433 -8.3042,4.3717 -12.1419,9.9892 -12.9233,19.3442 -0.7194,-0.7209 -1.4812,-1.5265 -2.2398,-2.1887 -2.3732,4.2503 -4.7252,6.7344 -3.7361,11.7049 -0.7169,-0.0268 -1.5218,-0.0276 -2.2026,-0.2987 -1.6129,3.218 -2.3569,4.2894 -1.8945,7.9331 -0.6224,-0.0202 -3.0032,-1.2999 -3.5506,-1.4112 -0.5095,1.1433 0.7722,3.4973 0.2594,4.6667 -0.2732,-0.564 -1.8228,-2.1362 -2.0992,-2.6742 -0.4083,0.9284 0.4697,2.8714 0.0647,3.816 -3.9114,-2.3728 -3.0197,-5.5175 -3.2436,-9.8355 11.3188,-18.1694 23.1455,-35.8722 35.6042,-53.2942 3.9606,-1.3812 6.4007,-2.9909 9.9597,-0.2176 -0.7535,0.7684 -2.4738,0.4669 -3.2175,1.2417 0.6615,0.0039 2.28,1.0711 2.9416,1.075 -0.8645,0.8921 -3.5363,0.619 -4.404,1.5371 z"
   inkscape:connector-curvature="0"
   style="fill:#9e9d9c" />
     <path
   id="_78375728"
   class="fil41"
   d="m 105.016,38.401 c 0.3221,0.4696 2.3995,2.1824 2.6694,2.7301 -1.1571,0.315 -7.8147,3.7237 -6.3984,5.0513 0.2995,0.2708 0.654,1.0304 0.9271,1.6368 -4.9705,1.0315 -6.4107,4.1812 -9.4124,8.0399 0.9511,0.3952 1.9154,0.7709 2.8959,1.1433 -8.3042,4.3717 -12.1419,9.9892 -12.9233,19.3442 -0.7194,-0.7209 -1.4812,-1.5265 -2.2398,-2.1887 -2.3732,4.2503 -4.7252,6.7344 -3.7361,11.7049 -0.7169,-0.0268 -1.5218,-0.0276 -2.2026,-0.2987 -1.6129,3.218 -2.3569,4.2894 -1.8945,7.9331 -0.6224,-0.0202 -3.0032,-1.2999 -3.5506,-1.4112 -0.5095,1.1433 0.7722,3.4973 0.2594,4.6667 -0.2732,-0.564 -1.8228,-2.1362 -2.0992,-2.6742 -0.4083,0.9284 0.4697,2.8714 0.0647,3.816 -3.9114,-2.3728 -2.888,-5.4639 -3.1119,-9.7819 11.3188,-18.1694 23.1455,-35.8722 35.6042,-53.2942 3.9606,-1.3811 6.269,-3.0445 9.828,-0.2712 -0.7535,0.7684 -2.4738,0.4669 -3.2175,1.2417 0.6615,0.0039 2.28,1.0711 2.9416,1.075 -0.8645,0.8921 -3.5363,0.619 -4.404,1.5371 z"
   inkscape:connector-curvature="0"
   style="fill:#9c9b9b" />
     <path
   id="_230022952"
   class="fil42"
   d="m 105.016,38.4009 c 0.3221,0.4696 2.3995,2.1824 2.6694,2.7301 -1.1571,0.315 -7.8147,3.7237 -6.3984,5.0513 0.2995,0.2708 0.654,1.0304 0.9271,1.6368 -4.9705,1.0315 -6.4107,4.1812 -9.4124,8.0399 0.9511,0.3952 1.9154,0.7709 2.8959,1.1433 -8.3042,4.3717 -12.1419,9.9892 -12.9233,19.3442 -0.7194,-0.7209 -1.4812,-1.5265 -2.2398,-2.1887 -2.3732,4.2503 -4.7252,6.7344 -3.7361,11.7049 -0.7169,-0.0268 -1.5218,-0.0276 -2.2026,-0.2987 -1.6129,3.218 -2.3569,4.2894 -1.8945,7.9331 -0.6224,-0.0202 -3.0032,-1.2999 -3.5506,-1.4112 -0.5095,1.1433 0.7722,3.4973 0.2594,4.6667 -0.2732,-0.564 -1.8228,-2.1362 -2.0992,-2.6742 -0.4083,0.9284 0.4697,2.8714 0.0647,3.816 C 63.4642,95.5216 64.6193,92.4842 64.3954,88.1662 75.7142,69.9968 87.5409,52.294 99.9996,34.872 c 3.9606,-1.3811 6.1373,-3.0982 9.6963,-0.3249 -0.7535,0.7684 -2.4738,0.4669 -3.2175,1.2417 0.6615,0.0039 2.28,1.0711 2.9416,1.075 -0.8645,0.8921 -3.5363,0.619 -4.404,1.5371 z"
   inkscape:connector-curvature="0"
   style="fill:#989797" />
     <path
   id="_230023120"
   class="fil1"
   d="m 105.016,38.4008 c 0.3221,0.4696 2.3995,2.1824 2.6694,2.7301 -1.1571,0.315 -7.8147,3.7237 -6.3984,5.0513 0.2995,0.2708 0.654,1.0304 0.9271,1.6368 -4.9705,1.0315 -6.4107,4.1812 -9.4124,8.0399 0.9511,0.3952 1.9154,0.7709 2.8959,1.1433 -8.3042,4.3717 -12.1419,9.9892 -12.9233,19.3442 -0.7194,-0.7209 -1.4812,-1.5265 -2.2398,-2.1887 -2.3732,4.2503 -4.7252,6.7344 -3.7361,11.7049 -0.7169,-0.0268 -1.5218,-0.0276 -2.2026,-0.2987 -1.6129,3.218 -2.3569,4.2894 -1.8945,7.9331 -0.6224,-0.0202 -3.0032,-1.2999 -3.5506,-1.4112 -0.5095,1.1433 0.7722,3.4973 0.2594,4.6667 -0.2732,-0.564 -1.8228,-2.1362 -2.0992,-2.6742 -0.4083,0.9284 0.4697,2.8714 0.0647,3.816 -3.9114,-2.3728 -2.6246,-5.3565 -2.8485,-9.6745 11.3188,-18.1694 23.1455,-35.8722 35.6042,-53.2942 3.9606,-1.3812 6.0056,-3.1519 9.5646,-0.3786 -0.7535,0.7684 -2.4738,0.4669 -3.2175,1.2417 0.6615,0.0039 2.28,1.0711 2.9416,1.075 -0.8645,0.8921 -3.5363,0.619 -4.404,1.5371 z"
   inkscape:connector-curvature="0"
   style="fill:#969594" />
     <path
   id="_229891640"
   class="fil43"
   d="m 105.016,38.401 c 0.3221,0.4696 2.3995,2.1824 2.6694,2.7301 -1.1571,0.315 -7.8147,3.7237 -6.3984,5.0513 0.2995,0.2708 0.654,1.0304 0.9271,1.6368 -4.9705,1.0315 -6.4107,4.1812 -9.4124,8.0399 0.9511,0.3952 1.9154,0.7709 2.8959,1.1433 -8.3042,4.3717 -12.1419,9.9892 -12.9233,19.3442 -0.7194,-0.7209 -1.4812,-1.5265 -2.2398,-2.1887 -2.3732,4.2503 -4.7252,6.7344 -3.7361,11.7049 -0.7169,-0.0268 -1.5218,-0.0276 -2.2026,-0.2987 -1.6129,3.218 -2.3569,4.2894 -1.8945,7.9331 -0.6224,-0.0202 -3.0032,-1.2999 -3.5506,-1.4112 -0.5095,1.1433 0.7722,3.4973 0.2594,4.6667 -0.2732,-0.564 -1.8228,-2.1362 -2.0992,-2.6742 -0.4083,0.9284 0.4697,2.8714 0.0647,3.816 -3.9114,-2.3728 -2.4929,-5.3029 -2.7168,-9.6209 11.3188,-18.1694 23.1455,-35.8722 35.6042,-53.2942 3.9606,-1.3811 5.8739,-3.2055 9.4329,-0.4322 -0.7535,0.7684 -2.4738,0.4669 -3.2175,1.2417 0.6615,0.0039 2.28,1.0711 2.9416,1.075 -0.8645,0.8921 -3.5363,0.619 -4.404,1.5371 z"
   inkscape:connector-curvature="0"
   style="fill:#929190" />
     <path
   id="_230023512"
   class="fil44"
   d="m 105.016,38.4009 c 0.3221,0.4696 2.3995,2.1824 2.6694,2.7301 -1.1571,0.315 -7.8147,3.7237 -6.3984,5.0513 0.2995,0.2708 0.654,1.0304 0.9271,1.6368 -4.9705,1.0315 -6.4107,4.1812 -9.4124,8.0399 0.9511,0.3952 1.9154,0.7709 2.8959,1.1433 -8.3042,4.3717 -12.1419,9.9892 -12.9233,19.3442 -0.7194,-0.7209 -1.4812,-1.5265 -2.2398,-2.1887 -2.3732,4.2503 -4.7252,6.7344 -3.7361,11.7049 -0.7169,-0.0268 -1.5218,-0.0276 -2.2026,-0.2987 -1.6129,3.218 -2.3569,4.2894 -1.8945,7.9331 -0.6224,-0.0202 -3.0032,-1.2999 -3.5506,-1.4112 -0.5095,1.1433 0.7722,3.4973 0.2594,4.6667 -0.2732,-0.564 -1.8228,-2.1362 -2.0992,-2.6742 -0.4083,0.9284 0.4697,2.8714 0.0647,3.816 C 63.4642,95.5216 65.0144,92.6452 64.7904,88.3272 76.1093,70.1578 87.936,52.455 100.3946,35.033 c 3.9607,-1.3811 5.7423,-3.2592 9.3013,-0.4859 -0.7535,0.7684 -2.4738,0.4669 -3.2175,1.2417 0.6615,0.0039 2.28,1.0711 2.9416,1.075 -0.8645,0.8921 -3.5363,0.619 -4.404,1.5371 z"
   inkscape:connector-curvature="0"
   style="fill:#908f8e" />
     <path
   id="_230023632"
   class="fil45"
   d="m 105.016,38.4008 c 0.3221,0.4696 2.3995,2.1824 2.6694,2.7301 -1.1571,0.315 -7.8147,3.7237 -6.3984,5.0513 0.2995,0.2708 0.654,1.0304 0.9271,1.6368 -4.9705,1.0315 -6.4107,4.1812 -9.4124,8.0399 0.9511,0.3952 1.9154,0.7709 2.8959,1.1433 -8.3042,4.3717 -12.1419,9.9892 -12.9233,19.3442 -0.7194,-0.7209 -1.4812,-1.5265 -2.2398,-2.1887 -2.3732,4.2503 -4.7252,6.7344 -3.7361,11.7049 -0.7169,-0.0268 -1.5218,-0.0276 -2.2026,-0.2987 -1.6129,3.218 -2.3569,4.2894 -1.8945,7.9331 -0.6224,-0.0202 -3.0032,-1.2999 -3.5506,-1.4112 -0.5095,1.1433 0.7722,3.4973 0.2594,4.6667 -0.2732,-0.564 -1.8228,-2.1362 -2.0992,-2.6742 -0.4083,0.9284 0.4697,2.8714 0.0647,3.816 -3.9114,-2.3728 -2.2295,-5.1955 -2.4535,-9.5135 11.3189,-18.1694 23.1456,-35.8722 35.6042,-53.2942 3.9607,-1.3812 5.6106,-3.3129 9.1696,-0.5396 -0.7535,0.7684 -2.4738,0.4669 -3.2175,1.2417 0.6615,0.0039 2.28,1.0711 2.9416,1.075 -0.8645,0.8921 -3.5363,0.619 -4.404,1.5371 z"
   inkscape:connector-curvature="0"
   style="fill:#8c8b8a" />
     <path
   id="_76590392"
   class="fil46"
   d="m 105.016,38.4009 c 0.3221,0.4696 2.3995,2.1824 2.6694,2.7301 -1.1571,0.315 -7.8147,3.7237 -6.3984,5.0513 0.2995,0.2708 0.654,1.0304 0.9271,1.6368 -4.9705,1.0315 -6.4107,4.1812 -9.4124,8.0399 0.9511,0.3952 1.9154,0.7709 2.8959,1.1433 -8.3042,4.3717 -12.1419,9.9892 -12.9233,19.3442 -0.7194,-0.7209 -1.4812,-1.5265 -2.2398,-2.1887 -2.3732,4.2503 -4.7252,6.7344 -3.7361,11.7049 -0.7169,-0.0268 -1.5218,-0.0276 -2.2026,-0.2987 -1.6129,3.218 -2.3569,4.2894 -1.8945,7.9331 -0.6224,-0.0202 -3.0032,-1.2999 -3.5506,-1.4112 -0.5095,1.1433 0.7722,3.4973 0.2594,4.6667 -0.2732,-0.564 -1.8228,-2.1362 -2.0992,-2.6742 -0.4083,0.9284 0.4697,2.8714 0.0647,3.816 -3.9114,-2.3728 -2.0978,-5.1419 -2.3218,-9.4599 11.3189,-18.1694 23.1456,-35.8722 35.6042,-53.2942 3.9607,-1.3811 5.4789,-3.3665 9.0379,-0.5932 -0.7535,0.7684 -2.4738,0.4669 -3.2175,1.2417 0.6615,0.0039 2.28,1.0711 2.9416,1.075 -0.8645,0.8921 -3.5363,0.619 -4.404,1.5371 z"
   inkscape:connector-curvature="0"
   style="fill:#8b8989" />
     <path
   id="_228562488"
   class="fil47"
   d="m 105.016,38.4009 c 0.3221,0.4696 2.3995,2.1824 2.6694,2.7301 -1.1571,0.315 -7.8147,3.7237 -6.3984,5.0513 0.2995,0.2708 0.654,1.0304 0.9271,1.6368 -4.9705,1.0315 -6.4107,4.1812 -9.4124,8.0399 0.9511,0.3952 1.9154,0.7709 2.8959,1.1433 -8.3042,4.3717 -12.1419,9.9892 -12.9233,19.3442 -0.7194,-0.7209 -1.4812,-1.5265 -2.2398,-2.1887 -2.3732,4.2503 -4.7252,6.7344 -3.7361,11.7049 -0.7169,-0.0268 -1.5218,-0.0276 -2.2026,-0.2987 -1.6129,3.218 -2.3569,4.2894 -1.8945,7.9331 -0.6224,-0.0202 -3.0032,-1.2999 -3.5506,-1.4112 -0.5095,1.1433 0.7722,3.4973 0.2594,4.6667 -0.2732,-0.564 -1.8228,-2.1362 -2.0992,-2.6742 -0.4083,0.9284 0.4697,2.8714 0.0647,3.816 -3.9114,-2.3728 -1.9661,-5.0882 -2.1901,-9.4062 11.3189,-18.1694 23.1456,-35.8722 35.6042,-53.2942 3.9607,-1.3811 5.3472,-3.4202 8.9062,-0.6469 -0.7535,0.7684 -2.4738,0.4669 -3.2175,1.2417 0.6615,0.0039 2.28,1.0711 2.9416,1.075 -0.8645,0.8921 -3.5363,0.619 -4.404,1.5371 z"
   inkscape:connector-curvature="0"
   style="fill:#888787" />
     <path
   id="_228562608"
   class="fil48"
   d="m 105.016,38.401 c 0.3221,0.4696 2.3995,2.1824 2.6694,2.7301 -1.1571,0.315 -7.8147,3.7237 -6.3984,5.0513 0.2995,0.2708 0.654,1.0304 0.9271,1.6368 -4.9705,1.0315 -6.4107,4.1812 -9.4124,8.0399 0.9511,0.3952 1.9154,0.7709 2.8959,1.1433 -8.3042,4.3717 -12.1419,9.9892 -12.9233,19.3442 -0.7194,-0.7209 -1.4812,-1.5265 -2.2398,-2.1887 -2.3732,4.2503 -4.7252,6.7344 -3.7361,11.7049 -0.7169,-0.0268 -1.5218,-0.0276 -2.2026,-0.2987 -1.6129,3.218 -2.3569,4.2894 -1.8945,7.9331 -0.6224,-0.0202 -3.0032,-1.2999 -3.5506,-1.4112 -0.5095,1.1433 0.7722,3.4973 0.2594,4.6667 -0.2732,-0.564 -1.8228,-2.1362 -2.0992,-2.6742 -0.4083,0.9284 0.4697,2.8714 0.0647,3.816 -3.9114,-2.3728 -1.8344,-5.0346 -2.0584,-9.3526 11.3189,-18.1694 23.1456,-35.8722 35.6042,-53.2942 3.9607,-1.3811 5.2155,-3.4738 8.7745,-0.7005 -0.7535,0.7684 -2.4738,0.4669 -3.2175,1.2417 0.6615,0.0039 2.28,1.0711 2.9416,1.075 -0.8645,0.8921 -3.5363,0.619 -4.404,1.5371 z"
   inkscape:connector-curvature="0"
   style="fill:#858483" />
    </g>
    <path
   id="_230024800"
   class="fil49"
   d="m 105.016,38.401 c 0.3221,0.4696 2.3995,2.1824 2.6694,2.7301 -1.1571,0.315 -7.8147,3.7237 -6.3984,5.0513 0.2995,0.2708 0.654,1.0304 0.9271,1.6368 -4.9705,1.0315 -6.4107,4.1812 -9.4124,8.0399 0.9511,0.3952 1.9154,0.7709 2.8959,1.1433 -8.3042,4.3717 -12.1419,9.9892 -12.9233,19.3442 -0.7194,-0.7209 -1.4812,-1.5265 -2.2398,-2.1887 -2.3732,4.2503 -4.7252,6.7344 -3.7361,11.7049 -0.7169,-0.0268 -1.5218,-0.0276 -2.2026,-0.2987 -1.6129,3.218 -2.3569,4.2894 -1.8945,7.9331 -0.6224,-0.0202 -3.0032,-1.2999 -3.5506,-1.4112 -0.5095,1.1433 0.7722,3.4973 0.2594,4.6667 -0.2732,-0.564 -1.8228,-2.1362 -2.0992,-2.6742 -0.4083,0.9284 0.4697,2.8714 0.0647,3.816 -3.9114,-2.3728 -1.7027,-4.9809 -1.9267,-9.2989 11.3189,-18.1694 23.1456,-35.8722 35.6042,-53.2942 3.9607,-1.3811 5.0838,-3.5275 8.6428,-0.7542 -0.7535,0.7684 -2.4738,0.4669 -3.2175,1.2417 0.6615,0.0039 2.28,1.0711 2.9416,1.075 -0.8645,0.8921 -3.5363,0.619 -4.404,1.5371 z"
   inkscape:connector-curvature="0"
   style="fill:#838281" />
    <path
   id="_506489000"
   class="fil3 str0"
   d="M 101.245,44.7672 C 89.799,56.2529 80.7269,69.5363 74.8401,84.6086 c -2.8469,2.1676 -5.0577,3.5732 -6.1324,2.8976 -1.0259,-0.643 -0.7889,-3.0281 -0.0069,-6.2926 8.808,-13.2478 17.6259,-26.4892 26.3917,-39.7795 2.7654,-2.0666 4.9402,-3.3973 6.0182,-2.7477 1.0292,0.6169 0.8477,2.9401 0.1343,6.0808 z"
   inkscape:connector-curvature="0"
   style="fill:#da251d;stroke:#1f1a17;stroke-width:0.0762" />
    <path
   id="_79614232"
   class="fil50 str0"
   d="m 105.016,38.401 c 0.3221,0.4696 2.3995,2.1824 2.6694,2.7301 -1.1571,0.315 -7.8147,3.7237 -6.3984,5.0513 0.2995,0.2708 0.654,1.0304 0.9271,1.6368 -4.9705,1.0315 -6.4107,4.1812 -9.4124,8.0399 0.9511,0.3952 1.9154,0.7709 2.8959,1.1433 -8.3042,4.3717 -12.1419,9.9892 -12.9233,19.3442 -0.7194,-0.7209 -1.4812,-1.5265 -2.2398,-2.1887 -2.3732,4.2503 -4.7252,6.7344 -3.7361,11.7049 -0.7169,-0.0268 -1.5218,-0.0276 -2.2026,-0.2987 -1.6129,3.218 -2.3569,4.2894 -1.8945,7.9331 -0.6224,-0.0202 -3.0032,-1.2999 -3.5506,-1.4112 -0.5095,1.1433 0.7722,3.4973 0.2594,4.6667 -0.2732,-0.564 -1.8228,-2.1362 -2.0992,-2.6742 -0.4083,0.9284 0.4697,2.8714 0.0647,3.816 -3.9114,-2.3728 -4.4683,-6.1078 -4.6922,-10.4258 11.3188,-18.1694 23.1455,-35.8722 35.6042,-53.2942 3.9606,-1.3812 7.8493,-2.4006 11.4083,0.3727 -0.7535,0.7684 -2.4738,0.4669 -3.2175,1.2417 0.6615,0.0039 2.28,1.0711 2.9416,1.075 -0.8645,0.8921 -3.5363,0.619 -4.404,1.5371 z"
   inkscape:connector-curvature="0"
   style="fill:none;stroke:#1f1a17;stroke-width:0.0762" />
    <path
   id="_219517112"
   class="fil3 str0"
   d="m 93.6267,57.9992 c 3.5135,1.1046 6.9101,2.1637 10.1637,2.9475 -1.3205,0.7039 -2.8484,1.302 -4.5154,1.5945 -1.7727,0.3037 -3.7751,0.3395 -5.8228,0.3451 1.4089,1.5625 1.0424,2.2334 2.4098,3.7846 2.5293,1.0847 5.036,2.1053 7.4975,3.0957 -1.4105,0.2023 -2.9379,0.3102 -4.5029,0.3765 1.2731,1.521 2.5199,3.0079 3.7439,4.5288 -2.0547,-0.4733 -4.1659,-0.9845 -6.2319,-1.5144 0.6356,1.6674 1.2148,3.346 1.6808,4.9492 -1.9853,-2.0458 -4.0159,-4.1218 -6.1106,-6.1753 -1.8321,-0.5373 -1.8929,-0.1527 -3.7363,-0.6975 0.79,1.9014 1.516,3.7762 1.9027,5.5226 0.3755,1.6898 0.389,3.3339 0.2291,4.8459 -1.9357,-2.683 -4.105,-5.5058 -6.5008,-8.1855 -4.0607,-4.5443 -7.75,-7.0744 -16.1995,-8.4024 9.6223,-2.6304 14.2187,-9.9266 12.4893,-19.2577 3.5607,6.8591 7.3887,10.3321 13.5034,12.2424 z"
   inkscape:connector-curvature="0"
   style="fill:#da251d;stroke:#1f1a17;stroke-width:0.0762" />
    <rect
   id="_218455984"
   class="fil51"
   transform="matrix(-0.195287,0.0353386,-0.0353386,-0.195287,88.0443,65.6661)"
   width="30.657801"
   height="30.657801"
   x="0"
   y="0"
   style="fill:#28166f" />
    <g
   id="g161">
     <path
   id="_79672168"
   class="fil52"
   d="m 88.0016,65.6364 c -1.9716,0.3568 -3.9432,0.7136 -5.9147,1.0703 -0.3568,-1.9715 -0.7135,-3.943 -1.0704,-5.9146 1.9716,-0.3567 3.9432,-0.7135 5.9148,-1.0703 0.3568,1.9716 0.7135,3.9431 1.0703,5.9146 z"
   inkscape:connector-curvature="0"
   style="fill:#2d1b72" />
     <path
   id="_77393816"
   class="fil53"
   d="m 87.9587,65.6069 c -1.9474,0.3525 -3.8949,0.7048 -5.8423,1.0572 -0.3524,-1.9473 -0.7047,-3.8948 -1.0572,-5.8422 1.9474,-0.3524 3.8949,-0.7047 5.8423,-1.0572 0.3525,1.9474 0.7048,3.8949 1.0572,5.8422 z"
   inkscape:connector-curvature="0"
   style="fill:#311f74" />
     <path
   id="_84161864"
   class="fil54"
   d="m 87.9159,65.5772 c -1.9233,0.3481 -3.8466,0.6961 -5.7699,1.0441 -0.348,-1.9232 -0.6961,-3.8465 -1.0442,-5.7698 1.9234,-0.348 3.8467,-0.696 5.77,-1.0441 0.3481,1.9233 0.6961,3.8466 1.0441,5.7698 z"
   inkscape:connector-curvature="0"
   style="fill:#352377" />
     <path
   id="_84162008"
   class="fil55"
   d="m 87.873,65.5477 c -1.8991,0.3437 -3.7983,0.6874 -5.6975,1.031 -0.3436,-1.8991 -0.6873,-3.7982 -1.031,-5.6974 1.8992,-0.3436 3.7983,-0.6873 5.6975,-1.031 0.3437,1.8992 0.6874,3.7983 1.031,5.6974 z"
   inkscape:connector-curvature="0"
   style="fill:#392779" />
     <path
   id="_43572784"
   class="fil56"
   d="m 87.8302,65.518 c -1.8751,0.3394 -3.7501,0.6787 -5.6251,1.0179 -0.3393,-1.8749 -0.6786,-3.75 -1.018,-5.625 1.8751,-0.3393 3.7501,-0.6785 5.6252,-1.0179 0.3393,1.875 0.6786,3.7501 1.0179,5.625 z"
   inkscape:connector-curvature="0"
   style="fill:#3d2b7c" />
     <path
   id="_502550016"
   class="fil57"
   d="m 87.7874,65.4885 c -1.8509,0.335 -3.7018,0.6699 -5.5527,1.0048 -0.3349,-1.8508 -0.6698,-3.7017 -1.0048,-5.5526 1.8509,-0.3349 3.7018,-0.6698 5.5527,-1.0048 0.335,1.8509 0.6699,3.7018 1.0048,5.5526 z"
   inkscape:connector-curvature="0"
   style="fill:#41307e" />
     <path
   id="_43881920"
   class="fil58"
   d="m 87.7445,65.4589 c -1.8268,0.3307 -3.6536,0.6612 -5.4803,0.9917 -0.3306,-1.8267 -0.6611,-3.6534 -0.9918,-5.4802 1.8268,-0.3305 3.6536,-0.6611 5.4804,-0.9917 0.3306,1.8268 0.6612,3.6535 0.9917,5.4802 z"
   inkscape:connector-curvature="0"
   style="fill:#443481" />
     <path
   id="_505804080"
   class="fil59"
   d="m 87.7016,65.4294 c -1.8026,0.3263 -3.6052,0.6525 -5.4079,0.9786 -0.3262,-1.8025 -0.6523,-3.6052 -0.9786,-5.4078 1.8026,-0.3262 3.6053,-0.6523 5.4079,-0.9786 0.3263,1.8026 0.6525,3.6053 0.9786,5.4078 z"
   inkscape:connector-curvature="0"
   style="fill:#473783" />
     <path
   id="_505804224"
   class="fil60"
   d="m 87.6588,65.3997 c -1.7785,0.3219 -3.557,0.6438 -5.3355,0.9656 -0.3218,-1.7785 -0.6437,-3.557 -0.9656,-5.3355 1.7786,-0.3218 3.5571,-0.6436 5.3356,-0.9655 0.3219,1.7785 0.6437,3.557 0.9655,5.3354 z"
   inkscape:connector-curvature="0"
   style="fill:#4a3b85" />
     <path
   id="_46322128"
   class="fil61"
   d="m 87.6159,65.3702 c -1.7543,0.3176 -3.5087,0.635 -5.2631,0.9525 -0.3174,-1.7543 -0.6349,-3.5087 -0.9524,-5.2631 1.7544,-0.3175 3.5088,-0.6349 5.2631,-0.9524 0.3176,1.7544 0.635,3.5088 0.9524,5.263 z"
   inkscape:connector-curvature="0"
   style="fill:#4d3e87" />
     <path
   id="_218236072"
   class="fil62"
   d="m 87.5731,65.3405 c -1.7302,0.3132 -3.4605,0.6263 -5.1907,0.9394 -0.3131,-1.7302 -0.6262,-3.4605 -0.9394,-5.1907 1.7303,-0.3131 3.4605,-0.6262 5.1908,-0.9393 0.3131,1.7302 0.6262,3.4605 0.9393,5.1906 z"
   inkscape:connector-curvature="0"
   style="fill:#50428a" />
     <path
   id="_79640312"
   class="fil63"
   d="m 87.5303,65.3109 c -1.7061,0.3088 -3.4123,0.6176 -5.1184,0.9263 -0.3087,-1.7061 -0.6174,-3.4122 -0.9262,-5.1183 1.7061,-0.3087 3.4122,-0.6174 5.1183,-0.9262 0.3088,1.7061 0.6176,3.4122 0.9263,5.1182 z"
   inkscape:connector-curvature="0"
   style="fill:#53458c" />
     <path
   id="_505600984"
   class="fil64"
   d="m 87.4875,65.2814 c -1.682,0.3044 -3.3639,0.6087 -5.0459,0.9131 -0.3044,-1.6819 -0.6087,-3.3639 -0.9132,-5.0459 1.682,-0.3044 3.364,-0.6087 5.046,-0.9131 0.3044,1.682 0.6088,3.364 0.9131,5.0459 z"
   inkscape:connector-curvature="0"
   style="fill:#55478d" />
     <path
   id="_43527560"
   class="fil65"
   d="m 87.4447,65.2518 c -1.6579,0.3 -3.3157,0.6 -4.9736,0.9 -0.3,-1.6578 -0.5999,-3.3157 -0.9,-4.9735 1.6578,-0.3 3.3157,-0.6 4.9735,-0.9 0.3001,1.6578 0.6001,3.3157 0.9001,4.9735 z"
   inkscape:connector-curvature="0"
   style="fill:#584a8f" />
     <path
   id="_43527704"
   class="fil66"
   d="m 87.4018,65.2222 c -1.6337,0.2957 -3.2674,0.5913 -4.9011,0.8869 -0.2956,-1.6337 -0.5913,-3.2674 -0.887,-4.9011 1.6338,-0.2956 3.2675,-0.5912 4.9012,-0.8869 0.2957,1.6337 0.5913,3.2674 0.8869,4.9011 z"
   inkscape:connector-curvature="0"
   style="fill:#5c4e92" />
     <path
   id="_79696008"
   class="fil67"
   d="m 87.359,65.1926 c -1.6096,0.2913 -3.2192,0.5826 -4.8288,0.8738 -0.2912,-1.6095 -0.5825,-3.2191 -0.8738,-4.8287 1.6096,-0.2913 3.2192,-0.5825 4.8287,-0.8738 0.2914,1.6096 0.5826,3.2192 0.8739,4.8287 z"
   inkscape:connector-curvature="0"
   style="fill:#5f5194" />
     <path
   id="_227919808"
   class="fil68"
   d="m 87.3161,65.163 c -1.5854,0.2869 -3.1709,0.5738 -4.7563,0.8607 -0.2869,-1.5854 -0.5738,-3.1709 -0.8608,-4.7563 1.5855,-0.2869 3.171,-0.5738 4.7564,-0.8607 0.287,1.5854 0.5739,3.1709 0.8607,4.7563 z"
   inkscape:connector-curvature="0"
   style="fill:#625496" />
     <path
   id="_82809768"
   class="fil69"
   d="m 87.2734,65.1333 c -1.5613,0.2826 -3.1226,0.5651 -4.684,0.8476 -0.2825,-1.5613 -0.565,-3.1226 -0.8476,-4.6839 1.5613,-0.2825 3.1227,-0.565 4.684,-0.8476 0.2826,1.5613 0.5651,3.1226 0.8476,4.6839 z"
   inkscape:connector-curvature="0"
   style="fill:#655898" />
     <path
   id="_84687120"
   class="fil70"
   d="m 87.2304,65.1038 c -1.5371,0.2782 -3.0743,0.5564 -4.6115,0.8345 -0.2782,-1.5371 -0.5563,-3.0743 -0.8346,-4.6115 1.5372,-0.2782 3.0744,-0.5563 4.6116,-0.8345 0.2782,1.5372 0.5564,3.0744 0.8345,4.6115 z"
   inkscape:connector-curvature="0"
   style="fill:#685b9b" />
     <path
   id="_502379912"
   class="fil71"
   d="m 87.1877,65.0742 c -1.513,0.2738 -3.0261,0.5477 -4.5392,0.8214 -0.2737,-1.513 -0.5476,-3.0261 -0.8214,-4.5391 1.5131,-0.2738 3.0261,-0.5476 4.5392,-0.8214 0.2738,1.513 0.5476,3.0261 0.8214,4.5391 z"
   inkscape:connector-curvature="0"
   style="fill:#6b5e9d" />
     <path
   id="_222430184"
   class="fil72"
   d="m 87.1448,65.0446 c -1.4889,0.2695 -2.9779,0.5389 -4.4668,0.8083 -0.2694,-1.4889 -0.5389,-2.9778 -0.8084,-4.4667 1.489,-0.2694 2.9779,-0.5388 4.4668,-0.8083 0.2695,1.4889 0.539,2.9778 0.8084,4.4667 z"
   inkscape:connector-curvature="0"
   style="fill:#6f629f" />
     <path
   id="_507390024"
   class="fil73"
   d="m 87.1019,65.015 c -1.4648,0.2651 -2.9296,0.5302 -4.3944,0.7952 -0.265,-1.4647 -0.5301,-2.9295 -0.7952,-4.3943 1.4648,-0.2651 2.9296,-0.5301 4.3944,-0.7952 0.2651,1.4648 0.5302,2.9296 0.7952,4.3943 z"
   inkscape:connector-curvature="0"
   style="fill:#7266a2" />
     <path
   id="_511370576"
   class="fil74"
   d="m 87.0592,64.9854 c -1.4407,0.2608 -2.8813,0.5215 -4.322,0.7821 -0.2607,-1.4406 -0.5214,-2.8813 -0.7822,-4.3219 1.4407,-0.2607 2.8814,-0.5214 4.322,-0.7821 0.2608,1.4406 0.5215,2.8813 0.7822,4.3219 z"
   inkscape:connector-curvature="0"
   style="fill:#7569a4" />
     <path
   id="_83889944"
   class="fil75"
   d="m 87.0162,64.9558 c -1.4165,0.2564 -2.833,0.5127 -4.2496,0.769 -0.2563,-1.4165 -0.5126,-2.833 -0.769,-4.2495 1.4165,-0.2563 2.8331,-0.5126 4.2496,-0.769 0.2564,1.4165 0.5127,2.833 0.769,4.2495 z"
   inkscape:connector-curvature="0"
   style="fill:#786ca7" />
     <path
   id="_83890072"
   class="fil76"
   d="m 86.9735,64.9262 c -1.3924,0.252 -2.7848,0.504 -4.1772,0.7559 -0.252,-1.3923 -0.5039,-2.7847 -0.756,-4.1771 1.3924,-0.252 2.7849,-0.5039 4.1772,-0.7559 0.2521,1.3924 0.504,2.7848 0.756,4.1771 z"
   inkscape:connector-curvature="0"
   style="fill:#7b70a9" />
     <path
   id="_82825200"
   class="fil77"
   d="m 86.9304,64.8966 c -1.3682,0.2477 -2.7365,0.4953 -4.1048,0.7429 -0.2475,-1.3683 -0.4952,-2.7366 -0.7428,-4.1049 1.3683,-0.2475 2.7365,-0.4951 4.1048,-0.7428 0.2476,1.3683 0.4953,2.7366 0.7428,4.1048 z"
   inkscape:connector-curvature="0"
   style="fill:#7e74ab" />
     <path
   id="_503859216"
   class="fil78"
   d="m 86.8877,64.867 c -1.3441,0.2433 -2.6883,0.4866 -4.0324,0.7298 -0.2432,-1.3441 -0.4865,-2.6883 -0.7298,-4.0325 1.3442,-0.2432 2.6883,-0.4864 4.0324,-0.7297 0.2433,1.3442 0.4866,2.6884 0.7298,4.0324 z"
   inkscape:connector-curvature="0"
   style="fill:#8177ae" />
     <path
   id="_78507512"
   class="fil79"
   d="m 86.8447,64.8374 c -1.3199,0.2389 -2.64,0.4778 -3.96,0.7167 -0.2388,-1.32 -0.4777,-2.64 -0.7166,-3.9601 1.32,-0.2388 2.64,-0.4776 3.96,-0.7166 0.2389,1.3201 0.4778,2.6401 0.7166,3.96 z"
   inkscape:connector-curvature="0"
   style="fill:#857bb0" />
     <path
   id="_81246048"
   class="fil80"
   d="m 86.802,64.8078 c -1.2958,0.2346 -2.5917,0.4691 -3.8876,0.7036 -0.2345,-1.2959 -0.469,-2.5918 -0.7036,-3.8877 1.2959,-0.2344 2.5918,-0.4689 3.8876,-0.7035 0.2346,1.2959 0.4691,2.5918 0.7036,3.8876 z"
   inkscape:connector-curvature="0"
   style="fill:#887eb3" />
     <path
   id="_230021688"
   class="fil81"
   d="m 86.7591,64.7782 c -1.2717,0.2302 -2.5434,0.4604 -3.8152,0.6905 -0.2301,-1.2717 -0.4602,-2.5435 -0.6904,-3.8153 1.2717,-0.2301 2.5435,-0.4602 3.8152,-0.6904 0.2302,1.2718 0.4603,2.5436 0.6904,3.8152 z"
   inkscape:connector-curvature="0"
   style="fill:#8c82b5" />
     <path
   id="_230020968"
   class="fil82"
   d="m 86.7162,64.7486 c -1.2476,0.2259 -2.4952,0.4516 -3.7428,0.6774 -0.2258,-1.2476 -0.4515,-2.4952 -0.6774,-3.7429 1.2476,-0.2257 2.4953,-0.4514 3.7428,-0.6773 0.2259,1.2477 0.4517,2.4953 0.6774,3.7428 z"
   inkscape:connector-curvature="0"
   style="fill:#9087b9" />
     <path
   id="_230204504"
   class="fil83"
   d="m 86.6735,64.719 c -1.2235,0.2215 -2.447,0.4429 -3.6705,0.6643 -0.2213,-1.2235 -0.4428,-2.447 -0.6642,-3.6705 1.2235,-0.2213 2.447,-0.4427 3.6704,-0.6642 0.2215,1.2235 0.4429,2.447 0.6643,3.6704 z"
   inkscape:connector-curvature="0"
   style="fill:#948bbb" />
     <path
   id="_502408424"
   class="fil84"
   d="m 86.6305,64.6895 c -1.1993,0.2171 -2.3987,0.4342 -3.598,0.6512 -0.217,-1.1993 -0.4341,-2.3987 -0.6512,-3.5981 1.1994,-0.217 2.3987,-0.434 3.598,-0.6511 0.2171,1.1994 0.4342,2.3988 0.6512,3.598 z"
   inkscape:connector-curvature="0"
   style="fill:#988fbe" />
     <path
   id="_502456472"
   class="fil85"
   d="m 86.5878,64.6598 c -1.1752,0.2128 -2.3504,0.4255 -3.5257,0.6381 -0.2126,-1.1752 -0.4253,-2.3504 -0.638,-3.5257 1.1752,-0.2126 2.3504,-0.4252 3.5256,-0.638 0.2127,1.1753 0.4254,2.3505 0.6381,3.5256 z"
   inkscape:connector-curvature="0"
   style="fill:#9b93c1" />
     <path
   id="_232191496"
   class="fil86"
   d="m 86.5449,64.6302 c -1.151,0.2084 -2.3021,0.4167 -3.4532,0.625 -0.2083,-1.1511 -0.4166,-2.3022 -0.625,-3.4533 1.1511,-0.2082 2.3022,-0.4165 3.4533,-0.6249 0.2083,1.1511 0.4167,2.3022 0.6249,3.4532 z"
   inkscape:connector-curvature="0"
   style="fill:#a097c4" />
     <path
   id="_46765920"
   class="fil87"
   d="m 86.5021,64.6006 c -1.1269,0.204 -2.2539,0.408 -3.3809,0.6119 -0.2039,-1.1269 -0.4078,-2.2539 -0.6118,-3.3809 1.1269,-0.2039 2.2539,-0.4078 3.3808,-0.6118 0.204,1.127 0.408,2.254 0.6119,3.3808 z"
   inkscape:connector-curvature="0"
   style="fill:#a49cc7" />
     <path
   id="_229847664"
   class="fil88"
   d="m 86.4592,64.571 c -1.1027,0.1997 -2.2056,0.3993 -3.3084,0.5988 -0.1995,-1.1028 -0.3992,-2.2056 -0.5988,-3.3085 1.1029,-0.1995 2.2057,-0.399 3.3085,-0.5987 0.1996,1.1029 0.3992,2.2057 0.5987,3.3084 z"
   inkscape:connector-curvature="0"
   style="fill:#a8a0c9" />
     <path
   id="_224125488"
   class="fil89"
   d="m 86.4163,64.5414 c -1.0786,0.1953 -2.1574,0.3906 -3.2361,0.5857 -0.1951,-1.0787 -0.3904,-2.1574 -0.5856,-3.2361 1.0787,-0.1951 2.1574,-0.3903 3.236,-0.5856 0.1953,1.0787 0.3905,2.1574 0.5857,3.236 z"
   inkscape:connector-curvature="0"
   style="fill:#ada5cd" />
     <path
   id="_84680616"
   class="fil90"
   d="m 86.3735,64.5119 c -1.0545,0.1909 -2.109,0.3817 -3.1636,0.5725 -0.1908,-1.0545 -0.3817,-2.1091 -0.5726,-3.1637 1.0546,-0.1908 2.1092,-0.3816 3.1637,-0.5725 0.1909,1.0546 0.3817,2.1092 0.5725,3.1637 z"
   inkscape:connector-curvature="0"
   style="fill:#b0a8cf" />
     <path
   id="_502226032"
   class="fil91"
   d="m 86.3307,64.4823 c -1.0304,0.1865 -2.0608,0.373 -3.0913,0.5594 -0.1864,-1.0304 -0.3729,-2.0608 -0.5594,-3.0913 1.0304,-0.1864 2.0609,-0.3728 3.0912,-0.5594 0.1866,1.0305 0.3731,2.0609 0.5595,3.0913 z"
   inkscape:connector-curvature="0"
   style="fill:#b5aed2" />
     <path
   id="_502226120"
   class="fil92"
   d="m 86.2879,64.4526 c -1.0063,0.1821 -2.0126,0.3643 -3.0189,0.5463 -0.1821,-1.0063 -0.3642,-2.0126 -0.5464,-3.0189 1.0063,-0.182 2.0126,-0.3641 3.0189,-0.5463 0.1821,1.0063 0.3643,2.0126 0.5464,3.0189 z"
   inkscape:connector-curvature="0"
   style="fill:#bab3d6" />
     <path
   id="_228952616"
   class="fil93"
   d="m 86.245,64.4231 c -0.9821,0.1778 -1.9643,0.3555 -2.9465,0.5332 -0.1777,-0.9821 -0.3554,-1.9643 -0.5332,-2.9465 0.9821,-0.1777 1.9643,-0.3554 2.9464,-0.5332 0.1778,0.9822 0.3556,1.9644 0.5333,2.9465 z"
   inkscape:connector-curvature="0"
   style="fill:#c0b9d9" />
     <path
   id="_503727672"
   class="fil94"
   d="m 86.2022,64.3934 c -0.958,0.1734 -1.9161,0.3468 -2.8741,0.5202 -0.1733,-0.9581 -0.3468,-1.9161 -0.5202,-2.8742 0.9581,-0.1733 1.9161,-0.3467 2.8741,-0.5201 0.1734,0.9581 0.3468,1.9161 0.5202,2.8741 z"
   inkscape:connector-curvature="0"
   style="fill:#c6bfdd" />
     <path
   id="_502104024"
   class="fil95"
   d="m 86.1593,64.3639 c -0.9338,0.169 -1.8677,0.3381 -2.8017,0.5071 -0.1689,-0.9339 -0.338,-1.8679 -0.507,-2.8018 0.9339,-0.169 1.8678,-0.3379 2.8016,-0.507 0.1691,0.9339 0.3381,1.8679 0.5071,2.8017 z"
   inkscape:connector-curvature="0"
   style="fill:#cbc4e0" />
     <path
   id="_45962984"
   class="fil96"
   d="m 86.1164,64.3343 c -0.9097,0.1647 -1.8195,0.3294 -2.7293,0.494 -0.1646,-0.9098 -0.3293,-1.8196 -0.494,-2.7294 0.9098,-0.1646 1.8196,-0.3292 2.7293,-0.4939 0.1647,0.9098 0.3294,1.8196 0.494,2.7293 z"
   inkscape:connector-curvature="0"
   style="fill:#d2cce4" />
     <path
   id="_84729760"
   class="fil97"
   d="m 86.0736,64.3048 c -0.8855,0.1603 -1.7712,0.3206 -2.6569,0.4809 -0.1602,-0.8857 -0.3205,-1.7713 -0.4808,-2.657 0.8856,-0.1602 1.7713,-0.3205 2.6568,-0.4808 0.1604,0.8857 0.3207,1.7713 0.4809,2.6569 z"
   inkscape:connector-curvature="0"
   style="fill:#d9d4e9" />
     <path
   id="_46800808"
   class="fil98"
   d="m 86.0308,64.2751 c -0.8615,0.156 -1.723,0.3119 -2.5845,0.4678 -0.1559,-0.8615 -0.3118,-1.7231 -0.4678,-2.5846 0.8615,-0.1559 1.7231,-0.3117 2.5845,-0.4677 0.156,0.8615 0.3119,1.7231 0.4678,2.5845 z"
   inkscape:connector-curvature="0"
   style="fill:#e2deee" />
     <path
   id="_43604968"
   class="fil99"
   d="m 85.9879,64.2456 c -0.8373,0.1516 -1.6747,0.3032 -2.5121,0.4547 -0.1515,-0.8374 -0.303,-1.6748 -0.4546,-2.5122 0.8373,-0.1515 1.6747,-0.303 2.512,-0.4546 0.1516,0.8374 0.3032,1.6748 0.4547,2.5121 z"
   inkscape:connector-curvature="0"
   style="fill:#e9e6f2" />
     <path
   id="_43605056"
   class="fil100"
   d="m 85.9451,64.2159 c -0.8132,0.1472 -1.6264,0.2945 -2.4397,0.4416 -0.1471,-0.8133 -0.2944,-1.6265 -0.4416,-2.4398 0.8133,-0.1471 1.6265,-0.2943 2.4397,-0.4415 0.1472,0.8133 0.2945,1.6265 0.4416,2.4397 z"
   inkscape:connector-curvature="0"
   style="fill:#f1eff7" />
     <path
   id="_501997104"
   class="fil101"
   d="m 85.9022,64.1864 c -0.789,0.1429 -1.5781,0.2857 -2.3673,0.4285 -0.1427,-0.7891 -0.2856,-1.5783 -0.4284,-2.3674 0.7891,-0.1428 1.5782,-0.2855 2.3672,-0.4284 0.1429,0.7891 0.2858,1.5783 0.4285,2.3673 z"
   inkscape:connector-curvature="0"
   style="fill:#f8f7fb" />
    </g>
    <rect
   id="_46294408"
   class="fil102"
   transform="matrix(-0.0748562,0.013549,-0.013549,-0.0748562,85.8592,64.1567)"
   width="30.657801"
   height="30.657801"
   x="0"
   y="0"
   style="fill:#ffffff" />
    <path
   id="_502318504"
   class="fil103 str0"
   d="M 17.4799,25.1595 C 15.608,19.4413 14.6061,13.7583 15.1331,9.4277 16.2482,8.5511 15.0312,8.2179 13.9853,8.5947 c -0.6299,0.2245 -0.9128,0.747 -1.1088,2.2045 -0.765,5.8263 0.2988,10.5745 2.2405,15.2471 0.1865,0.4391 0.072,0.4618 1.5105,0.6121 0.6487,0.0693 1.1644,-0.5789 0.8524,-1.4989 z"
   inkscape:connector-curvature="0"
   style="fill:#4d4948;stroke:#1f1a17;stroke-width:0.0762" />
    <path
   id="_78675936"
   class="fil104 str0"
   d="M 17.7473,24.9079 C 15.8754,19.1897 14.8734,13.5067 15.4004,9.1761 16.5156,8.2995 15.2986,7.9663 14.2526,8.3431 c -0.6298,0.2245 -0.9051,0.7356 -1.1087,2.2045 -0.7536,5.834 0.1805,10.5286 2.0153,15.2622 0.2321,0.6184 0.224,1.1755 1.6815,1.322 0.6678,0.0655 1.2186,-1.3039 0.9066,-2.2239 z"
   inkscape:connector-curvature="0"
   style="fill:url(#linearGradient983);stroke:#1f1a17;stroke-width:0.0762" />
    <rect
   id="_46613264"
   class="fil105"
   transform="matrix(-0.480555,0.147411,-0.147411,-0.480555,15.7594,16.8122)"
   width="5.6641998"
   height="4.1148"
   x="0"
   y="0"
   style="fill:#3f4446" />
    <path
   id="_80994288"
   class="fil106 str0"
   d="M 24.7411,14.0925 C 22.5628,13.415 12.5995,17.0343 8.6781,19.4613 7.9786,20.7314 7.1254,19.0362 7.6529,18.098 c 0.3517,-0.6255 1.1614,-1.3421 2.0739,-1.7915 5.1616,-2.4754 11.7954,-4.0831 15.2718,-4.1103 0.4579,0.0081 0.7359,0.6075 1.296,1.4284 0.8456,1.6074 -0.9577,-0.1268 -1.5535,0.4679 z"
   inkscape:connector-curvature="0"
   style="fill:url(#id1);stroke:#1f1a17;stroke-width:0.0762" />
   </g>
  </g>
 </g>
</svg>