<?xml version="1.0" encoding="UTF-8" standalone="no"?>
<!-- Created with Inkscape (http://www.inkscape.org/) -->

<svg
   width="21.934185mm"
   height="32.663296mm"
   viewBox="0 0 21.934185 32.663296"
   version="1.1"
   id="svg1889"
   inkscape:version="1.1.2 (0a00cf5339, 2022-02-04)"
   sodipodi:docname="item363.svg"
   xmlns:inkscape="http://www.inkscape.org/namespaces/inkscape"
   xmlns:sodipodi="http://sodipodi.sourceforge.net/DTD/sodipodi-0.dtd"
   xmlns="http://www.w3.org/2000/svg"
   xmlns:svg="http://www.w3.org/2000/svg">
  <sodipodi:namedview
     id="namedview1891"
     pagecolor="#ffffff"
     bordercolor="#666666"
     borderopacity="1.0"
     inkscape:pageshadow="2"
     inkscape:pageopacity="0.0"
     inkscape:pagecheckerboard="0"
     inkscape:document-units="mm"
     showgrid="false"
     fit-margin-top="0"
     fit-margin-left="0"
     fit-margin-right="0"
     fit-margin-bottom="0"
     inkscape:zoom="0.48996914"
     inkscape:cx="194.91024"
     inkscape:cy="393.90236"
     inkscape:window-width="1366"
     inkscape:window-height="719"
     inkscape:window-x="0"
     inkscape:window-y="25"
     inkscape:window-maximized="1"
     inkscape:current-layer="layer1" />
  <defs
     id="defs1886" />
  <g
     inkscape:label="Capa 1"
     inkscape:groupmode="layer"
     id="layer1"
     transform="translate(-49.512904,-44.148353)">
    <g
       id="g6875"
       transform="matrix(0.04642234,0,0,0.04642234,116.11987,33.89884)">
      <g
         id="g6364">
        <rect
           transform="matrix(0.54288883,0.83980457,-0.54288883,0.83980457,0,0)"
           y="1230.3225"
           x="-961.16718"
           height="412.66312"
           width="412.66312"
           id="rect4418"
           style="opacity:1;fill:#37c837;fill-opacity:1;stroke:none;stroke-width:4;stroke-miterlimit:4;stroke-dasharray:none;stroke-opacity:1" />
        <path
           inkscape:connector-curvature="0"
           style="opacity:1;fill:#87de87;fill-opacity:1;stroke:none;stroke-width:4;stroke-miterlimit:4;stroke-dasharray:none;stroke-opacity:1"
           d="m -1189.7354,226.0376 v 122.37218 l 144.9235,224.18441 h 79.10644 z"
           id="rect4395" />
        <path
           style="opacity:1;fill:#37c837;fill-opacity:1;stroke:none;stroke-width:4;stroke-miterlimit:4;stroke-dasharray:none;stroke-opacity:1"
           d="m -1189.7352,796.77922 v 122.37212 l 224.02991,-346.55653 h -79.10641 z"
           id="path4429"
           inkscape:connector-curvature="0" />
        <path
           inkscape:connector-curvature="0"
           style="opacity:1;fill:none;fill-opacity:1;stroke:#0b280b;stroke-width:5.69948;stroke-miterlimit:4;stroke-dasharray:none;stroke-opacity:1"
           d="m -1189.7354,226.0376 -224.0299,346.55659 224.0299,346.55656 224.02994,-346.55656 z m 0,122.37218 144.9235,224.18441 -144.9235,224.18442 -144.9235,-224.18442 z"
           id="rect4431" />
        <g
           id="g6356">
          <path
             id="path4425"
             d="m -1189.7354,226.0376 -224.0299,346.55659 h 79.1064 l 144.9235,-224.18441 z"
             style="opacity:1;fill:#5fd35f;fill-opacity:1;stroke:none;stroke-width:4;stroke-miterlimit:4;stroke-dasharray:none;stroke-opacity:1"
             inkscape:connector-curvature="0" />
          <rect
             style="opacity:1;fill:#afe9af;fill-opacity:1;stroke:none;stroke-width:4;stroke-miterlimit:4;stroke-dasharray:none;stroke-opacity:1"
             id="rect4408-2"
             width="266.94894"
             height="266.94894"
             x="-888.30975"
             y="1303.1801"
             transform="matrix(0.54288883,0.83980457,-0.54288883,0.83980457,0,0)" />
          <path
             id="path4427"
             d="m -1334.6589,572.59419 h -79.1064 l 224.0299,346.55656 V 796.77861 Z"
             style="opacity:1;fill:#2ca02c;fill-opacity:1;stroke:none;stroke-width:4;stroke-miterlimit:4;stroke-dasharray:none;stroke-opacity:1"
             inkscape:connector-curvature="0" />
          <path
             id="rect4408"
             d="m -1133.7768,434.97253 a 191.5555,232.06023 53.992136 0 1 1.0878,60.73013 19.228811,19.228811 0 0 0 -8.2747,-1.89777 19.228811,19.228811 0 0 0 -19.229,19.22904 19.228811,19.228811 0 0 0 10.7902,17.25242 11.116656,13.520257 0 0 0 -8.3864,13.09376 11.116656,13.520257 0 0 0 7.228,12.64849 191.5555,232.06023 53.992136 0 1 -48.0422,70.54264 27.641416,25.838714 0 0 0 -21.1926,-11.30608 14.421608,12.318458 0 0 0 -14.3079,-10.89367 14.421608,12.318458 0 0 0 -14.4214,12.31823 14.421608,12.318458 0 0 0 4.7436,9.11256 27.641416,25.838714 0 0 0 -5.345,15.22319 27.641416,25.838714 0 0 0 10.7639,20.42358 191.5555,232.06023 53.992136 0 1 -9.5743,6.60356 191.5555,232.06023 53.992136 0 1 -18.0361,10.79344 l 76.2375,117.93256 144.9235,-224.18442 z m -91.2554,20.87541 a 32.885036,35.317047 23.021748 0 0 -16.1811,4.05021 32.885036,35.317047 23.021748 0 0 -16.1499,47.24203 32.885036,35.317047 23.021748 0 0 44.1908,14.56268 32.885036,35.317047 23.021748 0 0 16.1499,-47.24203 32.885036,35.317047 23.021748 0 0 -28.0097,-18.61289 z"
             style="opacity:0.715;fill:#d7f4d7;fill-opacity:1;stroke:none;stroke-width:4;stroke-miterlimit:4;stroke-dasharray:none;stroke-opacity:1"
             inkscape:connector-curvature="0" />
          <ellipse
             ry="1.2018007"
             rx="0.60090035"
             cy="504.62137"
             cx="-1434.2032"
             id="path4460"
             style="opacity:1;fill:#d7f4d7;fill-opacity:1;stroke:none;stroke-width:4;stroke-miterlimit:4;stroke-dasharray:none;stroke-opacity:1" />
          <path
             id="rect4479"
             d="m -1189.7354,262.84603 -200.2364,309.74816 200.2364,309.74816 200.2364,-309.74816 z m 0,39.06275 174.9839,270.68541 -174.9839,270.68542 -174.9838,-270.68542 z"
             style="opacity:0.615;fill:#afe9af;fill-opacity:1;stroke:none;stroke-width:4;stroke-miterlimit:4;stroke-dasharray:none;stroke-opacity:1"
             inkscape:connector-curvature="0" />
        </g>
      </g>
    </g>
  </g>
</svg>
