<?xml version="1.0" encoding="UTF-8" standalone="no"?>
<svg
   xmlns:dc="http://purl.org/dc/elements/1.1/"
   xmlns:cc="http://creativecommons.org/ns#"
   xmlns:rdf="http://www.w3.org/1999/02/22-rdf-syntax-ns#"
   xmlns:svg="http://www.w3.org/2000/svg"
   xmlns="http://www.w3.org/2000/svg"
   xmlns:sodipodi="http://sodipodi.sourceforge.net/DTD/sodipodi-0.dtd"
   xmlns:inkscape="http://www.inkscape.org/namespaces/inkscape"
   width="300"
   height="300"
   id="svg3005"
   version="1.1"
   inkscape:version="1.0.2 (e86c870879, 2021-01-15)"
   sodipodi:docname="flower_42_hemerocallis.svg"
   viewBox="0 0 281.25 281.25">
  <title
     id="title833">Flower</title>
  <defs
     id="defs3007" />
  <sodipodi:namedview
     id="base"
     pagecolor="#ffffff"
     bordercolor="#666666"
     borderopacity="1.0"
     inkscape:pageopacity="0.0"
     inkscape:pageshadow="2"
     inkscape:zoom="2.07"
     inkscape:cx="150"
     inkscape:cy="150"
     inkscape:document-units="px"
     inkscape:current-layer="layer1"
     showgrid="false"
     inkscape:window-width="1366"
     inkscape:window-height="720"
     inkscape:window-x="0"
     inkscape:window-y="28"
     inkscape:window-maximized="1"
     inkscape:snap-global="false"
     inkscape:document-rotation="0" />
  <metadata
     id="metadata3010">
    <rdf:RDF>
      <cc:Work
         rdf:about="">
        <dc:format>image/svg+xml</dc:format>
        <dc:type
           rdf:resource="http://purl.org/dc/dcmitype/StillImage" />
        <dc:title>Flower</dc:title>
        <dc:date>abril 2020</dc:date>
        <dc:creator>
          <cc:Agent>
            <dc:title>jpenrici</dc:title>
          </cc:Agent>
        </dc:creator>
        <dc:publisher>
          <cc:Agent>
            <dc:title>Open Clip Art Library</dc:title>
          </cc:Agent>
        </dc:publisher>
        <cc:license
           rdf:resource="http://creativecommons.org/publicdomain/zero/1.0/" />
        <dc:subject>
          <rdf:Bag>
            <rdf:li>plant</rdf:li>
            <rdf:li>flora</rdf:li>
            <rdf:li>nature</rdf:li>
            <rdf:li>clip art</rdf:li>
            <rdf:li>clipart</rdf:li>
            <rdf:li>svg</rdf:li>
          </rdf:Bag>
        </dc:subject>
      </cc:Work>
      <cc:License
         rdf:about="http://creativecommons.org/publicdomain/zero/1.0/">
        <cc:permits
           rdf:resource="http://creativecommons.org/ns#Reproduction" />
        <cc:permits
           rdf:resource="http://creativecommons.org/ns#Distribution" />
        <cc:permits
           rdf:resource="http://creativecommons.org/ns#DerivativeWorks" />
      </cc:License>
    </rdf:RDF>
  </metadata>
  <g
     inkscape:label="Camada 1"
     inkscape:groupmode="layer"
     id="layer1"
     transform="translate(0,-771.11218)">
    <g
       id="g323"
       transform="matrix(0.73392828,0.06177135,-0.06177135,0.73392828,-35.51236,212.80541)"
       inkscape:transform-center-x="-19.89247"
       inkscape:transform-center-y="-83.588397">
      <path
         style="color:#000000;overflow:visible;fill:#808000;fill-opacity:1;stroke:none;stroke-width:0.9375;stroke-linecap:round"
         d="m 363.61484,1031.9023 c -1.36001,-68.06398 -21.41235,-134.58165 0.99329,-205.34959 l 5.27962,3.08242 c -22.31505,65.66706 -6.11323,135.59963 -6.27291,202.26717 z"
         id="path131"
         sodipodi:nodetypes="cccc"
         inkscape:transform-center-x="-26.755004"
         inkscape:transform-center-y="-91.599581" />
      <g
         id="g313"
         transform="matrix(0.67603632,-0.15027481,0.14324481,0.64441074,-0.10418221,359.24092)"
         inkscape:transform-center-x="-21.742444"
         inkscape:transform-center-y="-10.277024">
        <path
           style="color:#000000;overflow:visible;fill:#b61420;fill-opacity:1;stroke:none;stroke-width:0.112133;stroke-linecap:round"
           d="m 372.16351,817.59937 c 14.3919,-19.74788 18.47392,-34.84589 45.70187,-27.23488 l -0.30369,7.23753 c -10.25206,23.89832 -27.32135,23.72657 -45.39818,19.99735 z"
           id="path303"
           sodipodi:nodetypes="cccc"
           inkscape:transform-center-x="-21.022225"
           inkscape:transform-center-y="-13.471929" />
        <path
           style="color:#000000;overflow:visible;fill:#9a0d0b;fill-opacity:1;stroke:none;stroke-width:0.0994849;stroke-linecap:round"
           d="m 376.41127,821.37857 c 3.12443,3.87056 7.77699,10.30615 12.94445,8.79723 1.31575,-0.42879 1.44585,-2.61067 2.69978,-3.20152 1.44804,-0.68231 3.42355,0.8252 4.78293,-0.0256 1.44064,-0.90168 0.95414,-3.56833 2.31304,-4.59313 1.87656,-1.41517 4.92866,0.024 6.89192,-1.26347 1.6213,-1.06324 1.51132,-4.07879 3.2869,-4.84462 1.02598,-0.44252 2.33363,1.13706 3.29299,0.55987 0.73356,-0.44134 0.11184,-2.0141 0.84704,-2.4526 0.75161,-0.44828 1.85234,0.9592 2.57074,0.45762 0.6162,-0.43023 -0.0375,-1.64605 0.43455,-2.23546 0.40223,-0.50223 1.3562,-0.25404 1.75994,-0.75501 0.55988,-0.6947 -0.10297,-2.01112 0.52945,-2.63817 0.54915,-0.54449 1.8169,0.22492 2.26339,-0.40919 0.4943,-0.70201 -0.7551,-1.77797 -0.38713,-2.55589 0.6085,-0.90864 3.82073,-1.72088 3.62895,-2.62626 -3.20651,-0.46999 -3.15643,-0.72441 -4.16882,-2.26659 -1.26829,-1.65285 -4.32206,0.0318 -6.10915,-1.01402 -0.87726,-0.51337 -0.94222,-2.14788 -1.92765,-2.38523 -0.93159,-0.22438 -1.67472,1.23282 -2.63123,1.18226 -1.38736,-0.0733 -2.223,-2.17137 -3.61117,-2.10747 -1.27478,0.0587 -1.89622,1.94661 -3.14154,2.23256 -0.63711,0.14629 -1.33095,-0.59425 -1.93043,-0.32989 -0.51576,0.22745 -0.40193,1.24538 -0.93444,1.42833 -0.89295,0.30678 -1.7351,-1.07947 -2.66726,-0.94043 -1.11732,0.16667 -1.64397,1.79187 -2.75194,2.01463 -1.8875,0.37948 -3.7451,-1.85221 -5.60805,-1.36202 -10.56047,3.96921 -12.13428,11.66856 -12.37726,21.3341 z"
           id="path141"
           sodipodi:nodetypes="ccaaaaaaaaaaaacccaaaaaaaaacc"
           inkscape:transform-center-x="-24.708911"
           inkscape:transform-center-y="-8.266568" />
        <path
           style="color:#000000;overflow:visible;fill:#9a0d0b;fill-opacity:1;stroke:none;stroke-width:0.0994849;stroke-linecap:round"
           d="m 383.9396,810.32508 c -1.60551,4.70804 -4.56454,12.07739 -0.53046,15.64189 1.06488,0.8838 2.97942,-0.17073 4.14834,0.5743 1.34988,0.86037 1.12945,3.33557 2.57448,4.03103 1.53145,0.73698 3.52682,-1.09768 5.11873,-0.4955 2.19834,0.83158 2.61032,4.18073 4.74693,5.1538 1.76449,0.80354 4.25588,-0.89895 5.85119,0.19382 0.92183,0.63143 0.28399,2.58033 1.28414,3.08354 0.76474,0.38478 1.76292,-0.98042 2.52614,-0.59275 0.7801,0.39665 0.17751,2.0784 0.98511,2.41821 0.6927,0.29148 1.37197,-0.91027 2.12235,-0.82567 0.6394,0.0721 0.93868,1.01128 1.57783,1.08532 0.88629,0.10267 1.64574,-1.16049 2.51355,-0.96036 0.75355,0.17378 0.77954,1.65651 1.55408,1.69564 0.85749,0.0433 1.10053,-1.58752 1.95477,-1.69155 1.09317,0.0296 3.49452,2.3125 4.1578,1.66709 -1.31397,-2.96244 -1.0721,-3.05588 -0.3083,-4.73513 0.7208,-1.95471 -2.33374,-3.63798 -2.40317,-5.70742 -0.0341,-1.01586 1.31346,-1.9432 0.98821,-2.90321 -0.30747,-0.90756 -1.93639,-0.75822 -2.40416,-1.59409 -0.6785,-1.21234 0.64972,-3.03881 -0.14523,-4.17862 -0.73004,-1.04669 -2.65824,-0.56456 -3.56472,-1.46504 -0.46376,-0.4607 -0.20785,-1.44269 -0.75137,-1.80855 -0.46762,-0.31476 -1.26768,0.32482 -1.70661,-0.0279 -0.73603,-0.59139 -0.0132,-2.04345 -0.62834,-2.75752 -0.73731,-0.8559 -2.39275,-0.43384 -3.17249,-1.2519 -1.32833,-1.39362 -0.43257,-4.15564 -1.84142,-5.46941 -8.99308,-6.81195 -16.34405,-4.03343 -24.6474,0.91995 z"
           id="path296"
           sodipodi:nodetypes="ccaaaaaaaaaaaacccaaaaaaaaacc"
           inkscape:transform-center-x="-19.924298"
           inkscape:transform-center-y="13.399678" />
        <path
           style="color:#000000;overflow:visible;fill:#9a0d0b;fill-opacity:1;stroke:none;stroke-width:0.0994849;stroke-linecap:round"
           d="m 377.39547,820.03827 c 4.97369,-0.0759 12.90921,0.22526 14.90488,-4.77443 0.473,-1.30051 -1.16528,-2.7474 -0.85796,-4.09907 0.35486,-1.56092 2.75945,-2.18794 2.92699,-3.78285 0.17748,-1.69026 -2.22252,-2.95021 -2.19232,-4.65194 0.0417,-2.35 3.05585,-3.86706 3.25154,-6.20664 0.16158,-1.93211 -2.28121,-3.7036 -1.79031,-5.57394 0.28366,-1.08075 2.33349,-1.13736 2.47004,-2.24859 0.1044,-0.8497 -1.51741,-1.32914 -1.40977,-2.17839 0.11041,-0.86815 1.89686,-0.86786 1.94448,-1.74275 0.0409,-0.75042 -1.31955,-0.98472 -1.4929,-1.7197 -0.14778,-0.62624 0.63558,-1.22469 0.4898,-1.85136 -0.20215,-0.86902 -1.64743,-1.15811 -1.7516,-2.04258 -0.0905,-0.76802 1.29668,-1.29241 1.07238,-2.03479 -0.24841,-0.82187 -1.86563,-0.50085 -2.25158,-1.26999 -0.34068,-1.03916 0.99889,-4.0696 0.16764,-4.47643 -2.34597,2.23585 -2.51549,2.03966 -4.35393,1.88675 -2.08328,-0.0195 -2.63812,3.42367 -4.56298,4.18677 -0.94488,0.37462 -2.27227,-0.58138 -3.06641,0.0485 -0.75074,0.59547 -0.0609,2.07866 -0.69016,2.80085 -0.91259,1.04754 -3.07995,0.4129 -3.88499,1.54559 -0.73927,1.0402 0.36475,2.69295 -0.17737,3.84996 -0.27736,0.59193 -1.28814,0.6821 -1.44932,1.31715 -0.13868,0.54635 0.73321,1.08393 0.54919,1.61606 -0.30859,0.89233 -1.91932,0.70146 -2.3842,1.52128 -0.5572,0.98271 0.39833,2.39891 -0.10896,3.40882 -0.86416,1.72042 -3.76647,1.80835 -4.52831,3.57767 -3.38098,10.76323 1.7133,16.74697 9.17622,22.89405 z"
           id="path298"
           sodipodi:nodetypes="ccaaaaaaaaaaaacccaaaaaaaaacc"
           inkscape:transform-center-x="-4.5174739"
           inkscape:transform-center-y="-25.299867" />
        <path
           style="color:#000000;overflow:visible;fill:#b61420;fill-opacity:1;stroke:none;stroke-width:0.112133;stroke-linecap:round"
           d="m 365.154,814.06756 c 24.38172,1.62395 39.32688,-2.98637 47.43029,24.09911 l -6.28156,3.60777 c -25.68047,4.09249 -34.64955,-10.43147 -41.14873,-27.70688 z"
           id="path133"
           sodipodi:nodetypes="cccc"
           inkscape:transform-center-x="-22.547555"
           inkscape:transform-center-y="12.776675" />
        <path
           style="color:#000000;overflow:visible;fill:#b61420;fill-opacity:1;stroke:none;stroke-width:0.112133;stroke-linecap:round"
           d="m 364.80188,815.29841 c 10.40479,-22.10985 11.56299,-37.70701 39.73821,-35.37336 l 1.06817,7.1647 c -5.55581,25.40408 -22.35057,28.45802 -40.80638,28.20866 z"
           id="path305"
           sodipodi:nodetypes="cccc"
           inkscape:transform-center-x="-18.65004"
           inkscape:transform-center-y="-17.228342" />
      </g>
    </g>
    <ellipse
       style="color:#000000;overflow:visible;fill:#483e37;stroke-width:0.938014;stroke-linecap:round"
       id="path129"
       cx="148.76904"
       cy="1039.296"
       rx="111.16344"
       ry="12.366199" />
    <path
       id="path127"
       style="color:#000000;overflow:visible;fill:#165016;fill-opacity:1;stroke:none;stroke-width:2.41261;stroke-linecap:round"
       inkscape:transform-center-x="-50.166986"
       inkscape:transform-center-y="-59.18093"
       d="m 182.09415,922.36023 c 4.20314,0.35581 9.08425,3.54302 14.63971,9.82137 8.68864,-8.03658 17.52219,-4.70081 25.82632,14.41734 16.56932,-0.5476 34.15466,15.45346 51.26644,55.44076 -15.78153,-33.46872 -31.67561,-45.2866 -46.92407,-43.81201 2.83874,8.71823 5.59687,19.37154 8.24486,32.39418 -3.18169,-13.93213 -6.50101,-24.43653 -9.91376,-32.17661 -3.16232,0.50685 -6.29394,1.60362 -9.39076,3.16099 2.35512,4.43043 4.76865,9.15119 7.29294,14.41856 -2.70767,-5.31987 -5.2795,-9.99183 -7.75544,-14.20705 -84.92685,209.14664 -53.7878,-39.07149 -33.28624,-39.45753 z m 27.9934,18.97102 c -1.87399,-0.25465 -3.75695,0.10822 -5.64436,0.97719 1.67,2.47629 3.37308,5.10932 5.14893,8.08892 2.98667,-1.65608 6.02491,-2.7897 9.10112,-3.36998 -2.83175,-3.48274 -5.70629,-5.30328 -8.60569,-5.69613 z m -17.84358,-0.93793 c -1.30961,-0.39682 -0.50255,-6.22023 -4.44167,0.12421 -1.75887,-1.21934 -25.81202,69.62957 -20.71397,74.51027 0.92197,0.8828 25.15564,-74.63448 25.15564,-74.63448 z m 10.23547,2.98758 c -52.0252,136.8948 -41.23237,94.5895 6.00268,7.6694 -2.08928,-2.96308 -4.09361,-5.53826 -6.00268,-7.6694 z"
       sodipodi:nodetypes="cccccccccccscccsccscccc" />
    <g
       id="g530"
       inkscape:transform-center-x="-63.160552"
       inkscape:transform-center-y="-111.03151"
       transform="matrix(-0.85094641,-0.05946146,-0.05946146,0.85094641,338.62654,165.36496)">
      <path
         style="color:#000000;overflow:visible;fill:#808000;fill-opacity:1;stroke:none;stroke-width:0.9375;stroke-linecap:round"
         d="M 140.35692,1034.9245 C 117.22597,970.89708 133.41174,888.48863 79.052301,836.48601 l -3.823661,4.77025 c 53.73768,46.44002 41.07927,131.48924 65.12828,193.66824 z"
         id="path456"
         sodipodi:nodetypes="cccc"
         inkscape:transform-center-x="26.755005"
         inkscape:transform-center-y="-91.599581" />
      <g
         id="g528"
         transform="matrix(0.08453288,-0.0519255,0.0519255,0.08453288,72.659404,732.25019)">
        <g
           id="g464"
           style="fill:#b61420;fill-opacity:1">
          <path
             style="color:#000000;overflow:visible;fill:#b61420;fill-opacity:1;stroke:none;stroke-width:0.9375;stroke-linecap:round"
             d="m -592.52645,822.48298 c 228.04397,47.88967 374.20287,36.68891 419.8027,244.65482 l -63.33124,16.7898 c -246.79122,-8.4583 -314.8401,-126.82911 -356.47146,-261.44462 z"
             id="path458"
             sodipodi:nodetypes="cccc"
             inkscape:transform-center-x="-208.20499"
             inkscape:transform-center-y="129.68711" />
          <path
             style="color:#000000;overflow:visible;fill:#b61420;fill-opacity:1;stroke:none;stroke-width:0.894425;stroke-linecap:round"
             d="m -504.62952,854.19003 c -110.64083,113.08692 -358.26382,314.04307 -486.21561,152.31027 66.21137,-197.62648 327.90975,-215.01076 486.21561,-152.31027 z"
             id="path460"
             sodipodi:nodetypes="ccc"
             inkscape:transform-center-x="203.03309"
             inkscape:transform-center-y="91.859479" />
          <path
             style="color:#000000;overflow:visible;fill:#b61420;fill-opacity:1;stroke:none;stroke-width:0.9375;stroke-linecap:round"
             d="M -591.11782,825.48452 C -645.18839,679.5371 -710.0688,533.93535 -585.15594,382.26496 l 54.63406,-38.87838 47.36391,90.20806 c 88.92039,230.37058 -0.42176,300.84008 -107.95985,391.88988 z"
             id="path462"
             sodipodi:nodetypes="ccccc"
             inkscape:transform-center-x="-36.0907"
             inkscape:transform-center-y="-239.08263" />
        </g>
        <g
           id="g490">
          <g
             id="g472"
             style="stroke:none"
             inkscape:transform-center-x="-223.93921"
             inkscape:transform-center-y="-92.232498"
             transform="matrix(1.0605797,0,0,1.078804,67.421065,-64.61244)">
            <path
               style="color:#000000;overflow:visible;fill:#9a0d0b;fill-opacity:1;stroke:none;stroke-width:0.9375;stroke-linecap:round"
               d="m -597.99257,816.31435 c 32.46777,33.78341 81.31218,90.3497 129.15958,72.5363 12.15,-4.951 11.76902,-25.37037 23.21342,-31.78601 13.21601,-7.40879 33.04961,5.19756 45.30084,-3.7165 12.98367,-9.44699 6.40161,-33.93374 18.51973,-44.4681 16.73431,-14.54724 46.71844,-3.35974 64.36878,-16.7808 14.57592,-11.08331 11.30347,-39.09397 27.5613,-47.51894 9.39418,-4.86816 22.95293,8.89516 31.61626,2.82094 6.62428,-4.64456 -0.42995,-18.84323 6.212,-23.46249 6.79023,-4.72239 18.26097,7.58828 24.69705,2.39357 5.5205,-4.45573 -1.57274,-15.30608 2.46417,-21.13985 3.43982,-4.97092 12.6625,-3.35257 16.11762,-8.31287 4.79118,-6.87839 -2.46316,-18.65924 3.06545,-24.96021 4.80069,-5.47136 17.38208,0.77413 21.14374,-5.45742 4.16448,-6.89886 -8.46983,-16.01326 -5.55856,-23.52736 5.0937,-8.9067 34.92993,-18.80859 32.4431,-27.10294 -30.73037,-2.04656 -30.444,-4.45302 -41.1774,-18.08273 -13.23989,-14.47446 -40.92943,3.4387 -58.6362,-5.00375 -8.69201,-4.14428 -10.51649,-19.32296 -20.02926,-20.81738 -8.9931,-1.41278 -14.95678,12.70177 -24.05741,12.92621 -13.19995,0.32554 -22.66961,-18.61044 -35.77572,-17.00589 -12.03561,1.47349 -16.5276,19.51202 -28.11588,23.08118 -5.92866,1.82601 -13.05075,-4.56781 -18.53546,-1.66931 -4.71884,2.49377 -2.88731,11.8933 -7.79774,13.98472 -8.23413,3.50703 -17.23908,-8.79396 -25.96876,-6.82092 -10.46373,2.36497 -14.25182,17.88708 -24.58548,20.76775 -17.60405,4.9074 -36.85599,-14.5307 -54.14552,-8.60979 -97.12833,44.65293 -106.34611,117.51879 -101.49965,207.73259 z"
               id="path466"
               sodipodi:nodetypes="ccaaaaaaaaaaaacccaaaaaaaaacc" />
            <path
               style="color:#000000;overflow:visible;fill:#890401;fill-opacity:1;stroke:none;stroke-width:0.9375;stroke-linecap:round"
               d="m -587.73191,753.01842 c -3.61512,-26.05501 18.74683,-76.65475 18.74683,-76.65475 0,0 -15.87286,49.07803 1.48075,55.65979 39.80215,15.09589 34.71995,-109.04082 87.20085,-93.29999 -63.53789,-9.22067 -107.66657,73.15184 -76.59736,102.29451 40.60054,38.08299 28.9163,-77.54804 127.00397,-108.43641 -80.92006,18.75997 -142.72871,76.919 -104.83339,112.00464 39.97878,37.01463 21.77128,-60.94931 140.95332,-114.17904 -52.003,12.90868 -166.60735,72.00648 -135.31534,124.78311 50.885,85.82188 283.60635,-95.70549 283.60635,-95.70549 -80.02516,113.79201 -303.81084,164.00766 -282.77221,103.42266 30.70996,-88.43555 191.9955,-146.07854 322.79959,-142.15056 0,0 -350.73812,49.42891 -309.21161,157.36728 34.50654,89.69162 278.32995,-75.16666 278.32995,-75.16666 0,0 -237.46668,181.26671 -272.73567,92.03534 -20.06686,-50.76963 149.04505,-67.87992 149.04505,-67.87992 0,0 -156.43018,33.96213 -137.39288,84.18652 14.0134,36.97029 116.80183,-20.63806 116.80183,-20.63806 0,0 -129.50158,-2.03577 -125.10963,41.70334 2.40015,23.90287 71.53707,8.74186 71.53707,8.74186 0,0 -69.03861,-18.84151 -79.38443,5.58469 -6.68593,15.78531 33.10253,39.35887 33.10253,39.35887 0,0 -34.30183,-14.02237 -47.05077,-26.79878 -28.74985,-28.81179 -54.61097,-65.91692 -60.2048,-106.23295 z"
               id="path468"
               sodipodi:nodetypes="acacacscacscacacacacacaa" />
            <path
               style="color:#000000;overflow:visible;fill:#ba8a01;fill-opacity:1;stroke:none;stroke-width:0.9375;stroke-linecap:round"
               d="m -601.6929,809.50971 c 0.33125,-2.91353 4.31624,-77.13415 6.76247,-76.06438 0,0 -1.18852,21.24269 6.43243,22.08405 5.37207,0.59308 2.60739,-15.62784 7.82096,-14.2032 5.06037,1.38278 -5.49483,14.20911 -0.4744,15.73054 7.63813,2.31473 5.247,-23.20101 12.68505,-20.30716 5.7388,2.23274 -8.17813,14.30917 -3.375,18.16259 3.85644,3.09392 10.1784,-9.32891 13.64839,-5.80703 4.29724,4.36149 -11.28508,12.02748 -7.44149,16.79357 3.45933,4.28961 13.43446,-8.11529 16.19048,-3.34328 2.31081,4.00114 -11.4325,6.30525 -9.21228,10.35736 2.84517,5.19268 14.27398,-7.74493 17.54012,-2.80618 3.66537,5.54243 -10.6031,16.88063 -10.6031,16.88063 43.66,-29.04703 142.3222,-126.5192 361.72591,-167.63764 -173.3095,32.55799 -345.19285,158.52653 -351.23566,175.57543 -1.68262,4.74726 11.77957,4.44935 11.76118,9.48594 -0.0128,3.51697 -9.06941,3.14094 -8.26079,6.56371 1.16098,4.91422 14.18288,-1.88895 14.82378,3.11971 0.59904,4.68151 -12.56339,1.59236 -12.67489,6.31072 -0.14651,6.19969 17.80582,3.06792 16.2439,9.06942 -1.15024,4.41968 -11.96353,-4.2236 -13.70071,0 -1.71807,4.17716 11.79077,5.56785 9.6289,9.53355 -1.7495,3.20927 -8.63744,-5.38251 -10.70644,-2.3693 -3.19741,4.65659 12.08186,9.17681 9.36,14.12643 -1.44498,2.62765 -7.25095,-2.6191 -8.99447,-0.17929 -4.02968,5.63897 11.82408,14.43811 7.12569,19.53335 -3.16894,3.43661 -10.36798,-7.17613 -13.52039,-3.72436 -2.00509,2.1955 3.13719,8.35005 3.13719,8.35005 -36.09512,-8.4227 -35.59689,-62.61034 -59.13495,-57.03669 z"
               id="path470"
               sodipodi:nodetypes="ccaaaaaaaaaaccsaaaaaaaaaaaaccc" />
          </g>
          <g
             id="g480"
             style="stroke:none"
             inkscape:transform-center-x="11.829307"
             inkscape:transform-center-y="231.052"
             transform="rotate(125.53441,-602.26628,831.58988)">
            <path
               style="color:#000000;overflow:visible;fill:#990b02;fill-opacity:1;stroke:none;stroke-width:0.9375;stroke-linecap:round"
               d="m -597.99257,816.31435 c 32.46777,33.78341 81.31218,90.3497 129.15958,72.5363 12.15,-4.951 11.76902,-25.37037 23.21342,-31.78601 13.21601,-7.40879 33.04961,5.19756 45.30084,-3.7165 12.98367,-9.44699 6.40161,-33.93374 18.51973,-44.4681 16.73431,-14.54724 46.71844,-3.35974 64.36878,-16.7808 14.57592,-11.08331 11.30347,-39.09397 27.5613,-47.51894 9.39418,-4.86816 22.95293,8.89516 31.61626,2.82094 6.62428,-4.64456 -0.42995,-18.84323 6.212,-23.46249 6.79023,-4.72239 18.26097,7.58828 24.69705,2.39357 5.5205,-4.45573 -1.57274,-15.30608 2.46417,-21.13985 3.43982,-4.97092 12.6625,-3.35257 16.11762,-8.31287 4.79118,-6.87839 -2.46316,-18.65924 3.06545,-24.96021 4.80069,-5.47136 17.38208,0.77413 21.14374,-5.45742 4.16448,-6.89886 -8.46983,-16.01326 -5.55856,-23.52736 5.0937,-8.9067 34.92993,-18.80859 32.4431,-27.10294 -30.73037,-2.04656 -30.444,-4.45302 -41.1774,-18.08273 -13.23989,-14.47446 -40.92943,3.4387 -58.6362,-5.00375 -8.69201,-4.14428 -10.51649,-19.32296 -20.02926,-20.81738 -8.9931,-1.41278 -14.95678,12.70177 -24.05741,12.92621 -13.19995,0.32554 -22.66961,-18.61044 -35.77572,-17.00589 -12.03561,1.47349 -16.5276,19.51202 -28.11588,23.08118 -5.92866,1.82601 -13.05075,-4.56781 -18.53546,-1.66931 -4.71884,2.49377 -2.88731,11.8933 -7.79774,13.98472 -8.23413,3.50703 -17.23908,-8.79396 -25.96876,-6.82092 -10.46373,2.36497 -14.25182,17.88708 -24.58548,20.76775 -17.60405,4.9074 -36.85599,-14.5307 -54.14552,-8.60979 -97.12833,44.65293 -106.34611,117.51879 -101.49965,207.73259 z"
               id="path474"
               sodipodi:nodetypes="ccaaaaaaaaaaaacccaaaaaaaaacc" />
            <path
               style="color:#000000;overflow:visible;fill:#890401;fill-opacity:1;stroke:none;stroke-width:0.9375;stroke-linecap:round"
               d="m -587.73191,753.01842 c -3.61512,-26.05501 18.74683,-76.65475 18.74683,-76.65475 0,0 -15.87286,49.07803 1.48075,55.65979 39.80215,15.09589 34.71995,-109.04082 87.20085,-93.29999 -63.53789,-9.22067 -107.66657,73.15184 -76.59736,102.29451 40.60054,38.08299 28.9163,-77.54804 127.00397,-108.43641 -80.92006,18.75997 -142.72871,76.919 -104.83339,112.00464 39.97878,37.01463 21.77128,-60.94931 140.95332,-114.17904 -52.003,12.90868 -166.60735,72.00648 -135.31534,124.78311 50.885,85.82188 283.60635,-95.70549 283.60635,-95.70549 -80.02516,113.79201 -303.81084,164.00766 -282.77221,103.42266 30.70996,-88.43555 191.9955,-146.07854 322.79959,-142.15056 0,0 -350.73812,49.42891 -309.21161,157.36728 34.50654,89.69162 278.32995,-75.16666 278.32995,-75.16666 0,0 -237.46668,181.26671 -272.73567,92.03534 -20.06686,-50.76963 149.04505,-67.87992 149.04505,-67.87992 0,0 -156.43018,33.96213 -137.39288,84.18652 14.0134,36.97029 116.80183,-20.63806 116.80183,-20.63806 0,0 -129.50158,-2.03577 -125.10963,41.70334 2.40015,23.90287 71.53707,8.74186 71.53707,8.74186 0,0 -69.03861,-18.84151 -79.38443,5.58469 -6.68593,15.78531 33.10253,39.35887 33.10253,39.35887 0,0 -34.30183,-14.02237 -47.05077,-26.79878 -28.74985,-28.81179 -54.61097,-65.91692 -60.2048,-106.23295 z"
               id="path476"
               sodipodi:nodetypes="acacacscacscacacacacacaa" />
            <path
               style="color:#000000;overflow:visible;fill:#ba8a01;fill-opacity:1;stroke:none;stroke-width:0.9375;stroke-linecap:round"
               d="m -601.6929,809.50971 c -4.48873,-11.63967 -13.25716,-83.66307 6.76247,-76.06438 0,0 -1.18852,21.24269 6.43243,22.08405 5.37207,0.59308 2.60739,-15.62784 7.82096,-14.2032 5.06037,1.38278 -5.49483,14.20911 -0.4744,15.73054 7.63813,2.31473 5.247,-23.20101 12.68505,-20.30716 5.7388,2.23274 -8.17813,14.30917 -3.375,18.16259 3.85644,3.09392 10.1784,-9.32891 13.64839,-5.80703 4.29724,4.36149 -11.28508,12.02748 -7.44149,16.79357 3.45933,4.28961 13.43446,-8.11529 16.19048,-3.34328 2.31081,4.00114 -11.4325,6.30525 -9.21228,10.35736 2.84517,5.19268 14.27398,-7.74493 17.54012,-2.80618 3.66537,5.54243 -10.6031,16.88063 -10.6031,16.88063 43.66,-29.04703 142.3222,-126.5192 361.72591,-167.63764 -173.3095,32.55799 -345.19285,158.52653 -351.23566,175.57543 -1.68262,4.74726 11.77957,4.44935 11.76118,9.48594 -0.0128,3.51697 -9.06941,3.14094 -8.26079,6.56371 1.16098,4.91422 14.18288,-1.88895 14.82378,3.11971 0.59904,4.68151 -12.56339,1.59236 -12.67489,6.31072 -0.14651,6.19969 17.80582,3.06792 16.2439,9.06942 -1.15024,4.41968 -11.96353,-4.2236 -13.70071,0 -1.71807,4.17716 11.79077,5.56785 9.6289,9.53355 -1.7495,3.20927 -8.63744,-5.38251 -10.70644,-2.3693 -3.19741,4.65659 12.08186,9.17681 9.36,14.12643 -1.44498,2.62765 -7.25095,-2.6191 -8.99447,-0.17929 -4.02968,5.63897 11.82408,14.43811 7.12569,19.53335 -3.16894,3.43661 -10.36798,-7.17613 -13.52039,-3.72436 -2.00509,2.1955 3.13719,8.35005 3.13719,8.35005 -28.45236,-12.36875 -41.46448,-36.47303 -59.13495,-57.03669 z"
               id="path478"
               sodipodi:nodetypes="ccaaaaaaaaaaccsaaaaaaaaaaaaccc" />
          </g>
          <g
             id="g488"
             style="stroke:none"
             inkscape:transform-center-x="198.3996"
             inkscape:transform-center-y="-129.34061"
             transform="matrix(-0.53048413,-0.96911174,0.98899889,-0.51981697,-1736.8598,649.47998)">
            <path
               style="color:#000000;overflow:visible;fill:#9a0d0b;fill-opacity:1;stroke:none;stroke-width:0.9375;stroke-linecap:round"
               d="m -597.99257,816.31435 c 32.46777,33.78341 81.31218,90.3497 129.15958,72.5363 12.15,-4.951 11.76902,-25.37037 23.21342,-31.78601 13.21601,-7.40879 33.04961,5.19756 45.30084,-3.7165 12.98367,-9.44699 6.40161,-33.93374 18.51973,-44.4681 16.73431,-14.54724 46.71844,-3.35974 64.36878,-16.7808 14.57592,-11.08331 11.30347,-39.09397 27.5613,-47.51894 29.91596,1.51946 32.1871,5.42912 37.82826,-20.64155 23.685,0.38525 26.67418,5.42739 27.16122,-18.74628 19.10735,-6.92936 17.53434,-18.20238 19.18307,-33.27308 23.87119,-6.05984 22.12889,-8.48269 15.58518,-28.98478 5.0937,-8.9067 34.92993,-18.80859 32.4431,-27.10294 -22.3088,-18.19559 -89.8687,-18.94959 -99.8136,-23.08648 -8.69201,-4.14428 -10.51649,-19.32296 -20.02926,-20.81738 -8.9931,-1.41278 -14.95678,12.70177 -24.05741,12.92621 -13.19995,0.32554 -22.66961,-18.61044 -35.77572,-17.00589 -12.03561,1.47349 -16.5276,19.51202 -28.11588,23.08118 -5.92866,1.82601 -13.05075,-4.56781 -18.53546,-1.66931 -4.71884,2.49377 -2.88731,11.8933 -7.79774,13.98472 -8.23413,3.50703 -17.23908,-8.79396 -25.96876,-6.82092 -10.46373,2.36497 -14.25182,17.88708 -24.58548,20.76775 -17.60405,4.9074 -36.85599,-14.5307 -54.14552,-8.60979 -97.12833,44.65293 -106.34611,117.51879 -101.49965,207.73259 z"
               id="path482"
               sodipodi:nodetypes="ccaaaacccccccaaaaaaaacc" />
            <path
               style="color:#000000;overflow:visible;fill:#890401;fill-opacity:1;stroke:none;stroke-width:0.9375;stroke-linecap:round"
               d="m -587.73191,753.01842 c -3.61512,-26.05501 18.74683,-76.65475 18.74683,-76.65475 0,0 -15.87286,49.07803 1.48075,55.65979 39.80215,15.09589 34.71995,-109.04082 87.20085,-93.29999 -63.53789,-9.22067 -107.66657,73.15184 -76.59736,102.29451 40.60054,38.08299 28.9163,-77.54804 127.00397,-108.43641 -80.92006,18.75997 -142.72871,76.919 -104.83339,112.00464 39.97878,37.01463 21.77128,-60.94931 140.95332,-114.17904 -52.003,12.90868 -166.60735,72.00648 -135.31534,124.78311 50.885,85.82188 283.60635,-95.70549 283.60635,-95.70549 -80.02516,113.79201 -303.81084,164.00766 -282.77221,103.42266 30.70996,-88.43555 191.9955,-146.07854 322.79959,-142.15056 0,0 -350.73812,49.42891 -309.21161,157.36728 34.50654,89.69162 278.32995,-75.16666 278.32995,-75.16666 0,0 -237.46668,181.26671 -272.73567,92.03534 -20.06686,-50.76963 149.04505,-67.87992 149.04505,-67.87992 0,0 -156.43018,33.96213 -137.39288,84.18652 14.0134,36.97029 116.80183,-20.63806 116.80183,-20.63806 0,0 -129.50158,-2.03577 -125.10963,41.70334 2.40015,23.90287 71.53707,8.74186 71.53707,8.74186 0,0 -69.03861,-18.84151 -79.38443,5.58469 -6.68593,15.78531 33.10253,39.35887 33.10253,39.35887 0,0 -34.30183,-14.02237 -47.05077,-26.79878 -28.74985,-28.81179 -54.61097,-65.91692 -60.2048,-106.23295 z"
               id="path484"
               sodipodi:nodetypes="acacacscacscacacacacacaa" />
            <path
               style="color:#000000;overflow:visible;fill:#ba8a01;fill-opacity:1;stroke:none;stroke-width:0.9375;stroke-linecap:round"
               d="m -601.6929,809.50971 c 7.14359,19.52993 -47.47425,-35.37201 6.76247,-76.06438 0,0 -1.18852,21.24269 6.43243,22.08405 5.37207,0.59308 2.60739,-15.62784 7.82096,-14.2032 5.06037,1.38278 -5.49483,14.20911 -0.4744,15.73054 7.63813,2.31473 5.247,-23.20101 12.68505,-20.30716 5.7388,2.23274 -8.17813,14.30917 -3.375,18.16259 3.85644,3.09392 10.1784,-9.32891 13.64839,-5.80703 4.29724,4.36149 -11.28508,12.02748 -7.44149,16.79357 3.45933,4.28961 13.43446,-8.11529 16.19048,-3.34328 2.31081,4.00114 -11.4325,6.30525 -9.21228,10.35736 2.84517,5.19268 14.27398,-7.74493 17.54012,-2.80618 3.66537,5.54243 -10.6031,16.88063 -10.6031,16.88063 43.66,-29.04703 142.3222,-126.5192 361.72591,-167.63764 -173.3095,32.55799 -345.19285,158.52653 -351.23566,175.57543 -1.68262,4.74726 11.77957,4.44935 11.76118,9.48594 -0.0128,3.51697 -9.06941,3.14094 -8.26079,6.56371 1.16098,4.91422 14.18288,-1.88895 14.82378,3.11971 0.59904,4.68151 -12.56339,1.59236 -12.67489,6.31072 -0.14651,6.19969 17.80582,3.06792 16.2439,9.06942 -1.15024,4.41968 -11.96353,-4.2236 -13.70071,0 -1.71807,4.17716 11.79077,5.56785 9.6289,9.53355 -1.7495,3.20927 -8.63744,-5.38251 -10.70644,-2.3693 -3.19741,4.65659 12.08186,9.17681 9.36,14.12643 -1.44498,2.62765 -7.25095,-2.6191 -8.99447,-0.17929 -4.02968,5.63897 11.82408,14.43811 7.12569,19.53335 -3.16894,3.43661 -10.36798,-7.17613 -13.52039,-3.72436 -2.00509,2.1955 3.13719,8.35005 3.13719,8.35005 -28.45236,-12.36875 -41.46448,-36.47303 -59.13495,-57.03669 z"
               id="path486"
               sodipodi:nodetypes="ccaaaaaaaaaaccsaaaaaaaaaaaaccc" />
          </g>
        </g>
        <path
           style="color:#000000;overflow:visible;fill:#aa7703;fill-opacity:1;stroke:none;stroke-width:0.9375;stroke-linecap:round"
           d="m -661.42208,816.63613 c -9.75966,-0.86288 -24.42789,41.62654 -16.74125,35.5511 28.2043,-22.29241 82.54769,-13.2142 81.76606,38.69182 -0.0853,5.666 30.28259,-57.4186 67.9779,-13.82142 7.98912,9.23995 28.456,-32.76294 16.24144,-32.84874 -71.43941,-0.50182 -32.74621,-37.40606 -17.7064,-59.67571 11.01407,-16.30868 -71.53281,53.82901 -67.32116,-42.8588 0.68692,-15.76974 -0.30497,102.46336 -47.0394,30.54392 -3.80979,-5.86288 -15.15663,5.77003 -16.79425,12.56753 -3.19204,13.24968 74.63995,38.48324 -0.38294,31.8503 z"
           id="path492"
           sodipodi:nodetypes="ssssssssss" />
        <g
           id="g526"
           inkscape:transform-center-x="44.457976"
           inkscape:transform-center-y="-75.410751"
           transform="matrix(2.063825,-0.83668516,0.83668516,2.063825,-2457.3476,-503.12507)">
          <g
             id="g498"
             inkscape:transform-center-x="18.537661"
             inkscape:transform-center-y="-22.870716"
             transform="matrix(0.32472186,-0.50593639,0.50593639,0.32472186,326.06172,251.63677)">
            <path
               style="color:#000000;overflow:visible;fill:#920e07;fill-opacity:1;stroke:none;stroke-width:0.9375;stroke-linecap:round"
               d="m -656.66593,856.75195 c -7.47954,-11.15807 29.88346,-86.73764 33.65115,-80.67707 -17.46379,-0.25105 -32.45903,31.7323 -46.57348,75.21689 -0.39217,12.03119 6.38124,8.4933 12.92233,5.46018 z"
               id="path494"
               sodipodi:nodetypes="cccc" />
            <ellipse
               style="color:#000000;overflow:visible;fill:#662e0f;fill-opacity:1;stroke:none;stroke-width:0.9375;stroke-linecap:round"
               id="ellipse496"
               cx="-625.84912"
               cy="772.46204"
               rx="4.6122837"
               ry="15.821634" />
          </g>
          <g
             id="g504"
             inkscape:transform-center-x="-0.29238874"
             inkscape:transform-center-y="-29.943979"
             transform="matrix(0.56462979,-0.20641976,0.20641976,0.56462979,751.81319,251.61963)">
            <path
               style="color:#000000;overflow:visible;fill:#920e07;fill-opacity:1;stroke:none;stroke-width:0.9375;stroke-linecap:round"
               d="m -656.66593,856.75195 c -7.47954,-11.15807 29.88346,-86.73764 33.65115,-80.67707 -17.46379,-0.25105 -32.45903,31.7323 -46.57348,75.21689 -0.39217,12.03119 6.38124,8.4933 12.92233,5.46018 z"
               id="path500"
               sodipodi:nodetypes="cccc" />
            <ellipse
               style="color:#000000;overflow:visible;fill:#662e0f;fill-opacity:1;stroke:none;stroke-width:0.9375;stroke-linecap:round"
               id="ellipse502"
               cx="-625.84912"
               cy="772.46204"
               rx="4.6122837"
               ry="15.821634" />
          </g>
          <g
             id="g510"
             inkscape:transform-center-x="-13.914308"
             inkscape:transform-center-y="-25.850732"
             transform="matrix(-0.40634189,-0.44306002,-0.44306002,0.40634189,664.19112,221.70125)">
            <path
               style="color:#000000;overflow:visible;fill:#920e07;fill-opacity:1;stroke:none;stroke-width:0.9375;stroke-linecap:round"
               d="m -656.66593,856.75195 c -7.47954,-11.15807 29.88346,-86.73764 33.65115,-80.67707 -17.46379,-0.25105 -32.45903,31.7323 -46.57348,75.21689 -0.39217,12.03119 6.38124,8.4933 12.92233,5.46018 z"
               id="path506"
               sodipodi:nodetypes="cccc" />
            <ellipse
               style="color:#000000;overflow:visible;fill:#662e0f;fill-opacity:1;stroke:none;stroke-width:0.9375;stroke-linecap:round"
               id="ellipse508"
               cx="-625.84912"
               cy="772.46204"
               rx="4.6122837"
               ry="15.821634" />
          </g>
          <g
             id="g516"
             inkscape:transform-center-x="-21.038421"
             inkscape:transform-center-y="-20.788182"
             transform="matrix(-0.27167768,-0.53629017,-0.53629017,0.27167768,832.44016,283.01912)">
            <path
               style="color:#000000;overflow:visible;fill:#920e07;fill-opacity:1;stroke:none;stroke-width:0.9375;stroke-linecap:round"
               d="m -656.66593,856.75195 c -7.47954,-11.15807 29.88346,-86.73764 33.65115,-80.67707 -17.46379,-0.25105 -32.45903,31.7323 -46.57348,75.21689 -0.39217,12.03119 6.38124,8.4933 12.92233,5.46018 z"
               id="path512"
               sodipodi:nodetypes="cccc" />
            <ellipse
               style="color:#000000;overflow:visible;fill:#662e0f;fill-opacity:1;stroke:none;stroke-width:0.9375;stroke-linecap:round"
               id="ellipse514"
               cx="-625.84912"
               cy="772.46204"
               rx="4.6122837"
               ry="15.821634" />
          </g>
          <path
             style="color:#000000;overflow:visible;fill:#b67603;fill-opacity:1;stroke:none;stroke-width:0.695507;stroke-linecap:round"
             d="m 554.75516,868.32505 c -20.80005,-21.9125 -30.19435,-87.18727 -25.62567,-84.58815 -7.45707,8.39408 2.00705,48.06572 17.50866,86.9267 5.76411,9.02634 6.86497,3.10153 8.11701,-2.33855 z"
             id="path518"
             sodipodi:nodetypes="cccc"
             inkscape:transform-center-x="10.809963"
             inkscape:transform-center-y="-39.29165" />
          <g
             id="g524"
             inkscape:transform-center-x="8.8166511"
             inkscape:transform-center-y="-28.106049"
             transform="matrix(0.47716425,-0.36569139,0.36569139,0.47716425,553.59435,221.4353)">
            <path
               style="color:#000000;overflow:visible;fill:#920e07;fill-opacity:1;stroke:none;stroke-width:0.9375;stroke-linecap:round"
               d="m -656.66593,856.75195 c -7.47954,-11.15807 29.88346,-86.73764 33.65115,-80.67707 -17.46379,-0.25105 -32.45903,31.7323 -46.57348,75.21689 -0.39217,12.03119 6.38124,8.4933 12.92233,5.46018 z"
               id="path520"
               sodipodi:nodetypes="cccc" />
            <ellipse
               style="color:#000000;overflow:visible;fill:#662e0f;fill-opacity:1;stroke:none;stroke-width:0.9375;stroke-linecap:round"
               id="ellipse522"
               cx="-625.84912"
               cy="772.46204"
               rx="4.6122837"
               ry="15.821634" />
          </g>
        </g>
      </g>
    </g>
    <path
       id="path125"
       style="color:#000000;overflow:visible;fill:#008033;fill-opacity:1;stroke:none;stroke-width:3.01145;stroke-linecap:round"
       inkscape:transform-center-x="57.436151"
       inkscape:transform-center-y="-94.468055"
       d="m 108.84646,860.02931 c -4.11878,1.48512 -8.45385,7.45855 -12.959521,18.31771 -9.931239,-10.36656 -18.169321,-3.28193 -23.332062,27.85859 -16.551823,2.86593 -31.440524,31.30674 -41.982681,96.38419 10.274152,-54.79366 24.157364,-76.45025 39.546425,-77.60157 -1.412184,13.98898 -2.431715,30.92368 -2.959146,51.46246 0.910815,-22.05111 2.511949,-38.88302 4.652574,-51.50233 3.224021,0.0729 6.51271,1.04904 9.841337,2.74226 -1.624476,7.31234 -3.2599,15.08331 -4.91718,23.71597 1.831033,-8.75399 3.631702,-16.48535 5.410744,-23.49603 118.1679,301.36014 47.13217,-71.87439 26.69951,-67.88125 z m -24.749669,35.31873 c 1.820759,-0.80945 3.750209,-0.67564 5.766029,0.23413 -1.25925,4.1665 -2.52612,8.58038 -3.8094,13.54162 -3.234961,-1.86856 -6.436916,-2.92551 -9.587234,-3.12687 2.251103,-5.96806 4.813126,-9.39905 7.630603,-10.64885 z m 17.577709,-5.42783 c 1.23688,-0.90125 -0.50546,-9.63905 4.43338,-0.80195 1.55075,-2.2608 36.89448,100.88014 32.61743,109.49606 -0.77348,1.55828 -37.0507,-108.69319 -37.0507,-108.69319 z m -9.68719,6.86596 c 73.80545,198.04813 56.24791,135.66253 -4.72544,13.08929 1.59721,-5.00545 3.17279,-9.398 4.72544,-13.08929 z"
       sodipodi:nodetypes="cccccccccccscccsccscccc" />
    <g
       id="g342"
       transform="matrix(-0.73846894,0.43359401,0.43359401,0.73846894,-33.993227,128.55752)"
       inkscape:transform-center-x="58.14598"
       inkscape:transform-center-y="-82.811341">
      <path
         style="color:#000000;overflow:visible;fill:#808000;fill-opacity:1;stroke:none;stroke-width:0.9375;stroke-linecap:round"
         d="m 363.61484,1031.9023 c -1.36001,-68.06398 -21.41235,-134.58165 0.99329,-205.34959 l 5.27962,3.08242 c -22.31505,65.66706 -6.11323,135.59963 -6.27291,202.26717 z"
         id="path325"
         sodipodi:nodetypes="cccc"
         inkscape:transform-center-x="-26.755004"
         inkscape:transform-center-y="-91.599581" />
      <g
         id="g340"
         transform="matrix(0.67603632,-0.15027481,0.14324481,0.64441074,-0.10418221,359.24092)"
         inkscape:transform-center-x="-21.742444"
         inkscape:transform-center-y="-10.277024">
        <path
           style="color:#000000;overflow:visible;fill:#b61420;fill-opacity:1;stroke:none;stroke-width:0.112133;stroke-linecap:round"
           d="m 372.16351,817.59937 c 14.3919,-19.74788 18.47392,-34.84589 45.70187,-27.23488 l -0.30369,7.23753 c -10.25206,23.89832 -27.32135,23.72657 -45.39818,19.99735 z"
           id="path327"
           sodipodi:nodetypes="cccc"
           inkscape:transform-center-x="-21.022225"
           inkscape:transform-center-y="-13.471929" />
        <path
           style="color:#000000;overflow:visible;fill:#9a0d0b;fill-opacity:1;stroke:none;stroke-width:0.0994849;stroke-linecap:round"
           d="m 376.41127,821.37857 c 3.12443,3.87056 7.77699,10.30615 12.94445,8.79723 1.31575,-0.42879 1.44585,-2.61067 2.69978,-3.20152 1.44804,-0.68231 3.42355,0.8252 4.78293,-0.0256 1.44064,-0.90168 0.95414,-3.56833 2.31304,-4.59313 1.87656,-1.41517 4.92866,0.024 6.89192,-1.26347 1.6213,-1.06324 1.51132,-4.07879 3.2869,-4.84462 1.02598,-0.44252 2.33363,1.13706 3.29299,0.55987 0.73356,-0.44134 0.11184,-2.0141 0.84704,-2.4526 0.75161,-0.44828 1.85234,0.9592 2.57074,0.45762 0.6162,-0.43023 -0.0375,-1.64605 0.43455,-2.23546 0.40223,-0.50223 1.3562,-0.25404 1.75994,-0.75501 0.55988,-0.6947 -0.10297,-2.01112 0.52945,-2.63817 0.54915,-0.54449 1.8169,0.22492 2.26339,-0.40919 0.4943,-0.70201 -0.7551,-1.77797 -0.38713,-2.55589 0.6085,-0.90864 3.82073,-1.72088 3.62895,-2.62626 -3.20651,-0.46999 -3.15643,-0.72441 -4.16882,-2.26659 -1.26829,-1.65285 -4.32206,0.0318 -6.10915,-1.01402 -0.87726,-0.51337 -0.94222,-2.14788 -1.92765,-2.38523 -0.93159,-0.22438 -1.67472,1.23282 -2.63123,1.18226 -1.38736,-0.0733 -2.223,-2.17137 -3.61117,-2.10747 -1.27478,0.0587 -1.89622,1.94661 -3.14154,2.23256 -0.63711,0.14629 -1.33095,-0.59425 -1.93043,-0.32989 -0.51576,0.22745 -0.40193,1.24538 -0.93444,1.42833 -0.89295,0.30678 -1.7351,-1.07947 -2.66726,-0.94043 -1.11732,0.16667 -1.64397,1.79187 -2.75194,2.01463 -1.8875,0.37948 -3.7451,-1.85221 -5.60805,-1.36202 -10.56047,3.96921 -12.13428,11.66856 -12.37726,21.3341 z"
           id="path329"
           sodipodi:nodetypes="ccaaaaaaaaaaaacccaaaaaaaaacc"
           inkscape:transform-center-x="-24.708911"
           inkscape:transform-center-y="-8.266568" />
        <path
           style="color:#000000;overflow:visible;fill:#9a0d0b;fill-opacity:1;stroke:none;stroke-width:0.0994849;stroke-linecap:round"
           d="m 383.9396,810.32508 c -1.60551,4.70804 -4.56454,12.07739 -0.53046,15.64189 1.06488,0.8838 2.97942,-0.17073 4.14834,0.5743 1.34988,0.86037 1.12945,3.33557 2.57448,4.03103 1.53145,0.73698 3.52682,-1.09768 5.11873,-0.4955 2.19834,0.83158 2.61032,4.18073 4.74693,5.1538 1.76449,0.80354 4.25588,-0.89895 5.85119,0.19382 0.92183,0.63143 0.28399,2.58033 1.28414,3.08354 0.76474,0.38478 1.76292,-0.98042 2.52614,-0.59275 0.7801,0.39665 0.17751,2.0784 0.98511,2.41821 0.6927,0.29148 1.37197,-0.91027 2.12235,-0.82567 0.6394,0.0721 0.93868,1.01128 1.57783,1.08532 0.88629,0.10267 1.64574,-1.16049 2.51355,-0.96036 0.75355,0.17378 0.77954,1.65651 1.55408,1.69564 0.85749,0.0433 1.10053,-1.58752 1.95477,-1.69155 1.09317,0.0296 3.49452,2.3125 4.1578,1.66709 -1.31397,-2.96244 -1.0721,-3.05588 -0.3083,-4.73513 0.7208,-1.95471 -2.33374,-3.63798 -2.40317,-5.70742 -0.0341,-1.01586 1.31346,-1.9432 0.98821,-2.90321 -0.30747,-0.90756 -1.93639,-0.75822 -2.40416,-1.59409 -0.6785,-1.21234 0.64972,-3.03881 -0.14523,-4.17862 -0.73004,-1.04669 -2.65824,-0.56456 -3.56472,-1.46504 -0.46376,-0.4607 -0.20785,-1.44269 -0.75137,-1.80855 -0.46762,-0.31476 -1.26768,0.32482 -1.70661,-0.0279 -0.73603,-0.59139 -0.0132,-2.04345 -0.62834,-2.75752 -0.73731,-0.8559 -2.39275,-0.43384 -3.17249,-1.2519 -1.32833,-1.39362 -0.43257,-4.15564 -1.84142,-5.46941 -8.99308,-6.81195 -16.34405,-4.03343 -24.6474,0.91995 z"
           id="path331"
           sodipodi:nodetypes="ccaaaaaaaaaaaacccaaaaaaaaacc"
           inkscape:transform-center-x="-19.924298"
           inkscape:transform-center-y="13.399678" />
        <path
           style="color:#000000;overflow:visible;fill:#9a0d0b;fill-opacity:1;stroke:none;stroke-width:0.0994849;stroke-linecap:round"
           d="m 377.39547,820.03827 c 4.97369,-0.0759 12.90921,0.22526 14.90488,-4.77443 0.473,-1.30051 -1.16528,-2.7474 -0.85796,-4.09907 0.35486,-1.56092 2.75945,-2.18794 2.92699,-3.78285 0.17748,-1.69026 -2.22252,-2.95021 -2.19232,-4.65194 0.0417,-2.35 3.05585,-3.86706 3.25154,-6.20664 0.16158,-1.93211 -2.28121,-3.7036 -1.79031,-5.57394 0.28366,-1.08075 2.33349,-1.13736 2.47004,-2.24859 0.1044,-0.8497 -1.51741,-1.32914 -1.40977,-2.17839 0.11041,-0.86815 1.89686,-0.86786 1.94448,-1.74275 0.0409,-0.75042 -1.31955,-0.98472 -1.4929,-1.7197 -0.14778,-0.62624 0.63558,-1.22469 0.4898,-1.85136 -0.20215,-0.86902 -1.64743,-1.15811 -1.7516,-2.04258 -0.0905,-0.76802 1.29668,-1.29241 1.07238,-2.03479 -0.24841,-0.82187 -1.86563,-0.50085 -2.25158,-1.26999 -0.34068,-1.03916 0.99889,-4.0696 0.16764,-4.47643 -2.34597,2.23585 -2.51549,2.03966 -4.35393,1.88675 -2.08328,-0.0195 -2.63812,3.42367 -4.56298,4.18677 -0.94488,0.37462 -2.27227,-0.58138 -3.06641,0.0485 -0.75074,0.59547 -0.0609,2.07866 -0.69016,2.80085 -0.91259,1.04754 -3.07995,0.4129 -3.88499,1.54559 -0.73927,1.0402 0.36475,2.69295 -0.17737,3.84996 -0.27736,0.59193 -1.28814,0.6821 -1.44932,1.31715 -0.13868,0.54635 0.73321,1.08393 0.54919,1.61606 -0.30859,0.89233 -1.91932,0.70146 -2.3842,1.52128 -0.5572,0.98271 0.39833,2.39891 -0.10896,3.40882 -0.86416,1.72042 -3.76647,1.80835 -4.52831,3.57767 -3.38098,10.76323 1.7133,16.74697 9.17622,22.89405 z"
           id="path333"
           sodipodi:nodetypes="ccaaaaaaaaaaaacccaaaaaaaaacc"
           inkscape:transform-center-x="-4.5174739"
           inkscape:transform-center-y="-25.299867" />
        <path
           style="color:#000000;overflow:visible;fill:#b61420;fill-opacity:1;stroke:none;stroke-width:0.112133;stroke-linecap:round"
           d="m 365.154,814.06756 c 24.38172,1.62395 39.32688,-2.98637 47.43029,24.09911 l -6.28156,3.60777 c -25.68047,4.09249 -34.64955,-10.43147 -41.14873,-27.70688 z"
           id="path335"
           sodipodi:nodetypes="cccc"
           inkscape:transform-center-x="-22.547555"
           inkscape:transform-center-y="12.776675" />
        <path
           style="color:#000000;overflow:visible;fill:#b61420;fill-opacity:1;stroke:none;stroke-width:0.112133;stroke-linecap:round"
           d="m 364.80188,815.29841 c 10.40479,-22.10985 11.56299,-37.70701 39.73821,-35.37336 l 1.06817,7.1647 c -5.55581,25.40408 -22.35057,28.45802 -40.80638,28.20866 z"
           id="path337"
           sodipodi:nodetypes="cccc"
           inkscape:transform-center-x="-18.65004"
           inkscape:transform-center-y="-17.228342" />
      </g>
    </g>
    <g
       id="g454"
       inkscape:transform-center-x="72.740936"
       inkscape:transform-center-y="-118.04919"
       transform="matrix(0.92135942,-0.09925999,0.09925999,0.92135942,-83.482447,89.762265)">
      <path
         style="color:#000000;overflow:visible;fill:#808000;fill-opacity:1;stroke:none;stroke-width:0.9375;stroke-linecap:round"
         d="M 140.35692,1034.9245 C 117.22597,970.89708 133.41174,888.48863 79.052301,836.48601 l -3.823661,4.77025 c 53.73768,46.44002 41.07927,131.48924 65.12828,193.66824 z"
         id="path415"
         sodipodi:nodetypes="cccc"
         inkscape:transform-center-x="26.755005"
         inkscape:transform-center-y="-91.599581" />
      <g
         id="g392"
         transform="matrix(0.09509989,-0.02825025,0.02825025,0.09509989,97.494524,732.66251)">
        <g
           id="g339"
           style="fill:#b61420;fill-opacity:1">
          <path
             style="color:#000000;overflow:visible;fill:#b61420;fill-opacity:1;stroke:none;stroke-width:0.9375;stroke-linecap:round"
             d="m -592.52645,822.48298 c 228.04397,47.88967 374.20287,36.68891 419.8027,244.65482 l -63.33124,16.7898 c -246.79122,-8.4583 -314.8401,-126.82911 -356.47146,-261.44462 z"
             id="path330"
             sodipodi:nodetypes="cccc"
             inkscape:transform-center-x="-208.20499"
             inkscape:transform-center-y="129.68711" />
          <path
             style="color:#000000;overflow:visible;fill:#b61420;fill-opacity:1;stroke:none;stroke-width:0.894425;stroke-linecap:round"
             d="m -504.62952,854.19003 c -110.64083,113.08692 -358.26382,314.04307 -486.21561,152.31027 66.21137,-197.62648 327.90975,-215.01076 486.21561,-152.31027 z"
             id="path332"
             sodipodi:nodetypes="ccc"
             inkscape:transform-center-x="203.03309"
             inkscape:transform-center-y="91.859479" />
          <path
             style="color:#000000;overflow:visible;fill:#b61420;fill-opacity:1;stroke:none;stroke-width:0.9375;stroke-linecap:round"
             d="M -591.11782,825.48452 C -645.18839,679.5371 -710.0688,533.93535 -585.15594,382.26496 l 54.63406,-38.87838 47.36391,90.20806 c 88.92039,230.37058 -0.42176,300.84008 -107.95985,391.88988 z"
             id="path334"
             sodipodi:nodetypes="ccccc"
             inkscape:transform-center-x="-36.0907"
             inkscape:transform-center-y="-239.08263" />
        </g>
        <g
           id="g353">
          <g
             id="g200"
             style="stroke:none"
             inkscape:transform-center-x="-223.93921"
             inkscape:transform-center-y="-92.232498"
             transform="matrix(1.0605797,0,0,1.078804,67.421065,-64.61244)">
            <path
               style="color:#000000;overflow:visible;fill:#9a0d0b;fill-opacity:1;stroke:none;stroke-width:0.9375;stroke-linecap:round"
               d="m -597.99257,816.31435 c 32.46777,33.78341 81.31218,90.3497 129.15958,72.5363 12.15,-4.951 11.76902,-25.37037 23.21342,-31.78601 13.21601,-7.40879 33.04961,5.19756 45.30084,-3.7165 12.98367,-9.44699 6.40161,-33.93374 18.51973,-44.4681 16.73431,-14.54724 46.71844,-3.35974 64.36878,-16.7808 14.57592,-11.08331 11.30347,-39.09397 27.5613,-47.51894 9.39418,-4.86816 22.95293,8.89516 31.61626,2.82094 6.62428,-4.64456 -0.42995,-18.84323 6.212,-23.46249 6.79023,-4.72239 18.26097,7.58828 24.69705,2.39357 5.5205,-4.45573 -1.57274,-15.30608 2.46417,-21.13985 3.43982,-4.97092 12.6625,-3.35257 16.11762,-8.31287 4.79118,-6.87839 -2.46316,-18.65924 3.06545,-24.96021 4.80069,-5.47136 17.38208,0.77413 21.14374,-5.45742 4.16448,-6.89886 -8.46983,-16.01326 -5.55856,-23.52736 5.0937,-8.9067 34.92993,-18.80859 32.4431,-27.10294 -30.73037,-2.04656 -30.444,-4.45302 -41.1774,-18.08273 -13.23989,-14.47446 -40.92943,3.4387 -58.6362,-5.00375 -8.69201,-4.14428 -10.51649,-19.32296 -20.02926,-20.81738 -8.9931,-1.41278 -14.95678,12.70177 -24.05741,12.92621 -13.19995,0.32554 -22.66961,-18.61044 -35.77572,-17.00589 -12.03561,1.47349 -16.5276,19.51202 -28.11588,23.08118 -5.92866,1.82601 -13.05075,-4.56781 -18.53546,-1.66931 -4.71884,2.49377 -2.88731,11.8933 -7.79774,13.98472 -8.23413,3.50703 -17.23908,-8.79396 -25.96876,-6.82092 -10.46373,2.36497 -14.25182,17.88708 -24.58548,20.76775 -17.60405,4.9074 -36.85599,-14.5307 -54.14552,-8.60979 -97.12833,44.65293 -106.34611,117.51879 -101.49965,207.73259 z"
               id="path191"
               sodipodi:nodetypes="ccaaaaaaaaaaaacccaaaaaaaaacc" />
            <path
               style="color:#000000;overflow:visible;fill:#890401;fill-opacity:1;stroke:none;stroke-width:0.9375;stroke-linecap:round"
               d="m -587.73191,753.01842 c -3.61512,-26.05501 18.74683,-76.65475 18.74683,-76.65475 0,0 -15.87286,49.07803 1.48075,55.65979 39.80215,15.09589 34.71995,-109.04082 87.20085,-93.29999 -63.53789,-9.22067 -107.66657,73.15184 -76.59736,102.29451 40.60054,38.08299 28.9163,-77.54804 127.00397,-108.43641 -80.92006,18.75997 -142.72871,76.919 -104.83339,112.00464 39.97878,37.01463 21.77128,-60.94931 140.95332,-114.17904 -52.003,12.90868 -166.60735,72.00648 -135.31534,124.78311 50.885,85.82188 283.60635,-95.70549 283.60635,-95.70549 -80.02516,113.79201 -303.81084,164.00766 -282.77221,103.42266 30.70996,-88.43555 191.9955,-146.07854 322.79959,-142.15056 0,0 -350.73812,49.42891 -309.21161,157.36728 34.50654,89.69162 278.32995,-75.16666 278.32995,-75.16666 0,0 -237.46668,181.26671 -272.73567,92.03534 -20.06686,-50.76963 149.04505,-67.87992 149.04505,-67.87992 0,0 -156.43018,33.96213 -137.39288,84.18652 14.0134,36.97029 116.80183,-20.63806 116.80183,-20.63806 0,0 -129.50158,-2.03577 -125.10963,41.70334 2.40015,23.90287 71.53707,8.74186 71.53707,8.74186 0,0 -69.03861,-18.84151 -79.38443,5.58469 -6.68593,15.78531 33.10253,39.35887 33.10253,39.35887 0,0 -34.30183,-14.02237 -47.05077,-26.79878 -28.74985,-28.81179 -54.61097,-65.91692 -60.2048,-106.23295 z"
               id="path195"
               sodipodi:nodetypes="acacacscacscacacacacacaa" />
            <path
               style="color:#000000;overflow:visible;fill:#ba8a01;fill-opacity:1;stroke:none;stroke-width:0.9375;stroke-linecap:round"
               d="m -601.6929,809.50971 c 0.33125,-2.91353 4.31624,-77.13415 6.76247,-76.06438 0,0 -1.18852,21.24269 6.43243,22.08405 5.37207,0.59308 2.60739,-15.62784 7.82096,-14.2032 5.06037,1.38278 -5.49483,14.20911 -0.4744,15.73054 7.63813,2.31473 5.247,-23.20101 12.68505,-20.30716 5.7388,2.23274 -8.17813,14.30917 -3.375,18.16259 3.85644,3.09392 10.1784,-9.32891 13.64839,-5.80703 4.29724,4.36149 -11.28508,12.02748 -7.44149,16.79357 3.45933,4.28961 13.43446,-8.11529 16.19048,-3.34328 2.31081,4.00114 -11.4325,6.30525 -9.21228,10.35736 2.84517,5.19268 14.27398,-7.74493 17.54012,-2.80618 3.66537,5.54243 -10.6031,16.88063 -10.6031,16.88063 43.66,-29.04703 142.3222,-126.5192 361.72591,-167.63764 -173.3095,32.55799 -345.19285,158.52653 -351.23566,175.57543 -1.68262,4.74726 11.77957,4.44935 11.76118,9.48594 -0.0128,3.51697 -9.06941,3.14094 -8.26079,6.56371 1.16098,4.91422 14.18288,-1.88895 14.82378,3.11971 0.59904,4.68151 -12.56339,1.59236 -12.67489,6.31072 -0.14651,6.19969 17.80582,3.06792 16.2439,9.06942 -1.15024,4.41968 -11.96353,-4.2236 -13.70071,0 -1.71807,4.17716 11.79077,5.56785 9.6289,9.53355 -1.7495,3.20927 -8.63744,-5.38251 -10.70644,-2.3693 -3.19741,4.65659 12.08186,9.17681 9.36,14.12643 -1.44498,2.62765 -7.25095,-2.6191 -8.99447,-0.17929 -4.02968,5.63897 11.82408,14.43811 7.12569,19.53335 -3.16894,3.43661 -10.36798,-7.17613 -13.52039,-3.72436 -2.00509,2.1955 3.13719,8.35005 3.13719,8.35005 -36.09512,-8.4227 -35.59689,-62.61034 -59.13495,-57.03669 z"
               id="path193"
               sodipodi:nodetypes="ccaaaaaaaaaaccsaaaaaaaaaaaaccc" />
          </g>
          <g
             id="g320"
             style="stroke:none"
             inkscape:transform-center-x="11.829307"
             inkscape:transform-center-y="231.052"
             transform="rotate(125.53441,-602.26628,831.58988)">
            <path
               style="color:#000000;overflow:visible;fill:#990b02;fill-opacity:1;stroke:none;stroke-width:0.9375;stroke-linecap:round"
               d="m -597.99257,816.31435 c 32.46777,33.78341 81.31218,90.3497 129.15958,72.5363 12.15,-4.951 11.76902,-25.37037 23.21342,-31.78601 13.21601,-7.40879 33.04961,5.19756 45.30084,-3.7165 12.98367,-9.44699 6.40161,-33.93374 18.51973,-44.4681 16.73431,-14.54724 46.71844,-3.35974 64.36878,-16.7808 14.57592,-11.08331 11.30347,-39.09397 27.5613,-47.51894 9.39418,-4.86816 22.95293,8.89516 31.61626,2.82094 6.62428,-4.64456 -0.42995,-18.84323 6.212,-23.46249 6.79023,-4.72239 18.26097,7.58828 24.69705,2.39357 5.5205,-4.45573 -1.57274,-15.30608 2.46417,-21.13985 3.43982,-4.97092 12.6625,-3.35257 16.11762,-8.31287 4.79118,-6.87839 -2.46316,-18.65924 3.06545,-24.96021 4.80069,-5.47136 17.38208,0.77413 21.14374,-5.45742 4.16448,-6.89886 -8.46983,-16.01326 -5.55856,-23.52736 5.0937,-8.9067 34.92993,-18.80859 32.4431,-27.10294 -30.73037,-2.04656 -30.444,-4.45302 -41.1774,-18.08273 -13.23989,-14.47446 -40.92943,3.4387 -58.6362,-5.00375 -8.69201,-4.14428 -10.51649,-19.32296 -20.02926,-20.81738 -8.9931,-1.41278 -14.95678,12.70177 -24.05741,12.92621 -13.19995,0.32554 -22.66961,-18.61044 -35.77572,-17.00589 -12.03561,1.47349 -16.5276,19.51202 -28.11588,23.08118 -5.92866,1.82601 -13.05075,-4.56781 -18.53546,-1.66931 -4.71884,2.49377 -2.88731,11.8933 -7.79774,13.98472 -8.23413,3.50703 -17.23908,-8.79396 -25.96876,-6.82092 -10.46373,2.36497 -14.25182,17.88708 -24.58548,20.76775 -17.60405,4.9074 -36.85599,-14.5307 -54.14552,-8.60979 -97.12833,44.65293 -106.34611,117.51879 -101.49965,207.73259 z"
               id="path314"
               sodipodi:nodetypes="ccaaaaaaaaaaaacccaaaaaaaaacc" />
            <path
               style="color:#000000;overflow:visible;fill:#890401;fill-opacity:1;stroke:none;stroke-width:0.9375;stroke-linecap:round"
               d="m -587.73191,753.01842 c -3.61512,-26.05501 18.74683,-76.65475 18.74683,-76.65475 0,0 -15.87286,49.07803 1.48075,55.65979 39.80215,15.09589 34.71995,-109.04082 87.20085,-93.29999 -63.53789,-9.22067 -107.66657,73.15184 -76.59736,102.29451 40.60054,38.08299 28.9163,-77.54804 127.00397,-108.43641 -80.92006,18.75997 -142.72871,76.919 -104.83339,112.00464 39.97878,37.01463 21.77128,-60.94931 140.95332,-114.17904 -52.003,12.90868 -166.60735,72.00648 -135.31534,124.78311 50.885,85.82188 283.60635,-95.70549 283.60635,-95.70549 -80.02516,113.79201 -303.81084,164.00766 -282.77221,103.42266 30.70996,-88.43555 191.9955,-146.07854 322.79959,-142.15056 0,0 -350.73812,49.42891 -309.21161,157.36728 34.50654,89.69162 278.32995,-75.16666 278.32995,-75.16666 0,0 -237.46668,181.26671 -272.73567,92.03534 -20.06686,-50.76963 149.04505,-67.87992 149.04505,-67.87992 0,0 -156.43018,33.96213 -137.39288,84.18652 14.0134,36.97029 116.80183,-20.63806 116.80183,-20.63806 0,0 -129.50158,-2.03577 -125.10963,41.70334 2.40015,23.90287 71.53707,8.74186 71.53707,8.74186 0,0 -69.03861,-18.84151 -79.38443,5.58469 -6.68593,15.78531 33.10253,39.35887 33.10253,39.35887 0,0 -34.30183,-14.02237 -47.05077,-26.79878 -28.74985,-28.81179 -54.61097,-65.91692 -60.2048,-106.23295 z"
               id="path316"
               sodipodi:nodetypes="acacacscacscacacacacacaa" />
            <path
               style="color:#000000;overflow:visible;fill:#ba8a01;fill-opacity:1;stroke:none;stroke-width:0.9375;stroke-linecap:round"
               d="m -601.6929,809.50971 c -4.48873,-11.63967 -13.25716,-83.66307 6.76247,-76.06438 0,0 -1.18852,21.24269 6.43243,22.08405 5.37207,0.59308 2.60739,-15.62784 7.82096,-14.2032 5.06037,1.38278 -5.49483,14.20911 -0.4744,15.73054 7.63813,2.31473 5.247,-23.20101 12.68505,-20.30716 5.7388,2.23274 -8.17813,14.30917 -3.375,18.16259 3.85644,3.09392 10.1784,-9.32891 13.64839,-5.80703 4.29724,4.36149 -11.28508,12.02748 -7.44149,16.79357 3.45933,4.28961 13.43446,-8.11529 16.19048,-3.34328 2.31081,4.00114 -11.4325,6.30525 -9.21228,10.35736 2.84517,5.19268 14.27398,-7.74493 17.54012,-2.80618 3.66537,5.54243 -10.6031,16.88063 -10.6031,16.88063 43.66,-29.04703 142.3222,-126.5192 361.72591,-167.63764 -173.3095,32.55799 -345.19285,158.52653 -351.23566,175.57543 -1.68262,4.74726 11.77957,4.44935 11.76118,9.48594 -0.0128,3.51697 -9.06941,3.14094 -8.26079,6.56371 1.16098,4.91422 14.18288,-1.88895 14.82378,3.11971 0.59904,4.68151 -12.56339,1.59236 -12.67489,6.31072 -0.14651,6.19969 17.80582,3.06792 16.2439,9.06942 -1.15024,4.41968 -11.96353,-4.2236 -13.70071,0 -1.71807,4.17716 11.79077,5.56785 9.6289,9.53355 -1.7495,3.20927 -8.63744,-5.38251 -10.70644,-2.3693 -3.19741,4.65659 12.08186,9.17681 9.36,14.12643 -1.44498,2.62765 -7.25095,-2.6191 -8.99447,-0.17929 -4.02968,5.63897 11.82408,14.43811 7.12569,19.53335 -3.16894,3.43661 -10.36798,-7.17613 -13.52039,-3.72436 -2.00509,2.1955 3.13719,8.35005 3.13719,8.35005 -28.45236,-12.36875 -41.46448,-36.47303 -59.13495,-57.03669 z"
               id="path318"
               sodipodi:nodetypes="ccaaaaaaaaaaccsaaaaaaaaaaaaccc" />
          </g>
          <g
             id="g328"
             style="stroke:none"
             inkscape:transform-center-x="198.3996"
             inkscape:transform-center-y="-129.34061"
             transform="matrix(-0.53048413,-0.96911174,0.98899889,-0.51981697,-1736.8598,649.47998)">
            <path
               style="color:#000000;overflow:visible;fill:#9a0d0b;fill-opacity:1;stroke:none;stroke-width:0.9375;stroke-linecap:round"
               d="m -597.99257,816.31435 c 32.46777,33.78341 81.31218,90.3497 129.15958,72.5363 12.15,-4.951 11.76902,-25.37037 23.21342,-31.78601 13.21601,-7.40879 33.04961,5.19756 45.30084,-3.7165 12.98367,-9.44699 6.40161,-33.93374 18.51973,-44.4681 16.73431,-14.54724 46.71844,-3.35974 64.36878,-16.7808 14.57592,-11.08331 11.30347,-39.09397 27.5613,-47.51894 9.39418,-4.86816 22.95293,8.89516 31.61626,2.82094 6.62428,-4.64456 -0.42995,-18.84323 6.212,-23.46249 6.79023,-4.72239 18.26097,7.58828 24.69705,2.39357 5.5205,-4.45573 -1.57274,-15.30608 2.46417,-21.13985 3.43982,-4.97092 12.6625,-3.35257 16.11762,-8.31287 4.79118,-6.87839 -2.46316,-18.65924 3.06545,-24.96021 4.80069,-5.47136 17.38208,0.77413 21.14374,-5.45742 4.16448,-6.89886 -8.46983,-16.01326 -5.55856,-23.52736 5.0937,-8.9067 34.92993,-18.80859 32.4431,-27.10294 -30.73037,-2.04656 -30.444,-4.45302 -41.1774,-18.08273 -13.23989,-14.47446 -40.92943,3.4387 -58.6362,-5.00375 -8.69201,-4.14428 -10.51649,-19.32296 -20.02926,-20.81738 -8.9931,-1.41278 -14.95678,12.70177 -24.05741,12.92621 -13.19995,0.32554 -22.66961,-18.61044 -35.77572,-17.00589 -12.03561,1.47349 -16.5276,19.51202 -28.11588,23.08118 -5.92866,1.82601 -13.05075,-4.56781 -18.53546,-1.66931 -4.71884,2.49377 -2.88731,11.8933 -7.79774,13.98472 -8.23413,3.50703 -17.23908,-8.79396 -25.96876,-6.82092 -10.46373,2.36497 -14.25182,17.88708 -24.58548,20.76775 -17.60405,4.9074 -36.85599,-14.5307 -54.14552,-8.60979 -97.12833,44.65293 -106.34611,117.51879 -101.49965,207.73259 z"
               id="path322"
               sodipodi:nodetypes="ccaaaaaaaaaaaacccaaaaaaaaacc" />
            <path
               style="color:#000000;overflow:visible;fill:#890401;fill-opacity:1;stroke:none;stroke-width:0.9375;stroke-linecap:round"
               d="m -587.73191,753.01842 c -3.61512,-26.05501 18.74683,-76.65475 18.74683,-76.65475 0,0 -15.87286,49.07803 1.48075,55.65979 39.80215,15.09589 34.71995,-109.04082 87.20085,-93.29999 -63.53789,-9.22067 -107.66657,73.15184 -76.59736,102.29451 40.60054,38.08299 28.9163,-77.54804 127.00397,-108.43641 -80.92006,18.75997 -142.72871,76.919 -104.83339,112.00464 39.97878,37.01463 21.77128,-60.94931 140.95332,-114.17904 -52.003,12.90868 -166.60735,72.00648 -135.31534,124.78311 50.885,85.82188 283.60635,-95.70549 283.60635,-95.70549 -80.02516,113.79201 -303.81084,164.00766 -282.77221,103.42266 30.70996,-88.43555 191.9955,-146.07854 322.79959,-142.15056 0,0 -350.73812,49.42891 -309.21161,157.36728 34.50654,89.69162 278.32995,-75.16666 278.32995,-75.16666 0,0 -237.46668,181.26671 -272.73567,92.03534 -20.06686,-50.76963 149.04505,-67.87992 149.04505,-67.87992 0,0 -156.43018,33.96213 -137.39288,84.18652 14.0134,36.97029 116.80183,-20.63806 116.80183,-20.63806 0,0 -129.50158,-2.03577 -125.10963,41.70334 2.40015,23.90287 71.53707,8.74186 71.53707,8.74186 0,0 -69.03861,-18.84151 -79.38443,5.58469 -6.68593,15.78531 33.10253,39.35887 33.10253,39.35887 0,0 -34.30183,-14.02237 -47.05077,-26.79878 -28.74985,-28.81179 -54.61097,-65.91692 -60.2048,-106.23295 z"
               id="path324"
               sodipodi:nodetypes="acacacscacscacacacacacaa" />
            <path
               style="color:#000000;overflow:visible;fill:#ba8a01;fill-opacity:1;stroke:none;stroke-width:0.9375;stroke-linecap:round"
               d="m -601.6929,809.50971 c 7.14359,19.52993 -47.47425,-35.37201 6.76247,-76.06438 0,0 -1.18852,21.24269 6.43243,22.08405 5.37207,0.59308 2.60739,-15.62784 7.82096,-14.2032 5.06037,1.38278 -5.49483,14.20911 -0.4744,15.73054 7.63813,2.31473 5.247,-23.20101 12.68505,-20.30716 5.7388,2.23274 -8.17813,14.30917 -3.375,18.16259 3.85644,3.09392 10.1784,-9.32891 13.64839,-5.80703 4.29724,4.36149 -11.28508,12.02748 -7.44149,16.79357 3.45933,4.28961 13.43446,-8.11529 16.19048,-3.34328 2.31081,4.00114 -11.4325,6.30525 -9.21228,10.35736 2.84517,5.19268 14.27398,-7.74493 17.54012,-2.80618 3.66537,5.54243 -10.6031,16.88063 -10.6031,16.88063 43.66,-29.04703 142.3222,-126.5192 361.72591,-167.63764 -173.3095,32.55799 -345.19285,158.52653 -351.23566,175.57543 -1.68262,4.74726 11.77957,4.44935 11.76118,9.48594 -0.0128,3.51697 -9.06941,3.14094 -8.26079,6.56371 1.16098,4.91422 14.18288,-1.88895 14.82378,3.11971 0.59904,4.68151 -12.56339,1.59236 -12.67489,6.31072 -0.14651,6.19969 17.80582,3.06792 16.2439,9.06942 -1.15024,4.41968 -11.96353,-4.2236 -13.70071,0 -1.71807,4.17716 11.79077,5.56785 9.6289,9.53355 -1.7495,3.20927 -8.63744,-5.38251 -10.70644,-2.3693 -3.19741,4.65659 12.08186,9.17681 9.36,14.12643 -1.44498,2.62765 -7.25095,-2.6191 -8.99447,-0.17929 -4.02968,5.63897 11.82408,14.43811 7.12569,19.53335 -3.16894,3.43661 -10.36798,-7.17613 -13.52039,-3.72436 -2.00509,2.1955 3.13719,8.35005 3.13719,8.35005 -28.45236,-12.36875 -41.46448,-36.47303 -59.13495,-57.03669 z"
               id="path326"
               sodipodi:nodetypes="ccaaaaaaaaaaccsaaaaaaaaaaaaccc" />
          </g>
        </g>
        <path
           style="color:#000000;overflow:visible;fill:#aa7703;fill-opacity:1;stroke:none;stroke-width:0.9375;stroke-linecap:round"
           d="m -661.42208,816.63613 c -9.75966,-0.86288 -24.42789,41.62654 -16.74125,35.5511 28.2043,-22.29241 82.54769,-13.2142 81.76606,38.69182 -0.0853,5.666 30.28259,-57.4186 67.9779,-13.82142 7.98912,9.23995 28.456,-32.76294 16.24144,-32.84874 -71.43941,-0.50182 -32.74621,-37.40606 -17.7064,-59.67571 11.01407,-16.30868 -71.53281,53.82901 -67.32116,-42.8588 0.68692,-15.76974 -0.30497,102.46336 -47.0394,30.54392 -3.80979,-5.86288 -15.15663,5.77003 -16.79425,12.56753 -3.19204,13.24968 74.63995,38.48324 -0.38294,31.8503 z"
           id="path355"
           sodipodi:nodetypes="ssssssssss" />
        <g
           id="g312"
           inkscape:transform-center-x="44.457976"
           inkscape:transform-center-y="-75.410751"
           transform="matrix(2.063825,-0.83668516,0.83668516,2.063825,-2457.3476,-503.12507)">
          <g
             id="g230"
             inkscape:transform-center-x="18.537661"
             inkscape:transform-center-y="-22.870716"
             transform="matrix(0.32472186,-0.50593639,0.50593639,0.32472186,326.06172,251.63677)">
            <path
               style="color:#000000;overflow:visible;fill:#920e07;fill-opacity:1;stroke:none;stroke-width:0.9375;stroke-linecap:round"
               d="m -656.66593,856.75195 c -7.47954,-11.15807 29.88346,-86.73764 33.65115,-80.67707 -17.46379,-0.25105 -32.45903,31.7323 -46.57348,75.21689 -0.39217,12.03119 6.38124,8.4933 12.92233,5.46018 z"
               id="path226"
               sodipodi:nodetypes="cccc" />
            <ellipse
               style="color:#000000;overflow:visible;fill:#662e0f;fill-opacity:1;stroke:none;stroke-width:0.9375;stroke-linecap:round"
               id="ellipse228"
               cx="-625.84912"
               cy="772.46204"
               rx="4.6122837"
               ry="15.821634" />
          </g>
          <g
             id="g242"
             inkscape:transform-center-x="-0.29238874"
             inkscape:transform-center-y="-29.943979"
             transform="matrix(0.56462979,-0.20641976,0.20641976,0.56462979,751.81319,251.61963)">
            <path
               style="color:#000000;overflow:visible;fill:#920e07;fill-opacity:1;stroke:none;stroke-width:0.9375;stroke-linecap:round"
               d="m -656.66593,856.75195 c -7.47954,-11.15807 29.88346,-86.73764 33.65115,-80.67707 -17.46379,-0.25105 -32.45903,31.7323 -46.57348,75.21689 -0.39217,12.03119 6.38124,8.4933 12.92233,5.46018 z"
               id="path238"
               sodipodi:nodetypes="cccc" />
            <ellipse
               style="color:#000000;overflow:visible;fill:#662e0f;fill-opacity:1;stroke:none;stroke-width:0.9375;stroke-linecap:round"
               id="ellipse240"
               cx="-625.84912"
               cy="772.46204"
               rx="4.6122837"
               ry="15.821634" />
          </g>
          <g
             id="g248"
             inkscape:transform-center-x="-13.914308"
             inkscape:transform-center-y="-25.850732"
             transform="matrix(-0.40634189,-0.44306002,-0.44306002,0.40634189,664.19112,221.70125)">
            <path
               style="color:#000000;overflow:visible;fill:#920e07;fill-opacity:1;stroke:none;stroke-width:0.9375;stroke-linecap:round"
               d="m -656.66593,856.75195 c -7.47954,-11.15807 29.88346,-86.73764 33.65115,-80.67707 -17.46379,-0.25105 -32.45903,31.7323 -46.57348,75.21689 -0.39217,12.03119 6.38124,8.4933 12.92233,5.46018 z"
               id="path244"
               sodipodi:nodetypes="cccc" />
            <ellipse
               style="color:#000000;overflow:visible;fill:#662e0f;fill-opacity:1;stroke:none;stroke-width:0.9375;stroke-linecap:round"
               id="ellipse246"
               cx="-625.84912"
               cy="772.46204"
               rx="4.6122837"
               ry="15.821634" />
          </g>
          <g
             id="g254"
             inkscape:transform-center-x="-21.038421"
             inkscape:transform-center-y="-20.788182"
             transform="matrix(-0.27167768,-0.53629017,-0.53629017,0.27167768,832.44016,283.01912)">
            <path
               style="color:#000000;overflow:visible;fill:#920e07;fill-opacity:1;stroke:none;stroke-width:0.9375;stroke-linecap:round"
               d="m -656.66593,856.75195 c -7.47954,-11.15807 29.88346,-86.73764 33.65115,-80.67707 -17.46379,-0.25105 -32.45903,31.7323 -46.57348,75.21689 -0.39217,12.03119 6.38124,8.4933 12.92233,5.46018 z"
               id="path250"
               sodipodi:nodetypes="cccc" />
            <ellipse
               style="color:#000000;overflow:visible;fill:#662e0f;fill-opacity:1;stroke:none;stroke-width:0.9375;stroke-linecap:round"
               id="ellipse252"
               cx="-625.84912"
               cy="772.46204"
               rx="4.6122837"
               ry="15.821634" />
          </g>
          <path
             style="color:#000000;overflow:visible;fill:#b67603;fill-opacity:1;stroke:none;stroke-width:0.695507;stroke-linecap:round"
             d="m 554.75516,868.32505 c -20.80005,-21.9125 -30.19435,-87.18727 -25.62567,-84.58815 -7.45707,8.39408 2.00705,48.06572 17.50866,86.9267 5.76411,9.02634 6.86497,3.10153 8.11701,-2.33855 z"
             id="path288"
             sodipodi:nodetypes="cccc"
             inkscape:transform-center-x="10.809963"
             inkscape:transform-center-y="-39.29165" />
          <g
             id="g236"
             inkscape:transform-center-x="8.8166511"
             inkscape:transform-center-y="-28.106049"
             transform="matrix(0.47716425,-0.36569139,0.36569139,0.47716425,553.59435,221.4353)">
            <path
               style="color:#000000;overflow:visible;fill:#920e07;fill-opacity:1;stroke:none;stroke-width:0.9375;stroke-linecap:round"
               d="m -656.66593,856.75195 c -7.47954,-11.15807 29.88346,-86.73764 33.65115,-80.67707 -17.46379,-0.25105 -32.45903,31.7323 -46.57348,75.21689 -0.39217,12.03119 6.38124,8.4933 12.92233,5.46018 z"
               id="path232"
               sodipodi:nodetypes="cccc" />
            <ellipse
               style="color:#000000;overflow:visible;fill:#662e0f;fill-opacity:1;stroke:none;stroke-width:0.9375;stroke-linecap:round"
               id="ellipse234"
               cx="-625.84912"
               cy="772.46204"
               rx="4.6122837"
               ry="15.821634" />
          </g>
        </g>
      </g>
    </g>
    <path
       id="path394"
       style="color:#000000;overflow:visible;fill:#165016;fill-opacity:1;stroke:none;stroke-width:2.41261;stroke-linecap:round"
       inkscape:transform-center-x="54.32015"
       inkscape:transform-center-y="-57.983253"
       d="m 96.353443,926.47189 c -4.093955,1.01609 -8.409577,4.93511 -12.902196,12.01305 -9.850288,-6.56131 -18.045104,-1.87048 -23.221157,18.32039 -16.447405,2.07976 -31.280828,20.6606 -41.853186,62.85097 10.289773,-35.54346 24.114803,-49.72628 39.404568,-50.68182 -1.424209,9.05746 -2.462784,20.01291 -3.017895,33.29052 0.938256,-14.26006 2.554502,-25.15723 4.700199,-33.33963 3.202681,3.5e-4 6.468341,0.58804 9.772499,1.63604 -1.624805,4.74714 -3.261367,9.79019 -4.920838,15.3905 1.832243,-5.68115 3.632836,-10.70105 5.410962,-15.25479 116.934971,193.08328 46.931651,-47.08641 26.627044,-44.22523 z m -24.640785,23.15947 c 1.81013,-0.54781 3.726785,-0.48731 5.727867,0.0722 -1.257358,2.70924 -2.52258,5.57847 -3.804858,8.80143 -3.210986,-1.16289 -6.390291,-1.80174 -9.519545,-1.88821 2.245304,-3.88675 4.795747,-6.13899 7.596536,-6.98545 z m 17.470678,-3.74812 c 1.230364,-0.59895 -0.487525,-6.22143 4.405418,-0.5798 1.54388,-1.48217 36.499196,64.67106 32.237206,70.29666 -0.77076,1.0175 -36.642624,-69.71686 -36.642624,-69.71686 z m -9.634169,4.56874 c 73.020633,126.94422 55.672963,86.87822 -4.714202,8.52221 1.594367,-3.25621 3.166201,-6.11597 4.714202,-8.52221 z"
       sodipodi:nodetypes="cccccccccccscccsccscccc" />
    <path
       id="path406"
       style="color:#000000;overflow:visible;fill:#008033;fill-opacity:1;stroke:none;stroke-width:2.90871;stroke-linecap:round"
       inkscape:transform-center-x="-46.013725"
       inkscape:transform-center-y="-89.39092"
       d="m 167.32581,867.11118 c 4.22649,0.42475 9.30732,4.94512 15.25493,13.93857 8.19102,-11.8573 17.23446,-7.20792 26.7305,20.36579 16.53982,-1.15809 35.12618,21.68641 54.73033,79.36658 -17.86842,-48.24397 -34.5022,-65.05388 -49.66311,-62.57954 3.38196,12.5952 6.80369,28.00125 10.26267,46.84905 -4.04942,-20.15641 -8.02315,-35.33382 -11.91855,-46.49658 -3.13117,0.80857 -6.19587,2.46602 -9.19666,4.79503 2.63148,6.38003 5.33939,13.18114 8.19214,20.77303 -3.03947,-7.66401 -5.90271,-14.39054 -8.64155,-20.45644 -71.93673,305.49263 -56.23383,-55.54633 -35.7507,-56.55549 z m 29.18158,26.9299 c -1.8903,-0.32904 -3.75127,0.23806 -5.58513,1.54171 1.82451,3.55857 3.6919,7.34389 5.65378,11.63095 2.88437,-2.4694 5.85295,-4.18165 8.8939,-5.09181 -3.04934,-4.99447 -6.03786,-7.57426 -8.96255,-8.08085 z m -17.90686,-0.9722 c -1.33449,-0.54803 -0.88956,-9.01856 -4.43508,0.27849 -1.8353,-1.7315 -21.48664,101.65151 -16.08344,108.62583 0.97714,1.2612 20.51854,-108.90344 20.51854,-108.90344 z m 10.42417,4.1143 c -43.52167,199.87832 -35.35815,138.22442 6.48155,11.00261 -2.27411,-4.25573 -4.43929,-7.95036 -6.48155,-11.00261 z"
       sodipodi:nodetypes="cccccccccccscccsccscccc" />
    <g
       id="g606"
       inkscape:transform-center-x="11.769171"
       inkscape:transform-center-y="-128.621"
       transform="rotate(19.390068,117.17229,1021.3663)">
      <path
         style="color:#000000;overflow:visible;fill:#808000;fill-opacity:1;stroke:none;stroke-width:0.9375;stroke-linecap:round"
         d="M 153.59632,1027.8302 C 130.46537,963.80283 125.33862,894.51782 79.052301,836.48601 l -3.823661,4.77025 c 44.37311,53.30245 54.31867,124.39499 78.36768,186.57394 z"
         id="path532"
         sodipodi:nodetypes="cccc"
         inkscape:transform-center-x="26.755005"
         inkscape:transform-center-y="-91.599581" />
      <g
         id="g604"
         transform="matrix(0.09509989,-0.02825025,0.02825025,0.09509989,97.494524,732.66251)">
        <g
           id="g540"
           style="fill:#b61420;fill-opacity:1">
          <path
             style="color:#000000;overflow:visible;fill:#b61420;fill-opacity:1;stroke:none;stroke-width:0.9375;stroke-linecap:round"
             d="m -592.52645,822.48298 c 228.04397,47.88967 374.20287,36.68891 419.8027,244.65482 l -63.33124,16.7898 c -246.79122,-8.4583 -314.8401,-126.82911 -356.47146,-261.44462 z"
             id="path534"
             sodipodi:nodetypes="cccc"
             inkscape:transform-center-x="-208.20499"
             inkscape:transform-center-y="129.68711" />
          <path
             style="color:#000000;overflow:visible;fill:#b61420;fill-opacity:1;stroke:none;stroke-width:0.894425;stroke-linecap:round"
             d="m -504.62952,854.19003 c -110.64083,113.08692 -358.26382,314.04307 -486.21561,152.31027 66.21137,-197.62648 327.90975,-215.01076 486.21561,-152.31027 z"
             id="path536"
             sodipodi:nodetypes="ccc"
             inkscape:transform-center-x="203.03309"
             inkscape:transform-center-y="91.859479" />
          <path
             style="color:#000000;overflow:visible;fill:#b61420;fill-opacity:1;stroke:none;stroke-width:0.9375;stroke-linecap:round"
             d="M -591.11782,825.48452 C -645.18839,679.5371 -710.0688,533.93535 -585.15594,382.26496 l 54.63406,-38.87838 47.36391,90.20806 c 88.92039,230.37058 -0.42176,300.84008 -107.95985,391.88988 z"
             id="path538"
             sodipodi:nodetypes="ccccc"
             inkscape:transform-center-x="-36.0907"
             inkscape:transform-center-y="-239.08263" />
        </g>
        <g
           id="g566">
          <g
             id="g548"
             style="stroke:none"
             inkscape:transform-center-x="-223.93921"
             inkscape:transform-center-y="-92.232498"
             transform="matrix(1.0605797,0,0,1.078804,67.421065,-64.61244)">
            <path
               style="color:#000000;overflow:visible;fill:#9a0d0b;fill-opacity:1;stroke:none;stroke-width:0.9375;stroke-linecap:round"
               d="m -597.99257,816.31435 c 32.46777,33.78341 81.31218,90.3497 129.15958,72.5363 12.15,-4.951 11.76902,-25.37037 23.21342,-31.78601 13.21601,-7.40879 33.04961,5.19756 45.30084,-3.7165 12.98367,-9.44699 6.40161,-33.93374 18.51973,-44.4681 16.73431,-14.54724 46.71844,-3.35974 64.36878,-16.7808 14.57592,-11.08331 11.30347,-39.09397 27.5613,-47.51894 9.39418,-4.86816 22.95293,8.89516 31.61626,2.82094 6.62428,-4.64456 -0.42995,-18.84323 6.212,-23.46249 6.79023,-4.72239 18.26097,7.58828 24.69705,2.39357 5.5205,-4.45573 -1.57274,-15.30608 2.46417,-21.13985 3.43982,-4.97092 12.6625,-3.35257 16.11762,-8.31287 4.79118,-6.87839 -2.46316,-18.65924 3.06545,-24.96021 4.80069,-5.47136 17.38208,0.77413 21.14374,-5.45742 4.16448,-6.89886 -8.46983,-16.01326 -5.55856,-23.52736 5.0937,-8.9067 34.92993,-18.80859 32.4431,-27.10294 -30.73037,-2.04656 -30.444,-4.45302 -41.1774,-18.08273 -13.23989,-14.47446 -40.92943,3.4387 -58.6362,-5.00375 -8.69201,-4.14428 -10.51649,-19.32296 -20.02926,-20.81738 -8.9931,-1.41278 -14.95678,12.70177 -24.05741,12.92621 -13.19995,0.32554 -22.66961,-18.61044 -35.77572,-17.00589 -12.03561,1.47349 -16.5276,19.51202 -28.11588,23.08118 -5.92866,1.82601 -13.05075,-4.56781 -18.53546,-1.66931 -4.71884,2.49377 -2.88731,11.8933 -7.79774,13.98472 -8.23413,3.50703 -17.23908,-8.79396 -25.96876,-6.82092 -10.46373,2.36497 -14.25182,17.88708 -24.58548,20.76775 -17.60405,4.9074 -36.85599,-14.5307 -54.14552,-8.60979 -97.12833,44.65293 -106.34611,117.51879 -101.49965,207.73259 z"
               id="path542"
               sodipodi:nodetypes="ccaaaaaaaaaaaacccaaaaaaaaacc" />
            <path
               style="color:#000000;overflow:visible;fill:#890401;fill-opacity:1;stroke:none;stroke-width:0.9375;stroke-linecap:round"
               d="m -587.73191,753.01842 c -3.61512,-26.05501 18.74683,-76.65475 18.74683,-76.65475 0,0 -15.87286,49.07803 1.48075,55.65979 39.80215,15.09589 34.71995,-109.04082 87.20085,-93.29999 -63.53789,-9.22067 -107.66657,73.15184 -76.59736,102.29451 40.60054,38.08299 28.9163,-77.54804 127.00397,-108.43641 -80.92006,18.75997 -142.72871,76.919 -104.83339,112.00464 39.97878,37.01463 21.77128,-60.94931 140.95332,-114.17904 -52.003,12.90868 -166.60735,72.00648 -135.31534,124.78311 50.885,85.82188 283.60635,-95.70549 283.60635,-95.70549 -80.02516,113.79201 -303.81084,164.00766 -282.77221,103.42266 30.70996,-88.43555 191.9955,-146.07854 322.79959,-142.15056 0,0 -350.73812,49.42891 -309.21161,157.36728 34.50654,89.69162 278.32995,-75.16666 278.32995,-75.16666 0,0 -237.46668,181.26671 -272.73567,92.03534 -20.06686,-50.76963 149.04505,-67.87992 149.04505,-67.87992 0,0 -156.43018,33.96213 -137.39288,84.18652 14.0134,36.97029 116.80183,-20.63806 116.80183,-20.63806 0,0 -129.50158,-2.03577 -125.10963,41.70334 2.40015,23.90287 71.53707,8.74186 71.53707,8.74186 0,0 -69.03861,-18.84151 -79.38443,5.58469 -6.68593,15.78531 33.10253,39.35887 33.10253,39.35887 0,0 -34.30183,-14.02237 -47.05077,-26.79878 -28.74985,-28.81179 -54.61097,-65.91692 -60.2048,-106.23295 z"
               id="path544"
               sodipodi:nodetypes="acacacscacscacacacacacaa" />
            <path
               style="color:#000000;overflow:visible;fill:#ba8a01;fill-opacity:1;stroke:none;stroke-width:0.9375;stroke-linecap:round"
               d="m -601.6929,809.50971 c 0.33125,-2.91353 4.31624,-77.13415 6.76247,-76.06438 0,0 -1.18852,21.24269 6.43243,22.08405 5.37207,0.59308 2.60739,-15.62784 7.82096,-14.2032 5.06037,1.38278 -5.49483,14.20911 -0.4744,15.73054 7.63813,2.31473 5.247,-23.20101 12.68505,-20.30716 5.7388,2.23274 -8.17813,14.30917 -3.375,18.16259 3.85644,3.09392 10.1784,-9.32891 13.64839,-5.80703 4.29724,4.36149 -11.28508,12.02748 -7.44149,16.79357 3.45933,4.28961 13.43446,-8.11529 16.19048,-3.34328 2.31081,4.00114 -11.4325,6.30525 -9.21228,10.35736 2.84517,5.19268 14.27398,-7.74493 17.54012,-2.80618 3.66537,5.54243 -10.6031,16.88063 -10.6031,16.88063 43.66,-29.04703 142.3222,-126.5192 361.72591,-167.63764 -173.3095,32.55799 -345.19285,158.52653 -351.23566,175.57543 -1.68262,4.74726 11.77957,4.44935 11.76118,9.48594 -0.0128,3.51697 -9.06941,3.14094 -8.26079,6.56371 1.16098,4.91422 14.18288,-1.88895 14.82378,3.11971 0.59904,4.68151 -12.56339,1.59236 -12.67489,6.31072 -0.14651,6.19969 17.80582,3.06792 16.2439,9.06942 -1.15024,4.41968 -11.96353,-4.2236 -13.70071,0 -1.71807,4.17716 11.79077,5.56785 9.6289,9.53355 -1.7495,3.20927 -8.63744,-5.38251 -10.70644,-2.3693 -3.19741,4.65659 12.08186,9.17681 9.36,14.12643 -1.44498,2.62765 -7.25095,-2.6191 -8.99447,-0.17929 -4.02968,5.63897 11.82408,14.43811 7.12569,19.53335 -3.16894,3.43661 -10.36798,-7.17613 -13.52039,-3.72436 -2.00509,2.1955 3.13719,8.35005 3.13719,8.35005 -36.09512,-8.4227 -35.59689,-62.61034 -59.13495,-57.03669 z"
               id="path546"
               sodipodi:nodetypes="ccaaaaaaaaaaccsaaaaaaaaaaaaccc" />
          </g>
          <g
             id="g556"
             style="stroke:none"
             inkscape:transform-center-x="11.829307"
             inkscape:transform-center-y="231.052"
             transform="rotate(125.53441,-602.26628,831.58988)">
            <path
               style="color:#000000;overflow:visible;fill:#990b02;fill-opacity:1;stroke:none;stroke-width:0.9375;stroke-linecap:round"
               d="m -597.99257,816.31435 c 32.46777,33.78341 81.31218,90.3497 129.15958,72.5363 12.15,-4.951 11.76902,-25.37037 23.21342,-31.78601 57.35082,0.63387 122.21093,-92.81298 155.75065,-112.48434 37.67401,-4.33413 79.0566,-25.89692 84.17255,-72.66091 4.80069,-5.47136 17.38208,0.77413 21.14374,-5.45742 4.16448,-6.89886 -8.46983,-16.01326 -5.55856,-23.52736 5.0937,-8.9067 34.92993,-18.80859 32.4431,-27.10294 -30.73037,-2.04656 -30.444,-4.45302 -41.1774,-18.08273 -13.23989,-14.47446 -40.92943,3.4387 -58.6362,-5.00375 -8.69201,-4.14428 -10.51649,-19.32296 -20.02926,-20.81738 -8.9931,-1.41278 -14.95678,12.70177 -24.05741,12.92621 -42.69878,-16.03613 -73.91597,4.47501 -116.19356,11.56978 -10.46373,2.36497 -14.25182,17.88708 -24.58548,20.76775 -17.60405,4.9074 -36.85599,-14.5307 -54.14552,-8.60979 -97.12833,44.65293 -106.34611,117.51879 -101.49965,207.73259 z"
               id="path550"
               sodipodi:nodetypes="cccccacccaaccacc" />
            <path
               style="color:#000000;overflow:visible;fill:#890401;fill-opacity:1;stroke:none;stroke-width:0.9375;stroke-linecap:round"
               d="m -587.73191,753.01842 c -3.61512,-26.05501 18.74683,-76.65475 18.74683,-76.65475 0,0 -15.87286,49.07803 1.48075,55.65979 39.80215,15.09589 34.71995,-109.04082 87.20085,-93.29999 -63.53789,-9.22067 -107.66657,73.15184 -76.59736,102.29451 40.60054,38.08299 28.9163,-77.54804 127.00397,-108.43641 -80.92006,18.75997 -142.72871,76.919 -104.83339,112.00464 39.97878,37.01463 21.77128,-60.94931 140.95332,-114.17904 -52.003,12.90868 -166.60735,72.00648 -135.31534,124.78311 50.885,85.82188 283.60635,-95.70549 283.60635,-95.70549 -80.02516,113.79201 -303.81084,164.00766 -282.77221,103.42266 30.70996,-88.43555 191.9955,-146.07854 322.79959,-142.15056 0,0 -350.73812,49.42891 -309.21161,157.36728 34.50654,89.69162 278.32995,-75.16666 278.32995,-75.16666 0,0 -237.46668,181.26671 -272.73567,92.03534 -20.06686,-50.76963 149.04505,-67.87992 149.04505,-67.87992 0,0 -156.43018,33.96213 -137.39288,84.18652 14.0134,36.97029 116.80183,-20.63806 116.80183,-20.63806 0,0 -129.50158,-2.03577 -125.10963,41.70334 2.40015,23.90287 71.53707,8.74186 71.53707,8.74186 0,0 -69.03861,-18.84151 -79.38443,5.58469 -6.68593,15.78531 33.10253,39.35887 33.10253,39.35887 0,0 -34.30183,-14.02237 -47.05077,-26.79878 -28.74985,-28.81179 -54.61097,-65.91692 -60.2048,-106.23295 z"
               id="path552"
               sodipodi:nodetypes="acacacscacscacacacacacaa" />
            <path
               style="color:#000000;overflow:visible;fill:#ba8a01;fill-opacity:1;stroke:none;stroke-width:0.9375;stroke-linecap:round"
               d="m -601.6929,809.50971 c -4.48873,-11.63967 -13.25716,-83.66307 6.76247,-76.06438 0,0 -1.18852,21.24269 6.43243,22.08405 5.37207,0.59308 2.60739,-15.62784 7.82096,-14.2032 5.06037,1.38278 -5.49483,14.20911 -0.4744,15.73054 7.63813,2.31473 5.247,-23.20101 12.68505,-20.30716 5.7388,2.23274 -8.17813,14.30917 -3.375,18.16259 3.85644,3.09392 10.1784,-9.32891 13.64839,-5.80703 4.29724,4.36149 -11.28508,12.02748 -7.44149,16.79357 3.45933,4.28961 13.43446,-8.11529 16.19048,-3.34328 2.31081,4.00114 -11.4325,6.30525 -9.21228,10.35736 2.84517,5.19268 14.27398,-7.74493 17.54012,-2.80618 3.66537,5.54243 -10.6031,16.88063 -10.6031,16.88063 43.66,-29.04703 142.3222,-126.5192 361.72591,-167.63764 -173.3095,32.55799 -345.19285,158.52653 -351.23566,175.57543 -1.68262,4.74726 11.77957,4.44935 11.76118,9.48594 -0.0128,3.51697 -9.06941,3.14094 -8.26079,6.56371 1.16098,4.91422 14.18288,-1.88895 14.82378,3.11971 0.59904,4.68151 -12.56339,1.59236 -12.67489,6.31072 -0.14651,6.19969 17.80582,3.06792 16.2439,9.06942 -1.15024,4.41968 -11.96353,-4.2236 -13.70071,0 -1.71807,4.17716 11.79077,5.56785 9.6289,9.53355 -1.7495,3.20927 -8.63744,-5.38251 -10.70644,-2.3693 -3.19741,4.65659 12.08186,9.17681 9.36,14.12643 -1.44498,2.62765 -7.25095,-2.6191 -8.99447,-0.17929 -4.02968,5.63897 11.82408,14.43811 7.12569,19.53335 -3.16894,3.43661 -10.36798,-7.17613 -13.52039,-3.72436 -2.00509,2.1955 3.13719,8.35005 3.13719,8.35005 -28.45236,-12.36875 -41.46448,-36.47303 -59.13495,-57.03669 z"
               id="path554"
               sodipodi:nodetypes="ccaaaaaaaaaaccsaaaaaaaaaaaaccc" />
          </g>
          <g
             id="g564"
             style="stroke:none"
             inkscape:transform-center-x="198.3996"
             inkscape:transform-center-y="-129.34061"
             transform="matrix(-0.53048413,-0.96911174,0.98899889,-0.51981697,-1736.8598,649.47998)">
            <path
               style="color:#000000;overflow:visible;fill:#9a0d0b;fill-opacity:1;stroke:none;stroke-width:0.9375;stroke-linecap:round"
               d="m -597.99257,816.31435 c 32.46777,33.78341 81.31218,90.3497 129.15958,72.5363 12.15,-4.951 11.76902,-25.37037 23.21342,-31.78601 13.21601,-7.40879 33.04961,5.19756 45.30084,-3.7165 12.98367,-9.44699 6.40161,-33.93374 18.51973,-44.4681 16.73431,-14.54724 46.71844,-3.35974 64.36878,-16.7808 14.57592,-11.08331 11.30347,-39.09397 27.5613,-47.51894 9.39418,-4.86816 22.95293,8.89516 31.61626,2.82094 6.62428,-4.64456 -0.42995,-18.84323 6.212,-23.46249 6.79023,-4.72239 18.26097,7.58828 24.69705,2.39357 5.5205,-4.45573 -1.57274,-15.30608 2.46417,-21.13985 3.43982,-4.97092 12.6625,-3.35257 16.11762,-8.31287 4.79118,-6.87839 -2.46316,-18.65924 3.06545,-24.96021 4.80069,-5.47136 17.38208,0.77413 21.14374,-5.45742 4.16448,-6.89886 -8.46983,-16.01326 -5.55856,-23.52736 5.0937,-8.9067 34.92993,-18.80859 32.4431,-27.10294 -30.73037,-2.04656 -30.444,-4.45302 -41.1774,-18.08273 -13.23989,-14.47446 -40.92943,3.4387 -58.6362,-5.00375 -8.69201,-4.14428 -10.51649,-19.32296 -20.02926,-20.81738 -8.9931,-1.41278 -14.95678,12.70177 -24.05741,12.92621 -13.19995,0.32554 -22.66961,-18.61044 -35.77572,-17.00589 -12.03561,1.47349 -16.5276,19.51202 -28.11588,23.08118 -5.92866,1.82601 -13.05075,-4.56781 -18.53546,-1.66931 -4.71884,2.49377 -2.88731,11.8933 -7.79774,13.98472 -8.23413,3.50703 -17.23908,-8.79396 -25.96876,-6.82092 -10.46373,2.36497 -14.25182,17.88708 -24.58548,20.76775 -17.60405,4.9074 -36.85599,-14.5307 -54.14552,-8.60979 -97.12833,44.65293 -106.34611,117.51879 -101.49965,207.73259 z"
               id="path558"
               sodipodi:nodetypes="ccaaaaaaaaaaaacccaaaaaaaaacc" />
            <path
               style="color:#000000;overflow:visible;fill:#890401;fill-opacity:1;stroke:none;stroke-width:0.9375;stroke-linecap:round"
               d="m -587.73191,753.01842 c -3.61512,-26.05501 18.74683,-76.65475 18.74683,-76.65475 0,0 -15.87286,49.07803 1.48075,55.65979 39.80215,15.09589 34.71995,-109.04082 87.20085,-93.29999 -63.53789,-9.22067 -107.66657,73.15184 -76.59736,102.29451 40.60054,38.08299 28.9163,-77.54804 127.00397,-108.43641 -80.92006,18.75997 -142.72871,76.919 -104.83339,112.00464 39.97878,37.01463 21.77128,-60.94931 140.95332,-114.17904 -52.003,12.90868 -166.60735,72.00648 -135.31534,124.78311 50.885,85.82188 283.60635,-95.70549 283.60635,-95.70549 -80.02516,113.79201 -303.81084,164.00766 -282.77221,103.42266 30.70996,-88.43555 191.9955,-146.07854 322.79959,-142.15056 0,0 -350.73812,49.42891 -309.21161,157.36728 34.50654,89.69162 278.32995,-75.16666 278.32995,-75.16666 0,0 -237.46668,181.26671 -272.73567,92.03534 -20.06686,-50.76963 149.04505,-67.87992 149.04505,-67.87992 0,0 -156.43018,33.96213 -137.39288,84.18652 14.0134,36.97029 116.80183,-20.63806 116.80183,-20.63806 0,0 -129.50158,-2.03577 -125.10963,41.70334 2.40015,23.90287 71.53707,8.74186 71.53707,8.74186 0,0 -69.03861,-18.84151 -79.38443,5.58469 -6.68593,15.78531 33.10253,39.35887 33.10253,39.35887 0,0 -34.30183,-14.02237 -47.05077,-26.79878 -28.74985,-28.81179 -54.61097,-65.91692 -60.2048,-106.23295 z"
               id="path560"
               sodipodi:nodetypes="acacacscacscacacacacacaa" />
            <path
               style="color:#000000;overflow:visible;fill:#ba8a01;fill-opacity:1;stroke:none;stroke-width:0.9375;stroke-linecap:round"
               d="m -601.6929,809.50971 c 7.14359,19.52993 -47.47425,-35.37201 6.76247,-76.06438 0,0 -1.18852,21.24269 6.43243,22.08405 5.37207,0.59308 2.60739,-15.62784 7.82096,-14.2032 5.06037,1.38278 -5.49483,14.20911 -0.4744,15.73054 7.63813,2.31473 5.247,-23.20101 12.68505,-20.30716 5.7388,2.23274 -8.17813,14.30917 -3.375,18.16259 3.85644,3.09392 10.1784,-9.32891 13.64839,-5.80703 4.29724,4.36149 -11.28508,12.02748 -7.44149,16.79357 3.45933,4.28961 13.43446,-8.11529 16.19048,-3.34328 2.31081,4.00114 -11.4325,6.30525 -9.21228,10.35736 2.84517,5.19268 14.27398,-7.74493 17.54012,-2.80618 3.66537,5.54243 -10.6031,16.88063 -10.6031,16.88063 43.66,-29.04703 142.3222,-126.5192 361.72591,-167.63764 -173.3095,32.55799 -345.19285,158.52653 -351.23566,175.57543 -1.68262,4.74726 11.77957,4.44935 11.76118,9.48594 -0.0128,3.51697 -9.06941,3.14094 -8.26079,6.56371 1.16098,4.91422 14.18288,-1.88895 14.82378,3.11971 0.59904,4.68151 -12.56339,1.59236 -12.67489,6.31072 -0.14651,6.19969 17.80582,3.06792 16.2439,9.06942 -1.15024,4.41968 -11.96353,-4.2236 -13.70071,0 -1.71807,4.17716 11.79077,5.56785 9.6289,9.53355 -1.7495,3.20927 -8.63744,-5.38251 -10.70644,-2.3693 -3.19741,4.65659 12.08186,9.17681 9.36,14.12643 -1.44498,2.62765 -7.25095,-2.6191 -8.99447,-0.17929 -4.02968,5.63897 11.82408,14.43811 7.12569,19.53335 -3.16894,3.43661 -10.36798,-7.17613 -13.52039,-3.72436 -2.00509,2.1955 3.13719,8.35005 3.13719,8.35005 -28.45236,-12.36875 -41.46448,-36.47303 -59.13495,-57.03669 z"
               id="path562"
               sodipodi:nodetypes="ccaaaaaaaaaaccsaaaaaaaaaaaaccc" />
          </g>
        </g>
        <path
           style="color:#000000;overflow:visible;fill:#aa7703;fill-opacity:1;stroke:none;stroke-width:0.9375;stroke-linecap:round"
           d="m -661.42208,816.63613 c -9.75966,-0.86288 -24.42789,41.62654 -16.74125,35.5511 28.2043,-22.29241 82.54769,-13.2142 81.76606,38.69182 -0.0853,5.666 30.28259,-57.4186 67.9779,-13.82142 7.98912,9.23995 28.456,-32.76294 16.24144,-32.84874 -71.43941,-0.50182 -32.74621,-37.40606 -17.7064,-59.67571 11.01407,-16.30868 -71.53281,53.82901 -67.32116,-42.8588 0.68692,-15.76974 -0.30497,102.46336 -47.0394,30.54392 -3.80979,-5.86288 -15.15663,5.77003 -16.79425,12.56753 -3.19204,13.24968 74.63995,38.48324 -0.38294,31.8503 z"
           id="path568"
           sodipodi:nodetypes="ssssssssss" />
        <g
           id="g602"
           inkscape:transform-center-x="44.457976"
           inkscape:transform-center-y="-75.410751"
           transform="matrix(2.063825,-0.83668516,0.83668516,2.063825,-2457.3476,-503.12507)">
          <g
             id="g574"
             inkscape:transform-center-x="18.537661"
             inkscape:transform-center-y="-22.870716"
             transform="matrix(0.32472186,-0.50593639,0.50593639,0.32472186,326.06172,251.63677)">
            <path
               style="color:#000000;overflow:visible;fill:#920e07;fill-opacity:1;stroke:none;stroke-width:0.9375;stroke-linecap:round"
               d="m -656.66593,856.75195 c -7.47954,-11.15807 29.88346,-86.73764 33.65115,-80.67707 -17.46379,-0.25105 -32.45903,31.7323 -46.57348,75.21689 -0.39217,12.03119 6.38124,8.4933 12.92233,5.46018 z"
               id="path570"
               sodipodi:nodetypes="cccc" />
            <ellipse
               style="color:#000000;overflow:visible;fill:#662e0f;fill-opacity:1;stroke:none;stroke-width:0.9375;stroke-linecap:round"
               id="ellipse572"
               cx="-625.84912"
               cy="772.46204"
               rx="4.6122837"
               ry="15.821634" />
          </g>
          <g
             id="g580"
             inkscape:transform-center-x="-0.29238874"
             inkscape:transform-center-y="-29.943979"
             transform="matrix(0.56462979,-0.20641976,0.20641976,0.56462979,751.81319,251.61963)">
            <path
               style="color:#000000;overflow:visible;fill:#920e07;fill-opacity:1;stroke:none;stroke-width:0.9375;stroke-linecap:round"
               d="m -656.66593,856.75195 c -7.47954,-11.15807 29.88346,-86.73764 33.65115,-80.67707 -17.46379,-0.25105 -32.45903,31.7323 -46.57348,75.21689 -0.39217,12.03119 6.38124,8.4933 12.92233,5.46018 z"
               id="path576"
               sodipodi:nodetypes="cccc" />
            <ellipse
               style="color:#000000;overflow:visible;fill:#662e0f;fill-opacity:1;stroke:none;stroke-width:0.9375;stroke-linecap:round"
               id="ellipse578"
               cx="-625.84912"
               cy="772.46204"
               rx="4.6122837"
               ry="15.821634" />
          </g>
          <g
             id="g586"
             inkscape:transform-center-x="-13.914308"
             inkscape:transform-center-y="-25.850732"
             transform="matrix(-0.40634189,-0.44306002,-0.44306002,0.40634189,664.19112,221.70125)">
            <path
               style="color:#000000;overflow:visible;fill:#920e07;fill-opacity:1;stroke:none;stroke-width:0.9375;stroke-linecap:round"
               d="m -656.66593,856.75195 c -7.47954,-11.15807 29.88346,-86.73764 33.65115,-80.67707 -17.46379,-0.25105 -32.45903,31.7323 -46.57348,75.21689 -0.39217,12.03119 6.38124,8.4933 12.92233,5.46018 z"
               id="path582"
               sodipodi:nodetypes="cccc" />
            <ellipse
               style="color:#000000;overflow:visible;fill:#662e0f;fill-opacity:1;stroke:none;stroke-width:0.9375;stroke-linecap:round"
               id="ellipse584"
               cx="-625.84912"
               cy="772.46204"
               rx="4.6122837"
               ry="15.821634" />
          </g>
          <g
             id="g592"
             inkscape:transform-center-x="-21.038421"
             inkscape:transform-center-y="-20.788182"
             transform="matrix(-0.27167768,-0.53629017,-0.53629017,0.27167768,832.44016,283.01912)">
            <path
               style="color:#000000;overflow:visible;fill:#920e07;fill-opacity:1;stroke:none;stroke-width:0.9375;stroke-linecap:round"
               d="m -656.66593,856.75195 c -7.47954,-11.15807 29.88346,-86.73764 33.65115,-80.67707 -17.46379,-0.25105 -32.45903,31.7323 -46.57348,75.21689 -0.39217,12.03119 6.38124,8.4933 12.92233,5.46018 z"
               id="path588"
               sodipodi:nodetypes="cccc" />
            <ellipse
               style="color:#000000;overflow:visible;fill:#662e0f;fill-opacity:1;stroke:none;stroke-width:0.9375;stroke-linecap:round"
               id="ellipse590"
               cx="-625.84912"
               cy="772.46204"
               rx="4.6122837"
               ry="15.821634" />
          </g>
          <path
             style="color:#000000;overflow:visible;fill:#b67603;fill-opacity:1;stroke:none;stroke-width:0.695507;stroke-linecap:round"
             d="m 554.75516,868.32505 c -20.80005,-21.9125 -30.19435,-87.18727 -25.62567,-84.58815 -7.45707,8.39408 2.00705,48.06572 17.50866,86.9267 5.76411,9.02634 6.86497,3.10153 8.11701,-2.33855 z"
             id="path594"
             sodipodi:nodetypes="cccc"
             inkscape:transform-center-x="10.809963"
             inkscape:transform-center-y="-39.29165" />
          <g
             id="g600"
             inkscape:transform-center-x="8.8166511"
             inkscape:transform-center-y="-28.106049"
             transform="matrix(0.47716425,-0.36569139,0.36569139,0.47716425,553.59435,221.4353)">
            <path
               style="color:#000000;overflow:visible;fill:#920e07;fill-opacity:1;stroke:none;stroke-width:0.9375;stroke-linecap:round"
               d="m -656.66593,856.75195 c -7.47954,-11.15807 29.88346,-86.73764 33.65115,-80.67707 -17.46379,-0.25105 -32.45903,31.7323 -46.57348,75.21689 -0.39217,12.03119 6.38124,8.4933 12.92233,5.46018 z"
               id="path596"
               sodipodi:nodetypes="cccc" />
            <ellipse
               style="color:#000000;overflow:visible;fill:#662e0f;fill-opacity:1;stroke:none;stroke-width:0.9375;stroke-linecap:round"
               id="ellipse598"
               cx="-625.84912"
               cy="772.46204"
               rx="4.6122837"
               ry="15.821634" />
          </g>
        </g>
      </g>
    </g>
    <path
       id="path408"
       style="color:#000000;overflow:visible;fill:#005522;fill-opacity:1;stroke:none;stroke-width:2.945;stroke-linecap:round"
       inkscape:transform-center-x="35.195182"
       inkscape:transform-center-y="-83.807651"
       d="m 165.74913,869.92502 c -4.33049,-0.58407 -10.13009,2.64706 -17.4672,10.05805 -6.51529,-13.56443 -16.33541,-11.14462 -30.00637,13.64585 -16.52973,-5.04786 -38.679078,12.956 -67.014265,64.87357 25.185247,-43.07755 44.469897,-55.62457 59.412295,-49.61163 -5.27973,11.54983 -11.015732,25.84642 -17.298984,43.50921 7.073214,-18.80667 13.332904,-32.74869 18.918764,-42.77202 3.043,1.53021 5.89122,3.88383 8.57651,6.87681 -3.60178,5.63394 -7.34296,11.66153 -11.3475,18.43071 4.20371,-6.79563 8.09079,-12.71385 11.75437,-18.01322 27.40864,316.56595 65.00586,-41.16199 44.47238,-46.99733 z m -33.45308,19.50199 c 1.9574,0.12517 3.75244,1.12181 5.41127,2.83311 -2.36918,3.05779 -4.81522,6.3277 -7.43075,10.06704 -2.54692,-3.10397 -5.29092,-5.48516 -8.22683,-7.09667 3.81835,-4.1755 7.21811,-5.99853 10.24631,-5.80348 z m 18.22527,3.28374 c 1.4287,-0.2208 2.23376,-8.63353 4.4373,1.32156 2.10955,-1.26418 6.64623,104.75631 0.15785,110.31639 -1.17347,1.0059 -4.59515,-111.63795 -4.59515,-111.63795 z m -11.13482,1.56729 c 14.35302,206.28586 15.23812,143.89996 -8.17376,9.25544 2.92652,-3.6352 5.65976,-6.74589 8.17376,-9.25544 z"
       sodipodi:nodetypes="cccccccccccscccsccscccc" />
  </g>
</svg>
