<?xml version="1.0" encoding="UTF-8" standalone="no"?>
<!-- Created with Inkscape (http://www.inkscape.org/) -->
<svg xmlns:inkscape="http://www.inkscape.org/namespaces/inkscape" xmlns:rdf="http://www.w3.org/1999/02/22-rdf-syntax-ns#" xmlns="http://www.w3.org/2000/svg" xmlns:xlink="http://www.w3.org/1999/xlink" xmlns:ns1="http://sozi.baierouge.fr" xmlns:cc="http://creativecommons.org/ns#" xmlns:sodipodi="http://sodipodi.sourceforge.net/DTD/sodipodi-0.dtd" xmlns:dc="http://purl.org/dc/elements/1.1/" id="svg2" xml:space="preserve" viewBox="0 0 73.968 50.78" version="1.1" inkscape:version="0.91 r13725">
  <g id="g10" transform="matrix(1.25 0 0 -1.25 0 50.78)">
    <g id="g12">
      <path id="path14" style="fill-rule:evenodd;fill:#776835" d="m2.488 24.929c1.703 0.089 7.508 2.66 17.41 7.714 4.95 2.508 9.731 5.012 14.336 7.52l24.215-18.203 0.727-1.317-36.133-20.644-23.043 23.281 0.312 0.727c0.415 0.527 1.141 0.832 2.176 0.922z" inkscape:connector-curvature="0"/>
      <path id="path16" style="fill-rule:evenodd;fill:#5f532b" d="m0 23.28 0.07 0.262c0.067 0.266 0.196 0.484 0.379 0.66 1.196-1.758 4.719-5.582 10.571-11.473 5.55-5.628 8.671-8.66 9.363-9.101 0.39-0.223 0.976-0.727 1.762-1.516 0.597-0.484 0.906-0.332 0.929 0.461 0.024 1.231-0.39 3.121-1.242 5.672l36.617 13.715 0.727-1.317-36.137-20.644-23.039 23.281z" inkscape:connector-curvature="0"/>
      <path id="path18" style="fill-rule:evenodd;fill:#504624" d="m0 23.28 0.105 0.461c0.895-0.922 3.153-3.078 6.77-6.461 1.656-1.629 4.559-4.597 8.703-8.906 2.926-2.988 4.527-4.57 4.805-4.746h0.066c1.336-1.32 2.016-2.024 2.039-2.11 0.117-0.265 0.344-0.089 0.692 0.528 0.16 0.305 0.308 0.637 0.449 0.988l0.101-0.594c0.165-0.394 0.426-0.617 0.797-0.66 0.438 0 5.102 2.528 13.989 7.586 8.82 5.012 13.922 8.024 15.304 9.035 1.289 0.965-0.785-0.023-6.218-2.968-5.391-2.946-9.051-5.036-10.985-6.266-1.519-1.012-4.109-2.152-7.773-3.43l-5.043-1.648 5.457 6.859 29.191 11.012 0.727-1.317-36.137-20.644-23.039 23.281z" inkscape:connector-curvature="0"/>
      <path id="path20" style="fill-rule:evenodd;fill:#978444" d="m34.336 40.624 24.113-18.664-35.375-19.387-22.418 21.895 33.68 16.156z" inkscape:connector-curvature="0"/>
      <path id="path22" style="fill-rule:evenodd;fill:#b6a053" d="m52.957 26.147 5.492-4.187-0.312-0.133c-1.887 1.586-3.614 3.024-5.18 4.32zm-51.059-1.546-0.863-0.465-0.379 0.332 33.68 16.156 12.352-9.563c-0.387 0.282-0.75 0.543-1.09 0.793-3.844 2.813-6.493 4.704-7.946 5.672-2.394 1.668-3.843 2.371-4.351 2.11-0.922-0.399-6.102-2.836-15.547-7.321-9.856-4.707-15.141-7.277-15.856-7.714z" inkscape:connector-curvature="0"/>
      <path id="path24" style="fill-rule:evenodd;fill:#b6a053" d="m52.367 22.686c0.485 0 1.106-0.066 1.867-0.199 1.036-0.133 1.567-0.304 1.59-0.527 0.047-0.352-10.262-6.067-30.918-17.145-0.828-0.484-1.359-0.66-1.59-0.527l-0.136 0.328-1.934 3.035 31.121 15.035z" inkscape:connector-curvature="0"/>
      <path id="path26" style="fill-rule:evenodd;fill:#6b725d" d="m55.477 22.093-32.297-17.477-20.692 19.586 31.571 15.102 21.418-17.211z" inkscape:connector-curvature="0"/>
      <path id="path28" style="fill-rule:evenodd;fill:#626854" d="m4.801 22.093c0 0.574 0.39 1.078 1.176 1.515 1.589 0.926 10.859 5.539 27.808 13.852 0.067 0.043 1.426-0.902 4.074-2.836-2.324 1.582-3.777 2.309-4.351 2.176-1.313-0.309-5.664-2.465-13.059-6.465-7.738-4.133-12.101-6.793-13.09-7.981-0.437-0.527-0.601-1.23-0.484-2.109l-2.074 1.848z" inkscape:connector-curvature="0"/>
      <path id="path30" style="fill-rule:evenodd;fill:#4f5343" d="m5.977 23.608c-0.786-0.437-1.176-0.941-1.176-1.515l-2.313 2.109 31.571 15.102 21.418-17.211-1.071-0.528c-1.496 1.012-4.133 3.055-7.91 6.133-4.305 3.52-7.184 5.824-8.637 6.926-2.648 1.934-4.007 2.879-4.074 2.836-16.949-8.313-26.219-12.926-27.808-13.852z" inkscape:connector-curvature="0"/>
      <path id="path32" style="fill-rule:evenodd;fill:#776835" d="m55.477 22.093-0.793-0.395-20.692 16.817-30.781-14.973-0.723 0.66 31.571 15.102 21.418-17.211z" inkscape:connector-curvature="0"/>
      <path id="path34" style="fill-rule:evenodd;fill:#5f532b" d="m54.719 22.686 0.242-0.199h-0.207l-0.035 0.133v0.066z" inkscape:connector-curvature="0"/>
      <path id="path36" style="fill-rule:evenodd;fill:#5f532b" d="m36.754 36.405c-0.066 0.352-0.09 0.656-0.066 0.922l7.32-5.539c0.07-0.309 0.242-0.617 0.519-0.926 0.184-0.176 1.231-1.25 3.145-3.23 2.07-2.067 3.766-3.516 5.078-4.352l-0.625 0.328-15.371 12.797z" inkscape:connector-curvature="0"/>
      <path id="path38" style="fill-rule:evenodd;fill:#5f532b" d="m21.832 32.776-11.227-5.144c-0.667-0.219-1.46-0.594-2.382-1.121-0.785-0.438-1.395-0.703-1.832-0.789l-0.414 0.062 4.941 2.77-0.07-0.063c-0.414-0.265 0.035-0.156 1.347 0.328 1.473 0.528 3.317 1.297 5.528 2.309l4.109 1.648z" inkscape:connector-curvature="0"/>
      <path id="path40" style="fill-rule:evenodd;fill:#5f532b" d="m33.852 38.448-0.067 0.727 0.274 0.129 0.105-0.129-0.035-0.793-0.137 0.133-0.14-0.067z" inkscape:connector-curvature="0"/>
      <path id="path42" style="fill-rule:evenodd;fill:#473e20" d="m3.211 23.542-0.723 0.66 3.489 1.582 0.414-0.062c0.437 0.086 1.047 0.351 1.832 0.789 0.918 0.527 1.715 0.902 2.382 1.121l1.106 0.394-8.5-4.484z" inkscape:connector-curvature="0"/>
      <path id="path44" style="fill-rule:evenodd;fill:#473e20" d="m36.754 36.405-2.625 1.977 0.035 0.793 2.524-1.848c-0.024-0.266 0-0.574 0.066-0.922z" inkscape:connector-curvature="0"/>
      <path id="path46" style="fill-rule:evenodd;fill:#473e20" d="m54.684 21.698-2.559 1.91 0.625-0.328c1.035-0.527 1.703-0.793 2.004-0.793h0.207l0.516-0.394-0.793-0.395z" inkscape:connector-curvature="0"/>
      <path id="path48" style="fill-rule:evenodd;fill:#564e3a" d="m8.844 23.608 24.629 11.871 16.203-12.793-25.633-12.531-15.199 13.453z" inkscape:connector-curvature="0"/>
      <path id="path50" style="fill-rule:evenodd;fill:#000000;fill-opacity:0.298" d="m42.422 26.116h0.207l0.172-0.066 1.691-0.199h0.207l0.106-0.067h0.101v-0.062c-0.066 0-0.125-0.067-0.172-0.2l-0.105-0.132-0.516-0.989-0.172-0.394-0.07-0.133-0.242-0.332-0.07-0.129-0.207-0.199-0.551-0.395-0.071-0.133-0.656-0.726c-0.551-0.086-0.898-0.219-1.035-0.395v-0.066c0-0.176-0.082-0.328-0.242-0.461-0.184-0.176-0.301-0.332-0.348-0.461l-0.031-0.133-0.07-0.66-0.313-0.199-1.969-1.582-1.933-0.461 0.242 0.328c-0.656-0.859-1.418-1.144-2.281-0.855-0.965 0.437-1.703 0.636-2.211 0.593l-0.828-0.132-0.035-0.067h-0.036c-0.621-0.219-0.988-0.371-1.105-0.461l-0.414-0.262c-0.024 0-0.125 0.086-0.309 0.262l-0.414 0.528c-0.094 0.132-0.219 0.199-0.383 0.199l-0.757 0.195-1.004 0.066-0.657 0.266-0.793 0.527-0.621 0.594v-0.066l0.067-0.133 0.726-1.121c0.184-0.262 0.461-0.551 0.828-0.856l0.278-0.461 0.347-0.925 0.102-0.196 0.277-0.265c0.16-0.133 0.254-0.285 0.278-0.461 0.043-0.133 0.031-0.285-0.035-0.461-0.118 0.043-0.254 0.043-0.415 0-0.277-0.133-0.429-0.199-0.449-0.199l-0.797 0.132-0.242-0.066c-0.207-0.176-0.242-0.484-0.101-0.922 0.136-0.441 0.32-0.703 0.55-0.793-0.296 0.043-0.574 0.176-0.828 0.395 0.043-0.508 0.145-0.864 0.313-1.055-0.496 0.492-0.887 0.844-1.176 1.055-0.875 0.66-1.371 1.054-1.484 1.187-0.325 0.352-0.84 0.551-1.555 0.594-0.809 0.133-1.348 0.285-1.625 0.461-1.383 0.969-2.59 2.133-3.625 3.496-0.023 0-0.461 0.703-1.313 2.109l-0.691 1.188c-0.07 0.133-0.207 0.266-0.414 0.394-0.207 0.176-0.359 0.332-0.449 0.465 0.16 0.043 0.414 0 0.758-0.133l0.312 0.262-0.035 0.067-0.137 0.132-0.277 0.395-0.07 0.133-0.344 0.461h0.828c0.07 0.09 0.082 0.175 0.035 0.265-0.023 0.086 0.035 0.176 0.172 0.262l0.863 0.527c0.207 0 0.531-0.043 0.969-0.129l0.172 0.067h0.035l0.102 0.062v0.067l0.07 0.066v0.067l0.207 0.593 0.414 0.395c0.184 0.133 0.391 0.199 0.621 0.199h0.969c0.023 0 0.035 0.066 0.035 0.199l0.344 0.067c0.23 0 0.554-0.09 0.968-0.266l0.137 0.066 0.035 0.329-0.035 0.199-0.035 0.066-0.172 0.395-0.035 0.066-0.137 0.133c0.367 0.219 1.461 0.703 3.282 1.449l0.242 0.199h0.035l0.137 0.133 0.105 0.129 0.137 0.067 0.277 0.199c0.25 0.176 0.668 0.371 1.242 0.594l0.172 0.066c0.188 0.219 0.383 0.371 0.59 0.461l0.828 0.328 0.242 0.199 0.516-0.066 0.418-0.262c0.184-0.09 0.32-0.09 0.414 0 0.066 0.086 0.035 0.262-0.105 0.527l0.312-0.066 0.102-0.066h0.171c0 0.086-0.066 0.195-0.207 0.328-0.16 0.133-0.207 0.265-0.136 0.398 0 0.086 0.035 0.129 0.105 0.129l0.031 0.066 0.141 0.133 0.035 0.067 0.309 0.195h0.035l0.379 0.199h0.14l0.036 0.067h0.101l0.035 0.066 0.102 0.133c0.187-0.043 0.418-0.156 0.691-0.332 0.094 0.09 0.141 0.199 0.141 0.332 0 0.043-0.012 0.129-0.035 0.262-0.047 0.089-0.047 0.156 0 0.199l0.344 0.195 0.207 0.199c0.093 0.043 0.23 0.133 0.414 0.266 0.164 0.129 0.277 0.176 0.347 0.129l0.071 0.066 0.066 0.133 0.035 0.133c0.024 0.043 0.024 0.086 0 0.133l0.969-1.586 0.102-0.196 0.105-0.132 0.242-0.461 0.242-0.332v-0.063l0.207-0.265 0.036-0.067 1.171-1.187c-0.343-0.395-0.574-0.614-0.691-0.661l-0.309-0.062-0.07-0.066c-0.137 0-0.254-0.176-0.344-0.528-0.23-1.101-0.589-1.761-1.074-1.98 0 0.219 0.117 0.461 0.348 0.726-0.024 0-0.207-0.265-0.555-0.793l-0.863-1.054c-0.621-0.618-1.184-1.055-1.692-1.321l-0.312-0.195h-0.067l-0.347-0.133-0.207-0.133h2.074c0.16 0 0.332 0.024 0.516 0.067 0.164 0.043 0.324 0.156 0.484 0.332l1.488 1.055 0.481 0.394 0.035 0.066 0.172 0.133 0.554 0.528 0.137 0.066c0.301 0.043 0.797-0.133 1.489-0.527 0.089-0.047 0.285-0.067 0.585-0.067 0.254-0.09 0.403-0.222 0.45-0.398-0.047-0.086-0.141-0.129-0.278-0.129-0.136-0.047-0.242-0.09-0.308-0.133l0.722-0.332 0.106-0.062h0.101l0.485-0.133 1.761-0.133 0.348 0.066c-0.117-0.222-0.211-0.351-0.277-0.394l0.863 0.328c0.277 0.086 0.438 0.152 0.484 0.199l0.036 0.067 0.238 0.261 0.207 0.133 0.07 0.067 0.141-0.067z" inkscape:connector-curvature="0"/>
      <path id="path52" style="fill-rule:evenodd;fill:#8e7353" d="m42.387 27.104h0.484l0.172-0.066c0.113-0.043 0.301-0.066 0.551-0.066l1.383-0.067c0.07 0 0.105-0.019 0.105-0.062h0.242c0.02 0 0.02-0.024 0-0.067l-0.176-0.199-0.207-0.394-0.171-0.266-0.036-0.133-0.757-1.449-0.106-0.133-0.207-0.195-0.312-0.199-0.102-0.133-0.172-0.133h-0.035l-0.797-0.922c-0.527-0.086-0.898-0.242-1.105-0.461v-0.066c0.023-0.219-0.055-0.395-0.243-0.528-0.207-0.175-0.332-0.332-0.378-0.461l-0.036-0.132-0.066-0.727-0.348-0.262c-0.738-0.527-1.425-1.101-2.07-1.715l-2.039-0.527c0.086 0.164 0.16 0.297 0.223 0.395-0.739-0.907-1.539-1.235-2.399-0.989l-1.14 0.395c-0.438 0.176-0.821 0.242-1.141 0.199l-0.863-0.199h-0.106c-0.504-0.176-0.875-0.352-1.105-0.527l-0.45-0.329c-0.019 0-0.125 0.11-0.308 0.329-0.207 0.308-0.36 0.484-0.449 0.527-0.024 0-0.149 0.066-0.379 0.199l-0.485 0.129-1.312 0.133c-0.231 0-0.449 0.066-0.656 0.199l-0.797 0.527-0.758 0.793 0.965-1.519c0.164-0.262 0.437-0.551 0.832-0.856l0.242-0.461 0.137-0.464 0.207-0.528 0.105-0.195 0.274-0.266c0.187-0.175 0.289-0.328 0.312-0.461 0.047-0.175 0.024-0.351-0.07-0.527-0.113 0.043-0.254 0.043-0.414 0-0.278-0.133-0.426-0.199-0.449-0.199l-0.793 0.133-0.243-0.067c-0.23-0.176-0.277-0.484-0.14-0.922 0.14-0.484 0.324-0.793 0.554-0.925-0.597 0.265-1 0.507-1.21 0.726-0.114 0.133-0.239 0.352-0.379 0.66-0.137 0.352-0.254 0.571-0.344 0.66-0.16 0.176-0.426 0.352-0.797 0.528-0.391 0.176-0.656 0.308-0.793 0.394-0.117 0.133-0.207 0.243-0.277 0.332-0.114 0.129-0.231 0.196-0.344 0.196l0.035-0.328c-0.117-0.043-0.207 0-0.277 0.132l-0.242 0.328c-0.368 0-0.645 0.024-0.829 0.067l-0.312 0.066-0.137 0.067c-0.207 0.129-0.39 0.152-0.554 0.066l-0.758 0.789c-1.153 1.625-1.992 2.727-2.524 3.297-0.23 0.266-0.496 0.684-0.793 1.254l-0.277 0.461-0.863 1.055-0.137 0.132-0.141 0.266-0.066 0.066-0.176 0.262h-0.035l-0.102 0.199 0.207 0.067v-0.067c0.137 0.043 0.332 0.067 0.586 0.067 0.047 0.086 0.047 0.172 0 0.261-0.023 0.047 0.047 0.133 0.207 0.266 0.508 0.352 0.774 0.547 0.797 0.594 0.575-0.133 0.899-0.176 0.965-0.133l0.176 0.066h0.031l0.07 0.067 0.036 0.062 0.07 0.067v0.066l0.207 0.594 0.035 0.133 0.344 0.328c0.184 0.133 0.379 0.199 0.586 0.199h0.969c0.023 0.043 0.035 0.133 0.035 0.266l0.344 0.062c0.253 0 0.566-0.086 0.933-0.262l0.137 0.133 0.035 0.262-0.035 0.266c0 0.043-0.067 0.195-0.207 0.461h-0.035l-0.102 0.199c1.981 0.922 3.051 1.449 3.211 1.582l0.242 0.195 0.035 0.067 0.657 0.527 2.867 1.648 0.242 0.2c0.254 0 0.437-0.024 0.551-0.067l0.176-0.066 0.207-0.133c0.183-0.129 0.32-0.129 0.414 0 0.046 0.047 0.023 0.223-0.071 0.531l0.313-0.066 0.101-0.067h0.141c0.023 0.086-0.047 0.196-0.207 0.328-0.141 0.133-0.188 0.266-0.141 0.395l0.106 0.199h0.035l0.172 0.199h0.035l0.309 0.262h0.035l0.519 0.266h0.137l0.035 0.066v0.067l0.137 0.129c0.187-0.043 0.414-0.153 0.691-0.329 0.094 0.086 0.141 0.219 0.141 0.395 0 0.043-0.012 0.109-0.035 0.199-0.024 0.09-0.012 0.176 0.035 0.262l0.344 0.199 0.207 0.266c0.093 0.043 0.23 0.129 0.414 0.261 0.16 0.133 0.277 0.176 0.347 0.133l0.137 0.262h0.035l0.035 0.133-0.035 0.133 1-1.582 0.106-0.2 0.101-0.132 0.243-0.395 0.035-0.066 0.207-0.329 0.035-0.066 0.207-0.266 0.035-0.066 1.207-1.184c-0.414-0.441-0.656-0.683-0.723-0.726l-0.277-0.133h-0.105c-0.137-0.086-0.25-0.285-0.344-0.594v-0.066c-0.254-1.188-0.621-1.867-1.106-2.043 0 0.309 0.118 0.551 0.344 0.726-0.066 0.043-0.25-0.222-0.551-0.792l-0.105-0.2-0.828-0.988c-0.735-0.703-1.313-1.164-1.727-1.383l-0.312-0.199-0.067-0.066-0.554-0.262 2.109 0.062c0.16 0 0.332 0.024 0.516 0.067 0.164 0.047 0.336 0.156 0.519 0.332l0.52 0.527 1.035 0.727h0.035l0.484 0.394v0.067l0.172 0.129 0.621 0.593 0.137 0.067c0.301 0.09 0.809-0.067 1.52-0.461h0.035c0.093-0.043 0.3-0.067 0.625-0.067 0.273-0.086 0.433-0.218 0.48-0.394-0.297-0.043-0.504-0.156-0.621-0.328l0.727-0.332h0.242l0.484-0.133h2.278l-0.278-0.461 0.934 0.461h0.242c0.07 0.043 0.148 0.109 0.242 0.199l0.52 0.527z" inkscape:connector-curvature="0"/>
      <path id="path54" style="fill-rule:evenodd;fill:#dac18d" d="m19.586 22.292-1.484 1.449 0.277 0.133 0.066-0.066c0.254-0.485 0.633-0.989 1.141-1.516z" inkscape:connector-curvature="0"/>
      <path id="path56" style="fill-rule:evenodd;fill:#dac18d" d="m34.648 25.323h-0.207l0.036 0.133 0.171-0.133z" inkscape:connector-curvature="0"/>
      <path id="path58" style="fill-rule:evenodd;fill:#dac18d" d="m42.973 26.643c-0.278-0.042-0.391 0.11-0.344 0.461l0.621-0.261c-0.07-0.309-0.105-0.532-0.105-0.66 0.046-0.266 0.046-0.508 0-0.727 0.14-0.09 0.359-0.156 0.656-0.199-0.067-0.176-0.219-0.438-0.449-0.789-0.207-0.266-0.332-0.551-0.379-0.86-0.485 0.399-0.762 0.77-0.828 1.121-0.094 0.442 0 0.817 0.277 1.122 0.344 0.441 0.527 0.703 0.551 0.792z" inkscape:connector-curvature="0"/>
      <path id="path60" style="fill-rule:evenodd;fill:#dac18d" d="m22.211 22.354c0.23 0.223 0.152 0.356-0.242 0.399l-0.172-0.067c-0.137-0.175-0.125-0.308 0.035-0.394 0.16-0.09 0.289-0.066 0.379 0.062zm0.969-1.648c0.07 0.223-0.059 0.332-0.379 0.332l-0.071 0.066c-0.367-0.175-0.574-0.398-0.621-0.66 0-0.043 0.231-0.066 0.692-0.066-0.141-0.309-0.199-0.485-0.176-0.527 0-0.176 0.152-0.176 0.449 0 0.117 0.085 0.196 0.242 0.242 0.46 0.024 0.223-0.023 0.352-0.136 0.395zm-0.621 0.793-0.071 0.199c-0.761 0.129-1.289-0.023-1.59-0.465l-0.035-0.062c0.024-0.047 0.141-0.067 0.348-0.067 0.391-0.089 0.758-0.066 1.105 0.067 0.161 0 0.254 0.043 0.274 0.129 0.027 0.09 0.015 0.156-0.031 0.199zm-2.11 4.684c0.047 0 0.176 0.085 0.383 0.261 0.16 0.133 0.309 0.176 0.449 0.133 0.114 0.309 0.481 0.328 1.106 0.066l-0.348-0.265c-0.301-0.176-0.461-0.305-0.484-0.395-0.067-0.218 0.058-0.261 0.383-0.132l0.621 0.265h0.07v-0.199c-0.094-0.086-0.141-0.195-0.141-0.328h0.141c0-0.528 0.078-0.903 0.238-1.121 0.301-0.442 0.555-0.66 0.762-0.66l0.277 0.132 0.067-0.132c0.047-0.219 0.14-0.286 0.277-0.2-0.184-0.351-0.414-0.527-0.691-0.527l0.035-0.328c-0.184 0-0.321-0.086-0.414-0.266 0.136-0.261 0.461-0.594 0.968-0.988 0.114-0.133 0.297-0.418 0.551-0.856l0.278-0.132c-0.622 0-1.094 0.043-1.418 0.132l0.554-0.859h-0.726l-0.071-0.133h0.243c-0.368-0.175-0.563-0.304-0.586-0.394-0.024-0.133 0.113-0.199 0.414-0.199 0.277 0 0.484 0.023 0.621 0.066l0.035 0.066 0.379-0.66-0.067-0.195c-0.023-0.133-0.011-0.223 0.036-0.266 0.043-0.09 0.066-0.152 0.066-0.199l-0.066-0.262c0-0.308 0.195-0.375 0.586-0.199 0.113 0 0.195 0.024 0.242 0.067 0.023 0 0.066-0.067 0.136-0.196 0.118-0.133 0.207-0.176 0.278-0.133l0.242-0.461 0.137-0.464h-0.137l-0.172-0.129-2.418 1.121 0.238-0.266-0.414 0.133c0.071-0.09 0.379-0.594 0.934-1.516l0.07-0.132c0.254-0.575 0.528-1.012 0.828-1.321-0.23-0.176-0.277-0.484-0.14-0.922 0.14-0.484 0.324-0.793 0.554-0.925-0.597 0.265-1 0.507-1.21 0.726-0.114 0.133-0.239 0.352-0.379 0.66-0.137 0.352-0.254 0.571-0.344 0.66-0.16 0.176-0.426 0.352-0.797 0.528-0.391 0.176-0.656 0.308-0.793 0.394-0.117 0.133-0.207 0.243-0.277 0.332-0.114 0.129-0.231 0.196-0.344 0.196l0.035-0.328c-0.117-0.043-0.207 0-0.277 0.132l-0.242 0.328c-0.368 0-0.645 0.024-0.829 0.067l-0.312 0.066-0.414 0.328c-0.598 0.618-1.035 1.122-1.313 1.516l-0.312 0.531c-0.391 0.879-0.852 1.625-1.379 2.242l-1.281 1.317-0.758 1.121c0.508-0.352 0.992-0.594 1.449-0.727 0.164-0.043 0.461 0.067 0.899 0.332l0.414 0.2c0.023 0 0.093 0.062 0.207 0.195 0.093 0.043 0.265 0 0.519-0.133 0.184-0.043 0.426-0.219 0.727-0.527 0.301-0.305 0.539-0.485 0.722-0.528 0.762-0.351 1.372-0.57 1.832-0.66l-0.726 0.532 0.277-0.067-0.258 0.164c0.254-0.148 0.477-0.156 0.672-0.035l-0.101 0.133c0.277 0 0.484 0.047 0.621 0.133 0.23 0.09 0.312 0.242 0.242 0.461-0.047 0.222-0.148 0.332-0.313 0.332l0.071 0.129c-0.231-0.043-0.391-0.129-0.485-0.262 0.024-0.133-0.023-0.242-0.136-0.332l-0.242-0.067-0.243 0.399h0.106c0.32 0 0.515 0.219 0.586 0.66 0.07 0.438-0.035 0.656-0.313 0.656l-0.308-0.062c-0.278-0.133-0.485-0.266-0.621-0.399l-0.383 0.461h0.105c0.09-0.043 0.184-0.129 0.278-0.261 0.226-0.047 0.39 0.109 0.48 0.46 0.07 0.309 0.035 0.528-0.102 0.661l0.067 0.394-1.137-0.66-0.105 0.332c-0.024 0.219-0.035 0.352-0.035 0.395 0.023 0.089 0.093 0.175 0.207 0.265l-0.723 1.188 0.309 0.062c0.253 0 0.566-0.086 0.933-0.262l0.137 0.133 0.035 0.262c0.301-0.57 0.519-0.855 0.656-0.855z" inkscape:connector-curvature="0"/>
      <path id="path62" style="fill-rule:evenodd;fill:#dac18d" d="m25.32 18.796c-0.136 0.262-0.379 0.242-0.726-0.067l-0.481 0.528c0.067 0 0.149 0.09 0.242 0.265 0.321-0.355 0.645-0.507 0.965-0.464 0.16 0 0.368 0.089 0.621 0.265 0.301 0.176 0.508 0.375 0.621 0.594l0.313 0.394c0.184 0 0.324 0.047 0.414 0.133l0.449-0.133c-0.113-0.085-0.16-0.218-0.136-0.394 0-0.133 0.078-0.199 0.242-0.199l-0.071-0.262c0.278-0.043 0.586 0.109 0.934 0.461l0.863-0.793c-0.23-0.133-0.379-0.395-0.449-0.789-0.07-0.484 0.102-0.684 0.52-0.594 0.089 0.219 0.089 0.395 0 0.527-0.094 0.133-0.071 0.305 0.066 0.528l-0.035 0.066 0.176-0.133 0.379-0.593 0.035-0.067c-0.164-0.133-0.254-0.261-0.278-0.394-0.046-0.223 0.047-0.285 0.278-0.199l0.242 0.132 0.066-0.066h-0.035c-0.504-0.176-0.875-0.352-1.105-0.527l-0.45-0.329c-0.019 0-0.125 0.11-0.308 0.329-0.207 0.308-0.36 0.484-0.449 0.527-0.024 0-0.149 0.066-0.379 0.199-0.414 0.438-0.75 0.703-1.004 0.789 0.047-0.129 0.219-0.351 0.519-0.66l-1.312 0.133c-0.231 0-0.449 0.066-0.656 0.199 0.023 0.086 0.043 0.199 0.066 0.328 0.023 0.133 0 0.223-0.066 0.266h-0.071z" inkscape:connector-curvature="0"/>
      <path id="path64" style="fill-rule:evenodd;fill:#dac18d" d="m34.82 20.972c0.024 0.261-0.011 0.394-0.105 0.394l-0.067-0.195c-0.046-0.09-0.082-0.223-0.105-0.399-0.023-0.218 0.012-0.304 0.105-0.261 0.09 0.086 0.149 0.242 0.172 0.461zm4.735 1.382c0.066-0.171 0.238-0.418 0.515-0.722l0.414-0.66-0.066-0.727-0.348-0.262c-0.738-0.527-1.425-1.101-2.07-1.715l-1.281-0.265c-0.367 0.574-0.657 1.012-0.864 1.32-0.343 0.485-0.667 0.813-0.964 0.988l-0.555 0.266 0.172 0.922c-0.184-0.09-0.297-0.375-0.344-0.856l-0.137 0.063 0.067 0.332c0.047 0.438-0.055 0.703-0.309 0.789v0.133c0.254 0 0.61 0.09 1.07 0.266 0.161 0.085 0.575 0.175 1.243 0.261l0.554 0.133c0.024-0.133 0.149-0.199 0.379-0.199-0.047-0.219 0.035-0.328 0.242-0.328 0.207 0.043 0.356 0.133 0.45 0.261-0.254-0.261-0.379-0.261-0.379 0 0 0.133 0.031 0.309 0.101 0.532l0.828 0.261-1.863 0.661 0.035 0.066 1.379-0.266c0.485-0.304 0.934-0.527 1.348-0.66 0.16-0.043 0.254-0.109 0.277-0.195 0.024-0.043 0.059-0.176 0.106-0.399z" inkscape:connector-curvature="0"/>
      <path id="path66" style="fill-rule:evenodd;fill:#dac18d" d="m32.645 30.796c0.375 0.015 0.847 0.082 1.414 0.199-0.137-0.086-0.25-0.285-0.344-0.594h-0.52c-0.019 0.133-0.172 0.242-0.449 0.332-0.035 0.028-0.07 0.051-0.101 0.063zm-4.735-4.746c0.461-0.133 0.774-0.157 0.934-0.067 0.07 0 0.16 0.067 0.277 0.2 0.113 0.128 0.137 0.218 0.07 0.261l-0.07 0.133c-0.141 0-0.437-0.086-0.898-0.266-0.207-0.128-0.313-0.218-0.313-0.261zm2.625 3.89c-0.16 0.219-0.308 0.243-0.449 0.067-0.113-0.266-0.207-0.442-0.274-0.528-0.117-0.175-0.289-0.265-0.519-0.265 0.184-0.129 0.359-0.129 0.519 0 0.114 0.047 0.286 0.156 0.516 0.332l-0.101-0.266c0.183-0.176 0.343-0.219 0.484-0.133 0.09 0 0.137 0.09 0.137 0.266-0.024 0.219-0.125 0.395-0.313 0.527zm-1.242-0.328c0.207 0 0.348 0.043 0.414 0.129 0.117 0.09 0.207 0.223 0.277 0.399 0.09 0.218 0.102 0.371 0.036 0.461l-0.036 0.066c-0.23 0.043-0.507-0.024-0.828-0.199-0.16 0-0.265-0.09-0.312-0.262-0.047-0.133-0.024-0.199 0.07-0.199 0.066 0.043 0.184 0.133 0.344 0.261 0.164 0.09 0.242 0.067 0.242-0.062 0.07-0.266-0.09-0.398-0.484-0.398-0.02-0.133 0.07-0.196 0.277-0.196zm-0.207 2.176c0.023 0.352 0.195 0.551 0.519 0.594 0.254 0.043 0.485 0.019 0.692-0.067l0.586-0.726-0.035-0.067 0.172-0.132-0.172-0.063c0.07-0.176 0.207-0.223 0.414-0.133l0.312-0.265c-0.094-0.086-0.148-0.176-0.172-0.262 0.114-0.09 0.25-0.09 0.414 0l-0.07-0.332c0.184-0.129 0.324 0.023 0.414 0.461 0.117-0.012 0.246-0.012 0.399 0-0.067-0.031-0.118-0.117-0.157-0.262 0.071-0.086 0.094-0.133 0.071-0.133l-0.657-0.133c-0.093-0.527-0.39-0.988-0.898-1.382-0.578 0-0.875-0.043-0.898-0.133 0.277-0.262 0.562-0.328 0.863-0.199l0.07-0.129c-0.394 0-0.531-0.11-0.418-0.332 0.024-0.043 0.153-0.067 0.383-0.067l0.242 0.067 0.274-0.395-0.137-0.199 0.312-0.066h0.032l0.07-0.129-0.242-0.266c-0.735-0.703-1.313-1.164-1.727-1.383l-0.101 0.129-0.211-0.328-0.067-0.066c0.09 0.265 0.125 0.461 0.102 0.593l0.035 0.2c-0.09 0.043-0.207-0.133-0.344-0.528l-0.176-0.465-0.171-0.062h0.171l0.106-0.067c0.023-0.043 0.082-0.023 0.172 0.067h0.726l-0.519-0.465c-0.274-0.129-0.438-0.262-0.485-0.395l0.52 0.067 0.277-0.266c-0.047 0-0.07-0.062-0.07-0.195l0.348 0.066 0.379-0.265c-0.118-0.176-0.161-0.285-0.137-0.328 0.226 0.043 0.355 0.019 0.379-0.067-0.16-0.176-0.242-0.332-0.242-0.461 0-0.265 0.254-0.265 0.757 0 0.348 0.086 0.313 0.219-0.101 0.395l0.035 0.133 0.656-0.332c0.278-0.086 0.703-0.352 1.278-0.789-0.118-0.223-0.106-0.333 0.035-0.333-0.141-0.042-0.36-0.066-0.656-0.066 0.046 0.266 0.046 0.418 0 0.465h-0.485c0.024 0.219 0.012 0.351-0.035 0.394-0.043 0.043-0.137 0.024-0.277-0.066-0.137-0.043-0.227-0.109-0.274-0.199 0.043-0.043 0.125-0.086 0.242-0.129 0.02-0.047 0.012-0.109-0.035-0.199 0.024-0.086 0.067-0.133 0.137-0.133l0.277-0.067c0-0.042-0.047-0.152-0.14-0.328-0.414 0.176-1.344 0.661-2.797 1.45-0.297 0.175-1 0.418-2.106 0.726 0.137 0.133 0.09 0.199-0.14 0.199l-0.207-0.066c-0.207 0.043-0.332 0.152-0.379 0.328 0 0.043-0.035 0.399-0.102 1.055l-0.07 0.265 0.172-0.132c-0.114 1.32-0.266 2.089-0.449 2.308l-0.313 0.266 0.418 0.195 0.309-0.066c-0.067-0.262-0.036-0.395 0.105-0.395 0.09 0.043 0.231 0.11 0.414 0.199l0.242-0.066-0.172-0.332c0.09-0.043 0.239-0.043 0.446 0-0.043-0.262-0.031-0.418 0.035-0.461 0.023-0.043 0.164 0 0.414 0.133-0.09-0.219-0.262-0.418-0.516-0.594-0.324-0.219-0.519-0.375-0.59-0.461 0.094-0.176 0.372-0.047 0.833 0.395 0.136 0.132 0.308 0.199 0.515 0.199 0.254 0 0.391 0.066 0.414 0.195 0 0.09-0.023 0.156-0.066 0.199l-0.035 0.266-0.035 0.129 0.378-0.195v-0.067c0-0.086 0.118-0.133 0.348-0.133v0.067c0.461-0.176 0.805-0.266 1.035-0.266-0.047 0.133-0.16 0.266-0.344 0.399-0.207 0.175-0.347 0.328-0.414 0.461-0.117 0.437-0.222 0.746-0.312 0.921-0.117 0.223-0.289 0.418-0.52 0.594-0.32 0.223-0.515 0.375-0.586 0.461l-0.171 0.926 0.035 0.66h-0.106l0.071 0.59c0.183-0.129 0.32-0.129 0.414 0 0.046 0.047 0.023 0.223-0.071 0.531l0.278-0.066 0.863-0.594z" inkscape:connector-curvature="0"/>
      <path id="path68" style="fill-rule:evenodd;fill:#dac18d" d="m24.387 25.061 0.175 0.594 0.208 0.262c0-0.484-0.059-0.988-0.176-1.516l-0.414-0.066 0.14 0.461c0.067 0.133 0.102 0.222 0.102 0.265h-0.035z" inkscape:connector-curvature="0"/>
      <path id="path70" style="fill-rule:evenodd;fill:#dac18d" d="m34.234 32.71v0.066l0.93-0.922c-0.414-0.441-0.656-0.683-0.723-0.726l-0.277-0.133-1 0.793-1.039 0.328h-0.414l-0.309-0.133 0.207 0.465 0.45 0.528c0.183 0.128 0.461 0.128 0.828 0l0.551 0.062c0.187 0 0.449-0.109 0.796-0.328z" inkscape:connector-curvature="0"/>
      <path id="path72" style="fill-rule:evenodd;fill:#dac18d" d="m23.215 26.643c0.137-0.089 0.597-0.222 1.383-0.394h0.136l0.036-0.332c-0.555 0.176-1.118 0.266-1.696 0.266v0.128l0.141 0.332z" inkscape:connector-curvature="0"/>
      <path id="path74" style="fill-rule:evenodd;fill:#dac18d" d="m37.137 27.565c0.273-0.086 0.433-0.218 0.48-0.394-0.297-0.043-0.504-0.156-0.621-0.328l0.414-0.2-0.207-0.199-0.449-0.066c-0.113-0.043-0.379 0-0.793 0.133l0.101 0.922 0.415-0.063c0.027-0.176 0-0.418-0.067-0.727 0.094-0.042 0.195 0 0.309 0.133 0.117 0.176 0.187 0.371 0.207 0.594-0.274 0.086-0.414 0.172-0.414 0.262 0.093-0.043 0.3-0.067 0.625-0.067z" inkscape:connector-curvature="0"/>
      <path id="path76" style="fill-rule:evenodd;fill:#dac18d" d="m30.918 25.061-0.106-0.132c0.047-0.133 0.118-0.2 0.208-0.2 0.046 0.133 0.011 0.243-0.102 0.332zm4.664-0.66 0.309-0.265-0.071-0.129-0.172 0.062c0 0.176-0.066 0.309-0.207 0.399-0.113 0.086-0.218 0.066-0.308-0.067l-0.071 0.262c-0.117-0.129-0.171-0.242-0.171-0.328l-2.211 0.527c-0.184 0.043-0.438 0-0.762-0.133-0.391-0.128-0.656-0.195-0.793-0.195h-0.277l-0.036 0.129c-0.023 0.047-0.093 0.133-0.207 0.266-0.046 0.132-0.082 0.218-0.101 0.261h0.414c0.16 0 0.332 0.024 0.516 0.067 0.164 0.047 0.336 0.156 0.519 0.332l0.52 0.527h0.172l0.07-0.066c0.113-0.176 0.226-0.266 0.344-0.266 0.046-0.129 0.183-0.195 0.414-0.195l0.035 0.262 0.551-0.262-0.379-0.528 0.172-0.265 0.14-0.133 0.242 0.133c0.09 0.043 0.184-0.024 0.274-0.195 0.18-0.071 0.363-0.047 0.554 0.062 0.055 0.039 0.114 0.082 0.172 0.133l0.348-0.395z" inkscape:connector-curvature="0"/>
      <path id="path78" style="fill-rule:evenodd;fill:#dac18d" d="m17.098 25.257c-0.274 0.398-0.516 0.617-0.723 0.66l0.035 0.133 0.137 0.133c0.644-0.883 1-1.344 1.07-1.387l0.555-0.66-0.277-0.129-0.207 0.195c-0.254 0.441-0.45 0.793-0.59 1.055z" inkscape:connector-curvature="0"/>
      <path id="path80" style="fill-rule:evenodd;fill:#d0b886" d="m26.633 14.444 0.277 0.328c0.047-0.175 0.024-0.351-0.07-0.527-0.113 0.043-0.254 0.043-0.414 0-0.278-0.133-0.426-0.199-0.449-0.199l-0.793 0.133-0.243-0.067c-0.3 0.309-0.574 0.746-0.828 1.321l-0.07 0.132c0.437-0.75 0.828-1.144 1.176-1.187 0.16-0.043 0.426-0.024 0.793 0.066-0.16-0.308-0.129-0.418 0.105-0.332 0.207 0.086 0.379 0.199 0.516 0.332z" inkscape:connector-curvature="0"/>
      <path id="path82" style="fill-rule:evenodd;fill:#d0b886" d="m37.824 23.608 0.449-0.066 2.868-1.449c0.023-0.219-0.055-0.395-0.243-0.528-0.207-0.175-0.332-0.332-0.378-0.461l-0.036-0.132-0.414 0.66c-0.277 0.304-0.449 0.551-0.515 0.722-0.047 0.223-0.082 0.356-0.106 0.399-0.023 0.086-0.117 0.152-0.277 0.195-0.414 0.133-0.863 0.356-1.348 0.66z" inkscape:connector-curvature="0"/>
      <path id="path84" style="fill-rule:evenodd;fill:#d0b886" d="m34.234 32.776v-0.066c-0.347 0.219-0.609 0.328-0.796 0.328l-0.551-0.062c-0.371 0.128-0.645 0.128-0.828 0l-0.45-0.528-0.207-0.465-0.519-0.394-0.586 0.726c-0.211 0.086-0.442 0.11-0.692 0.067-0.324-0.047-0.496-0.242-0.519-0.594l-0.863 0.594h0.035l0.101-0.067h0.141c0.023 0.086-0.047 0.196-0.207 0.328-0.141 0.133-0.188 0.266-0.141 0.395l0.106 0.199h0.035l0.172 0.199c0.277-0.132 0.574-0.199 0.898-0.199 0.114 0.442 0.278 0.617 0.485 0.528 0.343-0.176 0.55-0.262 0.621-0.262 0.113 0 0.219 0.129 0.308 0.394 0.118 0.262 0.219 0.395 0.313 0.395 0.137 0.043 0.242-0.066 0.312-0.328h0.379c0.254 0.086 0.621-0.024 1.106-0.332 0.504-0.352 0.851-0.528 1.035-0.528l0.035-0.066 0.277-0.262z" inkscape:connector-curvature="0"/>
      <path id="path86" style="fill-rule:evenodd;fill:#d0b886" d="m23.664 27.038h0.481c0.187 0.043 0.335 0.133 0.449 0.266 0.094 0.086 0.195 0.285 0.312 0.593h0.278l0.273 0.067 0.313-0.266c0.183-0.219 0.335-0.988 0.449-2.308l-0.172 0.132c-0.094 0.485-0.289 0.856-0.59 1.121-0.391 0.176-0.687 0.352-0.895 0.528 0.067-0.266 0.126-0.57 0.172-0.922h-0.14c-0.782 0.172-1.242 0.305-1.379 0.394 0.254 0.133 0.402 0.262 0.449 0.395z" inkscape:connector-curvature="0"/>
      <path id="path88" style="fill-rule:evenodd;fill:#d0b886" d="m18.137 23.542-0.141 0.199h0.106l1.484-1.449v-0.066l-0.309 0.128-1.14 1.188z" inkscape:connector-curvature="0"/>
      <path id="path90" style="fill-rule:evenodd;fill:#d0b886" d="m14.82 25.128c0.575-0.133 0.899-0.176 0.965-0.133l0.176 0.066h0.031l0.07 0.067 0.036 0.062 0.07 0.067v0.066l0.207 0.594c0.207-0.043 0.449-0.262 0.723-0.66 0.14-0.262 0.336-0.614 0.59-1.055l0.207-0.195-0.071-0.067-0.933 1.45c-0.02-0.528-0.149-0.922-0.379-1.188-0.137-0.176-0.403-0.371-0.793-0.594 0.254-0.218 0.691-0.351 1.312-0.394 0.692 0 1.153-0.067 1.379-0.199l2.488-1.782c-0.46 0.09-1.07 0.309-1.832 0.66-0.183 0.043-0.425 0.223-0.722 0.528-0.301 0.308-0.543 0.484-0.727 0.527-0.254 0.133-0.426 0.176-0.519 0.133-0.114-0.133-0.184-0.195-0.207-0.195l-0.414-0.2c-0.438-0.265-0.735-0.375-0.899-0.332-0.461 0.133-0.941 0.375-1.449 0.727-0.324 0.465-0.594 0.762-0.813 0.891 0.133 0.023 0.297 0.035 0.5 0.035 0.047 0.086 0.047 0.172 0 0.261-0.023 0.047 0.047 0.133 0.207 0.266 0.508 0.348 0.774 0.547 0.797 0.594z" inkscape:connector-curvature="0"/>
      <path id="path92" style="fill-rule:evenodd;fill:#d0b886" d="m34.785 27.304-0.586 0.129 0.621 0.593 0.137 0.067 0.348-0.067c-0.024-0.175 0.043-0.351 0.207-0.527 0.136-0.176 0.265-0.219 0.379-0.129v0.129l0.171-0.066-0.101-0.922-0.586 0.132c0 0.176-0.023 0.286-0.07 0.329-0.071 0.132-0.243 0.242-0.52 0.332z" inkscape:connector-curvature="0"/>
      <path id="path94" style="fill-rule:evenodd;fill:#d0b886" d="m33.129 29.874c0.066 0.309 0.09 0.484 0.066 0.527h0.52v-0.066c-0.254-1.188-0.621-1.867-1.106-2.043 0 0.309 0.118 0.551 0.344 0.726-0.066 0.043-0.25-0.222-0.551-0.792l-0.136 0.199v0.261l-0.657 0.133c-0.047-0.133 0.02-0.265 0.207-0.394 0.161-0.133 0.231-0.242 0.207-0.332-0.277-0.176-0.437-0.285-0.484-0.328l-0.105-0.067-0.274 0.395 0.137 0.133-0.242 0.265-0.102-0.066-0.07 0.129 0.379 0.199-0.344 0.133c0.504 0.394 0.805 0.855 0.898 1.382l0.657 0.133-0.141-0.394c0.07-0.086 0.164-0.11 0.277-0.067 0.047 0.043 0.129 0.11 0.243 0.2l0.101-0.266c-0.043-0.352 0.024-0.484 0.211-0.395l0.137 0.329-0.172 0.066z" inkscape:connector-curvature="0"/>
      <path id="path96" style="fill-rule:evenodd;fill:#d0b886" d="m34.715 26.643-1.172 0.2 0.484 0.394v0.067l0.688-0.661z" inkscape:connector-curvature="0"/>
      <path id="path98" style="fill-rule:evenodd;fill:#d0b886" d="m33.023 26.116v-0.199l0.036-0.133c-0.118 0-0.231 0.09-0.344 0.266l-0.07 0.066 0.242 0.133 0.136-0.133z" inkscape:connector-curvature="0"/>
      <path id="path100" style="fill-rule:evenodd;fill:#d0b886" d="m24.527 21.433c0.485-0.438 0.875-0.68 1.172-0.727l0.727-0.129v-0.133l-1.449 0.067-0.278 0.132c-0.254 0.438-0.437 0.723-0.554 0.856-0.504 0.394-0.829 0.727-0.965 0.988 0.09 0.176 0.23 0.266 0.414 0.266 0.094-0.442 0.402-0.879 0.933-1.32z" inkscape:connector-curvature="0"/>
      <path id="path102" style="fill-rule:evenodd;fill:#e5cd98" d="m27.359 17.87c-0.3 0.309-0.472 0.531-0.519 0.66 0.254-0.086 0.59-0.351 1.004-0.789l-0.485 0.129z" inkscape:connector-curvature="0"/>
      <path id="path104" style="fill-rule:evenodd;fill:#e5cd98" d="m17.547 18.401 0.312-0.531-1.589 2.113c-0.758 1.012-1.243 1.625-1.45 1.844-0.691 0.926-1.234 1.539-1.625 1.848l0.934-0.594 0.758-1.121 1.281-1.317c0.527-0.617 0.988-1.367 1.379-2.242z" inkscape:connector-curvature="0"/>
      <path id="path106" style="fill-rule:evenodd;fill:#e5cd98" d="m14.129 23.081-0.934 0.594-0.07 0.066-0.102 0.199 0.207 0.067c0.231-0.09 0.532-0.399 0.899-0.926z" inkscape:connector-curvature="0"/>
      <path id="path108" style="fill-rule:evenodd;fill:#d0b886" d="m27.637 20.706 0.929 0.398 0.036 0.129 0.207-0.328-0.243-0.133c-0.207 0-0.378-0.043-0.515-0.129l0.101-0.066c-0.136 0-0.273-0.09-0.414-0.266l-0.449 0.133 0.348 0.262z" inkscape:connector-curvature="0"/>
      <path id="path110" style="fill-rule:evenodd;fill:#d0b886" d="m25.492 24.007c0.07 0.086 0.07 0.195 0 0.328-0.113 0.086-0.297 0.066-0.551-0.067-0.3-0.175-0.484-0.394-0.554-0.66-0.02-0.218 0.047-0.371 0.207-0.461 0.164-0.089 0.301-0.066 0.418 0.067 0.16 0.176 0.172 0.285 0.031 0.328-0.16 0.047-0.254 0.09-0.273 0.133l0.031 0.133c0.394 0 0.625 0.066 0.691 0.199zm-0.722 1.91-0.036 0.332c0.504-0.133 0.793-0.223 0.864-0.266l0.449-0.461 0.07-0.265c0.067-0.656 0.102-1.012 0.102-1.055 0.047-0.176 0.172-0.285 0.379-0.328-0.067-0.09-0.09-0.176-0.067-0.266 0.02-0.086 0.078-0.129 0.172-0.129v-0.066l0.137-0.266c0.047-0.132 0-0.242-0.137-0.328-0.141-0.09-0.242-0.156-0.312-0.199-0.114-0.086-0.196-0.242-0.243-0.461-0.066-0.223-0.054-0.351 0.036-0.394 0.07-0.047 0.171-0.067 0.312-0.067h0.137c0.023-0.043 0.023-0.109 0-0.199 0.117-0.09 0.195-0.133 0.242-0.133 0.207 0.043 0.367 0.309 0.484 0.793 0.161 0.746 0.102 1.231-0.171 1.449l-0.278 0.067 0.035 0.066c1.106-0.308 1.809-0.551 2.106-0.726 1.453-0.789 2.383-1.274 2.797-1.45v-0.066l-1.762 0.527c-1.379 0.528-2.242 0.813-2.59 0.86 0.16-0.356 0.449-0.793 0.863-1.321h-0.691c0.07 0.133 0.059 0.2-0.031 0.2-0.071 0.043-0.188-0.067-0.348-0.332-0.16-0.219-0.266-0.395-0.309-0.528l-0.207-0.394-0.347 0.066 0.035 0.129c-0.531 0.355-0.816 0.727-0.863 1.121l-0.243 0.332c0.391 0 0.668 0.109 0.829 0.328 0.117 0.176 0.183 0.352 0.207 0.528 0 0.222-0.055 0.332-0.172 0.332h-0.137c-0.254-0.309-0.449-0.508-0.59-0.594-0.273-0.043-0.492-0.086-0.656-0.133l-0.172-0.066c-0.531 0.222-0.887 0.285-1.07 0.199l-0.035 0.328c0.277 0 0.507 0.176 0.691 0.527 0.184 0.09 0.332 0.375 0.449 0.86l-0.105-0.067c0.117 0.528 0.176 1.032 0.176 1.516z" inkscape:connector-curvature="0"/>
      <path id="path112" style="fill-rule:evenodd;fill:#d0b886" d="m34.336 20.577 0.555-0.266c0.297-0.175 0.621-0.503 0.964-0.988 0.207-0.308 0.497-0.746 0.864-1.32l-0.758-0.262c0.086 0.164 0.16 0.297 0.223 0.395-0.739-0.907-1.539-1.235-2.399-0.989l-1.14 0.395c-0.438 0.176-0.821 0.242-1.141 0.199-0.024 0.086-0.125 0.129-0.313 0.129v0.199c-0.183 0-0.367-0.176-0.55-0.527h-0.071l-0.066 0.066c0.207 0.176 0.344 0.438 0.414 0.793v0.196c-0.254-0.133-0.473-0.305-0.656-0.528l-0.035 0.067-0.379 0.593c0.226-0.175 0.379-0.109 0.449 0.2 0.043 0.304-0.117 0.394-0.485 0.261l-0.242-0.066-0.863 0.793 0.273 0.262 0.141 0.199 0.242-0.328-0.07-0.133c-0.137-0.266-0.125-0.441 0.035-0.527 0.254 0 0.449 0.043 0.586 0.132 0.207-0.175 0.531-0.308 0.969-0.398-0.024-0.086-0.012-0.195 0.035-0.328 0.043-0.086 0.113-0.133 0.207-0.133 0.137-0.043 0.23 0.023 0.277 0.199 0.043 0.129 0.032 0.262-0.035 0.395 0.207 0.09 0.528 0.242 0.965 0.461 0.141 0 0.438-0.067 0.898-0.196 0.141 0.172 0.208 0.461 0.208 0.856h0.105c0.254 0 0.414 0.109 0.484 0.328l0.137-0.063c0-0.132 0.024-0.199 0.07-0.199l0.102 0.133z" inkscape:connector-curvature="0"/>
      <path id="path114" style="fill-rule:evenodd;fill:#d0b886" d="m24.562 27.171c0.208-0.176 0.504-0.352 0.895-0.528 0.301-0.265 0.496-0.636 0.59-1.121l-0.449 0.461c-0.071 0.043-0.36 0.133-0.864 0.266-0.046 0.352-0.105 0.656-0.172 0.922z" inkscape:connector-curvature="0"/>
      <path id="path116" style="fill-rule:evenodd;fill:#d0b886" d="m32.887 20.972 0.172 0.066 0.035-0.066c0.023-0.043 0.011-0.133-0.035-0.266 0.023-0.219 0.148-0.328 0.379-0.328 0-0.395-0.067-0.684-0.208-0.856 0 0.172-0.296 0.239-0.898 0.196-0.434-0.219-0.758-0.371-0.965-0.461-0.094 0.09-0.207 0.09-0.347 0l-0.137-0.133c-0.438 0.09-0.758 0.223-0.969 0.398 0.211 0.086 0.277 0.262 0.211 0.528l-0.035 0.261c-0.348 0-0.59-0.085-0.727-0.261l-0.242 0.328c0.344 0.437 0.484 0.726 0.414 0.855-0.047 0.09-0.289-0.019-0.726-0.328l-0.207 0.328c0 0.133-0.079 0.243-0.243 0.332-0.414 0.528-0.699 0.965-0.863 1.321 0.348-0.047 1.211-0.332 2.594-0.86l1.762-0.527-0.036-0.066 0.071-0.067c-0.094-0.176-0.141-0.285-0.141-0.328 0.117-0.043 0.313-0.066 0.586-0.066h0.555z" inkscape:connector-curvature="0"/>
      <path id="path118" style="fill-rule:evenodd;fill:#d0b886" d="m26.426 20.577-0.727 0.129c-0.297 0.047-0.687 0.289-1.172 0.727-0.531 0.441-0.843 0.878-0.933 1.32 0.183 0.086 0.539 0.023 1.07-0.199-0.07-0.086-0.012-0.176 0.172-0.262 0.164-0.09 0.289-0.133 0.383-0.133h0.136l0.243-0.332c0.047-0.394 0.332-0.766 0.863-1.121l-0.035-0.129z" inkscape:connector-curvature="0"/>
      <path id="path120" style="fill-rule:evenodd;fill:#d0b886" d="m42.387 27.104h0.242c-0.047-0.351 0.066-0.503 0.344-0.461-0.024-0.089-0.207-0.351-0.551-0.792-0.277-0.305-0.371-0.68-0.277-1.122 0.07-0.351 0.343-0.722 0.828-1.121v-0.129l-0.309-0.332-0.867 0.727-0.172 0.066c-0.621 0.528-1.129 0.789-1.52 0.789l-0.277-0.066 0.106 0.199c0.07 0.176 0.101 0.375 0.101 0.594-0.019 0.266-0.012 0.461 0.035 0.594l-0.308 0.133h-0.207c-0.024-0.223-0.082-0.332-0.176-0.332-0.137 0-0.242-0.02-0.309-0.067l-0.105-0.461 0.035-0.133-0.379 0.2c-0.183 0.043-0.738 0.132-1.66 0.265l-0.379 0.129c-0.301 0.223-0.531 0.375-0.691 0.465l0.07 0.262c0.414-0.133 0.68-0.176 0.793-0.133l0.449 0.066c-0.066-0.133-0.101-0.218-0.101-0.261 0.066-0.043 0.265 0.066 0.586 0.328h0.277l-0.414-0.594c0.297-0.176 0.597-0.024 0.898 0.461l1.899-0.067 0.379 0.067-0.278-0.461 0.934 0.461h0.242c0.07 0.043 0.148 0.109 0.242 0.199l0.071 0.066c-0.071-0.222-0.161-0.351-0.278-0.394-0.23-0.223-0.621-0.375-1.176-0.465 0.231-0.043 0.555-0.195 0.969-0.461l0.242-0.066 0.243 0.332c0.39 0.527 0.562 0.922 0.515 1.187l-0.273 0.129 0.207 0.199z" inkscape:connector-curvature="0"/>
      <path id="path122" style="fill-rule:evenodd;fill:#d0b886" d="m35.234 24.796c0.227 0.172 0.352 0.402 0.379 0.691 0.211-0.101 0.489-0.179 0.832-0.23 0.297-0.129 0.735-0.371 1.313-0.723 0.183-0.047 0.402 0 0.656 0.129 0.137 0.09 0.344 0.242 0.621 0.465 0.024 0 0.09 0.019 0.207 0.062 0.301-0.261 0.278-0.48-0.07-0.656h0.035l-0.551-0.133c-0.644 0.043-1.117-0.023-1.418-0.199l0.586-0.594-1.379 0.266 0.067 0.066h-0.242l-0.102 0.067h-0.035c0 0.043 0.047 0.152 0.137 0.328-0.114 0-0.239-0.067-0.379-0.199l-0.309 0.265-0.348 0.395zm-0.757 0.66 0.066 0.461-0.484-0.328-0.551 0.262v0.066l-0.035 0.066h0.07c0.301 0.133 0.746 0.157 1.348 0.067l0.207-0.067 0.136-0.199c0.082-0.105 0.2-0.191 0.348-0.262-0.094-0.027-0.324-0.093-0.691-0.199h-0.243l-0.171 0.133z" inkscape:connector-curvature="0"/>
      <path id="path124" style="fill-rule:evenodd;fill:#d0b886" d="m38.273 23.542-0.449 0.066-0.586 0.594c0.301 0.176 0.774 0.242 1.418 0.199l0.551 0.133c0.277-0.09 0.484-0.047 0.621 0.129l0.277 0.066c0.391 0 0.899-0.261 1.52-0.789l0.172-0.066 0.863-0.727-0.414-0.527c-0.527-0.086-0.898-0.242-1.105-0.461v-0.066l-2.868 1.449z" inkscape:connector-curvature="0"/>
      <path id="path126" style="fill-rule:evenodd;fill:#d0b886" d="m35.891 26.249-0.45 0.195-0.066 0.199 0.586-0.132-0.07-0.262z" inkscape:connector-curvature="0"/>
      <path id="path128" style="fill-rule:evenodd;fill:#d0b886" d="m34.715 26.643 0.105-0.132 0.278-0.528-0.207 0.067c-0.602 0.09-1.051 0.066-1.348-0.067h-0.07l-0.035 0.032c0.023 0.003 0.046 0.039 0.07 0.101 0.07 0.086 0.058 0.152-0.035 0.195-0.071 0.09-0.137 0.11-0.207 0.067-0.114 0-0.196-0.086-0.243-0.262l-0.136 0.133 0.136 0.195v0.067l0.485 0.332 1.207-0.2z" inkscape:connector-curvature="0"/>
      <path id="path130" style="fill-rule:evenodd;fill:#d0b886" d="m23.629 29.28-0.07 0.199-0.485 0.461 0.106 0.067 0.379 0.328 1.242 0.66h0.035c-0.113-0.219-0.219-0.504-0.309-0.855l-0.07-0.133c-0.461-0.395-0.738-0.641-0.828-0.727z" inkscape:connector-curvature="0"/>
      <path id="path132" style="fill-rule:evenodd;fill:#d0b886" d="m24.387 29.147c0-0.437 0.058-0.765 0.175-0.988l-0.312 0.133c-0.16 0.043-0.324 0.219-0.484 0.527l0.621 0.328z" inkscape:connector-curvature="0"/>
      <path id="path134" style="fill-rule:evenodd;fill:#d0b886" d="m27.219 32.116 0.176-0.066 0.207-0.133-0.071-0.59-0.277-0.133-0.692-0.133-0.621 0.661 0.485 0.261 0.242 0.2c0.254 0 0.437-0.024 0.551-0.067z" inkscape:connector-curvature="0"/>
      <path id="path136" style="fill-rule:evenodd;fill:#d0b886" d="m22.625 29.546 0.242 0.195v-0.656c-0.183-0.793-0.265-1.32-0.242-1.586 0-0.219 0.035-0.352 0.105-0.395l-0.171-0.132-0.071-0.196-0.105-0.133c-0.621 0.262-0.988 0.243-1.106-0.066-0.136 0.043-0.285 0-0.449-0.133-0.207-0.176-0.332-0.261-0.379-0.261-0.137 0-0.355 0.285-0.656 0.855l-0.035 0.266c0 0.043-0.067 0.195-0.207 0.461h-0.035l-0.102 0.199c1.981 0.922 3.051 1.449 3.211 1.582z" inkscape:connector-curvature="0"/>
      <path id="path138" style="fill-rule:evenodd;fill:#d0b886" d="m22.867 29.085v0.656l0.035 0.067 0.172 0.132 0.485-0.461 0.07-0.199c-0.137-0.133-0.277-0.351-0.414-0.66l0.551 0.199c0.164-0.308 0.324-0.484 0.484-0.527l0.312-0.133 0.344-0.262c-0.113-0.308-0.218-0.507-0.308-0.593-0.118-0.133-0.266-0.223-0.45-0.266h-0.484c0.024 0.043 0.024 0.133 0 0.266l-0.176 0.066c-0.183 0-0.379-0.066-0.586-0.199l-0.172-0.067c-0.07 0.043-0.105 0.176-0.105 0.395-0.02 0.266 0.059 0.793 0.242 1.586z" inkscape:connector-curvature="0"/>
      <path id="path140" style="fill-rule:evenodd;fill:#d0b886" d="m25.113 28.226 0.762-0.067-0.414-0.195-0.484 0.129 0.273 0.66 0.348 0.461 0.656-0.196v-0.066l-1.141-0.726z" inkscape:connector-curvature="0"/>
      <path id="path142" style="fill-rule:evenodd;fill:#d0b886" d="m28.258 29.28-0.485 0.332v0.129c0.071-0.086 0.266-0.242 0.586-0.461 0.231-0.176 0.403-0.371 0.52-0.594 0.09-0.175 0.195-0.484 0.312-0.921 0.067-0.133 0.207-0.286 0.414-0.461 0.184-0.133 0.297-0.266 0.344-0.399-0.23 0-0.574 0.09-1.035 0.266 0.086 0.164 0.039 0.254-0.141 0.262h-0.015c-0.106-0.004-0.168-0.047-0.192-0.129l-0.378 0.195c-0.047 0.133-0.172 0.199-0.379 0.199l-0.348 0.133-0.172 0.133c0.047 0.043 0.07 0.109 0.07 0.195h0.278c0.16 0 0.355 0.09 0.586 0.266-0.047 0.218-0.118 0.394-0.207 0.527 0.136 0.086 0.218 0.195 0.242 0.328z" inkscape:connector-curvature="0"/>
      <path id="path144" style="fill-rule:evenodd;fill:#d0b886" d="m27.016 28.491c0 0.129 0.066 0.238 0.207 0.328 0.39 0 0.656 0.043 0.793 0.133 0.093-0.133 0.16-0.309 0.207-0.527-0.231-0.176-0.426-0.266-0.586-0.266h-0.278c0 0.043-0.07 0.09-0.207 0.133-0.093 0.043-0.136 0.109-0.136 0.199z" inkscape:connector-curvature="0"/>
      <path id="path146" style="fill-rule:evenodd;fill:#d0b886" d="m24.977 28.093 0.484-0.129-0.277-0.067h-0.278l0.071 0.196z" inkscape:connector-curvature="0"/>
      <path id="path148" style="fill-rule:evenodd;fill:#d0b886" d="m25.941 31.722 0.621-0.661-0.238-0.066c-0.14 0-0.312-0.066-0.519-0.199-0.254-0.172-0.426-0.285-0.52-0.328l-0.379-0.067c-0.094-0.043-0.218-0.133-0.379-0.261 0.09 0.351 0.196 0.636 0.309 0.855l1.105 0.727z" inkscape:connector-curvature="0"/>
      <path id="path150" style="fill-rule:evenodd;fill:#d0b886" d="m25.25 28.753-0.273-0.66-0.415 0.066c-0.117 0.219-0.175 0.551-0.175 0.988 0.394 0.09 0.625 0.133 0.691 0.133l0.52-0.066-0.348-0.461z" inkscape:connector-curvature="0"/>
      <path id="path152" style="fill-rule:evenodd;fill:#d0b886" d="m24.562 28.159 0.415-0.066-0.071-0.196-0.344 0.262z" inkscape:connector-curvature="0"/>
      <path id="path154" style="fill-rule:evenodd;fill:#bca67a" d="m27.637 31.327-0.035-0.66-0.071 0.527v0.133h0.106z" inkscape:connector-curvature="0"/>
      <path id="path156" style="fill-rule:evenodd;fill:#bca67a" d="m24.527 30.14c-0.093-0.528-0.14-0.86-0.14-0.993l-0.621-0.328-0.071 0.133-0.066 0.328c0.09 0.086 0.367 0.332 0.828 0.727l0.07 0.133z" inkscape:connector-curvature="0"/>
      <path id="path158" style="fill-rule:evenodd;fill:#bca67a" d="m27.254 31.194 0.277 0.133v-0.133l0.071-0.527 0.035-0.727-1.075 1.121 0.692 0.133z" inkscape:connector-curvature="0"/>
      <path id="path160" style="fill-rule:evenodd;fill:#bca67a" d="m23.629 29.28 0.066-0.328 0.071-0.133-0.551-0.199c0.137 0.309 0.273 0.527 0.414 0.66z" inkscape:connector-curvature="0"/>
      <path id="path162" style="fill-rule:evenodd;fill:#bca67a" d="m26.047 29.479 0.207-0.461-0.656 0.196 0.449 0.265z" inkscape:connector-curvature="0"/>
      <path id="path164" style="fill-rule:evenodd;fill:#bca67a" d="m28.016 28.952-0.172 0.328h-0.035l-0.036 0.332 0.485-0.332c-0.024-0.133-0.106-0.242-0.242-0.328z" inkscape:connector-curvature="0"/>
      <path id="path166" style="fill-rule:evenodd;fill:#bca67a" d="m27.809 29.28h0.035l0.172-0.328c-0.137-0.09-0.403-0.133-0.797-0.133 0.164 0.09 0.254 0.199 0.277 0.328h-0.379c-0.16-0.043-0.207 0.024-0.137 0.2-0.046 0.089-0.277-0.024-0.691-0.329h-0.035l-0.207 0.461c0.391 0.133 0.976 0.067 1.762-0.199z" inkscape:connector-curvature="0"/>
      <path id="path168" style="fill-rule:evenodd;fill:#bca67a" d="m27.637 29.94 0.031-0.132 0.105-0.196 0.036-0.332-0.172 0.133c-0.071 0.043-0.395 0.242-0.969 0.594-0.344 0.219-0.68 0.242-1 0.066 0.137-0.09 0.262-0.289 0.379-0.594l-0.449-0.265-0.52 0.066c-0.066 0-0.297-0.043-0.691-0.133 0 0.133 0.047 0.465 0.14 0.993 0.161 0.128 0.285 0.218 0.379 0.261l0.379 0.067c0.094 0.043 0.266 0.156 0.52 0.328 0.207 0.133 0.379 0.199 0.519 0.199l0.238 0.066 1.075-1.121z" inkscape:connector-curvature="0"/>
      <path id="path170" style="fill-rule:evenodd;fill:#bca67a" d="m27.809 29.28c-0.786 0.266-1.371 0.332-1.762 0.199-0.117 0.305-0.242 0.504-0.379 0.594 0.32 0.176 0.656 0.153 1-0.066 0.574-0.352 0.898-0.551 0.969-0.594l0.172-0.133z" inkscape:connector-curvature="0"/>
      <path id="path172" style="fill-rule:evenodd;fill:#bca67a" d="m35.375 26.643h-0.66l-0.688 0.661 0.172 0.129 0.586-0.129c0.277-0.09 0.449-0.2 0.52-0.332 0.047-0.043 0.07-0.153 0.07-0.329z" inkscape:connector-curvature="0"/>
      <path id="path174" style="fill-rule:evenodd;fill:#bca67a" d="m36.445 25.257c-0.601 0.09-1.004 0.265-1.211 0.527l-0.136 0.199c0.367-0.218 0.597-0.261 0.691-0.132l0.102 0.398c0.16-0.09 0.39-0.242 0.691-0.465l0.379-0.129c0.922-0.133 1.477-0.222 1.66-0.265l0.379-0.2 0.035-0.062c-0.277-0.223-0.484-0.375-0.621-0.465-0.254-0.129-0.473-0.176-0.656-0.129-0.578 0.348-1.016 0.594-1.313 0.723z" inkscape:connector-curvature="0"/>
      <path id="path176" style="fill-rule:evenodd;fill:#bca67a" d="m34.715 26.643h0.66l0.066-0.199 0.45-0.195-0.102-0.398c-0.094-0.129-0.324-0.086-0.691 0.132l-0.278 0.528-0.105 0.132z" inkscape:connector-curvature="0"/>
      <path id="path178" style="fill-rule:evenodd;fill:#bca67a" d="m41.66 26.249c0.117 0.043 0.207 0.172 0.278 0.394l0.242 0.262 0.273-0.129c0.047-0.265-0.125-0.66-0.515-1.187l-0.243-0.332-0.242 0.066c-0.414 0.266-0.738 0.418-0.969 0.461 0.555 0.09 0.946 0.242 1.176 0.465z" inkscape:connector-curvature="0"/>
      <path id="path180" style="fill-rule:evenodd;fill:#bca67a" d="m31.816 35.612 0.137 0.262h0.035l0.035 0.133-0.035 0.133 1-1.582 0.106-0.2 0.101-0.132 0.243-0.395 0.035-0.066 0.207-0.329 0.035-0.066 0.207-0.266c-0.184 0-0.531 0.176-1.035 0.528-0.485 0.308-0.852 0.418-1.106 0.332h-0.379c-0.07 0.262-0.175 0.371-0.312 0.328-0.094 0-0.195-0.133-0.313-0.395-0.089-0.265-0.195-0.394-0.308-0.394-0.071 0-0.278 0.086-0.621 0.262-0.207 0.089-0.371-0.086-0.485-0.528-0.324 0-0.621 0.067-0.898 0.199l0.344 0.262h0.035l0.519 0.266h0.137l0.035 0.066v0.067l0.137 0.129c0.187-0.043 0.414-0.153 0.691-0.329 0.094 0.086 0.141 0.219 0.141 0.395 0 0.043-0.012 0.109-0.035 0.199-0.024 0.09-0.012 0.176 0.035 0.262l0.344 0.199 0.207 0.266c0.093 0.043 0.23 0.129 0.414 0.261 0.164 0.133 0.277 0.176 0.347 0.133z" inkscape:connector-curvature="0"/>
      <path id="path182" style="fill-rule:evenodd;fill:#bca67a" d="m17.996 23.741 0.141-0.199 1.14-1.188-0.867 0.661c-0.226 0.132-0.687 0.199-1.379 0.199-0.621 0.043-1.058 0.176-1.312 0.394 0.39 0.223 0.656 0.418 0.793 0.594 0.23 0.266 0.359 0.66 0.379 1.188l0.933-1.45-0.207-0.199c0.117-0.09 0.242-0.09 0.379 0z" inkscape:connector-curvature="0"/>
      <path id="path184" style="fill-rule:evenodd;fill:#bca67a" d="m23.109 17.081 0.414-0.133c0.071-0.133 0.243-0.594 0.52-1.383-0.555 0.922-0.863 1.426-0.934 1.516z" inkscape:connector-curvature="0"/>
      <path id="path186" style="fill-rule:evenodd;fill:#bca67a" d="m26.047 14.507-0.035-0.063c-0.367-0.09-0.633-0.109-0.793-0.066-0.348 0.043-0.739 0.437-1.176 1.187-0.277 0.789-0.449 1.25-0.52 1.383l2.145-0.855-0.52-0.332c0.047-0.043 0.231-0.067 0.551-0.067h0.52l0.105-0.195 0.274-0.266c-0.274-0.351-0.457-0.593-0.551-0.726z" inkscape:connector-curvature="0"/>
      <path id="path188" style="fill-rule:evenodd;fill:#e5cd98" d="m36.168 22.753c0.07-0.086 0.219-0.11 0.449-0.067l0.035-0.066-0.554-0.133c-0.668-0.086-1.082-0.176-1.243-0.261-0.46-0.176-0.816-0.266-1.07-0.266 0.07 0.266 0.035 0.461-0.105 0.594l0.172-0.067c-0.024 0.133-0.125 0.176-0.309 0.133-0.16-0.043-0.277-0.109-0.348-0.199l-0.136-0.195c-0.575 0.437-1 0.703-1.278 0.789l-0.656 0.332c0.047 0.175 0.023 0.261-0.07 0.261 0.023 0.047 0.093 0.157 0.207 0.332 0.093 0.129 0.129 0.262 0.105 0.395l-0.035-0.067c-0.184 0-0.484-0.199-0.898-0.593l-0.379 0.265c0.597 0 0.863 0.196 0.793 0.594h0.277c0.137 0 0.402 0.067 0.793 0.195 0.324 0.133 0.578 0.176 0.762 0.133l2.211-0.527c-0.024-0.176 0.043-0.328 0.207-0.461 0.136-0.133 0.277-0.156 0.414-0.066l0.136 0.261 0.172-0.062-0.308-0.399-0.071-0.066 0.313-0.129 0.035-0.199 0.273-0.067c0.047-0.089 0.083-0.218 0.106-0.394z" inkscape:connector-curvature="0"/>
      <path id="path190" style="fill-rule:evenodd;fill:#e5cd98" d="m29.707 24.401c0.117-0.043 0.141-0.156 0.07-0.332l-0.277 0.266 0.207 0.066z" inkscape:connector-curvature="0"/>
      <path id="path192" style="fill-rule:evenodd;fill:#e5cd98" d="m36.168 23.413c-0.023 0.176 0.059 0.305 0.242 0.395l1.867-0.661-0.832-0.261v0.062h-0.414l0.106 0.266-0.383 0.066 0.105 0.262c-0.136-0.086-0.265-0.152-0.379-0.195-0.187-0.043-0.289-0.024-0.312 0.066z" inkscape:connector-curvature="0"/>
      <path id="path194" style="fill-rule:evenodd;fill:#e5cd98" d="m32.16 31.456c-0.207-0.086-0.402-0.262-0.586-0.527l-0.312 0.265c0.207 0.043 0.508 0.133 0.898 0.262z" inkscape:connector-curvature="0"/>
      <path id="path196" style="fill-rule:evenodd;fill:#e5cd98" d="m32.125 32.116 1.039-0.328 1-0.793h-0.105c-0.852-0.176-1.485-0.242-1.899-0.199l0.035 0.199c0.278 0.133 0.414 0.309 0.414 0.527-0.023 0.09-0.101 0.176-0.242 0.266-0.16 0-0.265 0.02-0.308 0.066l0.066 0.262z" inkscape:connector-curvature="0"/>
      <path id="path198" style="fill-rule:evenodd;fill:#e5cd98" d="m31.125 31.456c-0.094 0-0.172 0.043-0.242 0.133l0.519 0.394-0.14-0.461-0.137-0.066z" inkscape:connector-curvature="0"/>
      <path id="path200" style="fill-rule:evenodd;fill:#e5cd98" d="m22.625 25.589h0.141c0.089 0.043 0.16 0.109 0.207 0.195 0.066 0.09 0.101 0.223 0.101 0.399 0.578 0 1.141-0.09 1.696-0.266l-0.208-0.262-0.175-0.594h-0.379l0.07 0.196c-0.07 0.047-0.183-0.02-0.348-0.196-0.23-0.175-0.367-0.289-0.414-0.332h0.071c-0.137-0.394-0.071-0.593 0.207-0.593 0.183-0.043 0.289-0.11 0.312-0.196l-0.277-0.132c-0.207 0-0.461 0.218-0.762 0.66-0.16 0.218-0.242 0.593-0.242 1.121zm0.141-0.399c-0.071-0.218-0.012-0.351 0.172-0.394 0.136-0.043 0.289-0.024 0.449 0.066 0.23 0.09 0.32 0.328 0.277 0.727-0.047 0.351-0.199 0.418-0.449 0.195l0.066 0.067c-0.297-0.219-0.469-0.438-0.515-0.661z" inkscape:connector-curvature="0"/>
      <path id="path202" style="fill-rule:evenodd;fill:#e5cd98" d="m23.906 24.468c0.043 0.218 0.184 0.328 0.414 0.328l-0.14-0.461c-0.207 0-0.297 0.043-0.274 0.133z" inkscape:connector-curvature="0"/>
      <path id="path204" style="fill-rule:evenodd;fill:#e5cd98" d="m25.32 19.058c-0.32-0.043-0.644 0.109-0.965 0.464v0.063c0.043 0.133-0.035 0.199-0.242 0.199l-0.554 0.859c0.324-0.089 0.796-0.132 1.418-0.132 0.296-0.133 0.769-0.157 1.414-0.067h0.035l0.347-0.066 0.102-0.067-0.313-0.394c-0.113-0.223-0.32-0.418-0.621-0.594-0.25-0.176-0.457-0.265-0.621-0.265z" inkscape:connector-curvature="0"/>
      <path id="path206" style="fill-rule:evenodd;fill:#e5cd98" d="m18.895 25.39c0-0.043 0.011-0.176 0.035-0.395l0.105-0.332-0.863-0.527-0.555 0.66c-0.07 0.043-0.426 0.504-1.07 1.387l0.207 0.195c0.184 0.133 0.379 0.199 0.586 0.199h0.969c0.023 0.043 0.035 0.133 0.035 0.266h0.035l0.723-1.188c-0.114-0.09-0.184-0.176-0.207-0.265z" inkscape:connector-curvature="0"/>
      <path id="path208" style="fill-rule:evenodd;fill:#e5cd98" d="m20.277 22.753 0.243-0.399c-0.508 0.09-0.817 0.067-0.934-0.062-0.504 0.527-0.887 1.031-1.141 1.516l-0.066 0.066 0.793 0.195h0.172l0.383-0.461c-0.165-0.129-0.278-0.285-0.348-0.461 0.348 0 0.531-0.023 0.555-0.066 0.043 0 0.066-0.066 0.066-0.195l0.277-0.133z" inkscape:connector-curvature="0"/>
      <path id="path210" style="fill-rule:evenodd;fill:#e5cd98" d="m20.07 21.96h0.692l0.101-0.133c-0.207-0.129-0.449-0.109-0.722 0.066l-0.071 0.067z" inkscape:connector-curvature="0"/>
      <path id="path212" style="fill-rule:evenodd;fill:#e5cd98" d="m42.629 27.104h0.238l0.176-0.066c0.113-0.043 0.297-0.066 0.551-0.066l0.519-0.196c0.207-0.09 0.321-0.175 0.344-0.265 0.094-0.176 0.105-0.571 0.035-1.188l-0.519-0.988-0.102-0.133-0.207-0.195-0.312-0.199-0.102-0.133-0.172-0.133-0.105 0.066c0.047 0.309 0.172 0.594 0.379 0.86 0.23 0.351 0.382 0.613 0.449 0.789-0.297 0.047-0.516 0.109-0.656 0.199 0.046 0.219 0.046 0.461 0 0.727 0 0.128 0.035 0.351 0.105 0.66l-0.621 0.261z" inkscape:connector-curvature="0"/>
      <path id="path214" style="fill-rule:evenodd;fill:#f1d8a0" d="m44.113 26.776-0.519 0.196 1.383-0.067c0.07 0 0.105-0.019 0.105-0.062h0.242c0.02 0 0.02-0.024 0-0.067l-0.176-0.199-0.207-0.394-0.171-0.266-0.036-0.133-0.242-0.461c0.07 0.617 0.059 1.012-0.035 1.188-0.023 0.09-0.137 0.175-0.344 0.265z" inkscape:connector-curvature="0"/>
      <path id="path216" style="fill-rule:evenodd;fill:#f1d8a0" d="m14.82 21.499-0.277 0.461-0.863 1.055-0.137 0.132-0.141 0.266-0.066 0.066-0.121 0.196c0.387-0.321 0.926-0.938 1.605-1.848 0.207-0.219 0.692-0.832 1.45-1.844l1.589-2.113c0.321-0.57 0.762-1.074 1.313-1.516l0.277-0.261c-0.207 0.129-0.39 0.152-0.554 0.066l-0.758 0.789c-1.153 1.625-1.992 2.727-2.524 3.297-0.23 0.266-0.492 0.68-0.793 1.254z" inkscape:connector-curvature="0"/>
      <path id="path218" style="fill-rule:evenodd;fill:#8e7353" d="m31.574 30.929c0.184 0.265 0.379 0.441 0.586 0.527-0.39-0.129-0.691-0.219-0.898-0.262-0.207-0.09-0.344-0.043-0.414 0.133l0.414 0.195 0.07 0.067 0.242 0.394 0.207 0.133h0.344l-0.066-0.262c0.043-0.046 0.148-0.066 0.308-0.066 0.141-0.09 0.219-0.176 0.242-0.266 0-0.218-0.136-0.394-0.414-0.527l-0.035-0.199c-0.09-0.438-0.23-0.59-0.414-0.461l0.07 0.332c-0.164-0.09-0.3-0.09-0.414 0 0.024 0.086 0.078 0.176 0.172 0.262z" inkscape:connector-curvature="0"/>
      <path id="path220" style="fill-rule:evenodd;fill:#8e7353" d="m32.953 29.874-0.101 0.266c-0.118-0.09-0.196-0.157-0.243-0.2-0.113-0.043-0.207-0.023-0.277 0.067l0.141 0.394c0.023 0 0 0.043-0.071 0.133 0.071 0.262 0.184 0.328 0.344 0.199 0.277-0.09 0.43-0.199 0.449-0.332 0.024-0.043 0-0.218-0.066-0.527l0.172-0.066-0.137-0.329c-0.187-0.089-0.254 0.043-0.211 0.395z" inkscape:connector-curvature="0"/>
      <path id="path222" style="fill-rule:evenodd;fill:#8e7353" d="m35.512 27.499c-0.16 0.176-0.231 0.352-0.207 0.527l-0.348 0.067c0.301 0.09 0.809-0.067 1.52-0.461h0.035c0-0.09 0.14-0.176 0.414-0.262-0.02-0.223-0.09-0.418-0.207-0.594-0.114-0.133-0.215-0.175-0.309-0.133 0.067 0.309 0.094 0.551 0.067 0.727l-0.415 0.063-0.171 0.066v-0.129c-0.114-0.09-0.243-0.047-0.379 0.129z" inkscape:connector-curvature="0"/>
      <path id="path224" style="fill-rule:evenodd;fill:#8e7353" d="m37.203 26.444 0.207 0.199 0.313-0.132h-0.035c-0.321-0.262-0.516-0.371-0.586-0.328 0 0.043 0.035 0.128 0.101 0.261z" inkscape:connector-curvature="0"/>
      <path id="path226" style="fill-rule:evenodd;fill:#8e7353" d="m37.551 25.917 0.414 0.594 0.484-0.133c-0.301-0.485-0.601-0.637-0.898-0.461z" inkscape:connector-curvature="0"/>
      <path id="path228" style="fill-rule:evenodd;fill:#8e7353" d="m39.242 25.19c-0.117-0.043-0.183-0.062-0.207-0.062l-0.035 0.062-0.035 0.133 0.105 0.461c0.067 0.047 0.172 0.067 0.309 0.067 0.094 0 0.152 0.109 0.176 0.332h0.207l0.308-0.133c-0.047-0.133-0.054-0.328-0.035-0.594 0-0.219-0.031-0.418-0.101-0.594l-0.106-0.199c-0.137-0.176-0.344-0.219-0.621-0.129h-0.035c0.348 0.176 0.371 0.395 0.07 0.656z" inkscape:connector-curvature="0"/>
      <path id="path230" style="fill-rule:evenodd;fill:#8e7353" d="m29.016 29.808c0.39 0 0.554 0.132 0.484 0.398 0 0.129-0.078 0.152-0.242 0.062-0.16-0.128-0.278-0.218-0.344-0.261-0.094 0-0.117 0.066-0.07 0.199 0.047 0.172 0.148 0.262 0.312 0.262 0.321 0.175 0.598 0.242 0.828 0.199l0.036-0.066c0.066-0.09 0.054-0.243-0.036-0.461-0.07-0.176-0.16-0.309-0.277-0.399-0.066-0.086-0.207-0.129-0.414-0.129s-0.297 0.063-0.277 0.196z" inkscape:connector-curvature="0"/>
      <path id="path232" style="fill-rule:evenodd;fill:#8e7353" d="m30.328 29.546c-0.23-0.176-0.402-0.285-0.516-0.332-0.16-0.129-0.335-0.129-0.519 0 0.23 0 0.402 0.09 0.519 0.265 0.067 0.086 0.161 0.262 0.274 0.528 0.141 0.176 0.289 0.152 0.449-0.067 0.188-0.132 0.289-0.308 0.313-0.527 0-0.176-0.047-0.266-0.137-0.266-0.141-0.086-0.301-0.043-0.484 0.133l0.101 0.266z" inkscape:connector-curvature="0"/>
      <path id="path234" style="fill-rule:evenodd;fill:#8e7353" d="m30.918 28.886 0.344-0.133-0.379-0.199c-0.301-0.129-0.586-0.063-0.863 0.199 0.023 0.086 0.32 0.133 0.898 0.133z" inkscape:connector-curvature="0"/>
      <path id="path236" style="fill-rule:evenodd;fill:#8e7353" d="m31.055 28.491 0.242-0.265-0.137-0.133-0.242-0.067c-0.23 0-0.359 0.024-0.383 0.067-0.113 0.222 0.024 0.332 0.418 0.332l0.102 0.066z" inkscape:connector-curvature="0"/>
      <path id="path238" style="fill-rule:evenodd;fill:#8e7353" d="m31.539 27.765c0.047 0.043 0.207 0.152 0.484 0.328 0.024 0.09-0.046 0.199-0.207 0.332-0.187 0.129-0.254 0.261-0.207 0.394l0.657-0.133v-0.261l0.136-0.199-0.105-0.2-0.238-0.261-0.418-0.332h-0.032l-0.312 0.066 0.137 0.199 0.105 0.067z" inkscape:connector-curvature="0"/>
      <path id="path240" style="fill-rule:evenodd;fill:#8e7353" d="m33.023 25.917v0.199c0.047 0.176 0.129 0.262 0.243 0.262 0.07 0.043 0.136 0.023 0.207-0.067 0.093-0.043 0.105-0.109 0.035-0.195-0.024-0.062-0.047-0.098-0.07-0.101l0.035-0.032 0.035-0.066v-0.066l-0.035-0.262c-0.231 0-0.368 0.066-0.414 0.195l-0.036 0.133z" inkscape:connector-curvature="0"/>
      <path id="path242" style="fill-rule:evenodd;fill:#8e7353" d="m34.441 25.323h0.45c0.461 0.133 0.703 0.199 0.726 0.199-0.023-0.308-0.152-0.55-0.383-0.726-0.254-0.219-0.496-0.285-0.726-0.195-0.09 0.171-0.184 0.242-0.274 0.195l-0.242-0.133-0.14 0.133-0.172 0.265 0.379 0.528 0.484 0.328-0.066-0.461-0.036-0.133z" inkscape:connector-curvature="0"/>
      <path id="path244" style="fill-rule:evenodd;fill:#8e7353" d="m35.512 23.808c-0.137-0.09-0.278-0.067-0.414 0.066-0.16 0.133-0.231 0.285-0.207 0.461 0 0.086 0.054 0.199 0.171 0.328l0.071-0.262c0.09 0.133 0.195 0.153 0.308 0.067 0.141-0.09 0.207-0.223 0.207-0.399l-0.136-0.261z" inkscape:connector-curvature="0"/>
      <path id="path246" style="fill-rule:evenodd;fill:#8e7353" d="m36.859 23.542-0.105-0.262 0.383-0.066-0.106-0.266h0.414v-0.062c-0.066-0.223-0.101-0.399-0.101-0.532 0-0.261 0.125-0.261 0.379 0-0.094-0.128-0.243-0.218-0.45-0.261-0.207 0-0.289 0.109-0.242 0.328-0.23 0-0.355 0.066-0.379 0.199l-0.035 0.066c-0.23-0.043-0.379-0.023-0.449 0.067-0.023 0.176-0.059 0.305-0.106 0.394l-0.273 0.067-0.035 0.199-0.313 0.129 0.071 0.066 0.308 0.399 0.071 0.129c0.14 0.132 0.265 0.199 0.379 0.199-0.09-0.176-0.137-0.285-0.137-0.328h0.035c0-0.047 0.035-0.067 0.102-0.067h0.242l-0.067-0.066-0.035-0.066c-0.183-0.09-0.265-0.219-0.242-0.395 0.023-0.09 0.125-0.109 0.309-0.066 0.117 0.043 0.242 0.109 0.382 0.195z" inkscape:connector-curvature="0"/>
      <path id="path248" style="fill-rule:evenodd;fill:#8e7353" d="m27.496 29.147c-0.023-0.129-0.113-0.238-0.277-0.328-0.137-0.09-0.207-0.199-0.207-0.328 0-0.09 0.047-0.156 0.14-0.199 0.137-0.043 0.207-0.09 0.207-0.133 0-0.086-0.023-0.152-0.07-0.195l0.379-0.266h0.141c0.207 0 0.332-0.066 0.379-0.199l0.035-0.129 0.035-0.266c0.043-0.043 0.066-0.109 0.066-0.199-0.023-0.129-0.16-0.195-0.414-0.195-0.207 0-0.379-0.067-0.515-0.199-0.461-0.438-0.739-0.571-0.833-0.395 0.071 0.086 0.266 0.242 0.59 0.461 0.254 0.176 0.426 0.375 0.516 0.594-0.25-0.133-0.391-0.176-0.414-0.133-0.066 0.043-0.078 0.199-0.035 0.461-0.207-0.043-0.356-0.043-0.446 0l0.172 0.332-0.242 0.066c-0.183-0.089-0.324-0.156-0.414-0.199-0.141 0-0.172 0.133-0.105 0.395l-1.071 0.133 1.141 0.726 0.035 0.066c0.414 0.305 0.645 0.418 0.691 0.329-0.07-0.176-0.023-0.243 0.137-0.2h0.379z" inkscape:connector-curvature="0"/>
      <path id="path250" style="fill-rule:evenodd;fill:#8e7353" d="m33.059 20.706c0.046 0.133 0.058 0.223 0.035 0.266l-0.035 0.066-0.172-0.066h-0.555c-0.273 0-0.469 0.023-0.586 0.066 0 0.043 0.047 0.152 0.141 0.328l-0.071 0.067 0.036 0.066v0.066c0.089 0.176 0.136 0.286 0.136 0.328l-0.277 0.067c-0.066 0-0.113 0.047-0.137 0.133 0.047 0.09 0.059 0.152 0.035 0.199-0.117 0.043-0.195 0.086-0.242 0.129 0.047 0.09 0.137 0.156 0.278 0.199 0.136 0.09 0.23 0.109 0.273 0.066 0.047-0.043 0.059-0.175 0.035-0.394h0.485c0.046-0.047 0.046-0.199 0-0.465 0.3 0 0.519 0.024 0.656 0.066-0.137 0-0.149 0.11-0.035 0.333l0.14 0.195c0.067 0.09 0.184 0.156 0.344 0.199 0.184 0.047 0.289 0 0.312-0.133l-0.175 0.067c0.14-0.133 0.175-0.328 0.105-0.594v-0.133c0.254-0.086 0.356-0.351 0.309-0.789l-0.067-0.332c-0.07-0.219-0.23-0.328-0.484-0.328h-0.105c-0.231 0-0.356 0.109-0.379 0.328z" inkscape:connector-curvature="0"/>
      <path id="path252" style="fill-rule:evenodd;fill:#8e7353" d="m34.508 21.499-0.172-0.922-0.102-0.133c-0.046 0-0.07 0.067-0.07 0.199 0.047 0.481 0.16 0.766 0.344 0.856z" inkscape:connector-curvature="0"/>
      <path id="path254" style="fill-rule:evenodd;fill:#8e7353" d="m34.715 21.366c0.094 0 0.129-0.133 0.105-0.394-0.023-0.219-0.082-0.375-0.172-0.461-0.093-0.047-0.128 0.043-0.105 0.261 0.023 0.176 0.059 0.309 0.105 0.399l0.067 0.195z" inkscape:connector-curvature="0"/>
      <path id="path256" style="fill-rule:evenodd;fill:#8e7353" d="m28.758 27.433h0.015c0.18-0.008 0.227-0.098 0.141-0.262v-0.067c-0.23 0-0.348 0.043-0.348 0.133v0.067c0.024 0.082 0.086 0.125 0.192 0.129z" inkscape:connector-curvature="0"/>
      <path id="path258" style="fill-rule:evenodd;fill:#8e7353" d="m29.191 26.444c0.067-0.043 0.043-0.133-0.07-0.261-0.113-0.133-0.207-0.2-0.277-0.2-0.16-0.09-0.473-0.066-0.934 0.067 0 0.043 0.106 0.133 0.313 0.261 0.461 0.176 0.757 0.266 0.898 0.266l0.07-0.133z" inkscape:connector-curvature="0"/>
      <path id="path260" style="fill-rule:evenodd;fill:#8e7353" d="m29.465 25.983c0.023-0.132-0.012-0.328-0.102-0.593l-0.383-0.2 0.176 0.465c0.137 0.395 0.254 0.571 0.344 0.528l-0.035-0.2z" inkscape:connector-curvature="0"/>
      <path id="path262" style="fill-rule:evenodd;fill:#8e7353" d="m29.641 25.784 0.101-0.129-0.308-0.199 0.207 0.328z" inkscape:connector-curvature="0"/>
      <path id="path264" style="fill-rule:evenodd;fill:#8e7353" d="m29.984 25.128 0.52 0.062c0.019-0.043 0.055-0.129 0.101-0.261 0.118-0.133 0.184-0.219 0.207-0.266l0.036-0.129c0.07-0.398-0.196-0.594-0.793-0.594l-0.348-0.066c0 0.133 0.023 0.195 0.07 0.195 0.071 0.176 0.047 0.289-0.07 0.332l-0.207-0.066-0.52-0.067c0.047 0.133 0.211 0.266 0.485 0.395l0.519 0.465z" inkscape:connector-curvature="0"/>
      <path id="path266" style="fill-rule:evenodd;fill:#8e7353" d="m31.02 24.729c-0.09 0-0.161 0.067-0.208 0.2l0.106 0.132c0.113-0.089 0.148-0.199 0.102-0.332z" inkscape:connector-curvature="0"/>
      <path id="path268" style="fill-rule:evenodd;fill:#8e7353" d="m31.055 23.608c0.093 0 0.117-0.086 0.07-0.261l-0.035-0.133c0.414-0.176 0.449-0.309 0.101-0.395-0.503-0.265-0.757-0.265-0.757 0 0 0.129 0.082 0.285 0.242 0.461-0.024 0.086-0.153 0.11-0.379 0.067-0.024 0.043 0.019 0.152 0.137 0.328 0.414 0.394 0.714 0.593 0.898 0.593l0.035 0.067c0.024-0.133-0.012-0.266-0.105-0.395-0.114-0.179-0.184-0.289-0.207-0.332z" inkscape:connector-curvature="0"/>
      <path id="path270" style="fill-rule:evenodd;fill:#8e7353" d="m22.902 27.171c0.207 0.133 0.403 0.199 0.586 0.199l0.176-0.066c0.02-0.133 0.02-0.223 0-0.266-0.047-0.133-0.199-0.262-0.449-0.395h-0.07l-0.071-0.332v-0.128c0-0.176-0.035-0.309-0.101-0.399-0.047-0.086-0.118-0.152-0.207-0.195h-0.278c0 0.133 0.047 0.242 0.137 0.328 0.047 0.133 0.047 0.199 0 0.199h-0.066l-0.625-0.265c-0.321-0.129-0.446-0.086-0.379 0.132 0.023 0.086 0.183 0.219 0.484 0.395l0.344 0.265 0.105 0.133 0.071 0.196 0.171 0.132 0.172 0.067z" inkscape:connector-curvature="0"/>
      <path id="path272" style="fill-rule:evenodd;fill:#8e7353" d="m23.215 25.784c0.254 0.223 0.402 0.156 0.449-0.195 0.043-0.399-0.047-0.637-0.277-0.727-0.16-0.09-0.313-0.109-0.449-0.066-0.184 0.043-0.243 0.176-0.172 0.394 0.046 0.223 0.218 0.442 0.519 0.661l-0.07-0.067z" inkscape:connector-curvature="0"/>
      <path id="path274" style="fill-rule:evenodd;fill:#8e7353" d="m24.008 25.061h0.414c0-0.043-0.035-0.132-0.102-0.265-0.23 0-0.371-0.11-0.414-0.328-0.023-0.09 0.067-0.133 0.274-0.133l0.414 0.066 0.105 0.067c-0.117-0.485-0.265-0.77-0.449-0.86-0.137-0.086-0.23-0.019-0.277 0.2l-0.067 0.132c-0.023 0.086-0.129 0.153-0.312 0.196-0.278 0-0.344 0.199-0.207 0.593h-0.071c0.047 0.043 0.184 0.157 0.414 0.332 0.165 0.176 0.278 0.243 0.348 0.196l-0.07-0.196z" inkscape:connector-curvature="0"/>
      <path id="path276" style="fill-rule:evenodd;fill:#8e7353" d="m25.492 24.335c0.07-0.133 0.07-0.242 0-0.328-0.066-0.133-0.297-0.199-0.691-0.199l-0.031-0.133c0.019-0.043 0.113-0.086 0.273-0.133 0.141-0.043 0.129-0.152-0.031-0.328-0.117-0.133-0.254-0.156-0.418-0.067-0.16 0.086-0.227 0.243-0.207 0.461 0.07 0.266 0.254 0.485 0.554 0.66 0.254 0.133 0.438 0.153 0.551 0.067z" inkscape:connector-curvature="0"/>
      <path id="path278" style="fill-rule:evenodd;fill:#8e7353" d="m26.219 23.347c0.117 0 0.172-0.11 0.172-0.332-0.024-0.176-0.09-0.352-0.207-0.528-0.161-0.219-0.438-0.328-0.829-0.328h-0.136c-0.094 0-0.219 0.043-0.383 0.133-0.184 0.086-0.242 0.176-0.172 0.262l0.172 0.066c0.164 0.047 0.383 0.09 0.656 0.133 0.141 0.086 0.336 0.285 0.59 0.594h0.137z" inkscape:connector-curvature="0"/>
      <path id="path280" style="fill-rule:evenodd;fill:#8e7353" d="m26.703 23.479c-0.094 0-0.152 0.043-0.172 0.129-0.023 0.09 0 0.176 0.067 0.266l0.207 0.066c0.23 0 0.277-0.066 0.14-0.199l-0.035-0.066c-0.137 0-0.207-0.067-0.207-0.196z" inkscape:connector-curvature="0"/>
      <path id="path282" style="fill-rule:evenodd;fill:#8e7353" d="m26.703 23.479c0 0.129 0.07 0.196 0.207 0.196l0.278-0.067c0.273-0.218 0.332-0.703 0.171-1.449-0.117-0.484-0.277-0.75-0.484-0.793-0.047 0-0.125 0.043-0.242 0.133 0.023 0.086 0.023 0.156 0 0.199h-0.137c-0.141 0-0.242 0.02-0.312 0.067-0.09 0.043-0.102 0.171-0.036 0.394 0.047 0.219 0.129 0.371 0.243 0.461 0.07 0.047 0.171 0.109 0.312 0.199 0.137 0.086 0.184 0.196 0.137 0.328l-0.137 0.266v0.066z" inkscape:connector-curvature="0"/>
      <path id="path284" style="fill-rule:evenodd;fill:#8e7353" d="m26.875 20.311-0.102 0.067h-0.035l0.035 0.133 0.207 0.394c0.043 0.133 0.149 0.309 0.309 0.528 0.16 0.265 0.277 0.375 0.348 0.332 0.09 0 0.101-0.067 0.031-0.2h0.691c0.164-0.089 0.243-0.199 0.243-0.332l-0.036-0.129-0.929-0.398-0.348-0.262c-0.09-0.09-0.23-0.133-0.414-0.133z" inkscape:connector-curvature="0"/>
      <path id="path286" style="fill-rule:evenodd;fill:#8e7353" d="m30.125 20.05c0.066-0.266 0-0.442-0.211-0.528-0.137-0.089-0.332-0.132-0.586-0.132-0.16 0.086-0.172 0.261-0.035 0.527l0.07 0.133c0.137 0.176 0.379 0.261 0.727 0.261l0.035-0.261z" inkscape:connector-curvature="0"/>
      <path id="path288" style="fill-rule:evenodd;fill:#8e7353" d="m28.051 20.643c0.137 0.086 0.308 0.129 0.519 0.129l0.239 0.133c0.441 0.309 0.679 0.418 0.726 0.328 0.07-0.129-0.07-0.418-0.414-0.855l-0.137-0.199-0.277-0.262c-0.348-0.352-0.656-0.504-0.934-0.461l0.071 0.262c-0.16 0-0.242 0.066-0.242 0.199-0.024 0.176 0.023 0.309 0.136 0.394 0.141 0.176 0.278 0.266 0.414 0.266l-0.101 0.066z" inkscape:connector-curvature="0"/>
      <path id="path290" style="fill-rule:evenodd;fill:#8e7353" d="m29.812 19.19c0.368 0.133 0.528 0.043 0.485-0.261-0.07-0.309-0.223-0.375-0.449-0.2l-0.176 0.133 0.035-0.066c-0.137-0.223-0.16-0.395-0.066-0.528 0.089-0.132 0.089-0.308 0-0.527-0.418-0.09-0.59 0.11-0.52 0.594 0.07 0.394 0.219 0.656 0.449 0.789l0.242 0.066z" inkscape:connector-curvature="0"/>
      <path id="path292" style="fill-rule:evenodd;fill:#8e7353" d="m29.984 17.675c0.024 0.133 0.114 0.261 0.278 0.394 0.183 0.223 0.402 0.395 0.656 0.528v-0.196c-0.07-0.355-0.207-0.617-0.414-0.793l-0.242-0.132c-0.231-0.086-0.324-0.024-0.278 0.199z" inkscape:connector-curvature="0"/>
      <path id="path294" style="fill-rule:evenodd;fill:#8e7353" d="m31.02 19.257c0.14 0.09 0.253 0.09 0.347 0 0.067-0.133 0.078-0.266 0.035-0.395-0.047-0.176-0.14-0.242-0.277-0.199-0.094 0-0.16 0.047-0.207 0.133-0.047 0.133-0.059 0.242-0.035 0.328l0.137 0.133z" inkscape:connector-curvature="0"/>
      <path id="path296" style="fill-rule:evenodd;fill:#8e7353" d="m31.504 17.741-0.863-0.199c0.183 0.351 0.367 0.527 0.554 0.527v-0.199c0.184 0 0.285-0.043 0.309-0.129z" inkscape:connector-curvature="0"/>
      <path id="path298" style="fill-rule:evenodd;fill:#8e7353" d="m19.449 24.069h-0.277l-0.793-0.195-0.277-0.133h-0.106c-0.137-0.086-0.262-0.086-0.379 0l0.278 0.266 2.277 1.316-0.067-0.394c0.137-0.133 0.172-0.352 0.102-0.661-0.09-0.351-0.254-0.503-0.48-0.46-0.094 0.132-0.188 0.218-0.278 0.261z" inkscape:connector-curvature="0"/>
      <path id="path300" style="fill-rule:evenodd;fill:#8e7353" d="m20.348 24.007 0.308 0.062c0.278 0 0.383-0.218 0.313-0.656-0.071-0.441-0.266-0.66-0.586-0.66h-0.106l-0.277 0.133c0 0.129-0.023 0.195-0.066 0.195-0.024 0.043-0.207 0.066-0.555 0.066 0.07 0.176 0.183 0.332 0.348 0.461 0.136 0.133 0.343 0.266 0.621 0.399z" inkscape:connector-curvature="0"/>
      <path id="path302" style="fill-rule:evenodd;fill:#8e7353" d="m20.52 22.354 0.242 0.067c0.113 0.09 0.16 0.199 0.136 0.332 0.094 0.133 0.254 0.219 0.485 0.262l-0.071-0.129c0.165 0 0.266-0.11 0.313-0.332 0.07-0.219-0.012-0.371-0.242-0.461-0.137-0.086-0.344-0.133-0.621-0.133h-0.828l-0.207 0.066-0.176 0.133 0.035 0.067v0.066c0.117 0.129 0.426 0.152 0.934 0.062z" inkscape:connector-curvature="0"/>
      <path id="path304" style="fill-rule:evenodd;fill:#8e7353" d="m21.969 22.753c0.394-0.043 0.472-0.176 0.242-0.399-0.09-0.128-0.219-0.152-0.379-0.062-0.16 0.086-0.172 0.219-0.035 0.394l0.172 0.067z" inkscape:connector-curvature="0"/>
      <path id="path306" style="fill-rule:evenodd;fill:#8e7353" d="m20.863 21.171 0.035 0.062c0.301 0.442 0.829 0.594 1.59 0.465l0.071-0.199c0.043-0.043 0.054-0.109 0.031-0.199-0.02-0.086-0.113-0.129-0.274-0.129-0.347-0.133-0.714-0.156-1.105-0.067-0.207 0-0.324 0.02-0.348 0.067z" inkscape:connector-curvature="0"/>
      <path id="path308" style="fill-rule:evenodd;fill:#8e7353" d="m23.18 20.706c0.113-0.043 0.16-0.172 0.136-0.395-0.046-0.218-0.125-0.371-0.242-0.46-0.297-0.176-0.449-0.176-0.449 0-0.023 0.042 0.035 0.218 0.176 0.527-0.461 0-0.692 0.023-0.692 0.066 0.043 0.262 0.254 0.485 0.621 0.66l0.071-0.066c0.32 0 0.449-0.113 0.379-0.332z" inkscape:connector-curvature="0"/>
      <path id="path310" style="fill-rule:evenodd;fill:#8e7353" d="m24.355 19.522c-0.093-0.175-0.175-0.265-0.242-0.265l-0.277 0.265 0.207-0.332-0.035-0.066c-0.137-0.043-0.344-0.066-0.621-0.066-0.301 0-0.438 0.066-0.414 0.199 0.023 0.09 0.218 0.219 0.586 0.394h-0.243l0.071 0.133h0.726c0.207 0 0.285-0.066 0.242-0.199v-0.063z" inkscape:connector-curvature="0"/>
      <path id="path312" style="fill-rule:evenodd;fill:#8e7353" d="m25.391 18.796c0.066-0.043 0.089-0.133 0.066-0.266-0.023-0.129-0.043-0.242-0.066-0.328l-0.797 0.527c0.347 0.309 0.59 0.329 0.726 0.067h0.071z" inkscape:connector-curvature="0"/>
      <path id="path314" style="fill-rule:evenodd;fill:#8e7353" d="m24.457 17.87c0 0.047-0.023 0.109-0.07 0.199-0.043 0.043-0.055 0.133-0.032 0.266l0.067 0.195 0.379-0.527c0.164-0.262 0.437-0.551 0.832-0.856-0.071-0.043-0.164 0-0.278 0.133-0.07 0.129-0.117 0.196-0.136 0.196-0.047-0.043-0.129-0.067-0.242-0.067-0.391-0.176-0.59-0.109-0.59 0.199l0.07 0.262z" inkscape:connector-curvature="0"/>
      <path id="path316" style="fill-rule:evenodd;fill:#8e7353" d="m25.699 16.093 0.176 0.129h0.137l0.207-0.528h-0.52c-0.32 0-0.504 0.024-0.551 0.067l0.52 0.332h0.031z" inkscape:connector-curvature="0"/>
      <path id="path318" style="fill-rule:evenodd;fill:#8e7353" d="m26.047 14.507c0.094 0.133 0.277 0.375 0.551 0.726 0.187-0.175 0.289-0.328 0.312-0.461l-0.277-0.328c-0.137-0.133-0.309-0.246-0.516-0.332-0.23-0.086-0.265 0.024-0.105 0.332l0.035 0.063z" inkscape:connector-curvature="0"/>
    </g>
  </g>
<metadata><rdf:RDF><cc:Work><dc:format>image/svg+xml</dc:format><dc:type rdf:resource="http://purl.org/dc/dcmitype/StillImage"/><cc:license rdf:resource="http://creativecommons.org/licenses/publicdomain/"/><dc:publisher><cc:Agent rdf:about="http://openclipart.org/"><dc:title>Openclipart</dc:title></cc:Agent></dc:publisher></cc:Work><cc:License rdf:about="http://creativecommons.org/licenses/publicdomain/"><cc:permits rdf:resource="http://creativecommons.org/ns#Reproduction"/><cc:permits rdf:resource="http://creativecommons.org/ns#Distribution"/><cc:permits rdf:resource="http://creativecommons.org/ns#DerivativeWorks"/></cc:License></rdf:RDF></metadata></svg>
