<?xml version="1.0" encoding="UTF-8" standalone="no"?>
<!-- Created with Inkscape (http://www.inkscape.org/) -->

<svg
   xmlns:dc="http://purl.org/dc/elements/1.1/"
   xmlns:cc="http://creativecommons.org/ns#"
   xmlns:rdf="http://www.w3.org/1999/02/22-rdf-syntax-ns#"
   xmlns:svg="http://www.w3.org/2000/svg"
   xmlns="http://www.w3.org/2000/svg"
   xmlns:sodipodi="http://sodipodi.sourceforge.net/DTD/sodipodi-0.dtd"
   xmlns:inkscape="http://www.inkscape.org/namespaces/inkscape"
   version="1.1"
   width="718.43439"
   height="530.26465"
   id="svg2"
   sodipodi:docname="monarch-butterfly-isolated.svg"
   inkscape:version="0.92.2 5c3e80d, 2017-08-06">
  <sodipodi:namedview
     pagecolor="#ffffff"
     bordercolor="#666666"
     borderopacity="1"
     objecttolerance="10"
     gridtolerance="10"
     guidetolerance="10"
     inkscape:pageopacity="0"
     inkscape:pageshadow="2"
     inkscape:window-width="743"
     inkscape:window-height="480"
     id="namedview5259"
     showgrid="false"
     fit-margin-top="0"
     fit-margin-left="0"
     fit-margin-right="0"
     fit-margin-bottom="0"
     inkscape:zoom="0.34800121"
     inkscape:cx="284.53937"
     inkscape:cy="121.59363"
     inkscape:window-x="0"
     inkscape:window-y="0"
     inkscape:window-maximized="0"
     inkscape:current-layer="g4852" />
  <defs
     id="defs4" />
  <metadata
     id="metadata7">
    <rdf:RDF>
      <cc:Work
         rdf:about="">
        <dc:format>image/svg+xml</dc:format>
        <dc:type
           rdf:resource="http://purl.org/dc/dcmitype/StillImage" />
        <dc:title></dc:title>
        <dc:creator>
          <cc:Agent>
            <dc:title>j4p4n</dc:title>
          </cc:Agent>
        </dc:creator>
        <cc:license
           rdf:resource="http://creativecommons.org/publicdomain/zero/1.0/" />
      </cc:Work>
      <cc:License
         rdf:about="http://creativecommons.org/publicdomain/zero/1.0/">
        <cc:permits
           rdf:resource="http://creativecommons.org/ns#Reproduction" />
        <cc:permits
           rdf:resource="http://creativecommons.org/ns#Distribution" />
        <cc:permits
           rdf:resource="http://creativecommons.org/ns#DerivativeWorks" />
      </cc:License>
    </rdf:RDF>
  </metadata>
  <g
     transform="translate(915.6151,28.080361)"
     id="layer1">
    <g
       transform="matrix(1.25,0,0,-1.25,0,2104.7244)"
       id="g4059" />
    <g
       transform="matrix(1.25,0,0,-1.25,-262.30848,813.92789)"
       id="g4852">
      <g
         id="g5287"
         transform="matrix(2,0,0,2,235.27154,-461.50074)">
        <path
           inkscape:connector-curvature="0"
           style="fill:#000000;fill-opacity:1;fill-rule:evenodd;stroke:none"
           id="path4866"
           d="m -227.68577,487.89935 c 1.5296,-1.8814 2.3925,-4.758 2.1453,-7.1725 7.9565,9.8969 15.5602,19.0117 22.229,26.0909 24.0715,25.5546 53.886,49.3574 86.4017,59.6228 15.8559,5.0057 28.845297,-7.6215 24.464997,-22.8781 -3.5448,-12.346 -14.896697,-26.8297 -15.542397,-35.2389 -0.9128,-11.8956 -5.639,-34.4651 -10.7875,-46.9491 -5.0551,-12.2596 -16.3318,-14.7912 -27.2305,-15.5112 13.2429,-7.6076 28.0987,-21.6213 21.9937,-40.5658 -8.009,-25.1552 -50.5992,-64.6429 -72.2715,-44.1547 -13.449,12.7128 -23.9185,31.3098 -31.7432,50.569 -0.5437,-7.7304 -1.4582,-13.284 -2.0486,-17.3716 -2.0277,-14.0312 -8.3041,-14.0315 -10.3938,9e-4 -0.6083,4.085 -1.5049,9.6414 -2.0483,17.3718 -7.8248,-19.2589 -18.2943,-37.8573 -31.7433,-50.5701 -21.6725,-20.4882 -64.2628,18.9995 -72.2718,44.1547 -6.1047,18.9445 8.7508,32.9582 21.994,40.5658 -10.8986,0.72 -22.1757,3.2516 -27.2304,15.5112 -5.1486,12.484 -9.8748,35.0535 -10.7876,46.9491 -0.646,8.4092 -11.9979,22.8929 -15.5423,35.2389 -4.3804,15.2566 8.6091,27.8838 24.4647,22.8781 32.5159,-10.2654 62.3304,-34.0682 86.402,-59.6228 6.6546,-7.0639 14.2398,-16.1549 22.1777,-26.0268 -0.3453,2.5636 0.5431,5.1511 2.1897,7.1274 -6.7606,16.9818 -15.3944,30.7732 -26.4257,45.2795 -3.5722,4.0419 1.8187,8.0688 5.0414,3.6451 10.7037,-14.6923 18.3439,-29.1881 25.2049,-46.0673 2.3969,1.0089 5.1465,1.0029 7.5427,-0.008 6.8641,16.8871 14.5043,31.3829 25.2079,46.0752 3.2227,4.4237 8.6136,0.3968 5.0414,-3.6451 -11.0313,-14.5063 -19.6651,-28.2977 -26.4342,-45.2985" />
        <path
           inkscape:connector-curvature="0"
           style="fill:#ff8000;fill-opacity:1;fill-rule:evenodd;stroke:none"
           id="path4868"
           d="m -340.31957,496.38685 c 15.2246,0.9992 28.9001,0.6041 44.6774,-2.7601 5.6498,-5.0117 12.0816,-9.9729 19.2073,-14.94 -21.0504,2.5826 -42.2334,2.6923 -63.3589,1.0213 -0.6298,5.4343 -0.7611,11.2108 -0.5258,16.6788" />
        <path
           inkscape:connector-curvature="0"
           style="fill:#ff8000;fill-opacity:1;fill-rule:evenodd;stroke:none"
           id="path4870"
           d="m -313.46217,515.08445 c 2.2408,-4.9326 6.245,-10.1741 11.5237,-15.5426 -12.5677,2.1282 -25.3896,2.3558 -38.0871,1.5083 0.3588,4.3078 0.9385,8.2788 1.6656,11.5477 1.8581,8.3489 15.1946,6.9347 24.8978,2.4866" />
        <path
           inkscape:connector-curvature="0"
           style="fill:#ff8000;fill-opacity:1;fill-rule:evenodd;stroke:none"
           id="path4872"
           d="m -241.88647,462.57885 c -7.5889,4.2415 -15.0591,8.6944 -22.3716,13.3977 -21.8591,14.061 -40.4303,29.2785 -45.6256,41.7053 -0.7566,17.932 23.7396,-4.8053 27.3784,-8.4059 13.7611,-13.6156 29.3071,-31.6995 40.6188,-46.6971" />
        <path
           inkscape:connector-curvature="0"
           style="fill:#ff8000;fill-opacity:1;fill-rule:evenodd;stroke:none"
           id="path4874"
           d="m -347.65247,553.76715 c 5.851,-1.188 19.2631,-6.6407 16.664,-13.4722 -3.1153,-8.1927 -11.5347,-18.7158 -15.5563,-14.923 -6.4499,6.0837 -7.7354,16.0934 -7.1855,22.4702 0.4683,5.4315 2.4999,6.6512 6.0778,5.925" />
        <path
           inkscape:connector-curvature="0"
           style="fill:#ff8000;fill-opacity:1;fill-rule:evenodd;stroke:none"
           id="path4876"
           d="m -122.89087,553.76715 c -5.8507,-1.188 -19.2629,-6.6407 -16.6641,-13.4722 3.1156,-8.1927 11.5351,-18.7158 15.5566,-14.923 6.4499,6.0837 7.7354,16.0934 7.1855,22.4702 -0.4683,5.4315 -2.4999,6.6512 -6.078,5.925" />
        <path
           inkscape:connector-curvature="0"
           style="fill:#ff8000;fill-opacity:1;fill-rule:evenodd;stroke:none"
           id="path4878"
           d="m -228.65687,462.57855 c 7.5894,4.2404 15.0593,8.695 22.3721,13.398 21.8591,14.061 40.4303,29.2785 45.6253,41.7058 0.7546,17.9297 -23.7395,-4.8058 -27.3784,-8.4064 -13.7613,-13.6159 -29.3077,-31.6998 -40.619,-46.6974" />
        <path
           inkscape:connector-curvature="0"
           style="fill:#ff8000;fill-opacity:1;fill-rule:evenodd;stroke:none"
           id="path4880"
           d="m -157.08207,515.08415 c -2.2411,-4.9323 -6.2479,-10.1738 -11.526,-15.5423 12.5685,2.1282 25.3922,2.3558 38.0906,1.5083 -0.3586,4.3078 -0.9389,8.2788 -1.6657,11.5477 -1.8581,8.3495 -15.1948,6.9344 -24.8989,2.4863" />
        <path
           inkscape:connector-curvature="0"
           style="fill:#ff8000;fill-opacity:1;fill-rule:evenodd;stroke:none"
           id="path4882"
           d="m -194.10967,478.68675 c 21.0518,2.643 42.2351,2.7635 63.3603,1.0213 0.6301,5.4343 0.7608,11.211 0.5252,16.6788 -14.6349,0.8986 -30.2181,0.7206 -44.5274,-2.6589 -5.6497,-5.0119 -12.2315,-10.0741 -19.3581,-15.0412" />
        <path
           inkscape:connector-curvature="0"
           style="fill:#ff8000;fill-opacity:1;fill-rule:evenodd;stroke:none"
           id="path4884"
           d="m -131.42207,475.11225 c -23.8821,2.0256 -47.749,1.4876 -71.4523,-2.3176 -7.5422,-4.8949 -17.6307,-11.1949 -25.4662,-15.6036 23.33,-3.7879 55.1755,-6.7847 83.7887,-3.276 7.2525,0.8895 11.2703,10.8244 13.1298,21.1972" />
        <path
           inkscape:connector-curvature="0"
           style="fill:#ff8000;fill-opacity:1;fill-rule:evenodd;stroke:none"
           id="path4886"
           d="m -339.12107,475.18875 c 23.8822,2.0254 47.749,1.4874 71.4523,-2.3178 7.5422,-4.8946 17.6307,-11.1949 25.4662,-15.6036 -23.3297,-3.7877 -55.1755,-6.7845 -83.7887,-3.276 -7.2524,0.8898 -11.2703,10.8243 -13.1298,21.1974" />
        <path
           inkscape:connector-curvature="0"
           style="fill:#ff8000;fill-opacity:1;fill-rule:evenodd;stroke:none"
           id="path4888"
           d="m -184.79357,445.08825 c 6.438,-0.2874 12.9106,-0.3835 19.3759,-0.2795 5.3201,-1.9219 8.7511,-2.6419 13.2469,-5.7401 4.3449,-2.9954 7.4248,-9.2895 8.9725,-15.7822 -5.7427,3.7369 -25.0093,12.4682 -30.6264,13.2891 -4.0309,4.013 -7.1124,6.1415 -10.9689,8.5127" />
        <path
           inkscape:connector-curvature="0"
           style="fill:#ff8000;fill-opacity:1;fill-rule:evenodd;stroke:none"
           id="path4890"
           d="m -205.76657,446.71135 c 3.4458,-0.3812 6.9148,-0.7072 10.4012,-0.9782 10.2744,-5.1749 26.3392,-14.3147 24.8989,-27.9658 -0.2897,-2.7538 -1.1613,-2.8394 -4.0997,-1.7002 -2.2916,0.9972 -5.0602,2.9378 -8.0184,5.4249 -8.3741,7.039 -18.0419,18.1894 -23.182,25.2193" />
        <path
           inkscape:connector-curvature="0"
           style="fill:#ff8000;fill-opacity:1;fill-rule:evenodd;stroke:none"
           id="path4892"
           d="m -142.21557,417.35495 c 0.5939,-6.4335 -0.1525,-10.5256 -4.2417,-15.9177 -5.504,6.3148 -11.7712,12.9382 -19.6798,17.4291 0.138,4.254 -0.9905,8.0666 -2.9271,11.4749 9.1383,-3.5589 18.6112,-7.6603 26.8486,-12.9863" />
        <path
           inkscape:connector-curvature="0"
           style="fill:#ff8000;fill-opacity:1;fill-rule:evenodd;stroke:none"
           id="path4894"
           d="m -149.22727,397.88435 c -3.187,-3.7755 -7.0203,-7.3885 -11.1566,-10.5905 -3.8282,8.4381 -9.0621,16.4412 -14.3459,23.9411 3.1983,-1.2121 6.3125,-0.2296 7.7097,2.9197 6.9023,-4.1531 12.594,-10.317 17.7928,-16.2703" />
        <path
           inkscape:connector-curvature="0"
           style="fill:#ff8000;fill-opacity:1;fill-rule:evenodd;stroke:none"
           id="path4896"
           d="m -216.77267,448.12645 c 1.7402,-0.2554 3.4886,-0.4969 5.2441,-0.724 7.2768,-10.7076 17.2111,-21.6238 26.6976,-29.8471 14.8008,-19.1245 19.7387,-30.2746 20.8845,-32.8646 -4.4578,-3.0733 -9.1364,-5.618 -13.6466,-7.3562 -11.482,24.4032 -24.0139,48.5218 -39.1796,70.7919" />
        <path
           inkscape:connector-curvature="0"
           style="fill:#ff8000;fill-opacity:1;fill-rule:evenodd;stroke:none"
           id="path4898"
           d="m -226.34807,449.68975 c 1.1953,-0.2149 2.3953,-0.4238 3.5991,-0.6248 16.0648,-22.8288 29.1138,-47.8411 41.0295,-73.1026 -7.5132,-2.0815 -14.1675,-1.5072 -17.9696,3.1793 -0.3544,0.436 -0.7047,0.8773 -1.0534,1.3215 -6.7025,23.692 -15.5806,46.7515 -25.6056,69.2266" />
        <path
           inkscape:connector-curvature="0"
           style="fill:#ff8000;fill-opacity:1;fill-rule:evenodd;stroke:none"
           id="path4900"
           d="m -208.74127,392.10075 c -8.3985,13.8654 -14.6968,29.9234 -19.3907,45.601 -0.0173,1.8428 -0.0459,3.6913 -0.0839,5.54 7.2998,-16.7193 13.9198,-33.7598 19.4746,-51.141" />
        <path
           inkscape:connector-curvature="0"
           style="fill:#ff8000;fill-opacity:1;fill-rule:evenodd;stroke:none"
           id="path4902"
           d="m -242.32727,443.23975 c -7.3037,-16.7147 -13.9201,-33.7597 -19.474,-51.1381 8.3985,13.8657 14.6962,29.9231 19.3901,45.6001 0.017,1.8419 0.0459,3.6901 0.0839,5.538" />
        <path
           inkscape:connector-curvature="0"
           style="fill:#ff8000;fill-opacity:1;fill-rule:evenodd;stroke:none"
           id="path4904"
           d="m -247.79447,449.06495 c -16.06,-22.8291 -29.116,-47.8414 -41.0298,-73.1026 7.5135,-2.0807 14.1684,-1.5072 17.9703,3.1793 0.3543,0.4362 0.7058,0.8779 1.0542,1.3226 6.7028,23.6931 15.588,46.7484 25.6067,69.2252 -1.1959,-0.2149 -2.3967,-0.4229 -3.6014,-0.6245" />
        <path
           inkscape:connector-curvature="0"
           style="fill:#ff8000;fill-opacity:1;fill-rule:evenodd;stroke:none"
           id="path4906"
           d="m -259.01487,447.40245 c -4.3866,-6.8017 -16.3054,-21.1124 -26.3511,-29.558 -7.9302,-10.3997 -15.8068,-21.0699 -21.2315,-33.1537 4.458,-3.0725 9.1369,-5.6194 13.6471,-7.3562 11.3939,24.4531 24.0877,48.5209 39.1796,70.7919 -1.7402,-0.2554 -3.4883,-0.4969 -5.2441,-0.724" />
        <path
           inkscape:connector-curvature="0"
           style="fill:#ff8000;fill-opacity:1;fill-rule:evenodd;stroke:none"
           id="path4908"
           d="m -275.17797,445.73315 c -10.2745,-5.1749 -26.339,-14.3147 -24.8987,-27.9658 0.2897,-2.7538 1.4114,-2.8403 4.0998,-1.7008 2.2915,0.9978 5.0598,2.9384 8.0183,5.4255 8.3736,7.0399 18.0408,18.1894 23.1815,25.2193 -3.4461,-0.3815 -6.9149,-0.7081 -10.4009,-0.9782" />
        <path
           inkscape:connector-curvature="0"
           style="fill:#ff8000;fill-opacity:1;fill-rule:evenodd;stroke:none"
           id="path4910"
           d="m -310.16007,387.29385 c 3.8293,8.4463 9.0748,16.4239 14.3442,23.9411 -3.3968,-1.1123 -6.3125,-0.2279 -7.7094,2.92 -6.9012,-4.0907 -12.5915,-10.2476 -17.7908,-16.2715 3.1875,-3.7743 7.0197,-7.3885 11.156,-10.5896" />
        <path
           inkscape:connector-curvature="0"
           style="fill:#ff8000;fill-opacity:1;fill-rule:evenodd;stroke:none"
           id="path4912"
           d="m -324.08607,401.43665 c 5.6936,6.5682 11.9809,13.2191 19.6786,17.43 -0.1383,4.2542 0.9899,8.0666 2.9257,11.4746 -8.2415,-3.1492 -20.6856,-8.7519 -26.8461,-12.986 -0.4292,-4.6525 0.0156,-8.8991 1.4434,-11.5019 0.8096,-1.4751 1.7498,-2.9514 2.7984,-4.4167" />
        <path
           inkscape:connector-curvature="0"
           style="fill:#ff8000;fill-opacity:1;fill-rule:evenodd;stroke:none"
           id="path4914"
           d="m -327.34457,423.28645 c 2.5671,1.6478 16.0172,8.8945 30.509,13.4827 3.1709,3.2678 7.0132,6.0066 10.836,8.3078 -6.3552,-0.2784 -12.7442,-0.3705 -19.1256,-0.2682 -5.3206,-1.9219 -8.7514,-2.6419 -13.2471,-5.7401 -4.345,-2.9951 -7.4251,-9.2897 -8.9723,-15.7822" />
        <path
           inkscape:connector-curvature="0"
           style="fill:#ffffff;fill-opacity:1;fill-rule:evenodd;stroke:none"
           id="path4916"
           d="m -286.41647,369.04745 c -2.5813,0 -4.6857,-2.105 -4.6857,-4.6856 0,-2.5813 2.1044,-4.686 4.6857,-4.686 2.5809,0 4.6854,2.1047 4.6854,4.686 0,2.5806 -2.1045,4.6856 -4.6854,4.6856 z m -14.3805,2.4081 c -2.5812,0 -4.6856,-2.1053 -4.6856,-4.6866 0,-2.5801 2.1044,-4.6856 4.6856,-4.6856 2.5801,0 4.6857,2.1055 4.6857,4.6856 0,2.5813 -2.1056,4.6866 -4.6857,4.6866 z m -12.2689,7.9914 c -2.5806,0 -4.6859,-2.1045 -4.6859,-4.6857 0,-2.5809 2.1053,-4.6854 4.6859,-4.6854 2.5807,0 4.6857,2.1045 4.6857,4.6854 0,2.5812 -2.105,4.6857 -4.6857,4.6857 z m -24.0349,48.6391 c -2.581,0 -4.6854,-2.1056 -4.6854,-4.6862 0,-2.5807 2.1044,-4.6854 4.6854,-4.6854 2.5812,0 4.6856,2.1047 4.6856,4.6854 0,2.5806 -2.1044,4.6862 -4.6856,4.6862 z m 25.2771,109.4091 c -2.5787,-0.0944 -4.6055,-2.2751 -4.5111,-4.854 0.0944,-2.579 2.2751,-4.6058 4.8538,-4.5114 2.5792,0.0944 4.6057,2.2745 4.5113,4.8538 -0.0941,2.5795 -2.2745,4.606 -4.854,4.5116 z m -10.9965,7.636 c -2.5792,-0.0944 -4.606,-2.2751 -4.5116,-4.8541 0.0944,-2.5795 2.2748,-4.6057 4.854,-4.5113 2.5793,0.0944 4.6052,2.2745 4.5114,4.854 -0.0944,2.579 -2.2751,4.6058 -4.8538,4.5114 z m -1.1971,-13.1273 c -2.5795,-0.0944 -4.6057,-2.2751 -4.5113,-4.854 0.0938,-2.579 2.2745,-4.6058 4.8535,-4.5114 2.5795,0.0944 4.6063,2.2751 4.5113,4.8541 -0.0944,2.579 -2.2748,4.6057 -4.8535,4.5113 z m -33.4992,30.9986 c -2.5807,0 -4.6857,-2.105 -4.6857,-4.6857 0,-2.5812 2.105,-4.6859 4.6857,-4.6859 2.5809,0 4.6859,2.1047 4.6859,4.6859 0,2.5807 -2.105,4.6857 -4.6859,4.6857 z m -12.4368,-4.3401 c -2.5812,0 -4.6862,-2.1045 -4.6862,-4.6857 0,-2.581 2.105,-4.6857 4.6862,-4.6857 2.5807,0 4.6854,2.1047 4.6854,4.6857 0,2.5812 -2.1047,4.6857 -4.6854,4.6857 z m 2.8724,-13.7036 c -2.581,0 -4.6854,-2.1047 -4.6854,-4.6859 0,-2.5807 2.1044,-4.6857 4.6854,-4.6857 2.5807,0 4.6857,2.105 4.6857,4.6857 0,2.5812 -2.105,4.6859 -4.6857,4.6859 z m 6.2476,-12.4954 c -2.5807,0 -4.686,-2.105 -4.686,-4.6856 0,-2.581 2.1053,-4.686 4.686,-4.686 2.5806,0 4.6856,2.105 4.6856,4.686 0,2.5806 -2.105,4.6856 -4.6856,4.6856 z m 5.3552,-12.4954 c -2.5807,0 -4.686,-2.105 -4.686,-4.6859 0,-2.5804 2.1053,-4.6857 4.686,-4.6857 2.5806,0 4.6856,2.1053 4.6856,4.6857 0,2.5809 -2.105,4.6859 -4.6856,4.6859 z m 2.2314,-14.1483 c -2.5812,0 -4.6857,-2.1053 -4.6857,-4.6859 0,-2.5807 2.1045,-4.6862 4.6857,-4.6862 2.5809,0 4.6857,2.1055 4.6857,4.6862 0,2.5806 -2.1048,4.6859 -4.6857,4.6859 z m 2.6776,-13.8344 c -2.5812,0 -4.6857,-2.1051 -4.6857,-4.686 0,-2.5807 2.1045,-4.6857 4.6857,-4.6857 2.5809,0 4.6854,2.105 4.6854,4.6857 0,2.5809 -2.1045,4.686 -4.6854,4.686 z m 2.9911,-13.834 c -2.5809,0 -4.6856,-2.1053 -4.6856,-4.6865 0,-2.5801 2.1047,-4.6857 4.6856,-4.6857 2.5807,0 4.6854,2.1056 4.6854,4.6857 0,2.5812 -2.1047,4.6865 -4.6854,4.6865 z m 8.6222,-64.4062 c -2.581,0 -4.686,-2.1053 -4.686,-4.6866 0,-2.5801 2.105,-4.6853 4.686,-4.6853 2.5806,0 4.6856,2.1052 4.6856,4.6853 0,2.5813 -2.105,4.6866 -4.6856,4.6866 z m 6.1166,-13.1831 c -2.5807,0 -4.6857,-2.105 -4.6857,-4.6857 0,-2.5812 2.105,-4.6859 4.6857,-4.6859 2.5809,0 4.6859,2.1047 4.6859,4.6859 0,2.5807 -2.105,4.6857 -4.6859,4.6857 z m 9.0955,-11.287 c -2.581,0 -4.686,-2.1047 -4.686,-4.6857 0,-2.5812 2.105,-4.6857 4.686,-4.6857 2.5804,0 4.6857,2.1045 4.6857,4.6857 0,2.581 -2.1053,4.6857 -4.6857,4.6857 z m 139.6171,-20.2275 c 2.5812,0 4.6856,-2.105 4.6856,-4.6856 0,-2.5813 -2.1044,-4.686 -4.6856,-4.686 -2.581,0 -4.6857,2.1047 -4.6857,4.686 0,2.5806 2.1047,4.6856 4.6857,4.6856 z m 14.3804,2.4081 c 2.5812,0 4.6857,-2.1053 4.6857,-4.6866 0,-2.5801 -2.1045,-4.6856 -4.6857,-4.6856 -2.5807,0 -4.6857,2.1055 -4.6857,4.6856 0,2.5813 2.105,4.6866 4.6857,4.6866 z m 12.2689,7.9914 c 2.5807,0 4.686,-2.1045 4.686,-4.6857 0,-2.5809 -2.1053,-4.6854 -4.686,-4.6854 -2.5806,0 -4.6857,2.1045 -4.6857,4.6854 0,2.5812 2.1051,4.6857 4.6857,4.6857 z m 24.0347,48.6391 c 2.5812,0 4.6857,-2.1056 4.6857,-4.6862 0,-2.5807 -2.1045,-4.6854 -4.6857,-4.6854 -2.581,0 -4.6857,2.1047 -4.6857,4.6854 0,2.5806 2.1047,4.6862 4.6857,4.6862 z m -25.2768,109.4094 c 2.5786,-0.0944 4.6054,-2.2754 4.511,-4.8543 -0.0944,-2.579 -2.2751,-4.6058 -4.8537,-4.5114 -2.5796,0.0944 -4.6063,2.2748 -4.5119,4.8538 0.0944,2.5795 2.275,4.6063 4.8546,4.5119 z m 10.9964,7.6357 c 2.5793,-0.0944 4.6057,-2.2751 4.5114,-4.8541 -0.0944,-2.5795 -2.2743,-4.6063 -4.8538,-4.5119 -2.5793,0.0944 -4.6055,2.2751 -4.5111,4.8546 0.0944,2.579 2.2743,4.6058 4.8535,4.5114 z m 1.1971,-13.1276 c 2.5795,-0.0943 4.6063,-2.2742 4.5119,-4.8532 -0.0944,-2.5795 -2.2757,-4.6057 -4.8546,-4.5113 -2.579,0.0944 -4.6058,2.274 -4.5114,4.8535 0.0944,2.579 2.2754,4.6054 4.8541,4.511 z m 33.4993,30.9989 c 2.5806,0 4.6856,-2.105 4.6856,-4.6857 0,-2.5812 -2.105,-4.6859 -4.6856,-4.6859 -2.5813,0 -4.686,2.1047 -4.686,4.6859 0,2.5807 2.1047,4.6857 4.686,4.6857 z m 12.4367,-4.3401 c 2.581197,0 4.686197,-2.1045 4.686197,-4.6857 0,-2.581 -2.105,-4.6857 -4.686197,-4.6857 -2.5807,0 -4.6857,2.1047 -4.6857,4.6857 0,2.5812 2.105,4.6857 4.6857,4.6857 z m -2.8726,-13.7036 c 2.5812,0 4.685597,-2.1047 4.685597,-4.6859 0,-2.5807 -2.104397,-4.6857 -4.685597,-4.6857 -2.5807,0 -4.6857,2.105 -4.6857,4.6857 0,2.5812 2.105,4.6859 4.6857,4.6859 z m -6.2473,-12.4954 c 2.5806,0 4.6859,-2.105 4.6859,-4.6856 0,-2.581 -2.1053,-4.686 -4.6859,-4.686 -2.581,0 -4.6857,2.105 -4.6857,4.686 0,2.5806 2.1047,4.6856 4.6857,4.6856 z m -5.3552,-12.4954 c 2.5806,0 4.6859,-2.105 4.6859,-4.6859 0,-2.5804 -2.1053,-4.6857 -4.6859,-4.6857 -2.5807,0 -4.6857,2.1053 -4.6857,4.6857 0,2.5809 2.105,4.6859 4.6857,4.6859 z m -2.2315,-14.1483 c 2.5813,0 4.6857,-2.1053 4.6857,-4.6859 0,-2.5807 -2.1044,-4.6862 -4.6857,-4.6862 -2.5809,0 -4.6856,2.1055 -4.6856,4.6862 0,2.5806 2.1047,4.6859 4.6856,4.6859 z m -2.6776,-13.8344 c 2.5813,0 4.6857,-2.1051 4.6857,-4.686 0,-2.5807 -2.1044,-4.6857 -4.6857,-4.6857 -2.5809,0 -4.6856,2.105 -4.6856,4.6857 0,2.5809 2.1047,4.686 4.6856,4.686 z m -2.9911,-13.834 c 2.5807,0 4.6857,-2.1053 4.6857,-4.6865 0,-2.5801 -2.105,-4.6857 -4.6857,-4.6857 -2.5807,0 -4.6857,2.1056 -4.6857,4.6857 0,2.5812 2.105,4.6865 4.6857,4.6865 z m -8.6221,-64.4062 c 2.5809,0 4.6859,-2.1053 4.6859,-4.6866 0,-2.5801 -2.105,-4.6853 -4.6859,-4.6853 -2.581,0 -4.6857,2.1052 -4.6857,4.6853 0,2.5813 2.1047,4.6866 4.6857,4.6866 z m -6.1166,-13.1831 c 2.5806,0 4.6856,-2.105 4.6856,-4.6857 0,-2.5812 -2.105,-4.6859 -4.6856,-4.6859 -2.5813,0 -4.6863,2.1047 -4.6863,4.6859 0,2.5807 2.105,4.6857 4.6863,4.6857 z m -9.0956,-11.287 c 2.581,0 4.686,-2.1047 4.686,-4.6857 0,-2.5812 -2.105,-4.6857 -4.686,-4.6857 -2.5803,0 -4.6856,2.1045 -4.6856,4.6857 0,2.581 2.1053,4.6857 4.6856,4.6857" />
      </g>
    </g>
  </g>
</svg>
