<?xml version="1.0" encoding="UTF-8" standalone="no"?>
<svg
   xmlns:dc="http://purl.org/dc/elements/1.1/"
   xmlns:cc="http://creativecommons.org/ns#"
   xmlns:rdf="http://www.w3.org/1999/02/22-rdf-syntax-ns#"
   xmlns:svg="http://www.w3.org/2000/svg"
   xmlns="http://www.w3.org/2000/svg"
   id="svg7336"
   version="1.1"
   viewBox="0 0 91.842239 172.0284"
   height="172.0284mm"
   width="91.842239mm">
  <defs
     id="defs7330" />
  <metadata
     id="metadata7333">
    <rdf:RDF>
      <cc:Work
         rdf:about="">
        <dc:format>image/svg+xml</dc:format>
        <dc:type
           rdf:resource="http://purl.org/dc/dcmitype/StillImage" />
        <dc:title></dc:title>
      </cc:Work>
    </rdf:RDF>
  </metadata>
  <g
     transform="translate(149.97081,-64.503329)"
     id="layer1">
    <g
       id="g7913">
      <path
         style="fill:#f0e3c9;fill-opacity:1;stroke:none;stroke-width:0.26458332px;stroke-linecap:butt;stroke-linejoin:miter;stroke-opacity:1"
         d="m -111.39029,109.14177 -6.43384,6.9194 -8.0168,13.25128 -3.91371,24.98755 v 15.9559 l 5.11793,22.57912 9.93481,16.25696 6.32215,12.34325 0.60211,9.3327 0.30106,5.11793 1.20422,-2.10738 1.20422,-6.62321 0.30105,-8.12848 3.91372,-5.11793 6.623202,-9.03165 4.214768,-4.21477 3.010548,-6.32215 2.408439,-3.91371 v 1.80633 l 4.816879,-24.38544 -0.09712,-18.16527 -2.913436,-18.26237 -4.214767,-12.34325 -6.92426,-6.92426 -3.61266,-2.10738 z"
         id="path7894" />
      <path
         style="fill:#89cf90;fill-opacity:1;stroke:none;stroke-width:0.26458332px;stroke-linecap:butt;stroke-linejoin:miter;stroke-opacity:1"
         d="m -113.05962,111.92737 1.45155,3.14503 0.64514,-1.12899 v 3.06439 l 2.3386,-0.32257 0.16129,1.69347 h 1.85476 l 0.16128,-2.74181 1.61283,0.64513 0.48385,-2.41925 1.77412,-0.32256 1.85476,0.16128 0.56449,-2.33861 2.257967,0.40321 0.9677,-5.16107 2.903098,-3.95144 2.096686,-1.9354 6.209408,-3.306308 1.854758,2.096683 5.080423,1.451545 0.806419,2.33861 1.693473,0.80642 2.096685,-0.9677 0.725774,0.80642 2.499891,-0.32257 1.37091,0.88706 2.257967,-0.56449 1.290265,2.01604 2.983743,0.80642 1.048343,1.29026 2.01604,0.56449 1.451549,-1.45155 -0.725773,-3.62887 -0.806418,-0.48385 0.725775,-1.45155 -0.645133,-2.016043 -0.887058,-0.08064 0.725776,-1.37091 -0.322567,-1.693473 -2.257967,-1.612834 -0.645134,-2.499892 -1.290267,-1.290267 -2.096683,-0.806415 -1.693476,0.161282 -1.290267,-1.451549 1.128985,0.08064 0.887058,-0.645134 1.048343,-1.370909 -0.241927,-1.532192 0.645133,-0.161282 0.725776,-0.322566 0.564491,-1.128985 -1.128982,-1.209625 -1.612834,-0.161282 0.241925,-2.096685 -0.483849,-0.241925 -2.33861,-0.08064 -0.08064,-0.887058 1.693476,-1.370907 1.128982,-1.854758 -1.290264,-0.725776 0.967697,-3.064383 -0.887058,-1.693476 -2.177325,0.725776 -1.209624,1.9354 -0.564491,-0.9677 -2.257968,-0.08064 -1.612834,-1.854759 h -1.612831 l -1.693476,2.096683 -2.661174,0.564491 -2.257967,-1.774116 -2.096683,1.532192 -0.483851,1.209624 -2.41925,0.40321 -1.290267,2.016043 -0.564491,4.032083 -1.451549,-1.854758 -1.048343,-2.822459 0.645134,-3.064383 -0.483852,-2.499892 -1.128982,-0.9677 -0.887058,-2.822459 -2.016043,-1.048342 -1.693474,2.419249 -2.09668,0.403209 -1.45156,2.257968 -1.45155,0.322566 -1.29026,1.693474 1.20962,2.903101 -2.66117,2.338607 -3.54824,1.290267 -2.74181,-3.145025 0.72577,-1.854759 -0.48385,-2.096682 -1.3709,-0.08064 0.24192,-2.257964 -1.45155,-0.645134 -2.82246,0.725773 -1.61283,1.048343 h -1.12899 l -0.64513,1.532192 0.40321,2.016043 -1.45155,0.161282 v 2.419249 l -3.46759,-1.370907 -2.98374,-2.177325 -3.8708,0.967701 -2.25797,-1.128985 -2.82246,0.564491 -2.09668,-1.128983 -2.98374,1.37091 -4.59658,-0.322567 -1.20962,1.290264 1.61283,2.016043 -1.12898,1.128983 1.12898,1.774118 2.25797,1.290267 -0.16129,2.177325 1.20963,1.209625 2.9031,-0.645133 1.20962,0.806415 1.20963,0.08064 c 0,0 0.64513,0 0.64513,0.806416 0,0.806418 1.37091,2.419249 1.37091,2.419249 l 0.48385,1.532195 -4.43529,0.322566 -0.64513,2.177323 -2.25797,0.725776 0.24192,4.596574 -2.82246,2.499892 0.32257,2.177318 -0.88706,2.25797 1.37091,3.38695 6.85454,-3.62888 6.93519,-0.64512 1.45155,-0.64513 0.64513,-0.88706 0.16128,-0.72578 0.40321,-2.338608 2.66118,-1.451552 2.74181,0.403209 1.12899,1.451549 1.53219,0.322567 3.30631,-1.935398 3.70951,2.177325 3.62888,6.531968 1.04834,3.30631 -3.22567,1.53219 z"
         id="path7904" />
      <path
         style="fill:#000000;stroke-width:0.35277778"
         d="m -108.23981,231.505 c -0.0104,-7.50644 -0.3469,-9.18614 -2.87756,-14.36521 -1.18792,-2.43111 -2.77111,-5.32431 -3.51821,-6.42932 -0.74709,-1.10501 -1.35835,-2.10854 -1.35835,-2.23006 0,-0.2687 -0.93398,-1.22888 -1.19535,-1.22888 -0.32479,0 -1.50817,4.27226 -2.17418,7.8493 -0.35223,1.89177 -0.78808,3.43959 -0.96856,3.43959 -0.18604,0 -0.231,-0.64924 -0.10382,-1.49931 0.8609,-5.75411 0.7664,-10.36497 -0.28379,-13.84653 -0.46821,-1.55222 -0.94837,-3.25677 -1.06701,-3.7879 -0.29506,-1.32088 -1.76668,-2.28674 -2.52512,-1.65729 -1.39939,1.16139 -3.32384,6.59459 -3.32384,9.38401 0,1.03511 -0.15875,1.88202 -0.35278,1.88202 -0.20312,0 -0.35277,-1.09771 -0.35277,-2.58757 0,-2.36937 0.28613,-3.69081 1.79204,-8.27618 0.46412,-1.41321 0.48501,-10.2219 0.027,-11.39893 -0.58285,-1.49797 -1.17802,-4.51144 -0.96051,-4.86336 0.11621,-0.18803 0.0638,-0.43306 -0.11655,-0.54449 -0.18031,-0.11144 -0.43438,-0.87647 -0.56461,-1.70007 -0.13022,-0.82361 -0.46221,-2.2826 -0.73774,-3.24221 -0.2823,-0.98318 -0.36763,-1.87811 -0.19547,-2.05026 0.17215,-0.17216 0.0975,-0.90921 -0.17101,-1.68859 -0.26208,-0.76069 -0.57249,-2.13995 -0.68979,-3.06502 -0.31793,-2.50713 0.23635,-22.38008 0.52597,-22.8487 0.40515,-0.65555 1.34219,-0.0601 1.51882,0.96509 0.0897,0.52054 -0.40846,6.72295 -0.2624,7.0647 0.20473,0.47903 0.13535,0.5714 -0.30289,0.40323 -0.45691,-0.17533 -0.56844,0.0274 -0.56844,1.03351 0,0.68841 0.15875,1.34976 0.35278,1.46968 0.19403,0.11991 0.35278,0.45615 0.35278,0.74719 0,0.29104 -0.15875,0.43106 -0.35278,0.31114 -0.19403,-0.11991 -0.35278,0.0995 -0.35278,0.48753 0,0.38806 0.15875,0.80367 0.35278,0.92358 0.54811,0.33875 0.41524,1.23472 -0.18311,1.23472 -0.4056,0 -0.47954,0.23586 -0.30414,0.97014 0.12747,0.53358 0.40831,1.1944 0.62409,1.46848 0.29228,0.37127 0.27987,0.53619 -0.0487,0.64676 -0.82385,0.27728 -0.31144,2.56516 0.75837,3.3861 0.23679,0.1817 0.1474,0.22041 -0.2292,0.0993 -0.78879,-0.25375 -0.85294,1.09683 -0.0994,2.09308 0.59919,0.7922 0.70092,1.35481 0.1876,1.03756 -0.86202,-0.53275 -0.0322,2.14185 0.84657,2.72863 0.23947,0.1599 0.15167,0.26125 -0.2292,0.26458 -0.82985,0.007 -0.77908,0.3742 0.26458,1.91212 1.00327,1.47841 1.12252,1.90712 0.35278,1.26829 -0.4433,-0.36791 -0.52917,-0.31231 -0.52917,0.3426 0,0.45483 0.26437,0.85092 0.63214,0.94709 0.34767,0.0909 0.65462,0.4639 0.68211,0.82885 0.0333,0.44166 -0.11913,0.59865 -0.45574,0.46948 -1.04423,-0.40071 -0.32292,2.03741 0.87481,2.95701 0.50464,0.38745 0.49897,0.43085 -0.0576,0.44097 -0.33954,0.006 -0.61736,0.13464 -0.61736,0.2855 0,0.32544 0.99955,1.80802 1.70448,2.52816 0.42996,0.43924 0.42368,0.53641 -0.0456,0.70556 -0.48906,0.17627 -0.48767,0.32139 0.0137,1.43089 0.30686,0.67909 0.59474,1.63159 0.63973,2.11666 0.045,0.48507 0.41423,1.81322 0.82052,2.95144 0.4063,1.13822 0.63594,2.24947 0.51031,2.46945 -0.12564,0.21999 -0.0882,0.27195 0.0832,0.11547 0.17139,-0.15645 0.63341,0.33319 1.02669,1.08809 0.39329,0.75491 1.1847,2.27198 1.7587,3.37128 0.57399,1.09929 1.15567,1.99872 1.29261,1.99872 0.13694,0 -0.77797,-2.02234 -2.03313,-4.49409 l -2.2821,-4.4941 0.10755,-2.73583 c 0.0591,-1.50471 0.22661,-2.73674 0.37213,-2.73785 0.14553,-0.001 0.26459,0.23213 0.26459,0.51831 0,0.28618 0.47625,1.56016 1.05833,2.83106 0.58208,1.2709 1.05833,2.38612 1.05833,2.47828 0,0.0921 -0.3175,0.16755 -0.70555,0.16755 -0.38806,0 -0.70548,0.0397 -0.70538,0.0882 1e-4,0.0485 0.32879,0.95277 0.73042,2.00949 1.22088,3.21221 4.90361,9.1912 5.66127,9.1912 0.68588,0 0.23599,-1.38612 -1.13436,-3.49505 -0.7949,-1.22332 -1.67547,-2.89982 -1.95683,-3.72555 -0.28135,-0.82573 -0.8216,-1.83413 -1.20056,-2.24089 -0.90691,-0.97346 -0.86916,-1.35292 0.1603,-1.61129 0.63777,-0.16007 0.80325,-0.38926 0.66441,-0.92019 -0.1017,-0.38887 -0.29965,-0.70703 -0.4399,-0.70703 -0.46542,0 -1.07399,-1.77787 -1.0623,-3.1034 l 0.0115,-1.30632 0.61491,1.76389 c 0.82314,2.36118 2.14295,4.22211 3.92265,5.53091 1.52043,1.11814 1.74651,1.86359 0.27222,0.8976 -0.47437,-0.31082 -1.02752,-0.42642 -1.28348,-0.26822 -0.67827,0.41919 -0.14256,1.60743 0.95537,2.11905 l 0.96335,0.44891 -0.79375,0.36409 c -0.80938,0.37127 -1.15232,2.02016 -0.42013,2.02016 0.20548,0 0.2866,0.14076 0.18027,0.3128 -0.23086,0.37355 0.22003,0.76628 2.05202,1.78735 l 1.37117,0.76422 -0.18131,-1.60858 c -0.0997,-0.88471 -0.042,-1.60857 0.12814,-1.60857 0.17019,0 0.30944,0.53761 0.30944,1.19468 0,1.05772 0.12133,1.21249 1.05834,1.35002 0.91047,0.13362 1.05833,0.0436 1.05833,-0.6447 0,-0.44002 -0.14385,-0.88893 -0.31966,-0.99759 -0.17581,-0.10866 -0.23667,-0.5149 -0.13525,-0.90276 0.13453,-0.51442 0.006,-0.71192 -0.47409,-0.73003 -0.36218,-0.0137 0.69715,-0.31091 2.35407,-0.66057 3.34321,-0.70553 7.63515,-2.57229 9.480204,-4.12337 2.10388,-1.76867 4.97155,-4.84218 5.94768,-6.37462 0.51921,-0.81509 1.26563,-1.65772 1.65872,-1.8725 0.79576,-0.43478 2.109,-2.7823 1.74954,-3.12744 -0.1265,-0.12147 -0.48858,0.17603 -0.80461,0.6611 -0.31604,0.48507 -1.19386,1.43757 -1.95073,2.11667 -0.75686,0.6791 -2.8037,2.54905 -4.54853,4.15545 -1.74483,1.60639 -4.140624,3.48817 -5.323984,4.18172 -2.58891,1.51732 -6.16784,2.48808 -8.49154,2.30327 -2.0582,-0.1637 -1.46926,-0.74822 0.7098,-0.70448 1.87879,0.0377 4.63847,-0.85315 8.19236,-2.64459 1.949794,-0.98284 2.800374,-1.8798 2.278004,-2.40217 -0.27921,-0.27921 -0.63626,-0.15356 -1.292354,0.4548 -0.4986,0.46233 -1.50393,1.15411 -2.23406,1.53728 -0.73014,0.38318 -1.40689,0.7893 -1.50391,0.9025 -0.097,0.11319 -1.04951,0.11419 -2.11666,0.002 l -1.94028,-0.20359 2.80074,-0.62866 c 2.96973,-0.66649 5.13676,-1.74903 5.13676,-2.56597 0,-0.27152 0.43656,-0.60111 0.970144,-0.73241 1.69548,-0.41724 3.76355,-1.43385 4.66603,-2.2937 0.48051,-0.45782 1.00894,-0.8324 1.17428,-0.8324 0.49626,0 3.02121,-3.03172 4.38776,-5.26843 1.45763,-2.38576 3.60772,-7.14846 3.61415,-8.00573 0.002,-0.31579 0.22994,-0.76143 0.50572,-0.9903 0.41383,-0.34345 0.47088,-0.27397 0.3266,0.39778 -0.17266,0.80382 -0.16758,0.80516 0.40979,0.10835 0.92052,-1.11095 3.7544,-6.89617 3.60091,-7.35108 -0.0761,-0.22552 -0.67998,0.36261 -1.34199,1.30694 -1.97386,2.81562 -2.02193,2.87501 -2.17892,2.6922 -0.0831,-0.0967 -0.0106,-1.20771 0.16099,-2.46889 0.58635,-4.30962 0.74514,-8.22182 0.32312,-7.961 -0.53093,0.32812 -0.49131,0.006 0.15251,-1.23857 0.36955,-0.71464 0.46642,-1.46048 0.3029,-2.33212 l -0.24041,-1.28148 -0.64089,1.20311 c -0.35249,0.66171 -0.64755,1.01214 -0.65568,0.77874 -0.0222,-0.63795 0.762,-2.22146 1.10017,-2.22146 0.40679,0 0.37574,-2.02584 -0.035,-2.27966 -0.1821,-0.11254 -0.49477,0.0765 -0.69482,0.42016 -0.49076,0.84297 -0.50028,-0.0885 -0.0103,-1.00411 0.20621,-0.38531 0.31393,-1.04956 0.23937,-1.47612 -0.12596,-0.7206 -0.16572,-0.70335 -0.56119,0.24352 -0.23409,0.56048 -0.50264,0.94204 -0.59677,0.84791 -0.0941,-0.0941 0.0691,-0.74605 0.36264,-1.4487 0.29359,-0.70266 0.52809,-1.63985 0.52111,-2.08264 -0.0122,-0.77486 -0.0468,-0.76535 -0.92066,0.25325 -0.49938,0.58208 -0.83223,0.89958 -0.73965,0.70556 1.1311,-2.37071 1.36508,-3.07842 1.1785,-3.56465 -0.18417,-0.47994 -0.30932,-0.49714 -0.77928,-0.10711 -0.50541,0.41946 -0.50422,0.33148 0.0122,-0.90461 0.37447,-0.89624 0.44686,-1.44666 0.20953,-1.59333 -0.23719,-0.14659 -0.25573,-0.796 -0.0536,-1.87789 0.30136,-1.61314 0.24504,-1.80839 -0.48189,-1.67038 -0.19403,0.0368 -0.15434,-0.13487 0.0882,-0.38156 0.52548,-0.53446 0.59092,-2.07131 0.0882,-2.07131 -0.19403,0 -0.35278,0.22876 -0.35278,0.50835 0,0.27959 -0.14855,0.60015 -0.3301,0.71236 -0.19329,0.11946 -0.18145,-0.27399 0.0286,-0.94932 0.19727,-0.63433 0.4437,-1.43115 0.54764,-1.77069 0.10394,-0.33955 0.0302,-0.61737 -0.1638,-0.61737 -0.19403,0 -0.44437,0.35026 -0.55632,0.77835 -0.11195,0.42809 -0.28751,0.69438 -0.39013,0.59176 -0.10262,-0.10263 0.0703,-0.84062 0.38432,-1.63999 0.33095,-0.8425 0.45981,-1.72142 0.30659,-2.09106 -0.22345,-0.53907 -0.34233,-0.45405 -0.76885,0.5499 -0.27749,0.65316 -0.58918,1.10292 -0.69263,0.99946 -0.10347,-0.10346 0.12835,-0.90353 0.51513,-1.77792 0.38679,-0.87439 0.61172,-1.68134 0.49985,-1.79321 -0.11187,-0.11186 -0.0437,-0.2034 0.15155,-0.2034 0.19522,0 0.55228,0.43311 0.79347,0.96245 0.49301,1.08206 0.83242,0.75266 1.19058,-1.15545 0.25448,-1.35578 -0.34408,-2.51405 -0.67506,-1.3063 -0.11964,0.43656 -0.33329,0.79375 -0.47477,0.79375 -0.14149,0 -0.0302,-0.89148 0.2473,-1.98106 0.30616,-1.20206 0.37728,-2.10835 0.18086,-2.30476 -0.46874,-0.46874 -1.62555,2.29406 -1.4171,3.38448 0.134,0.701 0.0288,0.90134 -0.47326,0.90134 -0.4289,0 -0.57741,-0.1776 -0.44251,-0.52917 0.11169,-0.29104 0.0877,-0.80698 -0.0533,-1.14653 -0.21744,-0.52356 -0.33268,-0.45656 -0.75846,0.44098 l -0.50207,1.05833 0.25687,-1.05833 c 0.3709,-1.52809 0.28351,-3.12258 -0.17958,-3.27694 -0.21988,-0.0733 -0.39976,-0.35815 -0.39976,-0.63302 0,-0.7601 -0.62735,-0.59637 -0.89038,0.23237 -0.36179,1.13991 -0.54636,0.5873 -0.20333,-0.60877 0.18864,-0.65775 0.16793,-1.31016 -0.0542,-1.70706 -0.32614,-0.58279 -0.40152,-0.54728 -0.81187,0.38243 l -0.45236,1.02487 -0.0286,-1.45627 c -0.0213,-1.08309 -0.22489,-1.58658 -0.79443,-1.96473 -0.44719,-0.29693 -0.65867,-0.68174 -0.50834,-0.92497 0.46968,-0.75997 1.28696,-0.43328 2.67401,1.06889 l 1.37159,1.48542 0.233,-0.92835 c 0.28401,-1.1316 0.11789,-2.08629 -0.35865,-2.06112 -0.19403,0.0102 -0.35278,0.16415 -0.35278,0.34201 0,0.17786 -0.11906,0.44244 -0.26458,0.58797 -0.14552,0.14552 -0.26459,-0.37744 -0.26459,-1.16213 0,-0.83782 -0.21842,-1.60799 -0.52916,-1.86588 -0.29105,-0.24155 -0.52917,-0.28647 -0.52917,-0.0998 0,0.30268 -1.47875,1.15815 -2.00196,1.15815 -0.11269,0 -0.10334,-0.635 0.0208,-1.41111 0.13836,-0.86522 0.0876,-1.41111 -0.1313,-1.41111 -0.19632,0 -0.35937,0.43656 -0.36235,0.97014 -0.006,1.08967 -0.66372,2.45732 -0.72096,1.4993 -0.053,-0.88785 -0.33854,-2.24083 -0.50876,-2.41104 -0.34859,-0.34859 -0.78422,1.55574 -0.48612,2.12505 0.40556,0.77455 -0.10201,1.07863 -1.29901,0.77821 -0.6209,-0.15584 -1.0358,-0.0735 -1.23237,0.24456 -0.16299,0.26373 -0.64612,0.48365 -1.07362,0.48872 -0.47834,0.006 -0.81422,0.25725 -0.87334,0.65413 -0.175034,1.17496 -0.493284,1.69592 -0.887284,1.45241 -0.24633,-0.15224 -0.30575,-0.79608 -0.16196,-1.75497 0.3158,-2.1059 -0.60701,-2.58315 -1.3441,-0.69512 -0.0757,0.19403 -0.48139,-0.004 -0.90142,-0.44097 -0.72232,-0.75075 -1.68794,-1.1247 -1.30524,-0.50548 0.19826,0.3208 -0.73054,3.25094 -1.17483,3.70631 -0.15584,0.15972 -0.38588,-0.11809 -0.51119,-0.61737 -0.19151,-0.76298 -0.42861,-0.90777 -1.4865,-0.90777 -1.07454,0 -1.31708,0.15481 -1.65812,1.05833 -0.46648,1.23586 -1.04366,1.42136 -0.82324,0.26459 0.27603,-1.44862 0.65686,-2.38125 0.97237,-2.38125 0.1714,0 0.31163,-0.22327 0.31163,-0.49614 0,-0.93125 -1.3432,-0.16814 -3.26542,1.85516 -1.04106,1.0958 -2.19521,2.5083 -2.56477,3.13889 -0.64446,1.09966 -1.22536,1.49435 -1.22536,0.83256 0,-0.40876 2.87743,-4.30495 3.64293,-4.9327 0.78041,-0.63998 0.74835,-1.10333 -0.0763,-1.10333 -0.89145,0 -4.65881,2.80399 -5.82942,4.33874 -0.51489,0.67505 -1.64513,2.47145 -2.51166,3.99202 -0.86653,1.52056 -1.57551,2.59977 -1.57551,2.39825 0,-0.65828 1.81163,-4.16446 3.04188,-5.88717 0.97365,-1.36339 1.10102,-1.72369 0.66806,-1.88983 -0.29422,-0.1129 -0.53494,-0.42641 -0.53494,-0.6967 0,-0.27028 -0.14322,-0.49142 -0.31827,-0.49142 -0.49168,0 -1.03345,1.88517 -0.87082,3.03017 0.13664,0.96202 0.12321,0.97503 -0.21299,0.20633 -0.33629,-0.76892 -0.3961,-0.78316 -0.95254,-0.22673 -0.48971,0.48972 -0.52518,0.77527 -0.2025,1.63015 0.35304,0.93531 0.32754,1.01623 -0.26127,0.82935 -0.80905,-0.25678 -1.19721,0.74584 -0.84151,2.17365 0.218,0.87509 0.18076,0.94382 -0.2979,0.54968 -0.46396,-0.38202 -0.58025,-0.31824 -0.76551,0.41989 -0.12014,0.47869 -0.12358,1.46721 -0.008,2.19671 0.19569,1.23132 0.1667,1.28977 -0.40463,0.81561 -0.57563,-0.47773 -0.60385,-0.38536 -0.43643,1.42874 0.0984,1.06673 0.10919,1.74107 0.0239,1.49853 -0.0853,-0.24253 -0.30063,-0.44097 -0.47849,-0.44097 -0.42379,0 -0.41498,1.82981 0.0143,2.95876 0.27289,0.71778 0.23965,0.85043 -0.17342,0.69192 -0.81361,-0.31221 -1.02474,0.88449 -0.39065,2.21419 0.75466,1.58252 0.73051,1.78973 -0.11898,1.02096 -0.60535,-0.54783 -0.72556,-0.56058 -0.90389,-0.0959 -0.11312,0.2948 0.0342,1.11016 0.32742,1.81191 0.29321,0.70174 0.39569,1.2759 0.22773,1.2759 -0.16796,0 -0.3795,-0.19844 -0.47009,-0.44097 -0.10784,-0.2887 -0.25974,-0.20983 -0.43988,0.22841 -0.15135,0.36816 -0.10878,1.11021 0.0946,1.64899 0.28627,0.75842 0.26964,0.9412 -0.0736,0.80947 -0.57709,-0.22145 -0.89592,1.42924 -0.52552,2.72076 0.22287,0.77709 0.17746,0.9442 -0.2156,0.79337 -0.6059,-0.23251 -0.67825,1.00496 -0.11976,2.04852 0.34709,0.64853 0.28185,0.69737 -0.79375,0.59417 -1.3462,-0.12916 -1.34325,-0.10865 -0.6749,-4.69855 0.92308,-6.33926 1.81873,-10.40569 2.29336,-10.41235 0.21154,-0.003 0.1698,-0.14153 -0.0928,-0.30791 -0.36654,-0.23227 -0.38702,-0.47138 -0.0882,-1.02974 0.21406,-0.39998 0.3892,-1.1164 0.3892,-1.59204 0,-0.47565 0.23714,-1.31952 0.52699,-1.87528 0.28985,-0.55575 0.52797,-1.28081 0.52917,-1.61123 0.001,-0.33041 0.18069,-1.04479 0.39887,-1.5875 0.71813,-1.78622 0.91971,-2.37498 1.54185,-4.50326 0.53927,-1.84479 1.33569,-3.51316 1.94201,-4.06819 0.10597,-0.097 0.48406,-0.63367 0.84019,-1.19257 1.2318,-1.93314 5.06354,-5.98869 8.15695,-8.6334 1.18212,-1.01065 1.57814,-1.15681 2.71962,-1.0037 0.88105,0.11817 1.33601,0.0399 1.33601,-0.22986 0,-0.96642 -2.15695,-7.11801 -3.0262,-8.63067 -1.64807,-2.867945 -3.5749,-4.5858 -5.48053,-4.886131 -0.95896,-0.151133 -1.0616,-0.08183 -0.95796,0.646752 0.0707,0.497205 0.52957,1.00838 1.17442,1.308364 1.81637,0.844981 4.04104,2.864225 4.84261,4.395445 1.1541,2.20465 3.03098,7.04612 3.03283,7.72004 0.004,1.37428 -0.66562,0.83674 -1.37262,-1.10228 -1.50651,-4.13175 -3.99421,-8.346577 -6.63965,-9.714587 -1.06496,-0.550711 -1.16825,-0.538142 -2.63346,0.320534 -1.89288,1.109296 -2.72134,1.122586 -3.99362,0.06405 -1.4868,-1.237023 -2.83024,-1.363547 -4.34239,-0.408962 -1.07711,0.679948 -1.28101,1.010308 -1.31266,2.126725 -0.0499,1.75891 -1.37206,3.12057 -2.99369,3.08301 -0.64235,-0.0149 -1.64416,0.11413 -2.22624,0.28669 -0.58209,0.17255 -1.61396,0.34049 -2.29306,0.37318 -1.60378,0.0772 -5.26781,1.75391 -6.3695,2.91476 -1.93155,2.03526 -4.34278,0.44725 -4.37316,-2.88011 -0.0108,-1.1845 0.1537,-1.97388 0.44956,-2.15704 0.32689,-0.20236 0.39456,-0.67303 0.22595,-1.57176 -0.21625,-1.152727 -0.11118,-1.412367 1.03553,-2.559093 1.44698,-1.446971 1.79965,-2.442285 1.47625,-4.166201 -0.25202,-1.34335 0.41666,-2.325415 1.58335,-2.325415 0.49231,0 0.68036,-0.246181 0.68036,-0.890676 0,-0.971977 1.04846,-1.574426 2.75699,-1.584171 0.52094,-0.003 1.18149,-0.153575 1.46787,-0.334676 0.4444,-0.281028 0.40563,-0.484906 -0.26458,-1.391425 -0.43191,-0.584182 -0.78528,-1.386078 -0.78528,-1.78199 0,-0.553211 -0.22866,-0.71984 -0.98778,-0.71984 -0.54328,0 -1.17828,-0.1905 -1.41111,-0.423334 -0.32926,-0.329259 -0.51741,-0.329259 -0.84667,0 -1.28599,1.285989 -4.2533,-0.355205 -3.90801,-2.161485 0.1432,-0.749076 -0.0193,-1.04311 -0.83539,-1.511474 -0.55725,-0.319816 -1.31524,-0.981937 -1.68443,-1.471381 -0.56177,-0.744762 -0.60732,-1.059263 -0.27928,-1.928352 0.32997,-0.874195 0.28722,-1.150895 -0.2703,-1.749324 -0.53364,-0.572792 -0.58941,-0.870789 -0.28715,-1.534187 0.47518,-1.042911 0.98116,-1.235096 3.80734,-1.446144 1.26118,-0.09418 2.79301,-0.325841 3.40406,-0.514803 1.24247,-0.384219 2.86367,-0.09218 3.60529,0.649441 0.28108,0.281078 0.73375,0.383188 1.06183,0.239518 1.32043,-0.578243 2.90375,-0.56992 3.55415,0.01868 0.61428,0.555916 0.73262,0.556525 1.791,0.0092 1.5176,-0.784779 3.32089,-0.421197 4.68711,0.945021 0.58517,0.585172 1.34473,1.118024 1.68791,1.184114 0.34319,0.06609 0.94134,0.290014 1.32923,0.497608 0.94675,0.506685 1.10442,0.478341 1.10442,-0.198539 0,-0.31679 0.33597,-0.867372 0.74661,-1.223515 0.56144,-0.486933 0.68869,-0.878318 0.51307,-1.578041 -0.29375,-1.170372 0.59388,-2.619685 1.60441,-2.619685 0.40214,0 1.19966,-0.333603 1.77228,-0.74134 1.5,-1.068095 3.80006,-1.318059 4.41316,-0.479608 0.2615,0.357635 0.47547,1.006081 0.47547,1.440991 0,0.471426 0.27502,0.878032 0.68103,1.006898 0.94129,0.298754 1.26445,2.040413 0.61875,3.334751 -0.50605,1.014399 -0.49364,1.048796 0.50383,1.396516 0.57887,0.201795 1.17295,0.751805 1.36899,1.267435 0.3354,0.882162 0.3792,0.893941 1.38674,0.372921 0.57223,-0.295908 1.2489,-0.471179 1.50373,-0.389492 0.25482,0.08169 0.91661,-0.396943 1.47064,-1.063624 0.98213,-1.181827 0.99406,-1.245311 0.47681,-2.538035 -0.4888,-1.221627 -0.47988,-1.38842 0.11341,-2.121094 0.35415,-0.437363 1.21115,-1.032212 1.90444,-1.321885 0.69328,-0.289674 1.26052,-0.776915 1.26052,-1.082759 0,-0.757677 1.40964,-1.877794 2.38125,-1.89216 0.43656,-0.0065 0.793754,-0.224715 0.793754,-0.485022 0,-0.260306 0.35718,-0.866748 0.79375,-1.347649 l 0.79375,-0.874366 1.46623,0.730289 c 1.43016,0.712323 1.87053,1.384822 1.88034,2.871532 0.003,0.401572 0.40169,1.07521 0.88676,1.496972 0.96967,0.843113 1.15887,2.456407 0.54083,4.611405 -0.2602,0.907266 -0.21836,1.364668 0.17638,1.928249 0.28463,0.406365 0.51751,1.109765 0.51751,1.563113 0,0.45968 0.15604,0.727831 0.35278,0.606241 0.19403,-0.119916 0.35278,-0.649588 0.35278,-1.177047 0,-1.374632 0.79759,-2.326856 2.69672,-3.219553 0.91293,-0.429129 1.94869,-1.147396 2.30168,-1.59615 0.35299,-0.448754 1.11733,-0.981687 1.69853,-1.184297 0.91215,-0.317977 1.19678,-0.250547 2.08021,0.492812 1.32669,1.116338 2.81517,0.881498 3.65174,-0.576143 0.5145,-0.896471 0.79556,-1.029901 2.16938,-1.029901 1.28744,0 1.71392,0.172405 2.31417,0.935497 0.53223,0.676627 1.04229,0.926784 1.84323,0.904011 0.60905,-0.01732 1.20225,-0.169679 1.31821,-0.338583 0.49012,-0.713857 2.02503,-1.500925 2.92704,-1.500925 0.657,0 1.16622,0.296858 1.57227,0.916571 0.55601,0.848574 0.55884,1.029134 0.0382,2.433883 -0.49514,1.335973 -0.50082,1.605151 -0.0476,2.252285 0.62669,0.894731 0.29084,1.659687 -1.24567,2.837234 -1.24347,0.952968 -1.13342,1.437806 0.32635,1.437806 1.12001,0 1.90184,0.972012 1.54009,1.914722 -0.15061,0.392483 -0.003,0.554722 0.50523,0.554722 0.7486,0 1.82683,0.857683 1.82683,1.453154 0,0.189434 -0.42175,0.735296 -0.93724,1.213027 -0.51547,0.477732 -0.83931,0.966529 -0.71962,1.086216 0.36523,0.365233 -0.71924,2.102518 -1.72302,2.760224 -0.74237,0.486422 -0.84137,0.686761 -0.45901,0.92893 0.26813,0.169816 0.91868,0.311187 1.44567,0.314159 1.8751,0.01057 3.40782,1.079583 4.3237,3.015613 0.47217,0.998077 1.11456,2.027208 1.42754,2.28696 0.93669,0.77738 1.58087,2.340789 1.58087,3.836706 0,0.774297 0.17832,1.518017 0.39627,1.652717 0.24873,0.15372 0.32468,0.85104 0.204,1.87291 -0.13131,1.11186 -0.0333,1.84509 0.30929,2.31278 1.295452,1.76872 -0.0452,4.33878 -2.05375,3.93707 -0.58888,-0.11778 -1.44516,-0.58861 -1.90284,-1.04629 -0.53711,-0.53711 -1.11444,-0.77819 -1.62833,-0.67996 -0.57726,0.11035 -1.18173,-0.23567 -2.19843,-1.25847 -1.14315,-1.15001 -1.57993,-1.37514 -2.36376,-1.21838 -0.62528,0.12506 -1.16062,-0.007 -1.53092,-0.37711 -0.44091,-0.44092 -0.72875,-0.48414 -1.27547,-0.19154 -0.49739,0.26619 -1.02101,0.26808 -1.77169,0.006 -0.84017,-0.29289 -1.17607,-0.26103 -1.58769,0.15059 -0.28714,0.28714 -0.87791,0.52208 -1.31282,0.52208 -0.9861,0 -2.58725,-1.64629 -2.74484,-2.82223 -0.065,-0.48506 -0.27693,-0.88757 -0.47096,-0.89444 -0.19403,-0.007 -0.74965,-0.23606 -1.23472,-0.5093 -0.48507,-0.27324 -1.31421,-0.45454 -1.84254,-0.40288 -0.64327,0.0629 -1.25401,-0.19952 -1.84888,-0.794387 -0.75052,-0.750517 -1.12133,-0.860633 -2.3908,-0.709983 -0.82638,0.09807 -1.89938,0.443853 -2.38445,0.768403 -1.66708,1.115427 -3.648752,2.396547 -4.159412,2.200587 -0.68531,-0.26297 3.716002,-3.506983 6.226942,-4.527318 2.08985,-0.849225 2.51858,-0.774796 2.51858,0.437229 0,1.339402 0.78974,1.731572 2.25453,1.119544 1.19394,-0.498863 1.9233,-0.27607 1.47434,0.450358 -0.10633,0.17204 0.0559,0.51968 0.3606,0.772527 0.44741,0.37131 0.69071,0.3743 1.2652,0.0155 0.90523,-0.565327 1.11527,-0.338287 1.14651,1.23937 0.0372,1.88105 1.04758,2.45794 2.7683,1.58067 1.26447,-0.64467 1.29846,-0.6446 1.50394,0.003 0.23789,0.74952 0.75329,0.82276 2.12358,0.30178 0.77299,-0.2939 1.03305,-0.24496 1.40557,0.26449 0.40433,0.55296 0.5927,0.57235 1.63212,0.16801 1.77491,-0.69044 1.87212,-0.67419 1.98868,0.33241 0.15425,1.33218 1.28086,2.22272 2.69172,2.12771 0.99252,-0.0669 1.21119,0.0591 1.39856,0.80567 0.2928,1.16661 1.68039,1.52277 2.8773,0.73853 1.08467,-0.71071 0.90615,-1.74339 -0.50043,-2.89474 -0.88828,-0.72709 -0.9013,-0.78721 -0.31155,-1.43889 0.90508,-1.00008 0.71883,-2.91756 -0.28339,-2.91756 -0.79951,0 -0.8943,-0.597367 -0.26798,-1.688668 0.5655,-0.98533 0.56512,-1.098928 -0.007,-1.971509 -0.46419,-0.70847 -0.89767,-0.925933 -1.84568,-0.925933 -1.11565,0 -1.20264,-0.06794 -0.87381,-0.682363 0.87209,-1.629516 -0.18703,-3.903748 -1.818,-3.903748 -0.35147,0 -0.63904,-0.153768 -0.63904,-0.341706 0,-0.42678 -1.03236,-0.07762 -1.85208,0.626393 -0.56013,0.481064 -0.61736,0.461967 -0.61736,-0.205989 0,-0.84336 -1.69951,-2.195365 -2.75963,-2.195365 -1.059,0 -1.82648,0.370592 -1.82648,0.881945 0,0.690065 -1.09483,0.962605 -1.54413,0.384386 -0.37176,-0.478426 -1.3515,-0.690016 -2.7774,-0.599825 -0.35489,0.02245 -0.61736,0.320652 -0.61736,0.70141 0,0.993987 -0.92609,1.650451 -1.57205,1.114354 -0.59094,-0.490436 -1.25017,-0.207183 -1.25017,0.537161 0,0.279591 -0.19844,0.52399 -0.44097,0.54311 -0.24254,0.01912 -0.83785,0.05881 -1.32292,0.08819 -0.61529,0.03728 -0.91494,0.285087 -0.99107,0.819627 -0.0883,0.620247 0.0293,0.730007 0.61736,0.576216 0.39957,-0.104488 0.72892,-0.369901 0.73189,-0.589806 0.004,-0.294177 0.0739,-0.293049 0.26458,0.0043 0.14255,0.222252 1.17945,0.460377 2.30422,0.529167 2.01847,0.123447 2.04271,0.113615 1.86608,-0.756873 -0.0984,-0.485069 -0.0902,-0.676314 0.0182,-0.424987 0.13747,0.318682 0.50778,0.13187 1.22379,-0.617362 1.00111,-1.047565 1.63434,-1.429296 1.19693,-0.721539 -0.299,0.483785 0.40368,0.436748 2.36444,-0.158275 1.5503,-0.470463 1.67247,-0.460598 1.8665,0.150722 0.11418,0.359775 0.63768,0.806619 1.16333,0.992987 0.52565,0.186367 1.37036,0.715573 1.87714,1.176013 0.50677,0.46044 1.22114,1.038772 1.5875,1.285181 0.62284,0.418932 0.61455,0.434565 -0.12766,0.240811 -1.29335,-0.337625 -0.90895,0.33238 0.81636,1.422942 0.88557,0.55976 1.76745,1.34548 1.95974,1.746042 0.29878,0.622374 0.28148,0.651334 -0.11893,0.199132 -1.08095,-1.220766 -4.98859,-3.157364 -6.44953,-3.196348 -0.58209,-0.01553 -1.37584,-0.177268 -1.76389,-0.359412 -0.51259,-0.240595 -0.19894,-0.296213 1.14676,-0.203356 1.52618,0.105309 1.78256,0.04376 1.45611,-0.349591 -0.30874,-0.372007 -0.25038,-0.481489 0.26435,-0.495908 0.57776,-0.01618 0.55513,-0.09184 -0.18052,-0.603622 -1.07811,-0.750012 -1.58499,-0.870886 -3.78771,-0.903242 -1.71384,-0.02518 -3.6615,0.75846 -3.6615,1.473196 0,0.46114 3.1826,1.719426 5.46806,2.161873 2.56186,0.49596 3.9727,1.109677 6.5406,2.845178 2.5093,1.695891 2.88061,2.169431 2.74389,3.499331 l -0.11227,1.09197 -1.50829,-1.89606 c -0.82956,-1.04284 -1.8957,-2.103407 -2.36921,-2.356817 -0.4735,-0.25341 -0.80296,-0.555891 -0.73212,-0.672166 0.0708,-0.116279 -0.66838,-0.257447 -1.64269,-0.313704 -1.47861,-0.08538 -1.73519,-0.01249 -1.55195,0.440972 0.12075,0.298798 0.3159,0.781388 0.43367,1.072428 0.35091,0.867167 -0.50435,0.599807 -1.12852,-0.35278 -0.31782,-0.485068 -0.78075,-0.881943 -1.02872,-0.881943 -0.24797,0 -0.55095,-0.260848 -0.67328,-0.57966 -0.12234,-0.318813 -0.3207,-0.481397 -0.4408,-0.361301 -0.12009,0.120096 -0.0417,0.431172 0.17414,0.691282 0.27689,0.333633 0.28785,0.851922 0.0372,1.759669 -0.42465,1.53794 -0.57591,1.65487 -1.83048,1.41505 -1.25196,-0.23933 -1.25066,-0.79438 0.002,-0.85642 0.77258,-0.0383 0.81626,-0.0781 0.21452,-0.19593 -0.96863,-0.18955 -0.71619,-1.519913 0.28831,-1.519913 0.37688,0 0.5914,-0.151818 0.47672,-0.337372 -0.11467,-0.185554 -0.40186,-0.270326 -0.63818,-0.188383 -0.23632,0.08194 -0.86472,-0.480617 -1.39646,-1.250132 -0.9897,-1.43228 -1.82905,-1.88809 -1.43955,-0.781752 0.16276,0.462309 0.0182,0.412151 -0.57571,-0.199714 -0.85646,-0.882389 -1.46854,-0.787863 -0.72212,0.11152 0.787,0.948274 0.11572,0.965595 -0.82849,0.02138 -0.49683,-0.496831 -1.10898,-0.900895 -1.36033,-0.897924 -0.3311,0.0039 -0.31404,0.09582 0.0619,0.333596 0.28542,0.180506 0.40944,0.437706 0.27559,0.571553 -0.13384,0.133844 -0.65632,-0.02723 -1.16106,-0.357949 -0.86412,-0.566194 -0.9712,-0.566259 -1.83371,-0.0011 -0.86942,0.569666 -0.94036,0.566868 -1.39511,-0.05504 -0.37855,-0.517702 -0.60928,-0.573933 -1.0993,-0.26791 -0.3411,0.213021 -1.1126,0.495466 -1.71444,0.627652 -1.82507,0.400854 -5.81301,2.704285 -7.35967,4.250948 -1.4142,1.4142 -3.21815,4.5704 -3.43242,6.00537 -0.18127,1.21399 -0.55486,1.49895 -2.285464,1.74328 -0.92402,0.13045 -1.91816,0.29891 -2.2092,0.37434 -0.35569,0.0922 -0.79691,-0.46375 -1.34586,-1.69578 -0.44917,-1.00812 -0.96511,-2.10861 -1.14653,-2.44552 -0.18141,-0.33698 -0.32984,-0.86426 -0.32984,-1.17179 0,-0.30754 -0.23812,-0.79728 -0.52916,-1.08832 -0.29104,-0.29105 -0.52917,-0.36845 -0.52917,-0.17201 0,0.19643 0.16521,0.45926 0.36713,0.58405 0.20192,0.1248 0.27656,0.51224 0.16588,0.86099 -0.11711,0.36895 0.002,0.7122 0.28557,0.8209 0.28313,0.10865 0.5778,0.95496 0.70426,2.02267 0.11958,1.00971 0.56014,2.5438 0.97901,3.40907 0.56428,1.16564 0.65874,1.67608 0.36459,1.97023 -0.4445,0.4445 -0.54216,1.66996 -0.13241,1.66159 0.77725,-0.0159 1.14138,-0.70189 1.08853,-2.05077 -0.043,-1.0965 0.11859,-1.61902 0.61726,-1.99637 0.95163,-0.72011 1.5574,-0.65321 1.5574,0.17199 0,0.91782 0.20051,0.8899 1.266804,-0.17639 0.48507,-0.48507 1.03347,-0.88194 1.21868,-0.88194 0.18521,0 0.33674,-0.16048 0.33674,-0.35663 0,-1.53201 4.02956,-7.05171 5.14797,-7.05171 0.69805,0 0.65209,0.0968 -0.77497,1.63136 -1.68286,1.80966 -2.86912,3.69052 -3.01114,4.77428 -0.11397,0.86967 1.43935,2.81916 4.52285,5.67638 0.69849,0.64724 1.05221,1.2599 0.93686,1.62267 -0.13286,0.41777 -0.0946,0.45708 0.13521,0.13881 0.28585,-0.39593 2.02663,1.21362 4.00651,3.70448 0.48551,0.61083 1.76589,3.58061 2.09246,4.85341 0.14935,0.58209 0.8289,2.88396 1.5101,5.11528 0.68121,2.23132 1.5087,5.24757 1.83887,6.70278 0.33017,1.45521 0.81237,3.36021 1.07157,4.23333 0.89928,3.02935 1.37153,8.32712 1.36793,15.34584 -0.007,13.74399 -0.64569,19.72801 -3.12494,29.28055 -0.98045,3.77766 -1.22776,9.01101 -0.60492,12.80069 0.49348,3.00257 -0.3565,2.03382 -1.17222,-1.33601 -0.39213,-1.61995 -0.91141,-3.01013 -1.15394,-3.08928 -0.24254,-0.0791 -0.44097,-0.002 -0.44097,0.17082 0,0.1731 -0.5665,1.25551 -1.2589,2.40534 -2.01272,3.34245 -2.59915,5.54325 -2.64168,9.91381 -0.0328,3.37664 0.0907,4.22203 1.04602,7.15476 1.08916,3.34377 1.15981,4.05265 0.31372,3.14805 -1.24506,-1.33117 -2.16216,-4.07361 -2.57778,-7.70845 -0.24247,-2.12054 -0.58053,-3.99088 -0.78596,-4.34837 -0.28149,-0.48986 -1.73669,1.97224 -1.99666,3.37823 -0.13454,0.7276 -0.35649,1.32402 -0.49322,1.32537 -0.13673,0.001 -0.28727,0.67603 -0.33454,1.4993 -0.0473,0.82327 -0.15419,1.81435 -0.23759,2.20241 -0.0834,0.38806 -0.18135,1.89618 -0.21765,3.35139 l -0.066,2.64583 -0.47004,-1.93236 c -0.25852,-1.0628 -0.50865,-2.49155 -0.55583,-3.175 -0.1537,-2.22655 -0.57073,-2.26044 -2.47034,-0.20077 -4.746174,5.14606 -5.953704,7.81365 -6.135314,13.55366 -0.0591,1.86788 -0.36127,4.26926 -0.67149,5.33642 -0.31023,1.06715 -0.66343,2.4959 -0.7849,3.175 -0.27226,1.52206 -0.71533,2.11666 -1.57726,2.11666 -0.61665,0 -0.66284,-0.34694 -0.66935,-5.02708 z m 2.07748,-0.79375 c 0.55458,-2.44632 0.36721,-5.99722 -0.31647,-5.99722 -0.41534,0 -0.5285,0.63559 -0.56527,3.175 -0.0253,1.74625 -0.14938,3.88937 -0.27576,4.7625 -0.21623,1.49378 -0.20064,1.53543 0.26391,0.70555 0.27154,-0.48507 0.67366,-1.67569 0.89359,-2.64583 z m -0.80458,-7.84752 c -0.38538,-0.38537 -0.64964,0.22749 -0.37295,0.86494 0.26235,0.60444 0.28137,0.60389 0.42754,-0.0124 0.0841,-0.35473 0.0596,-0.73838 -0.0546,-0.85255 z m 1.20353,0.43919 c 0,-0.48507 -0.15875,-0.88195 -0.35277,-0.88195 -0.19403,0 -0.35278,0.39688 -0.35278,0.88195 0,0.48507 0.15875,0.88194 0.35278,0.88194 0.19402,0 0.35277,-0.39687 0.35277,-0.88194 z m -1.05833,-1.78471 c 0,-0.58211 -0.55754,-0.68046 -0.88194,-0.15557 -0.2877,0.4655 0.13413,1.12609 0.55354,0.86688 0.18062,-0.11163 0.3284,-0.43172 0.3284,-0.71131 z m 1.41111,-0.17639 c 0,-0.18258 -0.15875,-0.33196 -0.35278,-0.33196 -0.19402,0 -0.35277,0.2475 -0.35277,0.54999 0,0.30249 0.15875,0.45187 0.35277,0.33196 0.19403,-0.11992 0.35278,-0.36741 0.35278,-0.54999 z m -1.41111,-1.2139 c 0,-0.29104 -0.23314,-0.52917 -0.5181,-0.52917 -0.31559,0 -0.43872,0.20683 -0.31503,0.52917 0.11169,0.29104 0.34483,0.52916 0.5181,0.52916 0.17326,0 0.31503,-0.23812 0.31503,-0.52916 z m -0.52917,-1.94028 c 0.11992,-0.19403 0.0499,-0.35278 -0.15556,-0.35278 -0.20548,0 -0.3736,0.15875 -0.3736,0.35278 0,0.19403 0.07,0.35278 0.15557,0.35278 0.0856,0 0.25368,-0.15875 0.37359,-0.35278 z m -0.17638,-1.5875 c 0,-0.29104 -0.15377,-0.52917 -0.34171,-0.52917 -0.18794,0 -0.25033,0.23813 -0.13865,0.52917 0.11169,0.29104 0.26545,0.52917 0.34171,0.52917 0.0762,0 0.13865,-0.23813 0.13865,-0.52917 z m 3.08675,-0.735 c -0.33618,-0.33619 -1.01017,0.20835 -0.75964,0.61372 0.14892,0.24095 0.34624,0.23487 0.5996,-0.0185 0.2077,-0.2077 0.27972,-0.47556 0.16004,-0.59523 z m -3.08675,-1.02889 c 0,-0.29104 -0.15875,-0.52917 -0.35278,-0.52917 -0.19403,0 -0.35278,0.23813 -0.35278,0.52917 0,0.29104 0.15875,0.52917 0.35278,0.52917 0.19403,0 0.35278,-0.23813 0.35278,-0.52917 z m 3.17499,-0.5181 c 0,-0.47238 -0.16923,-0.62954 -0.52916,-0.49142 -0.29104,0.11169 -0.52917,0.4242 -0.52917,0.69449 0,0.27028 0.23813,0.49142 0.52917,0.49142 0.29117,0 0.52916,-0.31235 0.52916,-0.69449 z m -2.82222,-1.24579 c 0,-0.29104 -0.23812,-0.52917 -0.52916,-0.52917 -0.29105,0 -0.52917,0.23813 -0.52917,0.52917 0,0.29104 0.23812,0.52917 0.52917,0.52917 0.29104,0 0.52916,-0.23813 0.52916,-0.52917 z m -2.46944,-0.54999 c 0,-0.3995 -0.15182,-0.63254 -0.33737,-0.51786 -0.18556,0.11467 -0.24795,0.44154 -0.13865,0.72637 0.27984,0.72923 0.47602,0.6433 0.47602,-0.20851 z m 5.29166,0.3736 c 0,-0.19403 -0.23812,-0.35278 -0.52916,-0.35278 -0.29104,0 -0.52917,0.15875 -0.52917,0.35278 0,0.19403 0.23813,0.35278 0.52917,0.35278 0.29104,0 0.52916,-0.15875 0.52916,-0.35278 z m -2.82222,-1.61689 c 0,-0.30722 -0.18851,-0.49573 -0.41892,-0.41893 -0.65413,0.21804 -0.76262,0.97749 -0.13964,0.97749 0.30721,0 0.55856,-0.25136 0.55856,-0.55856 z m 2.82222,0.0502 c 0,-0.27959 -0.17258,-0.615 -0.38351,-0.74537 -0.49813,-0.30786 -1.17807,0.37207 -0.8702,0.8702 0.34579,0.55952 1.25371,0.46912 1.25371,-0.12483 z m -5.17344,-0.61121 c 0.23917,-0.91456 0.0237,-1.34989 -0.66821,-1.34989 -0.56246,0 -0.59731,0.16124 -0.28599,1.32292 0.26954,1.0058 0.69509,1.01782 0.9542,0.027 z m 7.90764,-0.55614 c 0.0861,-0.25865 -0.15704,-0.44097 -0.58813,-0.44097 -0.43333,0 -0.73495,0.22779 -0.73495,0.55503 0,0.64837 1.10082,0.55347 1.32308,-0.11406 z m -5.55642,-0.26458 c 0.36692,-0.4421 0.31598,-0.52917 -0.30958,-0.52917 -0.43037,0 -0.74875,0.22501 -0.74875,0.52917 0,0.29104 0.13931,0.52917 0.30958,0.52917 0.17027,0 0.50721,-0.23813 0.74875,-0.52917 z m -4.93889,-0.35278 c 0,-0.29104 -0.15875,-0.52916 -0.35277,-0.52916 -0.19403,0 -0.35278,0.23812 -0.35278,0.52916 0,0.29105 0.15875,0.52917 0.35278,0.52917 0.19402,0 0.35277,-0.23812 0.35277,-0.52917 z m 7.76111,-0.35277 c 0,-0.59375 -0.0646,-0.61761 -0.85309,-0.31504 -0.78824,0.30248 -0.69357,0.8442 0.14754,0.8442 0.39197,0 0.70555,-0.23518 0.70555,-0.52916 z m 5.179884,-0.59532 c -0.11261,-0.28142 -0.19621,-0.19783 -0.21313,0.21314 -0.0153,0.37189 0.068,0.58025 0.18528,0.46302 0.11723,-0.11722 0.12976,-0.4215 0.0278,-0.67616 z m -2.780994,-0.004 c 0.23284,-0.23283 0.42334,-0.63105 0.42334,-0.88493 0,-0.37505 -0.14882,-0.37836 -0.79375,-0.0176 -0.43657,0.24418 -0.84934,0.47309 -0.91727,0.50869 -0.20359,0.10668 0.32065,0.81722 0.60295,0.81722 0.14377,0 0.4519,-0.1905 0.68473,-0.42334 z m -12.40157,-1.05954 c -0.1153,-0.4456 -0.57093,-1.22557 -1.0125,-1.73326 -0.44158,-0.5077 -1.18498,-1.42205 -1.652,-2.03189 -1.60947,-2.10165 -1.1362,-0.8111 0.73629,2.00778 1.89681,2.85551 2.30975,3.23186 1.92821,1.75737 z m 5.0638,0.76625 c 0,-0.45471 -1.00509,-0.86532 -1.32792,-0.5425 -0.13153,0.13154 -0.006,0.38684 0.2798,0.56735 0.68289,0.43187 1.04812,0.42321 1.04812,-0.0248 z m 2.11666,-0.19118 c 0,-0.32852 -0.24002,-0.50849 -0.58812,-0.44098 -0.88504,0.17165 -1.00657,0.99601 -0.14683,0.99601 0.43333,0 0.73495,-0.22779 0.73495,-0.55503 z m 2.76148,-0.9776 c 0.10599,-0.55032 0.0179,-0.58595 -0.61331,-0.24812 -0.89227,0.47753 -0.97761,1.17325 -0.12374,1.00881 0.33731,-0.065 0.66899,-0.40727 0.73705,-0.76069 z m 2.2006,-0.24367 c 0.70145,-0.37541 0.96039,-1.75148 0.32959,-1.75148 -0.56321,0 -1.81052,1.40304 -1.57955,1.77676 0.2647,0.42828 0.40788,0.42539 1.24996,-0.0253 z m 3.444384,-0.46465 c 0.0898,-0.46605 -0.055,-0.61082 -0.52106,-0.52106 -0.35494,0.0684 -0.70128,0.41469 -0.769634,0.76963 -0.0898,0.46604 0.055,0.61081 0.521064,0.52106 0.35494,-0.0684 0.70128,-0.41469 0.76963,-0.76963 z m -10.611324,0.0361 c -0.0808,-0.24254 -0.43803,-0.44097 -0.79375,-0.44097 -0.35571,0 -0.7129,0.19843 -0.79375,0.44097 -0.0931,0.27928 0.19795,0.44097 0.79375,0.44097 0.5958,0 0.88685,-0.16169 0.79375,-0.44097 z m 2.55764,-0.0882 c 0,-0.569 -0.32313,-0.65377 -1.20384,-0.31581 -0.71801,0.27553 -0.36817,0.84498 0.51911,0.84498 0.3766,0 0.68473,-0.23813 0.68473,-0.52917 z m 2.40556,-1.14478 c 0.0904,-0.63666 -0.0134,-0.7455 -0.52917,-0.5549 -1.28552,0.47502 -1.58418,1.63107 -0.37708,1.45964 0.50948,-0.0724 0.83404,-0.39637 0.90625,-0.90474 z m 8.268654,-0.64281 c 0.18899,-0.98863 -0.15316,-1.09834 -0.94762,-0.30387 -0.58876,0.58875 -0.68657,0.95972 -0.34349,1.3028 0.40784,0.40784 1.12882,-0.14998 1.29111,-0.99893 z m -15.965884,0.53522 c 0,-0.13906 -0.3175,-0.33586 -0.70555,-0.43734 -0.65483,-0.17125 -0.93864,0.10432 -0.52917,0.51379 0.26959,0.26959 1.23472,0.20983 1.23472,-0.0764 z m 12.816484,-0.14134 c 0.36301,-0.27512 0.59466,-0.81528 0.52917,-1.23392 -0.10958,-0.70053 -0.16347,-0.71148 -0.91023,-0.18501 -0.436564,0.30778 -0.793754,0.86809 -0.793754,1.24515 0,0.80365 0.2876,0.84619 1.174814,0.17378 z m -3.131694,-0.25041 c 0.59016,-0.2689 0.89855,-0.69266 0.89855,-1.23473 0,-0.45392 -0.11907,-0.82003 -0.26459,-0.81358 -0.54915,0.0244 -1.85208,1.35882 -1.85208,1.8969 0,0.67006 0.0627,0.67785 1.21812,0.15141 z m -7.21534,-0.4314 c 0,-0.49793 -1.21268,-1.00393 -1.56401,-0.6526 -0.28811,0.28811 0.51763,1.14062 1.07804,1.14062 0.26728,0 0.48597,-0.21961 0.48597,-0.48802 z m 1.91142,0.27389 c 0.30692,-0.11777 0.55802,-0.44086 0.55802,-0.71797 0,-0.39451 -0.15308,-0.4219 -0.70555,-0.12623 -0.38806,0.20768 -0.70556,0.53076 -0.70556,0.71797 0,0.39843 0.10375,0.41378 0.85309,0.12623 z m 0.55802,-2.47284 c 0,-0.66167 -0.18789,-0.8408 -0.88194,-0.8408 -0.68876,0 -0.88195,0.1803 -0.88195,0.82314 0,1.04521 0.2244,1.26104 1.07876,1.03762 0.43657,-0.11417 0.68513,-0.48421 0.68513,-1.01996 z m 8.466674,-0.70499 c 0,-1.00335 -0.25377,-1.03747 -1.364294,-0.18344 -0.61448,0.47256 -0.77183,0.84169 -0.59555,1.39711 0.2267,0.71425 0.28585,0.72454 1.099714,0.19128 0.51369,-0.33658 0.86013,-0.90246 0.86013,-1.40495 z m 2.27305,1.1968 c 0.62515,-0.89253 0.71754,-1.68539 0.19639,-1.68539 -0.64475,0 -1.75114,1.38663 -1.54175,1.93227 0.28676,0.74729 0.70245,0.67101 1.34536,-0.24688 z m 2.4363,-0.0866 c 0.1093,-0.28483 0.0469,-0.6117 -0.13865,-0.72638 -0.18555,-0.11468 -0.33737,0.11836 -0.33737,0.51787 0,0.8518 0.19619,0.93774 0.47602,0.20851 z m -11.036164,-0.2001 c 1.05088,-0.56242 0.87397,-1.46825 -0.26052,-1.33394 -0.68801,0.0814 -0.95815,0.32619 -0.99938,0.90538 -0.0624,0.87618 0.2347,0.97723 1.2599,0.42856 z m 2.61556,-0.82074 c 0.71232,-0.52085 1.04078,-1.6363 0.48184,-1.6363 -0.28572,0 -1.63605,0.59891 -1.98237,0.87924 -0.17952,0.14531 0.34648,1.23743 0.59599,1.23743 0.13618,0 0.54323,-0.21616 0.90454,-0.48037 z m -4.96154,-0.88264 c 0.10357,-0.16756 0.80573,-0.30467 1.56036,-0.30467 0.92934,0 2.47014,-0.54501 4.77519,-1.68908 2.662044,-1.32126 4.000614,-2.27282 6.146804,-4.36964 2.79464,-2.73034 4.66649,-4.9611 4.64537,-5.53607 -0.006,-0.17571 -0.3207,0.0513 -0.69833,0.50443 -0.37762,0.45315 -0.96765,0.86275 -1.31118,0.91022 -0.34352,0.0475 -1.1706,0.86735 -1.83796,1.82194 -2.30157,3.29219 -7.591164,6.39324 -13.508694,7.91954 -0.91811,0.23681 -1.58343,0.56949 -1.47849,0.73928 0.24593,0.39792 1.46172,0.40081 1.70693,0.004 z m 10.931134,-0.45837 c 0.29395,-0.41968 0.45342,-0.89416 0.35438,-1.05441 -0.25481,-0.41229 -1.90717,0.73903 -1.90717,1.32886 0,0.74907 0.95399,0.58045 1.55279,-0.27445 z m 2.23593,0.32208 c 0.53983,-0.68537 0.86126,-2.38125 0.45134,-2.38125 -0.19773,0 -0.3595,0.15875 -0.3595,0.35277 0,0.19403 -0.15377,0.35278 -0.34171,0.35278 -0.18793,0 -0.24202,-0.27781 -0.12018,-0.61736 0.12426,-0.34629 0.0854,-0.49298 -0.0886,-0.33407 -0.41211,0.37648 -0.58111,3.0681 -0.19264,3.0681 0.16716,0 0.46023,-0.19844 0.65126,-0.44097 z m -4.49427,-1.50837 c 0,-0.28606 -0.23813,-0.52011 -0.52917,-0.52011 -0.29104,0 -0.52916,0.15875 -0.52916,0.35278 0,0.19403 -0.22115,0.35278 -0.491434,0.35278 -0.52094,0 -1.0064,0.85402 -0.67426,1.18616 0.3384,0.3384 2.224024,-0.82451 2.224024,-1.37161 z m 7.16304,0.51808 c 0.12072,-0.46164 0.0394,-0.67564 -0.22344,-0.58813 -0.50741,0.16894 -0.77218,1.31383 -0.30384,1.31383 0.18563,0 0.4229,-0.32656 0.52728,-0.7257 z m -4.34082,-2.29693 c 0,-0.7835 -0.32739,-0.68232 -2.38955,0.73849 -0.0531,0.0366 0.003,0.32633 0.12507,0.64391 0.19878,0.518 0.32669,0.50257 1.24303,-0.14992 0.5618,-0.40003 1.02145,-0.95465 1.02145,-1.23248 z m 6.16455,-0.13485 c 0.29603,-0.57245 0.53295,-1.16776 0.52649,-1.32292 -0.0203,-0.48791 -1.39937,1.35856 -1.39937,1.87365 0,0.76387 0.28658,0.58305 0.87288,-0.55073 z m -2.02536,0.24707 c 0.42213,-0.53954 0.81107,-2.02848 0.52987,-2.02848 -0.48816,0 -1.49406,1.22439 -1.49406,1.81857 0,0.75006 0.46275,0.8508 0.96419,0.20991 z m -2.46349,-0.95023 c 0.7385,-0.61609 1.09979,-1.7838 0.5519,-1.7838 -0.44401,0 -1.87482,1.52769 -1.87482,2.00177 0,0.63336 0.37684,0.57128 1.32292,-0.21797 z m 3.26319,-3.8504 v -0.75096 l -0.88194,0.76684 c -0.48507,0.42177 -0.88195,1.12751 -0.88195,1.56833 v 0.80147 l 0.88195,-0.81735 c 0.48507,-0.44955 0.88194,-1.15529 0.88194,-1.56833 z m 1.91844,0.69341 c -0.25627,-0.25807 -1.21288,0.75075 -1.21288,1.27908 0,0.35767 0.21523,0.25956 0.67518,-0.30778 0.37136,-0.45806 0.61332,-0.89515 0.5377,-0.9713 z m 1.60934,0.4332 c 0,-0.28146 0.39687,-1.2226 0.88194,-2.09145 0.48507,-0.86884 0.88195,-1.6852 0.88195,-1.81414 0,-0.65587 -1.89672,2.19477 -2.34385,3.52266 -0.11434,0.33955 -0.35749,0.61736 -0.54034,0.61736 -0.18285,0 -0.23863,0.15182 -0.12395,0.33737 0.29533,0.47785 1.24425,0.0418 1.24425,-0.5718 z m -1.27338,-3.10155 c 0.10288,-0.37958 0.1236,-0.75361 0.046,-0.83117 -0.26343,-0.26344 -1.94766,1.66261 -1.94766,2.22731 0,0.49391 0.10341,0.48521 0.85728,-0.0722 0.4715,-0.34861 0.94145,-0.9444 1.04434,-1.32398 z m 4.51305,-0.62101 c -0.25314,-0.25314 -0.41745,-0.27397 -0.41745,-0.0529 0,0.47088 0.4172,0.88808 0.65264,0.65264 0.10025,-0.10024 -0.006,-0.37012 -0.23519,-0.59972 z m -2.18134,-1.71546 c 0,-0.48744 -1.04775,0.0546 -1.4085,0.72868 -0.50831,0.9498 0.0849,1.20852 0.78594,0.34277 0.34241,-0.42285 0.62256,-0.90501 0.62256,-1.07145 z m 1.76389,-1.65325 c 0,-0.45991 -0.1099,-0.44531 -0.70556,0.0938 -0.38805,0.35118 -0.70027,0.9711 -0.69381,1.37759 0.0114,0.71955 0.0301,0.71708 0.70555,-0.0938 0.3816,-0.45806 0.69382,-1.07797 0.69382,-1.37759 z m 0.26458,-5.17344 c 2.40736,-2.66578 2.47628,-3.78776 0.0882,-1.43558 -0.97014,0.95555 -1.76389,1.61852 -1.76389,1.47325 0,-0.14526 0.79207,-1.29753 1.76015,-2.56059 0.96809,-1.26306 1.91447,-2.58481 2.10308,-2.93723 0.35211,-0.65793 0.88217,-3.14136 0.60699,-2.84388 -0.584,0.63133 -3.87888,4.85281 -4.1195,5.27801 -0.16379,0.28943 -0.39162,0.43241 -0.50629,0.31774 -0.11466,-0.11466 0.39526,-0.98647 1.13317,-1.93734 2.05491,-2.64796 3.96217,-5.97542 3.95344,-6.8973 l -0.008,-0.82877 -0.67849,0.88194 c -0.37316,0.48507 -1.02598,1.57708 -1.4507,2.42668 -0.42472,0.84961 -1.07011,1.62264 -1.4342,1.71785 -0.36408,0.0952 -0.7632,0.59071 -0.88692,1.1011 -0.12371,0.51039 -0.61022,1.80111 -1.08113,2.86826 -0.7536,1.7078 -1.37639,4.58611 -0.99231,4.58611 0.0765,0 0.38851,-0.24946 0.69341,-0.55436 0.3049,-0.3049 0.55436,-0.40888 0.55436,-0.23107 0,0.17782 -0.33652,0.62572 -0.74782,0.99534 -0.66089,0.59393 -2.50528,3.259 -3.27273,4.72898 -0.3,0.57462 3.0792,-2.86051 6.04902,-6.14914 z m -2.51092,5.53178 c 0.77116,-0.89665 1.13375,-2.20486 0.6111,-2.20486 -0.48858,0 -1.73548,1.6722 -1.79039,2.40106 -0.0766,1.01747 0.1709,0.97629 1.17929,-0.1962 z m 3.46838,-4.22022 c 0.28921,-1.15231 0.17333,-1.22916 -0.73852,-0.48982 -0.41316,0.335 -0.86824,1.15477 -1.01129,1.82172 l -0.26008,1.21263 0.89325,-0.82721 c 0.49128,-0.45496 0.99377,-1.22776 1.11664,-1.71732 z m 1.07324,-16.38062 c 0.69891,-1.19251 1.35317,-2.66095 1.4539,-3.26319 l 0.18316,-1.095 -0.7163,0.88195 c -1.78047,2.19217 -2.08413,2.7446 -2.28054,4.14879 -0.11505,0.82261 -0.1421,1.49565 -0.0601,1.49565 0.082,0 0.72095,-0.97569 1.41986,-2.1682 z m 1.00909,-5.15291 c 1.24657,-2.83651 0.85924,-3.49673 -0.6963,-1.18688 -0.89551,1.32975 -1.19696,2.15604 -1.19696,3.2809 0,1.35831 0.0446,1.43632 0.46194,0.80767 0.25406,-0.38272 0.89816,-1.68848 1.43132,-2.90169 z m 0.0411,-3.60327 c 1.41683,-2.79598 1.0139,-4.08235 -0.45826,-1.46301 -0.68372,1.21652 -1.05674,3.21517 -0.60007,3.21517 0.0937,0 0.57,-0.78847 1.05833,-1.75216 z m 0.70025,-5.56798 c 0.43527,-1.46901 -0.42304,-0.80975 -1.41674,1.08819 -0.67958,1.29798 -0.89849,2.09161 -0.70551,2.55764 0.23521,0.568 0.4079,0.39456 1.08344,-1.08819 0.44199,-0.97014 0.90946,-2.12108 1.03881,-2.55764 z m -1.33787,-0.17639 c 1.06222,-2.07821 1.72976,-4.49792 1.24086,-4.49792 -0.3168,0 -1.10408,1.23648 -1.12308,1.76389 -0.0105,0.29104 -0.32951,0.92604 -0.70893,1.41111 -0.6693,0.85565 -0.97615,2.82223 -0.44037,2.82223 0.14585,0 0.61004,-0.67469 1.03152,-1.49931 z m 0.19884,-4.29972 c 0.99895,-2.62082 1.09291,-3.02042 0.71019,-3.02042 -0.1903,0 -0.61882,0.71438 -0.95227,1.5875 -0.33345,0.87313 -0.75189,1.5875 -0.92987,1.5875 -0.43398,0 -0.40981,-0.47824 0.0473,-0.93531 0.20398,-0.20398 0.58305,-1.14854 0.84239,-2.09903 0.25934,-0.95049 0.58569,-2.00597 0.72521,-2.34552 0.15161,-0.36895 0.0965,-0.61736 -0.13684,-0.61736 -0.21478,0 -0.39405,0.19844 -0.39836,0.44097 -0.008,0.45355 -1.38135,2.39182 -1.39542,1.96953 -0.004,-0.12944 0.30965,-0.97604 0.69771,-1.88133 0.73873,-1.72341 0.93959,-3.70417 0.37561,-3.70417 -0.18147,0 -0.53086,0.55562 -0.77643,1.23472 -0.24556,0.6791 -0.55847,1.23472 -0.69536,1.23472 -0.31295,0 0.0153,-1.2886 0.62654,-2.45985 0.55012,-1.05407 0.61729,-2.47904 0.11686,-2.47904 -0.19403,0 -0.35278,0.22679 -0.35278,0.50397 0,0.27719 -0.26855,0.77252 -0.59679,1.10076 -0.49267,0.49267 -0.57973,1.1831 -0.49898,3.95734 0.0538,1.8483 0.17113,3.69452 0.26073,4.10271 0.0896,0.40819 0.24505,1.29779 0.34544,1.97689 0.10039,0.6791 0.26404,1.62935 0.36367,2.11168 0.1706,0.82595 0.20324,0.83748 0.56099,0.1982 0.20892,-0.37332 0.68614,-1.48233 1.06049,-2.46446 z m -1.92149,-11.66854 c 0.5701,-2.13155 0.51557,-2.6819 -0.14496,-1.46305 -0.69695,1.28605 -0.92475,1.05267 -0.4814,-0.4932 0.6689,-2.3323 0.21875,-3.82215 -0.60653,-2.00744 -0.53265,1.17124 -0.0943,5.55625 0.55536,5.55625 0.13837,0 0.44325,-0.71665 0.67753,-1.59256 z m -2.8226,-12.60789 c -0.15947,-0.99876 -0.76762,-0.72612 -1.19472,0.5356 -0.27228,0.80438 -0.27639,1.31847 -0.0139,1.74165 0.32604,0.52567 0.43083,0.4614 0.84195,-0.51634 0.25825,-0.61421 0.42327,-1.40662 0.36669,-1.76091 z m -1.19315,-1.73523 c 0.12651,-0.71247 0.0792,-1.38862 -0.10516,-1.50256 -0.43894,-0.27127 -1.22643,2.12977 -0.9418,2.87151 0.30601,0.79745 0.77004,0.1907 1.04696,-1.36895 z m -29.653714,-1.61851 c 0.27845,-0.45054 -0.79203,-2.619 -1.17581,-2.38181 -0.40154,0.24816 -0.47065,1.24379 -0.14521,2.09187 0.22239,0.57954 1.03219,0.75728 1.32102,0.28994 z m 1.01058,-3.02521 c -1.00876,-1.88213 -1.64652,-0.68562 -0.71928,1.34945 0.35582,0.78094 0.48605,0.84086 0.90877,0.41815 0.42272,-0.42272 0.39556,-0.67602 -0.18949,-1.7676 z m 9.21361,0.67325 c 0.10624,-0.27685 -0.0423,-0.69875 -0.32999,-0.93755 -0.36294,-0.30121 -0.41054,-0.54678 -0.15542,-0.8019 0.53119,-0.53119 0.45167,-1.53003 -0.13987,-1.75703 -0.56971,-0.21861 -0.81246,0.93514 -0.60033,2.85333 0.12905,1.16696 0.8745,1.55814 1.22561,0.64315 z m -7.01191,-0.1778 c 0.11163,-0.18062 0.0416,-0.42812 -0.15557,-0.54999 -0.19719,-0.12187 -0.35853,-0.76784 -0.35853,-1.43549 0,-1.26326 -0.18494,-1.42091 -1.03551,-0.88269 -0.43292,0.27394 -0.43752,0.5289 -0.0317,1.75848 0.44861,1.35931 1.13108,1.83822 1.58133,1.10969 z m 8.67676,-0.20077 c -0.0277,-0.52362 -0.8169,-0.42742 -1.00001,0.12189 -0.0989,0.29672 0.0624,0.42897 0.43021,0.35277 0.32364,-0.067 0.58004,-0.28063 0.5698,-0.47466 z m -3.54642,-3.70417 c 0,-2.95811 -0.049,-3.175 -0.71796,-3.175 -0.60116,0 -0.6584,0.11131 -0.35183,0.68415 0.24349,0.45496 0.24765,0.75738 0.0124,0.90277 -0.19455,0.12024 -0.35373,1.24112 -0.35373,2.49085 0,2.03705 0.073,2.27224 0.70556,2.27224 0.65329,0 0.70555,-0.23519 0.70555,-3.17501 z m 10.125784,2.58642 c 0.12423,-0.32372 -0.0321,-1.03809 -0.34744,-1.5875 -0.31531,-0.5494 -0.42193,-0.99892 -0.23693,-0.99892 0.18501,0 0.33637,-0.3175 0.33637,-0.70555 0,-0.39198 -0.23518,-0.70556 -0.52917,-0.70556 -0.416094,0 -0.529164,0.48997 -0.529164,2.29306 0,1.82397 0.11051,2.29306 0.540244,2.29306 0.29713,0 0.64187,-0.26487 0.76609,-0.58859 z m 1.86572,0.2451 c 0.39776,-0.25148 0.42679,-0.43211 0.11893,-0.73998 -0.48293,-0.48292 -1.17432,-0.14432 -1.17432,0.57512 0,0.58692 0.31097,0.63549 1.05539,0.16486 z m -16.071294,-0.32511 c 0.10735,-0.17369 -0.0369,-0.40488 -0.32066,-0.51375 -0.55127,-0.21155 -1.02208,0.22833 -0.64644,0.60397 0.31892,0.31892 0.73843,0.27978 0.9671,-0.0902 z m 9.84764,-1.28255 c -0.2961,-0.77163 -1.18174,-0.16544 -1.18174,0.80884 0,0.86608 0.0249,0.87636 0.68177,0.28189 0.37497,-0.33934 0.59996,-0.83017 0.49997,-1.09073 z m -1.88729,-0.34191 c 0,-1.25893 -0.12413,-1.5875 -0.59972,-1.5875 -0.4473,0 -0.49798,0.10174 -0.19941,0.40032 0.29857,0.29857 0.26627,0.60491 -0.12711,1.20528 -0.47829,0.72995 -0.46792,0.83958 0.11121,1.17645 0.35125,0.20432 0.67833,0.37632 0.72683,0.38222 0.0485,0.006 0.0882,-0.70365 0.0882,-1.57677 z m 4.00813,0.70555 c -0.2147,-0.55949 -0.83313,-0.73407 -0.83313,-0.23518 0,0.37307 0.38562,0.76435 0.75328,0.76435 0.1556,0 0.19153,-0.23812 0.0798,-0.52917 z m -11.76924,-1.05833 c 0,-0.54794 -0.95904,-0.97523 -1.22457,-0.54559 -0.10386,0.16804 -0.0958,0.54796 0.0179,0.84426 0.23795,0.62005 1.20669,0.38028 1.20669,-0.29867 z m 16.039284,-0.4763 c -0.19878,-0.20924 -0.86984,0.32108 -0.86984,0.68742 0,0.19023 0.22212,0.14117 0.49359,-0.10901 0.27147,-0.25019 0.44078,-0.51047 0.37625,-0.57841 z m -14.186284,-0.35554 c 0.19092,-0.73007 -0.2944,-1.81399 -0.8122,-1.81399 -0.18438,0 -0.33525,0.55562 -0.33525,1.23472 0,1.33535 0.83897,1.75889 1.14745,0.57927 z m 3.63284,-0.98678 c -0.1293,-0.51517 -0.0888,-1.03111 0.09,-1.14653 0.1788,-0.11541 0.19917,-0.52735 0.0453,-0.9154 -0.23723,-0.59813 -0.28361,-0.61156 -0.30463,-0.0882 -0.0136,0.33955 -0.18354,0.61736 -0.37757,0.61736 -0.19403,0 -0.35278,0.46302 -0.35278,1.02894 0,0.86704 0.274,1.25089 1.00838,1.41266 0.0695,0.0153 0.0206,-0.39366 -0.10865,-0.90883 z m 6.1417,-0.38624 -0.0141,-1.32292 -0.53069,0.97851 c -0.52194,0.96236 -0.42597,1.66733 0.22698,1.66733 0.18258,0 0.3256,-0.59532 0.31783,-1.32292 z m 6.364124,0.97014 c 0,-0.19403 -0.07,-0.35278 -0.15556,-0.35278 -0.0856,0 -0.25369,0.15875 -0.3736,0.35278 -0.11992,0.19403 -0.0499,0.35278 0.15557,0.35278 0.20548,0 0.37359,-0.15875 0.37359,-0.35278 z m -4.58611,-1.76389 c -0.683954,-0.442 -1.058334,-0.442 -1.058334,0 0,0.19403 0.35719,0.35035 0.793754,0.34738 0.64186,-0.004 0.69249,-0.0708 0.26458,-0.34738 z m -6.489644,-1.31557 c -0.3586,-0.3586 -0.65449,0.18129 -0.36026,0.65736 0.22226,0.35963 0.30536,0.35991 0.42485,10e-4 0.0817,-0.2451 0.0526,-0.54156 -0.0646,-0.65878 z m -1.62664,-4.33613 c -0.2613,-0.79176 -0.6963,-1.70934 -0.96665,-2.03907 -0.43072,-0.52533 -0.46725,-0.3904 -0.29522,1.09041 0.2458,2.11567 0.82594,3.29924 1.35691,2.76827 0.27156,-0.27155 0.24442,-0.79102 -0.095,-1.81961 z m 6.18179,1.76179 c 0.12309,-0.19918 0.48415,-0.31824 0.80235,-0.26458 0.593364,0.10004 1.061314,-1.74958 1.180224,-4.66495 0.0277,-0.6791 0.14268,-1.39348 0.25552,-1.5875 0.11284,-0.19403 0.25398,-0.666887 0.31365,-1.050787 0.0597,-0.38391 0.26271,-0.852221 0.45118,-1.040696 0.18848,-0.188479 0.34268,-0.628435 0.34268,-0.977685 0,-0.34925 0.13891,-0.635 0.30869,-0.635 0.16977,0 0.39616,-0.436563 0.5031,-0.970139 0.10693,-0.533577 0.80146,-1.639937 1.5434,-2.458579 1.75242,-1.933586 3.70956,-2.355788 5.33831,-1.1516 1.31418,0.971617 3.08401,0.760415 4.27798,-0.510514 0.43749,-0.465682 1.17725,-0.942527 1.64392,-1.059653 0.46667,-0.117127 0.84849,-0.378052 0.84849,-0.579834 0,-0.201783 0.1757,-0.258289 0.39044,-0.125571 0.2723,0.168289 0.24561,0.33471 -0.0882,0.549987 -0.39771,0.25649 -0.39053,0.365309 0.0425,0.643611 0.35079,0.225456 0.69671,0.18075 1.05834,-0.136776 0.91531,-0.803682 4.8862,-2.667599 5.68305,-2.667599 0.98049,0 3.14445,-2.362364 3.14445,-3.43274 0,-0.45398 -0.24894,-1.205338 -0.55318,-1.669684 -0.51873,-0.791665 -0.50585,-0.869601 0.2066,-1.250893 0.41788,-0.223644 0.84644,-0.319974 0.95234,-0.214067 0.10591,0.105908 0.50706,0.02425 0.89144,-0.181468 0.58109,-0.310989 0.66175,-0.606184 0.47861,-1.751477 -0.17185,-1.074737 -0.1067,-1.37745 0.29648,-1.37745 1.27024,0 2.31382,-0.821091 2.31382,-1.820515 0,-0.655221 -0.18304,-1.001707 -0.52917,-1.001707 -0.65674,0 -0.67125,-0.308995 -0.0484,-1.030555 0.63215,-0.732347 0.96459,-2.57659 0.5774,-3.203089 -0.48507,-0.784856 -2.0672,0.240772 -2.40957,1.56202 -0.32837,1.267245 -1.4708,1.718392 -1.4708,0.580824 0,-0.402282 -0.21868,-0.731422 -0.48597,-0.731422 -0.80873,0 -1.42036,1.048037 -1.61892,2.774061 -0.18492,1.607458 -0.20824,1.63365 -1.35245,1.519016 -1.30072,-0.130313 -2.1871,0.417365 -2.1871,1.351367 0,0.340541 -0.23625,0.815232 -0.52499,1.054869 -0.42941,0.356379 -0.56369,0.316072 -0.73754,-0.221387 -0.69659,-2.153449 -1.59275,-2.949102 -2.48635,-2.207483 -0.26645,0.221132 -0.48445,0.770128 -0.48445,1.219989 0,1.143762 -0.57436,1.373641 -1.30373,0.521801 -0.8511,-0.994018 -1.10305,-0.906876 -1.23156,0.425961 -0.13342,1.383768 -1.10842,1.583608 -1.29088,0.264584 -0.27602,-1.995439 -1.82511,-2.355414 -3.33849,-0.775791 -1.30266,1.35968 -1.47005,3.109265 -0.39988,4.179437 0.48248,0.482481 1.04947,0.735514 1.37134,0.612 0.96683,-0.371009 0.58627,0.508415 -0.4969,1.148259 -0.96173,0.568108 -1.05634,0.845181 -0.74445,2.180256 0.0144,0.06172 0.48728,-0.216093 1.05081,-0.617361 0.56353,-0.401268 1.35728,-0.729578 1.76389,-0.729578 0.40661,0 0.73929,-0.140235 0.73929,-0.311633 0,-0.171397 0.27781,-0.403827 0.61736,-0.516508 0.33955,-0.112682 1.25236,-0.446307 2.02847,-0.741389 0.77612,-0.295082 1.64924,-0.543066 1.94028,-0.551076 0.29104,-0.008 1.16417,-0.32265 1.94028,-0.699201 l 1.41111,-0.684638 -1.32292,0.203984 c -0.90224,0.139119 -1.32291,0.07041 -1.32291,-0.216086 0,-0.285791 -0.3665,-0.346745 -1.14653,-0.190685 l -1.14653,0.229384 1.05834,-0.728196 c 0.58208,-0.400508 1.34551,-0.729242 1.69651,-0.73052 0.41637,-0.0015 0.5461,-0.155595 0.37325,-0.443297 -0.21132,-0.351744 -0.15543,-0.352364 0.27623,-0.0031 0.29763,0.240851 0.60949,0.369567 0.69302,0.286034 0.0835,-0.08353 0.60957,-0.234872 1.16897,-0.336311 0.86689,-0.157197 2.02545,-0.973587 3.55313,-2.503731 0.64013,-0.641173 3.35139,-1.992399 3.35139,-1.670255 0,0.173655 -0.42035,0.540702 -0.93411,0.815658 -1.2381,0.662611 -4.58813,4.64055 -5.51543,6.549212 -0.48511,0.998498 -1.14827,1.713682 -1.93537,2.087185 -1.49896,0.711303 -1.35267,0.934079 0.27434,0.417781 0.95698,-0.303676 1.40869,-0.758218 2.02693,-2.039626 0.78996,-1.637298 5.26718,-6.689684 5.92814,-6.689684 0.1898,0 -0.80816,1.230313 -2.21769,2.734028 -1.40953,1.503715 -2.48588,2.940711 -2.3919,3.193323 0.094,0.252612 0.0418,0.379505 -0.116,0.281984 -0.32015,-0.197864 -1.82169,2.688264 -1.82169,3.501492 0,0.65676 -0.61526,0.683971 -0.76789,0.03396 -0.0897,-0.382196 -0.62114,-0.289001 -2.49232,0.437086 -2.00629,0.778515 -2.35165,1.033817 -2.20812,1.632297 0.0936,0.390193 0.079,0.511004 -0.0324,0.268469 -0.27405,-0.596688 -1.02009,-0.556151 -1.55163,0.08431 -0.23977,0.288905 -0.58866,0.4309 -0.7753,0.315545 -0.49536,-0.306149 0.6699,-1.262644 2.86982,-2.35566 2.09557,-1.041174 1.97666,-1.280353 -0.20258,-0.407464 -1.73109,0.693388 -4.77177,2.293883 -5.28782,2.783304 -1.97689,1.874896 -3.09291,2.409728 -2.37232,1.136884 0.39812,-0.703223 3.82394,-3.409005 4.31618,-3.409005 0.21476,0 0.39047,-0.14711 0.39047,-0.32691 0,-0.179801 0.27781,-0.399511 0.61736,-0.488244 0.46186,-0.120698 0.41623,-0.171641 -0.18118,-0.202257 -0.43919,-0.02251 -1.07419,0.104482 -1.41111,0.282199 -0.33691,0.177716 -1.1682,0.563561 -1.84729,0.857434 -0.6791,0.293872 -1.69558,1.015948 -2.25885,1.604613 -1.04322,1.090262 -2.11183,1.163355 -1.12889,0.07722 0.59505,-0.657525 0.38066,-2.270599 -0.27315,-2.055202 -0.72022,0.237273 -1.26192,1.738697 -0.88285,2.446996 0.42091,0.786481 0.0875,2.037488 -0.54299,2.037488 -1.42077,0 -4.69529,5.225461 -6.189884,9.877776 -0.8199,2.55217 -1.77617,2.8622 -1.77617,0.57585 0,-0.8759 -0.15531,-1.68853 -0.34513,-1.80585 -0.21918,-0.13546 -0.29019,0.91904 -0.19458,2.8896 0.0828,1.7066 0.15874,3.38071 0.16874,3.72026 0.02,0.6774 0.55231,0.82738 0.90592,0.25523 z m 16.398384,-23.593593 c 0,-0.175788 0.74266,-0.572663 1.65035,-0.881944 1.93868,-0.660578 1.87743,-0.652826 1.87743,-0.237581 0,0.178611 -0.47443,0.42895 -1.05429,0.556308 -0.57986,0.127359 -1.14485,0.378097 -1.25554,0.557197 -0.25943,0.419764 -1.21795,0.424502 -1.21795,0.006 z m -58.766554,20.261393 c -0.29957,-1.19358 0.0766,-1.6911 0.93241,-1.2331 0.37628,0.20138 0.68414,0.58932 0.68414,0.86208 0,0.65977 0.51051,0.94306 1.2134,0.67333 0.35257,-0.13529 0.49583,-0.45779 0.37394,-0.84181 -0.22211,-0.69983 1.74861,-2.9541 2.90278,-3.320417 0.38188,-0.1212 1.19772,-0.846787 1.81299,-1.612403 2.83279,-3.525031 8.16078,-5.389617 8.16078,-2.85595 0,0.778219 1.6115,1.926013 2.32156,1.653538 0.72211,-0.2771 0.61537,-1.762928 -0.19632,-2.732823 l -0.69699,-0.832832 0.17416,1.763889 0.17415,1.763889 -0.51435,-1.315164 c -0.8319,-2.127114 -1.1201,-2.291663 -3.45457,-1.972404 -1.13451,0.155154 -2.54358,0.530747 -3.13127,0.834651 -1.45106,0.750374 -3.85985,2.965757 -4.20137,3.864045 -0.15326,0.403081 -1.03068,1.119664 -1.94983,1.592391 -0.91916,0.47274 -1.84715,1.14128 -2.06221,1.48564 -0.4298,0.68822 -0.92685,0.83091 -0.92685,0.26607 0,-0.19803 0.71438,-0.86359 1.5875,-1.47902 0.87313,-0.615437 1.5875,-1.289689 1.5875,-1.49834 0,-0.20865 0.39688,-0.963418 0.88195,-1.677261 0.48507,-0.713846 0.88194,-1.52593 0.88194,-1.804636 0,-0.978229 -1.31822,-0.885866 -2.61523,0.183241 -0.69593,0.573642 -1.26532,0.873676 -1.26532,0.66674 0,-0.601743 2.80134,-2.463607 4.0104,-2.665446 0.60768,-0.101446 1.50175,-0.249699 1.98682,-0.329452 0.48507,-0.07975 1.18784,-0.266314 1.56171,-0.41458 0.67116,-0.266166 0.67116,-0.272944 0,-0.53587 -1.87265,-0.733601 -5.09649,0.0018 -6.76518,1.543314 -0.43657,0.403279 -0.79375,0.574485 -0.79375,0.380458 0,-0.647412 1.6075,-1.87324 2.75832,-2.103405 1.50349,-0.300696 1.70949,-0.732076 0.74787,-1.566084 -0.83609,-0.725139 -1.39471,-0.817467 -2.75032,-0.454578 -0.72221,0.193333 -0.80597,0.380668 -0.63668,1.423936 0.17229,1.061668 0.11673,1.176488 -0.47796,0.987741 -1.41811,-0.45009 -2.90721,1.408256 -1.71758,2.143484 0.23489,0.145175 0.31939,0.792399 0.20996,1.608251 -0.10072,0.750919 -0.0395,1.454083 0.13608,1.562587 0.17556,0.1085 0.3192,0.429055 0.3192,0.712343 0,0.369164 -0.24262,0.454177 -0.85649,0.300105 -0.47106,-0.11823 -1.19453,-0.107672 -1.60771,0.02346 -0.92817,0.294595 -1.54902,1.767552 -1.09041,2.587022 0.22258,0.39773 0.17943,0.76123 -0.13277,1.11859 -0.76119,0.87126 -0.963,2.00176 -0.45,2.52069 0.25998,0.26297 0.5942,0.79564 0.7427,1.1837 0.25308,0.66129 0.33509,0.63299 1.30734,-0.45119 0.77207,-0.86096 0.98266,-1.37453 0.82356,-2.00843 z m 0.75628,-2.93093 c 1.05575,-0.969527 3.19321,-2.546957 3.45121,-2.546957 0.12721,0 0.23129,0.15875 0.23129,0.352778 0,0.194027 -0.20956,0.352777 -0.46567,0.352777 -0.25612,0 -1.11479,0.555625 -1.90816,1.234722 -1.46048,1.25011 -2.56881,1.76392 -1.30867,0.60668 z m 7.56305,1.50998 c 0,-1.48527 0.60606,-1.60854 1.70344,-0.34645 0.8575,0.98622 2.1144,0.98873 3.09693,0.006 0.63563,-0.63563 0.4522,-1.9415 -0.39118,-2.784877 -0.59884,-0.598844 -0.72249,-1.44604 -0.16034,-1.098614 0.20256,0.125191 0.75818,-0.02787 1.23472,-0.340091 1.13467,-0.743469 1.27165,-3.020893 0.1817,-3.020893 -0.37661,0 -0.77198,0.141164 -0.87862,0.313697 -0.10663,0.172534 -0.58427,0.411682 -1.06143,0.531442 -0.47716,0.119759 -1.47085,0.863854 -2.2082,1.653547 -1.85023,1.981582 -1.83978,1.972632 -3.73688,3.198209 -0.92989,0.60074 -1.63103,1.27125 -1.55811,1.49004 0.22854,0.68559 0.83973,0.44208 2.31395,-0.92192 0.78449,-0.72584 1.51257,-1.180197 1.61796,-1.009677 0.10539,0.170517 -0.52114,0.894077 -1.39228,1.607907 -0.87113,0.71383 -1.58388,1.446 -1.58388,1.62704 0,0.18104 0.635,0.32916 1.41111,0.32916 1.37751,0 1.41111,-0.0294 1.41111,-1.23473 z m 31.04444,-1.89708 c 0,-1.056797 -0.83385,-2.102922 -1.20174,-1.507663 -0.11342,0.183516 -0.10771,0.826226 0.0127,1.428233 0.28019,1.40096 1.18906,1.46168 1.18906,0.0794 z m -2.70048,0.11798 c -0.1149,-0.29941 -0.28456,-0.46872 -0.37703,-0.37625 -0.0925,0.0925 -0.0635,0.33745 0.0644,0.54438 0.34785,0.56285 0.55117,0.4535 0.31263,-0.16813 z m 5.16993,-1.219507 c 0,-0.19402 -0.16812,-0.352775 -0.3736,-0.352775 -0.20548,0 -0.27548,0.158755 -0.15557,0.352775 0.11992,0.19403 0.28804,0.35278 0.3736,0.35278 0.0856,0 0.15557,-0.15875 0.15557,-0.35278 z m -18.77572,-0.901944 c 0.43123,-0.302045 0.779,-0.738607 0.77283,-0.970139 -0.006,-0.231535 -0.26071,-0.103469 -0.56565,0.284586 l -0.55443,0.705556 0.19217,-0.705556 c 0.20377,-0.748143 0.33309,-2.399645 0.27096,-3.460403 -0.0753,-1.285414 -0.74332,-0.156736 -0.75544,1.276362 -0.007,0.813168 -0.24145,1.875361 -0.52127,2.36043 -0.50031,0.867301 -0.50487,0.861445 -0.27452,-0.352778 0.40325,-2.125611 0.32603,-2.617633 -0.42643,-2.716797 -0.38806,-0.05114 -0.50049,-9.53e-4 -0.24986,0.111491 0.29781,0.133628 0.34002,0.345377 0.12185,0.61114 -0.58762,0.715777 -0.6175,2.700131 -0.0461,3.061368 0.73717,0.466044 1.1347,0.425964 2.0359,-0.20526 z M -92.789426,97.0867 c 1.02378,-0.699011 2.1407,-1.359571 2.48204,-1.467909 0.60075,-0.190669 0.90348,-1.608532 0.34345,-1.608532 -0.15245,0 -0.27718,0.238125 -0.27718,0.529167 0,0.291042 -0.11907,0.510368 -0.26459,0.48739 -0.89846,-0.141862 -1.58305,0.210983 -3.03782,1.565738 -0.90007,0.838179 -1.63405,1.750991 -1.63108,2.028472 0.004,0.328655 0.0957,0.370678 0.26458,0.120555 0.14255,-0.211173 1.09682,-0.955873 2.1206,-1.654881 z m -9.093364,0.980504 c 0,-0.291042 -0.14938,-0.529167 -0.33196,-0.529167 -0.44484,0 -0.76344,0.550895 -0.4816,0.832739 0.3973,0.397292 0.81356,0.241967 0.81356,-0.303572 z m -34.99313,-1.420446 c -0.10862,-0.108617 -0.30588,0.08718 -0.43836,0.435092 -0.19144,0.502779 -0.15092,0.543299 0.19749,0.197485 0.24109,-0.239304 0.34948,-0.52396 0.24087,-0.632577 z m 35.20227,-0.746732 c 0.12558,-0.66941 0.1299,-1.315541 0.01,-1.435846 -0.12031,-0.120304 -0.21874,0.105394 -0.21874,0.501553 0,0.461511 -0.41191,0.923347 -1.14653,1.285487 -0.6987,0.344435 -0.90539,0.568332 -0.52917,0.573229 0.33955,0.0044 0.61737,0.161801 0.61737,0.34974 0,0.874857 1.0652,-0.195968 1.26747,-1.274163 z m 1.814294,0.88458 c 0.29902,-0.299021 0.27857,-0.522746 -0.0806,-0.881944 -0.689124,-0.689119 -0.884474,-0.600629 -0.884474,0.400653 0,0.952359 0.32964,1.11675 0.965104,0.481291 z M -119.1689,95.42137 c 0,-0.559181 -0.15875,-1.114806 -0.35278,-1.234722 -0.21337,-0.13187 -0.35278,0.356055 -0.35278,1.234722 0,0.878668 0.13941,1.366595 0.35278,1.234723 0.19403,-0.119916 0.35278,-0.675541 0.35278,-1.234723 z m -15.875,-0.637821 c 0,-0.0974 -0.3175,0.110247 -0.70556,0.461433 -0.38805,0.351185 -0.70555,0.796956 -0.70555,0.9906 0,0.193643 0.3175,-0.01401 0.70555,-0.461434 0.38806,-0.447432 0.70556,-0.893201 0.70556,-0.990599 z m 24.64896,0.905617 c -0.23269,-0.434795 -1.03203,-1.39343 -1.7763,-2.130299 -1.28055,-1.26782 -1.75454,-2.37083 -1.01879,-2.37083 0.51631,0 -0.30061,-2.028202 -0.91131,-2.262552 -0.41062,-0.157568 -0.47192,-0.02697 -0.27649,0.589077 0.18938,0.596999 0.004,0.488077 -0.75575,-0.443192 -1.70283,-2.088231 -5.1244,-5.291667 -5.652,-5.291667 -0.275,0 -0.49999,-0.129517 -0.49999,-0.287817 0,-0.391244 -2.60286,-1.828849 -3.31123,-1.828849 -0.31313,0 -0.56932,-0.15875 -0.56932,-0.352778 0,-0.194028 -0.24799,-0.352778 -0.55108,-0.352778 -0.30309,0 -1.34113,-0.258415 -2.30676,-0.574256 -0.96563,-0.315841 -1.83567,-0.494271 -1.93343,-0.396511 -0.22483,0.224823 2.20859,1.676323 2.81033,1.676323 1.68646,0 7.37788,3.111512 8.96919,4.903472 1.77819,2.002416 2.04286,2.370256 2.50034,3.475 0.26113,0.63059 0.61427,1.146528 0.78476,1.146528 0.17049,0 0.30998,0.15875 0.30998,0.352778 0,0.731406 -0.56851,0.305023 -1.41111,-1.058334 -0.47966,-0.776111 -0.99339,-1.411111 -1.14162,-1.411111 -0.14822,0 -0.26949,-0.255109 -0.26949,-0.56691 0,-0.367416 -0.19266,-0.492979 -0.54749,-0.356818 -0.30339,0.116422 -0.45468,0.05992 -0.33933,-0.126728 0.31086,-0.502974 -2.19744,-2.724239 -4.40485,-3.900793 -1.33486,-0.711482 -1.66509,-0.807446 -1.05833,-0.307551 1.96146,1.616015 3.35226,2.897164 3.36741,3.101916 0.009,0.119134 1.15976,1.366505 2.55764,2.771936 1.75138,1.760829 2.54161,2.821121 2.54161,3.410186 0,0.961732 0.59606,1.317745 1.46228,0.873386 0.42725,-0.219173 0.98561,0.06876 2.11667,1.091534 1.80641,1.633462 1.86867,1.663187 1.31446,0.627638 z m 4.16702,0.01883 c -0.11261,-0.281422 -0.1962,-0.197829 -0.21313,0.213138 -0.0153,0.371884 0.0681,0.580245 0.18529,0.463021 0.11722,-0.117228 0.12975,-0.421499 0.0278,-0.676159 z m -17.5359,-1.142107 c -0.47451,-0.474509 -0.82742,0.0061 -0.54496,0.742181 0.20267,0.528148 0.28739,0.544298 0.55805,0.106358 0.19249,-0.311446 0.18729,-0.648155 -0.0131,-0.848539 z m 17.18313,-0.269003 c -0.11262,-0.281422 -0.19621,-0.197829 -0.21314,0.213137 -0.0153,0.371886 0.0681,0.580246 0.18529,0.463021 0.11722,-0.117225 0.12975,-0.421496 0.0278,-0.676158 z m 3.28679,-0.815798 c 0,-1.175926 -0.13719,-1.5875 -0.52917,-1.5875 -0.29104,0 -0.52917,0.15875 -0.52917,0.352777 0,0.194028 0.12688,0.352778 0.28194,0.352778 0.15507,0 0.21708,0.555625 0.1378,1.234722 -0.0882,0.755761 0.008,1.234723 0.24722,1.234723 0.22867,0 0.39138,-0.659983 0.39138,-1.5875 z m -29.45695,0.02283 c 0.77612,-0.355037 1.85053,-0.635015 2.3876,-0.622173 0.53707,0.01284 0.88489,-0.124863 0.77293,-0.306013 -0.434,-0.702237 -2.61887,-0.05621 -4.57164,1.351764 -0.77474,0.558601 -0.66185,0.524714 1.41111,-0.423578 z m 27.37763,-4.449506 c -0.27938,-0.699635 -0.34968,-0.415297 -0.36776,1.487409 -0.0297,3.120014 0.47207,4.363027 0.60998,1.511202 0.0568,-1.173493 -0.0522,-2.522868 -0.24222,-2.998611 z m 6.553644,4.184143 c -0.11262,-0.281423 -0.19621,-0.197829 -0.21314,0.213137 -0.0153,0.371886 0.0681,0.580245 0.18529,0.46302 0.11722,-0.117225 0.12975,-0.421496 0.0278,-0.676157 z m 5.75623,-0.299044 c 0,-0.467215 -0.47772,-0.427089 -0.98777,0.08297 -0.6659,0.6659 -0.49481,1.050855 0.28222,0.635001 0.38805,-0.207681 0.70555,-0.530767 0.70555,-0.717968 z m -23.865364,-0.151725 c 0.70763,-0.536103 0.45807,-1.410267 -0.31763,-1.112602 -0.28266,0.108465 -0.40618,0.0018 -0.30455,-0.263056 0.16988,-0.442706 -2.20169,-2.790052 -3.73481,-3.69666 -0.44081,-0.260676 -2.02205,-0.839289 -3.51386,-1.285807 -2.61725,-0.783377 -3.77029,-1.0269 -6.98115,-1.474418 -0.82461,-0.114933 -1.4993,-0.348949 -1.4993,-0.520036 0,-0.309723 0.97065,-0.228365 5.24475,0.439602 2.7074,0.423119 3.13083,0.253791 0.83438,-0.333659 -2.22381,-0.568867 -7.84391,-1.045409 -8.06725,-0.684042 -0.22217,0.359485 -0.8341,0.0057 -0.8341,-0.482218 0,-0.23427 1.37748,-0.320789 3.88099,-0.243763 2.13454,0.06567 3.88079,0.0059 3.88055,-0.132765 -5.4e-4,-0.312364 -1.19271,-0.989238 -2.82266,-1.602612 -0.9209,-0.346551 -2.4564,-0.406959 -6.04148,-0.237678 -4.83913,0.228494 -5.84422,0.02833 -4.68571,-0.933147 0.43105,-0.357739 0.70126,-0.367714 1.21805,-0.04497 0.60437,0.377434 3.14296,0.295841 4.54105,-0.145953 1.14089,-0.36052 -0.93553,-1.205686 -3.32218,-1.35223 -2.56014,-0.157196 -4.76212,-0.650177 -5.18573,-1.160984 -0.41349,-0.498597 -0.11952,-0.528258 2.98118,-0.300806 4.44267,0.325892 5.77196,0.56526 11.72955,2.112157 2.75064,0.714208 5.99393,1.823281 7.32014,2.503182 1.30968,0.671436 2.38125,1.1531 2.38125,1.070366 0,-0.156475 -3.21797,-2.441479 -3.52778,-2.504994 -0.097,-0.01989 -0.81139,-0.325699 -1.5875,-0.679579 -0.77611,-0.353879 -1.64924,-0.685462 -1.94028,-0.73685 -0.29104,-0.05139 -1.16417,-0.272019 -1.94028,-0.49029 -2.57173,-0.723268 -6.31364,-1.386311 -9.08403,-1.609635 -1.50371,-0.121216 -2.73402,-0.338994 -2.73402,-0.48395 0,-0.514573 7.29325,0.30098 10.75972,1.203183 3.39378,0.883286 6.36591,2.057833 8.29028,3.276211 1.49154,0.944343 1.7771,1.042717 1.23472,0.425353 l -0.70556,-0.803102 0.79375,0.416523 c 0.62771,0.32939 0.7913,0.321679 0.78202,-0.03686 -0.018,-0.696249 -1.2678,-2.040885 -1.8969,-2.040885 -0.66677,0 -0.72279,0.40247 -0.13748,0.987778 0.32926,0.329259 0.32926,0.423333 0,0.423333 -0.23283,0 -0.42333,-0.15875 -0.42333,-0.352777 0,-0.194028 -0.21384,-0.352778 -0.47519,-0.352778 -0.26135,0 -0.84266,-0.318706 -1.29179,-0.708235 -1.94355,-1.685637 -10.22176,-3.415004 -17.29484,-3.612998 -1.73865,-0.04867 -3.16163,-0.20118 -3.16218,-0.338912 -0.002,-0.556011 -2.63736,-1.042257 -3.61697,-0.667419 -1.31854,0.50452 -1.22203,0.926372 0.45398,1.984387 1.30758,0.825444 1.68652,1.803193 0.52629,1.357971 -0.27305,-0.104776 -0.75845,-0.04388 -1.07869,0.135335 -0.52335,0.292886 -0.49865,0.423011 0.2443,1.286744 0.61492,0.714884 1.21473,0.98986 2.34269,1.073987 1.76183,0.131402 2.08656,0.345994 1.53297,1.013029 -0.32146,0.387337 -0.13179,0.563122 0.9608,0.89047 0.74872,0.224325 1.62071,0.407863 1.93775,0.407863 0.31704,0 0.57643,0.168119 0.57643,0.373598 0,0.205478 -0.15875,0.275485 -0.35277,0.155569 -0.19403,-0.119916 -0.35278,0.03445 -0.35278,0.34303 0,0.845844 0.86723,1.008632 2.06731,0.38805 0.58996,-0.30508 1.15991,-0.554691 1.26656,-0.554691 0.39355,0 0.17897,1.00487 -0.24707,1.157027 -0.55116,0.196844 -0.18727,0.619914 0.67323,0.78273 1.05809,0.2002 1.05311,0.247502 -0.0559,0.529687 l -1.05834,0.2693 1.14653,0.04174 c 0.63059,0.02295 1.14653,0.219004 1.14653,0.435662 0,0.22024 -0.31109,0.312572 -0.70556,0.209416 -0.38805,-0.101479 -0.70555,-0.05799 -0.70555,0.09665 0,0.405853 2.58299,0.676403 2.98097,0.312235 0.56505,-0.517049 1.25236,-0.341214 1.25236,0.320394 0,0.344883 0.23693,0.965332 0.52652,1.378776 0.57415,0.819716 1.65505,0.764613 2.70099,-0.137694 0.50868,-0.438827 0.6415,-0.418105 1.05834,0.165129 0.77323,1.081895 1.71811,1.443323 2.89264,1.106472 0.58531,-0.167865 1.22572,-0.466728 1.42313,-0.664142 0.72685,-0.726853 1.27616,-0.368474 1.27616,0.832592 0,1.274457 0.39833,1.762963 1.69727,2.081526 0.52605,0.129013 0.88365,0.02193 1.00788,-0.301825 0.26408,-0.688166 0.79902,-0.630103 1.06485,0.115578 0.55545,1.558128 1.77775,1.951015 3.0563,0.982391 z m -2.94575,-3.010863 c 0,-0.194028 0.15875,-0.352778 0.35278,-0.352778 0.19403,0 0.35278,0.15875 0.35278,0.352778 0,0.194028 -0.15875,0.352778 -0.35278,0.352778 -0.19403,0 -0.35278,-0.15875 -0.35278,-0.352778 z m 18.69606,1.770276 c 0.14409,-0.787981 0.12392,-1.518018 -0.0448,-1.622304 -0.33777,-0.208759 -0.32617,-0.254492 -0.484,1.907217 -0.13504,1.849684 0.16837,1.686212 0.52882,-0.284913 z m 1.415344,0.963752 c 0.002,-0.436563 0.0913,-1.666875 0.1992,-2.734028 0.14718,-1.456055 0.10175,-1.792854 -0.18208,-1.34955 -0.572894,0.894801 -0.918474,4.877328 -0.423224,4.877328 0.221674,0 0.404424,-0.357188 0.406104,-0.79375 z m -11.623774,-1.191665 c -0.62708,-1.169997 -0.72652,-1.239332 -0.72652,-0.506584 0,0.791587 0.99897,2.316182 1.31232,2.002828 0.0774,-0.07739 -0.18621,-0.750705 -0.5858,-1.496244 z m 2.82389,-1.660849 c -0.44541,-0.445404 -0.53322,1.792007 -0.11082,2.823661 0.18764,0.458299 0.29681,0.196288 0.3754,-0.901022 0.061,-0.850979 -0.0581,-1.716166 -0.26458,-1.922639 z m 1.90469,0.0085 c -0.10586,-1.588746 -0.26012,-3.319037 -0.34279,-3.84509 -0.0827,-0.526053 0.006,-1.05296 0.19667,-1.170904 0.19084,-0.117944 0.25134,-0.369179 0.13446,-0.558299 -0.11688,-0.18912 -0.0104,-0.587377 0.23661,-0.885014 0.39659,-0.477859 0.52112,-0.445719 1.06458,0.274766 0.76759,1.017613 0.96194,0.832197 1.09081,-1.040629 0.0561,-0.815793 0.20545,-1.483492 0.3318,-1.483776 0.12636,-2.85e-4 0.56292,-0.565216 0.97014,-1.255404 0.78884,-1.336988 0.96812,-2.796072 0.38762,-3.154836 -0.46614,-0.28809 -0.45646,-2.293055 0.0111,-2.293055 0.20012,0 0.45523,0.238125 0.56691,0.529166 0.37476,0.976592 1.16249,0.541864 1.88265,-1.038978 0.392904,-0.86248 0.716804,-1.854668 0.719774,-2.204861 0.007,-0.850417 0.55486,-1.686371 0.82181,-1.254444 0.71381,1.15498 -0.0315,6.791337 -0.89809,6.791337 -0.15505,0 -0.2819,0.185938 -0.2819,0.413194 0,0.227257 -0.21935,0.66382 -0.487444,0.970139 -0.8051,0.919892 -1.05584,2.144445 -0.4391,2.144445 1.036754,0 1.043234,0.819914 0.0133,1.684606 -0.56487,0.474249 -0.78892,0.742127 -0.49788,0.595284 0.29104,-0.146843 0.16225,0.0891 -0.28619,0.524327 -1.54742,1.501775 -1.85958,3.893937 -0.57259,4.387803 0.65766,0.252365 1.71212,-0.670279 1.38007,-1.207545 -0.12609,-0.204015 -0.06,-0.57488 0.14688,-0.824143 0.20686,-0.249264 0.42525,-0.758247 0.4853,-1.131075 0.205814,-1.277839 0.852254,-2.000785 1.789054,-2.000785 1.33947,0 1.89886,-0.804742 0.96485,-1.388039 -0.94781,-0.591919 -0.93326,-1.211165 0.0344,-1.464215 0.95574,-0.24993 1.3499,-0.02048 1.3499,0.785806 0,0.344266 0.1037,0.729641 0.23045,0.856388 0.32763,0.327633 1.88622,-1.881922 1.88622,-2.67403 0,-0.835087 -0.66311,-2.115428 -1.28622,-2.483439 -0.706,-0.416968 -0.57982,-1.196386 0.22788,-1.407605 0.57657,-0.150775 0.70556,-0.481194 0.70556,-1.807367 0,-1.291374 -0.18015,-1.779494 -0.88194,-2.3897 -0.62647,-0.544703 -0.8852,-1.131634 -0.89317,-2.02614 -0.0151,-1.697542 -0.72925,-2.576535 -1.97598,-2.432158 -0.77515,0.08977 -1.06059,0.365811 -1.32034,1.276879 -0.29527,1.035701 -0.4369,1.139176 -1.299794,0.949654 -1.21827,-0.267578 -2.09545,0.833826 -2.09545,2.631095 0,1.218109 -0.007,1.224173 -0.54917,0.450672 -0.65098,-0.929413 -0.97558,-0.972792 -1.71868,-0.229686 -0.7568,0.756798 -0.69593,1.992744 0.15119,3.069676 0.38805,0.493332 0.70555,0.988861 0.70555,1.101174 0,0.112313 -0.55786,0.437293 -1.23968,0.722178 -1.5401,0.643494 -1.80896,1.287426 -1.03239,2.472617 0.33207,0.506799 0.50288,1.022333 0.37958,1.14563 -0.12329,0.123296 -0.22417,0.03201 -0.22417,-0.202863 0,-0.234872 -0.19844,-0.394622 -0.44098,-0.355 -0.24253,0.03962 -0.87816,-0.108479 -1.4125,-0.329113 -1.17345,-0.48452 -2.60485,0.0352 -2.9315,1.064368 -0.20957,0.660314 0.67476,2.431452 1.17568,2.354634 0.68429,-0.104939 0.78996,0.09151 0.30831,0.573168 -0.29105,0.291042 -0.85801,0.529167 -1.25993,0.529167 -1.0783,0 -1.12628,2.243389 -0.0821,3.837057 0.4778,0.729215 0.60406,0.781694 0.69868,0.290392 0.15974,-0.829476 0.58914,-0.749673 1.0443,0.194078 0.34152,0.708139 0.38538,0.63204 0.40669,-0.705555 0.0152,-0.953191 0.18449,-1.498244 0.46484,-1.49639 0.31471,0.0021 0.46459,0.935069 0.52343,3.258407 0.0893,3.526423 0.24728,4.31191 0.79856,3.971195 0.2198,-0.135843 0.28292,-1.329861 0.16436,-3.109166 z m -23.63267,1.889278 c 0.11467,-0.185554 0.40186,-0.266597 0.63818,-0.180095 0.23632,0.0865 0.66702,0.0065 0.95712,-0.177866 0.45265,-0.287617 0.42764,-0.41075 -0.17639,-0.868306 -0.38711,-0.293241 -0.94196,-0.429535 -1.233,-0.302877 -1.02514,0.44613 -2.50291,0.194171 -3.3104,-0.564421 -0.67643,-0.63547 -0.97694,-0.706071 -1.75166,-0.411521 -0.72197,0.274492 -0.93516,0.594401 -0.93516,1.403283 0,0.9962 0.0824,1.054235 1.67569,1.179866 3.35092,0.264224 3.93084,0.253277 4.13562,-0.07807 z m 34.072454,-0.405333 c 0.4188,-0.782536 0.16018,-3.137854 -0.34454,-3.137854 -0.16098,0 -0.39192,0.496094 -0.51318,1.10243 -0.50155,2.507746 -0.0141,3.664463 0.85772,2.035424 z m -1.64486,-1.452528 c 0.1306,-0.829916 0.36659,-2.268655 0.52442,-3.197198 0.30273,-1.781017 -0.14578,-2.748694 -0.49139,-1.060195 -0.11084,0.541512 -0.33287,1.481298 -0.49339,2.088413 -0.16052,0.607115 -0.26829,1.480241 -0.23949,1.940278 0.0288,0.460037 -0.0917,0.937745 -0.26771,1.061573 -0.38547,0.271145 0.0523,1.09495 0.45098,0.848578 0.15352,-0.09488 0.38599,-0.851534 0.51658,-1.681449 z m 4.09443,1.136896 c 0,-0.194028 -0.15875,-0.352778 -0.35278,-0.352778 -0.19403,0 -0.35278,0.15875 -0.35278,0.352778 0,0.194028 0.15875,0.352778 0.35278,0.352778 0.19403,0 0.35278,-0.15875 0.35278,-0.352778 z m -6.879174,-1.763889 c 0.11992,-0.194028 0.0499,-0.352778 -0.15557,-0.352778 -0.20548,0 -0.3736,0.15875 -0.3736,0.352778 0,0.194028 0.07,0.352778 0.15557,0.352778 0.0856,0 0.25369,-0.15875 0.3736,-0.352778 z m 32.795574,-1.044224 c 0.47475,-0.524595 0.56805,-0.999002 0.38664,-1.965978 -0.20547,-1.095266 -0.14934,-1.265203 0.39907,-1.208207 1.29215,0.134291 1.56857,-0.01919 1.45645,-0.808674 -0.0773,-0.544561 -0.38961,-0.826869 -0.99467,-0.899243 -1.61039,-0.192625 -1.88909,-0.376914 -1.4217,-0.940086 0.50187,-0.604713 0.15754,-1.953033 -0.49875,-1.953033 -0.25399,0 -1.10177,0.60273 -1.88397,1.339399 l -1.42217,1.339399 1.0258,0.454059 c 1.16701,0.516569 1.35271,1.719569 0.49662,3.217144 -0.27729,0.485069 -0.50626,1.120069 -0.50882,1.411111 -0.007,0.774956 1.31876,-1.001393 1.71117,-2.293056 0.30004,-0.987633 0.32281,-0.999417 0.34083,-0.176389 0.0106,0.48507 -0.20756,1.27882 -0.48485,1.763889 -0.27729,0.48507 -0.50979,1.001007 -0.51666,1.146528 -0.0255,0.53925 1.31011,0.241541 1.91501,-0.426863 z m -47.059914,-1.558855 c -0.96719,-0.96719 -1.65945,-0.344844 -0.87005,0.782182 0.45285,0.646538 0.65479,0.715606 1.0743,0.367444 0.44745,-0.371347 0.4201,-0.525276 -0.20425,-1.149626 z m 23.965734,1.191968 c 0,-0.194028 -0.07,-0.352778 -0.15557,-0.352778 -0.0856,0 -0.25368,0.15875 -0.3736,0.352778 -0.11991,0.194028 -0.0499,0.352778 0.15557,0.352778 0.20548,0 0.3736,-0.15875 0.3736,-0.352778 z m -7.79628,-2.38125 c 0.0193,-0.436563 -0.14056,-0.79375 -0.35535,-0.79375 -0.21987,0 -0.29173,0.257456 -0.16444,0.589156 0.12434,0.324037 0.045,0.701092 -0.1764,0.837902 -0.25387,0.156905 -0.30043,0.558071 -0.1261,1.086538 l 0.27638,0.837793 0.25538,-0.881945 c 0.14045,-0.485069 0.2712,-1.239132 0.29053,-1.675694 z m -7.139534,0.529167 c -0.0979,-0.242535 -0.17793,-0.0441 -0.17793,0.440972 0,0.485069 0.0801,0.683507 0.17793,0.440972 0.0979,-0.242535 0.0979,-0.63941 0,-0.881944 z m 9.996924,0.461792 c 0,-0.182577 -0.15875,-0.430071 -0.35278,-0.549987 -0.19402,-0.119916 -0.35277,0.02946 -0.35277,0.331958 0,0.302493 0.15875,0.549987 0.35277,0.549987 0.19403,0 0.35278,-0.149381 0.35278,-0.331958 z m -27.869444,-0.726376 c -0.29104,-0.188085 -0.76729,-0.341973 -1.05834,-0.341973 -0.47037,0 -0.47037,0.038 0,0.341973 0.29105,0.188086 0.7673,0.341974 1.05834,0.341974 0.47037,0 0.47037,-0.038 0,-0.341974 z m 42.368884,-0.399114 c 1.28296,-0.427003 2.33682,-1.226666 2.02609,-1.537395 -0.10418,-0.10418 -0.74926,0.0445 -1.4335,0.330391 -0.68424,0.285895 -1.3231,0.440785 -1.41969,0.3442 -0.0966,-0.09659 -0.5975,0.01662 -1.11315,0.251564 -0.67609,0.308046 -0.81178,0.506984 -0.48656,0.713362 0.60689,0.385123 1.01437,0.367976 2.42681,-0.102122 z m -11.17325,-0.508029 c 0.49108,-0.491081 0.75212,-1.209523 0.43947,-1.209523 -0.0632,0 -0.48774,0.396875 -0.94344,0.881944 -0.88967,0.947019 -0.42046,1.25201 0.50397,0.327579 z m -24.140084,-1.064157 c 0,-0.593904 -0.25067,-0.900396 -0.86189,-1.053801 -0.93193,-0.233899 -1.60755,0.02425 -1.60755,0.61422 0,0.203335 0.24637,0.27516 0.54749,0.15961 0.3266,-0.125329 0.45668,-0.06316 0.32241,0.154099 -0.32197,0.520955 0.49799,1.386057 1.09617,1.156515 0.27685,-0.106239 0.50337,-0.570029 0.50337,-1.030643 z m 23.481924,-0.198758 1.03614,-1.111726 -1.14653,0.825291 c -0.63059,0.453909 -1.14653,0.954186 -1.14653,1.111725 0,0.457209 0.15878,0.352957 1.25692,-0.82529 z m -50.645814,0.08279 c 0,-0.177859 -0.19843,-0.401439 -0.44097,-0.496845 -0.24253,-0.09541 0.19403,-0.09826 0.97014,-0.0063 1.77472,0.210187 0.9662,-0.383771 -1.00486,-0.738198 -1.07531,-0.193356 -1.29652,-0.147739 -1.06374,0.219347 0.16165,0.25491 0.31618,0.582535 0.34341,0.728056 0.0272,0.145521 0.0693,0.343958 0.0936,0.440972 0.08,0.319817 1.10243,0.183487 1.10243,-0.146989 z m 50.595774,-2.114504 c -0.25151,-0.252579 -1.55966,1.114809 -1.55966,1.630287 0,0.286869 0.35738,0.07895 0.85194,-0.495648 0.46856,-0.544396 0.78704,-1.054984 0.70772,-1.134639 z m -7.443484,-0.03696 c 0.26035,-0.0034 0.22992,-0.123056 -0.0814,-0.320139 -0.7084,-0.448455 -1.4431,-0.07107 -1.4431,0.74126 0,0.63001 0.0504,0.642614 0.55437,0.138646 0.3049,-0.304901 0.74146,-0.556796 0.97014,-0.559767 z m 20.957734,0.145043 c -0.11723,-0.117225 -0.4215,-0.129758 -0.67616,-0.02785 -0.28142,0.112616 -0.19783,0.196209 0.21314,0.213137 0.37188,0.01532 0.58024,-0.06806 0.46302,-0.185287 z m 1.85943,-0.459392 c 0,-0.175863 -0.3175,-0.236723 -0.70556,-0.135244 -0.38805,0.101479 -0.70555,0.245367 -0.70555,0.319751 0,0.07438 0.3175,0.135244 0.70555,0.135244 0.38806,0 0.70556,-0.143888 0.70556,-0.319751 z m -35.983334,-1.567885 c 0,-0.715005 -0.88703,-2.345698 -1.27596,-2.345698 -0.96042,0 0.0428,2.444268 1.01137,2.464043 0.14552,0.003 0.26459,-0.05028 0.26459,-0.118345 z m -4.05695,-2.661438 c 0,-1.887262 0.14893,-2.596971 0.66451,-3.166681 1.02783,-1.135742 1.28898,-0.558003 0.49273,1.090056 -0.66171,1.369577 -0.67801,1.59696 -0.20707,2.888596 0.28115,0.771099 0.69957,1.464795 0.92984,1.541549 0.3109,0.103636 0.32714,-0.101141 0.0631,-0.795691 -0.47922,-1.260455 -0.45028,-3.25859 0.0517,-3.568832 0.24001,-0.148338 0.31198,-0.09752 0.17524,0.123734 -0.12762,0.206497 -0.13628,0.624993 -0.0192,0.929991 0.16217,0.422605 0.37035,0.470222 0.875,0.200139 0.98517,-0.527247 1.46031,-1.656873 1.19842,-2.849234 -0.20951,-0.953875 -0.33388,-1.03624 -1.25821,-0.833224 -1.18127,0.259452 -1.24036,0.119205 -0.45482,-1.079674 0.71961,-1.098292 0.16485,-1.9261 -1.29081,-1.9261 -1.47936,0 -2.0724,0.329956 -2.66997,1.485522 -0.51233,0.990734 -0.57674,1.015402 -1.1936,0.457149 -0.61303,-0.554789 -0.676,-0.545333 -1.05244,0.158053 -0.4108,0.767574 -0.21699,1.941523 0.45979,2.785124 0.21008,0.261869 0.33843,1.079156 0.28521,1.816193 -0.0532,0.737037 0.0362,1.422239 0.19871,1.522671 0.1625,0.100433 0.23795,-0.420462 0.16766,-1.157544 -0.0703,-0.737082 0.0458,-1.447472 0.25809,-1.578645 0.25866,-0.159862 0.38767,0.320859 0.39129,1.458018 0.008,2.514283 0.68048,3.272346 0.72261,0.81457 0.037,-2.160774 0.1653,-2.047783 0.50058,0.440972 0.3302,2.450955 0.71169,2.045329 0.71169,-0.756712 z m -6.57987,-0.07756 c -0.59279,-0.375667 -2.41596,-0.407717 -2.41596,-0.04247 0,0.148383 0.59531,0.529292 1.32291,0.846465 1.17596,0.512617 1.33657,0.516734 1.44583,0.03707 0.0676,-0.296786 -0.0912,-0.675264 -0.35278,-0.841065 z m 10.8778,0.67993 c -0.11261,-0.281422 -0.19621,-0.197829 -0.21313,0.213137 -0.0153,0.371886 0.068,0.580246 0.18528,0.463021 0.11723,-0.117225 0.12976,-0.421496 0.0278,-0.676158 z m -8.0021,-0.933391 c 0,-1.519285 -0.19722,-1.860232 -0.91643,-1.584246 -0.61203,0.234858 -0.63929,1.303455 -0.057,2.235792 0.66065,1.057871 0.97347,0.848498 0.97347,-0.651546 z m 35.804964,-1.806009 c 3.21374,-2.581084 2.27851,-2.735823 -1.06359,-0.175977 -1.45122,1.111546 -2.63859,2.065379 -2.63859,2.119628 0,0.05425 -0.11,0.385293 -0.24445,0.735655 -0.27852,0.725823 -0.37303,0.789982 3.94663,-2.679306 z m 1.50822,2.452768 c 0.41653,-0.388055 0.88302,-0.709851 1.03666,-0.715101 0.44392,-0.01517 2.92516,-2.42972 2.92516,-2.846544 0,-0.470965 -3.08696,1.288045 -4.55272,2.594228 -0.60045,0.535073 -1.09172,1.130385 -1.09172,1.322916 0,0.580315 0.87703,0.395017 1.68262,-0.355499 z m -0.77967,-1.309427 c 0.86157,-0.720185 1.56649,-1.43456 1.56649,-1.5875 0,-0.422969 -0.69566,-0.332142 -1.24767,0.162899 -1.12159,1.005816 -1.55965,1.322917 -1.82758,1.322917 -0.15554,0 -0.48109,0.3175 -0.72343,0.705556 -0.74881,1.199026 0.4697,0.869384 2.23219,-0.603872 z m 7.13735,0.436266 c 1.58459,-1.822442 2.57608,-3.716543 2.25024,-4.298782 -0.26486,-0.473293 -0.39788,-0.40072 -0.82841,0.451976 -0.99296,1.966601 -1.53239,2.759929 -2.31838,3.409569 -0.43656,0.360829 -0.79375,0.80328 -0.79375,0.983225 0,0.624537 0.9352,0.322457 1.6903,-0.545988 z m -49.668084,-0.245588 c 0,-1.268197 -1.00488,-2.056251 -2.62201,-2.056251 -1.50114,0 -3.18925,0.855794 -2.83113,1.435249 0.11172,0.180752 0.70968,0.340717 1.32882,0.355479 0.61914,0.01476 1.68134,0.240809 2.36043,0.502328 1.68374,0.648403 1.76389,0.637641 1.76389,-0.236805 z m 38.661554,-0.380556 c 0.95442,-0.9047 1.07076,-1.292951 0.35598,-1.188045 -0.72282,0.106088 -1.62308,0.935763 -1.62308,1.495824 0,0.681315 0.30069,0.608277 1.2671,-0.307779 z m 12.49123,0.440972 c 0,-0.194028 -0.07,-0.352778 -0.15557,-0.352778 -0.0856,0 -0.25368,0.15875 -0.3736,0.352778 -0.11991,0.194028 -0.0499,0.352778 0.15557,0.352778 0.20548,0 0.3736,-0.15875 0.3736,-0.352778 z m -1.98449,-1.703658 c 1.68862,-2.300365 2.15344,-3.545321 1.42766,-3.823827 -0.78525,-0.301331 -1.18451,0.241001 -1.48854,2.021953 -0.19252,1.127693 -0.45196,1.59493 -0.93754,1.688444 -1.39969,0.269557 -2.18977,1.817088 -0.92769,1.817088 0.3996,0 1.18631,-0.695852 1.92611,-1.703658 z m -55.596774,0.321945 c -0.13098,-0.68012 -3.13178,-0.805565 -3.35357,-0.140192 -0.12453,0.373597 0.46819,0.505598 3.00562,0.669358 0.25054,0.01617 0.40711,-0.221955 0.34795,-0.529166 z m -5.21318,-0.734954 c -0.43816,-0.818697 -0.67889,-0.847564 -2.50516,-0.300398 -1.83041,0.548403 -1.3979,1.005954 0.95089,1.005954 1.82255,0 1.9105,-0.03992 1.55427,-0.705556 z m 54.327774,-1.819496 c 0,-0.177097 -0.32194,-0.149694 -0.71543,0.0609 -0.39349,0.21059 -0.61749,0.541384 -0.49776,0.735098 0.24125,0.390353 1.21319,-0.247352 1.21319,-0.795993 z M -111.93696,191.72969 c -0.11991,-0.19402 -0.0499,-0.35277 0.15557,-0.35277 0.20548,0 0.3736,0.15875 0.3736,0.35277 0,0.19403 -0.07,0.35278 -0.15557,0.35278 -0.0856,0 -0.25368,-0.15875 -0.3736,-0.35278 z m -9.81898,-4.11574 c -0.12935,-0.12935 -0.23518,-0.39922 -0.23518,-0.59972 0,-0.22105 0.16431,-0.20022 0.41745,0.0529 0.2296,0.2296 0.33543,0.49947 0.23519,0.59972 -0.10025,0.10025 -0.28811,0.0764 -0.41746,-0.0529 z m 23.400934,-0.63138 0.88194,-0.51954 -0.81457,-0.0125 c -1.39484,-0.0214 -0.52043,-0.615 1.18993,-0.80778 0.89445,-0.10082 1.81091,-0.37326 2.03657,-0.60544 0.31358,-0.32263 0.28556,-0.40533 -0.11887,-0.35085 -0.29104,0.0392 -0.76729,0.05 -1.05834,0.0241 -0.47037,-0.042 -0.47037,-0.0852 0,-0.38917 0.29105,-0.18809 0.85602,-0.34441 1.25549,-0.34738 0.39948,-0.003 1.03448,-0.24391 1.41112,-0.53543 0.57083,-0.44184 0.58205,-0.49426 0.0674,-0.31504 -1.04093,0.36251 -0.68519,-0.16065 0.52917,-0.77821 1.27015,-0.64593 2.55268,-1.85066 2.27055,-2.1328 -0.0999,-0.0999 -0.52634,0.003 -0.94764,0.2283 -0.42129,0.22547 -0.84465,0.33127 -0.9408,0.23512 -0.0962,-0.0962 0.38639,-0.44114 1.07232,-0.76664 1.53987,-0.73072 2.34797,-1.58515 1.49918,-1.58515 -0.84709,0 -0.69473,-0.52084 0.30958,-1.05833 0.94489,-0.50569 1.2342,-1.26899 0.35278,-0.93076 -0.89119,0.34198 -0.58898,-0.30345 0.52917,-1.13013 1.31955,-0.97558 1.37419,-1.5596 0.11636,-1.24391 -0.85857,0.21549 -0.81172,0.11875 0.52917,-1.09266 1.55038,-1.4007 1.81662,-1.95256 0.94197,-1.95256 -0.29104,0 -0.52917,0.16811 -0.52917,0.37359 0,0.20548 -0.16282,0.27297 -0.36182,0.14998 -0.20898,-0.12915 0.0891,-0.64479 0.70556,-1.22068 1.18667,-1.10852 1.36777,-1.77234 0.48353,-1.77234 -0.54073,0 -0.54124,-0.0471 -0.007,-0.63753 0.31732,-0.35064 0.72024,-1.50157 0.89538,-2.55763 l 0.31842,-1.92012 0.0412,2.30902 c 0.0443,2.48005 -1.10995,8.67879 -1.92855,10.35699 -0.27481,0.56339 -0.49965,1.14451 -0.49965,1.29138 0,0.14687 -0.85528,1.56688 -1.90063,3.15557 -2.4973,3.79534 -5.41205,6.2367 -8.15354,6.82929 l -1.05833,0.22877 0.88194,-0.51953 z m -25.047224,-0.21259 c 0,-0.20547 0.15875,-0.27548 0.35277,-0.15556 0.19403,0.11991 0.35278,0.28803 0.35278,0.3736 0,0.0856 -0.15875,0.15556 -0.35278,0.15556 -0.19402,0 -0.35277,-0.16812 -0.35277,-0.3736 z m 0.79396,-1.12623 c -0.5405,-1.11934 -1.17395,-3.17666 -1.02421,-3.32641 0.0692,-0.0691 0.46049,0.78305 0.86965,1.89378 0.75888,2.06005 0.84557,2.86366 0.15456,1.43263 z m 2.38104,-0.61683 c -0.98112,-1.92314 -0.71933,-2.18492 0.32564,-0.32565 0.44214,0.7867 0.71958,1.51468 0.61652,1.61774 -0.10307,0.10307 -0.52704,-0.47838 -0.94216,-1.29209 z m 3.84479,-1.76389 c -0.175,-0.97812 0.39146,-3.21304 1.29923,-5.12604 0.86652,-1.82604 0.97597,-1.27284 0.18394,0.92969 -0.37644,1.04681 -0.82864,2.61767 -1.0049,3.49079 -0.25994,1.28764 -0.35028,1.42091 -0.47827,0.70556 z m -5.19627,-1.31161 c -0.21347,-0.53979 -0.49485,-1.4577 -0.6253,-2.03978 -0.13045,-0.58208 -0.35754,-1.21708 -0.50466,-1.41111 -0.29024,-0.38279 -0.59912,-2.15985 -0.85846,-4.93889 l -0.1646,-1.76389 0.32948,1.76389 c 0.18121,0.97014 0.79895,3.42956 1.37275,5.46537 1.02667,3.64258 1.21313,4.8522 0.45079,2.92441 z m 7.05162,0.25327 c 0,-0.48506 0.0801,-0.6835 0.17794,-0.44097 0.0979,0.24254 0.0979,0.63941 0,0.88195 -0.0979,0.24253 -0.17794,0.0441 -0.17794,-0.44098 z m -2.73393,-1.23472 c 0.0766,-0.77611 0.23262,-1.64923 0.34671,-1.94028 0.11409,-0.29104 0.0504,-0.76729 -0.14163,-1.05833 -0.28578,-0.43322 -0.40415,-0.44383 -0.65285,-0.0585 -0.23424,0.36295 -0.47542,0.25251 -1.05351,-0.4824 -0.65996,-0.83901 -0.77802,-0.87939 -0.98604,-0.33729 -0.12997,0.33871 -0.0357,1.39861 0.20951,2.35534 0.2452,0.95673 0.34672,1.83861 0.2256,1.95973 -0.51629,0.51629 -1.00235,-0.715 -1.16982,-2.9634 -0.0989,-1.32759 -0.4841,-3.33777 -0.85603,-4.46706 -0.76067,-2.30962 -0.95103,-7.57102 -0.31145,-8.60831 0.29217,-0.47386 0.33728,0.0199 0.18439,2.01852 -0.21043,2.75067 0.1655,5.95067 0.66311,5.64444 0.15764,-0.097 0.31199,-1.84326 0.34301,-3.88055 0.031,-2.0373 0.21515,-3.97111 0.40917,-4.29736 0.24814,-0.41724 0.31703,0.31937 0.23226,2.48338 -0.0785,2.00403 0.0597,3.68662 0.39639,4.82652 l 0.51692,1.74996 0.36225,-1.5875 c 0.31659,-1.38745 0.3398,-1.22073 0.18419,1.32291 -0.19411,3.17302 0.2157,3.82385 0.92244,1.46496 0.23819,-0.795 0.51244,-1.36608 0.60946,-1.26906 0.097,0.097 -0.0222,0.83932 -0.26499,1.64957 -0.37083,1.2377 -0.36064,1.5237 0.0637,1.78919 0.36408,0.22776 0.53525,0.1318 0.61303,-0.34367 0.0593,-0.36281 0.41653,-0.93898 0.79375,-1.28035 0.80252,-0.72628 0.89357,-0.28648 0.14546,0.70262 -0.28487,0.37664 -0.52011,0.93226 -0.52274,1.23473 -0.002,0.30246 -0.31907,1.50243 -0.70319,2.6666 -0.63046,1.91078 -0.68485,1.97941 -0.55914,0.70555 z m -7.00286,0.44097 c -0.38614,-1.27118 -0.47807,-2.09743 -0.20191,-1.8147 0.39731,0.40676 0.85761,2.25568 0.56156,2.25568 -0.12414,0 -0.28598,-0.19844 -0.35965,-0.44098 z m -0.68227,-2.92405 c -0.12099,-0.31528 -0.20566,-0.91744 -0.18816,-1.33813 0.0225,-0.54199 0.13122,-0.41949 0.37289,0.42031 0.35138,1.22103 0.20696,1.93855 -0.18473,0.91782 z m -0.6943,-3.1148 c -0.14606,-0.55647 -0.1822,-1.09513 -0.0803,-1.19702 0.28405,-0.28405 0.6313,0.85209 0.4801,1.57082 -0.099,0.47035 -0.20399,0.37213 -0.39979,-0.3738 z m -0.358,-2.41382 c -0.119,-0.44426 -0.19874,-1.36337 -0.17718,-2.04246 0.0299,-0.94275 0.1056,-0.77625 0.32,0.70412 0.29507,2.03739 0.22367,2.70647 -0.14282,1.33834 z m 41.054394,-1.60149 c 0.003,-0.14552 0.15929,-0.50271 0.34738,-0.79375 0.27653,-0.42791 0.34301,-0.37728 0.34738,0.26458 0.003,0.43656 -0.15335,0.79375 -0.34738,0.79375 -0.19403,0 -0.35035,-0.11906 -0.34738,-0.26458 z m -39.104964,-1.32292 c -0.0376,-0.77611 -0.15653,-1.80799 -0.26425,-2.29306 -0.16779,-0.75559 -0.13907,-0.79307 0.20041,-0.26158 0.21795,0.3412 0.33686,1.37307 0.26425,2.29306 -0.12831,1.62584 -0.13392,1.63317 -0.20041,0.26158 z m 4.3893,-13.5199 c -0.12444,-0.20134 -0.0543,-0.47231 0.15576,-0.60216 0.52426,-0.32401 0.70986,-0.0663 0.35998,0.4998 -0.18745,0.30329 -0.36926,0.33938 -0.51574,0.10236 z m 19.18804,-33.22316 c 0,-0.19402 0.16812,-0.35277 0.3736,-0.35277 0.205484,0 0.275484,0.15875 0.155574,0.35277 -0.119924,0.19403 -0.288044,0.35278 -0.373604,0.35278 -0.0856,0 -0.15557,-0.15875 -0.15557,-0.35278 z m 32.896534,-21.54493 c -0.8344,-0.32015 -1.10995,-1.39367 -0.35278,-1.37441 0.24253,0.006 0.74994,0.2449 1.12757,0.53049 0.87497,0.66174 0.32153,1.26456 -0.77479,0.84392 z m -12.96459,-9.499508 c 0.11992,-0.194027 0.28804,-0.352777 0.3736,-0.352777 0.0856,0 0.15557,0.15875 0.15557,0.352777 0,0.194028 -0.16812,0.352778 -0.3736,0.352778 -0.20548,0 -0.27548,-0.15875 -0.15557,-0.352778 z"
         id="path7892" />
    </g>
  </g>
</svg>
