<?xml version="1.0" encoding="UTF-8" standalone="no"?>
<!-- Created with Inkscape (http://www.inkscape.org/) -->

<svg
   xmlns:osb="http://www.openswatchbook.org/uri/2009/osb"
   xmlns:dc="http://purl.org/dc/elements/1.1/"
   xmlns:cc="http://creativecommons.org/ns#"
   xmlns:rdf="http://www.w3.org/1999/02/22-rdf-syntax-ns#"
   xmlns:svg="http://www.w3.org/2000/svg"
   xmlns="http://www.w3.org/2000/svg"
   xmlns:xlink="http://www.w3.org/1999/xlink"
   xmlns:sodipodi="http://sodipodi.sourceforge.net/DTD/sodipodi-0.dtd"
   xmlns:inkscape="http://www.inkscape.org/namespaces/inkscape"
   width="68.485947mm"
   height="72.478401mm"
   viewBox="0 0 242.66674 256.81323"
   id="svg5258"
   version="1.1"
   inkscape:version="0.91 r13725"
   sodipodi:docname="dodo.svg">
  <defs
     id="defs5260">
    <linearGradient
       id="linearGradient4282"
       osb:paint="solid">
      <stop
         style="stop-color:#b9ad8a;stop-opacity:1;"
         offset="0"
         id="stop4284" />
    </linearGradient>
    <linearGradient
       id="linearGradient4274"
       osb:paint="solid">
      <stop
         style="stop-color:#ca7145;stop-opacity:1;"
         offset="0"
         id="stop4276" />
    </linearGradient>
    <linearGradient
       id="linearGradient4262"
       osb:paint="solid">
      <stop
         style="stop-color:#94cc2f;stop-opacity:1;"
         offset="0"
         id="stop4264" />
    </linearGradient>
    <linearGradient
       id="linearGradient5457"
       osb:paint="solid">
      <stop
         style="stop-color:#f48533;stop-opacity:1;"
         offset="0"
         id="stop5459" />
    </linearGradient>
    <linearGradient
       id="linearGradient5419"
       osb:paint="solid">
      <stop
         style="stop-color:#7f6891;stop-opacity:1;"
         offset="0"
         id="stop5421" />
    </linearGradient>
    <linearGradient
       id="linearGradient5397"
       osb:paint="solid"
       gradientTransform="translate(0.47034376,0.23517188)">
      <stop
         style="stop-color:#a79fac;stop-opacity:1;"
         offset="0"
         id="stop5399" />
    </linearGradient>
    <linearGradient
       id="linearGradient5374"
       osb:paint="solid"
       gradientTransform="translate(-44.654687,-192.82089)">
      <stop
         style="stop-color:#ed3e0a;stop-opacity:1;"
         offset="0"
         id="stop5376" />
    </linearGradient>
    <linearGradient
       id="linearGradient5366"
       osb:paint="solid">
      <stop
         style="stop-color:#deaa56;stop-opacity:1;"
         offset="0"
         id="stop5368" />
    </linearGradient>
    <linearGradient
       id="linearGradient5360"
       osb:paint="solid">
      <stop
         style="stop-color:#e3d4bb;stop-opacity:1;"
         offset="0"
         id="stop5362" />
    </linearGradient>
    <linearGradient
       inkscape:collect="always"
       xlink:href="#linearGradient4262"
       id="linearGradient4266"
       x1="128.67272"
       y1="253.75207"
       x2="163.0001"
       y2="253.75207"
       gradientUnits="userSpaceOnUse" />
  </defs>
  <sodipodi:namedview
     id="base"
     pagecolor="#ffffff"
     bordercolor="#666666"
     borderopacity="1.0"
     inkscape:pageopacity="0.0"
     inkscape:pageshadow="2"
     inkscape:zoom="2.5211841"
     inkscape:cx="125.65559"
     inkscape:cy="136.39684"
     inkscape:document-units="px"
     inkscape:current-layer="layer1"
     showgrid="false"
     inkscape:window-width="1873"
     inkscape:window-height="1056"
     inkscape:window-x="47"
     inkscape:window-y="24"
     inkscape:window-maximized="1"
     fit-margin-top="0"
     fit-margin-left="0"
     fit-margin-right="0"
     fit-margin-bottom="0"
     showguides="false" />
  <metadata
     id="metadata5263">
    <rdf:RDF>
      <cc:Work
         rdf:about="">
        <dc:format>image/svg+xml</dc:format>
        <dc:type
           rdf:resource="http://purl.org/dc/dcmitype/StillImage" />
        <dc:title />
      </cc:Work>
    </rdf:RDF>
  </metadata>
  <g
     inkscape:label="Layer 1"
     inkscape:groupmode="layer"
     id="layer1"
     transform="translate(-44.654687,-192.82089)">
    <path
       style="fill:url(#linearGradient4274);fill-rule:evenodd;stroke:none;stroke-width:1px;stroke-linecap:butt;stroke-linejoin:miter;stroke-opacity:1"
       d="m 197.32746,326.72774 0.96021,-17.28371 -1.68036,-12.24263 c 0,0 -2.16046,-9.36201 -2.16046,-11.04237 0,-1.68036 -0.72016,-8.64186 -0.72016,-8.64186 0,0 2.16047,-10.08216 3.36072,-10.32221 1.20026,-0.24005 7.4416,-3.36072 7.4416,-3.36072 l 12.24263,2.88061 13.92299,10.32222 c 0,0 4.08087,1.20026 3.12067,1.20026 -0.96021,0 -9.12196,6.24134 -10.80232,6.24134 -1.68036,0 -4.32093,-0.96021 -6.00129,-1.44031 -1.68036,-0.4801 -6.48139,-3.60077 -6.48139,-3.60077 l -1.68036,2.40051 -0.72016,5.04108 -0.72015,22.56485 c 0,0 4.56098,-4.08088 5.28113,-5.76124 0.72016,-1.68036 14.16304,-9.60206 14.16304,-9.60206 l 9.60206,2.64057 6.24134,11.04237 3.60078,8.64185 6.72144,7.68165 -5.52118,3.60077 c 0,0 -6.72145,-0.24005 -7.68165,-0.24005 -0.96021,0 -3.60078,-3.12067 -3.84083,-4.08087 -0.24005,-0.96021 -6.00129,-9.60207 -6.00129,-9.60207 l -5.04108,-1.20025 -11.04237,6.00129 -5.28113,2.88061 -1.20026,4.80103 -0.56762,3.24721 3.32524,-2.98114 13.08578,-0.50612 9.36201,4.80103 4.08088,8.64186 0,9.60206 0,8.16175 6.96149,12.96279 -12.48268,-2.64057 c 0,0 -6.48139,-2.64057 -6.72144,-3.60077 -0.24005,-0.96021 -1.92041,-5.76124 -1.44031,-7.20155 0.4801,-1.44031 0.96021,-10.80232 0.96021,-10.80232 l -11.04238,-2.40052 c 0,0 -7.20154,-2.16046 -8.4018,-2.64056 -1.20026,-0.4801 -2.16046,-0.96021 -2.16046,-0.96021 z"
       id="path4290"
       inkscape:connector-curvature="0"
       sodipodi:nodetypes="cccscscccsssccccsccccccssccccccccccccccssccscc" />
    <path
       style="fill:url(#linearGradient4274);fill-rule:evenodd;stroke:none;stroke-width:1px;stroke-linecap:butt;stroke-linejoin:miter;stroke-opacity:1"
       d="m 196.8376,326.0027 c -1.20026,-0.4801 -6.48139,-13.20283 -6.48139,-13.20283 l 3.12067,-1.68036 4.32092,13.68293 9.84212,22.08474 6.96149,6.9615 -5.28113,3.12067 c 0,0 -7.20155,-14.40309 -7.68165,-15.3633 -0.4801,-0.9602 -4.80103,-15.60335 -4.80103,-15.60335 z"
       id="path4288"
       inkscape:connector-curvature="0" />
    <path
       style="fill:url(#linearGradient4274);fill-rule:evenodd;stroke:none;stroke-width:1px;stroke-linecap:butt;stroke-linejoin:miter;stroke-opacity:1;fill-opacity:1"
       d="m 128.67272,265.03449 21.60464,10.56227 -3.36072,6.00129 0.48011,6.24134 1.20025,9.84211 28.08603,22.8049 -17.52376,53.05139 -20.16433,-1.44031 c 0,0 -6.72144,-4.32093 -7.4416,-5.76124 -0.72015,-1.44031 -13.92299,-12.00258 -13.92299,-12.00258 0,0 -0.72015,-9.84211 -0.72015,-10.80232 0,-0.9602 6.24134,-59.05267 6.24134,-59.05267 l 2.64056,-2.88062 z"
       id="path4280"
       inkscape:connector-curvature="0" />
    <path
       style="fill:url(#linearGradient5457);fill-rule:evenodd;stroke:none;stroke-width:1px;stroke-linecap:butt;stroke-linejoin:miter;stroke-opacity:1"
       d="m 142.7656,372.14687 c 0,0 10.52401,-1.01845 10.8635,-1.10332 0.33948,-0.0849 2.88561,2.12177 2.88561,2.12177 l -2.88561,3.98894 -2.46126,1.95203 -2.54613,6.53507 0,1.61255 15.36165,1.52768 2.88561,0.76384 3.98895,-5.8561 1.61255,-2.29151 -1.95203,-0.76384 c -1.16664,-1.73804 -3.19033,-2.98632 -5.94098,-3.8192 l -3.30997,-3.2251 -4.83765,-1.1882 -1.52768,-2.97048 -1.61255,0.25461 -1.27306,-3.39484 -0.33949,-1.1882 37.513,0.84871 1.01845,3.56459 0.42436,8.31736 -1.95204,4.07381 -2.88561,2.88561 c 0,0 -1.52768,0.0849 -1.95204,0.25462 -0.42435,0.16974 -1.52767,3.56458 -1.52767,3.56458 l -5.00739,4.83765 -2.54614,3.56458 c 0,0 6.53507,1.01845 8.06275,1.01845 1.52768,0 10.69375,0.25462 10.69375,0.25462 l -0.16974,2.20664 -9.16607,1.69742 c 0,0 -13.15501,2.46126 -13.66424,2.37639 -0.50922,-0.0849 -5.8561,2.46126 -5.8561,2.46126 l -5.09226,-3.2251 -3.73433,2.46126 -15.02217,-0.0849 -11.54246,-9.92991 0.42435,-1.69742 -5.8561,0.84871 -10.18452,-13.49449 3.98894,-4.92252 4.75277,4.15868 2.88562,-1.10332 0.93358,-0.84872 4.24355,2.20665 2.71588,5.17713 c 0,0 5.60148,1.10333 5.60148,0.5941 0,-0.50922 5.09227,-10.01478 4.66791,-10.09965 -0.42436,-0.0849 -0.67897,-4.92252 -0.67897,-4.92252 z"
       id="path4254"
       inkscape:connector-curvature="0"
       sodipodi:nodetypes="ccccccccccccccccccccccccccccsccccccccccccccccccsccc" />
    <path
       style="fill:url(#linearGradient5419);fill-rule:evenodd;stroke:none;stroke-width:1px;stroke-linecap:butt;stroke-linejoin:miter;stroke-opacity:1"
       d="m 107.79874,389.6303 c 0,0 0.93358,-2.54613 1.10332,-2.88561 0.16974,-0.33949 5.8561,-5.09227 5.8561,-5.09227 l 3.2251,4.15869 3.39484,2.71587 2.80074,6.36533 -3.14022,0.59409 -4.15868,2.03691 -3.8192,-0.5941 3.14023,-5.77123 z"
       id="path4250"
       inkscape:connector-curvature="0" />
    <path
       style="fill:url(#linearGradient5419);fill-rule:evenodd;stroke:none;stroke-width:1px;stroke-linecap:butt;stroke-linejoin:miter;stroke-opacity:1"
       d="m 128.25265,398.28715 7.80814,1.52768 3.30997,-0.0849 3.14023,3.05536 0,3.05536 1.78229,0.25461 3.14023,-3.47971 1.27307,-1.44281 2.97048,0.93358 1.35794,2.71588 -2.46126,3.81919 -7.38378,4.32843 -0.16975,-1.44281 1.35794,-4.58304 -5.77123,-0.84871 -6.95942,2.29152 1.4428,-5.43175 -7.893,1.10333 z"
       id="path4252"
       inkscape:connector-curvature="0" />
    <path
       style="fill:url(#linearGradient4266);fill-rule:evenodd;stroke:none;stroke-width:1px;stroke-linecap:butt;stroke-linejoin:miter;stroke-opacity:1;fill-opacity:1"
       d="m 128.67272,237.90867 0.72016,-7.68165 4.32093,3.84083 5.28113,0 -1.68036,-1.68037 1.68036,-2.16046 3.60077,3.36072 0.96021,-2.40051 1.44031,3.84082 2.40052,-1.44031 5.04108,-3.60077 -0.72016,5.76124 6.9615,3.12067 -1.44031,3.36072 4.32093,6.24134 1.44031,6.48139 -1.20026,2.16046 -1.44031,7.20155 -1.44031,4.08087 -1.68036,1.92042 -4.56098,7.20154 -2.88062,-1.44031 -7.20155,-2.16046 -0.9602,-1.20026 -8.40181,-3.84082 z"
       id="path4260"
       inkscape:connector-curvature="0" />
    <path
       style="fill:url(#linearGradient5366);fill-rule:evenodd;stroke:none;stroke-width:1px;stroke-linecap:butt;stroke-linejoin:miter;stroke-opacity:1"
       d="m 109.9487,235.2681 8.40181,1.92042 11.52247,0.72015 c 0,0 4.32093,11.52247 5.04108,16.80361 0.72016,5.28113 -1.68036,14.88319 -1.68036,14.88319 l -3.84082,2.16047 -4.32093,0 -6.48139,-7.20155 -6.72144,-4.32093 -0.48011,-6.24134 -2.64056,-10.56226 z"
       id="path4256"
       inkscape:connector-curvature="0" />
    <path
       style="fill:url(#linearGradient5457);fill-rule:evenodd;stroke:none;stroke-width:1px;stroke-linecap:butt;stroke-linejoin:miter;stroke-opacity:1"
       d="m 111.38901,255.43243 -1.68036,-13.20283 0.96021,-11.28242 -3.84083,-3.60078 c 0,0 -14.787537,7.35695 -18.964067,10.56227 -5.277724,4.05044 -8.605496,26.10106 -5.281134,25.68551 l 12.002577,-7.20154 z"
       id="path4258"
       inkscape:connector-curvature="0"
       sodipodi:nodetypes="ccccsccc" />
    <path
       style="fill:url(#linearGradient5366);fill-rule:evenodd;stroke:none;stroke-width:1px;stroke-linecap:butt;stroke-linejoin:miter;stroke-opacity:1"
       d="m 143.07582,350.97294 c 0,0 0.24005,-11.52247 8.88191,-16.8036 8.64185,-5.28114 25.20541,-13.20284 25.20541,-13.20284 l 11.04237,6.00129 9.60206,-0.24005 5.04108,14.64314 -4.08088,5.04108 -3.12067,16.56356 -5.52118,6.48139 -1.44031,0.96021 -1.92041,-3.36072 -3.84083,-0.96021 -1.20025,2.88062 -0.96021,-3.12067 -2.64057,1.68036 -2.64056,-0.96021 -2.88062,2.40052 -6.48139,-2.40052 0,3.12067 -6.4814,-2.88062 -3.84082,-0.72015 c 0,0 0.4801,-3.36072 -1.92041,-4.32093 -2.40052,-0.9602 -5.52119,-1.68036 -5.52119,-1.68036 0,0 1.20026,5.28113 0,6.24134 -1.20026,0.96021 -4.56098,0.96021 -4.56098,0.96021 l -0.24005,-3.12067 c 0,0 -1.20026,0.24005 -1.68036,-1.20026 -0.48011,-1.44031 0,-7.9217 0,-7.9217 z"
       id="path4268"
       inkscape:connector-curvature="0" />
    <path
       style="fill:url(#linearGradient5366);fill-rule:evenodd;stroke:none;stroke-width:1px;stroke-linecap:butt;stroke-linejoin:miter;stroke-opacity:1"
       d="m 124.11174,283.75851 c 0,0 5.04109,6.9615 9.60207,7.9217 4.56097,0.96021 13.20283,3.60078 13.20283,3.60078 l 1.20026,5.76123 -4.56098,3.84083 3.60077,12.72273 c 0,0 -0.72015,10.08216 -3.36072,15.12325 -2.64057,5.04108 -16.56356,10.80231 -16.56356,10.80231 l -12.96278,-1.20025 c 0,0 -4.32093,-4.56098 -5.52118,-5.76124 -1.20026,-1.20026 -4.80103,-11.28242 -4.80103,-11.28242 0,0 -0.72016,1.20026 -1.92042,0.4801 -1.20025,-0.72015 0.96021,-9.36201 0.96021,-9.36201 l -1.92041,-2.40051 5.04108,-10.56227 4.56098,-7.9217 4.80103,-1.68036 1.20026,-4.80103 4.56098,-0.48011 z"
       id="path4270"
       inkscape:connector-curvature="0" />
    <path
       style="fill:url(#linearGradient4262);fill-rule:evenodd;stroke:none;stroke-width:1px;stroke-linecap:butt;stroke-linejoin:miter;stroke-opacity:1;fill-opacity:1"
       d="m 139.47504,303.44274 7.92171,-2.16046 4.32092,-6.24134 5.76124,2.16046 11.76253,-2.40052 6.00128,-7.44159 -1.92041,7.9217 5.52119,-4.32093 c 0,0 -4.32093,6.48139 -3.12067,6.72144 1.20025,0.24005 7.20154,1.20026 7.20154,1.20026 l -6.24134,5.76124 c 0,0 6.00129,6.00128 4.56098,5.52118 -1.44031,-0.4801 -4.32093,0 -4.32093,0 l 0,1.68036 6.4814,2.64057 -8.64186,1.44031 0.72016,6.00129 -2.88062,3.36072 c 0,0 -2.88062,0.72015 -4.32093,0 -1.44031,-0.72016 -6.72144,-3.84083 -6.72144,-3.84083 l -16.32351,-4.32092 -1.44031,0.72015 z"
       id="path4272"
       inkscape:connector-curvature="0" />
    <path
       style="fill:url(#linearGradient4262);fill-rule:evenodd;stroke:none;stroke-width:1px;stroke-linecap:butt;stroke-linejoin:miter;stroke-opacity:1"
       d="m 199.24788,265.9947 16.56355,16.56356 14.8832,-0.48011 c 0,0 4.08087,-2.16046 3.12067,-3.60077 -0.96021,-1.44031 -11.04237,-6.96149 -11.04237,-6.96149 l -10.08217,-6.4814 -6.24134,-1.20025 z"
       id="path4292"
       inkscape:connector-curvature="0" />
    <path
       style="fill:url(#linearGradient4262);fill-rule:evenodd;stroke:none;stroke-width:1px;stroke-linecap:butt;stroke-linejoin:miter;stroke-opacity:1"
       d="m 234.05535,296.48124 -3.36072,4.32093 5.28113,5.76124 -4.08087,8.4018 5.28113,10.32222 c 0,0 3.12067,2.88062 8.16175,2.88062 5.04108,0 8.88191,-4.08088 8.88191,-4.08088 l -8.88191,-9.84211 -4.80103,-12.24263 -2.40051,-4.08088 z"
       id="path4294"
       inkscape:connector-curvature="0" />
    <path
       style="fill:url(#linearGradient4262);fill-rule:evenodd;stroke:none;stroke-width:1px;stroke-linecap:butt;stroke-linejoin:miter;stroke-opacity:1"
       d="m 233.57525,336.3298 -6.24134,5.04108 c 0,0 -2.40052,1.44031 -3.84083,6.48139 -1.44031,5.04108 -1.20026,13.44289 2.64057,16.80361 3.84082,3.36072 16.80361,4.32093 16.80361,4.32093 0,0 -5.76124,-9.84212 -5.76124,-11.28242 0,-1.44031 -3.36072,-3.84083 -5.04108,-9.60207 -1.68036,-5.76123 1.44031,-11.76252 1.44031,-11.76252 z"
       id="path4296"
       inkscape:connector-curvature="0" />
    <path
       style="fill:#ffffff;fill-rule:evenodd;stroke:none;stroke-width:1px;stroke-linecap:butt;stroke-linejoin:miter;stroke-opacity:1;fill-opacity:1"
       d="m 140.91535,246.07042 4.32093,-2.64056 2.16047,3.60077 0,3.84082 -4.08088,1.44031 z"
       id="path4298"
       inkscape:connector-curvature="0" />
    <path
       style="fill:url(#linearGradient5457);fill-rule:evenodd;stroke:none;stroke-width:1px;stroke-linecap:butt;stroke-linejoin:miter;stroke-opacity:1;fill-opacity:1;opacity:0.286"
       d="M 113.63672 51.949219 L 105.50586 57.105469 L 116.81055 57.105469 L 113.24023 52.742188 L 113.63672 51.949219 z M 118.5957 61.46875 L 106.10156 62.0625 L 115.81836 65.039062 L 118.5957 61.46875 z M 98.564453 67.021484 L 114.82617 75.945312 L 115.02539 70.195312 L 98.564453 67.021484 z M 95.789062 70.789062 L 104.11719 84.275391 L 107.29102 81.697266 L 95.789062 70.789062 z M 91.029297 78.126953 L 102.33203 89.232422 L 103.32422 83.482422 L 91.029297 78.126953 z M 149.33398 81.498047 L 150.72266 93.001953 L 163.61328 104.50391 L 163.01953 95.183594 L 149.33398 81.498047 z M 88.648438 85.861328 L 102.73047 99.347656 L 102.33203 93.595703 L 88.648438 85.861328 z M 86.070312 99.347656 L 100.74609 107.08203 L 104.91016 104.50391 L 102.92773 101.13281 L 86.070312 99.347656 z M 176.90039 103.11523 L 170.1582 109.06445 C 170.1582 109.06445 171.74488 121.56025 172.33984 122.35352 C 172.93479 123.1468 179.08203 119.57617 179.08203 119.57617 L 176.90039 103.11523 z M 123.35547 103.31445 L 117.20703 104.10742 C 118.00031 104.30574 118 117.79102 118 117.79102 L 123.35547 103.31445 z M 112.05078 104.70312 L 107.0918 105.09961 L 106.49805 117.59375 L 112.05078 104.70312 z M 151.31836 107.67773 L 153.5 115.41211 L 161.82812 116.60156 L 162.62109 111.44531 L 151.31836 107.67773 z M 82.699219 108.07422 L 79.525391 121.75781 L 87.65625 109.46094 L 82.699219 108.07422 z M 67.826172 111.04883 C 67.826172 111.04883 62.471446 129.88821 63.066406 131.07812 C 63.661366 132.26805 74.171875 111.8418 74.171875 111.8418 L 67.826172 111.04883 z M 113.83594 112.83398 L 108.08398 125.92188 L 107.6875 126.71484 L 113.83594 128.30273 L 113.83594 112.83398 z M 162.82031 117.79102 L 159.8457 125.52539 L 163.61328 130.88086 L 166.98438 127.31055 L 162.82031 117.79102 z M 93.011719 119.17969 L 86.666016 120.17188 L 86.863281 133.45898 L 93.011719 119.17969 z M 136.83984 130.88086 C 136.83984 130.88086 121.96717 136.03613 116.01758 143.57227 C 110.068 151.10841 111.45508 155.47266 111.45508 155.47266 C 111.45508 155.47266 121.57041 142.77932 126.33008 140.20117 C 131.08975 137.62302 141.20312 133.85547 141.20312 133.85547 L 136.83984 130.88086 z M 180.27148 133.25977 L 174.52148 133.45898 L 169.5625 145.95312 L 176.10742 146.94336 L 185.23047 137.02734 L 180.27148 133.25977 z M 147.74805 134.05273 C 147.74805 134.05273 134.85764 140.40003 129.30469 146.34961 C 123.75175 152.2992 124.74219 157.6543 124.74219 157.6543 C 124.74219 157.6543 133.66698 146.15163 141.20312 142.97852 C 148.73926 139.80541 152.50781 134.44922 152.50781 134.44922 L 147.74805 134.05273 z M 165.00195 134.84766 L 155.43555 139.63086 L 155.08594 139.01172 L 141.40234 152.89453 L 157.44922 143.69531 C 160.41652 144.24348 166.14779 145.36632 166.58789 145.95312 C 167.18285 146.7464 165.00195 134.84766 165.00195 134.84766 z M 135.65039 152.09961 C 135.65039 152.09961 134.06463 156.06607 131.08984 159.4375 C 128.11504 162.80893 131.08984 170.94141 131.08984 170.94141 C 131.08984 170.94141 132.2787 175.89918 131.28711 176.49414 C 130.29551 177.0891 134.6582 177.48633 134.6582 177.48633 L 135.25391 174.9082 C 135.25391 174.9082 134.46152 161.81746 135.45312 161.61914 C 136.44471 161.42082 135.65039 152.09961 135.65039 152.09961 z M 149.92969 152.89453 C 149.92969 152.89453 145.76491 155.274 142.5918 158.84375 C 139.41869 162.4135 137.83203 175.50195 137.83203 175.50195 L 141.99609 175.70117 L 142.19531 169.75 L 149.92969 152.89453 z M 119.18945 155.07617 C 119.18945 155.07617 119.2416 155.33542 119.26758 155.45508 C 119.28726 155.35022 119.27637 155.23263 119.18945 155.07617 z M 119.26758 155.45508 C 119.06278 156.5464 113.60211 155.3576 113.24023 162.41406 C 112.84359 170.14853 116.41406 176.29492 116.41406 176.29492 L 122.75977 178.87305 C 122.75977 178.87305 118.39707 167.17327 119.38867 163.60352 C 120.26712 160.44107 119.46925 156.38419 119.26758 155.45508 z "
       transform="translate(44.654687,192.82089)"
       id="path5083" />
    <path
       style="fill:#000000"
       d="m 142.64384,412.51152 c -0.43454,-1.03784 -0.43065,-1.19473 0.0502,-2.025 0.28667,-0.495 0.70203,-1.40625 0.92303,-2.025 0.34102,-0.95479 0.33843,-1.125 -0.0172,-1.125 -0.23045,0 -0.50242,0.135 -0.6044,0.3 -0.24589,0.39787 -1.44629,0.38371 -1.85184,-0.0218 -0.42977,-0.42977 -2.37991,0.10208 -4.73679,1.29182 -1.20975,0.61068 -2.41734,0.95979 -3.66686,1.06009 -1.84291,0.14794 -1.8654,0.14036 -2.07604,-0.69888 -0.11712,-0.46664 -0.0505,-1.5308 0.14797,-2.36481 0.76209,-3.20199 0.76427,-3.24729 0.14739,-3.06316 -0.31011,0.0926 -0.96883,0.25002 -1.46383,0.34992 -0.495,0.0999 -1.61616,0.54506 -2.49148,0.98925 -1.57293,0.7982 -1.59664,0.80068 -2.03365,0.21345 -0.43506,-0.58462 -0.35635,-1.78455 0.18668,-2.84599 0.12939,-0.25292 0.46237,-1.10498 0.73995,-1.89346 0.27759,-0.78849 1.06188,-2.13849 1.74286,-3 0.68099,-0.86152 1.22553,-1.63389 1.2101,-1.71639 -0.0155,-0.0825 0.0389,-0.32457 0.1208,-0.53794 0.29552,-0.77011 -0.15016,-0.64848 -1.13679,0.31025 -2.2964,2.23145 -3.66491,2.57852 -4.98036,1.26307 l -0.76462,-0.76462 -1.42165,1.32978 c -1.66924,1.56139 -2.77601,1.87899 -4.91008,1.40902 -0.85897,-0.18916 -1.84949,-0.40225 -2.20117,-0.47353 -1.32178,-0.2679 -0.99386,-2.66569 0.72429,-5.29609 0.96086,-1.47103 0.77234,-1.8876 -0.85988,-1.90004 -0.72875,-0.006 -2.23239,-0.0393 -3.34142,-0.075 -2.0013,-0.0644 -2.01841,-0.0722 -2.28121,-1.0399 -0.38736,-1.42635 0.82342,-4.62426 2.12549,-5.61381 1.39587,-1.06085 3.82213,-3.66847 3.82213,-4.10783 0,-0.20545 0.18279,-0.4815 0.40621,-0.61345 0.22341,-0.13195 0.58282,-0.57741 0.79868,-0.98991 0.21587,-0.4125 0.80933,-1.25382 1.3188,-1.86959 1.12373,-1.35821 2.05994,-1.45749 2.97401,-0.31538 0.35877,0.44826 1.38122,1.52412 2.27212,2.3908 l 1.61983,1.57578 0.78017,-1.00321 c 1.06504,-1.3695 2.61048,-2.33337 3.56129,-2.22112 0.58826,0.0694 1.11084,0.58229 2.08151,2.04272 0.71282,1.0725 1.75883,2.56201 2.32444,3.31004 0.56562,0.74801 1.15648,1.69693 1.31304,2.1087 0.23349,0.61413 0.67827,0.85077 2.475,1.31678 1.55816,0.40414 2.22326,0.46941 2.30434,0.22617 0.0627,-0.18807 0.44171,-0.82488 0.84227,-1.41514 0.40056,-0.59026 0.72982,-1.16845 0.73168,-1.28487 0.002,-0.11642 0.60122,-1.21649 1.33191,-2.4446 0.73069,-1.2281 1.25754,-2.34776 1.17078,-2.48814 -0.0867,-0.14037 -0.0267,-0.41806 0.13345,-0.61708 0.47279,-0.58754 0.71186,-2.18289 0.49796,-3.32304 -0.17918,-0.95512 -0.27872,-1.04558 -0.99331,-0.90266 -0.54975,0.10995 -1.14453,-0.0789 -1.9325,-0.61367 -0.62608,-0.42487 -1.54403,-0.77249 -2.0399,-0.77249 -1.24365,0 -2.55209,-0.72465 -4.34379,-2.40571 -0.83711,-0.78542 -2.09306,-1.71936 -2.791,-2.07542 -0.8081,-0.41226 -1.55821,-1.12622 -2.06534,-1.9658 -0.43799,-0.72513 -1.11148,-1.48708 -1.49665,-1.69321 -0.38516,-0.20613 -1.30597,-1.08373 -2.04623,-1.95022 -0.74026,-0.86648 -2.08457,-1.99803 -2.98735,-2.51455 -0.90278,-0.51652 -1.64142,-1.12697 -1.64142,-1.35655 0,-0.22959 -0.2827,-0.56872 -0.62822,-0.75364 -0.34552,-0.18492 -0.88013,-0.9057 -1.18802,-1.60174 -0.66857,-1.51143 -1.48376,-7.37615 -1.48376,-10.67469 l 0,-2.3608 -0.975,-0.20996 c -0.53625,-0.11549 -1.33494,-0.39383 -1.77487,-0.61855 -0.99167,-0.50655 -3.48495,-3.04119 -3.71997,-3.78169 -0.0956,-0.30114 -0.71094,-0.82157 -1.36745,-1.1565 -2.93056,-1.49506 -5.06997,-8.0865 -5.05718,-15.58097 0.004,-2.3826 0.6046,-5.53013 1.16133,-6.08686 0.49511,-0.49511 0.42308,0.10842 -0.17607,1.47522 -0.78091,1.78146 -0.68643,7.89637 0.17091,11.06164 0.74391,2.74649 1.36958,4.3207 2.35489,5.925 0.6902,1.12379 1.5768,1.64141 1.02772,0.6 -0.5421,-1.02817 -1.2799,-5.09524 -1.18787,-6.54806 0.0789,-1.24575 0.18748,-1.47694 0.69356,-1.47694 0.399,0 0.55051,0.15075 0.45225,0.45 -0.54786,1.6686 0.48607,6.03649 2.26931,9.58684 0.77917,1.55131 3.26391,4.0514 4.48969,4.51744 0.73458,0.27928 2.83875,0.41927 2.83875,0.18885 0,-0.0588 -0.66306,-1.37502 -1.47347,-2.925 -1.34061,-2.56403 -2.72653,-6.29996 -2.72653,-7.34973 0,-0.68741 0.81796,-0.4731 0.97936,0.2566 0.65701,2.97037 3.75546,8.17327 5.46971,9.1847 0.57801,0.34104 1.05093,0.73795 1.05093,0.88203 0,0.3241 1.51737,1.0409 1.73749,0.82078 0.088,-0.088 -0.33447,-1.17341 -0.93877,-2.41209 -1.16598,-2.39002 -1.31093,-3.25642 -0.75056,-4.4863 0.53429,-1.17266 0.86024,-0.90918 0.66225,0.53532 -0.12142,0.88593 -0.0307,1.5844 0.28495,2.19489 0.71969,1.39173 3.38548,3.65045 4.73824,4.01472 0.98523,0.26529 1.18677,0.44143 1.11009,0.97018 -0.0806,0.55554 -0.30379,0.65223 -1.59369,0.69027 -0.825,0.0243 -2.04,0.14438 -2.7,0.26678 -0.9661,0.17917 -1.54811,0.0686 -2.98595,-0.56731 -1.21787,-0.53862 -2.05285,-0.73125 -2.625,-0.60558 -0.81144,0.17822 -0.83905,0.24706 -0.83905,2.09183 0,2.71844 1.39118,8.24478 2.07551,8.24478 0.11569,0 0.94478,0.60123 1.84242,1.33606 0.89764,0.73483 2.07082,1.69313 2.60707,2.12955 0.53625,0.43642 0.975,0.96177 0.975,1.16744 0,0.20568 0.27,0.6183 0.6,0.91695 0.33,0.29865 0.6,0.85788 0.6,1.24273 0,0.49011 0.3595,0.92669 1.2,1.45727 0.66,0.41664 1.2,0.86726 1.2,1.00138 0,0.13412 0.90987,0.97618 2.02192,1.87124 1.11206,0.89506 2.30879,1.93113 2.6594,2.30238 0.35062,0.37125 0.78729,0.675 0.97038,0.675 0.18309,0 0.54132,0.40304 0.79605,0.89565 0.25474,0.49262 0.76446,0.95692 1.13271,1.0318 2.02616,0.41198 5.05084,0.60356 8.91954,0.56495 5.25047,-0.0524 7.5,-0.29629 7.5,-0.81314 0,-0.20767 -0.33693,-1.0417 -0.74874,-1.85342 -1.06701,-2.10317 -0.98065,-4.02584 0.18084,-4.02584 0.6062,0 0.76448,0.4431 0.2679,0.75 -0.53328,0.32958 -0.31973,1.43927 0.50637,2.63133 0.64831,0.93553 0.7256,1.21351 0.39429,1.41826 -0.34056,0.21048 -0.34396,0.33676 -0.0196,0.72754 0.53645,0.64641 0.91896,0.59349 0.91896,-0.12713 0,-0.33333 0.2,-0.6 0.45,-0.6 0.2475,0 0.45,0.14189 0.45,0.31531 0,0.17342 0.48321,0.51721 1.07381,0.76397 0.59059,0.24677 1.97434,1.10242 3.075,1.90145 2.43747,1.76951 3.9321,2.41927 5.56496,2.41927 1.02639,0 1.52452,0.233 2.88623,1.35 0.90516,0.7425 1.76259,1.35 1.9054,1.35 0.1428,0 0.1796,0.31894 0.0818,0.70875 -0.25657,1.02226 1.68706,3.03319 2.50736,2.59419 0.30911,-0.16543 0.79133,-0.21279 1.07161,-0.10524 0.43104,0.16541 0.48094,0.46974 0.3237,1.97415 -0.13764,1.31685 -0.54319,2.43405 -1.56216,4.30337 -0.75694,1.38863 -1.50032,2.52478 -1.65196,2.52478 -0.54349,0 -0.26015,-1.51279 0.60235,-3.21603 0.48294,-0.95368 0.96912,-2.10144 1.08042,-2.55056 0.18891,-0.76236 0.12562,-0.82954 -0.95307,-1.01158 -0.91535,-0.15447 -1.43589,-0.52848 -2.50541,-1.80016 -0.91779,-1.09128 -1.57625,-1.60782 -2.0567,-1.61342 -1.57941,-0.0184 -4.31524,-0.98766 -6.37844,-2.25971 -1.203,-0.7417 -2.42698,-1.34854 -2.71997,-1.34854 -0.3187,0 -0.77657,0.47804 -1.13977,1.18997 -0.33389,0.65448 -0.87154,1.33151 -1.19478,1.5045 -0.32324,0.17299 -0.99809,0.911 -1.49966,1.64002 -0.50158,0.72902 -1.1496,1.40091 -1.44005,1.49309 -0.29094,0.0923 -0.7603,0.82142 -1.04518,1.6235 -0.28439,0.80074 -0.9257,1.97007 -1.42514,2.59853 -0.49943,0.62845 -0.85606,1.19464 -0.79251,1.25818 0.0636,0.0635 1.11154,0.1685 2.32887,0.23323 1.21733,0.0647 2.88833,0.3317 3.71333,0.59328 1.05431,0.33429 2.0442,0.42057 3.33153,0.29036 2.3293,-0.23559 4.97038,0.30532 6.08978,1.24723 0.47592,0.40046 1.00272,0.72811 1.17067,0.72811 0.16794,0 0.912,-0.84375 1.65347,-1.875 1.61502,-2.24623 3.61648,-4.23769 4.09775,-4.07727 0.20603,0.0687 -0.31429,1.09226 -1.27549,2.50913 -0.89291,1.31623 -2.23284,3.54064 -2.97762,4.94314 -2.84261,5.35294 -3.31774,6.17054 -3.98777,6.86198 -0.75921,0.78349 -1.35232,0.64437 -1.35232,-0.31719 0,-0.53416 -0.12951,-0.59389 -0.9375,-0.43229 -0.51562,0.10313 -1.05562,0.1875 -1.2,0.1875 -0.14437,0 -0.2625,0.19453 -0.2625,0.43229 0,0.23777 -0.11814,0.50532 -0.26254,0.59456 -0.33425,0.20658 -2.8833,-0.65613 -4.15409,-1.40592 -0.83057,-0.49004 -1.29987,-0.54246 -3.23389,-0.36123 -1.92271,0.18017 -2.35143,0.32528 -2.8559,0.96661 -0.89693,1.14025 -0.74869,1.78236 0.56636,2.45325 2.48903,1.26981 5.01744,4.25847 4.75668,5.62254 -0.0734,0.38385 0.0166,0.71347 0.19998,0.73251 0.18337,0.019 0.5359,0.0559 0.7834,0.0818 0.85823,0.0901 2.5976,-0.97987 3.32197,-2.04341 0.89369,-1.31213 1.41024,-1.34179 2.54691,-0.14623 1.00374,1.05576 1.87833,1.55871 3.90977,2.2484 l 1.42531,0.48391 1.89911,-1.98502 c 1.89538,-1.98113 1.9022,-1.98492 3.47302,-1.93236 0.86565,0.029 2.85641,-0.2419 4.42391,-0.60192 2.59698,-0.59648 4.59972,-0.76807 15.37372,-1.31722 1.46018,-0.0744 1.70841,-0.35297 1.05128,-1.17964 -0.33368,-0.41977 -0.65597,-0.42789 -2.925,-0.0737 -1.4025,0.21893 -3.81578,0.40541 -5.36284,0.41441 -2.997,0.0174 -8.32018,-0.74058 -8.99119,-1.28032 -0.30227,-0.24313 -0.47604,-0.19632 -0.68991,0.18585 -0.15723,0.28096 -0.69968,0.72482 -1.20544,0.98636 -1.22282,0.63234 -1.68154,0.20622 -1.15261,-1.07072 0.51875,-1.25238 6.6203,-7.99719 8.26824,-9.13993 1.47121,-1.02019 2.07957,-2.15003 2.08208,-3.86678 0.001,-1.07358 0.0832,-1.18034 1.20167,-1.57048 0.66,-0.23023 1.43927,-0.42063 1.7317,-0.42311 1.53867,-0.0131 4.70861,-4.36042 4.71537,-6.4668 0.003,-0.8808 -2.21096,-4.78518 -3.54598,-6.25391 -1.4504,-1.59567 -1.49601,-3.18739 -0.0911,-3.17922 1.03942,0.006 1.43723,0.28602 1.81382,1.27652 0.17124,0.45039 0.51982,0.81889 0.77464,0.81889 0.50978,0 0.47068,-0.42104 -0.25073,-2.7 l -0.42735,-1.35 -0.38334,0.825 c -0.42237,0.90901 -0.73943,1.04234 -0.9811,0.41257 -0.25863,-0.674 3.21099,-7.37065 3.61139,-6.97025 0.18787,0.18787 -0.35151,1.89747 -1.24077,3.93268 l -0.78649,1.8 0.76832,-0.9 c 3.46655,-4.06072 5.98821,-8.29749 6.30286,-10.58974 0.33026,-2.406 0.73901,-3.66026 1.19283,-3.66026 0.61349,0 1.64593,-2.44207 1.64593,-3.89317 0,-1.33665 0.61749,-3.09682 1.21622,-3.46685 0.2917,-0.18028 0.32158,-10e-4 0.13153,0.78837 -0.13526,0.56191 -0.22816,1.49415 -0.20645,2.07165 0.0217,0.5775 -0.183,2.1975 -0.45492,3.6 -0.27192,1.4025 -0.52441,3.68026 -0.56109,5.06168 -0.0512,1.92667 -0.20068,2.69529 -0.64195,3.3 -0.3164,0.43358 -0.88606,1.59832 -1.26591,2.58832 -0.37986,0.99 -1.21418,2.82852 -1.85404,4.0856 -0.63986,1.25708 -1.16339,2.47251 -1.16339,2.70096 0,0.22845 -0.46999,1.07641 -1.04443,1.88437 -0.64486,0.90702 -0.99625,1.71004 -0.9185,2.09904 0.0693,0.34652 0.2045,1.53137 0.30053,2.633 0.16113,1.84851 0.11629,2.06587 -0.5815,2.8188 -0.41585,0.44871 -0.75894,1.03238 -0.76242,1.29704 -0.0139,1.06 -1.4914,4.5977 -2.48602,5.95264 -1.51742,2.06715 -2.16939,2.56954 -3.58148,2.75982 -1.11083,0.14968 -1.27387,0.27478 -1.44399,1.10793 -0.10547,0.51657 -0.66473,1.46157 -1.2428,2.1 -0.57806,0.63844 -2.08341,2.29313 -3.34521,3.67709 -1.2618,1.38396 -2.29418,2.62119 -2.29418,2.7494 0,0.26461 1.98156,0.44494 9.9,0.90095 6.80918,0.39213 8.1,0.60784 8.1,1.35358 0,0.23638 -0.135,0.42978 -0.3,0.42978 -0.165,0 -0.3,0.53203 -0.3,1.18229 0,0.65027 -0.135,1.26573 -0.3,1.36771 -0.165,0.10198 -0.3,-0.033 -0.3,-0.3 0,-0.26698 -0.12717,-0.40681 -0.2826,-0.31075 -0.87254,0.53925 -15.37139,3.45722 -17.18918,3.4594 -0.61698,6e-4 -1.80966,0.26272 -2.65041,0.58218 -0.84075,0.31946 -1.69832,0.51572 -1.90572,0.43613 -0.20739,-0.0796 -0.85283,0.43529 -1.4343,1.14417 -0.77581,0.94581 -1.43812,1.4007 -2.48827,1.70902 -1.32204,0.38814 -1.56987,0.37021 -3.25325,-0.23549 -2.11409,-0.76065 -2.74417,-1.26155 -3.53429,-2.80966 -0.31579,-0.61875 -0.63259,-1.125 -0.704,-1.125 -0.0714,0 -0.33901,0.43875 -0.59468,0.975 -0.25568,0.53625 -0.93013,1.48125 -1.49878,2.1 -0.89425,0.97302 -1.21232,1.125 -2.35445,1.125 -1.64175,0 -3.04288,0.47371 -3.98576,1.34754 -0.39805,0.36889 -1.36511,0.90932 -2.14902,1.20094 -0.78391,0.29161 -1.76279,0.8293 -2.17529,1.19486 -1.33515,1.1832 -2.21597,1.65666 -3.08206,1.65666 -0.69681,0 -0.93278,-0.20117 -1.31958,-1.125 z m 2.23708,-1.8 c 0.44788,-0.28875 1.01867,-0.69639 1.26843,-0.90587 0.24976,-0.20948 1.32727,-0.95214 2.39447,-1.65037 2.35544,-1.54107 3.58547,-3.40725 3.03789,-4.60906 -0.18527,-0.40662 -0.91047,-1.00193 -1.61154,-1.32291 l -1.27469,-0.58358 -0.79969,0.93174 c -0.43982,0.51246 -0.94607,0.84127 -1.125,0.73069 -0.40088,-0.24776 -0.42065,-1.37583 -0.0416,-2.37287 0.21091,-0.55473 0.1724,-0.83869 -0.15,-1.10626 -0.23856,-0.19799 -0.43374,-0.65569 -0.43374,-1.01711 0,-0.9793 -1.42383,-2.10686 -3.43315,-2.71878 -1.73519,-0.52844 -1.81176,-0.52768 -2.84646,0.0282 -0.58482,0.31417 -1.11066,0.81845 -1.16855,1.12062 -0.11024,0.57553 1.41565,2.15463 2.37681,2.45969 0.72857,0.23123 1.89472,2.74438 1.90935,4.11481 0.0136,1.26892 0.66066,1.53763 1.28715,0.53448 0.21841,-0.34974 0.55611,-0.52 0.82598,-0.41644 0.25108,0.0963 0.65569,0.01 0.89914,-0.19217 0.82009,-0.68061 0.88217,0.51933 0.0897,1.73265 -0.59126,0.9052 -2.33992,5.11612 -2.33992,5.63473 0,0.2453 0.31592,0.13618 1.13544,-0.39216 z m -9.62293,-4.75681 c 2.09596,-1.43495 2.65298,-1.5268 5.09889,-0.84082 0.53759,0.15077 0.69919,0.0349 0.86332,-0.61905 0.25391,-1.01166 -0.27966,-2.11204 -1.64084,-3.38385 l -1.04407,-0.97554 -0.63924,0.60054 c -0.35158,0.33029 -0.75828,0.60053 -0.90378,0.60053 -0.71421,0 -2.669,1.76932 -3.60102,3.25935 -1.90248,3.04151 -1.26686,3.50419 1.86674,1.35884 z m -5.31251,-4.59612 c 0.7425,-0.16907 1.97472,-0.3107 2.73827,-0.31474 0.8703,-0.005 1.52985,-0.17793 1.76775,-0.46458 0.5292,-0.63765 0.32854,-0.74643 -2.00316,-1.08595 -1.12907,-0.1644 -2.42249,-0.4121 -2.87426,-0.55044 -0.70265,-0.21516 -0.93196,-0.12013 -1.58611,0.65727 -0.72323,0.85952 -1.64249,2.69371 -1.64249,3.27726 0,0.1472 0.50625,-0.0652 1.125,-0.4719 0.61875,-0.40674 1.7325,-0.87785 2.475,-1.04692 z m 6.69273,-5.48536 c -0.73753,-0.81496 -1.80493,-1.31689 -3.28036,-1.54256 -0.98644,-0.15087 -1.39744,-0.0636 -2.025,0.43005 -0.43305,0.34064 -0.78737,0.79114 -0.78737,1.00112 0,0.21634 1.33239,0.83373 3.075,1.42485 l 3.075,1.04309 0.24202,-0.8792 c 0.18414,-0.66895 0.11257,-1.02225 -0.29929,-1.47735 z m -18.39273,-0.23572 c 1.31388,-0.36996 3.3,-2.16692 3.3,-2.9857 0,-0.78478 0.48378,-0.793 0.9,-0.0153 0.17661,0.33 0.46046,0.6 0.63077,0.6 0.51684,0 -0.0248,-1.24989 -1.2577,-2.90229 l -1.15822,-1.5523 -0.93915,0.8773 c -0.51653,0.48251 -1.10018,0.87729 -1.29699,0.87729 -0.56569,0 -2.66048,2.17131 -3.42385,3.5489 -0.78439,1.41553 -0.73207,1.46545 1.89514,1.80858 0.165,0.0215 0.7725,-0.0939 1.35,-0.25648 z m 29.21441,-0.71597 c 0.0987,-0.39324 0.55986,-1.12222 1.0248,-1.61994 0.73208,-0.78369 1.12446,-0.93068 2.92807,-1.09691 1.1455,-0.10558 2.76033,-0.45661 3.58852,-0.78006 1.96697,-0.76823 2.55861,-0.74294 4.39551,0.18789 1.32194,0.66988 1.68982,0.73578 2.69003,0.4819 0.89693,-0.22767 1.15866,-0.20691 1.15866,0.0919 0,0.21231 -0.2025,0.46371 -0.45,0.55869 -0.2475,0.095 -0.45,0.32845 -0.45,0.51883 0,0.24669 0.13161,0.23692 0.45804,-0.034 0.57863,-0.48022 2.24196,-2.93049 2.24196,-3.30265 0,-0.46097 -1.43331,-0.67655 -3.09127,-0.46496 -3.71376,0.47396 -4.96822,0.49329 -6.80873,0.10491 -1.30183,-0.2747 -2.39873,-0.32883 -3.3,-0.16285 -1.59944,0.29457 -3.10216,0.0821 -3.59179,-0.50789 -0.19364,-0.23332 -0.52805,-0.3567 -0.74313,-0.27416 -0.23498,0.0902 -0.46671,-0.1514 -0.58063,-0.60529 -0.20926,-0.83375 1.58039,-5.63207 3.22694,-8.65188 0.71933,-1.31927 1.09957,-1.72227 1.62756,-1.725 0.45979,-0.002 0.85895,-0.31448 1.2,-0.93827 0.28108,-0.51409 0.9498,-1.47186 1.48605,-2.12838 0.53625,-0.65652 0.975,-1.30038 0.975,-1.43079 0,-0.13041 -0.35607,-0.47042 -0.79128,-0.75558 -0.98368,-0.64454 -2.84684,-0.45699 -4.01106,0.40376 -1.15438,0.85346 -3.15072,1.33644 -5.32266,1.28771 l -1.875,-0.0421 0,1.05003 c 0,0.85003 0.11428,1.05003 0.6,1.05003 0.8508,0 0.78615,1.22995 -0.1054,2.00514 -0.67548,0.58732 -4.3946,7.50337 -4.3946,8.17216 0,0.17749 0.2025,0.3227 0.45,0.3227 0.79089,0 0.48163,0.88165 -0.375,1.06909 -0.45375,0.0993 -1.21639,0.30436 -1.69476,0.45571 -1.32832,0.42029 -6.87516,0.34593 -7.44485,-0.0998 -0.2636,-0.20625 -0.56998,-0.81307 -0.68084,-1.34849 -0.18047,-0.87163 -0.11371,-1.00689 0.63804,-1.2927 0.46178,-0.17557 1.07986,-0.25639 1.37351,-0.1796 0.80085,0.20942 0.64431,-0.20975 -0.35395,-0.94779 -0.97993,-0.72449 -2.39286,-0.84109 -3.88576,-0.32067 -1.14064,0.39763 -1.11097,0.52037 0.70201,2.90428 1.03001,1.35437 1.3716,2.06765 1.3716,2.86405 0,1.64734 -0.52462,1.58168 -1.30527,-0.16334 -0.82525,-1.84471 -1.60027,-2.73464 -3.54878,-4.07495 -1.62867,-1.12029 -1.68422,-1.12858 -3.08577,-0.46023 -1.03655,0.4943 -1.3502,1.07979 -0.7704,1.43813 0.48804,0.30162 3.6445,6.39392 3.73046,7.20017 0.0444,0.41641 0.15108,0.82746 0.23707,0.91345 0.086,0.086 1.07061,-0.25387 2.18806,-0.75523 1.55368,-0.69709 2.12769,-0.83192 2.43962,-0.57304 0.31113,0.25822 0.44985,0.22925 0.58467,-0.12208 0.28626,-0.746 2.13672,-1.4752 3.16849,-1.24858 0.50051,0.10993 1.63978,0.79427 2.5317,1.52075 1.8505,1.50725 2.15165,1.58811 2.38922,0.64154 0.0938,-0.37363 0.62897,-0.99348 1.18932,-1.37744 0.80003,-0.54818 1.23173,-0.65214 2.01022,-0.48406 1.45049,0.31318 2.94293,1.13653 4.27993,2.36117 1.39182,1.27486 1.5398,1.30525 1.77587,0.36468 z m -29.924,-7.46816 c 0.0555,-0.91653 -0.60271,-2.10916 -1.85565,-3.36211 -1.13739,-1.13738 -1.93476,-1.36189 -1.93476,-0.54475 0,0.3816 -0.0861,0.42394 -0.34182,0.16817 -0.57955,-0.57954 -3.87823,2.28715 -4.41995,3.84113 l -0.3069,0.88038 4.40933,-0.15798 c 4.29377,-0.15383 4.4104,-0.17545 4.44975,-0.82484 z m 1.00959,-2.54475 c 0,-0.12534 0.67218,-0.95141 1.49374,-1.83571 l 1.49375,-1.60783 -1.11875,-1.44014 c -1.30595,-1.68113 -2.24392,-2.22986 -3.06262,-1.79171 -0.74539,0.39893 -1.80612,1.77157 -1.80612,2.33722 0,0.54351 2.43942,4.56606 2.76902,4.56606 0.12704,0 0.23098,-0.10255 0.23098,-0.22789 z m 7.47676,-2.21791 c 0.28762,-0.35519 1.11067,-0.8756 1.829,-1.15645 l 1.30606,-0.51065 -0.80458,-0.52718 c -0.97732,-0.64037 -2.5674,-0.43268 -3.35562,0.43829 -0.45842,0.50655 -0.47951,0.71018 -0.15479,1.49413 0.44799,1.08155 0.5058,1.09438 1.17993,0.26186 z m 45.62324,-2.06884 c -0.2475,-0.168 -0.72,-0.44355 -1.05,-0.61234 -0.47153,-0.24119 -0.44835,-0.1748 0.10824,0.31004 0.38953,0.33932 0.86203,0.61487 1.05,0.61235 0.18797,-0.002 0.13926,-0.14205 -0.10824,-0.31005 z m -5.4,-4.18536 c -0.58696,-0.37932 -1.2,-0.37932 -1.2,0 0,0.165 0.37125,0.29793 0.825,0.29541 0.64288,-0.004 0.72566,-0.0688 0.375,-0.29541 z m -6.75664,-4.18925 c 0.19279,-0.31194 -2.19545,-1.95866 -2.45876,-1.69535 -0.33139,0.3314 0.19439,0.9998 1.16118,1.47614 1.2035,0.59299 1.07952,0.57204 1.29758,0.21921 z m 35.85664,-11.11075 c 0,-0.165 -0.0595,-0.3 -0.13229,-0.3 -0.0728,0 -0.21573,0.135 -0.31771,0.3 -0.10197,0.165 -0.0424,0.3 0.1323,0.3 0.17473,0 0.3177,-0.135 0.3177,-0.3 z m 2.08478,-9.75 c -0.005,-0.53116 -0.0534,-0.51438 -0.41909,0.14624 -0.22718,0.41043 -0.34052,0.86359 -0.25187,1.00702 0.22271,0.36034 0.67831,-0.42276 0.67096,-1.15326 z m 48.66567,20.97157 c -0.40666,-0.28484 -0.96808,-0.40689 -1.38745,-0.30164 -1.00475,0.25218 -2.41918,-0.0913 -3.13959,-0.76251 -0.56443,-0.52585 -0.78815,-0.54629 -2.57437,-0.23524 -3.22644,0.56186 -6.27185,-0.20603 -8.96252,-2.25986 -0.76544,-0.58428 -1.50926,-1.06232 -1.65294,-1.06232 -0.66654,0 -2.71962,-2.50168 -3.87389,-4.72034 -2.52977,-4.86253 -3.25406,-8.98651 -2.34324,-13.34201 0.68804,-3.29019 0.63948,-4.86901 -0.17302,-5.62596 -0.69769,-0.65 -1.14343,-0.78402 -1.14343,-0.34379 0,1.24695 -3.04818,0.0212 -6.61178,-2.65863 -1.97909,-1.48832 -2.62725,-1.82259 -3.39238,-1.74955 -0.88505,0.0845 -0.93971,0.0335 -0.85041,-0.79262 0.12834,-1.18729 0.57738,-1.9671 1.13272,-1.9671 0.25137,0 0.98541,0.42461 1.63119,0.94358 0.97551,0.78393 1.25123,0.87962 1.62966,0.56555 0.45383,-0.37664 1.59386,-0.3132 2.68521,0.14942 0.41591,0.17631 0.51218,0.14303 0.34918,-0.12071 -0.29537,-0.47792 0.35129,-1.23784 1.05334,-1.23784 1.27109,0 4.9273,4.83148 5.26785,6.96116 0.10133,0.63368 0.28469,1.21422 0.40747,1.2901 0.12278,0.0759 0.84308,-0.92883 1.60068,-2.23269 1.32433,-2.27925 2.29959,-3.31857 3.11402,-3.31857 0.66754,0 0.40645,0.42454 -0.77461,1.25956 -2.86172,2.02327 -5.57192,10.52219 -4.83213,15.15311 0.49355,3.08949 2.08999,7.36234 2.08999,5.59383 0,-0.59137 1.18306,-1.98025 1.21638,-1.428 0.009,0.14933 0.051,0.8328 0.0933,1.51883 0.14354,2.32801 1.97662,3.92656 6.04033,5.26752 2.8325,0.93468 8.85,1.11393 8.85,0.26362 0,-0.14306 -0.52361,-1.05173 -1.16359,-2.01928 -1.58702,-2.39936 -3.33641,-5.65194 -3.33641,-6.20328 0,-0.2494 -0.6621,-1.24583 -1.47134,-2.2143 -0.80923,-0.96847 -1.87955,-2.56653 -2.37848,-3.55123 -1.57339,-3.10531 -2.75098,-8.84038 -1.8152,-8.84038 0.19608,0 0.27516,0.31288 0.19071,0.75461 -0.19254,1.00724 1.13965,5.95457 2.05872,7.64539 0.4036,0.7425 1.16846,1.86579 1.6997,2.49621 l 0.96589,1.14621 -0.0265,-7.44621 c -0.0146,-4.09542 -0.10167,-7.94461 -0.19352,-8.55376 -0.20731,-1.37489 -1.13209,-3.84245 -1.44006,-3.84245 -0.12573,0 -1.37774,-1.45971 -2.78226,-3.24381 -1.40452,-1.78409 -3.00456,-3.58198 -3.55565,-3.99529 -0.55109,-0.41331 -2.25189,-1.19807 -3.77954,-1.7439 -2.76292,-0.98719 -2.80007,-0.99162 -7.05,-0.84091 -5.32732,0.18891 -7.05545,0.59716 -9.46641,2.23628 -2.12108,1.44204 -2.22797,1.47392 -2.76638,0.82517 -0.32767,-0.39482 -0.0368,-0.79327 1.98826,-2.72383 2.62373,-2.50126 4.75141,-3.70404 6.57208,-3.71521 0.66,-0.004 2.04288,-0.2061 3.07306,-0.449 1.29293,-0.30485 2.73314,-0.39098 4.65,-0.27809 3.82939,0.22553 5.47733,1.00352 7.07491,3.34007 0.65378,0.95618 1.96005,2.58589 2.90281,3.62156 1.88613,2.07201 4.67435,6.97909 5.41691,9.5334 0.38059,1.30919 0.45558,2.94263 0.38805,8.45316 -0.11726,9.56971 0.18568,11.31296 2.06926,11.9077 0.37125,0.11722 0.675,0.41755 0.675,0.66739 0,0.3658 -0.21121,0.32371 -1.08481,-0.2162 l -1.08481,-0.67046 0.21139,0.66603 c 0.32396,1.02072 2.5321,4.83661 3.54486,6.12589 0.82912,1.0555 0.99076,1.13355 1.96802,0.95021 0.58559,-0.10986 1.33789,-0.39108 1.67178,-0.62495 0.33389,-0.23386 0.77954,-0.42521 0.99032,-0.42521 0.77874,0 0.34396,0.8674 -1.03588,2.06663 -1.4052,1.22126 -1.41078,1.23337 -0.56793,1.23337 0.46817,0 1.74803,-0.19444 2.84414,-0.43208 4.69301,-1.01747 8.31117,-1.59452 8.55362,-1.3642 0.29048,0.27597 -1.14534,1.04993 -3.8607,2.08106 -0.99,0.37594 -2.205,0.85512 -2.7,1.06484 -0.495,0.20973 -1.39807,0.55602 -2.00682,0.76954 -0.93667,0.32854 -1.06187,0.47221 -0.81444,0.93453 0.35776,0.6685 0.29049,0.67639 -0.57829,0.0679 z m -79.91737,-3.42157 c -0.24898,-0.5775 -1.01078,-2.28283 -1.69288,-3.78962 -1.34541,-2.97203 -1.38723,-3.11038 -0.9402,-3.11038 0.165,0 0.3,0.12901 0.3,0.28668 0,0.15767 0.31482,0.75058 0.69959,1.31758 0.81619,1.20273 2.39321,5.47717 2.21097,5.99273 -0.0686,0.19415 -0.3285,-0.11949 -0.57748,-0.69699 z m 17.94528,0.0459 c -0.43058,-0.69668 1.62429,-10.24588 2.20478,-10.24588 0.14295,0 0.076,0.70875 -0.14877,1.575 -0.22476,0.86625 -0.52992,3.03565 -0.67812,4.82089 -0.18406,2.21723 -0.41456,3.391 -0.72735,3.70378 -0.29457,0.29458 -0.52662,0.34673 -0.65054,0.14621 z m -23.36429,-0.64588 c -0.10532,-0.2475 -0.48389,-1.3275 -0.84128,-2.4 -0.35738,-1.0725 -0.96996,-2.63803 -1.36128,-3.47895 -0.8289,-1.7812 -0.8505,-1.92105 -0.29679,-1.92105 0.25836,0 0.72642,0.98966 1.2415,2.625 0.45474,1.44375 1.01881,3.00539 1.25349,3.4703 0.23469,0.46492 0.37476,1.13992 0.31128,1.5 -0.0873,0.49512 -0.1621,0.54501 -0.30692,0.2047 z m 20.83776,-0.33339 c -0.14573,-0.39414 -0.33764,-2.13411 -0.42648,-3.86661 -0.11949,-2.33011 -0.0951,-2.72053 0.0935,-1.5 0.14028,0.9075 0.40973,2.56994 0.59879,3.6943 0.35073,2.08593 0.21134,2.96285 -0.26583,1.67231 z m -10.73283,-1.53507 c -2.09279,-2.15569 -3.48419,-4.73154 -2.55584,-4.73154 0.36889,0 4.59712,5.96916 4.47908,6.32329 -0.0531,0.15939 -0.91859,-0.5569 -1.92324,-1.59175 z m 7.85371,0.91247 c -0.0677,-0.2167 -0.18499,-1.87901 -0.26071,-3.69401 -0.14767,-3.53964 0.21192,-2.84166 0.52225,1.0137 0.098,1.21754 0.24509,2.32196 0.32686,2.45427 0.0818,0.13232 0.0105,0.32596 -0.15833,0.43031 -0.16886,0.10436 -0.36239,0.0125 -0.43007,-0.20427 z m -31.02164,-1.21625 c -0.40974,-1.34761 -0.69359,-4.30408 -0.49074,-5.11116 0.32813,-1.30547 2.6091,-1.77941 5.04767,-1.0488 1.54271,0.46221 1.90719,0.83231 3.28087,3.33139 1.20419,2.19076 1.40671,2.91958 0.63278,2.27728 -0.68398,-0.56765 -2.2155,-3.32237 -2.21883,-3.99097 -0.002,-0.48835 -0.17043,-0.54202 -1.24529,-0.39785 -0.68918,0.0924 -1.79132,0.56602 -2.475,1.06348 -1.0514,0.76504 -1.23253,1.0565 -1.23253,1.98333 0,0.60587 -0.18522,1.20118 -0.41871,1.34574 -0.2303,0.14259 -0.33744,0.47105 -0.23811,0.72992 0.0993,0.25887 0.0624,0.54373 -0.0821,0.63303 -0.1445,0.0893 -0.3965,-0.27762 -0.56001,-0.81539 z m -3.95864,0.0581 c -0.63464,-1.18585 -0.50048,-4.17471 0.25185,-5.61086 0.36735,-0.70125 0.86767,-1.275 1.11182,-1.275 0.5871,0 0.55133,0.48429 -0.14987,2.02913 -0.80802,1.78019 -1.00277,3.07788 -0.61498,4.09785 0.42183,1.1095 -0.0745,1.73853 -0.59882,0.75888 z m 31.13257,0.11595 c -0.45375,-0.239 -0.825,-0.57811 -0.825,-0.75357 0,-0.30634 -0.95914,-1.56114 -2.54955,-3.33546 -0.86227,-0.96197 -0.91075,-1.20627 -0.33435,-1.68464 0.52705,-0.43741 1.7032,0.88623 2.83127,3.18633 0.42769,0.87204 0.88103,1.58553 1.00742,1.58553 0.54489,0 1.14521,-1.88861 1.14521,-3.60281 0,-1.14534 0.11251,-1.76307 0.3,-1.64719 0.637,0.39369 0.0729,6.84723 -0.58722,6.71818 -0.0895,-0.0175 -0.53403,-0.22737 -0.98778,-0.46637 z m -33.075,-2.50181 c -0.10197,-0.165 0.025,-0.3 0.2823,-0.3 0.25723,0 0.4677,0.135 0.4677,0.3 0,0.165 -0.12703,0.3 -0.28229,0.3 -0.15526,0 -0.36573,-0.135 -0.46771,-0.3 z m -0.84043,-0.975 c -0.44915,-0.33345 -0.47177,-0.67417 -0.20419,-3.075 0.16551,-1.485 0.45024,-3.4384 0.63272,-4.34089 0.41766,-2.06552 2.02397,-6.30911 2.38816,-6.30911 0.41487,0 0.34033,0.4094 -0.46328,2.5444 -1.00377,2.66677 -1.36725,4.89301 -1.38838,8.50359 -0.01,1.67861 -0.11732,3.05201 -0.23889,3.05201 -0.12157,0 -0.44833,-0.16875 -0.72614,-0.375 z m 39.7378,-2.925 c 0,-0.4125 0.0681,-0.58125 0.15132,-0.375 0.0832,0.20625 0.0832,0.54375 0,0.75 -0.0832,0.20625 -0.15132,0.0375 -0.15132,-0.375 z m 27.57549,-3.51965 c -0.20069,-0.44045 -0.83415,-2.02247 -1.4077,-3.51559 -0.57355,-1.49312 -1.30659,-3.34729 -1.62899,-4.12037 -0.32239,-0.77309 -0.58617,-1.61684 -0.58617,-1.875 0,-1.02243 0.49692,-0.34044 1.46685,2.01316 1.69502,4.11307 2.13882,5.13278 2.59551,5.96374 0.4866,0.88536 0.57405,1.934 0.18151,2.1766 -0.14087,0.0871 -0.42033,-0.20208 -0.62101,-0.64254 z m 23.44908,-1.35535 c -1.26622,-2.32942 -2.92999,-6.46695 -2.69497,-6.70197 0.0784,-0.0784 0.45333,0.70558 0.83314,1.7422 0.37982,1.03662 1.27678,3.06602 1.99325,4.50977 0.71646,1.44375 1.24601,2.625 1.17677,2.625 -0.0692,0 -0.65793,-0.97875 -1.30819,-2.175 z m -19.96646,-2.83427 c -1.0642,-0.75719 -3.48002,-3.82787 -3.88366,-4.9364 -0.42242,-1.16013 0.25882,-0.70518 1.60311,1.07058 0.79382,1.0486 1.76291,2.15822 2.15354,2.46582 0.8347,0.65727 1.90774,2.20927 1.52747,2.20927 -0.14469,0 -0.77489,-0.36417 -1.40046,-0.80927 z m 4.80657,-7.17868 c -0.10337,-0.10337 -0.56462,-0.23214 -1.025,-0.28615 -1.53145,-0.17967 -5.00586,-1.06047 -7.58705,-1.92341 -1.4025,-0.46888 -3.18261,-1.01388 -3.9558,-1.21111 -2.19864,-0.56085 -2.27069,-1.93095 -0.0973,-1.84924 0.5879,0.0221 2.65159,0.70787 4.58598,1.52392 1.9344,0.81606 4.32708,1.70646 5.31708,1.97866 2.67191,0.73464 3.45,1.08234 3.45,1.54168 0,0.43082 -0.36353,0.55006 -0.68795,0.22565 z m -81.32836,-0.65753 c -0.0834,-0.13502 -0.37837,-1.24877 -0.65539,-2.475 -0.57042,-2.52494 -1.52545,-5.13054 -1.98447,-5.41424 -0.43247,-0.26728 0.004,-1.46528 0.53381,-1.46528 0.24047,0 0.55941,0.3214 0.70876,0.71423 0.14935,0.39282 0.73748,1.70907 1.30696,2.925 1.64633,3.5152 1.84983,4.34756 1.27676,5.22218 -0.4947,0.755 -0.91628,0.93022 -1.18643,0.49311 z m 2.07934,-1.21346 c -0.0976,-0.30741 -0.18666,-1.54884 -0.19799,-2.75871 -0.0165,-1.75985 0.0838,-2.2761 0.50138,-2.58145 0.66973,-0.48972 1.13074,-0.20483 0.92732,0.57306 -0.0872,0.33343 -0.0203,1.35385 0.14857,2.26759 0.21356,1.15523 0.21016,1.87415 -0.0112,2.35989 -0.38228,0.83902 -1.12216,0.91452 -1.36811,0.13962 z m -7.23069,-0.56606 c -0.29517,-0.45375 -1.25368,-1.71493 -2.13002,-2.80262 -1.63171,-2.02524 -2.50232,-3.6823 -2.50232,-4.76274 0,-0.82684 0.84931,-0.7796 1.17518,0.0654 0.14317,0.37125 1.11858,1.73291 2.16757,3.02591 2.19469,2.7052 3.08694,4.22842 2.84547,4.85767 -0.26568,0.69237 -0.96871,0.51905 -1.55588,-0.38358 z m 11.64557,-8.24424 c -0.66608,-0.71128 -1.87791,-3.28472 -1.87791,-3.98793 0,-0.8478 0.59355,-0.72454 1.07081,0.22236 0.273,0.54165 0.89767,1.40803 1.38817,1.92529 0.5784,0.60997 0.85652,1.18156 0.79141,1.6265 -0.13836,0.94553 -0.61736,1.02014 -1.37248,0.21378 z m 1.07044,-3.87298 c -0.96063,-0.35017 -1.69035,-1.98375 -1.00382,-2.24719 0.54566,-0.20939 2.59121,1.4072 2.48584,1.96455 -0.10609,0.56121 -0.50769,0.6378 -1.48202,0.28264 z m 98.90165,-2.05036 c -3.62263,-1.20009 -5.93275,-3.67238 -7.64848,-8.18539 -1.69079,-4.44744 -4.29172,-7.42203 -6.48967,-7.42203 -1.09073,0 -6.19236,2.52832 -10.73254,5.31895 -1.46888,0.90285 -3.22388,1.8811 -3.9,2.1739 -1.58098,0.68464 -2.38144,1.47883 -4.25592,4.22259 -1.66523,2.43747 -2.64761,3.16902 -3.85027,2.86717 -1.07698,-0.27031 -0.98363,-1.13314 0.21742,-2.0097 1.41539,-1.03297 3.33027,-3.22341 4.04135,-4.62291 0.33535,-0.66 0.95784,-1.52491 1.38331,-1.92203 1.30908,-1.22183 7.08138,-4.78054 10.0848,-6.21743 1.5675,-0.74993 3.51776,-1.68909 4.3339,-2.08702 0.81615,-0.39794 1.82865,-0.72402 2.25,-0.72463 0.63816,-9e-4 0.93254,-0.323 1.7627,-1.92851 0.54812,-1.06006 1.46904,-2.71197 2.04647,-3.6709 l 1.04989,-1.74351 -0.78821,-0.67798 c -0.43351,-0.3729 -1.16253,-0.67799 -1.62004,-0.67799 -0.85665,0 -3.10881,1.32164 -4.079,2.39369 -0.65022,0.71849 -1.05571,0.77886 -1.05571,0.15717 0,-1.19174 4.08365,-4.35086 5.62416,-4.35086 0.58186,0 3.37584,1.87367 3.37584,2.26387 0,0.17792 0.61208,1.14716 1.36018,2.15387 1.36651,1.8389 2.91499,5.11793 2.63262,5.57481 -0.0832,0.13467 -0.64441,-0.59126 -1.24706,-1.61319 -1.52123,-2.57956 -3.22116,-4.35622 -3.74897,-3.91817 -0.43139,0.35801 -3.04506,5.48689 -3.30669,6.48881 -0.11117,0.42569 0.25977,1.058 1.27682,2.17653 l 1.4335,1.57653 1.26433,-2.55153 c 0.69539,-1.40334 1.3928,-2.55153 1.5498,-2.55153 0.46312,0 0.34297,0.41784 -0.76453,2.65877 -0.5775,1.16853 -1.05,2.30384 -1.05,2.52291 0,0.21908 -0.13,0.52832 -0.28889,0.68721 -0.18519,0.18519 -0.0334,0.82595 0.42298,1.785 0.39153,0.82286 1.06109,2.44111 1.48792,3.59611 1.24896,3.37977 2.94453,4.89753 6.5395,5.85376 2.94932,0.78449 5.11752,0.74458 8.20827,-0.15108 3.73624,-1.08272 3.71953,-1.05755 1.95476,-2.9453 -3.65018,-3.90457 -6.68983,-9.15293 -9.14208,-15.78498 -1.69086,-4.57287 -3.07197,-7.06761 -4.78884,-8.65016 -2.17544,-2.00526 -3.5503,-2.56482 -6.66112,-2.71104 -2.46328,-0.11579 -2.98247,-0.0371 -5.55,0.84097 -3.06768,1.04913 -4.37157,1.64405 -5.01622,2.2887 -0.22719,0.22718 -0.70629,0.56816 -1.06467,0.75773 -1.35645,0.71751 -3.41046,2.61927 -6.58988,6.1014 -2.95195,3.23301 -3.46319,3.96699 -5.01503,7.2 -0.9504,1.98 -2.0125,4.41 -2.36022,5.4 -1.70125,4.84363 -2.72579,6.56427 -2.50085,4.2 0.13667,-1.43656 1.21806,-5.67762 2.17907,-8.54605 0.48692,-1.45335 0.8853,-2.86132 0.8853,-3.12884 0,-0.26751 0.32842,-1.42637 0.72981,-2.57525 1.42261,-4.07182 1.69705,-13.08489 0.56634,-18.59986 -0.59064,-2.88085 -0.39423,-6.71274 0.46855,-9.14113 0.62934,-1.77133 0.62996,-1.79755 0.0556,-2.37187 -0.64844,-0.64843 -2.51318,-1.37558 -3.54534,-1.38248 -0.79066,-0.005 -0.93003,-0.91939 -0.22889,-1.50129 0.6568,-0.5451 1.87641,-0.1319 3.65545,1.23844 1.33245,1.02635 1.72921,1.18193 2.80964,1.10173 l 1.25808,-0.0934 -2.18827,-1.5 c -2.07693,-1.42369 -3.57702,-2.95399 -3.23295,-3.29806 0.12813,-0.12813 1.88744,1.07489 3.40194,2.32625 0.165,0.13633 1.07625,0.72491 2.025,1.30797 1.70791,1.04958 2.28284,1.8297 1.1254,1.52702 -0.59946,-0.15676 -0.59946,-0.15663 0,0.60547 0.32978,0.41925 0.5996,0.9319 0.5996,1.13923 0,0.42541 1.48747,1.07004 3.83165,1.66054 1.37467,0.34628 1.86542,0.33245 3.75,-0.10568 1.19259,-0.27725 3.58424,-0.71277 5.31476,-0.96782 3.13577,-0.46216 5.33199,-1.22518 5.16639,-1.79492 -0.048,-0.165 -0.52046,-0.45291 -1.05,-0.6398 -0.52954,-0.18689 -1.8403,-0.89441 -2.9128,-1.57226 -1.0725,-0.67786 -2.61181,-1.58389 -3.42069,-2.01341 -1.48193,-0.78691 -4.02362,-2.6636 -6.2979,-4.65014 -0.67727,-0.59159 -2.25398,-1.63422 -3.50379,-2.31697 -2.20094,-1.20233 -2.39429,-1.24984 -6.15,-1.51112 -3.18077,-0.22129 -4.06631,-0.1908 -4.92762,0.16963 -0.5775,0.24167 -1.67445,0.62969 -2.43767,0.86227 -1.98435,0.6047 -3.63781,2.28721 -4.24718,4.3218 -0.49219,1.64331 -1.18043,7.54465 -0.95676,8.20371 0.0646,0.19046 0.32746,3.04629 0.58405,6.34629 0.57692,7.41985 0.89595,9.99884 1.87412,15.15 1.17919,6.20972 1.50224,12.17502 0.88349,16.31421 -0.56753,3.79666 -0.63914,6.06442 -0.20005,6.33579 0.50657,0.31308 0.33315,1.52701 -0.3,2.1 -0.33,0.29865 -0.6,0.70961 -0.6,0.91326 0,0.20365 -0.23625,0.65121 -0.525,0.99459 -0.58462,0.69522 -2.40757,0.84878 -5.55,0.4675 -1.21355,-0.14724 -1.725,-0.1079 -1.725,0.13268 0,0.58004 -0.81447,0.38519 -2.9596,-0.70803 -1.13318,-0.5775 -2.3146,-1.05525 -2.62537,-1.06166 -0.84677,-0.0175 -4.92708,-1.28908 -6.03568,-1.88099 -0.53386,-0.28504 -1.0523,-0.84354 -1.15208,-1.2411 -0.24031,-0.95748 -0.42976,-1.00182 -3.55257,-0.83158 -2.51289,0.137 -2.62671,0.17131 -1.875,0.56517 0.44017,0.23063 0.8003,0.55001 0.8003,0.70974 0,0.38953 -1.82613,0.36802 -3.44901,-0.0406 -0.72309,-0.18207 -1.49162,-0.2703 -1.70785,-0.19606 -0.65667,0.22548 1.61735,1.42477 2.70386,1.42599 0.7871,9e-4 0.97606,0.11165 0.89754,0.52612 -0.1276,0.6736 -1.77233,0.85661 -3.05511,0.33995 -0.51669,-0.2081 -1.51158,-0.8403 -2.21087,-1.40489 -0.97569,-0.78772 -1.58189,-1.03886 -2.606,-1.07959 -0.74911,-0.0298 -1.5732,-0.26898 -1.87856,-0.54523 -0.42704,-0.38633 -0.9312,-0.45701 -2.34498,-0.32873 -1.32385,0.12011 -2.11862,0.0275 -3,-0.34957 -0.65946,-0.28214 -2.06115,-0.62456 -3.11487,-0.76094 -1.43448,-0.18566 -2.22596,-0.48243 -3.15,-1.1811 -0.67879,-0.51323 -1.67503,-1.15755 -2.21388,-1.43184 l -0.97973,-0.4987 -1.3108,1.28646 c -1.42193,1.39551 -2.36301,1.54133 -2.52686,0.39153 -0.144,-1.01045 1.0338,-3.2047 2.19599,-4.09115 1.00875,-0.76941 1.02978,-0.77195 2.1599,-0.26163 0.62768,0.28344 1.43716,0.77342 1.79885,1.08885 0.45764,0.39911 1.3835,0.64669 3.04466,0.81415 1.31287,0.13235 2.77366,0.44057 3.24621,0.68494 1.0852,0.56118 4.41139,1.2266 5.11769,1.02382 0.2936,-0.0843 0.80382,-0.25269 1.13382,-0.37421 0.49121,-0.18088 0.47207,-0.12569 -0.10555,0.30438 -0.53999,0.40205 -0.61275,0.58268 -0.31006,0.76975 0.21752,0.13444 0.55456,0.11242 0.74897,-0.0489 0.2502,-0.20764 0.3408,-0.13688 0.31006,0.24217 -0.0353,0.43571 0.23015,0.55289 1.42446,0.62871 1.21487,0.0771 1.72509,-0.0667 2.96016,-0.83447 l 1.49229,-0.92766 -0.20043,1.0684 c -0.18931,1.00908 -0.14183,1.09288 0.8552,1.50947 1.39531,0.583 1.39347,0.58387 1.02202,-0.48166 -0.45651,-1.30957 0.003,-1.64161 2.15983,-1.56068 l 1.77469,0.0666 -0.17832,-0.89158 c -0.13923,-0.69616 -0.0715,-0.89159 0.30918,-0.89159 0.55673,0 0.65025,-0.46401 0.15519,-0.76997 -0.20599,-0.12731 -0.26166,-0.64726 -0.14646,-1.36771 0.18289,-1.14375 0.17023,-1.16307 -0.79268,-1.20898 -1.48468,-0.0708 -2.44769,0.0571 -2.76355,0.36702 -0.3897,0.38237 -1.365,0.35372 -1.365,-0.0401 0,-0.66342 0.64925,-1.49034 1.52615,-1.9438 0.82844,-0.4284 1.11139,-0.42516 3.2161,0.0369 1.92568,0.42276 2.66784,0.77597 4.48275,2.13345 2.18005,1.6306 2.49854,2.0325 1.8,2.27142 -0.20625,0.0705 0.33375,0.48906 1.2,0.93005 1.70667,0.86883 2.09009,1.69169 0.78827,1.69169 -0.67008,0 -0.73059,0.0677 -0.4081,0.45623 0.20825,0.25093 0.96045,0.60273 1.67154,0.78179 1.36429,0.34353 3.24636,1.53892 2.92651,1.85876 -0.38493,0.38493 0.59645,1.09732 1.50613,1.09331 1.5627,-0.007 4.59682,0.24001 5.18674,0.42206 1.31416,0.40555 3.05191,0.46103 3.32551,0.10618 0.43985,-0.57048 1.34831,-10.09629 1.32416,-13.88473 -0.0137,-2.15483 -0.24852,-4.52128 -0.64369,-6.48785 -0.34214,-1.70266 -0.81878,-4.98575 -1.0592,-7.29575 -0.24042,-2.31 -0.71479,-6.6975 -1.05416,-9.75 -0.81016,-7.28713 -0.81196,-13.01398 -0.005,-15.6269 1.31751,-4.26562 2.8541,-6.14944 6.62996,-8.12819 1.80606,-0.94647 2.03875,-0.99176 4.77946,-0.93018 1.58453,0.0356 3.75693,0.26788 4.82756,0.51617 2.41127,0.55921 5.9463,2.45251 8.43963,4.52011 2.49044,2.0652 7.87579,5.63721 10.55202,6.99897 1.95429,0.9944 2.39512,1.09731 5.14129,1.20023 2.66153,0.0997 3.21287,0.0276 4.83959,-0.63341 3.29971,-1.3408 3.26706,0.10045 -0.0389,1.71791 -0.87619,0.42868 -2.28397,0.9846 -3.12839,1.23536 -1.04013,0.30889 -1.84828,0.80866 -2.50565,1.54954 -0.53369,0.60148 -1.84785,2.00063 -2.92035,3.10924 -2.43649,2.51851 -3.88868,3.02564 -8.82763,3.08274 -4.63589,0.0536 -6.8241,-0.69066 -9.26924,-3.15267 -1.3029,-1.3119 -1.9607,-1.75892 -2.58826,-1.75892 -1.04894,0 -1.40539,0.42247 -1.97512,2.34097 -0.37005,1.2461 -0.39375,1.99219 -0.13225,4.16359 0.64025,5.31644 0.91133,10.83472 0.71576,14.57044 -0.11014,2.10375 -0.12706,3.825 -0.0376,3.825 0.0894,0 1.28802,-1.3111 2.6635,-2.91356 2.69289,-3.13726 3.94755,-4.36128 6.39259,-6.23644 0.86058,-0.66 2.0245,-1.55188 2.58649,-1.98194 0.56198,-0.43007 2.23679,-1.29683 3.72179,-1.92614 2.13885,-0.90639 3.04293,-1.13454 4.35,-1.09775 2.40592,0.0677 5.01772,0.84024 6.31526,1.86792 1.47915,1.1715 3.8404,3.94699 4.9666,5.83791 0.96755,1.62451 2.9611,6.3454 3.29382,7.8 0.11322,0.495 0.3718,1.2375 0.57463,1.65 0.20282,0.4125 0.6535,1.3575 1.00152,2.1 2.19675,4.68684 5.61615,9.84212 7.7201,11.63926 1.27957,1.09299 1.53314,1.14385 2.46132,0.49373 0.63947,-0.4479 0.66675,-0.43401 0.66675,0.3395 0,0.7646 0.0585,0.79697 1.125,0.62298 0.61875,-0.10094 1.49625,-0.26946 1.95,-0.37447 1.30301,-0.30158 1.00077,0.42855 -0.45,1.08708 -0.70948,0.32204 -1.94773,0.58167 -2.79171,0.58533 -1.15691,0.005 -1.76185,0.19028 -2.55,0.78088 -3.67145,2.7512 -7.55733,3.65152 -10.93329,2.53313 z m -62.55,-4.3433 c 0,-0.0747 -0.15667,-0.47974 -0.34815,-0.9 -0.37157,-0.81549 -0.92791,-1.06788 -0.69243,-0.31412 0.0773,0.2475 0.20385,0.6525 0.28117,0.9 0.12463,0.39893 0.75941,0.6615 0.75941,0.31412 z m -77.2,2.33588 c -0.11,-0.11 -0.17941,-1.02125 -0.15425,-2.025 l 0.0457,-1.825 0.1991,1.95 c 0.21506,2.10629 0.21054,2.20113 -0.0906,1.9 z m -0.17631,-4.475 c 0.0144,-0.34948 0.0855,-0.42057 0.18125,-0.18125 0.0867,0.21656 0.076,0.47531 -0.0237,0.575 -0.0997,0.0997 -0.1706,-0.0775 -0.15757,-0.39375 z m 91.3218,-1.08507 c -1.04294,-1.23947 -1.83884,-3.06906 -2.57222,-5.91292 -0.62685,-2.43078 -0.74298,-4.22701 -0.27327,-4.22701 0.165,0 0.3,0.64218 0.3,1.42706 0,1.55282 1.43767,5.58591 2.85068,7.99704 0.99352,1.6953 0.83393,2.0696 -0.30519,0.71583 z m 1.37056,-1.40993 c -0.43689,-0.81635 -1.81006,-6.32963 -1.81331,-7.28046 -0.003,-0.99835 0.27331,-1.74954 0.6445,-1.74954 0.15567,0 0.25576,0.64125 0.22241,1.425 -0.0333,0.78375 0.10344,2.0325 0.30397,2.775 0.20053,0.7425 0.48728,1.92568 0.63723,2.62929 0.14995,0.70361 0.41135,1.53848 0.58089,1.85527 0.38363,0.71682 0.38771,0.91544 0.0188,0.91544 -0.15919,0 -0.42672,-0.2565 -0.5945,-0.57 z M 101.945,318.93427 c 0.76566,-5.19203 1.82953,-8.54995 3.76575,-11.88595 0.99796,-1.71943 1.04432,-1.99446 0.20872,-1.23826 -1.64012,1.48429 -3.75653,5.41906 -4.32827,8.047 l -0.39802,1.82946 -0.0165,-1.5 c -0.009,-0.825 0.12227,-2.1075 0.2919,-2.85 0.32819,-1.4366 3.02672,-7.32043 3.71068,-8.09071 0.2243,-0.25261 0.61964,-1.17967 0.87853,-2.06013 0.90568,-3.08011 3.34074,-6.02979 6.18771,-7.49541 1.00451,-0.51713 1.68582,-1.07522 1.74157,-1.42659 0.2867,-1.80687 3.23845,-4.32716 5.06797,-4.32716 0.83642,0 2.77095,-1.99734 2.78235,-2.87271 0.008,-0.64149 0.75809,-1.4445 2.16037,-2.31391 0.44123,-0.27357 0.8972,-0.80474 1.01325,-1.18039 0.7141,-2.31148 1.43102,-3.83299 1.80606,-3.83299 0.61442,0 0.53032,1.39645 -0.17815,2.95776 -0.32637,0.71927 -0.59341,1.62142 -0.59341,2.00479 0,0.41359 -0.22468,0.76833 -0.55255,0.87239 -0.3039,0.0965 -0.86412,0.50703 -1.24494,0.91239 -0.60944,0.64872 -0.6331,0.75976 -0.19745,0.92694 0.799,0.3066 0.55752,1.14005 -0.47103,1.62573 -1.15957,0.54755 -1.37838,1.08201 -0.55054,1.34476 0.33908,0.10762 0.61651,0.37132 0.61651,0.586 0,0.27158 -0.66172,0.43326 -2.175,0.53141 -2.26862,0.14715 -3.36295,0.57187 -4.875,1.89201 l -0.9,0.78578 1.29404,-0.17657 c 0.71172,-0.0971 2.12922,-0.26327 3.15,-0.36925 1.65947,-0.17228 1.81509,-0.1431 1.46988,0.27568 -0.21235,0.2576 -1.08985,0.69637 -1.95,0.97503 -2.40953,0.78062 -8.2968,4.05515 -7.29075,4.05515 0.0872,0 0.60144,-0.24693 1.14271,-0.54874 1.74151,-0.97105 5.63412,-1.66467 5.63412,-1.00394 0,0.13603 -0.77625,0.60918 -1.725,1.05146 -1.90937,0.8901 -6.975,4.54152 -6.975,5.02775 0,0.16988 -0.13345,0.2264 -0.29656,0.12559 -0.16311,-0.1008 -0.22996,-0.008 -0.14856,0.2073 0.0814,0.21482 -0.5238,1.13308 -1.34489,2.04058 -2.72393,3.01059 -5.68138,9.81452 -6.10634,14.04834 -0.0717,0.71409 -0.26506,1.43307 -0.42973,1.59775 -0.19921,0.19921 -0.25757,0.0157 -0.1744,-0.54834 z m 79.60048,-5.31974 c -0.4125,-0.21888 -1.83,-0.48576 -3.15,-0.59306 -2.29292,-0.1864 -2.44447,-0.24507 -3.39678,-1.31503 -0.97373,-1.09402 -1.04484,-1.11953 -3.075,-1.10308 -1.53579,0.0125 -2.07822,-0.0871 -2.07822,-0.38143 0,-0.77686 1.38832,-1.11424 3.0278,-0.7358 0.83489,0.19271 1.93116,0.35039 2.43616,0.35039 l 0.91819,0 -0.15884,-1.97881 c -0.18041,-2.24756 -0.43141,-2.1416 2.77669,-1.17213 0.9075,0.27424 2.1616,0.60575 2.78689,0.73668 1.40238,0.29364 1.60062,0.47684 1.12982,1.04412 -0.29522,0.35573 -0.27383,0.57993 0.10725,1.12401 1.01535,1.4496 0.3444,1.87218 -1.38181,0.8703 -1.55801,-0.90427 -3.49791,-1.33435 -4.02931,-0.89333 -0.36807,0.30548 -0.0226,0.59483 2.08102,1.74273 2.68986,1.46782 3.50614,2.04128 3.50614,2.46316 0,0.37244 -0.62328,0.30649 -1.5,-0.15872 z m 49.8,-2.61012 c 0,-1.59309 2.30609,-5.8618 2.86486,-5.30303 0.0827,0.0827 -0.39306,1.19443 -1.05724,2.47051 -0.66419,1.27609 -1.20762,2.64516 -1.20762,3.04239 0,0.39723 -0.135,0.72224 -0.3,0.72224 -0.165,0 -0.3,-0.41945 -0.3,-0.93211 z m -60,-6.07795 c 0,-0.52629 2.11731,-2.48474 2.96122,-2.73905 0.39117,-0.11787 1.29129,-0.62319 2.00027,-1.12292 1.08231,-0.76288 3.95835,-1.76875 7.26351,-2.54034 1.35335,-0.31594 0.67403,0.75881 -1.35,2.13583 -1.11375,0.75772 -2.69893,1.86228 -3.52262,2.45458 -1.23217,0.88603 -1.67784,1.04765 -2.51445,0.91189 -0.60838,-0.0987 -1.45289,0.0227 -2.10238,0.30231 -1.90972,0.82212 -2.73555,1.00256 -2.73555,0.5977 z m -29.86432,-1.28375 c -0.98833,-1.06642 -0.94198,-2.01843 0.13563,-2.78576 0.47922,-0.34124 0.9953,-0.62043 1.14684,-0.62043 0.15154,0 1.10228,-0.40049 2.11276,-0.88997 2.02212,-0.97952 2.67072,-1.77273 2.18765,-2.67536 -0.32042,-0.59871 -0.92144,-11.14881 -0.71532,-12.55637 0.60398,-4.12432 2.06581,-8.7309 3.13016,-9.86385 0.66285,-0.70558 0.68061,-1.68263 0.0798,-4.38945 -0.10717,-0.48283 -0.0555,-0.825 0.12461,-0.825 0.16924,0 0.46821,0.97875 0.66437,2.175 0.19615,1.19625 0.49557,2.46818 0.66537,2.82652 0.23909,0.50456 0.16478,0.94887 -0.3294,1.96972 -0.35097,0.72501 -0.63813,1.47807 -0.63813,1.67348 0,0.1954 -0.23625,0.59563 -0.525,0.88939 -1.45401,1.47926 -1.94698,3.82404 -1.90051,9.03959 0.0212,2.37804 0.1031,4.63929 0.18202,5.025 0.0789,0.38571 0.21561,1.04696 0.30376,1.46942 l 0.16026,0.76813 1.00015,-0.61813 c 1.51715,-0.93765 2.7138,-0.76525 6.99836,1.00824 2.41221,0.99847 3.50166,0.9749 5.82903,-0.12612 1.04606,-0.49487 2.05334,-0.89987 2.2384,-0.9 0.70205,-6e-4 6.53082,-2.70515 7.24628,-3.36241 0.41181,-0.3783 1.20135,-1.38764 1.75451,-2.24297 1.00628,-1.55593 1.61274,-2.17651 1.61274,-1.65028 0,0.83856 -1.06924,3.07583 -2.16831,4.53695 -2.66669,3.54515 -4.9473,5.07337 -8.73184,5.85111 -2.1389,0.43956 -3.40756,0.48558 -10.54985,0.38264 -2.07707,-0.0299 -3.09344,0.55757 -4.02114,2.32436 -0.85358,1.62564 -2.17739,2.64941 -4.79386,3.70735 -2.05781,0.83205 -2.30792,0.82105 -3.19932,-0.1408 z m 27.76432,-1.80227 c 0,-0.5507 1.93891,-2.46558 3.675,-3.62945 0.61875,-0.41481 1.125,-0.87325 1.125,-1.01874 0,-0.41345 1.896,-1.46314 2.399,-1.32817 0.24805,0.0666 1.49725,0.3443 2.776,0.61719 1.86403,0.3978 2.325,0.60416 2.325,1.04082 0,0.48125 -0.34352,0.55844 -2.95139,0.66319 -2.28064,0.0916 -3.14995,0.25085 -3.82501,0.70068 -0.48048,0.32018 -1.02848,0.54981 -1.21778,0.51028 -0.1893,-0.0395 -1.08572,0.60587 -1.99206,1.43421 -1.72873,1.57996 -2.31376,1.83533 -2.31376,1.00999 z m 2.1,-5.45891 c 0,-2.142 6.1464,-7.81862 7.25995,-6.70506 0.27181,0.27181 0.045,0.65218 -0.97804,1.64049 -0.73255,0.70765 -1.693,1.7553 -2.13432,2.3281 -1.50122,1.94844 -3.17694,3.59146 -3.66293,3.59146 -0.33284,0 -0.48466,-0.26782 -0.48466,-0.85499 z m -18.6,-19.82548 c 0,-0.31926 0.15909,-0.96051 0.35352,-1.425 0.19444,-0.46449 0.43069,-2.26203 0.525,-3.99453 0.13739,-2.52379 0.26094,-3.15 0.62148,-3.15 0.76122,0 1.04143,3.63337 0.45635,5.91716 -0.49941,1.9494 -1.15973,3.23284 -1.66326,3.23284 -0.1612,0 -0.29309,-0.26121 -0.29309,-0.58047 z m -25.97749,-0.43299 c -0.24535,-0.63937 -0.0393,-1.46459 0.40249,-1.61168 0.24486,-0.0815 0.375,0.19001 0.375,0.78243 0,1.00112 -0.50489,1.53962 -0.77749,0.82925 z m 14.53336,-1.81358 c -0.39939,-0.87659 -0.11278,-2.66927 0.50932,-3.18557 0.67607,-0.56109 0.86952,-0.1234 0.50193,1.13568 -0.18095,0.61981 -0.25434,1.49818 -0.16309,1.95193 0.20888,1.03863 -0.38814,1.10758 -0.84816,0.098 z m 4.05934,-1.80544 c -0.22211,-0.57882 -0.037,-1.38505 0.33479,-1.45837 0.165,-0.0325 0.3423,0.3796 0.39401,0.91585 0.0951,0.98588 -0.41342,1.36439 -0.7288,0.54252 z m -21.29097,-0.82139 c -0.76237,-0.38353 -1.44112,-1.02862 -1.7954,-1.70639 -0.96023,-1.83697 -4.30278,-5.38634 -5.2732,-5.59948 -0.90893,-0.19964 -2.6834,-1.16672 -4.425,-2.41162 -0.56065,-0.40075 -1.40183,-0.72864 -1.86929,-0.72864 -1.12651,0 -1.38408,-1.01185 -0.73928,-2.90422 0.75569,-2.21784 0.31849,-2.45697 -3.87207,-2.11786 -0.825,0.0668 -2.715,0.21948 -4.2,0.33939 -4.099353,0.331 -8.105723,1.29628 -10.834223,2.61035 -1.33882,0.64478 -2.57242,1.17234 -2.74134,1.17234 -0.432,0 -3.32826,1.99256 -4.52503,3.11312 -0.55033,0.51528 -1.19505,1.30813 -1.43271,1.76188 -0.77842,1.48619 -1.54785,0.67762 -0.95997,-1.00879 0.26713,-0.76628 0.22747,-1.23978 -0.20449,-2.44099 -1.12136,-3.11843 0.19497,-11.66806 2.63858,-17.13763 1.09356,-2.44773 3.24076,-6.12118 4.55918,-7.79989 2.2491,-2.86369 6.12334,-6.59596 8.17292,-7.87341 3.39194,-2.1141 4.815463,-2.51195 7.877083,-2.20148 3.51009,0.35593 5.05171,1.12169 6.25489,3.10692 1.10307,1.82006 1.14077,2.20429 0.37234,3.79476 -0.62636,1.2964 -0.60395,1.36341 0.27278,0.81588 0.48059,-0.30013 0.94512,-0.26888 2.47093,0.16624 2.75314,0.78512 4.79557,1.09348 8.32906,1.25748 1.7325,0.0804 3.69,0.21339 4.35,0.29551 2.1219,0.26399 2.23682,-0.13857 0.69982,-2.45154 -1.54777,-2.32919 -2.94982,-4.7054 -2.94982,-4.99942 0,-0.7258 0.86364,0.289 3.15,3.70136 l 2.6131,3.9 1.31845,0 c 1.21338,0 1.31845,-0.061 1.31845,-0.76531 0,-0.96245 1.56251,-1.69238 3.74007,-1.74719 1.18521,-0.0298 1.51153,0.0677 1.59494,0.47678 0.0725,0.35553 -0.15596,0.57969 -0.74008,0.72615 -1.16581,0.29234 -3.99493,1.60824 -3.99493,1.85816 0,0.36969 -2.20675,0.99578 -4.65,1.31928 -2.78435,0.36865 -10.02739,-0.11661 -12.3755,-0.82912 -0.78347,-0.23774 -2.01159,-0.43372 -2.72913,-0.4355 -1.06294,-0.003 -1.46173,-0.17141 -2.15255,-0.91094 -0.58404,-0.62522 -0.9165,-0.79669 -1.06834,-0.55102 -0.12123,0.19616 -0.27267,2.81753 -0.33652,5.82527 -0.0897,4.22745 -0.01,5.92767 0.35298,7.49125 0.93565,4.03441 1.20013,4.29485 6.0917,5.9985 1.68388,0.58647 2.99154,1.23025 3.25083,1.60044 0.55515,0.79258 2.19112,1.09883 3.7526,0.70248 1.05069,-0.26669 1.5298,-0.19947 3.41768,0.47953 2.34556,0.8436 2.15821,0.85923 4.64625,-0.38774 0.4125,-0.20674 1.39125,-0.46857 2.175,-0.58184 1.36081,-0.19667 1.425,-0.17356 1.425,0.51285 0,1.65537 -5.00549,4.25472 -5.47461,2.84297 -0.0887,-0.26695 -1.84641,-0.47636 -6.1,-0.72677 -3.60185,-0.21204 -6.45205,-0.52474 -7.17539,-0.78722 -0.66,-0.2395 -1.74,-0.52392 -2.4,-0.63205 l -1.2,-0.19659 1.05,0.90074 c 0.5775,0.49541 1.17103,0.90438 1.31895,0.90882 0.66091,0.0198 3.51202,2.23765 5.43105,4.2247 2.70319,2.799 4.87426,4.42901 6.58486,4.94382 1.23573,0.37191 1.48448,0.35604 2.63972,-0.16834 0.70148,-0.31841 1.48628,-0.5819 1.744,-0.58552 0.7617,-0.0107 1.82332,-1.68518 1.60923,-2.5382 -0.13778,-0.54898 0.0108,-0.93431 0.57982,-1.50329 0.88399,-0.88399 1.37933,-0.94239 2.60727,-0.3074 0.93899,0.48558 1.17764,1.0423 0.44679,1.0423 -0.74232,0 -1.64528,1.24175 -2.17105,2.98563 -0.61866,2.05197 -1.59091,3.17765 -3.54064,4.09938 -1.98327,0.93759 -5.12835,0.96535 -6.92576,0.0611 z m -0.12424,-1.27842 c 0,-0.0728 -0.135,-0.21573 -0.3,-0.31771 -0.165,-0.10198 -0.3,-0.0424 -0.3,0.13229 0,0.17474 0.135,0.31771 0.3,0.31771 0.165,0 0.3,-0.0595 0.3,-0.13229 z M 87.988287,256.46557 c 0.88396,-0.38702 2.07969,-0.96463 2.65719,-1.28357 2.16513,-1.19577 3.25785,-1.55255 7.35,-2.39982 4.094333,-0.84772 4.292693,-0.86071 7.883883,-0.51651 2.02613,0.1942 3.7551,0.28187 3.84216,0.19481 0.0871,-0.0871 -0.11943,-1.59742 -0.45887,-3.35635 -0.89637,-4.64485 -0.89119,-12.91271 0.01,-15.32027 0.34471,-0.92134 0.55426,-1.86408 0.46565,-2.09498 -0.0886,-0.2309 -0.86943,-0.63017 -1.73517,-0.88727 -1.28682,-0.38214 -2.0206,-0.41196 -4.02089,-0.16339 -2.73191,0.33947 -5.159763,0.99144 -6.736363,1.80893 -3.24649,1.68338 -9.78556,8.67678 -11.19195,11.96956 -0.18084,0.42339 -0.55109,1.10731 -0.82279,1.51981 -0.53537,0.81282 -0.55823,0.88239 -1.67573,5.1 -1.05003,3.96293 -1.49967,6.78333 -1.36865,8.58489 l 0.11162,1.53489 2.04156,-1.99353 c 1.25601,-1.22647 2.65997,-2.26429 3.64875,-2.6972 z m 68.519273,11.29595 c -0.23928,-3.51053 -0.2394,-3.50371 0.0629,-3.58695 0.2979,-0.082 0.94329,3.43507 0.961,5.23695 0.01,1.01863 -0.10411,1.425 -0.40016,1.425 -0.31165,0 -0.46605,-0.76113 -0.62376,-3.075 z m 2.05683,0.3 c 0.47403,-2.47154 0.51761,-7.8942 0.0765,-9.5246 -0.24544,-0.90727 -0.3782,-1.71727 -0.29503,-1.79999 0.35203,-0.35012 1.28756,1.34628 1.61803,2.93396 0.59923,2.87889 -0.20006,9.36563 -1.15402,9.36563 -0.32634,0 -0.38662,-0.23937 -0.24552,-0.975 z m -25.63319,-5.4922 c -0.30688,-0.36977 -0.24742,-0.58489 0.33216,-1.20183 0.56685,-0.60339 0.88585,-0.71365 1.61904,-0.5596 1.74537,0.36671 1.59677,0.88556 -0.50517,1.76381 -0.95207,0.3978 -1.11413,0.39753 -1.44603,-0.002 z m 28.29796,-2.3078 c 0.0594,-1.9468 -0.0517,-2.43616 -1.05851,-4.66415 -0.61866,-1.36903 -1.59741,-3.2279 -2.175,-4.13082 -0.57759,-0.90293 -1.05017,-1.84156 -1.05017,-2.08586 0,-1.37093 1.85154,0.56086 3.66326,3.82204 0.70771,1.27391 1.38799,2.32016 1.51174,2.325 0.37772,0.0148 0.25098,-2.19481 -0.2161,-3.76766 -0.86131,-2.90035 -4.66878,-8.22355 -5.88197,-8.22355 -0.33321,0 -0.73407,-0.31666 -0.92143,-0.72788 -0.43734,-0.95985 -0.0986,-2.27212 0.58649,-2.27212 1.04947,0 6.07382,6.08309 7.24785,8.77512 1.3097,3.00311 1.4095,7.42488 0.16759,7.42488 -0.3696,0 -0.45743,0.43582 -0.45743,2.26972 0,2.37155 -0.32465,3.43028 -1.05187,3.43028 -0.34085,0 -0.41693,-0.45404 -0.36445,-2.175 z m -27.24085,-5.34761 c -0.27247,-0.85847 -0.0709,-0.96866 1.33696,-0.7308 1.40856,0.23797 1.53388,0.51418 0.4561,1.00525 -1.10351,0.5028 -1.56899,0.43155 -1.79306,-0.27445 z m 9.07886,-2.09713 c -0.62057,-0.10279 -1.17859,-0.24164 -1.24003,-0.30857 -0.44755,-0.48751 -2.27953,-4.66577 -2.27103,-5.1796 0.0187,-1.12923 1.30566,-2.91147 2.92877,-4.05587 0.79511,-0.5606 1.20751,-0.65715 2.1,-0.49164 2.68452,0.49782 3.83333,2.50522 3.47451,6.07125 -0.17904,1.77927 -0.32838,2.15176 -1.19184,2.97256 -1.07614,1.02298 -2.06086,1.27998 -3.80038,0.99187 z m 2.64195,-3.71662 c 0.43815,-0.43815 0.73636,-1.08346 0.73636,-1.59343 0,-0.89271 -0.95714,-2.18757 -1.58669,-2.14653 -0.27198,0.0177 -0.26905,0.0617 0.0117,0.175 0.50518,0.20385 0.45764,2.16956 -0.075,3.10132 -0.80614,1.41019 -0.29321,1.67048 0.91364,0.46364 z m -1.62262,-3.99997 c -0.21644,-0.0721 -0.53615,0.0115 -0.71048,0.1858 -0.22262,0.22262 -0.1055,0.26166 0.39351,0.13117 0.40566,-0.10609 0.54165,-0.24207 0.31697,-0.31697 z m -10.95193,5.56133 c -0.27078,-1.0104 -0.23649,-1.1251 0.33591,-1.12388 0.75732,10e-4 2.53787,1.15446 2.32215,1.5035 -0.10041,0.16246 -0.69885,0.29538 -1.32987,0.29538 -0.93619,0 -1.18059,-0.1242 -1.32819,-0.675 z m -0.56388,-2.85391 c -0.63419,-0.13898 -1.03112,-1.48518 -0.57299,-1.94331 0.23772,-0.23772 0.78619,-0.21843 1.98803,0.0699 0.91287,0.21899 1.65975,0.48471 1.65975,0.59047 0,0.34363 -2.53483,1.40129 -3.07479,1.28296 z m -11.20313,-1.32508 c -0.36522,-0.70626 -0.38448,-0.97984 -0.0936,-1.33027 0.71902,-0.86638 -1.53427,-1.78789 -3.00985,-1.23093 -0.7087,0.26751 -0.99416,0.25869 -1.2894,-0.0398 -0.30634,-0.30974 -0.16391,-0.58141 0.7414,-1.41419 0.88834,-0.81716 1.37024,-1.03081 2.32501,-1.03081 0.66242,0 1.20467,0.10125 1.205,0.225 3e-4,0.12375 0.48306,0.25947 1.07273,0.30161 1.28885,0.0921 2.22667,0.55035 2.22667,1.08804 0,0.21645 0.27,0.70486 0.6,1.08535 0.71472,0.82408 0.73616,1.01353 0.16801,1.48505 -0.23759,0.19719 -0.47384,0.65247 -0.525,1.01174 -0.0797,0.55963 -0.29846,0.65931 -1.52708,0.69577 -1.30498,0.0387 -1.47546,-0.0375 -1.89385,-0.84655 z m 9.83792,-2.40601 c -0.50761,-0.50761 -0.44728,-1.42534 0.1077,-1.63831 0.60651,-0.23274 2.90473,0.25869 3.03191,0.64831 0.0539,0.165 -0.47669,0.53625 -1.17899,0.825 -1.51764,0.62397 -1.50289,0.62273 -1.96062,0.165 z m 29.16554,-1.17333 c -1.05511,-1.43734 -4.22023,-3.7993 -5.99586,-4.4744 -0.88988,-0.33833 -1.75225,-1.64015 -1.50804,-2.27653 0.78447,-2.04429 9.17836,4.8189 9.17836,7.5046 0,0.97741 -0.60295,0.70603 -1.67446,-0.75367 z m -30.15271,-1.57697 c -0.89128,-0.44825 -1.03746,-0.98152 -0.36606,-1.33542 0.56289,-0.2967 3.99323,0.166 3.99323,0.53862 0,0.10592 -0.66414,0.40496 -1.47586,0.66454 -1.14594,0.36645 -1.62685,0.39602 -2.15131,0.13226 z m 19.9977,-5.05143 c -1.13931,-1.62659 -0.0851,-4.59044 1.99016,-5.59504 1.44187,-0.69799 2.20295,-0.80657 2.48255,-0.35417 0.19789,0.32019 -0.8659,1.51094 -1.34984,1.51094 -0.55659,0 -2.0934,2.78308 -2.0934,3.79103 0,1.23961 -0.42667,1.50786 -1.02947,0.64724 z m -6.17554,-3.05299 c -1.1319,-2.29922 -1.51642,-4.38528 -0.80832,-4.38528 0.28319,0 0.54622,0.38205 0.67124,0.975 0.11307,0.53625 0.59629,1.66643 1.07383,2.51152 0.47755,0.84508 0.86826,1.82383 0.86826,2.175 0,1.23593 -0.8717,0.61959 -1.80501,-1.27624 z m -6.17124,0.0674 c -0.64556,-0.67237 -1.6125,-1.41109 -2.14875,-1.6416 -0.72623,-0.31218 -0.975,-0.60945 -0.975,-1.16509 0,-0.86041 0.52585,-0.95759 1.7399,-0.32157 1.78627,0.93581 3.64513,3.67863 2.83316,4.18045 -0.15155,0.0937 -0.80374,-0.37982 -1.44931,-1.05219 z m 4.20374,1.01775 c -0.92222,-0.63024 -4.32749,-6.46146 -4.32749,-7.41044 0,-0.90869 0.52626,-0.42086 2.12505,1.96989 2.43513,3.64135 2.61607,3.9504 2.83663,4.84514 0.20166,0.81807 -0.0132,1.01979 -0.63419,0.59541 z m -12.53302,-2.43308 c -0.66841,-3.11051 -0.83354,-4.74258 -0.61842,-6.11233 0.26355,-1.67807 0.58192,-1.35914 0.59894,0.6 0.0122,1.3984 0.19303,2.009 0.95534,3.225 0.51719,0.825 1.02082,1.905 1.11918,2.4 0.1737,0.87418 0.1613,0.86828 -0.43253,-0.20556 -1.01076,-1.8278 -1.26106,-1.7116 -1.0364,0.48115 0.11125,1.08592 0.13913,1.97441 0.0619,1.97441 -0.0772,0 -0.36881,-1.0632 -0.64805,-2.36267 z m 17.20682,1.31606 c -0.20703,-0.54452 -0.12621,-1.25505 0.29857,-2.625 0.66962,-2.15955 1.33247,-3.22839 2.00213,-3.22839 0.33607,0 0.41965,0.19023 0.29656,0.675 -0.0943,0.37125 -0.37943,1.485 -0.6337,2.475 -0.25426,0.99 -0.53295,2.17125 -0.61929,2.625 -0.19638,1.03198 -0.96468,1.07679 -1.34427,0.0784 z"
       id="path4248"
       inkscape:connector-curvature="0" />
  </g>
</svg>
