<?xml version="1.0" encoding="UTF-8" standalone="no"?>
<!-- Created with Inkscape (http://www.inkscape.org/) -->

<svg
   width="26.197128mm"
   height="29.941095mm"
   viewBox="0 0 26.197127 29.941095"
   version="1.1"
   id="svg2269"
   inkscape:version="1.1.2 (0a00cf5339, 2022-02-04)"
   sodipodi:docname="item386.svg"
   xmlns:inkscape="http://www.inkscape.org/namespaces/inkscape"
   xmlns:sodipodi="http://sodipodi.sourceforge.net/DTD/sodipodi-0.dtd"
   xmlns="http://www.w3.org/2000/svg"
   xmlns:svg="http://www.w3.org/2000/svg">
  <sodipodi:namedview
     id="namedview2271"
     pagecolor="#ffffff"
     bordercolor="#666666"
     borderopacity="1.0"
     inkscape:pageshadow="2"
     inkscape:pageopacity="0.0"
     inkscape:pagecheckerboard="0"
     inkscape:document-units="mm"
     showgrid="false"
     fit-margin-top="0"
     fit-margin-left="0"
     fit-margin-right="0"
     fit-margin-bottom="0"
     inkscape:zoom="0.48996914"
     inkscape:cx="50.00315"
     inkscape:cy="57.146457"
     inkscape:window-width="1366"
     inkscape:window-height="719"
     inkscape:window-x="0"
     inkscape:window-y="25"
     inkscape:window-maximized="1"
     inkscape:current-layer="layer1" />
  <defs
     id="defs2266" />
  <g
     inkscape:label="Capa 1"
     inkscape:groupmode="layer"
     id="layer1"
     transform="translate(-87.994447,-134.07257)">
    <g
       id="g7356"
       transform="matrix(0.04642234,0,0,0.04642234,84.159601,-8.8424203)">
      <path
         inkscape:connector-curvature="0"
         id="path5091"
         d="m 240.57812,3081.4319 -154.861323,194.1914 89.269533,353.375 189.7832,91.3926 189.78125,-91.3926 89.26953,-353.375 -154.86133,-194.1914 z m 39.26758,101.0156 h 169.84571 l 105.89648,132.791 -61.04297,241.6407 -129.77539,62.498 -129.77734,-62.498 -61.04297,-241.6407 z"
         style="opacity:1;fill:#ffcc00;fill-opacity:1;stroke:none;stroke-width:4;stroke-miterlimit:4;stroke-dasharray:none;stroke-opacity:1" />
      <path
         inkscape:connector-curvature="0"
         style="opacity:1;fill:#ffcc00;fill-opacity:1;stroke:none;stroke-width:4;stroke-miterlimit:4;stroke-dasharray:none;stroke-opacity:1"
         d="m 240.57812,3081.4319 39.26758,101.0156 h 169.84571 l 39.26757,-101.0156 z"
         id="path5089" />
      <path
         inkscape:connector-curvature="0"
         style="opacity:1;fill:#ffdd55;fill-opacity:1;stroke:none;stroke-width:4;stroke-miterlimit:4;stroke-dasharray:none;stroke-opacity:1"
         d="m 555.58789,3315.2385 88.23242,-39.6152 -154.86133,-194.1914 -39.26757,101.0156 z"
         id="path5093" />
      <path
         inkscape:connector-curvature="0"
         style="opacity:1;fill:#ffcc00;fill-opacity:1;stroke:none;stroke-width:4;stroke-miterlimit:4;stroke-dasharray:none;stroke-opacity:1"
         d="m 494.54492,3556.8792 60.00586,72.1191 89.26953,-353.375 -88.23242,39.6152 z"
         id="path5095" />
      <path
         inkscape:connector-curvature="0"
         style="opacity:1;fill:#d4aa00;fill-opacity:1;stroke:none;stroke-width:4;stroke-miterlimit:4;stroke-dasharray:none;stroke-opacity:1"
         d="m 364.76953,3619.3772 v 101.0137 l 189.78125,-91.3926 -60.00586,-72.1191 z"
         id="path5097" />
      <path
         inkscape:connector-curvature="0"
         style="opacity:1;fill:#aa8800;fill-opacity:1;stroke:none;stroke-width:4;stroke-miterlimit:4;stroke-dasharray:none;stroke-opacity:1"
         d="m 234.99219,3556.8792 -60.00586,72.1191 189.7832,91.3926 v -101.0137 l -129.77734,-62.4981 z"
         id="path5099" />
      <path
         inkscape:connector-curvature="0"
         style="opacity:1;fill:#d4aa00;fill-opacity:1;stroke:none;stroke-width:4;stroke-miterlimit:4;stroke-dasharray:none;stroke-opacity:1"
         d="m 173.94922,3315.2385 -88.232423,-39.6152 89.269533,353.375 60.00586,-72.1192 z"
         id="path5101" />
      <path
         inkscape:connector-curvature="0"
         style="opacity:1;fill:#ffdd55;fill-opacity:1;stroke:none;stroke-width:4;stroke-miterlimit:4;stroke-dasharray:none;stroke-opacity:1"
         d="m 240.57812,3081.4319 -154.861323,194.1914 88.232423,39.6152 105.89648,-132.791 z"
         id="path5103" />
      <path
         sodipodi:nodetypes="cccccccc"
         inkscape:connector-curvature="0"
         id="path5105"
         d="m 364.76883,3619.3766 -129.77556,-62.4967 -61.04376,-241.6421 105.89672,-132.7903 h 169.84518 l 105.89674,132.7903 -61.04376,241.6421 z"
         style="opacity:1;fill:#ffe680;fill-opacity:1;stroke:none;stroke-width:4;stroke-miterlimit:4;stroke-dasharray:none;stroke-opacity:1" />
      <path
         inkscape:connector-curvature="0"
         style="opacity:1;fill:#fff6d5;fill-opacity:1;stroke:none;stroke-width:4;stroke-miterlimit:4;stroke-dasharray:none;stroke-opacity:1"
         d="m 463.27148,3199.4768 a 295,280.71429 0 0 1 5.30079,51.9805 295,280.71429 0 0 1 -241.0586,275.8183 l 7.47852,29.6055 129.77734,62.4961 129.77539,-62.4961 61.04297,-241.6426 z"
         id="path5107" />
      <path
         inkscape:connector-curvature="0"
         style="opacity:1;fill:none;fill-opacity:1;stroke:#2b2200;stroke-width:5.69948;stroke-miterlimit:4;stroke-dasharray:none;stroke-opacity:1"
         d="m 240.57812,3081.4319 -154.861323,194.1914 89.269533,353.375 189.7832,91.3926 189.78125,-91.3926 89.26953,-353.375 -154.86133,-194.1914 z m 39.26758,101.0156 h 169.84571 l 105.89648,132.791 -61.04297,241.6407 -129.77539,62.498 -129.77734,-62.498 -61.04297,-241.6407 z"
         id="path5109" />
      <ellipse
         style="opacity:1;fill:#fff6d5;fill-opacity:1;stroke:none;stroke-width:4;stroke-miterlimit:4;stroke-dasharray:none;stroke-opacity:1"
         id="ellipse5111"
         cx="330.00003"
         cy="3478.6003"
         rx="35.714287"
         ry="26.428572" />
      <ellipse
         ry="25"
         rx="22.142859"
         cy="3348.6003"
         cx="439.28577"
         id="ellipse5113"
         style="opacity:1;fill:#fff6d5;fill-opacity:1;stroke:none;stroke-width:4;stroke-miterlimit:4;stroke-dasharray:none;stroke-opacity:1" />
      <ellipse
         style="opacity:1;fill:#fff6d5;fill-opacity:1;stroke:none;stroke-width:4;stroke-miterlimit:4;stroke-dasharray:none;stroke-opacity:1"
         id="ellipse5115"
         cx="292.14291"
         cy="3290.0291"
         rx="39.285717"
         ry="39.285713" />
      <path
         style="opacity:0.5;fill:#fff6d5;fill-opacity:1;stroke:none;stroke-width:4;stroke-miterlimit:4;stroke-dasharray:none;stroke-opacity:1"
         d="m 250.019,3105.717 -143.08949,179.43 82.48367,326.5121 175.35638,84.4466 175.35437,-84.4466 82.48367,-326.5121 -143.08949,-179.43 z m 15.51989,40.6647 h 198.45933 l 123.73864,155.1625 -71.32843,282.3521 -151.63887,73.0246 -151.64089,-73.0246 -71.32842,-282.3521 z"
         id="path5117"
         inkscape:connector-curvature="0" />
    </g>
  </g>
</svg>
