<?xml version="1.0" encoding="UTF-8"?>
<!DOCTYPE svg PUBLIC "-//W3C//DTD SVG 1.1//EN" "http://www.w3.org/Graphics/SVG/1.1/DTD/svg11.dtd">
<svg version="1.1" xmlns="http://www.w3.org/2000/svg" xmlns:xlink="http://www.w3.org/1999/xlink" x="0" y="0" width="1076.365" height="1315.04" viewBox="0, 0, 1076.365, 1315.04">
  <g id="Layer_1">
    <path d="M311.704,840.5 L45.908,903.58 L105.22,937.36 L126.984,972.64 L126.984,1018.452 L117.984,1046.236 L173.548,1043.22 L120.892,1092.984 L180.296,1094.28 L235.124,1122.064 L267.408,1170.876 L278.86,1207.328 L292.936,1188.908 L408.564,1009.436 L422.828,1022.204 L368.764,1189.656 L402.548,1170.876 L455.876,1148.344 L506.936,1146.86 L559.5,1163.36 L609.048,1212.172 L594.032,1032.72 L680.392,1234.704 L690.892,1194.908 L719.42,1159.608 L752.468,1142.344 L818.532,1136.344 L877.108,1152.86 L750.204,986.92 L960.452,1127.312 L940.172,1084.516 L931.908,1031.968 L943.172,994.42 L969.452,968.892 L1007.016,941.108 L1023.516,933.608 L750.204,842.752 z M311.704,840.5" fill="#BC8466"/>
    <path d="M893.736,1187.624 C903.408,1227.108 864.608,1269.72 807.048,1282.796 C749.484,1295.86 694.968,1274.452 685.28,1234.952 C675.592,1195.468 714.408,1152.86 771.968,1139.796 C829.532,1126.72 884.048,1148.14 893.736,1187.624 z M893.736,1187.624" fill="#FCE1BD"/>
    <path d="M1041.36,941.484 C1070.188,959.78 1075.876,1016.952 1054.08,1069.204 C1032.264,1121.452 991.22,1148.968 962.392,1130.688 C933.564,1112.408 927.876,1055.22 949.672,1002.952 C971.484,950.72 1012.532,923.188 1041.36,941.484" fill="#FCE1BD"/>
    <path d="M25.936,907.936 C1.736,926.764 1.28,977.548 24.92,1021.344 C48.564,1065.156 87.36,1085.392 111.564,1066.548 C135.764,1047.704 136.22,996.92 112.58,953.108 C88.936,909.328 50.14,889.092 25.936,907.936 z M25.936,907.936" fill="#FCE1BD"/>
    <path d="M90.516,1112.08 C75.172,1143.264 102.656,1193.936 151.92,1225.264 C201.204,1256.592 253.58,1256.72 268.92,1225.548 C284.28,1194.376 256.764,1143.704 207.516,1112.36 C158.248,1081.048 105.86,1080.908 90.516,1112.08" fill="#FCE1BD"/>
    <path d="M376.248,1215.484 C378.452,1259.08 431.688,1297.42 495.124,1301.108 C558.564,1304.828 608.188,1272.468 605.984,1228.86 C603.78,1185.264 550.548,1146.92 487.108,1143.236 C423.672,1139.548 374.032,1171.892 376.248,1215.484" fill="#FCE1BD"/>
    <path d="M248.344,844.108 L36.828,894.376 C33.204,894.86 25.36,897.204 15.764,913.14 C1.264,937.28 -7.968,977.484 9.608,1018 C34.656,1075.812 89.86,1076.484 92.188,1076.484 L95.204,1076.484 L140.688,1054.78 L85.016,1110.032 L84.048,1113.36 C83.796,1114.236 59.936,1201.92 157.764,1253.78 C177.264,1264.092 195.548,1269.28 212.436,1269.28 C220.86,1269.28 228.92,1267.984 236.608,1265.408 C263.092,1256.548 275.656,1235.08 278.328,1229.968 L403.984,1039.564 C403.064,1042.092 402.14,1044.64 401.204,1047.204 C349.532,1190.468 356.484,1213.048 359.328,1221.408 C372.936,1265.532 409.984,1299.532 456.032,1310.188 C470.936,1313.64 484.812,1315.048 497.564,1315.048 C540.048,1315.048 570.048,1299.436 582.876,1291.22 C602.624,1278.58 615.78,1262.484 618.984,1247.064 C622.564,1229.86 614.624,1149.312 606,1074.58 C609.608,1084.908 613.328,1095.452 617.108,1106 C674.688,1266.78 687.688,1273.248 696.108,1276.608 C719.236,1286.796 744.548,1291.812 769.436,1291.812 C802.908,1291.812 835.608,1282.752 861.172,1265.108 C892.108,1243.736 908.108,1213.248 906.236,1179.248 L906.032,1175.812 L902.532,1170.236 C887.312,1146.048 877.984,1131.204 788.108,1020.752 C802.312,1031.156 815.892,1041.016 826.844,1048.892 C955.188,1141.22 969,1143.156 974.892,1143.968 L976.564,1144.188 L978.236,1144 C1013.484,1140.064 1045.064,1114.344 1062.752,1075.248 C1084.032,1028.124 1080.156,974.36 1052.592,934.908 C1049.264,930.156 1047.752,927.968 908.624,876.984 C879.764,866.408 851.14,856 827.516,847.468 L827.048,847.936 C823.86,856.264 819.844,864.032 815.188,871.28 C881.328,895.204 957.376,923.08 1000.436,939.608 C994.328,942.156 988.156,945.344 982.156,949.156 C946.172,934.92 867.624,903.908 808.248,881.08 C805.36,884.796 802.264,888.376 799.016,891.796 C848.188,910.704 915.188,936.984 969.36,958.42 C967.564,959.876 965.78,961.376 964.048,962.968 C958.704,967.812 952.188,974.564 946.064,983.156 C905.032,962.968 836.172,929.248 784.86,904.892 C780.984,908.064 776.936,911.064 772.764,913.892 C819.532,936.08 886.5,968.688 938.952,994.484 C935.064,1001.532 931.704,1009.452 929.392,1018.22 L761.936,920.64 C752.64,926.032 742.86,930.64 732.828,934.484 L926.188,1047.156 C926.236,1048.656 926.296,1050.172 926.42,1051.704 C927.752,1068.86 931.968,1082.5 937.344,1093.296 C917.048,1080 887.14,1059.468 843.032,1027.736 C787.656,987.92 738.236,950.78 722.344,938.204 C715.876,940.312 709.344,942.108 702.78,943.608 C699.656,944.78 696.516,945.908 693.376,947 C782.064,1054.936 824.484,1107.656 847.516,1137.844 C831.264,1132.936 812.86,1130.248 794.64,1130.032 L795.08,1129.752 C785.312,1114.22 719.28,1009.28 681.92,950.828 C673.108,953.64 664.204,956.172 655.204,958.452 C681.532,999.564 728.516,1073.952 765.124,1132.124 C752.764,1134.392 740.656,1138.876 729.608,1145.172 L640.764,961.892 C638.516,962.376 636.28,962.828 634.048,963.296 L723.908,1148.688 C716.968,1153.188 710.548,1158.408 704.828,1164.236 L617.108,966.392 C612.564,967.14 608.016,967.796 603.452,968.408 L695.248,1175.452 C695.204,1175.484 695.172,1175.548 695.14,1175.58 C689.22,1183.672 684.752,1192.22 681.78,1201.108 C659.108,1146.532 627.172,1057.156 598.156,969.064 C587.656,970.328 577.108,971.22 566.548,971.72 C575.108,1038.188 585.124,1122.812 590.188,1179.892 C579.248,1168.42 564.78,1158.844 547.312,1151.592 C548.048,1100.08 549.236,1020.296 550.016,972.188 C545.592,972.22 541.156,972.172 536.72,972.064 C535.828,1026.28 534.516,1117.656 534.08,1146.764 C525.688,1144.064 516.752,1141.844 507.264,1140.156 C506.28,1139.984 505.28,1139.86 504.28,1139.72 C507.108,1111.048 515.532,1025.408 520.752,971.408 C518.532,971.264 516.312,971.124 514.108,970.952 C508.892,1024.892 500.484,1110.408 497.672,1138.908 C482,1137.436 465.264,1138.908 449.048,1142.86 L486.392,967.86 C479.796,966.892 473.248,965.752 466.72,964.436 L427.156,1149.908 C413.548,1155.392 400.952,1162.608 390.548,1171.376 C390.236,1171.64 389.936,1171.908 389.656,1172.172 C395.092,1149.328 405.468,1114.14 424.876,1060.064 C437.764,1024.08 451.296,989.156 461.564,963.376 C450.312,960.968 439.156,958.048 428.14,954.608 L273.592,1188.828 C272.108,1175.984 268.392,1162.264 262.064,1149.468 L424.968,953.64 C421.58,952.548 418.204,951.436 414.844,950.248 C409.236,948.392 403.64,946.42 398.048,944.392 L246.592,1126.468 C243.172,1122.688 239.452,1119.156 235.36,1115.968 C233.108,1114.236 230.876,1112.624 228.64,1111.048 L375.876,935.688 C371.624,933.908 367.392,932.032 363.188,930.092 L217.392,1103.72 C203.408,1095.42 189.376,1089.984 175.608,1087.468 C200.42,1068.108 217.844,1053.516 227.408,1044.108 C237.312,1034.328 311.188,952.984 341.688,919.344 C339.688,918.264 337.672,917.204 335.672,916.08 C304.64,950.312 232.28,1029.952 222.736,1039.36 C215.78,1046.204 200.328,1059.876 166.392,1086.204 C159.688,1085.592 153.08,1085.656 146.564,1086.452 L324.78,909.608 C317.092,904.844 309.608,899.752 302.42,894.296 L288.236,908.376 L125.796,954.86 C121.204,946.86 115.08,939.328 108.14,932.64 C114,931.236 122.64,929.08 135.548,925.86 C158.108,920.236 188.108,912.688 218.092,905.124 C244.764,898.42 271.064,891.764 292.436,886.36 C290.36,884.64 288.28,882.876 286.264,881.08 C214.236,899.264 125.248,921.704 102.14,927.264 C94.64,920.968 86.484,915.704 78.376,911.86 L270.936,866.092 C264.672,859.408 258.752,852.312 253.28,844.78 z M51.452,918.248 C74.624,917.484 115.296,948.828 120.64,978.108 C123.516,993.672 121.844,1011.08 116.78,1025.032 L115.968,1025.264 L106.672,1041.516 L89.548,1049.688 C80.344,1048.78 49.468,1043.064 34.016,1007.42 C15.564,964.844 36.376,926.952 43.436,920.156 z M268.64,927.828 L239.564,956.688 C198.58,967.468 153.548,979.236 134.86,983.968 C134.58,981.188 134.248,978.42 133.736,975.704 C133.204,972.812 132.408,969.936 131.42,967.092 z M67.764,934.876 C65.58,934.844 63.376,935.08 61.204,935.624 C55.452,937.14 50.376,940.86 46.736,945.5 C43.064,950.172 40.58,955.64 39.172,961.296 C36.36,972.672 37.296,984.58 40.436,995.656 C43.876,1006.64 49.58,1017.108 58.156,1025.092 C62.436,1029.064 67.5,1032.296 73.124,1034.204 C78.72,1036.092 84.984,1036.42 90.64,1034.564 C96.264,1032.624 100.952,1028.672 104.14,1023.952 C107.392,1019.248 109.28,1013.828 110.392,1008.376 C111.516,1002.892 111.688,997.28 111.296,991.764 C110.92,986.236 109.876,980.764 108.312,975.468 C111.312,986.08 112.204,997.468 109.516,1008.172 C108.188,1013.484 105.844,1018.564 102.516,1022.764 C99.172,1026.952 94.72,1030.14 89.72,1031.468 C84.688,1032.704 79.42,1032.032 74.672,1030.048 C69.908,1028.08 65.688,1024.844 62.048,1021.092 C58.36,1017.376 55.312,1013.016 52.764,1008.408 C50.188,1003.796 48.172,998.876 46.64,993.812 C43.688,983.672 42.64,972.844 44.64,962.532 C45.656,957.42 47.408,952.408 50.328,948.156 C53.204,943.892 57.264,940.452 62.14,938.736 C67.032,937.124 72.516,937.328 77.592,939.032 C82.672,940.72 87.408,943.704 91.436,947.408 C99.532,954.908 105.016,964.936 108.312,975.468 C106.736,970.156 104.608,965.016 101.892,960.172 C99.204,955.328 96,950.736 92.064,946.752 C88.156,942.796 83.624,939.28 78.312,937.108 C75.032,935.736 71.42,934.936 67.764,934.876 z M1020.312,947.392 C1025.828,949.608 1029.952,951.344 1032.376,952.5 C1057.108,990.016 1051.876,1034.64 1038.484,1064.296 C1025.14,1093.796 1002.548,1113.392 977.688,1117.236 C976.952,1116.952 975.936,1116.516 974.564,1115.844 C966.016,1110.764 943,1093.328 939.688,1050.672 C936.688,1011.984 959.264,985.28 973,972.812 C988.764,958.484 1006.312,950.22 1020.312,947.392 z M70.624,952.408 C69.188,952.376 67.764,952.548 66.344,952.892 C62.608,953.892 59.296,956.312 56.92,959.328 C54.532,962.36 52.92,965.92 52.016,969.608 C50.172,977.016 50.796,984.764 52.812,991.968 C55.064,999.108 58.78,1005.936 64.376,1011.14 C67.156,1013.704 70.436,1015.828 74.108,1017.064 C77.752,1018.28 81.828,1018.5 85.5,1017.296 C89.172,1016.032 92.22,1013.452 94.296,1010.392 C96.408,1007.328 97.64,1003.796 98.36,1000.248 C99.752,993.092 99.032,985.72 97.016,978.812 C98.952,985.736 99.532,993.156 97.78,1000.108 C96.92,1003.564 95.408,1006.892 93.236,1009.608 C91.064,1012.344 88.156,1014.408 84.908,1015.28 C81.64,1016.08 78.188,1015.64 75.108,1014.344 C72,1013.08 69.264,1010.968 66.892,1008.532 C62.14,1003.608 58.86,997.344 56.876,990.764 C54.936,984.172 54.264,977.108 55.564,970.42 C56.236,967.08 57.376,963.812 59.264,961.048 C61.14,958.28 63.78,956.048 66.952,954.92 C70.14,953.86 73.72,954.016 77.016,955.108 C80.328,956.22 83.408,958.14 86.016,960.58 C91.296,965.452 94.876,971.968 97.016,978.828 C94.92,971.952 91.5,965.376 86.42,960.156 C83.892,957.564 80.936,955.28 77.484,953.86 C75.344,952.968 73,952.452 70.624,952.408 z M1017.328,964.092 C999.14,963.42 977.204,989.108 963.64,1017.548 C954.484,1036.704 952.764,1056.376 958.936,1071.532 C962.704,1080.812 969,1087.468 976.64,1090.296 C978.844,1091.108 981.124,1091.5 983.468,1091.5 C1000.592,1091.5 1020.892,1070.592 1032.264,1039.752 C1038.296,1023.42 1040.828,1006.844 1039.392,993.092 C1037.86,978.468 1031.968,968.548 1022.844,965.172 C1021.064,964.516 1019.22,964.156 1017.328,964.092 z M230.124,966.032 L196.064,999.844 L195.688,999.064 L177.78,1007.592 L132,1020.688 C134.436,1011.188 135.608,1000.908 135.296,990.72 C138.844,989.828 143.64,988.608 150.236,986.908 C163.908,983.376 182.092,978.624 200.248,973.892 C210.484,971.204 220.72,968.5 230.124,966.032 z M1016.548,971.08 C1017.92,971.08 1019.204,971.296 1020.408,971.736 C1026.828,974.108 1031.188,982.156 1032.408,993.812 C1033.752,1006.532 1031.376,1021.984 1025.704,1037.312 C1014.5,1067.688 993.108,1088.92 979.064,1083.72 C973.376,1081.624 968.392,1076.22 965.42,1068.908 C960,1055.564 961.656,1037.936 969.952,1020.564 C983.86,991.42 1003.392,971.08 1016.548,971.08 z M1007.516,1000.564 C1005.376,1000.42 1003.204,1001.156 1001.392,1002.248 C998.892,1003.704 996.72,1005.656 994.812,1007.828 C990.952,1012.124 988.016,1017.22 985.796,1022.592 C983.656,1027.984 982.092,1033.704 981.908,1039.656 C981.844,1042.64 982.064,1045.688 983.048,1048.656 C983.516,1050.14 984.264,1051.564 985.248,1052.908 C986.28,1054.22 987.688,1055.312 989.312,1055.968 C991,1056.532 992.764,1056.608 994.408,1056.28 C996,1055.908 997.532,1055.312 998.844,1054.468 C1001.516,1052.86 1003.656,1050.688 1005.548,1048.392 C1009.264,1043.736 1011.812,1038.392 1013.688,1032.892 C1015.484,1027.36 1016.564,1021.592 1016.436,1015.796 C1016.392,1012.936 1016.016,1010.032 1015.064,1007.312 C1014.172,1004.608 1012.36,1002.016 1009.624,1000.968 C1012.36,1002.064 1014.092,1004.64 1014.936,1007.36 C1015.844,1010.08 1016.064,1012.968 1016,1015.796 C1015.812,1021.516 1014.296,1027.092 1012.204,1032.344 C1010.048,1037.564 1007.188,1042.516 1003.484,1046.64 C1001.656,1048.704 999.58,1050.548 997.312,1051.844 C995.064,1053.204 992.516,1053.78 990.408,1053.016 C988.312,1052.22 986.752,1050.14 985.92,1047.64 C985.064,1045.188 984.672,1042.436 984.64,1039.688 C984.516,1034.14 985.532,1028.516 987.28,1023.14 C989.108,1017.78 991.58,1012.564 995.14,1008.108 C996.952,1005.908 999,1003.844 1001.436,1002.376 C1003.844,1000.876 1006.86,1000.048 1009.624,1000.968 C1008.936,1000.736 1008.236,1000.592 1007.516,1000.564 z M157.264,1099.376 C179.764,1099.22 203.656,1108.28 227.204,1126.5 C249.672,1143.892 259.876,1173.108 260.936,1197 C259.844,1192.048 258.236,1187.22 256.264,1182.564 C251.796,1171.908 245.72,1162.064 238.532,1153.048 C231.344,1144.048 222.436,1135.92 211.532,1130.892 C200.656,1125.876 187.876,1124.952 176.452,1128 C170.704,1129.452 165.264,1131.72 160.14,1134.42 C154.876,1137.08 149.704,1141.328 147.08,1147.14 C144.376,1152.908 144.42,1159.42 145.908,1165.14 C147.376,1170.908 150,1176.188 153.28,1180.92 C156.58,1185.656 160.452,1189.936 164.86,1193.592 C169.204,1197.172 174.264,1200.436 179.92,1201.14 C177.156,1200.548 174.656,1199.204 172.36,1197.656 C170.048,1196.108 167.908,1194.328 165.92,1192.376 C161.952,1188.5 158.564,1184.08 155.796,1179.328 C153.08,1174.564 150.828,1169.5 149.86,1164.248 C148.844,1159.048 149.188,1153.688 151.468,1149.248 C153.752,1144.812 157.828,1141.592 162.656,1139.408 C167.564,1137.048 172.656,1135.14 177.892,1133.984 C183.092,1132.86 188.42,1132.392 193.64,1132.876 C198.892,1133.344 204,1134.736 208.796,1136.952 C218.516,1141.22 226.72,1148.672 233.796,1156.952 C240.844,1165.36 246.936,1174.688 251.672,1184.592 C255.532,1192.86 258.5,1201.72 259.108,1210.78 L255.156,1216.752 L254.752,1217.64 C254.656,1217.796 246.672,1233.984 228.156,1240.172 C212.22,1245.516 192.736,1242.172 170.248,1230.248 C100.58,1193.328 106.296,1137.532 108.936,1123.78 L127.564,1105.296 C137.064,1101.42 147.016,1099.452 157.264,1099.376 z M163.796,1108.984 C154.408,1108.828 144.624,1111.408 136.764,1117.36 C128.936,1123.28 123.376,1132.248 121.36,1141.984 C119.14,1151.704 120.248,1161.984 123.548,1171.28 C126.892,1180.608 132.844,1188.952 139.624,1195.796 C146.408,1202.624 153.952,1208.796 162.36,1213.704 C170.78,1218.484 180.092,1222.156 189.92,1223.14 C199.72,1224.248 209.952,1222.236 218.328,1217.172 C226.72,1212.108 233.016,1204.468 237.344,1196.14 C231.78,1203.704 224.984,1210.408 216.764,1214.328 C208.64,1218.36 199.408,1219.42 190.58,1218.016 C181.764,1216.564 173.264,1213.064 165.564,1208.296 C157.828,1203.548 150.72,1197.72 144.376,1191.14 C137.876,1184.688 132.672,1177.42 129.452,1169.08 C126.156,1160.828 125.08,1151.72 126.452,1142.968 C127.844,1134.236 132.14,1125.92 138.844,1119.892 C145.5,1113.72 154.5,1110.296 163.796,1108.984 z M792.236,1143.344 C817.516,1143.392 843.736,1148.532 862.204,1157.64 C869.984,1168.468 874.532,1175.72 879.764,1184.032 C879.908,1207.108 868.016,1228.032 846.048,1243.22 C808.952,1268.828 753.392,1272.532 707.484,1252.532 C703.812,1248.86 698.092,1238.22 690.936,1222.36 C692.344,1205.72 699.236,1192.516 705.876,1183.42 C721.704,1161.764 748.188,1146.72 774.984,1144.124 C780.608,1143.58 786.392,1143.328 792.236,1143.344 z M205.936,1151.14 C212.22,1151.312 217.532,1155.532 221.092,1160.296 C224.608,1165.14 226.876,1171.236 226.092,1176.752 C225.656,1179.532 224.624,1182.344 223.376,1184.892 C222.14,1187.452 220.532,1189.812 218.64,1191.624 C214.892,1195.468 209.952,1196.452 204.892,1194.892 C199.796,1193.408 194.764,1190.28 190.092,1186.688 C185.484,1183.42 182.328,1178.688 182,1173.064 C182.016,1170.264 182.592,1167.392 183.86,1164.72 C185.264,1162.188 186.92,1159.592 189.264,1157.656 C193.108,1154.092 198.22,1151.86 203.5,1151.296 C201.248,1151.484 199.016,1151.844 196.892,1152.672 C195.392,1153.064 194.032,1153.828 192.608,1154.436 C191.28,1155.236 189.876,1155.936 188.672,1156.936 C186.108,1158.752 183.984,1161.124 182.14,1163.736 C180.392,1166.452 179.172,1169.548 178.672,1172.892 C178.436,1176.236 178.876,1179.764 180.344,1182.92 C181.032,1184.484 182.032,1185.908 182.968,1187.344 C184.092,1188.564 185.172,1190 186.408,1191.048 C191.092,1195.296 196.392,1199.36 203.14,1201.312 C206.42,1202.36 210.312,1202.452 213.892,1201.5 C214.78,1201.204 215.672,1200.908 216.548,1200.564 L218.908,1199.108 C219.752,1198.688 220.328,1197.984 221.032,1197.42 C221.72,1196.828 222.344,1196.22 222.876,1195.516 C225.188,1192.86 226.64,1189.752 227.704,1186.656 C228.752,1183.516 229.376,1180.328 229.436,1176.984 C229.436,1173.564 228.436,1170.392 227.064,1167.516 C225.72,1164.624 223.876,1162.048 221.812,1159.704 C219.764,1157.36 217.344,1155.36 214.672,1153.796 C212.016,1152.264 209.032,1151.172 205.936,1151.14 z M484.64,1151.64 C491.64,1151.58 498.452,1152.108 504.936,1153.248 C547.436,1160.828 578.188,1179.436 592.22,1204.968 C593.532,1223.72 593.908,1236.908 592.936,1241.64 C591.656,1247.78 584.484,1258.592 568.532,1268.812 C539.704,1287.236 499.908,1293.016 462.032,1284.248 C425.124,1275.72 395.5,1248.58 384.704,1213.392 L384.58,1212.984 C384.156,1211.736 383.408,1207.892 384.72,1197.672 C388.752,1191.204 394.156,1185.72 399.108,1181.564 C420.86,1163.236 454.328,1151.936 484.64,1151.64 z M792.92,1163.124 C790.86,1163.14 788.78,1163.172 786.704,1163.248 C782.564,1163.312 778.36,1163.796 774.156,1164.08 C770,1164.764 765.752,1165.124 761.624,1166.22 C753.328,1168.064 745.064,1170.764 737.376,1174.936 C729.672,1179.048 722.42,1184.452 716.564,1191.564 C713.796,1195.236 711.124,1199.108 709.484,1203.72 C708.5,1205.92 708.016,1208.392 707.468,1210.812 C707.22,1213.328 706.828,1215.86 707.204,1218.484 C707.328,1221.016 708.08,1223.92 709.22,1226.408 C710.344,1228.968 711.952,1231.14 713.672,1233.064 C717.172,1236.908 721.296,1239.452 725.42,1241.5 C733.736,1245.5 742.36,1247.264 750.876,1248.248 C767.952,1249.968 784.828,1248.236 801.08,1244.564 C809.204,1242.72 817.204,1240.328 824.968,1237.468 C832.764,1234.624 840.296,1231.172 847.5,1227.108 C854.656,1223.048 861.532,1218.36 867.28,1212.452 C870.172,1209.532 872.688,1206.22 874.484,1202.516 C876.296,1198.844 877.124,1194.624 876.408,1190.592 C877.092,1194.64 876.22,1198.844 874.376,1202.468 C872.548,1206.14 869.892,1209.312 866.968,1212.156 C861.08,1217.796 854.016,1222.092 846.704,1225.608 C831.984,1232.58 816,1236.484 800.016,1238.436 C784.016,1240.328 767.796,1240.328 752.392,1237.608 C744.752,1236.204 737.204,1234.14 730.844,1230.764 C727.688,1229.092 724.86,1227.08 722.876,1224.796 C721.892,1223.656 721.032,1222.484 720.532,1221.264 C720.016,1220.032 719.672,1218.92 719.656,1217.344 C719.392,1215.908 719.656,1214.328 719.752,1212.78 C720.14,1211.22 720.36,1209.64 721.064,1208.08 C722.124,1204.936 724.016,1201.908 726.08,1198.984 C730.452,1193.264 736.296,1188.36 742.752,1184.312 C744.408,1183.36 746.032,1182.328 747.752,1181.42 L752.936,1178.828 C756.532,1177.36 760.124,1175.78 763.908,1174.688 C767.624,1173.36 771.532,1172.564 775.376,1171.532 C779.312,1170.86 783.172,1169.984 787.22,1169.5 C803.248,1167.344 819.64,1166.624 835.844,1168.468 C843.92,1169.452 851.984,1171.092 859.532,1174.188 C863.296,1175.752 866.936,1177.72 870.064,1180.36 C873.156,1183 875.64,1186.516 876.408,1190.592 C875.672,1186.516 873.236,1182.952 870.14,1180.28 C867.032,1177.592 863.484,1175.452 859.72,1173.78 C852.22,1170.408 844.188,1168.328 836.108,1166.764 C828,1165.236 819.796,1164.204 811.532,1163.688 C805.36,1163.264 799.156,1163.08 792.92,1163.124 z M482.124,1170.952 C468.844,1170.844 455.436,1172.484 442.484,1176.86 C433.908,1179.812 425.452,1183.968 418.124,1190.264 C410.764,1196.344 404.812,1205.892 404.092,1216.656 C403.764,1227.436 408.78,1237.516 415.532,1244.264 C422.236,1251.22 430.236,1256.172 438.5,1259.92 C446.796,1263.624 455.452,1266.204 464.188,1267.844 C472.952,1269.436 481.78,1270.14 490.58,1270.236 C508.124,1270.032 525.736,1267.42 541.812,1260.72 C549.828,1257.392 557.5,1253.108 563.892,1247.264 C570.344,1241.564 574.984,1233.548 575.564,1224.908 C574.92,1233.548 570.204,1241.5 563.608,1246.936 C557.08,1252.516 549.28,1256.392 541.22,1259.124 C533.124,1261.844 524.704,1263.468 516.248,1264.204 C507.78,1264.908 499.28,1264.736 490.876,1264 C474.14,1262.172 457.592,1257.984 443.248,1250.248 C436.092,1246.42 429.452,1241.752 424.408,1236.108 C419.236,1230.532 416.452,1223.78 416.58,1217.264 C417.08,1210.752 420.516,1204.328 426.188,1199.264 C431.764,1194.14 438.812,1190.108 446.28,1187 C461.328,1180.704 478.204,1178.108 495.032,1177.892 C503.452,1177.952 511.92,1178.608 520.296,1180.108 C528.64,1181.656 536.86,1184.08 544.656,1187.548 C552.42,1191.048 559.812,1195.656 565.764,1201.844 C571.812,1207.876 575.764,1216.248 575.564,1224.908 C575.812,1216.264 571.952,1207.844 566.108,1201.532 C560.28,1195.092 553.064,1190.08 545.42,1186 C530.048,1177.796 512.78,1173.484 495.312,1171.608 C490.952,1171.22 486.548,1170.984 482.124,1170.952 z M802.952,1187.08 C799.264,1187.108 795.564,1187.408 791.908,1187.92 C784.592,1189.048 777.312,1190.936 770.516,1194.28 C767.156,1195.968 763.876,1197.984 761.048,1200.764 C759.64,1202.14 758.392,1203.764 757.408,1205.64 C756.5,1207.58 755.952,1209.86 756.328,1212.156 C756.796,1214.452 758.092,1216.408 759.608,1217.892 C761.172,1219.312 762.92,1220.408 764.72,1221.204 C768.328,1222.812 772.124,1223.564 775.876,1223.984 C783.392,1224.736 790.876,1223.968 798.108,1222.484 C805.344,1220.908 812.392,1218.484 818.828,1214.892 C822.048,1213.124 825.108,1211.016 827.672,1208.376 C828.984,1207.092 830.08,1205.592 830.908,1203.952 C831.656,1202.28 832.064,1200.436 831.752,1198.608 C832.032,1200.436 831.608,1202.264 830.844,1203.92 C830,1205.548 828.892,1207 827.564,1208.264 C824.968,1210.844 821.812,1212.764 818.58,1214.408 C812.032,1217.624 804.908,1219.468 797.764,1220.564 C790.592,1221.58 783.312,1221.752 776.296,1220.64 C772.812,1220.108 769.36,1219.236 766.312,1217.78 C764.78,1217.08 763.408,1216.156 762.264,1215.108 C761.204,1214.032 760.452,1212.796 760.188,1211.468 C759.984,1210.14 760.264,1208.72 760.876,1207.328 C761.58,1205.952 762.532,1204.608 763.736,1203.42 C766.08,1201 769,1198.968 772.108,1197.264 C778.296,1193.796 785.188,1191.42 792.248,1189.876 C799.328,1188.408 806.64,1187.656 813.908,1188.392 C817.5,1188.796 821.14,1189.5 824.468,1191.016 C826.14,1191.736 827.688,1192.736 829.048,1193.952 C830.344,1195.22 831.376,1196.796 831.752,1198.608 C831.408,1196.796 830.392,1195.188 829.108,1193.892 C827.764,1192.656 826.204,1191.624 824.532,1190.86 C821.204,1189.28 817.608,1188.392 813.984,1187.844 C810.328,1187.264 806.64,1187.032 802.952,1187.08 z M486.392,1191.108 C478.392,1191.14 470.312,1192.172 462.548,1194.86 C457.436,1196.688 452.376,1199.14 448.032,1202.92 C443.704,1206.564 440.248,1212.108 439.812,1218.376 C439.672,1224.64 442.564,1230.5 446.516,1234.548 C450.484,1238.704 455.264,1241.64 460.204,1243.968 C470.156,1248.484 480.92,1250.204 491.532,1250.452 C502.14,1250.516 512.812,1249 522.608,1245.016 C527.484,1243.064 532.124,1240.42 536.032,1236.908 C540,1233.484 542.796,1228.592 543.14,1223.36 C542.72,1228.592 539.86,1233.392 535.876,1236.752 C531.92,1240.156 527.188,1242.5 522.312,1244.236 C512.452,1247.624 501.908,1248.248 491.672,1247.516 C481.436,1246.564 471.296,1244.092 462.436,1239.392 C458,1237.108 453.908,1234.204 450.72,1230.704 C447.452,1227.236 445.608,1222.908 445.736,1218.656 C446.032,1214.42 448.264,1210.28 451.86,1207.156 C455.376,1203.984 459.72,1201.484 464.344,1199.64 C473.624,1195.828 483.968,1194.312 494.236,1194.36 C504.484,1194.592 514.92,1196.248 524.408,1200.564 C529.092,1202.752 533.592,1205.548 537.204,1209.312 C540.828,1213.032 543.236,1218.092 543.14,1223.36 C543.312,1218.092 540.984,1212.952 537.376,1209.156 C533.828,1205.28 529.436,1202.22 524.78,1199.812 C515.42,1194.892 504.936,1192.36 494.376,1191.392 C491.736,1191.204 489.064,1191.108 486.392,1191.108 z M486.392,1191.108" fill="#000000"/>
    <path d="M590.812,10.624 C523.844,27.968 464.484,109.468 494.704,196.204 C535.736,313.968 619.436,345.5 609.236,425.452 C599.812,499.264 514.64,571.516 481.704,574.064 C448.752,576.624 453.812,566.484 496,533.156 C518.656,515.248 561.64,470.892 567.968,423.296 C573.408,382.328 544.656,340.516 515.936,318.188 C449.624,266.64 410.58,197.656 439.812,156.124 C384.892,178.092 420.908,279.672 450.752,311.408 C470.328,332.236 525.688,430.688 483.688,461.032 C441.672,491.392 349.548,539.564 348.752,630.436 C347.936,721.328 247.812,635.764 329.204,568.936 C410.608,502.108 476.72,464.436 418.484,404.936 C355.064,340.172 373.28,300.952 373.28,300.952 C373.28,300.952 343.736,335.032 357.64,374.58 C372.36,416.408 394.908,456.58 316.968,510.092 C223.892,573.984 186.28,674.264 223.532,783.764 C230.64,804.672 241.124,824.452 254.468,842.656 C260.28,850.78 266.64,858.392 273.392,865.516 L273.5,865.5 C278.08,870.344 282.892,875.032 287.92,879.58 C314.016,902.78 344.936,920.264 377.376,933.892 L377.564,933.672 C382.392,935.484 387.28,937.22 392.264,938.828 C394.764,939.984 397.296,941.124 399.828,942.236 L399.564,942.564 C404.892,944.484 410.248,946.36 415.592,948.108 C444,958.156 473.484,964.592 503.328,967.704 C507,968.08 510.656,968.42 514.328,968.688 C514.328,968.704 514.312,968.704 514.312,968.72 C516.532,968.892 518.752,969.032 520.952,969.156 C520.952,969.156 520.952,969.156 520.952,969.14 C520.984,969.156 521,969.156 521.016,969.156 C526.264,969.452 531.516,969.624 536.764,969.752 C536.764,969.764 536.764,969.796 536.764,969.812 C541.204,969.908 545.624,969.968 550.064,969.936 C550.064,969.908 550.064,969.876 550.064,969.86 C555.484,969.812 560.892,969.688 566.264,969.468 C605.08,967.656 643.704,960.592 680.656,948.86 C680.608,948.764 680.532,948.656 680.484,948.58 C684.172,947.248 687.764,945.892 691.28,944.452 C691.5,944.72 691.64,944.892 691.844,945.156 C695.28,943.952 698.704,942.752 702.08,941.468 C708.156,940.092 714.22,938.436 720.204,936.532 C720.188,936.516 720.172,936.484 720.172,936.484 C723.296,935.516 726.312,934.468 729.28,933.42 C761.36,921.624 791,902.108 810.408,874.42 C811.296,873.124 812.188,871.828 813.032,870.5 C813.032,870.516 813.032,870.516 813.048,870.516 C817.86,863.108 821.952,855.156 825.188,846.608 C851.032,781.108 826.064,704.22 800.548,679.048 C754.032,633.108 753.08,546.592 837.92,523.204 C922.752,499.796 895.064,395.392 841.032,366.876 C874.436,407.564 900.108,479.108 817.532,495.564 C734.984,512 662.092,592.736 703.688,665.592 C745.296,738.436 690.248,815.672 634.392,776.64 C578.516,737.624 573.484,674.796 673.016,577.72 C772.58,480.656 780.296,386.08 710.408,338.408 C640.5,290.764 439.812,156.124 590.812,10.608 z M590.812,10.624" fill="#FF3F00"/>
    <path d="M590.812,10.624 C523.844,27.968 464.484,109.468 494.704,196.204 C535.736,313.968 619.436,345.5 609.236,425.452 C599.812,499.264 514.64,571.516 481.704,574.064 C448.752,576.624 453.812,566.484 496,533.156 C518.656,515.248 561.64,470.892 567.968,423.296 C573.408,382.328 544.656,340.516 515.936,318.188 C449.624,266.64 410.58,197.656 439.812,156.124 C384.892,178.092 420.908,279.672 450.752,311.408 C470.328,332.236 525.688,430.688 483.688,461.032 C441.672,491.392 349.548,539.564 348.752,630.436 C347.936,721.328 247.812,635.764 329.204,568.936 C410.608,502.108 476.72,464.436 418.484,404.936 C355.064,340.172 373.28,300.952 373.28,300.952 C373.28,300.952 343.736,335.032 357.64,374.58 C372.36,416.408 394.908,456.58 316.968,510.092 C223.892,573.984 186.28,674.264 223.532,783.764 C230.64,804.672 241.124,824.452 254.468,842.656 C260.28,850.78 266.64,858.392 273.392,865.516 L273.5,865.5 C278.08,870.344 282.892,875.032 287.92,879.58 C314.016,902.78 344.936,920.264 377.376,933.892 L377.564,933.672 C382.392,935.484 387.28,937.22 392.264,938.828 C394.764,939.984 397.296,941.124 399.828,942.236 L399.564,942.564 C404.892,944.484 410.248,946.36 415.592,948.108 C444,958.156 473.484,964.592 503.328,967.704 C507,968.08 510.656,968.42 514.328,968.688 C514.328,968.704 514.312,968.704 514.312,968.72 C516.532,968.892 518.752,969.032 520.952,969.156 L520.952,969.14 C520.984,969.156 521,969.156 521.016,969.156 C526.264,969.452 531.516,969.624 536.764,969.752 L536.764,969.812 C541.204,969.908 545.624,969.968 550.064,969.936 L550.064,969.86 C555.484,969.812 560.892,969.688 566.264,969.468 C605.08,967.656 643.704,960.592 680.656,948.86 C680.608,948.764 680.532,948.656 680.484,948.58 C684.172,947.248 687.764,945.892 691.28,944.452 C691.5,944.72 691.64,944.892 691.844,945.156 C695.28,943.952 698.704,942.752 702.08,941.468 C708.156,940.092 714.22,938.436 720.204,936.532 L720.172,936.484 C723.296,935.516 726.312,934.468 729.28,933.42 C761.36,921.624 791,902.108 810.408,874.42 C811.296,873.124 812.188,871.828 813.032,870.5 C813.032,870.516 813.032,870.516 813.048,870.516 C817.86,863.108 821.952,855.156 825.188,846.608 C851.032,781.108 826.064,704.22 800.548,679.048 C754.032,633.108 753.08,546.592 837.92,523.204 C922.752,499.796 895.064,395.392 841.032,366.876 C874.436,407.564 900.108,479.108 817.532,495.564 C734.984,512 662.092,592.736 703.688,665.592 C745.296,738.436 690.248,815.672 634.392,776.64 C578.516,737.624 573.484,674.796 673.016,577.72 C772.58,480.656 780.296,386.08 710.408,338.408 C640.5,290.764 439.812,156.124 590.812,10.608 z M590.812,10.624" fill="#000000"/>
    <path d="M478.764,201.764 C500.296,263.564 533.344,303.108 557.752,335.22 C582.156,367.328 596.828,389.36 592.5,423.312 C588.5,454.564 567.032,488.92 542.14,514.764 C533.704,523.532 525.108,530.796 516.764,537.236 C542.484,514.672 578.124,475.016 584.688,425.516 C591.344,375.376 558.764,330.092 526.28,304.86 C494.736,280.344 475.172,252.5 457.14,230.124 C438.58,207.064 442.42,175.86 455.016,142.016 C426.344,138.936 403.452,162.908 397.968,180.408 C392.984,197.248 393.64,215.344 396.892,233.14 C403.392,268.704 419.704,303.032 438.452,322.968 C444.58,329.5 464.248,359.764 474.408,388.312 C479.484,402.58 482.452,416.764 482.14,427.28 C481.828,437.796 479.36,443.328 473.796,447.36 C469.392,450.548 462.22,455.28 456.484,459.092 C457.296,454.624 457.656,450.032 457.392,445.328 C456.392,427.156 446.844,409.78 430.532,393.124 C400.592,362.548 390.156,339.78 388.688,325.532 C386.592,305.188 385.752,291.764 386.752,275 C350.016,286.032 331.452,347.564 341.72,380.172 C349.408,402.048 356.936,420.032 355.264,436.236 C353.592,452.42 344.14,470.968 307.42,496.188 C209.296,563.548 168.172,673.452 207.548,789.188 C215.236,811.796 226.532,833.08 240.812,852.564 C247.092,861.328 253.92,869.5 261.124,877.108 C261.72,877.736 262.344,878.296 263,878.812 C267.376,883.36 271.876,887.828 276.624,892.108 C276.656,892.124 276.672,892.156 276.704,892.188 C304.608,916.984 337.172,935.312 370.844,949.436 C372.08,949.968 373.392,950.344 374.72,950.548 C378.436,951.92 382.172,953.248 385.984,954.5 C387.124,955.032 388.296,955.548 389.452,956.064 C390.796,957.064 392.264,957.876 393.844,958.436 C399.14,960.344 404.532,962.236 409.968,964.016 C409.984,964.032 410,964.032 410.016,964.032 C439.736,974.532 470.5,981.248 501.58,984.5 C501.608,984.5 501.64,984.5 501.672,984.5 C504.952,984.828 508.376,985.14 511.828,985.408 C512.22,985.468 512.608,985.516 512.984,985.532 C515.376,985.72 517.704,985.876 519.968,986 C520.344,986.032 520.72,986.048 521.092,986.032 C521.124,986.032 521.156,986.032 521.172,986.032 C525.704,986.28 530.156,986.436 534.58,986.548 C535.188,986.624 535.796,986.672 536.408,986.688 C540.92,986.78 545.516,986.844 550.188,986.812 C550.828,986.812 551.484,986.764 552.108,986.688 C557.08,986.624 562.032,986.532 566.968,986.328 C567,986.328 567.016,986.328 567.048,986.328 C607.392,984.452 647.436,977.108 685.764,964.936 C687.14,964.5 688.452,963.892 689.656,963.124 C690.656,962.764 691.624,962.376 692.608,962 C694.236,961.92 695.844,961.624 697.392,961.092 C700.656,959.952 704,958.764 707.376,957.5 C713.392,956.092 719.408,954.5 725.328,952.608 C725.828,952.436 726.312,952.264 726.78,952.064 C729.608,951.156 732.376,950.236 734.92,949.328 C734.984,949.296 735.048,949.28 735.108,949.264 C769.672,936.548 802.312,915.36 824.236,884.108 C824.248,884.08 824.28,884.048 824.296,884.016 C824.968,883.048 825.736,881.876 826.484,880.704 C826.5,880.704 826.5,880.688 826.516,880.672 C826.752,880.36 826.984,880.032 827.204,879.688 C832.608,871.376 837.248,862.392 840.908,852.736 C855.312,816.188 855.392,777.468 848.656,744.344 C841.936,711.22 829.312,683.72 812.408,667.032 C792.876,647.736 783.016,619.42 786.672,595.172 C790.312,570.936 805.14,549.752 842.408,539.468 C866.936,532.704 885.264,519.108 896.08,501.892 C906.892,484.656 912.248,464.296 908.344,445.376 C899.312,401.548 867.844,349.592 821.564,350.048 C830.592,381.608 854.92,407.532 855.908,440.5 C856.188,449.752 853.828,456.688 848.188,462.952 C842.564,469.22 832.42,475.392 814.236,479.016 C791.812,483.484 770.28,492.092 751.048,503.876 C762.092,482.736 769.248,461.936 771.968,441.796 C778.328,394.72 759.392,351.392 719.908,324.468 C684.86,300.58 618.984,255.5 581.64,201.592 C562.984,174.656 553.876,146.248 552.828,117.172 C550.936,64.392 590.032,40.08 610.592,1.548 C509.312,-17.124 441.392,138.908 478.764,201.764 z M525.86,79.28 C521.92,91.564 519.58,103.78 519.108,115.86 C517.592,154.452 532.532,189.968 553.908,220.812 C596.64,282.532 666.048,328.592 700.908,352.36 C731.312,373.092 743.452,400.892 738.532,437.28 C733.608,473.688 709.204,518.86 661.236,565.64 C610.064,615.548 583.688,657.876 578.688,696.812 C573.688,735.736 593.5,768.672 624.72,790.484 C641.908,802.484 661.28,806.452 678.484,802.436 C695.672,798.408 709.936,787.108 719.672,772.376 C739.156,742.876 742.016,698.656 718.344,657.22 C700.984,626.812 707.108,597 727.592,569.5 C746.704,543.828 779.236,523.016 813.58,514.296 C778.376,530.36 757.936,559.264 753.296,590.156 C747.828,626.5 761.704,664.392 788.688,691.048 C797.296,699.548 809.908,723.08 815.592,751.064 C821.264,779.048 820.908,811.5 809.5,840.42 C809.468,840.5 809.436,840.564 809.408,840.64 C806.64,847.936 803.124,854.736 798.984,861.14 C798.908,861.264 798.812,861.408 798.72,861.532 C798.156,862.436 797.42,863.516 796.58,864.736 C779.672,888.876 753.048,906.704 723.5,917.564 C723.484,917.58 723.468,917.58 723.452,917.58 C720.64,918.58 717.892,919.516 715.156,920.376 C714.908,920.452 714.656,920.532 714.408,920.624 C709.092,922.296 703.72,923.796 698.328,925.016 C697.592,925.188 696.86,925.408 696.14,925.672 C694.42,926.328 692.592,926.952 690.812,927.592 C688.796,927.64 686.796,928.064 684.92,928.828 C681.672,930.14 678.296,931.42 674.764,932.688 C674.092,932.936 673.452,933.22 672.812,933.548 C638.048,944.344 601.828,950.92 565.484,952.608 C560.328,952.828 555.156,952.936 549.952,952.984 C549.484,952.984 549.032,953 548.564,953.048 C545.248,953.064 541.892,953.032 538.452,952.952 C538.016,952.92 537.58,952.892 537.14,952.876 C532.108,952.764 527.124,952.592 522.236,952.312 C522.22,952.312 522.22,952.312 522.204,952.312 C521.876,952.28 521.548,952.264 521.22,952.264 C519.564,952.172 517.936,952.064 516.344,951.936 C516.328,951.936 516.312,951.936 516.296,951.936 C516.048,951.908 515.812,951.876 515.564,951.86 C512.156,951.608 508.64,951.28 505.032,950.92 C505.016,950.92 505.016,950.92 505,950.92 C476.42,947.92 448.28,941.764 421.22,932.204 C421.108,932.156 420.984,932.124 420.86,932.08 C416.844,930.752 412.764,929.312 408.672,927.86 C407.984,927.436 407.28,927.064 406.532,926.752 C404.14,925.704 401.736,924.624 399.36,923.532 C398.752,923.248 398.124,923 397.468,922.78 C392.752,921.248 388.124,919.608 383.532,917.876 C382.92,917.64 382.28,917.452 381.64,917.296 C351.312,904.36 322.876,888.064 299.188,867 C294.5,862.764 290.016,858.408 285.752,853.908 C285.532,853.656 285.296,853.42 285.064,853.204 C279.032,846.78 273.344,840.016 268.188,832.828 C268.14,832.78 268.108,832.736 268.08,832.672 C255.688,815.78 246.032,797.532 239.5,778.328 C204.392,675.092 238.484,584.436 326.532,524 C367.752,495.704 385.984,467.408 388.844,439.688 C391.14,417.392 384.392,398.752 378,381.688 C385.392,392.704 394.188,404.248 406.42,416.752 C419.248,429.844 423.264,439.484 423.704,447.204 C424.124,454.92 421.124,463.14 412.844,473.892 C396.28,495.392 359.72,522.048 318.5,555.908 C272.452,593.704 273.984,643.58 295.064,669.484 C305.592,682.42 323.516,691.78 340.844,683.952 C358.188,676.124 365.392,656.436 365.624,630.592 C366.328,551.064 448.936,506.968 493.564,474.72 C509,463.564 515.36,445.408 515.876,428.28 C516.392,411.156 512.156,393.72 506.204,376.984 C494.28,343.516 476.484,314.156 463.032,299.844 C457.28,293.736 450.108,282.016 443.736,268.22 C459.704,290.624 480.764,312.236 505.58,331.516 C530.548,350.908 555.452,389.264 551.236,421.08 C546.048,460.124 505.72,503.968 485.548,519.908 C474.796,528.408 466.28,535.484 459.72,541.736 C453.14,547.968 448.204,552.36 444.892,561.08 C443.236,565.452 442.344,572.72 445.78,579.064 C449.22,585.408 454.876,588.22 459,589.532 C467.248,592.14 473.952,591.592 483.016,590.892 C496.796,589.812 509.344,583.42 523.392,574.296 C537.436,565.172 552.312,552.86 566.452,538.188 C594.72,508.828 620.548,470.14 625.984,427.58 C631.844,381.58 609.764,347.876 584.608,314.796 C559.452,281.72 530.124,246.608 510.64,190.656 C496.188,149.204 505.58,109.624 525.86,79.28 z M340.844,581.248 C335.408,596.204 332.032,612.436 331.86,630.296 C331.688,649.892 326.08,653.58 326.968,653.188 C327.844,652.796 325.656,653.608 321.236,648.172 C312.392,637.312 304.58,611 339.908,581.984 L339.92,581.984 C340.248,581.72 340.516,581.516 340.844,581.248 z M678.236,596.844 C672.36,621.876 674.608,648.704 689.032,673.952 C706.984,705.376 703.124,736.172 691.516,753.764 C685.704,762.564 678.328,767.796 670.796,769.564 C663.248,771.328 654.812,770.328 644.048,762.812 C619.408,745.592 608.752,727.608 612.156,701.092 C615.392,675.984 635.124,640.592 678.236,596.844 z M678.236,596.844" fill="#000000"/>
    <path d="M590.812,10.624 C523.844,27.968 464.484,109.468 494.704,196.204 C535.736,313.968 619.436,345.5 609.236,425.452 C599.812,499.264 514.64,571.516 481.704,574.064 C448.752,576.624 453.812,566.484 496,533.156 C518.656,515.248 561.64,470.892 567.968,423.296 C573.408,382.328 544.656,340.516 515.936,318.188 C449.624,266.64 410.58,197.656 439.812,156.124 C384.892,178.092 420.908,279.672 450.752,311.408 C470.328,332.236 525.688,430.688 483.688,461.032 C441.672,491.392 349.548,539.564 348.752,630.436 C347.936,721.328 247.812,635.764 329.204,568.936 C410.608,502.108 476.72,464.436 418.484,404.936 C355.064,340.172 373.28,300.952 373.28,300.952 C373.28,300.952 343.736,335.032 357.64,374.58 C372.36,416.408 394.908,456.58 316.968,510.092 C223.892,573.984 186.28,674.264 223.532,783.764 C230.64,804.672 241.124,824.452 254.468,842.656 C260.28,850.78 266.64,858.392 273.392,865.516 L273.5,865.5 C278.08,870.344 282.892,875.032 287.92,879.58 C314.016,902.78 344.936,920.264 377.376,933.892 L377.564,933.672 C382.392,935.484 387.28,937.22 392.264,938.828 C394.764,939.984 397.296,941.124 399.828,942.236 L399.564,942.564 C404.892,944.484 410.248,946.36 415.592,948.108 C444,958.156 473.484,964.592 503.328,967.704 C507,968.08 510.656,968.42 514.328,968.688 C514.328,968.704 514.312,968.704 514.312,968.72 C516.532,968.892 518.752,969.032 520.952,969.156 C520.952,969.156 520.952,969.156 520.952,969.14 C520.984,969.156 521,969.156 521.016,969.156 C526.264,969.452 531.516,969.624 536.764,969.752 C536.764,969.764 536.764,969.796 536.764,969.812 C541.204,969.908 545.624,969.968 550.064,969.936 C550.064,969.908 550.064,969.876 550.064,969.86 C555.484,969.812 560.892,969.688 566.264,969.468 C605.08,967.656 643.704,960.592 680.656,948.86 C680.608,948.764 680.532,948.656 680.484,948.58 C684.172,947.248 687.764,945.892 691.28,944.452 C691.5,944.72 691.64,944.892 691.844,945.156 C695.28,943.952 698.704,942.752 702.08,941.468 C708.156,940.092 714.22,938.436 720.204,936.532 C720.188,936.516 720.172,936.484 720.172,936.484 C723.296,935.516 726.312,934.468 729.28,933.42 C761.36,921.624 791,902.108 810.408,874.42 C811.296,873.124 812.188,871.828 813.032,870.5 C813.032,870.516 813.032,870.516 813.048,870.516 C817.86,863.108 821.952,855.156 825.188,846.608 C851.032,781.108 826.064,704.22 800.548,679.048 C754.032,633.108 753.08,546.592 837.92,523.204 C922.752,499.796 895.064,395.392 841.032,366.876 C874.436,407.564 900.108,479.108 817.532,495.564 C734.984,512 662.092,592.736 703.688,665.592 C745.296,738.436 690.248,815.672 634.392,776.64 C578.516,737.624 573.484,674.796 673.016,577.72 C772.58,480.656 780.296,386.08 710.408,338.408 C640.5,290.764 439.812,156.124 590.812,10.608 z M590.812,10.624" fill="#FFF800"/>
    <path d="M674.812,435.608 C686.704,497.016 656.14,567.048 583.156,640.752 C525.672,698.78 507.812,798.844 623.032,816.812 C738.22,834.796 736.64,762.188 763.264,683.204 C826.156,738.908 770.248,885.36 694.264,919.532 C608.812,943.608 478.656,966.952 391.064,923.58 C284.204,870.64 215.08,720.704 247.188,639.656 C274.812,743.688 383.752,847.016 402.892,846.64 C405.892,830.124 307.736,716.92 403.828,567.812 C393.936,663.408 406.124,767.64 459,794.048 C416.564,660.812 429.656,616.328 536.936,568.892 C648.092,519.736 671.032,473.704 674.812,435.608 z M674.812,435.608" fill="#FFB97A"/>
    <path d="M563.892,582.264 C570.876,621.844 563.608,638.468 520.78,685.984 C487.048,723.408 534.092,840.548 601.688,852.14 C669.28,863.72 734.42,827.876 764.048,784.032 C746.452,878.392 664.736,904.892 614.892,913.248 C563.108,921.936 471.86,937.58 417.484,917.564 C346.936,885.516 295.78,826.392 301.532,794.688 C335.844,835.156 424.248,890.048 460.5,896.048 C462.048,899.656 358.764,783.092 389.624,697.108 C393.796,797.092 481.092,859.752 507.672,876.436 C482.764,790.548 428.828,688.092 486.516,648.452 C521.204,624.624 561.672,606.812 563.892,582.264 z M563.892,582.264" fill="#FF3F00"/>
  </g>
</svg>
