<?xml version="1.0" encoding="UTF-8"?>
<!DOCTYPE svg PUBLIC "-//W3C//DTD SVG 1.1//EN" "http://www.w3.org/Graphics/SVG/1.1/DTD/svg11.dtd">
<svg version="1.1" xmlns="http://www.w3.org/2000/svg" xmlns:xlink="http://www.w3.org/1999/xlink" x="0" y="0" width="632" height="461" viewBox="0, 0, 632, 461">
  <defs>
    <clipPath id="Clip_1">
      <path d="M286.178,29.001 C332.798,29.081 400.622,45.398 478.613,97.248 C567.116,156.078 609.243,215.607 609.338,269.442 L609.338,269.759 C609.31,289.971 603.353,309.384 591.698,327.648 C558.549,379.603 465.508,406.331 369.398,406.353 L369.147,406.353 C322.346,406.34 274.813,399.995 233.147,387.147 C155.517,363.207 130.548,322.499 125.23,282.838 C130.388,283.868 135.487,284.341 140.489,284.341 C149.04,284.341 157.328,282.961 165.217,280.641 C177.188,302.227 200.675,322.034 244.208,335.46 C265.779,342.112 290.929,347.471 317.64,351.238 C307.161,364.749 294.62,376.913 280.28,383.799 C294.878,381.313 309.986,368.078 323.316,352.012 C349.715,355.485 377.502,357.406 404.712,357.492 L408.537,357.492 C415.056,357.471 421.535,357.343 427.954,357.105 C424.688,370.508 424.181,380.555 428.897,383.799 C425.203,380.381 427.827,369.805 432.674,356.909 C450.645,356.086 468.06,354.38 484.338,351.704 C486.014,355.621 489.477,358.708 493.949,359.733 C494.958,359.964 495.967,360.078 496.961,360.084 L497.092,360.084 C503.351,360.06 509.005,355.743 510.464,349.365 C510.702,348.326 510.816,347.288 510.815,346.266 L510.815,346.202 C513.786,345.439 516.691,344.635 519.539,343.788 C516.047,359.373 516.569,373.084 528.093,373.084 C528.205,373.084 528.323,373.083 528.437,373.08 C519.088,367.835 520.056,355.308 524.531,342.239 C550.254,333.912 570.184,321.942 580.511,305.76 C586.794,295.916 589.805,285.057 589.943,273.475 L589.943,271.803 C589.87,265.622 588.994,259.236 587.374,252.702 C590.277,251.836 593.227,250.916 596.216,249.942 C588.364,232.965 578.577,219.714 567.758,209.72 C557.868,194.337 544.991,178.668 529.742,163.163 C542.458,169.08 553.089,173.006 558.515,173.28 C547.802,170.28 535.447,163.97 522.885,156.356 C501.248,135.377 475.429,114.855 447.005,95.961 C382.42,53.02 326.27,39.576 287.745,39.576 C266.196,39.576 250.167,43.779 241.247,49.377 C182.081,86.511 163.829,169.635 159.545,190.677 C157.016,203.082 154.144,217.953 154.082,233.59 L154.082,234.619 C154.14,249.091 156.654,264.19 164.105,278.567 C155.091,281.528 145.368,283.316 135.033,283.318 C131.816,283.318 128.554,283.145 125.222,282.78 C121.791,257.096 126.593,231.853 130.664,211.89 C135.857,186.42 157.943,85.809 229.565,40.863 C240.316,34.114 259.601,29.041 285.522,29.001 L286.178,29.001 z M366.695,374.604 C362.496,374.604 358.71,377.485 357.734,381.747 C357.575,382.44 357.499,383.132 357.5,383.814 L357.5,383.831 C357.511,388.013 360.394,391.789 364.646,392.763 C365.335,392.921 366.023,392.997 366.701,392.997 L366.713,392.997 C370.902,392.994 374.685,390.108 375.653,385.851 C376.787,380.901 373.7,375.969 368.75,374.835 C368.061,374.679 367.373,374.604 366.695,374.604 z M289.833,349.509 L289.829,349.509 C287.728,349.51 285.835,350.953 285.347,353.082 C284.789,355.557 286.328,358.023 288.812,358.59 C289.155,358.669 289.498,358.707 289.836,358.707 L289.841,358.707 C291.93,358.706 293.823,357.263 294.311,355.134 C294.887,352.659 293.33,350.193 290.864,349.626 C290.518,349.547 290.173,349.509 289.833,349.509 z M196.91,337.944 L196.898,337.944 C192.709,337.947 188.923,340.833 187.94,345.09 C186.806,350.04 189.911,354.972 194.861,356.106 C195.549,356.262 196.236,356.337 196.912,356.337 C201.105,356.337 204.892,353.456 205.868,349.194 C206,348.614 206.073,348.035 206.093,347.462 L206.093,346.82 C205.95,342.756 203.11,339.137 198.965,338.178 C198.276,338.02 197.588,337.944 196.91,337.944 z"/>
    </clipPath>
    <clipPath id="Clip_2">
      <path d="M245.954,315.75 L580.511,315.75 L580.511,52.95 L245.954,52.95 z"/>
    </clipPath>
    <clipPath id="Clip_3">
      <path d="M170.282,292.26 L188.678,292.26 L188.678,273.873 L170.282,273.873 z"/>
    </clipPath>
    <clipPath id="Clip_4">
      <path d="M357.5,392.997 L375.896,392.997 L375.896,374.601 L357.5,374.601 z"/>
    </clipPath>
    <clipPath id="Clip_5">
      <path d="M348.302,347.142 L366.698,347.142 L366.698,328.746 L348.302,328.746 z"/>
    </clipPath>
    <clipPath id="Clip_6">
      <path d="M187.706,356.34 L206.093,356.34 L206.093,337.944 L187.706,337.944 z"/>
    </clipPath>
    <clipPath id="Clip_7">
      <path d="M197.57,147.261 L222.518,147.261 L222.518,122.295 L197.57,122.295 z"/>
    </clipPath>
  </defs>
  <g id="Layer_1">
    <path d="M244.175,452.537 C211.806,452.537 178.603,451.259 145.838,448.527 C18.141,437.879 3.225,388.308 3.116,365.658 L3.116,365.151 C3.161,353.901 6.086,307.614 73.271,285.447 C81.546,282.718 95.792,280.587 115.598,279.797 C119.313,333.743 143.173,393.73 224.354,416.577 C267.842,428.813 313.497,434.499 357.789,434.5 C408.121,434.501 456.695,427.161 498.377,413.748 C458.731,437.164 356.442,452.537 244.175,452.537" fill="#7B7977"/>
    <path d="M121.187,205.293 C110.153,259.356 99.956,381.567 224.354,416.577 C378.11,459.84 558.839,421.221 611.336,338.952 C656.849,267.645 617.888,171.246 488.117,84.99 C358.355,-1.275 262.856,-1.95 230.699,18.003 C152.21,66.711 126.704,178.176 121.187,205.293" fill="#D99156"/>
    <path d="M442.028,224.535 C457.85,174.828 554.42,159.573 596.216,249.942 C493.985,283.269 441.452,252.201 442.028,224.535" fill="#2F3130"/>
    <path d="M319.169,234.696 C304.355,215.211 269.615,231.726 264.962,267.303 C260.3,302.898 267.077,304.167 268.346,304.167 C269.615,304.167 338.249,314.751 344.603,271.128 C348.131,246.837 337.232,246.873 328.331,246.909 C321.239,246.936 315.416,246.954 319.169,234.696" fill="#2F3130"/>
    <path d="M331.049,241.05 C336.971,224.535 374.249,206.733 415.757,254.181 C355.187,295.266 345.026,273.333 348.41,264.387 C351.803,252.912 351.371,240.195 331.049,241.05" fill="#2F3130"/>
    <path d="M401.789,234.273 C410.258,226.659 430.58,233.85 434.81,248.682 C439.058,263.496 419.996,283.413 406.451,268.158 C421.688,252.48 419.78,254.901 418.619,250.941 C417.458,246.981 401.789,234.273 401.789,234.273" fill="#2F3130"/>
    <path d="M437.357,226.416 C433.127,225.381 425.927,240.627 437.357,244.866 C448.814,249.096 447.95,244.866 447.95,244.866 C447.95,244.866 434.405,233.382 437.357,226.416" fill="#2F3130"/>
    <path d="M272.018,278.283 C268.625,284.682 249.14,288.075 248.303,296.265 C247.457,304.437 252.533,315.462 255.359,315.75 C252.821,309.243 248.879,301.341 272.018,292.584 L272.018,278.283" fill="#2F3130"/>
    <path d="M275.411,287.229 C281.639,295.482 284.447,312.636 281.909,315.75 C279.371,318.846 268.067,322.518 266.654,317.721 C270.038,328.458 284.447,323.778 290.378,319.485 C296.318,315.183 292.925,299.082 292.925,299.082 L275.411,287.229" fill="#2F3130"/>
    <path d="M442.028,210.342 C442.028,210.342 459.254,149.997 443.999,113.124 C430.769,81.129 510.86,159.933 558.515,173.28 C541.577,172.425 473.933,135.993 450.353,114.402 C456.707,137.28 458.129,195.294 455.582,198.264 C450.074,200.802 442.028,210.342 442.028,210.342" fill="#2F3130"/>
    <path d="M406.451,228.558 C403.904,219.666 371.432,184.152 348.131,160.851 C333.299,165.09 337.394,201.657 337.394,201.657 C338.393,189.939 341.633,166.845 349.535,169.041 C361.118,175.683 397.154,231.105 398.531,231.213 C402.077,231.492 406.451,228.558 406.451,228.558" fill="#2F3130"/>
    <path d="M345.287,219.873 C339.086,219.873 263,164.379 263.342,170.31 C268.346,180.894 280.28,212.673 280.28,231.483 C283.322,214.644 272.486,179.895 272.486,179.895 C282.368,187.518 337.151,224.508 337.151,224.508 L345.287,219.873" fill="#2F3130"/>
    <path d="M269.201,241.473 C253.946,235.263 234.029,223.59 234.029,223.59 C234.029,223.59 190.127,290.334 124.607,282.711 C178.832,294.006 225.992,243.309 236.018,231.483 C246.386,231.384 266.654,246.747 266.654,246.747 L269.201,241.473" fill="#2F3130"/>
    <path d="M471.953,265.854 C504.722,273.099 545.384,302.475 545.384,302.475 C545.384,302.475 505.289,360.093 528.437,373.08 C504.722,373.629 526.178,317.721 535.223,303.042 C495.182,292.728 459.533,265.854 459.533,265.854 L471.953,265.854" fill="#2F3130"/>
    <path d="M354.125,284.286 C354.125,284.286 326.594,361.56 280.28,383.799 C320.024,377.031 363.557,290.577 364.646,284.286 C359.003,286.095 354.125,284.286 354.125,284.286" fill="#2F3130"/>
    <path d="M420.563,278.283 C420.563,278.283 442.874,286.797 454.736,289.767 C466.598,294.006 417.458,373.215 428.897,383.799 C418.025,376.32 434.909,332.688 449.372,295.131 C421.688,290.181 409.268,279.597 409.268,279.597 L420.563,278.283" fill="#2F3130"/>
    <path d="M270.047,285.951 C267.212,271.974 273.287,228.774 308.45,235.542 C308.747,237.792 306.335,246.837 306.335,246.837 C306.335,246.837 275.276,252.408 270.047,285.951" fill="#FFFFFE"/>
    <path d="M344.387,234.822 L352.226,242.103 C354.935,242.22 357.878,242.184 361.019,242.157 C374.555,242.022 391.52,241.887 407.288,253.974 C399.251,236.559 359.642,227.127 344.387,234.822" fill="#FFFFFE"/>
    <path d="M453.251,217.362 C453.251,217.362 514.316,156.207 584.642,238.647 C555.833,205.896 498.341,202.656 459.533,229.827 C452.765,225.921 453.251,217.362 453.251,217.362" fill="#FFFFFE"/>
    <g clip-path="url(#Clip_1)">
      <path d="M124.049,29.001 L609.338,29.001 L609.338,406.353 L124.049,406.353 z" fill="#DC9A54"/>
    </g>
    <path d="M587.374,252.702 C585.96,247.001 583.981,241.185 581.474,235.278 C582.564,236.363 583.622,237.488 584.642,238.647 C583.513,237.324 582.391,236.043 581.267,234.792 C577.745,226.579 573.204,218.192 567.758,209.72 C578.577,219.714 588.364,232.965 596.216,249.942 C593.227,250.916 590.277,251.836 587.374,252.702" fill="#414138"/>
    <path d="M558.515,173.28 C553.089,173.006 542.458,169.08 529.742,163.163 C527.511,160.894 525.216,158.616 522.885,156.356 C535.447,163.97 547.802,170.28 558.515,173.28" fill="#414138"/>
    <path d="M140.489,284.341 C135.487,284.341 130.388,283.868 125.23,282.838 C125.227,282.818 125.225,282.8 125.222,282.78 C128.554,283.145 131.816,283.318 135.033,283.318 C145.368,283.316 155.091,281.528 164.105,278.567 C164.465,279.262 164.834,279.95 165.217,280.641 C157.328,282.961 149.04,284.341 140.489,284.341" fill="#414138"/>
    <path d="M528.093,373.084 C516.569,373.084 516.047,359.373 519.539,343.788 C521.226,343.287 522.889,342.77 524.531,342.239 C520.056,355.308 519.088,367.835 528.437,373.08 C528.323,373.083 528.205,373.084 528.093,373.084" fill="#414138"/>
    <path d="M280.28,383.799 C294.62,376.913 307.161,364.749 317.64,351.238 C319.524,351.504 321.417,351.762 323.316,352.012 C309.986,368.078 294.878,381.313 280.28,383.799" fill="#414138"/>
    <path d="M428.897,383.799 C424.181,380.555 424.688,370.508 427.954,357.105 C429.528,357.047 431.107,356.981 432.674,356.909 C427.827,369.805 425.203,380.381 428.897,383.799" fill="#414138"/>
    <path d="M584.642,238.647 C583.622,237.488 582.564,236.363 581.474,235.278 C581.406,235.116 581.337,234.955 581.267,234.792 C582.391,236.043 583.513,237.324 584.642,238.647" fill="#FFF7DB"/>
    <path d="M408.537,357.492 L404.712,357.492 C377.502,357.406 349.715,355.485 323.316,352.012 C346.276,324.338 363.957,288.266 364.646,284.286 C362.765,284.889 360.969,285.09 359.41,285.09 C356.293,285.09 354.125,284.286 354.125,284.286 C354.125,284.286 341.005,321.114 317.64,351.238 C290.929,347.471 265.779,342.112 244.208,335.46 C200.675,322.034 177.188,302.227 165.217,280.641 C167.323,280.022 169.397,279.336 171.445,278.59 C171.032,279.331 170.715,280.142 170.516,281.01 C169.391,285.969 172.478,290.901 177.428,292.035 C178.008,292.167 178.587,292.24 179.16,292.26 L179.804,292.26 C183.869,292.116 187.493,289.274 188.444,285.114 C188.603,284.419 188.679,283.724 188.678,283.041 L188.678,283.035 C188.67,278.963 185.937,275.277 181.871,274.191 C209.391,261.005 229.814,238.801 236.018,231.483 C236.051,231.483 236.085,231.483 236.118,231.483 C246.516,231.483 266.654,246.747 266.654,246.747 L269.201,241.473 C253.946,235.263 234.029,223.59 234.029,223.59 C234.029,223.59 207.159,264.425 164.105,278.567 C156.654,264.19 154.14,249.091 154.082,234.619 L154.082,233.59 C154.144,217.953 157.016,203.082 159.545,190.677 C163.829,169.635 182.081,86.511 241.247,49.377 C250.167,43.779 266.196,39.576 287.745,39.576 C326.27,39.576 382.42,53.02 447.005,95.961 C475.429,114.855 501.248,135.377 522.885,156.356 C506.615,146.496 489.999,134.45 476.126,124.559 C472.694,122.071 469.195,119.604 465.608,117.144 C463.087,115.401 460.72,113.8 458.533,112.38 C404.164,76.408 355.525,57.544 319.718,53.751 C314.584,53.208 309.693,52.952 305.057,52.952 C276.291,52.952 257.246,62.793 249.518,74.838 C240.347,89.157 247.655,109.866 285.806,121.53 C325.355,133.618 390.942,147.447 449.342,170.025 C447.162,192.356 442.028,210.342 442.028,210.342 C442.028,210.342 450.074,200.802 455.582,198.264 C456.63,197.041 457.006,186.495 456.643,172.909 C467.262,177.199 477.597,181.797 487.429,186.741 C465.62,191.811 448.023,205.701 442.028,224.535 C441.63,243.652 466.583,264.391 515.774,264.391 C530.321,264.391 546.99,262.576 565.746,258.369 C572.576,275.186 574.001,294.181 568.199,315.75 C579.731,297.675 582.998,277.066 578.685,255.17 C581.538,254.401 584.433,253.579 587.374,252.702 C588.994,259.236 589.87,265.622 589.943,271.803 L589.943,273.475 C589.805,285.057 586.794,295.916 580.511,305.76 C570.184,321.942 550.254,333.912 524.531,342.239 C531.136,322.949 545.384,302.475 545.384,302.475 C545.384,302.475 504.722,273.099 471.953,265.854 L459.533,265.854 C459.533,265.854 495.182,292.728 535.223,303.042 C530.699,310.384 523.067,328.041 519.539,343.788 C516.691,344.635 513.786,345.439 510.815,346.202 C510.782,339.947 506.462,334.317 500.105,332.859 C499.075,332.623 498.046,332.509 497.032,332.508 L496.998,332.508 C490.712,332.514 485.044,336.841 483.581,343.218 C483.344,344.252 483.23,345.284 483.23,346.301 L483.23,346.35 C483.236,348.221 483.625,350.038 484.338,351.704 C468.06,354.38 450.645,356.086 432.674,356.909 C442.835,329.873 462.767,292.637 454.736,289.767 C442.874,286.797 420.563,278.283 420.563,278.283 L409.268,279.597 C409.268,279.597 421.688,290.181 449.372,295.131 C441.183,316.397 432.217,339.61 427.954,357.105 C421.535,357.343 415.056,357.471 408.537,357.492 M357.498,328.746 C353.307,328.748 349.519,331.635 348.536,335.901 C347.402,340.842 350.507,345.774 355.457,346.908 C356.145,347.064 356.832,347.139 357.508,347.139 C361.701,347.139 365.488,344.258 366.464,339.996 C367.589,335.046 364.511,330.123 359.561,328.98 C358.871,328.822 358.182,328.746 357.503,328.746 L357.498,328.746 M266.706,317.882 C268.275,322.629 272.042,324.29 276.248,324.291 C281.369,324.291 287.138,321.83 290.378,319.485 C293.922,316.918 294.144,310.151 293.746,305.109 C314.422,303.996 340.78,297.373 344.603,271.128 C347.995,247.773 338.049,246.906 329.366,246.906 C329.018,246.906 328.674,246.908 328.331,246.909 C328.004,246.91 327.678,246.911 327.357,246.911 C320.721,246.911 315.589,246.388 319.169,234.696 C314.866,229.036 308.881,226.414 302.442,226.414 C286.711,226.414 268.263,242.06 264.962,267.303 C264.047,274.288 263.573,279.951 263.411,284.542 C256.766,287.847 248.831,291.103 248.303,296.265 C247.457,304.437 252.533,315.462 255.359,315.75 C253.174,310.149 249.95,303.515 263.849,296.192 C264.963,303.731 267.602,304.167 268.346,304.167 C268.699,304.167 274.281,304.988 282.284,305.23 C283.109,310.173 283.042,314.36 281.909,315.75 C280.254,317.769 274.87,320.033 270.933,320.033 C268.902,320.033 267.257,319.431 266.706,317.882 C266.689,317.828 266.671,317.775 266.654,317.721 C266.67,317.776 266.688,317.829 266.706,317.882 M332.943,241.009 C351.392,241.009 351.694,253.28 348.41,264.387 C346.535,269.345 348.816,278.29 361.535,278.29 C371.767,278.29 388.755,272.497 415.757,254.181 C395.745,231.305 376.72,223.598 361.715,223.598 C345.596,223.598 334.116,232.497 331.049,241.05 C331.701,241.023 332.331,241.009 332.943,241.009 M410.903,231.201 C407.356,231.201 404.122,232.176 401.789,234.273 C401.789,234.273 417.458,246.981 418.619,250.941 C419.78,254.901 421.688,252.48 406.451,268.158 C409.888,272.029 413.679,273.635 417.355,273.635 C428.168,273.635 437.98,259.737 434.81,248.682 C431.745,237.935 420.235,231.201 410.903,231.201 M436.934,226.366 C432.676,226.366 426.3,240.765 437.357,244.866 C441.176,246.276 443.626,246.746 445.195,246.746 C448.334,246.746 447.95,244.866 447.95,244.866 C447.95,244.866 434.405,233.382 437.357,226.416 C437.219,226.382 437.077,226.366 436.934,226.366 M263.861,169.866 C263.503,169.866 263.325,170.009 263.342,170.31 C268.346,180.894 280.28,212.673 280.28,231.483 C283.322,214.644 272.486,179.895 272.486,179.895 C282.368,187.518 337.151,224.508 337.151,224.508 L345.287,219.873 C339.401,219.873 270.546,169.866 263.861,169.866 M348.499,168.895 C348.835,168.895 349.18,168.942 349.535,169.041 C361.118,175.683 397.154,231.105 398.531,231.213 C398.692,231.226 398.855,231.232 399.018,231.232 C402.465,231.232 406.45,228.558 406.451,228.558 C403.904,219.666 371.432,184.152 348.131,160.851 C333.299,165.09 337.394,201.657 337.394,201.657 C338.348,190.465 341.347,168.895 348.499,168.895 M210.045,122.295 C204.351,122.295 199.21,126.209 197.885,131.997 C196.355,138.711 200.549,145.407 207.263,146.946 C208.197,147.159 209.129,147.261 210.049,147.261 C215.739,147.261 220.887,143.347 222.212,137.559 C222.391,136.774 222.49,135.99 222.518,135.214 L222.518,134.329 C222.321,128.817 218.464,123.9 212.834,122.61 C211.899,122.397 210.965,122.295 210.045,122.295 M567.758,209.72 C562.71,205.058 557.442,201.108 552.035,197.815 C541.881,183.639 529.116,169.384 513.877,155.314 C519.365,158.174 524.715,160.823 529.742,163.163 C544.991,178.668 557.868,194.337 567.758,209.72" fill="#E4AC51"/>
    <path d="M515.774,264.391 C466.583,264.391 441.63,243.652 442.028,224.535 C448.023,205.701 465.62,191.811 487.429,186.741 C493.087,189.587 498.581,192.549 503.871,195.634 C473.399,197.189 453.251,217.362 453.251,217.362 C453.251,217.362 452.765,225.921 459.533,229.827 C476.988,217.606 498.216,211.539 518.92,211.539 C522.03,211.539 525.13,211.676 528.201,211.95 C545.305,225.29 558.536,240.613 565.746,258.369 C546.99,262.576 530.321,264.391 515.774,264.391 M578.685,255.17 C576.74,245.292 573.253,235.158 568.284,224.871 C573.063,227.845 577.495,231.314 581.474,235.278 C583.981,241.185 585.96,247.001 587.374,252.702 C584.433,253.579 581.538,254.401 578.685,255.17 M581.267,234.792 C575.942,228.869 570.678,223.758 565.493,219.368 C561.702,212.236 557.205,205.031 552.035,197.815 C557.442,201.108 562.71,205.058 567.758,209.72 C573.204,218.192 577.745,226.579 581.267,234.792" fill="#615C41"/>
    <path d="M282.284,305.23 C274.281,304.988 268.699,304.167 268.346,304.167 C267.602,304.167 264.963,303.731 263.849,296.192 C266.098,295.007 268.795,293.804 272.018,292.584 L272.018,278.283 C271.903,278.5 271.769,278.713 271.618,278.923 C279.723,251.609 306.335,246.837 306.335,246.837 C306.335,246.837 308.747,237.792 308.45,235.542 C305.924,235.056 303.551,234.828 301.317,234.828 C275.542,234.828 268.764,265.268 269.486,281.013 C267.856,282.249 265.711,283.398 263.411,284.542 C263.573,279.951 264.047,274.288 264.962,267.303 C268.263,242.06 286.711,226.414 302.442,226.414 C308.881,226.414 314.866,229.036 319.169,234.696 C315.589,246.388 320.721,246.911 327.357,246.911 C327.678,246.911 328.004,246.91 328.331,246.909 C328.674,246.908 329.018,246.906 329.366,246.906 C338.049,246.906 347.995,247.773 344.603,271.128 C340.78,297.373 314.422,303.996 293.746,305.109 C293.477,301.702 292.925,299.082 292.925,299.082 L275.411,287.229 C278.859,291.799 281.259,299.097 282.284,305.23" fill="#615C41"/>
    <path d="M361.535,278.29 C348.816,278.29 346.535,269.345 348.41,264.387 C351.694,253.28 351.392,241.009 332.943,241.009 C332.331,241.009 331.701,241.023 331.049,241.05 C334.116,232.497 345.596,223.598 361.715,223.598 C376.72,223.598 395.745,231.305 415.757,254.181 C388.755,272.497 371.767,278.29 361.535,278.29 M365.395,242.129 C378.108,242.129 393.176,243.157 407.288,253.974 C401.18,240.739 376.837,232.115 358.808,232.115 C353.112,232.115 348.049,232.975 344.387,234.822 L352.226,242.103 C353.668,242.165 355.177,242.184 356.747,242.184 C358.125,242.184 359.55,242.17 361.019,242.157 C362.441,242.143 363.903,242.129 365.395,242.129" fill="#615C41"/>
    <path d="M417.355,273.635 C413.679,273.635 409.888,272.029 406.451,268.158 C421.688,252.48 419.78,254.901 418.619,250.941 C417.458,246.981 401.789,234.273 401.789,234.273 C404.122,232.176 407.356,231.201 410.903,231.201 C420.235,231.201 431.745,237.935 434.81,248.682 C437.98,259.737 428.168,273.635 417.355,273.635" fill="#615C41"/>
    <path d="M445.195,246.746 C443.626,246.746 441.176,246.276 437.357,244.866 C426.3,240.765 432.676,226.366 436.934,226.366 C437.077,226.366 437.219,226.382 437.357,226.416 C434.405,233.382 447.95,244.866 447.95,244.866 C447.95,244.866 448.334,246.746 445.195,246.746" fill="#615C41"/>
    <path d="M255.359,315.75 C252.533,315.462 247.457,304.437 248.303,296.265 C248.831,291.103 256.766,287.847 263.411,284.542 C265.711,283.398 267.856,282.249 269.486,281.013 C269.573,282.894 269.766,284.566 270.047,285.951 C270.436,283.457 270.968,281.117 271.618,278.923 C271.769,278.713 271.903,278.5 272.018,278.283 L272.018,292.584 C268.795,293.804 266.098,295.007 263.849,296.192 C249.95,303.515 253.174,310.149 255.359,315.75" fill="#615C41"/>
    <path d="M276.248,324.291 C272.042,324.29 268.275,322.629 266.706,317.882 C267.257,319.431 268.902,320.033 270.933,320.033 C274.87,320.033 280.254,317.769 281.909,315.75 C283.042,314.36 283.109,310.173 282.284,305.23 C281.259,299.097 278.859,291.799 275.411,287.229 L292.925,299.082 C292.925,299.082 293.477,301.702 293.746,305.109 C294.144,310.151 293.922,316.918 290.378,319.485 C287.138,321.83 281.369,324.291 276.248,324.291 M266.706,317.882 C266.688,317.829 266.67,317.776 266.654,317.721 C266.671,317.775 266.689,317.828 266.706,317.882" fill="#615C41"/>
    <path d="M442.028,210.342 C442.028,210.342 447.162,192.356 449.342,170.025 C451.789,170.971 454.224,171.932 456.643,172.909 C457.006,186.495 456.63,197.041 455.582,198.264 C450.074,200.802 442.028,210.342 442.028,210.342 M529.742,163.163 C524.715,160.823 519.365,158.174 513.877,155.314 C502.62,144.92 490.009,134.625 476.126,124.559 C489.999,134.45 506.615,146.496 522.885,156.356 C525.216,158.616 527.511,160.894 529.742,163.163 M465.608,117.144 C463.609,115.774 461.58,114.404 459.533,113.043 C459.199,112.821 458.867,112.601 458.533,112.38 C460.72,113.8 463.087,115.401 465.608,117.144" fill="#615C41"/>
    <path d="M399.018,231.232 C398.855,231.232 398.692,231.226 398.531,231.213 C397.154,231.105 361.118,175.683 349.535,169.041 C349.18,168.942 348.835,168.895 348.499,168.895 C341.347,168.895 338.348,190.465 337.394,201.657 C337.394,201.657 333.299,165.09 348.131,160.851 C371.432,184.152 403.904,219.666 406.451,228.558 C406.45,228.558 402.465,231.232 399.018,231.232" fill="#615C41"/>
    <path d="M280.28,231.483 C280.28,212.673 268.346,180.894 263.342,170.31 C263.325,170.009 263.503,169.866 263.861,169.866 C270.546,169.866 339.401,219.873 345.287,219.873 L337.151,224.508 C337.151,224.508 282.368,187.518 272.486,179.895 C272.486,179.895 283.322,214.644 280.28,231.483" fill="#615C41"/>
    <path d="M165.217,280.641 C164.834,279.95 164.465,279.262 164.105,278.567 C207.159,264.425 234.029,223.59 234.029,223.59 C234.029,223.59 253.946,235.263 269.201,241.473 L266.654,246.747 C266.654,246.747 246.516,231.483 236.118,231.483 C236.085,231.483 236.051,231.483 236.018,231.483 C229.814,238.801 209.391,261.005 181.871,274.191 C181.759,274.161 181.646,274.133 181.532,274.107 C180.843,273.949 180.155,273.873 179.476,273.873 L179.465,273.873 C176.131,273.876 173.054,275.703 171.445,278.59 C169.397,279.336 167.323,280.022 165.217,280.641" fill="#615C41"/>
    <path d="M519.539,343.788 C523.067,328.041 530.699,310.384 535.223,303.042 C495.182,292.728 459.533,265.854 459.533,265.854 L471.953,265.854 C504.722,273.099 545.384,302.475 545.384,302.475 C545.384,302.475 531.136,322.949 524.531,342.239 C522.889,342.77 521.226,343.287 519.539,343.788" fill="#615C41"/>
    <path d="M323.316,352.012 C321.417,351.762 319.524,351.504 317.64,351.238 C341.005,321.114 354.125,284.286 354.125,284.286 C354.125,284.286 356.293,285.09 359.41,285.09 C360.969,285.09 362.765,284.889 364.646,284.286 C363.957,288.266 346.276,324.338 323.316,352.012" fill="#615C41"/>
    <path d="M427.954,357.105 C432.217,339.61 441.183,316.397 449.372,295.131 C421.688,290.181 409.268,279.597 409.268,279.597 L420.563,278.283 C420.563,278.283 442.874,286.797 454.736,289.767 C462.767,292.637 442.835,329.873 432.674,356.909 C431.107,356.981 429.528,357.047 427.954,357.105" fill="#615C41"/>
    <path d="M270.047,285.951 C269.766,284.566 269.573,282.894 269.486,281.013 C268.764,265.268 275.542,234.828 301.317,234.828 C303.551,234.828 305.924,235.056 308.45,235.542 C308.747,237.792 306.335,246.837 306.335,246.837 C306.335,246.837 279.723,251.609 271.618,278.923 C270.968,281.117 270.436,283.457 270.047,285.951" fill="#FEF2B4"/>
    <path d="M407.288,253.974 C393.176,243.157 378.108,242.129 365.395,242.129 C363.903,242.129 362.441,242.143 361.019,242.157 C359.55,242.17 358.125,242.184 356.747,242.184 C355.177,242.184 353.668,242.165 352.226,242.103 L344.387,234.822 C348.049,232.975 353.112,232.115 358.808,232.115 C376.837,232.115 401.18,240.739 407.288,253.974" fill="#FEF2B4"/>
    <path d="M581.474,235.278 C577.495,231.314 573.063,227.845 568.284,224.871 C567.4,223.04 566.47,221.207 565.493,219.368 C570.678,223.758 575.942,228.869 581.267,234.792 C581.337,234.955 581.406,235.116 581.474,235.278 M459.533,229.827 C452.765,225.921 453.251,217.362 453.251,217.362 C453.251,217.362 473.399,197.189 503.871,195.634 C512.594,200.722 520.765,206.15 528.201,211.95 C525.13,211.676 522.03,211.539 518.92,211.539 C498.216,211.539 476.988,217.606 459.533,229.827" fill="#FEF2B4"/>
    <g clip-path="url(#Clip_2)">
      <path d="M568.199,315.75 C574.001,294.181 572.576,275.186 565.746,258.369 C569.954,257.425 574.268,256.361 578.685,255.17 C582.998,277.066 579.731,297.675 568.199,315.75" fill="#EAC073"/>
      <path d="M565.746,258.369 C558.536,240.613 545.305,225.29 528.201,211.95 C542.658,213.239 556.527,217.554 568.284,224.871 C573.253,235.158 576.74,245.292 578.685,255.17 C574.268,256.361 569.954,257.425 565.746,258.369" fill="#847F5F"/>
      <path d="M552.035,197.815 C537.057,188.693 521.05,184.641 505.956,184.641 C499.566,184.641 493.345,185.366 487.429,186.741 C477.597,181.797 467.262,177.199 456.643,172.909 C456.123,153.49 454.092,127.863 450.353,114.402 C463.394,126.343 489.913,142.823 513.877,155.314 C529.116,169.384 541.881,183.639 552.035,197.815 M449.342,170.025 C390.942,147.447 325.355,133.618 285.806,121.53 C247.655,109.866 240.347,89.157 249.518,74.838 C257.246,62.793 276.291,52.952 305.057,52.952 C309.693,52.952 314.584,53.208 319.718,53.751 C355.525,57.544 404.164,76.408 458.533,112.38 C452.034,108.16 447.138,105.544 444.567,105.544 C442.181,105.544 441.798,107.801 443.999,113.124 C450.926,129.868 451.156,151.449 449.342,170.025 M476.126,124.559 C472.403,121.905 468.875,119.403 465.608,117.144 C469.195,119.604 472.694,122.071 476.126,124.559" fill="#EAC073"/>
    </g>
    <path d="M565.493,219.368 C544.319,201.441 524.495,195.539 507.58,195.539 C506.327,195.539 505.092,195.572 503.871,195.634 C498.581,192.549 493.087,189.587 487.429,186.741 C493.345,185.366 499.566,184.641 505.956,184.641 C521.05,184.641 537.057,188.693 552.035,197.815 C557.205,205.031 561.702,212.236 565.493,219.368" fill="#847F5F"/>
    <path d="M456.643,172.909 C454.224,171.932 451.789,170.971 449.342,170.025 C451.156,151.449 450.926,129.868 443.999,113.124 C441.798,107.801 442.181,105.544 444.567,105.544 C447.138,105.544 452.034,108.16 458.533,112.38 C458.867,112.601 459.199,112.821 459.533,113.043 C461.58,114.404 463.609,115.774 465.608,117.144 C468.875,119.403 472.403,121.905 476.126,124.559 C490.009,134.625 502.62,144.92 513.877,155.314 C489.913,142.823 463.394,126.343 450.353,114.402 C454.092,127.863 456.123,153.49 456.643,172.909" fill="#847F5F"/>
    <path d="M568.284,224.871 C556.527,217.554 542.658,213.239 528.201,211.95 C520.765,206.15 512.594,200.722 503.871,195.634 C505.092,195.572 506.327,195.539 507.58,195.539 C524.495,195.539 544.319,201.441 565.493,219.368 C566.47,221.207 567.4,223.04 568.284,224.871" fill="#FBF2BC"/>
    <g clip-path="url(#Clip_3)">
      <path d="M179.804,292.26 L179.16,292.26 C178.587,292.24 178.008,292.167 177.428,292.035 C172.478,290.901 169.391,285.969 170.516,281.01 C170.715,280.142 171.032,279.331 171.445,278.59 C175.019,277.289 178.497,275.808 181.871,274.191 C185.937,275.277 188.67,278.963 188.678,283.035 L188.678,283.041 C188.679,283.724 188.603,284.419 188.444,285.114 C187.493,289.274 183.869,292.116 179.804,292.26" fill="#CB914C"/>
    </g>
    <path d="M171.445,278.59 C173.054,275.703 176.131,273.876 179.465,273.873 L179.476,273.873 C180.155,273.873 180.843,273.949 181.532,274.107 C181.646,274.133 181.759,274.161 181.871,274.191 C178.497,275.808 175.019,277.289 171.445,278.59" fill="#725F42"/>
    <g clip-path="url(#Clip_4)">
      <path d="M366.713,392.997 L366.701,392.997 C366.023,392.997 365.335,392.921 364.646,392.763 C360.394,391.789 357.511,388.013 357.5,383.831 L357.5,383.814 C357.499,383.132 357.575,382.44 357.734,381.747 C358.71,377.485 362.496,374.604 366.695,374.604 C367.373,374.604 368.061,374.679 368.75,374.835 C373.7,375.969 376.787,380.901 375.653,385.851 C374.685,390.108 370.902,392.994 366.713,392.997" fill="#C5854D"/>
    </g>
    <g clip-path="url(#Clip_5)">
      <path d="M357.508,347.139 C356.832,347.139 356.145,347.064 355.457,346.908 C350.507,345.774 347.402,340.842 348.536,335.901 C349.519,331.635 353.307,328.748 357.498,328.746 L357.503,328.746 C358.182,328.746 358.871,328.822 359.561,328.98 C364.511,330.123 367.589,335.046 366.464,339.996 C365.488,344.258 361.701,347.139 357.508,347.139" fill="#CB914C"/>
    </g>
    <g clip-path="url(#Clip_6)">
      <path d="M196.912,356.337 C196.236,356.337 195.549,356.262 194.861,356.106 C189.911,354.972 186.806,350.04 187.94,345.09 C188.923,340.833 192.709,337.947 196.898,337.944 L196.91,337.944 C197.588,337.944 198.276,338.02 198.965,338.178 C203.11,339.137 205.95,342.756 206.093,346.82 L206.093,347.462 C206.073,348.035 206,348.614 205.868,349.194 C204.892,353.456 201.105,356.337 196.912,356.337" fill="#C5854D"/>
    </g>
    <path d="M289.841,358.707 L289.836,358.707 C289.498,358.707 289.155,358.669 288.812,358.59 C286.328,358.023 284.789,355.557 285.347,353.082 C285.835,350.953 287.728,349.51 289.829,349.509 L289.833,349.509 C290.173,349.509 290.518,349.547 290.864,349.626 C293.33,350.193 294.887,352.659 294.311,355.134 C293.823,357.263 291.93,358.706 289.841,358.707" fill="#BC814B"/>
    <g clip-path="url(#Clip_7)">
      <path d="M210.049,147.261 C209.129,147.261 208.197,147.159 207.263,146.946 C200.549,145.407 196.355,138.711 197.885,131.997 C199.21,126.209 204.351,122.295 210.045,122.295 C210.965,122.295 211.899,122.397 212.834,122.61 C218.464,123.9 222.321,128.817 222.518,134.329 L222.518,135.214 C222.49,135.99 222.391,136.774 222.212,137.559 C220.887,143.347 215.739,147.261 210.049,147.261" fill="#C18C49"/>
    </g>
    <path d="M497.092,360.084 L496.961,360.084 C495.967,360.078 494.958,359.964 493.949,359.733 C489.477,358.708 486.014,355.621 484.338,351.704 C493.567,350.188 502.427,348.359 510.815,346.202 C510.815,346.215 510.815,346.229 510.815,346.242 L510.815,346.266 C510.816,347.288 510.702,348.326 510.464,349.365 C509.005,355.743 503.351,360.06 497.092,360.084" fill="#BC814B"/>
    <path d="M484.338,351.704 C483.625,350.038 483.236,348.221 483.23,346.35 L483.23,346.301 C483.23,345.284 483.344,344.252 483.581,343.218 C485.044,336.841 490.712,332.514 496.998,332.508 L497.032,332.508 C498.046,332.509 499.075,332.623 500.105,332.859 C506.462,334.317 510.782,339.947 510.815,346.202 C502.427,348.359 493.567,350.188 484.338,351.704" fill="#C18C49"/>
    <path d="M305.12,64.995 C317.129,67.74 324.646,79.702 321.892,91.71 C319.147,103.729 307.183,111.236 295.167,108.483 C283.158,105.737 275.649,93.775 278.395,81.767 C281.148,69.749 293.111,62.241 305.12,64.995" fill="#FFFFFE"/>
    <path d="M179.334,193.928 C185.813,195.404 189.86,201.86 188.382,208.329 C186.905,214.8 180.452,218.854 173.973,217.37 C167.503,215.893 163.449,209.439 164.935,202.967 C166.41,196.491 172.866,192.443 179.334,193.928" fill="#FFFFFE"/>
    <path d="M485.133,158.159 C489.725,159.207 492.594,163.792 491.549,168.375 C490.493,172.967 485.916,175.846 481.332,174.791 C476.736,173.746 473.86,169.16 474.916,164.575 C475.963,159.982 480.548,157.103 485.133,158.159" fill="#FFFFFE"/>
    <path d="M306.213,149.626 C310.804,150.672 313.674,155.258 312.629,159.84 C311.575,164.433 306.994,167.312 302.412,166.257 C297.817,165.212 294.94,160.626 295.996,156.041 C297.041,151.448 301.628,148.569 306.213,149.626" fill="#FFFFFE"/>
    <path d="M306.216,319.68 C310.801,320.726 313.679,325.302 312.624,329.898 C311.579,334.488 307.001,337.359 302.408,336.313 C297.817,335.259 294.948,330.682 295.992,326.089 C297.047,321.504 301.625,318.626 306.216,319.68" fill="#FFFFFE"/>
  </g>
</svg>
