<?xml version="1.0" encoding="UTF-8" standalone="no"?>
<!-- Created with Inkscape (http://www.inkscape.org/) -->

<svg
   xmlns:dc="http://purl.org/dc/elements/1.1/"
   xmlns:cc="http://creativecommons.org/ns#"
   xmlns:rdf="http://www.w3.org/1999/02/22-rdf-syntax-ns#"
   xmlns:svg="http://www.w3.org/2000/svg"
   xmlns="http://www.w3.org/2000/svg"
   xmlns:sodipodi="http://sodipodi.sourceforge.net/DTD/sodipodi-0.dtd"
   xmlns:inkscape="http://www.inkscape.org/namespaces/inkscape"
   width="300"
   height="300"
   id="svg3005"
   version="1.1"
   inkscape:version="0.92.4 5da689c313, 2019-01-14"
   sodipodi:docname="cattleya-08B.svg"
   viewBox="0 0 281.25 281.25">
  <defs
     id="defs3007" />
  <sodipodi:namedview
     id="base"
     pagecolor="#ffffff"
     bordercolor="#666666"
     borderopacity="1.0"
     inkscape:pageopacity="0.0"
     inkscape:pageshadow="2"
     inkscape:zoom="1.6666667"
     inkscape:cx="150"
     inkscape:cy="150"
     inkscape:document-units="px"
     inkscape:current-layer="layer1"
     showgrid="false"
     inkscape:window-width="1366"
     inkscape:window-height="720"
     inkscape:window-x="0"
     inkscape:window-y="28"
     inkscape:window-maximized="1"
     inkscape:snap-global="false" />
  <metadata
     id="metadata3010">
    <rdf:RDF>
      <cc:Work
         rdf:about="">
        <dc:format>image/svg+xml</dc:format>
        <dc:type
           rdf:resource="http://purl.org/dc/dcmitype/StillImage" />
        <dc:title />
        <dc:date>2020</dc:date>
        <dc:creator>
          <cc:Agent>
            <dc:title>jpenrici</dc:title>
          </cc:Agent>
        </dc:creator>
        <dc:publisher>
          <cc:Agent>
            <dc:title>Open Clip Art Library</dc:title>
          </cc:Agent>
        </dc:publisher>
        <cc:license
           rdf:resource="http://creativecommons.org/publicdomain/zero/1.0/" />
        <dc:subject>
          <rdf:Bag>
            <rdf:li>plant</rdf:li>
            <rdf:li>flora</rdf:li>
            <rdf:li>nature</rdf:li>
            <rdf:li>clip art</rdf:li>
            <rdf:li>clipart</rdf:li>
            <rdf:li>svg</rdf:li>
          </rdf:Bag>
        </dc:subject>
      </cc:Work>
      <cc:License
         rdf:about="http://creativecommons.org/publicdomain/zero/1.0/">
        <cc:permits
           rdf:resource="http://creativecommons.org/ns#Reproduction" />
        <cc:permits
           rdf:resource="http://creativecommons.org/ns#Distribution" />
        <cc:permits
           rdf:resource="http://creativecommons.org/ns#DerivativeWorks" />
      </cc:License>
    </rdf:RDF>
  </metadata>
  <g
     inkscape:label="Camada 1"
     inkscape:groupmode="layer"
     id="layer1"
     transform="translate(0,-771.11218)">
    <g
       id="g2653"
       transform="matrix(1.0018466,0,0,1.0018466,-0.62345,2.1609579)"
       style="stroke:none">
      <path
         sodipodi:nodetypes="caaaaccccaaaacc"
         inkscape:connector-curvature="0"
         id="path2599"
         d="m 18.249045,1016.4009 c 0,0 20.405876,-7.9209 31.130725,-9.6613 16.957469,-2.7518 34.383801,-2.191 51.52672,-1.0735 16.61415,1.083 32.74151,6.9047 49.37976,7.5144 27.61747,1.012 55.9236,0.5627 82.65744,-6.4409 10.68569,-2.7994 30.05726,-13.95515 30.05726,-13.95515 l 4.29389,17.17555 -4.29389,11.8082 11.8082,10.7348 c 0,0 -15.92609,8.8028 -24.68988,10.7347 -29.36088,6.4722 -60.10811,1.7891 -90.17175,2.147 -25.40374,0.3024 -51.23063,4.5981 -76.216606,0 -7.908311,-1.4553 -14.546681,-7.7397 -22.542939,-8.5878 -9.360392,-0.9928 -27.910305,4.2939 -27.910305,4.2939 z"
         style="fill:#483e37;stroke:none;stroke-width:0.9375px;stroke-linecap:butt;stroke-linejoin:miter;stroke-opacity:1" />
      <path
         style="fill:#222b00;stroke:none;stroke-width:0.83027983px;stroke-linecap:butt;stroke-linejoin:miter;stroke-opacity:1"
         d="m 96.69116,1008.7367 c 19.45024,0.7255 38.33061,4.6259 57.80905,5.0344 32.33187,0.678 65.46995,0.377 96.76736,-4.3152 -37.43459,17.6632 -8.25421,25.618 -85.45688,25.8913 -29.74024,0.2026 -59.97588,3.0806 -89.227041,0 -32.28548,-15.0275 3.076732,-33.4521 20.107511,-26.6105 z"
         id="path2601"
         inkscape:connector-curvature="0"
         sodipodi:nodetypes="cacccc" />
      <g
         inkscape:transform-center-x="1.3143381"
         inkscape:transform-center-y="-87.440968"
         transform="matrix(0.33844685,-0.00625698,0.00625698,0.33844685,152.12001,608.2431)"
         id="g2597"
         style="stroke:none">
        <g
           transform="matrix(-1.5517242,1.7073046,1.4842414,1.1766369,-1902.6752,-411.7407)"
           id="g1971"
           style="fill:#557b18;fill-opacity:1;stroke:none"
           inkscape:transform-center-x="101.87903"
           inkscape:transform-center-y="-95.693483">
          <path
             style="fill:#557b18;fill-opacity:1;stroke:none;stroke-width:0.9375px;stroke-linecap:butt;stroke-linejoin:miter;stroke-opacity:1"
             d="m 34.91677,1274.0078 c -10.983141,-14.7014 -9.848924,-13.6175 1.897651,-32.6396 -1.038092,-10.2941 -23.714202,4.2008 -31.8805296,-2.6567 -25.5435334,-21.4496 -71.7384104,-90.0549 -25.4285174,-96.7802 17.9821641,-57.9832 42.595574,-18.8122 74.387902,73.2493 3.185536,9.2244 -14.387157,16.9542 -11.765434,26.5671 8.315762,11.2776 13.014763,22.3648 2.277181,32.6396 z"
             id="path1967"
             inkscape:connector-curvature="0"
             sodipodi:nodetypes="ccacsccc" />
        </g>
        <g
           transform="matrix(1.2751498,0,0,1.1526708,328.16216,-301.55893)"
           id="g1873"
           style="stroke:none">
          <path
             inkscape:connector-curvature="0"
             id="path1867"
             d="m -232.20174,1356.7449 c -0.2162,0.03 -0.42434,0 -0.61338,-0.1202 -5.15749,-3.2258 -1.39797,-12.1993 -0.66088,-18.2377 0.29955,-2.4541 3.32578,-5.0158 2.04412,-7.13 -1.2843,-2.1185 -4.87613,-0.8992 -7.28226,-1.4894 -2.86448,-0.7028 -5.59313,-1.9691 -8.50482,-2.4395 -0.04,-0.01 -0.0825,0 -0.12295,-0.01 0.17692,1.7292 0.14939,3.4502 -0.24591,5.1557 -0.20137,0.8688 -0.64096,2.2064 -1.53274,2.1936 -6.08262,-0.087 -7.51583,-9.7094 -10.0138,-15.2561 -1.01521,-2.2542 0.24665,-6.0136 -1.94492,-7.1579 -2.19611,-1.1467 -4.63617,1.7579 -7.00002,2.4996 -2.81416,0.8829 -5.80558,1.2118 -8.53974,2.3179 -1.19887,0.4851 -2.12843,1.8795 -3.36588,2.0148 4.7829,-0.1025 9.5479,-0.021 12.15293,3.018 1.42035,1.6566 2.01749,4.7395 0.73354,6.5041 -1.8688,2.5682 -6.93313,-0.1781 -9.33756,1.8973 -1.81286,1.5647 -1.57897,4.5218 -2.44232,6.7556 -2.26918,5.871 -2.79905,12.9524 -7.19143,17.4609 -0.62237,0.6388 -1.69036,1.5556 -2.44652,1.0828 -5.15749,-3.2259 -1.39797,-12.1993 -0.66088,-18.2378 0.29956,-2.454 3.32578,-5.0157 2.04412,-7.1299 -1.2843,-2.1186 -4.87613,-0.8992 -7.28226,-1.4895 -2.86448,-0.7027 -5.59314,-1.9704 -8.50481,-2.4408 -1.37948,-0.2229 -3.04176,0.6275 -4.18884,-0.1705 -2.51738,-1.7514 -4.63238,-5.621 -3.54751,-8.4895 1.10821,-2.9301 6.19915,-1.928 8.45591,-4.1008 2.38505,-2.2965 2.89282,-5.9723 4.66947,-8.7661 4.28299,-6.7351 7.48331,-19.2243 12.44774,-25.4642 -1.3547,-9.3236 -1.81688,-18.0734 5.45192,-19.3052 3.05481,-0.5177 3.20028,5.4167 3.91218,8.4322 0.57358,2.4296 0.47964,5.1199 0.11038,7.8998 2.12377,1.4829 -0.55192,6.2255 -1.4517,9.0079 -0.15802,0.4885 -0.35438,0.9698 -0.56726,1.4489 -1.24796,6.3435 -1.71197,12.1573 2.8992,15.5285 7.23285,5.2879 17.32793,-10.1976 25.84,-7.401 2.07315,0.6811 4.18286,3.0092 3.99881,5.1836 -0.26788,3.1649 -6.02425,3.4385 -7.00561,6.4594 -0.73991,2.2775 0.99236,4.6868 1.41119,7.0447 0.13339,0.7509 0.29854,1.5035 0.48204,2.2578 1.32851,-0.3021 2.62721,-0.6658 3.5014,-1.5076 2.38505,-2.2964 2.89422,-5.9722 4.67087,-8.766 6.40903,-10.0783 10.386,-33.062 21.49188,-28.668 2.88106,1.14 -0.068,6.2904 -1.02136,9.2384 -3.47705,10.752 -21.05508,19.0659 -16.70783,29.4964 3.44688,8.2701 20.10464,0.2554 25.9364,7.0574 1.42035,1.6566 2.0175,4.7409 0.73354,6.5054 -1.8688,2.5682 -6.93313,-0.1794 -9.33756,1.896 -1.81286,1.5647 -1.58037,4.5217 -2.44372,6.7555 -2.26918,5.8711 -2.79766,12.9525 -7.19004,17.461 -0.46677,0.479 -1.18456,1.1146 -1.83313,1.2029 z m -51.46902,-37.5891 c 1.10205,0 2.23473,-0.036 3.36868,-0.062 -3.05847,-0.199 -6.86318,-2.4083 -7.42059,-5.4198 -0.57019,-3.0804 4.30225,-4.8609 5.1068,-7.8886 0.85029,-3.1998 -0.61848,-6.6073 -0.5463,-9.9174 0.007,-0.3349 0.006,-0.68 0,-1.0297 -6.06513,6.7327 -13.62717,12.9609 -10.60622,20.2092 1.50801,3.6182 5.54523,4.1194 10.09763,4.1078 z"
             style="opacity:1;fill:#803300;fill-opacity:1;stroke:none;stroke-width:0.40556484;stroke-miterlimit:4;stroke-dasharray:none;stroke-opacity:1" />
          <path
             style="opacity:1;fill:#803300;fill-opacity:1;stroke:none;stroke-width:0.40556484;stroke-miterlimit:4;stroke-dasharray:none;stroke-opacity:1"
             d="m -126.26344,1332.3099 c -0.16502,0.1428 -0.35594,0.231 -0.57995,0.2331 -6.08236,0.102 -7.81416,-9.4719 -10.48329,-14.9383 -1.08479,-2.2216 0.059,-6.0179 -2.16707,-7.0936 -2.23064,-1.0778 -4.57971,1.9004 -6.91932,2.7153 -2.78538,0.97 -5.76361,1.3933 -8.46206,2.5839 -0.039,0.013 -0.0692,0.045 -0.10858,0.059 1.08981,1.3541 2.00366,2.8127 2.60059,4.4585 0.30407,0.8384 0.66355,2.1997 -0.0915,2.6745 -5.14956,3.2385 -11.59037,-4.0526 -16.70542,-7.3454 -2.0788,-1.3381 -3.06703,-5.1785 -5.52832,-4.9452 -2.46642,0.2337 -2.93185,3.9985 -4.51089,5.9076 -1.87989,2.2727 -4.21007,4.1771 -5.90134,6.5935 -0.74153,1.0596 -0.76212,2.7353 -1.72645,3.5225 3.95616,-2.6899 7.99747,-5.2157 11.8371,-4.0848 2.09329,0.6163 4.27257,2.8772 4.15625,5.0564 -0.1694,3.1716 -5.91257,3.6251 -6.79955,6.675 -0.6688,2.2995 1.13729,4.6526 1.62922,6.9964 1.29287,6.16 4.70364,12.3885 3.47376,18.5615 -0.17427,0.8747 -0.57099,2.2252 -1.46268,2.2402 -6.0824,0.1019 -7.81415,-9.4718 -10.48334,-14.9383 -1.08473,-2.2215 0.0591,-6.0178 -2.16701,-7.0935 -2.2307,-1.0779 -4.57971,1.9004 -6.91937,2.7152 -2.78533,0.97 -5.76433,1.3922 -8.46278,2.5828 -1.27847,0.564 -2.20984,2.1823 -3.60647,2.1374 -3.06511,-0.098 -6.94588,-2.193 -7.59754,-5.1897 -0.66562,-3.0612 4.15029,-4.9922 4.86038,-8.0434 0.75035,-3.2248 -0.82489,-6.5845 -0.85561,-9.8953 -0.0741,-7.9812 -4.18895,-20.1996 -3.42184,-28.1365 -6.21228,-7.0832 -11.36352,-14.171 -5.93696,-19.1616 2.28057,-2.0973 5.63339,2.8013 7.87224,4.9432 1.80384,1.7257 3.18969,4.0335 4.39338,6.5664 2.58877,0.088 2.92631,5.5225 3.68636,8.3463 0.1334,0.4958 0.23072,1.0064 0.31298,1.5242 2.40671,6.0004 5.18263,11.1297 10.88589,11.4471 8.94585,0.4979 8.98314,-17.9875 17.64571,-20.2758 2.10979,-0.5574 5.1469,0.2469 6.17631,2.171 1.49833,2.8006 -3.18124,6.164 -2.35979,9.2322 0.61927,2.3133 3.38398,3.3911 5.01899,5.141 0.52069,0.5572 1.06895,1.0986 1.63352,1.6314 0.94991,-0.9767 1.84127,-1.9888 2.11627,-3.1708 0.75041,-3.2247 -0.82367,-6.5853 -0.85439,-9.896 -0.11083,-11.943 -9.28764,-33.3872 2.4203,-35.7477 3.03731,-0.6122 3.36757,5.3135 4.17283,8.3054 2.93699,10.9119 -7.28147,27.4555 2.04362,33.838 7.39368,5.0605 17.00309,-10.7311 25.59798,-8.2004 2.09329,0.6163 4.27334,2.8784 4.15696,5.0575 -0.1694,3.1716 -5.91327,3.624 -6.80025,6.6739 -0.6688,2.2995 1.13606,4.6533 1.628,6.997 1.29291,6.1602 4.70486,12.3878 3.47498,18.5609 -0.13076,0.6559 -0.38682,1.5799 -0.88278,2.007 z m -63.63712,-3.5096 c 0.92441,-0.6 1.85492,-1.2468 2.79194,-1.886 -2.67382,1.4982 -7.06805,1.7163 -9.17513,-0.5063 -2.15531,-2.2734 0.96243,-6.4196 -0.011,-9.3973 -1.0288,-3.1469 -4.11593,-5.2056 -5.85746,-8.0214 -0.17621,-0.2849 -0.36526,-0.5736 -0.56059,-0.8637 -1.42211,8.9494 -4.3745,18.2906 2.10562,22.7259 3.23475,2.214 6.89409,0.4365 10.70639,-2.0516 z"
             id="path1869"
             inkscape:connector-curvature="0" />
          <path
             style="opacity:1;fill:#4f691b;fill-opacity:1;stroke:none;stroke-width:0.53149605;stroke-miterlimit:4;stroke-dasharray:none;stroke-opacity:1"
             d="m -185.74427,1258.0455 c -0.28332,-0.039 -0.55609,0 -0.80383,0.1575 -6.75893,4.2275 -1.83205,15.9873 -0.86609,23.9007 0.39257,3.2161 4.35847,6.5732 2.67883,9.3439 -1.68308,2.7764 -6.3902,1.1784 -9.54346,1.9519 -3.75392,0.921 -7.32984,2.5805 -11.14563,3.197 -0.0524,0.01 -0.10808,0 -0.16112,0.011 0.23185,-2.2661 0.19576,-4.5215 -0.32227,-6.7566 -0.26391,-1.1386 -0.83999,-2.8915 -2.00867,-2.8747 -7.97133,0.1142 -9.84956,12.7242 -13.12317,19.9932 -1.33044,2.9542 0.32323,7.8809 -2.54883,9.3805 -2.87803,1.5028 -6.07574,-2.3037 -9.17359,-3.2757 -3.68798,-1.1571 -7.60826,-1.5881 -11.1914,-3.0377 -1.57112,-0.6357 -2.78932,-2.4631 -4.41101,-2.6404 6.26804,0.1344 12.5126,0.027 15.92652,-3.9551 1.86138,-2.171 2.64393,-6.2112 0.9613,-8.5236 -2.44908,-3.3657 -9.08592,0.2333 -12.23694,-2.4865 -2.37577,-2.0506 -2.06926,-5.9258 -3.20068,-8.8532 -2.97378,-7.6941 -3.66819,-16.9743 -9.42444,-22.8827 -0.81561,-0.8371 -2.21522,-2.0387 -3.20618,-1.419 -6.75893,4.2275 -1.83205,15.9873 -0.86608,23.9007 0.39256,3.2161 4.35845,6.5732 2.67883,9.3439 -1.68309,2.7764 -6.39021,1.1784 -9.54346,1.9519 -3.75392,0.921 -7.32986,2.5823 -11.14563,3.1988 -1.80782,0.2921 -3.98625,-0.8224 -5.4895,0.2234 -3.29905,2.2952 -6.07078,7.3664 -4.64905,11.1255 1.45232,3.84 8.12404,2.5267 11.08154,5.3742 3.12563,3.0095 3.79107,7.8267 6.11938,11.488 5.6129,8.8264 9.80695,25.1936 16.31287,33.371 -1.77535,12.2187 -2.38104,23.6854 7.14478,25.2997 4.00336,0.6784 4.194,-7.0987 5.12695,-11.0505 0.75168,-3.184 0.62857,-6.7096 0.14465,-10.3527 2.78322,-1.9434 -0.7233,-8.1586 -1.90246,-11.8049 -0.20709,-0.6403 -0.46442,-1.271 -0.74341,-1.8988 -1.63546,-8.3133 -2.24355,-15.9323 3.79944,-20.3503 9.4787,-6.9298 22.70838,13.364 33.86353,9.6991 2.71687,-0.8926 5.48166,-3.9436 5.24047,-6.7932 -0.35105,-4.1476 -7.89483,-4.5062 -9.18091,-8.465 -0.96965,-2.9848 1.30049,-6.1422 1.84937,-9.2322 0.17482,-0.9841 0.39124,-1.9704 0.63172,-2.9589 1.74103,0.3959 3.44299,0.8726 4.58862,1.9757 3.12562,3.0095 3.79289,7.8267 6.12121,11.488 8.39908,13.2077 13.61093,43.328 28.16528,37.5696 3.77565,-1.4939 -0.0891,-8.2436 -1.33849,-12.107 -4.55671,-14.0905 -27.59286,-24.986 -21.89576,-38.6553 4.51717,-10.838 26.3473,-0.3347 33.98987,-9.2487 1.86138,-2.171 2.64395,-6.213 0.96131,-8.5254 -2.44908,-3.3657 -9.08593,0.2351 -12.23695,-2.4847 -2.37576,-2.0506 -2.07109,-5.9258 -3.20251,-8.8532 -2.97378,-7.6941 -3.66635,-16.9743 -9.4226,-22.8827 -0.61171,-0.6278 -1.55238,-1.4607 -2.40235,-1.5765 z m -67.45056,49.2608 c 1.44424,0 2.92862,0.047 4.41467,0.081 -4.00814,0.2608 -8.99424,3.1562 -9.72473,7.1027 -0.74724,4.0369 5.63813,6.3703 6.6925,10.3381 1.11431,4.1934 -0.81053,8.6589 -0.71594,12.9968 0.01,0.439 0.008,0.8912 0,1.3495 -7.94839,-8.8233 -17.85851,-16.9854 -13.89953,-26.4843 1.97626,-4.7417 7.26707,-5.3985 13.23303,-5.3834 z"
             id="path1871"
             inkscape:connector-curvature="0" />
        </g>
        <g
           inkscape:transform-center-y="-256.36309"
           inkscape:transform-center-x="-94.328309"
           transform="matrix(1.4545661,0.62104186,-0.62104186,1.4545661,1023.3878,-492.22462)"
           id="g1853"
           style="stroke:none">
          <path
             style="fill:#68a201;fill-opacity:1;stroke:none;stroke-width:0.9375px;stroke-linecap:butt;stroke-linejoin:miter;stroke-opacity:1"
             d="m -201.14672,1219.1324 14.2308,-21.9867 5.18359,-25.4185 c -11.74391,-32.6596 -4.93455,-63.7834 6.40298,-94.5322 l 18.43028,-3.6765 c 37.12759,20.8635 3.81231,75.5409 -13.72233,122.6434 l -14.15403,24.7224 c -11.01974,9.0658 -14.95669,5.8448 -16.37129,-1.7519 z"
             id="path1843"
             inkscape:connector-curvature="0"
             sodipodi:nodetypes="cccccccc"
             inkscape:transform-center-x="-19.799951"
             inkscape:transform-center-y="-71.793295" />
          <path
             sodipodi:nodetypes="ccccccccc"
             style="fill:#466f00;fill-opacity:1;stroke:none;stroke-width:0.9375px;stroke-linecap:butt;stroke-linejoin:miter;stroke-opacity:1"
             d="m -178.61714,1091.2971 c 12.35757,-41.0328 47.83187,-4.7146 33.81342,31.3183 -1.05546,2.1891 -11.70353,33.8067 -11.70353,33.8067 l -8.55767,19.8593 -7.82096,17.3843 c -7.19051,17.0087 -10.12371,19.5559 -23.52213,30.6202 0.54785,-14.8117 11.99551,-13.4233 15.43406,-26.0955 l 3.02239,-9.4403 c 6.50054,-37.2262 49.0768,-116.3528 -0.66558,-97.453 z"
             id="path1845"
             inkscape:connector-curvature="0"
             inkscape:transform-center-x="-21.506046"
             inkscape:transform-center-y="-66.232534" />
          <g
             id="g1851"
             transform="matrix(1.3396119,0,0,1.7023694,-218.776,-1047.7252)"
             style="stroke:none">
            <path
               style="fill:#777f2a;fill-opacity:1;stroke:none;stroke-width:0.9375px;stroke-linecap:butt;stroke-linejoin:miter;stroke-opacity:1"
               d="m 36.814421,1241.3682 c -1.038092,-10.2941 -23.714202,4.2008 -31.8805296,-2.6567 -25.5435334,-21.4496 -71.7384104,-90.0549 -25.4285174,-96.7802 22.3383728,-48.012 67.880451,39.0637 74.387902,73.2493 1.811128,9.5144 -14.387157,16.9542 -11.765434,26.5671 30.735912,10.748 -29.197775,22.8723 -5.313421,-0.3795 z"
               id="path1847"
               inkscape:connector-curvature="0"
               sodipodi:nodetypes="cacacc" />
            <path
               style="fill:#4f691b;fill-opacity:1;stroke:none;stroke-width:0.9375px;stroke-linecap:butt;stroke-linejoin:miter;stroke-opacity:1"
               d="m 37.571564,1244.2455 2.146946,2.4153 2.146947,-3.4887 -1.610209,-8.3195 -56.625715,-89.635 53.405294,90.1718 z"
               id="path1849"
               inkscape:connector-curvature="0" />
          </g>
        </g>
        <g
           id="g1703"
           transform="matrix(1.2636852,0,0,0.96607316,129.22514,-68.960186)"
           style="stroke:none">
          <path
             style="opacity:1;fill:#803300;fill-opacity:1;stroke:none;stroke-width:0.40556484;stroke-miterlimit:4;stroke-dasharray:none;stroke-opacity:1"
             d="m -232.20174,1356.7449 c -0.2162,0.03 -0.42434,0 -0.61338,-0.1202 -5.15749,-3.2258 -1.39797,-12.1993 -0.66088,-18.2377 0.29955,-2.4541 3.32578,-5.0158 2.04412,-7.13 -1.2843,-2.1185 -4.87613,-0.8992 -7.28226,-1.4894 -2.86448,-0.7028 -5.59313,-1.9691 -8.50482,-2.4395 -0.04,-0.01 -0.0825,0 -0.12295,-0.01 0.17692,1.7292 0.14939,3.4502 -0.24591,5.1557 -0.20137,0.8688 -0.64096,2.2064 -1.53274,2.1936 -6.08262,-0.087 -7.51583,-9.7094 -10.0138,-15.2561 -1.01521,-2.2542 0.24665,-6.0136 -1.94492,-7.1579 -2.19611,-1.1467 -4.63617,1.7579 -7.00002,2.4996 -2.81416,0.8829 -5.80558,1.2118 -8.53974,2.3179 -1.19887,0.4851 -2.12843,1.8795 -3.36588,2.0148 4.7829,-0.1025 9.5479,-0.021 12.15293,3.018 1.42035,1.6566 2.01749,4.7395 0.73354,6.5041 -1.8688,2.5682 -6.93313,-0.1781 -9.33756,1.8973 -1.81286,1.5647 -1.57897,4.5218 -2.44232,6.7556 -2.26918,5.871 -2.79905,12.9524 -7.19143,17.4609 -0.62237,0.6388 -1.69036,1.5556 -2.44652,1.0828 -5.15749,-3.2259 -1.39797,-12.1993 -0.66088,-18.2378 0.29956,-2.454 3.32578,-5.0157 2.04412,-7.1299 -1.2843,-2.1186 -4.87613,-0.8992 -7.28226,-1.4895 -2.86448,-0.7027 -5.59314,-1.9704 -8.50481,-2.4408 -1.37948,-0.2229 -3.04176,0.6275 -4.18884,-0.1705 -2.51738,-1.7514 -4.63238,-5.621 -3.54751,-8.4895 1.10821,-2.9301 6.19915,-1.928 8.45591,-4.1008 2.38505,-2.2965 2.89282,-5.9723 4.66947,-8.7661 4.28299,-6.7351 7.48331,-19.2243 12.44774,-25.4642 -1.3547,-9.3236 -1.81688,-18.0734 5.45192,-19.3052 3.05481,-0.5177 3.20028,5.4167 3.91218,8.4322 0.57358,2.4296 0.47964,5.1199 0.11038,7.8998 2.12377,1.4829 -0.55192,6.2255 -1.4517,9.0079 -0.15802,0.4885 -0.35438,0.9698 -0.56726,1.4489 -1.24796,6.3435 -1.71197,12.1573 2.8992,15.5285 7.23285,5.2879 17.32793,-10.1976 25.84,-7.401 2.07315,0.6811 4.18286,3.0092 3.99881,5.1836 -0.26788,3.1649 -6.02425,3.4385 -7.00561,6.4594 -0.73991,2.2775 0.99236,4.6868 1.41119,7.0447 0.13339,0.7509 0.29854,1.5035 0.48204,2.2578 1.32851,-0.3021 2.62721,-0.6658 3.5014,-1.5076 2.38505,-2.2964 2.89422,-5.9722 4.67087,-8.766 6.40903,-10.0783 10.386,-33.062 21.49188,-28.668 2.88106,1.14 -0.068,6.2904 -1.02136,9.2384 -3.47705,10.752 -21.05508,19.0659 -16.70783,29.4964 3.44688,8.2701 20.10464,0.2554 25.9364,7.0574 1.42035,1.6566 2.0175,4.7409 0.73354,6.5054 -1.8688,2.5682 -6.93313,-0.1794 -9.33756,1.896 -1.81286,1.5647 -1.58037,4.5217 -2.44372,6.7555 -2.26918,5.8711 -2.79766,12.9525 -7.19004,17.461 -0.46677,0.479 -1.18456,1.1146 -1.83313,1.2029 z m -51.46902,-37.5891 c 1.10205,0 2.23473,-0.036 3.36868,-0.062 -3.05847,-0.199 -6.86318,-2.4083 -7.42059,-5.4198 -0.57019,-3.0804 4.30225,-4.8609 5.1068,-7.8886 0.85029,-3.1998 -0.61848,-6.6073 -0.5463,-9.9174 0.007,-0.3349 0.006,-0.68 0,-1.0297 -6.06513,6.7327 -13.62717,12.9609 -10.60622,20.2092 1.50801,3.6182 5.54523,4.1194 10.09763,4.1078 z"
             id="path1696"
             inkscape:connector-curvature="0" />
          <path
             inkscape:connector-curvature="0"
             id="path1698"
             d="m -126.26344,1332.3099 c -0.16502,0.1428 -0.35594,0.231 -0.57995,0.2331 -6.08236,0.102 -7.81416,-9.4719 -10.48329,-14.9383 -1.08479,-2.2216 0.059,-6.0179 -2.16707,-7.0936 -2.23064,-1.0778 -4.57971,1.9004 -6.91932,2.7153 -2.78538,0.97 -5.76361,1.3933 -8.46206,2.5839 -0.039,0.013 -0.0692,0.045 -0.10858,0.059 1.08981,1.3541 2.00366,2.8127 2.60059,4.4585 0.30407,0.8384 0.66355,2.1997 -0.0915,2.6745 -5.14956,3.2385 -11.59037,-4.0526 -16.70542,-7.3454 -2.0788,-1.3381 -3.06703,-5.1785 -5.52832,-4.9452 -2.46642,0.2337 -2.93185,3.9985 -4.51089,5.9076 -1.87989,2.2727 -4.21007,4.1771 -5.90134,6.5935 -0.74153,1.0596 -0.76212,2.7353 -1.72645,3.5225 3.95616,-2.6899 7.99747,-5.2157 11.8371,-4.0848 2.09329,0.6163 4.27257,2.8772 4.15625,5.0564 -0.1694,3.1716 -5.91257,3.6251 -6.79955,6.675 -0.6688,2.2995 1.13729,4.6526 1.62922,6.9964 1.29287,6.16 4.70364,12.3885 3.47376,18.5615 -0.17427,0.8747 -0.57099,2.2252 -1.46268,2.2402 -6.0824,0.1019 -7.81415,-9.4718 -10.48334,-14.9383 -1.08473,-2.2215 0.0591,-6.0178 -2.16701,-7.0935 -2.2307,-1.0779 -4.57971,1.9004 -6.91937,2.7152 -2.78533,0.97 -5.76433,1.3922 -8.46278,2.5828 -1.27847,0.564 -2.20984,2.1823 -3.60647,2.1374 -3.06511,-0.098 -6.94588,-2.193 -7.59754,-5.1897 -0.66562,-3.0612 4.15029,-4.9922 4.86038,-8.0434 0.75035,-3.2248 -0.82489,-6.5845 -0.85561,-9.8953 -0.0741,-7.9812 -4.18895,-20.1996 -3.42184,-28.1365 -6.21228,-7.0832 -11.36352,-14.171 -5.93696,-19.1616 2.28057,-2.0973 5.63339,2.8013 7.87224,4.9432 1.80384,1.7257 3.18969,4.0335 4.39338,6.5664 2.58877,0.088 2.92631,5.5225 3.68636,8.3463 0.1334,0.4958 0.23072,1.0064 0.31298,1.5242 2.40671,6.0004 5.18263,11.1297 10.88589,11.4471 8.94585,0.4979 8.98314,-17.9875 17.64571,-20.2758 2.10979,-0.5574 5.1469,0.2469 6.17631,2.171 1.49833,2.8006 -3.18124,6.164 -2.35979,9.2322 0.61927,2.3133 3.38398,3.3911 5.01899,5.141 0.52069,0.5572 1.06895,1.0986 1.63352,1.6314 0.94991,-0.9767 1.84127,-1.9888 2.11627,-3.1708 0.75041,-3.2247 -0.82367,-6.5853 -0.85439,-9.896 -0.11083,-11.943 -9.28764,-33.3872 2.4203,-35.7477 3.03731,-0.6122 3.36757,5.3135 4.17283,8.3054 2.93699,10.9119 -7.28147,27.4555 2.04362,33.838 7.39368,5.0605 17.00309,-10.7311 25.59798,-8.2004 2.09329,0.6163 4.27334,2.8784 4.15696,5.0575 -0.1694,3.1716 -5.91327,3.624 -6.80025,6.6739 -0.6688,2.2995 1.13606,4.6533 1.628,6.997 1.29291,6.1602 4.70486,12.3878 3.47498,18.5609 -0.13076,0.6559 -0.38682,1.5799 -0.88278,2.007 z m -63.63712,-3.5096 c 0.92441,-0.6 1.85492,-1.2468 2.79194,-1.886 -2.67382,1.4982 -7.06805,1.7163 -9.17513,-0.5063 -2.15531,-2.2734 0.96243,-6.4196 -0.011,-9.3973 -1.0288,-3.1469 -4.11593,-5.2056 -5.85746,-8.0214 -0.17621,-0.2849 -0.36526,-0.5736 -0.56059,-0.8637 -1.42211,8.9494 -4.3745,18.2906 2.10562,22.7259 3.23475,2.214 6.89409,0.4365 10.70639,-2.0516 z"
             style="opacity:1;fill:#803300;fill-opacity:1;stroke:none;stroke-width:0.40556484;stroke-miterlimit:4;stroke-dasharray:none;stroke-opacity:1" />
          <path
             inkscape:connector-curvature="0"
             id="path1682"
             d="m -185.74427,1258.0455 c -0.28332,-0.039 -0.55609,0 -0.80383,0.1575 -6.75893,4.2275 -1.83205,15.9873 -0.86609,23.9007 0.39257,3.2161 4.35847,6.5732 2.67883,9.3439 -1.68308,2.7764 -6.3902,1.1784 -9.54346,1.9519 -3.75392,0.921 -7.32984,2.5805 -11.14563,3.197 -0.0524,0.01 -0.10808,0 -0.16112,0.011 0.23185,-2.2661 0.19576,-4.5215 -0.32227,-6.7566 -0.26391,-1.1386 -0.83999,-2.8915 -2.00867,-2.8747 -7.97133,0.1142 -9.84956,12.7242 -13.12317,19.9932 -1.33044,2.9542 0.32323,7.8809 -2.54883,9.3805 -2.87803,1.5028 -6.07574,-2.3037 -9.17359,-3.2757 -3.68798,-1.1571 -7.60826,-1.5881 -11.1914,-3.0377 -1.57112,-0.6357 -2.78932,-2.4631 -4.41101,-2.6404 6.26804,0.1344 12.5126,0.027 15.92652,-3.9551 1.86138,-2.171 2.64393,-6.2112 0.9613,-8.5236 -2.44908,-3.3657 -9.08592,0.2333 -12.23694,-2.4865 -2.37577,-2.0506 -2.06926,-5.9258 -3.20068,-8.8532 -2.97378,-7.6941 -3.66819,-16.9743 -9.42444,-22.8827 -0.81561,-0.8371 -2.21522,-2.0387 -3.20618,-1.419 -6.75893,4.2275 -1.83205,15.9873 -0.86608,23.9007 0.39256,3.2161 4.35845,6.5732 2.67883,9.3439 -1.68309,2.7764 -6.39021,1.1784 -9.54346,1.9519 -3.75392,0.921 -7.32986,2.5823 -11.14563,3.1988 -1.80782,0.2921 -3.98625,-0.8224 -5.4895,0.2234 -3.29905,2.2952 -6.07078,7.3664 -4.64905,11.1255 1.45232,3.84 8.12404,2.5267 11.08154,5.3742 3.12563,3.0095 3.79107,7.8267 6.11938,11.488 5.6129,8.8264 9.80695,25.1936 16.31287,33.371 -1.77535,12.2187 -2.38104,23.6854 7.14478,25.2997 4.00336,0.6784 4.194,-7.0987 5.12695,-11.0505 0.75168,-3.184 0.62857,-6.7096 0.14465,-10.3527 2.78322,-1.9434 -0.7233,-8.1586 -1.90246,-11.8049 -0.20709,-0.6403 -0.46442,-1.271 -0.74341,-1.8988 -1.63546,-8.3133 -2.24355,-15.9323 3.79944,-20.3503 9.4787,-6.9298 22.70838,13.364 33.86353,9.6991 2.71687,-0.8926 5.48166,-3.9436 5.24047,-6.7932 -0.35105,-4.1476 -7.89483,-4.5062 -9.18091,-8.465 -0.96965,-2.9848 1.30049,-6.1422 1.84937,-9.2322 0.17482,-0.9841 0.39124,-1.9704 0.63172,-2.9589 1.74103,0.3959 3.44299,0.8726 4.58862,1.9757 3.12562,3.0095 3.79289,7.8267 6.12121,11.488 8.39908,13.2077 13.61093,43.328 28.16528,37.5696 3.77565,-1.4939 -0.0891,-8.2436 -1.33849,-12.107 -4.55671,-14.0905 -27.59286,-24.986 -21.89576,-38.6553 4.51717,-10.838 26.3473,-0.3347 33.98987,-9.2487 1.86138,-2.171 2.64395,-6.213 0.96131,-8.5254 -2.44908,-3.3657 -9.08593,0.2351 -12.23695,-2.4847 -2.37576,-2.0506 -2.07109,-5.9258 -3.20251,-8.8532 -2.97378,-7.6941 -3.66635,-16.9743 -9.4226,-22.8827 -0.61171,-0.6278 -1.55238,-1.4607 -2.40235,-1.5765 z m -67.45056,49.2608 c 1.44424,0 2.92862,0.047 4.41467,0.081 -4.00814,0.2608 -8.99424,3.1562 -9.72473,7.1027 -0.74724,4.0369 5.63813,6.3703 6.6925,10.3381 1.11431,4.1934 -0.81053,8.6589 -0.71594,12.9968 0.01,0.439 0.008,0.8912 0,1.3495 -7.94839,-8.8233 -17.85851,-16.9854 -13.89953,-26.4843 1.97626,-4.7417 7.26707,-5.3985 13.23303,-5.3834 z"
             style="opacity:1;fill:#4f691b;fill-opacity:1;stroke:none;stroke-width:0.53149605;stroke-miterlimit:4;stroke-dasharray:none;stroke-opacity:1" />
        </g>
        <g
           inkscape:transform-center-y="-121.75326"
           inkscape:transform-center-x="-178.41367"
           transform="rotate(35.157335,118.83744,1057.9713)"
           style="stroke:none"
           id="g1806">
          <g
             transform="matrix(1.0248037,-0.53123222,0.53123222,1.0248037,-595.36276,52.236602)"
             inkscape:transform-center-y="-130.46366"
             inkscape:transform-center-x="13.918397"
             id="g1792"
             style="stroke:none">
            <path
               style="fill:#557b18;fill-opacity:1;stroke:none;stroke-width:0.9375px;stroke-linecap:butt;stroke-linejoin:miter;stroke-opacity:1"
               d="M 132.83554,1112.3279 C 203.32756,1077.513 229.57089,996.81058 245.93551,905.86356 178.02858,840.43487 91.739696,1005.5952 132.83554,1112.3279 Z"
               id="path1788"
               inkscape:connector-curvature="0"
               sodipodi:nodetypes="ccc" />
            <path
               sodipodi:nodetypes="ccc"
               inkscape:connector-curvature="0"
               id="path1790"
               d="M 132.83554,1112.3279 C 225.95446,1060.7827 308.57312,938.39651 245.93551,905.86356 203.59505,975.04197 150.86472,1045.0196 132.83554,1112.3279 Z"
               style="fill:#2a3208;fill-opacity:1;stroke:none;stroke-width:0.9375px;stroke-linecap:butt;stroke-linejoin:miter;stroke-opacity:1" />
          </g>
          <path
             style="fill:#2a3208;fill-opacity:1;stroke:none;stroke-width:0.9375px;stroke-linecap:butt;stroke-linejoin:miter;stroke-opacity:1"
             d="m 113.09997,1140.4132 21.25369,-0.7591 c -9.98165,-13.5883 19.54779,-39.0688 0.0684,-32.7685 z"
             id="path1798"
             inkscape:connector-curvature="0"
             sodipodi:nodetypes="cccc" />
          <path
             style="fill:#68a201;fill-opacity:1;stroke:none;stroke-width:0.9375px;stroke-linecap:butt;stroke-linejoin:miter;stroke-opacity:1"
             d="m 53.673663,1269.7405 18.785782,-18.249 10.734732,-23.6164 c -4.145682,-34.4585 9.449107,-63.2723 27.373573,-90.7085 l 18.78578,0.5367 c 31.52394,28.6353 -13.17136,74.4814 -40.791986,116.4719 l -19.322519,20.9327 c -12.767525,6.3729 -15.8848,2.3533 -15.565362,-5.3674 z"
             id="path1800"
             inkscape:connector-curvature="0"
             sodipodi:nodetypes="cccccccc" />
          <path
             sodipodi:nodetypes="cccccccccccccccc"
             style="fill:#466f00;fill-opacity:1;stroke:none;stroke-width:0.9375px;stroke-linecap:butt;stroke-linejoin:miter;stroke-opacity:1"
             d="m 88.810048,1192.7883 13.663082,-23.1513 c 21.21769,-37.2319 49.41285,-13.3626 27.69401,18.6246 -1.51812,1.8977 -18.96481,30.3348 -18.96481,30.3348 l -15.940272,15.9402 -8.349663,16.6994 c -10.810821,14.9708 -14.239213,16.7978 -29.771993,24.5869 3.845125,-14.3144 14.478848,-21.3538 20.663271,-32.9366 l 5.270118,2.426 c -3.939069,-6.6663 3.902357,-14.3963 -1.854348,-8.878 l 3.795302,-12.145 -0.37953,-12.904 1.13859,-9.4883 2.656711,-18.2174 6.072484,-11.0064 z"
             id="path1802"
             inkscape:connector-curvature="0" />
        </g>
        <g
           id="g1841"
           transform="matrix(-0.90502114,0.79118979,0.79118979,0.90502114,-1305.8845,238.7735)"
           inkscape:transform-center-x="121.05944"
           inkscape:transform-center-y="-166.73315"
           style="stroke:none">
          <path
             inkscape:transform-center-y="-71.793295"
             inkscape:transform-center-x="-19.799951"
             sodipodi:nodetypes="cccccccc"
             inkscape:connector-curvature="0"
             id="path1822"
             d="m -201.14672,1219.1324 14.2308,-21.9867 5.18359,-25.4185 c -11.74391,-32.6596 -4.93455,-63.7834 6.40298,-94.5322 l 18.43028,-3.6765 c 37.12759,20.8635 3.81231,75.5409 -13.72233,122.6434 l -14.15403,24.7224 c -11.01974,9.0658 -14.95669,5.8448 -16.37129,-1.7519 z"
             style="fill:#68a201;fill-opacity:1;stroke:none;stroke-width:0.9375px;stroke-linecap:butt;stroke-linejoin:miter;stroke-opacity:1" />
          <path
             inkscape:transform-center-y="-66.232534"
             inkscape:transform-center-x="-21.506046"
             inkscape:connector-curvature="0"
             id="path1824"
             d="m -178.61714,1091.2971 c 12.35757,-41.0328 47.83187,-4.7146 33.81342,31.3183 -1.05546,2.1891 -11.70353,33.8067 -11.70353,33.8067 l -8.55767,19.8593 -7.82096,17.3843 c -7.19051,17.0087 -10.12371,19.5559 -23.52213,30.6202 0.54785,-14.8117 11.99551,-13.4233 15.43406,-26.0955 l 3.02239,-9.4403 c -18.23717,-34.9096 38.42394,-115.3552 -0.66558,-97.453 z"
             style="fill:#466f00;fill-opacity:1;stroke:none;stroke-width:0.9375px;stroke-linecap:butt;stroke-linejoin:miter;stroke-opacity:1"
             sodipodi:nodetypes="ccccccccc" />
          <g
             transform="matrix(1.3396119,0,0,1.7023694,-218.776,-1047.7252)"
             id="g1812"
             style="stroke:none">
            <path
               sodipodi:nodetypes="cacacc"
               inkscape:connector-curvature="0"
               id="path1808"
               d="m 36.814421,1241.3682 c -1.038092,-10.2941 -23.714202,4.2008 -31.8805296,-2.6567 -25.5435334,-21.4496 -71.7384104,-90.0549 -25.4285174,-96.7802 22.3383728,-48.012 67.880451,39.0637 74.387902,73.2493 1.811128,9.5144 -14.387157,16.9542 -11.765434,26.5671 30.735912,10.748 -29.197775,22.8723 -5.313421,-0.3795 z"
               style="fill:#777f2a;fill-opacity:1;stroke:none;stroke-width:0.9375px;stroke-linecap:butt;stroke-linejoin:miter;stroke-opacity:1" />
            <path
               inkscape:connector-curvature="0"
               id="path1810"
               d="m 37.571564,1244.2455 2.146946,2.4153 2.146947,-3.4887 -1.610209,-8.3195 -56.625715,-89.635 53.405294,90.1718 z"
               style="fill:#4f691b;fill-opacity:1;stroke:none;stroke-width:0.9375px;stroke-linecap:butt;stroke-linejoin:miter;stroke-opacity:1" />
          </g>
        </g>
        <g
           inkscape:transform-center-y="-55.668719"
           inkscape:transform-center-x="-161.20636"
           transform="rotate(77.85435,-89.850085,1321.999)"
           id="g1865"
           style="stroke:none">
          <path
             style="fill:#68a201;fill-opacity:1;stroke:none;stroke-width:0.9375px;stroke-linecap:butt;stroke-linejoin:miter;stroke-opacity:1"
             d="m -201.14672,1219.1324 14.2308,-21.9867 5.18359,-25.4185 c -11.74391,-32.6596 -4.93455,-63.7834 6.40298,-94.5322 l 18.43028,-3.6765 c 37.12759,20.8635 3.81231,75.5409 -13.72233,122.6434 l -14.15403,24.7224 c -11.01974,9.0658 -14.95669,5.8448 -16.37129,-1.7519 z"
             id="path1855"
             inkscape:connector-curvature="0"
             sodipodi:nodetypes="cccccccc"
             inkscape:transform-center-x="-19.799951"
             inkscape:transform-center-y="-71.793295" />
          <path
             sodipodi:nodetypes="ccccccccc"
             style="fill:#466f00;fill-opacity:1;stroke:none;stroke-width:0.9375px;stroke-linecap:butt;stroke-linejoin:miter;stroke-opacity:1"
             d="m -178.61714,1091.2971 c 12.35757,-41.0328 47.83187,-4.7146 33.81342,31.3183 -1.05546,2.1891 -11.70353,33.8067 -11.70353,33.8067 l -8.55767,19.8593 -7.82096,17.3843 c -7.19051,17.0087 -10.12371,19.5559 -23.52213,30.6202 0.54785,-14.8117 11.99551,-13.4233 15.43406,-26.0955 l 3.02239,-9.4403 c 6.50054,-37.2262 49.0768,-116.3528 -0.66558,-97.453 z"
             id="path1857"
             inkscape:connector-curvature="0"
             inkscape:transform-center-x="-21.506046"
             inkscape:transform-center-y="-66.232534" />
          <g
             id="g1863"
             transform="matrix(1.3396119,0,0,1.7023694,-218.776,-1047.7252)"
             style="stroke:none">
            <path
               style="fill:#777f2a;fill-opacity:1;stroke:none;stroke-width:0.9375px;stroke-linecap:butt;stroke-linejoin:miter;stroke-opacity:1"
               d="m 36.814421,1241.3682 c -1.038092,-10.2941 -23.714202,4.2008 -31.8805296,-2.6567 -25.5435334,-21.4496 -71.7384104,-90.0549 -25.4285174,-96.7802 22.3383728,-48.012 67.880451,39.0637 74.387902,73.2493 1.811128,9.5144 -14.387157,16.9542 -11.765434,26.5671 30.735912,10.748 -29.197775,22.8723 -5.313421,-0.3795 z"
               id="path1859"
               inkscape:connector-curvature="0"
               sodipodi:nodetypes="cacacc" />
            <path
               style="fill:#4f691b;fill-opacity:1;stroke:none;stroke-width:0.9375px;stroke-linecap:butt;stroke-linejoin:miter;stroke-opacity:1"
               d="m 37.571564,1244.2455 2.146946,2.4153 2.146947,-3.4887 -1.610209,-8.3195 -56.625715,-89.635 53.405294,90.1718 z"
               id="path1861"
               inkscape:connector-curvature="0" />
          </g>
        </g>
        <g
           id="g1723"
           style="stroke:none"
           transform="rotate(-7.3706615,-573.0923,2261.9754)"
           inkscape:transform-center-x="-10.899965"
           inkscape:transform-center-y="-290.20878">
          <g
             id="g1746"
             inkscape:transform-center-x="-33.384131"
             inkscape:transform-center-y="-125.8666"
             transform="matrix(1.1376967,-0.19513212,0.19513212,1.1376967,-229.74471,-130.52406)"
             style="stroke:none">
            <path
               sodipodi:nodetypes="ccc"
               inkscape:connector-curvature="0"
               id="path1707"
               d="M 132.83554,1112.3279 C 203.32756,1077.513 229.57089,996.81058 245.93551,905.86356 202.7489,837.56779 92.906555,1006.1841 132.83554,1112.3279 Z"
               style="fill:#557b18;fill-opacity:1;stroke:none;stroke-width:0.9375px;stroke-linecap:butt;stroke-linejoin:miter;stroke-opacity:1" />
            <path
               style="fill:#2a3208;fill-opacity:1;stroke:none;stroke-width:0.9375px;stroke-linecap:butt;stroke-linejoin:miter;stroke-opacity:1"
               d="m 132.83554,1112.3279 c 70.69901,-35.0274 189.1589,-210.42285 113.09997,-206.46434 -42.34046,69.17841 -95.07079,139.15604 -113.09997,206.46434 z"
               id="path1705"
               inkscape:connector-curvature="0"
               sodipodi:nodetypes="ccc" />
          </g>
          <path
             sodipodi:nodetypes="cccc"
             inkscape:connector-curvature="0"
             id="path1709"
             d="m 113.09997,1140.4132 21.25369,-0.7591 c -9.98165,-13.5883 19.54779,-39.0688 0.0684,-32.7685 z"
             style="fill:#674325;fill-opacity:1;stroke:none;stroke-width:0.9375px;stroke-linecap:butt;stroke-linejoin:miter;stroke-opacity:1" />
          <path
             sodipodi:nodetypes="cccccccc"
             inkscape:connector-curvature="0"
             id="path1713"
             d="m 53.673663,1269.7405 18.785782,-18.249 10.734732,-23.6164 c -4.145682,-34.4585 9.449107,-63.2723 27.373573,-90.7085 l 18.78578,0.5367 c 31.52394,28.6353 -13.17136,74.4814 -40.791986,116.4719 l -19.322519,20.9327 c -12.767525,6.3729 -15.8848,2.3533 -15.565362,-5.3674 z"
             style="fill:#68a201;fill-opacity:1;stroke:none;stroke-width:0.9375px;stroke-linecap:butt;stroke-linejoin:miter;stroke-opacity:1" />
          <path
             inkscape:connector-curvature="0"
             id="path1715"
             d="m 88.810048,1192.7883 20.115092,-49.3389 c -10.186641,26.5961 -22.226272,74.3407 26.68444,1.7025 -1.51812,1.8977 -24.40725,73.4445 -24.40725,73.4445 l -15.940272,15.9402 -8.349663,16.6994 -14.042613,16.6992 v -9.8677 l -9.488253,3.0362 c 10.678334,-7.5402 11.344731,-12.5774 14.422144,-18.2174 3.05383,0.2723 7.871566,-3.8651 7.211072,5.693 2.300072,-11.6243 1.977975,-17.6765 -3.795302,-12.145 l 3.795302,-12.145 -0.37953,-12.904 1.13859,-9.4883 2.656711,-18.2174 6.072484,-11.0064 z"
             style="fill:#466f00;fill-opacity:1;stroke:none;stroke-width:0.9375px;stroke-linecap:butt;stroke-linejoin:miter;stroke-opacity:1"
             sodipodi:nodetypes="cccccccccccccccccc" />
          <path
             style="fill:#040300;fill-opacity:1;stroke:none;stroke-width:1.05218256px;stroke-linecap:butt;stroke-linejoin:miter;stroke-opacity:1"
             d="m 141.15509,1102.7567 c 0,0 4.3031,-129.93125 8.33766,-201.94483 1.7993,-32.11601 19.84839,-42.28266 27.13213,-92.60631 7.69604,-53.17222 120.95173,-102.89928 114.34045,-117.09768 -2.79746,-6.00784 -11.60414,-2.45828 -16.79126,-0.35236 -46.30399,18.79902 -82.28668,62.36958 -105.27772,106.74158 -21.89131,42.24953 16.79655,149.08464 -25.22247,140.50655 -37.33538,-7.62194 -88.857954,-132.4052 -101.911304,-162.92448 0,0 -34.8088957,-51.26649 -12.584644,13.73997 12.957662,40.9253 73.497588,66.46469 90.576908,111.08495 24.93274,65.13759 9.84732,209.00701 9.84732,209.00701 z"
             id="path1973"
             inkscape:connector-curvature="0"
             sodipodi:nodetypes="csssaasccacc"
             inkscape:transform-center-x="-24.516318"
             inkscape:transform-center-y="-209.831" />
          <path
             sodipodi:nodetypes="ccccc"
             inkscape:connector-curvature="0"
             id="path1711"
             d="m 114.61809,1138.8951 c -24.345553,-25.0207 -17.841102,-114.9275 -8.34966,-105.1299 l 4.93389,-1.1386 c 24.84882,1.0567 22.62635,44.0739 28.84429,74.0084 z"
             style="fill:#a18a3f;fill-opacity:1;stroke:none;stroke-width:0.9375px;stroke-linecap:butt;stroke-linejoin:miter;stroke-opacity:1" />
        </g>
        <g
           id="g1680"
           transform="matrix(1.7067165,-0.37034877,0.37034877,1.7067165,-631.95334,-927.76905)"
           inkscape:transform-center-x="90.758941"
           inkscape:transform-center-y="-89.629585"
           style="stroke:none">
          <path
             sodipodi:nodetypes="ccacaccc"
             inkscape:connector-curvature="0"
             id="path1674"
             d="m 34.91677,1274.0078 c -10.983141,-14.7014 -9.848924,-13.6175 1.897651,-32.6396 -1.038092,-10.2941 -23.714202,4.2008 -31.8805296,-2.6567 -25.5435334,-21.4496 -71.7384104,-90.0549 -25.4285174,-96.7802 22.3383728,-48.012 67.880451,39.0637 74.387902,73.2493 1.811128,9.5144 -14.387157,16.9542 -11.765434,26.5671 8.315762,11.2776 13.014763,22.3648 2.277181,32.6396 z"
             style="fill:#777f2a;fill-opacity:1;stroke:none;stroke-width:0.9375px;stroke-linecap:butt;stroke-linejoin:miter;stroke-opacity:1" />
          <path
             inkscape:connector-curvature="0"
             id="path1676"
             d="m 37.571564,1244.2455 2.146946,2.4153 2.146947,-3.4887 -1.610209,-8.3195 -56.625715,-89.635 53.405294,90.1718 z"
             style="fill:#4f691b;fill-opacity:1;stroke:none;stroke-width:0.9375px;stroke-linecap:butt;stroke-linejoin:miter;stroke-opacity:1" />
        </g>
      </g>
    </g>
    <g
       transform="matrix(0.4513823,-0.07314548,0.07314548,0.4513823,0.834408,446.22033)"
       id="layer1-6"
       inkscape:label="Camada 1"
       style="stroke:none">
      <g
         transform="translate(-0.11209519,-3.4061425)"
         id="g4620"
         style="stroke:none">
        <g
           id="g4590"
           style="stroke:none;stroke-opacity:1">
          <g
             id="g4597"
             style="stroke:none;stroke-opacity:1">
            <path
               style="fill:#eb9a28;fill-opacity:1;fill-rule:evenodd;stroke:none;stroke-width:1.21758211px;stroke-linecap:butt;stroke-linejoin:miter;stroke-opacity:1"
               d="m 133.00932,773.00725 c -6.0205,7.95101 -6.98143,18.49392 -9.20253,28.06141 -2.24397,9.66593 -3.69377,19.547 -4.11751,29.43747 -0.56389,13.16178 1.11967,26.32747 2.10929,39.46654 0.77421,10.27917 -3.48365,22.52312 2.99297,30.78564 6.01459,7.673 28.01615,10.69731 28.01615,10.69731 5.14242,-0.0451 21.67963,-3.41682 28.0656,-10.69731 6.4766,-8.26252 2.21876,-20.50647 2.99297,-30.78564 0.98962,-13.13907 2.67532,-26.30476 2.11142,-39.46654 -0.42372,-9.89047 -1.87353,-19.77154 -4.1175,-29.43747 -2.22111,-9.56749 -3.18419,-20.1104 -9.20468,-28.06141 -4.59176,-6.06414 -18.2924,-12.88339 -19.5941,-13.52368 -6.39982,3.86728 -15.28825,7.62315 -20.05208,13.52368 z"
               id="path4836-6"
               inkscape:connector-curvature="0"
               sodipodi:nodetypes="cscccccccsccc"
               inkscape:transform-center-x="1.0935208"
               inkscape:transform-center-y="-61.948108" />
            <path
               inkscape:transform-center-y="39.197776"
               inkscape:transform-center-x="48.814919"
               sodipodi:nodetypes="cscccccccsccc"
               inkscape:connector-curvature="0"
               id="path4841-2"
               d="m 55.891012,1025.5066 c 10.495015,0.045 19.656957,-6.2496 28.884639,-10.7411 9.322617,-4.5377 18.281249,-9.9402 26.552759,-16.27746 11.00735,-8.43351 20.49628,-18.90332 30.4335,-28.72712 7.77431,-7.68558 20.54166,-12.15278 22.82709,-23.62793 2.12237,-10.65667 -10.33203,-32.6208 -10.33203,-32.6208 -3.51829,-4.62257 -17.43639,-17.29603 -27.63756,-18.12744 -11.05527,-0.24606 -18.05716,11.92686 -26.879802,18.21129 -11.27723,8.03281 -23.047282,15.45378 -33.291088,24.90776 -7.697738,7.10425 -14.693217,15.13059 -20.977326,23.72936 -6.220125,8.51125 -11.429485,18.9973 -13.772272,29.84803 -1.786824,8.27581 -2.984816,29.50801 -2.620433,31.12101 7.455028,3.1632 16.836223,-3.2476 26.812523,2.3044 z"
               style="fill:#eb9a28;fill-opacity:1;fill-rule:evenodd;stroke:none;stroke-width:1.32855654px;stroke-linecap:butt;stroke-linejoin:miter;stroke-opacity:1" />
            <path
               style="fill:#eb9a28;fill-opacity:1;fill-rule:evenodd;stroke:none;stroke-width:1.32855654px;stroke-linecap:butt;stroke-linejoin:miter;stroke-opacity:1"
               d="m 241.63281,1025.7696 c -10.49508,0.017 -19.64176,-6.3026 -28.85853,-10.8191 -9.31161,-4.5629 -18.25712,-9.9896 -26.51327,-16.34932 -10.98689,-8.46317 -20.45043,-18.95861 -30.36384,-28.80926 -7.75568,-7.70669 -20.51216,-12.20819 -22.76981,-23.68956 -2.09655,-10.66229 10.41098,-32.59285 10.41098,-32.59285 3.52948,-4.61294 17.47821,-17.2488 27.68136,-18.05251 11.05582,-0.21627 18.02821,11.97569 26.83563,18.28391 11.25774,8.06321 23.00979,15.51603 33.23066,24.99772 7.68053,7.12487 14.65655,15.17025 20.91981,23.78599 6.1995,8.52809 11.38346,19.02805 13.69995,29.88513 1.76678,8.28075 2.91337,29.51595 2.54507,31.12795 -7.46264,3.1431 -16.82829,-3.293 -26.81801,2.2319 z"
               id="path4843-6"
               inkscape:connector-curvature="0"
               sodipodi:nodetypes="cscccccccsccc"
               inkscape:transform-center-x="-48.667999"
               inkscape:transform-center-y="39.335358" />
          </g>
        </g>
        <g
           id="g4585"
           style="stroke:none;stroke-opacity:1">
          <path
             inkscape:transform-center-y="-28.125508"
             inkscape:transform-center-x="63.29662"
             sodipodi:nodetypes="csccccccsccccccccccccscsccccccccsccsccc"
             inkscape:connector-curvature="0"
             id="path4822-1"
             d="m 5.4508144,863.09509 c -2.3145868,5.75739 4.5536476,11.59461 5.9088036,17.64063 1.07055,4.77631 -1.054725,10.5175 1.722446,14.57453 3.500497,9.33282 8.960097,16.48607 20.733476,17.99993 0.820943,1.20687 1.104393,2.93112 0.642469,4.31034 -0.307953,0.91948 -2.179217,1.09737 -2.080553,2.06067 0.537924,5.25145 8.153272,9.91859 13.393792,8.78385 6.039262,1.32464 1.050298,0.93794 0.453895,10.06195 6.28e-4,6.64562 7.500924,11.73185 13.415421,14.94448 7.411521,4.02577 16.812143,5.86937 25.067713,4.02192 4.29186,-0.96058 7.819328,-4.27387 10.830501,-7.43169 7.245462,-7.2734 5.767162,6.39049 6.706362,6.9604 16.99444,0.60933 28.38823,0.87759 43.98781,-28.97863 2.59709,-3.22339 2.46207,-21.82822 -0.24428,-20.36476 -0.25491,-3.05489 -2.28007,-6.47711 -0.77833,-9.16285 0.87774,-1.56991 4.00469,-0.89978 4.84232,-2.49064 1.28813,-2.44658 0.29066,-5.80981 -1.11536,-8.19275 -0.55235,-0.93613 -2.20649,-0.96908 -2.6236,-1.97066 -1.96086,-4.70836 4.0948,-7.71974 -0.40494,-10.22996 -3.64475,-2.03327 -3.18048,4.09312 -7.18808,2.88976 -1.8107,-0.54365 -1.79201,-3.48065 -1.67176,-5.33909 0.0933,-1.44104 1.50207,-2.53638 1.81826,-3.94651 0.94801,-4.22768 1.73389,-8.9605 0.11513,-12.9865 -3.11377,-7.74412 -9.9699,-14.33425 -17.53403,-18.07546 -6.03625,-2.98547 -14.54011,-6.19957 -20.11554,-2.4459 -3.457724,2.32791 -0.26551,8.93173 -3.076789,11.98798 -2.45749,2.67147 -7.84023,6.31757 -10.332774,3.67758 -2.615469,-2.7701 6.150723,-6.84412 4.712134,-10.3498 -2.008462,-4.89441 -10.225784,-8.43871 -14.93512,-5.90867 -0.863773,0.46404 0.04405,2.08332 -0.553364,2.85276 -0.896074,1.15399 -2.502643,1.89796 -3.978897,1.91347 -2.028912,0.0215 -3.716646,-1.60762 -5.523848,-2.51487 -2.079065,-1.04392 -3.777889,-3.27898 -6.11057,-3.36425 -2.606825,-0.0951 -4.484167,3.29337 -7.092423,3.25102 -3.02114,-0.0487 -5.064535,-4.05431 -8.086005,-4.03133 -4.972334,0.0385 -8.588059,5.00607 -13.199667,6.8354 -5.83755,2.31557 -14.614392,0.0385 -18.136761,5.16969 -1.875459,2.73182 -0.451175,8.4429 0.599607,11.71486 -3.338211,0.99535 -8.9349098,3.06723 -10.1674486,6.1331 z"
             style="fill:#88002b;fill-opacity:1;fill-rule:evenodd;stroke:none;stroke-width:1.14153028px;stroke-linecap:butt;stroke-linejoin:miter;stroke-opacity:1" />
          <path
             style="fill:#88002b;fill-opacity:1;fill-rule:evenodd;stroke:none;stroke-width:1.14153028px;stroke-linecap:butt;stroke-linejoin:miter;stroke-opacity:1"
             d="m 297.7625,863.09509 c 2.31459,5.75739 -4.55365,11.59461 -5.9088,17.64063 -1.07055,4.77631 1.05472,10.5175 -1.72244,14.57453 -3.50051,9.33282 -8.96011,16.48607 -20.73347,17.99993 -0.82096,1.20687 -1.10441,2.93112 -0.64248,4.31034 0.30795,0.91948 2.17921,1.09737 2.08055,2.06067 -0.53791,5.25145 -8.15327,9.91859 -13.39379,8.78385 -6.03926,1.32464 -1.0503,0.93794 -0.45389,10.06195 -6.3e-4,6.64562 -7.50093,11.73185 -13.41543,14.94448 -7.41152,4.02577 -16.81214,5.86937 -25.06771,4.02192 -4.29186,-0.96058 -7.81933,-4.27387 -10.8305,-7.43169 -7.24546,-7.2734 -5.76717,6.39049 -6.70637,6.9604 -16.99444,0.60933 -28.38823,0.87759 -43.98781,-28.97863 -2.59709,-3.22339 -2.46207,-21.82822 0.24429,-20.36476 0.2549,-3.05489 2.28006,-6.47711 0.77832,-9.16285 -0.87773,-1.56991 -4.00469,-0.89978 -4.84231,-2.49064 -1.28814,-2.44658 -0.29067,-5.80981 1.11536,-8.19275 0.55235,-0.93613 2.20648,-0.96908 2.6236,-1.97066 1.96086,-4.70836 -7.83016,-17.2018 -3.33042,-19.71202 3.64474,-2.03327 6.91583,13.57518 10.92344,12.37182 1.81069,-0.54365 1.792,-3.48065 1.67175,-5.33909 -0.0933,-1.44104 -1.50206,-2.53638 -1.81825,-3.94651 -0.94801,-4.22768 -1.73389,-8.9605 -0.11513,-12.9865 3.11377,-7.74412 9.9699,-14.33425 17.53402,-18.07546 6.03626,-2.98547 14.54011,-6.19957 20.11555,-2.4459 3.45772,2.32791 0.26551,8.93173 3.07678,11.98798 2.45749,2.67147 7.84023,6.31757 10.33278,3.67758 2.61547,-2.7701 -6.15073,-6.84412 -4.71212,-10.3498 2.00845,-4.89441 10.51311,-13.61074 15.22244,-11.0807 0.86378,0.46404 -0.33134,7.25535 0.26603,8.02479 0.89607,1.15399 2.50264,1.89796 3.97889,1.91347 2.02892,0.0215 3.71665,-1.60762 5.52385,-2.51487 2.07908,-1.04392 3.7779,-3.27898 6.11057,-3.36425 2.60684,-0.0951 4.48417,3.29337 7.09243,3.25102 3.02114,-0.0487 5.06454,-4.05431 8.08601,-4.03133 4.97234,0.0385 8.58805,5.00607 13.19966,6.8354 5.83755,2.31557 14.61439,0.0385 18.13677,5.16969 1.87545,2.73182 0.45116,8.4429 -0.59962,11.71486 3.33821,0.99535 8.93492,3.06723 10.16746,6.1331 z"
             id="path4830-8"
             inkscape:connector-curvature="0"
             sodipodi:nodetypes="csccccccsccccccccccccscsccccccccsccscccc"
             inkscape:transform-center-x="-63.296619"
             inkscape:transform-center-y="-28.125508" />
        </g>
        <g
           id="g4581"
           style="stroke:none">
          <path
             inkscape:transform-center-y="-20.577443"
             inkscape:transform-center-x="55.821228"
             sodipodi:nodetypes="caaassaaaacc"
             inkscape:connector-curvature="0"
             id="path4858-7"
             d="m 50.929775,911.54706 c 5.092028,1.52029 13.420832,16.66464 22.245715,22.39444 6.054837,3.93128 13.098196,8.70198 20.246086,7.69023 5.44277,-0.77039 8.539174,-6.96697 13.185664,-9.90422 7.58974,-4.79781 14.88521,-14.3645 23.85301,-12.51569 25.7516,5.30865 22.2519,-2.81352 4.17439,-15.79711 -7.72067,-5.54505 -4.39086,-20.50273 -11.25838,-27.25784 -5.13318,-5.04921 -12.92437,-5.14465 -19.52979,-7.11369 -7.872081,-2.34659 -16.795818,-1.00842 -23.878443,-5.57823 -4.582189,-2.95649 -5.627447,-10.5339 -10.486996,-13.12502 -8.752159,-4.66664 -24.238559,-4.37972 -29.411473,-2.11441 -42.0909694,9.26245 -22.683008,54.04922 10.860217,63.32154 z"
             style="fill:#9c023e;fill-opacity:1;fill-rule:evenodd;stroke:none;stroke-width:1.31561828px;stroke-linecap:butt;stroke-linejoin:miter;stroke-opacity:1" />
          <path
             style="fill:#9c023e;fill-opacity:1;fill-rule:evenodd;stroke:none;stroke-width:1.31561828px;stroke-linecap:butt;stroke-linejoin:miter;stroke-opacity:1"
             d="m 274.30714,901.42929 c -2.69319,5.56775 -19.89497,3.17848 -26.16124,10.11777 -5.7184,6.33258 -0.52424,18.86309 -6.75814,24.6889 -9.4488,8.83024 -25.75694,11.77331 -38.0281,7.69023 -5.17225,-1.721 -6.59359,-8.84541 -10.89122,-12.19868 -7.0791,-5.52354 -14.88521,-14.3645 -23.85301,-12.51569 -25.7516,5.30865 -22.2519,-2.81352 -4.1744,-15.79711 7.72068,-5.54505 4.39087,-20.50273 11.25839,-27.25784 5.13318,-5.04921 12.92436,-5.14465 19.52978,-7.11369 7.87209,-2.34659 16.79583,-1.00842 23.87845,-5.57823 4.58219,-2.95649 5.57278,-10.64891 10.487,-13.12502 7.3097,-3.68311 19.1686,-2.86702 24.34152,-0.60171 26.28003,0.98724 40.88411,27.46118 20.37097,51.69107 z"
             id="path4873-9"
             inkscape:connector-curvature="0"
             sodipodi:nodetypes="caaaassaaaacc"
             inkscape:transform-center-x="-55.821224"
             inkscape:transform-center-y="-20.577443" />
        </g>
        <path
           style="fill:#5e0014;fill-opacity:1;fill-rule:evenodd;stroke:none;stroke-width:1.12332451px;stroke-linecap:butt;stroke-linejoin:miter;stroke-opacity:1"
           d="m 135.75061,901.1226 c -0.64728,-0.006 -1.23502,0.0953 -1.70276,0.34999 -2.439,1.32672 -0.44786,6.02161 -2.72118,7.59373 -3.15252,2.17988 -9.0872,-2.6351 -11.66807,0.14516 -2.075,2.23535 3.79008,7.4797 1.02702,8.8832 -4.18987,2.1282 -6.09611,-9.06114 -10.82857,-8.76156 -2.96641,0.18777 -3.24153,5.24386 -6.00225,6.30148 -3.48007,1.33314 -8.412242,-3.13233 -11.210433,-0.74971 -2.21066,1.88227 1.061016,5.98662 -0.378063,8.45573 -2.454388,4.21131 -10.724532,3.65845 -12.517034,8.16126 -1.647935,4.13959 4.191129,8.49513 3.402315,12.85613 -0.704064,3.89223 -7.52931,5.97204 -6.896617,9.87171 0.337706,2.08147 4.826947,1.86052 5.176028,3.94026 0.265679,1.58275 -2.211391,2.51918 -2.759055,4.03715 -1.068076,2.96036 -1.641928,6.32076 -0.835705,9.35009 1.272178,4.78028 4.459666,9.31172 8.530977,12.35003 2.476603,1.84811 8.744932,0.005 8.901472,3.00272 0.110641,2.11984 -3.820487,2.55756 -6.040138,2.74268 -3.875673,0.32327 -8.041071,-5.09989 -11.233156,-2.97286 -1.410306,0.93968 -1.267217,3.47674 -0.415973,4.89693 0.344663,0.57492 1.617913,0.25167 1.875985,0.8667 0.803755,1.9154 -2.399108,3.75049 -2.272972,5.81169 0.06076,0.99273 0.584072,2.07039 1.429743,2.65079 1.533647,1.0525 4.96086,-0.8741 5.608981,0.8186 0.641529,1.6756 -3.560384,2.2695 -3.691329,4.0506 -0.141787,1.9288 1.31165,4.5781 3.318978,4.8511 3.607264,0.4903 5.198572,-8.5443 8.330157,-6.7751 1.232227,0.6962 -0.382738,2.7349 -0.892552,4.0142 -0.76822,1.9272 -3.50974,3.3379 -3.210985,5.3773 0.334511,2.2831 2.765361,4.8581 5.185487,4.828 3.520239,-0.039 4.044522,-6.1657 7.394089,-7.2076 1.65503,-0.5146 3.90866,-0.34 5.14189,0.8254 0.67094,0.6339 0.91651,1.8537 0.49553,2.6624 -1.70231,3.2708 -6.843799,3.288 -10.217546,5.0188 -1.718654,0.8816 -4.596578,0.9382 -5.103983,2.733 -0.889042,3.1455 2.245462,6.7979 5.221462,8.3868 1.355529,0.7236 3.782181,-1.2749 4.667237,-0.058 0.95324,1.3107 -2.246294,2.9266 -1.819142,4.4694 0.309762,1.119 1.613512,2.0876 2.823472,2.1908 2.63358,0.2252 4.33357,-3.9109 6.96293,-3.646 1.86245,0.1877 3.62495,1.8208 4.23803,3.506 0.77881,2.1408 -2.30357,4.6206 -1.33124,6.6879 0.97026,2.063 3.7365,3.3191 6.10452,3.4829 2.5063,0.1737 4.53767,-3.3343 6.97437,-2.7541 1.93153,0.4602 1.99406,3.5644 3.78037,4.4004 3.3506,1.5678 7.50157,0.7955 11.20476,0.3058 1.60956,-0.2127 4.654,-1.3908 4.654,-1.3908 4.66723,11.9753 1.42624,-6.5889 5.82968,1.2388 3.71436,0.382 7.8855,1.0336 11.19468,-0.6309 1.76421,-0.8874 1.7472,-3.9922 3.66622,-4.5084 2.42095,-0.6505 4.53952,2.7974 7.04042,2.5511 2.36293,-0.2327 5.09598,-1.5685 6.01302,-3.659 0.91901,-2.0945 -2.22383,-4.4841 -1.50017,-6.6466 0.56967,-1.7024 2.28969,-3.3861 4.14664,-3.6276 2.62159,-0.341 4.42692,3.744 7.05375,3.4427 1.20685,-0.1384 2.48532,-1.1445 2.7663,-2.272 0.38746,-1.5545 -2.85422,-3.0771 -1.93491,-4.4148 0.85355,-1.2426 3.3305,0.6848 4.66696,-0.079 2.93419,-1.6744 5.97588,-5.4165 5.00658,-8.535 -0.55321,-1.7796 -3.43342,-1.7525 -5.17403,-2.5841 -3.41684,-1.6322 -8.55494,-1.5002 -10.34041,-4.7205 -0.44154,-0.7964 -0.22923,-2.0223 0.42521,-2.6757 1.2029,-1.2009 3.45313,-1.4407 5.12075,-0.9742 3.37502,0.9443 4.05413,7.053 7.57407,6.9903 2.42006,-0.035 4.78398,-2.6845 5.05987,-4.9766 0.24639,-2.0471 -2.53027,-3.3779 -3.34758,-5.2823 -0.54238,-1.2639 -2.20706,-3.255 -0.99313,-3.9866 3.08509,-1.8594 4.90728,7.1257 8.50065,6.5309 1.99957,-0.3311 3.3846,-3.0214 3.19346,-4.9455 -0.17655,-1.7767 -4.39211,-2.2486 -3.79375,-3.94208 0.60452,-1.71088 4.0798,0.11558 5.58591,-0.981 0.8305,-0.60471 1.32408,-1.69712 1.35937,-2.69123 0.0733,-2.06409 -3.1754,-3.80559 -2.42102,-5.74361 0.24222,-0.62229 1.52328,-0.33609 1.8531,-0.92078 0.81452,-1.44436 0.8945,-3.98464 -0.53938,-4.88308 -3.24539,-2.03365 -7.2722,3.50836 -11.15472,3.2976 -2.22356,-0.12066 -6.16253,-0.44424 -6.10625,-2.5665 0.0797,-3.00123 6.39098,-1.34051 8.81929,-3.25976 3.99195,-3.15528 7.06217,-7.77747 8.2114,-12.59288 0.72831,-3.05158 0.0706,-6.39411 -1.07304,-9.32242 -0.58636,-1.50151 -3.08649,-2.36575 -2.86147,-3.95561 0.29567,-2.08909 4.7889,-1.99842 5.07316,-4.08892 0.53254,-3.91657 -6.34538,-5.79761 -7.14892,-9.66798 -0.90023,-4.33649 4.82507,-8.8598 3.07167,-12.95003 -1.90719,-4.44914 -10.16009,-3.65663 -12.72148,-7.79518 -1.50179,-2.42644 1.66351,-6.62417 -0.59457,-8.44162 -2.85819,-2.3006 -7.67413,2.30629 -11.18707,1.07459 -2.78677,-0.97716 -3.19136,-6.02338 -6.16144,-6.12505 -4.7384,-0.1622 -6.35531,11.07823 -10.59817,9.07234 -2.79797,-1.32283 2.93054,-6.73534 0.79904,-8.90967 -2.65116,-2.70387 -8.46024,2.28147 -11.66744,0.19332 -2.31275,-1.5056 -0.44265,-6.25648 -2.91474,-7.51199 -2.52848,-1.28421 -8.37318,1.91742 -8.37318,1.91742 -0.35742,1.26051 -1.26176,0.88695 -1.40897,0.0203 0,0 -3.91159,-2.00114 -6.71641,-2.02382 z"
           id="path4820-2"
           inkscape:connector-curvature="0"
           sodipodi:nodetypes="cccccccccccsccccccccccccccccccccscccccccccccccccccccccccccccsccccccccccccccccccccsccccccccccccc"
           inkscape:transform-center-y="73.224252"
           inkscape:transform-center-x="-0.72802928" />
        <path
           inkscape:connector-curvature="0"
           style="fill:#fc9981;fill-opacity:1;fill-rule:evenodd;stroke:none;stroke-width:0.91238481px;stroke-linecap:butt;stroke-linejoin:miter;stroke-opacity:1"
           d="m 147.58984,154.09961 c -4.40785,-0.10445 -8.7824,1.46233 -13.04492,5.01562 -2.11006,1.85036 -1.73219,5.90494 -3.98437,7.5625 -3.09829,2.28036 -7.50597,1.13606 -11.22657,1.89258 -4.25403,0.86496 -9.00276,0.61989 -12.67382,3.02539 -3.92833,2.57407 -8.08731,6.54206 -8.69141,11.34375 -1.68276,13.37558 7.26636,26.72829 15.57031,37.0625 4.45114,4.95051 8.37393,9.2986 11.97852,12.96289 1.20805,8.14481 2.8583,15.8071 4.45703,22.50977 10.77675,40.3775 13.83084,51.473 27.0957,0 1.06146,-4.45012 2.13649,-9.35036 3.10157,-14.50391 6.0115,-4.12035 12.96107,-10.94629 21.6621,-20.96875 8.30395,-10.33421 17.25503,-23.68692 15.57227,-37.0625 -0.60411,-4.80169 -4.76308,-8.76968 -8.69141,-11.34375 -3.67106,-2.4055 -8.42175,-2.16043 -12.67578,-3.02539 -3.72059,-0.75652 -8.12826,0.38778 -11.22656,-1.89258 -2.25217,-1.65756 -1.87431,-5.71214 -3.98438,-7.5625 -4.39063,-3.1355 -8.83042,-4.91117 -13.23828,-5.01562 z"
           transform="translate(0,752.36218)"
           id="path4897-0" />
        <path
           style="fill:#fa7f6e;fill-opacity:1;fill-rule:evenodd;stroke:none;stroke-width:1.30968809px;stroke-linecap:butt;stroke-linejoin:miter;stroke-opacity:1"
           d="m 144.64829,961.64905 c 4.13745,10.89361 1.16991,45.49225 -10.92565,42.42315 -5.34215,-1.3554 7.13794,-17.45604 1.94232,-19.46819 -4.75653,-1.84216 -2.51797,17.49849 -7.28375,15.69089 -2.17253,-0.82414 2.72206,-6.81465 0.72839,-8.13611 -2.52104,-1.67097 -3.98615,7.1473 -6.79819,6.39266 -1.76582,-0.47398 -0.52379,-5.34107 -2.42792,-5.81144 -3.91658,-0.96747 -5.31027,9.38299 -9.23177,8.43949 -2.96653,-0.7138 -0.92465,-7.58936 -3.87048,-8.99595 -6.34326,-3.0288 -23.242283,1.27891 -20.303744,5.6968 0.627168,0.94291 24.620434,-8.07039 14.000814,-18.63334 -3.648709,-3.62924 -11.970989,1.33353 -14.577502,-3.06947 -1.465309,-2.47525 3.443359,-5.79831 2.185125,-8.42662 -2.102321,-4.3915 -6.306845,-7.24496 -4.613049,-10.75106 1.565856,-3.24125 8.957988,1.07067 10.189076,-2.32445 1.26173,-3.47962 -5.156477,-5.34121 -6.312594,-9.00772 -1.200465,-3.80706 -1.413193,-8.38346 -0.24279,-12.20389 0.670918,-2.1901 2.070749,-4.37677 3.884662,-5.23033 1.588849,-0.74757 3.775528,1.87237 5.098637,0.5811 2.334213,-2.27796 -1.497242,-8.35845 0.971166,-10.75106 1.512518,-1.46608 4.121019,0.72 6.070379,0.12692 2.86309,-0.87107 4.81137,-6.48068 7.53902,-5.19272 2.3351,1.10261 1.44144,8.17351 1.44144,8.17351 -0.52095,4.31634 7.68339,4.40469 12.38465,6.19053 l -11.41121,0.58122 c -24.226684,0.1318 10.05435,2.30275 16.02428,3.48689 l -16.26708,0.87171 c -38.013879,-1.58629 10.68285,3.68046 16.02428,5.52073 l -15.53869,-0.2906 c -31.292596,-0.5519 9.03047,3.37344 16.26708,5.23033 l -10.68287,1.74344 c -33.061441,7.60082 6.13456,1.4846 14.81032,1.16222 l -10.68286,7.5549 c -23.382825,19.69491 -2.99698,6.72809 8.49773,-1.16234 l -2.67073,6.68306 c -9.9741,19.10031 -5.06565,21.92485 6.79821,-6.68306 l -1.94235,12.78501 c -6.22357,27.19458 4.86632,-4.98101 7.28376,-11.91329 l -2.18512,17.43423 c -1.30046,14.76284 0.8958,8.38567 5.09863,-17.14361 z"
           id="path4854-2"
           inkscape:connector-curvature="0"
           sodipodi:nodetypes="caaaaaaaassasaaaaaaaaaccccccccccccccccccc"
           inkscape:transform-center-x="17.195189"
           inkscape:transform-center-y="10.666336" />
        <path
           inkscape:transform-center-y="10.666336"
           inkscape:transform-center-x="-17.195189"
           sodipodi:nodetypes="caaaaaaaassaaaaaaaaaaaccccccccccccccccccc"
           inkscape:connector-curvature="0"
           id="path4883"
           d="m 142.31837,961.64905 c -4.13745,10.89361 -1.16991,45.49225 10.92565,42.42315 5.34215,-1.3554 -7.13793,-17.45604 -1.94232,-19.46819 4.75654,-1.84216 2.51797,17.49849 7.28375,15.69089 2.17253,-0.82414 -2.72206,-6.81465 -0.72838,-8.13611 2.52103,-1.67097 3.98614,7.1473 6.79818,6.39266 1.76582,-0.47398 0.52379,-5.34107 2.42792,-5.81144 3.91658,-0.96747 5.31027,9.38299 9.23177,8.43949 2.96654,-0.7138 1.30898,-7.2152 3.87048,-8.99595 4.17216,-2.90046 20.14047,-0.37263 14.84438,-0.0499 -15.26773,0.93038 -18.03147,-5.43343 -8.54144,-12.88664 3.79836,-2.98313 10.32846,0.58837 13.12893,-3.06947 1.5289,-1.99699 -0.27651,-5.12844 -0.0123,-7.67027 0.40599,-3.90578 4.41227,-8.16168 2.44021,-11.50741 -1.57594,-2.67371 -7.78153,1.05797 -8.74051,-2.32445 -1.05211,-3.71109 5.15647,-5.34121 6.31258,-9.00772 1.20047,-3.80706 1.4132,-8.38346 0.2428,-12.20389 -0.67092,-2.1901 -2.07075,-4.37677 -3.88466,-5.23033 -1.58885,-0.74757 -3.77553,1.87237 -5.09864,0.5811 -2.33421,-2.27796 1.49724,-8.35845 -0.97116,-10.75106 -1.51253,-1.46608 -4.12103,0.72 -6.07038,0.12692 -2.8631,-0.87107 -4.81137,-6.48068 -7.53903,-5.19272 -2.3351,1.10261 -1.44143,8.17351 -1.44143,8.17351 0.52095,4.31634 -7.68339,4.40469 -12.38466,6.19053 l 11.41121,0.58122 c 24.22669,0.1318 -10.05434,2.30275 -16.02427,3.48689 l 16.26708,0.87171 c 38.01387,-1.58629 -10.68285,3.68046 -16.02429,5.52073 l 15.5387,-0.2906 c 31.29259,-0.5519 -9.03048,3.37344 -16.26708,5.23033 l 10.68286,1.74344 c 33.06145,7.60082 -6.13456,1.4846 -14.81031,1.16222 l 10.68286,7.5549 c 23.38282,19.69491 2.99697,6.72809 -8.49773,-1.16234 l 2.67072,6.68306 c 9.9741,19.10031 5.06566,21.92485 -6.7982,-6.68306 l 1.94235,12.78501 c 6.22356,27.19458 -4.86633,-4.98101 -7.28376,-11.91329 l 2.18511,17.43423 c 1.30047,14.76284 -0.89579,8.38567 -5.09862,-17.14361 z"
           style="fill:#fa7f6e;fill-opacity:1;fill-rule:evenodd;stroke:none;stroke-width:1.30968809px;stroke-linecap:butt;stroke-linejoin:miter;stroke-opacity:1" />
        <path
           style="fill:#8b0c18;fill-opacity:1;fill-rule:evenodd;stroke:none;stroke-width:1.15674901px;stroke-linecap:butt;stroke-linejoin:miter;stroke-opacity:1"
           d="m 119.53906,215.38867 c -1.59608,-0.28325 -2.51999,13.74491 -7.34375,16.00977 -2.34611,1.10155 -5.46852,-0.34357 -7.46679,-2.03516 -1.87983,-1.5912 -0.82641,-6.80865 -3.2461,-6.78125 -2.275041,0.0253 -3.014663,4.06751 -2.921873,6.44141 0.0738,1.88816 3.309753,3.12476 2.716793,4.91015 -2.059919,6.20225 -14.824786,4.56401 -16.123043,6.1875 -1.505461,1.88262 1.233881,7.72281 3.277344,6.51368 5.007917,-2.96332 6.690227,-4.19006 9.484375,1.30273 0.969926,1.9067 -4.40382,6.73983 -2.185547,8.58203 2.325402,1.9312 5.381011,-10.11657 12.267581,-3.33789 1.26759,1.2478 2.07553,2.92248 3.10156,4.39258 1.24057,1.7774 4.33001,3.25701 3.69336,5.35351 -1.47819,4.8678 -13.78194,-0.11166 -13.86914,4.99415 -0.0362,2.12 4.72039,0.4216 5.68555,2.2871 0.90794,1.7548 -2.66597,4.55991 -1.20899,5.84961 4.87637,4.3169 14.32491,-12.94728 17.83399,-7.36718 2.0564,3.2701 -7.36738,4.43382 -7.94727,8.29882 -0.5984,3.9883 1.81452,9.02279 5.29883,10.77149 2.32131,1.165 5.02236,-1.98172 7.57226,-1.60352 2.88222,0.4276 4.94925,5.10167 7.73828,4.23047 2.13488,-0.6669 1.01893,-6.17951 3.2461,-6.10351 6.78165,0.8444 1.09849,-9.62226 0.97461,-15.25586 -0.063,-2.24013 2.30852,-7.94656 2.94349,-11.64798 2.42843,3.23621 3.48569,8.9592 3.41002,11.64798 -0.12388,5.6336 -5.80705,16.10026 0.97461,15.25586 2.22717,-0.076 3.06576,5.92511 5.80664,6.10351 2.18681,0.1423 3.18919,-3.26537 5.17578,-4.23047 2.00285,-0.973 3.95098,-1.89477 6.48633,-1.42187 11.26831,2.1016 12.05093,-1.252 6.38672,-7.7461 -2.52266,-2.8923 -10.05563,-5.06502 -7.94726,-8.29882 2.53829,-3.8932 7.90968,5.29361 12.4082,5.63281 3.04147,0.2293 5.88544,-1.66727 8.82617,-2.50977 3.26196,-0.9345 9.81132,0.70994 9.78125,-2.82226 -0.0691,-8.1137 -23.53742,1.98734 -22.57617,-6.06446 0.33367,-2.795 6.13609,1.9071 8.0918,-0.0332 2.25174,-2.2333 -0.479,-7.48459 0.51562,-9.71289 4.24467,-9.50962 13.65899,4.56569 15.88867,-0.0664 1.21791,-2.5301 -6.41523,-4.40584 -5.44531,-6.3125 2.79415,-5.4928 2.30264,-3.13128 7.31055,-0.16796 2.04347,1.20919 4.1227,-4.22456 3.27929,-6.51368 -2.05613,-5.58062 -14.17416,-0.567 -16.12304,-6.18945 -0.61591,-1.77689 2.64299,-3.02004 2.71679,-4.9082 0.0928,-2.37389 -0.64684,-6.41609 -2.92187,-6.44141 -2.41969,-0.0274 -1.09512,5.62764 -3.24805,6.78125 -1.62748,0.87206 -4.0896,0.40701 -5.41797,-0.90625 -2.91205,-2.87891 -0.73094,-14.73828 -2.55078,-12.27734 -3.60425,4.87389 -3.07879,12.88579 -5.50195,12.39062 l -2.95313,5.79688 c -4.89702,1.74467 1.38501,1.67193 -6.17773,-11.77539 l -3.60742,8.04687 c -4.89462,-5.67588 -9.03132,0.48977 -10.26953,6.80274 -1.83357,1.17467 -3.40858,2.19333 -4.76563,3.11914 -0.81996,-1.85502 -1.62109,-3.36524 -1.62109,-3.36524 l -3.4043,-9.27539 c -9.82729,25.88155 -5.37536,15.48862 -6.18555,11.27539 l -1.17773,-13.29101 c -7.56273,13.44731 -2.68544,16.62536 -7.07031,8.46289 l -0.39453,-6.86524 c -0.11853,0.49518 2.71362,-6.98353 -0.89063,-11.85742 -0.11374,-0.15381 -0.22367,-0.23697 -0.33008,-0.25586 z"
           transform="translate(0,752.36218)"
           id="path4856"
           inkscape:connector-curvature="0"
           sodipodi:nodetypes="csccscccsccccccccccccccccccsccscccccccccccccccccccccccccccccc" />
        <path
           style="fill:#7d0025;fill-opacity:1;fill-rule:evenodd;stroke:none;stroke-width:0.99990398px;stroke-linecap:butt;stroke-linejoin:miter;stroke-opacity:1"
           d="m 135.65691,930.40519 c 2.63203,7.25845 14.7609,9.67773 19.36752,3.45928 6.21799,-8.39363 -2.51661,-24.47603 -6.18888,-31.60417 -6.0328,9.6571 -16.57664,18.77409 -13.17864,28.14489 z"
           id="path4867-3"
           inkscape:connector-curvature="0"
           sodipodi:nodetypes="aaca" />
        <path
           style="fill:#940805;fill-opacity:1;fill-rule:evenodd;stroke:none;stroke-width:0.99990398px;stroke-linecap:butt;stroke-linejoin:miter;stroke-opacity:1"
           d="m 148.75511,902.70667 c -2.77673,8.46906 -13.11847,19.52382 -9.8263,28.45702 1.68012,4.55895 8.53659,7.36357 11.81883,3.94014 6.95607,-7.25527 0.95167,-21.48012 -1.99253,-32.39716 z"
           id="path4865-7"
           inkscape:connector-curvature="0"
           sodipodi:nodetypes="caac" />
        <path
           sodipodi:nodetypes="cccccccscccccccsccccccsccccc"
           inkscape:connector-curvature="0"
           style="fill:#9e0a2a;fill-opacity:1;fill-rule:evenodd;stroke:none;stroke-width:0.99139434px;stroke-linecap:butt;stroke-linejoin:miter;stroke-opacity:1"
           d="m 143.50781,138.95703 c -1.1966,-0.0139 -2.40077,0.21095 -3.48633,0.65039 -1.58814,0.64289 -2.39245,2.93671 -3.67773,4.2832 -0.75698,0.79305 -1.40389,2.04318 -2.36914,2.22852 -2.37974,0.45693 -4.20812,-3.84177 -6.55469,-3.11523 -2.54341,0.78748 -3.14099,5.47079 -5.37109,7.23828 -0.89131,0.70642 -2.01652,0.72896 -3.00195,1.1875 -3.21707,1.49695 -8.45776,1.08316 -9.47461,5.09375 -0.67468,2.66102 1.97553,5.02908 3.76562,6.56054 3.59844,3.07851 8.47239,5.8815 12.85742,4.28516 2.75171,-1.00175 3.28111,-6.50494 5.96289,-7.79687 3.25017,-1.56574 5.66184,-0.87749 9.04402,-1.81476 2.05034,-0.5682 7.00026,-7.64856 8.44562,-9.58068 0.89254,2.19066 2.22431,6.56688 4.01736,7.63874 3.01245,1.80078 5.95423,5.34591 8.67269,7.71763 2.24306,1.95697 1.29224,7.40389 3.67969,9.09961 3.80456,2.70224 9.24906,1.29312 13.53515,-0.7207 2.13218,-1.00181 5.31582,-2.58346 5.3711,-5.32813 0.0833,-4.13664 -5.07842,-5.1272 -7.78321,-7.42382 -0.82851,-0.70349 -1.90805,-1.02388 -2.58007,-1.94141 -1.68143,-2.29568 -1.01437,-6.97043 -3.25782,-8.4043 -2.06982,-1.32292 -4.97512,2.33739 -7.14843,1.26563 -0.88152,-0.43472 -1.17188,-1.81193 -1.69141,-2.77735 -0.8821,-1.63917 -1.05137,-4.06437 -2.41211,-5.10546 -2.48031,-1.89769 -6.17205,-2.54047 -8.92383,-0.88477 -0.50091,0.30139 -0.9492,0.7152 -1.34961,1.20703 -0.24579,-0.52786 -0.54331,-1.00881 -0.91601,-1.40039 -1.38379,-1.45392 -3.35919,-2.13891 -5.35352,-2.16211 z"
           transform="translate(0,752.36218)"
           id="path4904" />
      </g>
    </g>
  </g>
</svg>
