<?xml version="1.0" encoding="UTF-8"?>
<!DOCTYPE svg PUBLIC "-//W3C//DTD SVG 1.1//EN" "http://www.w3.org/Graphics/SVG/1.1/DTD/svg11.dtd">
<svg version="1.1" xmlns="http://www.w3.org/2000/svg" xmlns:xlink="http://www.w3.org/1999/xlink" x="0" y="0" width="526.611" height="371.242" viewBox="0, 0, 526.611, 371.242">
  <g id="Layer_1">
    <path d="M40.823,305.683 C27.822,303.621 15.901,295.785 9.166,283.332 C-2.279,262.113 5.642,235.629 26.854,224.183 C48.088,212.738 74.55,220.652 85.993,241.871 C86.533,242.879 86.993,243.886 87.447,244.91 L409.416,71.175 C408.815,70.246 408.197,69.3 407.65,68.308 C396.221,47.09 404.126,20.605 425.369,9.16 C446.55,-2.285 473.064,5.629 484.493,26.855 C491.198,39.324 491.221,53.59 485.806,65.566 C498.774,67.621 510.721,75.449 517.432,87.918 C528.876,109.121 520.978,135.621 499.774,147.05 C478.533,158.511 452.05,150.59 440.604,129.371 C440.064,128.379 439.635,127.355 439.15,126.332 L117.205,300.074 C117.8,301.011 118.401,301.941 118.947,302.949 C130.407,324.152 122.486,350.644 101.259,362.082 C80.05,373.527 53.58,365.613 42.104,344.402 C35.401,331.933 35.376,317.652 40.823,305.683" fill="#FAF4E5" id="path2966"/>
    <path d="M80.572,371.242 C63.055,371.242 46.993,361.672 38.658,346.266 C32.336,334.505 31.243,321.007 35.474,308.56 C22.731,305.226 12.051,296.9 5.721,285.195 C-6.734,262.105 1.913,233.191 24.993,220.736 C31.927,216.999 39.728,215.023 47.553,215.023 C64.892,215.023 80.788,224.398 89.177,239.526 L403.943,69.678 C391.89,46.634 400.595,18.059 423.511,5.712 C430.425,1.976 438.218,-0 446.042,-0 C463.585,-0 479.64,9.579 487.943,24.998 C494.253,36.736 495.352,50.23 491.146,62.686 C503.903,66.017 514.575,74.347 520.881,86.061 C526.911,97.234 528.234,110.094 524.6,122.269 C520.966,134.449 512.809,144.474 501.634,150.498 C494.698,154.24 486.89,156.219 479.058,156.219 C461.712,156.22 445.809,146.845 437.422,131.715 L122.657,301.582 C128.472,312.645 129.701,325.301 126.115,337.295 C122.474,349.473 114.306,359.501 103.117,365.53 C96.193,369.266 88.396,371.242 80.572,371.242 z M47.553,222.857 C41.022,222.857 34.507,224.508 28.712,227.631 C9.434,238.034 2.21,262.187 12.613,281.472 C18.54,292.433 29.047,299.849 41.437,301.815 C42.644,302.006 43.693,302.752 44.273,303.829 C44.851,304.906 44.894,306.192 44.388,307.305 C39.208,318.69 39.634,331.535 45.554,342.547 C52.514,355.411 65.935,363.408 80.572,363.408 C87.102,363.408 93.612,361.757 99.399,358.635 C108.747,353.598 115.569,345.223 118.611,335.051 C121.651,324.883 120.546,314.144 115.502,304.811 C115.081,304.037 114.601,303.28 114.093,302.479 L113.896,302.17 C113.315,301.252 113.141,300.134 113.416,299.083 C113.691,298.032 114.389,297.143 115.345,296.627 L437.29,122.885 C438.235,122.374 439.348,122.275 440.371,122.61 C441.393,122.945 442.232,123.685 442.69,124.656 C442.847,124.986 442.997,125.316 443.147,125.645 C443.45,126.306 443.737,126.932 444.044,127.501 C450.996,140.387 464.409,148.386 479.058,148.385 C485.597,148.385 492.117,146.732 497.915,143.603 C507.247,138.573 514.058,130.201 517.093,120.029 C520.128,109.858 519.024,99.115 513.985,89.778 C508.083,78.812 497.591,71.399 485.192,69.435 C483.987,69.243 482.939,68.5 482.358,67.425 C481.779,66.35 481.734,65.066 482.237,63.953 C487.392,52.552 486.956,39.707 481.044,28.71 C474.11,15.834 460.698,7.834 446.042,7.834 C439.513,7.834 433.009,9.484 427.232,12.606 C407.939,23 400.704,47.154 411.099,66.451 C411.532,67.237 412.056,68.046 412.61,68.902 L412.704,69.048 C413.298,69.965 413.482,71.089 413.21,72.148 C412.938,73.206 412.238,74.104 411.277,74.622 L89.308,248.356 C88.346,248.876 87.213,248.969 86.18,248.616 C85.147,248.262 84.308,247.494 83.866,246.496 C83.404,245.452 83.002,244.581 82.54,243.718 C75.603,230.855 62.192,222.857 47.553,222.857" fill="#1A1919" id="path2968"/>
    <path d="M80.49,355.874 L80.323,355.87 C75.023,355.65 55.142,348.77 50.556,340.044 C49.06,337.198 49.123,334.22 50.733,331.66 C51.886,329.829 54.304,329.279 56.135,330.43 C57.966,331.582 58.516,334 57.364,335.831 L57.31,335.935 C57.308,336.429 58.939,339.321 66.554,343.147 C72.579,346.173 78.712,347.963 80.649,348.043 C82.81,348.133 84.489,349.958 84.399,352.119 C84.313,354.225 82.577,355.874 80.49,355.874" fill="#1A1919" id="path2970"/>
    <path d="M96.343,353.522 C95.458,353.522 94.568,353.223 93.834,352.61 C92.175,351.223 91.953,348.753 93.341,347.093 C94.221,346.04 95.235,345.08 96.216,344.151 C98.591,341.902 100.141,340.301 100.066,338.615 C99.97,336.454 101.644,334.624 103.805,334.528 C105.951,334.431 107.796,336.106 107.892,338.267 C108.131,343.654 104.357,347.228 101.602,349.839 C100.746,350.649 99.939,351.414 99.352,352.117 C98.575,353.044 97.464,353.522 96.343,353.522" fill="#1A1919" id="path2972"/>
    <path d="M128.656,293.007 C128.476,293.007 128.294,292.994 128.11,292.969 C125.969,292.671 124.473,290.693 124.771,288.55 C125.081,286.321 125.887,284.16 126.667,282.07 C127.798,279.039 128.867,276.176 128.013,274.217 C127.149,272.234 128.056,269.925 130.039,269.061 C132.02,268.198 134.329,269.104 135.195,271.087 C137.312,275.949 135.48,280.861 134.006,284.809 C133.346,286.58 132.721,288.253 132.53,289.629 C132.259,291.588 130.579,293.007 128.656,293.007" fill="#1A1919" id="path2974"/>
    <path d="M142.749,285.961 C142.189,285.961 141.619,285.84 141.079,285.584 C139.123,284.66 138.286,282.325 139.21,280.369 L139.284,280.217 C141.497,275.53 143.787,270.685 143.535,265.798 C143.425,263.638 145.086,261.796 147.246,261.686 C149.409,261.573 151.247,263.236 151.359,265.396 C151.71,272.251 148.871,278.261 146.365,283.563 L146.292,283.716 C145.624,285.131 144.218,285.961 142.749,285.961" fill="#1A1919" id="path2976"/>
    <path d="M161.553,279.499 C161.309,279.499 161.06,279.476 160.81,279.428 C158.686,279.02 157.294,276.967 157.702,274.843 C158.562,270.37 160.252,265.8 161.887,261.381 C163,258.372 164.052,255.529 164.837,252.775 C165.429,250.694 167.597,249.487 169.677,250.08 C171.757,250.673 172.963,252.84 172.37,254.92 C171.504,257.965 170.35,261.083 169.233,264.099 C167.708,268.22 166.134,272.482 165.396,276.32 C165.035,278.195 163.394,279.499 161.553,279.499" fill="#1A1919" id="path2978"/>
    <path d="M185.634,266.578 C185.134,266.578 184.624,266.481 184.134,266.278 C182.136,265.449 181.189,263.157 182.017,261.159 C183.228,258.241 183.882,254.868 184.574,251.298 C185.255,247.787 185.959,244.157 187.261,240.718 C188.026,238.695 190.29,237.677 192.31,238.442 C194.334,239.208 195.353,241.469 194.587,243.492 C193.522,246.305 192.911,249.455 192.265,252.789 C191.528,256.585 190.767,260.51 189.253,264.161 C188.626,265.668 187.169,266.578 185.634,266.578" fill="#1A1919" id="path2980"/>
    <path d="M211.474,253.069 C210.838,253.069 210.19,252.914 209.593,252.585 C207.698,251.544 207.004,249.163 208.044,247.267 C208.496,246.34 208.922,242.542 209.203,240.029 C210.069,232.304 210.809,227.452 213.781,225.195 C214.999,224.271 216.489,223.893 217.989,224.137 C220.123,224.483 221.574,226.495 221.228,228.63 C220.981,230.152 219.888,231.326 218.509,231.75 C217.804,233.624 217.284,238.268 216.988,240.901 C216.434,245.851 216.037,248.988 214.912,251.037 C214.199,252.335 212.859,253.069 211.474,253.069" fill="#1A1919" id="path2982"/>
    <path d="M233.808,237.789 C233.398,237.789 232.981,237.724 232.571,237.588 C230.519,236.906 229.407,234.689 230.091,232.636 C230.337,231.89 230.61,231.011 230.906,230.052 C233.207,222.616 235.421,216.247 239.218,213.619 C240.999,212.387 243.436,212.832 244.668,214.611 C245.9,216.389 245.455,218.829 243.677,220.06 C241.794,221.362 239.408,229.074 238.39,232.368 C238.075,233.384 237.786,234.316 237.523,235.106 C236.978,236.749 235.449,237.789 233.808,237.789" fill="#1A1919" id="path2984"/>
    <path d="M258.49,224.874 C258.243,224.874 257.995,224.851 257.745,224.802 C255.62,224.393 254.23,222.339 254.641,220.215 C255.496,215.779 257.739,211.804 259.907,207.96 C261.117,205.815 262.259,203.79 263.095,201.805 C263.933,199.812 266.228,198.877 268.224,199.714 C270.218,200.552 271.155,202.849 270.316,204.843 C269.305,207.244 267.996,209.565 266.73,211.809 C264.784,215.258 262.946,218.516 262.332,221.698 C261.971,223.572 260.33,224.874 258.49,224.874" fill="#1A1919" id="path2986"/>
    <path d="M281.974,211.359 C281.343,211.359 280.701,211.205 280.107,210.882 C278.207,209.848 277.504,207.47 278.538,205.569 L279.259,204.258 C281.204,200.736 285.759,192.487 284.719,189.249 C284.057,187.19 285.189,184.984 287.248,184.321 C289.308,183.662 291.514,184.792 292.177,186.852 C294.093,192.813 290.234,200.591 286.115,208.046 L285.419,209.313 C284.708,210.618 283.363,211.359 281.974,211.359" fill="#1A1919" id="path2988"/>
    <path d="M299.597,205.484 C299.216,205.484 298.827,205.428 298.442,205.31 C296.376,204.673 295.216,202.482 295.853,200.414 C296.189,199.32 296.522,198.053 296.876,196.712 C298.204,191.667 299.708,185.948 303.082,181.987 C304.486,180.34 306.958,180.143 308.604,181.545 C310.251,182.947 310.449,185.42 309.047,187.067 C306.83,189.669 305.566,194.47 304.451,198.706 C304.077,200.127 303.724,201.47 303.339,202.718 C302.821,204.402 301.272,205.484 299.597,205.484" fill="#1A1919" id="path2990"/>
    <path d="M326.624,190.796 C326.013,190.796 325.393,190.653 324.814,190.35 C322.896,189.348 322.154,186.982 323.155,185.065 C323.591,184.232 324.106,182.878 324.65,181.444 C326.491,176.595 328.581,171.099 333.042,169.64 C335.1,168.968 337.31,170.09 337.982,172.145 C338.647,174.176 337.56,176.36 335.552,177.061 C334.411,177.808 332.767,182.137 331.973,184.227 C331.343,185.883 330.748,187.448 330.099,188.693 C329.4,190.03 328.035,190.796 326.624,190.796" fill="#1A1919" id="path2992"/>
    <path d="M350.131,177.874 L349.904,177.867 C347.743,177.743 346.093,175.892 346.218,173.733 C346.431,169.992 348.086,166.728 349.546,163.848 C350.743,161.486 351.875,159.255 352.099,157.099 C352.321,154.947 354.253,153.386 356.399,153.608 C358.55,153.831 360.114,155.756 359.89,157.908 C359.517,161.505 357.932,164.631 356.533,167.39 C355.312,169.799 354.159,172.075 354.037,174.181 C353.918,176.264 352.191,177.874 350.131,177.874" fill="#1A1919" id="path2994"/>
    <path d="M377.153,164.359 C376.794,164.359 376.432,164.31 376.071,164.206 C373.991,163.611 372.788,161.442 373.385,159.362 C375.28,152.747 378.024,144.523 382.46,139.606 C383.911,138 386.389,137.874 387.993,139.322 C389.599,140.771 389.726,143.248 388.276,144.854 C384.88,148.619 382.449,156.169 380.916,161.52 C380.423,163.239 378.855,164.359 377.153,164.359" fill="#1A1919" id="path2996"/>
    <path d="M402.399,149.086 C401.946,149.086 401.484,149.006 401.034,148.839 C399.007,148.084 397.976,145.829 398.73,143.802 C399.843,140.812 401.434,137.979 402.974,135.24 C404.884,131.841 406.688,128.631 407.402,125.5 C407.884,123.39 409.983,122.071 412.093,122.552 C414.201,123.033 415.521,125.133 415.039,127.242 C414.071,131.479 411.901,135.342 409.803,139.078 C408.346,141.669 406.971,144.117 406.071,146.533 C405.484,148.111 403.989,149.086 402.399,149.086" fill="#1A1919" id="path2998"/>
    <path d="M425.907,134.992 C425.485,134.992 425.055,134.923 424.632,134.777 C422.587,134.072 421.5,131.843 422.205,129.798 C424.481,123.192 427.417,116.736 429.989,111.204 C430.902,109.243 433.232,108.392 435.192,109.303 C437.154,110.215 438.005,112.545 437.093,114.506 C434.603,119.861 431.766,126.097 429.61,132.35 C429.052,133.972 427.533,134.992 425.907,134.992" fill="#1A1919" id="path3000"/>
    <path d="M416.502,57.445 C414.907,57.445 413.409,56.465 412.827,54.882 C410.196,47.747 410.047,35.99 414.852,27.323 C417.661,22.253 421.817,19.017 426.868,17.966 C428.98,17.524 431.06,18.884 431.501,21.002 C431.941,23.12 430.582,25.194 428.464,25.635 C425.675,26.216 423.398,28.062 421.703,31.121 C418.212,37.42 418.186,46.77 420.177,52.172 C420.925,54.202 419.887,56.454 417.857,57.202 C417.409,57.367 416.952,57.445 416.502,57.445" fill="#1A1919" id="path3002"/>
    <path d="M459.39,21.609 C458.845,21.609 458.29,21.494 457.761,21.252 C456.364,20.612 452.852,20.772 450.287,20.888 C449.936,20.904 449.589,20.92 449.247,20.934 C448.21,21.638 446.885,21.804 445.698,21.369 C442.737,20.953 442.147,18.701 442.036,18.012 C441.922,17.304 441.781,14.89 444.726,13.522 C445.265,13.271 445.863,13.14 446.446,13.158 C447.456,13.174 448.654,13.121 449.932,13.063 C453.85,12.884 457.901,12.701 461.023,14.13 C462.991,15.03 463.854,17.355 462.954,19.322 C462.294,20.76 460.875,21.609 459.39,21.609" fill="#1A1919" id="path3004"/>
    <path d="M485.791,305.683 C498.791,303.621 510.713,295.785 517.439,283.332 C528.885,262.113 520.963,235.629 499.752,224.183 C478.525,212.738 452.057,220.652 440.611,241.871 C440.088,242.879 439.619,243.886 439.158,244.91 L117.197,71.175 C117.791,70.246 118.407,69.3 118.963,68.308 C130.401,47.09 122.478,20.605 101.236,9.16 C80.057,-2.285 53.54,5.629 42.119,26.855 C35.408,39.324 35.385,53.59 40.806,65.566 C27.83,67.621 15.885,75.449 9.182,87.918 C-2.271,109.121 5.635,135.621 26.846,147.05 C48.071,158.511 74.557,150.59 86.009,129.371 C86.54,128.379 86.978,127.355 87.463,126.332 L409.401,300.074 C408.806,301.011 408.213,301.941 407.666,302.949 C396.197,324.152 404.119,350.644 425.36,362.082 C446.557,373.527 473.034,365.613 484.502,344.402 C491.213,331.933 491.228,317.652 485.791,305.683" fill="#FAF4E5" id="path3006"/>
    <path d="M446.042,371.242 L446.039,371.242 C438.216,371.241 430.422,369.265 423.5,365.528 C412.306,359.501 404.134,349.472 400.491,337.292 C396.906,325.299 398.139,312.642 403.954,301.586 L89.191,131.715 C80.792,146.85 64.893,156.219 47.553,156.219 C39.722,156.219 31.918,154.24 24.984,150.497 C13.816,144.478 5.658,134.461 2.018,122.291 C-1.626,110.109 -0.306,97.24 5.736,86.056 C12.031,74.347 22.702,66.017 35.466,62.686 C31.253,50.229 32.353,36.736 38.67,24.999 C46.968,9.579 63.021,-0 80.564,-0 C88.389,-0 96.181,1.976 103.099,5.714 C114.287,11.742 122.46,21.769 126.106,33.945 C129.699,45.941 128.478,58.608 122.671,69.678 L437.431,239.527 C445.853,224.376 461.734,215.023 479.057,215.023 C486.881,215.023 494.68,216.999 501.61,220.736 C524.693,233.191 533.341,262.105 520.887,285.191 C514.562,296.899 503.885,305.227 491.138,308.561 C495.365,321.016 494.273,334.513 487.951,346.258 C479.617,361.671 463.56,371.242 446.042,371.242 z M87.463,122.415 C88.105,122.415 88.746,122.573 89.323,122.885 L411.261,296.627 C412.218,297.143 412.915,298.032 413.191,299.084 C413.466,300.134 413.291,301.252 412.708,302.17 L412.622,302.307 C412.079,303.164 411.565,303.974 411.108,304.817 C406.064,314.144 404.958,324.881 407.997,335.048 C411.039,345.221 417.865,353.597 427.218,358.633 C433.004,361.757 439.511,363.408 446.04,363.408 L446.042,363.408 C460.681,363.408 474.096,355.412 481.057,342.539 C486.974,331.544 487.402,318.698 482.225,307.303 C481.72,306.19 481.763,304.904 482.343,303.828 C482.921,302.751 483.97,302.006 485.177,301.815 C497.568,299.849 508.071,292.434 513.993,281.47 C524.393,262.187 517.172,238.034 497.892,227.63 C492.101,224.507 485.587,222.857 479.057,222.857 C464.414,222.857 451.003,230.855 444.058,243.73 C443.571,244.667 443.112,245.669 442.73,246.518 C442.284,247.51 441.444,248.271 440.414,248.62 C439.385,248.968 438.257,248.874 437.298,248.356 L115.337,74.622 C114.379,74.105 113.68,73.213 113.406,72.159 C113.134,71.105 113.31,69.985 113.896,69.067 L114.124,68.71 C114.635,67.913 115.117,67.161 115.544,66.397 C120.552,57.107 121.648,46.361 118.603,36.193 C115.556,26.022 108.729,17.646 99.379,12.608 C93.597,9.484 87.093,7.834 80.564,7.834 C65.907,7.834 52.498,15.834 45.569,28.711 C39.65,39.708 39.216,52.552 44.375,63.951 C44.879,65.064 44.834,66.349 44.255,67.424 C43.675,68.5 42.626,69.244 41.419,69.435 C29.017,71.399 18.525,78.811 12.632,89.772 C7.582,99.121 6.48,109.87 9.523,120.047 C12.564,130.21 19.375,138.575 28.704,143.602 C34.5,146.732 41.018,148.385 47.553,148.385 C62.198,148.385 75.613,140.387 82.564,127.51 C82.871,126.935 83.163,126.298 83.473,125.625 C83.621,125.302 83.769,124.979 83.923,124.656 C84.384,123.685 85.221,122.945 86.242,122.61 C86.64,122.48 87.052,122.415 87.463,122.415" fill="#1A1919" id="path3008"/>
    <path d="M446.132,355.874 C444.044,355.874 442.309,354.225 442.222,352.12 C442.132,349.958 443.81,348.133 445.972,348.043 C447.906,347.963 454.036,346.173 460.058,343.146 C467.648,339.332 469.288,336.446 469.292,335.923 L469.241,335.831 C468.091,334 468.64,331.582 470.471,330.43 C472.302,329.279 474.72,329.828 475.872,331.66 C477.482,334.221 477.546,337.198 476.05,340.045 C471.466,348.77 451.595,355.65 446.298,355.87 L446.132,355.874" fill="#1A1919" id="path3010"/>
    <path d="M430.261,353.522 C429.14,353.522 428.026,353.042 427.251,352.112 C426.664,351.408 425.855,350.641 424.997,349.829 C422.243,347.22 418.474,343.648 418.714,338.267 C418.809,336.106 420.661,334.433 422.801,334.528 C424.962,334.624 426.636,336.454 426.54,338.615 C426.466,340.297 428.014,341.896 430.385,344.143 C431.369,345.075 432.387,346.039 433.269,347.098 C434.653,348.759 434.429,351.229 432.768,352.614 C432.035,353.224 431.146,353.522 430.261,353.522" fill="#1A1919" id="path3012"/>
    <path d="M397.95,293.007 C396.026,293.007 394.348,291.588 394.075,289.629 C393.885,288.254 393.261,286.583 392.601,284.813 C391.128,280.863 389.294,275.947 391.421,271.083 C392.288,269.1 394.597,268.196 396.579,269.063 C398.562,269.93 399.466,272.239 398.599,274.221 C397.742,276.18 398.81,279.044 399.94,282.075 C400.72,284.164 401.526,286.323 401.835,288.55 C402.134,290.693 400.637,292.671 398.493,292.969 C398.311,292.994 398.13,293.007 397.95,293.007" fill="#1A1919" id="path3014"/>
    <path d="M383.857,285.961 C382.387,285.961 380.978,285.129 380.31,283.712 L380.202,283.483 C377.716,278.203 374.896,272.219 375.246,265.396 C375.359,263.236 377.194,261.573 379.359,261.686 C381.519,261.796 383.181,263.638 383.071,265.798 C382.82,270.658 385.093,275.481 387.288,280.145 L387.398,280.374 C388.319,282.331 387.48,284.665 385.523,285.586 C384.984,285.84 384.415,285.961 383.857,285.961" fill="#1A1919" id="path3016"/>
    <path d="M365.06,279.499 C363.218,279.499 361.576,278.193 361.218,276.316 C360.487,272.489 358.911,268.237 357.389,264.126 C356.268,261.1 355.109,257.972 354.241,254.916 C353.651,252.835 354.858,250.67 356.941,250.079 C359.026,249.487 361.187,250.697 361.778,252.778 C362.56,255.538 363.616,258.388 364.734,261.405 C366.369,265.817 368.058,270.38 368.912,274.847 C369.317,276.972 367.925,279.024 365.8,279.429 C365.551,279.476 365.304,279.499 365.06,279.499" fill="#1A1919" id="path3018"/>
    <path d="M340.981,266.578 C339.444,266.578 337.989,265.67 337.362,264.164 C335.841,260.508 335.077,256.577 334.339,252.775 C333.692,249.446 333.082,246.301 332.019,243.492 C331.253,241.469 332.272,239.208 334.294,238.442 C336.316,237.675 338.579,238.695 339.345,240.718 C340.644,244.152 341.349,247.777 342.03,251.281 C342.724,254.857 343.379,258.234 344.595,261.155 C345.427,263.152 344.481,265.445 342.483,266.276 C341.991,266.481 341.482,266.578 340.981,266.578" fill="#1A1919" id="path3020"/>
    <path d="M315.141,253.076 C313.751,253.076 312.404,252.335 311.691,251.032 C310.571,248.986 310.175,245.85 309.622,240.903 C309.327,238.269 308.808,233.624 308.105,231.747 C306.728,231.321 305.641,230.15 305.394,228.632 C305.047,226.497 306.496,224.485 308.631,224.137 C310.12,223.897 311.615,224.269 312.832,225.193 C315.803,227.446 316.542,232.302 317.408,240.032 C317.689,242.546 318.114,246.345 318.571,247.289 C319.611,249.186 318.909,251.558 317.011,252.596 C316.417,252.922 315.774,253.076 315.141,253.076" fill="#1A1919" id="path3022"/>
    <path d="M292.798,237.789 C291.158,237.789 289.628,236.749 289.082,235.106 C288.819,234.314 288.529,233.381 288.216,232.363 C287.194,229.07 284.81,221.36 282.934,220.058 C281.155,218.825 280.716,216.384 281.948,214.607 C283.18,212.831 285.619,212.388 287.399,213.621 C291.187,216.249 293.399,222.614 295.698,230.047 C295.995,231.008 296.268,231.889 296.516,232.636 C297.198,234.689 296.087,236.906 294.034,237.588 C293.624,237.724 293.208,237.789 292.798,237.789" fill="#1A1919" id="path3024"/>
    <path d="M268.115,224.874 C266.274,224.874 264.635,223.572 264.273,221.698 C263.658,218.509 261.817,215.244 259.867,211.789 C258.607,209.552 257.302,207.239 256.292,204.847 C255.451,202.854 256.385,200.556 258.376,199.715 C260.372,198.873 262.668,199.808 263.509,201.801 C264.345,203.781 265.485,205.801 266.691,207.94 C268.862,211.791 271.109,215.772 271.966,220.215 C272.375,222.339 270.985,224.393 268.861,224.802 C268.611,224.851 268.36,224.874 268.115,224.874" fill="#1A1919" id="path3026"/>
    <path d="M244.639,211.359 C243.249,211.359 241.905,210.618 241.194,209.313 L240.489,208.032 C236.372,200.58 232.514,192.806 234.439,186.846 C235.104,184.788 237.313,183.659 239.37,184.323 C241.429,184.988 242.558,187.196 241.894,189.255 C240.85,192.485 245.402,200.725 247.347,204.243 L248.075,205.569 C249.109,207.47 248.406,209.848 246.507,210.882 C245.912,211.205 245.271,211.359 244.639,211.359" fill="#1A1919" id="path3028"/>
    <path d="M227.009,205.484 C225.334,205.484 223.784,204.402 223.267,202.718 C222.881,201.467 222.526,200.121 222.153,198.696 C221.04,194.465 219.78,189.669 217.561,187.07 C216.158,185.424 216.353,182.952 217.998,181.548 C219.646,180.144 222.115,180.339 223.521,181.984 C226.9,185.945 228.404,191.661 229.73,196.705 C230.082,198.048 230.416,199.318 230.753,200.414 C231.39,202.482 230.229,204.673 228.162,205.31 C227.778,205.428 227.39,205.484 227.009,205.484" fill="#1A1919" id="path3030"/>
    <path d="M199.981,190.796 C198.565,190.797 197.198,190.026 196.501,188.681 C195.864,187.45 195.277,185.903 194.656,184.265 C193.859,182.164 192.208,177.812 191.062,177.061 C189.053,176.36 187.968,174.176 188.631,172.145 C189.304,170.088 191.521,168.97 193.571,169.64 C198.044,171.103 200.136,176.62 201.981,181.488 C202.519,182.908 203.026,184.249 203.456,185.076 C204.451,186.997 203.701,189.361 201.781,190.356 C201.205,190.654 200.589,190.796 199.981,190.796" fill="#1A1919" id="path3032"/>
    <path d="M176.491,177.874 C174.435,177.874 172.708,176.271 172.584,174.192 C172.458,172.086 171.304,169.812 170.082,167.405 C168.679,164.642 167.089,161.51 166.716,157.908 C166.491,155.756 168.056,153.831 170.207,153.608 C172.374,153.382 174.283,154.948 174.507,157.099 C174.732,159.258 175.865,161.493 177.067,163.859 C178.526,166.733 180.18,169.991 180.405,173.722 C180.534,175.881 178.888,177.737 176.728,177.866 L176.491,177.874" fill="#1A1919" id="path3034"/>
    <path d="M149.46,164.359 C147.759,164.359 146.191,163.239 145.697,161.52 C144.816,158.44 142.13,149.068 138.327,144.854 C136.879,143.248 137.007,140.771 138.612,139.322 C140.218,137.874 142.696,138 144.144,139.606 C148.591,144.534 151.335,152.753 153.228,159.362 C153.823,161.442 152.621,163.611 150.542,164.206 C150.182,164.31 149.819,164.359 149.46,164.359" fill="#1A1919" id="path3036"/>
    <path d="M124.206,149.086 C122.616,149.086 121.121,148.111 120.534,146.533 C119.634,144.114 118.259,141.664 116.802,139.07 C114.705,135.338 112.538,131.479 111.568,127.246 C111.083,125.138 112.401,123.037 114.509,122.553 C116.619,122.072 118.719,123.386 119.202,125.495 C119.921,128.627 121.724,131.837 123.632,135.235 C125.171,137.976 126.763,140.81 127.876,143.802 C128.63,145.829 127.599,148.084 125.572,148.839 C125.121,149.006 124.659,149.086 124.206,149.086" fill="#1A1919" id="path3038"/>
    <path d="M100.697,134.992 C99.069,134.992 97.548,133.968 96.991,132.342 C94.861,126.114 92.015,119.872 89.515,114.51 C88.601,112.55 89.448,110.219 91.409,109.305 C93.37,108.39 95.701,109.239 96.615,111.2 C99.2,116.745 102.148,123.214 104.403,129.806 C105.104,131.853 104.011,134.08 101.966,134.78 C101.544,134.923 101.117,134.992 100.697,134.992" fill="#1A1919" id="path3040"/>
    <path d="M110.104,57.445 C109.653,57.445 109.195,57.367 108.748,57.202 C106.719,56.454 105.681,54.202 106.429,52.172 C108.422,46.765 108.399,37.411 104.909,31.116 C103.216,28.06 100.941,26.215 98.15,25.636 C96.031,25.194 94.672,23.121 95.112,21.003 C95.554,18.885 97.631,17.531 99.745,17.965 C104.796,19.016 108.95,22.25 111.759,27.318 C116.564,35.981 116.411,47.742 113.778,54.882 C113.195,56.465 111.698,57.445 110.104,57.445" fill="#1A1919" id="path3042"/>
    <path d="M67.216,21.609 C65.731,21.609 64.31,20.761 63.652,19.322 C62.751,17.355 63.616,15.03 65.582,14.13 C68.704,12.7 72.754,12.884 76.675,13.063 C77.951,13.121 79.156,13.174 80.159,13.158 C80.718,13.147 81.327,13.269 81.861,13.514 C84.747,14.837 84.724,17.095 84.579,18.004 C84.469,18.697 83.881,20.96 80.902,21.371 C79.72,21.803 78.393,21.635 77.358,20.934 C77.017,20.92 76.67,20.904 76.319,20.888 C73.752,20.772 70.241,20.612 68.843,21.252 C68.316,21.494 67.761,21.609 67.216,21.609" fill="#1A1919" id="path3044"/>
    <path d="M256.571,11.074 C224.737,10.863 195.557,18.754 170.743,39.004 C150.478,55.535 138.3,79.293 128.11,102.933 C115.9,131.261 115.83,158.082 111.893,187.965 C109.939,202.769 104.737,219.277 111.376,233.644 C116.814,245.418 130.259,247.769 141.54,250.918 C155.205,254.73 173.869,262.707 181.455,275.496 C186.189,283.511 187.525,301.332 188.228,319.754 C188.533,319.863 188.854,319.965 189.166,320.074 C189.425,320.16 189.675,320.261 189.932,320.347 C190.947,320.699 191.978,321.05 193.026,321.394 C193.213,321.457 193.401,321.519 193.619,321.582 C194.822,321.98 196.009,322.363 197.236,322.738 C198.142,323.019 199.05,323.285 199.963,323.543 C200.846,323.808 201.728,324.074 202.619,324.324 C203.893,324.683 205.175,325.035 206.432,325.379 C206.814,325.472 207.197,325.574 207.571,325.668 C211.846,326.769 216.135,327.746 220.509,328.597 C220.651,328.629 220.791,328.66 220.947,328.683 C221.354,328.769 221.784,328.847 222.205,328.925 C223.354,329.144 224.54,329.34 225.698,329.55 C225.854,329.574 226.002,329.605 226.158,329.629 C227.619,329.871 229.072,330.105 230.533,330.324 C231.993,330.543 233.455,330.754 234.932,330.941 C235.05,330.957 235.175,330.98 235.291,330.996 C238.407,331.394 241.54,331.722 244.697,331.996 C245.228,332.043 245.768,332.082 246.3,332.129 C247.471,332.222 248.65,332.293 249.838,332.371 C251.416,332.472 252.993,332.574 254.728,332.636 C256.338,332.707 257.939,332.761 259.58,332.8 C261.236,332.832 262.916,332.855 264.596,332.855 C266.268,332.855 267.885,332.832 269.55,332.8 C273.885,332.707 278.151,332.488 282.432,332.152 C283.111,332.105 283.8,332.05 284.478,331.996 C287.619,331.722 290.759,331.394 293.869,330.996 C294.189,330.957 294.509,330.902 294.838,330.863 C296.244,330.675 297.675,330.488 299.088,330.277 C300.682,330.027 302.291,329.769 303.893,329.496 C305.088,329.277 306.268,329.043 307.439,328.816 C307.697,328.769 307.947,328.738 308.213,328.683 C308.346,328.66 308.509,328.629 308.65,328.597 C313.026,327.746 317.322,326.769 321.604,325.668 C321.806,325.621 322.009,325.566 322.228,325.511 C323.416,325.199 324.635,324.871 325.83,324.55 C326.104,324.465 326.393,324.379 326.69,324.3 C326.901,324.238 327.126,324.175 327.354,324.105 C327.854,323.964 328.33,323.8 328.838,323.652 C329.854,323.355 330.908,323.05 331.932,322.738 C333.354,322.293 334.783,321.832 336.213,321.371 C337.228,321.027 338.259,320.699 339.275,320.347 C339.518,320.261 339.759,320.16 340.026,320.074 C340.338,319.965 340.651,319.863 340.963,319.754 C341.666,301.332 342.993,283.511 347.752,275.496 C360.025,260.613 379.033,256.41 395.641,248.379 C413.925,239.535 418.407,220.191 418.604,201.511 C419.228,143.136 406.689,83.84 361.993,42.621 C351.728,33.16 339.315,24.808 326.3,19.644 C308.198,12.465 287.385,10.605 268.033,11.16 C266.993,11.144 265.947,11.136 264.885,11.16 C264.698,11.152 264.493,11.152 264.306,11.16 C263.259,11.136 262.197,11.144 261.151,11.16 C259.604,11.113 258.096,11.082 256.571,11.074" fill="#FAF4E5" id="path3046"/>
    <path d="M251.064,287.293 C258.54,274.175 264.838,259.925 253.306,246.683 C248.682,241.347 240.642,240.511 242.228,232.027 C243.306,226.207 248.978,221.175 252.471,216.793 C256.213,212.105 259.111,207.121 261.432,201.644 C264.986,193.261 269.05,182.23 270.791,173.355 C273.025,161.902 273.487,141.894 268.369,131.324 C258.978,111.871 236.509,116.566 219.58,111.175 C178.252,98.019 199.502,43.004 227.885,13.441 C207.151,17.035 187.876,25.019 170.743,39.004 C150.478,55.535 138.3,79.293 128.11,102.933 C115.9,131.261 115.83,158.082 111.893,187.965 C109.939,202.769 104.737,219.277 111.376,233.644 C116.814,245.418 130.259,247.769 141.54,250.918 C155.205,254.73 173.869,262.707 181.455,275.496 C186.189,283.511 187.525,301.332 188.228,319.754 C188.533,319.863 188.854,319.965 189.166,320.074 C189.425,320.16 189.675,320.261 189.932,320.347 C190.947,320.699 191.978,321.05 193.026,321.394 C193.213,321.457 193.401,321.519 193.619,321.582 C194.822,321.98 196.009,322.363 197.236,322.738 C198.142,323.019 199.05,323.285 199.963,323.543 C200.846,323.808 201.728,324.074 202.619,324.324 C203.893,324.683 205.175,325.035 206.432,325.379 C206.814,325.472 207.197,325.574 207.571,325.668 C211.846,326.769 216.135,327.746 220.509,328.597 C220.651,328.629 220.791,328.66 220.947,328.683 C221.354,328.769 221.784,328.847 222.205,328.925 C223.096,329.09 224.009,329.246 224.907,329.402 C229.493,323.597 234.58,318.402 238.823,312.144 C244.111,304.394 246.493,295.269 251.064,287.293" fill="#CBC8BC" id="path3048"/>
    <path d="M267.557,210.121 C265.243,207.293 262.557,206.043 259.36,208.105 C250.651,213.73 246.993,234.168 242.588,244.316 C239.009,252.519 231.065,263.16 231.275,272.863 C231.571,287.09 256.743,282.183 265.088,283.433 C273.323,284.636 290.463,288.441 294.571,276.605 C299.572,262.191 282.175,243.324 277.205,231.949 C274.993,226.847 271.993,215.558 267.557,210.121" fill="#1A1919" id="path3050"/>
    <path d="M232.705,130.121 C226.55,125.285 218.385,124.316 207.493,125.527 C190.8,127.371 173.009,136.433 161.658,148.808 C153.111,158.066 148.963,170.582 146.728,182.793 C143.533,200.644 152.791,216.3 168.806,223.597 C187.525,232.113 201.744,225.238 217.401,214.402 C233.354,203.332 244.36,186.621 245.205,166.902 C245.533,159.652 244.728,152.285 242.385,145.394 C239.932,138.261 236.759,133.324 232.705,130.121" fill="#1A1919" id="path3052"/>
    <path d="M294.05,130.121 C300.175,125.285 308.385,124.316 319.275,125.527 C335.978,127.371 353.721,136.433 365.104,148.808 C373.635,158.066 377.791,170.582 379.987,182.793 C383.213,200.644 373.955,216.3 357.947,223.597 C339.243,232.113 325.018,225.238 309.346,214.402 C293.385,203.332 282.407,186.621 281.533,166.902 C281.221,159.652 282.04,152.285 284.393,145.394 C286.815,138.261 289.987,133.324 294.05,130.121" fill="#1A1919" id="path3054"/>
    <path d="M111.626,193.129 C109.539,193.129 107.836,191.447 107.814,189.355 C107.792,187.25 109.483,185.526 111.588,185.504 C122.675,185.39 125.031,179.643 128.601,170.945 C130.726,165.764 133.135,159.892 137.875,154.767 C143.474,148.705 143.463,146.312 143.423,137.406 L143.416,135.731 C143.382,124.155 147.476,117.683 158.519,111.851 C160.38,110.869 162.688,111.58 163.67,113.442 C164.654,115.304 163.942,117.611 162.079,118.593 C153.491,123.129 151.016,126.968 151.04,135.711 L151.047,137.371 C151.091,146.894 151.113,151.673 143.474,159.942 C139.667,164.059 137.626,169.031 135.654,173.839 C131.978,182.802 127.808,192.962 111.666,193.129 L111.626,193.129" fill="#1A1919" id="path3056"/>
    <path d="M411.658,232.363 C410.701,232.363 409.743,232.005 409.003,231.286 C407.491,229.82 407.456,227.406 408.922,225.896 C413.655,221.019 404.925,211.802 403.126,210.004 C402.571,209.45 402.03,208.916 401.498,208.394 C396.673,203.653 392.116,199.174 390.63,190.112 C389.902,185.671 390.218,181.001 390.523,176.485 C390.96,170 391.376,163.875 388.757,159.26 C385.906,154.251 379.081,150.441 373.06,147.079 C371.098,145.983 369.243,144.948 367.529,143.882 C365.739,142.771 365.191,140.42 366.303,138.632 C367.415,136.844 369.764,136.295 371.554,137.406 C373.116,138.378 374.894,139.37 376.777,140.421 C383.669,144.269 391.48,148.63 395.386,155.493 C399.138,162.104 398.626,169.676 398.13,176.999 C397.843,181.271 397.569,185.306 398.154,188.878 C399.236,195.483 402.261,198.455 406.843,202.955 C407.389,203.493 407.949,204.043 408.519,204.612 C418.586,214.68 420.783,224.622 414.394,231.205 C413.647,231.976 412.652,232.363 411.658,232.363" fill="#1A1919" id="path3058"/>
    <path d="M147.952,106.684 C147.734,106.684 147.511,106.665 147.288,106.626 C145.216,106.262 143.827,104.286 144.193,102.212 C145.638,93.97 156.759,88.682 161.61,87.535 C163.658,87.051 165.712,88.319 166.196,90.369 C166.681,92.418 165.412,94.472 163.363,94.956 C158.737,96.05 152.251,100.404 151.702,103.529 C151.378,105.381 149.769,106.684 147.952,106.684" fill="#1A1919" id="path3060"/>
    <path d="M152.319,81.981 C151.013,81.981 149.742,81.31 149.03,80.105 C147.96,78.291 148.564,75.954 150.376,74.884 C154.409,72.506 158.714,71.059 162.876,69.661 L163.45,69.468 C165.451,68.795 167.607,69.871 168.279,71.866 C168.951,73.861 167.878,76.024 165.882,76.695 L165.304,76.889 C161.515,78.162 157.596,79.479 154.252,81.451 C153.644,81.81 152.976,81.981 152.319,81.981" fill="#1A1919" id="path3062"/>
    <path d="M381.872,103.777 C380.745,103.777 379.629,103.28 378.876,102.327 C378.079,101.316 377.352,100.348 376.663,99.433 C372.679,94.133 371.06,91.934 364.571,92.15 C362.466,92.217 360.706,90.568 360.637,88.464 C360.569,86.36 362.219,84.598 364.323,84.529 C374.724,84.184 378.458,89.13 382.759,94.851 C383.411,95.722 384.104,96.642 384.86,97.602 C386.166,99.255 385.884,101.652 384.232,102.957 C383.532,103.509 382.699,103.777 381.872,103.777" fill="#1A1919" id="path3064"/>
    <path d="M384.057,127.746 C381.951,127.746 380.243,126.039 380.243,123.933 C380.243,121.857 377.99,117.725 375.359,115.863 C374.491,115.248 373.872,115.122 373.7,115.185 C371.712,115.884 369.536,114.843 368.836,112.858 C368.136,110.872 369.177,108.694 371.163,107.994 C373.866,107.041 376.92,107.626 379.764,109.639 C384.234,112.801 387.869,119.214 387.869,123.933 C387.869,126.039 386.161,127.746 384.057,127.746" fill="#1A1919" id="path3066"/>
    <path d="M185.731,289.027 C184.585,289.027 183.451,288.512 182.701,287.531 C181.421,285.859 181.74,283.466 183.412,282.187 C185.849,280.322 189.004,278.836 191.539,277.642 C192.228,277.317 192.885,277.008 193.48,276.713 C195.369,275.778 197.655,276.549 198.591,278.435 C199.524,280.322 198.754,282.609 196.867,283.545 C196.23,283.86 195.526,284.192 194.788,284.54 C192.468,285.634 189.835,286.873 188.044,288.242 C187.354,288.771 186.539,289.027 185.731,289.027" fill="#1A1919" id="path3068"/>
    <path d="M189.358,303.559 C188.624,303.559 187.884,303.348 187.231,302.907 C185.484,301.73 185.023,299.361 186.2,297.615 C188.769,293.803 192.922,292.163 196.259,290.845 C196.635,290.696 197.007,290.55 197.372,290.401 C199.323,289.609 201.547,290.548 202.339,292.499 C203.131,294.45 202.191,296.673 200.241,297.465 C199.854,297.623 199.459,297.779 199.06,297.937 C196.341,299.011 193.77,300.026 192.523,301.877 C191.786,302.969 190.583,303.559 189.358,303.559" fill="#1A1919" id="path3070"/>
    <path d="M107.994,216.387 C106.412,216.387 104.935,215.396 104.39,213.817 C104.126,213.055 103.968,211.842 104.694,210.391 C106.488,206.807 118.168,196.621 122.814,195.131 C124.815,194.487 126.966,195.591 127.609,197.597 C128.252,199.603 127.148,201.749 125.142,202.392 C122.691,203.178 113.57,210.984 111.672,213.579 C111.351,214.752 110.474,215.752 109.238,216.178 C108.826,216.32 108.406,216.387 107.994,216.387" fill="#1A1919" id="path3072"/>
    <path d="M110.904,234.543 C109.675,234.543 108.468,233.95 107.732,232.852 C106.56,231.102 107.029,228.734 108.78,227.562 C110.968,226.096 112.69,223.667 114.515,221.094 C117.002,217.585 119.822,213.607 124.479,211.323 C126.369,210.394 128.655,211.176 129.581,213.067 C130.509,214.957 129.728,217.241 127.837,218.169 C124.922,219.599 122.888,222.467 120.735,225.505 C118.593,228.527 116.376,231.651 113.022,233.898 C112.37,234.334 111.634,234.543 110.904,234.543" fill="#1A1919" id="path3074"/>
    <path d="M123.256,249.8 C123.155,249.8 123.056,249.796 122.954,249.789 C120.855,249.624 119.287,247.789 119.451,245.69 C120.053,238.012 130.673,231.109 136.256,229.909 C138.308,229.468 140.341,230.776 140.784,232.835 C141.226,234.894 139.916,236.921 137.858,237.364 C133.726,238.252 127.264,243.588 127.053,246.286 C126.897,248.283 125.226,249.8 123.256,249.8" fill="#1A1919" id="path3076"/>
    <path d="M137.78,253.426 C137.603,253.426 137.425,253.414 137.242,253.388 C135.158,253.094 133.706,251.165 134,249.08 C134.942,242.41 143.843,236.186 149.318,234.997 C151.371,234.552 153.406,235.855 153.853,237.913 C154.3,239.97 152.993,242.001 150.937,242.448 C147.336,243.23 141.898,247.691 141.551,250.146 C141.281,252.05 139.65,253.426 137.78,253.426" fill="#1A1919" id="path3078"/>
    <path d="M152.315,258.524 C151.861,258.524 151.4,258.443 150.95,258.271 C148.983,257.518 148.001,255.31 148.754,253.344 C149.98,250.14 153.569,247.698 156.836,245.66 C158.621,244.543 160.974,245.09 162.088,246.876 C163.203,248.663 162.658,251.014 160.871,252.129 C156.956,254.572 156.058,255.651 155.872,256.077 C155.291,257.594 153.847,258.524 152.315,258.524" fill="#1A1919" id="path3080"/>
    <path d="M354.991,257.067 C353.294,257.067 351.747,255.926 351.303,254.208 C350.776,252.169 352.002,250.089 354.04,249.562 C355.5,249.185 357.032,248.513 358.654,247.802 C360.159,247.142 361.716,246.46 363.337,245.966 C365.355,245.353 367.482,246.489 368.095,248.502 C368.708,250.516 367.571,252.647 365.558,253.26 C364.366,253.623 363.079,254.187 361.718,254.785 C359.89,255.586 358.001,256.414 355.948,256.945 C355.628,257.027 355.308,257.067 354.991,257.067" fill="#1A1919" id="path3082"/>
    <path d="M376.784,250.528 C375.251,250.528 373.805,249.596 373.224,248.079 C372.587,246.421 372.644,244.706 373.388,243.12 C374.983,239.719 379.148,238.064 383.276,236.661 L383.552,236.567 C385.547,235.886 387.71,236.952 388.392,238.944 C389.071,240.937 388.007,243.104 386.014,243.784 L385.731,243.881 C383.047,244.793 381.309,245.553 380.554,246.146 C380.816,247.879 379.852,249.621 378.149,250.274 C377.699,250.446 377.237,250.528 376.784,250.528" fill="#1A1919" id="path3084"/>
    <path d="M181.372,124.848 C180.044,124.848 178.756,124.154 178.054,122.917 C177.014,121.086 177.655,118.759 179.486,117.719 C181.675,116.478 183.938,115.628 186.407,115.121 C188.468,114.695 190.486,116.026 190.907,118.089 C191.332,120.151 190.003,122.166 187.941,122.59 C186.267,122.934 184.733,123.509 183.252,124.35 C182.657,124.688 182.011,124.848 181.372,124.848" fill="#1A1919" id="path3086"/>
    <path d="M211.158,121.941 L202.439,121.941 C200.334,121.941 198.626,120.234 198.626,118.129 C198.626,116.023 200.334,114.316 202.439,114.316 L211.158,114.316 C213.264,114.316 214.971,116.023 214.971,118.129 C214.971,120.234 213.264,121.941 211.158,121.941" fill="#1A1919" id="path3088"/>
    <path d="M235.138,127.746 C233.93,127.746 232.742,127.173 232.001,126.105 C231.018,124.684 228.914,123.635 227.469,124.402 C225.612,125.389 223.302,124.683 222.315,122.822 C221.327,120.963 222.034,118.654 223.894,117.667 C229.175,114.866 235.348,117.549 238.269,121.761 C239.468,123.492 239.037,125.867 237.306,127.067 C236.644,127.526 235.888,127.746 235.138,127.746" fill="#1A1919" id="path3090"/>
    <path d="M244.597,139.385 C243.511,139.385 242.43,138.924 241.673,138.033 C240.571,136.733 239.704,134.682 239.356,132.547 C239.018,130.468 240.427,128.509 242.507,128.171 C244.589,127.829 246.542,129.242 246.882,131.32 C247.022,132.18 247.36,132.928 247.504,133.12 C248.866,134.726 248.661,137.121 247.055,138.484 C246.341,139.09 245.468,139.385 244.597,139.385" fill="#1A1919" id="path3092"/>
    <path d="M283.084,138.652 C282.39,138.652 281.687,138.463 281.057,138.066 C278.216,136.277 276.982,133.272 277.759,130.027 C278.889,125.303 284.374,120.589 289.269,120.137 C291.347,119.95 293.222,121.485 293.415,123.583 C293.61,125.679 292.066,127.536 289.97,127.73 C288.128,127.9 285.552,130.403 285.196,131.663 C286.916,132.803 287.42,135.115 286.314,136.871 C285.591,138.022 284.351,138.652 283.084,138.652" fill="#1A1919" id="path3094"/>
    <path d="M321.591,60.184 C320.199,60.184 318.869,59.418 318.2,58.12 C317.517,57.773 315.761,57.706 312.972,57.925 C312.306,57.977 311.774,57.996 311.399,58.011 C309.292,58.002 307.593,56.287 307.604,54.182 C307.614,52.082 309.318,50.386 311.416,50.386 L311.433,50.386 C311.654,50.386 311.979,50.355 312.376,50.323 C315.745,50.058 322.767,49.508 325.086,54.854 C325.925,56.785 325.037,59.03 323.106,59.868 C322.611,60.083 322.096,60.184 321.591,60.184" fill="#1A1919" id="path3096"/>
    <path d="M316.494,78.348 C316.033,78.348 315.565,78.264 315.111,78.088 L314.364,77.794 C311.823,76.793 309.195,75.76 306.921,76.12 C304.853,76.451 302.889,75.034 302.557,72.954 C302.226,70.875 303.644,68.921 305.724,68.59 C310.053,67.901 313.993,69.453 317.159,70.7 L317.876,70.982 C319.841,71.746 320.81,73.956 320.047,75.918 C319.46,77.425 318.02,78.348 316.494,78.348" fill="#1A1919" id="path3098"/>
    <path d="M309.228,97.239 C307.605,97.239 306.101,96.194 305.591,94.564 C305.469,94.175 305.302,93.643 304.017,93.603 C301.912,93.538 300.259,91.779 300.324,89.674 C300.389,87.57 302.151,85.904 304.253,85.982 C308.452,86.112 311.672,88.469 312.867,92.287 C313.496,94.297 312.376,96.435 310.367,97.064 C309.988,97.182 309.605,97.239 309.228,97.239" fill="#1A1919" id="path3100"/>
    <path d="M264.596,336.668 C262.892,336.668 261.189,336.644 259.509,336.612 C257.823,336.572 256.196,336.517 254.563,336.445 C252.803,336.382 251.171,336.277 249.593,336.175 L248.759,336.121 C247.832,336.062 246.911,336.002 245.995,335.929 L244.362,335.794 C241.011,335.503 237.884,335.171 234.808,334.777 L234.505,334.733 C232.946,334.532 231.458,334.317 229.969,334.094 C228.489,333.873 227.016,333.635 225.535,333.39 L225.132,333.32 L225.013,333.301 C224.548,333.216 224.077,333.134 223.606,333.051 C222.898,332.927 222.188,332.803 221.491,332.671 L221.381,332.65 C221.002,332.58 220.62,332.509 220.254,332.433 C220.072,332.402 219.901,332.367 219.733,332.33 C215.355,331.477 211.066,330.505 206.621,329.36 L205.524,329.082 L205.427,329.056 C204.159,328.71 202.867,328.355 201.584,327.993 C200.677,327.738 199.77,327.466 198.864,327.193 C197.983,326.945 197.044,326.67 196.107,326.379 C194.89,326.007 193.696,325.623 192.489,325.223 C192.247,325.153 192.033,325.082 191.82,325.011 C190.77,324.666 189.719,324.308 188.685,323.95 C188.558,323.908 188.394,323.848 188.228,323.787 L187.535,323.546 C187.335,323.479 187.135,323.412 186.94,323.342 C185.476,322.816 184.478,321.454 184.419,319.899 C183.774,303.041 182.53,284.812 178.173,277.435 C170.035,263.717 147.292,256.481 140.517,254.59 C139.333,254.259 138.124,253.938 136.906,253.613 C125.947,250.697 113.527,247.391 107.916,235.243 C102.138,222.741 104.538,208.85 106.655,196.594 C107.205,193.421 107.722,190.423 108.114,187.466 C109.006,180.692 109.706,173.995 110.384,167.518 C112.736,145.044 114.958,123.817 124.611,101.424 C134.863,77.631 147.257,53.242 168.334,36.049 C192.073,16.675 220.531,7.258 255.334,7.258 L256.598,7.261 C258.119,7.269 259.631,7.3 261.181,7.346 C262.208,7.331 263.252,7.325 264.282,7.346 C264.489,7.34 264.703,7.34 264.909,7.346 C265.953,7.325 266.984,7.332 268.007,7.346 C291.288,6.689 311.419,9.641 327.704,16.1 C340.501,21.177 353.251,29.379 364.577,39.818 C385.85,59.435 401.445,84.555 410.929,114.481 C418.9,139.634 422.765,168.93 422.416,201.552 C422.146,227.326 413.932,243.766 397.303,251.811 C392.814,253.981 388.137,255.886 383.612,257.729 C371.113,262.819 359.303,267.629 350.889,277.686 C346.636,285.196 345.409,303.216 344.773,319.899 C344.713,321.465 343.701,322.835 342.222,323.352 L341.284,323.673 C341.1,323.733 341.007,323.771 340.913,323.806 L340.551,323.94 C339.917,324.16 339.306,324.362 338.694,324.563 C338.273,324.702 337.854,324.84 337.436,324.982 C335.936,325.466 334.499,325.929 333.071,326.376 C332.186,326.647 331.305,326.904 330.443,327.155 L329.907,327.311 C329.703,327.371 329.505,327.434 329.308,327.496 C329.018,327.588 328.728,327.678 328.434,327.762 C328.283,327.808 328.131,327.852 327.984,327.894 L327.773,327.956 L327.659,327.987 C327.423,328.05 327.19,328.119 326.973,328.188 L326.818,328.233 L326.213,328.395 C325.207,328.665 324.193,328.937 323.199,329.198 L322.958,329.26 C322.788,329.303 322.624,329.345 322.46,329.383 C318.106,330.504 313.813,331.476 309.425,332.331 C309.261,332.366 309.08,332.401 308.925,332.429 C308.73,332.468 308.54,332.499 308.352,332.529 L307.276,332.732 C306.384,332.905 305.486,333.08 304.579,333.246 C302.916,333.53 301.288,333.791 299.679,334.044 C298.371,334.238 297.079,334.411 295.802,334.581 L295.343,334.642 C295.152,334.665 295.017,334.685 294.884,334.705 C294.699,334.732 294.515,334.758 294.331,334.78 C291.354,335.161 288.144,335.504 284.81,335.794 C284.091,335.852 283.388,335.907 282.694,335.956 C278.279,336.302 273.993,336.518 269.631,336.612 C267.933,336.644 266.292,336.668 264.596,336.668 z M226.381,325.8 L226.724,325.859 C228.222,326.107 229.655,326.338 231.098,326.553 C232.531,326.768 233.964,326.975 235.412,327.159 L235.719,327.205 C238.747,327.594 241.773,327.916 245.026,328.197 L246.634,328.331 C247.48,328.399 248.361,328.455 249.248,328.512 L250.088,328.567 C251.679,328.669 253.186,328.766 254.866,328.826 C256.479,328.897 258.056,328.95 259.671,328.989 C261.284,329.019 262.941,329.043 264.596,329.043 C266.243,329.043 267.837,329.019 269.478,328.988 C273.683,328.898 277.827,328.689 282.134,328.351 C282.835,328.303 283.509,328.249 284.173,328.195 C287.381,327.916 290.488,327.585 293.385,327.214 L293.785,327.159 C293.984,327.13 294.184,327.101 294.387,327.077 L294.796,327.022 C296.034,326.858 297.285,326.691 298.525,326.506 C300.074,326.263 301.666,326.008 303.251,325.737 C304.085,325.585 304.955,325.415 305.82,325.247 L307.154,324.999 C307.249,324.984 307.345,324.969 307.444,324.949 L307.55,324.929 L307.824,324.876 L307.922,324.855 C312.177,324.027 316.341,323.085 320.654,321.975 L321.304,321.813 C322.239,321.566 323.244,321.297 324.237,321.03 L324.768,320.888 C325.057,320.798 325.359,320.709 325.67,320.627 L326.224,320.464 L326.321,320.435 C326.557,320.369 326.786,320.296 327.017,320.223 C327.264,320.145 327.513,320.068 327.769,319.992 L328.306,319.836 C329.139,319.593 329.989,319.345 330.819,319.091 C332.2,318.659 333.616,318.202 335.033,317.746 C335.427,317.612 335.866,317.467 336.306,317.321 C336.623,317.217 336.94,317.112 337.257,317.006 C338.11,296.682 339.739,281.525 344.474,273.55 C344.574,273.382 344.686,273.221 344.81,273.07 C354.46,261.368 367.818,255.928 380.737,250.667 C385.15,248.869 389.714,247.01 393.984,244.946 C407.748,238.287 414.555,224.066 414.791,201.471 C415.53,132.496 396.897,79.995 359.409,45.423 C348.765,35.612 336.827,27.923 324.893,23.188 C309.56,17.107 290.405,14.329 268.142,14.971 L267.976,14.972 C266.984,14.957 265.984,14.949 264.969,14.971 L264.726,14.969 L264.596,14.966 L264.466,14.969 L264.222,14.971 C263.221,14.949 262.206,14.957 261.207,14.972 L261.035,14.97 C259.521,14.924 258.044,14.894 256.553,14.886 L255.334,14.882 C222.359,14.882 195.478,23.738 173.154,41.957 C153.347,58.115 141.482,81.538 131.612,104.442 C122.421,125.767 120.259,146.433 117.968,168.312 C117.284,174.839 116.577,181.588 115.673,188.463 C115.263,191.571 114.707,194.785 114.17,197.893 C112.148,209.596 110.056,221.699 114.838,232.044 C118.947,240.944 129.073,243.638 138.866,246.245 C140.116,246.578 141.354,246.907 142.566,247.245 C152.137,249.916 175.406,257.825 184.734,273.551 C189.456,281.545 191.081,296.696 191.933,317.005 C192.698,317.267 193.452,317.522 194.216,317.772 C194.368,317.823 194.507,317.87 194.666,317.916 L194.818,317.963 C195.993,318.352 197.153,318.726 198.351,319.092 C199.241,319.368 200.116,319.625 200.998,319.873 C201.922,320.15 202.781,320.41 203.649,320.653 C204.908,321.008 206.169,321.354 207.407,321.693 L208.497,321.969 C212.836,323.088 216.995,324.029 221.238,324.855 L221.337,324.876 L221.514,324.913 L221.737,324.953 C222.069,325.024 222.419,325.088 222.767,325.152 L222.9,325.176 C223.577,325.306 224.25,325.423 224.921,325.541 C225.409,325.626 225.899,325.712 226.382,325.8 L226.381,325.8" fill="#1A1919" id="path3102"/>
    <path d="M241.838,318.129 L255.743,318.129 C259.033,318.129 261.698,320.8 261.698,324.09 L261.698,353.949 C261.698,357.246 259.033,359.91 255.743,359.91 L241.838,359.91 C238.54,359.91 235.885,357.246 235.885,353.949 L235.885,324.09 C235.885,320.8 238.54,318.129 241.838,318.129" fill="#FAF4E5" id="path3104"/>
    <path d="M270.323,318.379 L284.228,318.379 C287.518,318.379 290.198,321.05 290.198,324.339 L290.198,354.199 C290.198,357.496 287.518,360.168 284.228,360.168 L270.323,360.168 C267.04,360.168 264.361,357.496 264.361,354.199 L264.361,324.339 C264.361,321.05 267.04,318.379 270.323,318.379" fill="#FAF4E5" id="path3106"/>
    <path d="M216.071,315.09 L228.119,315.09 C230.986,315.09 233.3,317.41 233.3,320.261 L233.3,346.136 C233.3,348.996 230.986,351.308 228.119,351.308 L216.071,351.308 C213.228,351.308 210.916,348.996 210.916,346.136 L210.916,320.261 C210.916,317.41 213.228,315.09 216.071,315.09" fill="#FAF4E5" id="path3108"/>
    <path d="M192.908,313.777 L203.096,313.777 C205.509,313.777 207.471,315.738 207.471,318.152 L207.471,340.043 C207.471,342.465 205.509,344.418 203.096,344.418 L192.908,344.418 C190.494,344.418 188.533,342.465 188.533,340.043 L188.533,318.152 C188.533,315.738 190.494,313.777 192.908,313.777" fill="#FAF4E5" id="path3110"/>
    <path d="M311.611,315.09 L299.58,315.09 C296.713,315.09 294.4,317.41 294.4,320.261 L294.4,346.136 C294.4,348.996 296.713,351.308 299.58,351.308 L311.611,351.308 C314.478,351.308 316.783,348.996 316.783,346.136 L316.783,320.261 C316.783,317.41 314.478,315.09 311.611,315.09" fill="#FAF4E5" id="path3112"/>
    <path d="M334.791,313.777 L324.604,313.777 C322.197,313.777 320.228,315.738 320.228,318.152 L320.228,340.043 C320.228,342.465 322.197,344.418 324.604,344.418 L334.791,344.418 C337.213,344.418 339.166,342.465 339.166,340.043 L339.166,318.152 C339.166,315.738 337.213,313.777 334.791,313.777" fill="#FAF4E5" id="path3114"/>
    <path d="M255.743,363.722 L241.838,363.722 C236.453,363.722 232.072,359.338 232.072,353.949 L232.072,324.09 C232.072,318.7 236.453,314.316 241.838,314.316 L255.743,314.316 C261.129,314.316 265.509,318.7 265.509,324.09 L265.509,353.949 C265.509,359.338 261.129,363.722 255.743,363.722 z M241.838,321.941 C240.657,321.941 239.697,322.905 239.697,324.09 L239.697,353.949 C239.697,355.133 240.657,356.097 241.838,356.097 L255.743,356.097 C256.925,356.097 257.885,355.133 257.885,353.949 L257.885,324.09 C257.885,322.905 256.925,321.941 255.743,321.941 L241.838,321.941" fill="#1A1919" id="path3116"/>
    <path d="M284.228,363.98 L270.323,363.98 C264.934,363.98 260.55,359.592 260.55,354.199 L260.55,324.339 C260.55,318.95 264.934,314.566 270.323,314.566 L284.228,314.566 C289.622,314.566 294.009,318.95 294.009,324.339 L294.009,354.199 C294.009,359.592 289.622,363.98 284.228,363.98 z M270.323,322.191 C269.138,322.191 268.175,323.155 268.175,324.339 L268.175,354.199 C268.175,355.388 269.138,356.355 270.323,356.355 L284.228,356.355 C285.418,356.355 286.385,355.388 286.385,354.199 L286.385,324.339 C286.385,323.155 285.418,322.191 284.228,322.191 L270.323,322.191" fill="#1A1919" id="path3118"/>
    <path d="M228.119,355.121 L216.071,355.121 C211.126,355.121 207.104,351.09 207.104,346.136 L207.104,320.261 C207.104,315.307 211.126,311.277 216.071,311.277 L228.119,311.277 C233.077,311.277 237.111,315.307 237.111,320.261 L237.111,346.136 C237.111,351.09 233.077,355.121 228.119,355.121 z M216.071,318.902 C215.331,318.902 214.728,319.512 214.728,320.261 L214.728,346.136 C214.728,346.886 215.331,347.496 216.071,347.496 L228.119,347.496 C228.872,347.496 229.486,346.886 229.486,346.136 L229.486,320.261 C229.486,319.512 228.872,318.902 228.119,318.902 L216.071,318.902" fill="#1A1919" id="path3120"/>
    <path d="M203.096,348.23 L192.908,348.23 C188.394,348.23 184.721,344.557 184.721,340.043 L184.721,318.152 C184.721,313.637 188.394,309.965 192.908,309.965 L203.096,309.965 C207.61,309.965 211.284,313.637 211.284,318.152 L211.284,340.043 C211.284,344.557 207.61,348.23 203.096,348.23 z M192.908,317.589 C192.598,317.589 192.346,317.842 192.346,318.152 L192.346,340.043 C192.346,340.353 192.598,340.605 192.908,340.605 L203.096,340.605 C203.406,340.605 203.658,340.353 203.658,340.043 L203.658,318.152 C203.658,317.842 203.406,317.589 203.096,317.589 L192.908,317.589" fill="#1A1919" id="path3122"/>
    <path d="M311.611,355.121 L299.58,355.121 C294.622,355.121 290.588,351.09 290.588,346.136 L290.588,320.261 C290.588,315.307 294.622,311.277 299.58,311.277 L311.611,311.277 C316.566,311.277 320.596,315.307 320.596,320.261 L320.596,346.136 C320.596,351.09 316.566,355.121 311.611,355.121 z M299.58,318.902 C298.826,318.902 298.213,319.512 298.213,320.261 L298.213,346.136 C298.213,346.886 298.826,347.496 299.58,347.496 L311.611,347.496 C312.374,347.496 312.971,346.899 312.971,346.136 L312.971,320.261 C312.971,319.512 312.361,318.902 311.611,318.902 L299.58,318.902" fill="#1A1919" id="path3124"/>
    <path d="M334.791,348.23 L324.604,348.23 C320.089,348.23 316.416,344.557 316.416,340.043 L316.416,318.152 C316.416,313.637 320.089,309.965 324.604,309.965 L334.791,309.965 C339.306,309.965 342.978,313.637 342.978,318.152 L342.978,340.043 C342.978,344.557 339.306,348.23 334.791,348.23 z M324.604,317.589 C324.3,317.589 324.04,317.847 324.04,318.152 L324.04,340.043 C324.04,340.353 324.292,340.605 324.604,340.605 L334.791,340.605 C335.107,340.605 335.354,340.358 335.354,340.043 L335.354,318.152 C335.354,317.842 335.101,317.589 334.791,317.589 L324.604,317.589" fill="#1A1919" id="path3126"/>
    <path d="M202.267,345.741 C198.708,345.741 195.396,344.518 192.792,342.216 C189.393,339.208 187.404,334.561 187.338,329.467 C187.31,327.362 188.996,325.633 191.101,325.606 L191.152,325.605 C193.234,325.605 194.936,327.279 194.963,329.368 C195.001,332.317 196.052,334.919 197.846,336.506 C199.276,337.771 201.065,338.295 203.172,338.066 C205.266,337.839 207.148,339.345 207.378,341.439 C207.607,343.532 206.097,345.415 204.004,345.645 C203.42,345.709 202.841,345.741 202.267,345.741" fill="#1A1919" id="path3128"/>
    <path d="M225.563,353.3 C221.694,353.3 217.369,352.952 214.546,350.011 C213.369,348.786 212.007,346.579 212.203,343.027 C212.319,340.925 214.114,339.308 216.22,339.431 C218.322,339.547 219.933,341.346 219.817,343.448 C219.796,343.816 219.8,344.473 220.044,344.73 C221.026,345.752 225.093,345.691 227.272,345.659 C227.935,345.649 228.571,345.64 229.164,345.644 C231.27,345.661 232.964,347.381 232.947,349.486 C232.931,351.582 231.228,353.269 229.136,353.269 C229.019,353.272 228.927,353.268 228.82,353.268 C228.364,353.268 227.884,353.276 227.385,353.283 C226.794,353.292 226.185,353.3 225.563,353.3" fill="#1A1919" id="path3130"/>
    <path d="M251.25,359.624 C248.615,359.624 245.784,358.675 242.941,356.823 C238.281,353.787 234.566,348.913 233.697,344.694 C233.273,342.632 234.601,340.616 236.662,340.192 C238.732,339.764 240.739,341.094 241.166,343.156 C241.565,345.092 243.894,348.343 247.104,350.434 C248.927,351.623 250.693,352.188 251.83,351.941 C253.884,351.496 255.918,352.805 256.36,354.862 C256.806,356.921 255.498,358.95 253.439,359.394 C252.728,359.548 251.997,359.624 251.25,359.624" fill="#1A1919" id="path3132"/>
    <path d="M280.144,359.536 C274.777,359.536 270.251,355.056 266.878,351.718 C266.058,350.906 265.284,350.139 264.618,349.555 C263.036,348.165 262.881,345.756 264.271,344.175 C265.659,342.593 268.07,342.438 269.651,343.827 C270.487,344.561 271.339,345.405 272.242,346.299 C274.616,348.649 278.214,352.192 280.421,351.892 C282.509,351.598 284.432,353.056 284.724,355.141 C285.014,357.227 283.558,359.153 281.474,359.443 C281.026,359.506 280.582,359.536 280.144,359.536" fill="#1A1919" id="path3134"/>
    <path d="M305.979,351.988 C303.314,351.988 300.857,351.009 299.056,349.185 C296.871,346.974 295.953,343.81 296.537,340.505 C296.903,338.43 298.884,337.048 300.954,337.413 C303.026,337.779 304.412,339.757 304.044,341.831 C303.896,342.682 304.05,343.39 304.479,343.826 C304.927,344.28 305.696,344.459 306.579,344.312 C308.651,343.973 310.618,345.378 310.959,347.456 C311.301,349.533 309.893,351.495 307.816,351.836 C307.196,351.938 306.582,351.988 305.979,351.988" fill="#1A1919" id="path3136"/>
    <path d="M329.311,345.668 C329.137,345.668 328.96,345.656 328.783,345.632 C326.697,345.342 325.241,343.417 325.531,341.331 C325.738,339.828 325.576,338.29 325.085,337.112 C324.275,335.168 325.193,332.936 327.136,332.126 C329.083,331.314 331.313,332.235 332.122,334.177 C333.138,336.611 333.478,339.525 333.083,342.379 C332.819,344.287 331.185,345.668 329.311,345.668" fill="#1A1919" id="path3138"/>
  </g>
</svg>
