<?xml version="1.0" encoding="UTF-8" standalone="no"?>
<!-- Created with sK1/UniConvertor (http://sk1project.org/) -->

<svg
   width="709.32001"
   height="736.11377"
   viewBox="0 0 567.45602 588.89101"
   id="svg2"
   version="1.1"
   inkscape:version="1.1.2 (0a00cf5339, 2022-02-04)"
   sodipodi:docname="item122.svg"
   style="fill-rule:evenodd"
   xmlns:inkscape="http://www.inkscape.org/namespaces/inkscape"
   xmlns:sodipodi="http://sodipodi.sourceforge.net/DTD/sodipodi-0.dtd"
   xmlns:xlink="http://www.w3.org/1999/xlink"
   xmlns="http://www.w3.org/2000/svg"
   xmlns:svg="http://www.w3.org/2000/svg"
   xmlns:rdf="http://www.w3.org/1999/02/22-rdf-syntax-ns#"
   xmlns:cc="http://creativecommons.org/ns#"
   xmlns:dc="http://purl.org/dc/elements/1.1/">
  <metadata
     id="metadata106">
    <rdf:RDF>
      <cc:Work
         rdf:about="">
        <dc:format>image/svg+xml</dc:format>
        <dc:type
           rdf:resource="http://purl.org/dc/dcmitype/StillImage" />
      </cc:Work>
    </rdf:RDF>
  </metadata>
  <defs
     id="defs104">
    <inkscape:perspective
       sodipodi:type="inkscape:persp3d"
       inkscape:vp_x="0 : 832.91825 : 1"
       inkscape:vp_y="0 : 1000 : 0"
       inkscape:vp_z="744.09496 : 832.91825 : 1"
       inkscape:persp3d-origin="372.04749 : 657.52449 : 1"
       id="perspective108" />
    <linearGradient
       id="linearGradient47938-1">
      <stop
         offset="0"
         style="stop-color:#000000;stop-opacity:0.78431374"
         id="stop47940-7" />
      <stop
         offset="1"
         style="stop-color:#000000;stop-opacity:0"
         id="stop47942-4" />
    </linearGradient>
    <linearGradient
       id="linearGradient7546-4">
      <stop
         offset="0"
         style="stop-color:#6d0000;stop-opacity:1"
         id="stop7548-5" />
      <stop
         offset="1"
         style="stop-color:#8a0000;stop-opacity:0"
         id="stop7550-5" />
    </linearGradient>
    <linearGradient
       inkscape:collect="always"
       xlink:href="#linearGradient47938-1"
       id="linearGradient5343"
       gradientUnits="userSpaceOnUse"
       x1="67.848282"
       y1="738.42761"
       x2="50.14476"
       y2="719.41022"
       gradientTransform="matrix(0.140499,0,0,0.140499,651.64149,36.0319)" />
    <linearGradient
       inkscape:collect="always"
       xlink:href="#linearGradient47938-1"
       id="linearGradient5345"
       gradientUnits="userSpaceOnUse"
       gradientTransform="matrix(-0.113926,0,0,0.113926,675.86649,100.602)"
       x1="137.17198"
       y1="353.92398"
       x2="153.66492"
       y2="337.09677" />
    <linearGradient
       inkscape:collect="always"
       xlink:href="#linearGradient47938-1"
       id="linearGradient5347"
       gradientUnits="userSpaceOnUse"
       gradientTransform="matrix(-0.113926,0,0,0.113926,675.86649,100.602)"
       x1="357.59586"
       y1="591.03546"
       x2="386.45517"
       y2="558.97174" />
    <linearGradient
       inkscape:collect="always"
       xlink:href="#linearGradient47938-1"
       id="linearGradient5349"
       gradientUnits="userSpaceOnUse"
       gradientTransform="matrix(0.113926,0,0,0.113926,577.45449,100.602)"
       x1="317.13693"
       y1="706.63019"
       x2="340.87903"
       y2="732.13678" />
    <linearGradient
       inkscape:collect="always"
       xlink:href="#linearGradient7546-4"
       id="linearGradient5351"
       gradientUnits="userSpaceOnUse"
       x1="66.986511"
       y1="737.42224"
       x2="54.166351"
       y2="717.97394"
       gradientTransform="matrix(0.155245,0,0,0.155245,577.93249,76.0379)" />
    <linearGradient
       inkscape:collect="always"
       xlink:href="#linearGradient7546-4"
       id="linearGradient5353"
       gradientUnits="userSpaceOnUse"
       x1="66.986511"
       y1="737.42224"
       x2="54.166351"
       y2="717.97394"
       gradientTransform="matrix(0.155245,0,0,0.155245,578.48749,100.829)" />
    <linearGradient
       inkscape:collect="always"
       xlink:href="#linearGradient47938-1"
       id="linearGradient5355"
       gradientUnits="userSpaceOnUse"
       gradientTransform="matrix(-0.113926,0,0,0.113926,675.86649,100.602)"
       x1="142.45555"
       y1="371"
       x2="181.51711"
       y2="335.03125" />
    <linearGradient
       inkscape:collect="always"
       xlink:href="#linearGradient47938-1"
       id="linearGradient5357"
       gradientUnits="userSpaceOnUse"
       gradientTransform="matrix(-0.113926,0,0,0.113926,677.83549,102.685)"
       x1="180.64561"
       y1="371"
       x2="216.08575"
       y2="335.03125" />
    <linearGradient
       inkscape:collect="always"
       xlink:href="#linearGradient47938-1"
       id="linearGradient5359"
       gradientUnits="userSpaceOnUse"
       gradientTransform="matrix(-0.113926,0,0,0.113926,675.86649,100.602)"
       x1="465.00714"
       y1="722.60028"
       x2="503.29758"
       y2="684.6947" />
    <linearGradient
       inkscape:collect="always"
       xlink:href="#linearGradient7546-4"
       id="linearGradient5361"
       gradientUnits="userSpaceOnUse"
       x1="66.986511"
       y1="737.42224"
       x2="54.166351"
       y2="717.97394"
       gradientTransform="matrix(0.155245,0,0,0.155245,602.25949,100.829)" />
    <linearGradient
       inkscape:collect="always"
       xlink:href="#linearGradient47938-1"
       id="linearGradient5363"
       gradientUnits="userSpaceOnUse"
       gradientTransform="matrix(-0.113926,0,0,0.113926,675.86649,100.602)"
       x1="332.67072"
       y1="560.21875"
       x2="362.8866"
       y2="524.28125" />
  </defs>
  <sodipodi:namedview
     pagecolor="#ffffff"
     bordercolor="#666666"
     borderopacity="1"
     objecttolerance="10"
     gridtolerance="10"
     guidetolerance="10"
     inkscape:pageopacity="0"
     inkscape:pageshadow="2"
     inkscape:window-width="1366"
     inkscape:window-height="719"
     id="namedview102"
     showgrid="false"
     inkscape:zoom="0.40919523"
     inkscape:cx="326.25013"
     inkscape:cy="347.02261"
     inkscape:window-x="0"
     inkscape:window-y="25"
     inkscape:window-maximized="1"
     inkscape:current-layer="g8"
     fit-margin-top="0"
     fit-margin-left="0"
     fit-margin-right="0"
     fit-margin-bottom="0"
     inkscape:pagecheckerboard="0" />
  <g
     id="g4"
     transform="translate(-743.77428,1687.2362)">
    <g
       id="g6">
      <g
         id="g8">
        <g
           id="g4947"
           transform="matrix(0,7.0220944,-7.0220944,0,2267.6086,-5793.3434)">
          <path
             inkscape:connector-curvature="0"
             style="fill:#c0c0c0;fill-opacity:1;stroke:#000000;stroke-width:0.113926;stroke-miterlimit:2;stroke-dasharray:none;stroke-opacity:1"
             id="path3471-4"
             d="m 661.62024,138.16391 a 1.9082675,1.9082675 0 0 1 -3.81653,0 1.9082675,1.9082675 0 1 1 3.81653,0 z" />
          <path
             inkscape:connector-curvature="0"
             style="fill:url(#linearGradient5343);fill-opacity:1;stroke:none"
             id="path3473-9"
             d="m 661.62013,138.16389 a 1.908266,1.908266 0 0 1 -3.81653,0 1.908266,1.908266 0 1 1 3.81653,0 z" />
          <path
             inkscape:connector-curvature="0"
             style="font-size:12px;fill:#ffbd03;fill-opacity:1;fill-rule:evenodd;stroke:#000000;stroke-width:0.101929pt"
             id="path3485-9"
             d="m 658.16571,138.48171 -2.0198,2.04821 1.34647,1.36543 2.01985,-2.04817 c 0.67327,-0.68275 -0.67325,-2.04821 -1.34652,-1.36547 z" />
          <path
             inkscape:connector-curvature="0"
             style="font-size:12px;fill:url(#linearGradient5345);fill-opacity:1;fill-rule:evenodd;stroke:none"
             id="path3487-2"
             d="m 658.16571,138.48171 -2.0198,2.04821 1.34647,1.36543 2.01985,-2.04817 c 0.67327,-0.68275 -0.67325,-2.04821 -1.34652,-1.36547 z" />
          <path
             inkscape:connector-curvature="0"
             style="font-size:12px;fill:#ffbd03;fill-opacity:1;fill-rule:evenodd;stroke:#000000;stroke-width:0.113926;stroke-miterlimit:4;stroke-dasharray:none"
             id="path3439-5"
             d="m 655.47209,139.84566 -2.01863,2.05067 -18.42399,18.68032 2.69507,2.73067 18.42042,-18.68033 2.02219,-2.04711 c -0.27019,-1.0915 -1.61874,-2.46027 -2.69506,-2.73422 z m -21.54272,21.84889 -12.11889,12.28978 2.6915,2.73067 12.1189,-12.28978 c -0.27019,-1.09151 -1.61518,-2.45672 -2.69151,-2.73067 z" />
          <path
             inkscape:connector-curvature="0"
             style="font-size:12px;fill:#c0c0c0;fill-rule:evenodd;stroke:#000000;stroke-width:0.113926;stroke-miterlimit:4;stroke-dasharray:none"
             id="path3577-5"
             d="m 653.45283,141.8954 -2.0198,2.04821 c -1.34651,1.36545 -6.05935,7.51001 -6.05935,7.51001 0,0 -6.30389,5.0276 -7.6504,6.39306 l -2.0198,2.04821 c 1.34652,-1.36546 9.67024,-7.07582 9.67024,-7.07582 0,0 -4.95737,7.75857 -6.97716,9.80678 l 2.01979,-2.04821 c 1.34652,-1.36546 6.30412,-7.7583 6.30385,-7.75857 2.3e-4,2.3e-4 5.38611,-4.09637 6.73259,-5.4618 l 2.69307,-2.73095 c -1.34651,1.36545 -9.42539,6.82761 -9.42539,6.82761 0,0 5.38584,-8.19307 6.73236,-9.55853 z" />
          <path
             inkscape:connector-curvature="0"
             style="font-size:12px;fill:url(#linearGradient5347);fill-opacity:1;fill-rule:evenodd;stroke:none"
             id="path3463-3"
             d="m 655.47209,139.84566 -2.01863,2.05067 -18.42399,18.68032 2.69507,2.73067 18.42042,-18.68033 2.02219,-2.04711 c -0.27019,-1.0915 -1.61874,-2.46027 -2.69506,-2.73422 z m -21.54272,21.84889 -12.11889,12.28978 2.6915,2.73067 12.1189,-12.28978 c -0.27019,-1.09151 -1.61518,-2.45672 -2.69151,-2.73067 z" />
          <path
             inkscape:connector-curvature="0"
             style="font-size:12px;fill:#ffbd03;fill-opacity:1;fill-rule:evenodd;stroke:#000000;stroke-width:0.101929pt"
             id="path3443-3"
             d="m 626.52244,167.83912 4.03955,4.09638 c 0.74153,4e-5 1.36244,-0.62961 1.34652,-1.36546 0,0 0,-1.36542 -1.34652,-2.73089 -1.34652,-1.36545 -2.69304,-1.36548 -2.69304,-1.36548 -0.62551,0.0854 -1.15088,0.68274 -1.34651,1.36545 z" />
          <path
             inkscape:connector-curvature="0"
             style="font-size:12px;fill:#ffbd03;fill-opacity:1;fill-rule:evenodd;stroke:#000000;stroke-width:0.101929pt"
             id="path3445-3"
             d="m 626.52244,167.83912 -2.69304,4.09642 2.69304,2.73091 4.03955,-2.73095 c 0.15204,-0.13306 0,-1.36542 -1.34652,-2.73088 -1.34652,-1.36547 -2.63234,-1.33286 -2.69303,-1.3655 z" />
          <path
             inkscape:connector-curvature="0"
             style="font-size:12px;fill:#ffbd03;fill-opacity:1;fill-rule:evenodd;stroke:#000000;stroke-width:0.113926;stroke-miterlimit:2;stroke-dasharray:none"
             id="path3447-7"
             d="m 624.50264,172.61826 c 1.1012,-1.11669 2.69304,-2.73092 4.71283,-3.41362 -0.67327,2.04816 -2.26511,3.66238 -3.36631,4.77908 z" />
          <path
             inkscape:connector-curvature="0"
             style="font-size:12px;fill:#ffbd03;fill-opacity:1;fill-rule:evenodd;stroke:#000000;stroke-width:0.0921775pt"
             id="path3449-4"
             d="m 626.5224,174.66647 -0.67324,-0.68271 c 0,0 0.79593,-0.80712 1.34651,-1.36544 1.34654,-1.36548 3.36631,-0.68275 3.36631,-0.68275 z" />
          <path
             inkscape:connector-curvature="0"
             style="font-size:12px;fill:#ffbd03;fill-opacity:1;fill-rule:evenodd;stroke:#000000;stroke-width:0.0921775pt"
             id="path3451-3"
             d="m 623.8294,171.93555 0.67324,0.68271 c 0,0 0.79592,-0.80711 1.3465,-1.36544 1.34654,-1.36548 0.67328,-3.41367 0.67328,-3.41367 z" />
          <path
             inkscape:connector-curvature="0"
             style="font-size:12px;fill:#ffbd03;fill-opacity:1;fill-rule:evenodd;stroke:#000000;stroke-width:0.101929pt"
             id="path3453-8"
             d="m 623.8294,171.93554 c -4.71283,4.77912 -10.0989,7.51005 -13.46522,10.92371 -2.69303,2.73092 -0.8284,4.82117 -0.0776,5.48288 0.75083,0.66167 2.79279,2.74028 5.46366,-0.021 3.36632,-3.41367 6.05935,-8.8755 10.77219,-13.65464 -5e-5,-1.36545 -1.34656,-2.73091 -2.69304,-2.73091 z" />
          <rect
             style="font-size:12px;fill:#ffbd03;fill-opacity:1;fill-rule:evenodd;stroke:#000000;stroke-width:0.114039;stroke-miterlimit:4;stroke-dasharray:none"
             id="rect3455-0"
             transform="matrix(0.65477919,-0.75582022,0.71318989,0.70097089,0,0)"
             y="582.21808"
             x="293.26352"
             height="7.4818449"
             width="2.350492" />
          <rect
             style="font-size:12px;fill:#c0c0c0;fill-rule:evenodd;stroke:#000000;stroke-width:0.114028;stroke-miterlimit:4;stroke-dasharray:none"
             id="rect3457-8"
             transform="matrix(0.65596572,-0.75479068,0.71429685,0.69984285,0,0)"
             y="581.36176"
             x="290.21121"
             height="8.2209721"
             width="2.5823865" />
          <path
             inkscape:connector-curvature="0"
             style="font-size:12px;fill:url(#linearGradient5349);fill-opacity:1;fill-rule:evenodd;stroke:#000000;stroke-width:0.127;stroke-linecap:round;stroke-linejoin:round;stroke-miterlimit:4;stroke-dasharray:none"
             id="path3459-8"
             d="m 620.46309,178.08012 c -2.69304,4.09634 -5.38612,6.8273 -6.05935,7.51001 -1.27777,1.29814 -2.69304,1.3655 -2.69304,1.3655 0,0 0,-1.3655 1.34652,-2.73095 0.67324,-0.68272 3.36631,-3.41367 7.40587,-6.14456 z" />
          <path
             inkscape:connector-curvature="0"
             style="font-size:12px;fill:#d8a002;fill-opacity:1;fill-rule:evenodd;stroke:#000000;stroke-width:0.113926;stroke-miterlimit:2;stroke-dasharray:none"
             id="path3469-0"
             d="m 649.93802,164.17116 v 0 -2.16644 l 1.39206,1.08319 z" />
          <path
             inkscape:connector-curvature="0"
             style="fill:#bb8a02;fill-opacity:1;stroke:#000000;stroke-width:0.113926;stroke-miterlimit:4;stroke-dasharray:none;stroke-opacity:1"
             id="path3475-6"
             d="m 599.32431,187.89756 c -8.01812,0 -14.52558,6.50746 -14.52558,14.52558 0,8.01812 6.50746,14.52557 14.52558,14.52557 8.01812,0 14.52558,-6.50745 14.52558,-14.52557 0,-8.01812 -6.50746,-14.52558 -14.52558,-14.52558 z m -1.76585,3.90197 c 0.44021,0 0.79748,0.35727 0.79748,0.79748 0,0.53326 0.43155,0.96481 0.96481,0.96481 0.53326,0 0.96481,-0.43155 0.96481,-0.96481 0,-0.44021 0.35728,-0.79748 0.79749,-0.79748 0.0513,0 0.10087,0.005 0.14952,0.0142 4.44388,0.79778 7.94389,4.32084 8.70823,8.77587 0.005,0.0243 0.008,0.0499 0.0107,0.0748 0.002,0.0249 0.004,0.0491 0.004,0.0748 0,0 -1.76229,-0.20393 -1.76229,-0.20393 0,0 0,1.96622 0,1.96622 0,0.53326 0.43155,0.96481 0.96481,0.96481 0.44021,0 0.79748,0.35728 0.79748,0.79749 0,0.0257 -10e-4,0.0499 -0.004,0.0748 -0.002,0.0249 -0.006,0.0504 -0.0107,0.0748 -0.76434,4.45503 -4.26435,7.97809 -8.70823,8.77588 -0.0487,0.009 -0.0982,0.0142 -0.14952,0.0142 -0.44021,0 -0.79749,-0.35727 -0.79749,-0.79749 0,-0.53326 -0.43155,-0.96481 -0.96481,-0.96481 -0.53326,0 -0.96481,0.43155 -0.96481,0.96481 0,0.44022 -0.35727,0.79749 -0.79748,0.79749 -0.0514,0 -0.10088,-0.005 -0.14953,-0.0142 -4.44388,-0.79779 -7.94388,-4.32085 -8.70823,-8.77588 -0.005,-0.0243 -0.008,-0.0499 -0.0107,-0.0748 -0.002,-0.0249 -0.004,-0.0491 -0.004,-0.0748 0,-0.44021 0.35727,-0.79749 0.79748,-0.79749 0.53326,0 0.96482,-0.43155 0.96482,-0.96481 0,-0.53326 0,-2.00646 0,-2.00646 0,0 -1.7623,0.24417 -1.7623,0.24417 0,-0.0257 10e-4,-0.0499 0.004,-0.0748 0.002,-0.0249 0.006,-0.0504 0.0107,-0.0748 0.76435,-4.45503 4.26435,-7.97809 8.70823,-8.77587 0.0487,-0.009 0.0982,-0.0142 0.14953,-0.0142 z" />
          <path
             inkscape:connector-curvature="0"
             style="fill:#d72b2b;fill-opacity:1;stroke:#000000;stroke-width:0.113926;stroke-miterlimit:2;stroke-dasharray:none;stroke-opacity:1"
             id="path3477-8"
             d="m 588.90122,188.88894 a 2.0515778,2.0515778 0 0 1 -4.10315,0 2.0515778,2.0515778 0 1 1 4.10315,0 z" />
          <path
             inkscape:connector-curvature="0"
             style="fill:url(#linearGradient5351);fill-opacity:1;stroke:none"
             id="path3479-1"
             d="m 588.95844,188.8891 a 2.10855,2.10855 0 0 1 -4.2171,0 2.10855,2.10855 0 1 1 4.2171,0 z" />
          <path
             inkscape:connector-curvature="0"
             style="fill:#ffffff;fill-opacity:1;stroke:none"
             id="path3481-9"
             d="m 586.20691,188.82238 a 0.34385552,0.34385552 0 1 1 -0.68771,0 0.34385552,0.34385552 0 1 1 0.68771,0 z" />
          <path
             inkscape:connector-curvature="0"
             style="fill:#ffffff;fill-opacity:1;stroke:none"
             id="path3483-8"
             d="m 587.9904,188.82268 a 0.12894597,0.12894597 0 1 1 -0.25789,0 0.12894597,0.12894597 0 1 1 0.25789,0 z" />
          <path
             inkscape:connector-curvature="0"
             style="font-size:12px;fill:#c0c0c0;fill-rule:evenodd;stroke:#000000;stroke-width:0.113926;stroke-miterlimit:4;stroke-dasharray:none"
             id="path3489-9"
             d="m 656.53303,138.77048 c -0.66951,0.0397 -1.29898,0.59358 -1.34576,1.36355 l 0.28482,-0.28837 c 1.07632,0.27395 2.42487,1.64272 2.69506,2.73422 l -0.28481,0.28838 c 0.73995,-0.002 1.35809,-0.62887 1.34219,-1.36355 -0.58461,-1.41036 -1.3435,-2.09792 -2.6915,-2.73423 z" />
          <path
             inkscape:connector-curvature="0"
             style="font-size:12px;fill:#c0c0c0;fill-rule:evenodd;stroke:#000000;stroke-width:0.101929pt"
             id="path3491-7"
             d="m 654.5144,140.82115 c -0.67055,0.0397 -1.30428,0.59171 -1.34932,1.36355 l 0.004,0.004 0.28481,-0.29194 c 1.07633,0.27395 2.42132,1.63916 2.69151,2.73067 l -0.28482,0.28837 c 0.74153,4e-5 1.36168,-0.62769 1.34576,-1.36355 -0.58461,-1.41035 -1.34351,-2.09435 -2.69151,-2.73067 z" />
          <path
             inkscape:connector-curvature="0"
             style="font-size:12px;fill:#c0c0c0;fill-rule:evenodd;stroke:#000000;stroke-width:0.113926;stroke-miterlimit:4;stroke-dasharray:none"
             id="path3493-2"
             d="m 590.97762,188.61598 c -0.78207,0.56239 -1.51978,1.21219 -2.19924,1.94866 -0.67946,0.73647 -1.26883,1.52511 -1.76849,2.35199 l -0.76151,-0.48051 c 0.52466,-0.86832 1.14365,-1.69648 1.85722,-2.46992 0.71358,-0.77345 1.48824,-1.45588 2.30957,-2.04649 z" />
          <path
             inkscape:connector-curvature="0"
             style="font-size:12px;fill:#d8a002;fill-opacity:1;fill-rule:evenodd;stroke:#000000;stroke-width:0.113926;stroke-miterlimit:2;stroke-dasharray:none"
             id="path3495-2"
             d="m 654.32181,157.67182 4.36953,4.33289 h 2.18476 l 1.09241,1.08319 v 4.33295 l -7.6467,-7.60417 z" />
          <path
             inkscape:connector-curvature="0"
             style="font-size:12px;fill:#ffbd03;fill-opacity:1;fill-rule:evenodd;stroke:#000000;stroke-width:0.113926;stroke-miterlimit:2;stroke-dasharray:none"
             id="path3497-8"
             d="m 653.22941,171.75373 6.55435,-6.49933 -1.09241,-1.08325 -6.55429,6.49933 z" />
          <path
             inkscape:connector-curvature="0"
             style="font-size:12px;fill:#bb8a02;fill-opacity:1;fill-rule:evenodd;stroke:#000000;stroke-width:0.113926;stroke-miterlimit:2;stroke-dasharray:none"
             id="path3499-2"
             d="m 653.22943,171.7537 v 4.33289 l 6.55435,-6.49933 v -4.33289 z" />
          <path
             inkscape:connector-curvature="0"
             style="font-size:12px;fill:#ffcc3c;fill-opacity:1;fill-rule:evenodd;stroke:#000000;stroke-width:0.113926;stroke-miterlimit:2;stroke-dasharray:none"
             id="path3501-8"
             d="m 658.69136,162.0047 6.55429,-6.49933 h 2.18476 l -6.55428,6.49933 z" />
          <path
             inkscape:connector-curvature="0"
             style="font-size:12px;fill:#bb8a02;fill-opacity:1;fill-rule:evenodd;stroke:#000000;stroke-width:0.113926;stroke-miterlimit:2;stroke-dasharray:none"
             id="path3503-9"
             d="m 660.87609,155.50538 1.09241,-1.08325 v -2.16645 l -2.18477,2.16645 z" />
          <path
             inkscape:connector-curvature="0"
             style="font-size:12px;fill:#bb8a02;fill-opacity:1;fill-rule:evenodd;stroke:#000000;stroke-width:0.113926;stroke-miterlimit:2;stroke-dasharray:none"
             id="path3505-0"
             d="m 655.41416,150.08926 1.09241,-1.08325 v -2.16644 l -2.18476,2.16644 z" />
          <path
             inkscape:connector-curvature="0"
             style="font-size:12px;fill:#c0c0c0;fill-rule:evenodd;stroke:#000000;stroke-width:0.113926;stroke-miterlimit:4;stroke-dasharray:none"
             id="path3507-7"
             d="m 587.5116,208.82436 -0.81529,0.3845 v 2.00795 c 0.58635,0.82731 1.26501,1.60961 2.03287,2.32837 0.76786,0.71875 1.59093,1.34063 2.45297,1.86911 l 0.54471,-0.59457 0.0249,-2.05067 c -1.6634,-1.01879 -3.10665,-2.36395 -4.24019,-3.94469 z" />
          <path
             inkscape:connector-curvature="0"
             style="font-size:12px;fill:none;stroke:#000000;stroke-width:0.113926;stroke-miterlimit:4;stroke-dasharray:none"
             id="path3509-8"
             d="m 591.18304,213.36093 c -0.82083,-0.50324 -1.48286,-0.975 -2.21402,-1.6594 -0.73115,-0.6844 -1.67855,-1.67116 -2.23695,-2.45898" />
          <path
             inkscape:connector-curvature="0"
             style="fill:none;stroke:#000000;stroke-width:0.113926px;stroke-linecap:butt;stroke-linejoin:miter;stroke-opacity:1"
             id="path3511-1"
             d="m 591.72103,212.81027 -0.54485,0.53476 v 1.99779" />
          <path
             inkscape:connector-curvature="0"
             style="font-size:12px;fill:#000000;fill-opacity:0.438202;fill-rule:evenodd;stroke:none"
             id="path3513-5"
             d="m 586.69631,209.29075 v 1.92606 c 0.58635,0.82731 1.26501,1.60961 2.03287,2.32837 0.76786,0.71875 1.59093,1.34063 2.45297,1.86911 l 0.54471,-0.59457 0.0249,-1.95811 -0.51979,0.50913 v 1.97235 h -0.11393 v -1.95456 c -0.80636,-0.49624 -1.46605,-0.96761 -2.18952,-1.64482 -0.7289,-0.68228 -1.66809,-1.66107 -2.23224,-2.45296 z" />
          <path
             inkscape:connector-curvature="0"
             style="fill:#d72b2b;fill-opacity:1;stroke:#000000;stroke-width:0.113926;stroke-miterlimit:2;stroke-dasharray:none;stroke-opacity:1"
             id="path3515-8"
             d="m 589.45622,213.67994 a 2.0515778,2.0515778 0 0 1 -4.10315,0 2.0515778,2.0515778 0 1 1 4.10315,0 z" />
          <path
             inkscape:connector-curvature="0"
             style="fill:url(#linearGradient5353);fill-opacity:1;stroke:none"
             id="path3517-6"
             d="m 589.51344,213.6802 a 2.10855,2.10855 0 0 1 -4.2171,0 2.10855,2.10855 0 1 1 4.2171,0 z" />
          <path
             inkscape:connector-curvature="0"
             style="fill:#ffffff;fill-opacity:1;stroke:none"
             id="path3519-1"
             d="m 586.76191,213.61338 a 0.34385552,0.34385552 0 1 1 -0.68771,0 0.34385552,0.34385552 0 1 1 0.68771,0 z" />
          <path
             inkscape:connector-curvature="0"
             style="fill:#ffffff;fill-opacity:1;stroke:none"
             id="path3521-2"
             d="m 588.5454,213.61368 a 0.12894597,0.12894597 0 1 1 -0.25789,0 0.12894597,0.12894597 0 1 1 0.25789,0 z" />
          <path
             inkscape:connector-curvature="0"
             style="font-size:12px;opacity:0.6;fill:url(#linearGradient5355);fill-opacity:1;fill-rule:evenodd;stroke:none"
             id="path3523-4"
             d="m 656.53303,138.77048 c -0.66951,0.0397 -1.29898,0.59358 -1.34576,1.36355 l 0.28482,-0.28837 c 1.07632,0.27395 2.42487,1.64272 2.69506,2.73422 l -0.28481,0.28838 c 0.73995,-0.002 1.35809,-0.62887 1.34219,-1.36355 -0.58461,-1.41036 -1.3435,-2.09792 -2.6915,-2.73423 z" />
          <path
             inkscape:connector-curvature="0"
             style="font-size:12px;opacity:0.6;fill:url(#linearGradient5357);fill-opacity:1;fill-rule:evenodd;stroke:none"
             id="path3525-2"
             d="m 654.56389,140.85377 c -0.66951,0.0397 -1.29898,0.59358 -1.34576,1.36355 l 0.28482,-0.28837 c 1.07632,0.27395 2.42487,1.64272 2.69506,2.73423 l -0.28481,0.28837 c 0.73995,-0.002 1.35809,-0.62887 1.34219,-1.36355 -0.58461,-1.41035 -1.3435,-2.09792 -2.6915,-2.73423 z" />
          <path
             inkscape:connector-curvature="0"
             style="font-size:12px;fill:url(#linearGradient5359);fill-opacity:1;fill-rule:evenodd;stroke:none"
             id="path3465-5"
             d="m 627.86993,166.47233 c -0.62551,0.0854 -1.15012,0.6844 -1.34576,1.36711 l -2.69506,4.09778 c -4.71283,4.77912 -10.09833,7.509 -13.46464,10.92267 -0.73942,0.74982 -1.1334,1.44935 -1.30303,2.08627 l -0.26702,-0.25989 -1.2247,1.41695 -0.2421,-0.23853 -1.69465,1.94742 5.87432,5.75327 1.69109,-1.94742 -0.28838,-0.28126 1.22115,-1.40627 -0.33466,-0.32754 c 0.60044,-0.17212 1.25631,-0.55979 1.95454,-1.28167 3.36632,-3.41367 6.06031,-8.8742 10.77314,-13.65333 l 4.03726,-2.73067 c 0.74152,3e-5 1.36167,-0.63126 1.34575,-1.36711 0,0 8e-4,-1.36521 -1.34575,-2.73067 -1.34652,-1.36546 -2.6915,-1.36711 -2.6915,-1.36711 z" />
          <path
             inkscape:connector-curvature="0"
             style="fill:#ffbd03;fill-opacity:1;stroke:#000000;stroke-width:0.113926;stroke-miterlimit:4;stroke-dasharray:none;stroke-opacity:1"
             id="path3527-8"
             d="m 599.32431,185.84689 c -8.01812,0 -14.52558,6.50746 -14.52558,14.52558 0,8.01812 6.50746,14.52558 14.52558,14.52558 8.01812,0 14.52558,-6.50746 14.52558,-14.52558 0,-8.01812 -6.50746,-14.52558 -14.52558,-14.52558 z m -1.76585,3.90197 c 0.44021,0 0.79748,0.35727 0.79748,0.79748 0,0.53326 0.43155,0.96481 0.96481,0.96481 0.53326,0 0.96481,-0.43155 0.96481,-0.96481 0,-0.44021 0.35728,-0.79748 0.79749,-0.79748 0.0513,0 0.10087,0.005 0.14952,0.0142 4.44388,0.79778 7.94389,4.32084 8.70823,8.77587 0.005,0.0243 0.008,0.0499 0.0107,0.0748 0.002,0.0249 0.004,0.0491 0.004,0.0748 0,0.44021 -0.35727,0.79748 -0.79748,0.79748 -0.53326,0 -0.96481,0.43155 -0.96481,0.96481 0,0.53326 0.43155,0.96481 0.96481,0.96481 0.44021,0 0.79748,0.35728 0.79748,0.79749 0,0.0257 -10e-4,0.0499 -0.004,0.0748 -0.002,0.0249 -0.006,0.0504 -0.0107,0.0748 -0.76434,4.45503 -4.26435,7.97809 -8.70823,8.77588 -0.0487,0.009 -0.0982,0.0142 -0.14952,0.0142 -0.44021,0 -0.79749,-0.35727 -0.79749,-0.79749 0,-0.53326 -0.43155,-0.96481 -0.96481,-0.96481 -0.53326,0 -0.96481,0.43155 -0.96481,0.96481 0,0.44022 -0.35727,0.79749 -0.79748,0.79749 -0.0514,0 -0.10088,-0.005 -0.14953,-0.0142 -4.44388,-0.79779 -7.94388,-4.32085 -8.70823,-8.77588 -0.005,-0.0243 -0.008,-0.0499 -0.0107,-0.0748 -0.002,-0.0249 -0.004,-0.0491 -0.004,-0.0748 0,-0.44021 0.35727,-0.79749 0.79748,-0.79749 0.53326,0 0.96482,-0.43155 0.96482,-0.96481 0,-0.53326 -0.43156,-0.96481 -0.96482,-0.96481 -0.44021,0 -0.79748,-0.35727 -0.79748,-0.79748 0,-0.0257 10e-4,-0.0499 0.004,-0.0748 0.002,-0.0249 0.006,-0.0504 0.0107,-0.0748 0.76435,-4.45503 4.26435,-7.97809 8.70823,-8.77587 0.0487,-0.009 0.0982,-0.0142 0.14953,-0.0142 z" />
          <path
             inkscape:connector-curvature="0"
             style="fill:#000000;fill-opacity:0.241573;stroke:#000000;stroke-width:0.113926;stroke-miterlimit:4;stroke-dasharray:none;stroke-opacity:1"
             id="path3529-6"
             d="m 598.87217,187.44541 c -6.67875,0.0849 -12.63912,6.13403 -12.49271,12.84873 -0.0514,5.46651 3.66304,10.82434 8.96812,12.39303 4.73443,1.53478 10.33619,0.14129 13.59503,-3.66553 3.40808,-3.74469 4.37001,-9.58267 2.08661,-14.15363 -2.07271,-4.44249 -6.80749,-7.55031 -11.73339,-7.42616 -0.14125,-9.1e-4 -0.28245,3.4e-4 -0.42366,0.004 z m 2.14679,0.6978 c 5.49678,0.61731 10.31018,5.48621 10.48833,11.06864 -0.0533,0.49133 -0.42885,0.91413 -0.72984,1.23894 1.07346,1.05514 0.8712,2.7616 0.28193,4.01041 -1.49048,4.47109 -5.7476,8.12845 -10.56733,8.24376 -0.5006,-0.0119 -0.85282,-0.59813 -1.20334,-0.69779 -1.07191,1.05365 -2.76059,0.81532 -4.00274,0.22688 -4.46269,-1.52766 -8.10438,-5.83764 -8.13395,-10.66536 0.0573,-0.46404 0.50112,-0.81101 0.6978,-1.13214 -1.06952,-1.06123 -0.84171,-2.7702 -0.26003,-4.02092 1.49687,-4.45231 5.72511,-8.07927 10.51694,-8.22258 0.50355,0.0434 0.91668,0.5212 1.23894,0.72272 0.42843,-0.46199 1.04078,-0.74475 1.67329,-0.77256 z" />
          <path
             inkscape:connector-curvature="0"
             style="font-size:12px;fill:#c0c0c0;fill-rule:evenodd;stroke:#000000;stroke-width:0.113926;stroke-miterlimit:4;stroke-dasharray:none"
             id="path3531-2"
             d="m 611.14158,208.82436 0.81529,0.3845 v 2.00795 c -0.58634,0.82731 -1.26501,1.60961 -2.03287,2.32837 -0.76786,0.71875 -1.59093,1.34063 -2.45297,1.86911 l -0.54471,-0.59457 -0.0249,-2.05067 c 1.66339,-1.01879 3.10665,-2.36395 4.24018,-3.94469 z" />
          <path
             inkscape:connector-curvature="0"
             style="font-size:12px;fill:none;stroke:#000000;stroke-width:0.113926;stroke-miterlimit:4;stroke-dasharray:none"
             id="path3533-6"
             d="m 607.47015,213.36093 c 0.82083,-0.50324 1.48285,-0.975 2.21401,-1.6594 0.73115,-0.6844 1.67855,-1.67116 2.23696,-2.45898" />
          <path
             inkscape:connector-curvature="0"
             style="fill:none;stroke:#000000;stroke-width:0.113926px;stroke-linecap:butt;stroke-linejoin:miter;stroke-opacity:1"
             id="path3535-5"
             d="m 606.93216,212.81027 0.54485,0.53476 v 1.99779" />
          <path
             inkscape:connector-curvature="0"
             style="font-size:12px;fill:#000000;fill-opacity:0.438202;fill-rule:evenodd;stroke:none"
             id="path3537-3"
             d="m 611.9508,209.29075 v 1.92606 c -0.58634,0.82731 -1.265,1.60961 -2.03286,2.32837 -0.76786,0.71875 -1.59093,1.34063 -2.45298,1.86911 l -0.54471,-0.59457 -0.0249,-1.95811 0.51979,0.50913 v 1.97235 h 0.11393 v -1.95456 c 0.80636,-0.49624 1.46605,-0.96761 2.18951,-1.64482 0.72891,-0.68228 1.66809,-1.66107 2.23224,-2.45296 z" />
          <path
             inkscape:connector-curvature="0"
             style="fill:#d72b2b;fill-opacity:1;stroke:#000000;stroke-width:0.113926;stroke-miterlimit:2;stroke-dasharray:none;stroke-opacity:1"
             id="path3539-9"
             d="m 613.22822,213.67994 a 2.0515778,2.0515778 0 0 1 -4.10315,0 2.0515778,2.0515778 0 1 1 4.10315,0 z" />
          <path
             inkscape:connector-curvature="0"
             style="fill:url(#linearGradient5361);fill-opacity:1;stroke:none"
             id="path3541-2"
             d="m 613.28544,213.6802 a 2.10855,2.10855 0 0 1 -4.2171,0 2.10855,2.10855 0 1 1 4.2171,0 z" />
          <path
             inkscape:connector-curvature="0"
             style="fill:#ffffff;fill-opacity:1;stroke:none"
             id="path3543-4"
             d="m 610.53391,213.61338 a 0.34385552,0.34385552 0 1 1 -0.68771,0 0.34385552,0.34385552 0 1 1 0.68771,0 z" />
          <path
             inkscape:connector-curvature="0"
             style="fill:#ffffff;fill-opacity:1;stroke:none"
             id="path3545-6"
             d="m 612.3174,213.61368 a 0.12894597,0.12894597 0 1 1 -0.25789,0 0.12894597,0.12894597 0 1 1 0.25789,0 z" />
          <path
             inkscape:connector-curvature="0"
             style="font-size:12px;fill:#bb8a02;fill-opacity:1;fill-rule:evenodd;stroke:#000000;stroke-width:0.113926;stroke-miterlimit:2;stroke-dasharray:none"
             id="path3547-1"
             d="m 652.13705,157.67179 2.18476,-2.16644 v -2.16644 l -2.18476,2.16644 z" />
          <path
             inkscape:connector-curvature="0"
             style="font-size:12px;fill:#d8a002;fill-opacity:1;fill-rule:evenodd;stroke:#000000;stroke-width:0.113926;stroke-miterlimit:2;stroke-dasharray:none"
             id="path3549-8"
             d="m 649.95228,151.17246 v 2.16644 l 1.09241,-1.08325 z" />
          <path
             inkscape:connector-curvature="0"
             style="font-size:12px;fill:#d8a002;fill-opacity:1;fill-rule:evenodd;stroke:#000000;stroke-width:0.113926;stroke-miterlimit:2;stroke-dasharray:none"
             id="path3551-2"
             d="m 652.13705,157.67179 -2.18477,-2.16644 v -2.16644 l 2.18477,2.16644 z" />
          <path
             inkscape:connector-curvature="0"
             style="font-size:12px;fill:#d8a002;fill-opacity:1;fill-rule:evenodd;stroke:#000000;stroke-width:0.113926;stroke-miterlimit:2;stroke-dasharray:none"
             id="path3553-1"
             d="m 657.59898,156.58858 -3.27717,-3.24969 v -2.16645 l 4.36953,4.33289 z" />
          <path
             inkscape:connector-curvature="0"
             style="font-size:12px;fill:#ffcc3c;fill-opacity:1;fill-rule:evenodd;stroke:#000000;stroke-width:0.113926;stroke-miterlimit:2;stroke-dasharray:none"
             id="path3555-1"
             d="m 649.9523,170.67048 6.55428,-6.49933 h 2.18477 l -6.55429,6.49933 z" />
          <path
             inkscape:connector-curvature="0"
             style="font-size:12px;fill:#bb8a02;fill-opacity:1;fill-rule:evenodd;stroke:#000000;stroke-width:0.113926;stroke-miterlimit:2;stroke-dasharray:none"
             id="path3557-9"
             d="m 654.32181,153.33891 -1.09235,-1.08325 1.09235,-1.08319 z" />
          <path
             inkscape:connector-curvature="0"
             style="font-size:12px;fill:#ffbd03;fill-opacity:1;fill-rule:evenodd;stroke:#000000;stroke-width:0.113926;stroke-miterlimit:2;stroke-dasharray:none"
             id="path3559-7"
             d="m 654.32181,144.67306 2.18482,2.1665 -2.18482,2.16639 1.09235,1.08331 2.18482,-2.16651 4.36953,4.33289 -2.18483,2.16651 1.09248,1.08319 2.1847,-2.16639 2.18482,2.16639 -6.55435,6.49939 -4.36952,-4.33289 2.18482,-2.1665 1.09235,1.08331 1.09235,-1.08331 -4.36952,-4.33289 -1.09235,1.08331 1.09235,1.08319 -2.1847,2.16639 -2.18483,-2.16639 1.09235,-1.08331 -1.09235,-1.08319 -4.36952,4.33289 1.09235,1.08319 1.09235,-1.08319 2.18482,2.1665 -2.1847,2.16638 -1.09235,-1.08319 -1.09247,1.08319 4.36952,4.33289 1.09247,-1.08319 -1.09247,-1.08331 2.18483,-2.16639 4.36952,4.33289 -6.55435,6.4994 -2.18482,-2.16651 2.18482,-2.16638 -1.09235,-1.08319 -2.18482,2.16638 -4.36953,-4.33289 2.18482,-2.1665 -1.09247,-1.0832 -2.1847,2.16651 -2.18482,-2.16651 z" />
          <path
             inkscape:connector-curvature="0"
             style="font-size:12px;fill:#c0c0c0;fill-rule:evenodd;stroke:#000000;stroke-width:0.101929pt"
             id="path3583-6"
             d="m 635.27512,160.331 c -0.67054,0.0397 -1.30071,0.59171 -1.34575,1.36355 1.07633,0.27395 2.42132,1.63916 2.69151,2.73067 0.74152,3e-5 1.36167,-0.6277 1.34575,-1.36356 -0.58461,-1.41034 -1.3435,-2.09435 -2.69151,-2.73066 z" />
          <path
             inkscape:connector-curvature="0"
             style="font-size:12px;opacity:0.8;fill:url(#linearGradient5363);fill-opacity:1;fill-rule:evenodd;stroke:none"
             id="path3561-2"
             d="m 635.27512,160.331 c -0.67054,0.0397 -1.30071,0.59171 -1.34575,1.36355 1.07633,0.27395 2.42132,1.63916 2.69151,2.73067 0.74152,3e-5 1.36167,-0.6277 1.34575,-1.36356 -0.58461,-1.41034 -1.3435,-2.09435 -2.69151,-2.73066 z" />
          <path
             inkscape:connector-curvature="0"
             style="font-size:12px;fill:#ffbd03;fill-opacity:1;fill-rule:evenodd;stroke:#000000;stroke-width:0.113926;stroke-miterlimit:2;stroke-dasharray:none"
             id="path3579-9"
             d="m 661.96844,163.08794 6.55435,-6.49933 -1.09241,-1.08325 -6.55429,6.49933 z" />
          <path
             inkscape:connector-curvature="0"
             style="font-size:12px;fill:#bb8a02;fill-opacity:1;fill-rule:evenodd;stroke:#000000;stroke-width:0.113926;stroke-miterlimit:2;stroke-dasharray:none"
             id="path3581-5"
             d="m 661.9685,163.08793 v 4.33289 l 6.55435,-6.49933 v -4.33289 z" />
          <path
             inkscape:connector-curvature="0"
             style="font-size:12px;fill:#d8a002;fill-opacity:1;fill-rule:evenodd;stroke:#000000;stroke-width:0.113926;stroke-miterlimit:4;stroke-dasharray:none"
             id="path3585-2"
             d="m 647.76753,168.50404 v 2.16644 l 5.46188,5.41614 v -4.33289 l -1.09235,-1.08325 h -2.18476 z" />
          <path
             inkscape:connector-curvature="0"
             style="font-size:12px;fill:#d8a002;fill-opacity:1;fill-rule:evenodd;stroke:#000000;stroke-width:0.113926;stroke-miterlimit:2;stroke-dasharray:none"
             id="path3587-0"
             d="m 642.30559,163.13245 4.33962,4.30323 0.0517,2.15159 -4.39129,-4.35447 v -2.10035 z" />
          <path
             inkscape:connector-curvature="0"
             style="font-size:12px;fill:#bb8a02;fill-opacity:1;fill-rule:evenodd;stroke:#000000;stroke-width:0.113926;stroke-miterlimit:2;stroke-dasharray:none"
             id="path3589-0"
             d="m 646.67512,169.58729 2.18476,-2.16644 v -2.16645 l -2.18476,2.16645 z" />
          <path
             inkscape:connector-curvature="0"
             style="font-size:12px;fill:#bb8a02;fill-opacity:1;fill-rule:evenodd;stroke:#000000;stroke-width:0.113926;stroke-miterlimit:2;stroke-dasharray:none"
             id="path3591-3"
             d="m 641.21321,164.17115 2.18476,-2.16644 v -2.16645 l -2.18476,2.16645 z" />
          <path
             inkscape:connector-curvature="0"
             style="font-size:12px;fill:#d8a002;fill-opacity:1;fill-rule:evenodd;stroke:#000000;stroke-width:0.113926;stroke-miterlimit:2;stroke-dasharray:none"
             id="path3593-9"
             d="m 643.39795,159.83826 v 2.16645 l 1.09241,-1.08326 z" />
          <path
             inkscape:connector-curvature="0"
             style="font-size:12px;fill:#d8a002;fill-opacity:1;fill-rule:evenodd;stroke:#000000;stroke-width:0.113926;stroke-miterlimit:2;stroke-dasharray:none"
             id="path3595-1"
             d="m 648.8599,165.25438 v 2.16644 l 1.09241,-1.08325 z" />
          <path
             inkscape:connector-curvature="0"
             style="font-size:12px;fill:#d8a002;fill-opacity:1;fill-rule:evenodd;stroke:#000000;stroke-width:0.113926;stroke-miterlimit:2;stroke-dasharray:none"
             id="path3597-8"
             d="m 639.00669,159.83825 2.20653,2.16645 v 2.16644 l -2.20653,-2.23254 z" />
          <path
             inkscape:connector-curvature="0"
             style="font-size:12px;fill:#bb8a02;fill-opacity:1;fill-rule:evenodd;stroke:#000000;stroke-width:0.113926;stroke-miterlimit:2;stroke-dasharray:none"
             id="path3599-1"
             d="m 647.76751,162.0047 2.18477,-2.16645 v -2.16644 l -2.18477,2.16644 z" />
          <path
             inkscape:connector-curvature="0"
             style="font-size:12px;fill:#bb8a02;fill-opacity:1;fill-rule:evenodd;stroke:#000000;stroke-width:0.113926;stroke-miterlimit:2;stroke-dasharray:none"
             id="path3601-9"
             d="m 646.6751,156.58861 3.27718,-3.2497 v -2.16644 l -4.36953,4.33289 z" />
          <path
             inkscape:connector-curvature="0"
             style="font-size:12px;fill:#bb8a02;fill-opacity:1;fill-rule:evenodd;stroke:#000000;stroke-width:0.113926;stroke-miterlimit:2;stroke-dasharray:none"
             id="path3603-5"
             d="m 647.7675,162.0047 -2.18476,-2.16645 1.09241,-1.08325 1.09235,1.08325 z" />
          <path
             inkscape:connector-curvature="0"
             style="opacity:0.8;fill:#d8a002;fill-opacity:1;stroke:#000000;stroke-width:0.113926;stroke-miterlimit:2;stroke-dasharray:none;stroke-opacity:1"
             id="path3605-3"
             d="m 646.67486,158.75383 v 2.17177 l 1.09297,1.07869 v -2.1646 z" />
        </g>
      </g>
    </g>
  </g>
</svg>
