<?xml version="1.0" standalone="no"?><!-- Generator: Gravit.io --><svg xmlns="http://www.w3.org/2000/svg" xmlns:xlink="http://www.w3.org/1999/xlink" style="isolation:isolate" viewBox="0 0 450 450" width="450" height="450"><defs><clipPath id="_clipPath_UHC6mOwqhk6B63xKh3FGqFYSPt4YiCDW"><rect width="450" height="450"/></clipPath></defs><g clip-path="url(#_clipPath_UHC6mOwqhk6B63xKh3FGqFYSPt4YiCDW)"><g id="Group"><rect x="164.417" y="111.569" width="118.587" height="59.294" transform="matrix(1,0,0,1,0,0)" fill="rgb(103,121,134)"/><path d=" M 228.867 431.239 L 134.152 431.239 C 106.748 431.239 84.5 408.99 84.5 381.587 L 84.5 205.046 C 84.5 177.643 106.748 155.394 134.152 155.394 L 228.867 155.394 L 228.867 431.239 Z " fill="rgb(199,201,201)"/><path d=" M 228.867 431.239 L 315.848 431.239 C 343.252 431.239 365.5 408.99 365.5 381.587 L 365.5 205.046 C 365.5 177.643 343.252 155.394 315.848 155.394 L 228.867 155.394 L 228.867 431.239 Z " fill="rgb(142,169,181)"/><path d=" M 177.307 271.404 C 177.307 259.31 187.126 249.491 199.22 249.491 C 211.314 249.491 221.133 259.31 221.133 271.404 C 221.133 283.498 211.314 293.317 199.22 293.317 C 187.126 293.317 177.307 283.498 177.307 271.404 Z " fill="rgb(141,160,86)"/><path d=" M 185.041 262.381 C 185.041 258.824 187.929 255.936 191.486 255.936 C 195.043 255.936 197.931 258.824 197.931 262.381 C 197.931 265.938 195.043 268.826 191.486 268.826 C 187.929 268.826 185.041 265.938 185.041 262.381 Z " fill="rgb(166,180,102)"/><path d=" M 228.867 431.239 L 134.152 431.239 C 106.748 431.239 84.5 408.99 84.5 381.587 L 84.5 271.404 L 228.867 271.404 L 228.867 431.239 Z " fill="rgb(52,95,85)"/><path d=" M 228.867 431.239 L 315.848 431.239 C 343.252 431.239 365.5 408.99 365.5 381.587 L 365.5 271.404 L 228.867 271.404 L 228.867 431.239 Z " fill="rgb(28,69,91)"/><path d=" M 99.968 214.688 C 99.968 190.5 119.606 170.862 143.794 170.862 C 167.982 170.862 187.619 190.5 187.619 214.688 C 187.619 238.876 167.982 258.514 143.794 258.514 C 119.606 258.514 99.968 238.876 99.968 214.688 Z " fill="rgb(254,255,252)"/><path d=" M 138.638 289.45 C 138.638 282.335 144.413 276.56 151.528 276.56 C 158.642 276.56 164.417 282.335 164.417 289.45 C 164.417 296.564 158.642 302.339 151.528 302.339 C 144.413 302.339 138.638 296.564 138.638 289.45 Z " fill="rgb(166,180,102)"/><path d=" M 125.748 364.211 C 125.748 357.097 131.523 351.321 138.638 351.321 C 145.752 351.321 151.528 357.097 151.528 364.211 C 151.528 371.325 145.752 377.101 138.638 377.101 C 131.523 377.101 125.748 371.325 125.748 364.211 Z " fill="rgb(166,180,102)"/><path d=" M 272.441 351.321 C 272.441 344.207 278.217 338.431 285.331 338.431 C 292.445 338.431 298.221 344.207 298.221 351.321 C 298.221 358.435 292.445 364.211 285.331 364.211 C 278.217 364.211 272.441 358.435 272.441 351.321 Z " fill="rgb(141,160,86)"/><path d=" M 307 293.317 C 307 286.202 312.776 280.427 319.89 280.427 C 327.004 280.427 332.78 286.202 332.78 293.317 C 332.78 300.431 327.004 306.206 319.89 306.206 C 312.776 306.206 307 300.431 307 293.317 Z " fill="rgb(141,160,86)"/><path d=" M 251.898 315.229 C 251.898 313.148 253.587 311.459 255.668 311.459 C 257.749 311.459 259.439 313.148 259.439 315.229 C 259.439 317.31 257.749 319 255.668 319 C 253.587 319 251.898 317.31 251.898 315.229 Z " fill="rgb(141,160,86)"/><path d=" M 298.221 226.369 C 298.221 222.768 301.145 219.844 304.746 219.844 C 308.347 219.844 311.271 222.768 311.271 226.369 C 311.271 229.971 308.347 232.894 304.746 232.894 C 301.145 232.894 298.221 229.971 298.221 226.369 Z " fill="rgb(141,160,86)"/><path d=" M 313.365 200.589 C 313.365 196.988 316.289 194.064 319.89 194.064 C 323.491 194.064 326.415 196.988 326.415 200.589 C 326.415 204.191 323.491 207.115 319.89 207.115 C 316.289 207.115 313.365 204.191 313.365 200.589 Z " fill="rgb(141,160,86)"/><path d=" M 164.417 371.945 C 164.417 369.099 166.728 366.789 169.573 366.789 C 172.419 366.789 174.729 369.099 174.729 371.945 C 174.729 374.791 172.419 377.101 169.573 377.101 C 166.728 377.101 164.417 374.791 164.417 371.945 Z " fill="rgb(166,180,102)"/><path d=" M 234.023 219.844 C 234.023 216.998 236.333 214.688 239.179 214.688 C 242.025 214.688 244.335 216.998 244.335 219.844 C 244.335 222.69 242.025 225 239.179 225 C 236.333 225 234.023 222.69 234.023 219.844 Z " fill="rgb(166,180,102)"/><path d=" M 205.665 188.908 C 205.665 186.063 207.975 183.752 210.821 183.752 C 213.667 183.752 215.977 186.063 215.977 188.908 C 215.977 191.754 213.667 194.064 210.821 194.064 C 207.975 194.064 205.665 191.754 205.665 188.908 Z " fill="rgb(166,180,102)"/><path d=" M 169.573 18.761 L 283.005 18.761 C 294.387 18.761 300.772 27.55 297.254 38.375 L 270.115 121.881 L 185.041 121.881 L 155.763 38.227 C 152.002 27.484 158.191 18.761 169.573 18.761 Z " fill="rgb(239,133,52)"/><path d=" M 213.116 18.761 L 283.005 18.761 C 294.387 18.761 300.772 27.55 297.254 38.375 L 270.115 121.881 L 246.793 121.881 C 246.872 120.937 246.913 119.983 246.913 119.019 L 246.913 52.559 C 246.913 33.906 231.769 18.761 213.116 18.761 Z " fill="rgb(157,68,38)"/><path d=" M 166.995 127.037 L 162.046 127.037 C 156.241 127.037 151.528 122.324 151.528 116.519 L 151.528 96.307 C 151.528 90.502 156.241 85.789 162.046 85.789 L 166.995 85.789 L 166.995 127.037 Z " fill="rgb(143,169,181)"/><path d=" M 187.619 127.037 L 166.995 127.037 L 166.995 85.789 L 187.619 85.789 L 187.619 127.037 Z " fill="rgb(199,201,201)"/><path d=" M 215.977 127.037 L 187.619 127.037 L 187.619 85.789 L 215.977 85.789 L 215.977 127.037 Z " fill="rgb(254,255,252)"/><path d=" M 239.179 127.037 L 215.977 127.037 L 215.977 85.789 L 239.179 85.789 L 239.179 127.037 Z " fill="rgb(199,202,202)"/><path d=" M 264.959 127.037 L 239.179 127.037 L 239.179 85.789 L 264.959 85.789 L 264.959 127.037 Z " fill="rgb(143,169,181)"/><path d=" M 290.739 126.072 C 289.531 126.735 288.133 127.037 286.665 127.037 L 264.959 127.037 L 264.959 85.789 L 286.665 85.789 C 288.133 85.789 289.531 86.09 290.739 86.753 L 290.739 126.072 Z " fill="rgb(104,119,131)"/><path d=" M 290.739 126.072 C 294.553 124.583 297.183 120.856 297.183 116.519 L 297.183 96.307 C 297.183 91.97 294.553 88.242 290.739 86.753 L 290.739 126.072 Z " fill="rgb(144,171,182)"/><path d=" M 159.261 40.953 C 159.261 39.531 160.417 38.375 161.839 38.375 C 163.262 38.375 164.417 39.531 164.417 40.953 C 164.417 42.376 163.262 43.531 161.839 43.531 C 160.417 43.531 159.261 42.376 159.261 40.953 Z " fill="rgb(157,68,38)"/><path d=" M 166.995 52.559 C 166.995 51.136 168.151 49.981 169.573 49.981 C 170.996 49.981 172.151 51.136 172.151 52.559 C 172.151 53.982 170.996 55.137 169.573 55.137 C 168.151 55.137 166.995 53.982 166.995 52.559 Z " fill="rgb(157,68,38)"/><path d=" M 188.908 57.715 C 188.908 56.292 190.063 55.137 191.486 55.137 C 192.909 55.137 194.064 56.292 194.064 57.715 C 194.064 59.138 192.909 60.293 191.486 60.293 C 190.063 60.293 188.908 59.138 188.908 57.715 Z " fill="rgb(157,68,38)"/><path d=" M 205.665 60.293 C 205.665 58.87 206.82 57.715 208.243 57.715 C 209.666 57.715 210.821 58.87 210.821 60.293 C 210.821 61.716 209.666 62.871 208.243 62.871 C 206.82 62.871 205.665 61.716 205.665 60.293 Z " fill="rgb(157,68,38)"/><path d=" M 226.442 41.963 C 226.442 40.54 227.597 39.385 229.019 39.385 C 230.442 39.385 231.597 40.54 231.597 41.963 C 231.597 43.386 230.442 44.541 229.019 44.541 C 227.597 44.541 226.442 43.386 226.442 41.963 Z " fill="rgb(157,68,38)"/><path d=" M 239.179 55.137 C 239.179 53.714 240.334 52.559 241.757 52.559 C 243.18 52.559 244.335 53.714 244.335 55.137 C 244.335 56.56 243.18 57.715 241.757 57.715 C 240.334 57.715 239.179 56.56 239.179 55.137 Z " fill="rgb(157,68,38)"/><path d=" M 223.711 65.449 C 223.711 64.026 224.866 62.871 226.289 62.871 C 227.712 62.871 228.867 64.026 228.867 65.449 C 228.867 66.872 227.712 68.027 226.289 68.027 C 224.866 68.027 223.711 66.872 223.711 65.449 Z " fill="rgb(157,68,38)"/><path d=" M 255.668 49.981 C 255.668 48.558 256.823 47.403 258.246 47.403 C 259.669 47.403 260.824 48.558 260.824 49.981 C 260.824 51.404 259.669 52.559 258.246 52.559 C 256.823 52.559 255.668 51.404 255.668 49.981 Z " fill="rgb(239,133,52)"/><path d=" M 267.537 66.742 C 267.537 65.319 268.692 64.164 270.115 64.164 C 271.538 64.164 272.693 65.319 272.693 66.742 C 272.693 68.165 271.538 69.32 270.115 69.32 C 268.692 69.32 267.537 68.165 267.537 66.742 Z " fill="rgb(239,133,52)"/><path d=" M 272.693 44.825 C 272.693 43.402 273.848 42.247 275.271 42.247 C 276.693 42.247 277.849 43.402 277.849 44.825 C 277.849 46.248 276.693 47.403 275.271 47.403 C 273.848 47.403 272.693 46.248 272.693 44.825 Z " fill="rgb(239,133,52)"/><path d=" M 280.427 52.559 C 280.427 51.136 281.582 49.981 283.005 49.981 C 284.427 49.981 285.583 51.136 285.583 52.559 C 285.583 53.982 284.427 55.137 283.005 55.137 C 281.582 55.137 280.427 53.982 280.427 52.559 Z " fill="rgb(239,133,52)"/><path d=" M 196.642 69.32 C 196.642 67.897 197.797 66.742 199.22 66.742 C 200.643 66.742 201.798 67.897 201.798 69.32 C 201.798 70.743 200.643 71.898 199.22 71.898 C 197.797 71.898 196.642 70.743 196.642 69.32 Z " fill="rgb(157,68,38)"/></g></g></svg>