<?xml version="1.0" encoding="UTF-8" standalone="no"?>
<!-- Created with Inkscape (http://www.inkscape.org/) -->

<svg
   xmlns:dc="http://purl.org/dc/elements/1.1/"
   xmlns:cc="http://creativecommons.org/ns#"
   xmlns:rdf="http://www.w3.org/1999/02/22-rdf-syntax-ns#"
   xmlns:svg="http://www.w3.org/2000/svg"
   xmlns="http://www.w3.org/2000/svg"
   xmlns:sodipodi="http://sodipodi.sourceforge.net/DTD/sodipodi-0.dtd"
   xmlns:inkscape="http://www.inkscape.org/namespaces/inkscape"
   id="svg4136"
   version="1.1"
   inkscape:version="0.91 r13725"
   width="640"
   height="400"
   viewBox="0 0 640 400"
   sodipodi:docname="らんぷline.svg">
  <metadata
     id="metadata4142">
    <rdf:RDF>
      <cc:Work
         rdf:about="">
        <dc:format>image/svg+xml</dc:format>
        <dc:type
           rdf:resource="http://purl.org/dc/dcmitype/StillImage" />
        <dc:title />
      </cc:Work>
    </rdf:RDF>
  </metadata>
  <defs
     id="defs4140" />
  <sodipodi:namedview
     pagecolor="#ffffff"
     bordercolor="#666666"
     borderopacity="1"
     objecttolerance="10"
     gridtolerance="10"
     guidetolerance="10"
     inkscape:pageopacity="0"
     inkscape:pageshadow="2"
     inkscape:window-width="1920"
     inkscape:window-height="1017"
     id="namedview4138"
     showgrid="false"
     inkscape:zoom="1.0429825"
     inkscape:cx="49.794696"
     inkscape:cy="254.50004"
     inkscape:window-x="-8"
     inkscape:window-y="-8"
     inkscape:window-maximized="1"
     inkscape:current-layer="layer4" />
  <g
     inkscape:groupmode="layer"
     id="layer4"
     inkscape:label="lines"
     style="display:inline">
    <path
       style="opacity:1;fill:none;fill-opacity:1;fill-rule:nonzero;stroke:#000000;stroke-width:4;stroke-linejoin:miter;stroke-miterlimit:4;stroke-dasharray:none;stroke-opacity:1"
       inkscape:transform-center-x="-0.95878886"
       inkscape:transform-center-y="0.95878886"
       d="M 384.8907,60.828442 A 65.614029,34.693085 0 0 1 319.27667,95.521526 65.614029,34.693085 0 0 1 253.66264,60.828442 65.614029,34.693085 0 0 1 319.27667,26.135357 65.614029,34.693085 0 0 1 384.8907,60.828442 Z"
       id="path4163"
       inkscape:connector-curvature="0" />
    <path
       style="opacity:1;fill:none;fill-opacity:1;fill-rule:nonzero;stroke:#000000;stroke-width:4;stroke-linejoin:miter;stroke-miterlimit:4;stroke-dasharray:none;stroke-opacity:1"
       d="m 385.46088,60.252137 c 62.68625,5.16875 106.88368,17.645665 106.88368,32.216338 0,19.198825 -76.7339,34.762555 -171.38997,34.762555 -94.65607,0 -171.38997,-15.56373 -171.38997,-34.762555 0,-14.314339 42.65603,-26.60794 103.59257,-31.936787"
       id="path4167"
       inkscape:connector-curvature="0"
       sodipodi:nodetypes="csssc" />
    <path
       style="opacity:1;fill:none;fill-opacity:1;fill-rule:nonzero;stroke:#000000;stroke-width:4;stroke-linejoin:miter;stroke-miterlimit:4;stroke-dasharray:none;stroke-opacity:1"
       d="m 409.39502,122.43497 c 10.91176,19.65048 17.25201,43.11164 17.25201,68.30935 0,69.2276 -47.85671,125.34766 -106.89096,125.34765 -59.03424,0 -106.89095,-56.12005 -106.89095,-125.34765 0,-25.93259 6.71546,-50.02587 18.21834,-70.01887"
       id="path4169"
       inkscape:connector-curvature="0"
       sodipodi:nodetypes="csssc" />
    <path
       style="opacity:1;fill:none;fill-opacity:1;fill-rule:nonzero;stroke:#000000;stroke-width:4;stroke-linejoin:miter;stroke-miterlimit:4;stroke-dasharray:none;stroke-opacity:1"
       d="m 434.99641,118.12627 c 16.49612,23.38182 26.20145,52.00656 26.20145,82.92503 0,37.73543 -14.45682,72.05416 -38.07183,97.5946 m -204.60468,1.76073 c -24.59326,-25.71302 -39.72763,-60.74576 -39.72763,-99.35533 0,-30.86058 9.66902,-59.43601 26.10886,-82.79364"
       id="path4174"
       inkscape:connector-curvature="0"
       sodipodi:nodetypes="csccsc" />
    <path
       style="opacity:1;fill:none;fill-opacity:1;fill-rule:nonzero;stroke:#000000;stroke-width:4;stroke-linejoin:miter;stroke-miterlimit:4;stroke-dasharray:none;stroke-opacity:1"
       d="m 447.34208,115.37852 c 14.82316,23.78402 23.41157,52.02513 23.41157,82.31704 0,42.36685 -16.8001,80.72207 -43.96096,108.48229 m -212.15049,0.005 c -27.16388,-27.76063 -43.9661,-66.11801 -43.9661,-108.48753 0,-30.10941 8.48524,-58.19267 23.14434,-81.88669"
       id="path4176"
       inkscape:connector-curvature="0"
       sodipodi:nodetypes="csccsc" />
    <path
       style="opacity:1;fill:none;fill-opacity:1;fill-rule:nonzero;stroke:#000000;stroke-width:4;stroke-linejoin:miter;stroke-miterlimit:4;stroke-dasharray:none;stroke-opacity:1"
       d="m 396.03563,277.4342 c 20.93184,10.16515 33.96787,24.48469 33.96787,40.34964 1e-5,30.83745 -49.25213,55.83615 -110.00771,55.83615 -60.75558,0 -110.00772,-24.9987 -110.00771,-55.83615 5.06763,-17.89434 16.50678,-30.8578 31.57418,-39.82402"
       id="path4178"
       inkscape:connector-curvature="0"
       sodipodi:nodetypes="csscc" />
    <path
       style="opacity:1;fill:#ff0000;fill-opacity:1;fill-rule:nonzero;stroke:#000000;stroke-width:3.53103614;stroke-linejoin:miter;stroke-miterlimit:4;stroke-dasharray:none;stroke-opacity:1"
       d="m 347.84951,230.47761 c 10.15633,27.9461 -5.41594,62.9908 -31.81538,61.65973 -11.38375,-0.57398 -45.73874,-24.52146 -30.26459,-61.65973 14.11433,-33.87472 23.04905,-52.89574 31.03998,-68.91926 17.45189,36.89139 27.3522,58.77194 31.03999,68.91926 z"
       id="path4180"
       inkscape:connector-curvature="0"
       sodipodi:nodetypes="ssscs" />
    <path
       style="opacity:1;fill:#ff6600;fill-opacity:1;fill-rule:nonzero;stroke:#000000;stroke-width:1.994807;stroke-linejoin:miter;stroke-miterlimit:4;stroke-dasharray:none;stroke-opacity:1"
       d="m 332.72715,252.94882 c 5.20516,17.4029 -2.77569,39.22631 -16.30551,38.39741 -5.83422,-0.35743 -23.44128,-15.27027 -15.51072,-38.39741 7.23365,-21.09483 11.81273,-32.9398 15.90811,-42.91813 8.94417,22.97339 14.01812,36.59909 15.90812,42.91813 z"
       id="path4180-0"
       inkscape:connector-curvature="0"
       sodipodi:nodetypes="ssscs" />
    <path
       style="opacity:1;fill:#800000;fill-opacity:1;fill-rule:nonzero;stroke:#e61a1a;stroke-width:2.71186447;stroke-linejoin:miter;stroke-miterlimit:4;stroke-dasharray:none;stroke-opacity:1"
       d=""
       id="path4211"
       inkscape:connector-curvature="0" />
    <path
       style="opacity:1;fill:#800000;fill-opacity:1;fill-rule:nonzero;stroke:#000000;stroke-width:2.71186447;stroke-linejoin:miter;stroke-miterlimit:4;stroke-dasharray:none;stroke-opacity:1"
       d="M 303.62815,92.158276 C 285.05546,89.48015 270.33125,83.10853 262.0536,74.167685 250.35293,61.52956 256.15993,46.998154 276.84849,37.145036 c 12.16491,-5.79365 25.35949,-8.41357 42.37288,-8.41357 17.77206,0 30.45718,2.643748 43.76175,9.120532 12.76782,6.215489 19.26778,14.008777 19.28247,23.119235 0.0218,13.505942 -17.44995,25.891059 -43.04422,30.512561 -8.32821,1.503806 -27.34304,1.864133 -35.59322,0.674482 z"
       id="path4222"
       inkscape:connector-curvature="0" />
    <path
       style="opacity:1;fill:#800000;fill-opacity:1;fill-rule:nonzero;stroke:#000000;stroke-width:2.71186447;stroke-linejoin:miter;stroke-miterlimit:4;stroke-dasharray:none;stroke-opacity:1"
       d="m 295.83154,124.54261 c -47.2137,-1.62932 -90.73252,-7.1959 -116.11745,-14.85282 -8.85909,-2.67219 -20.33438,-7.87237 -23.73741,-10.756931 -2.81675,-2.387597 -4.43752,-5.485462 -3.92932,-7.510296 2.69836,-10.751117 35.98884,-21.211879 86.15706,-27.072863 13.16678,-1.53823 12.84469,-1.580956 13.86653,1.839393 4.37106,14.63101 21.33495,25.389247 47.4894,30.117051 9.11208,1.647142 30.35638,1.614046 39.66102,-0.06179 16.45408,-2.963498 29.92245,-8.705302 38.03242,-16.213899 5.01541,-4.643496 8.59355,-10.276812 9.44591,-14.871332 l 0.47407,-2.555391 3.14244,0.351446 c 1.72835,0.193297 6.1933,0.667453 9.92211,1.053681 46.17546,4.782827 81.43034,14.762864 88.28652,24.992358 1.93531,2.887512 1.93524,4.033889 -4.1e-4,6.906208 -6.85011,10.164875 -38.70649,19.376775 -85.23526,24.647455 -31.01941,3.51382 -74.46801,5.12618 -107.45763,3.98773 z"
       id="path4224"
       inkscape:connector-curvature="0" />
    <path
       style="opacity:1;fill:#800000;fill-opacity:1;fill-rule:nonzero;stroke:#000000;stroke-width:2.71186447;stroke-linejoin:miter;stroke-miterlimit:4;stroke-dasharray:none;stroke-opacity:1"
       d="m 302.6112,370.68541 c -23.72329,-2.43097 -42.00739,-7.19743 -58.30508,-15.19948 -18.10471,-8.88929 -29.19359,-20.60965 -31.54771,-33.34426 -0.6552,-3.54432 -0.55468,-4.22434 1.35746,-9.18267 3.93846,-10.21278 10.51397,-19.19522 19.17491,-26.19377 8.73909,-7.06171 7.7558,-7.04465 14.39945,-0.24983 10.26755,10.50119 21.25136,18.2906 33.10966,23.48046 38.10522,16.67699 80.771,7.71118 110.96149,-23.3175 l 5.76035,-5.92028 2.71423,1.54217 c 10.70838,6.08427 20.48541,15.22034 24.00626,22.43245 6.24598,12.79429 3.72091,24.62312 -7.73271,36.22447 -14.05567,14.23695 -37.98726,24.06303 -70.1695,28.81093 -5.05464,0.74572 -38.54702,1.4483 -43.72881,0.91731 z"
       id="path4226"
       inkscape:connector-curvature="0" />
    <path
       style="opacity:1;fill:#800000;fill-opacity:1;fill-rule:nonzero;stroke:#000000;stroke-width:2.71186447;stroke-linejoin:miter;stroke-miterlimit:4;stroke-dasharray:none;stroke-opacity:1"
       d="m 208.40774,295.67494 c -18.03343,-21.73379 -29.72409,-48.17368 -33.94638,-76.77398 -1.42864,-9.67709 -1.64886,-30.89144 -0.41172,-39.66102 2.59009,-18.36006 7.58821,-34.9081 15.08961,-49.95949 2.65025,-5.31767 5.16394,-9.92988 5.58597,-10.24936 0.4269,-0.32316 2.02971,-0.31595 3.61272,0.0163 l 2.84538,0.59713 -2.73389,4.20451 c -4.70347,7.23356 -11.09618,20.94816 -14.32605,30.73436 -5.4441,16.49512 -7.36969,28.80588 -7.35682,47.03379 0.0163,23.12986 4.35831,42.12013 14.41497,63.04596 5.23448,10.89187 12.34263,22.01503 19.15657,29.97708 2.46207,2.87691 4.47649,5.5284 4.47649,5.89219 0,2.0723 -1.77118,0.72946 -6.40685,-4.85744 z"
       id="path4228"
       inkscape:connector-curvature="0" />
    <path
       style="opacity:1;fill:#800000;fill-opacity:1;fill-rule:nonzero;stroke:#000000;stroke-width:2.71186447;stroke-linejoin:miter;stroke-miterlimit:4;stroke-dasharray:none;stroke-opacity:1"
       d="m 427.10222,300.07532 c -0.71191,-1.33023 -0.36073,-2.00037 3.36148,-6.41463 14.12868,-16.75553 25.44342,-40.67831 30.06819,-63.57329 7.15393,-35.41555 0.73871,-73.48351 -17.47015,-103.66813 -2.11681,-3.509 -3.77058,-6.42499 -3.67506,-6.47997 0.0955,-0.055 1.75231,-0.40607 3.68175,-0.78019 l 3.50807,-0.68022 3.02896,5.52809 c 21.91023,39.98783 24.75963,89.29767 7.58348,131.23451 -6.59899,16.1119 -16.15792,31.68336 -26.57738,43.29444 -2.65685,2.9607 -2.73121,2.99333 -3.50934,1.53939 z"
       id="path4230"
       inkscape:connector-curvature="0" />
    <path
       style="opacity:1;fill:#ffff00;fill-opacity:1;fill-rule:nonzero;stroke:#000000;stroke-width:2.71186447;stroke-linejoin:miter;stroke-miterlimit:4;stroke-dasharray:none;stroke-opacity:1"
       d="m 304.00431,312.38315 c -11.52851,-2.08117 -27.08061,-8.56523 -36.81798,-15.35033 -27.68968,-19.29447 -46.37585,-52.02428 -50.98363,-89.30052 -0.91422,-7.3959 -0.91422,-26.53797 0,-33.93387 1.84046,-14.88905 6.14062,-29.91268 12.18797,-42.58162 3.21648,-6.73839 3.41612,-6.99182 5.2231,-6.63054 7.82942,1.56536 38.24142,3.71386 64.30714,4.54307 32.15826,1.02303 74.79912,-0.43244 101.30046,-3.45772 9.18361,-1.04836 8.46338,-1.33721 11.43279,4.58527 16.28802,32.48654 18.00908,75.68245 4.42091,110.959 -3.34442,8.68255 -9.76472,20.74154 -15.01046,28.19354 -6.36851,9.04701 -19.81192,22.32082 -28.33875,27.98124 -11.37477,7.551 -22.83318,12.29681 -35.72226,14.79536 -8.08637,1.56755 -23.86935,1.66477 -31.99929,0.19712 z m 19.47495,-18.88659 c 6.3121,-1.33754 10.88583,-3.94293 16.08109,-9.16048 9.17878,-9.21815 14.38675,-24.56438 13.3276,-39.27225 -0.52257,-7.25661 -1.724,-11.91062 -5.54239,-21.46964 -4.67505,-11.7036 -28.85414,-64.27432 -30.20229,-65.66653 -1.61488,-1.66762 -32.94365,68.33209 -36.01081,80.46108 -2.76573,10.93698 -0.75728,23.91338 5.22564,33.76233 5.92803,9.75859 17.02667,18.85284 26.08361,21.37296 4.0571,1.1289 5.5985,1.12506 11.03755,-0.0275 l 0,-1e-5 z"
       id="path4232"
       inkscape:connector-curvature="0" />
  </g>
</svg>
