<?xml version="1.0" encoding="UTF-8" standalone="no"?>
<svg
   xmlns:dc="http://purl.org/dc/elements/1.1/"
   xmlns:cc="http://creativecommons.org/ns#"
   xmlns:rdf="http://www.w3.org/1999/02/22-rdf-syntax-ns#"
   xmlns:svg="http://www.w3.org/2000/svg"
   xmlns="http://www.w3.org/2000/svg"
   xmlns:xlink="http://www.w3.org/1999/xlink"
   xmlns:sodipodi="http://sodipodi.sourceforge.net/DTD/sodipodi-0.dtd"
   xmlns:inkscape="http://www.inkscape.org/namespaces/inkscape"
   id="svg2"
   inkscape:version="0.91 r13725"
   viewBox="0 0 35.997089 49.895068"
   version="1.1"
   sodipodi:docname="lovepotion.svg"
   width="35.997089"
   height="49.895065">
  <defs
     id="defs20931">
    <radialGradient
       inkscape:collect="always"
       xlink:href="#aa"
       id="radialGradient21475"
       gradientUnits="userSpaceOnUse"
       gradientTransform="matrix(0.17624358,0.66511418,0.67574368,-0.17896992,122.40262,-879.88685)"
       cx="1239"
       cy="-476.32999"
       r="20.443001" />
    <filter
       inkscape:collect="always"
       style="color-interpolation-filters:sRGB"
       id="filter21744"
       x="-0.35426387"
       width="1.7085277"
       y="-0.21345843"
       height="1.426917">
      <feGaussianBlur
         inkscape:collect="always"
         stdDeviation="3.1100041"
         id="feGaussianBlur21746" />
    </filter>
  </defs>
  <sodipodi:namedview
     id="namedview474"
     bordercolor="#666666"
     inkscape:pageshadow="2"
     guidetolerance="10"
     pagecolor="#ffffff"
     gridtolerance="10"
     inkscape:zoom="15.757696"
     inkscape:window-maximized="1"
     objecttolerance="10"
     inkscape:window-height="1035"
     showgrid="false"
     borderopacity="1"
     inkscape:current-layer="g4"
     inkscape:cx="-7.7440138"
     inkscape:cy="18.08333"
     inkscape:window-y="1"
     inkscape:window-x="4"
     inkscape:window-width="1916"
     inkscape:pageopacity="0"
     fit-margin-top="0"
     fit-margin-left="0"
     fit-margin-right="0"
     fit-margin-bottom="0" />
  <g
     id="g4"
     transform="translate(-4.0448287,-2.2292943)">
    <radialGradient
       id="a"
       gradientUnits="userSpaceOnUse"
       cy="-267.84"
       cx="1301.7"
       gradientTransform="matrix(0.329,0.729,0.729,-0.329,-213.29,-1005.7)"
       r="18.042999">
      <stop
         id="stop7"
         stop-color="#DEDAFE"
         stop-opacity=".667"
         offset="0" />
      <stop
         id="stop9"
         stop-color="#67669B"
         stop-opacity=".847"
         offset=".988" />
    </radialGradient>
    <ellipse
       style="opacity:1;fill:#f4d451;fill-opacity:1;stroke:none;stroke-width:2;stroke-linecap:square;stroke-linejoin:bevel;stroke-miterlimit:4;stroke-dasharray:none;stroke-opacity:1;filter:url(#filter21744)"
       id="path21707"
       cx="22.043373"
       cy="27.176825"
       rx="10.534534"
       ry="17.483521" />
    <path
       id="path11"
       d="m 10.83,34.816 c 0.027,-0.586 0.108,-1.214 0.24,-1.88 0.935,0.666 2.308,1.227 4.12,1.68 1.868,0.454 3.908,0.707 6.12,0.76 2.428,0.054 4.628,-0.12 6.602,-0.52 1.92,-0.373 3.306,-0.92 4.16,-1.64 0.132,0.826 0.186,1.56 0.16,2.2 -0.08,2.96 -1.19,5.453 -3.32,7.48 -2.16,2.025 -4.707,3 -7.64,2.92 -2.96,-0.08 -5.455,-1.188 -7.48,-3.32 -2.055,-2.16 -3.04,-4.72 -2.96,-7.68 z"
       style="fill:url(#a);fill-rule:evenodd"
       inkscape:connector-curvature="0" />
    <radialGradient
       id="b"
       gradientUnits="userSpaceOnUse"
       cy="-294.31"
       cx="1304.9"
       gradientTransform="matrix(0.314,0.736,0.701,-0.332,-184.81,-1028.4)"
       r="13.838">
      <stop
         id="stop14"
         stop-color="#BAC0D8"
         stop-opacity=".667"
         offset="0" />
      <stop
         id="stop16"
         stop-color="#8E95CE"
         stop-opacity=".847"
         offset=".988" />
    </radialGradient>
    <path
       id="path18"
       d="m 32.03,32.856 c -0.026,0.746 -1.08,1.347 -3.16,1.8 -2.08,0.48 -4.572,0.68 -7.48,0.6 -2.933,-0.08 -5.426,-0.413 -7.48,-1 -2.053,-0.586 -3.066,-1.253 -3.04,-2 0.027,-0.746 1.08,-1.346 3.16,-1.8 2.107,-0.48 4.613,-0.68 7.52,-0.6 2.934,0.08 5.414,0.414 7.44,1 2.053,0.586 3.067,1.254 3.04,2 z"
       style="fill:url(#b);fill-rule:evenodd"
       inkscape:connector-curvature="0" />
    <path
       id="path20"
       d="m 28.87,34.656 c 2.044,-0.445 3.098,-1.032 3.16,-1.76 -0.054,0.81 -0.906,1.475 -2.56,2 -1.92,0.613 -4.573,0.866 -7.96,0.76 -3.387,-0.08 -6.067,-0.48 -8.04,-1.2 -1.708,-0.62 -2.574,-1.327 -2.6,-2.12 0.04,0.713 1.055,1.354 3.04,1.92 2.053,0.587 4.546,0.92 7.48,1 2.908,0.08 5.4,-0.12 7.48,-0.6 z"
       style="fill:#dbddfe;fill-rule:evenodd"
       inkscape:connector-curvature="0" />
    <radialGradient
       id="c"
       gradientUnits="userSpaceOnUse"
       cy="-473.87"
       cx="1249.7"
       gradientTransform="matrix(0.208,0.772,0.772,-0.208,128.04,-1027.1)"
       r="2.3039999">
      <stop
         id="stop23"
         stop-color="#fff"
         offset="0" />
      <stop
         id="stop25"
         stop-color="#DBDCF4"
         offset=".165" />
      <stop
         id="stop27"
         stop-color="#40407C"
         stop-opacity=".847"
         offset=".859" />
      <stop
         id="stop29"
         stop-color="#7D76AA"
         stop-opacity=".847"
         offset="1" />
    </radialGradient>
    <path
       id="path31"
       d="m 23.99,37.376 c -0.026,0.374 -0.187,0.707 -0.48,1 -0.293,0.267 -0.653,0.387 -1.08,0.36 -0.4,0 -0.746,-0.146 -1.04,-0.44 -0.292,-0.293 -0.426,-0.626 -0.4,-1 0,-0.4 0.148,-0.733 0.44,-1 0.294,-0.266 0.653,-0.386 1.08,-0.36 0.428,0 0.773,0.147 1.04,0.44 0.294,0.267 0.44,0.6 0.44,1 z"
       style="fill:url(#c);fill-rule:evenodd"
       inkscape:connector-curvature="0" />
    <radialGradient
       id="d"
       gradientUnits="userSpaceOnUse"
       cy="-463.64999"
       cx="1244.9"
       gradientTransform="matrix(0.208,0.772,0.772,-0.208,112.33,-1022.5)"
       r="1.346">
      <stop
         id="stop34"
         stop-color="#fff"
         offset="0" />
      <stop
         id="stop36"
         stop-color="#DBDCF4"
         offset=".165" />
      <stop
         id="stop38"
         stop-color="#40407C"
         stop-opacity=".847"
         offset=".859" />
      <stop
         id="stop40"
         stop-color="#7D76AA"
         stop-opacity=".847"
         offset="1" />
    </radialGradient>
    <path
       id="path42"
       d="m 14.07,35.856 c -0.027,0.24 -0.12,0.44 -0.28,0.6 -0.187,0.16 -0.4,0.228 -0.64,0.2 -0.24,0 -0.44,-0.08 -0.6,-0.24 -0.187,-0.186 -0.28,-0.386 -0.28,-0.6 0.027,-0.214 0.12,-0.4 0.28,-0.56 0.187,-0.16 0.4,-0.24 0.64,-0.24 0.24,0 0.453,0.08 0.64,0.24 0.16,0.186 0.24,0.387 0.24,0.6 z"
       style="fill:url(#d);fill-rule:evenodd"
       inkscape:connector-curvature="0" />
    <radialGradient
       id="e"
       gradientUnits="userSpaceOnUse"
       cy="-468.60999"
       cx="1245.7"
       gradientTransform="matrix(0.208,0.772,0.772,-0.208,119.99,-1024.6)"
       r="1.346">
      <stop
         id="stop45"
         stop-color="#fff"
         offset="0" />
      <stop
         id="stop47"
         stop-color="#DBDCF4"
         offset=".165" />
      <stop
         id="stop49"
         stop-color="#40407C"
         stop-opacity=".847"
         offset=".859" />
      <stop
         id="stop51"
         stop-color="#7D76AA"
         stop-opacity=".847"
         offset="1" />
    </radialGradient>
    <path
       id="path53"
       d="m 18.03,35.457 c 0,0.213 -0.093,0.4 -0.28,0.56 -0.16,0.16 -0.373,0.24 -0.64,0.24 -0.56,-0.054 -0.84,-0.347 -0.84,-0.88 0,-0.214 0.093,-0.4 0.28,-0.56 0.16,-0.16 0.374,-0.24 0.64,-0.24 0.56,0.053 0.84,0.346 0.84,0.88 z"
       style="fill:url(#e);fill-rule:evenodd"
       inkscape:connector-curvature="0" />
    <radialGradient
       id="f"
       gradientUnits="userSpaceOnUse"
       cy="-477"
       cx="1245.3"
       gradientTransform="matrix(0.208,0.772,0.772,-0.208,132.94,-1028.1)"
       r="1.346">
      <stop
         id="stop56"
         stop-color="#fff"
         offset="0" />
      <stop
         id="stop58"
         stop-color="#DBDCF4"
         offset=".165" />
      <stop
         id="stop60"
         stop-color="#40407C"
         stop-opacity=".847"
         offset=".859" />
      <stop
         id="stop62"
         stop-color="#7D76AA"
         stop-opacity=".847"
         offset="1" />
    </radialGradient>
    <path
       id="path64"
       d="m 24.43,33.416 c 0,0.214 -0.08,0.4 -0.24,0.56 -0.186,0.16 -0.4,0.24 -0.64,0.24 -0.24,0 -0.452,-0.08 -0.64,-0.24 -0.16,-0.16 -0.24,-0.36 -0.24,-0.6 0,-0.24 0.094,-0.44 0.28,-0.6 0.188,-0.16 0.4,-0.227 0.64,-0.2 0.24,0 0.44,0.08 0.6,0.24 0.16,0.16 0.24,0.36 0.24,0.6 z"
       style="fill:url(#f);fill-rule:evenodd"
       inkscape:connector-curvature="0" />
    <radialGradient
       id="g"
       gradientUnits="userSpaceOnUse"
       cy="-464.95999"
       cx="1251.8"
       gradientTransform="matrix(0.209,0.772,0.772,-0.209,114,-1024.4)"
       r="2.2920001">
      <stop
         id="stop67"
         stop-color="#fff"
         offset="0" />
      <stop
         id="stop69"
         stop-color="#DBDCF4"
         offset=".165" />
      <stop
         id="stop71"
         stop-color="#40407C"
         stop-opacity=".847"
         offset=".859" />
      <stop
         id="stop73"
         stop-color="#7D76AA"
         stop-opacity=".847"
         offset="1" />
    </radialGradient>
    <path
       id="path75"
       d="m 18.79,40.016 c -0.025,0.374 -0.186,0.694 -0.478,0.96 -0.294,0.267 -0.654,0.4 -1.08,0.4 -0.4,-0.026 -0.734,-0.173 -1,-0.44 -0.294,-0.293 -0.44,-0.626 -0.44,-1 0.025,-0.4 0.186,-0.732 0.478,-1 0.294,-0.266 0.64,-0.386 1.04,-0.36 0.427,0 0.773,0.147 1.04,0.44 0.294,0.267 0.44,0.6 0.44,1 z"
       style="fill:url(#g);fill-rule:evenodd"
       inkscape:connector-curvature="0" />
    <radialGradient
       id="h"
       gradientUnits="userSpaceOnUse"
       cy="-476.5"
       cx="1253.9"
       gradientTransform="matrix(0.211,0.772,0.772,-0.211,131.37,-1030.8)"
       r="1.374">
      <stop
         id="stop78"
         stop-color="#fff"
         offset="0" />
      <stop
         id="stop80"
         stop-color="#DBDCF4"
         offset=".165" />
      <stop
         id="stop82"
         stop-color="#40407C"
         stop-opacity=".847"
         offset=".859" />
      <stop
         id="stop84"
         stop-color="#7D76AA"
         stop-opacity=".847"
         offset="1" />
    </radialGradient>
    <path
       id="path86"
       d="m 29.39,37.576 c 0,0.24 -0.092,0.44 -0.28,0.6 -0.186,0.16 -0.398,0.24 -0.64,0.24 -0.586,-0.053 -0.88,-0.346 -0.88,-0.88 0,-0.24 0.094,-0.44 0.28,-0.6 0.186,-0.16 0.4,-0.24 0.64,-0.24 0.588,0.054 0.88,0.347 0.88,0.88 z"
       style="fill:url(#h);fill-rule:evenodd"
       inkscape:connector-curvature="0" />
    <radialGradient
       id="i"
       gradientUnits="userSpaceOnUse"
       cy="-842.16998"
       cx="1011"
       gradientTransform="matrix(-0.053,0.798,1.348,0.106,1203,-687.93)"
       r="1.892">
      <stop
         id="stop89"
         stop-color="#fff"
         offset="0" />
      <stop
         id="stop91"
         stop-color="#DBDCF4"
         offset=".165" />
      <stop
         id="stop93"
         stop-color="#40407C"
         stop-opacity=".847"
         offset=".859" />
      <stop
         id="stop95"
         stop-color="#7D76AA"
         stop-opacity=".847"
         offset="1" />
    </radialGradient>
    <path
       id="path97"
       d="m 14.19,31.497 c -0.534,0 -0.986,-0.12 -1.36,-0.36 0.08,-0.347 0.253,-0.627 0.52,-0.84 0.267,-0.24 0.56,-0.347 0.88,-0.32 0.347,0.026 0.653,0.16 0.92,0.4 0.266,0.24 0.413,0.546 0.44,0.92 -0.4,0.16 -0.866,0.226 -1.4,0.2 z"
       style="fill:url(#i);fill-rule:evenodd"
       inkscape:connector-curvature="0" />
    <radialGradient
       id="j"
       gradientUnits="userSpaceOnUse"
       cy="-855.63"
       cx="1011.4"
       gradientTransform="matrix(-0.054,0.798,1.353,0.108,1235.9,-682.46)"
       r="1.478">
      <stop
         id="stop100"
         stop-color="#fff"
         offset="0" />
      <stop
         id="stop102"
         stop-color="#DBDCF4"
         offset=".165" />
      <stop
         id="stop104"
         stop-color="#40407C"
         stop-opacity=".847"
         offset=".859" />
      <stop
         id="stop106"
         stop-color="#7D76AA"
         stop-opacity=".847"
         offset="1" />
    </radialGradient>
    <path
       id="path108"
       d="m 23.55,33.376 c -0.533,-0.026 -0.893,-0.133 -1.08,-0.32 0.055,-0.266 0.188,-0.48 0.4,-0.64 0.213,-0.186 0.454,-0.267 0.72,-0.24 0.294,0 0.534,0.095 0.72,0.28 0.188,0.214 0.294,0.467 0.32,0.76 -0.32,0.107 -0.68,0.16 -1.08,0.16 z"
       style="fill:url(#j);fill-rule:evenodd"
       inkscape:connector-curvature="0" />
    <radialGradient
       id="k"
       gradientUnits="userSpaceOnUse"
       cy="-851.44"
       cx="1012"
       gradientTransform="matrix(-0.054,0.798,1.347,0.109,1221.7,-682.12)"
       r="2.2049999">
      <stop
         id="stop111"
         stop-color="#fff"
         offset="0" />
      <stop
         id="stop113"
         stop-color="#DBDCF4"
         offset=".165" />
      <stop
         id="stop115"
         stop-color="#40407C"
         stop-opacity=".847"
         offset=".859" />
      <stop
         id="stop117"
         stop-color="#7D76AA"
         stop-opacity=".847"
         offset="1" />
    </radialGradient>
    <path
       id="path119"
       d="m 19.79,34.616 c -0.72,-0.026 -1.252,-0.174 -1.6,-0.44 0.108,-0.4 0.308,-0.733 0.6,-1 0.32,-0.266 0.68,-0.386 1.08,-0.36 0.4,0.026 0.748,0.188 1.042,0.48 0.293,0.294 0.466,0.654 0.52,1.08 -0.322,0.187 -0.868,0.267 -1.64,0.24 z"
       style="fill:url(#k);fill-rule:evenodd"
       inkscape:connector-curvature="0" />
    <radialGradient
       id="l"
       gradientUnits="userSpaceOnUse"
       cy="-869.07001"
       cx="1011.8"
       gradientTransform="matrix(-0.06,0.798,1.716,0.13,1580.9,-663.81)"
       r="1.5549999">
      <stop
         id="stop122"
         stop-color="#fff"
         offset="0" />
      <stop
         id="stop124"
         stop-color="#DBDCF4"
         offset=".165" />
      <stop
         id="stop126"
         stop-color="#40407C"
         stop-opacity=".847"
         offset=".859" />
      <stop
         id="stop128"
         stop-color="#7D76AA"
         stop-opacity=".847"
         offset="1" />
    </radialGradient>
    <path
       id="path130"
       d="m 27.87,31.257 c -0.613,0 -1.08,-0.107 -1.4,-0.32 0.08,-0.294 0.254,-0.52 0.52,-0.68 0.294,-0.187 0.614,-0.268 0.96,-0.24 0.35,0 0.668,0.106 0.962,0.32 0.266,0.213 0.413,0.466 0.44,0.76 -0.348,0.133 -0.84,0.186 -1.482,0.16 z"
       style="fill:url(#l);fill-rule:evenodd"
       inkscape:connector-curvature="0" />
    <radialGradient
       id="m"
       gradientUnits="userSpaceOnUse"
       cy="-815.85999"
       cx="1036.1"
       gradientTransform="matrix(-0.025,0.8,1.565,0.049,1325.5,-768.9)"
       r="16.558001">
      <stop
         id="stop133"
         stop-color="#fff"
         stop-opacity=".259"
         offset="0" />
      <stop
         id="stop135"
         stop-color="#EBEBEB"
         stop-opacity=".369"
         offset=".165" />
      <stop
         id="stop137"
         stop-color="#E0E0E0"
         stop-opacity=".459"
         offset=".859" />
      <stop
         id="stop139"
         stop-color="#EDEDED"
         stop-opacity=".228"
         offset="1" />
    </radialGradient>
    <path
       id="path141"
       d="m 22.91,24.916 c -0.193,-1.193 -0.333,-2.08 -0.42,-2.66 l -0.42,0.32 c -0.48,0.64 -0.333,1.334 0.44,2.082 0.053,0.052 0.187,0.14 0.4,0.258 z m -0.84,-6.14 1.32,0 c 0.934,0.054 1.547,0.28 1.84,0.68 0.32,0.427 0.053,0.947 -0.8,1.56 -0.427,0.32 -0.88,0.587 -1.36,0.8 l -0.44,0.34 c 0.137,0.367 0.337,0.84 0.6,1.42 0.268,0.534 0.308,0.893 0.12,1.08 -0.16,0.16 0.214,0.347 1.12,0.56 1.174,0.294 1.895,0.52 2.16,0.68 1.547,0.988 2.76,2.308 3.64,3.96 0.934,1.76 1.468,2.694 1.6,2.802 0.748,0.586 0.374,1.173 -1.12,1.76 -1.76,0.72 -4.478,1.025 -8.158,0.92 -3.574,-0.08 -6.427,-0.548 -8.56,-1.4 -1.733,-0.693 -2.4,-1.227 -2,-1.6 0.052,-0.054 0.533,-0.84 1.44,-2.36 0.88,-1.413 1.6,-2.293 2.16,-2.64 0.506,-0.294 1.2,-0.294 2.08,0 0.827,0.266 1.4,0.253 1.72,-0.04 0.373,-0.347 0.373,-0.84 0,-1.48 l -0.76,-1.28 c 0,-1.44 0.292,-2.693 0.88,-3.76 0.198,-0.34 0.39,-0.14 0.58,0.6 0.055,-0.04 0.115,-0.08 0.18,-0.12 1.145,-0.614 1.84,-1 2.08,-1.16 0.478,-0.322 0.372,-0.762 -0.322,-1.322 z"
       style="fill:url(#m);fill-rule:evenodd"
       inkscape:connector-curvature="0" />
    <radialGradient
       id="n"
       gradientUnits="userSpaceOnUse"
       cy="-627.32001"
       cx="1172.7"
       gradientTransform="matrix(0.109,0.792,0.726,-0.1,348.53,-960.97)"
       r="17.867001">
      <stop
         id="stop144"
         stop-color="#fff"
         stop-opacity=".478"
         offset="0" />
      <stop
         id="stop146"
         stop-color="#fff"
         stop-opacity=".082"
         offset=".71" />
      <stop
         id="stop148"
         stop-color="#fff"
         stop-opacity=".2"
         offset=".867" />
      <stop
         id="stop150"
         stop-color="#fff"
         stop-opacity=".028"
         offset="1" />
    </radialGradient>
    <path
       id="path152"
       d="m 11.27,30.616 c 1.147,-2.933 3.147,-5.04 6,-6.32 2.855,-1.28 5.71,-1.36 8.56,-0.24 2.882,1.12 4.935,3.12 6.16,6 1.225,2.88 1.254,5.787 0.08,8.72 -1.145,2.935 -3.132,5.04 -5.96,6.32 -2.853,1.28 -5.72,1.36 -8.6,0.24 -2.88,-1.12 -4.933,-3.12 -6.16,-6 -1.2,-2.88 -1.226,-5.786 -0.08,-8.72 z"
       style="fill:url(#n);fill-rule:evenodd"
       inkscape:connector-curvature="0" />
    <radialGradient
       id="o"
       gradientUnits="userSpaceOnUse"
       cy="1328.4"
       cx="-123.38"
       gradientTransform="matrix(0.607,-0.522,-0.522,-0.607,782.11,781.58)"
       r="24.783001">
      <stop
         id="stop155"
         stop-color="#fff"
         stop-opacity=".949"
         offset="0" />
      <stop
         id="stop157"
         stop-color="#8A9B9E"
         offset="1" />
    </radialGradient>
    <path
       id="path159"
       d="m 31.95,38.576 c 1.147,-2.88 1.12,-5.72 -0.08,-8.52 -1.2,-2.826 -3.227,-4.8 -6.08,-5.92 -2.826,-1.094 -5.626,-1.013 -8.4,0.24 -2.8,1.253 -4.76,3.307 -5.88,6.16 -1.145,2.88 -1.12,5.732 0.08,8.56 1.228,2.826 3.254,4.786 6.08,5.88 2.826,1.094 5.628,1.026 8.4,-0.2 2.8,-1.253 4.76,-3.32 5.88,-6.2 z m -20.6,0.76 c -1.2,-2.88 -1.226,-5.786 -0.08,-8.72 1.147,-2.933 3.147,-5.04 6,-6.32 2.855,-1.28 5.71,-1.36 8.56,-0.24 2.882,1.12 4.935,3.12 6.16,6 1.225,2.88 1.254,5.787 0.08,8.72 -1.145,2.935 -3.132,5.04 -5.96,6.32 -2.853,1.28 -5.72,1.36 -8.6,0.24 -2.88,-1.12 -4.933,-3.12 -6.16,-6 z"
       style="fill:url(#o);fill-rule:evenodd"
       inkscape:connector-curvature="0" />
    <radialGradient
       id="p"
       gradientUnits="userSpaceOnUse"
       cy="-549.96002"
       cx="1184.7"
       gradientTransform="matrix(0.161,0.784,0.888,-0.147,318.53,-982.46)"
       r="12.787">
      <stop
         id="stop162"
         stop-color="#fff"
         stop-opacity=".588"
         offset="0" />
      <stop
         id="stop164"
         stop-color="#fff"
         stop-opacity="0"
         offset="1" />
    </radialGradient>
    <path
       id="path166"
       d="m 22.67,28.137 c 0.72,-0.054 1.334,-0.16 1.84,-0.32 1.76,0.614 2.855,1.934 3.28,3.96 0.214,1.014 0.254,1.974 0.12,2.88 l -0.08,1.32 c -0.213,0.986 -0.64,1.813 -1.28,2.48 -2.106,2.133 -6.106,2.213 -12,0.24 -1.76,-0.588 -2.72,-1.987 -2.88,-4.2 -0.132,-1.92 0.28,-3.72 1.242,-5.4 0.453,-0.8 1.106,-1.507 1.96,-2.12 0.666,-0.507 1.133,-0.773 1.4,-0.8 0.133,0 0.24,0.146 0.32,0.44 0.292,0.4 0.986,0.786 2.08,1.16 1.172,0.372 2.505,0.494 3.998,0.36 z"
       style="fill:url(#p);fill-rule:evenodd"
       inkscape:connector-curvature="0" />
    <radialGradient
       id="q"
       gradientUnits="userSpaceOnUse"
       cy="-560.47998"
       cx="1207.9"
       gradientTransform="matrix(0.161,0.784,0.867,-0.178,321.18,-1019.9)"
       r="8.3959999">
      <stop
         id="stop169"
         stop-color="#fff"
         stop-opacity=".62"
         offset="0" />
      <stop
         id="stop171"
         stop-color="#fff"
         stop-opacity=".028"
         offset="1" />
    </radialGradient>
    <path
       id="path173"
       d="m 26.55,26.937 c 0.214,-0.187 0.228,-0.573 0.04,-1.16 l -0.36,-0.84 2,1.28 c 1.468,1.146 2.494,2.413 3.08,3.8 0.588,1.36 0.855,2.84 0.8,4.44 -0.026,0.8 -0.12,1.466 -0.28,2 l -1.84,0.32 c 0.16,-0.188 0.28,-0.508 0.36,-0.96 0.16,-0.96 0.067,-2.175 -0.28,-3.64 -0.346,-1.494 -1.04,-2.814 -2.08,-3.962 l -1.44,-1.278 z"
       style="fill:url(#q);fill-rule:evenodd"
       inkscape:connector-curvature="0" />
    <linearGradient
       id="r"
       y2="709.40002"
       gradientUnits="userSpaceOnUse"
       x2="1123.9"
       gradientTransform="matrix(0.745,0.292,-0.292,0.745,-604,-829.65)"
       y1="709.40002"
       x1="1113.5">
      <stop
         id="stop176"
         stop-color="#fff"
         stop-opacity=".949"
         offset="0" />
      <stop
         id="stop178"
         stop-color="#ABD9DB"
         offset="1" />
    </linearGradient>
    <path
       id="path180"
       d="m 25.07,24.416 c 0.854,0.347 1.267,0.733 1.24,1.16 -0.027,0.427 -0.427,0.787 -1.2,1.08 -0.414,0.138 -0.867,0.244 -1.36,0.32 0.454,-0.08 0.867,-0.187 1.24,-0.32 0.747,-0.293 1.134,-0.64 1.16,-1.04 0.026,-0.427 -0.373,-0.786 -1.2,-1.08 -0.826,-0.32 -1.826,-0.493 -3,-0.52 -1.173,-0.027 -2.186,0.106 -3.04,0.4 -0.854,0.293 -1.293,0.653 -1.32,1.08 -0.026,0.4 0.32,0.746 1.04,1.04 0.36,0.16 0.767,0.286 1.22,0.38 -0.483,-0.09 -0.917,-0.217 -1.3,-0.38 -0.773,-0.32 -1.147,-0.694 -1.12,-1.12 0.026,-0.428 0.48,-0.8 1.36,-1.12 0.88,-0.294 1.933,-0.427 3.16,-0.4 1.227,0.027 2.267,0.2 3.12,0.52 z"
       style="fill:url(#r);fill-rule:evenodd"
       inkscape:connector-curvature="0" />
    <linearGradient
       id="s"
       y2="870.96002"
       gradientUnits="userSpaceOnUse"
       x2="1003.1"
       gradientTransform="matrix(0.78,0.176,-0.176,0.78,-604,-829.65)"
       y1="870.96002"
       x1="993.76001">
      <stop
         id="stop183"
         stop-opacity=".247"
         offset="0" />
      <stop
         id="stop185"
         stop-opacity=".028"
         offset="1" />
    </linearGradient>
    <path
       id="path187"
       d="m 26.15,25.616 c -0.026,0.427 -0.467,0.787 -1.32,1.08 -0.826,0.293 -1.84,0.427 -3.04,0.4 -1.173,-0.026 -2.173,-0.187 -3,-0.48 -0.827,-0.32 -1.227,-0.693 -1.2,-1.12 0.027,-0.426 0.467,-0.786 1.32,-1.08 0.854,-0.293 1.867,-0.426 3.04,-0.4 1.174,0.027 2.174,0.2 3,0.52 0.827,0.294 1.227,0.653 1.2,1.08 z"
       style="fill:url(#s);fill-rule:evenodd"
       inkscape:connector-curvature="0" />
    <linearGradient
       id="t"
       y2="485.34"
       gradientUnits="userSpaceOnUse"
       x2="-1220.5"
       gradientTransform="matrix(-0.205,-0.773,0.773,-0.205,-604,-829.65)"
       y1="485.34"
       x1="-1227.3">
      <stop
         id="stop190"
         stop-color="#fff"
         stop-opacity=".22"
         offset="0" />
      <stop
         id="stop192"
         stop-color="#fff"
         stop-opacity=".028"
         offset="1" />
    </linearGradient>
    <path
       id="path194"
       d="m 18.43,18.816 c -1.04,-0.48 -1.547,-1.053 -1.52,-1.72 0.027,-0.666 0.573,-1.227 1.64,-1.68 1.04,-0.427 2.293,-0.626 3.76,-0.6 1.467,0.026 2.706,0.294 3.72,0.8 1.04,0.48 1.547,1.054 1.52,1.72 -0.025,0.667 -0.56,1.227 -1.6,1.68 -1.066,0.454 -2.333,0.654 -3.8,0.6 -1.466,-0.026 -2.706,-0.293 -3.72,-0.8 z m 0.84,-3.32 c -0.826,0.32 -1.24,0.694 -1.24,1.12 -0.026,0.454 0.374,0.854 1.2,1.2 0.8,0.32 1.786,0.494 2.96,0.52 1.146,0.054 2.146,-0.08 3,-0.4 0.826,-0.292 1.253,-0.665 1.28,-1.12 0.026,-0.452 -0.373,-0.852 -1.2,-1.2 -0.8,-0.318 -1.787,-0.492 -2.96,-0.52 -1.172,-0.026 -2.186,0.107 -3.04,0.4 z"
       style="fill:url(#t);fill-rule:evenodd"
       inkscape:connector-curvature="0" />
    <linearGradient
       id="u"
       y2="1043.6"
       gradientUnits="userSpaceOnUse"
       x2="816.84003"
       gradientTransform="matrix(0.8,0.022,-0.022,0.8,-604,-829.65)"
       y1="1043.6"
       x1="806.03998">
      <stop
         id="stop197"
         stop-color="#fff"
         stop-opacity=".22"
         offset="0" />
      <stop
         id="stop199"
         stop-color="#fff"
         stop-opacity=".028"
         offset="1" />
    </linearGradient>
    <path
       id="path201"
       d="m 24.95,19.257 c 0.8,-0.267 1.307,-0.614 1.52,-1.04 l -0.24,7.08 0.08,0.32 c -0.026,0.48 -0.466,0.88 -1.32,1.2 -0.88,0.346 -1.906,0.506 -3.078,0.48 -1.2,-0.027 -2.213,-0.215 -3.04,-0.562 -0.854,-0.373 -1.267,-0.8 -1.24,-1.28 l 0.08,-0.32 0.24,-7.08 c 0.16,0.427 0.64,0.787 1.44,1.08 0.773,0.294 1.692,0.454 2.76,0.48 1.065,0.028 1.998,-0.092 2.798,-0.358 z"
       style="fill:url(#u);fill-rule:evenodd"
       inkscape:connector-curvature="0" />
    <linearGradient
       id="v"
       y2="1043.7"
       gradientUnits="userSpaceOnUse"
       x2="815.82001"
       gradientTransform="matrix(0.8,0.022,-0.022,0.8,-604,-829.65)"
       y1="1043.7"
       x1="806.53998">
      <stop
         id="stop204"
         stop-color="#fff"
         stop-opacity=".22"
         offset="0" />
      <stop
         id="stop206"
         stop-color="#fff"
         stop-opacity=".028"
         offset="1" />
    </linearGradient>
    <path
       id="path208"
       d="m 22.15,19.537 c 1.547,0.053 2.773,-0.2 3.68,-0.76 l -0.2,5.8 0.08,0.28 c -0.026,0.48 -0.412,0.88 -1.16,1.2 -0.746,0.347 -1.626,0.507 -2.64,0.48 -1.013,-0.027 -1.88,-0.214 -2.6,-0.56 -0.72,-0.348 -1.066,-0.762 -1.04,-1.24 l 0.08,-0.28 0.16,-5.84 c 0.827,0.586 2.04,0.893 3.64,0.92 z"
       style="fill:url(#v);fill-rule:evenodd"
       inkscape:connector-curvature="0" />
    <linearGradient
       id="w"
       y2="1049.1"
       gradientUnits="userSpaceOnUse"
       x2="816.78998"
       gradientTransform="matrix(0.8,0.022,-0.022,0.8,-604,-829.65)"
       y1="1049.1"
       x1="805.96002">
      <stop
         id="stop211"
         stop-color="#fff"
         stop-opacity=".949"
         offset="0" />
      <stop
         id="stop213"
         stop-color="#ABD9DB"
         offset="1" />
    </linearGradient>
    <path
       id="path215"
       d="m 23.23,27.137 c -0.267,0.053 -0.72,0.08 -1.36,0.08 -0.693,0 -1.413,-0.094 -2.16,-0.28 l -0.12,-0.16 c 0.853,0.213 1.708,0.32 2.56,0.32 l 1.08,0.04 z"
       style="fill:url(#w);fill-rule:evenodd"
       inkscape:connector-curvature="0" />
    <linearGradient
       id="x"
       y2="1043"
       gradientUnits="userSpaceOnUse"
       x2="816.88"
       gradientTransform="matrix(0.8,0.022,-0.022,0.8,-604,-829.65)"
       y1="1043"
       x1="806.09998">
      <stop
         id="stop218"
         stop-color="#fff"
         stop-opacity=".949"
         offset="0" />
      <stop
         id="stop220"
         stop-color="#809C89"
         offset="1" />
    </linearGradient>
    <path
       id="path222"
       d="m 17.95,17.977 c 0.027,0.107 0.12,0.24 0.28,0.4 l -0.12,5.56 -0.04,0.12 c 0.027,0.773 0.227,1.386 0.6,1.84 l -0.16,0.12 c -0.24,-0.16 -0.4,-0.227 -0.48,-0.2 -0.106,0.026 -0.106,0.106 0,0.24 l 0.28,0.2 0,0.08 c -0.453,-0.294 -0.68,-0.627 -0.68,-1 l 0.08,-0.28 0.24,-7.08 z"
       style="fill:url(#x);fill-rule:evenodd"
       inkscape:connector-curvature="0" />
    <linearGradient
       id="y"
       y2="1070.8"
       gradientUnits="userSpaceOnUse"
       x2="779.09003"
       gradientTransform="matrix(0.8,-0.006,0.006,0.8,-604,-829.65)"
       y1="1070.8"
       x1="769.23999">
      <stop
         id="stop225"
         stop-color="#fff"
         stop-opacity=".949"
         offset="0" />
      <stop
         id="stop227"
         stop-color="#9AAFB8"
         offset="1" />
    </linearGradient>
    <path
       id="path229"
       d="m 25.51,18.937 c 0.48,-0.213 0.8,-0.48 0.96,-0.8 l -0.24,7.08 0.04,0.28 c 0,0.266 -0.16,0.533 -0.48,0.8 -0.078,-0.134 -0.212,-0.227 -0.398,-0.28 0.16,-0.214 0.28,-0.44 0.36,-0.68 l 0.2,-0.56 0.16,-5.56 c 0.026,-0.214 0,-0.334 -0.08,-0.36 -0.054,0 -0.228,0.066 -0.52,0.2 l 0,-0.12 z"
       style="fill:url(#y);fill-rule:evenodd"
       inkscape:connector-curvature="0" />
    <linearGradient
       id="z"
       y2="-807.71997"
       gradientUnits="userSpaceOnUse"
       x2="1046"
       gradientTransform="matrix(-0.022,0.8,-0.8,-0.022,-604,-829.65)"
       y1="-807.71997"
       x1="1041.6">
      <stop
         id="stop232"
         stop-color="#fff"
         stop-opacity=".42"
         offset="0" />
      <stop
         id="stop234"
         stop-color="#fff"
         stop-opacity=".028"
         offset="1" />
    </linearGradient>
    <path
       id="path236"
       d="m 19.07,18.937 c 0.507,0.213 0.96,0.347 1.36,0.4 l -0.2,7.04 c -0.106,0.027 -0.16,0.08 -0.16,0.16 l 0.12,0.12 0,0.04 -0.52,-0.24 -0.16,0.04 c -0.08,0 -0.054,0.094 0.08,0.28 -0.56,-0.16 -0.986,-0.334 -1.28,-0.52 0,-0.08 0.067,-0.16 0.2,-0.24 l 0.64,0.36 -0.48,-0.48 0.2,-0.04 0.2,-6.92 z"
       style="fill:url(#z);fill-rule:evenodd"
       inkscape:connector-curvature="0" />
    <linearGradient
       id="A"
       y2="1048.9"
       gradientUnits="userSpaceOnUse"
       x2="815.70001"
       gradientTransform="matrix(0.8,0.021,-0.021,0.8,-604,-829.65)"
       y1="1048.9"
       x1="804.95001">
      <stop
         id="stop239"
         stop-color="#fff"
         stop-opacity=".949"
         offset="0" />
      <stop
         id="stop241"
         stop-color="#ABD9DB"
         offset="1" />
    </linearGradient>
    <path
       id="path243"
       d="m 19.15,26.376 -0.64,-0.36 0.16,-0.12 z"
       style="fill:url(#A);fill-rule:evenodd"
       inkscape:connector-curvature="0" />
    <linearGradient
       id="B"
       y2="-807"
       gradientUnits="userSpaceOnUse"
       x2="1046.2"
       gradientTransform="matrix(-0.021,0.8,-0.8,-0.021,-604,-829.65)"
       y1="-807"
       x1="1041.7">
      <stop
         id="stop246"
         stop-color="#fff"
         stop-opacity=".42"
         offset="0" />
      <stop
         id="stop248"
         stop-color="#fff"
         stop-opacity=".028"
         offset="1" />
    </linearGradient>
    <path
       id="path250"
       d="m 19.15,26.376 -0.64,-0.36 0.16,-0.12 z"
       style="fill:url(#B);fill-rule:evenodd"
       inkscape:connector-curvature="0" />
    <linearGradient
       id="C"
       y2="1063.2"
       gradientUnits="userSpaceOnUse"
       x2="786.07001"
       gradientTransform="matrix(0.8,0,0,0.8,-604,-829.65)"
       y1="1067.6"
       x1="785.95001">
      <stop
         id="stop253"
         stop-color="#fff"
         stop-opacity=".137"
         offset="0" />
      <stop
         id="stop255"
         stop-color="#fff"
         stop-opacity=".028"
         offset="1" />
    </linearGradient>
    <path
       id="path257"
       d="m 25.43,19.097 0.08,-0.04 -0.24,6.88 0.12,0.08 c -0.16,0.186 -0.346,0.346 -0.56,0.48 0.48,-0.108 0.707,-0.108 0.68,0 -0.372,0.186 -0.732,0.332 -1.08,0.438 0.16,-0.213 0.214,-0.334 0.16,-0.36 l -0.16,-0.04 -0.56,0.24 0.24,-7.4 0.52,-0.12 c 0.32,0.002 0.587,-0.052 0.8,-0.158 z"
       style="fill:url(#C);fill-rule:evenodd"
       inkscape:connector-curvature="0" />
    <linearGradient
       id="D"
       y2="1040.1"
       gradientUnits="userSpaceOnUse"
       x2="816.07001"
       gradientTransform="matrix(0.8,0.021,-0.021,0.8,-604,-829.65)"
       y1="1040.1"
       x1="804.48999">
      <stop
         id="stop260"
         stop-color="#fff"
         offset="0" />
      <stop
         id="stop262"
         stop-color="#ABD9DB"
         offset="1" />
    </linearGradient>
    <path
       id="path264"
       d="m 25.43,19.097 c -0.213,0.106 -0.48,0.16 -0.8,0.16 l 0.88,-0.32 0,0.12 -0.08,0.04 z"
       style="fill:url(#D);fill-rule:evenodd"
       inkscape:connector-curvature="0" />
    <linearGradient
       id="E"
       y2="1063.2"
       gradientUnits="userSpaceOnUse"
       x2="786.28998"
       gradientTransform="matrix(0.8,0,0,0.8,-604,-829.65)"
       y1="1067.8"
       x1="786.15997">
      <stop
         id="stop267"
         stop-color="#fff"
         stop-opacity=".137"
         offset="0" />
      <stop
         id="stop269"
         stop-color="#fff"
         stop-opacity=".028"
         offset="1" />
    </linearGradient>
    <path
       id="path271"
       d="m 25.43,19.097 c -0.213,0.106 -0.48,0.16 -0.8,0.16 l 0.88,-0.32 0,0.12 -0.08,0.04 z"
       style="fill:url(#E);fill-rule:evenodd"
       inkscape:connector-curvature="0" />
    <linearGradient
       id="F"
       y2="1048.9"
       gradientUnits="userSpaceOnUse"
       x2="816.13"
       gradientTransform="matrix(0.8,0.021,-0.021,0.8,-604,-829.65)"
       y1="1048.9"
       x1="804.59998">
      <stop
         id="stop274"
         stop-color="#fff"
         offset="0" />
      <stop
         id="stop276"
         stop-color="#ABD9DB"
         offset="1" />
    </linearGradient>
    <path
       id="path278"
       d="m 25.39,26.017 c 0.188,0.054 0.32,0.146 0.4,0.28 l -0.28,0.2 c 0.027,-0.107 -0.2,-0.107 -0.68,0 0.214,-0.134 0.4,-0.294 0.56,-0.48 z"
       style="fill:url(#F);fill-rule:evenodd"
       inkscape:connector-curvature="0" />
    <linearGradient
       id="G"
       y2="1063.1"
       gradientUnits="userSpaceOnUse"
       x2="786.84003"
       gradientTransform="matrix(0.8,0,0,0.8,-604,-829.65)"
       y1="1067.6"
       x1="786.71997">
      <stop
         id="stop281"
         stop-color="#fff"
         stop-opacity=".137"
         offset="0" />
      <stop
         id="stop283"
         stop-color="#fff"
         stop-opacity=".028"
         offset="1" />
    </linearGradient>
    <path
       id="path285"
       d="m 25.39,26.017 c 0.188,0.054 0.32,0.146 0.4,0.28 l -0.28,0.2 c 0.027,-0.107 -0.2,-0.107 -0.68,0 0.214,-0.134 0.4,-0.294 0.56,-0.48 z"
       style="fill:url(#G);fill-rule:evenodd"
       inkscape:connector-curvature="0" />
    <path
       id="path287"
       d="m 20.07,26.536 c 0,-0.08 0.054,-0.133 0.16,-0.16 0.187,-0.053 0.387,-0.013 0.6,0.12 0.427,0.214 0.56,0.307 0.4,0.28 -0.506,0 -0.854,-0.04 -1.04,-0.12 l -0.12,-0.12 z m 1.6,0.36 c -0.106,-0.026 -0.133,-0.08 -0.08,-0.16 0.08,-0.053 0.174,-0.08 0.28,-0.08 0.134,0.027 0.16,0.094 0.08,0.2 -0.08,0.08 -0.173,0.094 -0.28,0.04 z"
       style="fill:#ffffff;fill-rule:evenodd"
       inkscape:connector-curvature="0" />
    <linearGradient
       id="H"
       y2="1037.1"
       gradientUnits="userSpaceOnUse"
       x2="815.59003"
       gradientTransform="matrix(0.8,0.021,-0.021,0.8,-604,-829.65)"
       y1="1037.1"
       x1="805.01001">
      <stop
         id="stop290"
         stop-opacity=".086"
         offset="0" />
      <stop
         id="stop292"
         stop-color="#BCD9DB"
         stop-opacity=".42"
         offset="1" />
    </linearGradient>
    <path
       id="path294"
       d="m 26.47,16.816 c -0.026,0.454 -0.453,0.827 -1.28,1.12 -0.853,0.32 -1.853,0.453 -3,0.4 -1.173,-0.027 -2.16,-0.2 -2.96,-0.52 -0.826,-0.347 -1.226,-0.747 -1.2,-1.2 0,-0.427 0.415,-0.8 1.24,-1.12 0.855,-0.294 1.87,-0.427 3.042,-0.4 1.172,0.027 2.16,0.2 2.96,0.52 0.826,0.347 1.225,0.747 1.198,1.2 z"
       style="fill:url(#H);fill-rule:evenodd"
       inkscape:connector-curvature="0" />
    <linearGradient
       id="I"
       y2="485.34"
       gradientUnits="userSpaceOnUse"
       x2="-1220.5"
       gradientTransform="matrix(-0.205,-0.773,0.773,-0.205,-604,-829.65)"
       y1="485.34"
       x1="-1227.3">
      <stop
         id="stop297"
         stop-color="#fff"
         stop-opacity=".949"
         offset="0" />
      <stop
         id="stop299"
         stop-color="#9AAFB8"
         offset="1" />
    </linearGradient>
    <path
       id="path301"
       d="m 18.43,18.816 c -1.04,-0.48 -1.547,-1.053 -1.52,-1.72 0.027,-0.666 0.573,-1.227 1.64,-1.68 1.04,-0.427 2.293,-0.626 3.76,-0.6 1.467,0.026 2.706,0.294 3.72,0.8 1.04,0.48 1.547,1.054 1.52,1.72 -0.025,0.667 -0.56,1.227 -1.6,1.68 -1.066,0.454 -2.333,0.654 -3.8,0.6 -1.466,-0.026 -2.706,-0.293 -3.72,-0.8 z m 0.28,-3.32 c -0.986,0.374 -1.493,0.854 -1.52,1.44 -0.026,0.587 0.453,1.094 1.44,1.52 0.96,0.427 2.133,0.654 3.52,0.68 1.387,0.054 2.573,-0.12 3.56,-0.52 0.96,-0.373 1.454,-0.853 1.48,-1.44 0.026,-0.586 -0.44,-1.092 -1.4,-1.52 -0.96,-0.426 -2.133,-0.666 -3.52,-0.72 -1.387,-0.026 -2.572,0.16 -3.56,0.56 z"
       style="fill:url(#I);fill-rule:evenodd"
       inkscape:connector-curvature="0" />
    <linearGradient
       id="J"
       y2="698.84998"
       gradientUnits="userSpaceOnUse"
       x2="1120.2"
       gradientTransform="matrix(0.745,0.292,-0.292,0.745,-604,-829.65)"
       y1="698.84998"
       x1="1110.2">
      <stop
         id="stop304"
         stop-color="#fff"
         stop-opacity=".949"
         offset="0" />
      <stop
         id="stop306"
         stop-color="#ABD9DB"
         offset="1" />
    </linearGradient>
    <path
       id="path308"
       d="m 19.23,17.816 c -0.827,-0.346 -1.227,-0.746 -1.2,-1.2 0,-0.426 0.414,-0.8 1.24,-1.12 0.502,-0.172 1.056,-0.285 1.66,-0.34 -0.547,0.06 -1.047,0.174 -1.5,0.34 -0.773,0.294 -1.173,0.654 -1.2,1.08 -0.027,0.427 0.36,0.814 1.16,1.16 0.773,0.32 1.72,0.495 2.84,0.52 1.094,0.028 2.04,-0.106 2.84,-0.4 0.8,-0.294 1.213,-0.653 1.24,-1.08 0,-0.426 -0.373,-0.8 -1.12,-1.12 -0.54,-0.24 -1.18,-0.406 -1.92,-0.5 0.813,0.088 1.508,0.255 2.08,0.5 0.773,0.347 1.146,0.733 1.12,1.16 -0.027,0.454 -0.454,0.827 -1.28,1.12 -0.854,0.32 -1.854,0.453 -3,0.4 -1.173,-0.026 -2.16,-0.2 -2.96,-0.52 z"
       style="fill:url(#J);fill-rule:evenodd"
       inkscape:connector-curvature="0" />
    <linearGradient
       id="K"
       y2="1037.1"
       gradientUnits="userSpaceOnUse"
       x2="815.59003"
       gradientTransform="matrix(0.8,0.021,-0.021,0.8,-604,-829.65)"
       y1="1037.1"
       x1="805.01001">
      <stop
         id="stop311"
         stop-color="#fff"
         stop-opacity=".949"
         offset="0" />
      <stop
         id="stop313"
         stop-color="#9AAFB8"
         offset="1" />
    </linearGradient>
    <path
       id="path315"
       d="m 19.23,17.816 c -0.827,-0.346 -1.227,-0.746 -1.2,-1.2 0,-0.426 0.414,-0.8 1.24,-1.12 0.51,-0.174 1.076,-0.288 1.7,-0.34 -0.547,0.06 -1.047,0.174 -1.5,0.34 -0.772,0.267 -1.173,0.614 -1.2,1.04 0,0.428 0.374,0.8 1.12,1.122 0.774,0.293 1.708,0.453 2.8,0.48 1.092,0.027 2.04,-0.107 2.84,-0.4 0.774,-0.268 1.175,-0.614 1.2,-1.04 0,-0.427 -0.386,-0.788 -1.16,-1.082 -0.466,-0.2 -1,-0.346 -1.6,-0.44 0.68,0.086 1.28,0.233 1.8,0.44 0.828,0.347 1.228,0.747 1.2,1.2 -0.026,0.454 -0.453,0.827 -1.28,1.12 -0.853,0.32 -1.853,0.453 -3,0.4 -1.173,-0.026 -2.16,-0.2 -2.96,-0.52 z"
       style="fill:url(#K);fill-rule:evenodd"
       inkscape:connector-curvature="0" />
    <path
       id="path317"
       d="m 21.23,9.337 c 1.493,-0.16 2.88,-0.066 4.16,0.28 0.64,0.187 1.134,0.373 1.48,0.56 l -0.56,6.64 c -0.08,0.214 -0.32,0.427 -0.72,0.64 -0.774,0.428 -1.895,0.627 -3.36,0.6 -1.52,-0.026 -2.68,-0.24 -3.48,-0.64 l -0.72,-0.64 c -0.134,-1.92 -0.254,-3.146 -0.36,-3.68 l -0.36,-2.72 0.76,-0.4 c 0.8,-0.293 1.854,-0.507 3.16,-0.64 z"
       style="fill:#a78a56;fill-rule:evenodd"
       inkscape:connector-curvature="0" />
    <path
       id="path319"
       d="m 22.43,11.457 1.12,-0.04 c 0.08,-0.027 0.147,-0.067 0.2,-0.12 0.027,-0.108 0.054,-0.174 0.08,-0.2 0,-0.108 0.054,-0.148 0.16,-0.122 0,0.24 0.08,0.4 0.24,0.48 0.026,0.027 0.2,0.08 0.52,0.16 0.188,0.054 0.267,0.16 0.24,0.32 0,0.32 -0.293,0.547 -0.88,0.68 -0.373,0.134 -0.813,0.227 -1.32,0.28 -0.56,0.027 -1,0.04 -1.32,0.04 -1.253,0 -2.172,-0.093 -2.76,-0.278 l -1.2,-0.6 -0.2,-1.68 c 0.16,0 0.307,0.065 0.44,0.2 0.187,0.133 0.48,0.24 0.88,0.32 l 0.88,0.318 0.88,0.16 c 0.214,0.056 0.893,0.082 2.04,0.082 z"
       style="fill:#cba769;fill-rule:evenodd"
       inkscape:connector-curvature="0" />
    <linearGradient
       id="L"
       y2="-1057.1"
       gradientUnits="userSpaceOnUse"
       x2="-769.15997"
       gradientTransform="matrix(-0.8,0.008,-0.008,-0.8,-604,-829.65)"
       y1="-1057.1"
       x1="-771.65997">
      <stop
         id="stop322"
         stop-color="#C1A064"
         offset="0" />
      <stop
         id="stop324"
         stop-color="#706341"
         offset="1" />
    </linearGradient>
    <path
       id="path326"
       d="m 21.03,9.777 c 0.134,0 0.2,0.054 0.2,0.16 -0.026,0.08 -0.08,0.16 -0.16,0.24 -0.08,0.054 -0.267,0.08 -0.56,0.08 l -1.24,0 c -0.026,-0.32 0.414,-0.48 1.32,-0.48 l 0.44,0 z"
       style="fill:url(#L);fill-rule:evenodd"
       inkscape:connector-curvature="0" />
    <linearGradient
       id="M"
       y2="-1061.3"
       gradientUnits="userSpaceOnUse"
       x2="-766.71002"
       gradientTransform="matrix(-0.8,0.011,-0.011,-0.8,-604,-829.65)"
       y1="-1061.3"
       x1="-768.42999">
      <stop
         id="stop329"
         stop-color="#C1A064"
         offset="0" />
      <stop
         id="stop331"
         stop-color="#706341"
         offset="1" />
    </linearGradient>
    <path
       id="path333"
       d="m 21.15,10.697 c -0.053,-0.16 0.04,-0.24 0.28,-0.24 0.133,-0.026 0.307,-0.026 0.52,0 l 0.52,0.04 c -0.08,0.133 -0.16,0.227 -0.24,0.28 l -0.4,0 -0.68,-0.08 z"
       style="fill:url(#M);fill-rule:evenodd"
       inkscape:connector-curvature="0" />
    <linearGradient
       id="N"
       y2="-1049.3"
       gradientUnits="userSpaceOnUse"
       x2="-783.51001"
       gradientTransform="matrix(-0.8,0,0,-0.8,-604,-829.65)"
       y1="-1049.3"
       x1="-784.09003">
      <stop
         id="stop336"
         stop-color="#C1A064"
         offset="0" />
      <stop
         id="stop338"
         stop-color="#706341"
         offset="1" />
    </linearGradient>
    <path
       id="path340"
       d="m 22.79,9.697 0.16,0 c 0.106,0 0.2,0.04 0.28,0.12 -0.16,0.054 -0.307,0.054 -0.44,0 -0.026,-0.027 -0.026,-0.067 0,-0.12 z"
       style="fill:url(#N);fill-rule:evenodd"
       inkscape:connector-curvature="0" />
    <linearGradient
       id="O"
       y2="-1056.6"
       gradientUnits="userSpaceOnUse"
       x2="-776.03998"
       gradientTransform="matrix(-0.8,0.008,-0.008,-0.8,-604,-829.65)"
       y1="-1056.6"
       x1="-779.78998">
      <stop
         id="stop343"
         stop-color="#C1A064"
         offset="0" />
      <stop
         id="stop345"
         stop-color="#706341"
         offset="1" />
    </linearGradient>
    <path
       id="path347"
       d="M 24.79,9.737 C 24.63,9.657 24.603,9.564 24.71,9.457 l 1.36,0.36 -0.16,0 c -0.667,0 -1.04,-0.027 -1.12,-0.08 z"
       style="fill:url(#O);fill-rule:evenodd"
       inkscape:connector-curvature="0" />
    <linearGradient
       id="P"
       y2="-1049.7"
       gradientUnits="userSpaceOnUse"
       x2="-787.39001"
       gradientTransform="matrix(-0.8,0,0,-0.8,-604,-829.65)"
       y1="-1049.7"
       x1="-788.21002">
      <stop
         id="stop350"
         stop-color="#C1A064"
         offset="0" />
      <stop
         id="stop352"
         stop-color="#706341"
         offset="1" />
    </linearGradient>
    <path
       id="path354"
       d="m 25.87,10.177 c -0.026,0 -0.026,-0.04 0,-0.12 l 0.6,0 c -0.053,0.16 -0.253,0.2 -0.6,0.12 z"
       style="fill:url(#P);fill-rule:evenodd"
       inkscape:connector-curvature="0" />
    <path
       id="path356"
       d="m 21.59,11.697 3.36,0 c -0.133,-0.107 -0.253,-0.213 -0.36,-0.32 -0.213,-0.24 -0.266,-0.4 -0.16,-0.48 0.107,-0.08 0.374,-0.08 0.8,0 0.24,0.054 0.454,0.107 0.64,0.16 0.48,-0.133 0.8,-0.426 0.96,-0.88 l 0.04,0 -0.56,6.64 c -0.08,0.215 -0.32,0.428 -0.72,0.642 -0.772,0.42 -1.893,0.62 -3.36,0.6 -1.52,-0.03 -2.68,-0.25 -3.48,-0.65 l -0.72,-0.64 c -0.132,-1.92 -0.252,-3.147 -0.36,-3.68 l -0.358,-2.72 0.88,0.68 c 0.878,0.45 2.012,0.665 3.4,0.64 z"
       style="fill:#a58d54;fill-rule:evenodd"
       inkscape:connector-curvature="0" />
    <path
       id="path358"
       d="m 22.59,16.616 c -0.053,-0.106 -0.133,-0.16 -0.24,-0.16 l -0.2,-0.2 c -0.212,0.268 -0.238,0.468 -0.08,0.6 0.158,0.132 0.333,0.054 0.52,-0.24 z m 0.72,-1.92 c -0.026,0.054 -0.04,0.254 -0.04,0.6 l 0.32,0 c 0,-0.266 -0.04,-0.426 -0.12,-0.48 l -0.16,-0.12 z m 0,-2.2 c -0.186,0.027 -0.253,0.2 -0.2,0.52 0.053,0.32 0.174,0.495 0.36,0.52 0.188,0.028 0.28,-0.08 0.28,-0.32 0.054,-0.345 -0.026,-0.585 -0.24,-0.718 l -0.2,0 z m 2.48,-1.44 0.16,0 c 0,0.587 -0.106,0.947 -0.32,1.08 -0.16,0.107 -0.387,0.148 -0.68,0.12 -0.347,-0.053 -0.507,-0.172 -0.48,-0.36 l -0.92,-0.12 -1.32,0 c 0.774,0.108 1.36,0.294 1.76,0.56 0.135,0.08 0.28,0.24 0.44,0.48 0.214,0.16 0.334,0.254 0.36,0.28 0.107,0.106 0.16,0.253 0.16,0.44 0,0.16 -0.12,0.374 -0.36,0.64 -0.213,0.266 -0.32,0.466 -0.32,0.6 0,0.054 0.04,0.16 0.12,0.32 0,0.08 -0.065,0.24 -0.2,0.48 -0.133,0.16 -0.212,0.266 -0.24,0.32 l 0.08,0.4 c 0,0.267 -0.08,0.427 -0.24,0.48 -0.132,0.026 -0.265,0.013 -0.398,-0.04 -0.16,-0.08 -0.28,-0.135 -0.36,-0.16 0,0.053 -0.08,0.146 -0.24,0.28 l -0.2,0.04 -0.12,0.16 c -0.133,0.08 -0.346,0.12 -0.64,0.12 -0.213,0.186 -0.427,0.28 -0.64,0.28 -0.053,0 -0.48,-0.082 -1.28,-0.242 -0.107,-0.026 -0.173,-0.04 -0.2,-0.04 -0.027,0 -0.067,-0.053 -0.12,-0.16 -0.027,-0.133 -0.08,-0.24 -0.16,-0.32 -0.16,-0.08 -0.28,-0.173 -0.36,-0.28 -0.08,0.08 -0.214,0.107 -0.4,0.08 -0.188,0 -0.32,-0.04 -0.4,-0.12 l -0.28,-0.28 -0.08,-1 c 0.053,0.134 0.133,0.24 0.24,0.32 0.213,0.267 0.413,0.36 0.6,0.28 0.106,-0.133 0.2,-0.227 0.28,-0.28 0.24,0.4 0.56,0.64 0.96,0.72 0.107,0.026 0.293,0.053 0.56,0.08 0.188,0.054 0.28,0.173 0.28,0.36 0.187,0.054 0.334,0.026 0.44,-0.08 0.054,-0.054 0.094,-0.12 0.12,-0.2 0.026,-0.134 0.053,-0.213 0.08,-0.24 0.133,0.16 0.333,0.173 0.6,0.04 0.054,-0.4 0.2,-0.613 0.44,-0.64 0.08,-0.026 0.187,-0.054 0.32,-0.08 0.08,-0.027 0.133,-0.12 0.16,-0.28 0.08,-0.214 0.065,-0.467 -0.04,-0.76 -0.027,-0.107 -0.095,-0.2 -0.2,-0.28 -0.134,-0.082 -0.214,-0.042 -0.24,0.12 -0.213,-0.028 -0.373,-0.188 -0.48,-0.48 l -0.28,-0.72 c -0.267,-0.375 -0.667,-0.68 -1.2,-0.92 -0.16,-0.054 -0.386,-0.187 -0.68,-0.4 l -0.08,-0.08 c 0.667,0.106 1.266,0.146 1.8,0.12 l 3.24,0 c 0.053,0.133 0.133,0.24 0.24,0.32 0.105,0.106 0.227,0.145 0.36,0.12 0.292,-0.027 0.412,-0.32 0.358,-0.88 l 0,-0.197 z"
       style="fill:#8b7347;fill-rule:evenodd"
       inkscape:connector-curvature="0" />
    <path
       id="path360"
       d="m 25.39,11.017 c -0.5,-0.21 -0.834,-0.238 -1,-0.08 l 0.04,-0.04 c 0.16,-0.134 0.614,-0.08 1.36,0.16 l 0,0.2 c 0.054,0.56 -0.066,0.853 -0.36,0.88 -0.132,0.025 -0.253,-0.014 -0.36,-0.12 0.214,0.053 0.388,-0.015 0.522,-0.2 0.08,-0.134 0.106,-0.294 0.08,-0.48 0,-0.134 -0.014,-0.213 -0.04,-0.24 -0.028,0 -0.108,-0.027 -0.24,-0.08 z"
       style="fill:#615031;fill-rule:evenodd"
       inkscape:connector-curvature="0" />
    <path
       id="path362"
       d="m 25.07,14.216 -0.32,0 c -0.16,0.054 -0.24,0.187 -0.24,0.4 0,0.214 0.067,0.347 0.2,0.4 0.24,0.08 0.388,0.014 0.44,-0.2 0.054,-0.186 0.027,-0.385 -0.08,-0.6 z m 0.88,-3.16 0.12,-0.08 c 0.027,0.134 0.067,0.32 0.12,0.56 0.026,0.16 -0.014,0.414 -0.12,0.76 -0.026,0.106 -0.04,0.44 -0.04,1 0,0.267 -0.106,0.506 -0.32,0.72 -0.106,0.16 -0.12,0.454 -0.04,0.88 0,0.16 0.04,0.4 0.12,0.72 -0.08,0.453 -0.187,0.72 -0.32,0.8 -0.026,0.025 -0.133,0.066 -0.32,0.12 -0.105,0.052 -0.172,0.146 -0.2,0.28 -0.212,0 -0.438,0.093 -0.68,0.28 l -0.64,0.44 c -0.187,0.08 -0.76,0.12 -1.72,0.12 -0.586,0 -1.027,-0.027 -1.32,-0.08 l -0.6,-0.04 c -0.32,-0.188 -0.56,-0.294 -0.72,-0.32 l -0.64,-0.16 c -0.213,-0.134 -0.4,-0.214 -0.56,-0.24 l -0.04,-0.04 -0.04,-0.68 0.28,0.28 c 0.08,0.08 0.212,0.12 0.4,0.12 0.186,0.026 0.32,0 0.4,-0.08 0.08,0.106 0.2,0.2 0.36,0.28 0.08,0.08 0.133,0.186 0.16,0.32 0.052,0.106 0.092,0.16 0.12,0.16 0.026,0 0.093,0.012 0.2,0.04 0.8,0.16 1.227,0.24 1.28,0.24 0.213,0 0.427,-0.094 0.64,-0.28 0.294,0 0.507,-0.04 0.64,-0.12 l 0.12,-0.16 0.2,-0.04 c 0.16,-0.133 0.24,-0.227 0.24,-0.28 0.08,0.026 0.2,0.08 0.36,0.16 0.134,0.053 0.267,0.066 0.4,0.04 0.16,-0.053 0.24,-0.213 0.24,-0.48 l -0.08,-0.4 c 0.026,-0.053 0.105,-0.16 0.24,-0.32 0.133,-0.24 0.2,-0.4 0.2,-0.48 -0.08,-0.16 -0.12,-0.265 -0.12,-0.32 0,-0.132 0.105,-0.332 0.32,-0.6 0.238,-0.266 0.358,-0.48 0.358,-0.64 0,-0.186 -0.053,-0.332 -0.16,-0.44 -0.026,-0.025 -0.146,-0.12 -0.36,-0.28 -0.16,-0.24 -0.306,-0.4 -0.44,-0.478 -0.398,-0.267 -0.985,-0.453 -1.76,-0.56 l 1.32,0 0.92,0.12 c -0.026,0.187 0.134,0.306 0.48,0.36 0.293,0.027 0.52,-0.014 0.68,-0.12 0.216,-0.135 0.322,-0.495 0.322,-1.08 z"
       style="fill:#735e39;fill-rule:evenodd"
       inkscape:connector-curvature="0" />
    <path
       id="path364"
       d="m 26.19,11.537 c -0.053,-0.24 -0.093,-0.426 -0.12,-0.56 0.373,-0.187 0.627,-0.453 0.76,-0.8 l 0.04,0 -0.32,2.88 c -0.186,0 -0.252,0.16 -0.2,0.48 0,0.212 0.054,0.332 0.16,0.36 l -0.2,2.918 c -0.08,0.214 -0.32,0.427 -0.72,0.64 -0.772,0.428 -1.893,0.627 -3.36,0.6 -1.44,-0.026 -2.546,-0.213 -3.32,-0.56 -0.453,-0.212 -0.732,-0.44 -0.84,-0.68 0.16,0.026 0.348,0.107 0.56,0.24 l 0.64,0.16 c 0.16,0.027 0.4,0.134 0.72,0.32 l 0.6,0.04 c 0.294,0.054 0.735,0.08 1.322,0.08 0.96,0 1.532,-0.04 1.72,-0.12 l 0.64,-0.44 c 0.24,-0.187 0.467,-0.28 0.68,-0.28 0.027,-0.133 0.094,-0.227 0.2,-0.28 0.187,-0.053 0.293,-0.094 0.32,-0.12 0.133,-0.08 0.24,-0.346 0.32,-0.8 -0.08,-0.32 -0.12,-0.56 -0.12,-0.72 -0.08,-0.426 -0.067,-0.72 0.04,-0.88 0.213,-0.212 0.32,-0.452 0.32,-0.72 0,-0.56 0.013,-0.893 0.04,-1 0.105,-0.345 0.145,-0.598 0.118,-0.758 z"
       style="fill:#4d4027;fill-rule:evenodd"
       inkscape:connector-curvature="0" />
    <linearGradient
       id="Q"
       y2="641.04999"
       gradientUnits="userSpaceOnUse"
       x2="-1141"
       gradientTransform="matrix(-0.1,-0.794,0.794,-0.1,-604,-829.65)"
       y1="641.04999"
       x1="-1143.1">
      <stop
         id="stop367"
         stop-color="#C1A064"
         offset="0" />
      <stop
         id="stop369"
         stop-color="#706341"
         offset="1" />
    </linearGradient>
    <path
       id="path371"
       d="m 18.87,13.657 c -0.32,0.053 -0.533,-0.187 -0.64,-0.72 -0.027,-0.214 0,-0.414 0.08,-0.6 0.08,-0.188 0.188,-0.295 0.32,-0.32 0.134,-0.028 0.267,0.04 0.4,0.2 0.134,0.133 0.213,0.306 0.24,0.52 0.054,0.24 0.027,0.453 -0.08,0.64 -0.08,0.16 -0.186,0.253 -0.32,0.28 z"
       style="fill:url(#Q);fill-rule:evenodd"
       inkscape:connector-curvature="0" />
    <linearGradient
       id="R"
       y2="644.10999"
       gradientUnits="userSpaceOnUse"
       x2="-1142.1"
       gradientTransform="matrix(-0.099,-0.794,0.794,-0.099,-604,-829.65)"
       y1="644.10999"
       x1="-1144.5">
      <stop
         id="stop374"
         stop-color="#C1A064"
         offset="0" />
      <stop
         id="stop376"
         stop-color="#706341"
         offset="1" />
    </linearGradient>
    <path
       id="path378"
       d="m 21.23,14.857 c -0.533,0.213 -0.947,0.027 -1.24,-0.56 -0.292,-0.587 -0.187,-1.026 0.32,-1.32 l 0.24,0 c 0.293,0 0.493,0.026 0.6,0.08 0.187,0.08 0.307,0.267 0.36,0.56 0.08,0.693 -0.013,1.107 -0.28,1.24 z"
       style="fill:url(#R);fill-rule:evenodd"
       inkscape:connector-curvature="0" />
    <linearGradient
       id="S"
       y2="643.58002"
       gradientUnits="userSpaceOnUse"
       x2="-1142.6"
       gradientTransform="matrix(-0.098,-0.794,0.794,-0.098,-604,-829.65)"
       y1="643.58002"
       x1="-1143.7">
      <stop
         id="stop381"
         stop-color="#C1A064"
         offset="0" />
      <stop
         id="stop383"
         stop-color="#706341"
         offset="1" />
    </linearGradient>
    <path
       id="path385"
       d="m 18.99,14.816 c -0.08,-0.453 -0.013,-0.68 0.2,-0.68 l 0.28,0.08 c 0.214,0.08 0.28,0.36 0.2,0.84 -0.346,0.054 -0.572,-0.026 -0.68,-0.24 z"
       style="fill:url(#S);fill-rule:evenodd"
       inkscape:connector-curvature="0" />
    <linearGradient
       id="T"
       y2="656.03998"
       gradientUnits="userSpaceOnUse"
       x2="-1134.6"
       gradientTransform="matrix(-0.088,-0.795,0.795,-0.088,-604,-829.65)"
       y1="656.03998"
       x1="-1135.3">
      <stop
         id="stop388"
         stop-color="#C1A064"
         offset="0" />
      <stop
         id="stop390"
         stop-color="#706341"
         offset="1" />
    </linearGradient>
    <path
       id="path392"
       d="m 17.83,14.417 c 0.268,-0.027 0.36,0.12 0.28,0.44 l -0.2,0.08 -0.08,-0.52 z"
       style="fill:url(#T);fill-rule:evenodd"
       inkscape:connector-curvature="0" />
    <path
       id="path394"
       d="m 23.47,13.537 c -0.187,-0.026 -0.306,-0.2 -0.36,-0.52 -0.053,-0.32 0.015,-0.493 0.2,-0.52 l 0.2,0 c 0.214,0.133 0.294,0.373 0.24,0.72 0,0.24 -0.093,0.346 -0.28,0.32 z"
       style="fill:#705c39;fill-rule:evenodd"
       inkscape:connector-curvature="0" />
    <linearGradient
       id="U"
       y2="643.62"
       gradientUnits="userSpaceOnUse"
       x2="-1144.1"
       gradientTransform="matrix(-0.102,-0.793,0.793,-0.102,-604,-829.65)"
       y1="643.62"
       x1="-1145.5">
      <stop
         id="stop397"
         stop-color="#C1A064"
         offset="0" />
      <stop
         id="stop399"
         stop-color="#706341"
         offset="1" />
    </linearGradient>
    <path
       id="path401"
       d="m 23.47,13.537 c -0.187,-0.026 -0.306,-0.2 -0.36,-0.52 -0.053,-0.32 0.015,-0.493 0.2,-0.52 l 0.2,0 c 0.214,0.133 0.294,0.373 0.24,0.72 0,0.24 -0.093,0.346 -0.28,0.32 z"
       style="fill:url(#U);fill-rule:evenodd"
       inkscape:connector-curvature="0" />
    <path
       id="path403"
       d="m 23.47,14.816 c 0.08,0.054 0.12,0.214 0.12,0.48 l -0.32,0 c 0,-0.347 0.014,-0.547 0.04,-0.6 l 0.16,0.12 z"
       style="fill:#705c39;fill-rule:evenodd"
       inkscape:connector-curvature="0" />
    <linearGradient
       id="V"
       y2="640.27002"
       gradientUnits="userSpaceOnUse"
       x2="-1148.5"
       gradientTransform="matrix(-0.104,-0.793,0.793,-0.104,-604,-829.65)"
       y1="640.27002"
       x1="-1149.3">
      <stop
         id="stop406"
         stop-color="#C1A064"
         offset="0" />
      <stop
         id="stop408"
         stop-color="#706341"
         offset="1" />
    </linearGradient>
    <path
       id="path410"
       d="m 23.47,14.816 c 0.08,0.054 0.12,0.214 0.12,0.48 l -0.32,0 c 0,-0.347 0.014,-0.547 0.04,-0.6 l 0.16,0.12 z"
       style="fill:url(#V);fill-rule:evenodd"
       inkscape:connector-curvature="0" />
    <path
       id="path412"
       d="m 22.35,16.457 c 0.107,0 0.188,0.053 0.24,0.16 -0.187,0.293 -0.36,0.373 -0.52,0.24 -0.16,-0.133 -0.133,-0.333 0.08,-0.6 l 0.2,0.2 z"
       style="fill:#705c39;fill-rule:evenodd"
       inkscape:connector-curvature="0" />
    <linearGradient
       id="W"
       y2="653.89001"
       gradientUnits="userSpaceOnUse"
       x2="-1155.3"
       gradientTransform="matrix(-0.093,-0.794,0.793,-0.11,-604,-829.65)"
       y1="653.89001"
       x1="-1156.2">
      <stop
         id="stop415"
         stop-color="#C1A064"
         offset="0" />
      <stop
         id="stop417"
         stop-color="#706341"
         offset="1" />
    </linearGradient>
    <path
       id="path419"
       d="m 22.35,16.457 c 0.107,0 0.188,0.053 0.24,0.16 -0.187,0.293 -0.36,0.373 -0.52,0.24 -0.16,-0.133 -0.133,-0.333 0.08,-0.6 l 0.2,0.2 z"
       style="fill:url(#W);fill-rule:evenodd"
       inkscape:connector-curvature="0" />
    <path
       id="path421"
       d="m 24.75,14.216 0.32,0 c 0.106,0.214 0.134,0.414 0.08,0.6 -0.053,0.214 -0.2,0.28 -0.44,0.2 -0.133,-0.053 -0.2,-0.186 -0.2,-0.4 0,-0.213 0.08,-0.345 0.24,-0.4 z"
       style="fill:#615031;fill-rule:evenodd"
       inkscape:connector-curvature="0" />
    <linearGradient
       id="X"
       y2="655.71997"
       gradientUnits="userSpaceOnUse"
       x2="-1140.4"
       gradientTransform="matrix(-0.095,-0.794,0.794,-0.095,-604,-829.65)"
       y1="655.71997"
       x1="-1141.5">
      <stop
         id="stop424"
         stop-color="#C1A064"
         offset="0" />
      <stop
         id="stop426"
         stop-color="#706341"
         offset="1" />
    </linearGradient>
    <path
       id="path428"
       d="m 24.75,14.216 0.32,0 c 0.106,0.214 0.134,0.414 0.08,0.6 -0.053,0.214 -0.2,0.28 -0.44,0.2 -0.133,-0.053 -0.2,-0.186 -0.2,-0.4 0,-0.213 0.08,-0.345 0.24,-0.4 z"
       style="fill:url(#X);fill-rule:evenodd"
       inkscape:connector-curvature="0" />
    <path
       id="path430"
       d="m 26.35,13.537 c -0.052,-0.32 0.015,-0.48 0.2,-0.48 l -0.04,0.84 C 26.403,13.87 26.35,13.75 26.35,13.537 Z"
       style="fill:#4d4027;fill-rule:evenodd"
       inkscape:connector-curvature="0" />
    <linearGradient
       id="Y"
       y2="661.09003"
       gradientUnits="userSpaceOnUse"
       x2="-1148.5"
       gradientTransform="matrix(-0.092,-0.795,0.793,-0.106,-604,-829.65)"
       y1="661.09003"
       x1="-1149.6">
      <stop
         id="stop433"
         stop-color="#C1A064"
         offset="0" />
      <stop
         id="stop435"
         stop-color="#706341"
         offset="1" />
    </linearGradient>
    <path
       id="path437"
       d="m 26.35,13.537 c -0.052,-0.32 0.015,-0.48 0.2,-0.48 l -0.04,0.84 C 26.403,13.87 26.35,13.75 26.35,13.537 Z"
       style="fill:url(#Y);fill-rule:evenodd"
       inkscape:connector-curvature="0" />
    <path
       id="path439"
       d="m 24.43,11.137 c -0.053,-0.106 -0.065,-0.173 -0.04,-0.2 0.16,-0.16 0.494,-0.134 1,0.08 0.135,0.054 0.214,0.08 0.24,0.08 0.027,0.027 0.04,0.107 0.04,0.24 0.027,0.188 0,0.348 -0.08,0.48 -0.133,0.187 -0.307,0.254 -0.52,0.2 l -0.2,-0.32 0.08,0 -0.44,-0.4 -0.08,-0.16 z"
       style="fill:#615031;fill-rule:evenodd"
       inkscape:connector-curvature="0" />
    <linearGradient
       id="Z"
       y2="647.48999"
       gradientUnits="userSpaceOnUse"
       x2="-1141.4"
       gradientTransform="matrix(-0.101,-0.794,0.794,-0.101,-604,-829.65)"
       y1="647.48999"
       x1="-1142.9">
      <stop
         id="stop442"
         stop-color="#C1A064"
         offset="0" />
      <stop
         id="stop444"
         stop-color="#706341"
         offset="1" />
    </linearGradient>
    <path
       id="path446"
       d="m 24.43,11.137 c -0.053,-0.106 -0.065,-0.173 -0.04,-0.2 0.16,-0.16 0.494,-0.134 1,0.08 0.135,0.054 0.214,0.08 0.24,0.08 0.027,0.027 0.04,0.107 0.04,0.24 0.027,0.188 0,0.348 -0.08,0.48 -0.133,0.187 -0.307,0.254 -0.52,0.2 l -0.2,-0.32 0.08,0 -0.44,-0.4 -0.08,-0.16 z"
       style="fill:url(#Z);fill-rule:evenodd"
       inkscape:connector-curvature="0" />
    <radialGradient
       id="aa"
       gradientUnits="userSpaceOnUse"
       cy="-476.32999"
       cx="1239"
       gradientTransform="matrix(0.17624358,0.66511418,0.67574368,-0.17896992,122.24644,-880.98013)"
       r="20.443001">
      <stop
         id="stop449"
         stop-color="#FBF5E2"
         offset="0" />
      <stop
         id="stop451"
         stop-color="#F6F0DB"
         offset=".071" />
      <stop
         id="stop453"
         stop-color="#E3DCC1"
         offset=".431" />
      <stop
         id="stop455"
         stop-color="#D7D0B1"
         offset=".749" />
      <stop
         id="stop457"
         stop-color="#D3CCAC"
         offset="1" />
    </radialGradient>
    <path
       id="path459"
       d="m 15.338031,30.918742 c 1.650672,0.941313 4.034689,1.376692 7.152911,1.307857 1.558681,-0.0456 2.946276,-0.182412 4.161067,-0.413007 l 0.88427,0.03942 c 0.320677,1.263115 0.504658,1.243787 0.550223,2.091313 0.115203,1.35432 -0.09113,3.269642 -0.619001,5.749408 -0.2519,0.183272 -0.722169,0.355359 -1.409949,0.51626 -1.37556,0.321801 -3.174964,0.413007 -5.399072,0.275338 -1.628318,-0.114437 -3.003878,-0.447425 -4.126679,-0.998101 l -1.238003,-0.791602 c -0.68778,-0.619511 -1.122801,-1.559964 -1.306782,-2.822218 -0.252759,-1.743236 -0.437212,-0.84524 0.250568,-2.681402 z"
       style="opacity:0.39599998;fill:#241f1c;fill-rule:evenodd"
       inkscape:connector-curvature="0"
       sodipodi:nodetypes="ccccccscccccc" />
    <radialGradient
       id="ab"
       gradientUnits="userSpaceOnUse"
       cy="-476.07001"
       cx="1241.3"
       gradientTransform="matrix(0.205,0.773,0.773,-0.205,132.35,-1024.5)"
       r="15.439">
      <stop
         id="stop462"
         stop-color="#84869C"
         offset="0" />
      <stop
         id="stop464"
         stop-color="#7F8197"
         offset=".129" />
      <stop
         id="stop466"
         stop-color="#6F728B"
         offset=".62" />
      <stop
         id="stop468"
         stop-color="#696C86"
         offset="1" />
    </radialGradient>
    <path
       sodipodi:nodetypes="ccccccscccccc"
       inkscape:connector-curvature="0"
       style="opacity:0.93800001;fill:url(#radialGradient21475);fill-rule:evenodd"
       d="m 14.869483,30.450194 c 1.650672,0.941313 4.034689,1.376692 7.152911,1.307857 1.558681,-0.0456 2.946276,-0.182412 4.161067,-0.413007 l 0.88427,0.03942 c 0.320677,1.263115 0.504658,1.243787 0.550223,2.091313 0.115203,1.35432 -0.09113,3.269642 -0.619001,5.749408 -0.2519,0.183272 -0.722169,0.355359 -1.409949,0.51626 -1.37556,0.321801 -3.174964,0.413007 -5.399072,0.275338 -1.628318,-0.114437 -3.003878,-0.447425 -4.126679,-0.998101 L 14.82525,38.22708 c -0.68778,-0.619511 -1.122801,-1.559964 -1.306782,-2.822218 -0.252759,-1.743236 -0.437212,-0.84524 0.250568,-2.681402 z"
       id="path21473" />
    <g
       transform="scale(1.0905798,0.91694344)"
       style="font-style:normal;font-weight:normal;font-size:6.67306757px;line-height:75.99999905%;font-family:sans-serif;letter-spacing:0px;word-spacing:0px;fill:#4d4027;fill-opacity:1;stroke:none;stroke-width:1px;stroke-linecap:butt;stroke-linejoin:miter;stroke-opacity:1"
       id="text21477">
      <path
         style="font-style:normal;font-variant:normal;font-weight:normal;font-stretch:normal;font-size:3.33653378px;line-height:75.99999905%;font-family:'Grand Hotel';-inkscape-font-specification:'Grand Hotel';text-align:center;text-anchor:middle;fill:#4d4027;fill-opacity:1"
         d="m 17.861748,37.777695 c 0.57227,0.08667 0.23369,-0.857265 -0.155725,-0.405265 -0.453247,-0.16773 -0.532855,-0.748257 -0.526615,-1.170719 -0.156156,-0.452328 0.81317,-0.776138 0.575509,-0.240278 -0.483492,0.319828 0.133382,0.612172 0.306508,0.181202 0.371727,-0.56089 -0.428925,-1.056055 -0.889764,-0.700873 -0.598405,0.315103 -0.05889,0.955435 -0.20623,1.441832 -0.395935,0.472094 -0.0011,1.004164 0.57033,0.773729 0.113098,-0.04337 0.252987,0.03552 0.325987,0.120372 z m -0.827461,-0.510489 c 0.39679,0.187587 -0.36351,0.11478 0,0 z"
         id="path21527"
         inkscape:connector-curvature="0" />
      <path
         style="font-style:normal;font-variant:normal;font-weight:normal;font-stretch:normal;font-size:3.33653378px;line-height:75.99999905%;font-family:'Grand Hotel';-inkscape-font-specification:'Grand Hotel';text-align:center;text-anchor:middle;fill:#4d4027;fill-opacity:1"
         d="m 19.639651,37.103715 c -0.460098,0.235981 -0.337757,-1.03816 -0.745564,-0.495664 0.02007,0.20146 0.106126,0.905313 -0.203851,0.640481 0.126237,-0.309736 -0.114035,-0.941103 -0.280155,-0.357036 -0.234037,0.525713 0.32426,1.000616 0.822816,0.785391 0.185387,-0.04407 0.887299,-0.449895 0.406754,-0.573172 z m -0.637278,-0.310297 c 0.376237,-0.06515 -0.149007,0.614302 0,0 z"
         id="path21529"
         inkscape:connector-curvature="0" />
      <path
         style="font-style:normal;font-variant:normal;font-weight:normal;font-stretch:normal;font-size:3.33653378px;line-height:75.99999905%;font-family:'Grand Hotel';-inkscape-font-specification:'Grand Hotel';text-align:center;text-anchor:middle;fill:#4d4027;fill-opacity:1"
         d="m 19.637096,37.420686 c 0.267457,0.621236 1.01268,0.0217 0.953998,-0.472955 0.07491,-0.518577 -0.410924,-0.38983 -0.281933,0.05629 -0.01054,0.51863 -0.577303,0.29439 -0.437771,-0.123805 -0.161067,-0.886352 -0.30512,0.321225 -0.234294,0.540467 z"
         id="path21531"
         inkscape:connector-curvature="0" />
      <path
         style="font-style:normal;font-variant:normal;font-weight:normal;font-stretch:normal;font-size:3.33653378px;line-height:75.99999905%;font-family:'Grand Hotel';-inkscape-font-specification:'Grand Hotel';text-align:center;text-anchor:middle;fill:#4d4027;fill-opacity:1"
         d="m 21.486266,36.683312 c -0.349237,-0.577719 -1.02044,0.136724 -0.828531,0.618035 0.04432,0.625784 0.998883,0.645452 1.108036,0.05009 -0.130301,-0.0051 -0.755915,0.307464 -0.569745,-0.191991 0.141705,-0.119346 0.309916,-0.269595 0.29024,-0.476136 z m -0.537182,0.393711 c -0.296829,-0.377106 0.570192,-0.438677 0.179476,-0.05954 -0.05579,0.03048 -0.117941,0.0459 -0.179476,0.05954 z"
         id="path21533"
         inkscape:connector-curvature="0" />
      <path
         style="font-style:normal;font-variant:normal;font-weight:normal;font-stretch:normal;font-size:3.33653378px;line-height:75.99999905%;font-family:'Grand Hotel';-inkscape-font-specification:'Grand Hotel';text-align:center;text-anchor:middle;fill:#4d4027;fill-opacity:1"
         d="m 16.443799,40.186673 c 0.396845,-0.398756 0.901168,-0.756886 1.199893,-1.199008 0.197123,-0.714015 -0.640089,-1.328524 -1.289374,-1.06398 -0.482688,0.153304 -0.755259,1.045164 -0.288014,1.314434 0.03871,-0.404694 -0.04933,-1.002365 0.51384,-1.072347 0.560083,-0.172675 1.126393,0.528371 0.682544,0.98617 -0.385642,0.527031 -0.709655,-0.14684 -0.64469,-0.5433 -0.267698,-0.04228 -0.194766,0.764753 -0.177337,1.056811 0.0108,0.173418 0.01909,0.347816 0.0031,0.52122 z"
         id="path21535"
         inkscape:connector-curvature="0" />
      <path
         style="font-style:normal;font-variant:normal;font-weight:normal;font-stretch:normal;font-size:3.33653378px;line-height:75.99999905%;font-family:'Grand Hotel';-inkscape-font-specification:'Grand Hotel';text-align:center;text-anchor:middle;fill:#4d4027;fill-opacity:1"
         d="m 18.939109,39.639481 c -0.460098,0.235982 -0.337758,-1.038161 -0.745565,-0.495662 0.02007,0.201461 0.106132,0.905316 -0.203851,0.640482 0.126236,-0.309735 -0.114034,-0.941105 -0.280155,-0.357038 -0.233896,0.525153 0.323709,1.000732 0.822086,0.785485 0.186171,-0.04583 0.888007,-0.445703 0.407485,-0.573267 z m -0.637278,-0.310298 c 0.376237,-0.06515 -0.149007,0.614301 0,0 z"
         id="path21537"
         inkscape:connector-curvature="0" />
      <path
         style="font-style:normal;font-variant:normal;font-weight:normal;font-stretch:normal;font-size:3.33653378px;line-height:75.99999905%;font-family:'Grand Hotel';-inkscape-font-specification:'Grand Hotel';text-align:center;text-anchor:middle;fill:#4d4027;fill-opacity:1"
         d="m 18.636267,38.621838 c 0.42657,0.371609 0.205298,1.005213 0.435608,1.451657 0.268449,0.384969 0.903165,-0.38041 0.325812,-0.209967 -0.425893,0.0639 -0.335881,-0.884455 0.04483,-1.02529 0.542238,-0.191207 -0.345491,-0.09093 -0.271127,-0.486899 -0.413698,-0.912766 0.0092,0.658006 -0.535121,0.270499 z"
         id="path21539"
         inkscape:connector-curvature="0" />
      <path
         style="font-style:normal;font-variant:normal;font-weight:normal;font-stretch:normal;font-size:3.33653378px;line-height:75.99999905%;font-family:'Grand Hotel';-inkscape-font-specification:'Grand Hotel';text-align:center;text-anchor:middle;fill:#4d4027;fill-opacity:1"
         d="m 19.719441,38.585136 c 0.512874,-0.176101 -0.450111,-0.498352 -0.118369,-0.07342 l 0.05981,0.03728 0.05856,0.03614 z m 0.07674,0.477125 c -0.492124,0.103935 -0.370395,0.764247 -0.112447,1.044391 0.305352,0.455804 0.843079,-0.543593 0.325689,-0.182765 -0.507017,0.159749 -0.08038,-0.640992 -0.213242,-0.861626 z"
         id="path21541"
         inkscape:connector-curvature="0" />
      <path
         style="font-style:normal;font-variant:normal;font-weight:normal;font-stretch:normal;font-size:3.33653378px;line-height:75.99999905%;font-family:'Grand Hotel';-inkscape-font-specification:'Grand Hotel';text-align:center;text-anchor:middle;fill:#4d4027;fill-opacity:1"
         d="m 21.337243,39.639481 c -0.460098,0.235986 -0.337761,-1.03816 -0.745567,-0.49566 0.02007,0.201461 0.106136,0.905313 -0.203847,0.64049 0.126234,-0.309736 -0.114039,-0.941097 -0.280158,-0.357032 -0.233897,0.525153 0.323705,1.000728 0.822082,0.785487 0.186182,-0.04584 0.887999,-0.445678 0.40749,-0.573285 z m -0.637278,-0.310298 c 0.376236,-0.06515 -0.149007,0.614301 0,0 z"
         id="path21543"
         inkscape:connector-curvature="0" />
      <path
         style="font-style:normal;font-variant:normal;font-weight:normal;font-stretch:normal;font-size:3.33653378px;line-height:75.99999905%;font-family:'Grand Hotel';-inkscape-font-specification:'Grand Hotel';text-align:center;text-anchor:middle;fill:#4d4027;fill-opacity:1"
         d="m 21.334688,40.136625 c 0.426196,0.07496 0.301902,-1.051325 0.526258,-0.678786 -0.131268,0.511643 0.643279,1.050968 0.851875,0.414369 0.02268,-0.323607 -0.468039,0.248085 -0.488957,-0.265166 0.157084,-0.497305 -0.503939,-1.042081 -0.840668,-0.510953 -0.212223,0.317595 0.05494,0.70126 -0.04851,1.040536 z"
         id="path21545"
         inkscape:connector-curvature="0" />
      <path
         style="font-style:normal;font-variant:normal;font-weight:normal;font-stretch:normal;font-size:3.33653378px;line-height:75.99999905%;font-family:'Grand Hotel';-inkscape-font-specification:'Grand Hotel';text-align:center;text-anchor:middle;fill:#4d4027;fill-opacity:1"
         d="m 17.816626,41.784872 c 0.109112,0.257083 0.23097,0.842573 0.466939,0.309121 0.219981,-0.05288 0.300245,0.606228 0.452354,0.08939 -0.01326,-0.439587 0.51073,-0.989989 0.02615,-1.289582 -0.04008,0.419848 -0.319546,0.349659 -0.519388,0.01614 -0.263544,0.227505 -0.324733,0.552833 -0.199605,0.838899 -0.05038,0.07487 -0.154793,0.06338 -0.226446,0.03603 z m 0.493807,-0.31697 c 0.613854,-0.121544 -0.221693,0.685711 0,0 z"
         id="path21547"
         inkscape:connector-curvature="0" />
      <path
         style="font-style:normal;font-variant:normal;font-weight:normal;font-stretch:normal;font-size:3.33653378px;line-height:75.99999905%;font-family:'Grand Hotel';-inkscape-font-specification:'Grand Hotel';text-align:center;text-anchor:middle;fill:#4d4027;fill-opacity:1"
         d="m 19.834708,42.575631 c -0.573049,-0.300735 0.03298,0.570326 0.303881,0.131113 0.324359,-0.453612 0.372343,-1.087668 0.261513,-1.623853 -0.02055,-0.626913 -0.917155,-0.81468 -1.090622,-0.182498 -0.231996,0.616958 0.347468,1.239674 0.806062,1.34792 -0.04341,0.138503 -0.121724,0.299527 -0.280834,0.327318 z m 0.0067,-0.707345 c -0.590906,-0.0902 -0.267739,-1.278863 0.230248,-0.949492 0.19533,0.267075 0.106102,0.835157 -0.230248,0.949492 z"
         id="path21549"
         inkscape:connector-curvature="0" />
    </g>
    <g
       transform="matrix(1.0905798,0,0,0.91694344,2.3480589,0.31730526)"
       style="font-style:normal;font-weight:normal;font-size:6.67306757px;line-height:75.99999905%;font-family:sans-serif;letter-spacing:0px;word-spacing:0px;fill:#735e39;fill-opacity:1;stroke:none;stroke-width:1px;stroke-linecap:butt;stroke-linejoin:miter;stroke-opacity:1"
       id="text21493">
      <path
         style="font-style:normal;font-variant:normal;font-weight:normal;font-stretch:normal;font-size:3.33653378px;line-height:75.99999905%;font-family:'Grand Hotel';-inkscape-font-specification:'Grand Hotel';text-align:center;text-anchor:middle;fill:#735e39;fill-opacity:1"
         d="m 15.65052,37.362439 c 0.591194,0.04211 0.333964,-0.915266 -0.06824,-0.356285 -0.857777,-0.197746 -0.805639,-2.300081 0.09911,-1.625083 -0.441479,0.371357 -0.507902,0.873132 0.155922,0.394742 0.596922,-1.170487 -1.626036,-1.144736 -1.105537,0.130988 0.324186,0.57868 -0.774812,1.531323 0.402181,1.337448 0.174936,-0.04012 0.390982,-0.0354 0.516563,0.11819 z m -0.82746,-0.51049 c 0.402037,0.17883 -0.400826,0.185905 0,0 z"
         id="path21502"
         inkscape:connector-curvature="0" />
      <path
         style="font-style:normal;font-variant:normal;font-weight:normal;font-stretch:normal;font-size:3.33653378px;line-height:75.99999905%;font-family:'Grand Hotel';-inkscape-font-specification:'Grand Hotel';text-align:center;text-anchor:middle;fill:#735e39;fill-opacity:1"
         d="m 17.428424,36.688459 c -0.412439,0.445014 -0.344641,-1.283279 -0.80094,-0.439039 0.320817,0.438447 -0.238205,1.189331 -0.140338,0.32032 0.05036,-1.268378 -0.857861,0.776371 0.173898,0.69744 0.281472,0.219772 1.355119,-0.521866 0.76738,-0.578721 z m -0.637278,-0.310298 c 0.375567,-0.201154 -0.08152,0.765288 0,0 z"
         id="path21504"
         inkscape:connector-curvature="0" />
      <path
         style="font-style:normal;font-variant:normal;font-weight:normal;font-stretch:normal;font-size:3.33653378px;line-height:75.99999905%;font-family:'Grand Hotel';-inkscape-font-specification:'Grand Hotel';text-align:center;text-anchor:middle;fill:#735e39;fill-opacity:1"
         d="m 17.425869,37.00543 c 0.675562,1.144496 1.401824,-1.37039 0.621545,-0.784252 0.311201,0.645777 -0.509547,1.110474 -0.364496,0.212604 -0.255022,-0.990603 -0.280306,0.363784 -0.257049,0.571648 z"
         id="path21506"
         inkscape:connector-curvature="0" />
      <path
         style="font-style:normal;font-variant:normal;font-weight:normal;font-stretch:normal;font-size:3.33653378px;line-height:75.99999905%;font-family:'Grand Hotel';-inkscape-font-specification:'Grand Hotel';text-align:center;text-anchor:middle;fill:#735e39;fill-opacity:1"
         d="m 19.275039,36.268056 c -0.752945,-0.989906 -1.330823,1.364255 -0.139231,1.085679 0.455162,-0.135887 0.693185,-0.862766 0.107037,-0.281435 -0.81257,-0.07983 0.108675,-0.437173 0.03219,-0.804244 z m -0.537182,0.393711 c -0.178678,-0.808938 0.735188,-0.143993 0,0 z"
         id="path21508"
         inkscape:connector-curvature="0" />
      <path
         style="font-style:normal;font-variant:normal;font-weight:normal;font-stretch:normal;font-size:3.33653378px;line-height:75.99999905%;font-family:'Grand Hotel';-inkscape-font-specification:'Grand Hotel';text-align:center;text-anchor:middle;fill:#735e39;fill-opacity:1"
         d="m 14.232572,39.771416 c 0.399707,-0.244747 0.605053,-0.739323 1.082016,-0.944675 0.727855,-1.250379 -1.516291,-2.047312 -1.671981,-0.599534 -0.130965,0.557573 0.402505,1.041563 0.214558,0.209904 0.04077,-1.225573 1.944511,-0.667452 1.165551,0.327844 -0.845492,0.915035 -0.440049,-1.632487 -0.797823,-0.315973 -0.04664,0.440524 0.03581,0.879856 0.0077,1.322434 z"
         id="path21510"
         inkscape:connector-curvature="0" />
      <path
         style="font-style:normal;font-variant:normal;font-weight:normal;font-stretch:normal;font-size:3.33653378px;line-height:75.99999905%;font-family:'Grand Hotel';-inkscape-font-specification:'Grand Hotel';text-align:center;text-anchor:middle;fill:#735e39;fill-opacity:1"
         d="m 16.727882,39.224225 c -0.41244,0.445018 -0.344638,-1.283278 -0.800939,-0.439043 0.320817,0.438448 -0.238212,1.189322 -0.140338,0.320314 0.05037,-1.268376 -0.85786,0.776364 0.173894,0.697443 0.281471,0.219773 1.355122,-0.521842 0.767383,-0.578714 z m -0.637278,-0.310298 c 0.375564,-0.201163 -0.08151,0.76528 0,0 z"
         id="path21512"
         inkscape:connector-curvature="0" />
      <path
         style="font-style:normal;font-variant:normal;font-weight:normal;font-stretch:normal;font-size:3.33653378px;line-height:75.99999905%;font-family:'Grand Hotel';-inkscape-font-specification:'Grand Hotel';text-align:center;text-anchor:middle;fill:#735e39;fill-opacity:1"
         d="m 16.425039,38.206582 c 0.539381,0.324473 0.05672,2.224249 1.028532,1.342722 -0.005,-0.571711 -0.568766,0.459287 -0.472913,-0.349077 -0.282021,-0.581889 0.296531,-0.767916 0.543348,-0.928847 -0.723771,0.284596 -0.708131,-1.473616 -0.795646,-0.257901 0.01946,0.186532 -0.14541,0.351723 -0.303321,0.193103 z"
         id="path21514"
         inkscape:connector-curvature="0" />
      <path
         style="font-style:normal;font-variant:normal;font-weight:normal;font-stretch:normal;font-size:3.33653378px;line-height:75.99999905%;font-family:'Grand Hotel';-inkscape-font-specification:'Grand Hotel';text-align:center;text-anchor:middle;fill:#735e39;fill-opacity:1"
         d="m 17.508214,38.16988 c 0.6711,-0.418806 -0.71923,-0.390753 0,0 z m 0.07674,0.477124 c -0.967045,0.229506 0.383992,2.018635 0.421522,0.687005 -0.731957,0.70794 -0.327415,-0.313724 -0.421522,-0.687005 z"
         id="path21516"
         inkscape:connector-curvature="0" />
      <path
         style="font-style:normal;font-variant:normal;font-weight:normal;font-stretch:normal;font-size:3.33653378px;line-height:75.99999905%;font-family:'Grand Hotel';-inkscape-font-specification:'Grand Hotel';text-align:center;text-anchor:middle;fill:#735e39;fill-opacity:1"
         d="m 19.126015,39.224225 c -0.412437,0.44501 -0.344637,-1.28328 -0.800938,-0.439043 0.320823,0.438449 -0.238208,1.189325 -0.140339,0.320316 0.05037,-1.268378 -0.857859,0.776365 0.173896,0.697442 0.270805,0.223994 1.37134,-0.535611 0.767381,-0.578715 z m -0.637278,-0.310298 c 0.375568,-0.20116 -0.08151,0.765288 0,0 z"
         id="path21518"
         inkscape:connector-curvature="0" />
      <path
         style="font-style:normal;font-variant:normal;font-weight:normal;font-stretch:normal;font-size:3.33653378px;line-height:75.99999905%;font-family:'Grand Hotel';-inkscape-font-specification:'Grand Hotel';text-align:center;text-anchor:middle;fill:#735e39;fill-opacity:1"
         d="m 19.123461,39.721368 c 0.426676,0.155355 0.382765,-1.57217 0.570786,-0.594003 -0.227912,0.658677 1.060076,0.898393 0.758331,0.130177 -0.689865,0.929312 -0.143475,-1.429912 -1.173954,-0.663368 -0.405853,0.219196 -0.02979,0.78165 -0.155163,1.127194 z"
         id="path21520"
         inkscape:connector-curvature="0" />
      <path
         style="font-style:normal;font-variant:normal;font-weight:normal;font-stretch:normal;font-size:3.33653378px;line-height:75.99999905%;font-family:'Grand Hotel';-inkscape-font-specification:'Grand Hotel';text-align:center;text-anchor:middle;fill:#735e39;fill-opacity:1"
         d="m 15.605399,41.369616 c 0.283617,0.473925 0.08014,0.974562 0.47648,0.270599 0.271056,-0.171969 0.157283,0.91512 0.458834,0.07512 0.138411,-0.394538 -0.01644,-0.533169 0.298554,-0.850052 -0.156694,-0.108327 -0.280044,-0.878538 -0.365056,-0.09264 -0.429662,0.314167 -0.306576,-0.840132 -0.524499,-0.08088 -0.560676,0.08302 0.270452,0.810994 -0.344313,0.67786 z m 0.493807,-0.316971 c 0.770218,-0.07146 -0.301801,0.673219 0,0 z"
         id="path21522"
         inkscape:connector-curvature="0" />
      <path
         style="font-style:normal;font-variant:normal;font-weight:normal;font-stretch:normal;font-size:3.33653378px;line-height:75.99999905%;font-family:'Grand Hotel';-inkscape-font-specification:'Grand Hotel';text-align:center;text-anchor:middle;fill:#735e39;fill-opacity:1"
         d="m 17.62348,42.160374 c -0.822951,-0.450729 0.252942,0.831155 0.416988,-0.09875 0.345711,-0.606871 0.328318,-2.236076 -0.669834,-1.953035 -0.618663,0.57677 -0.226157,1.628175 0.551727,1.664133 -0.04228,0.155441 -0.120744,0.357997 -0.298881,0.387649 z m 0.0067,-0.707345 c -0.876153,-0.256933 0.295857,-1.823526 0.317674,-0.596614 0.001,0.226966 -0.05826,0.529272 -0.317674,0.596614 z"
         id="path21524"
         inkscape:connector-curvature="0" />
    </g>
  </g>
  <metadata
     id="metadata20929">
    <rdf:RDF>
      <cc:Work>
        <dc:format>image/svg+xml</dc:format>
        <dc:type
           rdf:resource="http://purl.org/dc/dcmitype/StillImage" />
        <cc:license
           rdf:resource="http://creativecommons.org/publicdomain/zero/1.0/" />
        <dc:publisher>
          <cc:Agent
             rdf:about="http://openclipart.org/">
            <dc:title>Openclipart</dc:title>
          </cc:Agent>
        </dc:publisher>
        <dc:title></dc:title>
      </cc:Work>
      <cc:License
         rdf:about="http://creativecommons.org/publicdomain/zero/1.0/">
        <cc:permits
           rdf:resource="http://creativecommons.org/ns#Reproduction" />
        <cc:permits
           rdf:resource="http://creativecommons.org/ns#Distribution" />
        <cc:permits
           rdf:resource="http://creativecommons.org/ns#DerivativeWorks" />
      </cc:License>
    </rdf:RDF>
  </metadata>
</svg>
