<?xml version="1.0" encoding="UTF-8" standalone="no"?>
<!-- Created with Inkscape (http://www.inkscape.org/) -->
<svg xmlns:inkscape="http://www.inkscape.org/namespaces/inkscape" xmlns:rdf="http://www.w3.org/1999/02/22-rdf-syntax-ns#" xmlns="http://www.w3.org/2000/svg" xmlns:sodipodi="http://sodipodi.sourceforge.net/DTD/sodipodi-0.dtd" xmlns:ns1="http://sozi.baierouge.fr" xmlns:cc="http://creativecommons.org/ns#" xmlns:xlink="http://www.w3.org/1999/xlink" xmlns:dc="http://purl.org/dc/elements/1.1/" id="svg8925" viewBox="0 0 3402.2 1690.3" version="1.1" inkscape:version="0.91 r13725">
  <defs id="defs8927">
    <linearGradient id="linearGradient9746" y2="1181.7" gradientUnits="userSpaceOnUse" x2="434.08" y1="-393.63" x1="445.58">
      <stop id="stop9742" style="stop-color:#bdbcde" offset="0"/>
      <stop id="stop9744" style="stop-color:#bdbcde;stop-opacity:0" offset="1"/>
    </linearGradient>
  </defs>
  <g id="layer1" transform="translate(975.97 451.12)">
    <rect id="rect9635" style="fill:url(#linearGradient9746)" rx="49.515" height="1690.3" width="3392.2" y="-451.12" x="-968.79"/>
    <g id="Berg">
      <path id="path9570" style="fill:#a9ccff" d="m1254.8 306.65s-22.844 42.426-155.02 109.33c-132.17 66.902-611.91 329.61-675.55 350.83-63.638 21.213-461.79 282.29-577.64 300.24-115.85 17.949-177.86 50.584-177.86 50.584l1532.2 1.6318 1068.8-6.527s24.476-47.321-79.956-143.59c-104.43-96.273-34.267-99.537-203.97-208.86-169.7-109.33-287.19-234.97-352.46-275.77-65.27-40.794-176.23-125.65-205.6-146.86-29.372-21.213-60.375-35.899-94.642-35.899s-78.324 4.8953-78.324 4.8953z"/>
      <path id="path9572" style="fill:#eeffff" d="m1305.4 282.17c-24.476-1.6318-31.003-14.686-57.111 4.8953s-40.794 31.003-63.638 50.584-75.061 58.743-75.061 58.743l79.956-40.794s-13.054 27.74-6.527 22.845c6.527-4.8953 44.057-39.162 44.057-39.162l-9.7905 42.426 29.372-39.162-4.8953 32.635 19.581-24.476-6.527 68.534s26.108-44.057 29.372-55.48c3.2635-11.422 19.581 9.7905 19.581 19.581s11.422 44.057 11.422 44.057l-1.6317-76.692s17.949 3.2635 21.213 21.213c3.2635 17.949 27.74 60.375 27.74 60.375l24.476 24.476s-24.476-42.426-24.476-63.638c0-21.213-1.6318-39.162-1.6318-39.162l29.372 26.108 37.53 39.162-32.635-58.743-1.6318-19.581s26.108 14.686 29.372 22.845c3.2635 8.1588 21.213 35.899 21.213 35.899l-8.1588-52.216 44.057 34.267s21.213 1.6318-24.476-35.899c-45.689-37.53-31.003-48.953-71.797-58.743-40.794-9.7905-78.324-4.8953-78.324-4.8953z"/>
    </g>
    <g id="g10098">
      <path id="path9538" style="fill:#ce5542" d="m1485.2 816.74 6.0384 305.95 39.585-0.671-17.444-308.63s20.799-4.0256 41.598-6.7094 32.876-6.0385 32.876-6.0385l8.7222-16.773s-40.256 18.786-71.79 21.47c-31.534 2.6838-83.867 6.0384-99.299 6.0384h-18.115v10.064z"/>
      <path id="path9540" style="fill:#ce5542" d="m1407.3 839.55 136.87-0.67094 0.671 24.154-138.88-5.3675z"/>
      <path id="path9542" style="fill:#b74a38" d="m1595.2 784.53-10.735-8.0513s-34.889 8.7222-73.803 11.406-103.32 6.0384-103.32 6.0384v17.444s47.86 2.6137 101.31-3.3547c59.901-6.6885 86.551-23.483 86.551-23.483z"/>
      <path id="path9544" style="fill:#c665ad" d="m1592.3 781.95 4.2822-16.88s-0.4701 16.692-51.462 21.389c-50.991 4.6966-137.07 8.1325-137.07 8.1325s110.03-13.419 128.15-24.825c18.115-11.406 26.838-9.3931 26.838-12.077 0-2.6838-1.3419-14.761-1.3419-14.761l34.218 22.812z"/>
      <path id="path9546" style="fill:#bb6688" d="m1560.3 741.59s-33.547 12.077-73.132 16.773c-39.585 4.6966-72.461 9.3932-86.551 9.3932s-11.406 23.483-11.406 23.483l17.444 3.3547s87.893-8.7222 109.36-11.406c21.47-2.6838 53.004-8.7222 57.701-11.406 4.6965-2.6838 20.128-6.7094 20.128-6.7094z"/>
      <path id="path9548" style="fill:#ce5542" d="m1334.2 816.74-6.0384 305.95-39.585-0.671 17.444-308.63s-20.799-4.0256-41.598-6.7094-32.876-6.0385-32.876-6.0385l-8.7222-16.773s40.256 18.786 71.79 21.47c31.534 2.6838 83.867 6.0384 99.299 6.0384h18.115v10.064z"/>
      <path id="path9550" style="fill:#ce5542" d="m1412.1 839.55-136.87-0.67094-0.671 24.154 138.88-5.3675z"/>
      <path id="path9552" style="fill:#b74a38" d="m1224.2 784.53 10.735-8.0513s34.889 8.7222 73.803 11.406 103.32 6.0384 103.32 6.0384v17.444s-47.86 2.6137-101.31-3.3547c-59.901-6.6885-86.551-23.483-86.551-23.483z"/>
      <path id="path9554" style="fill:#c665ad" d="m1227.2 781.95-4.2822-16.88s0.4701 16.692 51.462 21.389c50.991 4.6966 137.07 8.1325 137.07 8.1325s-110.03-13.419-128.15-24.825c-18.115-11.406-26.838-9.3931-26.838-12.077 0-2.6838 1.3419-14.761 1.3419-14.761l-34.218 22.812z"/>
      <path id="path9556" style="fill:#bb6688" d="m1259.1 741.59s33.547 12.077 73.132 16.773c39.585 4.6966 72.461 9.3932 86.551 9.3932s11.406 23.483 11.406 23.483l-17.444 3.3547s-87.893-8.7222-109.36-11.406c-21.47-2.6838-53.004-8.7222-57.701-11.406-4.6965-2.6838-20.128-6.7094-20.128-6.7094z"/>
    </g>
    <path id="Ferne" style="fill:#bdbcde" d="m2424 1239.2v-148.69h-206.25c0.9042-5.8483 2.3298-14.749 3.1562-18.469 1.1564-5.192 1.1563-8.6563 1.1563-8.6563s8.6635 4.058 12.125 1.75c3.4611-2.3073 6.9062-10.375 6.9063-10.375 0 0 1.1538 6.9234 7.5 7.5 6.346 0.5768 15.594 0.5626 15.594 0.5626 0-0.0001-6.3604 5.7619 0.5625 4.0312 6.9233-1.7309 9.2502-9.2187 9.25-9.2188 0 0 9.2285 0.5771 13.844 0 4.6158-0.5767 4.5937-2.875 4.5937-2.875s1.1683-1.7455-0.5625-6.9374c-1.7305-5.1923 10.382-5.2044 13.844-13.281 3.4587-8.0766 13.853-17.298 3.4687-17.875-10.385-0.5768-7.5073-11.529-10.969-10.375-3.4615 1.154 6.353-4.6057-4.0313-10.375-10.385-5.769-4.0388-11.558-15-9.25-10.962 2.3077-16.156 4.0528-16.156 6.9375 0 2.8843-6.9306-3.4757-10.969 0.5625-4.0385 4.0413-6.3437 4.0312-6.3437 4.0313 0 0 4.0432-6.3414 2.3124-12.688-1.7307-6.346-10.402-12.697-15.594-9.8124-4.5434 2.5239-8.633-6.4145-11.906-6.375-0.4675 0.01-0.9113 0.1922-1.3437 0.625-3.4616 3.4587-12.709-2.8773-15.594 3.4687-2.8846 6.3461-13.25 0.5507-13.25 9.7813 0 9.2304 3.4374 15 3.4374 15 0-0.0001-6.3489-1.7256-16.156 2.3124-9.8072 4.0384-27.666 8.0893-17.281 20.781 10.384 12.692-6.9276 17.875 5.1874 25.375s-3.4803 13.844 13.25 13.844c16.731 0 11.551 9.2449 20.781 6.9376 9.2307-2.3079 16.719-7.5 16.719-7.5s2.8965 5.1826-1.7187 10.375c-3.2297 3.633-10.823 14.09-15.188 20.187h-93.031c-5.4808-5.5317-12.137-12.307-15.031-15.562-4.615-5.1922-1.7188-10.375-1.7187-10.375 0 0 7.4883 5.192 16.719 7.5 9.2308 2.3076 4.0507-6.9375 20.781-6.9376 16.73 0 1.1347-6.3437 13.25-13.844 12.115-7.4998-5.1969-12.683 5.1874-25.375s-7.4741-16.743-17.281-20.781c-9.8076-4.0381-16.156-2.3125-16.156-2.3124 0 0 3.4374-5.7696 3.4374-15 0-9.2307-10.365-3.4352-13.25-9.7813-2.8845-6.346-12.132-0.01-15.594-3.4687-0.4323-0.4328-0.8761-0.6151-1.3437-0.625-3.2733-0.04-7.3628 8.899-11.906 6.375-5.192-2.8847-13.863 3.4665-15.594 9.8124-1.7308 6.3462 2.3124 12.687 2.3124 12.688 0-0.0003-2.305 0.01-6.3437-4.0313-4.0381-4.0382-10.969 2.3218-10.969-0.5625 0-2.8847-5.1949-4.6298-16.156-6.9375-10.961-2.3076-4.6154 3.481-15 9.25-10.384 5.7693-0.5698 11.529-4.0313 10.375-3.4614-1.1538-0.5839 9.7982-10.969 10.375-10.384 0.577 0.01 9.7984 3.4687 17.875 3.4615 8.0769 15.574 8.0889 13.844 13.281-1.731 5.1919-0.5625 6.9375-0.5625 6.9374 0 0-0.022 2.2982 4.5937 2.875 4.6153 0.577 13.844 0 13.844 0-0.0002 0 2.3268 7.4879 9.25 9.2188 6.9228 1.7307 0.5625-4.0313 0.5625-4.0312 0.0003-0.0001 9.2478 0.014 15.594-0.5626 6.3462-0.5767 7.5001-7.5 7.5-7.5 0 0 3.4453 8.0674 6.9063 10.375 3.4614 2.3079 12.125-1.75 12.125-1.75 0.0001 0.0001 0.0001 3.4643 1.1563 8.6563 0.6195 2.7885 2.7056 8.7721 4.5312 13.844h-89.844c4.6422-6.0679 8.0114-13.557 0.5-17.312-13.846-6.9231-19.625-9.2188-19.625-9.2188s19.615-5.7646 0-12.688c-19.615-6.923-23.077-5.7694-30-15-6.9229-9.2305 2.3075-12.704-15-20.781-17.307-8.0767-10.366-20.776-35.75-18.469-25.384 2.3077-29.988 6.9351-39.219 20.781-9.2304 13.846-38.094-1.1635-38.094 10.375s-17.31 2.3078-16.156 15c0.5953 6.548-4.6338 9.111-10 10.844 0.4838-11.69-16.187-3.016-16.188-14.344 0-11.538-28.863 3.4709-38.094-10.375-9.2307-13.846-13.834-18.474-39.219-20.781-25.384-2.3076-18.443 10.392-35.75 18.469s-8.0771 11.551-15 20.781c-6.9231 9.2306-10.385 8.077-30 15-19.615 6.9229 0 12.688 0 12.688s-5.7791 2.2956-19.625 9.2188c-7.5115 3.7555-4.1421 11.244 0.5 17.312h-89.844c1.8256-5.0715 3.9117-11.055 4.5312-13.844 1.1539-5.192 1.156-8.6562 1.1562-8.6563 0 0 8.6636 4.0579 12.125 1.75 3.461-2.3076 6.9063-10.375 6.9063-10.375s1.1539 6.9234 7.5 7.5c6.346 0.577 15.593 0.5624 15.594 0.5626 0 0-6.3602 5.7619 0.5626 4.0312 6.9232-1.7309 9.2502-9.2188 9.25-9.2188 0 0 9.2284 0.5771 13.844 0 4.6152-0.5768 4.5937-2.8749 4.5937-2.875 0 0 1.1685-1.7455-0.5624-6.9374-1.7306-5.1923 10.382-5.2044 13.844-13.281 3.4614-8.0766 13.853-17.298 3.4687-17.875-10.385-0.5768-7.5072-11.529-10.969-10.375-3.4615 1.154 6.353-4.6057-4.0313-10.375-10.384-5.769-4.039-11.558-15-9.25-10.961 2.3077-16.156 4.0528-16.156 6.9375 0 2.8843-6.9307-3.4757-10.969 0.5625-4.0387 4.0385-6.3438 4.0309-6.3437 4.0313 0 0 4.0433-6.3412 2.3125-12.688-1.7308-6.346-10.402-12.697-15.594-9.8124-4.5435 2.524-8.6329-6.4145-11.906-6.375-0.4675 0.01-0.9114 0.1923-1.3438 0.625-3.4618 3.4614-12.709-2.8773-15.594 3.4687-2.8845 6.3461-13.25 0.5506-13.25 9.7813 0 9.2304 3.4375 15 3.4375 15s-6.3485-1.7256-16.156 2.3124c-9.8071 4.0387-27.666 8.0893-17.281 20.781 10.384 12.692-6.9275 17.875 5.1875 25.375s-3.4803 13.844 13.25 13.844 11.55 9.2452 20.781 6.9376c9.2304-2.308 16.719-7.5001 16.719-7.5 0 0 2.8963 5.1828-1.7188 10.375-2.8944 3.2559-9.5505 10.031-15.031 15.562h-85.719c-4.5861-2.0263-9.1738-3.9189-11.562-5.875-0.5442-0.7476-1.098-1.5202-1.6563-2.2812-0.1546-0.773-0.679-1.3989-1.4375-1.9375-3.0949-4.1828-6.0989-8.131-7.8438-10.094-4.6151-5.1924-1.7188-10.375-1.7187-10.375 0 0 7.4881 5.1921 16.719 7.5 9.2306 2.3073 4.0508-6.9375 20.781-6.9376 16.73 0.0003 1.1347-6.3437 13.25-13.844 12.115-7.4998-5.1968-12.683 5.1875-25.375s-7.4739-16.743-17.281-20.781c-9.8073-4.038-16.156-2.3126-16.156-2.3124 0 0 3.4375-5.7696 3.4375-15 0-9.2307-10.365-3.4352-13.25-9.7813-2.8847-6.346-12.132-0.01-15.594-3.4687-0.4324-0.4327-0.8762-0.6151-1.3437-0.625-3.2734-0.039-7.363 8.899-11.906 6.375-5.192-2.8847-13.863 3.4665-15.594 9.8124-1.7308 6.3461 2.3125 12.687 2.3125 12.688 0 0-2.3052 0.01-6.3438-4.0313-4.038-4.0382-10.969 2.3218-10.969-0.5625 0-2.8847-5.1948-4.6298-16.156-6.9375-10.961-2.3076-4.6154 3.481-15 9.25-10.384 5.7693-0.5697 11.529-4.0312 10.375-3.4614-1.1538-0.5841 9.7982-10.969 10.375-4.0411 0.2245-4.9003 1.7654-4.2812 4.0313-1.8835-0.2358-3.8594-0.4589-6.0312-0.6563-25.384-2.3076-18.443 10.392-35.75 18.469-17.308 8.077-8.0772 11.551-15 20.781-6.9231 9.2306-10.385 8.077-30 15-19.615 6.9229 0 12.688 0 12.688s-2.6667 1.0862-7.9063 3.5312h-46.469c2.1813-2.5375 3.0313-5.2499 3.0312-5.25 0 0 9.2285 0.5771 13.844 0 4.6152-0.5768 4.5937-2.8749 4.5937-2.875 0 0 1.1685-1.7455-0.5625-6.9374-1.7304-5.1923 10.382-5.2044 13.844-13.281 3.4615-8.0766 13.853-17.298 3.4687-17.875-10.385-0.5768-7.5072-11.529-10.969-10.375-3.4615 1.154 6.3529-4.6057-4.0313-10.375-10.385-5.769-4.039-11.558-15-9.25-10.962 2.3077-16.156 4.0528-16.156 6.9375 0 2.8843-6.9308-3.4757-10.969 0.5625-4.0388 4.0385-6.3437 4.0309-6.3437 4.0313 0 0 4.0432-6.3413 2.3124-12.688-1.7307-6.346-10.402-12.697-15.594-9.8124-4.5435 2.5239-8.6329-6.4147-11.906-6.375-0.4675 0.01-0.9114 0.1923-1.3437 0.625-3.4619 3.4614-12.709-2.8773-15.594 3.4687-2.8845 6.3461-13.25 0.5506-13.25 9.7813 0 9.2303 3.4374 15 3.4374 15s-6.3484-1.7257-16.156 2.3124c-9.807 4.0387-27.666 8.0893-17.281 20.781 10.384 12.692-6.9276 17.875 5.1874 25.375s-3.4803 13.844 13.25 13.844c5.664 0 8.7929 1.0628 10.844 2.375h-78.938c3.6438-1.3684 3.3356-6.9999 16.406-7 16.73 0.0003 1.1347-6.3437 13.25-13.844 12.115-7.4998-5.1969-12.683 5.1874-25.375s-7.4739-16.743-17.281-20.781c-9.8073-4.038-16.156-2.3125-16.156-2.3124 0 0 3.4374-5.7696 3.4374-15 0-9.2306-10.365-3.4352-13.25-9.7813-2.8846-6.346-12.132-0.01-15.594-3.4687-0.4325-0.4327-0.8761-0.6151-1.3437-0.625-3.2733-0.039-7.363 8.8989-11.906 6.375-5.192-2.8846-13.863 3.4665-15.594 9.8124-1.7308 6.3461 2.3124 12.688 2.3124 12.688s-2.3052 0.01-6.3437-4.0313c-4.0381-4.0382-10.969 2.3218-10.969-0.5625 0-2.8847-5.1949-4.6298-16.156-6.9375-10.961-2.3076-4.6155 3.481-15 9.25-10.384 5.7693-0.5698 11.529-4.0313 10.375-3.4614-1.1538-0.5841 9.7982-10.969 10.375-10.384 0.577 0.01 9.7984 3.4687 17.875 3.4615 8.0769 15.574 8.0889 13.844 13.281-1.7308 5.192-0.5625 6.9375-0.5625 6.9374 0 0-0.022 2.2983 4.5937 2.875 4.6153 0.577 13.844 0.0001 13.844 0-0.0002 0 2.3268 7.4879 9.25 9.2188 6.9229 1.7307 0.5625-4.0312 0.5625-4.0312 0.0002 0 9.2478 0.014 15.594-0.5626 6.3461-0.5767 7.5001-7.5 7.5-7.5 0 0 3.4451 8.0677 6.9063 10.375 3.4615 2.308 12.125-1.75 12.125-1.75s0.044 1.6125 0.375 4.125h-388.22c-4.2711-1.1706-7.6563-2.9502-7.6563-6.2812 0.0001-9.1931-28.905-14.433-30.219-21-1.3134-6.5664-24.938-3.9601-23.625-18.406 1.3132-14.446-18.375-3.9298-18.375-17.063s-32.869 3.9471-43.375-11.812c-10.506-15.76-15.733-21.03-44.625-23.656-28.892-2.6265-20.988 11.838-40.688 21.031-19.699 9.193-9.214 13.15-17.094 23.656-7.8798 10.506-11.799 9.1828-34.125 17.062-22.326 7.8797 0 14.438 0 14.438s-6.5843 2.6202-22.344 10.5c-8.5496 4.2748-4.7212 12.781 0.5624 19.688h-102.25c2.0781-5.7727 4.4511-12.576 5.1563-15.75 1.3133-5.9096 1.3123-9.8437 1.3125-9.8437 0 0 9.8413 4.6265 13.781 2 3.9394-2.6267 7.875-11.813 7.875-11.813s1.3081 7.8748 8.5313 8.5313c7.2231 0.6567 17.75 0.625 17.75 0.625s-7.2232 6.5635 0.6563 4.5937c7.8801-1.9701 10.531-10.5 10.531-10.5s10.497 0.6568 15.75 0c5.2532-0.6565 5.2188-3.2499 5.2188-3.25 0 0 1.3452-1.9967-0.625-7.9062-1.9697-5.91 11.81-5.9318 15.75-15.125 3.9399-9.1928 15.757-19.687 3.9374-20.344-11.82-0.6565-8.5288-13.126-12.469-11.812-3.9399 1.3134 7.2257-5.2459-4.5937-11.813-11.82-6.5661-4.5867-13.126-17.063-10.5-12.476 2.6269-18.406 4.5919-18.406 7.875 0 3.2832-7.8727-3.94-12.469 0.6563-4.5968 4.5966-7.25 4.5935-7.25 4.5937 0 0 4.6262-7.2454 2.6563-14.469-1.97-7.223-11.84-14.44-17.75-11.156-5.1714 2.8729-9.8368-7.2949-13.562-7.25-0.5322 0.011-1.0391 0.2263-1.5312 0.7188-3.9403 3.9399-14.467-3.2856-17.75 3.9375-3.2832 7.2232-15.063 0.6187-15.063 11.125s3.9063 17.094 3.9063 17.094-7.2431-1.9711-18.406 2.625c-11.162 4.5969-31.476 9.2102-19.656 23.656s-7.8832 20.339 5.9062 28.875c13.79 8.5366-3.9801 15.75 15.063 15.75s13.15 10.533 23.656 7.9063c10.506-2.6269 19.031-8.5313 19.031-8.5313s3.3154 5.9027-1.9374 11.812c-3.2946 3.7058-10.887 11.391-17.125 17.688h-105.88c-4.9677-6.9406-13.605-18.834-17.281-22.969-5.2531-5.9103-1.9687-11.813-1.9687-11.813s8.5248 5.9047 19.031 8.5313c10.506 2.6264 4.6135-7.875 23.656-7.875 19.043 0.0004 1.273-7.2446 15.063-15.781 13.789-8.5362-5.9134-14.429 5.9062-28.875s-8.4935-19.06-19.656-23.656c-11.163-4.5962-18.375-2.625-18.375-2.625s3.9062-6.5562 3.9062-17.062-11.811-3.9018-15.094-11.125c-3.2833-7.223-13.81-0.032-17.75-3.9687-0.4922-0.4925-0.999-0.7074-1.5312-0.7188-3.7257-0.044-8.36 10.154-13.531 7.2812-5.9096-3.2832-15.78 3.9333-17.75 11.156-1.9699 7.2232 2.625 14.437 2.625 14.437s-2.6221 0.01-7.2187-4.5938c-4.5962-4.5963-12.5 2.658-12.5-0.62498 0-3.2833-5.8987-5.2795-18.375-7.9062-12.476-2.6265-5.2741 3.9651-17.094 10.531-11.82 6.5667-0.6226 13.126-4.5625 11.813-3.9399-1.3133-0.6802 11.156-12.5 11.812-11.819 0.6568 0.00067 11.151 3.9375 20.344 3.9399 9.1932 17.751 9.2152 15.781 15.125-1.97 5.9095-0.65625 7.875-0.65625 7.875s-0.004 2.625 5.25 3.2812c5.2532 0.6568 15.75 0 15.75 0-0.00023 0 2.6512 8.53 10.531 10.5 7.8797 1.9701 0.625-4.5937 0.625-4.5937 0.00023 0 10.527 0.0002 17.75-0.6563 7.2232-0.6564 8.5312-8.5312 8.5312-8.5312s3.9354 9.1861 7.875 11.812c3.9398 2.6269 13.781-2 13.781-2s0.028 3.9654 1.3438 9.875c0.9407 4.2336 2.5645 14.343 3.5937 21h-975.06c-27.624 0-44.126-0.4224-44.126-0.4224v129.45h1040.7m2218.3-229.4c6.9229 0.5771 19.601 9.8102 15.562 8.6563-4.0383-1.1537-12.094-3.4688-12.094-3.4687zm-260.56 4.625-3.4687 5.1876c0.0001 0-8.0553 2.315-12.094 3.4687-4.0384 1.1539 8.6395-8.0793 15.562-8.6563zm-2054 3.875-3.9375 5.9063s-9.1847 2.6556-13.781 3.9687c-4.5965 1.3135 9.839-9.2182 17.719-9.875zm1350.7 3-3.4688 5.1876s-8.0554 2.315-12.094 3.4687c-4.0384 1.1539 8.6396-8.0793 15.562-8.6563zm-1054.2 2.2813c7.8797 0.6568 22.315 11.157 17.719 9.8437-4.5965-1.3132-13.75-3.9375-13.75-3.9374zm1314.7 2.3437c6.923 0.577 19.601 9.8102 15.562 8.6563-4.0383-1.1537-12.094-3.4688-12.094-3.4687zm-680.28 18.375-3.4687 5.1876s-8.0554 2.315-12.094 3.4687c-4.0384 1.1539 8.6394-8.0791 15.562-8.6563zm260.56 4.625c6.9229 0.577 19.601 9.8102 15.562 8.6563-4.0383-1.1537-12.094-3.4687-12.094-3.4687zm1072.1 2.625c4.2253-0.084 7.5937 0.3438 7.5937 0.3438-0.0001 0 4.6175 3.4569-6.3437 5.1875-10.962 1.7309-13.844-3.4376-13.844-3.4375l4.625-1.1562c2.5961-0.649 5.4335-0.8866 7.9688-0.9376zm-158.81 4.625c2.5354 0.051 5.3727 0.2883 7.9688 0.9376l4.625 1.1562c0-0.0001-2.8824 5.1684-13.844 3.4375-10.961-1.7306-6.3437-5.1875-6.3437-5.1875 0.0001 0 3.3683-0.4277 7.5937-0.3438zm-703.28 6.875c2.5354 0.051 5.3727 0.2885 7.9688 0.9376l4.625 1.1562c0-0.0001-2.8824 5.1684-13.844 3.4375-10.961-1.7306-6.3438-5.1875-6.3438-5.1875s3.3684-0.4275 7.5938-0.3438zm-1343.7 2.7813c2.8857 0.058 6.1076 0.3238 9.0625 1.0625l5.2812 1.3125c0-0.0001-3.3049 5.8763-15.781 3.9063s-7.2188-5.9063-7.2188-5.9063 3.8468-0.4705 8.6562-0.375zm1334.9 0.4687s0.2424 0.4788 0.4688 0.9688c-0.1925-0.1983-0.3703-0.42-0.5313-0.6562 0.044-0.1905 0.062-0.3126 0.062-0.3126zm167.56 1.375c4.2254-0.084 7.5936 0.3438 7.5937 0.3438 0 0 4.6175 3.4569-6.3437 5.1875-10.961 1.7309-13.844-3.4376-13.844-3.4375l4.625-1.1562c2.5961-0.6493 5.4333-0.8867 7.9687-0.9376zm-1321.8 3.4063c4.8094-0.096 8.656 0.4063 8.6563 0.4063 0 0 5.2574 3.9364-7.2188 5.9062-12.476 1.9701-15.75-3.9063-15.75-3.9062l5.25-1.3438c2.955-0.7388 6.1768-1.0046 9.0625-1.0625zm1173.2 3.8437s-0.0001 3.4643 1.1563 8.6563c0.1888 0.8497 0.4183 2.0202 0.6563 3.3125-3.5519-1.7582-6.2151-4.3855-5.7813-9.1562 0.044-0.4831 0.07-0.9219 0.062-1.3438 2.1857-0.6851 3.9062-1.4688 3.9062-1.4688zm-430 11.125c2.5354 0.051 5.3727 0.2885 7.9688 0.9376l4.625 1.1562c0-0.0001-2.8823 5.1684-13.844 3.4375-10.961-1.7306-6.3437-5.1875-6.3437-5.1875s3.3683-0.4275 7.5937-0.3438zm158.81 4.625c4.2254-0.084 7.5934 0.3438 7.5937 0.3438 0 0 4.6175 3.4569-6.3437 5.1875-10.962 1.7309-13.844-3.4376-13.844-3.4375l4.625-1.1562c2.5962-0.6493 5.4334-0.8866 7.9688-0.9376zm8.75 3.25s1.1538 6.9234 7.5 7.5c6.3459 0.577 15.593 0.5625 15.594 0.5626l-0.062 0.062h-27.656c2.5515-3.2547 4.625-8.125 4.625-8.125zm-151.5 0.5626s7.488 5.1921 16.719 7.5c0.1154 0.029 0.2016 0.037 0.3125 0.062h-17.156c-1.8055-4.0955 0.1249-7.5624 0.125-7.5624zm126.69 4.625s0.6491 1.1663 0.8438 2.9374h-5.875c3.0935-1.6137 5.0312-2.9375 5.0312-2.9374z"/>
    <g id="g10078">
      <path id="path9591" style="fill:#ffbbed" d="m2146.7 924.27c4.6965-8.0513 12.748-11.406 14.09-6.7094 1.3419 4.6965 12.748-14.09 14.09-5.3676 1.3419 8.7223 6.0385-3.3547 9.3932 6.7094s8.0512-0.6709 12.748 8.0513c4.6966 8.7222 6.0385 0.6709 16.102 10.064s21.47-12.748 16.774-12.748c-4.6966 0-2.0128-29.521-4.6966-27.509-2.6837 2.0129 6.0385-45.624 6.0385-45.624l-3.3547-13.419s-4.6966-6.7094-8.7222-0.6709c-4.0256 6.0384-9.3932-2.0129-10.735 2.0128-1.3419 4.0256 4.6965-22.812-0.671-20.799-5.3675 2.0128-2.6837-29.521-6.0384-28.18-3.3547 1.3419-10.735-4.6966-10.735-4.6966s-2.0129-11.406-6.7094-4.0256c-4.6966 7.3803-10.735-6.0384-10.735-6.0384s-0.6709-22.812-4.6965-17.444c-4.0257 5.3676-7.3804-18.115-12.748-12.077-5.3675 6.0385-21.47-18.786-26.167-14.09-4.6966 4.6966-18.786-11.406-18.786-11.406s-14.09-12.077-17.444-8.0512c-3.3547 4.0256-12.748-10.064-12.748-5.3675s-10.064-0.671-10.064 3.3547c0 4.0256-44.953-12.077-44.953-8.0513 0 4.0256-22.812-0.671-22.812 5.3675s-11.406 14.09-11.406 14.09-19.457 4.0257-20.128 8.7222c-0.6709 4.6966-23.483-2.6837-22.141 6.0385 1.3419 8.7222-34.889-14.09-34.218-8.0513 0.671 6.0385-35.56 0-32.205 7.3803 3.3547 7.3804-6.7093 22.812-6.7093 22.812l20.799 21.47s-31.534 10.064-23.483 12.077c8.0513 2.0129-7.3803 0-3.3547 3.3547s-14.761 3.3547-6.0385 7.3804c8.7223 4.0256-18.786 0-2.0128 3.3547 16.774 3.3547 6.0385 11.406 10.735 8.7222s-6.0385 12.748-3.3547 10.735c2.6837-2.0128-12.077 5.3675-1.3419 5.3675s-0.671 3.3547-7.3804 9.3932c-6.7093 6.0384-77.158 17.444-68.436 18.786 8.7222 1.3418-16.103 12.748-2.0129 17.444 14.09 4.6965 0.671 14.761 11.406 20.128 10.735 5.3676-14.09 13.419 12.077 24.154s3.3547 30.863 28.85 26.838c25.496-4.0256 22.812 20.799 31.534 10.064 8.7222-10.735 21.47 14.09 26.838 8.0513 5.3675-6.0385-7.3803 24.154 0 18.786 7.3803-5.3676-2.6838 22.141 10.064 8.7222s8.0513 8.0512 12.077 4.6965c4.0256-3.3547-3.3547 14.09 7.3803 0.671s9.3932 8.0512 15.432 3.3547c6.0385-4.6966 17.444 14.09 20.128 10.735 2.6838-3.3547-2.6838 14.761 6.7094 8.0513 9.3931-6.7094 4.6966 18.115 14.761 8.7222 10.064-9.3932 4.6965 12.077 17.444 2.0128s7.3803 14.09 22.141-4.6966c14.761-18.786 30.192 5.3675 34.889-2.0128 4.6966-7.3803 26.167-35.56 26.167-35.56s6.0385 35.56 10.064 18.786c4.0257-16.774 9.3931 3.3547 12.748-3.3547 3.3547-6.7094-3.3547 30.192 4.0256 11.406 7.3804-18.786 2.6838 9.3931 6.7094-2.0128 4.0257-11.406 6.7094 18.115 12.748 6.0384 6.0384-12.077 14.09 16.103 14.09 2.0128s12.748-3.3547 10.064-16.102c-2.6838-12.748 4.0256 0.6709 4.6965-11.406 0.671-12.077 26.167 16.774 26.167 0 0-16.773 0.6709-6.0384 2.0128-12.748 1.3419-6.7094 19.457 3.3547 15.432-6.0385-4.0256-9.3931 0.6709 2.0129 0-11.406s10.064-18.115 4.6966-18.115c-5.3675 0-0.671-18.786-5.3675-14.09-4.6966 4.6966-14.09-23.483-20.128-16.774-6.0385 6.7094-3.3547-13.419-9.3932-4.6965-6.0384 8.7222-10.735-9.3932-14.761 2.0128-4.0257 11.406-15.432 11.406-15.432 11.406z"/>
      <path id="path9593" style="fill:#bb88ab" d="m2209.2 1135.1s26.903-21.522 13.452-32.284c-13.452-10.761-17.487-14.797-17.487-14.797s0.1274-18.021-25.43-43.579c-25.558-25.558-60.659-2.1561-59.314-19.643 1.3452-17.487 4.0355-34.974-4.0355-40.355-8.0709-5.3806-29.593-4.0355-29.593-4.0355s10.094 1.3353 10.094-17.497-4.713-39-4.713-39 1.3452 22.868-2.6903 33.629c-4.0354 10.761-22.868 44.39-34.974 17.487s-13.452-24.213 1.3451-32.284c14.797-8.0709 29.593-30.938 29.593-30.938s-24.21 26.226-39.006 23.535c-14.797-2.6903-13.455 3.3678-13.455 8.7484 0 5.3805-2.6903 10.761-2.6903 10.761s5.3806 9.4161-8.0709-2.6903-18.832-32.284-18.832-32.284l-12.777-9.3702s9.3866 31.56 18.803 39.631c9.4161 8.0709 19.532 16.819 19.532 16.819l12.106 17.487s-21.522 2.6903-37.664-13.452-47.08 0-53.806-12.106c-6.7258-12.106-14.797-47.08-14.797-47.08s-2.7067 22.877 2.6739 32.294c5.3806 9.416 6.7422 21.513 6.7422 21.513s-20.177 14.797-29.593 1.3451-20.177-32.284-20.177-32.284 1.3189 23.529 12.08 31.6c10.761 8.0709 5.3099 20.998 39.026 7.4294 41.686-16.777 63.186 16.79 87.379 19.487 16.91 1.885 33.694-11.435 43.11 0.6709 9.4161 12.106 4.0355 29.593 20.177 39.009 16.142 9.4161 52.461-4.0354 43.045 24.213s-25.558 34.974-36.319 34.974-21.522 10.761-34.974 20.177c-13.452 9.4161 0-13.452-24.213 2.6903s-64.567 22.868-64.567 22.868z"/>
      <path id="path9595" style="fill:#daaeca" d="m2199.8 1127.1c21.522-16.142 34.974-13.452 25.558-28.248-9.4161-14.797-18.152-6.4491-22.187-30.662-4.0354-24.213-0.9953-31.565-30.589-34.255-29.593-2.6903-17.172-9.0663-26.588-13.102-9.4161-4.0355-8.3739 9.0772-20.177-12.106-10.688-19.182-17.894-36.596-36.726-33.905-18.832 2.6903 1.7521 4.3121 11.168 24.489 9.4161 20.177 9.4161 28.248 32.284 37.664s51.116 18.832 25.558 43.045-51.116 28.248-55.151 36.319c-4.0354 8.0709 30.938-21.522 43.045-16.142 12.106 5.3806-8.0709 26.903-8.0709 26.903s0-20.177 29.593-17.487c29.593 2.6903 8.0709 14.797 8.0709 14.797z"/>
      <path id="path9597" style="fill:#ffdfef" d="m1974.3 795.98c-5.3675 0.6709-10.064 4.6965-3.3547 10.735 6.7094 6.0384-10.064-3.3547-4.0256 4.0256 6.0384 7.3804-12.077 2.0128-6.7094 11.406 5.3675 9.3931-9.3932 0-5.3675 8.0513 4.0256 8.0512-12.077 3.3547-8.0513 9.3931 4.0256 6.0385-12.077 9.3932-7.3803 13.419 4.6965 4.0256-18.115 12.077-3.3547 12.748 14.761 0.671 4.0256 5.3675 14.09 6.0385 10.064 0.6709 12.748-8.7222 12.748-8.7222s2.0129 13.419 2.6838 3.3547 6.0384 6.0384 6.7094 0c0.6709-6.0385 6.0384 8.7222 8.0513 0.6709 2.0128-8.0513 9.3931 11.406 9.3931 4.0256 0-7.3803 10.064 10.735 10.064 4.6966s10.064 12.748 10.064 5.3675c0-7.3803 4.6966-8.0512 4.6966-8.0512s6.0384-16.774-3.3547-12.077c-9.3932 4.6965-14.761-14.09-16.103-8.0513-1.3419 6.0384-2.0128-14.09-2.0128-11.406 0 2.6838-4.0256-12.748-6.7094-6.0384-2.6838 6.7094-8.7222-11.406-8.7222-7.3804 0 4.0257-1.3419-20.799 0-16.102 1.3419 4.6966-3.3547-16.102-3.3547-16.102z"/>
      <path id="path9599" style="fill:#efaada" d="m1970.3 781.88c24.154-3.3547 41.598-15.432 39.585 1.3419-2.0128 16.773 14.761 3.3547 13.419 14.09-1.3419 10.735 17.444-3.3547 16.102 7.3803-1.3419 10.735 15.432 9.3932 12.748 16.774-2.6837 7.3803 8.0513 10.735 4.0257 20.128-4.0257 9.3931 15.432 8.7222 9.3931 17.444-6.0384 8.7222-4.6965 22.141-8.7222 27.508-4.0256 5.3675 4.6966 1.3419-1.3419 12.077-6.0384 10.735-0.6709 20.799-3.3547 24.825-2.6837 4.0257-1.3418 4.6966 3.3547 9.3932 4.6966 4.6966 8.7222-0.6709 8.7222 3.3547s18.115-11.406 12.748 1.3419c-5.3675 12.748 10.064 3.3547 8.0513 12.748-2.0129 9.3932 3.3547 11.406 3.3547 16.102 0 4.6966 36.902-14.09 36.902-4.6965 0 9.3931 17.444-20.799 23.483-11.406 6.0384 9.3932 16.102-12.748 24.154-5.3675 8.0512 7.3803 12.077-26.838 18.786-19.457 6.7094 7.3803-1.3418-15.432 10.064-9.3932 11.406 6.0385-1.3418-16.102 4.6966-13.419 6.0385 2.6838-8.0513-6.0384-0.6709-6.0384 7.3803 0-8.0513-8.0513-2.0128-14.09 6.0384-6.0385-11.406 12.077-5.3676-6.0385 6.0385-18.115-3.3547-6.7094-2.0128-20.799s1.3419-40.927 1.3419-40.927-15.432 13.419-15.432-2.6838c0-16.102-8.7222 9.3932-10.064-6.0384-1.3419-15.432 20.799 12.077 19.457-10.064-1.3418-22.141-3.3546-31.534-3.3546-31.534s-2.0129-17.444-4.0257-10.064c-2.0128 7.3803-2.0128-5.3675-4.6966 0-2.6837 5.3675-7.3803-4.0257-11.406 0.6709s-5.3675-5.3675-10.064 2.6838c-4.6965 8.0512-14.761-8.7222-21.47-0.671-6.7094 8.0513-22.812-8.7222-22.812-5.3675s-18.115-11.406-19.457-6.7094c-1.3419 4.6966-20.128-5.3675-20.128-5.3675s-10.735-3.3547-14.09 2.0128c-3.3547 5.3675-16.774 0-20.799 5.3675-4.0256 5.3676-10.064 4.0257-12.077 7.3804-2.0128 3.3547-6.0385-0.671-9.3932 4.6965-3.3546 5.3676-2.6837 1.3419-6.7093 7.3804-4.0257 6.0384-12.077 6.7094-12.077 6.7094s-7.3803-2.6838-10.735-0.671c-3.3546 2.0128-0.6709-4.0256-6.0384 0-5.3675 4.0257-12.077 9.3932-12.077 9.3932z"/>
      <path id="path9601" style="fill:#efaada" d="m1936.8 755.05c6.7094 5.3675 12.077-9.3932 14.761-3.3547 2.6837 6.0384 11.406-8.0513 18.115 2.6837 6.7094 10.735 25.496 1.3419 24.825 10.735s11.406 18.115 2.0128 18.115-14.09-19.457-16.102-12.077c-2.0129 7.3803-6.0385-3.3547-8.7223 1.3419-2.6837 4.6966-8.0512-9.3932-8.0512-5.3675 0 4.0256-6.7094-9.3932-6.7094-4.0257 0 5.3676-7.3804-6.7093-7.3804-1.3418s-0.6709-1.3419-2.6837 2.6837c-2.0128 4.0257-10.064-9.3931-10.064-9.3931z"/>
      <path id="path9603" style="fill:#ffdfef" d="m2161.5 846.97c0 3.3547 4.6965-2.6837 4.6965 0.671s2.6838 4.0256 2.6838 4.0256l2.0128 3.3547 10.064-4.0256s4.6966-2.0128 4.6966 0.6709c0 2.6838-5.3675 2.6838-5.3675 5.3675 0 2.6838-1.3419-0.6709-1.3419 2.0128 0 2.6838-1.3419 2.0129-1.3419 2.0129l-2.6838 2.0128-0.6709 0.6709s-1.3419 0-1.3419 2.6838c0 2.6837-1.3419 6.0384-1.3419 6.0384l-3.3547 2.0128-1.3418-7.3803-4.0257-1.3419h-6.0384l-4.0257-4.0256 4.6966-4.6966-0.6709-9.3931z"/>
      <path id="path9605" style="fill:#ffdfef" d="m2050 799.18c0 5.3675-12.748-17.444-11.406-6.7094 1.3419 10.735-16.102-0.671-12.748 9.3931 3.3546 10.064-8.7223 5.3675-6.0385 11.406 2.6838 6.0384-24.154 9.3931-14.09 12.748 10.064 3.3547 3.3547 17.444 6.7094 12.077 3.3547-5.3675-6.7094 14.761 1.3418 8.0513 8.0513-6.7094 10.064 11.406 10.064 0.6709s5.3675 2.0129 5.3675-5.3675c0-7.3803 9.3932 5.3675 8.7223-0.6709-0.671-6.0385 8.7222 3.3547 7.3803-3.3547s8.7222 0 6.7094-5.3675 8.7222-14.761-1.3419-17.444c-10.064-2.6838-0.6709-3.3547-6.7094-8.7223-6.0384-5.3675 6.0385-6.7093 6.0385-6.7093z"/>
    </g>
    <g id="g10008">
      <path id="path9720" style="fill:#ffbbed" d="m-654.73 908.96c-4.133-9.7579-13.713-13.579-16.564-7.7228-2.8514 5.856-13.072-16.894-16.884-6.0651-3.8126 10.83-6.9846-3.9018-13.713 8.6662-6.7281 12.568-10.22-0.50536-18.358 10.459-8.1379 10.964-7.9457 1.0714-23.164 13.08s-24.638-14.886-18.583-15.075c6.0554-0.1887 9.6435-36.552 12.623-34.173 2.9796 2.3789 3.1074-56.121 3.1074-56.121l7.5291-16.712s7.6573-8.4775 11.406-1.1793c3.7486 7.2982 12.591-2.8641 13.36 2.0553 0.769 4.9193-0.60879-27.993 5.831-25.722s10.509-36.579 14.513-35.056c4.0049 1.523 14.962-6.2335 14.962-6.2335s5.3185-14.172 9.6116-5.2428c4.2933 8.929 15.283-7.8912 15.283-7.8912s6.3115-28.209 10.22-21.74c3.9088 6.4694 13.841-22.676 19.319-15.432 5.4787 7.2444 32.167-24.071 37.101-18.458 4.934 5.6135 26.945-14.846 26.945-14.846s21.049-15.486 24.414-10.647c3.3641 4.8385 18.839-12.945 17.717-7.1432-1.1213 5.8021 13.136-1.2333 12.175 3.7401-0.96113 4.9732 60.842-16.726 59.881-11.753-0.96113 4.9733 29.572-1.7455 28.13 5.7145-1.4417 7.46 11.342 16.948 11.342 16.948s24.125 4.1916 23.869 9.9668c-0.25629 5.7753 30.918-4.259 27.105 6.5704-3.8126 10.829 48.347-18.808 46.04-11.321-2.3068 7.487 45.848-1.4287 39.76 7.8238-6.0874 9.2526 3.2039 27.913 3.2039 27.913l-31.943 27.36s38.255 11.166 27.393 13.976c-10.861 2.8102 9.5155-0.29653 3.5243 4.0096-5.9912 4.3062 18.23 3.5514 6.0234 8.8752-12.207 5.3237 24.221-0.75478 1.7942 4.0636-22.427 4.8183-10.509 14.334-15.923 11.207-5.4145-3.1269 4.7419 15.506 1.7622 13.127-2.9796-2.3788 14.289 6.1458 0.44861 6.5771-13.841 0.4313 0.0642 4.1175 7.273 11.308 7.2087 7.1903 95.316 18.451 83.75 20.459-11.566 2.0081 17.718 15.102-1.5697 21.47-19.287 6.3682-4.3893 18.262-19.512 25.325-15.122 7.0625 14.962 16.012-21.338 30.325s-11.694 38.263-43.605 34.314c-31.911-3.9489-34.378 26.612-43.06 13.7-8.6826-12.912-31.046 18.269-36.524 11.025-5.4787-7.2444 3.7487 29.543-4.4853 23.209-8.234-6.3347-1.826 27.245-15.058 11.18-13.232-16.066-12.303 10.27-16.692 6.2873-4.3894-3.9827 0.96125 17.272-9.6758 1.1255s-14.033 10.324-20.697 4.7644c-6.6641-5.5596-25.855 18.107-28.515 14.071-2.6593-4.0366-0.064 18.128-10.573 10.216-10.509-7.9114-10.38 22.568-21.114 11.368-10.733-11.2-8.9388 15.109-22.972 3.1875-14.033-11.921-12.88 17.703-27.425-4.9126-14.546-22.616-40.209 7.8441-44.502-1.0849-4.2933-8.929-25.247-42.88-25.247-42.88s-16.276 44.173-17.461 23.613c-1.1856-20.56-12.912 4.5218-15.635-3.6323-2.7234-8.154-2.8833 37.165-7.9135 14.253-5.0303-22.912-5.7029 11.712-8.17-2.217-2.4672-13.929-12.976 22.649-17.878 7.972s-22.011 20.459-18.647 3.0527-15.635-3.6322-9.1312-19.489c6.5039-15.857-5.3504 0.9906-3.332-13.902 2.0183-14.893-37.742 21.773-33.737 1.0513 4.0047-20.722 0.57669-7.4329 0.44846-15.668-0.12823-8.2349-25.887 4.9262-18.454-6.84 7.4329-11.766-1.3456 2.5137 2.7232-14.091s-8.6506-21.976-1.7302-22.191c6.9204-0.21565 5.3504-23.236 10.284-17.622 4.9341 5.6135 23.773-29.577 29.956-21.531 6.1836 8.0462 7.529-16.712 13.232-6.1795 5.7029 10.533 16.083-12.036 18.55 1.8936 2.4672 13.929 17.173 13.471 17.173 13.471z"/>
      <path id="path9722" style="fill:#bb88ab" d="m-785.66 1172s-29.548-25.508-9.6354-39.343c19.912-13.835 26.079-18.983 26.079-18.983s4.1384-22.258 43.193-54.86c39.054-32.601 78.723-5.1008 81.164-26.65 2.4408-21.55 3.1472-43.045 14.838-50.016 11.691-6.9715 39.119-6.1745 39.119-6.1745s-13.333 2.0552-8.8363-21.21c4.4962-23.265 15.388-48.37 15.388-48.37s-7.194 28.305-4.5604 41.437 18.885 53.921 40.917 20.198 23.124-30.453 5.9736-39.829c-17.151-9.3764-30.768-37.033-30.768-37.033s24.952 31.427 44.672 27.509c19.72-3.9181 16.543 3.62 15.259 10.267-1.2846 6.6471 0.89938 13.186 0.89938 13.186s-9.1854 11.849 11.048-3.6479c20.234-15.497 31.988-40.64 31.988-40.64l18.711-12.089s-19.637 39.367-33.705 49.716c-14.067 10.349-29.199 21.563-29.199 21.563l-19.784 22.09s27.107 2.4589 51.773-18.131 60.701-1.8916 72.263-17.118c11.562-15.227 30.318-58.758 30.318-58.758s-1.9723 28.154-11.158 40.003c-9.1854 11.849-13.829 26.848-13.829 26.848s22.482 17.469 37.834 0.47276 33.723-40.694 33.723-40.694-7.3181 29.121-23.12 39.524-11.86 26.155-52.09 10.746c-49.741-19.051-85.475 23.281-117.31 27.585-22.253 3.0082-40.712-12.774-55.743 2.5609s-12.269 36.722-35.329 49.003-66.675-2.8776-61.279 31.642c5.3959 34.52 24.602 42.18 38.476 41.748 13.875-0.4323 25.18 12.43 40.275 23.522s3.2116-16.618 30.575 2.3508c27.364 18.969 77.788 25.657 77.788 25.657z"/>
      <path id="path9724" style="fill:#daaeca" d="m-771.59 1161.6c-23.895-19.077-41.881-15.213-26.208-33.871s24.943-8.6966 35.927-38.771c10.984-30.075 8.8195-39.036 47.617-43.548 38.797-4.5127 24.305-11.891 37.409-17.254 13.104-5.3638 8.6294 10.878 28.905-15.767 18.36-24.127 31.808-45.93 55.446-43.363s-3.2886 5.3976-20.246 30.703c-16.958 25.306-18.885 35.276-50.616 47.828-31.732 12.551-70.4 25.319-43.229 54.205s59.16 32.844 62.436 42.653c3.276 9.8087-34.751-25.346-51.644-18.212-16.894 7.1336 3.9827 32.912 3.9827 32.912s4.8174-24.927-33.98-20.415c-38.797 4.5126-13.939 18.604-13.939 18.604z"/>
      <path id="path9726" style="fill:#ffdfef" d="m-401.8 743.55c6.7602 0.61318 11.854 5.3977 1.7622 13.127-10.092 7.7294 13.777-4.5488 4.2291 4.8115-9.5475 9.3604 15.09 2.0014 5.9273 13.821-9.163 11.82 12.111-0.37739 4.9981 9.731-7.1125 10.108 14.77 3.6592 8.138 11.281s13.328 11.119 6.3117 16.281c-7.0164 5.162 20.473 14.192 1.2817 15.614s-6.4718 6.7928-19.608 8.0261c-13.136 1.2332-14.353-10.263-14.353-10.263s-5.7991 16.659-4.2612 4.2522c1.5378-12.406-9.2271 7.7025-8.6505 0.26956 0.57672-7.433-9.8679 11.018-10.541 1.1523-0.67284-9.8658-14.834 14.468-13.072 5.3506 1.7621-9.1177-15.539 13.667-14.097 6.2066 1.4417-7.4599-16.019 16.153-14.257 7.0354 1.7621-9.1177-4.1331-9.7578-4.1331-9.7578s-3.7807-20.48 7.2087-15.055c10.989 5.4247 22.395-18 22.684-10.594 0.28843 7.406 5.9591-17.487 5.3184-14.172-0.64077 3.3156 8.2339-15.91 10.092-7.7294 1.8584 8.181 13.969-14.442 13.008-9.4682-0.96115 4.9734 6.696-25.749 3.8446-19.893-2.8515 5.8561 8.1698-20.028 8.1698-20.028z"/>
      <path id="path9728" style="fill:#efaada" d="m-393.18 725.97c-30.341-3.174-49.949-17.393-51.358 3.2482-1.4096 20.641-19.832 4.7375-20.665 17.946-0.83294 13.208-21.69-3.4436-22.523 9.7646-0.83294 13.208-22.139 12.224-20.441 21.234 1.6981 9.0098-12.944 13.586-9.996 25.028 2.9477 11.443-21.979 11.395-16.276 21.928s0.76909 27.164 4.6779 33.634c3.9088 6.4693-6.3758 1.8465-1.1533 14.866 5.2224 13.019-4.1008 25.668-1.6018 30.534 2.4991 4.8656 0.60877 5.7483-6.5679 11.739-7.1767 5.9909-11.085-0.4784-12.047 4.4949-0.96114 4.9732-20.633-13.363-16.756 2.17 3.8768 15.533-13.777 4.5488-13.424 16.072 0.35248 11.524-7.0485 14.226-8.1698 20.028-1.1213 5.8022-44.214-15.924-46.457-4.3195-2.2426 11.604-17.525-24.994-27.554-13.148-10.028 11.847-17.718-15.102-29.86-5.6606-12.143 9.4412-9.1632-32.67-19.576-23.283-10.413 9.3872 5.4144-19.118-10.733-11.2-16.148 7.9183 5.5746-19.947-2.8516-16.389-8.4263 3.5582 11.822-7.7834 2.3067-7.4868-9.5155 0.29652 12.303-10.27 5.9591-17.487-6.3437-7.2174 11.822 14.462 8.3622-7.6757-3.4604-22.137 5.9272-8.4236 7.561-25.776 1.6339-17.353 8.0415-50.508 8.0415-50.508s16.692 15.958 20.537-3.9356c3.8446-19.893 9.0029 11.254 14.417-7.8642 5.4145-19.118-29.7 15.756-22.684-11.652 7.0163-27.407 11.854-39.092 11.854-39.092s6.7602-21.632 7.5932-12.595c0.83305 9.0368 3.8766-6.7119 6.0553-0.1887 2.1786 6.5232 10.477-5.2699 14.546 0.37058s8.2019-6.8467 12.335 2.9112c4.1331 9.7578 21.114-11.369 27.842-1.6916 6.7282 9.6771 31.494-11.692 30.693-7.5476-0.80095 4.1444 26.08-14.819 26.688-9.0706 0.60877 5.7483 27.233-7.4398 27.233-7.4398s14.642-4.5757 17.686 1.9205c3.0437 6.4963 21.626-0.67392 25.535 5.7954 3.9088 6.4694 12.015 4.569 13.809 8.6326 1.7942 4.0636 7.9457-1.0716 10.989 5.4247 3.0437 6.4964 3.1398 1.55 6.8884 8.8482 3.7486 7.2981 13.969 7.8036 13.969 7.8036s10.156-3.6121 14.001-1.2603c3.8446 2.3518 1.8262-5.0002 7.7854-0.24261 5.9592 4.7577 13.328 11.119 13.328 11.119z"/>
      <path id="path9730" style="fill:#efaada" d="m-343.58 691.48c-9.932 6.9006-13.328-11.119-18.23-3.5514-4.9018 7.5677-12.784-9.4884-23.997 4.0433-11.214 13.532-33.192 2.6821-34.57 14.26-1.3775 11.577-19.031 22.838-6.9202 22.461 12.111-0.37739 22.812-24.604 23.645-15.567 0.83318 9.0368 8.5865-4.387 10.925 1.3074 2.3388 5.6944 12.623-11.928 11.662-6.9545-0.96113 4.9732 10.893-11.874 9.6117-5.243-1.2815 6.6312 11.118-8.5852 9.836-1.9542-1.2815 6.631 1.1854-1.6848 2.8194 3.2076 1.634 4.8925 15.218-12.009 15.218-12.009z"/>
      <path id="path9732" style="fill:#ffdfef" d="m-655.32 814.07c-0.80095 4.1444-5.4146-3.1268-6.2156 1.0177-0.80095 4.1444-4.4213 5.0811-4.4213 5.0811l-3.3961 4.2253-12.015-4.5689s-5.5748-2.2979-6.2156 1.0175c-0.64077 3.3156 6.2796 3.0999 5.6389 6.4154-0.64077 3.3156 1.8903-0.88275 1.2496 2.4327-0.64077 3.3156 1.2496 2.4328 1.2496 2.4328l2.9797 2.3788 0.70482 0.80188s1.7301-0.0539 1.0894 3.2617c-0.64075 3.3155 0.28838 7.406 0.28838 7.406l3.8447 2.3518 3.4922-9.1716 5.5107-1.8195 7.7855-0.24261 6.1514-5.135-4.934-5.6135 3.1077-11.631z"/>
      <path id="path9734" style="fill:#ffdfef" d="m-500.09 750.54c-1.2815 6.631 20.601-22.063 16.308-8.7471-4.2932 13.316 20.921-1.4759 14.193 11.092s9.9643 6.2806 5.0623 13.848c-4.902 7.5677 28.899 10.634 15.122 15.183-13.777 4.5488-8.4902 21.686-11.534 15.189-3.0438-6.4963 5.1263 17.966-3.6523 10.001-8.7788-7.9654-15.699 14.495-13.136 1.2332s-7.401 2.7024-5.6389-6.4154c1.7621-9.1177-13.392 7.0084-11.086-0.4784 2.3068-7.487-12.047 4.4949-8.7146-3.8479 3.332-8.3428-11.246 0.35044-7.369-6.3615 3.8766-6.7119-7.7215-17.885 5.8951-21.605 13.617-3.7199 1.666-4.1714 10.733-11.045 9.0669-6.8737-6.1836-8.0461-6.1836-8.0461z"/>
    </g>
    <g id="g10026">
      <path id="path9766" style="fill:#ffbbed" d="m13.25 835.36c7.0407-12.938 16.382-18.019 16.567-10.264 0.18464 7.7548 17.083-22.412 16.217-8.0682-0.86658 14.344 7.2254-5.1833 8.1248 11.459 0.89948 16.642 8.6409-0.68849 11.302 13.826 2.6609 14.514 6.1742 1.4052 14.304 17.29 8.1295 15.885 25.904-19.772 20.966-20.01-4.9384-0.2389 5.5922-48.418 2.2447-45.261-3.3475 3.1579 18.263-74.363 18.263-74.363l-0.0235-22.132s-3.1864-11.22-8.9961-1.5417c-5.8096 9.678-9.3512-3.7722-11.813 2.7482-2.4622 6.5202 10.895-37.096 4.7255-34.075-6.1694 3.0212 4.8868-48.453 1.009-46.427-3.8778 2.0256-10.061-8.2327-10.061-8.2327s0.86178-18.77-6.0037-6.9298-9.711-10.429-9.711-10.429 5.2512-37.369-0.38318-28.789c-5.6346 8.5801-3.0301-30.024-10.251-20.414-7.2206 9.6098-17.67-31.839-23.835-24.391-6.1648 7.4478-16.775-19.623-16.775-19.623s-11.662-20.482-16.24-14.064c-4.5786 6.4178-10.776-17.12-12.003-9.4331-1.2264 7.6865-10.407-1.6101-11.458 4.9785-1.0512 6.5885-44.114-22.052-45.165-15.464-1.0512 6.5885-23.811-2.2586-25.388 7.6243-1.5768 9.8829-15.672 22.48-15.672 22.48s-21.51 5.5989-23.442 13.251c-1.9319 7.6525-23.991-5.5868-24.858 8.7566-0.86658 14.343-33.006-24.835-33.877-14.918-0.87123 9.917-37.391-1.8088-35.79 10.441 1.6002 12.25-13.011 36.994-13.011 36.994l16.264 36.197s-35.786 14.867-27.846 18.571c7.9402 3.704-7.7603-0.3754-4.4034 5.3198s-16.397 4.7396-8.2766 11.772c8.1202 7.0322-19.754-0.9556-2.9924 5.3881 16.761 6.3437 3.3711 18.975 9.0103 14.821 5.6391-4.1535-9.6781 20.556-6.3306 17.399 3.3475-3.1577-14.1 8.1704-2.8126 8.7164 11.288 0.54606-1.5815 5.4563-10.213 14.998-8.6315 9.5414-85.686 24.626-76.865 27.265 8.8209 2.6397-20.26 20.045-6.6716 28.448 13.589 8.4032-3.1488 24.192 6.7374 33.523 9.8861 9.3309-18.319 21.245 6.3916 40.146 24.711 18.9-4.5316 50.683 23.328 45.391 27.86-5.2916 18.555 35.201 30.53 18.075 11.974-17.126 18.896 24.152 26.117 14.542 7.2206-9.6098-14.067 39.156-4.9055 30.747 9.1619-8.4094-8.6034 36.1 8.3047 14.787s6.3635 13.586 11.472 8.3008c5.1089-5.2857-7.2066 22.889 7.5851 1.4736 14.792-21.416 7.7744 13.655 15.35 6.2754 7.5757-7.3795 14.663 23.947 18.361 18.593 3.6979-5.3539-6.6763 24.022 4.9525 13.518 11.629-10.503 0.20811 29.887 13.243 15.026s1.7848 20.004 17.817 4.1816c16.032-15.823 4.0812 23.435 24.507-6.5604 20.426-29.996 30.345 10.32 37.211-1.5196 6.8655-11.84 36.799-56.868 36.799-56.868s-2.9361 58.506 5.6767 31.258c8.6129-27.248 9.0008 5.9682 14.28-4.842 5.2794-10.81-11.411 49.243 1.2545 18.872s0.36925 15.51 7.5804-2.953c7.2113-18.463 2.3246 29.99 11.827 10.531 9.5028-19.458 10.61 27.071 14.29 4.0109 3.6791-23.06 14.28-4.842 14.787-25.842 0.50674-21 4.0577 1.3028 7.9167-18.429 3.8591-19.731 23.134 28.783 27.514 1.331 4.3799-27.452 2.2822-9.8486 5.4452-20.761 3.163-10.913 19.583 6.4802 17.803-9.0979-1.7801-15.578 0.17983 3.3285 2.9783-18.667s15.313-29.137 9.6687-29.41c-5.6439-0.27302 4.2-30.781-1.9647-23.333-6.1648 7.4478-8.6834-39.15-16.785-28.476-8.1013 10.674-0.02352-22.132-8.6504-8.1643-8.6268 13.968-8.835-15.919-16.046 2.5434-7.2113 18.463-19.204 17.883-19.204 17.883z"/>
      <path id="path9768" style="fill:#bb88ab" d="m23.906 1183.6s33.908-33.856 22.574-52.152-14.524-25.106-14.524-25.106 4.8397-29.488-15.36-72.617-63.219-6.6143-57.239-35.166c5.9806-28.552 13.376-57.035 6.2942-66.251-7.0815-9.2167-30.063-8.11-30.063-8.11s10.265 2.6988 15.182-28.123c4.9175-30.821 5.228-64.068 5.228-64.068s-4.5568 37.494-11.61 54.901-35.636 71.487-41.341 26.841c-5.7047-44.646-7.8216-40.312 9.8443-52.768 17.666-12.457 39.196-49.13 39.196-49.13s-32.304 41.691-47.16 36.535c-14.856-5.1557-15.027 4.8275-16.432 13.634-1.405 8.806-5.6388 17.475-5.6388 17.475s3.1989 15.684-7.784-4.8136-11.372-53.795-11.372-53.795l-10.988-15.986s1.6288 52.13 9.4222 65.819c7.7934 13.688 16.146 28.521 16.146 28.521l8.1635 29.236s-23.333 3.3083-36.091-23.931c-12.758-27.24-49.504-2.3948-53.415-22.551-3.9109-20.156-3.2649-77.806-3.2649-77.806s-8.8198 37.305-5.6209 52.989 1.4719 35.551 1.4719 35.551-25.08 23.19-31.468 0.69614c-6.3883-22.494-12.786-53.863-12.786-53.863s-4.757 38.575 4.4508 52.332 0.10015 34.637 39.095 14.144c48.214-25.337 62.055 30.693 86.79 36.337 17.289 3.9452 38.415-17.002 45.155 3.2909 6.7396 20.293-3.4842 48.639 11.03 64.871s56.216-3.936 38.939 41.817-36.006 55.94-47.321 55.393c-11.315-0.5474-25.441 16.517-42.043 31.244-16.603 14.727 3.5125-22.015-26.162 3.1714-29.674 25.187-73.863 34.142-73.863 34.142z"/>
      <path id="path9770" style="fill:#daaeca" d="m16.112 1170c26.845-25.324 40.287-20.236 34.25-44.932-6.0372-24.696-17.402-11.478-15.323-51.311 2.0793-39.833 7.1957-51.711-23.219-57.62-30.415-5.9083-15.689-15.712-24.536-22.795-8.8471-7.0836-11.175 14.43-18.055-20.84-6.2295-31.938-9.2593-60.804-29.764-57.359-20.504 3.4452 0.71634 7.1465 5.3485 40.648 4.6321 33.502 2.5247 46.711 24.111 63.285s48.83 33.422 15.634 71.749c-33.196 38.328-61.124 43.632-67.474 56.636-6.3507 13.004 38.151-33.651 49.476-24.229 11.325 9.4219-15.511 43.62-15.511 43.62s5.2687-33.023 35.683-27.115c30.414 5.9084 4.6227 24.628 4.6227 24.628z"/>
      <path id="path9772" style="fill:#ffdfef" d="m-134.55 616.63c-5.819 0.825-11.809 7.1746-6.3306 17.399 5.4781 10.224-9.7063-6.0024-5.284 6.3837 4.4221 12.386-13.224 2.6799-10.033 18.326 3.1911 15.646-9.8768-0.4778-7.7462 12.904 2.1305 13.382-13.575 4.8762-10.919 14.964 2.6561 10.088-15.151 14.759-11.264 21.586 3.8871 6.8274-22.202 18.844-6.8561 20.693 15.345 1.849 2.8313 8.9895 13.238 10.6 10.407 1.61 15.682-13.627 15.682-13.627s-1.3874 22.064 1.946 5.627 4.7726 10.19 7.0548 0.34129c2.2822-9.8488 4.0718 14.582 8.2906 1.5076 4.2188-13.075 6.8984 19.145 8.8256 7.0663s7.7791 18.081 9.3559 8.1986c1.5768-9.8827 7.2535 21.376 9.1807 9.2966s7.0407-12.938 7.0407-12.938 10.729-27.145-0.37389-19.936c-11.103 7.2087-11.841-23.811-14.829-13.996-2.9878 9.8145 1.5627-23.162 0.86191-18.77-0.7008 4.3924-0.90415-21.068-5.4781-10.224s-6.1929-19.111-7.2441-12.523c-1.0512 6.5886 4.0201-34.109 4.2047-26.354 0.18461 7.7549 0.67728-26.525 0.67728-26.525z"/>
      <path id="path9774" style="fill:#efaada" d="m-135.15 593.35c26.273-4.2618 47.769-23.14 41.273 4.2098-6.4963 27.35 14.645 6.2413 10.431 23.742-4.2141 17.501 19.219-4.6031 15.004 12.898-4.2141 17.501 13.773 16.158 9.0243 28.101-4.7491 11.942 5.6627 17.979-1.023 33.147-6.6856 15.168 13.949 15.06 5.3217 29.028-8.6269 13.968-10.72 35.998-16.354 44.578-5.6345 8.5799 4.588 2.4351-4.5645 19.697s-6.1366 34.007-10.01 40.459c-3.8731 6.4521-2.6374 7.6184 1.0747 15.544 3.712 7.9256 9.3465-0.65436 8.2953 5.9341s22.026-17.746 13.054 2.8446c-8.9726 20.591 9.7063 6.0024 5.1371 21.273s0.54907 18.838-0.67729 26.525c-1.2264 7.6867 42.481-21.183 40.028-5.8094-2.4527 15.373 23.774-33.153 27.67-17.473 3.8966 15.68 20.26-20.045 26.799-7.5561 6.5386 12.488 19.707-43.309 24.834-30.889 5.1277 12.42 2.6186-25.324 13.035-14.861s2.7938-26.422 8.4423-21.723c5.6486 4.6996-6.8891-10.292 0.87131-9.9168 7.7603 0.37541-6.3635-13.587 1.5627-23.162 7.9261-9.5757-15.147 19.185-4.0672-10.156s-1.7755-11.152 3.3146-34.143c5.0901-22.992 12.098-66.915 12.098-66.915s-19.73 21.177-15.525-5.1774c4.2047-26.354-11.624 14.93-9.0055-10.395 2.6185-25.324 18.716 20.824 23.087-15.482 4.3706-36.305 4.7069-51.781 4.7069-51.781s2.4386-28.653-1.605-16.676-0.71487-8.8871-4.9384-0.2389c-4.2234 8.6482-6.7091-6.964-12.168 0.51785-5.4594 7.4819-4.2423-9.0577-11.283 3.8805s-13.243-15.026-22.4-2.1903c-9.1572 12.836-21.709-15.436-22.585-9.945-0.87598 5.4904-16.07-19.589-18.707-11.971-2.6374 7.6184-19.763-9.8085-19.763-9.8085s-10.412-6.0365-15.341 2.5775c-4.929 8.6141-17.637-0.8532-23.272 7.7267-5.6345 8.5801-11.633 6.0767-14.626 11.465-2.9924 5.3881-6.1741-1.4054-11.103 7.2087-4.929 8.6142-3.1723 2.0597-8.982 11.738-5.8097 9.678-14.451 10.367-14.451 10.367s-7.0595-4.7678-11.113-1.6442c-4.053 3.1236 0.34568-6.6226-6.3494-0.30716-6.695 6.3156-15.151 14.759-15.151 14.759z"/>
      <path id="path9776" style="fill:#efaada" d="m-163.37 547.73c5.6533 9.126 15.151-14.759 16.397-4.7396 1.2451 10.019 14.096-12.597 18.347 5.3137 4.2517 17.911 26.458 3.4931 23.3 18.832-3.1583 15.339 7.2629 30.228-2.6138 29.751-9.8768-0.4778-9.7344-32.561-13.778-20.585-4.0437 11.977-5.4734-5.7976-9.5218 1.7526-4.0483 7.5502-6.013-15.783-7.0642-9.1942-1.0512 6.5885-4.6021-15.715-6.0036-6.9299-1.4016 8.7849-6.0085-11.356-7.41-2.5715-1.4016 8.7847-0.35505-2.2303-3.5226 4.2558-3.1676 6.4863-8.1295-15.885-8.1295-15.885z"/>
      <path id="path9778" style="fill:#ffdfef" d="m48.965 709.6c-0.87598 5.4904 5.6392-4.1534 4.7632 1.3371-0.87598 5.4904 1.7708 6.725 1.7708 6.725l1.2405 5.5928 11.633-6.0766s5.464-3.0553 4.7632 1.3369c-0.7008 4.3924-6.3447 4.1194-7.0454 8.5117-0.7008 4.3924-1.2358-1.1663-1.9366 3.226-0.7008 4.3924-1.9366 3.2261-1.9366 3.2261l-3.3476 3.1577-0.88063 1.0639s-1.411-0.0683-2.1118 4.3242c-0.70077 4.3923-2.9877 9.8145-2.9877 9.8145l-4.053 3.1236 0.51619-12.147-3.8825-2.401-6.3494-0.30715-3.1817-6.7932 6.1648-7.4478 1.7473-15.407z"/>
      <path id="path9780" style="fill:#ffdfef" d="m-55.848 625.71c-1.4016 8.7847-8.8491-29.199-10.241-11.561-1.3921 17.638-16.756-1.9173-15.857 14.725 0.89937 16.642-10.573 8.341-9.3278 18.36s-27.85 14.145-18.144 20.147c9.7063 6.0024-1.0277 28.721 3.9013 20.107s-10.909 23.817-0.69148 13.245c10.218-10.571 7.6039 19.18 10.407 1.61 2.8031-17.569 5.1182 3.5674 7.0454-8.5117s8.4753 9.2625 9.3466-0.65435c0.87123-9.917 8.2953 5.9341 8.6363-5.115 0.34098-11.049 9.1713 0.44367 8.4564-8.4434-0.71487-8.8871 13.026-23.714 3.1441-28.619-9.8815-4.9044 0.17054-5.5246-4.7773-14.617-4.9477-9.0918 8.1013-10.674 8.1013-10.674z"/>
    </g>
    <g id="g10052">
      <path id="path9619" style="fill:#ffbbed" d="m627.18 915.11c5.9094-10.131 16.04-14.352 17.729-8.4422 1.6885 5.9094 16.04-17.729 17.729-6.7539 1.6885 10.975 7.598-4.2211 11.819 8.4422 4.2211 12.663 10.131-0.84417 16.04 10.131 5.9096 10.975 7.598 0.84418 20.261 12.663s27.015-16.04 21.106-16.04c-5.9096 0-2.5326-37.146-5.9096-34.613-3.3768 2.5328 7.598-57.407 7.598-57.407l-4.2211-16.884s-5.9096-8.4422-10.975-0.84417c-5.0653 7.5979-11.819-2.5328-13.508 2.5326-1.6885 5.0653 5.9094-28.704-0.84429-26.171-6.7538 2.5326-3.3768-37.146-7.5979-35.457-4.2211 1.6885-13.508-5.9096-13.508-5.9096s-2.5328-14.352-8.4422-5.0653c-5.9095 9.2864-13.508-7.5979-13.508-7.5979s-0.84417-28.704-5.9094-21.95c-5.0654 6.7539-9.2865-22.794-16.04-15.196-6.7538 7.598-27.015-23.638-32.925-17.729-5.9096 5.9096-23.638-14.352-23.638-14.352s-17.729-15.196-21.95-10.131c-4.2211 5.0653-16.04-12.663-16.04-6.7537 0 5.9094-12.663-0.8443-12.663 4.2211 0 5.0653-56.563-15.196-56.563-10.131 0 5.0653-28.704-0.8443-28.704 6.7538 0 7.598-14.352 17.729-14.352 17.729s-24.482 5.0654-25.327 10.975c-0.84422 5.9096-29.548-3.3768-27.859 7.598 1.6884 10.975-43.899-17.729-43.055-10.131 0.8443 7.598-44.744 0-40.523 9.2864 4.2211 9.2865-8.4421 28.704-8.4421 28.704l26.171 27.015s-39.678 12.663-29.548 15.196c10.131 2.5328-9.2864 0-4.2211 4.2211s-18.573 4.2211-7.598 9.2865c10.975 5.0653-23.638 0-2.5326 4.2211 21.106 4.2211 7.598 14.352 13.508 10.975 5.9094-3.3769-7.598 16.04-4.2211 13.507 3.3768-2.5326-15.196 6.7538-1.6885 6.7538s-0.8443 4.2211-9.2865 11.819c-8.4421 7.5979-97.085 21.95-86.11 23.638 10.975 1.6883-20.261 16.04-2.5328 21.95 17.729 5.9094 0.8443 18.573 14.352 25.327 13.507 6.7539-17.729 16.884 15.196 30.392 32.925 13.507 4.2211 38.834 36.302 33.769 32.08-5.0653 28.703 26.171 39.678 12.663 10.975-13.507 27.015 17.729 33.769 10.131 6.7538-7.598-9.2864 30.392 0 23.638 9.2864-6.7539-3.3769 27.859 12.663 10.975s10.131 10.131 15.196 5.9095c5.0653-4.2211-4.2211 17.729 9.2864 0.8443 13.508-16.884 11.819 10.13 19.417 4.2211 7.598-5.9096 21.95 17.729 25.327 13.508 3.3769-4.2211-3.3769 18.573 8.4422 10.131 11.819-8.4423 5.9096 22.794 18.573 10.975s5.9095 15.196 21.95 2.5327 9.2864 17.729 27.859-5.9096c18.573-23.638 37.99 6.7537 43.899-2.5327 5.9096-9.2863 32.925-44.744 32.925-44.744s7.598 44.744 12.663 23.638c5.0654-21.106 11.819 4.2211 16.04-4.2211 4.2211-8.4422-4.2211 37.99 5.0653 14.352 9.2865-23.638 3.3769 11.819 8.4422-2.5327 5.0654-14.352 8.4422 22.794 16.04 7.598 7.5979-15.196 17.729 20.261 17.729 2.5326 0-17.729 16.04-4.2211 12.663-20.261-3.3769-16.04 5.0653 0.8441 5.9094-14.352 0.84429-15.196 32.925 21.106 32.925 0 0-21.105 0.84417-7.598 2.5326-16.04 1.6885-8.4422 24.482 4.2211 19.417-7.598-5.0653-11.819 0.84417 2.5328 0-14.352-0.84418-16.884 12.663-22.794 5.9096-22.794-6.7538 0-0.8443-23.638-6.7538-17.729-5.9096 5.9096-17.729-29.548-25.327-21.106-7.598 8.4422-4.2211-16.884-11.819-5.9094s-13.508-11.819-18.573 2.5326c-5.0654 14.352-19.417 14.352-19.417 14.352z"/>
      <path id="path9621" style="fill:#bb88ab" d="m705.82 1180.4s33.851-27.081 16.926-40.621c-16.926-13.54-22.003-18.618-22.003-18.618s0.1603-22.675-31.998-54.834c-32.159-32.159-76.325-2.7129-74.633-24.716 1.6926-22.003 5.0777-44.007-5.0777-50.777-10.155-6.7702-37.236-5.0777-37.236-5.0777s12.7 1.6802 12.7-22.016-5.9301-49.072-5.9301-49.072 1.6926 28.773-3.3851 42.314-28.774 55.854-44.007 22.003-16.926-30.466 1.6926-40.621c18.618-10.155 37.236-38.929 37.236-38.929s-30.462 32.999-49.08 29.614c-18.618-3.3851-16.93 4.2376-16.93 11.008 0 6.7701-3.3851 13.54-3.3851 13.54s6.7702 11.848-10.155-3.3851c-16.926-15.233-23.696-40.621-23.696-40.621l-16.077-11.79s11.811 39.711 23.659 49.867c11.848 10.155 24.577 21.163 24.577 21.163l15.233 22.003s-27.081 3.3851-47.392-16.926-59.24 0-67.702-15.233c-8.4628-15.233-18.618-59.24-18.618-59.24s-3.4058 28.786 3.3645 40.634c6.7702 11.848 8.4835 27.069 8.4835 27.069s-25.388 18.618-37.236 1.6925-25.388-40.621-25.388-40.621 1.6595 29.605 15.2 39.761c13.54 10.155 6.6813 26.422 49.105 9.3482 52.453-21.11 79.505 21.126 109.95 24.519 21.278 2.3718 42.396-14.389 54.244 0.8442s5.0777 37.236 25.388 49.084c20.311 11.848 66.01-5.0776 54.162 30.466s-32.159 44.007-45.699 44.007-27.081 13.54-44.007 25.388 0-16.926-30.466 3.3851-81.243 28.774-81.243 28.774z"/>
      <path id="path9623" style="fill:#daaeca" d="m693.97 1170.3c27.081-20.311 44.007-16.926 32.159-35.544s-22.839-8.1147-27.917-38.581c-5.0776-30.466-1.2524-39.717-38.489-43.102-37.236-3.3851-21.607-11.408-33.455-16.485-11.848-5.0778-10.537 11.422-25.388-15.233-13.448-24.136-22.515-46.047-46.211-42.662-23.696 3.3851 2.2046 5.4258 14.053 30.814s11.848 35.544 40.621 47.392c28.774 11.848 64.317 23.696 32.159 54.162-32.159 30.466-64.317 35.544-69.395 45.699-5.0777 10.155 38.929-27.081 54.162-20.311 15.233 6.7702-10.155 33.851-10.155 33.851s0-25.388 37.236-22.003c37.236 3.3851 10.155 18.618 10.155 18.618z"/>
      <path id="path9625" style="fill:#ffdfef" d="m410.23 753.69c-6.7537 0.84417-12.663 5.9094-4.2211 13.507 8.4422 7.5979-12.663-4.2211-5.0653 5.0653 7.5979 9.2865-15.196 2.5326-8.4422 14.352s-11.819 0-6.7538 10.131c5.0653 10.131-15.196 4.2211-10.131 11.819 5.0653 7.598-15.196 11.819-9.2864 16.884 5.9094 5.0653-22.794 15.196-4.2211 16.04 18.573 0.8443 5.0653 6.7538 17.729 7.598 12.663 0.84417 16.04-10.975 16.04-10.975s2.5328 16.884 3.3769 4.2211c0.84417-12.663 7.5979 7.5979 8.4422 0 0.84417-7.598 7.5979 10.975 10.131 0.84417 2.5326-10.131 11.819 14.352 11.819 5.0653 0-9.2864 12.663 13.508 12.663 5.9096 0-7.5979 12.663 16.04 12.663 6.7537 0-9.2864 5.9096-10.131 5.9096-10.131s7.598-21.106-4.2211-15.196c-11.819 5.9094-18.573-17.729-20.261-10.131-1.6885 7.5979-2.5326-17.729-2.5326-14.352 0 3.3769-5.0653-16.04-8.4422-7.5979-3.3769 8.4422-10.975-14.352-10.975-9.2865 0 5.0654-1.6885-26.171 0-20.261 1.6885 5.9096-4.2211-20.261-4.2211-20.261z"/>
      <path id="path9627" style="fill:#efaada" d="m405.1 735.95c30.392-4.2211 52.342-19.417 49.809 1.6885-2.5327 21.105 18.573 4.2211 16.884 17.729-1.6884 13.507 21.95-4.2211 20.261 9.2864-1.6884 13.507 19.417 11.819 16.04 21.106-3.3769 9.2864 10.131 13.507 5.0653 25.327-5.0653 11.819 19.417 10.975 11.819 21.95s-5.9095 27.859-10.975 34.613c-5.0653 6.7538 5.9096 1.6885-1.6884 15.196-7.598 13.507-0.84422 26.171-4.2211 31.236-3.3769 5.0654-1.6884 5.9096 4.2211 11.819 5.9096 5.9096 10.975-0.84417 10.975 4.2211s22.794-14.352 16.04 1.6885c-6.7538 16.04 12.663 4.2211 10.131 16.04-2.5327 11.819 4.2211 14.352 4.2211 20.261 0 5.9096 46.432-17.729 46.432-5.9094 0 11.819 21.95-26.171 29.548-14.352s20.261-16.04 30.392-6.7538c10.131 9.2864 15.196-33.769 23.638-24.482 8.4422 9.2864-1.6883-19.417 12.663-11.819 14.352 7.598-1.6884-20.261 5.9096-16.884 7.598 3.3769-10.131-7.5979-0.84417-7.5979 9.2864 0-10.131-10.131-2.5326-17.729 7.5979-7.598-14.352 15.196-6.7539-7.598 7.598-22.794-4.2211-8.4422-2.5326-26.171s1.6885-51.497 1.6885-51.497-19.417 16.884-19.417-3.3769-10.975 11.819-12.663-7.5979c-1.6885-19.417 26.171 15.196 24.482-12.663-1.6883-27.859-4.221-39.678-4.221-39.678s-2.5328-21.95-5.0654-12.663c-2.5326 9.2864-2.5326-6.7538-5.9095 0-3.3768 6.7538-9.2864-5.0654-14.352 0.84417-5.0654 5.9096-6.7538-6.7538-12.663 3.3769-5.9096 10.131-18.573-10.975-27.015-0.8443-8.4422 10.131-28.704-10.975-28.704-6.7538 0 4.2211-22.794-14.352-24.482-8.4422-1.6884 5.9096-25.327-6.7538-25.327-6.7538s-13.508-4.2211-17.729 2.5326c-4.2211 6.7538-21.106 0-26.171 6.7538-5.0653 6.7539-12.663 5.0654-15.196 9.2865-2.5327 4.2211-7.598-0.8443-11.819 5.9094-4.2211 6.7539-3.3769 1.6885-8.4422 9.2865-5.0653 7.5979-15.196 8.4422-15.196 8.4422s-9.2864-3.3769-13.508-0.8443c-4.221 2.5326-0.84424-5.0653-7.598 0-6.7538 5.0654-15.196 11.819-15.196 11.819z"/>
      <path id="path9629" style="fill:#efaada" d="m362.95 702.19c8.4422 6.7538 15.196-11.819 18.573-4.2211 3.3768 7.5979 14.352-10.131 22.794 3.3768 8.4422 13.508 32.08 1.6885 31.236 13.508-0.8443 11.819 14.352 22.794 2.5326 22.794s-17.729-24.482-20.261-15.196c-2.5328 9.2864-7.598-4.2211-10.975 1.6885-3.3768 5.9096-10.131-11.819-10.131-6.7538 0 5.0653-8.4422-11.819-8.4422-5.0654 0 6.7539-9.2865-8.4421-9.2865-1.6883 0 6.7537-0.84417-1.6885-3.3768 3.3768-2.5326 5.0654-12.663-11.819-12.663-11.819z"/>
      <path id="path9631" style="fill:#ffdfef" d="m645.76 817.85c0 4.2211 5.9096-3.3768 5.9096 0.84429s3.3769 5.0653 3.3769 5.0653l2.5327 4.2211 12.663-5.0653s5.9096-2.5326 5.9096 0.84417c0 3.3769-6.7537 3.3769-6.7537 6.7538s-1.6885-0.84417-1.6885 2.5326c0 3.3769-1.6885 2.5328-1.6885 2.5328l-3.3769 2.5326-0.84417 0.84417s-1.6885 0-1.6885 3.3769c0 3.3768-1.6884 7.5979-1.6884 7.5979l-4.2211 2.5326-1.6884-9.2864-5.0653-1.6885h-7.598l-5.0653-5.0653 5.9096-5.9096-0.84422-11.819z"/>
      <path id="path9633" style="fill:#ffdfef" d="m505.4 757.71c0 6.7538-16.04-21.95-14.352-8.4422 1.6885 13.508-20.261-0.84429-16.04 11.819s-10.975 6.7538-7.598 14.352c3.3769 7.5979-30.392 11.819-17.729 16.04 12.663 4.2211 4.2211 21.95 8.4422 15.196 4.2211-6.7538-8.4422 18.573 1.6884 10.131 10.131-8.4422 12.663 14.352 12.663 0.84417 0-13.507 6.7538 2.5328 6.7538-6.7538 0-9.2864 11.819 6.7538 10.975-0.84417-0.8443-7.598 10.975 4.2211 9.2864-4.2211-1.6885-8.4422 10.975 0 8.4422-6.7538-2.5326-6.7538 10.975-18.573-1.6885-21.95-12.663-3.3769-0.84417-4.2211-8.4422-10.975-7.5979-6.7538 7.598-8.4421 7.598-8.4421z"/>
      <path id="path9014" style="fill:#bb88ab" d="m674.78 1183.3s-26.903-26.704-13.452-40.057c13.452-13.352 17.487-18.359 17.487-18.359s-29.593-25.036-4.0355-56.747c25.558-31.712 90.125 0 88.78-21.697-1.3452-21.698-4.0354-43.395 4.0355-50.071 8.0709-6.6761 29.593-5.0072 29.593-5.0072s-10.094 1.6568-10.094-21.71c0-23.366 4.7129-48.39 4.7129-48.39s-1.3452 28.374 2.6903 41.726c4.0354 13.352 22.868 55.078 34.974 21.697s13.452-30.043-1.3452-40.057-29.593-38.388-29.593-38.388 24.209 32.54 39.006 29.202c14.797-3.3381 13.455 4.1787 13.455 10.855 0 6.6761 2.6903 13.352 2.6903 13.352s-5.3806 11.683 8.0709-3.3381 18.832-40.057 18.832-40.057l12.777-11.626s-9.3866 39.159-18.803 49.174c-9.4161 10.014-19.533 20.869-19.533 20.869l-12.106 21.697s21.522 3.3381 37.664-16.69 47.08 0 53.806-15.021c6.7258-15.021 14.797-58.416 14.797-58.416s2.7067 28.386-2.6739 40.069-6.7422 26.692-6.7422 26.692 20.177 18.359 29.593 1.669 20.177-40.057 20.177-40.057-1.3189 29.194-12.08 39.208-5.3099 26.054-39.026 9.2182c-41.686-20.816-63.186 20.832-87.379 24.179-16.91 2.3388-33.694-14.189-43.11 0.8324-9.4161 15.021-4.0354 36.719-20.177 48.402s-52.461-5.0071-43.045 30.042c9.416 35.05 25.558 43.395 36.319 43.395s21.522 13.352 34.974 25.035 0-16.69 24.213 3.338 64.567 28.374 64.567 28.374z"/>
      <path id="path9020" style="fill:#ffdfef" d="m909.71 762.46c5.3675 0.83249 10.064 5.8274 3.3547 13.32-6.7094 7.4924 10.064-4.1624 4.0256 4.9949s12.077 2.4975 6.7094 14.152c-5.3675 11.655 9.3932 0 5.3675 9.9898-4.0256 9.9898 12.077 4.1624 8.0513 11.655-4.0256 7.4924 12.077 11.655 7.3803 16.65-4.6965 4.9949 18.115 14.985 3.3547 15.817-14.761 0.83249-4.0256 6.6599-14.09 7.4924-10.064 0.83249-12.748-10.822-12.748-10.822s-2.0129 16.65-2.6838 4.1624c-0.6709-12.487-6.0384 7.4924-6.7094 0-0.6709-7.4924-6.0384 10.822-8.0513 0.83248-2.0128-9.9898-9.3931 14.152-9.3931 4.9949 0-9.1573-10.064 13.32-10.064 5.8274 0-7.4924-10.064 15.817-10.064 6.6599 0-9.1573-4.6966-9.9898-4.6966-9.9898s-6.0384-20.812 3.3547-14.985c9.3932 5.8274 14.761-17.482 16.103-9.9898 1.3419 7.4924 2.0128-17.482 2.0128-14.152 0 3.3299 4.0256-15.817 6.7094-7.4924 2.6838 8.3248 8.7222-14.152 8.7222-9.1574 0 4.9949 1.3419-25.807 0-19.98-1.3419 5.8274 3.3547-19.98 3.3547-19.98z"/>
      <path id="path9532" style="fill:#efaada" d="m903 707.51c-24.154-4.1624-41.598-19.147-39.585 1.665 2.0128 20.812-14.761 4.1624-13.419 17.482 1.3419 13.32-17.444-4.1624-16.103 9.1573 1.3419 13.32-15.432 11.655-12.748 20.812 2.6838 9.1574-8.0513 13.32-4.0256 24.975 4.0256 11.655-15.432 10.822-9.3932 21.645 6.0384 10.822 4.6966 27.472 8.7222 34.132 4.0256 6.6599-4.6966 1.665 1.3419 14.985 6.0384 13.32 0.67094 25.807 3.3547 30.802 2.6838 4.9949 1.3419 5.8274-3.3547 11.655-4.6966 5.8274-8.7222-0.83248-8.7222 4.1624s-18.115-14.152-12.748 1.665c5.3675 15.817-10.064 4.1624-8.0513 15.817 2.0128 11.655-3.3547 14.152-3.3547 19.98 0 5.8274-36.902-17.482-36.902-5.8274s-17.444-25.807-23.483-14.152c-6.0384 11.655-16.103-15.817-24.154-6.6599-8.0513 9.1573-12.077-33.299-18.786-24.142-6.7094 9.1574 1.3419-19.147-10.064-11.655-11.406 7.4924 1.3419-19.98-4.6966-16.65-6.0384 3.3299 8.0513-7.4924 0.67094-7.4924-7.3803 0 8.0513-9.9898 2.0128-17.482-6.0384-7.4924 11.406 14.985 5.3675-7.4924-6.0384-22.477 3.3547-8.3249 2.0128-25.807s-1.3419-50.782-1.3419-50.782 15.432 16.65 15.432-3.3299 8.7222 11.655 10.064-7.4924c1.3419-19.147-20.799 14.985-19.457-12.487 1.3419-27.472 3.3547-39.127 3.3547-39.127s2.0128-21.645 4.0256-12.487c2.0128 9.1574 2.0128-6.6599 4.6966 0s7.3803-4.9949 11.406 0.83249c4.0256 5.8274 5.3675-6.6599 10.064 3.3299 4.6966 9.9898 14.761-10.822 21.47-0.83248 6.7094 9.9898 22.812-10.822 22.812-6.6599 0 4.1624 18.115-14.152 19.457-8.3248 1.3419 5.8274 20.128-6.6599 20.128-6.6599s10.735-4.1624 14.09 2.4974c3.3547 6.6599 16.773 0 20.799 6.6599 4.0256 6.6599 10.064 4.9949 12.077 9.1573 2.0128 4.1624 6.0384-0.83249 9.3932 5.8274 3.3547 6.6599 2.6838 1.665 6.7094 9.1573 4.0256 7.4924 12.077 8.3249 12.077 8.3249s7.3803-3.3299 10.735-0.83248c3.3546 2.4974 0.67095-4.9949 6.0384 0 5.3675 4.9949 12.077 11.655 12.077 11.655z"/>
      <path id="path9534" style="fill:#efaada" d="m947.28 711.68c-6.7094 6.6599-12.077-11.655-14.761-4.1624-2.6837 7.4924-11.406-9.9898-18.115 3.3299-6.7094 13.32-25.496 1.665-24.825 13.32s-11.406 22.477-2.0128 22.477 14.09-24.142 16.102-14.985c2.0129 9.1574 6.0385-4.1624 8.7223 1.665 2.6837 5.8274 8.0512-11.655 8.0512-6.6599 0 4.9949 6.7094-11.655 6.7094-4.9949 0 6.6599 7.3804-8.3249 7.3804-1.665s0.6709-1.665 2.6837 3.3299 10.064-11.655 10.064-11.655z"/>
      <path id="path9536" style="fill:#ffdfef" d="m722.51 825.73c0 4.1624-4.6966-3.33-4.6966 0.83249 0 4.1624-2.6838 4.9949-2.6838 4.9949l-2.0128 4.1624-10.064-4.9949s-4.6966-2.4974-4.6966 0.83249c0 3.33 5.3675 3.33 5.3675 6.6599s1.3419-0.83248 1.3419 2.4974c0 3.33 1.3419 2.4975 1.3419 2.4975l2.6838 2.4975 0.67094 0.83249s1.3419 0 1.3419 3.3299 1.3419 7.4924 1.3419 7.4924l3.3547 2.4974 1.3419-9.1574 4.0256-1.665h6.0384l4.0256-4.9949-4.6966-5.8274 0.67094-11.655z"/>
      <path id="path9018" style="fill:#ffbbed" d="m815.8 929.66c4.6965-9.9898 12.748-14.152 14.09-8.3249 1.3419 5.8274 12.748-17.482 14.09-6.6599 1.3419 10.822 6.0385-4.1624 9.3932 8.3249s8.0512-0.83249 12.748 9.9898c4.6966 10.822 6.0385 0.83249 16.102 12.487s21.47-15.817 16.773-15.817c-4.6966 0-2.0128-36.629-4.6966-34.132-2.6837 2.4975 6.0385-56.609 6.0385-56.609l-3.3547-16.65s-4.6966-8.3248-8.7222-0.83248c-4.0256 7.4924-9.3932-2.4974-10.735 2.4975-1.3419 4.9949 4.6965-28.305-0.671-25.807-5.3675 2.4975-2.6837-36.629-6.0384-34.964s-10.735-5.8274-10.735-5.8274-2.0129-14.152-6.7094-4.9949c-4.6966 9.1573-10.735-7.4924-10.735-7.4924s-0.6709-28.305-4.6965-21.645c-4.0257 6.6599-7.3804-22.477-12.748-14.985-5.3675 7.4924-21.47-23.31-26.167-17.482-4.6966 5.8274-18.786-14.152-18.786-14.152s-14.09-14.985-17.444-9.9898c-3.3547 4.9949-12.748-12.487-12.748-6.6599 0 5.8274-10.064-0.83249-10.064 4.1624s-44.953-14.985-44.953-9.9898c0 4.9949-22.812-0.83249-22.812 6.6599s-11.406 17.482-11.406 17.482-19.457 4.9949-20.128 10.822c-0.67094 5.8274-23.483-3.33-22.141 7.4924 1.3419 10.822-34.889-17.482-34.218-9.9898 0.67094 7.4924-35.56 0-32.205 9.1573 3.3547 9.1574-6.7094 28.305-6.7094 28.305l20.799 26.64s-31.534 12.487-23.483 14.985c8.0513 2.4975-7.3803 0-3.3547 4.1624s-14.761 4.1624-6.0384 9.1574c8.7222 4.9949-18.786 0-2.0128 4.1624s6.0385 14.152 10.735 10.822c4.6966-3.3299-6.0384 15.817-3.3547 13.32 2.6838-2.4975-12.077 6.6599-1.3419 6.6599s-0.67094 4.1624-7.3803 11.655c-6.7094 7.4924-77.158 21.645-68.436 23.31 8.7222 1.665-16.103 15.817-2.0128 21.645 14.09 5.8274 0.67094 18.315 11.406 24.975 10.735 6.6599-14.09 16.65 12.077 29.969 26.167 13.32 3.3547 38.294 28.85 33.299 25.496-4.9949 22.812 25.807 31.534 12.487 8.7222-13.32 21.47 17.482 26.838 9.9899 5.3675-7.4924-7.3803 29.969 0 23.31 7.3803-6.66-2.6838 27.472 10.064 10.822s8.0513 9.9897 12.077 5.8273c4.0256-4.1625-3.3547 17.482 7.3803 0.8325s9.3932 9.9898 15.432 4.1625c6.0384-5.8275 17.444 17.482 20.128 13.32 2.6838-4.1624-2.6838 18.315 6.7094 9.9899 9.3932-8.3249 4.6966 22.477 14.761 10.822s4.6966 14.985 17.444 2.4974c12.748-12.487 7.3803 17.482 22.141-5.8274 14.761-23.31 30.192 6.6598 34.889-2.4975 4.6966-9.1573 26.167-44.122 26.167-44.122s6.0384 44.122 10.064 23.31c4.0257-20.812 9.3932 4.1624 12.748-4.1625 3.3547-8.3248-3.3547 37.462 4.0256 14.152 7.3804-23.31 2.6838 11.655 6.7094-2.4974 4.0257-14.152 6.7094 22.477 12.748 7.4923 6.0384-14.985 14.09 19.98 14.09 2.4974 0-17.482 12.748-4.1624 10.064-19.98-2.6838-15.817 4.0256 0.8325 4.6965-14.152 0.671-14.985 26.167 20.812 26.167 0s0.6709-7.4923 2.0128-15.817c1.3419-8.3248 19.457 4.1625 15.432-7.4924-4.0256-11.655 0.6709 2.4976 0-14.152s10.064-22.477 4.6966-22.477c-5.3675 0-0.671-23.31-5.3675-17.482-4.6966 5.8274-14.09-29.137-20.128-20.812-6.0385 8.3248-3.3547-16.65-9.3932-5.8274-6.0384 10.822-10.735-11.655-14.761 2.4975-4.0257 14.152-15.432 14.152-15.432 14.152z"/>
      <path id="path9022" style="fill:#ffdfef" d="m760.76 694.19c0 6.6599 12.748-21.645 11.406-8.3249-1.3419 13.32 16.102-0.83248 12.748 11.655-3.3546 12.487 8.7223 6.6599 6.0385 14.152-2.6838 7.4924 24.154 11.655 14.09 15.817-10.064 4.1624-3.3547 21.645-6.7094 14.985-3.3547-6.6599 6.7094 18.315-1.3418 9.9898-8.0513-8.3249-10.064 14.152-10.064 0.83249s-5.3675 2.4975-5.3675-6.6599c0-9.1573-9.3932 6.6599-8.7223-0.83248 0.671-7.4924-8.7222 4.1624-7.3803-4.1624s-8.7222 0-6.7094-6.6599-8.7222-18.315 1.3419-21.645c10.064-3.3299 0.6709-4.1624 6.7094-10.822 6.0384-6.6599-6.0385-8.3249-6.0385-8.3249z"/>
      <path id="path9016" style="fill:#daaeca" d="m684.2 1173.3c-21.522-20.028-34.974-16.69-25.558-35.05 9.4161-18.359-2.6903-13.352 1.3452-43.395 4.0354-30.042-4.0354-40.057 25.558-43.395s43.045-5.0071 52.461-10.014c9.4161-5.0071 18.832 15.021 20.177-15.021 1.3452-30.043-9.4161-40.057 9.4161-36.719 18.832 3.3381 25.558 0 16.142 25.035-9.4161 25.036-9.4161 35.05-32.284 46.733s-51.116 23.366-25.558 53.409 51.116 35.05 55.151 45.064c4.0354 10.014-30.938-26.704-43.045-20.028-12.106 6.6762 8.0709 33.381 8.0709 33.381s0-25.036-29.593-21.698c-29.593 3.3381-8.0709 18.359-8.0709 18.359z"/>
    </g>
  </g>
  <metadata>
    <rdf:RDF>
      <cc:Work>
        <dc:format>image/svg+xml</dc:format>
        <dc:type rdf:resource="http://purl.org/dc/dcmitype/StillImage"/>
        <cc:license rdf:resource="http://creativecommons.org/licenses/publicdomain/"/>
        <dc:publisher>
          <cc:Agent rdf:about="http://openclipart.org/">
            <dc:title>Openclipart</dc:title>
          </cc:Agent>
        </dc:publisher>
      </cc:Work>
      <cc:License rdf:about="http://creativecommons.org/licenses/publicdomain/">
        <cc:permits rdf:resource="http://creativecommons.org/ns#Reproduction"/>
        <cc:permits rdf:resource="http://creativecommons.org/ns#Distribution"/>
        <cc:permits rdf:resource="http://creativecommons.org/ns#DerivativeWorks"/>
      </cc:License>
    </rdf:RDF>
  </metadata>
</svg>
