<?xml version="1.0" encoding="UTF-8"?>
<!DOCTYPE svg PUBLIC "-//W3C//DTD SVG 1.1//EN" "http://www.w3.org/Graphics/SVG/1.1/DTD/svg11.dtd">
<svg version="1.1" xmlns="http://www.w3.org/2000/svg" xmlns:xlink="http://www.w3.org/1999/xlink" x="0" y="0" width="348.24" height="378.47" viewBox="0, 0, 348.24, 378.47">
  <defs>
    <linearGradient id="Gradient_1" gradientUnits="userSpaceOnUse" x1="387.83" y1="25.473" x2="415.32" y2="44.563" gradientTransform="matrix(0.452, -0.408, 1.099, 1.22, -172.14, 177.17)">
      <stop offset="0" stop-color="#FFFFFF" stop-opacity="0.798"/>
      <stop offset="1" stop-color="#FFFFFF" stop-opacity="0.191"/>
    </linearGradient>
    <linearGradient id="Gradient_2" gradientUnits="userSpaceOnUse" x1="155.59" y1="151.92" x2="173.2" y2="176.13" gradientTransform="matrix(1.051, -0.947, 0.473, 0.525, -172.14, 177.17)">
      <stop offset="0" stop-color="#FFFFFF" stop-opacity="0.798"/>
      <stop offset="1" stop-color="#FFFFFF" stop-opacity="0.191"/>
    </linearGradient>
    <linearGradient id="Gradient_3" gradientUnits="userSpaceOnUse" x1="238.23" y1="116.42" x2="253.13" y2="131.02" gradientTransform="matrix(0.81, -0.729, 0.731, 0.811, -196.223, 179.977)">
      <stop offset="0" stop-color="#FFFFFF" stop-opacity="0.798"/>
      <stop offset="1" stop-color="#FFFFFF" stop-opacity="0.191"/>
    </linearGradient>
    <linearGradient id="Gradient_4" gradientUnits="userSpaceOnUse" x1="244.23" y1="118.28" x2="249" y2="121.26" gradientTransform="matrix(0.748, -0.674, 0.665, 0.738, -172.14, 177.17)">
      <stop offset="0" stop-color="#FFFFFF" stop-opacity="0.798"/>
      <stop offset="1" stop-color="#FFFFFF" stop-opacity="0.191"/>
    </linearGradient>
    <linearGradient id="Gradient_5" gradientUnits="userSpaceOnUse" x1="247.4" y1="-4.62" x2="270.95" y2="17.92" gradientTransform="matrix(0.688, -0.62, 0.723, 0.803, -172.14, 177.17)">
      <stop offset="0" stop-color="#FFFFFF" stop-opacity="0.798"/>
      <stop offset="1" stop-color="#FFFFFF" stop-opacity="0.191"/>
    </linearGradient>
    <linearGradient id="Gradient_6" gradientUnits="userSpaceOnUse" x1="238.23" y1="116.42" x2="253.13" y2="131.02" gradientTransform="matrix(0.81, -0.729, 0.731, 0.811, -268.118, 100.797)">
      <stop offset="0" stop-color="#FFFFFF" stop-opacity="0.798"/>
      <stop offset="1" stop-color="#FFFFFF" stop-opacity="0.191"/>
    </linearGradient>
    <linearGradient id="Gradient_7" gradientUnits="userSpaceOnUse" x1="244.23" y1="118.28" x2="249" y2="121.26" gradientTransform="matrix(0.748, -0.674, 0.665, 0.738, -244.035, 97.99)">
      <stop offset="0" stop-color="#FFFFFF" stop-opacity="0.798"/>
      <stop offset="1" stop-color="#FFFFFF" stop-opacity="0.191"/>
    </linearGradient>
    <linearGradient id="Gradient_8" gradientUnits="userSpaceOnUse" x1="164.01" y1="-7.81" x2="179.83" y2="10.028" gradientTransform="matrix(1.094, -0.985, 0.455, 0.505, -172.14, 177.17)">
      <stop offset="0" stop-color="#FFFFFF" stop-opacity="0.798"/>
      <stop offset="1" stop-color="#FFFFFF" stop-opacity="0.191"/>
    </linearGradient>
    <linearGradient id="Gradient_9" gradientUnits="userSpaceOnUse" x1="996.8" y1="113.94" x2="996.8" y2="43.692" gradientTransform="matrix(0.191, -0.172, 2.602, 2.888, -172.14, 177.17)">
      <stop offset="0" stop-color="#FFFFFF" stop-opacity="0.798"/>
      <stop offset="1" stop-color="#FFFFFF" stop-opacity="0.191"/>
    </linearGradient>
    <linearGradient id="Gradient_10" gradientUnits="userSpaceOnUse" x1="148.44" y1="142.91" x2="159.94" y2="148.33" gradientTransform="matrix(0.939, -0.846, 0.53, 0.588, -172.14, 177.17)">
      <stop offset="0" stop-color="#FFFFFF" stop-opacity="0.798"/>
      <stop offset="1" stop-color="#FFFFFF" stop-opacity="0.191"/>
    </linearGradient>
    <linearGradient id="Gradient_11" gradientUnits="userSpaceOnUse" x1="215.25" y1="146.27" x2="227.55" y2="160.61" gradientTransform="matrix(0.963, -0.868, 0.516, 0.573, -172.14, 177.17)">
      <stop offset="0" stop-color="#FFFFFF" stop-opacity="0.798"/>
      <stop offset="1" stop-color="#FFFFFF" stop-opacity="0.191"/>
    </linearGradient>
    <linearGradient id="Gradient_12" gradientUnits="userSpaceOnUse" x1="354.46" y1="51.486" x2="336.85" y2="68.191" gradientTransform="matrix(0.522, -0.47, 0.953, 1.058, -172.14, 177.17)">
      <stop offset="0" stop-color="#FFFFFF" stop-opacity="0.798"/>
      <stop offset="1" stop-color="#FFFFFF" stop-opacity="0.191"/>
    </linearGradient>
  </defs>
  <g id="g5316">
    <g id="path2160">
      <path d="M91.901,100.031 L91.922,100.053 L83.258,109.621 C87.216,113.013 94.687,123.592 99.934,134.855 C104.22,135.893 113.072,138.713 117.016,142.388 L124.223,135.762 L124.29,135.701 L131.623,129.23 C128.385,124.919 126.502,115.821 125.916,111.45 C115.26,105.059 105.516,96.529 102.554,92.239 L92.13,99.866 L92.11,99.844 L91.901,100.031 z" fill="#DADAC7"/>
      <path d="M91.901,100.031 L91.922,100.053 L83.258,109.621 C87.216,113.013 94.687,123.592 99.934,134.855 C104.22,135.893 113.072,138.713 117.016,142.388 L124.223,135.762 L124.29,135.701 L131.623,129.23 C128.385,124.919 126.502,115.821 125.916,111.45 C115.26,105.059 105.516,96.529 102.554,92.239 L92.13,99.866 L92.11,99.844 L91.901,100.031 z" fill-opacity="0" stroke="#000000" stroke-width="1"/>
    </g>
    <g id="path908">
      <path d="M289.358,335.379 C228.355,269.9 168.887,203.886 109.02,137.801 C107.629,129.444 97.072,120.623 89.984,113.037 L105.274,99.263 C113.19,107.288 119.119,117.949 127.945,119.918 C187.84,185.332 247.895,250.804 307.053,317.73 C323.005,336.618 334.099,357.809 347.618,377.851 C328.198,363.689 307.221,353.191 289.358,335.379 z" fill="#CACBCB"/>
      <path d="M289.358,335.379 C228.355,269.9 168.887,203.886 109.02,137.801 C107.629,129.444 97.072,120.623 89.984,113.037 L105.274,99.263 C113.19,107.288 119.119,117.949 127.945,119.918 C187.84,185.332 247.895,250.804 307.053,317.73 C323.005,336.618 334.099,357.809 347.618,377.851 C328.198,363.689 307.221,353.191 289.358,335.379 z" fill-opacity="0" stroke="#000000" stroke-width="1.25" stroke-linejoin="round"/>
    </g>
    <g id="path4029">
      <path d="M26.244,48.765 C27.118,49.481 27.889,48.962 29.246,50.603 C45.899,66.819 59.587,81.281 73.885,97.916 C74.697,99.056 75.836,100.56 76.076,102.215 L85.904,93.657 L95.416,84.793 C93.802,84.376 92.425,83.086 91.375,82.16 C76.319,66.209 63.36,51.09 48.965,32.84 C47.474,31.319 48.093,30.587 47.472,29.643 L37.001,39.37 L26.244,48.765 z" fill="#CACBCB"/>
      <path d="M26.244,48.765 C27.118,49.481 27.889,48.962 29.246,50.603 C45.899,66.819 59.587,81.281 73.885,97.916 C74.697,99.056 75.836,100.56 76.076,102.215 L85.904,93.657 L95.416,84.793 C93.802,84.376 92.425,83.086 91.375,82.16 C76.319,66.209 63.36,51.09 48.965,32.84 C47.474,31.319 48.093,30.587 47.472,29.643 L37.001,39.37 L26.244,48.765 z" fill-opacity="0" stroke="#000000" stroke-width="1" stroke-linejoin="round"/>
    </g>
    <path d="M27.573,48.656 C28.447,49.372 29.21,48.86 30.575,50.494 C47.228,66.71 59.436,79.544 73.743,96.174 C74.547,97.32 75.687,98.81 75.933,100.473 L85.101,92.497 L93.638,84.523 C92.01,84.105 90.647,82.816 89.591,81.897 C74.533,65.944 63.046,52.46 48.652,34.21 C47.161,32.69 47.779,31.957 47.158,31.013 L37.675,39.85 L27.573,48.656 z" fill="url(#Gradient_1)" id="path1561"/>
    <g id="path2818">
      <path d="M51.226,35.304 C50.426,36.12 54.962,50.404 59.731,64.782 C46.192,58.672 32.76,52.831 31.882,53.529 C30.184,54.692 32.63,57.437 35.869,58.179 C37.155,58.472 49.358,64.233 61.397,69.799 C64.875,80.189 68.733,91.539 68.946,92.567 C69.545,95.877 71.837,98.227 73.289,96.178 C73.901,95.304 70.273,84.015 66.214,71.979 C78.013,77.383 89.158,82.314 90.113,81.79 C92.295,80.552 90.216,78.05 86.99,77.113 C85.958,76.789 74.872,71.654 64.547,66.961 C60.161,54.098 55.595,41.096 55.437,39.755 C55.034,36.455 52.559,33.737 51.226,35.304 z" fill="#9B9B5D"/>
      <path d="M51.226,35.304 C50.426,36.12 54.962,50.404 59.731,64.782 C46.192,58.672 32.76,52.831 31.882,53.529 C30.184,54.692 32.63,57.437 35.869,58.179 C37.155,58.472 49.358,64.233 61.397,69.799 C64.875,80.189 68.733,91.539 68.946,92.567 C69.545,95.877 71.837,98.227 73.289,96.178 C73.901,95.304 70.273,84.015 66.214,71.979 C78.013,77.383 89.158,82.314 90.113,81.79 C92.295,80.552 90.216,78.05 86.99,77.113 C85.958,76.789 74.872,71.654 64.547,66.961 C60.161,54.098 55.595,41.096 55.437,39.755 C55.034,36.455 52.559,33.737 51.226,35.304 z" fill-opacity="0" stroke="#000000" stroke-width="1"/>
    </g>
    <g id="path6517">
      <path d="M68.652,115.713 C62.985,120.104 52.144,126.492 47.942,131.973 C44.408,136.596 45.347,140.313 47.703,143.735 C50.334,146.655 52.167,147.884 57.898,147.298 C62.879,146.418 70.224,141.483 64.723,135.376 C60.968,132.015 59.579,134.477 58.813,137.093 C59.37,131.301 67.736,123.765 72.48,119.962 C70.927,118.239 69.055,117.759 68.652,115.713 z" fill="#9B9B5D"/>
      <path d="M68.652,115.713 C62.985,120.104 52.144,126.492 47.942,131.973 C44.408,136.596 45.347,140.313 47.703,143.735 C50.334,146.655 52.167,147.884 57.898,147.298 C62.879,146.418 70.224,141.483 64.723,135.376 C60.968,132.015 59.579,134.477 58.813,137.093 C59.37,131.301 67.736,123.765 72.48,119.962 C70.927,118.239 69.055,117.759 68.652,115.713 z" fill-opacity="0" stroke="#000000" stroke-width="1" stroke-linejoin="round"/>
    </g>
    <g id="path7760">
      <path d="M110.483,77.748 C115.434,72.561 122.921,62.451 128.81,58.829 C133.776,55.795 137.375,57.13 140.527,59.822 C143.157,62.742 144.195,64.701 143.016,70.325 C141.629,75.195 135.957,81.987 130.449,75.872 C127.496,71.803 130.09,70.664 132.771,70.173 C126.954,70.125 118.587,77.661 114.311,81.998 C112.752,80.267 112.476,78.362 110.483,77.748 z" fill="#9B9B5D"/>
      <path d="M110.483,77.748 C115.434,72.561 122.921,62.451 128.81,58.829 C133.776,55.795 137.375,57.13 140.527,59.822 C143.157,62.742 144.195,64.701 143.016,70.325 C141.629,75.195 135.957,81.987 130.449,75.872 C127.496,71.803 130.09,70.664 132.771,70.173 C126.954,70.125 118.587,77.661 114.311,81.998 C112.752,80.267 112.476,78.362 110.483,77.748 z" fill-opacity="0" stroke="#000000" stroke-width="1" stroke-linejoin="round"/>
    </g>
    <g id="path1533">
      <path d="M85.473,93.493 L75.846,102.274 C75.846,102.274 79.005,103.479 78.597,105.327 C78.181,107.182 69.714,114.217 66.788,116.557 C67.492,117.996 69.71,120.129 71.362,121.306 C76.959,115.672 89.674,119.925 96.832,111.108 C96.834,114.068 99.443,117.935 103.27,119.225 C102.074,115.269 99.862,110.034 100.163,109.157 C101.111,108.895 105.64,111.936 109.451,113.536 C108.566,109.596 104.984,106.591 102.041,106.281 C111.555,100.08 108.648,86.991 114.841,82.018 C113.836,80.245 111.945,77.817 110.58,76.974 C107.948,79.641 100.05,87.308 98.169,87.521 C96.289,87.734 95.623,84.889 95.623,84.889 L85.473,93.493 z" fill="#9B9B5D"/>
      <path d="M85.473,93.493 L75.846,102.274 C75.846,102.274 79.005,103.479 78.597,105.327 C78.181,107.182 69.714,114.217 66.788,116.557 C67.492,117.996 69.71,120.129 71.362,121.306 C76.959,115.672 89.674,119.925 96.832,111.108 C96.834,114.068 99.443,117.935 103.27,119.225 C102.074,115.269 99.862,110.034 100.163,109.157 C101.111,108.895 105.64,111.936 109.451,113.536 C108.566,109.596 104.984,106.591 102.041,106.281 C111.555,100.08 108.648,86.991 114.841,82.018 C113.836,80.245 111.945,77.817 110.58,76.974 C107.948,79.641 100.05,87.308 98.169,87.521 C96.289,87.734 95.623,84.889 95.623,84.889 L85.473,93.493 z" fill-opacity="0" stroke="#000000" stroke-width="1" stroke-linejoin="round"/>
    </g>
    <path d="M86.13,93.938 L76.852,102.121 C76.852,102.121 79.857,103.156 79.449,105.004 C79.034,106.858 70.868,114.214 67.935,116.56 C68.639,117.999 69.646,119.446 71.299,120.623 C76.896,114.989 89.774,119.095 96.932,110.277 C96.934,113.237 98.627,116.746 102.461,118.043 C101.258,114.079 98.883,108.991 99.183,108.115 C100.132,107.853 104.661,110.893 108.471,112.494 C107.587,108.553 103.62,107.093 100.676,106.784 C110.19,100.582 107.774,87.052 113.96,82.071 C112.962,80.306 111.473,78.996 110.115,78.146 C107.483,80.813 100.549,87.907 98.669,88.121 C96.789,88.334 95.414,87.002 95.152,86.054 C93.811,87.853 86.13,93.938 86.13,93.938 z" fill="url(#Gradient_2)" id="path2812"/>
    <g id="path5274">
      <path d="M26.7,49.091 C26.079,48.148 26.667,47.442 25.184,45.914 C19.207,39.608 13.771,41.328 4.339,31.26 C-9.19,16.272 17.557,-9.512 31.749,4.823 C42.018,15.565 39.414,22.133 44.895,28.158 C46.253,29.799 47.046,29.26 47.92,29.976 L37.163,39.371 L26.7,49.091 z" fill="#9B9B5D"/>
      <path d="M26.7,49.091 C26.079,48.148 26.667,47.442 25.184,45.914 C19.207,39.608 13.771,41.328 4.339,31.26 C-9.19,16.272 17.557,-9.512 31.749,4.823 C42.018,15.565 39.414,22.133 44.895,28.158 C46.253,29.799 47.046,29.26 47.92,29.976 L37.163,39.371 L26.7,49.091 z" fill-opacity="0" stroke="#000000" stroke-width="1" stroke-linejoin="round"/>
    </g>
    <g id="g9632">
      <g id="path7761">
        <path d="M99.297,95.607 C102.276,98.914 102.01,104.02 98.705,106.998 C95.391,109.983 90.285,109.715 87.306,106.408 C84.326,103.101 84.599,98.003 87.913,95.018 C91.218,92.04 96.317,92.299 99.297,95.607 z" fill="url(#Gradient_3)"/>
        <path d="M99.297,95.607 C102.276,98.914 102.01,104.02 98.705,106.998 C95.391,109.983 90.285,109.715 87.306,106.408 C84.326,103.101 84.599,98.003 87.913,95.018 C91.218,92.04 96.317,92.299 99.297,95.607 z" fill-opacity="0" stroke="#000000" stroke-width="1.225"/>
      </g>
      <g id="path8387">
        <path d="M97.455,97.253 C99.398,99.41 99.182,102.762 96.992,104.735 C94.791,106.718 91.434,106.584 89.491,104.427 C87.547,102.269 87.764,98.917 89.965,96.935 C92.155,94.961 95.511,95.095 97.455,97.253 z" fill="#004691"/>
        <path d="M97.455,97.253 C99.398,99.41 99.182,102.762 96.992,104.735 C94.791,106.718 91.434,106.584 89.491,104.427 C87.547,102.269 87.764,98.917 89.965,96.935 C92.155,94.961 95.511,95.095 97.455,97.253 z" fill-opacity="0" stroke="#000000" stroke-width="1.25"/>
      </g>
      <path d="M94.14,105.027 C88.086,105.716 87.83,97.857 91.977,96.813 C99.871,95.894 98.853,104.267 94.14,105.027 z" fill="url(#Gradient_4)" id="path9009"/>
    </g>
    <path d="M27.354,47.217 C26.733,46.274 26.635,46.778 25.152,45.251 C19.175,38.945 14.066,40.37 4.634,30.303 C-8.354,16.109 18.147,-7.183 30.883,5.207 C41.152,15.949 39.062,21.757 44.536,27.789 C45.9,29.423 45.232,29.905 46.106,30.622 L36.804,39.002 L27.354,47.217 z" fill="url(#Gradient_5)" id="path2814"/>
    <g id="g9636">
      <g id="path9637">
        <path d="M27.401,16.426 C30.381,19.733 30.115,24.84 26.81,27.818 C23.496,30.803 18.39,30.535 15.41,27.228 C12.431,23.921 12.704,18.822 16.018,15.837 C19.323,12.86 24.422,13.119 27.401,16.426 z" fill="url(#Gradient_6)"/>
        <path d="M27.401,16.426 C30.381,19.733 30.115,24.84 26.81,27.818 C23.496,30.803 18.39,30.535 15.41,27.228 C12.431,23.921 12.704,18.822 16.018,15.837 C19.323,12.86 24.422,13.119 27.401,16.426 z" fill-opacity="0" stroke="#000000" stroke-width="1.225"/>
      </g>
      <g id="path9638">
        <path d="M25.56,18.072 C27.503,20.23 27.287,23.582 25.097,25.555 C22.896,27.538 19.539,27.404 17.596,25.246 C15.652,23.089 15.868,19.737 18.069,17.754 C20.26,15.781 23.616,15.915 25.56,18.072 z" fill="#004691"/>
        <path d="M25.56,18.072 C27.503,20.23 27.287,23.582 25.097,25.555 C22.896,27.538 19.539,27.404 17.596,25.246 C15.652,23.089 15.868,19.737 18.069,17.754 C20.26,15.781 23.616,15.915 25.56,18.072 z" fill-opacity="0" stroke="#000000" stroke-width="1.25"/>
      </g>
      <path d="M22.245,25.846 C16.191,26.536 15.935,18.677 20.082,17.633 C27.976,16.714 26.958,25.087 22.245,25.846 z" fill="url(#Gradient_7)" id="path9639"/>
    </g>
    <path d="M4.866,30.725 L13.575,25.392 C12.317,23.07 12.039,18.817 15.405,15.576 C18.421,12.649 22.897,12.492 25.723,14.24 L32.602,6.996 C31.463,4.566 21.585,-4.652 8.523,7.114 C-2.057,16.645 0.894,27.705 4.865,30.724 z" fill="url(#Gradient_8)" id="path9644"/>
    <g id="path930">
      <path d="M110.928,134.211 C118.44,142.371 294.359,337.509 302.385,342.46 C318.108,352.577 323.303,347.601 313.703,330.34 C309.478,323.514 128.361,127.821 124.212,123.214 C118.598,118.028 112.212,119.515 104.235,113.887 C108.829,123.275 107.696,129.667 110.928,134.211 z" fill="url(#Gradient_9)"/>
      <path d="M110.928,134.211 C118.44,142.371 294.359,337.509 302.385,342.46 C318.108,352.577 323.303,347.601 313.703,330.34 C309.478,323.514 128.361,127.821 124.212,123.214 C118.598,118.028 112.212,119.515 104.235,113.887 C108.829,123.275 107.696,129.667 110.928,134.211 z" fill-opacity="0" stroke="#000000" stroke-width="1" stroke-opacity="0.359"/>
    </g>
    <path d="M66.903,118.015 C61.229,122.399 52.667,127.043 48.459,132.516 C44.932,137.147 46.067,140.095 48.416,143.51 C51.053,146.438 51.987,146.996 57.718,146.41 C62.699,145.53 69.489,142.28 63.987,136.173 C60.233,132.812 59.286,135.765 58.519,138.38 C59.069,132.581 65.097,125.079 69.848,121.284 C68.295,119.56 67.306,120.061 66.903,118.015 z" fill="url(#Gradient_10)" id="path2187"/>
    <path d="M111.745,77.028 C116.696,71.841 123.489,63.245 129.37,59.63 C134.343,56.604 136.863,57.712 140.007,60.411 C142.644,63.339 143.6,63.877 142.421,69.515 C141.027,74.378 136.893,81.562 131.391,75.454 C128.439,71.37 132.128,70.147 134.809,69.656 C128.985,69.6 119.277,75.976 115.001,80.313 C113.448,78.589 113.746,77.635 111.745,77.028 z" fill="url(#Gradient_11)" id="path2810"/>
    <path d="M51.8,36.047 C51.008,36.856 56.201,51.465 60.968,65.842 C47.43,59.733 33.908,53.79 32.482,53.882 C30.785,55.045 33.275,57.017 36.508,57.767 C37.794,58.06 49.904,63.72 61.944,69.286 C65.423,79.676 69.287,91.019 69.492,92.053 C70.695,95.002 71.237,97.65 72.689,95.602 C73.301,94.727 69.222,82.744 65.163,70.708 C76.963,76.112 88.762,81.366 89.716,80.842 C91.212,79.858 90.309,78.855 87.085,77.92 C86.054,77.598 74.804,71.878 64.487,67.178 C59.418,54.379 55.053,41.197 54.895,39.855 C54.493,36.556 53.134,34.479 51.8,36.047 z" fill="url(#Gradient_12)" id="path4693"/>
  </g>
</svg>
