<?xml version="1.0" encoding="UTF-8" standalone="no"?>
<!-- Created with Inkscape (http://www.inkscape.org/) -->
<svg xmlns:inkscape="http://www.inkscape.org/namespaces/inkscape" xmlns:rdf="http://www.w3.org/1999/02/22-rdf-syntax-ns#" xmlns="http://www.w3.org/2000/svg" xmlns:xlink="http://www.w3.org/1999/xlink" xmlns:ns1="http://sozi.baierouge.fr" xmlns:cc="http://creativecommons.org/ns#" xmlns:sodipodi="http://sodipodi.sourceforge.net/DTD/sodipodi-0.dtd" xmlns:dc="http://purl.org/dc/elements/1.1/" id="svg2" xml:space="preserve" viewBox="0 0 41.432 24.821" version="1.1" inkscape:version="0.91 r13725">
  <defs id="defs6">
    <linearGradient id="linearGradient26" y2="1739.4" gradientUnits="userSpaceOnUse" x2="13997" gradientTransform="matrix(.16166 .61926 -.61926 .16166 -1157.4 -8938.2)" y1="1739.4" x1="13987">
      <stop id="stop28" style="stop-color:#617220" offset="0"/>
      <stop id="stop30" style="stop-color:#869d2e" offset="1"/>
    </linearGradient>
    <linearGradient id="linearGradient56" y2="2121.3" gradientUnits="userSpaceOnUse" x2="13303" gradientTransform="matrix(.20333 .60685 -.60685 .20333 -1395.8 -8496.6)" y1="2121.3" x1="13298">
      <stop id="stop58" style="stop-color:#617220" offset="0"/>
      <stop id="stop60" style="stop-color:#869d2e" offset="1"/>
    </linearGradient>
    <linearGradient id="linearGradient78" y2="-16206" gradientUnits="userSpaceOnUse" x2="16420" gradientTransform="matrix(-.63994 .009024 -.009024 -.63994 10365 -10509)" y1="-16206" x1="16409">
      <stop id="stop80" style="stop-color:#6f66ae" offset="0"/>
      <stop id="stop82" style="stop-color:#7e7ac1" offset=".17650"/>
      <stop id="stop84" style="stop-color:#969be2" offset=".52160"/>
      <stop id="stop86" style="stop-color:#a6aff6" offset=".80780"/>
      <stop id="stop88" style="stop-color:#abb6fd" offset="1"/>
    </linearGradient>
    <linearGradient id="linearGradient130" y2="-3397.6" gradientUnits="userSpaceOnUse" x2="18656" gradientTransform="matrix(-.22381 .59962 -.59962 -.22381 2147.4 -11927)" y1="-3397.6" x1="18644">
      <stop id="stop132" style="stop-color:#6f66ae" offset="0"/>
      <stop id="stop134" style="stop-color:#7e7ac1" offset=".17650"/>
      <stop id="stop136" style="stop-color:#969be2" offset=".52160"/>
      <stop id="stop138" style="stop-color:#a6aff6" offset=".80780"/>
      <stop id="stop140" style="stop-color:#abb6fd" offset="1"/>
    </linearGradient>
    <linearGradient id="linearGradient178" y2="2167" gradientUnits="userSpaceOnUse" x2="3085.3" gradientTransform="matrix(.60614 .20531 -.20531 .60614 -1401.3 -1931.1)" y1="2167" x1="3069">
      <stop id="stop180" style="stop-color:#6f66ae" offset="0"/>
      <stop id="stop182" style="stop-color:#7e7ac1" offset=".17650"/>
      <stop id="stop184" style="stop-color:#969be2" offset=".52160"/>
      <stop id="stop186" style="stop-color:#a6aff6" offset=".80780"/>
      <stop id="stop188" style="stop-color:#abb6fd" offset="1"/>
    </linearGradient>
    <linearGradient id="linearGradient218" y2="-1592.8" gradientUnits="userSpaceOnUse" x2="-1278.9" gradientTransform="matrix(.62976 -.11392 .11392 .62976 1013.9 865.42)" y1="-1592.8" x1="-1301">
      <stop id="stop220" style="stop-color:#6f66ae" offset="0"/>
      <stop id="stop222" style="stop-color:#7e7ac1" offset=".17650"/>
      <stop id="stop224" style="stop-color:#969be2" offset=".52160"/>
      <stop id="stop226" style="stop-color:#a6aff6" offset=".80780"/>
      <stop id="stop228" style="stop-color:#abb6fd" offset="1"/>
    </linearGradient>
    <linearGradient id="linearGradient260" y2="-17618" gradientUnits="userSpaceOnUse" x2="1589.6" gradientTransform="matrix(-.11366 -.62982 .62982 -.11366 11292 -1e3)" y1="-17618" x1="1575.8">
      <stop id="stop262" style="stop-color:#6f66ae" offset="0"/>
      <stop id="stop264" style="stop-color:#7e7ac1" offset=".17650"/>
      <stop id="stop266" style="stop-color:#969be2" offset=".52160"/>
      <stop id="stop268" style="stop-color:#a6aff6" offset=".80780"/>
      <stop id="stop270" style="stop-color:#abb6fd" offset="1"/>
    </linearGradient>
    <linearGradient id="linearGradient346" y2="-17623" gradientUnits="userSpaceOnUse" x2="14704" gradientTransform="matrix(-.62982 -.11354 .11354 -.62982 11284 -9427.2)" y1="-17623" x1="14697">
      <stop id="stop348" style="stop-color:#617220" offset="0"/>
      <stop id="stop350" style="stop-color:#869d2e" offset="1"/>
    </linearGradient>
  </defs>
  <g id="g10" transform="matrix(1.25 0 0 -1.25 0 24.821)">
    <g id="g12">
      <path id="path14" style="fill-rule:evenodd;fill:#667c00" d="m24.801 4.114c1.984 2.344 3.508 4.606 4.574 6.782l0.258-0.864c0.746-3.797 0.019-6.121-2.176-6.976l-2.496 0.769-0.16 0.289z" inkscape:connector-curvature="0"/>
      <g id="g16">
        <g id="g18">
          <g id="g24">
            <path id="path32" style="fill-rule:evenodd;fill:url(#linearGradient26)" d="m28.77 11.919c0.894-0.469 1.351-1.301 1.375-2.496 0-2.922-1.012-4.895-3.04-5.918l-2.015 0.191c-0.301 0.469-0.363 1.172-0.195 2.114 0.171 1.086 0.621 1.886 1.343 2.398 0.875 0.641 1.473 1.164 1.793 1.57 0.383 0.489 0.461 0.926 0.227 1.309l-0.832 1.184 1.344-0.352z" inkscape:connector-curvature="0"/>
          </g>
        </g>
      </g>
      <path id="path34" style="fill-rule:evenodd;fill:#5e7200" d="m30.047 9.009c-0.063-0.703-0.149-1.621-0.254-2.754-0.086-0.789-0.203-1.277-0.352-1.469-0.277-0.406-0.492-0.695-0.64-0.867-0.235-0.34-0.395-0.488-0.481-0.445l-1.281 0.574-1.887 2.305c0.493-0.535 0.864-0.61 1.121-0.223 0.106 0.168 0.211 0.5 0.321 0.992 0.082 0.446 0.222 0.766 0.414 0.957l0.879 0.914c-0.086-0.101-0.188-0.234-0.301-0.402-0.258-0.445-0.418-0.926-0.481-1.438-0.066-0.535 0.008-1.023 0.223-1.472 0.192-0.363 0.395-0.578 0.61-0.641 0.382-0.086 0.777 0.363 1.183 1.344 0.234 0.578 0.426 1.258 0.574 2.047 0.172 0.898 0.192 1.547 0.067 1.953l-0.481 1.281 0.446-0.543c0.3-0.535 0.406-1.238 0.32-2.113z" inkscape:connector-curvature="0"/>
      <path id="path36" style="fill-rule:evenodd;fill:#485700" d="m25.762 5.935 1.023-0.637c-0.191 0.383-0.258 0.766-0.191 1.152l0.16 0.926 0.156-0.894c0.129-0.622 0.278-1.036 0.449-1.25 0.149-0.168 0.266-0.395 0.352-0.672 0.086-0.172 0.301-0.149 0.641 0.066 0.703 0.445 1.121 1.109 1.25 1.984l0.253 1.309c0.043-1.664-0.136-2.805-0.543-3.422-0.234-0.383-0.468-0.672-0.703-0.863l-0.289-0.16-0.863 0.414-1.695 2.047z" inkscape:connector-curvature="0"/>
      <path id="path38" style="fill-rule:evenodd;fill:#9db800" d="m27.426 7.185 0.445 0.191c0.043 0.024 0.191 0.16 0.449 0.418 0.278 0.211 0.457 0.285 0.543 0.223 0.149-0.129 0.067-0.395-0.254-0.801-0.492-0.746-0.843-1.043-1.058-0.895-0.235 0.172-0.278 0.457-0.125 0.864z" inkscape:connector-curvature="0"/>
      <path id="path40" style="fill-rule:evenodd;fill:#9db800" d="m27.617 8.271-0.031 0.129c0.937 0.789 1.363 0.992 1.277 0.609-0.019-0.106-0.105-0.203-0.254-0.289-0.195-0.086-0.32-0.149-0.386-0.192l-0.672-0.574c-0.125 0.106-0.106 0.211 0.066 0.317z" inkscape:connector-curvature="0"/>
      <path id="path42" style="fill-rule:evenodd;fill:#9db800" d="m25.984 7.568 0.289 0.066c0.02-0.066-0.023-0.172-0.128-0.32-0.106-0.129-0.204-0.192-0.29-0.192-0.148 0.02-0.191 0.094-0.128 0.223 0.066 0.105 0.152 0.18 0.257 0.223z" inkscape:connector-curvature="0"/>
      <path id="path44" style="fill-rule:evenodd;fill:#9db800" d="m25.406 6.767 0.449-0.223c0.106-0.086 0.118-0.16 0.032-0.223-0.082-0.086-0.168-0.097-0.254-0.031-0.067 0.043-0.129 0.106-0.192 0.192-0.043 0.105-0.054 0.203-0.035 0.285z" inkscape:connector-curvature="0"/>
      <g id="g46">
        <g id="g48">
          <g id="g54">
            <path id="path62" style="fill-rule:evenodd;fill:url(#linearGradient56)" d="m15.07 8.337-3.773 1.793 5.246-1.504c3.734-1.109 6.199-1.941 7.395-2.496 1.257-0.578 2.515-0.961 3.773-1.152 0.746-0.129 1.707-0.192 2.883-0.192 1.129 0.02 1.695 0.008 1.695-0.035-0.344-0.105-0.684-0.266-1.023-0.48-0.684-0.446-1.028-1-1.028-1.661 0-1.046 0.035-1.824 0.098-2.339-7.594 4.437-12.684 7.129-15.266 8.066z" inkscape:connector-curvature="0"/>
          </g>
        </g>
      </g>
      <path id="path64" style="fill-rule:evenodd;fill:#4a5a00" d="m29.855 3.599c0.469 0.621 0.79 0.984 0.961 1.09 0.297 0.171 0.789 0.191 1.473 0.062 1.086-0.211 1.141-1.375 0.16-3.488-0.258-0.574-0.59-0.957-0.992-1.149-0.387-0.195-0.758-0.14-1.121 0.157-0.383 0.3-0.641 0.812-0.77 1.539-0.148 0.746-0.05 1.343 0.289 1.789z" inkscape:connector-curvature="0"/>
      <path id="path66" style="fill-rule:evenodd;fill:#677c00" d="m31.297 4.271c0.617-0.082 1.012-0.223 1.183-0.414 0.278-0.34 0.18-0.938-0.289-1.793-0.449-0.875-0.882-1.258-1.312-1.153-0.34 0.067-0.555 0.364-0.641 0.899-0.082 0.511-0.05 1.035 0.098 1.566 0.191 0.66 0.512 0.961 0.961 0.895z" inkscape:connector-curvature="0"/>
      <g id="g68">
        <g id="g70">
          <g id="g76">
            <path id="path90" style="fill-rule:evenodd;fill:url(#linearGradient78)" d="m4.543 7.216c-1.086 0.277-2.176 0.781-3.262 1.504l-1.281 1.023h0.641c0.531-0.043 1.054-0.105 1.566-0.191 0.535-0.086 1.418 0.172 2.656 0.769 0.727 0.364 1.836 0.961 3.328 1.793 0.899 0.446 1.899 0.477 3.008 0.094 0.555-0.191 1.024-0.426 1.41-0.703 0.766-1.109 0.981-2.156 0.637-3.137-0.297-0.832-0.863-1.429-1.695-1.793-1.172-0.511-3.508-0.297-7.008 0.641z" inkscape:connector-curvature="0"/>
          </g>
        </g>
      </g>
      <path id="path92" style="fill-rule:evenodd;fill:#605a98" d="m7.266 9.329 0.125 0.16c0-0.129-0.032-0.234-0.094-0.32-0.621-0.105-1.313-0.16-2.082-0.16 0.387 0.086 0.629 0.172 0.738 0.254l0.735 0.195 0.578-0.129z" inkscape:connector-curvature="0"/>
      <path id="path94" style="fill-rule:evenodd;fill:#605a98" d="m8.512 12.239c0.851 0.344 1.793 0.321 2.816-0.062 0.512-0.192 0.938-0.418 1.281-0.672 0.766-1.109 0.981-2.156 0.637-3.137-0.297-0.832-0.863-1.429-1.695-1.793-1.172-0.511-3.508-0.297-7.008 0.641-1.535 0.406-2.941 1.152-4.223 2.242l0.735-0.355c0.769-0.469 1.398-0.797 1.89-0.989 1.172-0.492 2.43-0.781 3.774-0.867 1.301-0.062 2.379 0.117 3.234 0.547 0.426 0.191 0.715 0.402 0.863 0.637l0.161 0.929c-0.172 0.215-0.555 0.309-1.153 0.29l0.16 0.32-0.578-0.227 0.035-0.125-1.41-0.32c0.11 0.211 0.235 0.395 0.383 0.543l-0.957-0.223-0.129 0.032c0.789 0.21 1.332 0.425 1.633 0.64l0.543-0.097-0.258 0.32 0.547 0.351c-0.684 0.172-1.109 0.629-1.281 1.375z" inkscape:connector-curvature="0"/>
      <path id="path96" style="fill-rule:evenodd;fill:#605a98" d="m7.457 9.618 0.957 0.223c-0.148-0.148-0.277-0.332-0.383-0.543-0.234-0.406-0.371-0.629-0.414-0.672-0.597-0.683-1.004-1.027-1.219-1.027 0.387 0.429 0.684 0.949 0.899 1.57 0.062 0.086 0.094 0.191 0.094 0.32l0.129 0.129h-0.063z" inkscape:connector-curvature="0"/>
      <path id="path98" style="fill-rule:evenodd;fill:#605a98" d="m9.441 9.618-0.035 0.125 0.578 0.227-0.16-0.32-0.16-0.512c-0.019-0.043-0.117-0.192-0.289-0.449-0.043-0.079-0.078-0.153-0.109-0.223 0.046 0.152 0.082 0.293 0.109 0.414 0.066 0.34 0.086 0.586 0.066 0.738z" inkscape:connector-curvature="0"/>
      <path id="path100" style="fill-rule:evenodd;fill:#605a98" d="m7.52 9.618-0.254-0.289-0.578 0.129-0.61 0.32c-0.105 0.106-0.273 0.211-0.512 0.317l1.891-0.477h0.063z" inkscape:connector-curvature="0"/>
      <path id="path102" style="fill-rule:evenodd;fill:#605a98" d="m9.504 10.193-0.543 0.097c-0.746 0.168-1.25 0.477-1.504 0.926 0.191-0.02 0.481-0.129 0.863-0.32 0.383-0.192 0.684-0.297 0.895-0.321l0.031-0.062 0.258-0.32z" inkscape:connector-curvature="0"/>
      <path id="path104" style="fill-rule:evenodd;fill:#577ed3" d="m3.617 9.458c0.383-0.195 0.797-0.238 1.246-0.129 0.172 0.043 0.278 0.094 0.321 0.16 0.086 0.106 0.105 0.18 0.062 0.223-0.019 0.023-0.094 0.043-0.223 0.066l-0.511 0.094c-0.149 0.043-0.332 0.031-0.543-0.031-0.235-0.086-0.352-0.215-0.352-0.383zm1.024-0.449c-2.305 0-3.508 0.234-3.618 0.703l1.184-0.16c0.535-0.106 1.441 0.16 2.723 0.801l0.636-0.258c0.239-0.106 0.407-0.211 0.512-0.317 0.086-0.085 0.11-0.171 0.067-0.257 0-0.043-0.067-0.129-0.192-0.258-0.109-0.086-0.351-0.168-0.738-0.254-0.254-0.043-0.445-0.043-0.574 0z" inkscape:connector-curvature="0"/>
      <path id="path106" style="fill-rule:evenodd;fill:#577ed3" d="m4.16 8.497c0.149-0.129 0.34-0.226 0.574-0.289 0.215-0.086 0.395-0.105 0.547-0.062 0.168 0.019 0.278 0.074 0.321 0.16 0.062 0.082-0.024 0.148-0.258 0.191-0.918 0.129-1.313 0.129-1.184 0zm0.383-0.48c-0.809 0.172-1.504 0.414-2.078 0.734-0.235 0.129 0.129 0.141 1.086 0.035 1.219-0.129 1.933-0.16 2.144-0.097 0.364 0.105 0.598 0.097 0.703-0.032 0.11-0.109 0.055-0.3-0.16-0.578-0.191-0.254-0.754-0.277-1.695-0.062z" inkscape:connector-curvature="0"/>
      <path id="path108" style="fill-rule:evenodd;fill:#577ed3" d="m7.426 8.271c0.168 0.386 0.359 0.601 0.574 0.64 0.469 0.129 0.574-0.031 0.32-0.48-0.258-0.446-0.523-0.68-0.8-0.703-0.235 0-0.266 0.183-0.094 0.543zm0.543 0.035c0.019 0.062 0.062 0.179 0.129 0.351l-0.16 0.129c-0.11 0.063-0.184-0.011-0.227-0.226-0.02-0.063-0.051-0.137-0.094-0.223 0-0.066 0.031-0.117 0.094-0.16 0.109-0.043 0.191 0 0.258 0.129z" inkscape:connector-curvature="0"/>
      <path id="path110" style="fill-rule:evenodd;fill:#577ed3" d="m7.07 10.864c-0.105 0.02-0.179 0.032-0.222 0.032-0.086 0-0.129-0.063-0.129-0.192 0.172-0.105 0.418-0.16 0.738-0.16l0.031 0.223-0.418 0.097zm0.227 0.129c0.234-0.109 0.402-0.246 0.512-0.418 0.105-0.168 0.086-0.297-0.067-0.382-0.148-0.086-0.371-0.086-0.672 0-0.34 0.085-0.562 0.222-0.672 0.417-0.082 0.192-0.019 0.329 0.196 0.415 0.191 0.085 0.426 0.074 0.703-0.032z" inkscape:connector-curvature="0"/>
      <path id="path112" style="fill-rule:evenodd;fill:#86e8ff" d="m4.16 8.497c-0.129 0.129 0.266 0.129 1.184 0 0.234-0.043 0.32-0.109 0.258-0.191-0.043-0.086-0.153-0.141-0.321-0.16-0.148-0.043-0.332-0.024-0.547 0.062-0.234 0.063-0.425 0.16-0.574 0.289z" inkscape:connector-curvature="0"/>
      <path id="path114" style="fill-rule:evenodd;fill:#86e8ff" d="m5.184 9.489c-0.043-0.066-0.149-0.117-0.321-0.16-0.449-0.109-0.863-0.066-1.246 0.129 0 0.168 0.117 0.297 0.352 0.383 0.211 0.062 0.394 0.074 0.543 0.031l0.511-0.094c0.129-0.023 0.204-0.043 0.223-0.066 0.043-0.043 0.024-0.117-0.062-0.223z" inkscape:connector-curvature="0"/>
      <path id="path116" style="fill-rule:evenodd;fill:#86e8ff" d="m7.457 10.544c-0.32 0-0.566 0.055-0.738 0.16 0 0.129 0.043 0.192 0.129 0.192 0.043 0 0.117-0.012 0.222-0.032l0.418-0.097-0.031-0.223z" inkscape:connector-curvature="0"/>
      <path id="path118" style="fill-rule:evenodd;fill:#86e8ff" d="m7.711 8.177c-0.063 0.043-0.094 0.094-0.094 0.16 0.043 0.086 0.074 0.16 0.094 0.223 0.043 0.215 0.117 0.289 0.227 0.226l0.16-0.129c-0.067-0.172-0.11-0.289-0.129-0.351-0.067-0.129-0.149-0.172-0.258-0.129z" inkscape:connector-curvature="0"/>
      <g id="g120">
        <g id="g122">
          <g id="g128">
            <path id="path142" style="fill-rule:evenodd;fill:url(#linearGradient130)" d="m7.008 18.482-0.289 1.375 3.265-1.344c2.282-1.067 3.711-2.004 4.289-2.817 0.34-0.468 0.446-1.14 0.321-2.015-0.129-0.832-0.438-1.578-0.93-2.238-1.258-1.688-2.676-1.75-4.258-0.196-0.531 0.196-1.043 0.504-1.535 0.93-0.98 0.851-1.332 1.836-1.055 2.945 0.278 1.11 0.34 2.227 0.192 3.36z" inkscape:connector-curvature="0"/>
          </g>
        </g>
      </g>
      <path id="path144" style="fill-rule:evenodd;fill:#605a98" d="m6.719 19.857 0.16-0.063c0.344-0.344 0.523-0.781 0.547-1.312-0.129-0.856-0.184-1.387-0.16-1.602-0.11-0.852-0.161-1.48-0.161-1.887 0.02-0.683 0.18-1.215 0.481-1.601 0.426-0.574 1.117-0.918 2.078-1.024 0.852-0.129 1.449-0.054 1.793 0.223 0.211 0.152 0.297 0.418 0.254 0.801-0.02 0.234-0.125 0.629-0.32 1.183l0.16-0.031-0.285 0.449c0.082-0.109 0.179-0.191 0.285-0.258 0.023 0.043-0.043 0.29-0.192 0.739 0.579-0.789 0.981-1.219 1.215-1.281 0.043-0.02 0.215 0.203 0.516 0.671 0.383 0.493 0.777 0.778 1.183 0.864v-0.032c0.34-0.468 0.446-1.14 0.321-2.015-0.129-0.832-0.438-1.578-0.93-2.238-1.258-1.688-2.676-1.75-4.258-0.196-0.531 0.196-1.043 0.504-1.535 0.93-0.98 0.851-1.332 1.836-1.055 2.945 0.278 1.11 0.34 2.227 0.192 3.36l-0.289 1.375z" inkscape:connector-curvature="0"/>
      <path id="path146" style="fill-rule:evenodd;fill:#605a98" d="m10.879 16.177-0.094-0.383c-0.449 0.598-1.066 1.246-1.855 1.949l-0.035 0.098c0.855-0.535 1.515-1.09 1.984-1.664z" inkscape:connector-curvature="0"/>
      <path id="path148" style="fill-rule:evenodd;fill:#577ed3" d="m9.406 16.271c-0.125-0.274-0.437-0.395-0.926-0.352-0.492 0.066-0.843 0.203-1.054 0.418-0.067 0.086-0.117 0.266-0.16 0.543-0.024 0.215 0.031 0.746 0.16 1.602l0.062 0.351c0.043 0.235 0.18 0.266 0.414 0.094 0.067-0.039 0.27-0.234 0.61-0.574l0.383-0.512 0.035-0.098c0.445-0.679 0.605-1.172 0.476-1.472zm-1.148 0.578c0.297 0 0.39 0.234 0.285 0.703s-0.32 0.758-0.641 0.863c-0.168 0.043-0.222-0.211-0.16-0.765 0.043-0.536 0.215-0.801 0.516-0.801z" inkscape:connector-curvature="0"/>
      <path id="path150" style="fill-rule:evenodd;fill:#577ed3" d="m10.207 18.001c0.215-0.086 0.395-0.031 0.547 0.16l0.512-0.289 0.031-0.289c-0.024-0.297-0.129-0.512-0.32-0.637-0.172-0.109-0.332-0.121-0.481-0.035-0.129 0.086-0.437 0.375-0.93 0.867-0.488 0.469-0.839 0.832-1.054 1.086-0.086 0.149-0.117 0.258-0.098 0.321l0.93-0.383c0.172-0.426 0.461-0.695 0.863-0.801z" inkscape:connector-curvature="0"/>
      <path id="path152" style="fill-rule:evenodd;fill:#577ed3" d="m9.824 15.345c-0.172 0.086-0.383 0.074-0.64-0.031-0.278-0.129-0.426-0.321-0.45-0.579-0.019-0.253 0.098-0.402 0.356-0.445 0.211-0.043 0.394-0.023 0.543 0.063 0.191 0.105 0.328 0.246 0.414 0.414 0.109 0.238 0.031 0.429-0.223 0.578zm-0.703 0.351-0.066-0.062c0.129-0.043 0.332-0.078 0.609-0.098 0.191-0.043 0.457-0.148 0.801-0.32l0.191-0.094c0.106-0.32-0.043-0.64-0.449-0.961-0.383-0.32-0.789-0.449-1.215-0.383-0.469 0.063-0.769 0.2-0.894 0.415-0.129 0.171-0.153 0.48-0.067 0.929 0.043 0.34 0.407 0.531 1.09 0.574z" inkscape:connector-curvature="0"/>
      <path id="path154" style="fill-rule:evenodd;fill:#577ed3" d="m12.191 16.079c0.301-0.062 0.512 0.024 0.641 0.258 0.106 0.234-0.031 0.438-0.418 0.609-0.125 0.063-0.254-0.054-0.383-0.355-0.148-0.297-0.093-0.469 0.16-0.512zm0.032 1.281 1.121-0.734c-0.063-0.492-0.34-0.832-0.832-1.027-0.321-0.149-0.586-0.137-0.801 0.035-0.211 0.191-0.297 0.437-0.254 0.734 0.105 0.555 0.363 0.887 0.766 0.992z" inkscape:connector-curvature="0"/>
      <path id="path156" style="fill-rule:evenodd;fill:#86e8ff" d="m8.258 16.849c-0.301 0-0.473 0.265-0.516 0.801-0.062 0.554-0.008 0.808 0.16 0.765 0.321-0.105 0.536-0.394 0.641-0.863 0.109-0.469 0.012-0.703-0.285-0.703z" inkscape:connector-curvature="0"/>
      <path id="path158" style="fill-rule:evenodd;fill:#86e8ff" d="m10.207 18.001c-0.402 0.106-0.691 0.371-0.863 0.801l1.41-0.641c-0.152-0.191-0.332-0.246-0.547-0.16z" inkscape:connector-curvature="0"/>
      <path id="path160" style="fill-rule:evenodd;fill:#86e8ff" d="m12.191 16.079c-0.253 0.043-0.308 0.215-0.16 0.512 0.129 0.301 0.258 0.418 0.383 0.355 0.387-0.171 0.524-0.375 0.418-0.609-0.129-0.234-0.34-0.32-0.641-0.258z" inkscape:connector-curvature="0"/>
      <path id="path162" style="fill-rule:evenodd;fill:#86e8ff" d="m9.633 14.353c-0.149-0.086-0.332-0.106-0.543-0.063-0.258 0.043-0.375 0.192-0.356 0.445 0.024 0.258 0.172 0.45 0.45 0.579 0.257 0.105 0.468 0.117 0.64 0.031 0.254-0.149 0.332-0.344 0.223-0.578-0.086-0.168-0.223-0.309-0.414-0.414z" inkscape:connector-curvature="0"/>
      <path id="path164" style="fill-rule:evenodd;fill:#605a98" d="m10.754 15.759-0.035-0.285c0.023-0.086 0.148-0.192 0.386-0.321l0.161-0.16 0.285-0.449-0.16 0.031-0.321 0.258c-0.125 0.129-0.265 0.223-0.414 0.289l-0.191 0.094c-0.344 0.172-0.61 0.277-0.801 0.32-0.277 0.02-0.48 0.055-0.609 0.098l0.066 0.062c0.34 0.278 0.852 0.352 1.535 0.223l0.098-0.16z" inkscape:connector-curvature="0"/>
      <path id="path166" style="fill-rule:evenodd;fill:#605a98" d="m10.785 15.794 0.094 0.383c0.086 0.172 0.246 0.332 0.48 0.48-0.043-0.578-0.043-0.949 0-1.121v-0.062c0.149-0.449 0.215-0.696 0.192-0.739-0.106 0.067-0.203 0.149-0.285 0.258l-0.161 0.16c-0.238 0.129-0.363 0.235-0.386 0.321l0.035 0.285 0.031 0.035z" inkscape:connector-curvature="0"/>
      <g id="g168">
        <g id="g170">
          <g id="g176">
            <path id="path190" style="fill-rule:evenodd;fill:url(#linearGradient178)" d="m12.383 12.626c0.129 0.66 0.621 1.469 1.472 2.43 1.133 1.258 2.293 1.781 3.489 1.57 1.879-0.344 4.129-0.387 6.754-0.129-0.153-0.469-0.399-1.004-0.739-1.601-0.66-1.215-1.449-2.133-2.367-2.75-1.406-0.985-3.222-1.559-5.441-1.731-2.496-0.168-3.551 0.567-3.168 2.211z" inkscape:connector-curvature="0"/>
          </g>
        </g>
      </g>
      <path id="path192" style="fill-rule:evenodd;fill:#605a98" d="m20.574 12.689c1.324 0.726 2.422 1.781 3.297 3.168-0.789-1.727-1.75-2.965-2.879-3.711-1.406-0.985-3.222-1.559-5.441-1.731-2.496-0.168-3.551 0.567-3.168 2.211 0.043 0.254 0.301 0.754 0.769 1.504l-0.062-0.289 1.148 0.926c0.875 0.621 1.621 0.941 2.242 0.961 0.938 0.043 2.133 0.043 3.582 0-1.746-0.192-2.761-0.321-3.039-0.383-0.425-0.086-0.949-0.309-1.566-0.672-0.641-0.363-1.109-0.738-1.41-1.121-0.254-0.34-0.445-0.649-0.574-0.926-0.067-0.152-0.11-0.258-0.129-0.32l1.601-0.352c1.196-0.215 2.102-0.289 2.719-0.226 0.961 0.086 1.93 0.406 2.91 0.961z" inkscape:connector-curvature="0"/>
      <path id="path194" style="fill-rule:evenodd;fill:#577ed3" d="m23.137 16.239c-0.129-0.211-0.641-0.351-1.535-0.414-0.813-0.043-1.504-0.011-2.082 0.094-0.297 0.043-0.84 0.066-1.633 0.066-0.68 0-1.203 0.063-1.567 0.192-0.258 0.086-0.406 0.191-0.449 0.32 0.277 0.106 0.535 0.16 0.77 0.16l-0.032-0.031c0.063-0.109 0.149-0.16 0.254-0.16 0.321-0.129 0.715-0.234 1.184-0.32 0.301-0.067 0.48 0.043 0.547 0.32l1.375-0.098v-0.031l0.414-0.191c0.234-0.067 0.504-0.032 0.801 0.093l0.382 0.129 1.633 0.063-0.062-0.192z" inkscape:connector-curvature="0"/>
      <path id="path196" style="fill-rule:evenodd;fill:#577ed3" d="m20.129 14.767c-0.492-0.34-0.586-0.563-0.289-0.672 1.492 0.043 2.133 0.289 1.922 0.738l-0.418 0.32c-0.02-0.043-0.203-0.097-0.543-0.16-0.321-0.086-0.543-0.16-0.672-0.226zm1.758 0.769c0.449 0.063 0.726 0.055 0.832-0.031 0.406-0.32 0.258-0.715-0.446-1.184-0.621-0.406-1.226-0.664-1.824-0.769-0.387-0.063-0.672-0.02-0.863 0.129-0.152 0.191-0.289 0.34-0.418 0.449-0.148 0.125-0.106 0.297 0.129 0.512 0.254 0.211 0.641 0.402 1.152 0.574 0.489 0.172 0.969 0.277 1.438 0.32z" inkscape:connector-curvature="0"/>
      <path id="path198" style="fill-rule:evenodd;fill:#577ed3" d="m16.992 13.778c0.278-0.128 0.543-0.097 0.801 0.094 0.234 0.192 0.148 0.375-0.258 0.543-0.191 0.086-0.394 0.024-0.605-0.191-0.196-0.211-0.172-0.364 0.062-0.446zm-0.703 0.317c-0.043 0.215 0.125 0.406 0.512 0.578 0.406 0.172 0.746 0.172 1.023 0 0.426-0.258 0.586-0.555 0.481-0.895-0.129-0.343-0.383-0.492-0.77-0.449-0.765 0.106-1.183 0.364-1.246 0.766z" inkscape:connector-curvature="0"/>
      <path id="path200" style="fill-rule:evenodd;fill:#86e8ff" d="m16.992 13.778c-0.234 0.082-0.258 0.235-0.062 0.446 0.211 0.215 0.414 0.277 0.605 0.191 0.406-0.168 0.492-0.351 0.258-0.543-0.258-0.191-0.523-0.222-0.801-0.094z" inkscape:connector-curvature="0"/>
      <path id="path202" style="fill-rule:evenodd;fill:#86e8ff" d="m21.344 15.153 0.418-0.32c0.211-0.449-0.43-0.695-1.922-0.738-0.297 0.109-0.203 0.332 0.289 0.672 0.129 0.066 0.351 0.14 0.672 0.226 0.34 0.063 0.523 0.117 0.543 0.16z" inkscape:connector-curvature="0"/>
      <path id="path204" style="fill-rule:evenodd;fill:#86e8ff" d="m16.863 16.466c-0.105 0-0.191 0.051-0.254 0.16l0.032 0.031c0.254 0.043 0.492 0.032 0.703-0.031l1.25-0.16c-0.067-0.277-0.246-0.387-0.547-0.32-0.469 0.086-0.863 0.191-1.184 0.32z" inkscape:connector-curvature="0"/>
      <path id="path206" style="fill-rule:evenodd;fill:#86e8ff" d="m20.383 16.146-0.414 0.191v0.031h1.597l-0.382-0.129c-0.297-0.125-0.567-0.16-0.801-0.093z" inkscape:connector-curvature="0"/>
      <g id="g208">
        <g id="g210">
          <g id="g216">
            <path id="path230" style="fill-rule:evenodd;fill:url(#linearGradient218)" d="m15.039 12.368c0.918 0.344 1.879 0.383 2.883 0.129 0.937-0.258 2.258-0.863 3.965-1.824 2.218-1.258 3.961-1.996 5.218-2.207-1.132-0.449-2.453-0.824-3.968-1.121-3.008-0.641-5.43-0.66-7.266-0.063-1.984 0.661-2.922 1.586-2.816 2.782 0.086 1.046 0.75 1.812 1.984 2.304z" inkscape:connector-curvature="0"/>
          </g>
        </g>
      </g>
      <path id="path232" style="fill-rule:evenodd;fill:#605a98" d="m15.039 12.368c0-0.019 0.375-0.054 1.121-0.097 0.875-0.039 1.645-0.309 2.305-0.797 0.723-0.535 1.523-1.035 2.398-1.504-1.812 0.875-2.922 1.355-3.328 1.437-0.406 0.11-0.875 0.192-1.406 0.258l-0.672 0.063 0.801-0.414c0.594-0.387 1.074-0.856 1.437-1.411l0.321-0.543c0.406-0.812 1.558-1.281 3.457-1.406 1.75-0.129 3.625 0.043 5.632 0.512-1.132-0.449-2.453-0.824-3.968-1.121-3.008-0.641-5.43-0.66-7.266-0.063-1.984 0.661-2.922 1.586-2.816 2.782 0.086 1.046 0.75 1.812 1.984 2.304z" inkscape:connector-curvature="0"/>
      <path id="path234" style="fill-rule:evenodd;fill:#577ed3" d="m21.055 11.153c-0.149-0.234-0.043-0.449 0.32-0.64 0.172-0.086 0.703-0.235 1.602-0.449l0.222-0.063 2.082-0.961c-0.043 0-0.672 0.098-1.89 0.289-1.043 0.211-1.95 0.567-2.719 1.055-0.34 0.215-0.438 0.492-0.289 0.832 0.066 0.109 0.14 0.172 0.226 0.191l0.446-0.254z" inkscape:connector-curvature="0"/>
      <path id="path236" style="fill-rule:evenodd;fill:#577ed3" d="m21.727 8.751c0.64-0.148 1.472-0.082 2.496 0.195l1.601-0.257c-0.258-0.129-0.863-0.246-1.824-0.352-0.875-0.148-1.664-0.148-2.367 0-0.578 0.086-0.93 0.148-1.059 0.191-0.445 0.106-0.777 0.266-0.988 0.481-0.152 0.148-0.184 0.297-0.098 0.449 0.063 0.082 0.16 0.125 0.289 0.125 0.082 0 0.192-0.008 0.321-0.031 0.297-0.02 0.894-0.129 1.789-0.32 0.152-0.02 0.394-0.043 0.738-0.063l1.117-0.16-1.215 0.062c-1.172 0.192-1.769 0.215-1.793 0.067-0.019-0.129 0.313-0.258 0.993-0.387z" inkscape:connector-curvature="0"/>
      <path id="path238" style="fill-rule:evenodd;fill:#577ed3" d="m18.559 11.888c-0.211 0.129-0.243 0.277-0.094 0.449l0.289-0.098c0-0.125 0.062-0.211 0.191-0.254 0.235-0.085 0.414-0.109 0.543-0.066l0.45-0.191c-0.067-0.106-0.153-0.18-0.258-0.223l-0.512 0.129c-0.34 0.105-0.543 0.191-0.609 0.254z" inkscape:connector-curvature="0"/>
      <path id="path240" style="fill-rule:evenodd;fill:#577ed3" d="m18.176 9.903c0.234-0.019 0.363-0.031 0.383-0.031 0.129 0 0.203 0.086 0.226 0.258 0.082 0.234 0 0.371-0.258 0.414l-0.093 0.031c-0.258 0.067-0.438-0.019-0.547-0.254-0.106-0.214-0.008-0.351 0.289-0.418zm-0.481 0c-0.105 0.172-0.129 0.395-0.062 0.672 0.019 0.192 0.086 0.301 0.191 0.321 0.192 0.023 0.469-0.051 0.832-0.223l0.223-0.129c0.023-0.086 0.066-0.203 0.129-0.351 0-0.063-0.043-0.18-0.129-0.352-0.106-0.215-0.328-0.301-0.672-0.258-0.234 0.024-0.402 0.129-0.512 0.32z" inkscape:connector-curvature="0"/>
      <path id="path242" style="fill-rule:evenodd;fill:#86e8ff" d="m18.176 9.903c-0.297 0.067-0.395 0.204-0.289 0.418 0.109 0.235 0.289 0.321 0.547 0.254l0.093-0.031c0.258-0.043 0.34-0.18 0.258-0.414-0.023-0.172-0.097-0.258-0.226-0.258-0.02 0-0.149 0.012-0.383 0.031z" inkscape:connector-curvature="0"/>
      <path id="path244" style="fill-rule:evenodd;fill:#86e8ff" d="m18.945 11.985c-0.129 0.043-0.191 0.129-0.191 0.254l0.734-0.32c-0.129-0.043-0.308-0.019-0.543 0.066z" inkscape:connector-curvature="0"/>
      <path id="path246" style="fill-rule:evenodd;fill:#86e8ff" d="m21.055 11.153 2.144-1.152-0.222 0.063c-0.899 0.214-1.43 0.363-1.602 0.449-0.363 0.191-0.469 0.406-0.32 0.64z" inkscape:connector-curvature="0"/>
      <path id="path248" style="fill-rule:evenodd;fill:#86e8ff" d="m22.527 9.071 1.825-0.093-0.129-0.032c-1.024-0.281-1.856-0.343-2.496-0.195-0.68 0.129-1.012 0.258-0.993 0.387 0.024 0.148 0.621 0.125 1.793-0.067z" inkscape:connector-curvature="0"/>
      <g id="g250">
        <g id="g252">
          <g id="g258">
            <path id="path272" style="fill-rule:evenodd;fill:url(#linearGradient260)" d="m10.848 8.368c-0.129 0.621-0.055 1.121 0.222 1.504 0.344 0.449 1.028 0.863 2.051 1.25 1.277 0.488 2.27 0.469 2.977-0.066 1.535-1.153 2.738-2.977 3.613-5.473 0.43-1.258 0.703-2.398 0.832-3.422l-2.398 0.832c-2.477 0.875-4.457 1.953-5.954 3.231-0.746 0.621-1.195 1.332-1.343 2.144z" inkscape:connector-curvature="0"/>
          </g>
        </g>
      </g>
      <path id="path274" style="fill-rule:evenodd;fill:#605a98" d="m13.344 5.935c2.523-1.688 4.824-2.91 6.894-3.664l-2.093 0.722c-2.477 0.875-4.457 1.953-5.954 3.231-1.109 0.937-1.554 1.953-1.343 3.039-0.043-1.106 0.789-2.219 2.496-3.328z" inkscape:connector-curvature="0"/>
      <path id="path276" style="fill-rule:evenodd;fill:#605a98" d="m13.406 10.896-0.383 0.191 0.704 0.258c0.535-0.363 0.929-0.82 1.183-1.375 0.344-0.77 0.535-1.356 0.578-1.762-0.961 1.559-1.652 2.453-2.082 2.688z" inkscape:connector-curvature="0"/>
      <path id="path278" style="fill-rule:evenodd;fill:#577ed3" d="m18.945 6.962-0.226 0.031c-0.082-0.148-0.063-0.351 0.066-0.609 0.063-0.149 0.16-0.34 0.285-0.574 0.153-0.512 0.344-0.782 0.578-0.801l0.129 0.383 0.512-2.016c-0.43-0.043-0.941 0.438-1.535 1.442-0.555 0.96-0.832 1.675-0.832 2.144s0.316 0.66 0.957 0.574c0.066-0.148 0.16-0.363 0.289-0.64l-0.223 0.066z" inkscape:connector-curvature="0"/>
      <path id="path280" style="fill-rule:evenodd;fill:#577ed3" d="m17.281 4.079c-0.492 0.235-1.09 0.684-1.793 1.344-0.703 0.684-1.047 1.145-1.023 1.379 0.019 0.254 0.254 0.383 0.703 0.383s0.894-0.129 1.344-0.383c0.492-0.301 1.25-1.422 2.273-3.359l-1.504 0.636zm-0.066 1.25c-0.086 0.149-0.16 0.278-0.223 0.383l-0.64 0.641c-0.321 0.148-0.543 0.203-0.672 0.16-0.321-0.086-0.297-0.34 0.062-0.77 0.473-0.554 0.973-0.832 1.504-0.832 0.066 0.153 0.055 0.289-0.031 0.418z" inkscape:connector-curvature="0"/>
      <path id="path282" style="fill-rule:evenodd;fill:#577ed3" d="m16.93 9.778c-0.067-0.023-0.11-0.109-0.129-0.257-0.043-0.149-0.043-0.258 0-0.321 0.043-0.105 0.211-0.191 0.511-0.254 0.149 0.469 0.086 0.747-0.191 0.832h-0.191zm-0.035 0.477 0.289-0.16 0.031-0.063c0.277-0.254 0.43-0.629 0.449-1.121 0-0.468-0.117-0.746-0.352-0.832-0.234-0.062-0.449 0.067-0.64 0.387-0.086 0.191-0.234 0.562-0.449 1.117-0.125 0.344-0.094 0.567 0.097 0.672 0.149 0.066 0.34 0.066 0.575 0z" inkscape:connector-curvature="0"/>
      <path id="path284" style="fill-rule:evenodd;fill:#577ed3" d="m13.695 7.954c0.129-0.066 0.289-0.054 0.481 0.031 0.129 0.043 0.222 0.18 0.289 0.415l-0.352 0.16c-0.234 0.066-0.406 0.011-0.511-0.16-0.153-0.235-0.118-0.383 0.093-0.446zm1.184 0.637c0.023-0.211-0.02-0.469-0.125-0.766 0.039-0.129-0.098-0.257-0.418-0.382-0.297-0.153-0.598-0.215-0.895-0.196-0.32 0.043-0.449 0.363-0.386 0.961 0.043 0.621 0.289 0.938 0.738 0.961 0.703 0.02 1.066-0.172 1.086-0.578z" inkscape:connector-curvature="0"/>
      <path id="path286" style="fill-rule:evenodd;fill:#86e8ff" d="m13.602 8.4c0.105 0.171 0.277 0.226 0.511 0.16l0.352-0.16c-0.067-0.235-0.16-0.372-0.289-0.415-0.192-0.085-0.352-0.097-0.481-0.031-0.211 0.063-0.246 0.211-0.093 0.446z" inkscape:connector-curvature="0"/>
      <path id="path288" style="fill-rule:evenodd;fill:#86e8ff" d="m17.312 8.946c-0.3 0.063-0.468 0.149-0.511 0.254-0.043 0.063-0.043 0.172 0 0.321 0.019 0.148 0.062 0.234 0.129 0.257h0.191c0.277-0.085 0.34-0.363 0.191-0.832z" inkscape:connector-curvature="0"/>
      <path id="path290" style="fill-rule:evenodd;fill:#86e8ff" d="m15.742 5.743c-0.359 0.43-0.383 0.684-0.062 0.77 0.129 0.043 0.351-0.012 0.672-0.16l0.64-0.641c0.063-0.105 0.137-0.234 0.223-0.383 0.086-0.129 0.097-0.265 0.031-0.418-0.531 0-1.031 0.278-1.504 0.832z" inkscape:connector-curvature="0"/>
      <path id="path292" style="fill-rule:evenodd;fill:#86e8ff" d="m18.719 6.993 0.226-0.031 0.223-0.066c0.215-0.426 0.418-0.926 0.609-1.504l-0.129-0.383c-0.234 0.019-0.425 0.289-0.578 0.801-0.125 0.234-0.222 0.425-0.285 0.574-0.129 0.258-0.148 0.461-0.066 0.609z" inkscape:connector-curvature="0"/>
      <path id="path294" style="fill-rule:evenodd;fill:#343157" d="m10.719 10.177c0.156-0.274 0.179-0.824 0.066-1.649 0 0.215-0.086 0.524-0.258 0.93-0.089 0.199-0.027 0.438 0.192 0.719-0.051 0.086-0.114 0.144-0.192 0.176-0.191 0.062-0.457 0.031-0.8-0.098l-0.415-0.191 0.895 0.898c-0.168-0.066-0.395-0.055-0.672 0.031-0.597 0.172-1.215 0.606-1.855 1.313l0.8-0.418c0.618-0.254 1.208-0.352 1.758-0.289 0.641 0.086 1.188 0.301 1.633 0.64 0.406 0.344 0.598 0.684 0.578 1.024-0.023 0.277 0 0.515 0.063 0.707l0.062 0.223 0.289 0.062c0.192 0.066 0.352 0.172 0.481 0.32l0.258 0.321-0.61-1.727 0.801 0.672c-0.172-0.172-0.344-0.352-0.512-0.543-0.343-0.387-0.547-0.672-0.609-0.867l-0.16-0.446 0.48-0.191c0.34-0.129 0.617-0.195 0.832-0.195l1.215-0.063-1.312-0.191 0.289-0.61c-0.809 0.321-1.418 0.461-1.825 0.418-0.32-0.043-0.703-0.257-1.152-0.64-0.129-0.117-0.234-0.231-0.32-0.336z" inkscape:connector-curvature="0"/>
      <path id="path296" style="fill-rule:evenodd;fill:#dfdf6d" d="m13.121 12.911 0.223 0.035h0.031c0.043 0.149 0.109 0.286 0.191 0.414-0.328 0.145-0.558 0.29-0.687 0.434 0.266-0.316 0.348-0.609 0.242-0.883zm-1.535-0.48 0.125 0.097 0.609-0.32v0.063l0.032 0.066-0.61 0.289-0.156-0.195zm1.117 2.304c-0.105-0.105-0.234-0.117-0.383-0.031l-0.351 0.223c0.191-0.383 0.211-0.766 0.062-1.149l-0.031-0.066c0.191 0.106 0.375 0.117 0.543 0.031l0.191 0.067c-0.211 0.086-0.32 0.211-0.32 0.383 0 0.085 0.035 0.183 0.098 0.289 0.062 0.128 0.136 0.203 0.222 0.222l-0.031 0.031zm-1.793-2.656h-0.125c-0.078-0.211-0.195-0.316-0.351-0.32l0.285-0.031v0.097c0 0.086 0.066 0.172 0.191 0.254zm-0.894 1.473c0.062 0.148 0.214 0.266 0.449 0.351l0.031 0.29c0.063 0.363 0.172 0.617 0.32 0.769 0.063 0.063 0.192 0.094 0.383 0.094 0.172 0 0.289 0.023 0.352 0.066l0.32-0.097c-0.019 0.128 0.086 0.234 0.32 0.32 0.258 0.062 0.426 0.043 0.512-0.063 0.149-0.152 0.149-0.32 0-0.515 0.277-0.125 0.43-0.274 0.449-0.446 0.02 0.106 0.094 0.18 0.223 0.223 0.129 0.066 0.234 0.086 0.32 0.066 0.172-0.023 0.301-0.109 0.383-0.257 0.11-0.149 0.141-0.321 0.098-0.512l-0.063-0.191h0.285l-0.125-0.098c0.278-0.106 0.438-0.34 0.481-0.703 0.019-0.383-0.109-0.598-0.387-0.641-0.062-0.191-0.179-0.371-0.351-0.543-0.192-0.148-0.364-0.222-0.512-0.222-0.258-0.043-0.555 0.05-0.895 0.285v-0.129l-0.035-0.063 0.578-0.16 0.094-0.062c-0.082-0.45-0.351-0.512-0.797-0.192l-0.097 0.063c-0.172-0.086-0.309-0.129-0.414-0.129l-0.387 0.066-0.094-0.16c-0.148-0.195-0.352-0.238-0.609-0.129-0.469 0.192-0.692 0.383-0.672 0.574 0 0.086 0.074 0.203 0.222 0.352h-0.031c-0.105 0.023-0.211 0.078-0.32 0.16-0.125 0.109-0.18 0.215-0.16 0.32 0 0.192 0.097 0.344 0.289 0.45-0.278 0.32-0.328 0.609-0.16 0.863z" inkscape:connector-curvature="0"/>
      <path id="path298" style="fill-rule:evenodd;fill:#b6a648" d="m12.961 12.657c-0.215 0.043-0.258-0.023-0.129-0.191 0.129-0.172 0.223-0.152 0.289 0.062l-0.16 0.129c0.211-0.086 0.394-0.109 0.543-0.066-0.192-0.277-0.395-0.434-0.609-0.477l-0.223-0.418-0.063 0.032v-0.129l-0.035-0.063-0.094-0.129c-0.066-0.062-0.128-0.093-0.191-0.093-0.066 0.019-0.129 0.043-0.191 0.062-0.11 0.024-0.239 0.012-0.387-0.031-0.211-0.063-0.34-0.098-0.383-0.098h-0.129l0.129 0.227-0.512 0.062-0.222 0.063c-0.024-0.063 0.008-0.137 0.094-0.223-0.149 0.067-0.278 0.149-0.383 0.258l0.093 0.125 0.321-0.031v0.066l0.226 0.031c0 0.02-0.043 0.075-0.129 0.16l0.094 0.094h-0.125l-0.031-0.062-0.832 0.383 0.254 0.289c-0.129 0.171-0.203 0.32-0.223 0.449 0.235-0.192 0.445-0.289 0.641-0.289-0.067-0.235-0.086-0.375-0.067-0.418 0.086-0.149 0.235-0.18 0.45-0.094-0.086-0.129 0.011-0.266 0.289-0.418 0.296-0.168 0.476-0.211 0.543-0.125-0.043-0.066-0.043-0.129 0-0.195 0.019-0.063 0.074-0.082 0.16-0.063 0.086 0.02 0.172 0.129 0.254 0.321 0.109-0.043 0.172-0.032 0.191 0.031l0.066 0.16 0.368 0.336c-0.106-0.09-0.317-0.063-0.625 0.082-0.235 0.105-0.426 0.223-0.575 0.352 0.254-0.067 0.457-0.075 0.61-0.032 0.14 0.039 0.301 0.157 0.476 0.352l0.289 0.191c-0.062-0.129-0.074-0.226-0.031-0.289l0.16-0.062-0.031-0.067 0.223 0.035h0.031l0.031 0.063 0.067 0.062c0.172 0.086 0.277 0.204 0.32 0.352 0.043 0.152-0.023 0.27-0.191 0.355 0 0.02 0.074 0.075 0.222 0.157 0.063 0.109 0.117 0.289 0.16 0.547 0.192-0.192 0.254-0.407 0.192-0.641l-0.063-0.191h0.285l-0.125-0.098c0.149-0.063 0.278-0.203 0.383-0.414l-0.129-0.098-0.222 0.192c-0.11 0-0.184-0.075-0.227-0.223l0.195-0.129-0.097-0.031c-0.149-0.043-0.203 0.031-0.16 0.222 0.086 0.258 0.129 0.43 0.129 0.512-0.149-0.363-0.309-0.605-0.481-0.734-0.297-0.199-0.59-0.235-0.879-0.114l0.176-0.078z" inkscape:connector-curvature="0"/>
      <path id="path300" style="fill-rule:evenodd;fill:#7b6f2e" d="m9.922 12.4 0.832-0.383c-0.024-0.086-0.078-0.149-0.16-0.192l-0.227-0.066c-0.363 0.043-0.519 0.203-0.48 0.48l0.035 0.161z" inkscape:connector-curvature="0"/>
      <path id="path302" style="fill-rule:evenodd;fill:#7b6f2e" d="m12.961 12.657-0.176 0.078c0.289-0.121 0.582-0.085 0.879 0.114 0.172 0.129 0.332 0.371 0.481 0.734 0-0.086-0.043-0.254-0.129-0.512-0.043-0.191 0.011-0.265 0.16-0.222l0.097 0.031c0.192-0.086 0.297-0.051 0.321 0.098l-0.067 0.062 0.129 0.098c0.086-0.192 0.106-0.387 0.063-0.578-0.039-0.211-0.16-0.328-0.352-0.352-0.062-0.191-0.179-0.371-0.351-0.543-0.192-0.148-0.364-0.222-0.512-0.222-0.277-0.043-0.555 0.039-0.832 0.253l0.223 0.418c0.214 0.043 0.417 0.2 0.609 0.477-0.149-0.043-0.332-0.02-0.543 0.066z" inkscape:connector-curvature="0"/>
      <path id="path304" style="fill-rule:evenodd;fill:#7b6f2e" d="m11.457 10.962c-0.148-0.195-0.352-0.238-0.609-0.129-0.469 0.192-0.692 0.383-0.672 0.574 0 0.067 0.043 0.141 0.129 0.227 0.105-0.109 0.234-0.191 0.383-0.258l0.289-0.129c0.105-0.039 0.179-0.039 0.222 0h0.129c0.043 0 0.172 0.035 0.383 0.098 0.148 0.043 0.277 0.055 0.387 0.031 0.062-0.019 0.125-0.043 0.191-0.062 0.063 0 0.125 0.031 0.191 0.093l0.094 0.129 0.578-0.16 0.094-0.062c-0.082-0.45-0.351-0.512-0.797-0.192l-0.097 0.063c-0.172-0.086-0.309-0.129-0.414-0.129l-0.387 0.066-0.094-0.16z" inkscape:connector-curvature="0"/>
      <path id="path306" style="fill-rule:evenodd;fill:#6a6e32" d="m10.816 11.985c0.086-0.085 0.129-0.14 0.129-0.16l-0.226-0.031v0.031c0 0.043 0.035 0.094 0.097 0.16z" inkscape:connector-curvature="0"/>
      <path id="path308" style="fill-rule:evenodd;fill:#fbfec4" d="m10.816 14.962c0.063 0.063 0.192 0.094 0.383 0.094 0.172 0 0.289 0.023 0.352 0.066l0.289-0.066c-0.086-0.278-0.203-0.457-0.352-0.543-0.086-0.086-0.203-0.106-0.351-0.063-0.149 0.043-0.27 0.106-0.352 0.192l-0.066 0.125 0.097 0.195z" inkscape:connector-curvature="0"/>
      <path id="path310" style="fill-rule:evenodd;fill:#fbfec4" d="m11.488 13.458v0.063c0.063 0.062 0.254 0.179 0.574 0.351l-0.031-0.094-0.031-0.066c0.191 0.106 0.375 0.117 0.543 0.031l0.258-0.125c-0.129-0.258-0.332-0.398-0.61-0.418-0.253-0.023-0.5 0.043-0.734 0.192l0.031 0.066z" inkscape:connector-curvature="0"/>
      <path id="path312" style="fill-rule:evenodd;fill:#fbfec4" d="m10.305 13.65-0.032 0.16 0.192 0.093v0.098c0.172 0.063 0.34 0.051 0.512-0.031l0.609-0.289-0.098-0.16v-0.063c-0.148-0.172-0.308-0.238-0.48-0.195-0.406 0.086-0.641 0.215-0.703 0.387z" inkscape:connector-curvature="0"/>
      <path id="path314" style="fill-rule:evenodd;fill:#fbfec4" d="m10.816 12.88c0 0.086 0.043 0.141 0.129 0.16 0.082 0.024 0.149 0.012 0.192-0.031l0.093-0.098c-0.019-0.105-0.082-0.16-0.191-0.16-0.129-0.019-0.203 0.024-0.223 0.129z" inkscape:connector-curvature="0"/>
      <path id="path316" style="fill-rule:evenodd;fill:#fbfec4" d="m11.52 12.431 0.609-0.285c-0.086-0.192-0.184-0.289-0.289-0.289-0.063 0-0.18 0.043-0.352 0.128-0.172 0.106-0.277 0.192-0.32 0.254 0.105 0.235 0.223 0.301 0.352 0.192z" inkscape:connector-curvature="0"/>
      <path id="path318" style="fill-rule:evenodd;fill:#fbfec4" d="m13.09 14.482c-0.172-0.215-0.32-0.27-0.449-0.161l0.16 0.383c0.148-0.062 0.246-0.136 0.289-0.222z" inkscape:connector-curvature="0"/>
      <path id="path320" style="fill-rule:evenodd;fill:#fbfec4" d="m13.602 14.224c-0.215 0-0.332 0.043-0.356 0.129-0.019 0.023-0.008 0.074 0.035 0.16l0.16 0.062 0.223 0.035h0.031l0.227-0.066c-0.129-0.168-0.234-0.277-0.32-0.32z" inkscape:connector-curvature="0"/>
      <path id="path322" style="fill-rule:evenodd;fill:#fbfec4" d="m12.77 15.216c-0.153 0-0.301 0.055-0.45 0.16 0.211 0 0.34-0.031 0.383-0.094l0.067-0.066z" inkscape:connector-curvature="0"/>
      <path id="path324" style="fill-rule:evenodd;fill:#fbfec4" d="m13.473 13.392-0.289 0.129c0 0.129 0.023 0.222 0.062 0.289h0.129c0.129 0.019 0.191-0.024 0.191-0.129 0.024-0.106-0.007-0.203-0.093-0.289z" inkscape:connector-curvature="0"/>
      <path id="path326" style="fill-rule:evenodd;fill:#fbfec4" d="m12.414 11.888c-0.019-0.063-0.082-0.074-0.191-0.031v0.031c0.023 0.086 0.117 0.191 0.289 0.32l-0.032-0.16-0.066-0.16z" inkscape:connector-curvature="0"/>
      <path id="path328" style="fill-rule:evenodd;fill:#fbfec4" d="m12.961 12.657 0.16-0.129c-0.066-0.214-0.16-0.234-0.289-0.062-0.129 0.168-0.086 0.234 0.129 0.191z" inkscape:connector-curvature="0"/>
      <path id="path330" style="fill-rule:evenodd;fill:#fbfec4" d="m14.305 13.232 0.289-0.254c-0.024-0.149-0.129-0.184-0.321-0.098l-0.195 0.129c0.043 0.148 0.121 0.223 0.227 0.223z" inkscape:connector-curvature="0"/>
      <path id="path332" style="fill-rule:evenodd;fill:#fbfec4" d="m10.977 11.247-0.289 0.129c-0.086 0.086-0.118 0.16-0.094 0.223l0.222-0.063 0.512-0.062-0.129-0.227c-0.043-0.043-0.117-0.043-0.222 0z" inkscape:connector-curvature="0"/>
      <path id="path334" style="fill-rule:evenodd;fill:#667c00" d="m20.992 0.306c-1.601-0.149-2.945 0.297-4.031 1.344l-1.152 1.597 0.543-0.222c0.492-0.149 1.054-0.215 1.695-0.192 0.387 0.02 0.789 0.203 1.219 0.543 1.191 0.043 2.812-0.191 4.863-0.703 1.023-0.258 1.93-0.512 2.719-0.77-0.34-0.21-0.832-0.437-1.473-0.671-1.32-0.469-2.781-0.778-4.383-0.926z" inkscape:connector-curvature="0"/>
      <g id="g336">
        <g id="g338">
          <g id="g344">
            <path id="path352" style="fill-rule:evenodd;fill:url(#linearGradient346)" d="m20.32 3.954c1.11 0.598 2.145 0.918 3.106 0.957 1.105 0.024 2.004-0.148 2.687-0.511 0.426-0.211 0.852-0.575 1.278-1.086 0.257-0.321 0.203-0.696-0.161-1.121l-0.605-0.512c-1.238 0-3.137-0.098-5.695-0.289-1.621-0.129-2.957 0.148-4 0.832l-1.121 1.023 0.543-0.125c0.492-0.086 1.046-0.121 1.664-0.097 0.425 0 1.195 0.308 2.304 0.929z" inkscape:connector-curvature="0"/>
          </g>
        </g>
      </g>
      <path id="path354" style="fill-rule:evenodd;fill:#5e7200" d="m25.922 4.528c0.254-0.148 0.457-0.296 0.605-0.449l0.543-0.734c-0.234-0.192-0.5-0.524-0.797-0.992-0.277-0.493-0.461-0.789-0.546-0.895-0.082-0.172-0.34-0.332-0.766-0.48-0.387-0.149-1.141-0.375-2.273-0.672-0.918-0.235-1.887-0.246-2.911-0.035l-1.281 0.418 0.93-0.161c0.808-0.062 1.672 0.024 2.59 0.258 0.98 0.254 1.898 0.711 2.754 1.375 0.703 0.532 1.097 0.949 1.183 1.246 0.043 0.235-0.031 0.45-0.226 0.641-0.235 0.215-0.586 0.344-1.055 0.383-0.426 0.043-1.067-0.074-1.918-0.352l-1.152-0.414 0.734 0.414c0.598 0.301 1.207 0.512 1.824 0.641s1.207 0.066 1.762-0.192z" inkscape:connector-curvature="0"/>
      <path id="path356" style="fill-rule:evenodd;fill:#485700" d="m26.113 4.146c0.789-0.086 1.215-0.184 1.278-0.289l0.832-1.055c-0.063-0.301-0.364-0.664-0.895-1.09-0.746-0.598-1.664-1-2.754-1.215-1.043-0.191-2.281-0.246-3.711-0.16l-1.824 0.223h3.039c1.262 0.023 2.371 0.332 3.328 0.929 0.473 0.321 0.813 0.629 1.028 0.926l-0.129 0.93c-0.043 0.383-0.289 0.652-0.739 0.801l-0.636 0.093 1.183-0.093z" inkscape:connector-curvature="0"/>
      <path id="path358" style="fill-rule:evenodd;fill:#9db800" d="m20.32 3.025 0.672 0.16c-0.363-0.364-0.863-0.703-1.504-1.024-0.535-0.277-0.906-0.351-1.121-0.226-0.234 0.129-0.191 0.281 0.129 0.449 0.234 0.109 0.469 0.184 0.703 0.226 0.258 0.063 0.629 0.2 1.121 0.415z" inkscape:connector-curvature="0"/>
      <path id="path360" style="fill-rule:evenodd;fill:#9db800" d="m21.953 3.443 0.895 0.031c-0.407-0.449-0.727-0.781-0.961-0.992-0.446-0.387-0.852-0.536-1.215-0.45-0.063 0.344 0.055 0.641 0.351 0.895 0.383 0.387 0.696 0.555 0.93 0.516z" inkscape:connector-curvature="0"/>
      <path id="path362" style="fill-rule:evenodd;fill:#9db800" d="m23.52 3.665 0.222-0.32c-0.082-0.043-0.297-0.266-0.637-0.672-0.257-0.297-0.523-0.418-0.8-0.352 0.019 0.149 0.105 0.289 0.254 0.414 0.086 0.086 0.214 0.204 0.386 0.352 0.063 0.066 0.149 0.172 0.254 0.32 0.086 0.129 0.192 0.215 0.321 0.258z" inkscape:connector-curvature="0"/>
      <path id="path364" style="fill-rule:evenodd;fill:#9db800" d="m24.449 3.376 0.672 0.16c0-0.086-0.055-0.179-0.16-0.289-0.149-0.105-0.246-0.179-0.289-0.222-0.215-0.258-0.395-0.457-0.543-0.61-0.277-0.254-0.512-0.359-0.703-0.32-0.086 0.258 0.008 0.535 0.285 0.832 0.258 0.301 0.504 0.449 0.738 0.449z" inkscape:connector-curvature="0"/>
    </g>
  </g>
<metadata><rdf:RDF><cc:Work><dc:format>image/svg+xml</dc:format><dc:type rdf:resource="http://purl.org/dc/dcmitype/StillImage"/><cc:license rdf:resource="http://creativecommons.org/licenses/publicdomain/"/><dc:publisher><cc:Agent rdf:about="http://openclipart.org/"><dc:title>Openclipart</dc:title></cc:Agent></dc:publisher></cc:Work><cc:License rdf:about="http://creativecommons.org/licenses/publicdomain/"><cc:permits rdf:resource="http://creativecommons.org/ns#Reproduction"/><cc:permits rdf:resource="http://creativecommons.org/ns#Distribution"/><cc:permits rdf:resource="http://creativecommons.org/ns#DerivativeWorks"/></cc:License></rdf:RDF></metadata></svg>
