<?xml version="1.0" encoding="UTF-8" standalone="no"?>
<!-- Creator: CorelDRAW -->

<svg
   xmlns:dc="http://purl.org/dc/elements/1.1/"
   xmlns:cc="http://creativecommons.org/ns#"
   xmlns:rdf="http://www.w3.org/1999/02/22-rdf-syntax-ns#"
   xmlns:svg="http://www.w3.org/2000/svg"
   xmlns="http://www.w3.org/2000/svg"
   xmlns:xlink="http://www.w3.org/1999/xlink"
   xmlns:sodipodi="http://sodipodi.sourceforge.net/DTD/sodipodi-0.dtd"
   xmlns:inkscape="http://www.inkscape.org/namespaces/inkscape"
   xml:space="preserve"
   width="285.92368mm"
   height="192.94958mm"
   style="clip-rule:evenodd;fill-rule:evenodd;image-rendering:optimizeQuality;shape-rendering:geometricPrecision;text-rendering:geometricPrecision"
   viewBox="0 0 285.92368 192.94958"
   version="1.1"
   id="svg38"
   sodipodi:docname="Sword-2.svg"
   inkscape:version="0.92.3 (2405546, 2018-03-11)"><metadata
   id="metadata42"><rdf:RDF><cc:Work
       rdf:about=""><dc:format>image/svg+xml</dc:format><dc:type
         rdf:resource="http://purl.org/dc/dcmitype/StillImage" /><dc:title></dc:title></cc:Work></rdf:RDF></metadata><sodipodi:namedview
   pagecolor="#ffffff"
   bordercolor="#666666"
   borderopacity="1"
   objecttolerance="10"
   gridtolerance="10"
   guidetolerance="10"
   inkscape:pageopacity="0"
   inkscape:pageshadow="2"
   inkscape:window-width="1920"
   inkscape:window-height="1017"
   id="namedview40"
   showgrid="false"
   showborder="false"
   fit-margin-top="0"
   fit-margin-left="0"
   fit-margin-right="0"
   fit-margin-bottom="0"
   inkscape:zoom="1.0709325"
   inkscape:cx="544.50779"
   inkscape:cy="366.84472"
   inkscape:window-x="-4"
   inkscape:window-y="9"
   inkscape:window-maximized="1"
   inkscape:current-layer="svg38" />
 <defs
   id="defs17"><style
     type="text/css"
     id="style2">
   <![CDATA[
    .str0 {stroke:#1F1A17;stroke-width:0.0762}
    .str1 {stroke:#7A896C;stroke-width:0.3048;stroke-linejoin:round}
    .fil6 {fill:none}
    .fil4 {fill:#605D5C}
    .fil10 {fill:#716F61}
    .fil9 {fill:#7A896C}
    .fil2 {fill:#969594}
    .fil3 {fill:#C2C1C1}
    .fil5 {fill:#DEDEDD}
    .fil7 {fill:url(#id0)}
    .fil8 {fill:url(#id1)}
    .fil0 {fill:url(#id2)}
    .fil1 {fill:url(#id3)}
    .fil11 {fill:url(#id4)}
   ]]>
  </style><linearGradient
     id="id0"
     gradientUnits="userSpaceOnUse"
     x1="69.295097"
     y1="42.2509"
     x2="102.595"
     y2="66.322098">
   <stop
   offset="0"
   style="stop-color:#E46713"
   id="stop4" />
   <stop
   offset="1"
   style="stop-color:#1F1A17"
   id="stop6" />
  </linearGradient><linearGradient
     id="id1"
     gradientUnits="userSpaceOnUse"
     xlink:href="#id0"
     x1="87.196404"
     y1="17.93"
     x2="52.908001"
     y2="65.3638">
  </linearGradient><radialGradient
     id="id2"
     gradientUnits="userSpaceOnUse"
     cx="68.786201"
     cy="75.776901"
     r="5.3743"
     fx="68.786201"
     fy="75.776901">
   <stop
   offset="0"
   style="stop-color:white"
   id="stop10" />
   <stop
   offset="1"
   style="stop-color:#28166F"
   id="stop12" />
  </radialGradient><radialGradient
     id="id3"
     gradientUnits="userSpaceOnUse"
     xlink:href="#id2"
     cx="101.706"
     cy="30.2964"
     r="5.3741999"
     fx="101.706"
     fy="30.2964">
  </radialGradient><radialGradient
     id="id4"
     gradientUnits="userSpaceOnUse"
     xlink:href="#id2"
     cx="36.729301"
     cy="16.0819"
     r="9.1676998"
     fx="36.729301"
     fy="16.0819">
  </radialGradient><radialGradient
     inkscape:collect="always"
     xlink:href="#id2"
     id="radialGradient849"
     gradientUnits="userSpaceOnUse"
     cx="68.786201"
     cy="75.776901"
     fx="68.786201"
     fy="75.776901"
     r="5.3743" /><linearGradient
     inkscape:collect="always"
     xlink:href="#id0"
     id="linearGradient851"
     gradientUnits="userSpaceOnUse"
     x1="69.295097"
     y1="42.2509"
     x2="102.595"
     y2="66.322098" /></defs>
 <g
   id="Ebene_x0020_1"
   transform="translate(-4.4323147,-9.1114104)">
  <metadata
   id="CorelCorpID_0Corel-Layer" />
  <g
   id="_511371992">
   <path
   id="_230002960"
   class="fil0"
   d="m 74.6733,80.6951 c -0.8762,1.2122 -3.8862,0.5332 -6.7215,-1.5163 -2.8353,-2.0494 -4.4241,-4.6946 -3.5479,-5.9068 0.8762,-1.2122 3.8863,-0.5332 6.7216,1.5163 2.8352,2.0494 4.4241,4.6946 3.5478,5.9068 z"
   inkscape:connector-curvature="0"
   style="fill:url(#radialGradient849)" />
   <path
   id="_84294848"
   class="fil1"
   d="m 107.486,35.3011 c -0.8763,1.2122 -3.8863,0.5332 -6.7216,-1.5163 -2.8353,-2.0494 -4.4241,-4.6946 -3.5479,-5.9068 0.8762,-1.2122 3.8863,-0.5332 6.7216,1.5163 2.8353,2.0494 4.4241,4.6946 3.5479,5.9068 z"
   inkscape:connector-curvature="0"
   style="fill:url(#id3)" />
   <polygon
   id="_229154064"
   class="fil2"
   points="82.8148,63.2406 88.1133,55.9106 290.303,202.061 241.229,186.643 "
   style="fill:#969594" />
   <polygon
   id="_222396360"
   class="fil3"
   points="93.4655,48.5062 88.1671,55.8362 290.356,201.986 260.325,160.225 "
   style="fill:#c2c1c1" />
   <polygon
   id="_79613504"
   class="fil4"
   points="290.303,202.061 242.305,185.154 83.8907,61.7523 82.8417,63.2034 241.073,188.739 "
   style="fill:#605d5c" />
   <polygon
   id="_78607776"
   class="fil5"
   points="259.249,161.713 290.303,202.061 262.155,159.338 93.4489,48.6075 92.3359,50.0689 "
   style="fill:#dededd" />
   <line
   id="_77220024"
   class="fil6 str0"
   x1="284.37601"
   y1="197.72"
   x2="90.998596"
   y2="57.939602"
   style="fill:none;stroke:#1f1a17;stroke-width:0.0762" />
   <path
   id="_230004872"
   class="fil7"
   d="M 106.975,36.0081 C 93.4387,48.5434 82.8418,63.2034 75.1845,79.9882 73.358,76.402 68.8931,73.1745 64.915,72.565 78.4513,60.0297 89.0481,45.3697 96.7055,28.5849 c 1.8264,3.5862 6.2914,6.8137 10.2695,7.4232 z"
   inkscape:connector-curvature="0"
   style="fill:url(#linearGradient851)" />
   <path
   id="_43822976"
   class="fil8"
   d="M 80.2847,61.4117 C 64.5456,50.0349 54.6347,40.5483 33.0303,27.2544 38.7578,22.3872 40.8557,19.485 43.654,12.5572 63.0799,28.8649 74.882,35.1866 90.5094,46.4827 l 0.0269,-0.0372 c 5.2239,3.0396 12.357,4.4568 15.6718,9.1188 -5.4395,-1.7225 -7.8844,0.2491 -11.8772,0.3653 0.7371,2.7422 2.6276,6.318 5.5298,8.4159 -2.9022,-2.0979 -6.8906,-2.7715 -9.4175,-2.3321 1.1316,3.7637 -0.2714,6.4884 3.0702,11.1132 C 88.047,71.4413 84.7246,65.3008 80.2847,61.4117 Z"
   inkscape:connector-curvature="0"
   style="fill:url(#id1)" />
   <polygon
   id="_224125944"
   class="fil9"
   points="74.8753,61.9202 77.0001,58.9808 97.0144,46.6528 94.8897,49.5923 "
   style="fill:#7a896c" />
   <path
   id="_45655944"
   class="fil9"
   d="m 56.1392,22.5877 1.9846,1.184 -15.6162,9.9311 -1.8656,-1.3485 z m 8.694,6.1173 1.9052,1.2937 -15.9513,9.3547 -1.5668,-1.2996 z m 10.7301,7.9233 2.3019,0.7449 -16.2138,9.8334 -2.0791,-1.1687 z m 8.8011,5.2757 1.4663,0.9763 -15.7933,10.6386 -1.192,-0.7781 z"
   inkscape:connector-curvature="0"
   style="fill:#7a896c" />
   <path
   id="_227509040"
   class="fil9"
   d="m 31.5474,26.6719 c 0.7622,0.2168 0.6525,0.1375 1.4299,0.4488 -8.7928,4.4209 -16.1729,6.772 -22.4386,5.5009 -0.6433,-0.3814 -1.0578,-0.8481 -1.2343,-1.644 9.4315,-0.4505 14.3135,-0.848 22.243,-4.3057 z m 17.1042,-10.0251 1.4663,0.9763 C 36.9047,27.1193 21.2733,36.9559 11.5418,40.3641 11.1974,40.0316 10.8133,39.7539 10.4292,39.4763 25.6627,33.1949 36.4208,25.0151 48.6516,16.6468 Z"
   inkscape:connector-curvature="0"
   style="fill:#7a896c" />
   <polygon
   id="_504049016"
   class="fil10"
   points="82.1681,67.1918 87.5969,44.3208 89.7216,41.3813 84.2929,64.2523 "
   style="fill:#716f61" />
   <path
   id="_219268120"
   class="fil11"
   d="m 39.8097,20.932 c -3.5032,4.8464 -7.9861,7.5902 -10.0104,6.1269 -2.0244,-1.4633 -0.8251,-6.5805 2.6781,-11.427 3.5033,-4.8465 7.9862,-7.5902 10.0105,-6.1269 2.0244,1.4632 0.8251,6.5805 -2.6782,11.427 z"
   inkscape:connector-curvature="0"
   style="fill:url(#id4)" />
   <path
   id="_511365936"
   class="fil6 str1"
   d="m 6.8116,44.4783 5.3856,-5.0892 -5.9833,3.5722 M 5.948,41.6882 12.1666,39.4495 6.2578,40.3273 m 0.2502,-1.5429 5.9002,0.7874 -5.5904,-2.1483"
   inkscape:connector-curvature="0"
   style="fill:none;stroke:#7a896c;stroke-width:0.3048;stroke-linejoin:round" />
   <path
   id="_505151648"
   class="fil6 str1"
   d="m 4.6525,35.1324 6.5313,-3.4992 -6.7104,1.8786 m 0.0772,-1.2983 6.5879,-0.53 -5.9322,-0.702 m 0.646,-1.4234 5.4872,2.3068 -4.8315,-3.5388"
   inkscape:connector-curvature="0"
   style="fill:none;stroke:#7a896c;stroke-width:0.3048;stroke-linejoin:round" />
  </g>
 </g>
</svg>