<?xml version="1.0" encoding="UTF-8" standalone="no"?>
<!-- Created with Inkscape (http://www.inkscape.org/) -->
<svg xmlns:inkscape="http://www.inkscape.org/namespaces/inkscape" xmlns:rdf="http://www.w3.org/1999/02/22-rdf-syntax-ns#" xmlns="http://www.w3.org/2000/svg" xmlns:xlink="http://www.w3.org/1999/xlink" xmlns:ns1="http://sozi.baierouge.fr" xmlns:cc="http://creativecommons.org/ns#" xmlns:sodipodi="http://sodipodi.sourceforge.net/DTD/sodipodi-0.dtd" xmlns:dc="http://purl.org/dc/elements/1.1/" id="svg2" xml:space="preserve" viewBox="0 0 22.501 53.839" version="1.1" inkscape:version="0.91 r13725">
  <defs id="defs6">
    <linearGradient id="linearGradient24" y2="83.55" gradientUnits="userSpaceOnUse" x2="64.688" gradientTransform="matrix(.8 0 0 -.8 -34.16 81.479)" y1="83.55" x1="42.812">
      <stop id="stop26" style="stop-color:#3bb01b" offset="0"/>
      <stop id="stop28" style="stop-color:#37a419" offset=".0275"/>
      <stop id="stop30" style="stop-color:#2e8715" offset=".1137"/>
      <stop id="stop32" style="stop-color:#267111" offset=".2"/>
      <stop id="stop34" style="stop-color:#21600f" offset="0.298"/>
      <stop id="stop36" style="stop-color:#1e570d" offset=".40780"/>
      <stop id="stop38" style="stop-color:#1d540d" offset=".55290"/>
      <stop id="stop40" style="stop-color:#1e570d" offset=".66670"/>
      <stop id="stop42" style="stop-color:#21610f" offset=".75690"/>
      <stop id="stop44" style="stop-color:#277111" offset=".83530"/>
      <stop id="stop46" style="stop-color:#2e8915" offset=".90980"/>
      <stop id="stop48" style="stop-color:#38a61a" offset=".98040"/>
      <stop id="stop50" style="stop-color:#3bb01b" offset="1"/>
    </linearGradient>
    <linearGradient id="linearGradient68" y2="69.425" gradientUnits="userSpaceOnUse" x2="56.588" gradientTransform="matrix(.8 0 0 -.8 -34.16 81.479)" y1="69.425" x1="45.013">
      <stop id="stop70" style="stop-color:#95f57a" offset="0"/>
      <stop id="stop72" style="stop-color:#69ba52" offset=".3098"/>
      <stop id="stop74" style="stop-color:#40832d" offset=".63140"/>
      <stop id="stop76" style="stop-color:#276116" offset=".87060"/>
      <stop id="stop78" style="stop-color:#1d540d" offset="1"/>
    </linearGradient>
    <linearGradient id="linearGradient92" y2="99.944" gradientUnits="userSpaceOnUse" x2="56.738" gradientTransform="matrix(.8 0 0 -.8 -34.16 81.479)" y1="99.944" x1="46.763">
      <stop id="stop94" style="stop-color:#95f57a" offset="0"/>
      <stop id="stop96" style="stop-color:#69ba52" offset=".3098"/>
      <stop id="stop98" style="stop-color:#40832d" offset=".63140"/>
      <stop id="stop100" style="stop-color:#276116" offset=".87060"/>
      <stop id="stop102" style="stop-color:#1d540d" offset="1"/>
    </linearGradient>
    <linearGradient id="linearGradient116" y2="83.175" gradientUnits="userSpaceOnUse" x2="64.55" gradientTransform="matrix(.8 0 0 -.8 -34.16 81.479)" y1="83.175" x1="43.15">
      <stop id="stop118" style="stop-color:#f9edc7" offset="0"/>
      <stop id="stop120" style="stop-color:#f4e8c1" offset=".0196"/>
      <stop id="stop122" style="stop-color:#d4c79d" offset=".1608"/>
      <stop id="stop124" style="stop-color:#bcaf83" offset=".2902"/>
      <stop id="stop126" style="stop-color:#aea073" offset=".40780"/>
      <stop id="stop128" style="stop-color:#a99b6d" offset=".498"/>
      <stop id="stop130" style="stop-color:#aea072" offset=".58820"/>
      <stop id="stop132" style="stop-color:#bbad82" offset="0.698"/>
      <stop id="stop134" style="stop-color:#d0c49c" offset=".82350"/>
      <stop id="stop136" style="stop-color:#eee3bf" offset=".9569"/>
      <stop id="stop138" style="stop-color:#f9eecc" offset="1"/>
    </linearGradient>
    <linearGradient id="linearGradient152" y2="-69.075" gradientUnits="userSpaceOnUse" x2="-59.525" gradientTransform="matrix(-.8 0 0 .8 -34.16 81.479)" y1="-69.075" x1="-62.775">
      <stop id="stop154" style="stop-color:#52a13c" offset="0"/>
      <stop id="stop156" style="stop-color:#34801e" offset=".64310"/>
      <stop id="stop158" style="stop-color:#287312" offset="1"/>
    </linearGradient>
    <linearGradient id="linearGradient172" y2="95.993" gradientUnits="userSpaceOnUse" x2="52.287" gradientTransform="matrix(.8 0 0 -.8 -34.16 81.479)" y1="95.993" x1="44.312">
      <stop id="stop174" style="stop-color:#95f57a" offset="0"/>
      <stop id="stop176" style="stop-color:#69ba52" offset=".3098"/>
      <stop id="stop178" style="stop-color:#40832d" offset=".63140"/>
      <stop id="stop180" style="stop-color:#276116" offset=".87060"/>
      <stop id="stop182" style="stop-color:#1d540d" offset="1"/>
    </linearGradient>
    <linearGradient id="linearGradient196" y2="-95.4" gradientUnits="userSpaceOnUse" x2="-60.762" gradientTransform="matrix(-.8 0 0 .8 -34.16 81.479)" y1="-95.4" x1="-64.237">
      <stop id="stop198" style="stop-color:#5fba46" offset="0"/>
      <stop id="stop200" style="stop-color:#4ca234" offset=".2863"/>
      <stop id="stop202" style="stop-color:#32801b" offset="0.749"/>
      <stop id="stop204" style="stop-color:#287312" offset="1"/>
    </linearGradient>
    <linearGradient id="linearGradient218" y2="87.65" gradientUnits="userSpaceOnUse" x2="57.438" gradientTransform="matrix(.8 0 0 -.8 -34.16 81.479)" y1="87.65" x1="51.062">
      <stop id="stop220" style="stop-color:#6e5c1f" offset="0"/>
      <stop id="stop222" style="stop-color:#40340d" offset=".55290"/>
      <stop id="stop224" style="stop-color:#43370e" offset=".7137"/>
      <stop id="stop226" style="stop-color:#4d3f12" offset=".84310"/>
      <stop id="stop228" style="stop-color:#5d4d19" offset=".9569"/>
      <stop id="stop230" style="stop-color:#66551d" offset="1"/>
    </linearGradient>
    <linearGradient id="linearGradient244" y2="85.676" gradientUnits="userSpaceOnUse" x2="61.175" gradientTransform="matrix(.8 0 0 -.8 -34.16 81.479)" y1="85.676" x1="46.6">
      <stop id="stop246" style="stop-color:#306e1f" offset="0"/>
      <stop id="stop248" style="stop-color:#17470a" offset=".55290"/>
      <stop id="stop250" style="stop-color:#194a0c" offset=".72940"/>
      <stop id="stop252" style="stop-color:#205412" offset=".86670"/>
      <stop id="stop254" style="stop-color:#2c641c" offset=".98820"/>
      <stop id="stop256" style="stop-color:#2d661d" offset="1"/>
    </linearGradient>
    <linearGradient id="linearGradient270" y2="82.1" gradientUnits="userSpaceOnUse" x2="59.762" gradientTransform="matrix(.8 0 0 -.8 -34.16 81.479)" y1="82.1" x1="48.237">
      <stop id="stop272" style="stop-color:#3a8525" offset="0"/>
      <stop id="stop274" style="stop-color:#21660e" offset=".55290"/>
      <stop id="stop276" style="stop-color:#236910" offset=".72940"/>
      <stop id="stop278" style="stop-color:#2b7318" offset=".86670"/>
      <stop id="stop280" style="stop-color:#398324" offset=".98820"/>
      <stop id="stop282" style="stop-color:#3a8525" offset="1"/>
    </linearGradient>
    <linearGradient id="linearGradient296" y2="78.95" gradientUnits="userSpaceOnUse" x2="59.3" gradientTransform="matrix(.8 0 0 -.8 -34.16 81.479)" y1="78.95" x1="48.9">
      <stop id="stop298" style="stop-color:#46b028" offset="0"/>
      <stop id="stop300" style="stop-color:#3d9c23" offset=".102"/>
      <stop id="stop302" style="stop-color:#368c1e" offset=".2235"/>
      <stop id="stop304" style="stop-color:#32831c" offset=".36470"/>
      <stop id="stop306" style="stop-color:#31801b" offset=".55290"/>
      <stop id="stop308" style="stop-color:#33831c" offset="0.702"/>
      <stop id="stop310" style="stop-color:#388d21" offset=".81570"/>
      <stop id="stop312" style="stop-color:#419d28" offset=".91760"/>
      <stop id="stop314" style="stop-color:#4cb031" offset="1"/>
    </linearGradient>
    <linearGradient id="linearGradient328" y2="62.775" gradientUnits="userSpaceOnUse" x2="59.737" gradientTransform="matrix(.8 0 0 -.8 -34.16 81.479)" y1="62.775" x1="47.962">
      <stop id="stop330" style="stop-color:#3bb01b" offset="0"/>
      <stop id="stop332" style="stop-color:#37a419" offset=".0275"/>
      <stop id="stop334" style="stop-color:#2e8715" offset=".1137"/>
      <stop id="stop336" style="stop-color:#267111" offset=".2"/>
      <stop id="stop338" style="stop-color:#21600f" offset="0.298"/>
      <stop id="stop340" style="stop-color:#1e570d" offset=".40780"/>
      <stop id="stop342" style="stop-color:#1d540d" offset=".55290"/>
      <stop id="stop344" style="stop-color:#1e570d" offset=".66670"/>
      <stop id="stop346" style="stop-color:#21610f" offset=".75690"/>
      <stop id="stop348" style="stop-color:#277111" offset=".83530"/>
      <stop id="stop350" style="stop-color:#2e8915" offset=".90980"/>
      <stop id="stop352" style="stop-color:#38a61a" offset=".98040"/>
      <stop id="stop354" style="stop-color:#3bb01b" offset="1"/>
    </linearGradient>
    <linearGradient id="linearGradient368" y2="65.785" gradientUnits="userSpaceOnUse" x2="53.95" gradientTransform="matrix(.8 0 0 -.8 -34.16 81.479)" y1="65.785" x1="48.75">
      <stop id="stop370" style="stop-color:#95f57a" offset="0"/>
      <stop id="stop372" style="stop-color:#69ba52" offset=".3098"/>
      <stop id="stop374" style="stop-color:#40832d" offset=".63140"/>
      <stop id="stop376" style="stop-color:#276116" offset=".87060"/>
      <stop id="stop378" style="stop-color:#1d540d" offset="1"/>
    </linearGradient>
    <linearGradient id="linearGradient392" y2="-79.653" gradientUnits="userSpaceOnUse" x2="-34.764" gradientTransform="matrix(-.76208 -.24344 -.24344 .76208 -34.16 81.479)" y1="-79.653" x1="-36.653">
      <stop id="stop394" style="stop-color:#58ad41" offset="0"/>
      <stop id="stop396" style="stop-color:#3c9523" offset=".62350"/>
      <stop id="stop398" style="stop-color:#308a16" offset="1"/>
    </linearGradient>
    <linearGradient id="linearGradient416" y2="-49.025" gradientUnits="userSpaceOnUse" x2="-49.837" gradientTransform="matrix(-.8 0 0 .8 -34.16 81.479)" y1="-49.025" x1="-52.862">
      <stop id="stop418" style="stop-color:#c2a164" offset="0"/>
      <stop id="stop420" style="stop-color:#706341" offset="1"/>
    </linearGradient>
    <linearGradient id="linearGradient434" y2="-49.85" gradientUnits="userSpaceOnUse" x2="-52.575" gradientTransform="matrix(-.8 0 0 .8 -34.16 81.479)" y1="-49.85" x1="-54.625">
      <stop id="stop436" style="stop-color:#c2a164" offset="0"/>
      <stop id="stop438" style="stop-color:#706341" offset="1"/>
    </linearGradient>
    <linearGradient id="linearGradient452" y2="-48.688" gradientUnits="userSpaceOnUse" x2="-54.912" gradientTransform="matrix(-.8 0 0 .8 -34.16 81.479)" y1="-48.688" x1="-55.587">
      <stop id="stop454" style="stop-color:#c2a164" offset="0"/>
      <stop id="stop456" style="stop-color:#706341" offset="1"/>
    </linearGradient>
    <linearGradient id="linearGradient470" y2="-48.876" gradientUnits="userSpaceOnUse" x2="-57.829" gradientTransform="matrix(-.8 -.00448 -.00448 .8 -34.16 81.479)" y1="-48.876" x1="-62.33">
      <stop id="stop472" style="stop-color:#c2a164" offset="0"/>
      <stop id="stop474" style="stop-color:#706341" offset="1"/>
    </linearGradient>
    <linearGradient id="linearGradient488" y2="-49.272" gradientUnits="userSpaceOnUse" x2="-59.563" gradientTransform="matrix(-.8 0 0 .8 -34.16 81.479)" y1="-49.272" x1="-60.538">
      <stop id="stop490" style="stop-color:#c2a164" offset="0"/>
      <stop id="stop492" style="stop-color:#706341" offset="1"/>
    </linearGradient>
    <linearGradient id="linearGradient516" y2="41.92" gradientUnits="userSpaceOnUse" x2="-57.468" gradientTransform="matrix(-.09824 .79392 .79392 .09824 -34.16 81.48)" y1="41.92" x1="-59.912">
      <stop id="stop518" style="stop-color:#c2a164" offset="0"/>
      <stop id="stop520" style="stop-color:#706341" offset="1"/>
    </linearGradient>
    <linearGradient id="linearGradient534" y2="44.842" gradientUnits="userSpaceOnUse" x2="-58.933" gradientTransform="matrix(-.09504 .79432 .79432 .09504 -34.16 81.479)" y1="44.842" x1="-61.878">
      <stop id="stop536" style="stop-color:#c2a164" offset="0"/>
      <stop id="stop538" style="stop-color:#706341" offset="1"/>
    </linearGradient>
    <linearGradient id="linearGradient552" y2="42.628" gradientUnits="userSpaceOnUse" x2="-60.369" gradientTransform="matrix(-.09584 .79424 .79424 .09584 -34.16 81.48)" y1="42.628" x1="-61.829">
      <stop id="stop554" style="stop-color:#c2a164" offset="0"/>
      <stop id="stop556" style="stop-color:#706341" offset="1"/>
    </linearGradient>
    <linearGradient id="linearGradient570" y2="40.102" gradientUnits="userSpaceOnUse" x2="-60.844" gradientTransform="matrix(-.1024 .79344 .79344 .1024 -34.16 81.479)" y1="40.102" x1="-61.625">
      <stop id="stop572" style="stop-color:#c2a164" offset="0"/>
      <stop id="stop574" style="stop-color:#706341" offset="1"/>
    </linearGradient>
    <linearGradient id="linearGradient590" y2="48.758" gradientUnits="userSpaceOnUse" x2="-59.059" gradientTransform="matrix(-.0992 .79384 .79384 .0992 -34.16 81.479)" y1="48.758" x1="-60.671">
      <stop id="stop592" style="stop-color:#c2a164" offset="0"/>
      <stop id="stop594" style="stop-color:#706341" offset="1"/>
    </linearGradient>
    <linearGradient id="linearGradient610" y2="49.222" gradientUnits="userSpaceOnUse" x2="-61.516" gradientTransform="matrix(-.08832 .79512 .79512 .08832 -34.16 81.48)" y1="49.222" x1="-62.421">
      <stop id="stop612" style="stop-color:#c2a164" offset="0"/>
      <stop id="stop614" style="stop-color:#706341" offset="1"/>
    </linearGradient>
    <linearGradient id="linearGradient630" y2="46.761" gradientUnits="userSpaceOnUse" x2="-63.851" gradientTransform="matrix(-.09456 .7944 .7944 .09456 -34.16 81.479)" y1="46.761" x1="-64.909">
      <stop id="stop632" style="stop-color:#c2a164" offset="0"/>
      <stop id="stop634" style="stop-color:#706341" offset="1"/>
    </linearGradient>
    <linearGradient id="linearGradient650" y2="50.731" gradientUnits="userSpaceOnUse" x2="-61.658" gradientTransform="matrix(-.0972 .79408 .79408 .0972 -34.16 81.479)" y1="50.731" x1="-62.892">
      <stop id="stop652" style="stop-color:#c2a164" offset="0"/>
      <stop id="stop654" style="stop-color:#706341" offset="1"/>
    </linearGradient>
    <linearGradient id="linearGradient670" y2="53.787" gradientUnits="userSpaceOnUse" x2="-59.963" gradientTransform="matrix(-.09168 .79472 .79472 .09168 -34.16 81.479)" y1="53.787" x1="-61.272">
      <stop id="stop672" style="stop-color:#c2a164" offset="0"/>
      <stop id="stop674" style="stop-color:#706341" offset="1"/>
    </linearGradient>
    <linearGradient id="linearGradient690" y2="51.591" gradientUnits="userSpaceOnUse" x2="-56.93" gradientTransform="matrix(-.09792 .794 .794 .09792 -34.16 81.479)" y1="51.591" x1="-58.769">
      <stop id="stop692" style="stop-color:#c2a164" offset="0"/>
      <stop id="stop694" style="stop-color:#706341" offset="1"/>
    </linearGradient>
    <radialGradient id="radialGradient708" gradientUnits="userSpaceOnUse" cy="59" cx="53.75" gradientTransform="matrix(.8 0 0 .54976 -34.16 1.8425)" r="8.5125">
      <stop id="stop710" style="stop-color:#1d540d" offset="0"/>
      <stop id="stop712" style="stop-color:#1e570d" offset=".25490"/>
      <stop id="stop714" style="stop-color:#21610f" offset=".4549"/>
      <stop id="stop716" style="stop-color:#277111" offset=".63140"/>
      <stop id="stop718" style="stop-color:#2e8915" offset="0.8"/>
      <stop id="stop720" style="stop-color:#38a61a" offset=".9569"/>
      <stop id="stop722" style="stop-color:#3bb01b" offset="1"/>
    </radialGradient>
    <linearGradient id="linearGradient740" y2="61.189" gradientUnits="userSpaceOnUse" x2="53" gradientTransform="matrix(.8 0 0 -.8 -34.16 81.479)" y1="61.189" x1="47">
      <stop id="stop742" style="stop-color:#95f57a" offset="0"/>
      <stop id="stop744" style="stop-color:#69ba52" offset=".3098"/>
      <stop id="stop746" style="stop-color:#40832d" offset=".63140"/>
      <stop id="stop748" style="stop-color:#276116" offset=".87060"/>
      <stop id="stop750" style="stop-color:#1d540d" offset="1"/>
    </linearGradient>
    <linearGradient id="linearGradient764" y2="60.886" gradientUnits="userSpaceOnUse" x2="57.738" gradientTransform="matrix(.8 0 0 -.8 -34.16 81.479)" y1="60.886" x1="60.963">
      <stop id="stop766" style="stop-color:#58ad41" offset="0"/>
      <stop id="stop768" style="stop-color:#3c9523" offset=".62350"/>
      <stop id="stop770" style="stop-color:#308a16" offset="1"/>
    </linearGradient>
  </defs>
  <g id="g10" transform="matrix(1.25 0 0 -1.25 0 53.839)">
    <g id="g12">
      <g id="g14">
        <g id="g16">
          <g id="g22">
            <path id="path52" style="fill-rule:evenodd;fill:url(#linearGradient24)" d="m15.922 27.599c0.984-0.719 1.48-1.36 1.48-1.918 0-0.75 0.2-6.469 0.598-17.161 0-0.773-0.145-1.816-0.438-3.121-0.32-1.519-0.707-2.597-1.16-3.238-0.32-0.402-1.203-0.844-2.64-1.32-1.684-0.563-3.321-0.84-4.922-0.84-1.547 0.027-3.117 0.305-4.719 0.84-1.387 0.48-2.226 0.918-2.519 1.32-0.454 0.613-0.856 1.692-1.2 3.238-0.269 1.282-0.402 2.321-0.402 3.121 0.375 10.692 0.562 16.415 0.562 17.161 0 0.558 0.493 1.199 1.477 1.918 0.934 0.668 1.895 1.132 2.883 1.402 0.64 0.156 1.133 0.25 1.48 0.277 0.078 0 0.946-0.011 2.598-0.039 1.652 0.028 2.52 0.039 2.602 0.039 0.347-0.027 0.824-0.117 1.437-0.277 0.988-0.242 1.949-0.707 2.883-1.402z" inkscape:connector-curvature="0"/>
          </g>
        </g>
      </g>
      <path id="path54" style="fill-rule:evenodd;fill:#80d967" d="m4.922 29.001c0.562 0.144 1.098 0.23 1.598 0.258-0.415-0.031-0.84-0.121-1.282-0.258-0.933-0.242-1.824-0.707-2.679-1.402-0.934-0.719-1.399-1.36-1.399-1.918 0-0.75-0.172-6.469-0.519-17.161 0-0.8 0.132-1.839 0.398-3.121 0.293-1.546 0.656-2.625 1.082-3.238 0.293-0.402 1.078-0.844 2.359-1.32 1.11-0.399 2.204-0.656 3.282-0.781-1.2 0.109-2.41 0.371-3.641 0.781-1.387 0.48-2.226 0.918-2.519 1.32-0.457 0.613-0.856 1.692-1.204 3.238-0.265 1.282-0.398 2.321-0.398 3.121 0.371 10.692 0.559 16.415 0.559 17.161 0 0.558 0.496 1.199 1.48 1.918 0.934 0.668 1.895 1.132 2.883 1.402z" inkscape:connector-curvature="0"/>
      <path id="path56" style="fill-rule:evenodd;fill:#80d967" d="m16.801 25.681c0 0.558-0.453 1.199-1.36 1.918-0.882 0.668-1.773 1.132-2.679 1.402-0.442 0.137-0.867 0.227-1.282 0.258 0.497-0.028 1.016-0.114 1.559-0.258 0.988-0.242 1.949-0.707 2.879-1.402 0.988-0.719 1.48-1.36 1.48-1.918 0-0.75 0.204-6.469 0.602-17.161 0-0.773-0.148-1.816-0.441-3.121-0.321-1.519-0.707-2.597-1.161-3.238-0.32-0.402-1.183-0.844-2.597-1.32-1.059-0.348-2.106-0.582-3.141-0.699 0.93 0.132 1.871 0.363 2.82 0.699 1.305 0.48 2.106 0.918 2.399 1.32 0.426 0.637 0.789 1.719 1.082 3.238 0.266 1.305 0.398 2.348 0.398 3.118-0.371 10.695-0.558 16.414-0.558 17.164z" inkscape:connector-curvature="0"/>
      <g id="g58">
        <g id="g60">
          <g id="g66">
            <path id="path80" style="fill-rule:evenodd;fill:url(#linearGradient68)" d="m6.281 27.919c0.746-0.238 1-0.52 0.758-0.84-0.371-0.508 0.84-1.094 3.641-1.762l-1.879-0.078c-1.336-0.082-2.082-0.133-2.242-0.16-0.504-0.078-0.637-0.215-0.399-0.398 0.375-0.293 2.028-0.629 4.961-1h-1.762c-2.453 0-4.547 0.371-6.281 1.117-0.984 0.402-1.387 0.801-1.199 1.203 0.453 0.426 0.746 0.758 0.879 1 0.187 0.266 0.629 0.543 1.32 0.84 0.348 0.133 0.68 0.25 1 0.359l1.203-0.281z" inkscape:connector-curvature="0"/>
          </g>
        </g>
      </g>
      <g id="g82">
        <g id="g84">
          <g id="g90">
            <path id="path104" style="fill-rule:evenodd;fill:url(#linearGradient92)" d="m5.762 1.759c1.57-0.559 3.398-0.731 5.476-0.52-0.957-0.48-2.398-0.597-4.316-0.359-1.629 0.215-2.734 0.508-3.32 0.879-0.481 0.32-0.524 0.496-0.122 0.519 0.426 0.055 1.188-0.117 2.282-0.519z" inkscape:connector-curvature="0"/>
          </g>
        </g>
      </g>
      <g id="g106">
        <g id="g108">
          <g id="g114">
            <path id="path140" style="fill-rule:evenodd;fill:url(#linearGradient116)" d="m14.559 22.72c0.906 0.238 1.613 0.492 2.121 0.758l0.8-14.278-1.121-1.242c-1.359-0.852-3.558-1.359-6.597-1.52l-0.321-0.039-0.519 0.039-0.563-0.039-0.32 0.039c-3.039 0.161-5.227 0.668-6.559 1.52l-1.121 1.242 0.762 14.278 2.117-0.758c1.817-0.535 3.707-0.828 5.684-0.879 1.945 0.051 3.824 0.344 5.637 0.879z" inkscape:connector-curvature="0"/>
          </g>
        </g>
      </g>
      <g id="g142">
        <g id="g144">
          <g id="g150">
            <path id="path160" style="fill-rule:evenodd;fill:url(#linearGradient152)" d="m15.238 27.001c0.16-0.242 0.453-0.574 0.883-1 0.184-0.402-0.215-0.801-1.199-1.203-0.641-0.266-1.176-0.453-1.602-0.559 0.242 0.668 0.242 1.36 0 2.078-0.242 0.75-0.668 1.309-1.281 1.684l0.922 0.199 0.957-0.359c0.695-0.297 1.137-0.574 1.32-0.84z" inkscape:connector-curvature="0"/>
          </g>
        </g>
      </g>
      <g id="g162">
        <g id="g164">
          <g id="g170">
            <path id="path184" style="fill-rule:evenodd;fill:url(#linearGradient172)" d="m1.359 6.919c0.082 0.16 0.227 0.176 0.442 0.039 0.531-0.316 1.133-0.586 1.801-0.797 1.359-0.43 2.718-0.641 4.078-0.641-0.668-0.054-1.239-0.109-1.719-0.16-0.934-0.132-1.469-0.332-1.602-0.601-0.265-0.481-0.171-1.039 0.282-1.68 0.214-0.32 0.398-0.574 0.558-0.762-0.851 0.215-1.64 0.457-2.359 0.723l-0.84 0.359-0.238 0.641c-0.481 1.52-0.617 2.48-0.403 2.879z" inkscape:connector-curvature="0"/>
          </g>
        </g>
      </g>
      <g id="g186">
        <g id="g188">
          <g id="g194">
            <path id="path206" style="fill-rule:evenodd;fill:url(#linearGradient196)" d="m16.922 7.681h0.437c0-0.883-0.238-1.774-0.718-2.68-0.481-0.773-0.813-1.27-1-1.484l-0.641-0.68c-0.066-0.067-0.129-0.133-0.18-0.199 0.047 0.152 0.078 0.324 0.098 0.519 0 0.559 0.016 0.961 0.043 1.199l0.039 0.961c0 0.266-0.027 0.426-0.082 0.481-0.051 0.082-0.199 0.133-0.438 0.16-0.695-0.055-1.203-0.039-1.519 0.039 0.211 0.133 0.519 0.281 0.918 0.441l1.883 0.68c0.558 0.16 0.945 0.348 1.16 0.563z" inkscape:connector-curvature="0"/>
          </g>
        </g>
      </g>
      <g id="g208">
        <g id="g210">
          <g id="g216">
            <path id="path232" style="fill-rule:evenodd;fill:url(#linearGradient218)" d="m10.762 15.36 0.359-2.562c0.266-1.785 0.465-2.879 0.598-3.281l0.562-1.637c-0.082-0.348-0.988-0.52-2.719-0.52h-0.16c-1.093 0-1.867 0.078-2.32 0.239l-0.402 0.281 0.558 1.64c0.137 0.399 0.336 1.493 0.602 3.282l0.359 2.558 1.281-1 1.282 1z" inkscape:connector-curvature="0"/>
          </g>
        </g>
      </g>
      <g id="g234">
        <g id="g236">
          <g id="g242">
            <path id="path258" style="fill-rule:evenodd;fill:url(#linearGradient244)" d="m9.441 17.239v0.121l0.039-0.082 0.04 0.082v-0.121c1.839-2.453 3.292-4 4.359-4.64l1.961-1.161c-1.652-0.32-2.828-0.371-3.52-0.16l-1.082 0.321-0.16-0.801c-0.156-0.613-0.371-1.078-0.637-1.399-0.32-0.375-0.629-0.64-0.921-0.8v-0.079l-0.04 0.04-0.039-0.04v0.079c-0.293 0.16-0.601 0.425-0.921 0.8-0.266 0.321-0.481 0.786-0.641 1.399l-0.16 0.801-1.078-0.321c-0.426-0.133-1.149-0.144-2.161-0.039l-1.359 0.199 1.957 1.161c0.801 0.48 1.707 1.308 2.723 2.48 0.293 0.375 0.84 1.094 1.64 2.16z" inkscape:connector-curvature="0"/>
          </g>
        </g>
      </g>
      <g id="g260">
        <g id="g262">
          <g id="g268">
            <path id="path284" style="fill-rule:evenodd;fill:url(#linearGradient270)" d="m8.121 17.798c0.746 1.094 1.184 1.746 1.32 1.961v0.121l0.039-0.039 0.04 0.039v-0.121c0.132-0.215 0.574-0.867 1.32-1.957 0.801-1.121 1.508-1.895 2.121-2.321l1.559-1.082c-1.309-0.293-2.243-0.347-2.801-0.16l-0.84 0.281-0.117-0.722c-0.137-0.559-0.309-0.985-0.524-1.281-0.293-0.372-0.531-0.625-0.718-0.758v-0.039h-0.079v0.039c-0.187 0.133-0.429 0.386-0.722 0.758-0.211 0.296-0.387 0.722-0.52 1.281l-0.121 0.722-0.84-0.281c-0.558-0.187-1.492-0.133-2.797 0.16l1.559 1.079c0.613 0.429 1.32 1.203 2.121 2.32z" inkscape:connector-curvature="0"/>
          </g>
        </g>
      </g>
      <g id="g286">
        <g id="g288">
          <g id="g294">
            <path id="path316" style="fill-rule:evenodd;fill:url(#linearGradient296)" d="m5.922 17.161-0.961 0.117 1.359 0.801c0.825 0.481 1.868 1.559 3.121 3.238v0.043l0.039-0.043 0.04 0.043v-0.043c1.253-1.679 2.292-2.757 3.121-3.238l1.359-0.801c-1.172-0.211-2.012-0.238-2.52-0.078l-0.718 0.199-0.121-0.558c-0.11-0.403-0.266-0.723-0.481-0.961l-0.64-0.563v-0.039l-0.04 0.039-0.039-0.039v0.039l-0.64 0.563c-0.188 0.238-0.348 0.558-0.481 0.961l-0.121 0.558-0.719-0.199c-0.32-0.105-0.839-0.121-1.558-0.039z" inkscape:connector-curvature="0"/>
          </g>
        </g>
      </g>
      <g id="g318">
        <g id="g320">
          <g id="g326">
            <path id="path356" style="fill-rule:evenodd;fill:url(#linearGradient328)" d="m13.559 30.239c0.082-0.426 0.16-0.906 0.242-1.441 0.051-0.371 0.039-0.653-0.039-0.84-0.508-0.934-1.895-1.453-4.16-1.559l-0.321-0.039h-0.562l-0.321 0.039c-2.265 0.106-3.652 0.625-4.16 1.559-0.105 0.187-0.133 0.469-0.078 0.84 0.133 0.535 0.227 1.015 0.281 1.441 0.106 0.535 0.161 1.348 0.161 2.442-0.028 1.117-0.043 1.812-0.043 2.078 0 0.375 0.386 0.695 1.16 0.961 0.801 0.293 1.773 0.441 2.922 0.441l0.359-0.082 0.359 0.082c1.149 0 2.121-0.148 2.918-0.441 0.778-0.266 1.161-0.586 1.161-0.961 0-0.266-0.012-0.957-0.04-2.078 0-1.094 0.055-1.907 0.161-2.442z" inkscape:connector-curvature="0"/>
          </g>
        </g>
      </g>
      <g id="g358">
        <g id="g360">
          <g id="g366">
            <path id="path380" style="fill-rule:evenodd;fill:url(#linearGradient368)" d="m8.52 30.88c-0.106-0.266-0.348-0.442-0.719-0.52-0.293-0.082-0.52-0.425-0.68-1.043-0.187-0.613-0.226-1.156-0.121-1.636 0.105-0.586 0.812-0.907 2.121-0.961l-0.961-0.121c-0.508-0.055-1.105 0.027-1.801 0.242-0.718 0.211-1.171 0.453-1.359 0.719-0.16 0.183-0.199 0.441-0.121 0.757 0.109 0.403 0.176 0.735 0.199 1l0.203 1.801 3.239-0.238z" inkscape:connector-curvature="0"/>
          </g>
        </g>
      </g>
      <g id="g382">
        <g id="g384">
          <g id="g390">
            <path id="path400" style="fill-rule:evenodd;fill:url(#linearGradient392)" d="m13.039 31.638 0.039-1.52c0.055-0.238 0.149-0.598 0.281-1.078 0.11-0.426 0.11-0.723 0-0.883-0.16-0.265-0.48-0.492-0.957-0.679 0.133 0.453 0.133 0.949 0 1.48-0.082 0.586-0.16 1.016-0.242 1.281-0.133 0.481-0.371 0.735-0.719 0.762l1.598 0.637z" inkscape:connector-curvature="0"/>
          </g>
        </g>
      </g>
      <path id="path402" style="fill-rule:evenodd;fill:#a88b56" d="m4.078 42.317c0.961 0.321 2.231 0.551 3.801 0.684 1.816 0.16 3.48 0.051 5-0.32 0.773-0.215 1.359-0.43 1.762-0.641l-0.68-7.562c-0.109-0.239-0.402-0.477-0.883-0.719-0.957-0.453-2.316-0.664-4.078-0.641-1.84 0.027-3.227 0.281-4.16 0.762l-0.84 0.719c-0.16 2.187-0.309 3.586-0.441 4.199l-0.399 3.082 0.918 0.437z" inkscape:connector-curvature="0"/>
      <path id="path404" style="fill-rule:evenodd;fill:#cca869" d="m4.84 39.278c-0.426 0.133-0.906 0.36-1.442 0.68l-0.238 1.922c0.16 0 0.332-0.082 0.52-0.242 0.215-0.16 0.558-0.278 1.039-0.36 0.269-0.078 0.629-0.199 1.082-0.359l1.078-0.199c0.32-0.082 0.723-0.121 1.199-0.121 0.27 0 0.668 0.015 1.203 0.043h1.36c0.078 0.023 0.16 0.078 0.238 0.16 0.027 0.105 0.055 0.183 0.082 0.238 0.027 0.078 0.094 0.121 0.199 0.121 0.028-0.266 0.133-0.453 0.32-0.562 0.051-0.024 0.254-0.079 0.598-0.161 0.215-0.05 0.32-0.183 0.32-0.398s-0.132-0.387-0.398-0.52c-0.082-0.054-0.309-0.132-0.68-0.242-0.718-0.211-1.789-0.316-3.199-0.316-1.574-0.004-2.668 0.105-3.281 0.316z" inkscape:connector-curvature="0"/>
      <g id="g406">
        <g id="g408">
          <g id="g414">
            <path id="path422" style="fill-rule:evenodd;fill:url(#linearGradient416)" d="m7.602 42.52c0.16 0 0.238-0.054 0.238-0.16 0-0.109-0.055-0.199-0.16-0.281-0.078-0.051-0.305-0.078-0.68-0.078h-1.48c-0.028 0.344 0.492 0.519 1.558 0.519h0.524z" inkscape:connector-curvature="0"/>
          </g>
        </g>
      </g>
      <g id="g424">
        <g id="g426">
          <g id="g432">
            <path id="path440" style="fill-rule:evenodd;fill:url(#linearGradient434)" d="m7.801 41.478c-0.082 0.187 0.027 0.296 0.32 0.32 0.16 0 0.371-0.012 0.641-0.039l0.597-0.078c-0.082-0.161-0.187-0.254-0.32-0.282h-0.437l-0.801 0.079z" inkscape:connector-curvature="0"/>
          </g>
        </g>
      </g>
      <g id="g442">
        <g id="g444">
          <g id="g450">
            <path id="path458" style="fill-rule:evenodd;fill:url(#linearGradient452)" d="m9.762 42.599h0.199c0.105 0 0.199-0.039 0.277-0.121-0.16-0.024-0.332-0.024-0.519 0l0.043 0.121z" inkscape:connector-curvature="0"/>
          </g>
        </g>
      </g>
      <g id="g460">
        <g id="g462">
          <g id="g468">
            <path id="path476" style="fill-rule:evenodd;fill:url(#linearGradient470)" d="m12.16 42.56c-0.082 0.027-0.133 0.078-0.16 0.16-0.027 0.054-0.012 0.093 0.039 0.121 0.32-0.055 0.867-0.188 1.641-0.403h-0.16c-0.774 0-1.227 0.04-1.36 0.122z" inkscape:connector-curvature="0"/>
          </g>
        </g>
      </g>
      <g id="g478">
        <g id="g480">
          <g id="g486">
            <path id="path494" style="fill-rule:evenodd;fill:url(#linearGradient488)" d="m13.48 42.001c-0.054 0.051-0.066 0.105-0.039 0.16h0.758c-0.078-0.187-0.32-0.242-0.719-0.16z" inkscape:connector-curvature="0"/>
          </g>
        </g>
      </g>
      <path id="path496" style="fill-rule:evenodd;fill:#a68e54" d="m3.559 38.798-0.399 3.082 1.078-0.801c1.043-0.508 2.403-0.762 4.082-0.762h4c-0.16 0.11-0.293 0.227-0.398 0.364-0.27 0.265-0.336 0.453-0.203 0.558 0.109 0.106 0.429 0.106 0.961 0 0.265-0.054 0.519-0.121 0.761-0.199 0.559 0.16 0.957 0.492 1.2 1l-0.68-7.562c-0.109-0.239-0.402-0.477-0.883-0.719-0.957-0.453-2.316-0.664-4.078-0.641-1.84 0.027-3.227 0.281-4.16 0.762l-0.84 0.719c-0.16 2.187-0.305 3.586-0.441 4.199z" inkscape:connector-curvature="0"/>
      <path id="path498" style="fill-rule:evenodd;fill:#8c7347" d="m9.16 34.958-0.238 0.242c-0.242-0.347-0.27-0.586-0.082-0.722 0.215-0.161 0.414-0.067 0.601 0.281-0.027 0.082-0.121 0.148-0.281 0.199zm1.36 1.801-0.161 0.16c-0.05-0.078-0.078-0.305-0.078-0.68h0.36c0.05 0.321 0.011 0.492-0.121 0.52zm0.039 2.679h-0.2c-0.238-0.027-0.332-0.226-0.281-0.597 0.055-0.348 0.199-0.547 0.442-0.602 0.214-0.027 0.332 0.094 0.359 0.36 0.027 0.402-0.078 0.679-0.32 0.839zm-3.559 0.481c-0.188 0.082-0.441 0.242-0.762 0.48l-0.117 0.121c0.664-0.132 1.399-0.203 2.199-0.203h3.879c0.055-0.156 0.149-0.265 0.281-0.316 0.082-0.133 0.227-0.199 0.442-0.199 0.211 0.023 0.348 0.144 0.398 0.359 0.028 0.078 0.043 0.293 0.043 0.637v0.242h0.157c0-0.695-0.118-1.109-0.36-1.242-0.187-0.106-0.465-0.145-0.84-0.117-0.398 0.05-0.586 0.183-0.558 0.398-0.481 0.133-0.856 0.188-1.121 0.16l-1.559 0.039c0.984-0.183 1.691-0.398 2.117-0.64l0.52-0.559c0.242-0.187 0.386-0.293 0.441-0.32 0.106-0.133 0.16-0.305 0.16-0.52 0-0.16-0.148-0.398-0.441-0.719-0.266-0.265-0.387-0.492-0.359-0.679 0-0.028 0.027-0.082 0.082-0.16 0.05-0.055 0.066-0.121 0.039-0.2 0-0.16-0.094-0.336-0.282-0.519l-0.238-0.402c-0.027-0.106 0-0.254 0.078-0.442 0-0.293-0.105-0.465-0.32-0.519-0.133-0.051-0.289-0.039-0.477 0.043-0.16 0.078-0.297 0.132-0.402 0.16-0.051-0.082-0.16-0.176-0.32-0.282l-0.2-0.082-0.16-0.16c-0.347-0.027-0.597-0.066-0.758-0.117-0.292-0.215-0.546-0.32-0.761-0.32-0.239-0.028-0.774 0.066-1.598 0.277-0.137 0.027-0.215 0.043-0.242 0.043-0.027 0.027-0.066 0.094-0.121 0.199-0.024 0.133-0.078 0.254-0.16 0.36-0.211 0.082-0.371 0.175-0.477 0.281-0.269-0.188-0.59-0.16-0.961 0.078l-0.32 0.32-0.082 1.161 0.281-0.442c0.215-0.265 0.453-0.359 0.719-0.277 0.137 0.133 0.254 0.238 0.363 0.32 0.266-0.453 0.637-0.734 1.117-0.844 0.137-0.05 0.36-0.089 0.68-0.117 0.242-0.055 0.363-0.187 0.363-0.398 0.239 0 0.41 0.023 0.52 0.078 0.051 0.265 0.133 0.441 0.238 0.519 0.16-0.214 0.402-0.226 0.719-0.039 0.055 0.399 0.226 0.641 0.523 0.719 0.106 0.027 0.227 0.055 0.36 0.082 0.105 0.051 0.183 0.156 0.238 0.317 0.082 0.269 0.066 0.55-0.039 0.839-0.055 0.137-0.149 0.243-0.281 0.321-0.133 0.109-0.227 0.066-0.282-0.118-0.238 0.024-0.425 0.211-0.558 0.559l-0.321 0.801c-0.347 0.453-0.839 0.801-1.48 1.039z" inkscape:connector-curvature="0"/>
      <path id="path500" style="fill-rule:evenodd;fill:#615031" d="m13.359 40.798c0-0.344-0.011-0.559-0.039-0.637-0.054-0.215-0.187-0.336-0.402-0.359-0.211 0-0.359 0.066-0.438 0.199 0.239-0.109 0.438-0.055 0.598 0.16 0.133 0.156 0.176 0.344 0.121 0.559 0 0.133-0.027 0.226-0.082 0.281l-0.277 0.117c-0.145 0.051-0.278 0.09-0.402 0.121 0.25-0.043 0.554-0.109 0.921-0.199v-0.242z" inkscape:connector-curvature="0"/>
      <path id="path502" style="fill-rule:evenodd;fill:#735e39" d="m12.078 37.478c-0.183-0.051-0.289-0.211-0.316-0.477 0-0.27 0.093-0.414 0.277-0.441 0.27-0.082 0.441 0 0.523 0.238 0.051 0.215 0.024 0.441-0.082 0.68h-0.402zm1.082 2.32c0.238 0.133 0.36 0.547 0.36 1.242l0.16 0.078 0.16-0.64c0.027-0.133-0.028-0.411-0.16-0.84-0.055-0.239-0.082-0.614-0.082-1.118 0-0.292-0.133-0.574-0.399-0.839-0.105-0.188-0.121-0.52-0.039-1 0.028-0.188 0.078-0.453 0.16-0.801-0.082-0.453-0.215-0.762-0.402-0.922-0.078-0.051-0.199-0.09-0.359-0.117-0.133-0.055-0.215-0.16-0.239-0.321-0.269 0-0.562-0.105-0.882-0.32-0.426-0.293-0.68-0.453-0.758-0.48-0.242-0.106-0.575-0.16-1-0.16-0.481 0.027-0.828 0.043-1.043 0.043-0.719 0-1.25 0.023-1.598 0.078-0.32 0-0.574 0.027-0.762 0.082l-0.836 0.355-0.761 0.16c-0.266 0.16-0.492 0.266-0.68 0.321l-0.078 0.8 0.316-0.32c0.375-0.238 0.696-0.266 0.961-0.078 0.106-0.109 0.266-0.203 0.481-0.281 0.082-0.11 0.132-0.227 0.16-0.36 0.055-0.109 0.094-0.175 0.121-0.203 0.027 0 0.105-0.012 0.238-0.039 0.828-0.215 1.36-0.305 1.602-0.281 0.211 0 0.465 0.109 0.758 0.32 0.16 0.055 0.414 0.094 0.761 0.121l0.16 0.16 0.2 0.079c0.16 0.109 0.265 0.199 0.32 0.281 0.105-0.028 0.238-0.082 0.398-0.16 0.188-0.078 0.348-0.094 0.481-0.039 0.215 0.05 0.32 0.226 0.32 0.519-0.082 0.188-0.105 0.332-0.082 0.442l0.242 0.398c0.188 0.187 0.282 0.359 0.282 0.52 0.023 0.082 0.011 0.148-0.043 0.199-0.051 0.082-0.078 0.133-0.078 0.16-0.028 0.187 0.093 0.414 0.359 0.68 0.293 0.32 0.441 0.562 0.441 0.722 0 0.211-0.054 0.387-0.16 0.52-0.055 0.023-0.199 0.133-0.441 0.316l-0.52 0.563c-0.426 0.242-1.133 0.453-2.121 0.64l1.563-0.039c0.265 0.028 0.64-0.027 1.121-0.16-0.028-0.215 0.156-0.348 0.558-0.398 0.371-0.028 0.653 0.011 0.84 0.117z" inkscape:connector-curvature="0"/>
      <path id="path504" style="fill-rule:evenodd;fill:#4d4027" d="m14.641 42.04-0.403-3.281c-0.211 0-0.293-0.184-0.238-0.559 0-0.215 0.055-0.347 0.16-0.398l-0.199-3.321c-0.109-0.242-0.402-0.48-0.883-0.722-0.957-0.453-2.316-0.664-4.078-0.641-1.734 0.027-3.066 0.254-4 0.684-0.562 0.265-0.895 0.531-1 0.801 0.188-0.055 0.414-0.161 0.68-0.321l0.758-0.16 0.839-0.359c0.188-0.055 0.442-0.082 0.762-0.082 0.348-0.051 0.879-0.078 1.602-0.078 0.211 0 0.558-0.016 1.039-0.043 0.425 0 0.758 0.054 1 0.16 0.082 0.027 0.332 0.187 0.758 0.48 0.32 0.215 0.617 0.32 0.882 0.32 0.028 0.161 0.106 0.266 0.239 0.321 0.16 0.027 0.281 0.066 0.359 0.117 0.187 0.16 0.32 0.469 0.402 0.922-0.082 0.348-0.132 0.613-0.16 0.801-0.082 0.48-0.066 0.812 0.039 1 0.266 0.265 0.403 0.547 0.403 0.839 0 0.508 0.023 0.879 0.078 1.118 0.132 0.429 0.187 0.707 0.16 0.84l-0.16 0.64c0.48 0.266 0.8 0.574 0.961 0.922z" inkscape:connector-curvature="0"/>
      <g id="g506">
        <g id="g508">
          <g id="g514">
            <path id="path522" style="fill-rule:evenodd;fill:url(#linearGradient516)" d="m5 38.118c-0.398-0.051-0.652 0.227-0.762 0.84-0.023 0.27 0 0.496 0.082 0.684 0.078 0.211 0.215 0.332 0.399 0.359 0.187 0.027 0.359-0.043 0.519-0.199 0.16-0.16 0.254-0.375 0.282-0.641 0.082-0.59-0.094-0.933-0.52-1.043z" inkscape:connector-curvature="0"/>
          </g>
        </g>
      </g>
      <g id="g524">
        <g id="g526">
          <g id="g532">
            <path id="path540" style="fill-rule:evenodd;fill:url(#linearGradient534)" d="m7.84 36.798c-0.641-0.266-1.133-0.067-1.481 0.601-0.371 0.668-0.254 1.161 0.36 1.481h0.32c0.348 0 0.586-0.027 0.723-0.082 0.211-0.106 0.343-0.305 0.398-0.598 0.055-0.269 0.067-0.535 0.039-0.801-0.054-0.32-0.172-0.519-0.359-0.601z" inkscape:connector-curvature="0"/>
          </g>
        </g>
      </g>
      <g id="g542">
        <g id="g544">
          <g id="g550">
            <path id="path558" style="fill-rule:evenodd;fill:url(#linearGradient552)" d="m5.16 36.841c-0.055 0.133-0.066 0.277-0.039 0.437 0.024 0.215 0.106 0.321 0.238 0.321l0.403-0.082c0.211-0.079 0.277-0.399 0.199-0.957-0.453-0.055-0.723 0.039-0.801 0.281z" inkscape:connector-curvature="0"/>
          </g>
        </g>
      </g>
      <g id="g560">
        <g id="g562">
          <g id="g568">
            <path id="path576" style="fill-rule:evenodd;fill:url(#linearGradient570)" d="m3.762 37.278c0.265 0.082 0.371-0.093 0.316-0.519l-0.277-0.078-0.039 0.597z" inkscape:connector-curvature="0"/>
          </g>
        </g>
      </g>
      <path id="path578" style="fill-rule:evenodd;fill:#705c39" d="m10.52 38.239c-0.239 0.055-0.387 0.254-0.442 0.602-0.051 0.371 0.043 0.57 0.281 0.597h0.203c0.239-0.16 0.344-0.437 0.317-0.839-0.024-0.266-0.145-0.387-0.359-0.36z" inkscape:connector-curvature="0"/>
      <g id="g580">
        <g id="g582">
          <g id="g588">
            <path id="path596" style="fill-rule:evenodd;fill:url(#linearGradient590)" d="m10.52 38.239c-0.239 0.055-0.387 0.254-0.442 0.602-0.051 0.371 0.043 0.57 0.281 0.597h0.203c0.239-0.16 0.344-0.437 0.317-0.839-0.024-0.266-0.145-0.387-0.359-0.36z" inkscape:connector-curvature="0"/>
          </g>
        </g>
      </g>
      <path id="path598" style="fill-rule:evenodd;fill:#705c39" d="m10.52 36.759c0.132-0.028 0.175-0.199 0.121-0.52h-0.36c0 0.375 0.024 0.602 0.078 0.68l0.161-0.16z" inkscape:connector-curvature="0"/>
      <g id="g600">
        <g id="g602">
          <g id="g608">
            <path id="path616" style="fill-rule:evenodd;fill:url(#linearGradient610)" d="m10.52 36.759c0.132-0.028 0.175-0.199 0.121-0.52h-0.36c0 0.375 0.024 0.602 0.078 0.68l0.161-0.16z" inkscape:connector-curvature="0"/>
          </g>
        </g>
      </g>
      <path id="path618" style="fill-rule:evenodd;fill:#705c39" d="m9.16 34.958c0.16-0.051 0.254-0.117 0.281-0.199-0.187-0.348-0.386-0.442-0.601-0.281-0.188 0.136-0.16 0.375 0.082 0.722l0.238-0.242z" inkscape:connector-curvature="0"/>
      <g id="g620">
        <g id="g622">
          <g id="g628">
            <path id="path636" style="fill-rule:evenodd;fill:url(#linearGradient630)" d="m9.16 34.958c0.16-0.051 0.254-0.117 0.281-0.199-0.187-0.348-0.386-0.442-0.601-0.281-0.188 0.136-0.16 0.375 0.082 0.722l0.238-0.242z" inkscape:connector-curvature="0"/>
          </g>
        </g>
      </g>
      <path id="path638" style="fill-rule:evenodd;fill:#615031" d="m12.078 37.478h0.402c0.106-0.239 0.133-0.465 0.082-0.68-0.082-0.238-0.253-0.32-0.523-0.238-0.184 0.027-0.277 0.171-0.277 0.441 0.027 0.266 0.133 0.426 0.316 0.477z" inkscape:connector-curvature="0"/>
      <g id="g640">
        <g id="g642">
          <g id="g648">
            <path id="path656" style="fill-rule:evenodd;fill:url(#linearGradient650)" d="m12.078 37.478h0.402c0.106-0.239 0.133-0.465 0.082-0.68-0.082-0.238-0.253-0.32-0.523-0.238-0.184 0.027-0.277 0.171-0.277 0.441 0.027 0.266 0.133 0.426 0.316 0.477z" inkscape:connector-curvature="0"/>
          </g>
        </g>
      </g>
      <path id="path658" style="fill-rule:evenodd;fill:#4d4027" d="m14.16 37.798c-0.105 0.055-0.16 0.187-0.16 0.402-0.055 0.371 0.027 0.559 0.238 0.559l-0.078-0.961z" inkscape:connector-curvature="0"/>
      <g id="g660">
        <g id="g662">
          <g id="g668">
            <path id="path676" style="fill-rule:evenodd;fill:url(#linearGradient670)" d="m14.16 37.798c-0.105 0.055-0.16 0.187-0.16 0.402-0.055 0.371 0.027 0.559 0.238 0.559l-0.078-0.961z" inkscape:connector-curvature="0"/>
          </g>
        </g>
      </g>
      <path id="path678" style="fill-rule:evenodd;fill:#615031" d="m13.078 40.161c-0.156-0.215-0.359-0.269-0.598-0.16-0.082 0.16-0.175 0.266-0.281 0.316h0.121l-0.16 0.161v-0.04c-0.187 0.188-0.293 0.309-0.32 0.36l-0.16 0.16-0.039 0.203c0.187 0.184 0.586 0.172 1.199-0.043l0.281-0.117c0.055-0.055 0.082-0.148 0.082-0.281 0.051-0.215 0.012-0.403-0.125-0.559z" inkscape:connector-curvature="0"/>
      <g id="g680">
        <g id="g682">
          <g id="g688">
            <path id="path696" style="fill-rule:evenodd;fill:url(#linearGradient690)" d="m13.078 40.161c-0.156-0.215-0.359-0.269-0.598-0.16-0.082 0.16-0.175 0.266-0.281 0.316h0.121l-0.16 0.161v-0.04c-0.187 0.188-0.293 0.309-0.32 0.36l-0.16 0.16-0.039 0.203c0.187 0.184 0.586 0.172 1.199-0.043l0.281-0.117c0.055-0.055 0.082-0.148 0.082-0.281 0.051-0.215 0.012-0.403-0.125-0.559z" inkscape:connector-curvature="0"/>
          </g>
        </g>
      </g>
      <g id="g698">
        <g id="g700">
          <g id="g706">
            <path id="path724" style="fill-rule:evenodd;fill:url(#radialGradient708)" d="m13.078 33.759c0.484 0.242 0.777 0.48 0.883 0.719v0.402l0.117 1.48c1.336-0.695 2-1.492 2-2.402 0-0.957-0.691-1.773-2.078-2.438-1.359-0.667-3.027-1-5-1s-3.641 0.333-5 1c-1.387 0.665-2.078 1.481-2.078 2.438 0 0.883 0.637 1.668 1.918 2.359l0.121-1.636v-0.043l0.078-0.078v-0.082h0.039l0.32-0.321 0.204-0.117 0.039-0.039 0.757-0.363 0.524-0.16 0.316-0.04 0.684-0.16 0.437-0.039 0.2-0.039 1.441-0.082c1.762-0.023 3.121 0.188 4.078 0.641z" inkscape:connector-curvature="0"/>
          </g>
        </g>
      </g>
      <path id="path726" style="fill-rule:evenodd;fill:#80d967" d="m14 31.52c-1.047-0.515-2.273-0.828-3.68-0.941 1.258 0.125 2.379 0.441 3.36 0.941 1.308 0.692 1.961 1.508 1.961 2.438 0 0.828-0.52 1.562-1.563 2.203v0.199c1.336-0.695 2-1.492 2-2.402 0-0.957-0.691-1.773-2.078-2.438z" inkscape:connector-curvature="0"/>
      <path id="path728" style="fill-rule:evenodd;fill:#80d967" d="m6.82 30.681c-1.097 0.152-2.078 0.445-2.941 0.879-1.305 0.668-1.957 1.468-1.957 2.398 0 0.883 0.637 1.668 1.918 2.359l0.039-0.199c-1.012-0.586-1.52-1.305-1.52-2.16 0-0.93 0.614-1.73 1.84-2.398 0.766-0.418 1.641-0.711 2.621-0.879z" inkscape:connector-curvature="0"/>
      <g id="g730">
        <g id="g732">
          <g id="g738">
            <path id="path752" style="fill-rule:evenodd;fill:url(#linearGradient740)" d="m8.238 33.161v-0.359c-1.597-0.215-2.453-0.457-2.558-0.723-0.16-0.32-0.012-0.734 0.441-1.238-0.082 0-0.359 0.094-0.84 0.277-0.773 0.297-1.336 0.844-1.679 1.641-0.348 0.801-0.188 1.281 0.476 1.441 0.215 0.082 0.789-0.148 1.723-0.68 0.906-0.32 1.719-0.441 2.437-0.359z" inkscape:connector-curvature="0"/>
          </g>
        </g>
      </g>
      <g id="g754">
        <g id="g756">
          <g id="g762">
            <path id="path772" style="fill-rule:evenodd;fill:url(#linearGradient764)" d="m13.199 31.317c-0.133 0.961-0.597 1.657-1.398 2.082l0.48 0.121c0.399 0.161 0.797 0.348 1.199 0.559 0.215 0.133 0.375 0.172 0.481 0.121 0.691-0.16 0.867-0.64 0.519-1.441-0.292-0.664-0.718-1.145-1.281-1.442z" inkscape:connector-curvature="0"/>
          </g>
        </g>
      </g>
    </g>
  </g>
<metadata><rdf:RDF><cc:Work><dc:format>image/svg+xml</dc:format><dc:type rdf:resource="http://purl.org/dc/dcmitype/StillImage"/><cc:license rdf:resource="http://creativecommons.org/licenses/publicdomain/"/><dc:publisher><cc:Agent rdf:about="http://openclipart.org/"><dc:title>Openclipart</dc:title></cc:Agent></dc:publisher></cc:Work><cc:License rdf:about="http://creativecommons.org/licenses/publicdomain/"><cc:permits rdf:resource="http://creativecommons.org/ns#Reproduction"/><cc:permits rdf:resource="http://creativecommons.org/ns#Distribution"/><cc:permits rdf:resource="http://creativecommons.org/ns#DerivativeWorks"/></cc:License></rdf:RDF></metadata></svg>
