<?xml version="1.0" encoding="UTF-8"?>
<!DOCTYPE svg PUBLIC "-//W3C//DTD SVG 1.1//EN" "http://www.w3.org/Graphics/SVG/1.1/DTD/svg11.dtd">
<svg version="1.1" xmlns="http://www.w3.org/2000/svg" xmlns:xlink="http://www.w3.org/1999/xlink" x="0" y="0" width="388" height="325" viewBox="0, 0, 388, 325">
  <g id="ƒŒƒCƒ_x201e__x0081__x005b__x0020_1">
    <g>
      <path d="M193.148,232.651 L216.116,197.371 L248.3,193.988 C248.3,193.988 258.812,173.468 269.54,172.316 C347.443,162.092 357.379,230.059 357.379,230.059 L323.179,245.826 C323.179,245.826 305.035,247.338 294.379,242.442 C283.723,237.618 264.068,243.81 245.924,245.25 C227.78,246.69 193.148,232.579 193.148,232.579 z" fill="#97999B"/>
      <path d="M193.148,232.651 L216.116,197.371 L248.3,193.988 C248.3,193.988 258.812,173.468 269.54,172.316 C347.443,162.092 357.379,230.059 357.379,230.059 L323.179,245.826 C323.179,245.826 305.035,247.338 294.379,242.442 C283.723,237.618 264.068,243.81 245.924,245.25 C227.78,246.69 193.148,232.579 193.148,232.579 z" fill-opacity="0" stroke="#373435" stroke-width="4.872"/>
    </g>
    <g id="_173172128">
      <g>
        <g>
          <path d="M205.028,197.083 C205.316,194.204 210.356,189.092 212.876,190.46 C215.468,191.9 217.556,189.956 219.212,188.732 C220.796,187.436 230.804,183.908 232.748,187.724 C234.692,191.612 238.868,189.668 238.868,189.668 C238.868,189.668 249.164,187.076 250.82,191.252 C252.404,195.428 253.052,196.076 255.644,195.788 C258.236,195.5 262.412,197.083 263.06,199.963 C263.708,202.843 264.932,203.203 267.524,205.147 C270.116,207.091 268.532,210.259 268.82,211.915 C269.18,213.571 272.06,213.571 273.356,216.451 C274.652,219.331 273.356,222.571 274.652,222.931 C275.948,223.219 276.596,225.523 276.236,228.043 C275.948,230.635 277.532,231.283 278.18,232.867 C278.828,234.45 277.82,238.05 275.948,238.986 C274.004,239.922 273.356,240.282 271.772,242.874 C270.188,245.466 262.124,246.114 260.54,245.466 C258.956,244.818 258.596,244.53 254.42,247.05 C250.244,249.642 242.18,248.994 241.892,247.698 C241.604,246.402 237.716,246.114 236.42,247.05 C235.124,248.058 233.252,250.29 230.948,248.994 C228.716,247.698 221.3,246.114 218.708,247.41 C216.116,248.706 212.588,251.226 211.652,247.698 C210.644,244.17 203.66,247.266 202.364,247.266 C201.068,247.266 195.74,246.042 195.74,244.458 C195.74,242.874 193.364,245.61 191.564,242.514 C189.332,238.626 194.372,235.602 190.916,232.867 C189.548,231.787 187.1,225.667 192.5,222.715 C194.084,221.851 193.724,216.451 193.724,216.451 C193.724,216.451 191.06,212.347 194.3,210.403 C197.54,208.459 197.468,208.747 197.108,205.579 C196.82,202.339 196.82,196.436 201.932,198.307 C204.164,199.099 205.172,197.227 205.172,197.227 z" fill="#373435"/>
          <path d="M205.028,197.083 C205.316,194.204 210.356,189.092 212.876,190.46 C215.468,191.9 217.556,189.956 219.212,188.732 C220.796,187.436 230.804,183.908 232.748,187.724 C234.692,191.612 238.868,189.668 238.868,189.668 C238.868,189.668 249.164,187.076 250.82,191.252 C252.404,195.428 253.052,196.076 255.644,195.788 C258.236,195.5 262.412,197.083 263.06,199.963 C263.708,202.843 264.932,203.203 267.524,205.147 C270.116,207.091 268.532,210.259 268.82,211.915 C269.18,213.571 272.06,213.571 273.356,216.451 C274.652,219.331 273.356,222.571 274.652,222.931 C275.948,223.219 276.596,225.523 276.236,228.043 C275.948,230.635 277.532,231.283 278.18,232.867 C278.828,234.45 277.82,238.05 275.948,238.986 C274.004,239.922 273.356,240.282 271.772,242.874 C270.188,245.466 262.124,246.114 260.54,245.466 C258.956,244.818 258.596,244.53 254.42,247.05 C250.244,249.642 242.18,248.994 241.892,247.698 C241.604,246.402 237.716,246.114 236.42,247.05 C235.124,248.058 233.252,250.29 230.948,248.994 C228.716,247.698 221.3,246.114 218.708,247.41 C216.116,248.706 212.588,251.226 211.652,247.698 C210.644,244.17 203.66,247.266 202.364,247.266 C201.068,247.266 195.74,246.042 195.74,244.458 C195.74,242.874 193.364,245.61 191.564,242.514 C189.332,238.626 194.372,235.602 190.916,232.867 C189.548,231.787 187.1,225.667 192.5,222.715 C194.084,221.851 193.724,216.451 193.724,216.451 C193.724,216.451 191.06,212.347 194.3,210.403 C197.54,208.459 197.468,208.747 197.108,205.579 C196.82,202.339 196.82,196.436 201.932,198.307 C204.164,199.099 205.172,197.227 205.172,197.227 z" fill-opacity="0" stroke="#373435" stroke-width="7.796" stroke-linejoin="round"/>
        </g>
        <g>
          <path d="M195.452,233.658 C195.452,233.658 207.332,239.13 212.3,232.435 C212.3,232.435 207.332,244.818 195.452,233.658 z" fill="#373435"/>
          <path d="M195.452,233.658 C195.452,233.658 207.332,239.13 212.3,232.435 C212.3,232.435 207.332,244.818 195.452,233.658 z" fill-opacity="0" stroke="#373435" stroke-width="7.796" stroke-linejoin="round"/>
        </g>
        <g>
          <path d="M215.252,237.042 C215.252,237.042 227.852,244.17 232.82,237.474 C232.82,237.474 225.116,249.786 215.252,237.042 z" fill="#373435"/>
          <path d="M215.252,237.042 C215.252,237.042 227.852,244.17 232.82,237.474 C232.82,237.474 225.116,249.786 215.252,237.042 z" fill-opacity="0" stroke="#373435" stroke-width="7.796" stroke-linejoin="round"/>
        </g>
        <g>
          <path d="M205.388,225.307 C205.388,225.307 217.988,232.435 222.956,225.739 C222.956,225.739 215.252,238.05 205.388,225.307 z" fill="#373435"/>
          <path d="M205.388,225.307 C205.388,225.307 217.988,232.435 222.956,225.739 C222.956,225.739 215.252,238.05 205.388,225.307 z" fill-opacity="0" stroke="#373435" stroke-width="7.796" stroke-linejoin="round"/>
        </g>
        <g>
          <path d="M251.612,229.915 C251.612,229.915 265.364,231.427 270.62,223.219 C270.62,223.219 262.484,237.618 251.612,229.915 z" fill="#373435"/>
          <path d="M251.612,229.915 C251.612,229.915 265.364,231.427 270.62,223.219 C270.62,223.219 262.484,237.618 251.612,229.915 z" fill-opacity="0" stroke="#373435" stroke-width="7.796" stroke-linejoin="round"/>
        </g>
        <g>
          <path d="M245.924,229.771 C245.924,229.771 233.9,235.026 229.724,227.827 C229.724,227.827 234.692,241.29 245.924,229.771 z" fill="#373435"/>
          <path d="M245.924,229.771 C245.924,229.771 233.9,235.026 229.724,227.827 C229.724,227.827 234.692,241.29 245.924,229.771 z" fill-opacity="0" stroke="#373435" stroke-width="7.796" stroke-linejoin="round"/>
        </g>
        <g>
          <path d="M270.548,216.667 C270.548,216.667 259.604,223.939 254.276,217.531 C254.276,217.531 261.548,229.915 270.548,216.667 z" fill="#373435"/>
          <path d="M270.548,216.667 C270.548,216.667 259.604,223.939 254.276,217.531 C254.276,217.531 261.548,229.915 270.548,216.667 z" fill-opacity="0" stroke="#373435" stroke-width="7.796" stroke-linejoin="round"/>
        </g>
        <g>
          <path d="M239.012,236.466 C239.012,236.466 250.892,241.938 255.86,235.242 C255.86,235.242 250.892,247.626 239.012,236.466 z" fill="#373435"/>
          <path d="M239.012,236.466 C239.012,236.466 250.892,241.938 255.86,235.242 C255.86,235.242 250.892,247.626 239.012,236.466 z" fill-opacity="0" stroke="#373435" stroke-width="7.796" stroke-linejoin="round"/>
        </g>
        <g>
          <path d="M211.652,217.747 C211.652,217.747 199.916,223.507 194.804,216.883 C194.804,216.883 200.06,229.123 211.652,217.747 z" fill="#373435"/>
          <path d="M211.652,217.747 C211.652,217.747 199.916,223.507 194.804,216.883 C194.804,216.883 200.06,229.123 211.652,217.747 z" fill-opacity="0" stroke="#373435" stroke-width="7.796" stroke-linejoin="round"/>
        </g>
        <g>
          <path d="M258.452,234.594 C258.452,234.594 270.908,238.41 274.94,231.139 C274.94,231.139 271.628,244.026 258.452,234.594 z" fill="#373435"/>
          <path d="M258.452,234.594 C258.452,234.594 270.908,238.41 274.94,231.139 C274.94,231.139 271.628,244.026 258.452,234.594 z" fill-opacity="0" stroke="#373435" stroke-width="7.796" stroke-linejoin="round"/>
        </g>
      </g>
      <g>
        <path d="M205.028,197.083 C205.316,194.204 210.356,189.092 212.876,190.46 C215.468,191.9 217.556,189.956 219.212,188.732 C220.796,187.436 230.804,183.908 232.748,187.724 C234.692,191.612 238.868,189.668 238.868,189.668 C238.868,189.668 249.164,187.076 250.82,191.252 C252.404,195.428 253.052,196.076 255.644,195.788 C258.236,195.5 262.412,197.083 263.06,199.963 C263.708,202.843 264.932,203.203 267.524,205.147 C270.116,207.091 268.532,210.259 268.82,211.915 C269.18,213.571 272.06,213.571 273.356,216.451 C274.652,219.331 273.356,222.571 274.652,222.931 C275.948,223.219 276.596,225.523 276.236,228.043 C275.948,230.635 277.532,231.283 278.18,232.867 C278.828,234.45 277.82,238.05 275.948,238.986 C274.004,239.922 273.356,240.282 271.772,242.874 C270.188,245.466 262.124,246.114 260.54,245.466 C258.956,244.818 258.596,244.53 254.42,247.05 C250.244,249.642 242.18,248.994 241.892,247.698 C241.604,246.402 237.716,246.114 236.42,247.05 C235.124,248.058 233.252,250.29 230.948,248.994 C228.716,247.698 221.3,246.114 218.708,247.41 C216.116,248.706 212.588,251.226 211.652,247.698 C210.644,244.17 203.66,247.266 202.364,247.266 C201.068,247.266 195.74,246.042 195.74,244.458 C195.74,242.874 193.364,245.61 191.564,242.514 C189.332,238.626 194.372,235.602 190.916,232.867 C189.548,231.787 187.1,225.667 192.5,222.715 C194.084,221.851 193.724,216.451 193.724,216.451 C193.724,216.451 191.06,212.347 194.3,210.403 C197.54,208.459 197.468,208.747 197.108,205.579 C196.82,202.339 196.82,196.436 201.932,198.307 C204.164,199.099 205.172,197.227 205.172,197.227 z" fill="#73A13F"/>
        <path d="M195.452,233.658 C195.452,233.658 207.332,239.13 212.3,232.435 C212.3,232.435 207.332,244.818 195.452,233.658 z" fill="#90C74A"/>
        <path d="M215.252,237.042 C215.252,237.042 227.852,244.17 232.82,237.474 C232.82,237.474 225.116,249.786 215.252,237.042 z" fill="#90C74A"/>
        <path d="M205.388,225.307 C205.388,225.307 217.988,232.435 222.956,225.739 C222.956,225.739 215.252,238.05 205.388,225.307 z" fill="#90C74A"/>
        <path d="M251.612,229.915 C251.612,229.915 265.364,231.427 270.62,223.219 C270.62,223.219 262.484,237.618 251.612,229.915 z" fill="#90C74A"/>
        <path d="M245.924,229.771 C245.924,229.771 233.9,235.026 229.724,227.827 C229.724,227.827 234.692,241.29 245.924,229.771 z" fill="#90C74A"/>
        <path d="M270.548,216.667 C270.548,216.667 259.604,223.939 254.276,217.531 C254.276,217.531 261.548,229.915 270.548,216.667 z" fill="#90C74A"/>
        <path d="M239.012,236.466 C239.012,236.466 250.892,241.938 255.86,235.242 C255.86,235.242 250.892,247.626 239.012,236.466 z" fill="#90C74A"/>
        <path d="M211.652,217.747 C211.652,217.747 199.916,223.507 194.804,216.883 C194.804,216.883 200.06,229.123 211.652,217.747 z" fill="#90C74A"/>
        <path d="M258.452,234.594 C258.452,234.594 270.908,238.41 274.94,231.139 C274.94,231.139 271.628,244.026 258.452,234.594 z" fill="#90C74A"/>
      </g>
    </g>
    <g>
      <path d="M135.837,222.067 L129.069,201.115 L116.541,196.579 C116.541,196.579 113.733,184.628 109.557,183.116 C79.461,171.092 71.037,206.875 71.037,206.875 L83.493,218.251 C83.493,218.251 90.549,220.555 95.085,218.827 C99.621,217.099 106.965,222.139 114.021,224.443 C121.077,226.747 135.693,221.995 135.693,221.995 z" fill="#97999B"/>
      <path d="M135.837,222.067 L129.069,201.115 L116.541,196.579 C116.541,196.579 113.733,184.628 109.557,183.116 C79.461,171.092 71.037,206.875 71.037,206.875 L83.493,218.251 C83.493,218.251 90.549,220.555 95.085,218.827 C99.621,217.099 106.965,222.139 114.021,224.443 C121.077,226.747 135.693,221.995 135.693,221.995 z" fill-opacity="0" stroke="#373435" stroke-width="3.215"/>
    </g>
    <g>
      <path d="M32.086,235.242 L49.365,212.779 L72.909,210.187 C72.909,210.187 80.901,197.155 88.749,196.292 C145.917,188.732 152.109,231.283 152.109,231.283 L126.909,241.65 C126.909,241.65 113.589,242.874 105.885,239.922 C98.181,237.042 83.709,241.218 70.389,242.442 C57.069,243.594 32.014,235.242 32.014,235.242 z" fill="#90C74A"/>
      <path d="M32.086,235.242 L49.365,212.779 L72.909,210.187 C72.909,210.187 80.901,197.155 88.749,196.292 C145.917,188.732 152.109,231.283 152.109,231.283 L126.909,241.65 C126.909,241.65 113.589,242.874 105.885,239.922 C98.181,237.042 83.709,241.218 70.389,242.442 C57.069,243.594 32.014,235.242 32.014,235.242 z" fill-opacity="0" stroke="#246E46" stroke-width="3.864"/>
    </g>
    <g>
      <path d="M239.012,254.826 L221.156,228.403 L197.468,224.875 C197.468,224.875 189.188,209.539 181.268,208.387 C123.813,198.379 118.485,247.554 118.485,247.554 L144.045,260.154 C144.045,260.154 157.437,261.81 165.068,258.642 C172.7,255.474 187.316,260.658 200.708,262.314 C214.1,263.97 239.084,254.826 239.084,254.826 z" fill="#90C74A"/>
      <path d="M239.012,254.826 L221.156,228.403 L197.468,224.875 C197.468,224.875 189.188,209.539 181.268,208.387 C123.813,198.379 118.485,247.554 118.485,247.554 L144.045,260.154 C144.045,260.154 157.437,261.81 165.068,258.642 C172.7,255.474 187.316,260.658 200.708,262.314 C214.1,263.97 239.084,254.826 239.084,254.826 z" fill-opacity="0" stroke="#246E46" stroke-width="3.864"/>
    </g>
    <g>
      <path d="M378.259,314.44 L358.747,271.026 L328.867,266.562 C328.867,266.562 318.355,247.266 308.419,245.754 C235.916,233.083 229.22,295.145 229.22,295.145 L261.404,311.056 C261.404,311.056 278.252,313.216 287.899,309.184 C297.547,305.153 315.979,311.704 332.827,313.792 C349.675,315.88 378.187,314.44 378.187,314.44 z" fill="#90C74A"/>
      <path d="M378.259,314.44 L358.747,271.026 L328.867,266.562 C328.867,266.562 318.355,247.266 308.419,245.754 C235.916,233.083 229.22,295.145 229.22,295.145 L261.404,311.056 C261.404,311.056 278.252,313.216 287.899,309.184 C297.547,305.153 315.979,311.704 332.827,313.792 C349.675,315.88 378.187,314.44 378.187,314.44 z" fill-opacity="0" stroke="#246E46" stroke-width="4.872"/>
    </g>
    <g id="_173175176">
      <g>
        <g>
          <path d="M92.709,112.774 L93.285,123.789 C93.285,123.789 99.549,136.173 105.093,139.773 C110.637,143.445 115.821,142.077 126.549,142.149 C137.277,142.221 144.693,141.645 144.693,141.645 L160.893,140.061 C160.893,140.061 162.333,140.061 170.684,140.133 C170.684,140.133 150.525,122.565 149.157,116.878 C147.789,111.046 143.037,101.542 143.037,101.542 C143.037,101.542 138.285,87.718 133.389,77.567 C128.421,67.343 130.725,56.543 131.805,43.944 C132.885,31.272 138.645,35.16 138.645,35.16 L137.349,21.84 L143.757,19.104 L147.069,25.728 L138.645,39.552 C138.645,39.552 132.165,52.583 139.797,73.679 C141.957,79.511 157.077,101.758 157.077,101.758 L165.357,113.278 L180.62,124.869 L185.516,131.709 C185.516,131.709 187.316,115.942 208.124,123.429 C223.028,128.901 240.092,132.141 240.74,113.278 C240.812,109.75 241.388,96.358 242.684,94.054 C249.452,82.391 244.916,122.277 244.916,122.277 C244.916,122.277 268.82,94.342 266.588,104.782 C265.58,109.318 253.772,119.83 249.884,124.869 C242.828,134.301 232.964,137.181 211.004,133.581 C193.724,130.773 196.316,142.437 195.74,148.341 C194.948,155.037 200.636,149.997 199.844,165.188 C199.052,180.74 193.724,188.876 193.292,191.9 C190.196,215.515 230.588,230.491 234.764,236.394 C238.94,242.082 225.98,251.658 225.98,251.658 L164.709,251.226 C164.709,251.226 172.988,236.466 167.661,222.499 C163.269,210.907 159.813,214.003 160.533,202.699 C162.117,177.788 176.588,171.74 172.484,160.148 C168.38,148.629 160.029,151.653 160.029,151.653 C160.029,151.653 149.733,151.581 139.941,151.509 C130.149,151.437 108.477,153.237 99.693,146.181 C92.925,140.709 88.965,125.445 88.965,125.445 L88.533,114.646 L92.781,112.774 z" fill="#373435"/>
          <path d="M92.709,112.774 L93.285,123.789 C93.285,123.789 99.549,136.173 105.093,139.773 C110.637,143.445 115.821,142.077 126.549,142.149 C137.277,142.221 144.693,141.645 144.693,141.645 L160.893,140.061 C160.893,140.061 162.333,140.061 170.684,140.133 C170.684,140.133 150.525,122.565 149.157,116.878 C147.789,111.046 143.037,101.542 143.037,101.542 C143.037,101.542 138.285,87.718 133.389,77.567 C128.421,67.343 130.725,56.543 131.805,43.944 C132.885,31.272 138.645,35.16 138.645,35.16 L137.349,21.84 L143.757,19.104 L147.069,25.728 L138.645,39.552 C138.645,39.552 132.165,52.583 139.797,73.679 C141.957,79.511 157.077,101.758 157.077,101.758 L165.357,113.278 L180.62,124.869 L185.516,131.709 C185.516,131.709 187.316,115.942 208.124,123.429 C223.028,128.901 240.092,132.141 240.74,113.278 C240.812,109.75 241.388,96.358 242.684,94.054 C249.452,82.391 244.916,122.277 244.916,122.277 C244.916,122.277 268.82,94.342 266.588,104.782 C265.58,109.318 253.772,119.83 249.884,124.869 C242.828,134.301 232.964,137.181 211.004,133.581 C193.724,130.773 196.316,142.437 195.74,148.341 C194.948,155.037 200.636,149.997 199.844,165.188 C199.052,180.74 193.724,188.876 193.292,191.9 C190.196,215.515 230.588,230.491 234.764,236.394 C238.94,242.082 225.98,251.658 225.98,251.658 L164.709,251.226 C164.709,251.226 172.988,236.466 167.661,222.499 C163.269,210.907 159.813,214.003 160.533,202.699 C162.117,177.788 176.588,171.74 172.484,160.148 C168.38,148.629 160.029,151.653 160.029,151.653 C160.029,151.653 149.733,151.581 139.941,151.509 C130.149,151.437 108.477,153.237 99.693,146.181 C92.925,140.709 88.965,125.445 88.965,125.445 L88.533,114.646 L92.781,112.774 z" fill-opacity="0" stroke="#373435" stroke-width="9.749"/>
        </g>
        <g>
          <path d="M248.3,122.493 C251.756,124.941 264.284,119.326 267.092,117.886 C269.828,116.518 279.044,106.942 281.42,104.422 C278.18,110.398 278.684,120.694 257.876,126.381 C248.732,128.829 240.884,129.981 240.884,129.981 C240.884,129.981 244.844,120.046 248.3,122.565 z" fill="#373435"/>
          <path d="M248.3,122.493 C251.756,124.941 264.284,119.326 267.092,117.886 C269.828,116.518 279.044,106.942 281.42,104.422 C278.18,110.398 278.684,120.694 257.876,126.381 C248.732,128.829 240.884,129.981 240.884,129.981 C240.884,129.981 244.844,120.046 248.3,122.565 z" fill-opacity="0" stroke="#373435" stroke-width="9.749"/>
        </g>
        <g>
          <path d="M239.732,120.334 C235.844,121.989 224.612,113.638 222.164,111.622 C219.716,109.606 212.444,98.23 210.5,95.206 C212.588,101.758 210.212,111.766 229.652,121.917 C238.148,126.381 245.708,129.261 245.708,129.261 C245.708,129.261 243.62,118.606 239.732,120.262 z" fill="#373435"/>
          <path d="M239.732,120.334 C235.844,121.989 224.612,113.638 222.164,111.622 C219.716,109.606 212.444,98.23 210.5,95.206 C212.588,101.758 210.212,111.766 229.652,121.917 C238.148,126.381 245.708,129.261 245.708,129.261 C245.708,129.261 243.62,118.606 239.732,120.262 z" fill-opacity="0" stroke="#373435" stroke-width="9.749"/>
        </g>
        <g>
          <path d="M134.757,75.119 C130.869,76.775 119.637,68.423 117.261,66.407 C114.813,64.391 107.541,53.015 105.597,49.991 C107.685,56.615 105.309,66.551 124.677,76.775 C133.173,81.239 140.733,84.118 140.733,84.118 C140.733,84.118 138.645,73.463 134.757,75.119 z" fill="#373435"/>
          <path d="M134.757,75.119 C130.869,76.775 119.637,68.423 117.261,66.407 C114.813,64.391 107.541,53.015 105.597,49.991 C107.685,56.615 105.309,66.551 124.677,76.775 C133.173,81.239 140.733,84.118 140.733,84.118 C140.733,84.118 138.645,73.463 134.757,75.119 z" fill-opacity="0" stroke="#373435" stroke-width="9.749"/>
        </g>
        <g>
          <path d="M84.933,146.613 C83.853,150.645 70.317,154.317 67.293,155.037 C64.197,155.829 50.733,154.389 47.206,154.029 C53.685,156.477 60.021,164.468 80.037,155.541 C88.821,151.653 95.733,147.477 95.733,147.477 C95.733,147.477 86.085,142.509 85.005,146.613 z" fill="#373435"/>
          <path d="M84.933,146.613 C83.853,150.645 70.317,154.317 67.293,155.037 C64.197,155.829 50.733,154.389 47.206,154.029 C53.685,156.477 60.021,164.468 80.037,155.541 C88.821,151.653 95.733,147.477 95.733,147.477 C95.733,147.477 86.085,142.509 85.005,146.613 z" fill-opacity="0" stroke="#373435" stroke-width="9.749"/>
        </g>
        <g>
          <path d="M94.869,147.693 C95.805,151.725 109.629,156.549 112.797,157.557 C115.965,158.493 129.933,158.565 133.605,158.565 C126.837,160.292 119.853,167.348 99.693,156.765 C90.765,152.157 86.373,148.773 86.373,148.773 C86.373,148.773 93.933,143.661 94.869,147.693 z" fill="#373435"/>
          <path d="M94.869,147.693 C95.805,151.725 109.629,156.549 112.797,157.557 C115.965,158.493 129.933,158.565 133.605,158.565 C126.837,160.292 119.853,167.348 99.693,156.765 C90.765,152.157 86.373,148.773 86.373,148.773 C86.373,148.773 93.933,143.661 94.869,147.693 z" fill-opacity="0" stroke="#373435" stroke-width="9.749"/>
        </g>
        <g>
          <path d="M140.877,81.167 C145.053,81.167 152.901,68.855 154.557,65.975 C156.213,63.167 159.453,49.559 160.317,45.96 C160.461,52.943 165.716,61.367 150.813,78.647 C144.261,86.206 139.941,89.734 139.941,89.734 C139.941,89.734 136.701,81.167 140.805,81.167 z" fill="#373435"/>
          <path d="M140.877,81.167 C145.053,81.167 152.901,68.855 154.557,65.975 C156.213,63.167 159.453,49.559 160.317,45.96 C160.461,52.943 165.716,61.367 150.813,78.647 C144.261,86.206 139.941,89.734 139.941,89.734 C139.941,89.734 136.701,81.167 140.805,81.167 z" fill-opacity="0" stroke="#373435" stroke-width="9.749"/>
        </g>
        <g>
          <g>
            <path d="M187.532,104.854 C187.604,105.358 176.948,81.095 211.508,90.166 C211.508,90.382 203.156,62.807 227.564,75.911 C227.564,76.127 225.116,61.295 247.292,61.007 C269.396,61.583 266.732,76.415 266.732,76.199 C291.355,63.455 282.643,90.886 282.643,90.67 C317.347,82.103 306.331,106.15 306.403,105.718 C315.835,102.838 330.883,117.166 326.203,124.365 C321.595,131.133 297.691,123.645 287.467,121.485 C277.316,118.318 246.932,112.486 246.932,112.99 C246.932,112.486 216.476,117.886 206.252,120.982 C195.956,122.997 172.052,130.197 167.516,123.357 C162.909,116.086 178.1,101.974 187.532,104.998 z" fill="#373435"/>
            <path d="M187.532,104.854 C187.604,105.358 176.948,81.095 211.508,90.166 C211.508,90.382 203.156,62.807 227.564,75.911 C227.564,76.127 225.116,61.295 247.292,61.007 C269.396,61.583 266.732,76.415 266.732,76.199 C291.355,63.455 282.643,90.886 282.643,90.67 C317.347,82.103 306.331,106.15 306.403,105.718 C315.835,102.838 330.883,117.166 326.203,124.365 C321.595,131.133 297.691,123.645 287.467,121.485 C277.316,118.318 246.932,112.486 246.932,112.99 C246.932,112.486 216.476,117.886 206.252,120.982 C195.956,122.997 172.052,130.197 167.516,123.357 C162.909,116.086 178.1,101.974 187.532,104.998 z" fill-opacity="0" stroke="#373435" stroke-width="9.749"/>
          </g>
          <g>
            <path d="M241.676,104.566 C241.676,104.494 227.564,95.422 221.084,87.934 C221.084,88.006 217.7,93.622 229.508,103.846 C235.052,108.67 244.916,111.55 241.604,104.566 z" fill="#373435"/>
            <path d="M241.676,104.566 C241.676,104.494 227.564,95.422 221.084,87.934 C221.084,88.006 217.7,93.622 229.508,103.846 C235.052,108.67 244.916,111.55 241.604,104.566 z" fill-opacity="0" stroke="#373435" stroke-width="9.749"/>
          </g>
          <g>
            <path d="M219.788,110.038 C219.788,109.966 208.052,103.99 202.652,98.662 C202.652,98.662 199.844,103.27 209.708,110.326 C214.316,113.638 222.596,115.222 219.788,110.11 z" fill="#373435"/>
            <path d="M219.788,110.038 C219.788,109.966 208.052,103.99 202.652,98.662 C202.652,98.662 199.844,103.27 209.708,110.326 C214.316,113.638 222.596,115.222 219.788,110.11 z" fill-opacity="0" stroke="#373435" stroke-width="9.749"/>
          </g>
          <g>
            <path d="M198.908,116.734 C198.908,116.662 189.836,112.774 185.66,108.886 C185.66,108.886 183.5,112.63 191.06,117.598 C194.588,119.83 200.996,120.55 198.836,116.734 z" fill="#373435"/>
            <path d="M198.908,116.734 C198.908,116.662 189.836,112.774 185.66,108.886 C185.66,108.886 183.5,112.63 191.06,117.598 C194.588,119.83 200.996,120.55 198.836,116.734 z" fill-opacity="0" stroke="#373435" stroke-width="9.749"/>
          </g>
          <g>
            <path d="M255.068,104.71 C255.068,104.638 269.252,95.854 275.804,88.51 C275.804,88.582 279.116,94.27 267.164,104.206 C261.548,108.814 251.612,111.55 255.068,104.71 z" fill="#373435"/>
            <path d="M255.068,104.71 C255.068,104.638 269.252,95.854 275.804,88.51 C275.804,88.582 279.116,94.27 267.164,104.206 C261.548,108.814 251.612,111.55 255.068,104.71 z" fill-opacity="0" stroke="#373435" stroke-width="9.749"/>
          </g>
          <g>
            <path d="M276.956,110.686 C276.956,110.614 288.763,104.926 294.163,99.67 C294.163,99.67 296.899,104.35 287.035,111.19 C282.427,114.358 274.148,115.798 276.956,110.686 z" fill="#373435"/>
            <path d="M276.956,110.686 C276.956,110.614 288.763,104.926 294.163,99.67 C294.163,99.67 296.899,104.35 287.035,111.19 C282.427,114.358 274.148,115.798 276.956,110.686 z" fill-opacity="0" stroke="#373435" stroke-width="9.749"/>
          </g>
          <g>
            <path d="M297.691,117.886 C297.691,117.886 306.835,114.142 311.011,110.326 C311.011,110.326 313.099,114.142 305.467,118.894 C301.939,121.126 295.531,121.701 297.691,117.886 z" fill="#373435"/>
            <path d="M297.691,117.886 C297.691,117.886 306.835,114.142 311.011,110.326 C311.011,110.326 313.099,114.142 305.467,118.894 C301.939,121.126 295.531,121.701 297.691,117.886 z" fill-opacity="0" stroke="#373435" stroke-width="9.749"/>
          </g>
        </g>
        <g>
          <g>
            <path d="M77.877,56.615 C77.949,57.119 66.357,30.84 103.869,40.632 C103.869,40.848 94.797,10.968 121.365,25.224 C121.365,25.44 118.773,9.312 142.749,8.952 C166.725,9.6 163.845,25.656 163.845,25.512 C190.556,11.616 181.124,41.352 181.124,41.136 C218.708,31.848 206.828,57.983 206.9,57.407 C217.124,54.239 233.396,69.791 228.356,77.639 C223.388,85.054 197.468,76.847 186.308,74.543 C175.292,71.087 142.317,64.751 142.317,65.255 C142.317,64.751 109.341,70.583 98.253,73.967 C87.093,76.199 61.101,83.974 56.133,76.559 C51.165,68.639 67.653,53.375 77.877,56.615 z" fill="#373435"/>
            <path d="M77.877,56.615 C77.949,57.119 66.357,30.84 103.869,40.632 C103.869,40.848 94.797,10.968 121.365,25.224 C121.365,25.44 118.773,9.312 142.749,8.952 C166.725,9.6 163.845,25.656 163.845,25.512 C190.556,11.616 181.124,41.352 181.124,41.136 C218.708,31.848 206.828,57.983 206.9,57.407 C217.124,54.239 233.396,69.791 228.356,77.639 C223.388,85.054 197.468,76.847 186.308,74.543 C175.292,71.087 142.317,64.751 142.317,65.255 C142.317,64.751 109.341,70.583 98.253,73.967 C87.093,76.199 61.101,83.974 56.133,76.559 C51.165,68.639 67.653,53.375 77.877,56.615 z" fill-opacity="0" stroke="#373435" stroke-width="9.749"/>
          </g>
          <g>
            <path d="M136.629,56.327 C136.629,56.183 121.365,46.319 114.309,38.184 C114.309,38.256 110.637,44.376 123.453,55.463 C129.501,60.647 140.229,63.887 136.629,56.327 z" fill="#373435"/>
            <path d="M136.629,56.327 C136.629,56.183 121.365,46.319 114.309,38.184 C114.309,38.256 110.637,44.376 123.453,55.463 C129.501,60.647 140.229,63.887 136.629,56.327 z" fill-opacity="0" stroke="#373435" stroke-width="9.749"/>
          </g>
          <g>
            <path d="M112.797,62.231 C112.797,62.159 100.053,55.679 94.293,49.847 C94.293,49.919 91.197,54.887 101.853,62.519 C106.893,66.119 115.821,67.847 112.797,62.231 z" fill="#373435"/>
            <path d="M112.797,62.231 C112.797,62.159 100.053,55.679 94.293,49.847 C94.293,49.919 91.197,54.887 101.853,62.519 C106.893,66.119 115.821,67.847 112.797,62.231 z" fill-opacity="0" stroke="#373435" stroke-width="9.749"/>
          </g>
          <g>
            <path d="M90.189,69.503 C90.189,69.431 80.397,65.183 75.861,60.935 C75.861,60.935 73.485,65.039 81.693,70.367 C85.581,72.815 92.421,73.607 90.117,69.503 z" fill="#373435"/>
            <path d="M90.189,69.503 C90.189,69.431 80.397,65.183 75.861,60.935 C75.861,60.935 73.485,65.039 81.693,70.367 C85.581,72.815 92.421,73.607 90.117,69.503 z" fill-opacity="0" stroke="#373435" stroke-width="9.749"/>
          </g>
          <g>
            <path d="M151.173,56.471 C151.173,56.399 166.58,46.895 173.708,38.904 C173.708,38.976 177.308,45.24 164.349,55.895 C158.229,60.935 147.501,63.959 151.173,56.471 z" fill="#373435"/>
            <path d="M151.173,56.471 C151.173,56.399 166.58,46.895 173.708,38.904 C173.708,38.976 177.308,45.24 164.349,55.895 C158.229,60.935 147.501,63.959 151.173,56.471 z" fill-opacity="0" stroke="#373435" stroke-width="9.749"/>
          </g>
          <g>
            <path d="M174.86,62.951 C174.86,62.879 187.676,56.687 193.508,50.999 C193.508,51.071 196.532,56.111 185.804,63.527 C180.764,66.983 171.836,68.495 174.86,63.023 z" fill="#373435"/>
            <path d="M174.86,62.951 C174.86,62.879 187.676,56.687 193.508,50.999 C193.508,51.071 196.532,56.111 185.804,63.527 C180.764,66.983 171.836,68.495 174.86,63.023 z" fill-opacity="0" stroke="#373435" stroke-width="9.749"/>
          </g>
          <g>
            <path d="M197.396,70.727 C197.396,70.655 207.26,66.695 211.796,62.519 C211.796,62.519 214.172,66.623 205.892,71.807 C202.004,74.183 195.092,74.831 197.468,70.727 z" fill="#373435"/>
            <path d="M197.396,70.727 C197.396,70.655 207.26,66.695 211.796,62.519 C211.796,62.519 214.172,66.623 205.892,71.807 C202.004,74.183 195.092,74.831 197.468,70.727 z" fill-opacity="0" stroke="#373435" stroke-width="9.749"/>
          </g>
        </g>
        <g>
          <g>
            <path d="M30.286,141.285 C30.358,141.789 19.702,117.526 54.261,126.597 C54.261,126.813 45.91,99.238 70.389,112.342 C70.389,112.558 67.941,97.726 90.045,97.438 C112.149,98.014 109.485,112.846 109.557,112.63 C134.181,99.814 125.469,127.317 125.469,127.101 C160.173,118.534 149.157,142.581 149.229,142.149 C158.661,139.269 173.708,153.597 169.028,160.796 C164.421,167.636 140.589,160.076 130.293,157.917 C120.141,154.677 89.757,148.917 89.757,149.349 C89.757,148.845 59.301,154.245 49.078,157.341 C38.782,159.356 14.806,166.628 10.342,159.716 C5.734,152.445 20.926,138.333 30.358,141.357 z" fill="#373435"/>
            <path d="M30.286,141.285 C30.358,141.789 19.702,117.526 54.261,126.597 C54.261,126.813 45.91,99.238 70.389,112.342 C70.389,112.558 67.941,97.726 90.045,97.438 C112.149,98.014 109.485,112.846 109.557,112.63 C134.181,99.814 125.469,127.317 125.469,127.101 C160.173,118.534 149.157,142.581 149.229,142.149 C158.661,139.269 173.708,153.597 169.028,160.796 C164.421,167.636 140.589,160.076 130.293,157.917 C120.141,154.677 89.757,148.917 89.757,149.349 C89.757,148.845 59.301,154.245 49.078,157.341 C38.782,159.356 14.806,166.628 10.342,159.716 C5.734,152.445 20.926,138.333 30.358,141.357 z" fill-opacity="0" stroke="#373435" stroke-width="9.749"/>
          </g>
          <g>
            <path d="M84.501,141.069 C84.501,140.997 70.389,131.853 63.909,124.365 C63.909,124.437 60.525,130.053 72.333,140.205 C77.877,144.957 87.741,147.981 84.501,140.997 z" fill="#373435"/>
            <path d="M84.501,141.069 C84.501,140.997 70.389,131.853 63.909,124.365 C63.909,124.437 60.525,130.053 72.333,140.205 C77.877,144.957 87.741,147.981 84.501,140.997 z" fill-opacity="0" stroke="#373435" stroke-width="9.749"/>
          </g>
          <g>
            <path d="M62.541,146.469 C62.541,146.397 50.805,140.421 45.478,135.021 C45.478,135.093 42.67,139.701 52.461,146.757 C57.069,149.997 65.349,151.653 62.613,146.469 z" fill="#373435"/>
            <path d="M62.541,146.469 C62.541,146.397 50.805,140.421 45.478,135.021 C45.478,135.093 42.67,139.701 52.461,146.757 C57.069,149.997 65.349,151.653 62.613,146.469 z" fill-opacity="0" stroke="#373435" stroke-width="9.749"/>
          </g>
          <g>
            <path d="M41.662,153.165 C41.662,153.093 32.59,149.205 28.486,145.317 C28.486,145.317 26.326,149.061 33.886,154.029 C37.414,156.261 43.822,156.981 41.662,153.165 z" fill="#373435"/>
            <path d="M41.662,153.165 C41.662,153.093 32.59,149.205 28.486,145.317 C28.486,145.317 26.326,149.061 33.886,154.029 C37.414,156.261 43.822,156.981 41.662,153.165 z" fill-opacity="0" stroke="#373435" stroke-width="9.749"/>
          </g>
          <g>
            <path d="M97.821,141.141 C97.821,141.069 112.077,132.285 118.557,124.941 C118.557,124.941 121.869,130.701 109.917,140.637 C104.301,145.245 94.365,147.981 97.749,141.141 z" fill="#373435"/>
            <path d="M97.821,141.141 C97.821,141.069 112.077,132.285 118.557,124.941 C118.557,124.941 121.869,130.701 109.917,140.637 C104.301,145.245 94.365,147.981 97.749,141.141 z" fill-opacity="0" stroke="#373435" stroke-width="9.749"/>
          </g>
          <g>
            <path d="M119.709,147.117 C119.709,147.045 131.517,141.357 136.917,136.101 C136.917,136.245 139.725,140.853 129.789,147.621 C125.109,150.789 116.829,152.229 119.709,147.117 z" fill="#373435"/>
            <path d="M119.709,147.117 C119.709,147.045 131.517,141.357 136.917,136.101 C136.917,136.245 139.725,140.853 129.789,147.621 C125.109,150.789 116.829,152.229 119.709,147.117 z" fill-opacity="0" stroke="#373435" stroke-width="9.749"/>
          </g>
          <g>
            <path d="M140.445,154.317 C140.445,154.245 149.589,150.573 153.765,146.757 C153.765,146.757 155.853,150.573 148.293,155.325 C144.765,157.485 138.357,158.061 140.517,154.317 z" fill="#373435"/>
            <path d="M140.445,154.317 C140.445,154.245 149.589,150.573 153.765,146.757 C153.765,146.757 155.853,150.573 148.293,155.325 C144.765,157.485 138.357,158.061 140.517,154.317 z" fill-opacity="0" stroke="#373435" stroke-width="9.749"/>
          </g>
        </g>
        <g>
          <path d="M216.188,229.555 C214.244,228.259 204.236,229.123 204.236,229.123 C204.236,229.123 193.292,230.347 195.524,231.283 C197.756,232.147 203.516,231.715 210.14,231.931 C216.764,232.147 219.14,233.946 220.292,231.427 C221.444,228.907 216.188,229.555 216.188,229.555 z" fill="#373435"/>
          <path d="M216.188,229.555 C214.244,228.259 204.236,229.123 204.236,229.123 C204.236,229.123 193.292,230.347 195.524,231.283 C197.756,232.147 203.516,231.715 210.14,231.931 C216.764,232.147 219.14,233.946 220.292,231.427 C221.444,228.907 216.188,229.555 216.188,229.555 z" fill-opacity="0" stroke="#373435" stroke-width="9.749"/>
        </g>
        <g>
          <path d="M205.172,220.915 C202.508,219.187 189.116,220.267 189.116,220.267 C189.116,220.267 174.356,221.851 177.38,223.147 C180.404,224.371 188.108,223.723 197.108,224.011 C206.036,224.299 209.204,226.747 210.788,223.363 C212.3,219.979 205.244,220.915 205.244,220.915 z" fill="#373435"/>
          <path d="M205.172,220.915 C202.508,219.187 189.116,220.267 189.116,220.267 C189.116,220.267 174.356,221.851 177.38,223.147 C180.404,224.371 188.108,223.723 197.108,224.011 C206.036,224.299 209.204,226.747 210.788,223.363 C212.3,219.979 205.244,220.915 205.244,220.915 z" fill-opacity="0" stroke="#373435" stroke-width="9.749"/>
        </g>
        <g>
          <path d="M195.38,211.123 C192.932,209.395 180.404,210.547 180.404,210.547 C180.404,210.547 166.725,212.131 169.532,213.355 C172.34,214.579 179.54,213.931 187.748,214.219 C196.028,214.507 198.98,216.955 200.42,213.571 C201.86,210.187 195.308,211.051 195.308,211.051 z" fill="#373435"/>
          <path d="M195.38,211.123 C192.932,209.395 180.404,210.547 180.404,210.547 C180.404,210.547 166.725,212.131 169.532,213.355 C172.34,214.579 179.54,213.931 187.748,214.219 C196.028,214.507 198.98,216.955 200.42,213.571 C201.86,210.187 195.308,211.051 195.308,211.051 z" fill-opacity="0" stroke="#373435" stroke-width="9.749"/>
        </g>
        <g>
          <path d="M190.556,201.835 C188.468,200.539 178.028,201.403 178.028,201.403 C178.028,201.403 166.509,202.699 168.812,203.635 C171.188,204.571 177.236,204.067 184.148,204.283 C191.06,204.571 193.58,206.443 194.804,203.851 C196.028,201.187 190.556,201.907 190.556,201.907 z" fill="#373435"/>
          <path d="M190.556,201.835 C188.468,200.539 178.028,201.403 178.028,201.403 C178.028,201.403 166.509,202.699 168.812,203.635 C171.188,204.571 177.236,204.067 184.148,204.283 C191.06,204.571 193.58,206.443 194.804,203.851 C196.028,201.187 190.556,201.907 190.556,201.907 z" fill-opacity="0" stroke="#373435" stroke-width="9.749"/>
        </g>
        <g>
          <path d="M172.556,179.732 C172.556,182.108 169.46,182.612 171.548,185.276 C173.564,187.94 175.868,185.852 176.012,182.828 C176.228,179.804 177.236,176.78 175.58,175.268 C173.852,173.756 172.556,177.14 172.556,179.804 z" fill="#373435"/>
          <path d="M172.556,179.732 C172.556,182.108 169.46,182.612 171.548,185.276 C173.564,187.94 175.868,185.852 176.012,182.828 C176.228,179.804 177.236,176.78 175.58,175.268 C173.852,173.756 172.556,177.14 172.556,179.804 z" fill-opacity="0" stroke="#373435" stroke-width="9.749"/>
        </g>
        <g>
          <path d="M180.044,164.54 C180.044,164.54 180.98,171.02 179.324,171.524 C177.668,172.1 177.308,170.948 177.164,168.644 C177.02,166.34 176.876,161.228 180.044,164.468 z" fill="#373435"/>
          <path d="M180.044,164.54 C180.044,164.54 180.98,171.02 179.324,171.524 C177.668,172.1 177.308,170.948 177.164,168.644 C177.02,166.34 176.876,161.228 180.044,164.468 z" fill-opacity="0" stroke="#373435" stroke-width="9.749"/>
        </g>
        <g>
          <path d="M181.988,155.973 C181.988,155.973 182.924,165.404 185.66,164.468 C188.324,163.604 187.532,160.292 187.028,159.356 C186.524,158.421 183.716,152.301 181.988,155.901 z" fill="#373435"/>
          <path d="M181.988,155.973 C181.988,155.973 182.924,165.404 185.66,164.468 C188.324,163.604 187.532,160.292 187.028,159.356 C186.524,158.421 183.716,152.301 181.988,155.901 z" fill-opacity="0" stroke="#373435" stroke-width="9.749"/>
        </g>
        <g>
          <path d="M184.292,173.54 C184.868,175.124 185.084,180.164 183.716,180.164 C182.348,180.164 181.844,182.036 181.7,177.14 C181.556,172.244 183.572,171.884 184.292,173.54 z" fill="#373435"/>
          <path d="M184.292,173.54 C184.868,175.124 185.084,180.164 183.716,180.164 C182.348,180.164 181.844,182.036 181.7,177.14 C181.556,172.244 183.572,171.884 184.292,173.54 z" fill-opacity="0" stroke="#373435" stroke-width="9.749"/>
        </g>
      </g>
      <g>
        <path d="M92.709,112.774 L93.285,123.789 C93.285,123.789 99.549,136.173 105.093,139.773 C110.637,143.445 115.821,142.077 126.549,142.149 C137.277,142.221 144.693,141.645 144.693,141.645 L160.893,140.061 C160.893,140.061 162.333,140.061 170.684,140.133 C170.684,140.133 150.525,122.565 149.157,116.878 C147.789,111.046 143.037,101.542 143.037,101.542 C143.037,101.542 138.285,87.718 133.389,77.567 C128.421,67.343 130.725,56.543 131.805,43.944 C132.885,31.272 138.645,35.16 138.645,35.16 L137.349,21.84 L143.757,19.104 L147.069,25.728 L138.645,39.552 C138.645,39.552 132.165,52.583 139.797,73.679 C141.957,79.511 157.077,101.758 157.077,101.758 L165.357,113.278 L180.62,124.869 L185.516,131.709 C185.516,131.709 187.316,115.942 208.124,123.429 C223.028,128.901 240.092,132.141 240.74,113.278 C240.812,109.75 241.388,96.358 242.684,94.054 C249.452,82.391 244.916,122.277 244.916,122.277 C244.916,122.277 268.82,94.342 266.588,104.782 C265.58,109.318 253.772,119.83 249.884,124.869 C242.828,134.301 232.964,137.181 211.004,133.581 C193.724,130.773 196.316,142.437 195.74,148.341 C194.948,155.037 200.636,149.997 199.844,165.188 C199.052,180.74 193.724,188.876 193.292,191.9 C190.196,215.515 230.588,230.491 234.764,236.394 C238.94,242.082 225.98,251.658 225.98,251.658 L164.709,251.226 C164.709,251.226 172.988,236.466 167.661,222.499 C163.269,210.907 159.813,214.003 160.533,202.699 C162.117,177.788 176.588,171.74 172.484,160.148 C168.38,148.629 160.029,151.653 160.029,151.653 C160.029,151.653 149.733,151.581 139.941,151.509 C130.149,151.437 108.477,153.237 99.693,146.181 C92.925,140.709 88.965,125.445 88.965,125.445 L88.533,114.646 L92.781,112.774 z" fill="#7B6342"/>
        <path d="M248.3,122.493 C251.756,124.941 264.284,119.326 267.092,117.886 C269.828,116.518 279.044,106.942 281.42,104.422 C278.18,110.398 278.684,120.694 257.876,126.381 C248.732,128.829 240.884,129.981 240.884,129.981 C240.884,129.981 244.844,120.046 248.3,122.565 z" fill="#7B6342"/>
        <path d="M239.732,120.334 C235.844,121.989 224.612,113.638 222.164,111.622 C219.716,109.606 212.444,98.23 210.5,95.206 C212.588,101.758 210.212,111.766 229.652,121.917 C238.148,126.381 245.708,129.261 245.708,129.261 C245.708,129.261 243.62,118.606 239.732,120.262 z" fill="#7B6342"/>
        <path d="M134.757,75.119 C130.869,76.775 119.637,68.423 117.261,66.407 C114.813,64.391 107.541,53.015 105.597,49.991 C107.685,56.615 105.309,66.551 124.677,76.775 C133.173,81.239 140.733,84.118 140.733,84.118 C140.733,84.118 138.645,73.463 134.757,75.119 z" fill="#7B6342"/>
        <path d="M84.933,146.613 C83.853,150.645 70.317,154.317 67.293,155.037 C64.197,155.829 50.733,154.389 47.206,154.029 C53.685,156.477 60.021,164.468 80.037,155.541 C88.821,151.653 95.733,147.477 95.733,147.477 C95.733,147.477 86.085,142.509 85.005,146.613 z" fill="#7B6342"/>
        <path d="M94.869,147.693 C95.805,151.725 109.629,156.549 112.797,157.557 C115.965,158.493 129.933,158.565 133.605,158.565 C126.837,160.292 119.853,167.348 99.693,156.765 C90.765,152.157 86.373,148.773 86.373,148.773 C86.373,148.773 93.933,143.661 94.869,147.693 z" fill="#7B6342"/>
        <path d="M140.877,81.167 C145.053,81.167 152.901,68.855 154.557,65.975 C156.213,63.167 159.453,49.559 160.317,45.96 C160.461,52.943 165.716,61.367 150.813,78.647 C144.261,86.206 139.941,89.734 139.941,89.734 C139.941,89.734 136.701,81.167 140.805,81.167 z" fill="#7B6342"/>
        <g>
          <path d="M187.532,104.854 C187.604,105.358 176.948,81.095 211.508,90.166 C211.508,90.382 203.156,62.807 227.564,75.911 C227.564,76.127 225.116,61.295 247.292,61.007 C269.396,61.583 266.732,76.415 266.732,76.199 C291.355,63.455 282.643,90.886 282.643,90.67 C317.347,82.103 306.331,106.15 306.403,105.718 C315.835,102.838 330.883,117.166 326.203,124.365 C321.595,131.133 297.691,123.645 287.467,121.485 C277.316,118.318 246.932,112.486 246.932,112.99 C246.932,112.486 216.476,117.886 206.252,120.982 C195.956,122.997 172.052,130.197 167.516,123.357 C162.909,116.086 178.1,101.974 187.532,104.998 z" fill="#5F9F50"/>
          <path d="M241.676,104.566 C241.676,104.494 227.564,95.422 221.084,87.934 C221.084,88.006 217.7,93.622 229.508,103.846 C235.052,108.67 244.916,111.55 241.604,104.566 z" fill="#90C74A"/>
          <path d="M219.788,110.038 C219.788,109.966 208.052,103.99 202.652,98.662 C202.652,98.662 199.844,103.27 209.708,110.326 C214.316,113.638 222.596,115.222 219.788,110.11 z" fill="#90C74A"/>
          <path d="M198.908,116.734 C198.908,116.662 189.836,112.774 185.66,108.886 C185.66,108.886 183.5,112.63 191.06,117.598 C194.588,119.83 200.996,120.55 198.836,116.734 z" fill="#90C74A"/>
          <path d="M255.068,104.71 C255.068,104.638 269.252,95.854 275.804,88.51 C275.804,88.582 279.116,94.27 267.164,104.206 C261.548,108.814 251.612,111.55 255.068,104.71 z" fill="#90C74A"/>
          <path d="M276.956,110.686 C276.956,110.614 288.763,104.926 294.163,99.67 C294.163,99.67 296.899,104.35 287.035,111.19 C282.427,114.358 274.148,115.798 276.956,110.686 z" fill="#90C74A"/>
          <path d="M297.691,117.886 C297.691,117.886 306.835,114.142 311.011,110.326 C311.011,110.326 313.099,114.142 305.467,118.894 C301.939,121.126 295.531,121.701 297.691,117.886 z" fill="#90C74A"/>
        </g>
        <g>
          <path d="M77.877,56.615 C77.949,57.119 66.357,30.84 103.869,40.632 C103.869,40.848 94.797,10.968 121.365,25.224 C121.365,25.44 118.773,9.312 142.749,8.952 C166.725,9.6 163.845,25.656 163.845,25.512 C190.556,11.616 181.124,41.352 181.124,41.136 C218.708,31.848 206.828,57.983 206.9,57.407 C217.124,54.239 233.396,69.791 228.356,77.639 C223.388,85.054 197.468,76.847 186.308,74.543 C175.292,71.087 142.317,64.751 142.317,65.255 C142.317,64.751 109.341,70.583 98.253,73.967 C87.093,76.199 61.101,83.974 56.133,76.559 C51.165,68.639 67.653,53.375 77.877,56.615 z" fill="#5F9F50"/>
          <path d="M136.629,56.327 C136.629,56.183 121.365,46.319 114.309,38.184 C114.309,38.256 110.637,44.376 123.453,55.463 C129.501,60.647 140.229,63.887 136.629,56.327 z" fill="#90C74A"/>
          <path d="M112.797,62.231 C112.797,62.159 100.053,55.679 94.293,49.847 C94.293,49.919 91.197,54.887 101.853,62.519 C106.893,66.119 115.821,67.847 112.797,62.231 z" fill="#90C74A"/>
          <path d="M90.189,69.503 C90.189,69.431 80.397,65.183 75.861,60.935 C75.861,60.935 73.485,65.039 81.693,70.367 C85.581,72.815 92.421,73.607 90.117,69.503 z" fill="#90C74A"/>
          <path d="M151.173,56.471 C151.173,56.399 166.58,46.895 173.708,38.904 C173.708,38.976 177.308,45.24 164.349,55.895 C158.229,60.935 147.501,63.959 151.173,56.471 z" fill="#90C74A"/>
          <path d="M174.86,62.951 C174.86,62.879 187.676,56.687 193.508,50.999 C193.508,51.071 196.532,56.111 185.804,63.527 C180.764,66.983 171.836,68.495 174.86,63.023 z" fill="#90C74A"/>
          <path d="M197.396,70.727 C197.396,70.655 207.26,66.695 211.796,62.519 C211.796,62.519 214.172,66.623 205.892,71.807 C202.004,74.183 195.092,74.831 197.468,70.727 z" fill="#90C74A"/>
        </g>
        <g>
          <path d="M30.286,141.285 C30.358,141.789 19.702,117.526 54.261,126.597 C54.261,126.813 45.91,99.238 70.389,112.342 C70.389,112.558 67.941,97.726 90.045,97.438 C112.149,98.014 109.485,112.846 109.557,112.63 C134.181,99.814 125.469,127.317 125.469,127.101 C160.173,118.534 149.157,142.581 149.229,142.149 C158.661,139.269 173.708,153.597 169.028,160.796 C164.421,167.636 140.589,160.076 130.293,157.917 C120.141,154.677 89.757,148.917 89.757,149.349 C89.757,148.845 59.301,154.245 49.078,157.341 C38.782,159.356 14.806,166.628 10.342,159.716 C5.734,152.445 20.926,138.333 30.358,141.357 z" fill="#5F9F50"/>
          <path d="M84.501,141.069 C84.501,140.997 70.389,131.853 63.909,124.365 C63.909,124.437 60.525,130.053 72.333,140.205 C77.877,144.957 87.741,147.981 84.501,140.997 z" fill="#90C74A"/>
          <path d="M62.541,146.469 C62.541,146.397 50.805,140.421 45.478,135.021 C45.478,135.093 42.67,139.701 52.461,146.757 C57.069,149.997 65.349,151.653 62.613,146.469 z" fill="#90C74A"/>
          <path d="M41.662,153.165 C41.662,153.093 32.59,149.205 28.486,145.317 C28.486,145.317 26.326,149.061 33.886,154.029 C37.414,156.261 43.822,156.981 41.662,153.165 z" fill="#90C74A"/>
          <path d="M97.821,141.141 C97.821,141.069 112.077,132.285 118.557,124.941 C118.557,124.941 121.869,130.701 109.917,140.637 C104.301,145.245 94.365,147.981 97.749,141.141 z" fill="#90C74A"/>
          <path d="M119.709,147.117 C119.709,147.045 131.517,141.357 136.917,136.101 C136.917,136.245 139.725,140.853 129.789,147.621 C125.109,150.789 116.829,152.229 119.709,147.117 z" fill="#90C74A"/>
          <path d="M140.445,154.317 C140.445,154.245 149.589,150.573 153.765,146.757 C153.765,146.757 155.853,150.573 148.293,155.325 C144.765,157.485 138.357,158.061 140.517,154.317 z" fill="#90C74A"/>
        </g>
        <path d="M216.188,229.555 C214.244,228.259 204.236,229.123 204.236,229.123 C204.236,229.123 193.292,230.347 195.524,231.283 C197.756,232.147 203.516,231.715 210.14,231.931 C216.764,232.147 219.14,233.946 220.292,231.427 C221.444,228.907 216.188,229.555 216.188,229.555 z" fill="#907A5B"/>
        <path d="M205.172,220.915 C202.508,219.187 189.116,220.267 189.116,220.267 C189.116,220.267 174.356,221.851 177.38,223.147 C180.404,224.371 188.108,223.723 197.108,224.011 C206.036,224.299 209.204,226.747 210.788,223.363 C212.3,219.979 205.244,220.915 205.244,220.915 z" fill="#907A5B"/>
        <path d="M195.38,211.123 C192.932,209.395 180.404,210.547 180.404,210.547 C180.404,210.547 166.725,212.131 169.532,213.355 C172.34,214.579 179.54,213.931 187.748,214.219 C196.028,214.507 198.98,216.955 200.42,213.571 C201.86,210.187 195.308,211.051 195.308,211.051 z" fill="#907A5B"/>
        <path d="M190.556,201.835 C188.468,200.539 178.028,201.403 178.028,201.403 C178.028,201.403 166.509,202.699 168.812,203.635 C171.188,204.571 177.236,204.067 184.148,204.283 C191.06,204.571 193.58,206.443 194.804,203.851 C196.028,201.187 190.556,201.907 190.556,201.907 z" fill="#907A5B"/>
        <path d="M172.556,179.732 C172.556,182.108 169.46,182.612 171.548,185.276 C173.564,187.94 175.868,185.852 176.012,182.828 C176.228,179.804 177.236,176.78 175.58,175.268 C173.852,173.756 172.556,177.14 172.556,179.804 z" fill="#907A5B"/>
        <path d="M180.044,164.54 C180.044,164.54 180.98,171.02 179.324,171.524 C177.668,172.1 177.308,170.948 177.164,168.644 C177.02,166.34 176.876,161.228 180.044,164.468 z" fill="#907A5B"/>
        <path d="M181.988,155.973 C181.988,155.973 182.924,165.404 185.66,164.468 C188.324,163.604 187.532,160.292 187.028,159.356 C186.524,158.421 183.716,152.301 181.988,155.901 z" fill="#907A5B"/>
        <path d="M184.292,173.54 C184.868,175.124 185.084,180.164 183.716,180.164 C182.348,180.164 181.844,182.036 181.7,177.14 C181.556,172.244 183.572,171.884 184.292,173.54 z" fill="#907A5B"/>
      </g>
    </g>
    <g>
      <path d="M335.851,296.945 L312.883,261.666 L280.7,258.282 C280.7,258.282 270.188,237.762 259.46,236.61 C181.556,226.387 171.62,294.353 171.62,294.353 L205.82,310.12 C205.82,310.12 223.964,311.632 234.62,306.737 C245.276,301.913 264.932,308.105 283.076,309.544 C301.219,310.984 335.851,296.873 335.851,296.873 z" fill="#97999B"/>
      <path d="M335.851,296.945 L312.883,261.666 L280.7,258.282 C280.7,258.282 270.188,237.762 259.46,236.61 C181.556,226.387 171.62,294.353 171.62,294.353 L205.82,310.12 C205.82,310.12 223.964,311.632 234.62,306.737 C245.276,301.913 264.932,308.105 283.076,309.544 C301.219,310.984 335.851,296.873 335.851,296.873 z" fill-opacity="0" stroke="#373435" stroke-width="4.872"/>
    </g>
    <g>
      <path d="M45.406,240.93 L66.213,221.635 L89.901,223.003 C89.901,223.003 99.981,211.483 107.829,211.915 C165.428,213.931 164.493,256.914 164.493,256.914 L137.925,262.962 C137.925,262.962 124.605,261.954 117.477,257.778 C110.349,253.674 95.373,255.402 82.125,254.322 C68.805,253.242 45.478,240.858 45.478,240.858 z" fill="#97999B"/>
      <path d="M45.406,240.93 L66.213,221.635 L89.901,223.003 C89.901,223.003 99.981,211.483 107.829,211.915 C165.428,213.931 164.493,256.914 164.493,256.914 L137.925,262.962 C137.925,262.962 124.605,261.954 117.477,257.778 C110.349,253.674 95.373,255.402 82.125,254.322 C68.805,253.242 45.478,240.858 45.478,240.858 z" fill-opacity="0" stroke="#373435" stroke-width="3.864"/>
    </g>
    <g>
      <path d="M121.437,259.938 L139.293,242.73 L153.621,244.53 C153.621,244.53 162.837,234.163 167.588,234.81 C202.868,237.978 191.276,277.433 191.276,277.433 L173.204,282.401 C173.204,282.401 165.212,281.177 161.829,277.217 C158.445,273.257 148.725,274.553 140.733,273.257 C132.741,272.034 121.365,260.082 121.365,260.082 z" fill="#97999B"/>
      <path d="M121.437,259.938 L139.293,242.73 L153.621,244.53 C153.621,244.53 162.837,234.163 167.588,234.81 C202.868,237.978 191.276,277.433 191.276,277.433 L173.204,282.401 C173.204,282.401 165.212,281.177 161.829,277.217 C158.445,273.257 148.725,274.553 140.733,273.257 C132.741,272.034 121.365,260.082 121.365,260.082 z" fill-opacity="0" stroke="#373435" stroke-width="3.864"/>
    </g>
    <g id="_173183864">
      <g>
        <g>
          <path d="M97.605,252.09 C97.893,249.21 102.933,244.098 105.453,245.466 C108.045,246.906 110.133,244.962 111.789,243.738 C113.373,242.442 123.381,238.914 125.325,242.73 C127.269,246.618 131.445,244.674 131.445,244.674 C131.445,244.674 141.741,242.082 143.397,246.33 C144.981,250.506 145.629,251.154 148.221,250.866 C150.813,250.578 154.989,252.162 155.637,255.042 C156.285,257.922 157.509,258.282 160.101,260.226 C162.693,262.17 161.109,265.338 161.397,266.994 C161.757,268.65 164.637,268.65 165.932,271.529 C167.228,274.409 165.932,277.649 167.228,278.009 C168.524,278.297 169.172,280.601 168.812,283.121 C168.524,285.713 170.108,286.289 170.756,287.945 C171.404,289.529 170.396,293.129 168.524,294.065 C166.58,295.001 165.932,295.361 164.349,297.953 C162.765,300.545 154.701,301.193 153.117,300.545 C151.533,299.897 151.173,299.609 146.997,302.129 C142.821,304.721 134.757,304.073 134.469,302.777 C134.181,301.481 130.293,301.193 128.997,302.129 C127.701,303.137 125.829,305.369 123.525,304.073 C121.293,302.777 113.877,301.193 111.285,302.489 C108.693,303.785 105.165,306.305 104.229,302.777 C103.221,299.249 96.237,302.345 94.941,302.345 C93.645,302.345 88.317,301.121 88.317,299.537 C88.317,297.953 85.941,300.689 84.141,297.593 C81.909,293.705 86.949,290.681 83.493,287.945 C82.125,286.865 79.677,280.745 85.077,277.793 C86.661,276.929 86.301,271.529 86.301,271.529 C86.301,271.529 83.637,267.426 86.877,265.482 C90.117,263.538 90.045,263.826 89.685,260.658 C89.397,257.418 89.397,251.514 94.509,253.386 C96.741,254.178 97.749,252.306 97.749,252.306 z" fill="#373435"/>
          <path d="M97.605,252.09 C97.893,249.21 102.933,244.098 105.453,245.466 C108.045,246.906 110.133,244.962 111.789,243.738 C113.373,242.442 123.381,238.914 125.325,242.73 C127.269,246.618 131.445,244.674 131.445,244.674 C131.445,244.674 141.741,242.082 143.397,246.33 C144.981,250.506 145.629,251.154 148.221,250.866 C150.813,250.578 154.989,252.162 155.637,255.042 C156.285,257.922 157.509,258.282 160.101,260.226 C162.693,262.17 161.109,265.338 161.397,266.994 C161.757,268.65 164.637,268.65 165.932,271.529 C167.228,274.409 165.932,277.649 167.228,278.009 C168.524,278.297 169.172,280.601 168.812,283.121 C168.524,285.713 170.108,286.289 170.756,287.945 C171.404,289.529 170.396,293.129 168.524,294.065 C166.58,295.001 165.932,295.361 164.349,297.953 C162.765,300.545 154.701,301.193 153.117,300.545 C151.533,299.897 151.173,299.609 146.997,302.129 C142.821,304.721 134.757,304.073 134.469,302.777 C134.181,301.481 130.293,301.193 128.997,302.129 C127.701,303.137 125.829,305.369 123.525,304.073 C121.293,302.777 113.877,301.193 111.285,302.489 C108.693,303.785 105.165,306.305 104.229,302.777 C103.221,299.249 96.237,302.345 94.941,302.345 C93.645,302.345 88.317,301.121 88.317,299.537 C88.317,297.953 85.941,300.689 84.141,297.593 C81.909,293.705 86.949,290.681 83.493,287.945 C82.125,286.865 79.677,280.745 85.077,277.793 C86.661,276.929 86.301,271.529 86.301,271.529 C86.301,271.529 83.637,267.426 86.877,265.482 C90.117,263.538 90.045,263.826 89.685,260.658 C89.397,257.418 89.397,251.514 94.509,253.386 C96.741,254.178 97.749,252.306 97.749,252.306 z" fill-opacity="0" stroke="#373435" stroke-width="7.796" stroke-linejoin="round"/>
        </g>
        <g>
          <path d="M88.029,288.737 C88.029,288.737 99.909,294.209 104.877,287.513 C104.877,287.513 99.909,299.897 88.029,288.737 z" fill="#373435"/>
          <path d="M88.029,288.737 C88.029,288.737 99.909,294.209 104.877,287.513 C104.877,287.513 99.909,299.897 88.029,288.737 z" fill-opacity="0" stroke="#373435" stroke-width="7.796" stroke-linejoin="round"/>
        </g>
        <g>
          <path d="M107.901,292.049 C107.901,292.049 120.501,299.177 125.469,292.481 C125.469,292.481 117.765,304.793 107.901,292.049 z" fill="#373435"/>
          <path d="M107.901,292.049 C107.901,292.049 120.501,299.177 125.469,292.481 C125.469,292.481 117.765,304.793 107.901,292.049 z" fill-opacity="0" stroke="#373435" stroke-width="7.796" stroke-linejoin="round"/>
        </g>
        <g>
          <path d="M98.037,280.385 C98.037,280.385 110.637,287.585 115.605,280.817 C115.605,280.817 107.901,293.129 98.037,280.385 z" fill="#373435"/>
          <path d="M98.037,280.385 C98.037,280.385 110.637,287.585 115.605,280.817 C115.605,280.817 107.901,293.129 98.037,280.385 z" fill-opacity="0" stroke="#373435" stroke-width="7.796" stroke-linejoin="round"/>
        </g>
        <g>
          <path d="M144.261,284.921 C144.261,284.921 158.013,286.433 163.269,278.225 C163.269,278.225 155.133,292.625 144.261,284.921 z" fill="#373435"/>
          <path d="M144.261,284.921 C144.261,284.921 158.013,286.433 163.269,278.225 C163.269,278.225 155.133,292.625 144.261,284.921 z" fill-opacity="0" stroke="#373435" stroke-width="7.796" stroke-linejoin="round"/>
        </g>
        <g>
          <path d="M138.573,284.777 C138.573,284.777 126.549,290.033 122.373,282.833 C122.373,282.833 127.341,296.297 138.573,284.777 z" fill="#373435"/>
          <path d="M138.573,284.777 C138.573,284.777 126.549,290.033 122.373,282.833 C122.373,282.833 127.341,296.297 138.573,284.777 z" fill-opacity="0" stroke="#373435" stroke-width="7.796" stroke-linejoin="round"/>
        </g>
        <g>
          <path d="M163.197,271.745 C163.197,271.745 152.253,279.017 146.925,272.609 C146.925,272.609 154.197,284.993 163.197,271.745 z" fill="#373435"/>
          <path d="M163.197,271.745 C163.197,271.745 152.253,279.017 146.925,272.609 C146.925,272.609 154.197,284.993 163.197,271.745 z" fill-opacity="0" stroke="#373435" stroke-width="7.796" stroke-linejoin="round"/>
        </g>
        <g>
          <path d="M131.589,291.545 C131.589,291.545 143.469,297.017 148.437,290.249 C148.437,290.249 143.469,302.633 131.589,291.545 z" fill="#373435"/>
          <path d="M131.589,291.545 C131.589,291.545 143.469,297.017 148.437,290.249 C148.437,290.249 143.469,302.633 131.589,291.545 z" fill-opacity="0" stroke="#373435" stroke-width="7.796" stroke-linejoin="round"/>
        </g>
        <g>
          <path d="M104.229,272.753 C104.229,272.753 92.493,278.513 87.381,271.889 C87.381,271.889 92.637,284.129 104.229,272.753 z" fill="#373435"/>
          <path d="M104.229,272.753 C104.229,272.753 92.493,278.513 87.381,271.889 C87.381,271.889 92.637,284.129 104.229,272.753 z" fill-opacity="0" stroke="#373435" stroke-width="7.796" stroke-linejoin="round"/>
        </g>
        <g>
          <path d="M151.029,289.673 C151.029,289.673 163.485,293.489 167.517,286.217 C167.517,286.217 164.205,299.105 151.029,289.673 z" fill="#373435"/>
          <path d="M151.029,289.673 C151.029,289.673 163.485,293.489 167.517,286.217 C167.517,286.217 164.205,299.105 151.029,289.673 z" fill-opacity="0" stroke="#373435" stroke-width="7.796" stroke-linejoin="round"/>
        </g>
      </g>
      <g>
        <path d="M97.605,252.09 C97.893,249.21 102.933,244.098 105.453,245.466 C108.045,246.906 110.133,244.962 111.789,243.738 C113.373,242.442 123.381,238.914 125.325,242.73 C127.269,246.618 131.445,244.674 131.445,244.674 C131.445,244.674 141.741,242.082 143.397,246.33 C144.981,250.506 145.629,251.154 148.221,250.866 C150.813,250.578 154.989,252.162 155.637,255.042 C156.285,257.922 157.509,258.282 160.101,260.226 C162.693,262.17 161.109,265.338 161.397,266.994 C161.757,268.65 164.637,268.65 165.932,271.529 C167.228,274.409 165.932,277.649 167.228,278.009 C168.524,278.297 169.172,280.601 168.812,283.121 C168.524,285.713 170.108,286.289 170.756,287.945 C171.404,289.529 170.396,293.129 168.524,294.065 C166.58,295.001 165.932,295.361 164.349,297.953 C162.765,300.545 154.701,301.193 153.117,300.545 C151.533,299.897 151.173,299.609 146.997,302.129 C142.821,304.721 134.757,304.073 134.469,302.777 C134.181,301.481 130.293,301.193 128.997,302.129 C127.701,303.137 125.829,305.369 123.525,304.073 C121.293,302.777 113.877,301.193 111.285,302.489 C108.693,303.785 105.165,306.305 104.229,302.777 C103.221,299.249 96.237,302.345 94.941,302.345 C93.645,302.345 88.317,301.121 88.317,299.537 C88.317,297.953 85.941,300.689 84.141,297.593 C81.909,293.705 86.949,290.681 83.493,287.945 C82.125,286.865 79.677,280.745 85.077,277.793 C86.661,276.929 86.301,271.529 86.301,271.529 C86.301,271.529 83.637,267.426 86.877,265.482 C90.117,263.538 90.045,263.826 89.685,260.658 C89.397,257.418 89.397,251.514 94.509,253.386 C96.741,254.178 97.749,252.306 97.749,252.306 z" fill="#73A13F"/>
        <path d="M88.029,288.737 C88.029,288.737 99.909,294.209 104.877,287.513 C104.877,287.513 99.909,299.897 88.029,288.737 z" fill="#90C74A"/>
        <path d="M107.901,292.049 C107.901,292.049 120.501,299.177 125.469,292.481 C125.469,292.481 117.765,304.793 107.901,292.049 z" fill="#90C74A"/>
        <path d="M98.037,280.385 C98.037,280.385 110.637,287.585 115.605,280.817 C115.605,280.817 107.901,293.129 98.037,280.385 z" fill="#90C74A"/>
        <path d="M144.261,284.921 C144.261,284.921 158.013,286.433 163.269,278.225 C163.269,278.225 155.133,292.625 144.261,284.921 z" fill="#90C74A"/>
        <path d="M138.573,284.777 C138.573,284.777 126.549,290.033 122.373,282.833 C122.373,282.833 127.341,296.297 138.573,284.777 z" fill="#90C74A"/>
        <path d="M163.197,271.745 C163.197,271.745 152.253,279.017 146.925,272.609 C146.925,272.609 154.197,284.993 163.197,271.745 z" fill="#90C74A"/>
        <path d="M131.589,291.545 C131.589,291.545 143.469,297.017 148.437,290.249 C148.437,290.249 143.469,302.633 131.589,291.545 z" fill="#90C74A"/>
        <path d="M104.229,272.753 C104.229,272.753 92.493,278.513 87.381,271.889 C87.381,271.889 92.637,284.129 104.229,272.753 z" fill="#90C74A"/>
        <path d="M151.029,289.673 C151.029,289.673 163.485,293.489 167.517,286.217 C167.517,286.217 164.205,299.105 151.029,289.673 z" fill="#90C74A"/>
      </g>
    </g>
  </g>
</svg>
