<?xml version="1.0" encoding="UTF-8" standalone="no"?>
<!-- Created with Inkscape (http://www.inkscape.org/) -->

<svg
   width="576"
   height="826"
   version="1.1"
   viewBox="0 0 576 826"
   id="svg22"
   sodipodi:docname="item217.svg"
   inkscape:version="1.1.2 (0a00cf5339, 2022-02-04)"
   xmlns:inkscape="http://www.inkscape.org/namespaces/inkscape"
   xmlns:sodipodi="http://sodipodi.sourceforge.net/DTD/sodipodi-0.dtd"
   xmlns="http://www.w3.org/2000/svg"
   xmlns:svg="http://www.w3.org/2000/svg"
   xmlns:rdf="http://www.w3.org/1999/02/22-rdf-syntax-ns#"
   xmlns:cc="http://creativecommons.org/ns#"
   xmlns:dc="http://purl.org/dc/elements/1.1/">
  <defs
     id="defs26" />
  <sodipodi:namedview
     id="namedview24"
     pagecolor="#ffffff"
     bordercolor="#666666"
     borderopacity="1.0"
     inkscape:pageshadow="2"
     inkscape:pageopacity="0.0"
     inkscape:pagecheckerboard="0"
     showgrid="false"
     inkscape:zoom="0.47083381"
     inkscape:cx="463.00838"
     inkscape:cy="354.6899"
     inkscape:window-width="1366"
     inkscape:window-height="719"
     inkscape:window-x="0"
     inkscape:window-y="25"
     inkscape:window-maximized="1"
     inkscape:current-layer="svg22" />
  <metadata
     id="metadata2">
    <rdf:RDF>
      <cc:Work
         rdf:about="">
        <dc:format>image/svg+xml</dc:format>
        <dc:type
           rdf:resource="http://purl.org/dc/dcmitype/StillImage" />
      </cc:Work>
    </rdf:RDF>
  </metadata>
  <path
     d="m 269.4554,817.3877 c -1.65,-0.23442 -7.05,-1.0981 -12,-1.9193 -4.95,-0.8212 -19.125,-2.8065 -31.5,-4.4118 -21.082,-2.7347 -23.32,-3.2292 -35.5,-7.8452 -47.163,-17.873 -82.508,-37.65 -106.21,-59.43 -19.728,-18.128 -32.167,-34.218 -43.165,-55.837 -7.8191,-15.37 -13.017,-30.45 -16.014,-46.464 -1.1324,-6.05 -3.4431,-17.975 -5.1348,-26.5 -2.5489,-12.844 -3.1756,-18.852 -3.6584,-35.067 -0.68503,-23.011 -0.01527,-29.751 6.1311,-61.698 7.4438,-38.691 8.1731,-40.547 43.309,-110.23 32.45,-64.359 35.44,-69.901 94.976,-176 8.7957,-15.675 21.974,-39.525 29.284,-53 7.31,-13.475 24.187,-43.4 37.502,-66.5 25.375,-44.021 38.287,-67.182 45.863,-82.266 4.8536,-9.664 7.6233,-12.556 13.796,-14.406 5.0038,-1.4992 5.2673,-1.2154 11.304,12.172 6.937,15.383 24.443,49.759 32.083,63 13.581,23.537 27.4,49.923 53.423,102 14.704,29.425 30.927,60.7 36.052,69.5 5.125,8.8 23.651,44.35 41.168,79 24.155,47.78 32.19,64.579 33.261,69.535 1.0011,4.6346 4.9085,13.249 13.436,29.621 l 12.024,23.086 4.5464,19.379 c 7.4324,31.681 7.9606,34.925 9.5045,58.379 1.6863,25.617 0.90149,55.679 -2.0624,79 -0.93975,7.3943 -9.6083,46.476 -12.089,54.5 -1.7646,5.7091 -11.658,24.895 -17.275,33.5 -15.236,23.343 -40.051,48.429 -67.495,68.233 -8.1002,5.8451 -11.769,7.843 -16.373,8.9171 -3.2636,0.76136 -12.516,4.144 -20.561,7.517 -24.748,10.376 -37.768,14.725 -50.613,16.906 -6.6075,1.1219 -17.639,3.1825 -24.514,4.579 -10.193,2.0706 -16.006,2.5984 -31.5,2.8601 -10.45,0.17651 -20.35,0.12914 -22,-0.10528 z"
     fill="#cbaca6"
     id="path6" />
  <path
     d="m 269.9554,816.3677 c -1.925,-0.23602 -8.9,-1.3045 -15.5,-2.3743 -6.6,-1.0699 -19.65,-2.8818 -29,-4.0266 -20.035,-2.453 -25.28,-3.8812 -48.5,-13.207 -29.281,-11.76 -60.002,-28.147 -77.604,-41.394 -10.055,-7.5677 -27.951,-24.8 -35.597,-34.277 -13.994,-17.346 -25.411,-37.787 -31.813,-56.962 -3.366,-10.081 -12.248,-54.047 -14.113,-69.859 -1.8847,-15.981 -0.54063,-43.729 3.0174,-62.291 1.6341,-8.525 3.9397,-20.649 5.1235,-26.943 4.4589,-23.703 8.4649,-33.046 45.262,-105.56 29.101,-57.347 34.662,-67.699 75.197,-139.98 14.182,-25.287 33.345,-59.784 42.585,-76.659 16.685,-30.472 27.882,-50.273 47.44,-83.889 12.971,-22.295 29.542,-52.232 36.953,-66.761 5.3775,-10.542 6.0772,-11.448 10.62,-13.75 2.6746,-1.3553 5.5176,-2.4642 6.3177,-2.4642 0.83665,0 2.853,3.0805 4.7456,7.25 8.0436,17.721 27.847,56.557 37.291,73.132 15.37,26.976 25.892,47.178 51.906,99.662 12.937,26.101 28.592,56.231 34.791,66.956 6.1982,10.725 25.134,46.95 42.08,80.5 23.657,46.837 31.155,62.571 32.294,67.765 1.0625,4.8459 4.8916,13.336 13.498,29.93 12.983,25.031 12.324,23.099 20.922,61.305 5.2733,23.434 7.3438,61.651 5.0926,94 -1.5516,22.296 -2.8338,30.524 -8.6489,55.5 -4.7485,20.395 -6.1884,24.998 -10.899,34.84 -13.007,27.173 -33.973,52.725 -62.582,76.272 -18.044,14.851 -25.584,19.751 -33.612,21.844 -3.7211,0.96999 -14.191,4.9108 -23.266,8.7574 -21.239,9.0026 -35.891,13.734 -49,15.824 -5.775,0.92074 -15.9,2.7835 -22.5,4.1394 -9.585,1.9692 -15.723,2.5336 -30.5,2.8048 -10.175,0.18674 -20.075,0.14642 -22,-0.0896 z"
     fill="#af8f88"
     id="path8"
     style="fill:#008080" />
  <path
     d="m 268.4654,815.9477 c -4.3925,-0.50308 -10.917,-1.5588 -14.5,-2.3461 -3.5825,-0.78724 -9.6637,-1.7275 -13.514,-2.0894 -14.723,-1.384 -35.265,-4.7123 -41.5,-6.7239 -19.845,-6.4023 -51.116,-20.493 -74,-33.345 -36.793,-20.663 -65.207,-49.587 -82.911,-84.397 -8.4887,-16.691 -11.563,-26.414 -17.079,-54.013 -6.6229,-33.138 -7.434,-39.69 -7.434,-60.054 0,-18.966 0.89184,-27.231 5.5034,-51 8.3889,-43.238 7.7844,-41.676 43.911,-113.42 31.12,-61.806 36.861,-72.49 86.017,-160.08 11.421,-20.35 28.397,-50.95 37.723,-68 15.74,-28.774 27.302,-49.194 49.262,-87 11.502,-19.802 28.627,-50.793 34.267,-62.015 4.9806,-9.9085 6.4896,-11.647 12.168,-14.02 4.824,-2.0156 5.1072,-1.7477 10.082,9.5345 5.8426,13.251 25.7,52.266 33.083,65 13.051,22.512 25.988,47.215 52.516,100.28 14.787,29.58 31.253,61.305 36.591,70.5 5.3382,9.195 24.02,45.068 41.514,79.718 23.922,47.38 32.159,64.612 33.22,69.5 0.99173,4.5659 4.9748,13.349 13.386,29.517 l 11.974,23.017 5.0674,21.983 c 6.4572,28.012 7.9107,37.916 9.2274,62.876 1.8038,34.192 -0.61502,66.008 -7.1925,94.607 -6.6605,28.96 -8.0092,33.378 -13.579,44.477 -13.505,26.915 -31.74,49.162 -59.319,72.372 -18.985,15.978 -27.818,21.906 -35.187,23.614 -3.5232,0.81709 -13.36,4.4581 -21.86,8.0912 -22.948,9.8091 -35.6,13.845 -52.948,16.891 -8.5219,1.4962 -19.547,3.5817 -24.5,4.6345 -10.613,2.2557 -37.811,3.2826 -49.992,1.8875 z m 46.265,-18.51 c 54.182,-5.6789 107.4,-27.657 140.22,-57.912 26.512,-24.437 45.83,-58.881 55.907,-99.681 5.9903,-24.254 7.4887,-38.184 7.5152,-69.864 0.0188,-22.534 -0.35567,-31.012 -1.7891,-40.5 -4.9291,-32.628 -12.174,-56.027 -28.33,-91.5 -10.165,-22.319 -60.381,-123.25 -85.822,-172.5 -41.044,-79.453 -113.97,-218.34 -115.42,-219.82 -1.4791,-1.5081 -99.369,170.9 -151.78,267.32 -32.122,59.097 -65.431,122.13 -74.777,141.5 -12.618,26.155 -20.039,51.573 -24.672,84.5 -0.82623,5.8727 -1.3294,18.855 -1.3178,34 0.0156,20.409 0.39708,26.95 2.2849,39.174 7.1548,46.329 20.077,76.453 45.194,105.36 20.08,23.107 55.113,46.7 90.5,60.948 21.826,8.7876 55.298,17.167 77.5,19.401 14.548,1.4639 48.922,1.24 64.778,-0.42188 z m -66.283,-13.527 c -27.691,-3.3523 -47.263,-8.6379 -72.281,-19.52 -59.093,-25.704 -96.996,-62.518 -113.66,-110.39 -9.8408,-28.272 -13.83,-52.801 -13.827,-85.018 0.003,-35.041 5.0754,-62.941 16.908,-93 5.1491,-13.081 22.479,-48.093 39.844,-80.5 6.4838,-12.1 16.967,-31.675 23.296,-43.5 19.018,-35.533 51.071,-93.936 76.012,-138.5 12.928,-23.1 34.283,-61.35 47.456,-85 24.513,-44.011 29.255,-51.78 31.915,-52.292 2.5972,-0.50018 9.4147,7.4084 15.146,17.569 3.0159,5.3473 12.125,22.547 20.243,38.222 8.118,15.675 26.91,51.9 41.761,80.5 47.737,91.932 101.99,200.88 120.75,242.51 13.135,29.138 21.555,64.756 22.809,96.485 1.2923,32.704 -1.1841,57.808 -8.5256,86.426 -8.0864,31.522 -20.02,54.924 -39.845,78.136 -26.341,30.842 -71.211,54.916 -121.84,65.373 -22.142,4.5729 -59.951,5.6674 -86.162,2.4943 z m 64.511,-48.395 c 21.244,-2.4913 38.145,-7.5258 55.994,-16.679 27.082,-13.888 49.429,-36.093 61.967,-61.575 20.334,-41.324 25.181,-94.709 13.064,-143.88 -6.0117,-24.395 -9.3784,-32.37 -46.815,-110.9 -5.5059,-11.55 -12.798,-26.85 -16.205,-34 -6.0167,-12.627 -72.584,-145.6 -87.229,-174.25 -4.0055,-7.8348 -7.5365,-14.247 -7.8466,-14.25 -0.31017,-0.003 -2.1508,2.8076 -4.0904,6.245 -1.9395,3.4375 -10.511,18.625 -19.048,33.75 -38.138,67.569 -127.58,238.03 -138.74,264.43 -13.365,31.597 -19.515,67.324 -17.104,99.365 1.1922,15.844 2.0746,21.227 6.1456,37.487 5.4619,21.815 13.299,37.684 27.061,54.792 24.112,29.977 61.842,51.779 100.22,57.914 15.676,2.5058 17.472,2.6313 40.627,2.8387 11.936,0.10691 24.355,-0.39394 32,-1.2905 z m -54.506,-26.042 c -23.445,-4.3249 -46.445,-14.126 -64.19,-27.353 -8.5056,-6.3402 -22.061,-19.991 -26.95,-27.139 -1.6927,-2.475 -4.6814,-7.65 -6.6416,-11.5 -10.826,-21.263 -15.611,-39.901 -16.433,-64 -1.1896,-34.894 8.9471,-65.346 31.314,-94.069 13.451,-17.274 27.109,-26.971 49.9,-35.428 37.83,-14.038 79.625,-14.584 110.77,-1.4464 36.872,15.551 66.319,48.758 75.433,85.067 2.5341,10.095 2.7294,12.349 2.7185,31.377 -0.0127,22.014 -1.2972,32.343 -6.0934,49 -6.318,21.941 -14.425,36.626 -28.333,51.321 -22.25,23.508 -50.6,39.054 -80.5,44.142 -10.761,1.8311 -31.156,1.8461 -41,0.0301 z"
     fill="#aa837b"
     id="path10" />
  <path
     d="m 272.9554,815.9877 c -4.675,-0.40912 -12.325,-1.4695 -17,-2.3564 -4.675,-0.88687 -17.95,-2.8105 -29.5,-4.2747 -18.486,-2.3435 -22.459,-3.1844 -33.189,-7.0254 -29.873,-10.693 -61.789,-26.244 -83.811,-40.835 -32.44,-21.495 -60.092,-54.594 -73.29,-87.728 -5.128,-12.874 -6.9766,-20.041 -12.844,-49.793 -4.429,-22.459 -4.6557,-24.456 -5.1179,-45.072 -0.55541,-24.775 -0.05286,-29.752 6.3044,-62.428 7.182,-36.916 7.5281,-37.784 43.741,-109.66 30.806,-61.143 35.111,-69.188 76.704,-143.34 16.35,-29.15 34.129,-61.1 39.509,-71 16.032,-29.501 28.821,-52.252 47.504,-84.5 19.132,-33.024 29.606,-51.777 40.927,-73.279 6.3358,-12.034 7.7437,-14.028 11.119,-15.75 6.7842,-3.461 6.7994,-3.447 14.823,13.779 9.6581,20.734 25.817,51.745 37.648,72.25 5.236,9.075 23.669,44.625 40.962,79 17.293,34.375 35.558,69.7 40.588,78.5 13.822,24.179 23.273,42.357 49.774,95.735 15.833,31.891 24.536,50.531 25.181,53.93 0.62308,3.2855 5.4436,13.85 13.116,28.744 l 12.131,23.549 5.3548,22.521 c 7.2359,30.432 9.3693,49.254 9.3535,82.521 -0.0159,33.566 -2.1406,52.234 -9.4523,83.051 -5.8008,24.449 -7.5569,29.31 -16.09,44.534 -15.161,27.049 -39.432,53.134 -71.583,76.932 -9.5092,7.0387 -12.71,8.8516 -17.5,9.9117 -3.2242,0.71357 -13.212,4.4029 -22.195,8.1985 -25.245,10.667 -34.807,13.664 -55.668,17.451 -10.45,1.8967 -22.15,4.0726 -26,4.8354 -8.8093,1.7454 -30.349,2.5757 -41.5,1.5998 z m 42.683,-17.549 c 40.5,-4.2531 78.698,-17.048 113.19,-37.916 29.001,-17.543 50.114,-41.176 66.152,-74.048 18.431,-37.775 25.904,-75.547 24.699,-124.84 -1.0567,-43.239 -8.1831,-73.927 -27.207,-117.16 -7.7186,-17.54 -58.538,-120.11 -85.219,-171.99 -40.211,-78.197 -117.93,-226.33 -119.81,-228.35 -1.4898,-1.6033 -1.1242,-2.1862 -26.242,41.838 -85.884,150.53 -140.81,250.13 -185.75,336.81 -22.759,43.903 -28.709,58.271 -35.07,84.688 -6.4273,26.689 -9.1285,64.217 -6.481,90.042 7.7427,75.527 34.591,121.37 93.045,158.89 11.387,7.308 33.342,18.458 47.178,23.96 20.117,7.9995 49.453,15.415 71.582,18.093 15.31,1.8532 52.19,1.8431 69.922,-0.019 z m -51.766,-13.854 c -0.22917,-0.21463 -6.0417,-0.91798 -12.917,-1.563 -23.286,-2.1847 -42.719,-6.9618 -65.973,-16.217 -63.186,-25.15 -103.96,-63.297 -121.86,-114.01 -12.369,-35.043 -16.694,-81.106 -11.204,-119.32 2.835,-19.732 7.9815,-39.961 14.247,-56 10.842,-27.754 67.003,-133.59 143.8,-271 17.215,-30.8 36.902,-66.125 43.751,-78.5 25.843,-46.697 27.865,-49.979 30.796,-49.991 4.6721,-0.01981 10.101,8.3679 28.437,43.935 7.5298,14.606 22.247,42.982 32.705,63.057 61.579,118.2 124.09,243.38 137.62,275.6 7.6522,18.214 13.966,40.624 17.863,63.4 2.0558,12.015 2.3098,16.744 2.3098,43 0,26.411 -0.24494,30.914 -2.339,43 -2.6666,15.391 -6.0159,29.463 -10.115,42.5 -11.136,35.414 -34.651,67.826 -65.133,89.778 -10.866,7.8251 -42.783,23.977 -56.412,28.548 -21.295,7.1417 -37.356,10.585 -59.08,12.666 -14.131,1.3537 -45.448,2.1065 -46.504,1.1178 z m 60.974,-49.527 c 33.059,-6.0793 62.015,-21.511 84.296,-44.924 14.839,-15.593 24.749,-32.771 32.111,-55.659 16.745,-52.062 13.387,-108.44 -9.5897,-161 -22.915,-52.422 -142.82,-295.5 -145.76,-295.5 -0.73295,0 -3.2302,4.2635 -21.965,37.5 -16.33,28.97 -34.031,61.499 -61.492,113 -32.618,61.173 -79.287,153.77 -83.781,166.23 -9.0249,25.018 -12.924,47.23 -13.037,74.275 -0.0861,20.467 1.1451,31.685 5.3774,49 7.0478,28.834 17.311,47.937 36.456,67.855 14.027,14.594 27.72,24.61 46,33.647 18.128,8.9621 29.049,12.65 45.531,15.374 17.744,2.9327 17.689,2.9297 47.469,2.6004 22.189,-0.24539 29.03,-0.67183 38.39,-2.3932 z m -67.89,-27.103 c -13.279,-2.3499 -28.473,-7.6233 -42.27,-14.671 -25.32,-12.933 -43.251,-30.407 -54.191,-52.81 -21.804,-44.649 -20.382,-95.88 3.7983,-136.78 12.846,-21.728 28.476,-37.134 47.163,-46.487 35.172,-17.604 80.103,-21.973 115,-11.182 27.864,8.6159 58.134,33.591 73.261,60.447 11.737,20.837 16.2,45.8 13.358,74.718 -4.8765,49.628 -22.576,80.451 -60.909,106.07 -28.522,19.063 -62.582,26.465 -95.21,20.691 z"
     fill="#9b675c"
     id="path12" />
  <path
     d="m 269.4554,815.0377 c -3.85,-0.44958 -10.6,-1.5166 -15,-2.3711 -4.4,-0.8545 -10.7,-1.828 -14,-2.1632 -18.881,-1.9182 -35.814,-4.8609 -43.934,-7.6351 -38.089,-13.013 -83.685,-36.962 -104.07,-54.66 -27.822,-24.159 -46.607,-50.275 -57.893,-80.486 -4.1475,-11.102 -12.775,-52.546 -15.142,-72.737 -2.6577,-22.67 -1.5009,-41.174 4.5375,-72.582 4.91,-25.539 6.0469,-30.382 9.4905,-40.424 4.7437,-13.834 7.8259,-20.377 35.093,-74.5 24.362,-48.356 43.617,-84.52 68.418,-128.5 20.753,-36.802 40.755,-72.763 56.734,-102 8.2662,-15.125 25.013,-44.802 37.215,-65.948 20.066,-34.774 37.138,-65.465 46.198,-83.052 2.7734,-5.3835 4.1216,-6.8794 7.8486,-8.7088 2.475,-1.2148 4.8022,-2.2273 5.1715,-2.25 0.3693,-0.0227 2.1452,3.2213 3.9463,7.2088 7.0714,15.655 29.23,59.031 37.42,73.25 13.388,23.243 26.273,47.981 51.307,98.5 12.673,25.575 28.103,55.275 34.289,66 6.186,10.725 25.334,47.4 42.552,81.5 24.008,47.549 31.637,63.548 32.733,68.64 1.0283,4.781 4.7898,13.085 13.436,29.664 l 12.008,23.024 5.0336,21.836 c 6.3961,27.747 7.8617,37.695 9.1734,62.267 1.194,22.368 0.0589,53.303 -2.6296,71.666 -0.87805,5.997 -3.85,20.579 -6.6043,32.404 -5.5046,23.633 -9.8315,34.401 -21.096,52.5 -13.781,22.144 -37.639,46.782 -65.062,67.191 -11.661,8.6785 -13.546,9.7184 -20.179,11.131 -2.75,0.58571 -12.875,4.4004 -22.5,8.4771 -23.873,10.112 -33.638,13.148 -53.5,16.636 -9.35,1.6421 -20.375,3.6975 -24.5,4.5676 -8.7279,1.8409 -36.19,2.7597 -46.5,1.5557 z m 43.151,-15.074 c 35.224,-3.6212 67.704,-12.678 95.849,-26.727 43.924,-21.925 69.949,-48.063 89.884,-90.274 9.0255,-19.11 14.596,-37.575 19.303,-63.984 2.65,-14.867 2.7636,-16.867 2.7814,-49 0.0179,-32.265 -0.0841,-34.08 -2.7681,-49.236 -4.9073,-27.71 -12.84,-52.381 -26.452,-82.264 -10.903,-23.936 -65.611,-133.39 -95.965,-192 -37.037,-71.511 -105.79,-202.2 -107.38,-204.12 -0.62018,-0.74728 -1.4889,-1.1354 -1.9305,-0.86244 -2.5449,1.5728 -110,191.8 -154.46,273.44 -33.557,61.617 -71.424,133.9 -77.56,148.04 -8.6924,20.041 -14.353,39.527 -19.027,65.502 -1.6811,9.3419 -2.2678,17.427 -2.6485,36.5 -0.53369,26.737 0.25802,37.97 4.164,59.082 6.4587,34.908 17.026,60.446 34.795,84.086 26.332,35.032 72.547,65.123 123.98,80.725 20.377,6.1813 33.085,8.6742 61.287,12.023 12.832,1.5238 36.009,1.1394 56.151,-0.9313 z m -62.651,-18.109 c -37.641,-3.8046 -81.725,-19.96 -115,-42.144 -24.186,-16.124 -44.127,-36.44 -57.354,-58.43 -21.386,-35.554 -31.345,-94.375 -24.623,-145.43 4.2948,-32.622 11.738,-55.369 30.224,-92.366 24.086,-48.206 89.5,-168.42 157.41,-289.28 6.4044,-11.398 16.571,-29.724 22.592,-40.724 13.264,-24.231 19.562,-34.5 21.159,-34.5 1.6408,0 6.7713,5.5562 10.118,10.957 2.821,4.5529 16.654,31.049 74.678,143.04 57.834,111.62 108.2,214.48 117.29,239.5 6.0528,16.67 10.802,35.211 13.704,53.5 3.0684,19.338 3.3214,60.859 0.48126,79 -8.6219,55.073 -25.028,89.995 -56.436,120.13 -5.5189,5.2947 -14.23,12.628 -19.358,16.296 -9.8264,7.0294 -32.763,19.155 -47.38,25.048 -17.269,6.9621 -44.609,13.681 -62.926,15.465 -12.654,1.2324 -52.149,1.1951 -64.576,-0.061 z m 63.789,-43.945 c 45.501,-5.0148 87.006,-29.356 110.76,-64.96 12.775,-19.144 22.505,-46.592 26.576,-74.97 1.988,-13.859 1.7369,-50.525 -0.44075,-64.349 -3.3523,-21.281 -9.5551,-42.145 -18.477,-62.151 -17.754,-39.811 -57.133,-121.23 -96.244,-199 -39.643,-78.825 -48.797,-96.5 -49.978,-96.5 -2.3148,0 -57.338,99.726 -98.21,178 -25.216,48.29 -59.553,115.23 -63.048,122.91 -17.632,38.743 -24.435,82.365 -18.808,120.59 5.7832,39.288 17.522,65.246 40.265,89.035 27.45,28.713 65.1,47.283 104.31,51.45 10.969,1.1656 52.543,1.1296 63.289,-0.0548 z m -49.185,-29.961 c -30.309,-3.455 -64.575,-20.333 -84.767,-41.753 -8.528,-9.0465 -14.043,-17.208 -19.336,-28.612 -8.0213,-17.284 -11.527,-30.607 -13.629,-51.798 -1.1058,-11.147 -1.0474,-14.332 0.47897,-26.148 4.0018,-30.98 12.366,-50.532 32.212,-75.299 15.294,-19.086 37.463,-31.507 69.279,-38.816 35.095,-8.0623 70.567,-4.462 96.156,9.7595 35.468,19.712 58.648,49.475 65.584,84.21 2.4008,12.023 2.4143,37.876 0.0274,52.488 -7.1622,43.845 -23.544,70.311 -57.723,93.258 -22.552,15.14 -43.36,22.056 -69.683,23.162 -5.8878,0.24721 -14.258,0.0445 -18.6,-0.45051 z"
     fill="#a84631"
     id="path14"
     style="fill:#00ffff" />
  <path
     d="m 271.9554,814.9877 c -5.225,-0.4262 -11.414,-1.2958 -13.754,-1.9324 -2.34,-0.6366 -11.34,-2.0262 -20,-3.0878 -35.497,-4.3516 -39.257,-5.3683 -72.746,-19.67 -53.55,-22.87 -87.764,-49.282 -112.47,-86.82 -14.558,-22.122 -20.156,-36.985 -27.067,-71.866 -6.3177,-31.885 -6.9667,-37.348 -6.9667,-58.634 0,-21.252 0.63042,-26.575 6.9312,-58.525 6.5191,-33.057 9.0337,-39.453 38.912,-98.975 32.543,-64.831 42.108,-82.616 94.635,-175.96 8.6544,-15.38 22.722,-40.805 31.261,-56.5 8.5391,-15.695 22.525,-40.686 31.079,-55.536 8.5542,-14.85 20.468,-35.55 26.475,-46 6.007,-10.45 15.833,-28.259 21.835,-39.575 9.6098,-18.117 11.333,-20.775 14.427,-22.25 1.9324,-0.92151 4.161,-1.6755 4.9525,-1.6755 0.86317,0 3.7218,4.9018 7.144,12.25 8.9364,19.189 27.438,55.185 34.575,67.267 10.462,17.712 19.843,35.677 49.078,93.983 15.168,30.25 31.702,62.2 36.742,71 13.736,23.983 23.173,42.123 49.768,95.67 15.255,30.715 24.579,50.636 25.274,54 0.66079,3.199 5.9933,14.925 13.338,29.33 9.733,19.089 12.675,25.842 14.379,33 11.123,46.727 11.695,51.372 11.695,95 0,43.843 -0.93628,51.167 -12.657,99 -3.6739,14.993 -17.758,40.04 -32.276,57.399 -13.342,15.953 -40.414,40.482 -57.234,51.859 -3.2566,2.2027 -8.2617,4.5096 -11.333,5.2234 -3.025,0.70307 -12.91,4.4016 -21.966,8.219 -24.458,10.309 -36.653,14.197 -54.034,17.224 -8.525,1.4847 -19.775,3.5408 -25,4.5691 -11.158,2.196 -31.582,3.1114 -45,2.0169 z m 52.5,-15.958 c 44.034,-6.3838 88.87,-23.855 119.14,-46.426 40.01,-29.834 67.15,-80.421 75.337,-140.42 1.9488,-14.282 2.8232,-41.979 1.9166,-60.709 -1.7588,-36.331 -9.6478,-68.341 -25.947,-105.28 -20.64,-46.782 -84.139,-171.86 -171.2,-337.22 -35.818,-68.031 -35.801,-68 -37.157,-68 -0.67875,0 -3.6237,4.1625 -6.5443,9.25 -90.817,158.2 -155.24,274.55 -205.27,370.71 -21.872,42.044 -26.147,51.754 -32.686,74.237 -7.2414,24.899 -10.166,46.827 -10.228,76.681 -0.06016,29.163 2.8696,51.589 10.107,77.362 8.8693,31.586 24.045,56.997 47.654,79.796 37.987,36.684 93.663,62.396 152.37,70.368 6.325,0.85892 12.85,1.7534 14.5,1.9877 1.65,0.2343 14.25,0.29338 28,0.13128 19.161,-0.22589 28.503,-0.8026 40,-2.4694 z m -72.5,-17.191 c -47.031,-4.8278 -97.723,-25.626 -134.5,-55.184 -36.24,-29.127 -57.758,-70.814 -64.613,-125.18 -1.8916,-15.002 -1.6156,-52.27 0.50182,-67.76 2.455,-17.959 8.378,-40.921 14.636,-56.743 10.645,-26.913 67.865,-134.85 137.83,-260 14.605,-26.125 37.151,-66.518 50.101,-89.762 12.95,-23.244 24.728,-43.719 26.172,-45.5 l 2.6258,-3.2384 3.5367,3.7284 c 3.9296,4.1427 9.7526,14.081 20.958,35.772 4.1201,7.975 13.82,26.65 21.556,41.5 71.183,136.65 117.75,229.21 145.32,288.81 18.405,39.802 26.258,74.89 26.34,117.69 0.13825,72.625 -22.809,130.15 -66.394,166.44 -16.29,13.562 -38.509,26.137 -61.82,34.989 -17.719,6.7284 -44.033,12.834 -62.743,14.559 -12.947,1.1937 -47.369,1.1228 -59.5,-0.12245 z m 64.212,-12.837 c 41.185,-5.3213 82.675,-22.102 110.95,-44.871 43.93,-35.381 68.196,-103.16 62.957,-175.85 -2.5035,-34.733 -11.703,-66.771 -31.098,-108.31 -9.37,-20.065 -73.998,-149.29 -97.272,-194.5 -29.999,-58.272 -72.718,-138.68 -74.908,-141 -1.1767,-1.246 -2.2467,0.1507 -12.537,16.364 -10.415,16.411 -100.6,178.55 -135.52,243.64 -47.722,88.957 -60.149,114.96 -66.69,139.54 -6.5208,24.506 -7.5605,33.52 -7.5509,65.46 0.0082,27.316 0.1681,29.865 2.7531,43.896 7.5448,40.952 19.958,66.376 44.708,91.569 15.999,16.285 33.031,28.145 57.5,40.038 8.8,4.2773 20.275,9.3644 25.5,11.305 13.283,4.9325 34.321,10.163 48.5,12.057 6.6,0.88169 13.125,1.7741 14.5,1.9832 1.375,0.2091 11.595,0.44138 22.712,0.51628 14.972,0.10087 24.175,-0.37594 35.5,-1.8391 z m -66.378,-17.103 c -58.073,-6.153 -115.41,-44.21 -139.77,-92.776 -14.364,-28.633 -22.033,-69.931 -19.188,-103.32 2.2204,-26.057 6.3751,-45.86 13.793,-65.746 9.911,-26.568 57.347,-117.8 162.79,-313.08 9.357,-17.33 15.445,-27 16.997,-27 0.67658,0 4.0406,3.7125 7.4756,8.25 5.1338,6.7815 15.468,26.761 58.061,112.25 74.537,149.61 97.971,199.44 105.96,225.33 7.476,24.237 10.324,44.442 10.244,72.668 -0.0923,32.394 -4.4506,55.439 -15.947,84.316 -22.16,55.664 -75.823,93.455 -140.74,99.117 -13.741,1.1983 -48.312,1.1918 -59.666,-0.0112 z m 78.666,-15.872 c 30.448,-6.6104 55.901,-19.912 77.083,-40.284 16.277,-15.655 26.982,-32.275 34.932,-54.236 18.581,-51.33 16.846,-110.41 -4.7729,-162.53 -3.723,-8.9757 -27.231,-59.232 -47.712,-102 -17.782,-37.133 -99.102,-198.81 -100.64,-200.09 -0.71806,-0.59594 -1.7611,-0.80196 -2.318,-0.45782 -2.037,1.259 -38.873,67.136 -68.802,123.05 -30.203,56.422 -86.466,165.41 -92.924,180 -7.7394,17.489 -13.515,36.465 -17.043,56 -1.4235,7.8809 -1.8037,15.192 -1.7941,34.5 0.0113,22.788 0.20655,25.466 2.7944,38.328 6.8956,34.273 17.974,56.499 39.119,78.482 5.5411,5.7607 14.384,13.742 19.65,17.736 22.108,16.768 51.068,29.205 75.424,32.393 4.4,0.57593 9.35,1.2323 11,1.4586 1.65,0.2263 17.175,0.27881 34.5,0.11667 27.891,-0.26101 32.646,-0.54353 41.5,-2.4658 z m -60.05,-28.097 c -12.427,-0.99921 -18.918,-2.4658 -33.279,-7.5198 -34.911,-12.286 -59.327,-32.541 -73.452,-60.933 -9.7775,-19.654 -13.587,-35.305 -14.361,-59 -0.88218,-27.007 2.7678,-44.966 13.617,-67 9.8129,-19.929 24.879,-38.222 39.838,-48.369 23.551,-15.975 64.645,-25.876 96.187,-23.176 30.562,2.6164 55.699,14.157 78.316,35.957 19.813,19.096 31.365,39.959 35.211,63.588 2.0811,12.785 1.8743,35.24 -0.46965,51 -6.2758,42.198 -22.837,69.026 -57.057,92.43 -25.454,17.408 -54.843,25.411 -84.55,23.022 z m 28.624,-13.543 c 33.904,-5.7201 67.586,-28.247 84.936,-56.805 12.498,-20.572 20.005,-57.486 17.265,-84.899 -2.5167,-25.182 -11.435,-43.68 -30.274,-62.795 -24.566,-24.926 -48.457,-34.911 -83.532,-34.911 -30.625,0 -62.398,9.173 -81.249,23.457 -19.006,14.401 -35.606,41.702 -41.375,68.043 -4.4093,20.134 -4.1968,41.64 0.60078,60.791 8.3746,33.429 27.826,57.913 58.474,73.602 14.989,7.6729 27.377,11.477 47.081,14.457 6.291,0.95148 19.481,0.5099 28.074,-0.93988 z"
     fill="#8a3624"
     id="path16"
     style="fill:#000080" />
  <path
     d="m 269.9554,813.9677 c -4.675,-0.48633 -10.494,-1.3842 -12.932,-1.9952 -2.4376,-0.61103 -11.888,-1.9913 -21,-3.0672 -28.756,-3.3954 -32.834,-4.3711 -55.068,-13.175 -63.22,-25.033 -100.6,-52.268 -127.29,-92.748 -13.002,-19.72 -20.489,-38.46 -25.286,-63.294 -1.4032,-7.2634 -3.3975,-17.256 -4.4318,-22.206 -4.9524,-23.701 -6.0024,-48.69 -2.9834,-71 1.7126,-12.656 9.6761,-52.299 12.053,-60 3.8284,-12.405 8.5384,-22.612 32.411,-70.237 33.289,-66.411 40.033,-78.95 97.227,-180.76 9.887,-17.6 20.147,-36.05 22.8,-41 11.759,-21.939 27.236,-49.546 45.969,-82 23.586,-40.861 32.462,-56.722 42.623,-76.169 6.7962,-13.006 7.7511,-14.338 11.637,-16.229 l 4.233,-2.0602 5.6963,12.229 c 8.8586,19.018 27.689,55.609 34.729,67.486 9.9536,16.792 19.19,34.5 49.42,94.743 15.455,30.8 30.201,59.6 32.769,64 20.443,35.032 77.631,148.56 78.838,156.5 0.42778,2.8159 5.3017,13.482 13.024,28.5 l 12.34,24 5.0382,21.5 c 6.3655,27.164 8.0613,38.95 9.0834,63.13 0.77332,18.294 0.0553,49.758 -1.4118,61.87 -2.3327,19.258 -11.561,59.578 -15.86,69.3 -4.6145,10.434 -13.783,25.817 -21.503,36.075 -19.839,26.363 -60.683,61.832 -75.066,65.187 -3.1746,0.74057 -12.925,4.3336 -21.667,7.9844 -21.863,9.1305 -36.186,13.945 -47.395,15.932 -5.225,0.92631 -16.308,2.9845 -24.628,4.5738 -16.969,3.2411 -38.849,4.4433 -53.372,2.9326 z m 39.5,-11.948 c 50.325,-5.262 93.175,-20.117 130,-45.069 17.903,-12.131 35.018,-30.126 48.001,-50.469 4.5506,-7.1306 14.191,-26.369 17.79,-35.5 7.1938,-18.255 13.666,-45.515 15.788,-66.5 1.5626,-15.451 1.5574,-54.697 -0.009,-69.5 -3.2182,-30.409 -11.789,-60.003 -27.366,-94.5 -19.183,-42.48 -81.736,-166.11 -144.96,-286.5 -52.576,-100.11 -59.927,-113.86 -61.157,-114.33 -0.69716,-0.26753 -1.7225,-0.19055 -2.2786,0.17107 -1.7354,1.1286 -67.029,115.54 -110.52,193.66 -35.861,64.416 -53.619,97.023 -85.775,157.5 -17.319,32.573 -36.12,70.113 -39.933,79.736 -14.4,36.342 -20.683,77.737 -18.101,119.26 1.2703,20.431 1.998,25.724 6.0863,44.267 7.1041,32.222 18.361,56.737 36.383,79.233 30.051,37.51 84.876,69.313 142.05,82.399 9.2492,2.117 30.892,5.7648 38,6.4047 8.145,0.73325 48.266,0.54265 56,-0.26603 z m -55.5,-21.168 c -12.43,-1.2646 -35.159,-5.5275 -45.5,-8.5339 -12.727,-3.7 -33.047,-12.014 -48.119,-19.688 -48.822,-24.859 -79.96,-58.443 -95.172,-102.65 -8.7126,-25.319 -12.506,-49.725 -12.512,-80.5 -0.0084,-45.893 7.9979,-78.016 30.756,-123.4 24.475,-48.806 87.139,-164.08 152.54,-280.6 13.583,-24.2 26.866,-48.05 29.518,-53 6.6571,-12.426 15.057,-26.746 17.349,-29.576 1.7146,-2.1174 2.0937,-2.2089 3.6967,-0.89182 3.4564,2.8398 10.351,14.757 25.437,43.968 8.3795,16.225 17.163,33.1 19.518,37.5 14.842,27.724 69.833,135.19 94.666,185 42.925,86.099 54.963,111.94 61.757,132.55 17.975,54.536 18.295,113.03 0.9255,169.31 -11.946,38.711 -36.974,71.812 -71.127,94.073 -9.9953,6.515 -33.159,17.949 -45.734,22.574 -9.4021,3.4585 -30.131,9.0199 -42.5,11.402 -17.444,3.36 -54.715,4.5743 -75.5,2.4597 z m 48.5,-8.8709 c 19.888,-1.2731 27.131,-2.4403 44.224,-7.127 26.076,-7.1497 50.364,-17.815 69.776,-30.64 13.778,-9.1026 32.812,-28.189 41.892,-42.009 28.737,-43.736 40.489,-106 31.092,-164.72 -4.0019,-25.008 -9.7943,-44.393 -21.514,-72 -6.7025,-15.789 -69.527,-142.44 -101.44,-204.5 -42.762,-83.153 -77.782,-148.38 -79.9,-148.81 -4.2116,-0.86684 -16.44,20.147 -107.89,185.41 -36.415,65.805 -80.318,148.57 -93.799,176.83 -22.67,47.52 -28.832,103.54 -17.466,158.76 7.1746,34.861 20.481,59.941 44.469,83.813 18.139,18.051 34.948,29.539 61.079,41.743 42.186,19.703 79.708,26.442 129.48,23.255 z m -53.897,-22.161 c -28.541,-3.2569 -55.505,-13.399 -81.743,-30.745 -35.011,-23.146 -57.546,-54.699 -67.828,-94.971 -4.6405,-18.175 -6.3944,-32.762 -6.4474,-53.621 -0.08665,-34.079 6.0257,-63.429 19.526,-93.756 12.484,-28.046 63.928,-126.53 128.88,-246.74 7.5784,-14.025 17.7,-32.925 22.491,-42 8.9511,-16.952 16.268,-29.725 19.378,-33.83 l 1.7653,-2.3296 3.7338,4.5566 c 6.7459,8.2324 11.282,16.828 52.452,99.392 92.307,185.12 109.77,223.12 117.55,255.77 14.03,58.918 4.5857,124.78 -24.063,167.81 -26.724,40.143 -71.462,65.651 -123.8,70.586 -13.04,1.2296 -50.697,1.1542 -61.897,-0.12391 z m 55.568,-9.892 c 25.89,-1.7815 43.347,-6.2573 63.96,-16.399 30.529,-15.02 54.709,-39.171 67.656,-67.576 7.6417,-16.765 12.059,-31.398 15.84,-52.471 3.6298,-20.231 3.838,-49.87 0.49154,-70 -3.6342,-21.861 -9.3686,-41.626 -17.408,-60 -23.475,-53.652 -141.22,-292.32 -147.22,-298.41 -2.5354,-2.5742 -1.4532,-4.2268 -27.774,42.414 -41.502,73.543 -130.84,244.63 -141.13,270.27 -5.0349,12.545 -10.967,33.087 -12.607,43.655 -0.59066,3.8064 -1.2715,7.2404 -1.5131,7.6312 -0.24152,0.39079 -0.86101,7.4015 -1.3766,15.579 -0.95428,15.135 -0.0392,39.249 1.8044,47.549 0.52767,2.3757 1.7209,8.1444 2.6517,12.819 10.292,51.694 46.139,92.447 100.53,114.29 24.339,9.7739 56.722,13.365 96.091,10.656 z m -48.689,-34.921 c -28.078,-5.6276 -57.953,-21.728 -75.421,-40.647 -21.43,-23.209 -33.12,-57.928 -31.778,-94.376 1.2299,-33.401 11.02,-58.574 33.489,-86.106 14.829,-18.17 37.978,-30.558 70.229,-37.582 15.659,-3.4101 43.261,-4.3216 56.387,-1.862 45.079,8.447 83.491,40.83 97.08,81.844 10.531,31.783 5.8075,80.247 -10.97,112.56 -5.8111,11.192 -12.464,19.945 -22.192,29.195 -20.731,19.713 -47.289,33.319 -73.305,37.557 -11.826,1.9262 -32.37,1.6505 -43.519,-0.58407 z m 54.019,-11.454 c 19.167,-5.7115 39.514,-17.35 54.152,-30.974 18.98,-17.665 28.081,-35.022 34.922,-66.596 2.3411,-10.805 2.717,-14.873 2.7725,-30 0.0542,-14.785 -0.27347,-18.851 -2.1126,-26.207 -5.3042,-21.217 -13.887,-36.341 -29.631,-52.214 -15.122,-15.245 -33.111,-25.792 -53.103,-31.133 -13.589,-3.6306 -36.827,-4.5045 -52.873,-1.9883 -18.611,2.9183 -32.824,7.1765 -46.127,13.819 -19.699,9.8367 -36.095,27.854 -47.667,52.383 -23.263,49.311 -11.41,113.72 26.778,145.5 13.42,11.17 28.191,19.467 44.185,24.82 14.592,4.8835 22.689,5.9568 42.203,5.5944 15.511,-0.28806 18.523,-0.62983 26.5,-3.0068 z"
     fill="#7b2a19"
     id="path18"
     style="fill:#0000ff;stroke:#0000ff" />
</svg>
