<?xml version="1.0" encoding="UTF-8" standalone="no"?>
<!-- Created with Inkscape (http://www.inkscape.org/) -->

<svg
   width="21.934185mm"
   height="32.6633mm"
   viewBox="0 0 21.934184 32.663299"
   version="1.1"
   id="svg2269"
   inkscape:version="1.1.2 (0a00cf5339, 2022-02-04)"
   sodipodi:docname="item384.svg"
   xmlns:inkscape="http://www.inkscape.org/namespaces/inkscape"
   xmlns:sodipodi="http://sodipodi.sourceforge.net/DTD/sodipodi-0.dtd"
   xmlns="http://www.w3.org/2000/svg"
   xmlns:svg="http://www.w3.org/2000/svg">
  <sodipodi:namedview
     id="namedview2271"
     pagecolor="#ffffff"
     bordercolor="#666666"
     borderopacity="1.0"
     inkscape:pageshadow="2"
     inkscape:pageopacity="0.0"
     inkscape:pagecheckerboard="0"
     inkscape:document-units="mm"
     showgrid="false"
     fit-margin-top="0"
     fit-margin-left="0"
     fit-margin-right="0"
     fit-margin-bottom="0"
     inkscape:zoom="0.48996914"
     inkscape:cx="41.83937"
     inkscape:cy="61.228346"
     inkscape:window-width="1366"
     inkscape:window-height="719"
     inkscape:window-x="0"
     inkscape:window-y="25"
     inkscape:window-maximized="1"
     inkscape:current-layer="layer1" />
  <defs
     id="defs2266" />
  <g
     inkscape:label="Capa 1"
     inkscape:groupmode="layer"
     id="layer1"
     transform="translate(-90.269194,-132.86877)">
    <g
       id="g7394"
       transform="matrix(0.04642234,0,0,0.04642234,156.87616,-8.6829563)">
      <rect
         transform="matrix(0.54288883,0.83980457,-0.54288883,0.83980457,0,0)"
         y="2914.302"
         x="722.81226"
         height="412.66312"
         width="412.66312"
         id="rect5161"
         style="opacity:1;fill:#ffcc00;fill-opacity:1;stroke:none;stroke-width:4;stroke-miterlimit:4;stroke-dasharray:none;stroke-opacity:1" />
      <path
         inkscape:connector-curvature="0"
         style="opacity:1;fill:#ffdd55;fill-opacity:1;stroke:none;stroke-width:4;stroke-miterlimit:4;stroke-dasharray:none;stroke-opacity:1"
         d="m -1189.7354,3054.4648 v 122.3722 l 144.9235,224.1844 h 79.10644 z"
         id="path5163" />
      <path
         inkscape:connector-curvature="0"
         style="opacity:1;fill:#ffd42a;fill-opacity:1;stroke:none;stroke-width:4;stroke-miterlimit:4;stroke-dasharray:none;stroke-opacity:1"
         d="m -1189.7354,3054.4648 -224.0299,346.5566 h 79.1064 l 144.9235,-224.1844 z"
         id="path5165" />
      <rect
         transform="matrix(0.54288883,0.83980457,-0.54288883,0.83980457,0,0)"
         y="2987.1594"
         x="795.66962"
         height="266.94894"
         width="266.94894"
         id="rect5167"
         style="opacity:1;fill:#ffe680;fill-opacity:1;stroke:none;stroke-width:4;stroke-miterlimit:4;stroke-dasharray:none;stroke-opacity:1" />
      <path
         style="opacity:1;fill:#ffcc00;fill-opacity:1;stroke:none;stroke-width:4;stroke-miterlimit:4;stroke-dasharray:none;stroke-opacity:1"
         d="m -1189.7352,3625.2064 v 122.3721 l 224.02991,-346.5565 h -79.10641 z"
         id="path5169"
         inkscape:connector-curvature="0" />
      <path
         inkscape:connector-curvature="0"
         style="opacity:1;fill:#d4aa00;fill-opacity:1;stroke:none;stroke-width:4;stroke-miterlimit:4;stroke-dasharray:none;stroke-opacity:1"
         d="m -1334.6589,3401.0214 h -79.1064 l 224.0299,346.5566 v -122.3722 z"
         id="path5171" />
      <path
         inkscape:connector-curvature="0"
         style="opacity:0.715;fill:#fff6d5;fill-opacity:1;stroke:none;stroke-width:4;stroke-miterlimit:4;stroke-dasharray:none;stroke-opacity:1"
         d="m -1133.7768,3263.3997 a 191.5555,232.06023 53.992136 0 1 1.0878,60.7302 19.228811,19.228811 0 0 0 -8.2747,-1.8978 19.228811,19.228811 0 0 0 -19.229,19.229 19.228811,19.228811 0 0 0 10.7902,17.2525 11.116656,13.520257 0 0 0 -8.3864,13.0937 11.116656,13.520257 0 0 0 7.228,12.6485 191.5555,232.06023 53.992136 0 1 -48.0422,70.5426 27.641416,25.838714 0 0 0 -21.1926,-11.306 14.421608,12.318458 0 0 0 -14.3079,-10.8937 14.421608,12.318458 0 0 0 -14.4214,12.3182 14.421608,12.318458 0 0 0 4.7436,9.1126 27.641416,25.838714 0 0 0 -5.345,15.2232 27.641416,25.838714 0 0 0 10.7639,20.4235 191.5555,232.06023 53.992136 0 1 -9.5743,6.6036 191.5555,232.06023 53.992136 0 1 -18.0361,10.7934 l 76.2375,117.9326 144.9235,-224.1844 z m -91.2554,20.8754 a 32.885036,35.317047 23.021748 0 0 -16.1811,4.0503 32.885036,35.317047 23.021748 0 0 -16.1499,47.242 32.885036,35.317047 23.021748 0 0 44.1908,14.5627 32.885036,35.317047 23.021748 0 0 16.1499,-47.2421 32.885036,35.317047 23.021748 0 0 -28.0097,-18.6129 z"
         id="path5173" />
      <path
         inkscape:connector-curvature="0"
         style="opacity:1;fill:none;fill-opacity:1;stroke:#2b2200;stroke-width:5.69948;stroke-miterlimit:4;stroke-dasharray:none;stroke-opacity:1"
         d="m -1189.7354,3054.4648 -224.0299,346.5566 224.0299,346.5566 224.02994,-346.5566 z m 0,122.3722 144.9235,224.1844 -144.9235,224.1844 -144.9235,-224.1844 z"
         id="path5175" />
      <ellipse
         style="opacity:1;fill:#d7f4d7;fill-opacity:1;stroke:none;stroke-width:4;stroke-miterlimit:4;stroke-dasharray:none;stroke-opacity:1"
         id="ellipse5177"
         cx="-1434.2032"
         cy="3333.0486"
         rx="0.60090035"
         ry="1.2018007" />
      <path
         inkscape:connector-curvature="0"
         style="opacity:0.615;fill:#fff6d5;fill-opacity:1;stroke:none;stroke-width:4;stroke-miterlimit:4;stroke-dasharray:none;stroke-opacity:1"
         d="m -1189.7354,3091.2732 -200.2364,309.7482 200.2364,309.7482 200.2364,-309.7482 z m 0,39.0628 174.9839,270.6854 -174.9839,270.6854 -174.9838,-270.6854 z"
         id="path5179" />
    </g>
  </g>
</svg>
