<?xml version="1.0" encoding="UTF-8"?>
<!DOCTYPE svg PUBLIC "-//W3C//DTD SVG 1.1//EN" "http://www.w3.org/Graphics/SVG/1.1/DTD/svg11.dtd">
<svg version="1.1" xmlns="http://www.w3.org/2000/svg" xmlns:xlink="http://www.w3.org/1999/xlink" x="0" y="0" width="550" height="455" viewBox="0, 0, 550, 455">
  <g id="Layer_1">
    <path d="M218.313,210.104 C228.415,231.214 212.884,259.659 183.665,273.612 C154.438,287.573 122.571,281.8 112.485,260.675 L43.681,136.565 C33.587,115.464 52.563,85.386 86.079,69.37 C119.579,53.378 154.915,57.511 165.009,78.612 L218.313,210.104" fill="#E6BD3A"/>
    <path d="M218.313,210.104 C228.415,231.214 212.884,259.659 183.665,273.612 C154.438,287.573 122.571,281.8 112.485,260.675 L43.681,136.565 C33.587,115.464 52.563,85.386 86.079,69.37 C119.579,53.378 154.915,57.511 165.009,78.612 L218.313,210.104 z" fill-opacity="0" stroke="#362318" stroke-width="5" stroke-linecap="round" stroke-linejoin="round"/>
    <path d="M128.454,76.503 C131.704,83.308 120.165,95.644 102.634,104.011 C85.126,112.386 68.267,113.612 65.017,106.8 C61.751,99.995 73.313,87.667 90.829,79.315 C108.345,70.917 125.181,69.667 128.454,76.503" fill="#00A04A"/>
    <path d="M74.813,15.354 C65.173,31.136 59.485,58.331 87.063,98.3 C90.751,103.651 98.056,104.995 103.392,101.331 C108.728,97.628 110.071,90.323 106.392,84.972 C95.11,68.644 83.97,45.409 94.829,27.573 C98.22,22.042 96.47,14.847 90.946,11.464 C85.407,8.066 78.181,9.839 74.813,15.354" fill="#63B445"/>
    <path d="M74.813,15.354 C65.173,31.136 59.485,58.331 87.063,98.3 C90.751,103.651 98.056,104.995 103.392,101.331 C108.728,97.628 110.071,90.323 106.392,84.972 C95.11,68.644 83.97,45.409 94.829,27.573 C98.22,22.042 96.47,14.847 90.946,11.464 C85.407,8.066 78.181,9.839 74.813,15.354 z" fill-opacity="0" stroke="#362318" stroke-width="5" stroke-linecap="round" stroke-linejoin="round"/>
    <path d="M160.845,298.245 L160.845,298.245 C181.235,285.237 200.188,270.159 149.868,164.511 C110.173,81.167 63.696,91.737 39.165,107.37 C14.634,123.011 -14.562,160.667 44.243,231.847 C118.759,322.05 140.446,311.229 160.845,298.245" fill="#E6BD3A"/>
    <path d="M160.845,298.245 L160.845,298.245 C181.235,285.237 200.188,270.159 149.868,164.511 C110.173,81.167 63.696,91.737 39.165,107.37 C14.634,123.011 -14.562,160.667 44.243,231.847 C118.759,322.05 140.446,311.229 160.845,298.245 z" fill-opacity="0" stroke="#362318" stroke-width="5" stroke-linecap="round" stroke-linejoin="round"/>
    <path d="M217.173,271.323 L217.173,271.323 C194.251,279.026 170.595,284.292 120.024,178.769 C80.149,95.519 117.556,66.011 145.134,56.737 C172.704,47.479 220.36,48.44 238.782,138.901 C262.142,253.565 240.087,263.62 217.173,271.323" fill="#E6BD3A"/>
    <path d="M217.173,271.323 L217.173,271.323 C194.251,279.026 170.595,284.292 120.024,178.769 C80.149,95.519 117.556,66.011 145.134,56.737 C172.704,47.479 220.36,48.44 238.782,138.901 C262.142,253.565 240.087,263.62 217.173,271.323 z" fill-opacity="0" stroke="#362318" stroke-width="5" stroke-linecap="round" stroke-linejoin="round"/>
    <path d="M195.571,298.542 L195.571,298.542 C217.399,288.128 238.063,275.44 200.931,164.479 C171.657,76.901 124.235,81.761 97.993,94.3 C71.751,106.847 38.196,140.683 87.915,218.479 C150.915,317.073 173.767,308.964 195.571,298.542" fill="#F7CD37"/>
    <path d="M195.571,298.542 L195.571,298.542 C217.399,288.128 238.063,275.44 200.931,164.479 C171.657,76.901 124.235,81.761 97.993,94.3 C71.751,106.847 38.196,140.683 87.915,218.479 C150.915,317.073 173.767,308.964 195.571,298.542 z" fill-opacity="0" stroke="#362318" stroke-width="5" stroke-linecap="round" stroke-linejoin="round"/>
    <path d="M167.142,71.964 C167.259,76.292 170.853,79.683 175.181,79.589 C180.024,79.456 201.431,89.573 211.313,121.409 C212.595,125.519 216.978,127.862 221.103,126.565 C225.243,125.292 227.548,120.909 226.267,116.792 C213.774,76.526 185.649,63.651 174.751,63.925 C170.415,64.058 167.017,67.659 167.142,71.964" fill="#F7CD37"/>
    <path d="M231.743,137.308 C233.603,141.183 231.962,145.854 228.04,147.714 C224.149,149.581 219.501,147.94 217.626,144.042 C215.767,140.12 217.399,135.479 221.298,133.604 C225.212,131.729 229.868,133.386 231.743,137.308" fill="#F7CD37"/>
    <path d="M445.017,339.776 C436.548,361.581 405.204,369.761 375.017,358.05 C344.821,346.308 327.212,319.12 335.681,297.323 L378.954,162.183 C387.407,140.386 422.337,133.589 456.946,147.034 C491.548,160.464 512.751,189.042 504.282,210.839 L445.017,339.776" fill="#CB5533"/>
    <path d="M445.017,339.776 C436.548,361.581 405.204,369.761 375.017,358.05 C344.821,346.308 327.212,319.12 335.681,297.323 L378.954,162.183 C387.407,140.386 422.337,133.589 456.946,147.034 C491.548,160.464 512.751,189.042 504.282,210.839 L445.017,339.776 z" fill-opacity="0" stroke="#362318" stroke-width="5" stroke-linecap="round" stroke-linejoin="round"/>
    <path d="M480.79,182.776 C478.04,189.815 461.157,189.854 443.063,182.815 C424.954,175.784 412.509,164.378 415.243,157.323 C417.985,150.276 434.876,150.253 452.962,157.284 C471.071,164.315 483.524,175.729 480.79,182.776" fill="#00A04A"/>
    <path d="M488.579,101.815 C470.485,105.604 446.782,120.089 436.54,167.589 C435.181,173.917 439.204,180.151 445.532,181.534 C451.884,182.886 458.118,178.87 459.485,172.519 C463.665,153.097 472.946,129.081 493.384,124.784 C499.735,123.448 503.798,117.237 502.454,110.901 C501.126,104.542 494.907,100.487 488.579,101.815" fill="#63B445"/>
    <path d="M488.579,101.815 C470.485,105.604 446.782,120.089 436.54,167.589 C435.181,173.917 439.204,180.151 445.532,181.534 C451.884,182.886 458.118,178.87 459.485,172.519 C463.665,153.097 472.946,129.081 493.384,124.784 C499.735,123.448 503.798,117.237 502.454,110.901 C501.126,104.542 494.907,100.487 488.579,101.815 z" fill-opacity="0" stroke="#362318" stroke-width="5" stroke-linecap="round" stroke-linejoin="round"/>
    <path d="M341.431,358.284 L341.431,358.284 C364.868,364.237 388.853,367.706 431.345,258.675 C464.86,172.659 425.306,146.042 397.126,138.886 C368.931,131.722 321.493,136.269 309.915,227.862 C295.259,343.948 318.001,352.347 341.431,358.284" fill="#CB5533"/>
    <path d="M341.431,358.284 L341.431,358.284 C364.868,364.237 388.853,367.706 431.345,258.675 C464.86,172.659 425.306,146.042 397.126,138.886 C368.931,131.722 321.493,136.269 309.915,227.862 C295.259,343.948 318.001,352.347 341.431,358.284 z" fill-opacity="0" stroke="#362318" stroke-width="5" stroke-linecap="round" stroke-linejoin="round"/>
    <path d="M399.634,380.886 L399.634,380.886 C378.313,369.456 358.274,355.831 400.501,246.698 C433.821,160.62 480.962,167.659 506.61,181.409 C532.235,195.128 564.188,230.511 510.915,305.901 C443.384,401.456 420.946,392.308 399.634,380.886" fill="#CB5533"/>
    <path d="M399.634,380.886 L399.634,380.886 C378.313,369.456 358.274,355.831 400.501,246.698 C433.821,160.62 480.962,167.659 506.61,181.409 C532.235,195.128 564.188,230.511 510.915,305.901 C443.384,401.456 420.946,392.308 399.634,380.886 z" fill-opacity="0" stroke="#362318" stroke-width="5" stroke-linecap="round" stroke-linejoin="round"/>
    <path d="M365.017,383.8 L365.017,383.8 C387.563,392.55 410.946,398.909 466.345,295.854 C510.087,214.542 474.071,183.323 446.946,172.784 C419.837,162.269 372.196,161.011 349.579,250.511 C320.915,363.948 342.47,375.042 365.017,383.8" fill="#DE6035"/>
    <path d="M365.017,383.8 L365.017,383.8 C387.563,392.55 410.946,398.909 466.345,295.854 C510.087,214.542 474.071,183.323 446.946,172.784 C419.837,162.269 372.196,161.011 349.579,250.511 C320.915,363.948 342.47,375.042 365.017,383.8 z" fill-opacity="0" stroke="#362318" stroke-width="5" stroke-linecap="round" stroke-linejoin="round"/>
    <path d="M510.571,207.862 C507.524,210.901 507.509,215.862 510.54,218.925 C513.978,222.37 521.259,244.894 504.837,273.909 C502.704,277.667 504.017,282.448 507.782,284.573 C511.548,286.722 516.321,285.37 518.446,281.636 C539.212,244.94 529.329,215.644 521.657,207.894 C518.603,204.823 513.642,204.823 510.571,207.862" fill="#DE6035"/>
    <path d="M507.251,299.683 C505.688,303.69 501.165,305.683 497.134,304.136 C493.103,302.573 491.103,298.042 492.673,293.995 C494.235,289.972 498.759,287.972 502.79,289.55 C506.829,291.112 508.813,295.636 507.251,299.683" fill="#DE6035"/>
    <path d="M327.767,367.995 C327.767,393.87 298.704,414.862 262.884,414.862 C227.048,414.862 198.001,393.87 198.001,367.995 L188.501,211.292 C188.501,185.409 221.79,164.425 262.884,164.425 C303.954,164.425 337.251,185.409 337.251,211.292 L327.767,367.995" fill="#00A04A"/>
    <path d="M327.767,367.995 C327.767,393.87 298.704,414.862 262.884,414.862 C227.048,414.862 198.001,393.87 198.001,367.995 L188.501,211.292 C188.501,185.409 221.79,164.425 262.884,164.425 C303.954,164.425 337.251,185.409 337.251,211.292 L327.767,367.995 z" fill-opacity="0" stroke="#362318" stroke-width="5" stroke-linecap="round" stroke-linejoin="round"/>
    <path d="M301.774,191.745 C301.774,200.104 284.368,206.901 262.884,206.901 C241.415,206.901 223.993,200.104 223.993,191.745 C223.993,183.386 241.415,176.604 262.884,176.604 C284.368,176.604 301.774,183.386 301.774,191.745" fill="#00A04A"/>
    <path d="M277.392,105.128 C260.251,116.292 241.595,140.722 250.056,193.8 C251.196,200.878 257.845,205.706 264.931,204.581 C272.009,203.44 276.829,196.792 275.712,189.698 C272.243,168.011 272.196,139.511 291.548,126.886 C297.563,122.979 299.267,114.94 295.345,108.925 C291.431,102.909 283.392,101.222 277.392,105.128" fill="#63B445"/>
    <path d="M277.392,105.128 C260.251,116.292 241.595,140.722 250.056,193.8 C251.196,200.878 257.845,205.706 264.931,204.581 C272.009,203.44 276.829,196.792 275.712,189.698 C272.243,168.011 272.196,139.511 291.548,126.886 C297.563,122.979 299.267,114.94 295.345,108.925 C291.431,102.909 283.392,101.222 277.392,105.128 z" fill-opacity="0" stroke="#362318" stroke-width="5" stroke-linecap="round" stroke-linejoin="round"/>
    <path d="M228.345,428.565 L228.345,428.565 C254.899,425.315 281.032,419.292 281.188,289.823 C281.298,187.698 229.86,176.073 197.915,179.995 C165.97,183.886 118.86,207.581 143.618,306.683 C174.985,432.269 201.79,431.808 228.345,428.565" fill="#00A04A"/>
    <path d="M228.345,428.565 L228.345,428.565 C254.899,425.315 281.032,419.292 281.188,289.823 C281.298,187.698 229.86,176.073 197.915,179.995 C165.97,183.886 118.86,207.581 143.618,306.683 C174.985,432.269 201.79,431.808 228.345,428.565 z" fill-opacity="0" stroke="#362318" stroke-width="5" stroke-linecap="round" stroke-linejoin="round"/>
    <path d="M297.415,428.565 L297.415,428.565 C270.868,425.315 244.743,419.292 244.587,289.823 C244.478,187.698 295.915,176.073 327.86,179.995 C359.79,183.886 406.907,207.581 382.157,306.683 C350.79,432.269 323.97,431.808 297.415,428.565" fill="#00A04A"/>
    <path d="M297.415,428.565 L297.415,428.565 C270.868,425.315 244.743,419.292 244.587,289.823 C244.478,187.698 295.915,176.073 327.86,179.995 C359.79,183.886 406.907,207.581 382.157,306.683 C350.79,432.269 323.97,431.808 297.415,428.565 z" fill-opacity="0" stroke="#362318" stroke-width="5" stroke-linecap="round" stroke-linejoin="round"/>
    <path d="M262.884,445.44 L262.884,445.44 C289.642,445.44 316.306,442.628 332.181,314.151 C344.712,212.784 295.063,195.003 262.884,195.003 C230.696,195.003 181.071,212.784 193.587,314.151 C209.462,442.628 236.126,445.44 262.884,445.44" fill="#00A04A"/>
    <path d="M262.884,445.44 L262.884,445.44 C289.642,445.44 316.306,442.628 332.181,314.151 C344.712,212.784 295.063,195.003 262.884,195.003 C230.696,195.003 181.071,212.784 193.587,314.151 C209.462,442.628 236.126,445.44 262.884,445.44 z" fill-opacity="0" stroke="#362318" stroke-width="5" stroke-linecap="round" stroke-linejoin="round"/>
    <path d="M342.556,205.698 C340.618,210.058 342.595,215.167 346.946,217.104 C351.868,219.3 368.407,239.612 363.079,276.104 C362.376,280.839 365.657,285.237 370.384,285.917 C375.126,286.612 379.517,283.339 380.204,278.612 C386.938,232.479 365.017,206.198 353.978,201.276 C349.603,199.347 344.501,201.331 342.556,205.698" fill="#7CC299"/>
    <path d="M375.892,301.714 C375.892,306.487 372.024,310.362 367.235,310.362 C362.454,310.362 358.579,306.487 358.579,301.714 C358.579,296.925 362.454,293.05 367.235,293.05 C372.024,293.05 375.892,296.925 375.892,301.714" fill="#7CC299"/>
    <path d="M506.61,181.409 C503.938,179.972 500.993,178.651 497.899,177.472 C490.962,167.433 479.97,158.104 466.188,151.19 C471.712,138.542 480.204,127.558 493.384,124.784 C499.735,123.448 503.798,117.237 502.454,110.901 C501.126,104.542 494.907,100.487 488.579,101.815 C474.095,104.854 456.04,114.784 444.149,142.972 C430.438,139.558 417.235,139.323 406.196,141.854 C403.118,140.644 400.056,139.628 397.126,138.886 C375.126,133.292 341.478,135.042 322.22,179.503 C320.618,179.417 318.962,179.417 317.29,179.417 C306.118,171.847 291.056,166.636 274.079,165.011 C274.712,149.761 279.071,135.019 291.548,126.886 C297.563,122.979 299.267,114.94 295.345,108.925 C291.431,102.909 283.392,101.222 277.392,105.128 C263.673,114.065 249.024,131.542 248.04,165.362 C246.595,165.55 245.204,165.8 243.782,166.042 C242.431,157.698 240.782,148.714 238.782,138.901 C220.36,48.44 172.704,47.479 145.134,56.737 C142.259,57.706 139.267,58.956 136.282,60.401 C124.228,58.589 109.915,60.206 95.446,65.479 C90.024,52.792 87.829,39.073 94.829,27.573 C98.22,22.042 96.47,14.847 90.946,11.464 C85.407,8.066 78.181,9.839 74.813,15.354 C67.095,27.979 61.962,47.948 74.345,75.909 C62.462,83.573 53.251,93.026 47.532,102.808 C44.54,104.222 41.712,105.753 39.165,107.37 C14.634,123.011 -14.562,160.667 44.243,231.847 C99.149,298.308 125.36,309.917 143.524,306.222 C143.563,306.386 143.579,306.526 143.618,306.683 C173.634,426.847 199.47,431.604 224.899,428.956 C236.704,444.729 249.79,445.44 262.884,445.44 C275.985,445.44 289.063,444.729 300.868,428.956 C319.399,430.886 338.149,428.823 358.571,381.112 C360.681,382.089 362.845,382.964 365.017,383.8 C376.056,388.089 387.298,391.761 402.399,382.339 C422.962,392.894 446.29,397.347 510.915,305.901 C564.188,230.511 532.235,195.128 506.61,181.409 z" fill-opacity="0" stroke="#362318" stroke-width="10" stroke-linecap="round" stroke-linejoin="round"/>
  </g>
</svg>
