<?xml version="1.0" encoding="UTF-8" standalone="no"?>
<!-- Created with Inkscape (http://www.inkscape.org/) -->

<svg
   width="26.197128mm"
   height="29.941095mm"
   viewBox="0 0 26.197127 29.941094"
   version="1.1"
   id="svg2269"
   inkscape:version="1.1.2 (0a00cf5339, 2022-02-04)"
   sodipodi:docname="item372.svg"
   xmlns:inkscape="http://www.inkscape.org/namespaces/inkscape"
   xmlns:sodipodi="http://sodipodi.sourceforge.net/DTD/sodipodi-0.dtd"
   xmlns="http://www.w3.org/2000/svg"
   xmlns:svg="http://www.w3.org/2000/svg">
  <sodipodi:namedview
     id="namedview2271"
     pagecolor="#ffffff"
     bordercolor="#666666"
     borderopacity="1.0"
     inkscape:pageshadow="2"
     inkscape:pageopacity="0.0"
     inkscape:pagecheckerboard="0"
     inkscape:document-units="mm"
     showgrid="false"
     fit-margin-top="0"
     fit-margin-left="0"
     fit-margin-right="0"
     fit-margin-bottom="0"
     inkscape:zoom="0.48996914"
     inkscape:cx="50.00315"
     inkscape:cy="57.146457"
     inkscape:window-width="1366"
     inkscape:window-height="719"
     inkscape:window-x="0"
     inkscape:window-y="25"
     inkscape:window-maximized="1"
     inkscape:current-layer="layer1" />
  <defs
     id="defs2266" />
  <g
     inkscape:label="Capa 1"
     inkscape:groupmode="layer"
     id="layer1"
     transform="translate(-87.823397,-133.64924)">
    <g
       id="g7196"
       transform="matrix(0.04642234,0,0,0.04642234,83.988551,78.519162)">
      <path
         inkscape:connector-curvature="0"
         id="path4461"
         d="m 240.57812,1190.4263 -154.861323,194.1914 89.269533,353.375 189.7832,91.3926 189.78125,-91.3926 89.26953,-353.375 -154.86133,-194.1914 z m 39.26758,101.0157 h 169.84571 l 105.89648,132.791 -61.04297,241.6406 -129.77539,62.4981 -129.77734,-62.4981 -61.04297,-241.6406 z"
         style="opacity:1;fill:#37c8ab;fill-opacity:1;stroke:none;stroke-width:4;stroke-miterlimit:4;stroke-dasharray:none;stroke-opacity:1" />
      <path
         inkscape:connector-curvature="0"
         style="opacity:1;fill:#5fd3bc;fill-opacity:1;stroke:none;stroke-width:4;stroke-miterlimit:4;stroke-dasharray:none;stroke-opacity:1"
         d="m 240.57812,1190.4263 39.26758,101.0157 h 169.84571 l 39.26757,-101.0157 z"
         id="path4459" />
      <path
         inkscape:connector-curvature="0"
         style="opacity:1;fill:#87decd;fill-opacity:1;stroke:none;stroke-width:4;stroke-miterlimit:4;stroke-dasharray:none;stroke-opacity:1"
         d="m 555.58789,1424.233 88.23242,-39.6153 -154.86133,-194.1914 -39.26757,101.0157 z"
         id="path4463" />
      <path
         inkscape:connector-curvature="0"
         style="opacity:1;fill:#37c8ab;fill-opacity:1;stroke:none;stroke-width:4;stroke-miterlimit:4;stroke-dasharray:none;stroke-opacity:1"
         d="m 494.54492,1665.8736 60.00586,72.1191 89.26953,-353.375 -88.23242,39.6153 z"
         id="path4465" />
      <path
         inkscape:connector-curvature="0"
         style="opacity:1;fill:#2ca089;fill-opacity:1;stroke:none;stroke-width:4;stroke-miterlimit:4;stroke-dasharray:none;stroke-opacity:1"
         d="m 364.76953,1728.3717 v 101.0136 l 189.78125,-91.3926 -60.00586,-72.1191 z"
         id="path4467" />
      <path
         inkscape:connector-curvature="0"
         style="opacity:1;fill:#217867;fill-opacity:1;stroke:none;stroke-width:4;stroke-miterlimit:4;stroke-dasharray:none;stroke-opacity:1"
         d="m 234.99219,1665.8736 -60.00586,72.1191 189.7832,91.3926 v -101.0136 z"
         id="path4469" />
      <path
         inkscape:connector-curvature="0"
         style="opacity:1;fill:#2ca089;fill-opacity:1;stroke:none;stroke-width:4;stroke-miterlimit:4;stroke-dasharray:none;stroke-opacity:1"
         d="m 173.94922,1424.233 -88.232423,-39.6153 89.269533,353.375 60.00586,-72.1191 z"
         id="path4471" />
      <path
         inkscape:connector-curvature="0"
         style="opacity:1;fill:#37c8ab;fill-opacity:1;stroke:none;stroke-width:4;stroke-miterlimit:4;stroke-dasharray:none;stroke-opacity:1"
         d="M 240.57812,1190.4263 85.716797,1384.6177 173.94922,1424.233 279.8457,1291.442 Z"
         id="path4473" />
      <path
         sodipodi:nodetypes="cccccccc"
         inkscape:connector-curvature="0"
         id="path4475"
         d="M 364.76857,1728.3717 234.99301,1665.8751 173.94925,1424.233 279.84597,1291.4427 h 169.84518 l 105.89674,132.7903 -61.04376,241.6421 z"
         style="opacity:1;fill:#afe9dd;fill-opacity:1;stroke:none;stroke-width:4;stroke-miterlimit:4;stroke-dasharray:none;stroke-opacity:1" />
      <path
         inkscape:connector-curvature="0"
         style="opacity:1;fill:#d7f4ee;fill-opacity:1;stroke:none;stroke-width:4;stroke-miterlimit:4;stroke-dasharray:none;stroke-opacity:1"
         d="m 463.27148,1308.4713 a 295,280.71429 0 0 1 5.30079,51.9804 295,280.71429 0 0 1 -241.0586,275.8184 l 7.47852,29.6055 129.77734,62.4961 129.77539,-62.4961 61.04297,-241.6426 z"
         id="path4477" />
      <path
         inkscape:connector-curvature="0"
         style="opacity:1;fill:none;fill-opacity:1;stroke:#165044;stroke-width:5.69948;stroke-miterlimit:4;stroke-dasharray:none;stroke-opacity:1"
         d="m 240.57812,1190.4263 -154.861323,194.1914 89.269533,353.375 189.7832,91.3926 189.78125,-91.3926 89.26953,-353.375 -154.86133,-194.1914 z m 39.26758,101.0157 h 169.84571 l 105.89648,132.791 -61.04297,241.6406 -129.77539,62.4981 -129.77734,-62.4981 -61.04297,-241.6406 z"
         id="path4479" />
      <ellipse
         style="opacity:1;fill:#d7f4ee;fill-opacity:1;stroke:none;stroke-width:4;stroke-miterlimit:4;stroke-dasharray:none;stroke-opacity:1"
         id="ellipse4481"
         cx="330.00003"
         cy="1587.595"
         rx="35.714287"
         ry="26.428572" />
      <ellipse
         ry="25"
         rx="22.142859"
         cy="1457.595"
         cx="439.28577"
         id="ellipse4483"
         style="opacity:1;fill:#d7f4ee;fill-opacity:1;stroke:none;stroke-width:4;stroke-miterlimit:4;stroke-dasharray:none;stroke-opacity:1" />
      <ellipse
         style="opacity:1;fill:#d7f4ee;fill-opacity:1;stroke:none;stroke-width:4;stroke-miterlimit:4;stroke-dasharray:none;stroke-opacity:1"
         id="ellipse4485"
         cx="292.14291"
         cy="1399.0236"
         rx="39.285717"
         ry="39.285713" />
      <path
         style="opacity:0.5;fill:#d7f4ee;fill-opacity:1;stroke:none;stroke-width:4;stroke-miterlimit:4;stroke-dasharray:none;stroke-opacity:1"
         d="m 250.019,1214.7115 -143.08949,179.4299 82.48367,326.5121 175.35638,84.4467 175.35437,-84.4467 82.48367,-326.5121 -143.08949,-179.4299 z m 15.51989,40.6647 h 198.45933 l 123.73864,155.1625 -71.32843,282.3521 -151.63887,73.0245 -151.64089,-73.0245 -71.32842,-282.3521 z"
         id="path4487"
         inkscape:connector-curvature="0" />
    </g>
  </g>
</svg>
