<?xml version="1.0" encoding="UTF-8" standalone="no"?>
<svg
   width="176.99358"
   height="257.51761"
   version="1.1"
   id="svg66"
   sodipodi:docname="item315.svg"
   inkscape:version="1.1.2 (0a00cf5339, 2022-02-04)"
   xmlns:inkscape="http://www.inkscape.org/namespaces/inkscape"
   xmlns:sodipodi="http://sodipodi.sourceforge.net/DTD/sodipodi-0.dtd"
   xmlns:xlink="http://www.w3.org/1999/xlink"
   xmlns="http://www.w3.org/2000/svg"
   xmlns:svg="http://www.w3.org/2000/svg">
  <sodipodi:namedview
     id="namedview68"
     pagecolor="#ffffff"
     bordercolor="#666666"
     borderopacity="1.0"
     inkscape:pageshadow="2"
     inkscape:pageopacity="0.0"
     inkscape:pagecheckerboard="0"
     showgrid="false"
     fit-margin-top="0"
     fit-margin-left="0"
     fit-margin-right="0"
     fit-margin-bottom="0"
     inkscape:zoom="1.8101934"
     inkscape:cx="69.605824"
     inkscape:cy="72.36796"
     inkscape:window-width="1366"
     inkscape:window-height="719"
     inkscape:window-x="0"
     inkscape:window-y="25"
     inkscape:window-maximized="1"
     inkscape:current-layer="svg66" />
  <defs
     id="defs36">
    <linearGradient
       id="imagebot_48">
      <stop
         stop-color="#e7bc77"
         offset="0"
         id="imagebot_59" />
      <stop
         stop-color="#e7bc77"
         stop-opacity="0"
         offset="1"
         id="imagebot_58" />
    </linearGradient>
    <filter
       x="-0.16794267"
       y="-0.05440446"
       color-interpolation-filters="sRGB"
       width="1.3358853"
       height="1.1088089"
       id="imagebot_22">
      <feGaussianBlur
         stdDeviation="3.25158"
         id="imagebot_57" />
    </filter>
    <filter
       x="-0.12734014"
       y="-0.04722671"
       color-interpolation-filters="sRGB"
       width="1.2546803"
       height="1.0944534"
       id="imagebot_20">
      <feGaussianBlur
         stdDeviation="3.00146"
         id="imagebot_56" />
    </filter>
    <filter
       color-interpolation-filters="sRGB"
       id="imagebot_18"
       x="-0.12337918"
       y="-0.11723464"
       width="1.2467584"
       height="1.2344693">
      <feGaussianBlur
         stdDeviation="2.73215"
         id="imagebot_55" />
    </filter>
    <linearGradient
       x1="90.859039"
       y1="769.31073"
       x2="97.467339"
       y2="854.51501"
       id="imagebot_28"
       gradientTransform="scale(0.96870403,1.032307)"
       gradientUnits="userSpaceOnUse">
      <stop
         stop-color="#b88100"
         offset="0"
         id="imagebot_54" />
      <stop
         stop-color="#fecd7b"
         offset="1"
         id="imagebot_53" />
    </linearGradient>
    <radialGradient
       r="62.047001"
       gradientTransform="matrix(-0.097903,7.1629e-8,-4.4104e-7,-0.69934,83.203,1239.5)"
       cx="-188.89999"
       cy="456.47"
       gradientUnits="userSpaceOnUse"
       id="imagebot_26">
      <stop
         stop-color="#f6c374"
         offset="0"
         id="imagebot_52" />
      <stop
         stop-color="#b88100"
         offset="1"
         id="imagebot_51" />
    </radialGradient>
    <radialGradient
       r="42.421001"
       gradientTransform="matrix(-0.708805,0.0335716,-0.0574821,-1.52319,-22.0307,1296.11)"
       cx="-197.14999"
       cy="316.23999"
       gradientUnits="userSpaceOnUse"
       id="imagebot_17">
      <stop
         stop-color="#dcac62"
         offset="0"
         id="imagebot_50" />
      <stop
         stop-color="#b88100"
         offset="1"
         id="imagebot_49" />
    </radialGradient>
    <radialGradient
       r="49.710999"
       gradientTransform="matrix(-0.61828,-1.9302,1.0465,-0.30931,-456.37,425.19)"
       cx="-273.75"
       cy="320.53"
       gradientUnits="userSpaceOnUse"
       xlink:href="#imagebot_48"
       id="imagebot_33" />
    <radialGradient
       r="49.710999"
       gradientTransform="matrix(0.61828,-1.9302,-1.0465,-0.30931,657.37,425.8)"
       cx="-273.75"
       cy="320.53"
       gradientUnits="userSpaceOnUse"
       xlink:href="#imagebot_48"
       id="imagebot_36" />
    <radialGradient
       r="62.047001"
       gradientTransform="matrix(-6.2412e-8,0.41682,-0.75285,-9.9457e-8,403.49,962.84)"
       cx="-192.94"
       cy="403.73999"
       gradientUnits="userSpaceOnUse"
       id="imagebot_15">
      <stop
         stop-color="#fcca77"
         offset="0"
         id="imagebot_47" />
      <stop
         stop-color="#fcca77"
         stop-opacity="0"
         offset="1"
         id="imagebot_46" />
    </radialGradient>
    <linearGradient
       x1="34.374767"
       y1="1867.308"
       x2="33.855778"
       y2="1967.9061"
       id="imagebot_13"
       gradientTransform="scale(1.8987277,0.52666847)"
       gradientUnits="userSpaceOnUse">
      <stop
         stop-color="#692017"
         offset="0"
         id="imagebot_45" />
      <stop
         stop-color="#46150f"
         offset="1"
         id="imagebot_44" />
    </linearGradient>
    <linearGradient
       x1="31.343096"
       y1="2676.4636"
       x2="31.051449"
       y2="2705.6167"
       id="imagebot_30"
       gradientTransform="scale(3.4297807,0.29156383)"
       gradientUnits="userSpaceOnUse">
      <stop
         stop-color="#804d00"
         offset="0"
         id="imagebot_43" />
      <stop
         stop-color="#b98304"
         offset="1"
         id="imagebot_42" />
    </linearGradient>
    <linearGradient
       x1="61.885674"
       y1="1584.153"
       x2="40.524212"
       y2="1587.0566"
       id="imagebot_8"
       gradientTransform="scale(1.5916457,0.62828052)"
       gradientUnits="userSpaceOnUse">
      <stop
         stop-color="#f0be63"
         offset="0"
         id="imagebot_41" />
      <stop
         stop-color="#b88100"
         offset="1"
         id="imagebot_40" />
    </linearGradient>
    <filter
       x="-0.31307271"
       y="-0.069175583"
       width="1.6277285"
       height="1.1379438"
       id="imagebot_6">
      <feGaussianBlur
         stdDeviation="2.14773"
         id="imagebot_39" />
    </filter>
  </defs>
  <title
     id="title38" />
  <text
     label="Layer 1"
     opacity="0.37561"
     font-size="20.1184px"
     font-family="Sans"
     fill="#ffc022"
     x="44.661343"
     y="695.34009"
     xml:space="preserve"
     transform="scale(1.1209753,0.89208032)"
     id="imagebot_9"
     style="stroke-width:1.00002" />
  <g
     id="g1172"
     transform="translate(-12.000141,-767.86939)">
    <path
       label="Layer 1"
       fill="#b88100"
       d="m 173.25,767.87 c -1.4579,0.004 -2.961,0.0757 -4.457,0.19029 -2.992,0.22916 -5.922,0.64168 -8.2801,1.1227 -1.179,0.2405 -2.2215,0.49034 -3.0704,0.76114 -0.84885,0.27079 -1.4508,0.44702 -2.1196,1.0466 -1.6129,1.4461 -2.3739,3.3402 -2.7138,5.2328 -0.33994,1.8926 -0.31746,3.8276 -0.31694,5.6705 5e-4,1.8428 -0.031,3.5902 -0.35656,4.9854 -0.3256,1.3953 -0.85654,2.3994 -1.9413,3.1587 -0.5849,0.40946 -2.9554,0.64126 -5.0512,0.41862 -2.0958,-0.22264 -3.8825,-0.66599 -3.8825,-0.66599 l -0.79235,2.9304 c 0,0 1.9794,0.49154 4.3381,0.74211 2.3587,0.25057 5.1311,0.49392 7.25,-0.98948 1.8008,-1.2607 2.7376,-3.0779 3.1694,-4.9284 0.43182,-1.8505 0.41651,-3.7894 0.41599,-5.6514 -5e-4,-1.8621 0.007,-3.652 0.27732,-5.1567 0.27026,-1.5047 0.76495,-2.6622 1.7432,-3.5393 -0.17038,0.15276 0.30964,-0.16339 0.99044,-0.38057 0.68079,-0.21717 1.6154,-0.46097 2.7138,-0.68502 2.1968,-0.44809 5.0313,-0.8471 7.8839,-1.0656 2.8526,-0.21849 5.7344,-0.23769 8.0028,0.019 2.2683,0.25672 3.8123,0.95158 4.0806,1.2939 3.5459,4.5246 4.1527,12.335 2.1988,21.749 -1.9539,9.4147 -6.3847,20.327 -12.262,30.921 -11.754,21.187 -31.531,39.039 -45.916,43.744 l 1.0102,2.8733 c 16.125,-5.2748 35.699,-23.596 47.679,-45.19 5.9899,-10.797 10.538,-21.927 12.579,-31.758 2.0404,-9.8315 1.678,-18.486 -2.7732,-24.166 -1.3508,-1.7237 -3.6222,-2.1797 -6.22,-2.4737 -1.2989,-0.147 -2.7218,-0.21284 -4.1797,-0.20931 z"
       id="imagebot_37" />
    <path
       label="Layer 1"
       fill="url(#imagebot_36)"
       d="m 174.04,768.48 c 1.5196,-0.004 2.9822,0.0616 4.3361,0.20688 2.7078,0.29058 5.0754,0.74131 6.4835,2.4449 4.6398,5.6138 5.0176,14.168 2.8907,23.885 -2.1268,9.7172 -6.8472,20.717 -13.091,31.389 -12.487,21.344 -32.827,39.428 -49.635,44.642 l -1.053,-2.8399 c 14.994,-4.6508 35.525,-22.271 47.777,-43.212 6.1259,-10.471 10.744,-21.256 12.781,-30.562 2.0367,-9.3052 1.4042,-17.025 -2.2919,-21.497 -0.27967,-0.33838 -1.8891,-1.0252 -4.2535,-1.2789 -2.3644,-0.25374 -5.3683,-0.23476 -8.3418,-0.0187 -2.9735,0.21595 -5.928,0.61032 -8.2179,1.0532 -1.1449,0.22144 -2.1191,0.4624 -2.8288,0.67705 -0.70964,0.21466 -1.21,0.52713 -1.0324,0.37615 -1.0197,0.86687 -1.5353,2.0109 -1.817,3.4981 -0.28171,1.4872 -0.26897,3.2563 -0.26842,5.0967 5e-4,1.8404 -0.004,3.7568 -0.45426,5.5857 -0.4501,1.829 -1.4266,3.625 -3.3037,4.871 -2.2087,1.4661 -5.0985,1.2256 -7.5572,0.97797 -2.4586,-0.24766 -4.5219,-0.73348 -4.5219,-0.73348 l 0.82592,-2.8963 c 0,0 1.8624,0.4382 4.047,0.65825 2.1846,0.22005 4.6556,-0.009 5.2652,-0.41376 1.1307,-0.75054 1.7048,-1.7429 2.0442,-3.122 0.33938,-1.3791 0.3722,-3.1061 0.37166,-4.9275 -5e-4,-1.8214 -0.0446,-3.7339 0.30972,-5.6045 0.35434,-1.8706 1.1475,-3.7427 2.8288,-5.172 0.69703,-0.59258 1.3452,-0.76675 2.23,-1.0344 0.88481,-0.26765 1.9508,-0.51459 3.1798,-0.75229 2.458,-0.47539 5.5121,-0.88312 8.6308,-1.1096 1.5594,-0.11325 3.1468,-0.18458 4.6664,-0.18807 z"
       id="imagebot_35"
       style="fill:url(#imagebot_36)" />
    <path
       label="Layer 1"
       fill="#b88100"
       d="m 26.346,767.87 c -1.4579,-0.004 -2.861,0.0623 -4.1598,0.20931 -2.5978,0.294 -4.8692,0.75004 -6.22,2.4737 -4.4512,5.6798 -4.8136,14.335 -2.7732,24.166 2.0404,9.8315 6.5689,20.961 12.559,31.758 11.98,21.595 31.574,39.916 47.699,45.19 l 1.0102,-2.8733 c -14.385,-4.7056 -34.162,-22.557 -45.916,-43.744 -5.8769,-10.594 -10.308,-21.506 -12.262,-30.921 -1.9539,-9.4147 -1.3472,-17.225 2.1988,-21.749 0.2683,-0.34236 1.8123,-1.0372 4.0806,-1.2939 2.2683,-0.25672 5.1501,-0.23752 8.0028,-0.019 2.8526,0.21849 5.6871,0.6175 7.8839,1.0656 1.0984,0.22405 2.033,0.46785 2.7138,0.68503 0.68079,0.21717 1.1608,0.53332 0.99044,0.38056 0.97822,0.87707 1.4729,2.0346 1.7432,3.5393 0.27026,1.5047 0.25804,3.2946 0.25752,5.1567 -5e-4,1.8621 0.004,3.801 0.43579,5.6514 0.43181,1.8505 1.3686,3.6677 3.1694,4.9284 2.119,1.4834 4.8913,1.24 7.25,0.98948 2.3587,-0.25057 4.3381,-0.74211 4.3381,-0.74211 l -0.79235,-2.9304 c 0,0 -1.7867,0.44335 -3.8825,0.66599 -2.0958,0.22264 -4.4664,-0.009 -5.0512,-0.41862 -1.0847,-0.75937 -1.6355,-1.7634 -1.9611,-3.1587 -0.3256,-1.3953 -0.35708,-3.1426 -0.35656,-4.9854 5e-4,-1.8428 0.0428,-3.7778 -0.29713,-5.6705 -0.33994,-1.8926 -1.1009,-3.7867 -2.7138,-5.2328 -0.6687,-0.59954 -1.2905,-0.77577 -2.1394,-1.0466 -0.84885,-0.2708 -1.8715,-0.52064 -3.0506,-0.76114 -2.3581,-0.48099 -5.2881,-0.89351 -8.2801,-1.1227 -1.496,-0.11458 -3.0189,-0.18676 -4.4768,-0.19029 z"
       id="imagebot_34" />
    <path
       label="Layer 1"
       fill="url(#imagebot_33)"
       d="m 26.954,767.87 c -1.5196,-0.004 -2.9822,0.0616 -4.3361,0.20688 -2.7078,0.29058 -5.0754,0.74132 -6.4835,2.4449 -4.6398,5.6138 -5.0176,14.168 -2.8907,23.885 2.1268,9.7172 6.8472,20.717 13.091,31.389 12.487,21.344 32.827,41.428 49.635,46.642 l 1.053,-2.8399 c -14.994,-4.6508 -35.525,-24.271 -47.777,-45.212 -6.1259,-10.471 -10.744,-21.256 -12.781,-30.562 -2.0367,-9.3052 -1.4042,-17.025 2.2919,-21.497 0.27966,-0.33837 1.8891,-1.0252 4.2535,-1.2789 2.3644,-0.25374 5.3683,-0.23476 8.3418,-0.0188 2.9735,0.21595 5.928,0.61032 8.2179,1.0532 1.1449,0.22144 2.1191,0.4624 2.8288,0.67705 0.70963,0.21466 1.21,0.52713 1.0324,0.37615 1.0197,0.86687 1.5353,2.0109 1.817,3.4981 0.28171,1.4872 0.26897,3.2563 0.26842,5.0967 -5e-4,1.8404 0.004,3.7568 0.45426,5.5857 0.4501,1.829 1.4266,3.625 3.3037,4.871 2.2087,1.4661 5.0986,1.2256 7.5572,0.97797 2.4586,-0.24766 4.5219,-0.73348 4.5219,-0.73348 l -0.82592,-2.8963 c 0,0 -1.8624,0.4382 -4.047,0.65825 -2.1846,0.22005 -4.6556,-0.009 -5.2652,-0.41376 -1.1307,-0.75054 -1.7048,-1.7429 -2.0442,-3.122 -0.33939,-1.3791 -0.37221,-3.1061 -0.37166,-4.9275 5e-4,-1.8214 0.0446,-3.7339 -0.30972,-5.6045 -0.35434,-1.8706 -1.1476,-3.7427 -2.8288,-5.172 -0.69703,-0.59257 -1.3452,-0.76675 -2.23,-1.0344 -0.8848,-0.26765 -1.9508,-0.51459 -3.1798,-0.75229 -2.458,-0.47539 -5.5121,-0.88312 -8.6308,-1.1096 -1.5594,-0.11325 -3.1468,-0.18458 -4.6664,-0.18808 z"
       id="imagebot_32"
       style="fill:url(#imagebot_33)" />
    <path
       label="Layer 1"
       stroke-width="0"
       fill="#310e0a"
       d="m 46.35,1001.9 107.05,-0.7859 4.4079,14.147 h -113.98 z"
       id="imagebot_31" />
    <path
       label="Layer 1"
       stroke-width="0"
       fill="url(#imagebot_30)"
       d="m 94.944,783.09 0.0792,0.19028 c -5.0483,0.11159 -10.94,0.2564 -14.698,0.41863 -8.8353,0.38138 -26.247,3.6915 -26.247,3.6915 l -1.2876,3.6915 c 0,0 18.718,-3.314 28.188,-3.6915 6.3425,-0.25282 14.721,-0.75449 18.838,-1.0085 4.1297,0.25472 12.486,0.75608 18.818,1.0085 9.4701,0.37749 28.168,3.6915 28.168,3.6915 l -1.2678,-3.6915 c 0,0 -17.411,-3.3101 -26.247,-3.6915 -3.7584,-0.16223 -9.6499,-0.30704 -14.698,-0.41863 L 104.669,783.09 c 0,0 -3.0384,0.0607 -4.8532,0.0951 -1.8277,-0.0347 -4.873,-0.0951 -4.873,-0.0951 z"
       id="imagebot_29"
       style="fill:url(#imagebot_30)" />
    <path
       label="Layer 1"
       stroke-width="0"
       fill="url(#imagebot_28)"
       d="m 97.499,786.18 v 0.19029 c -13.348,0.34054 -25.524,-0.8199 -43.421,5.347 0,0 -1.4223,31.089 3.209,47.971 3.4542,12.591 9.3359,27.351 19.195,36.287 14.011,10.988 34.003,10.628 46.63,0 9.8588,-8.9358 15.76,-23.696 19.215,-36.287 4.6314,-16.881 3.209,-47.971 3.209,-47.971 -17.906,-6.17 -30.085,-5.0238 -43.441,-5.366 v -0.17126 c -0.77367,0.0449 -1.5354,0.0837 -2.2978,0.11417 -0.75725,-0.0304 -1.5295,-0.0696 -2.2978,-0.11417 z"
       id="imagebot_27"
       style="fill:url(#imagebot_28)" />
    <path
       label="Layer 1"
       stroke-width="0"
       fill="url(#imagebot_26)"
       d="m 91.761,881.01 1.6571,8.0025 1.6571,18.482 -4.9714,4.3061 3.8609,4.9349 c 0,0 4.8771,23.37 -5.4561,32.212 -2.353,2.0136 -2.1397,-1.1752 -2.1397,-1.1752 l -5.7546,3.5074 -15.368,7.9453 c 10.325,10.323 22.174,8.7471 33.911,8.0406 11.738,0.70646 23.603,2.2823 33.928,-8.0406 l -15.368,-7.9453 -5.7546,-3.5074 c 0,0 0.21327,3.1887 -2.1397,1.1752 -10.333,-8.8427 -5.4561,-32.212 -5.4561,-32.212 l 3.8609,-4.9349 -4.9714,-4.3061 1.6572,-18.482 1.6571,-8.0025 c -13.445,5.1843 -4.5611,2.2078 -14.812,0 z"
       id="imagebot_25"
       style="fill:url(#imagebot_26)" />
    <path
       label="Layer 1"
       stroke-width="0"
       fill="#3a0704"
       d="m 65.764,958.96 -12.82,0.23685 -3.8439,22.136 c 36.987,1.3293 64.854,0.2823 102.33,0 l -5.7649,-22.136 c -5.2385,-0.10412 -17.166,0.12787 -12.32,-1.2368 -19.431,10.211 -52.627,13.288 -67.586,1 z"
       id="imagebot_24" />
    <path
       label="Layer 1"
       stroke-width="0"
       fill="#804d00"
       d="m 90.378,945.38 c -2.6486,0.72535 -4.2902,1.7443 -4.2902,2.8733 0,2.2064 6.2956,3.996 14.054,3.996 7.7584,0 14.036,-1.7895 14.036,-3.996 0,-1.129 -1.6416,-2.1479 -4.2902,-2.8733 -0.51543,0.44332 -1.0948,0.85369 -1.7383,1.2178 1.1997,0.46694 1.9232,1.0333 1.9232,1.6555 0,1.5592 -4.4476,2.8162 -9.9303,2.8162 -5.4827,0 -9.9303,-1.257 -9.9303,-2.8162 0,-0.62219 0.70504,-1.1885 1.9047,-1.6555 -0.64341,-0.36413 -1.2228,-0.7745 -1.7383,-1.2178 z"
       id="imagebot_23" />
    <path
       label="Layer 1"
       filter="url(#imagebot_22)"
       stroke-width="0"
       fill="#804d00"
       transform="matrix(0.63388,0,0,0.60891,462.71,647.44)"
       d="m -592.13,378.35 c -24.342,-21.175 -40.342,-23.958 -46.467,-141.42 l 6.0609,-2.0203 c 0.99724,55.244 -7.934,101.35 40.406,143.44 z"
       id="imagebot_21" />
    <path
       label="Layer 1"
       filter="url(#imagebot_20)"
       stroke-width="0"
       fill="#804d00"
       transform="matrix(0.63388,0,0,0.60891,462.71,647.44)"
       d="m -561.83,388.45 c 24.342,-21.175 50.443,-33.049 56.569,-150.51 l -6.0609,-2.0203 c -0.99724,55.244 -2.1675,110.44 -50.508,152.53 z"
       id="imagebot_19" />
    <path
       label="Layer 1"
       filter="url(#imagebot_18)"
       stroke-width="0"
       fill="url(#imagebot_17)"
       d="m 73.279463,791.25237 8.324112,50.88844 38.418835,-0.69708 6.40346,-51.58564 c -18.88836,-7.19671 -35.897898,-2.12278 -53.146407,1.39422 z"
       id="imagebot_16"
       style="fill:url(#imagebot_17)" />
    <path
       label="Layer 1"
       stroke-width="0"
       fill="url(#imagebot_15)"
       d="m 90.579,880.01 1.9215,8.092 1.9214,18.689 -5.7644,4.3542 4.4768,4.99 c 0,0 5.6348,21.095 -6.9925,30.518 -2.8754,2.1458 -2.6148,-1.2523 -2.6148,-1.2523 l -7.0321,3.7377 -16.659,9.9608 c 11.972,10.438 25.71,8.8449 39.32,8.1305 13.611,0.71436 27.368,2.3078 39.34,-8.1305 l -16.659,-9.9608 -7.0321,-3.7377 c 0,0 0.26058,3.3981 -2.6148,1.2523 -12.627,-9.4235 -6.9925,-30.518 -6.9925,-30.518 l 4.4768,-4.99 -5.7644,-4.3542 1.9215,-18.689 1.9214,-8.092 c -15.589,5.2422 -5.2886,2.2325 -17.174,0 z"
       id="imagebot_14"
       style="fill:url(#imagebot_15)" />
    <rect
       label="Layer 1"
       stroke-width="0"
       fill="url(#imagebot_13)"
       x="49.594002"
       y="980.22998"
       width="101.59"
       height="28.179001"
       ry="0.50902998"
       id="imagebot_12"
       style="fill:url(#imagebot_13)" />
    <rect
       label="Layer 1"
       stroke-width="0"
       fill="#692017"
       x="43.689999"
       y="1014.7"
       width="113.98"
       height="10.687"
       ry="0"
       id="imagebot_11" />
    <path
       label="Layer 1"
       stroke-width="0"
       fill="url(#imagebot_8)"
       d="m 73.006,984.36 c 0.0042,0.043 0.03324,0.083 0.03324,0.12641 0,1.994 2.0594,3.6404 -3.0397,3.8869 v 6.8574 c 0,0.14259 0.23184,0.25282 0.53175,0.25282 -0.29991,0 -0.53175,0.10702 -0.53175,0.25281 v 7.01536 c 5.0991,0.2521 3.0397,1.9425 3.0397,3.9818 0,0.044 -0.03007,0.083 -0.03324,0.1264 h 50.682 c -0.0633,-0.169 -0.13295,-0.3463 -0.13295,-0.5214 0,-1.7131 -0.88561,-3.1523 3.4444,-3.6658 v -6.93636 c 0,-0.14582 -0.23184,-0.25281 -0.53175,-0.25281 0.29991,0 0.53175,-0.11019 0.53175,-0.25282 v -6.7784 c -4.3301,-0.50201 -3.4444,-1.9117 -3.4444,-3.5867 0,-0.1713 0.0696,-0.34032 0.13295,-0.50561 z"
       id="imagebot_7"
       style="fill:url(#imagebot_8)" />
    <path
       label="Layer 1"
       opacity="0.22439"
       filter="url(#imagebot_6)"
       stroke="#000000"
       stroke-width="1px"
       fill="none"
       d="m 95.5,946.35999 2.5,-11.5 1,-16.5 -3,-4.5 2,-3 -2.5,-26.5 c -8.535,-2.61 -12.614,-7.9 -14.5,-14.5"
       id="imagebot_5" />
  </g>
  <metadata
     id="metadata64">image/svg+xmlOpenclipartTrophy2011-02-17T05:10:10motorsports clip art by NetAlloyhttps://openclipart.org/detail/120343/trophy-by-netalloynetalloyNo.1achievementawardcupgold cupmeritmotorsportsphotorealisticprizeracingsportstrophyvictorywinner</metadata>
</svg>
