<?xml version="1.0" encoding="UTF-8" standalone="no"?>
<!-- Created with Inkscape (http://www.inkscape.org/) -->

<svg
   width="649"
   height="813"
   version="1.1"
   viewBox="0 0 649 813"
   id="svg22"
   sodipodi:docname="item218.svg"
   inkscape:version="1.1.2 (0a00cf5339, 2022-02-04)"
   xmlns:inkscape="http://www.inkscape.org/namespaces/inkscape"
   xmlns:sodipodi="http://sodipodi.sourceforge.net/DTD/sodipodi-0.dtd"
   xmlns="http://www.w3.org/2000/svg"
   xmlns:svg="http://www.w3.org/2000/svg"
   xmlns:rdf="http://www.w3.org/1999/02/22-rdf-syntax-ns#"
   xmlns:cc="http://creativecommons.org/ns#"
   xmlns:dc="http://purl.org/dc/elements/1.1/">
  <defs
     id="defs26" />
  <sodipodi:namedview
     id="namedview24"
     pagecolor="#ffffff"
     bordercolor="#666666"
     borderopacity="1.0"
     inkscape:pageshadow="2"
     inkscape:pageopacity="0.0"
     inkscape:pagecheckerboard="0"
     showgrid="false"
     inkscape:zoom="0.67650677"
     inkscape:cx="314.85273"
     inkscape:cy="406.5"
     inkscape:window-width="1366"
     inkscape:window-height="719"
     inkscape:window-x="0"
     inkscape:window-y="25"
     inkscape:window-maximized="1"
     inkscape:current-layer="svg22" />
  <metadata
     id="metadata2">
    <rdf:RDF>
      <cc:Work
         rdf:about="">
        <dc:format>image/svg+xml</dc:format>
        <dc:type
           rdf:resource="http://purl.org/dc/dcmitype/StillImage" />
      </cc:Work>
    </rdf:RDF>
  </metadata>
  <path
     d="m 271.9938,800.4062 -6.5,-1.5062 -33,-4.7048 -22.682,-4.1873 -1.7582,-1.0866 -16.56,-4.1494 -2,-1.4807 -9.4227,-2.298 -14.577,-7.7141 -7,-4.2282 -9,-5.0662 -3.9631,-2.4822 -25.037,-16.547 -5.9522,-4.4532 -14.048,-10.88 -20.07,-20.12 -12.407,-16 -1.5447,-2 -17.19,-26 -10.288,-16.566 v -1.6889 l -2.8977,-2.4049 -1.9298,-6.34 -5.3195,-18 -6.0613,-18 -1.8111,-4 -4.1564,-18 -4.6244,-23 -4.3589,-20 0.63418,-10.5 0.63418,-10.5 2.8529,-18 3.1655,-25.86 0.98069,-4.5699 0.98069,-4.5699 3.9758,-20.753 1.6961,-3.2472 2.2436,-10.62 3.7571,-8.3802 1.4608,-5 2.7332,-6 2.8696,-13 6.3972,-16 4.9271,-17 2.5427,-9 10.468,-18.558 1.6719,-11.828 5.7641,-11.614 31.904,-63.249 1.6847,-3.8754 1.6847,-3.8754 3.4472,-9 1.4228,-2 2.5698,-8 12.424,-26 3.1334,-6.7083 3.1334,-6.7083 v -1.0241 l 4.7516,-10.559 2.509,-8 1.395,-2 3.321,-9 15.211,-29.998 1.5442,-1.0024 4.2236,-8 7.5451,-10.876 2.3031,-0.72496 1.4494,2.8005 1.4494,2.8005 34.65,68 4.3287,8.8257 0.54838,-0.91283 0.54839,-0.91283 29.223,-52.547 v -1.154 l 5.3888,-9.6497 5.3888,-9.6497 8.9999,-17.164 28.352,-50.836 10.37,-17.224 11,-17.272 1.356,-0.0033 11.808,21.5 46.596,93.75 17.291,31.25 7.7529,12 4.6965,7.1075 v 12.229 l 0.60699,1.5818 0.60699,1.5818 9.286,-0.0208 5.7566,-12.479 16.504,-33 10.094,-16.41 10.899,-14.59 4.0894,-4.248 7.1909,-1.349 2.2476,1.3891 11.457,24.208 0.74609,2.4017 0.74608,2.4017 7.7589,16.874 1.0495,6.5694 1.0495,6.5694 1.8041,2.592 1.8041,2.592 9.225,19 3.134,14 1.8751,4 3.2476,13 1.9902,2.4085 3.4987,6.5915 3.0626,6 3.0625,6 1.9673,13.146 9.2024,16.218 8.8752,26.636 0.6743,4 0.67429,4 12.142,25 1.5636,4 3.9247,14 2.6763,9 2.6763,9 3.895,15 1.9165,4 2.8099,12 5.3367,17 0.88372,1.6519 0.88371,1.6519 1.5872,6.3481 1.5872,6.3481 0.93366,2 0.93365,2 4.2006,16 1.3544,5.5 1.3543,5.5 2.0581,9 2.0581,9 3.1257,17 2.2989,11 v 43 l -2.4777,12 -3.9218,25 -1.1834,3 -4.621,21 -4.1084,15.824 -3.0739,6.4778 v 1.1385 l -4.7458,10.559 -7.1819,16 -5.7888,11.073 -2.7287,4.9267 -4.2254,7 -11.635,17.678 -12.43,15.322 -16.765,16.016 -15,11.105 -7,4.2392 -22,12.536 -25.302,12.473 -8.6975,2.2891 -30,9.7189 -11,3.3475 -22,3.8667 -18.02,2.8182 -24.98,1.88 -8,2.4235 -52,0.69638 -6.5,-1.5062 z"
     fill="#cbaca5"
     id="path6" />
  <path
     d="m 278.4938,801.0562 -4,-0.79759 -19,-3.1844 -33,-5.0756 -18,-4.1534 -18.599,-5.8348 h -2.025 l -11.376,-5.2978 -26,-15.001 -23,-15.075 -22,-16.452 -20.256,-20.674 -6.8258,-8 -2.918,-4.2673 -12.078,-16.733 -21.185,-34 -3.0437,-6.0264 -3.3296,-11.974 -11.826,-35.315 -5.0959,-23.685 -3.0268,-16 -4.1074,-16.751 0.68139,-9.1243 0.68139,-9.1243 2.7016,-14 2.2399,-22 6.0325,-32.925 0.78104,-1.2638 3.9136,-16.812 7.3639,-19 3.6281,-14 5.3178,-14 5.661,-17.539 2.5056,-10.445 11.812,-21.353 0.96109,-6.7865 0.96109,-6.7865 4.8711,-8.3118 30.706,-60.779 10.373,-24.468 v -0.9337 l 11.756,-25.599 7.0022,-15 6.2418,-14.335 0.006,-0.83238 0.006,-0.83239 1.3844,-2.6533 1.3844,-2.6533 1.2602,-3.8467 1.2602,-3.8467 10.025,-21 10.013,-18 10.903,-16.5 1.2578,8.8e-4 38.538,76.014 1.8928,3.1124 1.8928,3.1124 4.9282,-7.8068 13.95,-24.933 16.579,-31 8.9405,-17 10.491,-19 8.557,-16 6.0287,-11 5.4209,-9 11.728,-20 2.026,-3.0984 2.026,-3.0984 9,-14.282 1.8287,0.5883 10.747,19.89 40.824,82.363 16.977,31.968 9.3949,15.669 9.2286,14 1,16 10,0.47467 24.338,-49.475 6.4382,-10 6.0752,-9 9.914,-12.397 6.0329,-2.1031 h 2.7823 l 9.7844,20.5 10.873,25 1.6934,7.5 1.6934,7.5 9.673,17.411 4.042,12.589 3.3263,13 4.0136,12 10.582,19 0.70721,6 0.70722,6 11.744,23 7.0799,21.893 v 3.2943 l 1.8644,5.4066 1.8644,5.4066 8.852,16 6.2094,20 2.5061,8.5 2.5061,8.5 5.229,18 6.8363,24 6.935,21 2.5138,8.5 2.5138,8.5 5.0088,19 1.1321,6 1.1321,6 1.4076,6 1.4076,6 2.2492,13 2.2492,13 9e-5,16.5 8e-5,16.5 -3.55,21 -6.073,33 -4.9168,19 -4.152,13 -6.8978,16.803 -0.85432,1.5985 -0.85433,1.5985 -12.313,25 -9.254,15 -11.336,16 -15.716,17.043 -10,9.0218 -9,7.0224 -19,12.179 -37,19.08 -20,6.4243 -17,5.8925 -23,5.9053 -24,4.0248 -10.474,1.7982 -22.526,1.3063 -13,3.1373 -44,0.50887 -4,-0.7976 z"
     fill="#af9089"
     id="path8" />
  <path
     d="m 280.4938,800.9562 -5,-0.79663 -26,-4.238 -26.851,-3.9063 -18.149,-4.2687 -18.524,-5.7442 h -2.0416 l -17.935,-8.9258 -27.5,-16.521 -16,-10.909 -18.912,-14.144 -18.866,-18 -16.875,-21 -18.574,-28 -3.3106,-6 -9.7788,-15.788 -3.3502,-11.212 -6.8861,-22 -1.9355,-4 -5.1785,-18 -3.6383,-18 -4.3285,-22 -3.0586,-10.675 0.6512,-8.1627 0.6512,-8.1627 1.0139,-5.2398 1.0139,-5.2398 1.9127,-15.26 1.9127,-15.26 3.0672,-18.779 5.0621,-22.221 5.1104,-16 2.9386,-6.3174 7.6932,-25.683 7.9245,-22.022 2.2841,-11.002 12.028,-21.976 1.8662,-13.106 15.196,-28.894 18.608,-37 11.259,-25.206 v -1.4585 l 6.2714,-14.335 13.729,-28.662 v -0.94752 l 3.8046,-8.3903 7.349,-19 5.0961,-11 9.6391,-19.377 11.303,-18.623 4.9096,-6.5 h 1.7309 l 18.477,36.5 23.131,45.459 1.4573,-1.4587 22.316,-40 12.126,-23 8.6595,-15.743 v -0.79624 l 34.726,-62.46 12.921,-21 7.853,-12.434 1.3446,-0.065817 11.585,21.5 47.376,94.999997 14.4,26 14.216,22.82 0.53948,7.5901 0.53949,7.5902 10,0.55623 23.304,-47.556 11.696,-18.357 11.926,-15.167 7.074,-1.9652 1.2074,-0.012 9.1086,18.5 11.998,28 2.1483,11.663 11.877,22.459 1.503,5.4392 1.503,5.4392 2.5544,9.5 2.5544,9.5 12.777,25 0.73528,5.9768 0.73528,5.9768 8.0335,15.046 3.7986,7 4.1655,14 3.8894,16 12.068,23.606 3.9148,13.394 4.7639,16 5.3091,18 4.6853,17 3.9614,13 7.9945,25 2.5452,8.5 2.5452,8.5 2.0692,8.2501 2.0691,8.2501 4.144,20.5 1.3746,6.7686 1.3746,6.7686 1.7195,15.603 1.7195,15.603 -2.5594,24.256 -3.6693,22 -3.2362,18 -6.0296,25 -4.1582,12.912 -10.776,24.988 -12.813,24.682 -17.605,26.329 -22.878,23.739 -16.49,12.35 -20.632,12.365 -30,15.408 -44.547,14.71 -22.453,5.1288 -25,3.8802 -24,2.143 -11.753,1.9322 -11.753,1.933 -32.494,-0.24951 z m 69.5,-17.859 5.5,-0.87157 30.6,-4.1671 1.7019,-1.0518 15.698,-2.9981 14,-4.1222 20,-6.0554 8,-3.6212 5,-1.4539 13,-5.9147 15,-7.6146 11.481,-6.9825 12.266,-8.7416 17.253,-14.215 13,-13.846 9.5896,-10.939 1.4805,-2 12.268,-18.389 13.07,-26.611 5.1927,-14 5.0106,-16 4.85,-18 5.1918,-29 1.7592,-14 0.0726,-39 -1.9633,-16 -2.4106,-13 -2.4106,-13 -3.4076,-14 -2.466,-9 -2.466,-9 -5.0047,-17 -4.6514,-15 -5.3275,-18 -16.766,-51 -6.2134,-17 -4.1128,-13 -1.5806,-2 -3.0806,-10 -6.257,-16 -3.733,-10 -3.1351,-8 -3.1351,-8 -2.3418,-6 -2.3418,-6 -4.2428,-11 -0.92912,-2 -0.92911,-2 -7.1631,-19 -2.4578,-5.625 -2.4578,-5.625 -0.006,-0.87496 -0.006,-0.87495 -2.752,-5.2743 -3.5003,-10.726 -1.4747,-2 -2.4968,-8 -2.6239,-6 -5.0022,-13 -3.4502,-9 -3.4502,-9 -1.3721,-4.5 h -1.3839 l -7.7762,14.5 -8.9361,17 -1.2169,1.5 -1.2169,1.5 -3.4196,7 -4.1202,7 -17.296,28.722 -2,3.3574 -6.7945,10.554 -1.275,-1.317 -1.2749,-1.317 -5.4127,-10 -3.0863,-6 -1.3504,-1 -8.5083,-17 -1.5497,-2 -17.558,-34 -25.529,-50.5 -25.528,-50.5 -2.5307,-5.25 -2.5307,-5.25 -1.0718,0.015 -14,25.321 -9.1692,17.164 -9.7367,18 -5.5603,10 -1.0584,2.4242 -1.0584,2.4242 -10.74,19.152 -3.4335,6.5 -3.4335,6.5 -5.5789,10 -4.2307,7.2955 -8.7298,15.704 -20.072,34 -3.4409,3.6871 -13.396,-24.687 -1.777,-3 -23.229,-47 -2.1759,-4.25 -2.1759,-4.25 -1.0034,0.0504 -6.7018,16.45 -4.6414,10 -5.1568,11.376 v 1.08 l -7.1204,15.544 -1.387,3 -1.387,3 -4.87,11 -3.2397,7.5 -3.2397,7.5 -2.9625,6.5 -2.9625,6.5 -3.6623,8 -6.3377,14 -1.8199,4 -1.8199,4 -9.9611,21 -5.5464,12 -19.684,40.713 -0.0124,1.2872 -3.1377,6 -3.693,10 -6.2905,16 -4.0844,11 -5.8226,16 -8.1381,25 -2.6943,7 -5.0759,19 -4.9708,21 -4.2626,25 -1.9811,18 0.4573,24.5 0.4573,24.5 6.0659,27 5.177,19 4.7928,14 9.0391,21 12.748,23 9.6489,14.734 19.529,24.266 23.935,23 6.8127,5.3693 10.813,8.6307 16.187,10.398 19,10.765 13,6.07 5,1.5123 1,0.70789 1,0.7079 18,6.2048 19,5.0148 17,2.2015 11,2.0148 22,1.7633 67,-0.89351 5.5,-0.87157 z m -79.5,-13.127 -9,-0.9087 -8,-1.9615 -16.943,-2.2716 -8.0566,-2.6997 -13,-2.9831 -6,-3.1306 -2.8686,-0.012 -9.1314,-4.2156 -11,-5.0048 -16,-7.9578 -20,-13.232 -14,-10.48 -7.9383,-6.6092 -20.814,-20 -16.374,-20 -3.1867,-4.75 -3.1867,-4.7503 -5.7207,-8.5 -8.2199,-14.574 -10.816,-24.426 -5.1021,-15 -4.9093,-16 -1.4089,-9 -2.7356,-10 -2.0873,-19.421 v -38.158 l 2.0873,-19.421 2.7598,-10 2.3634,-15.986 2.6683,-7.0144 2.2711,-12 3.6108,-12 5.3893,-18 4.85,-13.5 5.3356,-14.5 5.7934,-14 4.371,-9.9015 23.32,-47.098 9.8804,-21 7.4199,-17 3.6721,-8 1.4872,-5 3.7201,-6.9704 v -1.5514 l 1.932,-4.2391 1.932,-4.2391 12.215,-29 3.9208,-8.2191 v -1.2217 l 5.1766,-11.559 3.6435,-8 5.3251,-11.5 h 2.4586 l 6.8962,13.39 1.5282,2.1103 4.6955,7.1816 12.227,24.818 0.64961,3.25 0.64962,3.25 h 1.75 v 12.6 l -1.6628,1.9 -2.5148,9 -11.889,24 -5.5531,10 -13.819,26 -5.3318,10 -9.7297,19 -1.0874,1 -36.209,73 -4.0956,9 -5.2444,14 -3.606,13.274 -1.3007,2.1045 -5.0627,24.621 -2.3054,15 v 56 l 2.3054,15 5.0404,24.509 1.7774,3.491 2.3989,10 5.15,13 2.7294,5.5 2.7294,5.5 5.6619,10 1.1186,1 7.9443,12 1.7339,2 1.7339,2 18.588,19.027 8,5.9614 1,1.0114 8,6.1754 4.874,2.5952 2.126,1.8151 10.758,6.8018 18.242,8.8906 11.376,5.222 h 1.1456 l 8.4782,3.965 19,6.1306 13,3.0502 16,2.7699 24,2.374 25,0.0362 27,-2.2846 16,-2.306 2,-1.4776 16,-3.4755 2,-1.4694 13,-3.5536 3.945,-2.7592 h 2.5111 l 14.951,-7 h 2.0925 v -1.7832 l 4.5405,-1.1396 8.9595,-5.746 10,-6.331 4,-2.9971 12,-9.7185 18.175,-18.859 1.8426,-2.9629 1.8426,-2.9629 2.2084,-2 11.481,-19.343 2.2819,-6.6574 2.446,-4 1.2418,-4 1.2418,-4 0.77515,-1 0.77516,-1 3.3127,-12 1.8957,-4 3.8757,-17 2.0481,-8 3.5569,-29 v -43 l -3.6167,-29 -2.0148,-8 -3.8324,-17.564 -0.93194,-1.7413 -0.93193,-1.7414 -1.6755,-6.4766 -1.6755,-6.4766 -0.78028,-1 -0.78027,-1 -1.2563,-4 -1.2563,-4 -1.9666,-4.5 -1.9666,-4.5 -2.4974,-5.5 -2.4974,-5.5 -4.0357,-9 -4.5874,-10 -8.4001,-18 -8.032,-17 -28.565,-58 -11.132,-23.343 -1.1701,-4.8286 -1.1701,-4.8286 -1.7281,-1.9 v -10.2 l 1.7542,-1.9 3.5105,-11 0.78129,-1 0.7813,-1 8.4362,-15.927 10.437,-16.073 8.1632,-11 3.15,-4 2.7701,-3.9245 3.1068,2.5784 1.7083,5.173 1.7083,5.173 1.2601,2 1.2601,2 2.5229,9 0.6926,1 0.69259,1 3.5293,11 1.5463,2 3.4305,12 1.5433,2 4.1058,13 4.2592,13 1.7542,4 13.233,40 0.95644,2 0.95643,2 3.8514,12 2.1022,6 2.1022,6 1.3574,3 1.3574,3 2.3754,9 0.76991,1 0.7699,1 3.4405,11 2.5879,6 2.3755,8 1.8514,4 2.5504,7.5 2.5504,7.5 3.0011,10 1.8812,3.431 3.9452,13.569 1.4679,4.5 1.4679,4.5 5.1451,16.624 v 2.8066 l 1.6167,4.7618 1.6167,4.7618 1.9774,9.0232 1.9774,9.0232 1.9169,11.5 1.9169,11.5 1.996,8.5956 1.0904,15.202 1.0903,15.202 -0.68996,13.442 -0.68997,13.442 -0.89975,5.0576 -0.89976,5.0576 -3.0701,20 -2.7512,9 -0.67737,3.5 -0.67738,3.5 -5.9715,19 -2.6576,6 -2.5532,7 -9.9941,21 -3.4035,5 -11.299,17.536 -2.9809,3.4642 -9.4833,11 -15.113,15 -15.887,12.047 -14,9.1539 -14.981,7.799 -1.0191,1.09 -15.149,7.41 h -1.479 l -10.931,5 h -2.0505 l -8.5036,3.8738 -9.8867,2.2932 -4,1.8167 -14,3.0407 -10,2.9119 -20,3.1902 -11,1.8169 -66,0.93286 z m 13,-61.968 -2,-0.85943 -10,-0.1524 -20,-2.9716 -4,-1.8465 -13.962,-3.3084 -2.0382,-1.601 -8,-2.509 -10.559,-4.7516 h -1.7979 l -2.6429,-2.5 -9,-4.4896 -3.9844,-2.5104 -15.016,-9.9403 -18,-15.333 -12.063,-12.727 -7.235,-9 -9.3687,-14 -9.8331,-20.168 v -2.932 l -1.7977,-1.9 -4.4543,-15 -1.8862,-9.5 -1.8862,-9.5 -2.0053,-9 -1.9187,-20 -0.02,-22 0.9154,-11 0.91541,-11 2.1268,-9 3.7882,-19 4.1466,-14 4.915,-14.271 0.98161,-1.8646 0.98162,-1.8646 12.267,-26 0.94987,-1.5 0.94988,-1.5 3.0083,-7 1.9917,-3 3.0083,-7 0.92446,-1.5 0.92447,-1.5 20.198,-40 14.604,-28 14.807,-28 2.7327,-5 2.7328,-5 4.1755,-8.93 0.71112,-0.53499 0.71207,-0.53499 8.7733,-17 10.1,-19 2.7901,-5 2.7901,-5 4.4209,-9.5 h 1.6252 v -2.321 l 16,-28.723 v -0.94877 l 16,-28.893 v -1.9715 l 2.5,-2.7258 2.8349,-5.4585 2.8349,-5.4585 8.2245,-16 1.381,-1 3.1332,-7 6.0308,-10 2.1463,-3.9373 2.1463,-3.9373 1.5161,-1.5161 1.5161,-1.5161 4.7548,5.9068 3.2406,5.2922 3.2406,5.2922 6.5717,10.416 103.68,208 11.022,23 5.2274,11.376 v 2.1238 h 1.8652 l 1.4098,4.5 3.4684,7.5 3.4684,7.5 7.003,15 6.9403,15 4.8448,10.029 0.0313,0.98564 0.0313,0.98565 2.4596,5 2.4596,5 0.0306,3 3.0106,5.7729 4.1959,15.227 3.8274,19 1.8421,6 2.2202,20 -0.0338,40.012 -2.1393,18.988 -1.847,6 -3.2782,18 -1.5484,2 -2.5152,11 -1.8734,4.1951 -1.8734,4.1951 v 1.6303 l -6.8285,15.708 -2.1714,2.1715 v 2.1674 l -6.8745,10.933 -3.2002,4 -3.4735,5.3602 -15.476,17.001 -18.044,15.139 h -1.7892 l -1.3214,1.271 -1.3214,1.271 -10,6.2751 -12,6.0537 -11,4.9993 -6,1.4058 -1,0.7546 -1,0.75459 -13,3.3686 -3.3913,1.7954 -24.609,3.2176 -6.142,1.8334 -47.858,-0.1406 z m 37.711,-59.106 10.289,-1.1065 2,-1.5251 11,-2.5152 9,-3.8681 13.739,-7.0323 10.261,-7.1041 10.613,-8.0726 11.211,-11.17 10.241,-14 9.1158,-18 3.0784,-9.5 3.0784,-9.5 3.5289,-19 0.39493,-15.5 0.39494,-15.5 -3.3063,-21 -2.0218,-7 -1.4875,-3.5 -1.4875,-3.5 -7.0179,-13.761 -1.8278,-2.2385 -9.0021,-12.268 -17.597,-16.732 -13.908,-9.393 -18.675,-9.273 -19.325,-5.0959 -34.264,-0.93158 -31.736,5.2588 -15,5.1363 -11,5.2068 -16.827,10.874 -16.173,16.323 -11.215,16.895 -3.7521,8 -3.7521,8 -0.92597,2.0008 -0.92598,2.0008 -4.1333,14.998 -2.9087,17 1.0637,35 0.95214,4 0.95213,4 4.2091,16 1.8202,4 8.291,17.99 1.5255,1.0098 1.312,2.5 1.312,2.5 6.1754,7.7844 5.3748,5.4366 12.625,10.996 12,8.0014 12,6.1863 11.802,5.1191 12.198,3.056 2.6281,1.0311 2.6281,1.0311 13.744,1.5955 17.422,0.26285 z"
     fill="#aa837b"
     id="path10" />
  <path
     d="m 284.9938,801.3162 -3.5,-0.37373 -36,-5.8292 -21.832,-3.0856 -18.168,-4.2317 -17,-4.9586 -11.556,-4.0923 -30.444,-17.288 -12,-7.7264 -9,-6.0724 -22.29,-16.606 -16.213,-15.252 -12.951,-15.527 -7.5461,-10.207 -8.5769,-12.555 -9.666,-15.102 -3.3294,-5.8979 -5.9307,-9 -3.9515,-8.1854 -4.8999,-17.815 -7.1328,-20 -4.1827,-15 -3.8808,-19 -4.8712,-24 -2.1472,-7.4094 0.93524,-8.7953 0.93524,-8.7953 3.356,-25 5.0448,-33 6.6925,-28.119 5.289,-13.881 9.5945,-30 4.3306,-11 5.7562,-21.586 11.341,-20.304 1.8108,-12.787 18.338,-35.323 14.466,-29 6.0712,-13 3.3098,-8 8.6497,-21 6.8657,-14 5.138,-11 5.2896,-12 3.4273,-8.7285 3.4273,-8.7285 v -1.1175 l 15.963,-32.426 3.5872,-6 5.8764,-10 6.7612,-9.5 h 1.3281 l 15.158,29.5 26.638,52.617 1.2003,-1.3086 1.2003,-1.3086 27.057,-49 9.4405,-18 10.125,-19 25.888,-47 10.145,-17 8.2723,-13 6.8605,-11.443 1.0502,-0.056724 12.292,22.5 24.266,49 22.965,45.804004 16.26,29.196 8.313,13 3.5593,5.7438 0.53998,7.8781 0.53998,7.8781 h 10.36 l 4.123,-8.5 16.644,-34 10.826,-18 10.634,-15 2.5184,-2.6575 2.5184,-2.6575 7.2246,-2.3843 0.67294,0.69933 8.9727,18 7.3438,17.822 4.0063,7.853 1.4016,7.3255 1.4016,7.3255 7.3087,13.674 4.6766,9 3.1179,11 3.1179,11 3.749,12.528 10.835,19.472 0.6639,5.9564 0.6639,5.9564 11.07,20.638 6.9896,21.45 1.0331,5.494 1.0331,5.494 12.638,25.012 2.2922,9 2.7455,8 3.1461,11 3.1461,11 2.3521,8 2.3521,8 2.1153,7.5 2.1153,7.5 10.787,34 3.8464,13 6.1838,27 1.9765,9 1.9764,9 1.1341,8 1.1341,8 1.3675,21 -0.77831,11 -0.77832,11 -3.8237,23 -3.1713,18 -5.1577,22 -3.7907,11.508 v 2.1568 l -6.0625,14.335 -1.3992,3 -1.3992,3 -7.4845,16 -11.806,21 -2.1744,3.564 -2.1744,3.564 -9.9533,13.872 -1.994,2.5 -1.994,2.5 -22.059,22.117 -16.906,11.883 -7.0943,4.3118 -21,11.746 -21.184,10.314 -11.816,3.9056 -31.481,10.285 -22.519,5.0424 -26,4.0244 -29,2.7754 -19.826,3.095 -26.174,-0.32007 z m 69,-18.194 6.5,-0.93662 27,-4.1687 22,-5.1564 17,-5.108 16,-5.6591 13.795,-5.1575 20.205,-10.145 9,-5.1596 12,-7.986 18.977,-15.053 17.407,-17.64 12.455,-15.442 9.869,-15 12.623,-26 5.0279,-13 4.9314,-15 5.1507,-19.454 5.0259,-24.822 2.4453,-19.724 -0.1612,-43 -3.1496,-21 -4.0671,-20 -2.5508,-10 -2.5508,-10 -3.8084,-13 -2.6359,-9 -2.6359,-9 -3.677,-12 -6.3475,-21 -11.774,-36 -9.8488,-28 -4.553,-12.5 -4.553,-12.5 -2.6022,-7 -2.6022,-7 -2.431,-6.2564 -2.431,-6.2564 -5.137,-13.487 -1.8494,-4 -13.214,-34 -15.013,-38 -2.4907,-6.5 -2.4907,-6.5 -10,-26 -4.5998,-12 -0.42504,-1.4196 -0.42503,-1.4196 -5.6518,10.839 -20.031,36 -22.204,36.634 -5.1318,8.3662 h -1.82 l -7.253,-12 -11.539,-22 -5.5001,-10 -15.063,-29 -51.532,-102 -4.3314,-8.6034 -2.0631,2.6034 -5.535,10 -6.0758,11 -7.9883,15 -6.8342,12.36 -6.8342,12.36 v 0.7118 l -16,29.136 v 0.84506 l -12.5,22.281 -6.7002,12.306 -10.589,18 -12.711,21.505 -4.2353,7.1591 -3.022,3.022 -13.603,-24.686 -22.367,-45 -3.2734,-6.75 -3.2734,-6.75 h -1.7254 v 1.9396 l -5.5948,12.78 -5.5948,12.78 -3.6109,8 -16.399,37 -1.7947,4 -1.7947,4 -23.46,52 -12.751,26.728 v 0.64363 l -20.199,41.628 -6.9004,17 -1.822,4 -7.1709,19 -3.7103,9 -2.1164,7 -6.1993,17 -5.0425,16 -3.9587,13 -5.9236,22 -5.068,26 -0.8787,5.1681 -0.8787,5.1681 -2.3767,32.664 1.3243,29.044 2.8972,17.956 4.9017,20 3.8204,14 5.38,15 3.9216,8.4782 0.0076,1.5218 11.743,23 10.182,16.718 8.5679,12.052 19.274,23.23 15.726,15.131 18.793,15.549 17.207,11.383 12,7.2297 16,8.3457 14,5.7643 13,4.7979 22,6.109 26,4.2282 21,1.8021 75,-0.79104 6.5,-0.93662 z m -76.5,-13.026 -7,-0.7389 -27,-3.4304 -10,-2.8804 -13,-3.22 -14,-4.659 -13,-5.3351 -21.798,-10.913 -11.202,-7.1889 -9,-6.0927 -18.875,-14.128 -20.957,-20 -6.5057,-7 -12.663,-15.256 -13.208,-19.744 -4.1132,-7 -8.9768,-18 -5.352,-13 -5.6739,-16 -6.0123,-22 -4.6644,-25 v -53 l 3.4224,-15 2.1335,-13 4.187,-18 5.918,-22 10.171,-32 2.6222,-6 6.9047,-18 6.2993,-14 25.599,-52 6.0074,-13 4.2364,-9.5 4.2364,-9.5 8.8214,-21 2.1374,-5 2.1374,-5 4.6659,-10.376 v -1.4924 l 1.9177,-4.0657 1.9177,-4.0657 13.445,-31 4.431,-10 3.7887,-8.4797 1.3809,-0.0204 8.8486,15.5 11.27,19.667 v 0.95667 l 2.5038,5.2927 2.5038,5.2927 1.9412,5.642 1.9411,5.642 -0.94791,5.8859 -0.9479,5.8859 -2.7335,7.7349 -8.5108,18 -8.4443,15 -11.017,21 -10.111,19 -14.258,27 -30.647,62 -4.1061,9 -4.9819,13 -6.0054,20 -4.1713,18 -3.3932,26 0.0058,41 3.3634,27 4.1806,18 5.9326,20 2.5354,6 2.5354,6 6.1084,12 13.046,19.716 21.879,22.759 15.287,11.525 7.0116,4.8135 17,10.326 18,8.6338 14,5.856 11,3.9914 17.247,4.6044 2.1362,1.3202 27.617,4.0929 20,2.0256 38,-1.1749 11,-1.8913 16,-2.2092 14,-3.9927 21,-6.8344 12,-4.9543 19,-9.7816 8,-4.7447 10,-6.8541 9,-7.1554 13.78,-13.072 14.332,-18 9.2391,-15.326 6.455,-14.674 8.3758,-23.007 2.5258,-10.993 2.5653,-8 3.4314,-24 0.47435,-0.77858 0.47436,-0.77858 1.6173,-33.485 -1.6308,-29.958 -1.6314,-10 -1.6314,-10 -2.7157,-13 -3.1939,-13.802 -5.871,-17.198 -5.776,-15 -19.444,-42.725 -0.90647,-1.6375 -0.90647,-1.6375 -11.335,-24 -30.441,-62 -2.714,-6 -2.7139,-6 -3.6358,-8 -1.2394,-5.367 -1.2394,-5.3671 0.56025,-5.4284 0.56026,-5.4284 12.009,-24.409 14.626,-22.088 11.773,-15.539 1.4642,1.6272 6.5768,16 4.3965,12 1.226,3 5.2073,14 2.8538,9 1.9241,4 5.08,15 5.08,15 1.9049,6 1.9049,6 11.164,32 3.8194,11 6.2362,17 3.7787,11 6.2213,17 3.7868,11 11.217,32 4.0442,13 5.0817,17 3.8332,15 2.7578,10 5.1342,24 3.1393,26 0.93153,13 0.93154,13 -0.57349,6.5 -0.5735,6.5 -1.9195,15.5 -1.9195,15.5 -2.0816,9 -2.0816,9 -4.9576,17 -3.0847,9 -3.0847,9 -11.925,24.683 -15.442,23.317 -15.937,18 -18.76,16.505 -22.128,14.818 -19,10.291 -17,7.6316 -23,8.2163 -17,4.8376 -12,2.3696 -10,2.7034 -19,2.2424 -12,1.9744 -54,0.73551 -7,-0.73889 z m -3,-63.194 -9,-0.83786 -19,-4.176 -18.92,-5.9836 -7.0798,-3.0739 -20,-9.6814 -10,-6.4155 -9,-6.0765 -16,-13.478 -11.042,-10.669 -9.2176,-11 -10.831,-16 -9.1997,-19 -3.5502,-11 -3.5502,-11 -3.0257,-11 -4.3768,-30 0.0488,-37 5.1586,-33.47 0.91146,-1.7648 0.91146,-1.7648 0.71249,-3.9395 0.7125,-3.9395 6.6808,-20.121 5.2352,-12.652 1.848,-3.3483 32.946,-66.279 9.3484,-17.721 13.054,-25 10.988,-21 11.036,-21 9.7006,-17.505 v -0.75185 l 8.6973,-15.743 8.6076,-16 0.79183,-1.5 0.79184,-1.5 16.221,-30 0.94758,-1.5 0.94759,-1.5 1.0391,-2.4242 1.0391,-2.4242 10.655,-19.152 9.5602,-18 15.904,-30 13.923,-23.5 2.3744,0.08854 11.317,17.411 8.9224,16 97.035,195 11.02,23 10.444,22 8.9413,19 3.6586,8 9.327,19.903 9.0267,21.097 5.728,17.053 2.944,11.947 2.0337,7 3.2158,21 1.025,7.5 1.025,7.5 -0.95598,45 -2.5099,13.671 -2.5099,13.671 -2.015,6.6585 -7.3926,23 -3.0076,7 -7.6885,16.519 -6.4065,9.4812 -10.5,14 -17.677,17.544 -21,15.07 -28,13.653 -15,5.0309 -21,5.0852 -19.421,2.1173 -48.579,-0.2703 z m 49.178,-57.932 7.8224,-1.0404 16.547,-5.0546 14.453,-6.6204 21,-13.918 15.429,-14.458 9.0825,-12.082 9.2907,-17.044 3.2613,-8.772 3.2613,-8.772 2.705,-12.849 2.705,-12.849 -0.0812,-37 -4.3362,-20 -6.9818,-16 -11.244,-17 -17.091,-17.136 -15.55,-11.48 -20.03,-10.028 -17.068,-4.948 -21.649,-1.8998 -28.703,1.9577 -23.22,4.839 -14.217,5.1283 -10.309,5.224 -10.255,7.1149 -8,6.4564 -8.7708,8.7708 -6.5275,8 -8.7873,13.147 -4.6495,10.427 -4.6496,10.427 -2.5316,9.7591 -2.5316,9.7591 -1.9874,24.482 0.90879,11.178 0.9088,11.178 0.67152,3.822 0.67153,3.822 5.6637,19.387 8.3925,17.613 8.0181,12 17.275,17 14.926,10.239 14,7.1391 9,3.8818 18.05,5.2553 11.95,1.7404 25.355,0.24388 7.8224,-1.0404 z"
     fill="#9b675c"
     id="path12" />
  <path
     d="m 267.9938,798.4662 -13.5,-2.3904 -23.956,-3.0668 -23.044,-5.0056 -18,-5.2181 -13,-4.5887 -21,-11.815 -22,-13.595 -20,-14.122 -10,-8.063 -9.7632,-8.9169 -14.615,-15.628 -10.681,-13.545 -9.9407,-14.532 -9.475,-14.468 -5.0848,-9 -6.8775,-11 -5.255,-17 -6.8556,-21 -1.8633,-4 -5.1193,-20 -3.7378,-19 -5.4103,-26 1.2337,-17 3.8103,-29 3.1846,-22 4.1007,-19 4.8215,-19.471 7.1644,-18.335 4.9658,-19.112 1.6247,-2.0818 7.1993,-22 4.1184,-14 10.141,-18 1.8765,-13 7.2439,-14 29.434,-58 2.706,-6.5 2.706,-6.5 8.5936,-21 12.451,-26 10.804,-25.339 v -1.5826 l 11.415,-25.078 12.28,-22 4.7657,-7.3507 4.7657,-7.3507 1.2738,1.3507 1.2738,1.3507 39.39,78 0.79447,0.82704 0.79447,0.82705 1.873,-2.8313 1.873,-2.8313 2.3866,-3.9914 18.113,-32.404 v -0.79044 l 14,-25.331 v -1.0444 l 8.7201,-15.431 9.0198,-17 6.4951,-12 12.855,-23 17.141,-28 2.3767,-4 4.6392,-7.5842 1.9878,0.66261 12.731,23.922 35.194,71 18.927,36 4.1094,7 11.302,18.608 3.9687,6.3789 0.66008,7.681 0.66009,7.681 0.66459,1.0753 0.66458,1.0753 h 9.4702 l 14.912,-31.357 12.702,-23.143 1.149,-2.0313 1.149,-2.0313 9.8715,-13.937 6.7222,-8.3203 8.1559,-3.2634 0.23376,0.29184 0.23375,0.29185 11.283,23.529 v 1.3398 l 1.8865,4.0657 1.8865,4.0657 3.047,7 3.047,7 0.98264,6 0.98263,6 11.734,21 4.2709,16 4.2842,16 12.04,22 0.86231,6.5136 0.8623,6.5136 10.93,20.973 3.6717,11 3.6717,11 1.0122,5.4714 1.0122,5.4714 12.065,22.935 2.263,8.0611 2.263,8.0611 5.0603,17 5.3091,18 4.7512,17 3.8928,13 3.4895,10.5 3.4895,10.5 5.4472,19 3.9909,17 4.8215,23 3.3233,19 v 39 l -3.2872,19 -5.0286,28 -4.8887,20 -2.0213,6.7932 -2.0213,6.7932 -2.6284,6.7068 -2.6284,6.7068 -17.692,36 -6.4541,10 -5.171,8 -6.0287,7.9521 -9.0036,11.048 -8.9964,9.6702 -19.122,15.472 -10.878,7.0288 -9.1164,5.8286 -38.884,19.278 -36,11.436 -9.1278,2.8229 -20.618,3.9968 -1.3191,0.81523 -44.935,5.2121 -20.373,2.9388 -38.627,-0.15435 z m 79.917,-14.482 19.583,-2.0262 22,-4.0434 13,-2.7613 18,-5.0378 13.586,-4.0023 13.414,-5.2294 13,-5.3209 16.898,-8.6963 13.411,-7.8324 20.692,-15.341 27.191,-27.183 8.7909,-12 2.4249,-3.5 2.4249,-3.5 9.3068,-16.032 8.1477,-17.968 5.2137,-13.341 v -2.7589 l 1.7493,-1.9 2.7211,-9.5 2.7211,-9.5 4.8914,-21 4.8318,-32.277 0.64052,-12.861 0.64053,-12.861 -2.1178,-22 -3.0353,-21 -4.2346,-19 -3.887,-14.5 -3.8869,-14.5 -5.1247,-17 -2.3133,-8 -2.3132,-8 -7.3817,-24 -12.759,-38 -4.9518,-14 -4.9518,-14 -9.0139,-25 -2.1363,-5 -4.9507,-13 -4.569,-11.75 -4.569,-11.75 -9.079,-23.5 -1.8321,-4 -13.194,-34 -1.7902,-4 -5.3421,-14 -4.6254,-12 -7.2526,-19 -4.2708,-10.543 -1.1567,1.2714 -1.1567,1.2714 -22.596,41 -14.003,24 -14.955,23.5 -1.2475,-0.002 -5.1528,-9.2489 -5.1528,-9.2491 -24.843,-47 -12.101,-24 -44.994,-89 -3.0749,-5.7055 -2.9631,4.7055 -31.218,56.6 v 0.81109 l -15,27.375 v 0.75642 l -25.295,45.458 -8.2981,14 -16.907,28.441 -1.8972,-0.57317 -10.683,-19.868 -30.95,-62 -1.4698,-0.45077 -8.8467,20.451 -17.734,40 -1.8385,4 -18.197,41 -1.3542,3 -1.3542,3 -6.3734,14 -7.0627,15 -5.495,12 -9.4425,20 -15.085,30.991 -5.8515,14.009 -3.731,10 -6.2578,16 -9.0595,25 -7.896,24 -3.8229,12 -5.9493,24 -4.1539,19 -1.5091,11.5 -1.5091,11.5 -2.1832,23 0.574,13.509 0.574,13.509 3.1707,19.981 2.9618,13 3.6001,15 8.5341,24.894 4.9825,11.106 6.017,13 11.121,19 10.166,15 13.608,17 16.084,17.547 25.313,21.197 26,17.18 24,12.163 18,7.1104 21,6.11 14,3.267 28,2.9837 13,1.6699 53.835,0.27156 z m -68.917,-14.55 -3.5,-0.40474 -22,-2.2391 -26,-5.5638 -14,-4.0545 -15,-5.8884 -20.013,-9.1725 -15.987,-9.6551 -13,-8.6737 -20,-15.677 -23.25,-22.595 -16.24,-20.591 -11.386,-17.409 -13.225,-26 -6.254,-16 -2.534,-7.6575 -2.5339,-7.6575 -5.9407,-23.685 -4.1356,-33.1 1.22e-4,-10.45 1.23e-4,-10.45 3.9781,-32 4.2093,-19 6.9709,-29 3.9995,-13 10.106,-30 8.5196,-21 6.4013,-14 28.579005,-58 11.34299,-26 3.842,-9 11.24601,-27 8.6909,-20 13.37299,-31 2.06961,-4.75 2.0696,-4.75 h 1.3693 l 18.026,31.5 3.9663,8 3.1209,7.8256 3.1209,7.8256 v 8.912 l -4.0271,11.954 -10.623,21.483 -15.616,29 -25.73,48.556 -30.736,61.791 -4.4556,10.827 -4.4556,10.827 -2.612,8.5 -2.612005,8.5 -2.9881,10 -5.6445,31 0.09888,59 5.4724,29.842 1.5156,5.0789 1.5156,5.079 7.065405,21.997 8.875,17.861 7.3491,11.143 11.423,15 17.685,17.134 16,12.044 19.246,12.097 20.754,10.008 14,6.0427 24.594,8.0803 25.406,4.9827 23,2.105 29,-10e-4 28,-2.1095 25,-5.765 16,-4.8174 21,-8.4032 20.583,-10.882 16.847,-11.21 16.013,-13.86 14.281,-16.444 7.4823,-11 4.1778,-7.395 4.1778,-7.3949 5.794,-14.21 2.5358,-6.5 2.5358,-6.5 2.56,-8.8484 2.56,-8.8484 4.8846,-23.303 1.2522,-9.5 1.2522,-9.5 -0.1602,-51 -3.2454,-21 -2.40441,-11.5 -2.4044,-11.5 -4.356,-15 -2.84789,-8 -2.8479,-8 -3.3617,-8 -2.6842,-6 -13.971,-31 -8.1546,-16.564 v -0.84051 l -31.241,-63.596 -13.48,-28 -5.279,-15.336 0.012,-5.6641 2.163,-8 5.3578,-11.129 5.3578,-11.129 17.938,-26.845 4.1726,-5.2788 4.1726,-5.2788 1.1141,1.1142 2.4189,5.773 2.4189,5.773 2.8889,8 1.96499,4 18.79701,53 14.394,43 37.066,104 11.66,38 3.91049,14 5.1413,22 3.14121,18 1.8406,11 2.11009,33.955 -1.09759,14.881 -1.09761,14.881 -1.66219,9.2826 -3.27471,18 -5.8831,21 -4.1542,12 -5.1014,13 -10.79399,21.614 -3.66241,5.3856 -5.8129,8.9914 -9,11.986 -18.958,19.728 -14.406,11.589 -22.637,14.918 -22,11.086 -14,6.0048 -24,8.1567 -20,5.1126 -24.603,4.9546 -18.397,2.0326 -58,0.76936 -3.5,-0.40475 z m 3.5,-62.118 -5,-0.33343 -25,-4.1012 -18,-5.1546 -17,-6.6026 -11,-5.3467 -16.659,-9.8251 -6.3167,-4.4424 -10.618,-8.4267 -14.094,-12.573 -12.984,-15 -10.624,-16 -9.1359,-18 -7.8713,-24 -2.5474,-12.5 -2.5473,-12.5 -1.1352,-15 -1.1352,-15 1.3919,-27 2.6948,-19 4.0499,-18.591 9.5306,-28.409 38.244,-77 16.963,-32 14.594,-28 8.4289,-16 17.511,-33 1.4719,-2 10.511,-20 15.071,-28 17.428,-32 9.5379,-18 8.0443,-15 19.196,-34.583 4,-6.9114 1.2944,-0.0054 11.911,18.5 10.985,20 93.093,187 11.45,24 9.0077,19 11.759,24.626 v 0.6691 l 11.047,23.705 1.9334,4 1.9334,4 2.4878,6 2.4878,6 4.8772,13 5.1159,17 2.2484,12 1.843,6 1.5404,13 1.5404,13 -0.035,39 -2.9605,23.778 -4.071,17.222 -3.3146,11 -8.0039,22 -8.8647,16.954 -10.186,14.735 -16.119,17.753 -14,11.558 -14.521,9.556 -16.479,8.6844 -15,6.1844 -16.979,5.3133 -21.021,3.9485 -16,1.6874 -41,-0.23466 -5,-0.33343 z m 44,-58.352 11,-2.0426 16.471,-5.8636 9.6416,-4.8858 17.957,-11.891 12.44,-10.353 12.615,-14.784 9.8747,-17.573 2.7771,-6.5304 2.7771,-6.5304 2.0714,-7.5 2.0714,-7.5 2.7104,-14 0.68725,-13.028 0.68725,-13.028 -1.2375,-13.472 -1.2375,-13.472 -5.6295,-16 -4.4528,-9 -10.63,-16.164 -16.808,-16.998 -11.787,-9.03 -16,-9.3447 -15.515,-5.9938 -14.485,-3.2958 -39,-0.0998 -22,3.4849 -6,1.8327 -16,5.3407 -10,5.0408 -13.715,8.9366 -14.835,14.092 -11.193,14.871 -4.8928,9.2939 -4.8928,9.2939 -2.8987,8.3695 -2.8987,8.3695 -2.0856,11 -2.0857,11 -0.004,28.085 2.4513,12.458 2.4513,12.458 5.6092,16 10.86,19.603 9.0888,10.397 16.039,14.614 14,9.0815 13,6.3834 16,5.6767 21,4.517 25,0.22446 11,-2.0426 z"
     fill="#a94632"
     id="path14" />
  <path
     d="m 277.4538,799.9662 -6.0382,-0.7894 -10.924,-2.2453 -28.212,-3.8144 -27.788,-6.0105 -15,-4.2197 -3,-1.183 -9,-3.2426 -21,-11.497 -18,-11.176 -16,-10.853 -10,-7.1075 -9,-7.2203 -17.767,-17.097 -14.903,-18 -1.1648,-1.5129 -1.1648,-1.5129 -17.199,-25.974 -14.238,-23.179 -5.1533,-16.821 -8.183,-24 -5.8573,-22 -3.8311,-20 -5.1686,-24 0.62882,-8 0.62882,-8 3.7616,-29 2.0609,-14.48 2.0609,-14.48 0.64983,-2.0196 0.64983,-2.0196 4.4486,-20 4.3735,-14.956 1.5366,-2.0443 5.1958,-15 2.9427,-12 6.3559,-16 3.9695,-15 2.9786,-8.9008 10.637,-19.099 1.4046,-12.98 1.625,-2.0198 16.533,-32 15.189,-30.196 4.4152,-9.8035 6.0848,-13.55 0.0678,-1.4499 3.8643,-8 0.0678,-1.7774 8,-16.723 7.8022,-16.5 5.1978,-11.559 0.006,-0.72037 0.006,-0.72036 1.3844,-2.6533 1.3844,-2.6533 2.4709,-7.6933 3.9411,-9 8.0049,-17 9.8974,-18 3.7696,-6.331 6.6994,-9.5238 2.153,-0.71765 20.555,40.572 20.346,39.873 1.0833,0.36108 1.0833,0.36109 14.107,-25.402 14.108,-25.402 v -0.98603 l 14,-25.331 v -0.90798 l 15.16,-27.357 0.95453,-2.1048 0.95454,-2.1048 2.9136,-5 2.9136,-5 3.8706,-7 1.9232,-3.5 1.9232,-3.5 6.5342,-11 10.353,-17.228 9,-14.191 1,-0.068972 3.7751,6.4874 7.0185,13 21.485,43 20.229,41.000002 10.597,20 9.4737,17 1.2108,1.9907 1.2108,1.9907 6.1328,10.019 5.7296,9 1.4955,17 0.1422,0.5 h 10.822 l 2.2328,-4.75 2.2328,-4.75 15.063,-31 10.909,-19 10.696,-15 5.5452,-6.3598 7.8071,-3.1665 0.0965,0.26312 0.0965,0.26313 7.3594,15 3.9055,9 6.4703,15 3.5444,8 0.73581,5.5 0.73582,5.5 8.4265,15 1.7718,3.5 1.7718,3.5 3.555,13 2.6683,9.5 2.6683,9.5 1.5768,3 11.31,21.303 -0.0191,4.3486 -0.0192,4.3486 13.205,26.232 5.0016,16.768 3.5855,15 8.9588,16 4.1617,11 4.9376,17 5.0167,17 5.3667,19 5.9294,20 3.75,11 6.2914,21 3.0143,9.9283 3.8854,17.072 2.4917,12 2.4917,12 2.8189,17.311 1.3741,23.689 -2.4112,26 -1.9851,9 -2.3628,13.5 -2.3628,13.5 -4.954,20 -4.3398,16 -1.5103,2 -3.4473,9 -3.3693,7.9846 -16.43,32.525 -2.0394,2.4906 -13.304,20 -10.118,11.724 -5.054,5.138 -5.0542,5.138 -12,10.21 -16,10.977 -27,14.885 -21.173,10.429 h -2.4053 l -32.422,10.812 -14,4.1142 -17,3.0624 -9,1.8543 -38,4.2079 -20.257,2.9496 -35.743,-0.25361 z m 68.038,-15.526 13,-1.5751 21,-2.738 16,-3.167 20,-5.239 21,-6.4941 23.651,-9.2942 20.349,-10.61 8,-4.7617 6.0116,-4.0521 14.988,-11.316 14.919,-13.146 16.717,-18.538 11.463,-16 9.9482,-18 6.2204,-13 0.7387,-2.5 0.73871,-2.5 0.70789,-1 0.7079,-1 6.1925,-18 4.9978,-17 5.21,-23 2.9733,-21 1.1654,-13.656 1.1654,-13.656 -1.0825,-14.344 -1.0825,-14.344 -4.174,-26.891 -0.98034,-3.0544 -0.98034,-3.0544 -1.9385,-8.5 -1.9385,-8.5 -3.2771,-12 -4.9373,-16.492 -2.4662,-8.2542 -2.4661,-8.2541 -3.6522,-12 -3.6522,-12 -1.765,-6 -1.765,-6 -11.544,-34 -4.5244,-13 -6.2421,-17 -1.465,-4.5 -1.465,-4.5 -2.9666,-6.3023 v -1.2408 l -7.1377,-18.457 -4.8305,-12.513 -5,-13 -5.2579,-13.394 -2.7284,-6.0937 -7.1242,-19 -1.8324,-4 -13.251,-34 -2.3003,-6 -2.3003,-6 -5,-13 -2.6663,-7 -2.6663,-7 -3.208,-7.5 h -1.4485 l -7.5747,14.5 -15.967,29 -14.996,25 -13.932,22.5 h -1.6438 l -1.2811,-4.0365 -7.5614,-12.463 -13.675,-26 -11.592,-22 -51.851,-103 -8.9114,-16.65 -4.2633,5.4199 V 40.2 l -3.697,5.3087 -21.604,40 -3.4718,6.5 -3.4718,6.5 -9.0576,17 -7.6979,13.679 v 0.79595 l -14.216,25.525 -4.4422,8 -15.07,26 -12.773,21.404 -1.1099,0.0956 -14.137,-25.657 -28.44,-57.343 -1.3129,0.0516 -3.303,7.4484 -11.414,26 -20.003,45 -27.062,60 -10.719,22.5 -11.201,23.5 -9.6368,20 -10.9,27 -1.4844,5 -2.7108,6 -8.345,23 -5.8557,17 -4.9929,16 -4.9797,18 -2.8859,12 -4.0135,18 -3.1409,23 -2.227,29.5 2.2835,29.5 2.9415,16.575 6.3478,25.425 4.9429,15 5.0866,13 9.4187,20.047 8.6801,14.953 11.597,17.452 15.117,18.988 17.459,18.347 17,14.218 12,9.1322 18,11.707 28,14.323 9,3.2584 17,6.1126 24,5.8741 17,2.1903 23,2.654 60,0.24837 z m -71.631,-15.457 -10.631,-0.89441 -22.737,-3.9538 -9.4956,-2.1337 -17.504,-5.0547 -11,-4.0018 -9.9583,-4.436 -23.017,-11.574 -22.025,-14.805 -21,-16.873 -20.573,-20.514 -13.099,-16.233 -15.835,-23.785 -12.845,-26.215 -5.2611,-14 -4.1498,-13 -6.6422,-26 -1.5102,-12.5 -1.5102,-12.5 -1.2586,-22 3.264,-32 2.9868,-14 2.9638,-15.256 6.85,-25.744 3.3074,-12 7.793,-23.495 7.0941,-18.505 10.222,-23 22.43,-45 18.43,-41 2.8428,-6.3023 v -1.1385 l 4.8033,-10.559 10.382,-25 5.8774,-14 1.3884,-3 1.3884,-3 6.0804,-13.61 6.0804,-13.61 v -2.0347 l 2.655,-2.2035 4.7234,8.4586 10.695,18 7.7121,16 4.3702,10 0.53617,5.0011 0.53618,5.0011 -2.7457,7.9989 -2.7457,7.9989 -9.4361,19 -10.301,18.505 v 0.75185 l -8.6595,15.743 -12.649,24 -7.9312,15 -29.524,59 -3.0105,6.5 -3.0105,6.5 -3.3868,8 -5.6007,16 -5.1603,18.353 -2.7839,14.324 -2.7839,14.324 0.02458,62 5.5607,29 2.018,7.5 2.018,7.5 2.9503,8.3325 2.9503,8.3325 7.9026,16.558 14.459,21.777 21.116,21.695 20.417,15.305 15.583,9.8247 24,11.388 7,3.0955 16,6.0683 14,4.0702 23,4.8705 24.344,2.1828 h 30.543 l 28.113,-2.1431 26,-5.9079 23.928,-8.1682 12.622,-5.7808 h 0.98461 l 18.465,-10.283 16,-10.44 15.908,-13.802 15.786,-17.876 11.159,-17.098 9.2958,-20 6.1853,-18 3.4539,-11 3.7582,-17 2.7875,-15 1.2238,-15.5 1.2238,-15.5 -1.214,-34 -2.1128,-17 -5.053,-25 -4.0219,-14 -2.5978,-7.5 -2.5978,-7.5 -3.2247,-8 -3.2247,-8 -15.981,-35 -7.5299,-16 -16.454,-34 -27.273,-55.392 -5.357,-14.608 -0.1314,-11 5.4074,-13 2.8898,-5.5154 2.8898,-5.5154 9.6693,-15.969 6.9969,-10 10.988,-14.865 3.0231,6.8648 1.2929,3 1.2929,3 9.1894,24 10.982,31 14.213,42 4.4218,13 30.427,85 11.593,35 6.0338,20 4.0841,15 2.546,11 2.5459,11 5.1039,29.998 1.7357,33.894 -1.8871,26.108 -2.488,14 -2.488,14 -2.5887,9.5 -2.5887,9.5 -5.6574,17 -5.3056,12.878 -4.5243,9.0084 -4.5243,9.0084 -12.408,19.105 -15.156,18 -14.718,14.173 -19,13.926 -16,9.9982 -29,14.307 -12,4.1755 -17,5.7059 -19,5.0185 -26.269,5.189 -18.731,2.0516 -55,0.82486 -10.631,-0.89441 z m 55.631,-11.941 10,-0.8792 31,-4.1018 17,-4.109 18,-5.0992 12,-4.1497 17,-6.5479 21,-10.801 10.753,-6.443 12.247,-8.2543 14,-11.389 16,-16.759 11.674,-15.583 8.1594,-13.417 9.4569,-19 5.8878,-15 5.1736,-16 5.1339,-21.601 1.5818,-11.199 1.5819,-11.199 0.52668,-19 0.52669,-19 -2.0911,-15.5 -2.091,-15.5 -2.5296,-11.5 -2.5296,-11.5 -4.205,-16 -5.9465,-21 -5.8105,-18 -5.8105,-18 -10.343,-29 -2.2854,-6.5 -2.2853,-6.5 -10.487,-29 -4.5734,-14 -15.4,-44 -3.7171,-11 -5.8458,-16 -4.5327,-12.5 -4.5327,-12.5 -2.891,-7 -0.68253,-1.9227 -0.68252,-1.9227 -2.8605,4.0839 -15.327,26.761 -7.6939,13.353 25.168,50.647 19.027,39 10.757,22.617 v 0.65772 l 12.21,25.565 6.9758,16.161 8.7459,20.78 6.2601,20.15 1.9703,7.5351 1.9703,7.5351 4.9192,29 2.1882,25 -0.53721,18.5 -0.53722,18.5 -5.3131,33 -2.5068,9.5 -2.5068,9.5 -2.4667,8 -2.4668,8 -5.1396,13 -9.4795,19 -6.7052,10 -10.938,15 -21.175,21 -16.519,12 -13.449,7.7653 -19,9.5693 -11,4.2816 -17,6.1398 -18,4.9006 -29,4.9438 -28,1.8297 -33.206,-1.8883 -27.794,-4.9214 -19,-4.9987 -20.771,-7.2451 -17.229,-7.7634 -10,-5.3201 -14,-8.1234 -16,-11.009 -12,-9.8882 -13.76,-12.272 -14.98,-17.854 -9.0748,-14.146 -8.2046,-16 -4.4466,-11 -5.1352,-15 -5.9962,-25 -3.8775,-34 -0.01248,-17.634 -0.01247,-17.634 4.0614,-30.733 5.0535,-21 4.1021,-13 5.6934,-16 6.4956,-16 34.317,-68 13.537,-26 8.9724,-17 12.05,-23 0.72591,-1 0.72592,-1 13.138,-25 4.5545,-8.2768 -15.926,-31.211 -1,-0.004 -9.4029,18.491 -8.3303,18 -8.884,21 -2.6418,6 -2.558,6 -2.5581,6 -7.2696,17 -7.3192,16 -21.271,43 -2.5399,5.5 -2.5399,5.5 -3.973,9 -11.014,28 -9.0397,27 -5.9151,22 -4.215,18 -5.4486,31 0.02102,48 5.5796,28 5.1199,18 10.52,26 8.4002,16 7.2569,12 12.855,18 15.168,17.836 23.769,21.669 19.231,13.745 15,8.8955 16,8.1474 17,6.9337 13,4.1904 20,4.9317 35,4.1575 10,0.6344 28,0.27332 10,-0.87919 z m -45,-49.666 -5,-0.40496 -27,-4.1361 -20,-5.896 -15.871,-6.3318 -17.129,-8.7559 -22.952,-15.343 -25.62,-24.817 -12.566,-17.183 -9.4399,-16.856 -5.0319,-12.578 -5.7698,-18.566 -2.5246,-12.548 -2.5246,-12.548 -1.1053,-16.025 -1.1053,-16.025 2.2012,-31.479 2.4699,-12.688 2.4699,-12.688 5.117,-17 4.663,-13 2.3555,-5.5 2.3555,-5.5 40.224,-80 8.9837,-17 14.594,-28 16.469,-31 14.46,-27 10.778,-19.522 v -0.75815 l 13.651,-24.72 10.607,-20 14.02,-26 10.722,-19.521 v -0.95711 l 11.26,-20.522 10.985,-18.585 2.2547,0.70971 10.584,15.875 9.3384,17 83.819,168 20.019,41 13.74,28.606 v 0.65575 l 12.784,26.738 17.258,37.819 8.921,26.7 4.1302,19.481 2.9508,16 0.61598,22.519 0.61597,22.519 -1.2225,11.981 -1.2225,11.981 -4.9318,23 -5.7884,18.566 -2.6742,6.7168 -2.6742,6.7168 -6.634,14 -12.628,19 -22.38,23.092 -15.62,11.237 -13.397,8.1302 -20.239,9.0963 -20.364,6.7542 -11,2.1877 -17,3.1293 -49,0.64551 z m 50.985,-14.39 9.9853,-0.97074 20.029,-4.1167 19,-6.1489 20.703,-9.8065 17.297,-11.404 24.03,-24.03 11.783,-17.866 10.431,-21.134 5.0929,-16 2.526,-9.5 2.526,-9.5 4.1107,-29.913 v -31.491 l -4.1013,-28.596 -5.0268,-19 -5.0716,-16 -2.4718,-6.5 -2.4718,-6.5 -6.0966,-15 -8.539,-18 -12.474,-26 -21.4,-44 -10.847,-22.96 -72.445,-145.04 -19.247,-37 -1.6217,-1.7138 -2.8865,4.7138 -15.07,26 -35.906,65 -12.632,24 -3.7095,7 -3.7095,7 -9.5348,18 -9.4529,18 -7.9819,15 -20.025,38 -14.054,27 -8.5006,16 -13.83,27 -7.1515,16 -3.5467,8 -6.9413,18 -3.2142,10 -4.9011,19 -1.3022,9 -1.3023,9 v 45 l 2.5371,18 5.0086,20 5.8475,16.404 6.9372,14.619 12.486,18.977 27.15,27.014 14.675,9.7309 18.918,10.714 12.407,5.1694 11,3.9802 25,6.0231 20,1.5844 38,0.23309 z m -43.985,-29.634 -3,-0.3567 -16,-2.1569 -23.214,-7.664 -16.786,-8.4209 -17.744,-12.131 -15.728,-14.796 -9.6904,-12.318 -7.3089,-12 -7.0596,-17 -5.0101,-16.425 -1.6119,-10.287 -1.6119,-10.287 -0.0424,-27 3.2598,-20.532 2.1765,-7.2341 2.1765,-7.2341 5.5728,-14 5.6651,-11 5.7438,-9 12.452,-16.026 12.98,-12.143 9.7811,-6.6138 18.129,-9.6976 11.871,-4.1208 6.6562,-2.0364 12.344,-2.7924 14,-3.4549 40,0.012 14,3.172 15,4.42 20.639,9.8142 13.361,9.1088 15.551,13.231 11.063,13.281 8.236,11.845 9.7395,20.774 5.3476,20.226 0.063,49 -4.6229,20 -5.1684,16 -2.9568,6.5 -2.9568,6.5 -7.6717,13.138 -4.4843,5.9311 -4.4843,5.9311 -9.6548,10.202 -12,9.9328 -15.486,10.316 -11.514,5.8998 -12,4.934 -16,5.0004 -20.578,2.2156 -18.422,-0.29966 -3,-0.3567 z m 41,-15.268 9,-2.2073 13,-5.1112 10,-5.0341 19.633,-12.975 16.916,-16.012 11.971,-17.897 7.7762,-16.339 6.1494,-21 1.0529,-6.5 1.053,-6.5 0.60744,-13.5 0.60745,-13.5 -1.2039,-12.5 -1.2039,-12.5 -2.5601,-7.5 -2.56,-7.5 -6.8351,-13 -4.403,-7.1477 -10.685,-13.369 -17.077,-15.194 -13.238,-8.5345 -12.41,-6.2387 -12.831,-4.8297 -15.759,-2.3168 -13.348,-2.0255 -33.652,3.3085 -14,2.6125 -13.96,4.2245 -7.0401,3.1572 -11.924,6.0595 -14.234,10.713 -15.437,16.158 -10.58,16.423 -3.502,8 -3.502,8 -3.2962,8 -5.156,24 -0.0318,32 5.0875,23.55 4.8617,13.478 5.8813,11.972 6.4353,10.763 11.208,12.687 15.189,12.55 6.1469,4.2988 16.853,9.0883 16.991,6.2438 14.009,3.1074 7,1.641 34,-0.5961 9,-2.2073 z"
     fill="#8a3523"
     id="path16" />
  <path
     d="m 281.4938,800.0362 -9,-0.82624 -12,-3.0134 -20,-2.2638 -27,-4.9813 -15,-4.1009 -19.416,-5.9914 -22.287,-12.358 -7.2972,-4.3671 -7,-4.2006 -8.4856,-5.4323 -11.514,-7.9864 -14,-10.436 -10,-8.5776 -14,-14.031 -8.4084,-9.9693 -10.592,-14.395 -8.5853,-12.605 -10.415,-16.529 -5,-8.285 -4.3384,-6.5368 -3.9464,-13.649 -4.2413,-14.569 -1.8081,-3.431 -5.051,-15 -4.1915,-18 -4.7525,-24 -3.2816,-15 0.17882,-17 2.994,-21 4.8201,-35 4.9927,-23 4.8972,-17 6.4029,-16 2.8347,-13 1.9446,-4 5.2461,-14 3.7214,-13 2.9777,-10.547 10.062,-17.849 3.2087,-15.604 8.727,-17 10.931,-21 7.1841,-14.401 1.9834,-4.599 1.9524,-3 7.258,-16 2.732,-6 6.0625,-14.335 v -1.2886 l 5.2737,-11.376 9.9176,-21 3.6068,-8 5.1175,-12 3.4615,-9 3.4615,-9 5.1838,-10.466 5.1838,-10.466 9.0333,-16.067 8.9451,-13.716 1.6905,1.7155 9.374,18 26.149,52 0.57872,0.5 0.57871,0.5 3.7921,8.5966 1.581,0.97713 5.4594,-8.5738 4.1123,-7.2779 9.5,-17.03 v -2.1922 h 1.6966 l 3.2414,-7.5 6.6893,-12 13.239,-25 5.6341,-10.917 2.3781,-2.6039 2.5237,-6.979 h 1.4634 l 1.3963,-4.5 17.934,-32 8.6713,-15 1.9204,-2.1878 3.4257,-6.6245 0.96885,-1.0939 0.96886,-1.0939 2.3894,-4 2.3894,-4 3.4411,-6.5 h 1.2686 l 2.8609,5.6119 4.784,9.8881 1.216,1 28.5,57.182 v 2.3176 h 2 v 2.1953 l 8.3871,17.305 1.2506,1 3.5438,8.9942 1.3185,1.0058 9,18 0.57834,0.5 0.57833,0.5 3.1304,6 3.0764,5.5 3.0764,5.5 4.2447,7.7819 0.95061,1.1091 0.9506,1.1091 6.7621,10.696 0.64593,7.6519 0.64594,7.6519 0.41809,1.3003 0.4181,1.3003 11.317,-0.60053 0.82907,-1.5 0.82908,-1.5 12.049,-25.489 v -1.8442 l 0.75,-0.33334 0.75,-0.33333 9,-18 1.2209,-1 1.6385,-3.1983 1.6385,-3.1983 5.9856,-8.6034 6.0232,-8 3.4305,-5.3271 2.5313,-1.4873 2.5313,-1.4873 4.9865,-0.69825 8.0135,16.155 4.5,10.129 v 1.3403 l 4.8148,10.376 3.9647,9 0.72717,5.418 0.72716,5.418 11.671,21.164 6.1714,22 2.8256,11 12.367,22.594 0.68565,6.2029 0.68566,6.2029 7.5348,14 1.5616,2 4.3653,12 5.1436,17 0.91814,4.5 0.91815,4.5 1.6228,3 9.0564,17 4.0918,13 4.9603,17 5.3116,18 3.8133,13 2.2297,9 3.5008,10.5 3.5007,10.5 2.483,8 2.483,8 4.9738,18 5.0251,22 5.0419,25 1.7776,12 0.0761,16.227 0.0761,16.227 -1.2739,12.546 -1.8026,6 -3.9072,25 -4.97,22 -4.2722,16 -4.7548,12 -5.2682,12 -4.9318,11 -1.9288,3 -0.95783,2.2105 -0.95783,2.2105 -8.3615,14.579 -2.2497,4 -7.9684,11.838 -2,3.1147 -14.256,17.047 -12.744,12.063 -9,7.13 -13,8.8901 -10,5.8684 -16,8.5842 -24.638,11.964 h -1.9039 l -30.458,10.284 -14,3.8127 -20.054,3.706 -7.9459,2.0815 -25,2.2409 -15,1.8591 -10,1.976 -36,0.90072 -9,-0.82625 z m 68.5,-15.559 11.5,-1.3609 22.671,-3.1437 8.329,-2.0532 18.638,-3.9878 3.3619,-1.7949 13.962,-3.2741 1.0191,-0.81536 1.0191,-0.81535 7,-1.4937 10.372,-4.7373 h 2.1885 l 28.44,-13.852 14,-8.4716 0.33333,-0.83824 0.33334,-0.83824 h 2.1401 l 23.597,-19.088 9.5963,-9.4244 12.789,-14.383 10.211,-14.054 2.7287,-4.3723 2.7287,-4.3723 10.543,-20.937 1.701,-3.9347 1.701,-3.9346 2.447,-6.5 2.447,-6.5 2.1812,-6.5 2.1812,-6.5 3.5881,-15.281 0.65841,-1.0653 0.65841,-1.0653 2.5941,-14.294 2.5941,-14.294 0.84847,-5 0.84846,-5 1.307,-38 -2.2851,-25 -4.0401,-21 -3.1281,-13 -2.8635,-13 -3.7906,-12 -4.9603,-17 -5.0335,-17 -6.3549,-21 -4.9527,-16 -2.084,-5 -1.8366,-6 -1.8366,-6 -2.5347,-7.5 -2.5346,-7.5 -1.8808,-4 -2.3755,-8 -2.5748,-6 -4.4252,-13 -1.7829,-5.1049 -1.7829,-5.1049 -1.0373,-1.8951 -1.0373,-1.8951 -2.9839,-9 -6.2732,-16 -3.733,-10 -3.1654,-8 -3.1654,-8 -2.9561,-8 -1.3664,-3 -1.3664,-3 -7.1384,-19 -1.3808,-3 -1.3808,-3 -1.257,-3.5 -1.257,-3.5 -1.28,-3 -1.28,-3 -5.3768,-14 -4.6254,-12 -7.2755,-19 -4.951,-13 -0.9252,-2.2303 -0.92519,-2.2303 -2.9847,1.1453 -1.3427,4.2305 -26.117,47.085 -0.63019,0.5 -0.6302,0.5 -8.5056,15 -4.7724,8 -2.0418,3 -4.9606,7.4767 -2.9318,5.5233 -4.2746,-9 -7.0612,-12 -12.105,-23 -8.9461,-17 -16.733,-33 -1.6896,-2.0577 -3.6061,-9.4423 h -1.3332 l -1.798,-5 -1.798,-5 h -1.404 l -1.798,-5 -1.798,-5 h -1.404 l -1.798,-5 -1.798,-5 h -1.404 l -1.798,-5 -1.798,-5 h -1.479 l -2.7276,-8.2646 -2.0926,-2.2444 -14,-28.415 -3,-0.0556 -3.564,7.4797 -5.821,10 -2.5396,5 -18.866,34 -2.8505,6 -2.7474,5 -2.7474,5 -13.601,26 -2.4585,3 -1.0648,3.0401 -17.932,31.96 -3.8068,6.9985 -1.1186,1.0015 -5.0478,9 -2.029,3.5 -2.029,3.5 -3.1227,5 -3.1227,5 -3.4006,6.5 h -1.2592 l -3.3705,-6.5 -10.003,-18 -27.997,-56.354 v -2.1456 h -2.7537 l -4.4156,10.5 -3.6508,8 -5.1799,11.193 v 1.433 l -3.1285,6.687 -3.1285,6.687 -3.8683,9 -3.7339,8 -6.1408,13.374 v 1.252 l -3.1285,6.687 -3.1285,6.687 -3.5741,8 -6.3377,14 -3.6623,8 -6.3548,14 -2.3198,5 -2.3198,5 -8.9633,19 -14.421,30 -6.9275,15 -2.7456,6 -4.954,13 -5.0255,13 -7.1377,18.457 v 1.5044 l -4,10.539 -3.8235,10.5 -6.3022,21 -4.6743,16 -3.4307,14 -4.7971,26 -1.5584,14 -1.5584,14 0.59471,21.5 0.59472,21.5 1.7512,10 5.1461,22 4.9323,18 4.9386,14 5.2067,12.509 5.5841,11.491 9.5208,17 5.3753,8.4856 7.9606,11.514 11.039,13.883 8,8.9906 17,17.199 21,16.99 18,11.858 4,2.2298 14.408,8.1949 16.592,7.3288 6,2.5937 19,6.1564 14,4.0696 21,3.168 12,1.9221 37,1.7481 44,-0.99595 z m -68,-15.459 -15.5,-0.79684 -8,-2.0718 -19,-2.3635 -8,-2.5676 -15,-3.4906 -2,-1.4661 -8,-2.5153 -12,-4.9313 -22,-11.024 -8,-4.7121 -3,-2.02 -9.4413,-6.5585 -8.5587,-5.9269 -16,-13.344 -19.169,-18.73 -12.358,-15 -3.0267,-4 -10.55,-15 -10.091,-18 -9.4994,-21 -5.6085,-16 -5.1316,-17.072 -5.1219,-24.928 -2.3465,-32.5 1.1687,-16.25 1.1687,-16.25 4.1332,-21 6.1911,-27 3.8698,-14 6.0925,-20 3.5975,-10 5.5163,-15 5.7934,-14 4.371,-9.9015 23.272,-47.098 11.228,-23.616 v -1.0094 l 2.4452,-5.187 2.4452,-5.187 3.1039,-7.5 3.1039,-7.5 3.9019,-8.2191 v -1.2217 l 5,-10.931 v -1.0689 l 4.7686,-10.559 6.2314,-14.335 v -1.2886 l 5.1056,-11.376 2.7652,-6 4.985,-11 5.2149,-11.909 14.165,23.909 9.5527,19 5.2115,14.042 v 2.742 l -4.2153,14.216 -5.9032,13 -5.3508,10 -6.4449,12 -8.2879,16 -1.5304,2 -13.651,26 -16.567,32 -21.852,44 -8.276,17.625 -4.9964,13.375 -4.9477,16 -5.9472,26.423 -1.0009,8.7883 -1.0009,8.7883 -0.63966,14.5 -0.63966,14.5 2.3889,32.753 2.8146,15.247 3.8552,17 2.1973,7 2.1972,7 4.9785,13 9.5326,18 4.7867,7.0116 11.352,14.988 18.665,18 15.928,12 13.055,8.4074 10.028,5.6448 24.972,11.291 9,3.8736 16,5.1997 13,3.2159 7,1.7508 29,3.6167 h 38 l 28,-2.6548 12,-2.7456 13,-3.2048 15,-5.0422 13,-5.0847 19,-9.1451 8,-4.9688 16,-10.572 16.472,-14.109 14.109,-16.472 10.918,-16.138 v -1.5529 l 3.7454,-5.3087 5.3184,-13 5.7714,-15 5.1512,-17 3.8651,-16 1.1372,-8.5 1.1372,-8.5 1.001,-5.5 1.001,-5.5 1.133,-36 -1.1343,-10 -1.1343,-10 -2.9407,-22 -4.2326,-18 -4.9352,-17 -5.2523,-14 -6.8038,-16.803 -1.7612,-3.1969 -6.2353,-14 -2.0499,-4.5 -2.0499,-4.5 -9.9292,-21 -15.035,-31 -24.533,-50 -5.3694,-11.478 -3.8651,-13.515 v -6.118 l 2.0107,-5.9442 2.0107,-5.9442 3.4734,-6.5 3.4734,-6.5 0.98292,-2.2282 0.98293,-2.2282 13.566,-20.406 2,-3.1846 9.7639,-12.644 1.7066,2.691 3.2942,10 1.7668,2.2428 1.5863,5.3786 1.5863,5.3786 0.75799,1 0.75798,1 2.258,6.5 2.258,6.5 1.8824,5.5 1.8824,5.5 1.9198,4 8.1583,25 1.8348,4 13.159,40 1.9058,4 3.8961,12 6.1733,17 3.7821,11 6.2282,17 3.146,10 1.5806,2 4.1058,13 4.2592,13 0.93794,2 0.93793,2 3.8213,13 5.2247,17 5.1518,19 1.3828,6 1.3828,6 3.9864,17 5.0246,37.731 v 30.927 l -5.0956,35.342 -5.0678,21 -2.9667,9 -2.9667,9 -2.5556,6.5 -2.5557,6.5 -8.1234,17 -12.004,19.869 -1.2742,1.5655 -1.2742,1.5655 -12.874,16 -17.747,17 -6.9949,5.6164 -12.488,8.8979 -13.512,8.3567 -23,11.748 -18,6.908 -10,3.8546 -9,2.2017 -4,1.7538 -27,6.2058 -20,3.106 -17,1.6921 -37,0.97283 z m 69.5,-13.42 10,-1.4026 22,-4.162 8,-2.9451 3.6658,-0.0878 33.334,-11.222 5,-2.6222 23.477,-11.365 24.523,-16.323 5,-3.9295 24.067,-24.038 12.203,-17 12.895,-23.054 1.8589,-4.973 1.8589,-4.973 2.3372,-4 6.1496,-18 4.0484,-14 3.2893,-17 0.82906,-4 0.82907,-4 2.4165,-35.336 -1.151,-16.5 -1.151,-16.5 -2.0036,-9.6637 -4.8134,-23 -4.2652,-17.939 -2.7326,-9.061 -2.6838,-9 -2.6838,-9 -3.5017,-11 -3.5017,-11 -1.7144,-4 -8.0876,-24 -2.863,-8 -2.863,-8 -13.266,-36.859 v -1.8385 l -2.8863,-6.3023 -8.1929,-25 -1.7634,-4 -8.3053,-25 -2.6724,-6 -2.3754,-9 -1.4825,-2 -8.6439,-25 -0.70672,-1 -0.70671,-1 -3.5293,-11 -1.962,-2.478 -1.5661,0.96788 -14.39,25.51 -9.7764,17 -0.0206,1.4449 -0.0206,1.4449 25.949,52.42 19.809,40.69 4.2379,9 4.2379,9 21.023,46 4.8838,12 5.6412,16 5.4332,19.482 3.8406,18.518 3.1898,23 0.027,53 -3.2169,23 -4.9682,23 -3.8776,13 -2.6774,8 -2.6774,8 -4.031,9 -5.4342,11 -5.821,10 -9.5982,14 -16.254,18.446 -11.217,9.6823 -13.519,10.294 -14.481,8.4674 -15,7.7484 -16,6.6053 -5,1.4787 -6,2.6958 -15,4.2349 -26.777,5.7262 -21.07,2.1206 -39.153,-0.0516 -19.13,-1.862 -25.663,-5.1962 -18.207,-5.0925 -13,-4.908 -12,-5.1049 -11,-4.8609 -3,-1.8366 -14.099,-7.9189 -15.901,-10.445 -14,-11.193 -3.8414,-3.0306 -17.357,-17 -9.9319,-13 -9.3426,-14.395 -9.7242,-20.605 -7.1936,-22 -1.5768,-5.256 -1.5768,-5.256 -4.18,-25.488 -0.81658,-7.5 -0.81658,-7.5 -0.03446,-44 0.9136,-7.5 0.9136,-7.5 4.8601,-25 4.3029,-16 2.902,-6.3023 v -2.2408 l 7.1453,-18.457 3.2897,-8 40.281,-80 8.5345,-16 9.492,-18 13.504,-26 1.4898,-2 12.524,-24 2.9752,-5.1691 -16.426,-32.331 h -1.8278 l -16.8,34.5 -3.1398,7.5 -3.1398,7.5 -3.9019,8.2191 v 1.2309 l -6,13.1 v 1.2309 l -1.9295,4.1095 -1.9295,4.1095 -5.141,11.376 v 0.92275 l -12.131,25.701 -17.719,35.323 -6.3687,14.677 -2.6409,6 -5.9972,15 -4.8844,13 -4.4465,12.72 -3.9173,13.28 -5.0677,18 -4.7273,22 -1.9766,8 -3.5714,27 -0.05206,34 3.5071,26 1.8451,7 4.2,17 2.9478,6.3023 v 2.3582 l 10.934,25.7 11.209,19.639 4.2352,7 11.122,15 3,3.8138 13.375,15.419 19.625,18.082 12,9.3126 21,13.885 26,12.906 18.457,7.0809 h 1.7825 l 12.369,3.9514 17.392,3.2333 10.213,1.798 22.787,1.8717 57,-0.85434 10,-1.4026 z m -54.583,-47.993 -0.41667,-0.39576 -28.597,-2.335 -15.403,-2.6956 -16,-4.2418 -4,-1.9222 -9,-3.096 -7.9045,-3.418 -13.272,-7 -8.8233,-4.7687 -1,-1.4319 -4.7505,-2.5039 -9.2495,-7.0447 -9.982,-8.2509 -16.151,-16 -9.8669,-13.057 -4.2097,-5.9692 -11.077,-20.974 -2.4743,-8 -1.5606,-2 -3.2329,-13 -1.9732,-4.654 -4.101,-24.346 -1.8063,-13 v -36 l 1.8064,-13 3.9017,-23 3.3655,-11 7.0382,-22 1.5622,-2 2.2598,-7 38.68,-77 11.607,-22 9.4511,-18 11.627,-22 10.658,-20 4.4781,-9 2.5,-2.6429 v -1.9592 l 15,-27.122 v -0.91662 l 17,-30.547 v -2.3124 h 1.8652 l 1.3775,-4.5 15.869,-29 2.2592,-4 6.3533,-12 10.355,-19.738 13.109,-23.262 2.2558,-3.7994 2.2558,-3.7994 0.9433,-0.94331 0.94331,-0.94331 8.9146,13.485 2.222,4 7.547,13 77.731,155.31 v 2.1903 h 2 v 2.2243 l 21.783,44.276 12.948,27 3.7613,8 3.7612,8 8.9319,19 3.6351,8 4.1545,9 4.1545,9 1.3984,3 1.3984,3 2.1072,5 2.1072,5 7.6756,24 3.1182,11 3.1527,18 0.9678,5.5 0.96779,5.5 0.6226,17 0.62261,17 -1.1699,13.871 -1.1699,13.871 -1.0006,4.1294 -1.0006,4.1294 -1.8563,9 -1.8564,9 -2.0387,7 -2.0387,7 -5.2182,14 -3.0658,7 -6.0286,12 -11.324,16.868 -8,9.0315 -13.249,13.419 -18.751,13.836 -18.465,10.346 h -1.0294 l -12.505,5.8222 -16,5.0607 -10.028,3.0034 -12.972,2.0399 -32.529,3.0739 h -17.637 z m 36.468,-13.608 6.1153,-1.0035 21.576,-2.9377 9.4243,-3.0206 9,-2.8942 11.73,-4.371 19,-9.88 6.2696,-4.3896 10,-7.8487 13.678,-13.151 11.41,-14 6.9122,-11.019 1.1934,-1.9907 1.1934,-1.9907 7.1131,-14.476 0.012,-1.5242 2.902,-5.5635 3.3984,-12.436 1.4753,-2 4.4109,-21 1.6443,-8 1.2058,-14.5 1.2058,-14.5 -0.66236,-14 -0.66237,-14 -2.7844,-18 -4.1436,-19 -0.9666,-2 -0.96659,-2 -3.2476,-13 -0.78028,-1 -0.78027,-1 -1.1885,-4 -1.1885,-4 -3.7894,-9 -6.3418,-15 -9.5146,-20 -13.357,-27.795 -18.601,-38.205 -11.475,-24 -68.818,-138 -20.503,-39 -2.554,-4.5 h -1.5088 l -7.5586,13.5 -16.104,28 -4.3913,8 -7.6782,14 -10.345,18.667 -10.344,18.667 v 0.92211 l -8.6847,15.743 -11.044,21 -9.5338,18 -10.014,19 -8.482,16 -10.981,21 -8.9774,17 -10.528,20 -17.008,33 -2.4489,4 -13.443,30 -2.7015,6 -3.3518,9 -4.4757,14 -1.3085,3 -4.1421,19 -1.0955,6 -1.0955,6 -0.0658,51 2.2615,11 3.1766,17 3.9435,11.508 v 2.1568 l 6.063,14.335 6.2698,12 10.612,16 9.5555,11 18,17.005 20.923,13.956 6.0767,3.3535 14.311,6.9678 7.6892,2.4782 2,1.5662 16,4.328 11,2.7093 22.932,2.2347 0.45055,0.45055 0.45054,0.45055 h 40.936 l 6.1153,-1.0035 z m -56.392,-33.509 -10.507,-2.2589 -17.26,-6.092 -16.642,-8.3674 -13.175,-8.6796 -15.249,-13.011 -12.386,-14.391 -3.2524,-5.0938 -3.2524,-5.0938 -6.3905,-12.681 -6.1125,-17.318 -4.7256,-22.311 -1.2362,-24.69 2.0661,-18 1.9447,-9.0478 1.9447,-9.0478 5.2726,-14.904 10.28,-20.456 15.492,-20.633 12.734,-11.912 11.478,-7.6183 12.236,-6.9164 14.733,-5.8994 11.513,-3.2268 23,-4.985 20,-1.986 16.211,1.2128 19.511,3.925 18.278,6.1047 18.043,9.619 12.718,8.7274 13.417,12.043 11.919,14 7.148,11 3.2699,6.5 3.2698,6.5 2.4791,6.5 2.4791,6.5 2.8416,14 1.1371,39 -3.264,23 -4.8999,16.699 -5.2386,13.301 -9.0992,17 -5.165,7 -11.486,13.535 -14.569,12.685 -17.585,11.404 -13.415,6.7575 -13.916,5.1857 -21.852,4.9329 -34.231,-0.25398 z m 50.507,-10.924 7,-1.3575 12,-3.3879 11,-4.8012 8,-4.247 11,-7.2696 1,-1.2209 6.8472,-3.51 20.422,-20.422 3.51,-6.8472 1.4523,-1 4.2896,-8 1.9077,-3 2.104,-4.5 2.104,-4.5 2.9022,-8.5595 2.9022,-8.5595 2.2821,-14.881 0.96223,-2.459 0.96223,-2.459 0.51851,-14.041 0.51852,-14.041 -2.0908,-17 -1.9816,-11 -2.3202,-8 -1.4755,-2 -1.663,-4.2819 -1.663,-4.2819 -8.3724,-13.436 -12.705,-15.397 -14.413,-12.048 -3.0168,-2.555 -9.9832,-6.317 -13,-6.3506 -5.6128,-2.8041 -21.387,-5.4561 -38,-0.0404 -19,3.7098 -12,2.6487 -11.78,4.0997 -11.22,5.4074 -8,5.0526 -14.302,11.517 -11.252,12.433 -9.5446,14.1 -7.163,15 -3.0892,7 -1.1411,5 -1.1411,5 -1.6812,3.1748 -2.6333,15.825 0.10913,17 0.10912,17 3.0321,15 4.0311,14.631 3.3636,7.3691 4.2048,9 7.0564,12 8.0409,8.8014 4.2031,4.1986 9.7969,9.1422 6,3.8116 1,1.1118 10,6.1321 9,5.047 5,1.4936 8.1133,3.6355 9.8867,2.2932 4,1.8331 11,1.766 33,0.1544 7,-1.3575 z"
     fill="#7a2715"
     id="path18" />
</svg>
