<?xml version="1.0" encoding="UTF-8" standalone="no"?>
<!-- Created with Inkscape (http://www.inkscape.org/) -->

<svg
   width="22.036325mm"
   height="29.56502mm"
   viewBox="0 0 22.036324 29.565019"
   version="1.1"
   id="svg2269"
   inkscape:version="1.1.2 (0a00cf5339, 2022-02-04)"
   sodipodi:docname="item396.svg"
   xmlns:inkscape="http://www.inkscape.org/namespaces/inkscape"
   xmlns:sodipodi="http://sodipodi.sourceforge.net/DTD/sodipodi-0.dtd"
   xmlns="http://www.w3.org/2000/svg"
   xmlns:svg="http://www.w3.org/2000/svg">
  <sodipodi:namedview
     id="namedview2271"
     pagecolor="#ffffff"
     bordercolor="#666666"
     borderopacity="1.0"
     inkscape:pageshadow="2"
     inkscape:pageopacity="0.0"
     inkscape:pagecheckerboard="0"
     inkscape:document-units="mm"
     showgrid="false"
     fit-margin-top="0"
     fit-margin-left="0"
     fit-margin-right="0"
     fit-margin-bottom="0"
     inkscape:zoom="0.48996914"
     inkscape:cx="41.83937"
     inkscape:cy="55.105512"
     inkscape:window-width="1366"
     inkscape:window-height="719"
     inkscape:window-x="0"
     inkscape:window-y="25"
     inkscape:window-maximized="1"
     inkscape:current-layer="layer1" />
  <defs
     id="defs2266" />
  <g
     inkscape:label="Capa 1"
     inkscape:groupmode="layer"
     id="layer1"
     transform="translate(-90.02369,-135.1081)">
    <g
       id="g7090"
       transform="matrix(0.04642234,0,0,0.04642234,-17.275824,-52.240131)">
      <g
         transform="matrix(0.88252551,0,0,0.88252551,213.67861,3875.6621)"
         id="g5645">
        <path
           sodipodi:nodetypes="ccccccc"
           inkscape:connector-curvature="0"
           id="path5647"
           d="m 2646.5709,187.71783 264.5394,449.33807 -81.4217,154.39032 -185.961,107.83566 -184.5393,-109.55542 -78.5784,-155.133 z"
           inkscape:transform-center-y="23.341364"
           inkscape:transform-center-x="16.529204"
           style="opacity:1;fill:#ff6600;fill-opacity:1;stroke:none;stroke-width:4;stroke-miterlimit:4;stroke-dasharray:none;stroke-opacity:1" />
        <path
           inkscape:connector-curvature="0"
           style="opacity:1;fill:#ff9955;fill-opacity:1;stroke:none;stroke-width:4;stroke-miterlimit:4;stroke-dasharray:none;stroke-opacity:1"
           d="m 2646.5703,187.71875 -0.2422,143.59961 174.291,296.04297 90.4903,9.69531 z"
           id="path5649" />
        <path
           inkscape:connector-curvature="0"
           style="opacity:1;fill:#ff6600;fill-opacity:1;stroke:none;stroke-width:4;stroke-miterlimit:4;stroke-dasharray:none;stroke-opacity:1"
           d="m 2766.9746,729.08008 62.7149,62.36523 81.4199,-154.38867 -90.4903,-9.69531 z"
           id="path5651" />
        <path
           inkscape:connector-curvature="0"
           style="opacity:1;fill:#d45500;fill-opacity:1;stroke:none;stroke-width:4;stroke-miterlimit:4;stroke-dasharray:none;stroke-opacity:1"
           d="m 2644.4551,800.12695 -0.7266,99.1543 185.961,-107.83594 -62.7149,-62.36523 z"
           id="path5653" />
        <path
           inkscape:connector-curvature="0"
           style="opacity:1;fill:#aa4400;fill-opacity:1;stroke:none;stroke-width:4;stroke-miterlimit:4;stroke-dasharray:none;stroke-opacity:1"
           d="m 2522.873,727.94727 -63.6855,61.77929 184.541,109.55469 0.7266,-99.1543 z"
           id="path5655" />
        <path
           inkscape:connector-curvature="0"
           style="opacity:1;fill:#d45500;fill-opacity:1;stroke:none;stroke-width:4;stroke-miterlimit:4;stroke-dasharray:none;stroke-opacity:1"
           d="m 2471.1016,625.74023 -90.4922,8.85352 78.5781,155.13281 63.6855,-61.77929 z"
           id="path5657" />
        <path
           inkscape:connector-curvature="0"
           style="opacity:1;fill:#ff7f2a;fill-opacity:1;stroke:none;stroke-width:4;stroke-miterlimit:4;stroke-dasharray:none;stroke-opacity:1"
           d="m 2646.5703,187.71875 -265.9609,446.875 90.4922,-8.85352 175.2265,-294.42187 z"
           id="path5659" />
        <path
           sodipodi:nodetypes="ccccccc"
           inkscape:connector-curvature="0"
           id="path5661"
           d="m 2646.3285,331.31857 174.29,296.04341 -53.6442,101.71904 -122.5191,71.04682 -121.5825,-72.17987 -51.7709,-102.20835 z"
           inkscape:transform-center-y="15.378304"
           inkscape:transform-center-x="10.890154"
           style="opacity:1;fill:#ffe6d5;fill-opacity:1;stroke:none;stroke-width:4;stroke-miterlimit:4;stroke-dasharray:none;stroke-opacity:1" />
        <path
           style="opacity:1;fill:#ffccaa;fill-opacity:1;stroke:none;stroke-width:4;stroke-miterlimit:4;stroke-dasharray:none;stroke-opacity:1"
           d="m 2535.8594,517.36719 a 172.14285,178.57143 0 0 0 158.0039,107.85156 172.14285,178.57143 0 0 0 104.4707,-36.92383 l 22.2851,37.44531 -51.7714,102.20704 -121.5821,72.17968 -122.5195,-71.04687 -53.6445,-101.71875 z"
           id="path5663"
           inkscape:connector-curvature="0" />
        <path
           inkscape:connector-curvature="0"
           style="opacity:1;fill:none;fill-opacity:1;stroke:#2b1100;stroke-width:6.45815;stroke-miterlimit:4;stroke-dasharray:none;stroke-opacity:1"
           d="m 2646.5703,187.71875 -265.9609,446.875 78.5781,155.13281 184.541,109.55469 185.961,-107.83594 81.4199,-154.38867 z m -0.2422,143.59961 174.291,296.04297 -53.6445,101.71875 -122.5195,71.04687 -121.5821,-72.17968 -51.7714,-102.20704 z"
           id="path5665" />
        <path
           style="opacity:0.77;fill:#ffffff;fill-opacity:1;stroke:none;stroke-width:4;stroke-miterlimit:4;stroke-dasharray:none;stroke-opacity:1"
           d="m 2655.7278,388.1139 a 16.345741,11.268613 79.70798 0 1 5.6472,1.82555 16.345741,11.268613 79.70798 0 1 7.263,20.11097 13.741585,9.3363404 82.186805 0 1 3.1191,1.32559 13.741585,9.3363404 82.186805 0 1 5.5258,18.35116 13.741585,9.3363404 82.186805 0 1 -12.1478,6.09371 13.741585,9.3363404 82.186805 0 1 -6.0454,-15.30286 16.345741,11.268613 79.70798 0 1 -5.5062,-1.81983 16.345741,11.268613 79.70798 0 1 -6.8881,-21.85939 16.345741,11.268613 79.70798 0 1 9.0324,-8.7249 z"
           id="path5667"
           inkscape:connector-curvature="0" />
        <ellipse
           style="opacity:0.77;fill:#ffffff;fill-opacity:1;stroke:none;stroke-width:4;stroke-miterlimit:4;stroke-dasharray:none;stroke-opacity:1"
           id="ellipse5669"
           cx="-2109.7063"
           cy="2308.282"
           rx="15.549164"
           ry="43.626366"
           transform="matrix(-0.71418114,0.69996093,0.52105885,0.85352075,0,0)" />
        <path
           style="opacity:0.5;fill:#ffccaa;fill-opacity:1;stroke:none;stroke-width:4;stroke-miterlimit:4;stroke-dasharray:none;stroke-opacity:1"
           d="m 2646.5038,228.63086 -240.8202,403.30041 71.1506,140.00528 167.0959,98.87288 168.3828,-97.32183 73.7223,-139.33516 z m 0.399,69.05909 196.312,332.35024 -60.421,114.19239 -137.9998,79.75928 -136.9463,-81.03193 -58.3102,-114.74122 z"
           id="path5671"
           inkscape:connector-curvature="0" />
      </g>
    </g>
  </g>
</svg>
