<?xml version="1.0" encoding="utf-8"?>
<!DOCTYPE svg PUBLIC "-//W3C//DTD SVG 1.1//EN" "http://www.w3.org/Graphics/SVG/1.1/DTD/svg11.dtd">
<svg version="1.1" id="Layer_1" xmlns="http://www.w3.org/2000/svg" xmlns:xlink="http://www.w3.org/1999/xlink" x="0px" y="0px"
	 viewBox="-12.5578 -11.8416 1305.1156 1230.6832" enable-background="new -12.5578 -11.8416 1305.1156 1230.6832"
	 xml:space="preserve">
<path fill="#AABECA" stroke="#AABECA" stroke-width="0.394" d="M614.95,7.75c7.06,0.22,13.99-1.49,21.05-1.09
	c11.99,0.31,24.04-0.72,35.96,0.94c7.37-0.41,14.48,1.75,21.66,3.09c12.65,2.57,25.67,3.63,37.97,7.75
	c7.2,2.29,14.69,3.66,21.75,6.39c10.94,4.53,22.31,8.23,32.5,14.38c6.17,3.98,13.27,6.33,19.18,10.76
	c12.19,7.91,23.47,17.11,34.61,26.42c5.2,4.79,10.17,9.86,14.52,15.45c8.03,7.82,14.12,17.3,21,26.09
	c5.8199,6.89,9.46,15.24,14.3199,22.78c3.63,5.44,6.2401,11.46,8.3,17.65c6.11,15.75,10.75,32.02,15.33,48.25
	c1.91,11.58,3.42,23.22,5.45,34.78c0.99,5.4-0.46,10.97,0.85,16.34c1.52,5.65,0.78,11.52,0.91,17.28
	c9.49,0.94,19.05-0.18,28.55,0.52c3.76,0.65,7.57,1.14,11.39,0.55c4.92,3.97,10.5,7.28,14.46,12.31
	c2.33,7.24,8.94,11.88,12.15,18.67c3.44,7.38,8.01,14.41,9.58,22.51c0.91,4.26,1.23,8.62,2.07,12.89c-1.02-2.48-2.11-4.92-3.15-7.38
	c-1.65,1.92-3.28,3.86-4.75,5.92c-8.3-2.04-16.36-4.98-24.72-6.8c-7.13-1.5-14.09-3.8-21.33-4.75c-5.53-0.73-11.08-1.42-16.56-2.5
	c-8.78-1.75-17.77,0.16-26.58-1.29c-8.02-1.28-16.13-0.18-24.17-0.78c-1.17-12.21-3.21-24.31-4.77-36.47
	c-2.29-9.41-2.96-19.23-6.47-28.32c-3.57-10.33-6.43-20.96-11.31-30.78c-7.35-17.94-18.34-34.01-29.02-50.09
	c-4.13-6.66-9.95-11.97-15.47-17.44c-6.14-6.51-12.93-12.35-19.85-17.99c-14.83-10.16-29.84-20.21-46.24-27.69
	c-12.07-4.91-24.25-9.85-37.13-12.18c-9.26-10.34-19.55-19.72-29.2-29.7c-9.46-8.31-20.16-15.24-31.55-20.6
	c-4.76-2.32-9.52-5.74-15.12-4.89c-1.73,3.42-1.66,8.07,1.76,10.44c9.15,6.43,18.91,12.28,26.77,20.32
	c1.66,6.67,7.11,11.36,10.3,17.26c-9.58-1.39-19.26-2.28-28.95-1.95c-11.09,0.29-22.24-0.66-33.28,0.72
	c-6.24,0.68-12.5,1.15-18.75,1.65c-5.93,0.42-11.54,2.54-17.39,3.43c-10.03,1.53-19.67,4.78-29.51,7.12
	c-9.78,2.16-18.7,6.85-28.12,10.08c-15.06,6.37-29.12,14.82-43.37,22.76c-5.16,3.11-9.8,7-14.98,10.07
	c-8.89,5.13-15.61,13.05-23.61,19.36c-7.57,5.72-13.9,12.81-20.72,19.35c-9.69,11.49-17.99,24.05-26.49,36.43
	c-4.68,6.12-7.57,13.29-11.08,20.08c-3.12,6.05-5.48,12.45-8.07,18.74c-2.24,5.49-4.96,10.81-6.54,16.55
	c-1.57,5.64-2.6,11.43-4.19,17.07c-2.73,9.6-2.71,19.67-4.65,29.42c-1.27,6.38-1,12.9-0.84,19.36c0.27,8.73-2.31,17.33-1.22,26.06
	c1.11,9.32,3.62,18.48,3.76,27.92c-0.03,8.41,2.07,16.74,0.98,25.15c-11.16-0.85-21.76-4.79-32.8-6.37
	c-13.3-1.86-26.64-4.33-40.13-3.77c-10.09,0.46-20.48-1.3-30.3,1.82c-8.61,2.71-17.79,3.15-26.22,6.5
	c-5.95,2.3-12.03,4.26-18.11,6.19c-6.97,2.18-13.22,6.05-19.81,9.11c-3.75,1.73-7.31,3.85-10.53,6.44
	c-7.24,5.77-15.35,10.47-21.84,17.15c-4.91,5.09-10.29,9.76-14.57,15.42c-3.76,4.92-7.34,9.97-11.15,14.85
	c-3.93,5-6.42,10.9-9.91,16.19c-3.24,4.98-6.29,10.13-8.24,15.77c-2.33,6.7-6.04,12.85-8.12,19.64
	c-2.86,10.39-7.35,20.32-9.02,31.04c-1.15,8.34-3.88,16.44-4.12,24.92c-0.6,10.67-2.48,21.27-2.18,31.98
	c0.12,7.95-0.79,15.94,0.39,23.85c1.18,7.36-0.47,14.96,1.93,22.15c2.72,8.87,2.51,18.51,6.67,26.94
	c3.61,7.66,5.96,15.85,9.74,23.43c4.46,7.75,9.68,15.06,13.99,22.91c3.39,6.3799,9.25,10.83,14.16,15.96
	c5.14,4.87,9.52,10.5,15.05,14.95c5.32,4.36,10.83,8.46,16.15,12.82c5.76,4.84,12.68,7.95,19.02,11.94
	c13.65,7.88,27.43,15.91,42.53,20.71c2.56,3.03,4.47,6.6,7.32,9.38c4.57,2.31,9.71,3.28,14.58,4.83c2.91,1.04,5.93,0.02,8.6-1.2
	c3.01,0.93,5.97,2.03,8.88,3.27c8.13,3.45,16.88,4.91,25.39,7.08c6.01,1.56,12.05,3.03,18.04,4.67c7.27,1.98,14.79,2.65,22.16,4.08
	c22.95,4.89,46.31,7.43,69.52,10.77c2.02,0.33,4.4,0.44,5.66,2.33c0.24,9.12-0.66,18.33,0.93,27.38c0.61,4.2,0.48,8.46,0.46,12.7
	c-5.2-1.4-10.56-1.25-15.87-1.57c-5.1-1.42-10.46-0.63-15.57-1.91c-3.18-0.68-6.43-0.56-9.65-0.71
	c-18.44-2.12-36.82-4.97-55.32-6.58c-21.02-5.21-42.52-8.38-63.43-14.08c-8.08-1.94-16.17-3.85-24.19-6.0099
	c-9.69-1.77-18.82-5.57-27.99-9.04c-7.43-2.24-14.57-5.35-21.77-8.21c-5.94-7.05-12.51-13.57-19.34-19.7401
	c-8.09-5.85-13.86-14.29-22.06-20c-6.05-4.61-13.04-7.71-19.82-11.04c-5-2.32-10.09-5.02-15.75-4.98
	c-1.27,3.44-3.46,8.63,0.72,10.97c7.04,4.54,13.59,9.79,20.7,14.22c2.42,1.52,4.6,3.37,6.61,5.41c-1.85-0.19-3.6-0.84-5.14-1.87
	c-6.82-4.27-13.77-8.32-20.74-12.35c-8.49-6.03-16.15-13.11-24.41-19.43c-6.56-4.7-11.66-11.03-17.31-16.72
	c-3.98-5.57-9.5-9.75-13.82-14.98c-6.09-11.09-13.69-21.26-19.73-32.37c-4.48-10.48-8.62-21.1-13.35-31.47
	c-2.22-9.72-4.45-19.45-6.32-29.25c-0.82-4.07,0.54-8.15,0.39-12.23c0.32-4.76-1.87-9.23-1.43-13.99c0.33-5.4-1.49-10.63-1.16-16.02
	c0.33-7.21-0.48-14.47,0.4-21.63c1.61-5.5,0.27-11.29,1.55-16.83c2.05-10.56,3.13-21.29,5.54-31.77c2.84-9.02,4.6-18.33,6.96-27.48
	c3.44-9.05,6.81-18.15,10.06-27.28c4.7-10.38,9.37-20.85,15.98-30.2c4.81-8.12,9.2-16.53,15.2-23.86
	c4.15-4.86,7.42-10.45,12.11-14.85c2.57-2.45,4.69-5.35,7.38-7.67c5.13-4.19,10.6-7.98,15.43-12.53
	c6.18-6.81,14.55-10.94,22.13-15.93c10.4-6.86,22.3-10.88,33.39-16.44c8.1-3.3,16.41-6.64,25.21-7.3
	c8.32-1.57,16.75-2.37,25.06-3.93c6.4-1.5,13.08,0.06,19.44-1.74c9.95-0.59,19.95-0.07,29.92-0.25c6.64,0.81,13.28,1.68,19.94,2.45
	c10.66,1.47,20.83,5.24,31.41,7.09c5.07,1,9.94,3.23,15.21,3.03c-0.15-7.01,0.67-14.14-1.01-21.03c-0.85-9.43-2.58-18.77-3.47-28.2
	c-0.48-5.57-2.13-11.03-1.82-16.66c0.24-5.32-0.65-10.62-0.1-15.93c0.76-12.22-1.18-24.63,1.55-36.67c1.65-8.28,3-16.63,3.97-25.01
	c3.21-9.83,5.13-20.01,7.83-29.97c3.48-8.9,7.61-17.56,10.46-26.7c3.73-8.59,9.31-16.24,13.11-24.8c1.35-3.08,3.37-5.78,5.32-8.49
	c5.84-8.19,10.02-17.58,17.02-24.89c7.02-8.62,13.99-17.32,21.93-25.12c4.24-4.41,8.02-9.33,12.99-12.98
	c4.25-3.06,7.54-7.24,11.82-10.27c3.82-2.78,6.46-6.98,10.69-9.23c4.1-2.15,7.72-5.07,11.77-7.29c5.53-3,10.21-7.32,15.86-10.13
	c6.43-4.21,12.97-8.25,19.5-12.31c17.78-8.42,36.23-15.31,54.58-22.36c9.82-2.68,19.59-5.52,29.5-7.85
	c9.04-1.6,18.07-3.29,27.09-5.01C593.15,10.78,604.07,9.43,614.95,7.75z"/>
<path fill="#AABECA" stroke="#AABECA" stroke-width="0.394" d="M991.65,280.43c5.18-0.81,10.19,0.92,15.31,1.42
	c6.12,0.68,11.91,2.94,17.9799,3.91c12.27,2.2,24.1801,5.95,35.89,10.15c10.03,2.89,19.13,8.15,28.9601,11.57
	c11.58,5.97,23.5299,11.29,34.63,18.17c6.9199,4.73,14.23,8.93,20.83,14.13c5.3199,5.36,11.5601,9.7,16.65,15.32
	c8.5699,8.73,17.4199,17.21,25.9,26.02c5.4099,7.68,11.9199,14.61,16.33,22.96c3.79,6.39,8.02,12.53,11.54,19.09
	c9.23,19.64,17.5199,39.83,23.08,60.85c1.84,10.64,3.6899,21.28,5.33,31.95c0.36,4.1801-0.24,8.4301,0.6001,12.58
	c1.25,5.73,0.6,11.63,0.72,17.45c-0.1,5.82,0.52,11.71-0.75,17.45c-1.05,5.33,0.24,10.84-1.1,16.13
	c-2.39,10.22-5.4301,20.28-7.6101,30.54c-5.97-7.24-10.46-15.54-16.2899-22.89c-5.12-6.51-9.65-13.51-15.2101-19.67
	c-5.6499-6.68-11.48-13.19-17.25-19.76c-5.7799-6.6-13.22-11.42-19.1-17.9c-5.15-5.63-12.72-8.51-17.12-14.92
	c-1.4099-10.08-4.1599-19.88-7.2899-29.55c-2.26-9.06-6.66-17.33-10.3101-25.86c-4.33-9.89-10.1-19.05-15.9-28.12
	c-5.6-6.73-10.83-13.77-16.36-20.56c-10.71-11.63-22.11-22.73-35.1-31.81c-7.12-16.38-16.5701-31.64-26.75-46.27
	c-7.13-8.89-14.53-17.55-21.77-26.34C1009.02,297.66,1000.15,289.23,991.65,280.43z"/>
<path fill="#AABECA" stroke="#AABECA" stroke-width="0.394" d="M1156.1899,555.78c4.7401,8.12,8.9301,16.5699,12.7301,25.16
	c4.45,14.81,7.61,30.01,9.6899,45.34c1.53,8.87,1.25,17.9,2.38,26.81c0.58,12.7599,2.77,25.3799,3.39,38.15
	c-2.3199,1.52-4.52,3.18-6.75,4.82c-0.99-7.01-1.5699-14.07-2.4-21.1c-0.6799-6.63,0.27-13.31-0.39-19.93
	c-2.37-14.5601-0.45-29.35-1.2799-44c-0.9801-6.08-3.25-11.89-5.67-17.52c-1.79,1.24-3.87,2.35-4.8101,4.42
	c-3.26,6.86-5.26,14.24-6.48,21.72c-1.2999,6.43-0.5699,13.05-1.58,19.52c-1.76,13.17,1.4399,26.23,2.72,39.28
	c1.45,11.13,2.03,22.44,5.45,33.21c-6.5499,4.19-11.4099,10.35-17.7699,14.77c-7.37,7.88-16.9,13.12-25.38,19.64
	c-4.1001,3.28-8.6901,5.87-12.6901,9.26c-6.84,5.5-14.99,8.96-22.26,13.81c-7.5499,4.13-14.4399,9.42-22.1899,13.17
	c-2.4501-7.47-3.97-15.2-6.3101-22.7c-2.87-9.69-6.13-19.25-9.38-28.81c4.17-3.05,8.62-5.7,12.8401-8.69
	c6.71-4.57,11.7899-11.03,18.3099-15.84c7.54-7.09,14.61-14.66,22.02-21.88c6.01-6.33,12.9399-11.88,17.8-19.22
	c3.8899-5.79,7.5499-11.73,11.63-17.39c5.35-7.39,8.72-15.9301,13.0199-23.92c5.54-9.59,6.88-20.77,9.89-31.27
	c2.23-7.09,1.78-14.58,2.74-21.8701C1156.01,565.76,1156.23,560.77,1156.1899,555.78z"/>
<path fill="#AABECA" stroke="#AABECA" stroke-width="0.394" d="M734.52,679.36c3.23-1.74,7.43-1.67,10.29,0.79
	c2.06,1.2599,1.95,4.33,0.47,6.02c-4.08,5.56-9.46,10.09-13.09,16c-4.32,6.9-9.01,13.56-13.96,20.02
	c-13.13,17.72-23.32,37.36-34.97,56.04c-3.84,5.62-7.8,11.21-10.35,17.58c-4.83,9.33-8.66,19.13-13.46,28.48
	c5.33-3.13,9.36-7.86,13.67-12.18c5.39-5.25,10.42-10.9,16.3-15.64c4.56-3.77,8.56-8.14,12.71-12.34
	c7.31-6.69,14.72-13.34,22.73-19.2c5.29-4.05,9.11-9.8,15-13.11c9.37-5.39,17.63-13.22,28.36-15.85c3.39-1.15,7.69,1.17,7.88,4.89
	c-1.29,2.35-3.31,4.18-5.19,6.05c-4.1299,3.89-7.8799,8.2-12.35,11.71c-11.8,9.49-21.08,21.55-30.92,32.93
	c-5.22,8.13-10.88,15.99-15.81,24.3c-9.09,14.66-16.36,30.38-22.58,46.45c-3.77,8.71-7.51,17.53-9.38,26.89
	c10.92-8.05,16.2-21.19,25.79-30.53c4.66-4.36,9.1201-8.95,12.9301-14.08c4.81-6.45,10.86-11.79,16.49-17.5
	c7.82-7.85,15.34-16.06,23.92-23.1c9.78-8.93,19.5-18.03,30.59-25.33c4.94-3.21,11.2599-3.9301,16.9-2.36
	c3.6,0.94,6.15,5.45,4.81,8.96c-2.7,3.69-7.18,5.46-10.42,8.6c-5.14,4.9-11,8.95-16.1,13.88c-8.73,6.96-15.5601,15.88-22.53,24.51
	c-7.2,8.21-13.62,17.08-19.97,25.95c-10.3,17.2-22.23,33.56-29.76,52.26c-3.65,9.5-9.95,17.9-12.31,27.89
	c4.56-3.39,6.61-8.8701,10.07-13.19c3.72-4.92,9.11-8.11,13.34-12.52c5.51-5.85,12.12-10.51,17.55-16.45
	c7.58-6.54,15.43-12.83,24.03-18.02c9.76-6.91,19.96-13.3799,31.11-17.83c4.96-2.09,9.54-5.05,14.75-6.56
	c4.72-1.41,9.43-2.91,13.93-4.94c3.46-1.38,7.01-3.19,10.84-2.9c5.11,1.25,5.88,8.85,2.04,11.92c-9.47,8.11-19.87,15.38-27.56,25.35
	c-3.82,5.17-8.89,9.22-12.77,14.34c-3.89,5.07-8.96,9.06-12.9,14.09c-4.25,5.42-9.35,10.21-12.73,16.27
	c-3.85,6.71-8.19,13.12-12.04,19.83c-3.64,6.1-7.94,11.81-10.84,18.33c-9.15,17.34-17.21,35.6-20.53,55.05
	c11.22-13.26,21.85-27.13,34.6-39.01c5.82-5.24,9.9-12.0699,15.76-17.27c4.56-4.09,8.47-8.86,13.11-12.87
	c7.95-6.4,15.84-12.89,24.1-18.9c6.94-5.98,15.03-10.34,22.68-15.3c6.78-4.21,15.09-6.49,23.01-4.73c3.54,1.33,6.93,4.87,6.5,8.9
	c0.04,2.35-2.56,3.09-4.11,4.3c-5.05,2.73-8.57,7.36-12.85,11.04c-3.8,3.22-6.92,7.12-10.39,10.67
	c-5.02,5.05-8.67,11.26-13.58,16.42c-6.65,8.09-12.33,16.93-18.67,25.27c-5.9,7.45-10,16.07-14.94,24.15
	c-4.08,8.03-8.37,16-11.74,24.36c6.65-6.21,11.39-14.12,16.74-21.41c2.67-3.48,6.67-5.46,10.16-7.95
	c5.51-3.75,9.86-8.96,15.58-12.4301c8.44-4.99,14.5099-13.0099,22.98-17.99c14.47-11.3,30.41-20.52,46.29-29.68
	c3.49-1.76,7.08-4.05,11.13-3.94c3.87,0.61,2.95,5.46,3.06,8.29c0.2,5.39-4.76,8.56-8.43,11.58c-7.18,5.36-13.93,11.26-20.06,17.8
	c-12.43,11.04-21.81,24.8701-32.37,37.58c-9.4,14.4301-18.27,29.3201-24.81,45.3c-2.44,6.3099-6.73,11.8099-8.31,18.46
	c-1.5,6.11-3.44,12.11-5.24,18.14c5.36-5.71,10.81-11.34,15.87-17.3201c7.22-7.12,14.07-14.6499,21.87-21.1599
	c8.37-7.3,16.64-14.74,25.3-21.7101c11.83-8.5399,23.72-17.4099,37.4-22.78c4.49-1.91,9.39-0.97,13.93,0.22
	c0.83,4.77-1.29,9.17-3.51,13.23c-3.93,8.39-9.82,15.61-14.66,23.46c-9.7401,13.13-17.82,27.39-27.31,40.7001
	c-6.1801,8.22-10.1,17.86-13.65,27.4399c7.2-5.98,11.4-14.5499,17.58-21.46c4.96-6.97,11.26-12.8101,16.35-19.67
	c4.13-4.84,8.77-9.21,13.34-13.62c7.46-6.4,15.72-11.85,24.22-16.76c4.59-2.72,10.11-3.5499,15.31-2.2999
	c0.72,4.2799,1.49,9.3099-1.75,12.8199c-5.82,6.9301-11.6,14.03-15.57,22.23c-3.19,6.7001-7.65,12.7001-10.54,19.55
	c7.69-5.49,14.08-12.49,20.71-19.17c5.22-5.47,11.31-10,16.65-15.34c3.45-2.9,6.59-6.52,10.87-8.17c3.21-0.0399,6.52,2.79,7.03,5.91
	c-1.89,7.21-7.66,12.9-8.59,20.4301c-0.36,2.5399-2.24,4.4199-3.73,6.37c-8.2,9.5-14.86,20.33-24.21,28.8099
	c-3.88,3.51-7.02,7.9-11.45,10.76c-2.29,1.25-4.47,2.6801-6.45,4.38c-6.94,6.0701-15.44,9.87-23.05,14.99
	c-6.93,4.12-14.21,8.9301-22.62,8.61c-11.33-0.0299-23.04,0.51-33.86-3.4099c-3.57-1.2401-7.35-1.54-11.06-2.01
	c-4.58-0.5701-8.9-2.28-13.32-3.4801c-5.76-1.6-11.65-2.7599-17.26-4.84c-17.25-6.89-32.67-17.52-47.11-29.0399
	c-6.42-4.4901-11.67-10.3501-17.73-15.28c-7.3-6.05-12.65-13.98-19.51-20.47c-11.5-13.7201-22.05-28.2401-31.46-43.4601
	c-5.05-8.01-10.1-16-15.3-23.9c-3.75-5.62-5.92-12.06-9.12-17.96c-2.94-6.05-6.53-11.83-8.63-18.25
	c-4.13-13.56-9.92-26.57-13.86-40.18c-1.52-8.4-3.73-16.67-4.93-25.12c-0.72-5.36-3.03-10.44-2.97-15.9
	c0.08-8.4-1.44-16.71-1.24-25.1c-0.63-13.55,2.29-26.86,3.76-40.25c1.08-7.13,3.76-13.89,5.06-20.98c1.71-9.35,6.27-17.8,9.26-26.76
	c3.43-10.53,9.8-19.68,14.74-29.51c5.07-9.86,13.44-17.53,18.68-27.29c3.2-6.21,9.01-10.31,13.62-15.35
	c7.03-7.94,13.5-16.62,22.29-22.75C723.54,687.13,728.51,682.44,734.52,679.36z"/>
<path fill="#AABECA" stroke="#AABECA" stroke-width="0.394" d="M1015.95,749.62c4.28,0.18,7.33-3.18,10.72-5.25
	c0.4099,0.3,1.23,0.91,1.6499,1.21c1.75,6.8,2.9401,13.74,4.42,20.61c1.8,9.85,4.48,19.55,5.47,29.54
	c-4.46,1.46-8.3199,4.35-12.8999,5.45c-1.01-5.98-1.6501-12.02-2.7401-17.98C1020.19,772.03,1019.33,760.57,1015.95,749.62z"/>
<path fill="#AABECA" stroke="#AABECA" stroke-width="0.394" d="M566.97,874.2c11.71,0.12,23.44-0.58,35.02-2.44
	c0.07,0.35,0.22,1.07,0.29,1.43c-0.52,4.24-0.8,8.52-0.6801,12.81c0.2,8.01-0.49,16.08,0.83,24.04c-6.73,2.09-13.86,0.48-20.61,2.34
	c-5.14,0.69-10.39-0.35-15.49,0.75c-4.4,0.89-8.9,0.53-13.34,0.54c-4.52-0.08-8.82,1.56-13.3,1.79
	c-4.82-13.35-10.95-26.17-16.99-38.9901c2.82-1.6899,6.17-1.21,9.3-1.21C543.67,875.33,555.38,875.89,566.97,874.2z"/>
<path fill="#AABECA" stroke="#AABECA" stroke-width="0.394" d="M427.68,873.97c2.02,0.01,4.05,0.03,6.09,0.07
	c-0.02,13.81,2.54,27.41,4.01,41.09c-3.03,0.06-6.05,0.07-9.08,0.05c-0.14-8.48,0.59-17.01-0.62-25.44
	C427.35,884.51,427.61,879.22,427.68,873.97z"/>
<path fill="#AABECA" stroke="#AABECA" stroke-width="0.394" d="M617.33,932.72c2.27,7.61,3.65,15.47,6.08,23.05
	c6.57,19.9,13.27,39.77,19.89,59.66c2.64,9.96,8.66,18.5099,12.48,28.0099c5.39,9.2401,8.99,19.55,15.8,27.91
	c7.62,12.15,16.28,23.6,25.17,34.84c-5.66-4.2699-10.51-9.5599-14.79-15.1899c-7.28-8.78-14.6-17.5601-21.01-27
	c-7.06-12.6-15.2-24.63-21.09-37.86c-2.73-4.94-4.93-10.14-6.68-15.5c-5.75-13.66-10.4-27.74-14.59-41.94
	c-0.5-4.65,0-9.38-1.15-13.96C616.67,947.44,617.01,940.04,617.33,932.72z"/>
<path fill="#1C1818" stroke="#1C1818" stroke-width="0.394" d="M631.12,48.73c5.6-0.85,10.36,2.57,15.12,4.89
	c11.39,5.36,22.09,12.29,31.55,20.6c9.65,9.98,19.94,19.36,29.2,29.7c6.19,7.35,11.8,15.13,16.92,23.25
	c9.51,12.52,17.79,25.94,24.71,40.06c8.11,15.49,14.14,32.15,17.04,49.42c1.65,7.34,0.8701,14.9,1.03,22.35
	c-0.01,4.96,0.45,10.03-0.82,14.9c-2,7.42-5,14.57-8.71,21.3c-2.14,4.32-7.06,5.84-11.1299,7.71c-5.03,1.86-9.73,4.47-14.63,6.64
	c-4.39,2.01-9.01-0.44-13.23-1.7c-4.08-1.6-8.57-2.33-12.28-4.72c-3.51-3.26-5.86-7.52-8.8-11.26c-2.56-3.66-5.85-6.78-8.19-10.6
	c-2.14-4.37-2.83-9.27-4.66-13.76c-2.79-7.96-6.6-15.68-7.73-24.12c-1.22-7.84-3.06-15.57-4.65-23.35
	c-2.39-10.53-0.5-21.37-1.4-32.03c-0.72-8.4,1.21-16.7,1.55-25.07c0.07-6.1,4.64-10.72,8.41-15.01c1.84,5.54,4.35,11.06,4.28,17.01
	c-0.17,7.08,1.9,13.98,1.52,21.06c0.08,10.71-0.72,21.49,0.78,32.13c0.53,4.28,0.33,8.6,0.28,12.9c-0.36,7.13,3.33,13.54,4.41,20.46
	c0.52,4.31,3.08,7.83,5.99,10.89c1.75,3.37,3.12,7.34,6.61,9.33c3.68,2.22,7.06,5.1,11.13,6.6c9.19,1.47,19.43,0.17,26.54-6.33
	c2.72-2.86,7.05-5.42,6.8-9.9c0.05-6.03,0.06-12.06-0.1-18.09c-1.59-18.19-7.99-35.52-15.56-51.99c-4.7-8.66-8.27-17.96-14.05-26
	c-6.24-9.66-13.04-18.93-20.01-28.07c-3.54-4.73-8.03-8.62-12.14-12.83c-8.9-8.74-17.25-18.08-27.25-25.61
	c-7.86-8.04-17.62-13.89-26.77-20.32C629.46,56.8,629.39,52.15,631.12,48.73z"/>
<path fill="#1C1818" stroke="#1C1818" stroke-width="0.394" d="M514.27,232.95c0.77-2.02,1.64-4.39,3.96-5.05
	c3.56-0.64,7.14,0.53,10.55,1.46c12.61,4.05,23.65,11.73,33.67,20.21c11.89,11.77,23.64,23.68,35.52,35.46
	c7.01,6.74,11.6801,15.58,19.17,21.86c4.8,3.77,10.92,5.03,16.42,7.41c6.49,2.77,13.67,3.28,20.12,6.15
	c19.13,8.11,38.03,16.75,56.47,26.35c27.29,12.85,51.72,30.75,76.83,47.29c6.48,4.04,12.59,8.64,18.63,13.32
	c8.26,6.72,17.06,12.8,24.81,20.14c9.56,8.45,19.09,16.93,28.75,25.28c10.9,10.77,21.61,21.72,32.55,32.46
	c4.14,4.2,7.71,8.92,11.75,13.22c9.3701,11.28,19.85,21.57,28.88,33.14c19.65,22.21,36.31,46.85,52.06,71.91
	c10.28,14.88,19.6,30.42,27.45,46.72c4.51,9.1899,9.44,18.1899,13.39,27.65c4.12,9.69,9.95,18.6,13.35,28.61
	c2.8101,8.1,5.88,16.12,8.61,24.26c3.25,9.56,6.51,19.12,9.38,28.81c2.3401,7.5,3.86,15.23,6.3101,22.7
	c3.0499,11.87,4.1699,24.12,6.53,36.13c1.71,12.49,4.1499,24.94,4.38,37.59c0.3199,3.67,1.47,7.24,1.4099,10.95
	c-0.1,14.34-0.0599,28.69-0.02,43.03c-0.0199,3.7-1.1499,7.27-1.3999,10.95c-0.39,12.96-2.66,25.7599-4.41,38.59
	c-3.01,13.65-5.4401,27.49-10.12,40.7c-2,7.4-4.13,14.77-7.04,21.88c-4.85,12.3099-9.37,24.8-15.62,36.5
	c-2.7,6.16-4.9,12.63-8.87,18.14c-2.6899,3.54-4.43,7.63-6.55,11.5c-2.97,4.62-6.3,9-9.19,13.6699
	c-3.71,6.42-8.96,11.7201-13.71,17.3501c-4.38,3.99-8.24,8.46-11.93,13.08c-5.89,5.79-11.45,11.98-17.99,17.05
	c-4.02,3.62-7.73,7.6499-12.47,10.38c-10.6,6.37-20.17,14.5699-31.66,19.37c-6.1,3.4199-12.04,7.83-19.2,8.61
	c-3.92,0.4199-7.89,1.7999-11.82,0.95c-3.6-1.58-5.92-5.4199-6.08-9.2999c11.26-3.6001,22.59-7.42,32.77-13.55
	c6.77-4.11,13.9301-7.74,19.92-13c3.92-3.45,8.24-6.4301,12.05-10.01c12.58-12.8,26.15-24.91,35.93-40.13
	c4.32-7.36,8.86-14.62,12.46-22.38c4.31-9.3199,9.77-18.12,13.14-27.86c3.51-8.65,6.36-17.54,9.67-26.27
	c2.1-8.21,6.04-15.9,6.97-24.39c4.71-22.13,9.45-44.29,12-66.79c2.2799-8.84,0.6699-17.96,1.49-26.93
	c1.5599-9.3,0.5699-18.74,0.84-28.12c-0.26-8.76,0.6801-17.59-0.74-26.29c-0.85-6.22,0.0499-12.5-0.41-18.7401
	c-1.86-13.06-3.3099-26.17-5.02-39.24c-0.99-9.99-3.6699-19.69-5.47-29.54c-1.48-6.87-2.67-13.81-4.42-20.61
	c-3-10.02-5.8699-20.08-8.78-30.12c-2.3-7.97-5.77-15.52-8.53-23.32c-3.57-10.91-7.95-21.55-13.25-31.72
	c-10.07-24.44-24.54-46.67-37.69-69.49c-5.99-9.9-11.35-20.27-18.85-29.15c-15.05-18.64-29.6899-37.59-44.72-56.25
	c-3.11-3.56-6.75-6.62-9.75-10.29c-6.54-8.08-14.5-14.83-21.6-22.39c-4-4.36-8.9901-7.65-13.09-11.89
	c-6.93-7.47-15.44-13.19-23.03-19.92c-15.76-13.39-32.32-25.78-48.98-38.01c-14.99-9.41-29.05-20.49-45.18-27.97
	c-8.45-5.31-17.11-10.29-25.72-15.33c-8.4-4.29-16.88-8.42-25.28-12.68c-6.98-3.7-14.52-6.15-21.77-9.25
	c-5.34-2.18-10.61-4.69-16.3-5.86c-5.6-1.05-10.62-3.85-15.92-5.81c1.47,9.23,6.6,17.2,10.57,25.49c7.35,15,9.87,31.68,14.41,47.62
	c2.35,8.13,2.36,16.69,3.96,24.97c0.9,8.94,3.26,17.75,2.94,26.79c-0.17,19.01,0.06,38.03-0.1,57.03
	c-4.48,52.9-14.02,105.19-20.72,157.82c-2.56,17.56-4.32,35.26-8.28,52.59c-1.74,9.03-4.14,17.97-4.8199,27.17
	c-0.82,10.62-3.45,20.97-4.81,31.52c-1.34,11.64-2.9901,23.24-4.29,34.88c-0.76,11.64-0.29,23.32-0.51,34.99
	c-0.23,6.05,1.67,11.94,1.39,18c-0.19,5.35,1.08,10.61,1.09,15.96c-0.44,11.27,3.31,22.08,5.15,33.09
	c1.98,12.96,5.44,25.62,8.41,38.37c1.96,11.15,6.8,21.49,9.87,32.34c2.41,9.36,6.94,17.96,10.17,27.03
	c3.69,10.68,9.97,20.16,14.62,30.42c3.99,8.87,9.83,16.6901,14.66,25.0901c3.69,5.95,6.5699,12.5199,11.52,17.59
	c3.79,3.9,6.74,8.48,10.08,12.76c6.76,9.12,14.18,17.85,22.91,25.1699c4.89,3.8,9.36,8.14,14.54,11.5801
	c5.84,3.7999,10.2,9.5499,16.62,12.5c6.26,5.59,14.43,8.0699,21.53,12.33c8.57,4.66,16.7401,10.14,25.88,13.67
	c6.4,4.97,14.61,6.2999,21.85,9.5599c2.5,1.77,3.51,5.3201,3.28,8.3c-2.17,5.05-8.38,6.15-13.07,4.35
	c-2.25-1.2999-4.23-3.2-6.84-3.71c-6.02-1.4401-12.15-2.4601-18.02-4.4501c-9.31-3.7699-18.36-8.1699-27.34-12.6499
	c-7.51-3.9501-15.25-7.63-21.98-12.8601c-12.44-8.73-25.48-16.5599-38.19-24.87c-10.71-9.5599-22.38-18.13-31.75-29.09
	c-5.42-7.22-11.85-13.61-17.43-20.6799c-5.63-8.9501-11.89-17.49-17.35-26.55c-4.5-8.85-9.15-17.65-13.24-26.7
	c-2.7-8.41-6.61-16.36-9.35-24.7501c-4.19-11.74-5.45-24.23-8.61-36.23c-1.67-11.88-3.91-23.67-5.56-35.56
	c-0.56-8.98,0.33-18.01-0.64-26.97c-1.32-7.96-0.63-16.03-0.83-24.04c-0.12-4.29,0.16-8.57,0.6801-12.81
	c1.5699-11.17-0.47-22.5,1.23-33.66c1.08-7.51,1.45-15.11,2.46-22.63c2.58-20.53,4.22-41.1801,7.57-61.6
	c2.42-15.88,5.19-31.7,8.35-47.45c3.88-23.77,7.3-47.6,10.89-71.41c1.6899-8.8,3.14-17.64,4.48-26.5
	c3.36-18.25,5.06-36.73,7.43-55.12c0.89-9.93,1.55-19.89,2.76-29.79c0.31-7.3701,1.81-14.65,1.6-22.04
	c-0.24-21.66,0.14-43.34-0.17-64.99c-1.51-11.28-3.91-22.43-5.46-33.71c-1.18-9.68-5.17-18.65-7.61-28.03
	c-3.2-11.67-7.97-22.85-13.36-33.67c-4.4-7.29-7.7-15.3-13.16-21.91c-2.74-3.58-7.46-4.27-11.47-5.58
	c-8.29-2.64-16.92-3.88-25.39-5.81c-4.84-1.07-9.84-0.89-14.71-1.76c-4.6-0.81-9.11-2.14-13.78-2.56
	c-11.71-0.64-22.9-4.57-34.57-5.56c-0.21-3.27-0.13-6.55,0.13-9.81c2.2-1.14,4.42-3.16,7.09-2.31c10.47,2.83,21.54,2.04,31.98,5.07
	c8.2,2.6,16.95,2.54,25.15,5.09c7.3101,2.36,15.03,2.82,22.47,4.63c-8.63-13.79-21.16-24.32-32.33-35.93
	c-8.83-9.5-20.39-15.69-30.85-23.13C527.26,238.78,520.53,236.28,514.27,232.95 M617.33,932.72c-0.32,7.32-0.66,14.72,0.11,22.02
	c1.15,4.58,0.65,9.31,1.15,13.96c4.19,14.2,8.84,28.28,14.59,41.94c1.75,5.36,3.95,10.56,6.68,15.5
	c5.89,13.23,14.03,25.26,21.09,37.86c6.41,9.4399,13.73,18.22,21.01,27c4.28,5.63,9.13,10.92,14.79,15.1899
	c-8.89-11.24-17.55-22.6899-25.17-34.84c-6.81-8.36-10.41-18.6699-15.8-27.91c-3.82-9.5-9.84-18.0499-12.48-28.0099
	c-6.62-19.89-13.32-39.76-19.89-59.66C620.98,948.19,619.6,940.33,617.33,932.72z"/>
<path fill="#1C1818" stroke="#1C1818" stroke-width="0.394" d="M945.23,256.24c8.51-0.59,16.57,3.38,23.46,8
	c7.96,4.95,15.57,10.45,22.96,16.19c8.5,8.8,17.37,17.23,25.84,26.04c7.24,8.79,14.64,17.45,21.77,26.34
	c10.1799,14.63,19.63,29.89,26.75,46.27c4.8099,10.94,8.6,22.31,11.91,33.79c1.12,4.09,2.35,8.15,3.89,12.1
	c-0.0601,6.68-0.28,13.35-0.13,20.03c0.0299,5.92,0.58,12.08-1.7101,17.69c-2.45,6.22-4.73,12.53-7.78,18.49
	c-1.96,4.22-6.73,5.55-10.6899,7.16c-4.58,1.68-9.02,3.71-13.51,5.58c-3.16,1.16-6.54,1.52-9.85,0.93
	c-4.8101-1.53-9.7001-2.76-14.49-4.3c-4.1801-1.12-6.22-5.24-8.63-8.42c-2.77-4.04-5.85-7.83-8.98-11.57
	c-3.71-4.77-4.62-10.93-6.97-16.36c-2.09-5.43-4.15-10.87-6.32-16.25c-0.64-2.67-1.02-5.39-1.51-8.08
	c-1.73-7.89-2.65-15.93-4.43-23.81c-2.31-10.23-0.54-20.76-1.31-31.11c-0.77-8.38,1.17-16.66,1.41-25.01c0-3.37,1.8-6.3,3.7-8.94
	c1.47-2.06,3.1-4,4.75-5.92c1.04,2.46,2.13,4.9,3.15,7.38c0.4,1.18,0.81,2.35,1.16,3.56c0.21,16.99-0.25,34,0.1,51
	c1.09,9.12,2.19,18.26,3.28,27.38c1.69,5.49,3.14,11.05,4.9,16.51c1.08,2.54,2.93,4.63,4.48,6.89c1.56,2.97,2.54,6.41,4.96,8.83
	c3.72,2.42,7.88,4.07,11.66,6.41c2.63,1.78,5.88,1.82,8.95,1.78c7.83,0.23,15.67-3.09,21.03-8.79c1.86-2.06,4.6599-3.94,4.62-7.02
	c0.21-5.35,0.01-10.71,0.0699-16.05c0.0801-5.16-1.4299-10.13-2.4-15.14c-3.38-20.28-12.71-38.87-22.0299-56.98
	c-2.54-5.56-5.5701-10.91-9.48-15.62c-5.3401-6.41-8.91-14.21-15.1501-19.87c-9.44-8.91-17.92-18.84-28.08-26.95
	c-3.71-3.63-7.65-7-11.87-10.01c-3.96-5.03-9.54-8.34-14.46-12.31c-4.04-3.54-8.82-6.01-13.16-9.11
	C943.65,264.6,942.15,259.53,945.23,256.24z"/>
<path fill="#1C1818" stroke="#1C1818" stroke-width="0.394" d="M416.34,339.2c5.71,0.05,10.91,2.67,16.2,4.51
	c13.41,5.99,24.81,15.47,36.16,24.61c6.83,6.48,13.29,13.35,20.05,19.92c5.89,6.12,12.39,11.7,17.47,18.57
	c5.94,6.16,10.72,13.3,15.92,20.09c2.91,3.78,5.73,7.63,8.34,11.63c7.07,11.5,14.26,22.93,21.47,34.35
	c3.34,6.1,6.21,12.45,9.35,18.66c4.06,9.08,7.12,18.57,10.17,28.03c1.95,8.45,4.63,16.78,5.73,25.41c0.38,8-0.01,16.01,0.13,24.02
	c-0.11,5.12,0.6,10.37-0.9,15.36c-1.95,6.49-3.48,13.23-7.16,19.02c-2.61,3.92-4.35,8.91-8.85,11.1c-3.65,1.92-7.23,3.95-10.79,6.04
	c-9.9,5.18-21.43,6.16-32.39,5.02c-3.4-1.46-6.48-3.57-9.87-5.07c-3.94-1.77-6.65-5.25-9.7-8.16c-5.73-4.99-8.14-12.42-12.28-18.6
	c-2.77-6.4-6.39-12.43-8.85-18.95c-3.16-13.69-7.77-27.03-10.43-40.84c-1.15-12.31-3.1-24.51-4.43-36.8
	c-1.76-8.29-1.23-16.84,0.38-25.1c-0.4-11.2,1.78-22.53,6.46-32.73c1.08-2.51,3.03-4.99,5.92-5.32c1.64,5.25,3.65,10.48,4.16,16.01
	c0.47,12.28-0.49,24.63,0.4,36.9c2.31,9.34-0.2,19.03,1.76,28.41c0.69,3.89,0.38,7.9,1.24,11.77c1.1,4.68,0.21,9.57,1.44,14.23
	c1.4,5.91,3.1,11.7401,4.26,17.71c0.88,4.85,4.83,8.18,7.4,12.14c1.94,3.48,3.45,7.62,7.12,9.67c4.16,2.47,8.36,4.86,12.36,7.58
	c3.31,2.42,7.61,1.87,11.46,1.76c6.09-0.59,12.81-1.19,17.53-5.57c4.17-3.93,9.04-7.73,10.85-13.42c4.56-11.04,1.91-23.31-1-34.42
	c-2.93-10.55-4.41-21.48-8.12-31.81c-1.9-5.47-3.48-11.06-5.93-16.32c-6.01-12.29-12.21-24.57-20.25-35.7
	c-4.39-6.88-9.45-13.29-13.84-20.16c-3.45-5.44-8.61-9.4-12.95-14.06c-4.88-5.18-8.6-11.34-13.72-16.3
	c-6.62-6.39-12.73-13.35-20.21-18.77c-5.87-4.14-10.38-9.83-16.03-14.21c-9-7.16-18.87-13.12-28.44-19.45
	C410.94,346.47,414.46,342.27,416.34,339.2z"/>
<path fill="#1C1818" stroke="#1C1818" stroke-width="0.394" d="M1119.38,502.48c-0.79-2.12-2.11-4.34-1.23-6.64
	c6.0399,2.76,12.11,5.56,17.51,9.49c4.89,3.56,10.5399,5.92,15.3099,9.65c4.4,6.41,11.97,9.29,17.12,14.92
	c5.88,6.48,13.3201,11.3,19.1,17.9c5.77,6.57,11.6001,13.08,17.25,19.76c5.5601,6.16,10.0901,13.16,15.2101,19.67
	c5.83,7.35,10.3199,15.65,16.2899,22.89c11.14,14.83,18.75,31.85,26.1101,48.75c3.1599,11.11,8.1499,21.69,10.1699,33.12
	c1.0701,7.08,4.14,13.77,4.0701,21.03c1.5,8.6,1.0399,17.32,1.11,26c-0.01,6.21-2.5801,12-3.6,18.06
	c-1.6001,8.39-6.74,15.38-11.3501,22.35c-2.45,3.81-7.1799,4.8-10.7,7.3c-6.09,4.27-13.27,6.49-20.28,8.73
	c-6.22,1.99-12.71-0.14-18.85-1.37c-4.37-2.41-8.79-4.91-12.6-8.16c-4.28-4.72-9.3201-8.84-12.67-14.34
	c-3.5-5.59-7.71-10.82-9.91-17.11c-6.0099-13.82-10.7899-28.16-14.25-42.82c-3.4199-10.77-4-22.08-5.45-33.21
	c-1.28-13.05-4.48-26.11-2.72-39.28c1.01-6.47,0.28-13.09,1.58-19.52c1.22-7.48,3.22-14.86,6.48-21.72
	c0.9401-2.07,3.02-3.18,4.8101-4.42c2.42,5.63,4.6899,11.44,5.67,17.52c0.83,14.65-1.0901,29.4399,1.2799,44
	c0.66,6.62-0.2899,13.3,0.39,19.93c0.8301,7.03,1.41,14.09,2.4,21.1c-0.39,8.9,3.74,17.01,5.5,25.55
	c1.15,5.87,4.66,10.78,8.12,15.51c1.89,3.75,3.71,7.98,7.61,10.08c5.15,2.87,10.1,6.19,15.5,8.59c5.49,1.4901,11.29,0.47,16.83-0.25
	c7.3701-0.71,14.01-5.07,18.5901-10.72c6.24-8.68,5-20.02,3.71-30c-1.85-10.55-2.11-21.47-5.8099-31.62
	c-2.91-7.92-4.5901-16.21-7.5801-24.1c-3.2-9.44-7.5499-18.43-12.1699-27.25c-4.7301-8.37-10.3601-16.19-15.29-24.44
	c-5.38-9.04-12.63-16.73-18.9301-25.1c-4.5-6.11-10.1599-11.19-15.46-16.56c-7.6801-7.66-15.35-15.33-22.98-23.02
	c-5.0801-5.11-11.0801-9.15-17.05-13.12c-4.71-3.55-8.9399-7.71-13.88-10.93C1122.9301,513.21,1121.55,507.71,1119.38,502.48z"/>
<path fill="#1C1818" stroke="#1C1818" stroke-width="0.394" d="M163.98,638.86c-0.84-3.22,2.9-5.95,5.86-5.02
	c5.8,1.21,10.93,4.35,16.17,6.97l0.67,0.41c8.26,5.25,16.71,10.46,23.5,17.6c4.9,5.11,10.29,9.76,14.74,15.3
	c4.25,5.38,9.71,9.7,13.63,15.36c4.85,6.78,9.84,13.45,14.97,20.01c8.34,10.59,12.31,23.69,18.52,35.48
	c6.8,12.3701,11.46,25.9901,13.21,40.01c0.1,9.27,0.98,18.8-1.58,27.85c-2.14,5.42-4.1,10.94-6.82,16.11
	c-1.88,3.83-6.06,5.44-9.68,7.15c-3.82,1.66-7.43,3.74-11.16,5.58c-2.67,1.22-5.69,2.24-8.6,1.2c-4.87-1.55-10.01-2.52-14.58-4.83
	c-2.85-2.78-4.76-6.35-7.32-9.38c-3.22-4.2599-6.69-8.46-8.66-13.49c-2.19-5.53-4.07-11.18-6.34-16.68
	c-4.67-10.6-5.03-22.41-8.45-33.4c-2.2-8.55-0.52-17.44-1.22-26.13c-0.62-7.69,0.71-15.33,1.62-22.93
	c0.59-4.86,4.15-8.52,7.13-12.1201c3.19,9.02,3.02,18.66,2.69,28.08c-0.38,6.38,1.25,12.62,1.37,18.97
	c-0.09,7.7599,1.87,15.39,1.3,23.17c0.04,6.24,2.11,12.18,3.62,18.17c1.03,4.49,3.96,8.12,6.33,11.97c0.92,1.87,1.71,4.05,3.72,5.06
	c3.95,2.3,7.73,4.95,11.85,6.96c5.62,1.42,11.39-0.45,16.84-1.81c5.32-1.11,9.56-5.72,11.15-10.77c0.72-9.63,0.81-19.54-2.06-28.86
	c-2.3-10.96-4.87-22.03-10.1-32.02c-3.89-7.44-7.11-15.25-11.84-22.22c-3.91-5.79-6.83-12.28-11.63-17.43
	c-9.16-9.82-16.96-20.98-27.46-29.49c-6.36-5.04-12.13-10.79-18.63-15.65c-5.7-4.59-11.49-9.06-17.5-13.22
	C167.16,643.21,164.5,641.66,163.98,638.86z"/>
<path fill="#1C1818" stroke="#1C1818" stroke-width="0.394" d="M344.23,704c1.54-1.85,3.22-3.56,4.88-5.29
	c3.35,0.96,6.64,2.13,9.82,3.55c3.87,1.67,7.82,3.18,11.51,5.23c23.49,13.25,45.5,29.39,64.15,48.93
	c4.92,5.08,10.34,9.73,14.66,15.37c3.2,4.2401,7.33,7.62,10.7,11.71c0.37,0.47,1.1,1.39,1.47,1.86c3.46,4.26,7.64,7.92,10.71,12.52
	c8.11,11.88,16.47,23.6,24.72,35.39c4.64,6.72,9.57,13.27,13.4,20.51c4.03,7.6299,8.82,14.85,12.45,22.6899
	c6.04,12.82,12.17,25.64,16.99,38.9901c1.75,6.16,4.55,11.98,5.89,18.27c2.44,10.67,6.37,21.18,6.29,32.26
	c1.66,10.26,0.56,20.67,0.93,31.01c0.28,5.75-1.08,11.39-2.83,16.83c-1.95,5.77-2.83,11.95-5.9,17.29
	c-2.65,4.62-5.65,9.03-8.19,13.71c-2.08,3.9701-6.42,5.74-9.93,8.1801c-5.2,3.28-9.91,7.64-16,9.22c-5.29,1.39-10.6,2.73-15.97,3.72
	c-5.38,1.01-10.66-0.9099-15.99-1.2899c-3.34-0.1-5.89-2.4601-8.65-4.01c-3.64-2.35-8.05-3.74-10.72-7.3301
	c-3.92-5.08-9.66-8.6-12.67-14.3899c-2.39-4.2301-4.99-8.3201-7.48-12.4701c-3.27-5.27-5.3-11.16-7.91-16.7599
	c-1.77-4.56-4.53-8.72-5.74-13.49c-1.95-8.23-5.67-15.9-7.69-24.1c-1.63-6.7-3.53-13.33-5.07-20.04c-1.6-6.61-1.81-13.44-3.05-20.11
	c-1.1-5.94-2.05-11.95-1.96-18.01c0.02-4.24,0.15-8.5-0.46-12.7c-1.59-9.05-0.69-18.26-0.93-27.38c0.11-7.36-0.54-14.81,1.01-22.06
	c0.98-4.45,1.39-8.99,1.79-13.52c1.65-3.67,3.34-7.32,5.1-10.94c1.27-2.7599,4.07-4.23,6.49-5.83c1.77,4.13,3.35,8.35,4.69,12.65
	c1.57,4.76,1.47,9.83,2.2,14.75c1.34,8.29,0.48,16.7,0.74,25.05c-0.07,5.25-0.33,10.54,0.4,15.77c1.21,8.43,0.48,16.96,0.62,25.44
	c0.44,6.9,1.64,13.72,1.73,20.66c1.14,6.41,0.42,12.99,1.58,19.39c2.2,7.72,4.43,15.44,6.4,23.22c1.49,6.12,5.6,11.05,9.48,15.82
	c2.52,4.25,4.24,9.62,9.05,11.85c5.81,3.08,11.33,6.67,16.98,10.03c2.69,1.75,6,1.48,9.07,1.54c6.51-0.09,13.29,0.58,19.42-2.14
	c8.52-2.56,14.97-9.33,19.54-16.69c2.44-3.81,2.98-8.41,2.85-12.83c0.14-11.17-0.31-22.4901-3.36-33.29
	c-2.35-9.18-4.68-18.36-6.91-27.57c-2.11-7.57-5.03-14.88-7.25-22.42c-2.27-8.11-6.88-15.23-10.36-22.83
	c-5.1-10.09-9.77-20.41-15.65-30.07c-5.97-9.63-10.89-20.05-18.61-28.46c-3.07-3.61-6.12-7.24-9.09-10.93
	c-3.97-4.9901-9.11-8.9-12.98-13.97c-4.17-5.47-9.39-9.99-14.17-14.9c-4.72-4.6201-9.1-9.6201-14.35-13.67
	c-5.09-3.87-9.02-8.99-13.98-13c-3.85-3.08-7.45-6.46-11.33-9.5c-4.49-4.33-9.61-7.93-14.7-11.5c-7.76-5.41-15.37-11.02-23.1-16.45
	c-1.83-1.29-3.77-2.45-5.35-4.03c-0.74-1.78-0.8-3.74-0.97-5.62C343.15,706.53,343.69,705.27,344.23,704z"/>
<path fill="#1C1818" stroke="#1C1818" stroke-width="0.394" d="M96.29,810.08c5.66-0.04,10.75,2.66,15.75,4.98
	c6.78,3.33,13.77,6.43,19.82,11.04c8.2,5.71,13.97,14.15,22.06,20c6.83,6.17,13.4,12.69,19.34,19.7401
	c4.72,6.23,9.82,12.18,14.37,18.55c7.25,9.63,13.45,19.98,19.91,30.14c8.46,13.12,13.18,28.11,19.36,42.34
	c2.6,6.53,3.42,13.58,5.04,20.39c1.39,5.47,0.7,11.16,0.8,16.74c-0.11,6.51,0.75,13.21-1.37,19.51c-1.77,5.51-2.08,11.6-5.4,16.52
	c-1.85,2.7999-3.3,5.9-5.53,8.4399c-2.09,1.8101-4.86,2.52-7.31,3.7001c-5.65,2.5299-11.04,5.64-16.76,8.0299
	c-2.75,1.2301-5.67-0.1599-8.31-0.98c-4.36-1.6899-8.9-2.8099-13.37-4.1699c-2.88-0.76-4.17-3.7201-5.94-5.8101
	c-4.09-5.23-7.79-10.76-12.19-15.75c-1.24-1.38-1.8-3.18-2.36-4.9c-2.93-9.55-6.56-18.8701-10.27-28.13
	c-1.74-11.34-4.16-22.58-6.37-33.84c-1-10.1-0.33-20.28-0.7-30.4c-0.3-7.81,1.58-15.47,1.53-23.2599c-0.14-2.57,1.67-4.56,2.95-6.58
	c1.53-2.35,3.22-4.61,5.39-6.41c1.81,5.55,4.71,11.03,4.36,17.03c-0.56,14.67-0.14,29.35-0.32,44.02c0.63,7.35,2.19,14.6,2.88,21.95
	c0.47,6.82,2.53,13.39,3.42,20.16c0.46,5.4,4.86,9.02,7.72,13.24c0.91,2.22,2.03,4.53,4.4,5.53c4.33,2.13,8.14,5.5,12.88,6.69
	c5.79,0.34,11.72,0.65,17.46-0.31c6.61-2.6201,12.06-8.32,14.83-14.82c2.25-10.04-0.57-20.27-2.6-30.11
	c-1.62-6.4-2.09-13.02-3.78-19.4c-4.54-13.84-10.8-27.06-18.24-39.56c-2.74-5.7-6.24-10.96-10.21-15.86
	c-5.23-6.54-8.81-14.32-14.8-20.2401c-4.55-4.44-8.78-9.24-13.81-13.15c-7.29-5.67-12.89-13.17-20.08-18.94
	c-2.22-1.8-4.42-3.6-6.52-5.52c-2.01-2.04-4.19-3.89-6.61-5.41c-7.11-4.43-13.66-9.68-20.7-14.22
	C92.83,818.71,95.02,813.52,96.29,810.08z"/>
<path fill="#C5EBE9" stroke="#C5EBE9" stroke-width="0.394" d="M669.95,96.75c-3.19-5.9-8.64-10.59-10.3-17.26
	c10,7.53,18.35,16.87,27.25,25.61c4.11,4.21,8.6,8.1,12.14,12.83c6.97,9.14,13.77,18.41,20.01,28.07c5.78,8.04,9.35,17.34,14.05,26
	c7.57,16.47,13.97,33.8,15.56,51.99c0.16,6.03,0.15,12.06,0.1,18.09c0.25,4.48-4.08,7.04-6.8,9.9c-7.11,6.5-17.35,7.8-26.54,6.33
	c-4.07-1.5-7.45-4.38-11.13-6.6c-3.49-1.99-4.86-5.96-6.61-9.33c-0.06-8.36-2.47-16.42-3.48-24.67
	c-1.25-10.97-2.56-21.93-3.96-32.87c-0.83-6.59,0.08-13.24-0.5-19.84c-1.57-15.61-3.34-31.38-8.48-46.28
	C677.87,111.21,674.2,103.81,669.95,96.75z"/>
<path fill="#C5EBE9" stroke="#C5EBE9" stroke-width="0.394" d="M986.86,307.06c-3.21-6.79-9.82-11.43-12.15-18.67
	c4.22,3.01,8.16,6.38,11.87,10.01c10.16,8.11,18.64,18.04,28.08,26.95c6.2401,5.66,9.81,13.46,15.1501,19.87
	c3.9099,4.71,6.9399,10.06,9.48,15.62c9.3199,18.11,18.6499,36.7,22.0299,56.98c0.9701,5.01,2.4801,9.98,2.4,15.14
	c-0.0599,5.34,0.14,10.7-0.0699,16.05c0.0399,3.08-2.76,4.96-4.62,7.02c-5.36,5.7-13.2001,9.02-21.03,8.79
	c-3.0699,0.04-6.3199,0-8.95-1.78c-3.78-2.34-7.9401-3.99-11.66-6.41c-2.42-2.42-3.4-5.86-4.96-8.83
	c-0.28-4.04-0.68-8.08-1.35-12.07c-0.56-4.13-1.47-8.19-2.48-12.22c-0.56-7.27-1.08-14.56-2.0699-21.79
	c-2.76-18.51-2.67-37.41-6.86-55.7c-0.35-1.21-0.76-2.38-1.16-3.56c-0.84-4.27-1.16-8.63-2.07-12.89
	C994.87,321.47,990.3,314.44,986.86,307.06z"/>
<path fill="#C5EBE9" stroke="#C5EBE9" stroke-width="0.394" d="M629.88,326.13c5.3,1.96,10.32,4.76,15.92,5.81
	c5.69,1.17,10.96,3.68,16.3,5.86c7.25,3.1,14.79,5.55,21.77,9.25c8.4,4.26,16.88,8.39,25.28,12.68
	c8.61,5.04,17.27,10.02,25.72,15.33c13.91,11.37,30.14,19.55,43.92,31.11c15.63,12.78,31.59,25.12,47.57,37.45
	c10.8,9.51,20.43,20.25,30.82,30.2c11.41,11.92,23.82,22.89,34.44,35.54c9.58,10.51,18.39,21.68,27.18,32.84
	c8.67,9.9,15.65,21.1,22.99,31.98c4.35,6.66,8.91,13.2,12.66,20.23c8.57,17.11,19.18,33.1801,26.25,51.03
	c4.96,10.98,9.98,21.94,14.5,33.11c2.86,8.47,5.66,16.97,8.61,25.41c2.54,8.29,5.81,16.38,7.47,24.92c1.35,6.95,3.2,13.8,4.67,20.74
	c3.38,10.95,4.24,22.41,6.62,33.58c1.09,5.96,1.73,12,2.7401,17.98c0.7899,5.94,2.6,11.78,2.36,17.83c-0.0801,2.74,0.46,5.44,1,8.12
	c0.9399,4.7,0,9.56,1.08,14.25c0.92,4.14,0.61,8.41,0.63,12.62c-0.02,9.33,0,18.67-0.01,28c-0.0599,5.77,0.4301,11.6-0.8199,17.29
	c-0.87,10.44-2.6901,20.77-3.77,31.19c-0.8301,9.26-2.39,18.46-4.4301,27.53c-1.54,8.08-2.54,16.28-4.45,24.29
	c-3.6,10.32-7.32,20.6-10.6,31.02c-2.66,8.91-6.54,17.3799-10.28,25.8699c-3.94,9.16-7.53,18.53-12.89,26.9901
	c-4.55,7.3899-7.96,15.5499-13.58,22.24c0.93-7.53,6.7-13.2201,8.59-20.4301c-0.51-3.12-3.82-5.95-7.03-5.91
	c-4.28,1.65-7.42,5.27-10.87,8.17c-5.34,5.34-11.43,9.87-16.65,15.34c-6.63,6.6801-13.02,13.6801-20.71,19.17
	c2.89-6.85,7.35-12.85,10.54-19.55c3.97-8.2,9.75-15.2999,15.57-22.23c3.24-3.51,2.47-8.54,1.75-12.8199
	c-5.2-1.25-10.72-0.42-15.31,2.2999c-8.5,4.91-16.76,10.36-24.22,16.76c-4.57,4.41-9.21,8.78-13.34,13.62
	c-5.09,6.86-11.39,12.7001-16.35,19.67c-6.18,6.91-10.38,15.48-17.58,21.46c3.55-9.58,7.47-19.22,13.65-27.4399
	c9.49-13.3101,17.5699-27.5701,27.31-40.7001c4.84-7.85,10.73-15.0699,14.66-23.46c2.22-4.0599,4.34-8.46,3.51-13.23
	c-4.54-1.19-9.44-2.13-13.93-0.22c-13.68,5.3701-25.57,14.2401-37.4,22.78c-8.66,6.9701-16.93,14.41-25.3,21.7101
	c-7.8,6.51-14.65,14.0399-21.87,21.1599c-5.06,5.9801-10.51,11.6101-15.87,17.3201c1.8-6.03,3.74-12.03,5.24-18.14
	c1.58-6.65,5.87-12.15,8.31-18.46c6.54-15.98,15.41-30.87,24.81-45.3c10.56-12.71,19.94-26.54,32.37-37.58
	c6.13-6.54,12.88-12.44,20.06-17.8c3.67-3.02,8.63-6.19,8.43-11.58c-0.11-2.83,0.81-7.6801-3.06-8.29
	c-4.05-0.11-7.64,2.18-11.13,3.94c-15.88,9.16-31.82,18.38-46.29,29.68c-8.47,4.98-14.54,13-22.98,17.99
	c-5.72,3.47-10.07,8.6801-15.58,12.4301c-3.49,2.49-7.49,4.47-10.16,7.95c-5.35,7.29-10.09,15.2001-16.74,21.41
	c3.37-8.36,7.66-16.33,11.74-24.36c4.94-8.08,9.04-16.7,14.94-24.15c6.34-8.34,12.02-17.18,18.67-25.27
	c4.91-5.16,8.56-11.37,13.58-16.42c3.47-3.55,6.59-7.45,10.39-10.67c4.28-3.68,7.8-8.31,12.85-11.04c1.55-1.21,4.15-1.95,4.11-4.3
	c0.43-4.03-2.96-7.57-6.5-8.9c-7.92-1.76-16.23,0.52-23.01,4.73c-7.65,4.96-15.74,9.32-22.68,15.3c-8.26,6.01-16.15,12.5-24.1,18.9
	c-4.64,4.0099-8.55,8.78-13.11,12.87c-5.86,5.2-9.94,12.03-15.76,17.27c-12.75,11.88-23.38,25.75-34.6,39.01
	c3.32-19.45,11.38-37.71,20.53-55.05c2.9-6.52,7.2-12.23,10.84-18.33c3.85-6.71,8.19-13.12,12.04-19.83
	c3.38-6.06,8.48-10.85,12.73-16.27c3.94-5.03,9.01-9.02,12.9-14.09c3.88-5.12,8.95-9.17,12.77-14.34
	c7.69-9.97,18.09-17.24,27.56-25.35c3.84-3.0699,3.07-10.67-2.04-11.92c-3.83-0.29-7.38,1.52-10.84,2.9
	c-4.5,2.03-9.21,3.53-13.93,4.94c-5.21,1.51-9.79,4.47-14.75,6.56c-11.15,4.45-21.35,10.92-31.11,17.83
	c-8.6,5.19-16.45,11.48-24.03,18.02c-5.43,5.94-12.04,10.6-17.55,16.45c-4.23,4.41-9.62,7.6-13.34,12.52
	c-3.46,4.3199-5.51,9.8-10.07,13.19c2.36-9.9901,8.66-18.39,12.31-27.89c7.53-18.7,19.46-35.06,29.76-52.26
	c6.35-8.87,12.77-17.74,19.97-25.95c6.97-8.63,13.8-17.55,22.53-24.51c5.1-4.93,10.96-8.98,16.1-13.88
	c3.24-3.14,7.72-4.91,10.42-8.6c1.34-3.51-1.21-8.02-4.81-8.96c-5.64-1.57-11.96-0.85-16.9,2.36c-11.09,7.3-20.81,16.4-30.59,25.33
	c-8.58,7.04-16.1,15.25-23.92,23.1c-5.63,5.71-11.68,11.05-16.49,17.5c-3.81,5.13-8.27,9.72-12.9301,14.08
	c-9.59,9.34-14.87,22.48-25.79,30.53c1.87-9.36,5.61-18.18,9.38-26.89c6.22-16.07,13.49-31.79,22.58-46.45
	c4.93-8.31,10.59-16.17,15.81-24.3c9.84-11.38,19.12-23.44,30.92-32.93c4.47-3.51,8.22-7.82,12.35-11.71
	c1.88-1.87,3.9-3.7,5.19-6.05c-0.19-3.72-4.49-6.04-7.88-4.89c-10.73,2.63-18.99,10.46-28.36,15.85c-5.89,3.31-9.71,9.06-15,13.11
	c-8.01,5.86-15.42,12.51-22.73,19.2c-4.15,4.2-8.15,8.57-12.71,12.34c-5.88,4.7401-10.91,10.39-16.3,15.64
	c-4.31,4.32-8.34,9.05-13.67,12.18c4.8-9.35,8.63-19.15,13.46-28.48c2.55-6.37,6.51-11.96,10.35-17.58
	c11.65-18.68,21.84-38.32,34.97-56.04c4.95-6.46,9.64-13.12,13.96-20.02c3.63-5.91,9.01-10.44,13.09-16
	c1.48-1.69,1.59-4.76-0.47-6.02c-2.86-2.46-7.06-2.53-10.29-0.79c-6.01,3.08-10.98,7.77-16.43,11.69
	c-8.79,6.13-15.26,14.81-22.29,22.75c-4.61,5.04-10.42,9.14-13.62,15.35c-5.24,9.7599-13.61,17.43-18.68,27.29
	c-4.94,9.83-11.31,18.98-14.74,29.51c-2.99,8.96-7.55,17.41-9.26,26.76c-1.3,7.09-3.98,13.85-5.06,20.98
	c-1.47,13.39-4.39,26.7-3.76,40.25c-0.2,8.39,1.32,16.7,1.24,25.1c-0.06,5.46,2.25,10.54,2.97,15.9c1.2,8.45,3.41,16.72,4.93,25.12
	c3.94,13.61,9.73,26.62,13.86,40.18c2.1,6.42,5.69,12.2,8.63,18.25c3.2,5.9,5.37,12.34,9.12,17.96c5.2,7.9,10.25,15.89,15.3,23.9
	c9.41,15.22,19.96,29.74,31.46,43.4601c6.86,6.49,12.21,14.4199,19.51,20.47c6.06,4.9299,11.31,10.7899,17.73,15.28
	c14.44,11.5199,29.86,22.1499,47.11,29.0399c5.61,2.0801,11.5,3.24,17.26,4.84c4.42,1.2001,8.74,2.91,13.32,3.4801
	c3.71,0.47,7.49,0.7699,11.06,2.01c10.82,3.9199,22.53,3.38,33.86,3.4099c8.41,0.3201,15.69-4.49,22.62-8.61
	c7.61-5.12,16.11-8.9199,23.05-14.99c1.98-1.7,4.16-3.13,6.45-4.38c-3.37,4.49-7.5699,8.26-11.6299,12.11
	c-7.13,5.37-14.97,9.73-22.34,14.76c-8.77,6.9501-19.52,10.55-29.22,15.9301c-4.54,1.95-8.79,5.5699-13.9399,5.37
	c-15.46-3.12-30.7-7.53-46.36-9.63c-9.14-3.53-17.31-9.01-25.88-13.67c-7.1-4.26-15.27-6.74-21.53-12.33
	c-2.13-2.87-4.52-5.5701-7.46-7.62c-5.67-3.9601-9.73-9.7001-15.21-13.86c-5.7-4.26-10.06-10-15.76-14.24
	c-5.55-4.15-9.28-10.4601-15.64-13.53c-3.34-4.28-6.29-8.86-10.08-12.76c-4.95-5.0701-7.83-11.64-11.52-17.59
	c-4.83-8.4-10.67-16.2201-14.66-25.0901c-4.65-10.26-10.93-19.74-14.62-30.42c-3.23-9.07-7.76-17.67-10.17-27.03
	c-3.07-10.85-7.91-21.19-9.87-32.34c-2.97-12.75-6.43-25.41-8.41-38.37c-1.84-11.01-5.59-21.82-5.15-33.09
	c-0.01-5.35-1.28-10.61-1.09-15.96c0.28-6.06-1.62-11.95-1.39-18c0.22-11.67-0.25-23.35,0.51-34.99c1.3-11.64,2.95-23.24,4.29-34.88
	c1.36-10.55,3.99-20.9,4.81-31.52c0.68-9.2,3.08-18.14,4.8199-27.17c3.96-17.33,5.72-35.03,8.28-52.59
	c6.7-52.63,16.24-104.92,20.72-157.82c0.16-19-0.0699-38.02,0.1-57.03c0.32-9.04-2.04-17.85-2.94-26.79
	c-1.6-8.28-1.61-16.84-3.96-24.97c-4.54-15.94-7.06-32.62-14.41-47.62C636.48,343.33,631.35,335.36,629.88,326.13 M716.51,377.41
	c-4.28,3.37-8.15,7.28-11.61,11.48c-3.36,4.31-7.38,8.09-10.23,12.79c-3.26,5.31-7.55,9.9-10.57,15.36
	c1.37,0.57,2.73,1.78,4.32,1.21c6.17-1.53,12.53-2.53,18.32-5.32c6.26-1.82,12.62-3.82,19.19-4.05
	c-3.78,8.92-11.69,15.01-18.19,21.86c-3.18,3.27-5.16,7.45-8.1,10.91c-10.46,11.05-21.36,22.31-27.43,36.49
	c0.06,0.98,0.3,1.94,0.73,2.87c6.05-2.59,10.66-7.46,16.26-10.81c8.28-5.72,16.56-11.43,24.8-17.21c7.13-4.4,13.24-10.37,20.8-14.11
	c0.67-0.32,1.37-0.32,2.09-0.01c-4.78,7.41-10.26,14.35-15.82,21.18c-4.56,6.4-9.3,12.66-14.3,18.73
	c-5.18,6.24-8.44,13.97-14.5,19.49c-3.13,2.73-5.27,6.31-6.98,10.05c-2.67,5.72-6.63,10.65-10.11,15.86
	c-1.96,3.18-4.16,7.16-2.25,10.87c4.55-2.69,8.03-6.74,12.28-9.83c3.62-2.68,6.97-5.68,10.03-8.98c3.83-4.2,8.58-7.4,12.52-11.47
	c3.49-3.62,7.89-6.1,11.8-9.2c5.25-4.1,10.2-8.6,15.88-12.1c5.16-3.12,10.1-7.38,16.45-7.54c-1.49,4.71-5.49,7.83-8.04,11.89
	c-4.03,6.58-8.67,12.76-12.66,19.37c-10.1,14.02-18.83,28.97-29.18,42.81c-3.69,5-7.37,10.04-10.48,15.42
	c-1.22,2.4,2.45,3.32,4.09,2.3c3.68-1.8199,6.19-5.22,9.1-8c13-13,25.98-26.02,39-38.99c7.01-5.69,14.02-11.4,21.34-16.69
	c3.5-3.16,7.43-6.01,12.19-6.8c-3.57,9.34-11.35,16.12-16.4,24.58c-2.46,4.12-5.35,7.96-8.28,11.75
	c-5.25,6.85-9.49,14.41-14.72,21.27c-6.64,7.5699-10.06,17.22-15.38,25.65c-1.6299,2.58-5.14,4.65-4.09,8.15
	c1.47,0.06,2.97-0.09,4.16-1.07c4.69-3.27,8.91-7.17,13.6-10.44c7.44-5.17,14.35-11.05,21.81-16.2
	c8.51-5.76,16.24-12.59,24.98-18.02c6.35-3.92,12.45-8.27,19.03-11.8c0.48,0.23,1.44,0.69,1.92,0.92
	c-10.62,16.78-24.19,31.5699-33.87,48.98c-3.18,5.67-7.35,10.7-10.82,16.18c-2.61,4.14-6.03,7.94-7.16,12.83
	c7.97-0.86,12.5-8.24,18.96-12.03c5.42-3.08,9.19-8.14,13.9-12.09c5.29-4.35,10.37-8.96,15.6-13.38
	c6.55-4.64,12.1-10.73,19.36-14.32c0.2,0.24,0.6,0.73,0.8,0.97c-2.66,8.01-8.86,14.07-13.6,20.87c-5.69,8.23-12.81,15.4-18.05,23.96
	c-3.97,6.6-9.51,12.12-13.04,19c-2.33,4.63-6.3,8.57-7.02,13.89c2.37,0.09,5.22,1.07,7.23-0.74c5.81-4.83,10.26-11.08,16.04-15.95
	c8.56-8.52,17.43-17.03,28.15-22.83c4.46-2.32,8.64-5.52,13.74-6.29c-0.08,5.83-4.47,10.08-7.06,14.93
	c-4.87,9.14-8.7599,18.81-14.56,27.44c-2.86,5.4-5.88,10.71-9.14,15.88c-1.32,2.93-4.07,7.49-0.48,9.84
	c4.35-3.88,9-7.39,14.07-10.27c6.25-3.56,10.38-9.8,16.66-13.32c6.23-3.61,11.14-9.05,17.46-12.53c3.66-1.98,6.59-5.59,10.92-6.06
	c-0.35,5.43-3.3799,10.17-6.6,14.37c-3.6,4.7-5.84,10.27-7.14,16.01c-1.07,4.75-4.65,8.54-5.2,13.44c1.5,0.63,3.22,1.14,4.49-0.24
	c5.68-4.79,12.28-8.31,17.92-13.13c4.21-3.56,9.22-5.98,13.4-9.58c3.64-3.08,7.08-6.53,11.47-8.57c6.19-2.89,12.08-6.54,18.73-8.32
	c2.97-0.89,6.72-2.45,7.02-6c0.42-8.62,0.49-17.37-1.2-25.87c-1.09-5.87-4.13-11.08-6.38-16.54c-3.29-8.06-6.67-16.2-11.59-23.43
	c-3.34-4.7-5.99-9.88-9.78-14.24c-6.97-8.34-13.43-17.16-21.37-24.63c-10.84-10.83-21.66-21.67-32.5-32.5
	c-9.89-9.77-19.36-20.01-30.19-28.78c-10.68-7.89-19.81-17.69-30.56-25.5c-10.66-9.01-20.9-18.56-32.13-26.86
	c-3.65-2.99-6.55-6.77-10.26-9.69c-3.18-2.47-5.97-5.36-8.84-8.16C720.04,377.6,718.16,376.02,716.51,377.41 M927.38,660.52
	c-8.2,2.15-15.68,6.38-23.68,9.13c-6.6,2.14-11.92,6.72-17.75,10.29c-4.13,2.78-8.69,5.18-11.81,9.18
	c-2.95,3.75-5.8,7.57-8.55,11.46c-2.21,3.16-5.02,6.03-6.13,9.82c-1.88,5.9-4.43,11.55-6.87,17.23c-2.1,4.37-1.29,9.33-2,13.99
	c-0.9,6.74-1.08,13.56-0.7,20.35c0.48,8.54-1,17.32,1.6,25.65c2.29,7.24,3.33,14.77,5.05,22.15c2.52,7.31,5.37,14.51,7.92,21.82
	c2.78,9.99,8.6,18.7,12.8,28.09c4.83,11.31,11.99,21.36,18.1,31.97c3.69,6.5,8.43,12.3199,12.25,18.74
	c5.11,8.64,13.76,14.26,19.92,22.06c3.9,5.06,8.78,9.23,13.15,13.87c5.44,5.92,13.15,8.76,19.58,13.37
	c6.99,3.7,14.65,7.11,22.74,6.66c2.92-0.23,6.33,0.4301,8.76-1.62c3.43-2.69,5.8-6.46,7.64-10.36c2.9-6.2,5.48-12.67,6.43-19.49
	c2.2-15.22,5.86-30.4,5.26-45.88c-0.04-9.33,0.0099-18.67,0.02-28c-0.6-14.24-4.25-28.1-5.82-42.23c-0.73-7.04-3-13.78-4.43-20.68
	c-2.89-13.53-6.15-26.9901-11.07-39.94c-3.41-11.16-7.85-21.95-12.25-32.7401c-2.91-8.2599-6.9-16.08-11.29-23.64
	c-2.95-4.77-5.01-10.08-8.56-14.46c-3.4-4.29-6.09-9.14-9.97-13.04c-3-3-6-6-8.96-9.03C935.87,662.18,931.65,660.02,927.38,660.52z"
	/>
<path fill="#C5EBE9" stroke="#C5EBE9" stroke-width="0.394" d="M442.37,369.41c5.65,4.38,10.16,10.07,16.03,14.21
	c7.48,5.42,13.59,12.38,20.21,18.77c5.12,4.96,8.84,11.12,13.72,16.3c4.34,4.66,9.5,8.62,12.95,14.06
	c4.39,6.87,9.45,13.28,13.84,20.16c8.04,11.13,14.24,23.41,20.25,35.7c2.45,5.26,4.03,10.85,5.93,16.32
	c3.71,10.33,5.19,21.26,8.12,31.81c2.91,11.11,5.56,23.38,1,34.42c-1.81,5.69-6.68,9.4901-10.85,13.42
	c-4.72,4.38-11.44,4.98-17.53,5.57c-3.85,0.11-8.15,0.66-11.46-1.76c-4-2.72-8.2-5.11-12.36-7.58c-3.67-2.05-5.18-6.19-7.12-9.67
	c-0.41-10.32-2.8-20.44-4.33-30.63c-1.27-13.5-2.51-27.02-4.35-40.46c-0.17-3.56,0.05-7.15-0.66-10.66
	c-1.09-5.22-0.4-10.59-1.24-15.84c-1.94-13.12-3.26-26.38-6.64-39.24c-1.32-5.35-1.84-10.97-4.35-15.95
	c-2.55-5.11-5.25-10.13-7.64-15.31c-3.68-8.13-10.18-14.42-15.47-21.46C447.58,377.65,443.44,374.37,442.37,369.41z"/>
<path fill="#C5EBE9" stroke="#C5EBE9" stroke-width="0.394" d="M1138.22,529.61c5.97,3.97,11.97,8.01,17.05,13.12
	c7.63,7.69,15.2999,15.36,22.98,23.02c5.3,5.37,10.96,10.45,15.46,16.56c6.3,8.37,13.55,16.06,18.9301,25.1
	c4.9299,8.25,10.5599,16.07,15.29,24.44c4.62,8.82,8.97,17.81,12.1699,27.25c2.99,7.89,4.67,16.1801,7.5801,24.1
	c3.7,10.15,3.96,21.07,5.8099,31.62c1.29,9.98,2.53,21.32-3.71,30c-4.5801,5.65-11.22,10.01-18.5901,10.72
	c-5.5399,0.72-11.34,1.7401-16.83,0.25c-5.4-2.4-10.35-5.72-15.5-8.59c-3.9-2.1-5.72-6.33-7.61-10.08
	c-0.91-7.07-1.97-14.12-3.33-21.11c-0.9401-4.97-2.4801-9.86-2.4701-14.95c-0.0299-3.31-0.49-6.58-1.0699-9.82
	c-0.62-12.77-2.8101-25.39-3.39-38.15c-1.13-8.91-0.85-17.94-2.38-26.81c-2.08-15.33-5.24-30.53-9.6899-45.34
	c-3.8-8.59-7.99-17.04-12.7301-25.16C1150.7,546.72,1143.6,538.74,1138.22,529.61z"/>
<path fill="#C5EBE9" stroke="#C5EBE9" stroke-width="0.394" d="M186.74,658.04c6.5,4.86,12.27,10.61,18.63,15.65
	c10.5,8.51,18.3,19.67,27.46,29.49c4.8,5.15,7.72,11.64,11.63,17.43c4.73,6.97,7.95,14.78,11.84,22.22
	c5.23,9.99,7.8,21.06,10.1,32.02c2.87,9.32,2.78,19.23,2.06,28.86c-1.59,5.05-5.83,9.66-11.15,10.77
	c-5.45,1.36-11.22,3.23-16.84,1.81c-4.12-2.0099-7.9-4.66-11.85-6.96c-2.01-1.01-2.8-3.19-3.72-5.06
	c-0.28-10.82-3.22-21.33-3.86-32.11c-0.98-7.09-2.44-14.1-3.17-21.21c-0.56-5.83,0.22-11.7-0.61-17.5
	c-1.57-9.74-2.05-19.71-5.24-29.12c-2.13-9.66-6.41-18.62-11.23-27.19C196.63,670.38,190.67,664.95,186.74,658.04z"/>
<path fill="#C5EBE9" stroke="#C5EBE9" stroke-width="0.394" d="M396.71,760.22c-3.28-4.97-7.81-9.14-9.95-14.8
	c3.88,3.04,7.48,6.42,11.33,9.5c4.96,4.01,8.89,9.13,13.98,13c5.25,4.05,9.63,9.05,14.35,13.67c4.78,4.91,10,9.43,14.17,14.9
	c3.87,5.07,9.01,8.98,12.98,13.97c2.97,3.69,6.02,7.32,9.09,10.93c7.72,8.41,12.64,18.83,18.61,28.46
	c5.88,9.66,10.55,19.98,15.65,30.07c3.48,7.6,8.09,14.72,10.36,22.83c2.22,7.54,5.14,14.85,7.25,22.42
	c2.23,9.21,4.56,18.39,6.91,27.57c3.05,10.8,3.5,22.12,3.36,33.29c0.13,4.42-0.41,9.02-2.85,12.83
	c-4.57,7.36-11.02,14.13-19.54,16.69c-6.13,2.72-12.91,2.05-19.42,2.14c-3.07-0.06-6.38,0.21-9.07-1.54
	c-5.65-3.36-11.17-6.95-16.98-10.03c-4.81-2.23-6.53-7.6-9.05-11.85c-2.59-15.7-4.35-31.53-6.94-47.23
	c-1.69-10.57-4.05-21.14-3.17-31.91c-1.47-13.68-4.03-27.28-4.01-41.09c-0.62-5.0099-1.26-10.02-1.14-15.07
	c0.19-6.47-1.44-12.7599-2.7-19.04c-1.98-10.2-4.9-20.19-7.35-30.28c-2.22-9.52-7.77-17.71-11.75-26.52
	C407.13,774.91,401.65,767.7,396.71,760.22z"/>
<path fill="#C5EBE9" stroke="#C5EBE9" stroke-width="0.394" d="M124.32,840.68c2.1,1.92,4.3,3.72,6.52,5.52
	c7.19,5.77,12.79,13.27,20.08,18.94c5.03,3.91,9.26,8.71,13.81,13.15c5.99,5.92,9.57,13.7,14.8,20.2401
	c3.97,4.9,7.47,10.16,10.21,15.86c7.44,12.5,13.7,25.72,18.24,39.56c1.69,6.38,2.16,13,3.78,19.4c2.03,9.84,4.85,20.07,2.6,30.11
	c-2.77,6.5-8.22,12.2-14.83,14.82c-5.74,0.96-11.67,0.65-17.46,0.31c-4.74-1.19-8.55-4.56-12.88-6.69c-2.37-1-3.49-3.31-4.4-5.53
	c-0.64-10.58-3.5-20.85-4.69-31.35c-0.95-12.06-3.39-23.96-3.87-36.06c-1.8-13.15-2.57-26.43-4.61-39.55
	c-2.2-9.53-4.33-19.17-8.76-27.96c-3.36-9.58-9.32-17.86-15.65-25.67C125.91,844.29,125.01,842.51,124.32,840.68z"/>
<path fill="#7096A4" stroke="#7096A4" stroke-width="0.394" d="M607.72,95.52c11.04-1.38,22.19-0.43,33.28-0.72
	c9.69-0.33,19.37,0.56,28.95,1.95c4.25,7.06,7.92,14.46,11.31,21.97c5.14,14.9,6.91,30.67,8.48,46.28c0.58,6.6-0.33,13.25,0.5,19.84
	c1.4,10.94,2.71,21.9,3.96,32.87c1.01,8.25,3.42,16.31,3.48,24.67c-2.91-3.06-5.47-6.58-5.99-10.89
	c-1.08-6.92-4.77-13.33-4.41-20.46c0.05-4.3,0.25-8.62-0.28-12.9c-1.5-10.64-0.7-21.42-0.78-32.13
	c0.38-7.08-1.6899-13.98-1.52-21.06c0.07-5.95-2.44-11.47-4.28-17.01c-3.77,4.29-8.34,8.91-8.41,15.01
	c-0.34,8.37-2.27,16.67-1.55,25.07c0.9,10.66-0.9901,21.5,1.4,32.03c1.59,7.78,3.43,15.51,4.65,23.35
	c1.13,8.44,4.94,16.16,7.73,24.12c1.83,4.49,2.52,9.39,4.66,13.76c2.34,3.82,5.63,6.94,8.19,10.6c2.94,3.74,5.29,8,8.8,11.26
	c3.71,2.39,8.2,3.12,12.28,4.72c4.22,1.26,8.84,3.71,13.23,1.7c4.9-2.17,9.6-4.78,14.63-6.64c4.0699-1.87,8.99-3.39,11.1299-7.71
	c3.71-6.73,6.71-13.88,8.71-21.3c1.27-4.87,0.81-9.94,0.82-14.9c-0.16-7.45,0.62-15.01-1.03-22.35
	c-2.9-17.27-8.93-33.93-17.04-49.42c-6.92-14.12-15.2-27.54-24.71-40.06c-5.12-8.12-10.73-15.9-16.92-23.25
	c12.88,2.33,25.06,7.27,37.13,12.18c16.4,7.48,31.41,17.53,46.24,27.69c6.92,5.64,13.71,11.48,19.85,17.99
	c5.52,5.47,11.34,10.78,15.47,17.44c10.68,16.08,21.67,32.15,29.02,50.09c4.88,9.82,7.74,20.45,11.31,30.78
	c3.51,9.09,4.18,18.91,6.47,28.32c1.56,12.16,3.6,24.26,4.77,36.47c8.04,0.6,16.15-0.5,24.17,0.78c8.81,1.45,17.8-0.46,26.58,1.29
	c5.48,1.08,11.03,1.77,16.56,2.5c7.24,0.95,14.2,3.25,21.33,4.75c8.36,1.82,16.42,4.76,24.72,6.8c-1.9,2.64-3.7,5.57-3.7,8.94
	c-0.24,8.35-2.18,16.63-1.41,25.01c0.77,10.35-1,20.88,1.31,31.11c1.78,7.88,2.7,15.92,4.43,23.81c-3.49,2.78-7.66,4.43-11.86,5.79
	c-0.03,1.06-0.18,2.1-0.44,3.13c4.61,0.61,9.3,0.36,13.81-0.84c2.17,5.38,4.23,10.82,6.32,16.25c-0.15,0.54-0.46,1.62-0.61,2.17
	c-5.15,2.17-10.4,4.16-15.29,6.9c-6.76,3.65-13.91,6.52-20.6,10.3c-2.23,1.14-3.67,3.21-4.89,5.31c5.83,0.21,11.47-1.52,17.25-1.95
	c10.58-0.98,20.7-4.42,31.11-6.37c3.13,3.74,6.21,7.53,8.98,11.57c-12.17,5.32-23.55,12.31-35.93,17.16
	c-5.8,2.78-11.6201,5.57-17.29,8.59c-2.09,0.92-2.35,3.32-3.07,5.2c5.45,0.1,10.92-0.63,16.09-2.41c7.19-2.51,14.51-4.59,21.79-6.82
	c13.81-3.17,27.65-6.18,41.53-9c3.3099,0.59,6.6899,0.23,9.85-0.93c3.05-0.23,6.12-0.05,9.1901,0.2c-5.2301,3.8-11.28,6.2-17,9.13
	c-5.9,3.06-12.5601,4.25-18.4501,7.32c-4.5,2.29-9.02,4.53-13.54,6.78c-5.68,2.96-11.81,5.08-17.09,8.78
	c-5.56,3.83-12.04,5.92-17.84,9.3c-0.05,1.14-0.19,2.28-0.4,3.42c5.22,0.5,10.53,0.1,15.53-1.58c5.23-1.74,10.7-2.39,16.18-2.77
	c17.42-1.96,34.84-5.55,52.46-4.45c1.35,0.32,3.87-0.29,3.74,1.83c-9.6901,5.23-20.5701,8.08-29.9401,13.96
	c-6.0399,3.83-12.72,6.45-18.92,9.97c-5.55,3.09-11.5099,5.31-17.33,7.81c-2.13,0.79-3.61,2.52-4.98,4.24
	c9.21,1.25,18.4301-0.33,27.3-2.79c15.99-2.55,31.8099-7.98,48.1799-6.85c-6.2,4.27-13.37,6.7-20.11,9.91
	c-7.9299,3.96-16.62,6.1-24.48,10.21c-9.59,3.81-19.01,8.56-26.8,15.42c-1.58,1.01-0.97,2.71-0.59,4.2
	c7.31-0.11,13.86-3.9,21.07-4.72c10.52-1.29,20.1201-6.38,30.6401-7.61c6.4399-0.97,12.9099,0.11,19.3099,0.83
	c-14.8,10.77-30.91,19.54-46.53,29.04c-3.64,2.29-8.61,4.41-8.79,9.41c6.82-0.11,13.34-2.36,20.09-3.11
	c7.1-1.15,14.41-0.44,21.41-2.25c7.49-1.86,15.2799-1.81,22.9199-1.19c-4.2899,3.52-9.7899,5.18-13.88,8.99
	c-5.8099,5.45-13.09,9.1-18.49,15.04c4.5,0.53,9.0801,0.6,13.55-0.26c6.78-1.39,13.77-0.73,20.5399-2.21
	c6.2301-1.32,12.6901-0.67,18.9301-2.02c6.91-1.84,13.58,3.8199,20.4301,1.55c4.1899-6.56,6.3999-14.15,10.0499-21.02
	c3.22-5.96,4.09-12.75,4.6801-19.4c0.51-6.39,2.6699-12.55,2.6899-18.9901c0.0701-5.97,0.26-11.99-0.8199-17.89
	c-0.89-4.65-0.76-9.4-1.03-14.1c-0.65-10.01-4.75-19.38-5.53-29.37c4.9401,3.22,9.17,7.38,13.88,10.93
	c5.38,9.13,12.48,17.11,17.97,26.17c0.04,4.99-0.1799,9.98-0.73,14.9399c-0.96,7.29-0.51,14.78-2.74,21.8701
	c-3.01,10.5-4.35,21.68-9.89,31.27c-4.2999,7.99-7.6699,16.53-13.0199,23.92c-4.0801,5.66-7.7401,11.6-11.63,17.39
	c-4.8601,7.34-11.79,12.89-17.8,19.22c-7.41,7.22-14.48,14.79-22.02,21.88c-6.52,4.81-11.6,11.27-18.3099,15.84
	c-4.2201,2.99-8.67,5.64-12.8401,8.69c-2.73-8.14-5.7999-16.16-8.61-24.26c-3.4-10.0099-9.23-18.92-13.35-28.61
	c-3.95-9.46-8.88-18.46-13.39-27.65c-7.85-16.3-17.17-31.84-27.45-46.72c-15.75-25.06-32.41-49.7-52.06-71.91
	c-9.03-11.57-19.5099-21.86-28.88-33.14c-4.04-4.3-7.61-9.02-11.75-13.22c-10.9399-10.74-21.65-21.69-32.55-32.46
	c-9.66-8.35-19.19-16.83-28.75-25.28c-7.75-7.34-16.55-13.42-24.81-20.14c-6.04-4.68-12.15-9.28-18.63-13.32
	c-25.11-16.54-49.54-34.44-76.83-47.29c-18.44-9.6-37.34-18.24-56.47-26.35c-6.45-2.87-13.63-3.38-20.12-6.15
	c-5.5-2.38-11.62-3.64-16.42-7.41c-7.49-6.28-12.16-15.12-19.17-21.86c-11.8799-11.78-23.6299-23.69-35.52-35.46
	c-10.02-8.48-21.06-16.16-33.67-20.21c-3.41-0.93-6.9901-2.1-10.55-1.46c-2.32,0.66-3.19,3.03-3.96,5.05
	c6.26,3.33,12.99,5.83,18.74,10.07c10.46,7.44,22.02,13.63,30.85,23.13c11.17,11.61,23.7,22.14,32.33,35.93
	c-7.44-1.81-15.16-2.27-22.47-4.63c-8.2-2.55-16.95-2.49-25.15-5.09c-10.44-3.03-21.51-2.24-31.98-5.07
	c-2.67-0.85-4.89,1.17-7.09,2.31c-0.26,3.26-0.34,6.54-0.13,9.81c11.67,0.99,22.86,4.92,34.57,5.56c4.67,0.42,9.18,1.75,13.78,2.56
	c4.8701,0.87,9.8701,0.69,14.71,1.76c8.47,1.93,17.1,3.17,25.39,5.81c4.01,1.31,8.73,2,11.47,5.58c5.46,6.61,8.76,14.62,13.16,21.91
	c5.39,10.82,10.16,22,13.36,33.67c2.44,9.38,6.43,18.35,7.61,28.03c1.55,11.28,3.95,22.43,5.46,33.71
	c0.31,21.65-0.07,43.33,0.17,64.99c0.21,7.39-1.29,14.67-1.6,22.04c-1.21,9.9-1.87,19.86-2.76,29.79
	c-2.37,18.39-4.07,36.87-7.43,55.12c-1.34,8.86-2.79,17.7-4.48,26.5c-3.59,23.81-7.01,47.64-10.89,71.41
	c-3.16,15.75-5.93,31.57-8.35,47.45c-3.35,20.42-4.99,41.07-7.57,61.6c-1.0099,7.52-1.3799,15.12-2.46,22.63
	c-1.7,11.16,0.34,22.49-1.23,33.66c-0.07-0.36-0.22-1.08-0.29-1.43c-11.58,1.86-23.31,2.56-35.02,2.44
	c-11.59,1.69-23.3,1.13-34.97,1.06c-3.13,0-6.48-0.48-9.3,1.21c-3.63-7.84-8.42-15.06-12.45-22.6899
	c-3.83-7.2401-8.76-13.79-13.4-20.51c13.21-0.59,25.23-6.53,37.35-11.18c12.21-4.66,23.47-11.4,34.28-18.66
	c3.12-1.97,5.31-5.12,6.19-8.68c2.53-9.43,4.41-19.08,7.9-28.23c4.22-10.47,5.59-21.8,9.6-32.34c3.8-10.23,5.74-21.05,9.59-31.27
	c2-5.55,3.68-11.23,4.84-17.02c-10.99,16.45-20.93,33.58-31.29,50.43c-1.31,2.05-2.82,3.96-4.37,5.84
	c0.39-11.04,2.38-21.91,4.48-32.72c1.81-16.23,4.07-32.41,5.59-48.65c-4.53,5.8-6.42,13.03-9.8,19.47
	c-14.39,32.15-29.32,64.04-43.75,96.17c-1.37,3.43-2.8,6.9-5.23,9.74c1.03-8.82,2.88-17.54,3.38-26.42
	c0.36-8.48,3.15-16.55,4.18-24.92c1.56-12.13,4.58-24,5.9901-36.14c2.41-11.46,3.99-23.06,6.3199-34.53
	c1.17-6.24,1.53-12.59,2.25-18.8799c0.55-5.2401,2.41-10.3101,2.15-15.6201c-6.44,9.52-11.73,19.78-16.88,30.04
	c-3.67,6.13-6.93,12.49-10.06,18.91c-5.78,10.53-11.47,21.11-17.52,31.5c-3.42,5.74-5.75,12.06-9.23,17.78
	c-5.36,8.57-8.93,18.1-14.28,26.68c-6,10.09-9.34,21.82-17.11,30.79c-0.37-0.47-1.1-1.39-1.47-1.86c1.05-4.06,1.71-8.2,2.36-12.33
	c0.78-5.15,2.74-10,3.77-15.08c0.81-3.98,1.47-7.98,2.36-11.9301c2.29-9.66,2.89-19.6,5.15-29.2599
	c2.28-13.98,4.34-28.02,7.67-41.79c3.45-11.67,4.66-23.83,7.19-35.7c1.09-8.27,5.32-16.0099,4.44-24.5099
	c-5.9,5.22-10.47,11.73-14.71,18.3199c-4.39,6.77-10.29,12.39-14.78,19.09c-6.06,9.17-13.04,17.66-19.77,26.33
	c-7.03,10.51-14.51,20.72-22.24,30.74c-1.89,2.43-4.02,4.65-6.23,6.79c2.58-15.2,6.51-30.13,9.8-45.18c0.8-4.66,1.6-9.33,2.96-13.87
	c2.64-8.82,3.21-18.05,5-27.04c1.45-9.8,4.39-19.29,6.26-29.01c-5.52,3.74-10.73,7.95-15.08,13.02
	c-6.41,7.2599-14.19,13.2599-19.87,21.15c-6.58,8.82-12.91,17.82-18.84,27.08c-3.86,6.11-8.87,11.44-12.31,17.83
	c-4.41,8.21-9.49,16.04-14.15,24.11c-3.18-1.42-6.47-2.59-9.82-3.55c-1.66,1.73-3.34,3.44-4.88,5.29
	c3.24-14.56,7.83-28.76,13.17-42.67c4.26-12.96,9.32-25.64,13.37-38.66c5.47-15.99,8.95-32.54,12.82-48.96
	c1.09-7.65,3.87-15.16,3.06-22.9901c-1.29,0.98-2.62,1.94-3.69,3.19c-25.74,33.59-51.78,66.98-77.44,100.64
	c-4.64,5.12-7.73,11.59-13.26,15.89c0.6-6.72,3.17-13,4.61-19.53c2.8-11.8,5.86-23.53,8.59-35.34c1.84-14.14,6.64-27.64,9.53-41.56
	c2.27-13.8,5.6-27.39,9.07-40.92c1.95-10.07,4.95-19.95,6-30.18c-11.18,20.11-20.23,41.37-31.67,61.35
	c-7.98,15.74-15.77,31.59-23.71,47.35c-10.67,18.79-19.67,38.46-29.52,57.68c-0.91,1.66-1.95,3.2401-2.99,4.83
	c0.47-4.91,1.4-9.75,2.57-14.53c1.76-7.09,2.54-14.38,4.33-21.46c2.53-9.97,3.32-20.25,5.42-30.3c1.46-11.41,4.83-22.45,6.55-33.82
	c1.81-9.28,4.17-18.45,5.4-27.84c2.3-10.11,2.74-20.52,5.3-30.57c1.52-6.1,2.67-12.28,3.46-18.51c0.66-5.83,2.77-11.5,2.3-17.43
	c-30.21,53.89-60.44,107.77-90.82,161.56l-0.67-0.41c2.53-21.35,8.59-42.07,11.49-63.36c2.18-11.84,5.34-23.49,7.63-35.3
	c1.61-10.28,3.9-20.4301,5.34-30.74c3.5-15.9,7.6-31.68,10.4-47.72c2.01-8.9,4.26-17.88,4.16-27.07c-1.3,1.51-2.62,3.02-3.59,4.77
	c-17.35,35.24-35.12,70.28-52.62,105.45c-6.02,12.3799-12.92,24.3799-17.5,37.42c-4.23,9.97-8.09,20.1-11.81,30.28
	c-1.77,5.21-3.1,10.57-5.16,15.69c-2.43,5.83-2.45,12.24-4.01,18.3c-2.62,9.59-3.47,19.91-1.38,29.68
	c2.67,7.45,3.42,15.5,6.96,22.65c2.68,5.59,4.16,12.01,8.74,16.48c3.9,3.7599,7.65,7.67,11.39,11.6c8.8,8.2,16.77,17.42,26.98,23.96
	c6.43,3.93,12.69,8.13,19.03,12.19c3.42,10.99,3.78,22.8,8.45,33.4c2.27,5.5,4.15,11.15,6.34,16.68c1.97,5.03,5.44,9.23,8.66,13.49
	c-15.1-4.8-28.88-12.83-42.53-20.71c-6.34-3.99-13.26-7.1-19.02-11.94c-5.32-4.36-10.83-8.46-16.15-12.82
	c-5.53-4.45-9.91-10.08-15.05-14.95c-4.91-5.13-10.77-9.58-14.16-15.96c-4.31-7.85-9.53-15.16-13.99-22.91
	c-3.78-7.58-6.13-15.77-9.74-23.43c-4.16-8.43-3.95-18.07-6.67-26.94c-2.4-7.19-0.75-14.79-1.93-22.15
	c-1.18-7.91-0.27-15.9-0.39-23.85c-0.3-10.71,1.58-21.31,2.18-31.98c0.24-8.48,2.97-16.58,4.12-24.92
	c1.67-10.72,6.16-20.65,9.02-31.04c2.08-6.79,5.79-12.94,8.12-19.64c1.95-5.64,5-10.79,8.24-15.77c3.49-5.29,5.98-11.19,9.91-16.19
	c3.81-4.88,7.39-9.93,11.15-14.85c4.28-5.66,9.66-10.33,14.57-15.42c6.49-6.68,14.6-11.38,21.84-17.15
	c3.22-2.59,6.78-4.71,10.53-6.44c6.59-3.06,12.84-6.93,19.81-9.11c6.08-1.93,12.16-3.89,18.11-6.19c8.43-3.35,17.61-3.79,26.22-6.5
	c9.82-3.12,20.21-1.36,30.3-1.82c13.49-0.56,26.83,1.91,40.13,3.77c11.04,1.58,21.64,5.52,32.8,6.37
	c1.09-8.41-1.01-16.74-0.98-25.15c-0.14-9.44-2.65-18.6-3.76-27.92c-1.09-8.73,1.49-17.33,1.22-26.06
	c-0.16-6.46-0.43-12.98,0.84-19.36c1.94-9.75,1.92-19.82,4.65-29.42c1.59-5.64,2.62-11.43,4.19-17.07
	c1.58-5.74,4.3-11.06,6.54-16.55c2.59-6.29,4.95-12.69,8.07-18.74c3.51-6.79,6.4-13.96,11.08-20.08
	c8.5-12.38,16.8-24.94,26.49-36.43c6.82-6.54,13.15-13.63,20.72-19.35c8-6.31,14.72-14.23,23.61-19.36
	c5.18-3.07,9.82-6.96,14.98-10.07c14.25-7.94,28.31-16.39,43.37-22.76c9.42-3.23,18.34-7.92,28.12-10.08
	c9.84-2.34,19.48-5.59,29.51-7.12c5.85-0.89,11.46-3.01,17.39-3.43C595.22,96.67,601.48,96.2,607.72,95.52 M416.34,339.2
	c-1.88,3.07-5.4,7.27-2.41,10.76c9.57,6.33,19.44,12.29,28.44,19.45c1.07,4.96,5.21,8.24,8.05,12.18
	c5.29,7.04,11.79,13.33,15.47,21.46c2.39,5.18,5.09,10.2,7.64,15.31c2.51,4.98,3.03,10.6,4.35,15.95
	c3.38,12.86,4.7,26.12,6.64,39.24c0.84,5.25,0.15,10.62,1.24,15.84c0.71,3.51,0.49,7.1,0.66,10.66c1.84,13.44,3.08,26.96,4.35,40.46
	c1.53,10.19,3.92,20.31,4.33,30.63c-2.57-3.96-6.52-7.29-7.4-12.14c-1.16-5.97-2.86-11.8-4.26-17.71
	c-1.23-4.66-0.34-9.55-1.44-14.23c-0.86-3.87-0.55-7.88-1.24-11.77c-1.96-9.38,0.55-19.07-1.76-28.41
	c-0.89-12.27,0.07-24.62-0.4-36.9c-0.51-5.53-2.52-10.76-4.16-16.01c-2.89,0.33-4.84,2.81-5.92,5.32
	c-4.68,10.2-6.86,21.53-6.46,32.73c-1.61,8.26-2.14,16.81-0.38,25.1c1.33,12.29,3.28,24.49,4.43,36.8
	c2.66,13.81,7.27,27.15,10.43,40.84c2.46,6.52,6.08,12.55,8.85,18.95c4.14,6.18,6.55,13.61,12.28,18.6c3.05,2.91,5.76,6.39,9.7,8.16
	c3.39,1.5,6.47,3.61,9.87,5.07c10.96,1.14,22.49,0.16,32.39-5.02c3.56-2.09,7.14-4.12,10.79-6.04c4.5-2.19,6.24-7.18,8.85-11.1
	c3.68-5.79,5.21-12.53,7.16-19.02c1.5-4.99,0.79-10.24,0.9-15.36c-0.14-8.01,0.25-16.02-0.13-24.02c-1.1-8.63-3.78-16.96-5.73-25.41
	c-3.05-9.46-6.11-18.95-10.17-28.03c-3.14-6.21-6.01-12.56-9.35-18.66c-7.21-11.42-14.4-22.85-21.47-34.35
	c-2.61-4-5.43-7.85-8.34-11.63c-5.2-6.79-9.98-13.93-15.92-20.09c-5.08-6.87-11.58-12.45-17.47-18.57
	c-6.76-6.57-13.22-13.44-20.05-19.92c-11.35-9.14-22.75-18.62-36.16-24.61C427.25,341.87,422.05,339.25,416.34,339.2z"/>
<path fill="#7096A4" stroke="#7096A4" stroke-width="0.394" d="M999.67,346.02c4.19,18.29,4.1,37.19,6.86,55.7
	c0.99,7.23,1.5099,14.52,2.0699,21.79c-1.86,0.3-3.71,0.6-5.55,0.89c-1.09-9.12-2.19-18.26-3.28-27.38
	C999.42,380.02,999.88,363.01,999.67,346.02z"/>
<path fill="#7096A4" stroke="#7096A4" stroke-width="0.394" d="M734.87,375.06c16.13,7.48,30.19,18.56,45.18,27.97
	c16.66,12.23,33.22,24.62,48.98,38.01c7.59,6.73,16.1,12.45,23.03,19.92c4.1,4.24,9.09,7.53,13.09,11.89
	c7.1,7.56,15.06,14.31,21.6,22.39c3,3.67,6.64,6.73,9.75,10.29c15.03,18.66,29.67,37.61,44.72,56.25
	c7.5,8.8799,12.86,19.25,18.85,29.15c13.15,22.82,27.62,45.05,37.69,69.49c5.3,10.17,9.68,20.81,13.25,31.72
	c2.76,7.8,6.23,15.35,8.53,23.32c2.91,10.04,5.78,20.1,8.78,30.12c-0.4199-0.3-1.24-0.91-1.6499-1.21
	c-3.39,2.07-6.4401,5.43-10.72,5.25c-1.47-6.94-3.32-13.79-4.67-20.74c-1.66-8.54-4.9301-16.63-7.47-24.92
	c-2.95-8.44-5.75-16.94-8.61-25.41c-4.52-11.17-9.54-22.13-14.5-33.11c-7.07-17.85-17.68-33.92-26.25-51.03
	c-3.75-7.03-8.31-13.5699-12.66-20.23c-7.34-10.88-14.32-22.08-22.99-31.98c-8.79-11.16-17.6-22.33-27.18-32.84
	c-10.62-12.65-23.03-23.62-34.44-35.54c-10.39-9.95-20.02-20.69-30.82-30.2c-15.98-12.33-31.94-24.67-47.57-37.45
	C765.01,394.61,748.78,386.43,734.87,375.06z"/>
<path fill="#7096A4" stroke="#7096A4" stroke-width="0.394" d="M1066.01,379.08c12.99,9.08,24.39,20.18,35.1,31.81
	c5.53,6.79,10.76,13.83,16.36,20.56c5.8,9.07,11.5701,18.23,15.9,28.12c3.65,8.53,8.05,16.8,10.3101,25.86
	c3.13,9.67,5.88,19.47,7.2899,29.55c-4.77-3.73-10.4199-6.09-15.3099-9.65c-5.4-3.93-11.4701-6.73-17.51-9.49
	c-3.16-2.75-3.8101-7.07-5.28-10.77c-5.38-13.42-11.16-26.68-17.21-39.81c-4.02-7.14-8.77-13.87-13.85-20.29
	c-1.54-3.95-2.77-8.01-3.89-12.1C1074.61,401.39,1070.8199,390.02,1066.01,379.08z"/>
<path fill="#7096A4" stroke="#7096A4" stroke-width="0.394" d="M1007.59,437.29c1.17-0.49,2.33-1.01,3.49-1.56
	c0.67,3.99,1.07,8.03,1.35,12.07c-1.55-2.26-3.4-4.35-4.48-6.89C1007.82,439.7,1007.7,438.49,1007.59,437.29z"/>
<path fill="#7096A4" stroke="#7096A4" stroke-width="0.394" d="M336.92,732.39c0.12-8.47,2.4-16.82,5.72-24.57
	c0.17,1.88,0.23,3.84,0.97,5.62c1.58,1.58,3.52,2.74,5.35,4.03C346.07,723.19,342.32,728.78,336.92,732.39z"/>
<path fill="#7096A4" stroke="#7096A4" stroke-width="0.394" d="M412.41,721.37c0.53-1.61,0.7-3.68,2.5-4.41
	c-0.02,4.43-2.02,8.45-3.27,12.61c-0.55,1.31-0.7,3.22-2.39,3.54C409.89,729.09,411.41,725.3,412.41,721.37z"/>
<path fill="#7096A4" stroke="#7096A4" stroke-width="0.394" d="M221.04,772.16c0.64,10.78,3.58,21.29,3.86,32.11
	c-2.37-3.85-5.3-7.48-6.33-11.97c-1.51-5.99-3.58-11.93-3.62-18.17c1.99,1.14,4.04,2.19,6.12,3.17
	C221.08,775.57,221.11,773.86,221.04,772.16z"/>
<path fill="#7096A4" stroke="#7096A4" stroke-width="0.394" d="M285.34,808.95c4.88,0.78,9.17,3.36,13.85,4.81
	c5.78,1.86,11.4,4.16,17.14,6.16c9.87,3.74,20.22,5.93,30.43,8.51c4.5,1.29,9.02,2.57,13.68,3.19c15.98,2.34,31.79,6.59,48.02,6.67
	c-0.4,4.53-0.81,9.07-1.79,13.52c-1.55,7.25-0.9,14.7-1.01,22.06c-1.26-1.89-3.64-2-5.66-2.33c-23.21-3.34-46.57-5.88-69.52-10.77
	c-7.37-1.43-14.89-2.1-22.16-4.08c-5.99-1.64-12.03-3.11-18.04-4.67c-8.51-2.17-17.26-3.63-25.39-7.08
	c-2.91-1.24-5.87-2.34-8.88-3.27c3.73-1.84,7.34-3.92,11.16-5.58c3.62-1.71,7.8-3.32,9.68-7.15c2.72-5.17,4.68-10.69,6.82-16.11
	C284.21,811.52,284.78,810.23,285.34,808.95z"/>
<path fill="#7096A4" stroke="#7096A4" stroke-width="0.394" d="M426.76,839.4c1.05,0.18,2.1,0.35,3.17,0.53
	c1.26,6.28,2.89,12.57,2.7,19.04c-0.12,5.05,0.52,10.0601,1.14,15.07c-2.04-0.04-4.07-0.06-6.09-0.07
	c-0.26-8.35,0.6-16.7599-0.74-25.05C426.58,845.75,426.64,842.57,426.76,839.4z"/>
<path fill="#A5DFDC" stroke="#A5DFDC" stroke-width="0.394" d="M716.51,377.41c1.65-1.39,3.53,0.19,4.75,1.36
	c2.87,2.8,5.66,5.69,8.84,8.16c3.71,2.92,6.61,6.7,10.26,9.69c11.23,8.3,21.47,17.85,32.13,26.86c10.75,7.81,19.88,17.61,30.56,25.5
	c10.83,8.77,20.3,19.01,30.19,28.78c10.84,10.83,21.66,21.67,32.5,32.5c7.94,7.47,14.4,16.29,21.37,24.63
	c3.79,4.36,6.44,9.54,9.78,14.24c4.92,7.23,8.3,15.37,11.59,23.43c2.25,5.46,5.29,10.67,6.38,16.54c1.69,8.5,1.62,17.25,1.2,25.87
	c-0.3,3.55-4.05,5.11-7.02,6c-6.65,1.78-12.54,5.4301-18.73,8.32c-4.39,2.04-7.83,5.4901-11.47,8.57
	c-4.1801,3.6-9.19,6.02-13.4,9.58c-5.64,4.82-12.24,8.34-17.92,13.13c-1.27,1.38-2.99,0.87-4.49,0.24
	c0.55-4.9,4.1299-8.69,5.2-13.44c1.3-5.74,3.54-11.31,7.14-16.01c3.22-4.2,6.25-8.94,6.6-14.37c-4.33,0.47-7.2599,4.08-10.92,6.06
	c-6.32,3.48-11.23,8.92-17.46,12.53c-6.28,3.52-10.41,9.76-16.66,13.32c-5.07,2.88-9.72,6.39-14.07,10.27
	c-3.59-2.35-0.84-6.91,0.48-9.84c3.2599-5.17,6.28-10.48,9.14-15.88c5.8-8.63,9.69-18.3,14.56-27.44c2.59-4.85,6.98-9.1,7.06-14.93
	c-5.1,0.77-9.28,3.97-13.74,6.29c-10.72,5.8-19.59,14.31-28.15,22.83c-5.78,4.87-10.23,11.12-16.04,15.95
	c-2.01,1.81-4.86,0.83-7.23,0.74c0.72-5.32,4.69-9.26,7.02-13.89c3.53-6.88,9.07-12.4,13.04-19c5.24-8.56,12.36-15.73,18.05-23.96
	c4.74-6.8,10.94-12.86,13.6-20.87c-0.2-0.24-0.6-0.73-0.8-0.97c-7.2599,3.59-12.81,9.68-19.36,14.32
	c-5.23,4.42-10.31,9.03-15.6,13.38c-4.71,3.95-8.48,9.0099-13.9,12.09c-6.46,3.79-10.99,11.17-18.96,12.03
	c1.1299-4.89,4.55-8.69,7.16-12.83c3.47-5.48,7.64-10.51,10.82-16.18c9.68-17.41,23.25-32.2,33.87-48.98
	c-0.48-0.23-1.44-0.69-1.92-0.92c-6.58,3.53-12.68,7.88-19.03,11.8c-8.74,5.4301-16.47,12.26-24.98,18.02
	c-7.46,5.15-14.37,11.03-21.81,16.2c-4.69,3.27-8.91,7.17-13.6,10.44c-1.19,0.98-2.69,1.13-4.16,1.07c-1.05-3.5,2.46-5.57,4.09-8.15
	c5.32-8.43,8.7401-18.08,15.38-25.65c5.23-6.86,9.47-14.42,14.72-21.27c2.93-3.79,5.82-7.63,8.28-11.75
	c5.05-8.46,12.83-15.24,16.4-24.58c-4.76,0.79-8.69,3.64-12.19,6.8c-7.32,5.29-14.33,11-21.34,16.69c-13.02,12.97-26,25.99-39,38.99
	c-2.91,2.78-5.42,6.1801-9.1,8c-1.64,1.02-5.31,0.1-4.09-2.3c3.11-5.38,6.79-10.42,10.48-15.42c10.35-13.84,19.08-28.79,29.18-42.81
	c3.99-6.61,8.63-12.79,12.66-19.37c2.55-4.06,6.55-7.18,8.04-11.89c-6.35,0.16-11.29,4.42-16.45,7.54c-5.68,3.5-10.63,8-15.88,12.1
	c-3.91,3.1-8.31,5.58-11.8,9.2c-3.94,4.07-8.69,7.27-12.52,11.47c-3.06,3.3-6.41,6.3-10.03,8.98c-4.25,3.09-7.73,7.14-12.28,9.83
	c-1.91-3.71,0.29-7.69,2.25-10.87c3.48-5.21,7.44-10.14,10.11-15.86c1.71-3.74,3.85-7.32,6.98-10.05
	c6.06-5.52,9.32-13.25,14.5-19.49c5-6.07,9.74-12.33,14.3-18.73c5.56-6.83,11.04-13.77,15.82-21.18c-0.72-0.31-1.42-0.31-2.09,0.01
	c-7.56,3.74-13.67,9.71-20.8,14.11c-8.24,5.78-16.52,11.49-24.8,17.21c-5.6,3.35-10.21,8.22-16.26,10.81
	c-0.43-0.93-0.67-1.89-0.73-2.87c6.07-14.18,16.97-25.44,27.43-36.49c2.94-3.46,4.92-7.64,8.1-10.91
	c6.5-6.85,14.41-12.94,18.19-21.86c-6.57,0.23-12.93,2.23-19.19,4.05c-5.79,2.79-12.15,3.79-18.32,5.32
	c-1.59,0.57-2.95-0.64-4.32-1.21c3.02-5.46,7.31-10.05,10.57-15.36c2.85-4.7,6.87-8.48,10.23-12.79
	C708.36,384.69,712.23,380.78,716.51,377.41z"/>
<path fill="#576B7D" stroke="#576B7D" stroke-width="0.394" d="M1003.05,424.4c1.84-0.29,3.69-0.59,5.55-0.89
	c1.01,4.03,1.92,8.09,2.48,12.22c-1.16,0.55-2.32,1.07-3.49,1.56c0.11,1.2,0.23,2.41,0.36,3.62
	C1006.19,435.45,1004.74,429.89,1003.05,424.4z"/>
<path fill="#576B7D" stroke="#576B7D" stroke-width="0.394" d="M1081.8101,424.97c5.08,6.42,9.83,13.15,13.85,20.29
	c6.0499,13.13,11.83,26.39,17.21,39.81c1.47,3.7,2.12,8.02,5.28,10.77c-0.88,2.3,0.4399,4.52,1.23,6.64
	c2.17,5.23,3.55,10.73,4.96,16.2c0.78,9.99,4.88,19.36,5.53,29.37c0.27,4.7,0.14,9.45,1.03,14.1c1.08,5.9,0.89,11.92,0.8199,17.89
	c-0.02,6.44-2.1799,12.6-2.6899,18.9901c-0.5901,6.65-1.4601,13.4399-4.6801,19.4c-3.65,6.87-5.86,14.46-10.0499,21.02
	c-6.8501,2.27-13.52-3.39-20.4301-1.55c-6.24,1.35-12.7,0.7-18.9301,2.02c-6.7699,1.48-13.7599,0.82-20.5399,2.21
	c-4.47,0.86-9.05,0.79-13.55,0.26c5.4-5.94,12.6801-9.59,18.49-15.04c4.0901-3.81,9.5901-5.47,13.88-8.99
	c-7.64-0.62-15.4299-0.67-22.9199,1.19c-7,1.81-14.3101,1.1-21.41,2.25c-6.75,0.75-13.27,3-20.09,3.11c0.18-5,5.15-7.12,8.79-9.41
	c15.6199-9.5,31.7299-18.27,46.53-29.04c-6.4-0.72-12.87-1.8-19.3099-0.83c-10.52,1.23-20.1201,6.32-30.6401,7.61
	c-7.21,0.82-13.76,4.61-21.07,4.72c-0.38-1.4901-0.99-3.19,0.59-4.2c7.79-6.86,17.21-11.61,26.8-15.42
	c7.86-4.11,16.55-6.25,24.48-10.21c6.74-3.21,13.91-5.64,20.11-9.91c-16.37-1.1299-32.1899,4.3-48.1799,6.85
	c-8.87,2.46-18.09,4.04-27.3,2.79c1.37-1.72,2.85-3.45,4.98-4.24c5.82-2.5,11.78-4.72,17.33-7.81c6.2-3.52,12.8801-6.14,18.92-9.97
	c9.37-5.88,20.25-8.73,29.9401-13.96c0.13-2.12-2.39-1.51-3.74-1.83c-17.62-1.1-35.04,2.49-52.46,4.45
	c-5.48,0.38-10.95,1.03-16.18,2.77c-5,1.68-10.31,2.08-15.53,1.58c0.21-1.14,0.35-2.28,0.4-3.42c5.8-3.38,12.28-5.47,17.84-9.3
	c5.28-3.7,11.41-5.82,17.09-8.78c4.52-2.25,9.04-4.49,13.54-6.78c5.89-3.07,12.55-4.26,18.4501-7.32c5.72-2.93,11.7699-5.33,17-9.13
	c-3.0701-0.25-6.14-0.43-9.1901-0.2c4.49-1.87,8.9301-3.9,13.51-5.58c3.96-1.61,8.73-2.94,10.6899-7.16
	c3.05-5.96,5.3301-12.27,7.78-18.49c2.29-5.61,1.74-11.77,1.7101-17.69C1081.53,438.32,1081.75,431.65,1081.8101,424.97z"/>
<path fill="#576B7D" stroke="#576B7D" stroke-width="0.394" d="M991.24,429.87c0.49,2.69,0.87,5.41,1.51,8.08
	c-4.51,1.2-9.2,1.45-13.81,0.84c0.26-1.03,0.41-2.07,0.44-3.13C983.58,434.3,987.75,432.65,991.24,429.87z"/>
<path fill="#576B7D" stroke="#576B7D" stroke-width="0.394" d="M221.44,441.39c0.97-1.75,2.29-3.26,3.59-4.77
	c0.1,9.19-2.15,18.17-4.16,27.07c-2.8,16.04-6.9,31.82-10.4,47.72c-1.44,10.31-3.73,20.46-5.34,30.74
	c-2.29,11.81-5.45,23.46-7.63,35.3c-2.9,21.29-8.96,42.01-11.49,63.36c-5.24-2.62-10.37-5.76-16.17-6.97
	c-2.96-0.9301-6.7,1.8-5.86,5.02c0.52,2.8,3.18,4.35,5.26,5.96c6.01,4.16,11.8,8.63,17.5,13.22c3.93,6.91,9.89,12.34,14.05,19.1
	c4.82,8.57,9.1,17.53,11.23,27.19c3.19,9.41,3.67,19.38,5.24,29.12c0.83,5.8,0.05,11.67,0.61,17.5c0.73,7.11,2.19,14.12,3.17,21.21
	c0.07,1.7,0.04,3.41,0.03,5.14c-2.08-0.98-4.13-2.03-6.12-3.17c0.57-7.78-1.39-15.41-1.3-23.17c-0.12-6.35-1.75-12.59-1.37-18.97
	c0.33-9.42,0.5-19.06-2.69-28.08c-2.98,3.6-6.54,7.26-7.13,12.1201c-0.91,7.6-2.24,15.24-1.62,22.93c0.7,8.69-0.98,17.58,1.22,26.13
	c-6.34-4.06-12.6-8.26-19.03-12.19c-10.21-6.54-18.18-15.76-26.98-23.96c-3.74-3.93-7.49-7.84-11.39-11.6
	c-4.58-4.47-6.06-10.89-8.74-16.48c-3.54-7.15-4.29-15.2-6.96-22.65c-2.09-9.77-1.24-20.09,1.38-29.68
	c1.56-6.0601,1.58-12.47,4.01-18.3c2.06-5.12,3.39-10.48,5.16-15.69c3.72-10.18,7.58-20.31,11.81-30.28
	c4.58-13.04,11.48-25.04,17.5-37.42C186.32,511.67,204.09,476.63,221.44,441.39z"/>
<path fill="#576B7D" stroke="#576B7D" stroke-width="0.394" d="M999.07,454.2c2.35,5.43,3.26,11.59,6.97,16.36
	c-10.41,1.95-20.53,5.39-31.11,6.37c-5.78,0.43-11.42,2.16-17.25,1.95c1.22-2.1,2.66-4.17,4.89-5.31c6.69-3.78,13.84-6.65,20.6-10.3
	c4.89-2.74,10.14-4.73,15.29-6.9C998.61,455.82,998.92,454.74,999.07,454.2z"/>
<path fill="#576B7D" stroke="#576B7D" stroke-width="0.394" d="M186.68,641.22c30.38-53.79,60.61-107.67,90.82-161.56
	c0.47,5.93-1.64,11.6-2.3,17.43c-0.79,6.23-1.94,12.41-3.46,18.51c-2.56,10.05-3,20.46-5.3,30.57c-1.23,9.39-3.59,18.56-5.4,27.84
	c-1.72,11.37-5.09,22.41-6.55,33.82c-2.1,10.05-2.89,20.33-5.42,30.3c-1.79,7.08-2.57,14.37-4.33,21.46
	c-1.17,4.78-2.1,9.62-2.57,14.53c1.04-1.59,2.08-3.17,2.99-4.83c9.85-19.22,18.85-38.89,29.52-57.68
	c7.94-15.76,15.73-31.61,23.71-47.35c11.44-19.98,20.49-41.24,31.67-61.35c-1.05,10.23-4.05,20.11-6,30.18
	c-3.47,13.53-6.8,27.12-9.07,40.92c-2.89,13.92-7.69,27.42-9.53,41.56c-2.73,11.81-5.79,23.54-8.59,35.34
	c-1.44,6.53-4.01,12.81-4.61,19.53c5.53-4.3,8.62-10.77,13.26-15.89c25.66-33.66,51.7-67.05,77.44-100.64
	c1.07-1.25,2.4-2.21,3.69-3.19c0.81,7.83-1.97,15.34-3.06,22.9901c-3.87,16.42-7.35,32.97-12.82,48.96
	c-4.05,13.02-9.11,25.7-13.37,38.66c-5.34,13.91-9.93,28.11-13.17,42.67c-0.54,1.27-1.08,2.53-1.59,3.82
	c-3.32,7.75-5.6,16.1-5.72,24.57c5.4-3.61,9.15-9.2,12.04-14.92c7.73,5.4301,15.34,11.04,23.1,16.45c5.09,3.57,10.21,7.17,14.7,11.5
	c2.14,5.66,6.67,9.83,9.95,14.8c4.94,7.48,10.42,14.69,14.12,22.91c3.98,8.81,9.53,17,11.75,26.52c2.45,10.09,5.37,20.08,7.35,30.28
	c-1.07-0.18-2.12-0.35-3.17-0.53c-0.12,3.17-0.18,6.35,0.18,9.52c-0.73-4.92-0.63-9.99-2.2-14.75c-1.34-4.3-2.92-8.52-4.69-12.65
	c-2.42,1.6-5.22,3.07-6.49,5.83c-1.76,3.62-3.45,7.27-5.1,10.94c-16.23-0.08-32.04-4.33-48.02-6.67c-4.66-0.62-9.18-1.9-13.68-3.19
	c-10.21-2.58-20.56-4.77-30.43-8.51c-5.74-2-11.36-4.3-17.14-6.16c-4.68-1.45-8.97-4.03-13.85-4.81c-0.56,1.28-1.13,2.57-1.67,3.88
	c2.56-9.05,1.68-18.58,1.58-27.85c-1.75-14.02-6.41-27.64-13.21-40.01c-6.21-11.79-10.18-24.89-18.52-35.48
	c-5.13-6.56-10.12-13.23-14.97-20.01c-3.92-5.66-9.38-9.98-13.63-15.36c-4.45-5.54-9.84-10.19-14.74-15.3
	C203.39,651.68,194.94,646.47,186.68,641.22z"/>
<path fill="#576B7D" stroke="#576B7D" stroke-width="0.394" d="M1015.02,482.13c2.41,3.18,4.45,7.3,8.63,8.42
	c4.7899,1.54,9.6799,2.77,14.49,4.3c-13.88,2.82-27.72,5.83-41.53,9c-7.28,2.23-14.6,4.31-21.79,6.82
	c-5.17,1.78-10.64,2.51-16.09,2.41c0.72-1.88,0.98-4.28,3.07-5.2c5.67-3.02,11.49-5.81,17.29-8.59
	C991.47,494.44,1002.85,487.45,1015.02,482.13z"/>
<path fill="#576B7D" stroke="#576B7D" stroke-width="0.394" d="M424.1,612.09c4.35-5.07,9.56-9.28,15.08-13.02
	c-1.87,9.72-4.81,19.21-6.26,29.01c-1.79,8.99-2.36,18.22-5,27.04c-1.36,4.54-2.16,9.21-2.96,13.87
	c-3.29,15.05-7.22,29.98-9.8,45.18c2.21-2.14,4.34-4.36,6.23-6.79c7.73-10.02,15.21-20.23,22.24-30.74
	c6.73-8.67,13.71-17.16,19.77-26.33c4.49-6.7,10.39-12.32,14.78-19.09c4.24-6.59,8.81-13.1,14.71-18.3199
	c0.88,8.5-3.35,16.24-4.44,24.5099c-2.53,11.8701-3.74,24.03-7.19,35.7c-3.33,13.77-5.39,27.81-7.67,41.79
	c-2.26,9.66-2.86,19.6-5.15,29.2599c-0.89,3.95-1.55,7.95-2.36,11.9301c-1.03,5.08-2.99,9.93-3.77,15.08
	c-0.65,4.13-1.31,8.27-2.36,12.33c-3.37-4.09-7.5-7.47-10.7-11.71c-4.32-5.64-9.74-10.29-14.66-15.37
	c-18.65-19.54-40.66-35.68-64.15-48.93c-3.69-2.05-7.64-3.56-11.51-5.23c4.66-8.07,9.74-15.9,14.15-24.11
	c3.44-6.39,8.45-11.72,12.31-17.83c5.93-9.26,12.26-18.26,18.84-27.08C409.91,625.35,417.69,619.35,424.1,612.09 M412.41,721.37
	c-1,3.93-2.52,7.72-3.16,11.74c1.69-0.32,1.84-2.23,2.39-3.54c1.25-4.16,3.25-8.18,3.27-12.61
	C413.11,717.69,412.94,719.76,412.41,721.37z"/>
<path fill="#576B7D" stroke="#576B7D" stroke-width="0.394" d="M529.62,659.7c5.15-10.26,10.44-20.52,16.88-30.04
	c0.26,5.31-1.6,10.38-2.15,15.6201c-0.72,6.29-1.08,12.64-2.25,18.8799c-2.33,11.47-3.91,23.07-6.3199,34.53
	c-1.41,12.14-4.4301,24.01-5.9901,36.14c-1.03,8.37-3.82,16.44-4.18,24.92c-0.5,8.88-2.35,17.6-3.38,26.42
	c2.43-2.84,3.86-6.31,5.23-9.74c14.43-32.13,29.36-64.02,43.75-96.17c3.38-6.44,5.27-13.67,9.8-19.47
	c-1.52,16.2401-3.78,32.42-5.59,48.65c-2.1,10.81-4.09,21.68-4.48,32.72c1.55-1.8799,3.06-3.79,4.37-5.84
	c10.36-16.85,20.3-33.98,31.29-50.43c-1.16,5.79-2.84,11.47-4.84,17.02c-3.85,10.22-5.79,21.04-9.59,31.27
	c-4.01,10.54-5.38,21.87-9.6,32.34c-3.49,9.15-5.37,18.8-7.9,28.23c-0.88,3.56-3.07,6.71-6.19,8.68
	c-10.81,7.26-22.07,14-34.28,18.66c-12.12,4.65-24.14,10.59-37.35,11.18c-8.25-11.79-16.61-23.51-24.72-35.39
	c-3.07-4.6-7.25-8.26-10.71-12.52c7.77-8.97,11.11-20.7,17.11-30.79c5.35-8.58,8.92-18.11,14.28-26.68
	c3.48-5.72,5.81-12.04,9.23-17.78c6.05-10.39,11.74-20.97,17.52-31.5C522.69,672.19,525.95,665.83,529.62,659.7z"/>
<path fill="#E9F7F7" stroke="#E9F7F7" stroke-width="0.394" d="M927.38,660.52c4.27-0.5,8.49,1.66,11.38,4.72
	c2.96,3.03,5.96,6.03,8.96,9.03c3.88,3.9,6.57,8.75,9.97,13.04c3.55,4.38,5.61,9.69,8.56,14.46c4.39,7.56,8.38,15.38,11.29,23.64
	c4.4,10.79,8.84,21.58,12.25,32.7401c4.92,12.95,8.18,26.41,11.07,39.94c1.43,6.9,3.7,13.64,4.43,20.68
	c1.57,14.13,5.22,27.99,5.82,42.23c-0.01,9.33-0.06,18.67-0.02,28c0.6,15.48-3.06,30.66-5.26,45.88
	c-0.95,6.82-3.53,13.29-6.43,19.49c-1.84,3.9-4.21,7.67-7.64,10.36c-2.43,2.05-5.84,1.39-8.76,1.62
	c-8.09,0.45-15.75-2.96-22.74-6.66c-6.43-4.61-14.14-7.45-19.58-13.37c-4.37-4.64-9.25-8.81-13.15-13.87
	c-6.16-7.8-14.8101-13.42-19.92-22.06c-3.82-6.42-8.56-12.24-12.25-18.74c-6.11-10.61-13.27-20.66-18.1-31.97
	c-4.2-9.39-10.02-18.1-12.8-28.09c-2.55-7.31-5.4-14.51-7.92-21.82c-1.72-7.38-2.7599-14.91-5.05-22.15
	c-2.6-8.33-1.12-17.11-1.6-25.65c-0.38-6.79-0.2-13.61,0.7-20.35c0.71-4.66-0.1-9.62,2-13.99c2.44-5.68,4.99-11.33,6.87-17.23
	c1.11-3.79,3.92-6.66,6.13-9.82c2.75-3.89,5.6-7.71,8.55-11.46c3.12-4,7.68-6.4,11.81-9.18c5.83-3.57,11.15-8.15,17.75-10.29
	C911.7,666.9,919.18,662.67,927.38,660.52 M925.37,719.3c-6.24,2.19-13.14,3.32-18.36,7.65c-10.13,7.29-19.57,16.85-23.11,29.12
	c-0.91,2.56-1.9901,5.13-2.11,7.89c-0.25,7.68-0.44,15.36-0.11,23.04c-0.21,6.28,1.78,12.3,2.83,18.43
	c0.85,4.97,2.75,9.66,4.63,14.32c4.82,14.3,12.3,27.51,19.22,40.87c5.16,7.09,9.78,14.74,16.35,20.66
	c4.0099,3.74,6.5,8.7599,10.43,12.58c2.65,2.83,5.93,4.94,9.38,6.69c5.13,2.6,10.05,5.85,15.68,7.31c3.44,0.83,7.79,0.48,10.03-2.63
	c3.11-4.23,4.46-9.41,5.75-14.41c1.31-5.22,3.41-10.33,3.33-15.79c-0.08-13.35,0.04-26.7-0.05-40.05
	c-0.81-9.61-1.93-19.28-4.51-28.6c-2.8-10.94-5.52-21.93-9.44-32.53c-1.26-4.27-2.5-8.5699-4.48-12.5699
	c-4.66-10.0601-8.89-20.51-15.67-29.38c-3.16-4.44-6.6-8.95-11.4-11.73C931.24,718.66,928.14,718.43,925.37,719.3z"/>
<path fill="#FFFFFF" stroke="#FFFFFF" stroke-width="0.394" d="M925.37,719.3c2.77-0.87,5.87-0.64,8.39,0.87
	c4.8,2.78,8.24,7.29,11.4,11.73c6.78,8.87,11.01,19.3199,15.67,29.38c1.98,4,3.22,8.3,4.48,12.5699c3.92,10.6,6.64,21.59,9.44,32.53
	c2.58,9.32,3.7,18.99,4.51,28.6c0.09,13.35-0.03,26.7,0.05,40.05c0.08,5.46-2.02,10.5699-3.33,15.79c-1.29,5-2.64,10.18-5.75,14.41
	c-2.24,3.11-6.59,3.46-10.03,2.63c-5.63-1.46-10.55-4.71-15.68-7.31c-3.45-1.75-6.73-3.86-9.38-6.69
	c-3.93-3.82-6.42-8.84-10.43-12.58c-6.57-5.92-11.19-13.57-16.35-20.66c-6.92-13.36-14.4-26.57-19.22-40.87
	c-1.88-4.66-3.78-9.35-4.63-14.32c-1.05-6.13-3.04-12.15-2.83-18.43c-0.33-7.68-0.14-15.36,0.11-23.04c0.12-2.76,1.2-5.33,2.11-7.89
	c3.54-12.27,12.98-21.83,23.11-29.12C912.23,722.62,919.13,721.49,925.37,719.3z"/>
</svg>
