<?xml version="1.0" encoding="UTF-8" standalone="no"?>
<!-- Created with Inkscape (http://www.inkscape.org/) -->

<svg
   width="28.208649mm"
   height="28.208649mm"
   viewBox="0 0 28.208647 28.208648"
   version="1.1"
   id="svg2269"
   inkscape:version="1.1.2 (0a00cf5339, 2022-02-04)"
   sodipodi:docname="item397.svg"
   xmlns:inkscape="http://www.inkscape.org/namespaces/inkscape"
   xmlns:sodipodi="http://sodipodi.sourceforge.net/DTD/sodipodi-0.dtd"
   xmlns="http://www.w3.org/2000/svg"
   xmlns:svg="http://www.w3.org/2000/svg">
  <sodipodi:namedview
     id="namedview2271"
     pagecolor="#ffffff"
     bordercolor="#666666"
     borderopacity="1.0"
     inkscape:pageshadow="2"
     inkscape:pageopacity="0.0"
     inkscape:pagecheckerboard="0"
     inkscape:document-units="mm"
     showgrid="false"
     fit-margin-top="0"
     fit-margin-left="0"
     fit-margin-right="0"
     fit-margin-bottom="0"
     inkscape:zoom="0.48996914"
     inkscape:cx="54.085039"
     inkscape:cy="53.064567"
     inkscape:window-width="1366"
     inkscape:window-height="719"
     inkscape:window-x="0"
     inkscape:window-y="25"
     inkscape:window-maximized="1"
     inkscape:current-layer="layer1" />
  <defs
     id="defs2266" />
  <g
     inkscape:label="Capa 1"
     inkscape:groupmode="layer"
     id="layer1"
     transform="translate(-86.989372,-135.58378)">
    <g
       id="g7018"
       transform="matrix(0.04642234,0,0,0.04642234,-58.264724,-52.462868)">
      <path
         sodipodi:type="star"
         style="opacity:1;fill:#ff6600;fill-opacity:1;stroke:none;stroke-width:4;stroke-miterlimit:4;stroke-dasharray:none;stroke-opacity:1"
         id="path5675"
         sodipodi:sides="8"
         sodipodi:cx="3604.2244"
         sodipodi:cy="506.87982"
         sodipodi:r1="459.49396"
         sodipodi:r2="397.93344"
         sodipodi:arg1="0.52359878"
         sodipodi:arg2="0.91629786"
         inkscape:flatsided="true"
         inkscape:rounded="0"
         inkscape:randomized="0"
         transform="matrix(0.70588537,-0.0936067,0.0936067,0.70588537,841.17925,4334.1859)"
         d="m 4002.1578,736.6268 -279.0076,214.0901 -348.6728,-45.90364 -214.0901,-279.00765 45.9036,-348.67277 279.0077,-214.090099 348.6727,45.903639 214.0901,279.00766 z" />
      <path
         id="path5691"
         d="m 3557.7223,4052.2039 -250.4202,0.235 35.7367,86.05 179.1066,-0.1683 z"
         style="opacity:1;fill:#ff7f2a;fill-opacity:1;stroke:none;stroke-width:4;stroke-miterlimit:4;stroke-dasharray:none;stroke-opacity:1"
         inkscape:connector-curvature="0" />
      <path
         sodipodi:type="star"
         style="opacity:1;fill:#ffe6d5;fill-opacity:1;stroke:none;stroke-width:4;stroke-miterlimit:4;stroke-dasharray:none;stroke-opacity:1"
         id="path5677"
         sodipodi:sides="8"
         sodipodi:cx="3604.2244"
         sodipodi:cy="506.87982"
         sodipodi:r1="459.49396"
         sodipodi:r2="397.93344"
         sodipodi:arg1="0.52359878"
         sodipodi:arg2="0.91629786"
         inkscape:flatsided="true"
         inkscape:rounded="0"
         inkscape:randomized="0"
         transform="matrix(0.50486769,-0.06694996,0.06694996,0.50486769,1579.2038,4340.0009)"
         d="m 4002.1578,736.6268 -279.0076,214.0901 -348.6728,-45.90364 -214.0901,-279.00765 45.9036,-348.67277 279.0077,-214.090099 348.6727,45.903639 214.0901,279.00766 z" />
      <path
         id="path5679"
         d="m 3649.0811,4443.9554 86.1167,35.5768 -0.2364,-250.4201 -86.0487,35.7367 z"
         style="opacity:1;fill:#ffb380;fill-opacity:1;stroke:none;stroke-width:4;stroke-miterlimit:4;stroke-dasharray:none;stroke-opacity:1"
         inkscape:connector-curvature="0" />
      <path
         id="path5681"
         d="m 3522.553,4570.722 35.7367,86.0486 176.9078,-177.2388 -86.1167,-35.5768 z"
         style="opacity:1;fill:#ff7f2a;fill-opacity:1;stroke:none;stroke-width:4;stroke-miterlimit:4;stroke-dasharray:none;stroke-opacity:1"
         inkscape:connector-curvature="0" />
      <path
         id="path5683"
         d="m 3343.445,4570.8903 -35.5755,86.1167 250.4202,-0.2364 -35.7367,-86.0486 -179.1066,0.1683 v 0 z"
         style="opacity:1;fill:#d45500;fill-opacity:1;stroke:none;stroke-width:4;stroke-miterlimit:4;stroke-dasharray:none;stroke-opacity:1"
         inkscape:connector-curvature="0" />
      <path
         id="path5685"
         d="m 3216.6794,4444.3625 -86.05,35.7367 177.2401,176.9078 35.5755,-86.1167 z"
         style="opacity:1;fill:#aa4400;fill-opacity:1;stroke:none;stroke-width:4;stroke-miterlimit:4;stroke-dasharray:none;stroke-opacity:1"
         inkscape:connector-curvature="0" />
      <path
         id="path5687"
         d="m 3216.511,4265.2545 -86.1166,-35.5754 0.235,250.4201 86.05,-35.7367 z"
         style="opacity:1;fill:#d45500;fill-opacity:1;stroke:none;stroke-width:4;stroke-miterlimit:4;stroke-dasharray:none;stroke-opacity:1"
         inkscape:connector-curvature="0" />
      <path
         id="path5689"
         d="m 3343.0388,4138.4889 -35.7367,-86.05 -176.9077,177.2402 86.1166,35.5754 z"
         style="opacity:1;fill:#ff6600;fill-opacity:1;stroke:none;stroke-width:4;stroke-miterlimit:4;stroke-dasharray:none;stroke-opacity:1"
         inkscape:connector-curvature="0" />
      <path
         id="path5693"
         d="m 3557.7223,4052.2039 -35.5769,86.1167 126.767,126.5278 86.0487,-35.7367 z"
         style="opacity:1;fill:#ff9955;fill-opacity:1;stroke:none;stroke-width:4;stroke-miterlimit:4;stroke-dasharray:none;stroke-opacity:1"
         inkscape:connector-curvature="0" />
      <path
         style="opacity:1;fill:none;fill-opacity:1;stroke:#2b1100;stroke-width:2.84826;stroke-miterlimit:4;stroke-dasharray:none;stroke-opacity:1"
         d="m 3557.7223,4052.2039 -250.4202,0.235 -176.9077,177.2402 0.235,250.4201 177.2401,176.9078 250.4202,-0.2364 176.9078,-177.2388 -0.2364,-250.4201 z m -35.5769,86.1167 126.767,126.5278 0.1684,179.1066 -126.5278,126.767 -179.1066,0.1683 -126.767,-126.5278 -0.1684,-179.108 126.5278,-126.7656 z"
         id="path5695"
         inkscape:connector-curvature="0" />
      <path
         transform="matrix(0.4193857,-0.05561429,0.05561429,0.4193857,1893.0459,4342.4736)"
         inkscape:randomized="0"
         inkscape:rounded="0"
         inkscape:flatsided="true"
         sodipodi:arg2="0.91629786"
         sodipodi:arg1="0.52359878"
         sodipodi:r2="397.93344"
         sodipodi:r1="459.49396"
         sodipodi:cy="506.87982"
         sodipodi:cx="3604.2244"
         sodipodi:sides="8"
         id="path5697"
         style="opacity:1;fill:#ffb380;fill-opacity:1;stroke:none;stroke-width:4;stroke-miterlimit:4;stroke-dasharray:none;stroke-opacity:1"
         sodipodi:type="star"
         d="m 4002.1578,736.6268 -279.0076,214.0901 -348.6728,-45.90364 -214.0901,-279.00765 45.9036,-348.67277 279.0077,-214.090099 348.6727,45.903639 214.0901,279.00766 z" />
      <path
         id="path5699"
         d="m 3295.4223,4238.0139 -42.2913,42.3692 0.1404,148.7812 105.3021,105.1061 148.7813,-0.1405 104.6248,-104.8195 a 219.9353,213.18943 0 0 1 -96.6252,21.832 219.9353,213.18943 0 0 1 -219.9321,-213.1285 z"
         style="opacity:0.296;fill:#d45500;fill-opacity:1;stroke:none;stroke-width:4;stroke-miterlimit:4;stroke-dasharray:none;stroke-opacity:1"
         inkscape:connector-curvature="0" />
      <ellipse
         transform="matrix(0.9132659,-0.40736396,0.35538781,0.93471894,0,0)"
         ry="46.456512"
         rx="36.341537"
         cy="5405.7456"
         cx="1792.1106"
         id="ellipse5701"
         style="opacity:1;fill:#ffffff;fill-opacity:1;stroke:none;stroke-width:4;stroke-miterlimit:4;stroke-dasharray:none;stroke-opacity:1" />
      <path
         id="path5703"
         d="m 3499.1702,4217.8368 a 7.1391488,9.8164407 1.5576891 0 0 -2.1209,0.3853 7.1391488,9.8164407 1.5576891 0 0 -5.0275,12.1579 7.1391488,9.8164407 1.5576891 0 0 3.2015,5.755 20.921575,17.920456 52.148606 0 0 8.8576,24.8986 20.921575,17.920456 52.148606 0 0 25.9543,-3.7022 20.921575,17.920456 52.148606 0 0 -7.5156,-27.8206 20.921575,17.920456 52.148606 0 0 -16.5458,-3.4741 7.1391488,9.8164407 1.5576891 0 0 -0.1655,-1.1168 7.1391488,9.8164407 1.5576891 0 0 -6.6381,-7.0831 z"
         style="opacity:1;fill:#ffffff;fill-opacity:1;stroke:none;stroke-width:4;stroke-miterlimit:4;stroke-dasharray:none;stroke-opacity:1"
         inkscape:connector-curvature="0" />
      <path
         inkscape:connector-curvature="0"
         id="path5705"
         d="m 3546.7965,4078.6524 -228.5189,0.2148 -161.4347,161.7377 0.2146,228.5188 161.7378,161.4348 228.5189,-0.2148 161.4348,-161.7377 -0.2147,-228.5188 z m -15.4708,37.4481 139.7888,139.5271 0.1863,197.5077 -139.527,139.7887 -197.5077,0.1864 -139.7888,-139.5271 -0.1862,-197.5077 139.5269,-139.7902 z"
         style="opacity:0.389;fill:#ffe6d5;fill-opacity:1;stroke:none;stroke-width:4;stroke-miterlimit:4;stroke-dasharray:none;stroke-opacity:1" />
    </g>
  </g>
</svg>
