<?xml version="1.0" encoding="UTF-8" standalone="no"?>
<!-- Created with Inkscape (http://www.inkscape.org/) -->

<svg
   width="28.208649mm"
   height="28.208649mm"
   viewBox="0 0 28.208647 28.208648"
   version="1.1"
   id="svg2269"
   inkscape:version="1.1.2 (0a00cf5339, 2022-02-04)"
   sodipodi:docname="item383.svg"
   xmlns:inkscape="http://www.inkscape.org/namespaces/inkscape"
   xmlns:sodipodi="http://sodipodi.sourceforge.net/DTD/sodipodi-0.dtd"
   xmlns="http://www.w3.org/2000/svg"
   xmlns:svg="http://www.w3.org/2000/svg">
  <sodipodi:namedview
     id="namedview2271"
     pagecolor="#ffffff"
     bordercolor="#666666"
     borderopacity="1.0"
     inkscape:pageshadow="2"
     inkscape:pageopacity="0.0"
     inkscape:pagecheckerboard="0"
     inkscape:document-units="mm"
     showgrid="false"
     fit-margin-top="0"
     fit-margin-left="0"
     fit-margin-right="0"
     fit-margin-bottom="0"
     inkscape:zoom="0.48996914"
     inkscape:cx="54.085039"
     inkscape:cy="53.064567"
     inkscape:window-width="1366"
     inkscape:window-height="719"
     inkscape:window-x="0"
     inkscape:window-y="25"
     inkscape:window-maximized="1"
     inkscape:current-layer="layer1" />
  <defs
     id="defs2266" />
  <g
     inkscape:label="Capa 1"
     inkscape:groupmode="layer"
     id="layer1"
     transform="translate(-86.926292,-135.16041)">
    <g
       id="g6980"
       transform="matrix(0.04642234,0,0,0.04642234,-58.327804,34.148368)">
      <g
         id="g6643">
        <path
           transform="matrix(0.70588537,-0.0936067,0.0936067,0.70588537,841.17925,2459.3427)"
           inkscape:randomized="0"
           inkscape:rounded="0"
           inkscape:flatsided="true"
           sodipodi:arg2="0.91629786"
           sodipodi:arg1="0.52359878"
           sodipodi:r2="397.93344"
           sodipodi:r1="459.49396"
           sodipodi:cy="506.87982"
           sodipodi:cx="3604.2244"
           sodipodi:sides="8"
           id="path5055"
           style="opacity:1;fill:#ff0066;fill-opacity:1;stroke:none;stroke-width:4;stroke-miterlimit:4;stroke-dasharray:none;stroke-opacity:1"
           sodipodi:type="star"
           d="m 4002.1578,736.6268 -279.0076,214.0901 -348.6728,-45.90364 -214.0901,-279.00765 45.9036,-348.67277 279.0077,-214.090099 348.6727,45.903639 214.0901,279.00766 z" />
        <path
           inkscape:connector-curvature="0"
           style="opacity:1;fill:#ff0066;fill-opacity:1;stroke:none;stroke-width:4;stroke-miterlimit:4;stroke-dasharray:none;stroke-opacity:1"
           d="m 3557.7223,2177.3607 -250.4202,0.235 35.7367,86.05 179.1066,-0.1683 z"
           id="path5071" />
        <path
           transform="matrix(0.50486769,-0.06694996,0.06694996,0.50486769,1579.2038,2465.1577)"
           inkscape:randomized="0"
           inkscape:rounded="0"
           inkscape:flatsided="true"
           sodipodi:arg2="0.91629786"
           sodipodi:arg1="0.52359878"
           sodipodi:r2="397.93344"
           sodipodi:r1="459.49396"
           sodipodi:cy="506.87982"
           sodipodi:cx="3604.2244"
           sodipodi:sides="8"
           id="path5057"
           style="opacity:1;fill:#ffd5e5;fill-opacity:1;stroke:none;stroke-width:4;stroke-miterlimit:4;stroke-dasharray:none;stroke-opacity:1"
           sodipodi:type="star"
           d="m 4002.1578,736.6268 -279.0076,214.0901 -348.6728,-45.90364 -214.0901,-279.00765 45.9036,-348.67277 279.0077,-214.090099 348.6727,45.903639 214.0901,279.00766 z" />
        <path
           inkscape:connector-curvature="0"
           style="opacity:1;fill:#ff5599;fill-opacity:1;stroke:none;stroke-width:4;stroke-miterlimit:4;stroke-dasharray:none;stroke-opacity:1"
           d="m 3649.0808,2569.1118 86.1167,35.5768 -0.2364,-250.4201 -86.0487,35.7367 z"
           id="path5059" />
        <path
           inkscape:connector-curvature="0"
           style="opacity:1;fill:#ff0066;fill-opacity:1;stroke:none;stroke-width:4;stroke-miterlimit:4;stroke-dasharray:none;stroke-opacity:1"
           d="m 3522.553,2695.8788 35.7367,86.0486 176.9078,-177.2388 -86.1167,-35.5768 z"
           id="path5061" />
        <path
           inkscape:connector-curvature="0"
           style="opacity:1;fill:#aa0044;fill-opacity:1;stroke:none;stroke-width:4;stroke-miterlimit:4;stroke-dasharray:none;stroke-opacity:1"
           d="m 3343.445,2696.0471 -35.5755,86.1167 250.4202,-0.2364 -35.7367,-86.0486 -179.1066,0.1683 v 0 z"
           id="path5063" />
        <path
           inkscape:connector-curvature="0"
           style="opacity:1;fill:#d40055;fill-opacity:1;stroke:none;stroke-width:4;stroke-miterlimit:4;stroke-dasharray:none;stroke-opacity:1"
           d="m 3216.6794,2569.5193 -86.05,35.7367 177.2401,176.9078 35.5755,-86.1167 z"
           id="path5065" />
        <path
           inkscape:connector-curvature="0"
           style="opacity:1;fill:#aa0044;fill-opacity:1;stroke:none;stroke-width:4;stroke-miterlimit:4;stroke-dasharray:none;stroke-opacity:1"
           d="m 3216.511,2390.4113 -86.1166,-35.5754 0.235,250.4201 86.05,-35.7367 z"
           id="path5067" />
        <path
           inkscape:connector-curvature="0"
           style="opacity:1;fill:#d40055;fill-opacity:1;stroke:none;stroke-width:4;stroke-miterlimit:4;stroke-dasharray:none;stroke-opacity:1"
           d="m 3343.0388,2263.6457 -35.7367,-86.05 -176.9077,177.2402 86.1166,35.5754 z"
           id="path5069" />
        <path
           inkscape:connector-curvature="0"
           style="opacity:1;fill:#ff2a7f;fill-opacity:1;stroke:none;stroke-width:4;stroke-miterlimit:4;stroke-dasharray:none;stroke-opacity:1"
           d="m 3557.7223,2177.3607 -35.5769,86.1167 126.767,126.5278 86.0487,-35.7367 z"
           id="path5073" />
        <path
           sodipodi:type="star"
           style="opacity:1;fill:#ff80b2;fill-opacity:1;stroke:none;stroke-width:4;stroke-miterlimit:4;stroke-dasharray:none;stroke-opacity:1"
           id="path5077"
           sodipodi:sides="8"
           sodipodi:cx="3604.2244"
           sodipodi:cy="506.87982"
           sodipodi:r1="459.49396"
           sodipodi:r2="397.93344"
           sodipodi:arg1="0.52359878"
           sodipodi:arg2="0.91629786"
           inkscape:flatsided="true"
           inkscape:rounded="0"
           inkscape:randomized="0"
           transform="matrix(0.4193857,-0.05561429,0.05561429,0.4193857,1893.0459,2467.6304)"
           d="m 4002.1578,736.6268 -279.0076,214.0901 -348.6728,-45.90364 -214.0901,-279.00765 45.9036,-348.67277 279.0077,-214.090099 348.6727,45.903639 214.0901,279.00766 z" />
        <path
           inkscape:connector-curvature="0"
           style="opacity:0.296;fill:#ff0066;fill-opacity:1;stroke:none;stroke-width:4;stroke-miterlimit:4;stroke-dasharray:none;stroke-opacity:1"
           d="m 3295.4223,2363.1707 -42.2913,42.3692 0.1404,148.7812 105.3021,105.1061 148.7813,-0.1405 104.6248,-104.8195 a 219.9353,213.18943 0 0 1 -96.6252,21.832 219.9353,213.18943 0 0 1 -219.9321,-213.1285 z"
           id="path5079" />
        <ellipse
           style="opacity:1;fill:#ffffff;fill-opacity:1;stroke:none;stroke-width:4;stroke-miterlimit:4;stroke-dasharray:none;stroke-opacity:1"
           id="ellipse5081"
           cx="2459.4619"
           cy="3690.8044"
           rx="36.341537"
           ry="46.456512"
           transform="matrix(0.9132659,-0.40736396,0.35538781,0.93471894,0,0)" />
        <path
           inkscape:connector-curvature="0"
           style="opacity:1;fill:#ffffff;fill-opacity:1;stroke:none;stroke-width:4;stroke-miterlimit:4;stroke-dasharray:none;stroke-opacity:1"
           d="m 3499.1702,2342.9936 a 7.1391488,9.8164407 1.5576891 0 0 -2.1209,0.3853 7.1391488,9.8164407 1.5576891 0 0 -5.0275,12.1579 7.1391488,9.8164407 1.5576891 0 0 3.2015,5.755 20.921575,17.920456 52.148606 0 0 8.8576,24.8986 20.921575,17.920456 52.148606 0 0 25.9543,-3.7022 20.921575,17.920456 52.148606 0 0 -7.5156,-27.8206 20.921575,17.920456 52.148606 0 0 -16.5458,-3.4741 7.1391488,9.8164407 1.5576891 0 0 -0.1655,-1.1168 7.1391488,9.8164407 1.5576891 0 0 -6.6381,-7.0831 z"
           id="path5083" />
        <path
           style="opacity:0.389;fill:#ffd5e5;fill-opacity:1;stroke:none;stroke-width:4;stroke-miterlimit:4;stroke-dasharray:none;stroke-opacity:1"
           d="m 3546.7965,2203.8092 -228.5189,0.2148 -161.4347,161.7377 0.2146,228.5188 161.7378,161.4348 228.5189,-0.2148 161.4348,-161.7377 -0.2147,-228.5188 z m -15.4708,37.4481 139.7888,139.5271 0.1863,197.5077 -139.527,139.7887 -197.5077,0.1864 -139.7888,-139.5271 -0.1862,-197.5077 139.5269,-139.7902 z"
           id="path5085"
           inkscape:connector-curvature="0" />
        <path
           inkscape:connector-curvature="0"
           id="path5075"
           d="m 3557.7223,2177.3607 -250.4202,0.235 -176.9077,177.2402 0.235,250.4201 177.2401,176.9078 250.4202,-0.2364 176.9078,-177.2388 -0.2364,-250.4201 z m -35.5769,86.1167 126.767,126.5278 0.1684,179.1066 -126.5278,126.767 -179.1066,0.1683 -126.767,-126.5278 -0.1684,-179.108 126.5278,-126.7656 z"
           style="opacity:1;fill:none;fill-opacity:1;stroke:#2b0011;stroke-width:2.84826;stroke-miterlimit:4;stroke-dasharray:none;stroke-opacity:1" />
      </g>
    </g>
  </g>
</svg>
