<?xml version="1.0" standalone="no"?>
<!DOCTYPE svg PUBLIC "-//W3C//DTD SVG 20010904//EN"
 "http://www.w3.org/TR/2001/REC-SVG-20010904/DTD/svg10.dtd">
<svg version="1.0" xmlns="http://www.w3.org/2000/svg"
 width="250.000000pt" height="156.000000pt" viewBox="0 0 250.000000 156.000000"
 preserveAspectRatio="xMidYMid meet">
<metadata>
Created by potrace 1.16, written by Peter Selinger 2001-2019
</metadata>
<g transform="translate(0.000000,156.000000) scale(0.100000,-0.100000)"
fill="#000000" stroke="none">
<path d="M604 1421 c-81 -37 -120 -116 -111 -226 8 -108 67 -188 155 -210 47
-12 113 -8 141 9 10 6 11 -22 5 -131 -6 -125 -9 -141 -31 -170 -13 -18 -32
-33 -41 -33 -9 0 -35 20 -57 46 -32 37 -48 46 -82 51 -36 5 -45 2 -67 -22 -19
-20 -26 -39 -26 -66 0 -29 -5 -41 -22 -50 -36 -19 -46 -39 -53 -108 -4 -36
-14 -75 -22 -88 -11 -17 -14 -35 -9 -66 4 -23 7 -61 6 -85 -1 -50 22 -104 60
-135 20 -17 29 -36 33 -72 4 -27 12 -54 18 -60 10 -9 7 19 -6 62 -2 7 9 19 25
27 l30 14 0 -54 c0 -30 3 -54 8 -54 4 0 6 120 4 268 -3 245 -1 265 13 247 48
-61 57 -67 84 -62 16 3 33 1 40 -6 8 -8 11 -8 11 1 0 7 10 26 21 42 16 21 20
37 16 59 l-6 30 522 -6 c287 -3 523 -7 525 -8 1 -1 -2 -14 -7 -29 -13 -34 -5
-53 30 -71 44 -23 74 -19 102 15 14 17 28 30 31 30 3 0 7 -116 8 -257 1 -142
3 -228 5 -190 l4 67 30 0 c28 0 30 -2 25 -28 -15 -74 -17 -107 -7 -90 6 9 14
44 17 77 5 40 13 66 25 77 23 20 62 146 56 177 -4 19 -4 19 -6 -4 0 -14 -9
-33 -19 -42 -14 -13 -85 -36 -114 -37 -5 0 -8 22 -8 49 0 45 2 50 31 61 16 7
42 28 56 46 14 19 29 34 34 34 5 0 13 -15 18 -32 8 -26 9 -16 5 42 -8 96 -25
137 -59 146 -20 5 -25 11 -22 26 8 30 -12 87 -36 103 -30 19 -95 4 -119 -27
-50 -68 -44 -65 -61 -31 -18 34 -34 43 -78 43 l-29 0 0 129 0 128 69 -5 c59
-4 77 -1 113 18 99 51 144 125 136 228 -10 135 -86 207 -218 207 -104 -1 -175
-49 -201 -135 l-11 -37 -63 47 c-75 57 -137 75 -255 74 -123 -1 -251 -44 -305
-104 -23 -26 -35 -25 -35 0 0 58 -67 135 -139 159 -50 16 -140 12 -187 -8z
m777 -75 c126 -29 206 -104 263 -247 36 -90 36 -92 36 -240 0 -90 -4 -149 -10
-149 -5 0 -17 -14 -25 -30 -12 -23 -14 -39 -6 -65 l9 -35 -59 0 c-35 0 -69 6
-82 15 -12 7 -62 31 -112 51 -74 31 -102 37 -160 37 -89 0 -175 -25 -219 -63
-25 -23 -43 -30 -74 -30 -40 0 -41 0 -35 33 6 41 -25 83 -70 95 l-32 8 3 95
c5 149 19 228 52 294 93 186 308 282 521 231z m-602 -91 c33 -16 41 -33 41
-80 0 -69 -97 -99 -142 -44 -29 34 -19 108 16 131 18 12 55 9 85 -7z m1026 -1
c8 -4 23 -20 31 -36 44 -84 -55 -160 -121 -93 -63 62 6 161 90 129z m-1167
-547 c40 -38 92 -140 92 -178 0 -33 -32 -59 -71 -59 -29 0 -64 34 -102 101
-12 21 -25 39 -29 39 -12 0 -9 -13 7 -34 18 -23 22 -216 5 -216 -5 0 -28 16
-50 36 -22 20 -40 32 -40 26 0 -12 76 -82 90 -82 6 0 10 -22 10 -50 0 -49 -1
-50 -31 -50 -17 0 -39 5 -51 11 -11 6 -22 8 -25 6 -10 -10 60 -39 84 -34 23 4
24 2 21 -42 -3 -41 -6 -46 -28 -49 -54 -6 -120 65 -120 128 0 16 4 20 19 15
19 -6 19 -5 0 32 -26 50 -25 109 1 125 17 11 19 20 13 65 -7 59 11 97 52 113
20 8 24 15 22 48 -1 23 6 50 17 67 15 23 23 26 49 21 17 -4 46 -21 65 -39z
m1347 -2 c14 -13 25 -35 25 -48 0 -46 -115 -197 -151 -197 -10 0 -30 11 -45
23 -27 23 -27 25 -14 71 14 52 80 160 102 169 30 12 60 6 83 -18z m-1117 -21
c16 -11 22 -25 22 -55 l0 -39 -78 0 c-74 0 -79 1 -90 25 -9 20 -9 25 1 25 7 0
26 14 42 30 32 34 68 39 103 14z m914 -1 c23 -27 30 -60 18 -83 -9 -17 -21
-20 -74 -20 l-64 0 -7 42 c-6 36 -4 44 15 60 29 23 92 24 112 1z m-592 -17 c0
-2 -7 -20 -15 -40 -18 -43 -50 -49 -67 -11 -13 30 -10 35 34 45 42 10 48 11
48 6z m118 -5 c20 -12 -12 -71 -38 -71 -18 0 -50 44 -50 70 0 12 69 13 88 1z
m-89 -41 c9 -28 8 -30 -13 -30 -19 0 -22 4 -18 30 2 17 8 30 12 30 4 0 13 -13
19 -30z m-159 -9 c-6 -12 -20 -21 -33 -21 -21 1 -20 2 8 25 33 27 42 26 25 -4z
m335 16 c10 -8 15 -19 11 -25 -9 -14 -46 -16 -46 -3 0 5 -3 16 -6 25 -8 20 15
21 41 3z m-55 -23 c0 -8 -7 -14 -15 -14 -17 0 -18 2 -9 24 7 18 24 12 24 -10z
m-246 1 c3 -9 0 -15 -9 -15 -9 0 -12 6 -9 15 4 8 7 15 9 15 2 0 5 -7 9 -15z
m381 -15 c3 -5 2 -10 -4 -10 -5 0 -13 5 -16 10 -3 6 -2 10 4 10 5 0 13 -4 16
-10z m594 -32 c20 -35 2 -95 -43 -143 -54 -57 -66 -49 -66 42 0 66 3 80 25
109 21 27 29 32 48 25 12 -4 28 -19 36 -33z m1 -317 c0 -35 -38 -71 -76 -71
-33 0 -34 1 -34 39 0 43 -6 40 93 49 11 1 17 -5 17 -17z"/>
<path d="M1184 1246 c-26 -26 -34 -42 -34 -71 0 -51 53 -105 102 -105 91 0
142 117 79 181 -43 43 -101 41 -147 -5z m134 -9 c15 -14 22 -32 22 -56 0 -47
-12 -64 -47 -67 -15 -1 -20 0 -10 3 9 2 17 11 17 19 0 21 -29 29 -46 12 -17
-17 -9 -48 13 -48 8 0 12 -4 9 -8 -10 -16 -67 1 -86 26 -23 28 -27 89 -7 115
14 20 63 36 92 29 11 -3 30 -14 43 -25z"/>
<path d="M1209 1236 c0 -3 0 -31 0 -61 0 -77 0 -77 11 -70 6 3 10 19 10 35 0
24 5 29 26 32 32 4 54 32 38 48 -12 12 -84 26 -85 16z m61 -26 c13 -9 13 -11
0 -20 -19 -13 -34 -8 -38 13 -4 19 15 22 38 7z"/>
<path d="M1450 1123 c-38 -13 -96 -47 -111 -64 -9 -11 -23 -18 -30 -17 -30 7
-53 -176 -28 -225 6 -12 23 -35 38 -51 l26 -29 -27 18 c-16 9 -28 13 -28 7 0
-6 17 -21 38 -34 58 -36 143 -32 205 11 26 17 53 44 61 59 20 37 20 9 0 -30
-9 -16 -11 -27 -5 -23 32 19 56 123 41 175 -6 20 -5 30 3 33 18 6 -37 72 -72
86 -19 8 -28 18 -24 27 4 10 -3 14 -23 15 -48 3 -59 2 -100 -5 l-39 -6 35 20
c19 10 47 19 63 20 15 0 27 5 27 10 0 10 -25 12 -50 3z m80 -88 c45 -23 80
-82 80 -133 0 -55 -32 -117 -73 -142 -45 -28 -140 -27 -185 0 -92 56 -90 229
2 274 40 20 139 20 176 1z"/>
<path d="M1441 864 c-26 -33 -27 -56 -3 -77 41 -37 102 -11 102 42 0 58 -63
80 -99 35z"/>
<path d="M938 1061 c-12 -15 -28 -37 -35 -47 -11 -18 -12 -18 -13 1 -3 38 -18
-26 -19 -83 -1 -51 17 -110 42 -140 6 -8 12 -22 12 -30 0 -40 125 -71 195 -49
l25 8 -25 -15 c-15 -9 -51 -15 -90 -16 -46 0 -61 -3 -50 -10 22 -14 96 -12
133 4 44 19 92 72 118 130 18 41 20 60 15 113 -7 67 -32 143 -47 143 -13 0
-11 -14 3 -28 22 -22 -2 -12 -44 18 -47 34 -97 39 -154 15 -32 -13 -35 -13
-30 0 9 25 -11 17 -36 -14z m229 -27 c44 -33 69 -115 54 -172 -22 -80 -77
-122 -161 -122 -83 0 -138 40 -161 118 -11 37 -10 51 4 96 20 63 67 102 138
115 50 9 80 0 126 -35z m-216 -281 c13 -16 12 -17 -3 -4 -10 7 -18 15 -18 17
0 8 8 3 21 -13z"/>
<path d="M1006 1014 c-9 -8 -16 -26 -16 -39 0 -50 60 -73 93 -37 34 37 11 92
-38 92 -13 0 -31 -7 -39 -16z"/>
<path d="M1583 479 c-14 -5 -26 -22 -33 -48 -11 -41 -23 -51 -35 -30 -4 5 1
19 10 29 16 17 15 19 -9 36 -15 9 -30 13 -34 9 -4 -4 -1 -10 6 -12 17 -6 15
-23 -3 -23 -8 0 -24 -10 -36 -22 l-21 -23 7 35 c4 26 3 31 -4 20 -13 -19 -14
-70 -2 -70 5 0 19 12 30 26 l20 25 16 -30 c24 -47 52 -41 67 14 15 57 38 60
38 5 0 -48 11 -52 27 -9 10 26 10 30 -3 25 -11 -4 -12 -2 -4 14 5 10 10 21 10
23 0 11 -26 14 -47 6z"/>
<path d="M1688 484 c-14 -22 -21 -94 -9 -94 6 0 11 11 11 25 0 14 4 25 9 25
14 0 21 -43 9 -57 -13 -16 -11 -18 18 -27 27 -8 58 19 51 45 -3 12 0 19 9 19
8 0 14 -6 14 -14 0 -21 32 -29 49 -11 14 13 13 15 -7 15 -13 0 -25 7 -28 15
-7 18 -37 20 -65 4 -17 -9 -21 -7 -26 10 -3 12 -9 21 -13 21 -5 0 -10 8 -12
18 -2 10 -6 13 -10 6z m70 -96 c-3 -7 -13 -15 -24 -17 -16 -3 -17 -1 -5 13 16
19 34 21 29 4z"/>
<path d="M801 466 c-7 -8 -9 -25 -5 -40 6 -27 -1 -32 -25 -17 -12 8 -13 12 -1
26 13 16 10 19 -36 29 -4 0 -8 -13 -9 -30 -2 -27 2 -33 29 -41 53 -16 69 -7
61 35 l-6 37 21 -34 c26 -41 32 -37 17 12 -13 39 -27 46 -46 23z"/>
<path d="M1241 432 c-1 -59 -21 -65 -21 -6 0 32 -2 34 -35 34 -24 0 -35 -5
-35 -14 0 -8 4 -16 10 -18 5 -1 10 -18 12 -35 2 -32 3 -32 43 -26 22 3 41 6
42 7 1 1 -2 26 -7 56 l-8 55 -1 -53z m-35 -25 c4 -37 -13 -34 -18 3 -3 17 0
29 5 27 5 -1 11 -15 13 -30z"/>
<path d="M979 460 c-3 -19 -5 -25 -17 -47 -19 -34 -30 -28 -25 12 6 43 -12 47
-21 4 -4 -19 -13 -33 -26 -36 -36 -10 -21 -23 26 -23 38 0 47 4 51 21 5 16 11
19 32 14 14 -3 30 -12 35 -19 8 -11 15 -11 44 1 31 13 34 13 29 -1 -5 -12 0
-16 18 -16 28 0 37 11 25 29 -5 9 -19 12 -39 9 -24 -4 -28 -2 -20 9 9 9 8 13
0 13 -7 0 -11 8 -9 17 2 10 -4 19 -13 20 -12 3 -14 -4 -11 -30 2 -19 -1 -38
-7 -41 -6 -4 -11 0 -11 8 0 9 -4 16 -10 16 -5 0 -12 11 -16 25 -6 24 -33 35
-35 15z"/>
<path d="M1319 468 c-1 -2 -3 -12 -5 -23 -1 -11 -5 -36 -9 -55 -3 -19 -1 -42
4 -50 14 -21 25 -6 12 18 -13 25 -4 34 21 21 28 -15 48 -4 48 26 0 15 4 24 10
20 6 -3 10 -2 10 4 0 6 -12 13 -27 16 -16 4 -36 10 -45 16 -10 5 -19 8 -19 7z
m51 -53 c0 -8 -6 -15 -14 -15 -20 0 -29 17 -14 23 22 9 28 7 28 -8z"/>
<path d="M870 448 c0 -17 18 -44 24 -37 8 7 -5 49 -15 49 -5 0 -9 -6 -9 -12z"/>
<path d="M1650 435 c0 -14 2 -25 4 -25 2 0 6 11 8 25 3 14 1 25 -3 25 -5 0 -9
-11 -9 -25z"/>
<path d="M645 421 c-6 -20 29 -81 47 -81 7 0 28 33 28 44 0 14 -19 4 -23 -11
-4 -15 -6 -15 -12 5 -4 12 -11 22 -16 22 -5 0 -9 7 -9 15 0 8 5 15 11 15 5 0
7 -4 4 -10 -3 -5 1 -10 10 -10 24 0 13 24 -12 28 -14 2 -23 -4 -28 -17z"/>
<path d="M785 330 c-3 -5 -1 -10 4 -10 6 0 11 -7 11 -15 0 -8 -4 -15 -10 -15
-5 0 -10 5 -10 11 0 5 -4 7 -10 4 -5 -3 -10 -17 -10 -30 0 -24 -16 -42 -28
-31 -3 4 -1 20 5 36 6 17 10 30 8 30 -2 0 -10 2 -18 5 -17 7 -21 -49 -5 -82
15 -31 24 -29 45 10 l17 32 12 -40 13 -40 -1 47 c-2 61 9 73 18 20 4 -23 11
-39 16 -36 14 9 0 71 -20 95 -18 21 -28 24 -37 9z"/>
<path d="M636 312 c-3 -3 0 -12 7 -20 6 -8 12 -29 12 -46 0 -21 5 -31 15 -31
9 0 14 8 13 20 -1 10 3 27 8 36 7 14 3 21 -20 32 -17 8 -32 12 -35 9z"/>
<path d="M1017 313 c-15 -4 -18 -12 -15 -39 4 -35 -4 -40 -36 -28 -11 4 -14
14 -10 29 3 14 0 24 -9 28 -11 4 -14 -3 -13 -31 1 -38 17 -48 73 -51 20 -1 22
3 17 29 -4 19 -2 30 5 30 6 0 11 -10 11 -22 0 -26 16 -55 25 -47 3 4 1 18 -6
31 -8 18 -8 31 0 45 16 30 3 38 -42 26z"/>
<path d="M1183 313 c-25 -9 -13 -25 15 -19 15 3 21 3 14 0 -6 -3 -10 -10 -7
-14 3 -5 -5 -16 -17 -24 -25 -18 -25 -17 19 -33 34 -12 43 -7 56 30 4 9 13 17
22 17 18 0 21 -20 3 -20 -23 -1 34 -40 58 -40 25 0 44 26 44 59 0 26 26 27 40
2 14 -27 13 -31 -10 -31 -11 0 -20 -4 -20 -10 0 -10 27 -14 65 -10 24 2 46 20
25 20 -9 0 -7 5 6 14 21 16 19 20 -15 31 -21 6 -23 5 -18 -14 3 -11 2 -21 -3
-21 -4 0 -11 16 -14 36 -5 26 -11 34 -22 30 -9 -3 -21 -6 -29 -6 -7 0 -18 -20
-24 -45 -11 -45 -23 -53 -51 -35 -12 8 -10 14 15 40 16 16 24 30 18 30 -6 0
-16 -7 -23 -15 -9 -11 -16 -12 -30 -3 -22 14 -50 4 -57 -22 -3 -11 -14 -20
-24 -20 -19 0 -19 1 2 29 30 40 9 64 -38 44z"/>
<path d="M1520 310 c-12 -8 -12 -10 2 -15 9 -4 14 -13 11 -21 -6 -17 14 -45
31 -43 6 1 18 -1 26 -4 8 -3 34 -8 58 -11 23 -3 60 -9 82 -12 27 -4 40 -2 40
5 0 7 -6 11 -12 10 -30 -4 -58 2 -58 11 0 6 9 10 21 10 19 0 19 1 5 16 -9 8
-16 22 -16 30 0 11 -8 14 -27 12 -24 -2 -29 -8 -31 -36 -3 -25 -7 -32 -19 -28
-8 3 -20 6 -26 6 -8 0 -7 4 1 12 15 15 16 48 1 48 -6 0 -9 -6 -6 -14 7 -18
-20 -43 -33 -30 -4 5 -10 20 -12 33 -3 28 -16 35 -38 21z m177 -36 c8 -21 -13
-42 -28 -27 -13 13 -5 43 11 43 6 0 13 -7 17 -16z"/>
<path d="M872 270 c-1 -28 11 -40 22 -22 7 11 -4 52 -14 52 -4 0 -7 -13 -8
-30z"/>
<path d="M1107 286 c-4 -9 -13 -16 -22 -16 -8 0 -15 -9 -15 -19 0 -39 32 -34
44 7 11 34 26 26 26 -13 0 -22 5 -35 13 -35 9 0 11 12 9 40 -2 22 -8 40 -12
40 -5 0 -15 3 -23 6 -8 3 -17 -2 -20 -10z"/>
<path d="M1785 290 c-3 -5 -1 -10 4 -10 6 0 11 -10 11 -22 0 -17 3 -19 9 -9 6
9 11 10 15 2 4 -6 11 -9 16 -6 5 3 11 -4 15 -15 3 -11 11 -20 17 -20 6 0 7 7
3 18 -4 9 -8 24 -9 32 -1 16 -20 40 -31 40 -4 0 -5 -9 -2 -20 3 -11 1 -18 -4
-14 -5 3 -9 12 -9 20 0 16 -26 19 -35 4z"/>
<path d="M630 140 c0 -13 7 -20 20 -20 11 0 20 -4 20 -9 0 -5 -9 -13 -20 -16
-11 -3 -20 -15 -20 -26 0 -12 7 -19 20 -19 11 0 20 5 20 10 0 6 -5 10 -11 10
-6 0 1 14 16 32 25 30 26 33 9 45 -27 20 -54 16 -54 -7z"/>
<path d="M1800 130 c0 -22 16 -27 23 -7 2 6 7 9 11 5 4 -3 2 -15 -5 -27 -7
-11 -10 -23 -6 -27 11 -11 17 0 24 40 5 34 4 36 -21 36 -19 0 -26 -5 -26 -20z"/>
<path d="M762 128 c3 -19 -12 -58 -23 -58 -5 0 -9 9 -9 20 0 11 -7 20 -16 20
-8 0 -12 -5 -8 -11 3 -6 1 -15 -6 -19 -9 -6 -3 -13 19 -25 18 -9 34 -15 35
-13 1 2 8 17 15 35 7 17 21 33 32 36 17 5 18 3 4 -16 -18 -26 -4 -47 31 -47
18 0 23 5 21 21 -1 13 7 27 23 37 25 16 25 16 8 -4 -27 -31 -23 -54 10 -53 15
0 36 4 47 9 16 7 13 9 -17 9 -42 1 -43 3 -26 31 18 28 1 37 -31 18 -27 -15
-30 -14 -45 3 -18 21 -68 26 -64 7z m78 -43 c0 -8 -4 -15 -10 -15 -5 0 -10 7
-10 15 0 8 5 15 10 15 6 0 10 -7 10 -15z"/>
<path d="M1108 79 c-1 -33 0 -63 4 -65 11 -7 26 60 21 90 -10 48 -21 37 -25
-25z"/>
<path d="M1710 113 c0 -22 -2 -25 -10 -13 -6 10 -10 11 -10 3 0 -7 -5 -13 -11
-13 -5 0 -7 4 -4 10 3 5 0 7 -8 4 -8 -3 -20 2 -27 11 -20 25 -50 19 -50 -10 0
-28 -27 -35 -36 -10 -10 24 -24 17 -22 -10 2 -21 7 -25 35 -25 30 0 33 3 33
30 0 17 4 30 9 30 10 0 29 -21 30 -35 1 -5 7 -11 14 -11 6 -1 16 -2 21 -3 5 0
3 -8 -4 -16 -11 -13 -7 -15 23 -15 20 0 39 5 42 10 3 6 -2 10 -11 10 -14 0
-15 3 -6 12 14 14 16 68 2 68 -5 0 -10 -12 -10 -27z"/>
<path d="M973 120 c-28 -11 -31 -34 -4 -27 17 4 19 1 14 -29 l-6 -34 34 14
c18 7 37 24 42 37 l9 24 11 -25 c9 -22 11 -23 14 -6 6 23 -27 58 -34 38 -9
-24 -51 -67 -59 -60 -3 4 1 19 10 33 9 14 14 30 11 35 -7 12 -13 12 -42 0z"/>
<path d="M1328 122 c-10 -2 -21 -18 -26 -35 -10 -38 -52 -53 -52 -18 0 11 5
23 10 26 19 12 -1 25 -40 25 -21 0 -45 -7 -53 -15 -8 -8 -18 -11 -21 -7 -4 3
-3 -5 3 -18 5 -14 13 -24 18 -24 4 1 20 4 36 8 20 5 27 3 27 -8 0 -16 53 -32
70 -21 5 3 10 17 10 30 0 13 10 31 22 39 24 17 22 24 -4 18z m-108 -26 c0 -3
-4 -8 -10 -11 -5 -3 -10 -1 -10 4 0 6 5 11 10 11 6 0 10 -2 10 -4z"/>
<path d="M1408 107 c-7 -8 -20 -12 -28 -10 -19 5 -45 -22 -35 -37 3 -5 22 -10
41 -10 30 0 35 3 32 21 -4 28 26 49 44 31 10 -10 10 -17 0 -32 -10 -16 -10
-20 2 -20 8 0 23 -3 33 -6 15 -6 16 -4 6 7 -7 7 -13 23 -13 35 0 33 -57 48
-82 21z m-13 -28 c10 -15 -1 -23 -20 -15 -9 3 -13 10 -10 16 8 13 22 13 30 -1z"/>
<path d="M1755 70 c-3 -5 -1 -10 4 -10 6 0 11 5 11 10 0 6 -2 10 -4 10 -3 0
-8 -4 -11 -10z"/>
<path d="M1820 50 c0 -5 5 -10 11 -10 5 0 7 5 4 10 -3 6 -8 10 -11 10 -2 0 -4
-4 -4 -10z"/>
</g>
</svg>
