<?xml version="1.0" encoding="UTF-8" standalone="no"?>
<svg
   version="1.0"
   width="300pt"
   height="211pt"
   viewBox="0 0 300 211"
   preserveAspectRatio="xMidYMid meet"
   id="svg82"
   sodipodi:docname="venado.svg"
   inkscape:version="1.1.1 (3bf5ae0d25, 2021-09-20)"
   xmlns:inkscape="http://www.inkscape.org/namespaces/inkscape"
   xmlns:sodipodi="http://sodipodi.sourceforge.net/DTD/sodipodi-0.dtd"
   xmlns="http://www.w3.org/2000/svg"
   xmlns:svg="http://www.w3.org/2000/svg">
  <defs
     id="defs86" />
  <sodipodi:namedview
     id="namedview84"
     pagecolor="#ffffff"
     bordercolor="#666666"
     borderopacity="1.0"
     inkscape:pageshadow="2"
     inkscape:pageopacity="0.0"
     inkscape:pagecheckerboard="0"
     inkscape:document-units="pt"
     showgrid="false"
     width="300pt"
     inkscape:zoom="0.97748815"
     inkscape:cx="114.06788"
     inkscape:cy="141.17818"
     inkscape:window-width="1366"
     inkscape:window-height="719"
     inkscape:window-x="0"
     inkscape:window-y="25"
     inkscape:window-maximized="1"
     inkscape:current-layer="layer1" />
  <metadata
     id="metadata2">
Created by potrace 1.16, written by Peter Selinger 2001-2019
</metadata>
  <g
     inkscape:groupmode="layer"
     id="layer1"
     inkscape:label="Layer 1"
     style="display:inline">
    <g
       transform="matrix(0.1,0,0,-0.1,65.255061,214.295)"
       fill="#000000"
       stroke="none"
       id="g80">
      <path
         d="m 1049,2039 c -18,-18 -21,-18 -35,-4 -23,23 -59,18 -78,-10 -20,-30 -37,-32 -61,-5 -27,29 -61,25 -81,-9 l -18,-30 -38,35 c -59,53 -129,39 -167,-33 -18,-36 -18,-38 1,-92 10,-31 17,-63 15,-71 -2,-8 -9,1 -15,21 -14,40 -56,65 -90,55 -11,-4 -23,-2 -27,4 -4,6 -19,10 -33,8 -25,-3 -27,0 -24,30 2,26 -2,32 -18,32 -31,0 -35,-3 -32,-25 1,-11 2,-34 2,-51 0,-26 4,-33 25,-38 14,-4 30,-4 35,-1 6,4 20,-1 32,-9 12,-9 32,-13 44,-10 30,8 51,-26 56,-86 l 3,-45 -40,-5 c -46,-6 -57,-28 -27,-58 27,-27 62,-18 114,28 55,48 75,54 128,35 23,-8 71,-15 105,-15 h 63 l 5,63 c 3,34 7,77 9,96 3,39 33,65 48,42 7,-12 11,-13 25,-1 21,18 65,-2 65,-30 0,-21 -33,-60 -50,-60 -18,0 -10,39 10,50 27,15 14,33 -17,25 -14,-3 -31,-1 -39,6 -23,19 -39,-3 -24,-31 7,-13 9,-36 5,-56 -8,-44 5,-49 80,-29 69,18 70,19 88,70 19,54 43,57 56,8 21,-74 19,-75 -86,-89 -36,-4 -62,-15 -88,-37 -36,-29 -37,-32 -30,-76 12,-80 7,-182 -9,-200 -11,-12 -12,-26 -6,-61 5,-26 5,-58 0,-75 -5,-16 -12,-42 -15,-57 -4,-23 -13,-28 -57,-38 -29,-6 -102,-15 -163,-21 -60,-5 -150,-14 -200,-20 -49,-6 -113,-12 -141,-13 -27,-1 -55,-5 -61,-9 -11,-7 -77,36 -101,65 -22,27 -25,81 -8,122 9,21 16,55 16,74 0,31 -2,34 -13,22 -8,-8 -26,-44 -41,-79 -23,-54 -26,-73 -20,-118 5,-43 12,-58 36,-76 78,-59 78,-59 62,-118 -8,-30 -21,-117 -29,-194 -8,-77 -19,-172 -26,-212 -10,-60 -10,-80 1,-114 14,-40 13,-42 -12,-64 -20,-17 -27,-35 -32,-76 -3,-30 -10,-83 -16,-119 -13,-87 -12,-100 4,-100 31,0 38,22 52,178 4,39 11,72 17,72 5,0 7,-10 3,-23 -11,-43 -30,-263 -23,-280 10,-27 46,-21 58,11 6,15 12,81 13,146 1,82 5,121 13,123 8,3 12,-19 12,-76 0,-44 4,-89 10,-99 6,-11 6,-32 -2,-59 -12,-46 0,-89 29,-100 28,-11 35,13 35,123 -1,143 5,174 33,174 35,0 46,-14 44,-56 -2,-66 9,-177 21,-206 11,-28 34,-37 46,-18 4,6 6,57 6,113 0,142 4,157 40,157 h 29 V 211 82 l 35,-6 c 20,-4 39,-5 44,-2 4,3 11,34 15,68 10,81 10,92 1,156 -8,51 -7,52 18,52 27,0 27,-1 41,-153 5,-58 25,-109 40,-104 17,6 30,83 30,175 0,92 15,109 36,39 7,-23 23,-67 36,-98 13,-31 24,-60 24,-65 0,-15 38,-34 55,-28 16,7 21,54 6,70 -4,5 -18,41 -30,79 -12,39 -24,75 -27,81 -6,13 69,39 85,30 6,-4 11,-17 11,-29 0,-12 12,-40 25,-62 14,-22 25,-49 25,-60 0,-28 38,-87 53,-82 20,6 20,45 -1,90 -11,23 -29,71 -40,107 -19,65 -16,90 13,90 17,0 70,-95 79,-141 7,-41 43,-92 57,-83 8,5 7,29 -7,119 -2,17 -20,54 -38,83 -22,33 -30,52 -22,52 8,0 17,-12 20,-26 4,-14 23,-42 44,-63 20,-21 57,-63 80,-94 28,-35 49,-54 58,-50 24,9 15,41 -21,77 -19,20 -35,43 -35,52 0,24 -65,118 -96,141 -24,18 -27,26 -28,94 -1,48 -8,85 -19,107 -22,40 -35,112 -41,220 -3,46 -9,89 -14,95 -6,7 -15,32 -22,56 -6,24 -23,54 -37,67 -22,20 -24,27 -15,56 50,166 67,354 37,425 -21,49 -19,60 11,67 33,9 88,-28 79,-53 -31,-75 -16,-150 41,-198 20,-18 43,-33 50,-33 19,0 34,-33 34,-72 1,-50 35,-118 59,-118 11,0 47,14 79,30 33,17 65,30 71,30 6,0 29,16 51,36 27,25 40,45 40,63 0,34 8,45 48,65 22,11 39,32 51,59 10,23 26,49 35,56 10,8 23,29 31,47 7,18 32,58 55,89 26,35 40,64 38,78 -3,21 -6,22 -108,19 -58,-2 -123,-8 -145,-12 -22,-5 -79,-12 -127,-16 -77,-6 -88,-5 -94,10 -8,20 19,92 52,141 13,20 24,45 24,55 0,25 27,26 32,3 2,-10 0,-42 -5,-72 -4,-30 -5,-60 -3,-68 7,-18 54,-35 77,-28 23,8 26,53 4,61 -12,5 -14,18 -9,68 6,61 6,63 -26,89 -17,15 -43,27 -56,27 -27,0 -84,-54 -84,-80 -1,-8 -9,-29 -18,-46 -9,-17 -30,-55 -45,-83 -15,-28 -31,-49 -36,-47 -5,3 -11,25 -14,48 -4,31 -14,51 -38,72 -28,25 -37,28 -75,22 -25,-3 -46,-1 -49,5 -4,5 -25,9 -48,8 -23,0 -56,2 -73,6 -26,6 -37,2 -68,-26 -33,-29 -37,-36 -31,-66 3,-18 3,-49 -1,-69 l -7,-37 -59,7 c -80,8 -96,18 -96,60 0,19 -12,61 -27,95 -23,50 -25,64 -15,76 22,27 49,17 82,-30 18,-26 40,-45 50,-45 20,0 62,36 70,60 3,11 8,11 28,-3 33,-23 121,-3 104,24 -3,5 0,9 5,9 6,0 11,-7 11,-15 0,-35 88,-49 97,-15 7,25 23,26 23,1 0,-12 9,-20 28,-24 29,-6 52,7 52,29 0,23 14,16 32,-17 21,-36 51,-36 56,-1 8,55 -116,124 -135,76 -5,-15 -8,-15 -17,-2 -20,26 -45,29 -67,7 z m 639,-305 c 22,-6 21,-9 -25,-59 -66,-73 -122,-154 -178,-258 -45,-84 -51,-90 -103,-113 -30,-13 -58,-24 -63,-24 -12,0 -40,58 -38,78 4,48 -2,62 -38,81 -81,41 -95,73 -78,181 6,37 4,49 -10,60 -15,12 -15,15 6,26 13,7 33,9 48,4 28,-7 429,15 439,24 7,7 11,7 40,0 z M 947,1078 c 23,-27 43,-128 46,-224 2,-84 6,-106 26,-139 13,-22 25,-49 26,-60 14,-94 15,-112 3,-126 -27,-33 -86,-69 -114,-69 -16,0 -45,-5 -64,-10 -29,-9 -125,-12 -265,-9 -11,0 -49,-3 -86,-7 -50,-5 -84,-2 -148,15 -97,24 -111,33 -111,72 0,16 -5,48 -11,71 -10,37 -8,60 17,168 15,69 27,145 25,168 -2,53 36,126 71,136 13,3 99,11 192,17 93,7 206,19 250,29 77,16 82,16 107,-1 14,-10 31,-24 36,-31 z"
         id="path4" />
      <path
         d="m 1213,1587 c -41,-27 -46,-42 -30,-75 8,-18 27,-32 55,-42 38,-13 46,-13 70,0 40,23 41,66 3,108 -35,37 -54,39 -98,9 z"
         id="path6" />
      <path
         d="m 836,1101 c -9,-15 3,-39 24,-44 25,-6 43,7 38,29 -3,21 -52,32 -62,15 z"
         id="path8" />
      <path
         d="m 723,1074 c -9,-24 10,-49 38,-49 20,0 24,5 24,30 0,25 -4,30 -28,33 -18,2 -29,-2 -34,-14 z"
         id="path10" />
      <path
         d="m 662,1069 c -17,-6 -22,-15 -20,-31 6,-42 68,-30 68,12 0,23 -19,30 -48,19 z"
         id="path12" />
      <path
         d="m 436,1054 c -19,-19 -19,-19 -2,-37 20,-19 76,-10 76,12 0,38 -46,54 -74,25 z"
         id="path14" />
      <path
         d="m 550,1055 c -18,-21 -3,-55 25,-55 27,0 36,16 24,48 -10,25 -31,29 -49,7 z"
         id="path16" />
      <path
         d="m 344,1036 c -8,-21 15,-58 33,-54 22,4 38,32 30,52 -8,20 -56,21 -63,2 z"
         id="path18" />
      <path
         d="m 867,1004 c -4,-4 -7,-23 -7,-41 0,-32 2,-34 28,-31 24,3 27,7 27,38 0,28 -4,36 -20,38 -12,2 -24,0 -28,-4 z"
         id="path20" />
      <path
         d="m 645,980 c -9,-28 13,-52 44,-48 48,6 35,68 -15,68 -14,0 -25,-8 -29,-20 z"
         id="path22" />
      <path
         d="m 741,986 c -16,-19 -9,-41 18,-55 28,-16 71,20 55,46 -14,23 -57,28 -73,9 z"
         id="path24" />
      <path
         d="m 535,980 c -10,-16 14,-50 35,-50 24,0 33,15 25,40 -7,21 -49,28 -60,10 z"
         id="path26" />
      <path
         d="m 332,968 c -31,-31 10,-75 43,-48 21,17 19,37 -4,50 -24,13 -24,13 -39,-2 z"
         id="path28" />
      <path
         d="m 420,965 c -10,-12 -10,-18 0,-30 26,-32 88,-8 74,29 -8,20 -57,21 -74,1 z"
         id="path30" />
      <path
         d="m 558,899 c -27,-15 -23,-54 7,-67 32,-15 75,0 75,27 0,33 -51,58 -82,40 z"
         id="path32" />
      <path
         d="m 876,892 c -9,-28 3,-51 31,-58 30,-8 44,9 41,46 -2,20 -9,26 -35,28 -24,2 -33,-1 -37,-16 z"
         id="path34" />
      <path
         d="m 758,876 c -15,-35 -4,-56 31,-56 39,0 56,28 35,58 -20,29 -52,28 -66,-2 z"
         id="path36" />
      <path
         d="m 317,883 c -14,-14 -6,-53 13,-63 16,-8 24,-6 41,11 20,20 20,22 3,40 -17,19 -45,25 -57,12 z"
         id="path38" />
      <path
         d="m 672,878 c -7,-7 -12,-25 -12,-40 0,-23 4,-28 25,-28 14,0 29,8 35,19 13,25 13,27 -6,45 -19,19 -26,20 -42,4 z"
         id="path40" />
      <path
         d="m 441,866 c -15,-18 1,-56 24,-56 20,0 46,30 43,49 -4,21 -51,26 -67,7 z"
         id="path42" />
      <path
         d="m 298,790 c -22,-18 -23,-18 -4,-39 22,-24 49,-27 66,-6 32,38 -22,78 -62,45 z"
         id="path44" />
      <path
         d="m 448,789 c -28,-16 -23,-57 7,-65 45,-11 71,29 39,60 -18,19 -23,19 -46,5 z"
         id="path46" />
      <path
         d="m 543,784 c -7,-3 -13,-16 -13,-29 0,-28 30,-48 63,-43 18,2 22,10 22,38 0,32 -3,35 -30,37 -16,1 -36,0 -42,-3 z"
         id="path48" />
      <path
         d="m 667,783 c -13,-12 -7,-40 12,-57 15,-14 24,-15 40,-6 25,13 26,19 5,48 -15,21 -44,29 -57,15 z"
         id="path50" />
      <path
         d="m 792,778 c -15,-15 -15,-51 0,-66 18,-18 46,-14 58,7 12,24 4,48 -21,61 -22,12 -23,12 -37,-2 z"
         id="path52" />
      <path
         d="m 890,765 c -17,-21 -8,-50 17,-53 17,-3 24,3 29,23 4,18 2,30 -7,36 -19,12 -25,11 -39,-6 z"
         id="path54" />
      <path
         d="m 439,691 c -22,-18 -22,-19 -6,-45 20,-30 30,-32 51,-10 19,18 21,45 4,62 -16,16 -22,15 -49,-7 z"
         id="path56" />
      <path
         d="m 558,689 c -35,-20 -11,-75 29,-67 22,4 29,43 13,64 -14,16 -19,17 -42,3 z"
         id="path58" />
      <path
         d="m 665,686 c -16,-12 -17,-17 -6,-45 14,-32 38,-40 59,-19 17,17 15,65 -4,72 -22,9 -28,8 -49,-8 z"
         id="path60" />
      <path
         d="m 309,674 c -20,-24 1,-49 42,-49 39,0 50,23 24,49 -21,20 -49,21 -66,0 z"
         id="path62" />
      <path
         d="m 776,674 c -23,-22 -20,-41 8,-59 28,-19 66,-6 66,21 0,47 -43,70 -74,38 z"
         id="path64" />
      <path
         d="m 911,661 c -18,-32 -13,-50 18,-66 53,-27 87,9 53,55 -24,32 -57,38 -71,11 z"
         id="path66" />
      <path
         d="m 788,579 c -25,-14 -22,-36 6,-54 41,-27 77,4 50,44 -17,23 -30,26 -56,10 z"
         id="path68" />
      <path
         d="m 879,574 c -19,-23 1,-49 37,-49 20,0 30,6 32,18 8,40 -43,63 -69,31 z"
         id="path70" />
      <path
         d="m 303,564 c -15,-39 38,-67 60,-32 8,12 7,21 -2,32 -17,21 -50,20 -58,0 z"
         id="path72" />
      <path
         d="m 666,564 c -13,-33 -6,-54 19,-60 53,-13 84,26 46,58 -28,22 -57,23 -65,2 z"
         id="path74" />
      <path
         d="m 441,546 c -22,-26 -6,-48 31,-44 28,2 33,7 33,28 0,19 -6,26 -26,28 -14,2 -31,-4 -38,-12 z"
         id="path76" />
      <path
         d="m 552,548 c -18,-18 -15,-36 9,-49 29,-15 59,12 43,39 -14,22 -36,26 -52,10 z"
         id="path78" />
    </g>
  </g>
  <g
     inkscape:groupmode="layer"
     id="layer2"
     inkscape:label="Layer 2" />
</svg>
